<?xml version="1.0" encoding="UTF-8"?>
<svg xmlns="http://www.w3.org/2000/svg" xmlns:xlink="http://www.w3.org/1999/xlink"
     width="800.0" height="451.99999999999994" viewBox="0 0 20.0 11.299999999999999">
<defs>
<g id="d0">
<rect x="0.005" y="0.005" width="0.2640769230769105" height="0.2640769230769105" fill="#252525" />
<rect x="0.2740769230769105" y="0.005" width="0.2640769230769105" height="0.2640769230769105" fill="#252525" />
<rect x="0.543153846153821" y="0.005" width="0.2640769230769105" height="0.2640769230769105" fill="#252525" />
<rect x="0.8122307692307315" y="0.005" width="0.2640769230769105" height="0.2640769230769105" fill="#252525" />
<rect x="1.081307692307642" y="0.005" width="0.2640769230769105" height="0.2640769230769105" fill="#252525" />
<rect x="1.3503846153845525" y="0.005" width="0.2640769230769105" height="0.2640769230769105" fill="#252525" />
<rect x="1.6194615384614628" y="0.005" width="0.2640769230769105" height="0.2640769230769105" fill="#252525" />
<rect x="1.8885384615383733" y="0.005" width="0.2640769230769105" height="0.2640769230769105" fill="#252525" />
<rect x="2.157615384615284" y="0.005" width="0.2640769230769105" height="0.2640769230769105" fill="#252525" />
<rect x="2.4266923076921945" y="0.005" width="0.2640769230769105" height="0.2640769230769105" fill="#252525" />
<rect x="2.695769230769105" y="0.005" width="0.2640769230769105" height="0.2640769230769105" fill="#252525" />
<rect x="2.9648461538460156" y="0.005" width="0.2640769230769105" height="0.2640769230769105" fill="#252525" />
<rect x="3.2339230769229257" y="0.005" width="0.2640769230769105" height="0.2640769230769105" fill="#252525" />
<rect x="0.005" y="0.2740769230769105" width="0.2640769230769105" height="0.2640769230769105" fill="#252525" />
<rect x="0.2740769230769105" y="0.2740769230769105" width="0.2640769230769105" height="0.2640769230769105" fill="#FF4136" />
<rect x="0.543153846153821" y="0.2740769230769105" width="0.2640769230769105" height="0.2640769230769105" fill="#FF4136" />
<rect x="0.8122307692307315" y="0.2740769230769105" width="0.2640769230769105" height="0.2640769230769105" fill="#252525" />
<rect x="1.081307692307642" y="0.2740769230769105" width="0.2640769230769105" height="0.2640769230769105" fill="#252525" />
<rect x="1.3503846153845525" y="0.2740769230769105" width="0.2640769230769105" height="0.2640769230769105" fill="#37D449" />
<rect x="1.6194615384614628" y="0.2740769230769105" width="0.2640769230769105" height="0.2640769230769105" fill="#37D449" />
<rect x="1.8885384615383733" y="0.2740769230769105" width="0.2640769230769105" height="0.2640769230769105" fill="#252525" />
<rect x="2.157615384615284" y="0.2740769230769105" width="0.2640769230769105" height="0.2640769230769105" fill="#252525" />
<rect x="2.4266923076921945" y="0.2740769230769105" width="0.2640769230769105" height="0.2640769230769105" fill="#252525" />
<rect x="2.695769230769105" y="0.2740769230769105" width="0.2640769230769105" height="0.2640769230769105" fill="#252525" />
<rect x="2.9648461538460156" y="0.2740769230769105" width="0.2640769230769105" height="0.2640769230769105" fill="#252525" />
<rect x="3.2339230769229257" y="0.2740769230769105" width="0.2640769230769105" height="0.2640769230769105" fill="#252525" />
<rect x="0.005" y="0.543153846153821" width="0.2640769230769105" height="0.2640769230769105" fill="#252525" />
<rect x="0.2740769230769105" y="0.543153846153821" width="0.2640769230769105" height="0.2640769230769105" fill="#252525" />
<rect x="0.543153846153821" y="0.543153846153821" width="0.2640769230769105" height="0.2640769230769105" fill="#FF4136" />
<rect x="0.8122307692307315" y="0.543153846153821" width="0.2640769230769105" height="0.2640769230769105" fill="#252525" />
<rect x="1.081307692307642" y="0.543153846153821" width="0.2640769230769105" height="0.2640769230769105" fill="#252525" />
<rect x="1.3503846153845525" y="0.543153846153821" width="0.2640769230769105" height="0.2640769230769105" fill="#252525" />
<rect x="1.6194615384614628" y="0.543153846153821" width="0.2640769230769105" height="0.2640769230769105" fill="#37D449" />
<rect x="1.8885384615383733" y="0.543153846153821" width="0.2640769230769105" height="0.2640769230769105" fill="#252525" />
<rect x="2.157615384615284" y="0.543153846153821" width="0.2640769230769105" height="0.2640769230769105" fill="#252525" />
<rect x="2.4266923076921945" y="0.543153846153821" width="0.2640769230769105" height="0.2640769230769105" fill="#0074D9" />
<rect x="2.695769230769105" y="0.543153846153821" width="0.2640769230769105" height="0.2640769230769105" fill="#252525" />
<rect x="2.9648461538460156" y="0.543153846153821" width="0.2640769230769105" height="0.2640769230769105" fill="#252525" />
<rect x="3.2339230769229257" y="0.543153846153821" width="0.2640769230769105" height="0.2640769230769105" fill="#252525" />
<rect x="0.005" y="0.8122307692307315" width="0.2640769230769105" height="0.2640769230769105" fill="#252525" />
<rect x="0.2740769230769105" y="0.8122307692307315" width="0.2640769230769105" height="0.2640769230769105" fill="#252525" />
<rect x="0.543153846153821" y="0.8122307692307315" width="0.2640769230769105" height="0.2640769230769105" fill="#FF4136" />
<rect x="0.8122307692307315" y="0.8122307692307315" width="0.2640769230769105" height="0.2640769230769105" fill="#FF4136" />
<rect x="1.081307692307642" y="0.8122307692307315" width="0.2640769230769105" height="0.2640769230769105" fill="#252525" />
<rect x="1.3503846153845525" y="0.8122307692307315" width="0.2640769230769105" height="0.2640769230769105" fill="#252525" />
<rect x="1.6194615384614628" y="0.8122307692307315" width="0.2640769230769105" height="0.2640769230769105" fill="#252525" />
<rect x="1.8885384615383733" y="0.8122307692307315" width="0.2640769230769105" height="0.2640769230769105" fill="#252525" />
<rect x="2.157615384615284" y="0.8122307692307315" width="0.2640769230769105" height="0.2640769230769105" fill="#0074D9" />
<rect x="2.4266923076921945" y="0.8122307692307315" width="0.2640769230769105" height="0.2640769230769105" fill="#0074D9" />
<rect x="2.695769230769105" y="0.8122307692307315" width="0.2640769230769105" height="0.2640769230769105" fill="#252525" />
<rect x="2.9648461538460156" y="0.8122307692307315" width="0.2640769230769105" height="0.2640769230769105" fill="#252525" />
<rect x="3.2339230769229257" y="0.8122307692307315" width="0.2640769230769105" height="0.2640769230769105" fill="#252525" />
<rect x="0.005" y="1.081307692307642" width="0.2640769230769105" height="0.2640769230769105" fill="#252525" />
<rect x="0.2740769230769105" y="1.081307692307642" width="0.2640769230769105" height="0.2640769230769105" fill="#FF4136" />
<rect x="0.543153846153821" y="1.081307692307642" width="0.2640769230769105" height="0.2640769230769105" fill="#FF4136" />
<rect x="0.8122307692307315" y="1.081307692307642" width="0.2640769230769105" height="0.2640769230769105" fill="#FF4136" />
<rect x="1.081307692307642" y="1.081307692307642" width="0.2640769230769105" height="0.2640769230769105" fill="#252525" />
<rect x="1.3503846153845525" y="1.081307692307642" width="0.2640769230769105" height="0.2640769230769105" fill="#252525" />
<rect x="1.6194615384614628" y="1.081307692307642" width="0.2640769230769105" height="0.2640769230769105" fill="#252525" />
<rect x="1.8885384615383733" y="1.081307692307642" width="0.2640769230769105" height="0.2640769230769105" fill="#252525" />
<rect x="2.157615384615284" y="1.081307692307642" width="0.2640769230769105" height="0.2640769230769105" fill="#0074D9" />
<rect x="2.4266923076921945" y="1.081307692307642" width="0.2640769230769105" height="0.2640769230769105" fill="#0074D9" />
<rect x="2.695769230769105" y="1.081307692307642" width="0.2640769230769105" height="0.2640769230769105" fill="#0074D9" />
<rect x="2.9648461538460156" y="1.081307692307642" width="0.2640769230769105" height="0.2640769230769105" fill="#252525" />
<rect x="3.2339230769229257" y="1.081307692307642" width="0.2640769230769105" height="0.2640769230769105" fill="#252525" />
<rect x="0.005" y="1.3503846153845525" width="0.2640769230769105" height="0.2640769230769105" fill="#252525" />
<rect x="0.2740769230769105" y="1.3503846153845525" width="0.2640769230769105" height="0.2640769230769105" fill="#252525" />
<rect x="0.543153846153821" y="1.3503846153845525" width="0.2640769230769105" height="0.2640769230769105" fill="#252525" />
<rect x="0.8122307692307315" y="1.3503846153845525" width="0.2640769230769105" height="0.2640769230769105" fill="#252525" />
<rect x="1.081307692307642" y="1.3503846153845525" width="0.2640769230769105" height="0.2640769230769105" fill="#252525" />
<rect x="1.3503846153845525" y="1.3503846153845525" width="0.2640769230769105" height="0.2640769230769105" fill="#252525" />
<rect x="1.6194615384614628" y="1.3503846153845525" width="0.2640769230769105" height="0.2640769230769105" fill="#252525" />
<rect x="1.8885384615383733" y="1.3503846153845525" width="0.2640769230769105" height="0.2640769230769105" fill="#252525" />
<rect x="2.157615384615284" y="1.3503846153845525" width="0.2640769230769105" height="0.2640769230769105" fill="#252525" />
<rect x="2.4266923076921945" y="1.3503846153845525" width="0.2640769230769105" height="0.2640769230769105" fill="#252525" />
<rect x="2.695769230769105" y="1.3503846153845525" width="0.2640769230769105" height="0.2640769230769105" fill="#252525" />
<rect x="2.9648461538460156" y="1.3503846153845525" width="0.2640769230769105" height="0.2640769230769105" fill="#252525" />
<rect x="3.2339230769229257" y="1.3503846153845525" width="0.2640769230769105" height="0.2640769230769105" fill="#252525" />
<rect x="0.005" y="1.6194615384614628" width="0.2640769230769105" height="0.2640769230769105" fill="#252525" />
<rect x="0.2740769230769105" y="1.6194615384614628" width="0.2640769230769105" height="0.2640769230769105" fill="#252525" />
<rect x="0.543153846153821" y="1.6194615384614628" width="0.2640769230769105" height="0.2640769230769105" fill="#252525" />
<rect x="0.8122307692307315" y="1.6194615384614628" width="0.2640769230769105" height="0.2640769230769105" fill="#252525" />
<rect x="1.081307692307642" y="1.6194615384614628" width="0.2640769230769105" height="0.2640769230769105" fill="#252525" />
<rect x="1.3503846153845525" y="1.6194615384614628" width="0.2640769230769105" height="0.2640769230769105" fill="#252525" />
<rect x="1.6194615384614628" y="1.6194615384614628" width="0.2640769230769105" height="0.2640769230769105" fill="#252525" />
<rect x="1.8885384615383733" y="1.6194615384614628" width="0.2640769230769105" height="0.2640769230769105" fill="#252525" />
<rect x="2.157615384615284" y="1.6194615384614628" width="0.2640769230769105" height="0.2640769230769105" fill="#252525" />
<rect x="2.4266923076921945" y="1.6194615384614628" width="0.2640769230769105" height="0.2640769230769105" fill="#252525" />
<rect x="2.695769230769105" y="1.6194615384614628" width="0.2640769230769105" height="0.2640769230769105" fill="#252525" />
<rect x="2.9648461538460156" y="1.6194615384614628" width="0.2640769230769105" height="0.2640769230769105" fill="#252525" />
<rect x="3.2339230769229257" y="1.6194615384614628" width="0.2640769230769105" height="0.2640769230769105" fill="#252525" />
<rect x="-0.02666666666666667" y="-0.02666666666666667" width="3.5513333333331696" height="1.9368717948717067" fill="none" stroke="#111111ff" stroke-width="0.08" />
<text x="3.4979999999998364" y="2.3522884615383735" font-size="0.375" fill="black" text-anchor="end" font-family="Anuphan">13x7</text>
<text x="-0.037500000000000006" y="2.3522884615383735" font-size="0.375" fill="black" text-anchor="start" font-family="Anuphan" font-weight="600">Input 1</text>
</g>
<g id="d1">
<rect x="0.005" y="0.005" width="0.3447999999999836" height="0.3447999999999836" fill="#252525" />
<rect x="0.35479999999998363" y="0.005" width="0.3447999999999836" height="0.3447999999999836" fill="#252525" />
<rect x="0.7045999999999673" y="0.005" width="0.3447999999999836" height="0.3447999999999836" fill="#252525" />
<rect x="1.0543999999999507" y="0.005" width="0.3447999999999836" height="0.3447999999999836" fill="#252525" />
<rect x="1.4041999999999344" y="0.005" width="0.3447999999999836" height="0.3447999999999836" fill="#252525" />
<rect x="1.753999999999918" y="0.005" width="0.3447999999999836" height="0.3447999999999836" fill="#252525" />
<rect x="2.1037999999999015" y="0.005" width="0.3447999999999836" height="0.3447999999999836" fill="#252525" />
<rect x="2.453599999999885" y="0.005" width="0.3447999999999836" height="0.3447999999999836" fill="#F012BE" />
<rect x="2.803399999999869" y="0.005" width="0.3447999999999836" height="0.3447999999999836" fill="#F012BE" />
<rect x="3.1531999999998526" y="0.005" width="0.3447999999999836" height="0.3447999999999836" fill="#252525" />
<rect x="0.005" y="0.35479999999998363" width="0.3447999999999836" height="0.3447999999999836" fill="#252525" />
<rect x="0.35479999999998363" y="0.35479999999998363" width="0.3447999999999836" height="0.3447999999999836" fill="#37D449" />
<rect x="0.7045999999999673" y="0.35479999999998363" width="0.3447999999999836" height="0.3447999999999836" fill="#252525" />
<rect x="1.0543999999999507" y="0.35479999999998363" width="0.3447999999999836" height="0.3447999999999836" fill="#252525" />
<rect x="1.4041999999999344" y="0.35479999999998363" width="0.3447999999999836" height="0.3447999999999836" fill="#FFDC00" />
<rect x="1.753999999999918" y="0.35479999999998363" width="0.3447999999999836" height="0.3447999999999836" fill="#FFDC00" />
<rect x="2.1037999999999015" y="0.35479999999998363" width="0.3447999999999836" height="0.3447999999999836" fill="#252525" />
<rect x="2.453599999999885" y="0.35479999999998363" width="0.3447999999999836" height="0.3447999999999836" fill="#252525" />
<rect x="2.803399999999869" y="0.35479999999998363" width="0.3447999999999836" height="0.3447999999999836" fill="#F012BE" />
<rect x="3.1531999999998526" y="0.35479999999998363" width="0.3447999999999836" height="0.3447999999999836" fill="#252525" />
<rect x="0.005" y="0.7045999999999673" width="0.3447999999999836" height="0.3447999999999836" fill="#37D449" />
<rect x="0.35479999999998363" y="0.7045999999999673" width="0.3447999999999836" height="0.3447999999999836" fill="#37D449" />
<rect x="0.7045999999999673" y="0.7045999999999673" width="0.3447999999999836" height="0.3447999999999836" fill="#37D449" />
<rect x="1.0543999999999507" y="0.7045999999999673" width="0.3447999999999836" height="0.3447999999999836" fill="#252525" />
<rect x="1.4041999999999344" y="0.7045999999999673" width="0.3447999999999836" height="0.3447999999999836" fill="#FFDC00" />
<rect x="1.753999999999918" y="0.7045999999999673" width="0.3447999999999836" height="0.3447999999999836" fill="#FFDC00" />
<rect x="2.1037999999999015" y="0.7045999999999673" width="0.3447999999999836" height="0.3447999999999836" fill="#252525" />
<rect x="2.453599999999885" y="0.7045999999999673" width="0.3447999999999836" height="0.3447999999999836" fill="#252525" />
<rect x="2.803399999999869" y="0.7045999999999673" width="0.3447999999999836" height="0.3447999999999836" fill="#252525" />
<rect x="3.1531999999998526" y="0.7045999999999673" width="0.3447999999999836" height="0.3447999999999836" fill="#252525" />
<rect x="0.005" y="1.0543999999999507" width="0.3447999999999836" height="0.3447999999999836" fill="#252525" />
<rect x="0.35479999999998363" y="1.0543999999999507" width="0.3447999999999836" height="0.3447999999999836" fill="#37D449" />
<rect x="0.7045999999999673" y="1.0543999999999507" width="0.3447999999999836" height="0.3447999999999836" fill="#252525" />
<rect x="1.0543999999999507" y="1.0543999999999507" width="0.3447999999999836" height="0.3447999999999836" fill="#252525" />
<rect x="1.4041999999999344" y="1.0543999999999507" width="0.3447999999999836" height="0.3447999999999836" fill="#FFDC00" />
<rect x="1.753999999999918" y="1.0543999999999507" width="0.3447999999999836" height="0.3447999999999836" fill="#FFDC00" />
<rect x="2.1037999999999015" y="1.0543999999999507" width="0.3447999999999836" height="0.3447999999999836" fill="#252525" />
<rect x="2.453599999999885" y="1.0543999999999507" width="0.3447999999999836" height="0.3447999999999836" fill="#252525" />
<rect x="2.803399999999869" y="1.0543999999999507" width="0.3447999999999836" height="0.3447999999999836" fill="#252525" />
<rect x="3.1531999999998526" y="1.0543999999999507" width="0.3447999999999836" height="0.3447999999999836" fill="#252525" />
<rect x="0.005" y="1.4041999999999344" width="0.3447999999999836" height="0.3447999999999836" fill="#252525" />
<rect x="0.35479999999998363" y="1.4041999999999344" width="0.3447999999999836" height="0.3447999999999836" fill="#252525" />
<rect x="0.7045999999999673" y="1.4041999999999344" width="0.3447999999999836" height="0.3447999999999836" fill="#252525" />
<rect x="1.0543999999999507" y="1.4041999999999344" width="0.3447999999999836" height="0.3447999999999836" fill="#252525" />
<rect x="1.4041999999999344" y="1.4041999999999344" width="0.3447999999999836" height="0.3447999999999836" fill="#252525" />
<rect x="1.753999999999918" y="1.4041999999999344" width="0.3447999999999836" height="0.3447999999999836" fill="#252525" />
<rect x="2.1037999999999015" y="1.4041999999999344" width="0.3447999999999836" height="0.3447999999999836" fill="#252525" />
<rect x="2.453599999999885" y="1.4041999999999344" width="0.3447999999999836" height="0.3447999999999836" fill="#252525" />
<rect x="2.803399999999869" y="1.4041999999999344" width="0.3447999999999836" height="0.3447999999999836" fill="#252525" />
<rect x="3.1531999999998526" y="1.4041999999999344" width="0.3447999999999836" height="0.3447999999999836" fill="#252525" />
<rect x="-0.02666666666666667" y="-0.02666666666666667" width="3.5513333333331696" height="1.8023333333332514" fill="none" stroke="#111111ff" stroke-width="0.08" />
<text x="3.4979999999998364" y="2.217749999999918" font-size="0.375" fill="black" text-anchor="end" font-family="Anuphan">10x5</text>
<text x="-0.037500000000000006" y="2.217749999999918" font-size="0.375" fill="black" text-anchor="start" font-family="Anuphan" font-weight="600">Input 2</text>
</g>
<g id="d2">
<rect x="0.005" y="0.005" width="0.3129999999999851" height="0.3129999999999851" fill="#252525" />
<rect x="0.32299999999998513" y="0.005" width="0.3129999999999851" height="0.3129999999999851" fill="#252525" />
<rect x="0.6409999999999703" y="0.005" width="0.3129999999999851" height="0.3129999999999851" fill="#252525" />
<rect x="0.9589999999999553" y="0.005" width="0.3129999999999851" height="0.3129999999999851" fill="#252525" />
<rect x="1.2769999999999404" y="0.005" width="0.3129999999999851" height="0.3129999999999851" fill="#252525" />
<rect x="1.5949999999999256" y="0.005" width="0.3129999999999851" height="0.3129999999999851" fill="#252525" />
<rect x="1.9129999999999105" y="0.005" width="0.3129999999999851" height="0.3129999999999851" fill="#252525" />
<rect x="2.230999999999896" y="0.005" width="0.3129999999999851" height="0.3129999999999851" fill="#252525" />
<rect x="2.548999999999881" y="0.005" width="0.3129999999999851" height="0.3129999999999851" fill="#252525" />
<rect x="2.866999999999866" y="0.005" width="0.3129999999999851" height="0.3129999999999851" fill="#252525" />
<rect x="3.1849999999998513" y="0.005" width="0.3129999999999851" height="0.3129999999999851" fill="#252525" />
<rect x="0.005" y="0.32299999999998513" width="0.3129999999999851" height="0.3129999999999851" fill="#252525" />
<rect x="0.32299999999998513" y="0.32299999999998513" width="0.3129999999999851" height="0.3129999999999851" fill="#54D2EB" />
<rect x="0.6409999999999703" y="0.32299999999998513" width="0.3129999999999851" height="0.3129999999999851" fill="#54D2EB" />
<rect x="0.9589999999999553" y="0.32299999999998513" width="0.3129999999999851" height="0.3129999999999851" fill="#54D2EB" />
<rect x="1.2769999999999404" y="0.32299999999998513" width="0.3129999999999851" height="0.3129999999999851" fill="#252525" />
<rect x="1.5949999999999256" y="0.32299999999998513" width="0.3129999999999851" height="0.3129999999999851" fill="#252525" />
<rect x="1.9129999999999105" y="0.32299999999998513" width="0.3129999999999851" height="0.3129999999999851" fill="#252525" />
<rect x="2.230999999999896" y="0.32299999999998513" width="0.3129999999999851" height="0.3129999999999851" fill="#252525" />
<rect x="2.548999999999881" y="0.32299999999998513" width="0.3129999999999851" height="0.3129999999999851" fill="#FF871E" />
<rect x="2.866999999999866" y="0.32299999999998513" width="0.3129999999999851" height="0.3129999999999851" fill="#FF871E" />
<rect x="3.1849999999998513" y="0.32299999999998513" width="0.3129999999999851" height="0.3129999999999851" fill="#252525" />
<rect x="0.005" y="0.6409999999999703" width="0.3129999999999851" height="0.3129999999999851" fill="#252525" />
<rect x="0.32299999999998513" y="0.6409999999999703" width="0.3129999999999851" height="0.3129999999999851" fill="#252525" />
<rect x="0.6409999999999703" y="0.6409999999999703" width="0.3129999999999851" height="0.3129999999999851" fill="#54D2EB" />
<rect x="0.9589999999999553" y="0.6409999999999703" width="0.3129999999999851" height="0.3129999999999851" fill="#252525" />
<rect x="1.2769999999999404" y="0.6409999999999703" width="0.3129999999999851" height="0.3129999999999851" fill="#252525" />
<rect x="1.5949999999999256" y="0.6409999999999703" width="0.3129999999999851" height="0.3129999999999851" fill="#252525" />
<rect x="1.9129999999999105" y="0.6409999999999703" width="0.3129999999999851" height="0.3129999999999851" fill="#FF4136" />
<rect x="2.230999999999896" y="0.6409999999999703" width="0.3129999999999851" height="0.3129999999999851" fill="#252525" />
<rect x="2.548999999999881" y="0.6409999999999703" width="0.3129999999999851" height="0.3129999999999851" fill="#252525" />
<rect x="2.866999999999866" y="0.6409999999999703" width="0.3129999999999851" height="0.3129999999999851" fill="#FF871E" />
<rect x="3.1849999999998513" y="0.6409999999999703" width="0.3129999999999851" height="0.3129999999999851" fill="#252525" />
<rect x="0.005" y="0.9589999999999553" width="0.3129999999999851" height="0.3129999999999851" fill="#252525" />
<rect x="0.32299999999998513" y="0.9589999999999553" width="0.3129999999999851" height="0.3129999999999851" fill="#54D2EB" />
<rect x="0.6409999999999703" y="0.9589999999999553" width="0.3129999999999851" height="0.3129999999999851" fill="#54D2EB" />
<rect x="0.9589999999999553" y="0.9589999999999553" width="0.3129999999999851" height="0.3129999999999851" fill="#252525" />
<rect x="1.2769999999999404" y="0.9589999999999553" width="0.3129999999999851" height="0.3129999999999851" fill="#252525" />
<rect x="1.5949999999999256" y="0.9589999999999553" width="0.3129999999999851" height="0.3129999999999851" fill="#FF4136" />
<rect x="1.9129999999999105" y="0.9589999999999553" width="0.3129999999999851" height="0.3129999999999851" fill="#FF4136" />
<rect x="2.230999999999896" y="0.9589999999999553" width="0.3129999999999851" height="0.3129999999999851" fill="#252525" />
<rect x="2.548999999999881" y="0.9589999999999553" width="0.3129999999999851" height="0.3129999999999851" fill="#252525" />
<rect x="2.866999999999866" y="0.9589999999999553" width="0.3129999999999851" height="0.3129999999999851" fill="#FF871E" />
<rect x="3.1849999999998513" y="0.9589999999999553" width="0.3129999999999851" height="0.3129999999999851" fill="#252525" />
<rect x="0.005" y="1.2769999999999404" width="0.3129999999999851" height="0.3129999999999851" fill="#252525" />
<rect x="0.32299999999998513" y="1.2769999999999404" width="0.3129999999999851" height="0.3129999999999851" fill="#54D2EB" />
<rect x="0.6409999999999703" y="1.2769999999999404" width="0.3129999999999851" height="0.3129999999999851" fill="#54D2EB" />
<rect x="0.9589999999999553" y="1.2769999999999404" width="0.3129999999999851" height="0.3129999999999851" fill="#252525" />
<rect x="1.2769999999999404" y="1.2769999999999404" width="0.3129999999999851" height="0.3129999999999851" fill="#252525" />
<rect x="1.5949999999999256" y="1.2769999999999404" width="0.3129999999999851" height="0.3129999999999851" fill="#252525" />
<rect x="1.9129999999999105" y="1.2769999999999404" width="0.3129999999999851" height="0.3129999999999851" fill="#FF4136" />
<rect x="2.230999999999896" y="1.2769999999999404" width="0.3129999999999851" height="0.3129999999999851" fill="#252525" />
<rect x="2.548999999999881" y="1.2769999999999404" width="0.3129999999999851" height="0.3129999999999851" fill="#252525" />
<rect x="2.866999999999866" y="1.2769999999999404" width="0.3129999999999851" height="0.3129999999999851" fill="#FF871E" />
<rect x="3.1849999999998513" y="1.2769999999999404" width="0.3129999999999851" height="0.3129999999999851" fill="#252525" />
<rect x="0.005" y="1.5949999999999256" width="0.3129999999999851" height="0.3129999999999851" fill="#252525" />
<rect x="0.32299999999998513" y="1.5949999999999256" width="0.3129999999999851" height="0.3129999999999851" fill="#252525" />
<rect x="0.6409999999999703" y="1.5949999999999256" width="0.3129999999999851" height="0.3129999999999851" fill="#252525" />
<rect x="0.9589999999999553" y="1.5949999999999256" width="0.3129999999999851" height="0.3129999999999851" fill="#252525" />
<rect x="1.2769999999999404" y="1.5949999999999256" width="0.3129999999999851" height="0.3129999999999851" fill="#252525" />
<rect x="1.5949999999999256" y="1.5949999999999256" width="0.3129999999999851" height="0.3129999999999851" fill="#252525" />
<rect x="1.9129999999999105" y="1.5949999999999256" width="0.3129999999999851" height="0.3129999999999851" fill="#252525" />
<rect x="2.230999999999896" y="1.5949999999999256" width="0.3129999999999851" height="0.3129999999999851" fill="#252525" />
<rect x="2.548999999999881" y="1.5949999999999256" width="0.3129999999999851" height="0.3129999999999851" fill="#252525" />
<rect x="2.866999999999866" y="1.5949999999999256" width="0.3129999999999851" height="0.3129999999999851" fill="#252525" />
<rect x="3.1849999999998513" y="1.5949999999999256" width="0.3129999999999851" height="0.3129999999999851" fill="#252525" />
<rect x="-0.02666666666666667" y="-0.02666666666666667" width="3.5513333333331696" height="1.961333333333244" fill="none" stroke="#111111ff" stroke-width="0.08" />
<text x="3.4979999999998364" y="2.3767499999999107" font-size="0.375" fill="black" text-anchor="end" font-family="Anuphan">11x6</text>
<text x="-0.037500000000000006" y="2.3767499999999107" font-size="0.375" fill="black" text-anchor="start" font-family="Anuphan" font-weight="600">Input 3</text>
</g>
<g id="d3">
<rect x="0.005" y="0.005" width="0.3836666666666485" height="0.3836666666666485" fill="#252525" />
<rect x="0.3936666666666485" y="0.005" width="0.3836666666666485" height="0.3836666666666485" fill="#252525" />
<rect x="0.782333333333297" y="0.005" width="0.3836666666666485" height="0.3836666666666485" fill="#252525" />
<rect x="1.1709999999999454" y="0.005" width="0.3836666666666485" height="0.3836666666666485" fill="#252525" />
<rect x="1.559666666666594" y="0.005" width="0.3836666666666485" height="0.3836666666666485" fill="#252525" />
<rect x="1.9483333333332424" y="0.005" width="0.3836666666666485" height="0.3836666666666485" fill="#252525" />
<rect x="2.336999999999891" y="0.005" width="0.3836666666666485" height="0.3836666666666485" fill="#252525" />
<rect x="2.7256666666665392" y="0.005" width="0.3836666666666485" height="0.3836666666666485" fill="#252525" />
<rect x="3.114333333333188" y="0.005" width="0.3836666666666485" height="0.3836666666666485" fill="#252525" />
<rect x="0.005" y="0.3936666666666485" width="0.3836666666666485" height="0.3836666666666485" fill="#252525" />
<rect x="0.3936666666666485" y="0.3936666666666485" width="0.3836666666666485" height="0.3836666666666485" fill="#252525" />
<rect x="0.782333333333297" y="0.3936666666666485" width="0.3836666666666485" height="0.3836666666666485" fill="#252525" />
<rect x="1.1709999999999454" y="0.3936666666666485" width="0.3836666666666485" height="0.3836666666666485" fill="#FF871E" />
<rect x="1.559666666666594" y="0.3936666666666485" width="0.3836666666666485" height="0.3836666666666485" fill="#252525" />
<rect x="1.9483333333332424" y="0.3936666666666485" width="0.3836666666666485" height="0.3836666666666485" fill="#252525" />
<rect x="2.336999999999891" y="0.3936666666666485" width="0.3836666666666485" height="0.3836666666666485" fill="#FF4136" />
<rect x="2.7256666666665392" y="0.3936666666666485" width="0.3836666666666485" height="0.3836666666666485" fill="#FF4136" />
<rect x="3.114333333333188" y="0.3936666666666485" width="0.3836666666666485" height="0.3836666666666485" fill="#FF4136" />
<rect x="0.005" y="0.782333333333297" width="0.3836666666666485" height="0.3836666666666485" fill="#252525" />
<rect x="0.3936666666666485" y="0.782333333333297" width="0.3836666666666485" height="0.3836666666666485" fill="#252525" />
<rect x="0.782333333333297" y="0.782333333333297" width="0.3836666666666485" height="0.3836666666666485" fill="#252525" />
<rect x="1.1709999999999454" y="0.782333333333297" width="0.3836666666666485" height="0.3836666666666485" fill="#FF871E" />
<rect x="1.559666666666594" y="0.782333333333297" width="0.3836666666666485" height="0.3836666666666485" fill="#FF871E" />
<rect x="1.9483333333332424" y="0.782333333333297" width="0.3836666666666485" height="0.3836666666666485" fill="#252525" />
<rect x="2.336999999999891" y="0.782333333333297" width="0.3836666666666485" height="0.3836666666666485" fill="#252525" />
<rect x="2.7256666666665392" y="0.782333333333297" width="0.3836666666666485" height="0.3836666666666485" fill="#FF4136" />
<rect x="3.114333333333188" y="0.782333333333297" width="0.3836666666666485" height="0.3836666666666485" fill="#252525" />
<rect x="0.005" y="1.1709999999999454" width="0.3836666666666485" height="0.3836666666666485" fill="#252525" />
<rect x="0.3936666666666485" y="1.1709999999999454" width="0.3836666666666485" height="0.3836666666666485" fill="#252525" />
<rect x="0.782333333333297" y="1.1709999999999454" width="0.3836666666666485" height="0.3836666666666485" fill="#252525" />
<rect x="1.1709999999999454" y="1.1709999999999454" width="0.3836666666666485" height="0.3836666666666485" fill="#252525" />
<rect x="1.559666666666594" y="1.1709999999999454" width="0.3836666666666485" height="0.3836666666666485" fill="#FF871E" />
<rect x="1.9483333333332424" y="1.1709999999999454" width="0.3836666666666485" height="0.3836666666666485" fill="#252525" />
<rect x="2.336999999999891" y="1.1709999999999454" width="0.3836666666666485" height="0.3836666666666485" fill="#FF4136" />
<rect x="2.7256666666665392" y="1.1709999999999454" width="0.3836666666666485" height="0.3836666666666485" fill="#FF4136" />
<rect x="3.114333333333188" y="1.1709999999999454" width="0.3836666666666485" height="0.3836666666666485" fill="#FF4136" />
<rect x="0.005" y="1.559666666666594" width="0.3836666666666485" height="0.3836666666666485" fill="#54D2EB" />
<rect x="0.3936666666666485" y="1.559666666666594" width="0.3836666666666485" height="0.3836666666666485" fill="#54D2EB" />
<rect x="0.782333333333297" y="1.559666666666594" width="0.3836666666666485" height="0.3836666666666485" fill="#54D2EB" />
<rect x="1.1709999999999454" y="1.559666666666594" width="0.3836666666666485" height="0.3836666666666485" fill="#252525" />
<rect x="1.559666666666594" y="1.559666666666594" width="0.3836666666666485" height="0.3836666666666485" fill="#252525" />
<rect x="1.9483333333332424" y="1.559666666666594" width="0.3836666666666485" height="0.3836666666666485" fill="#252525" />
<rect x="2.336999999999891" y="1.559666666666594" width="0.3836666666666485" height="0.3836666666666485" fill="#252525" />
<rect x="2.7256666666665392" y="1.559666666666594" width="0.3836666666666485" height="0.3836666666666485" fill="#252525" />
<rect x="3.114333333333188" y="1.559666666666594" width="0.3836666666666485" height="0.3836666666666485" fill="#252525" />
<rect x="0.005" y="1.9483333333332424" width="0.3836666666666485" height="0.3836666666666485" fill="#252525" />
<rect x="0.3936666666666485" y="1.9483333333332424" width="0.3836666666666485" height="0.3836666666666485" fill="#54D2EB" />
<rect x="0.782333333333297" y="1.9483333333332424" width="0.3836666666666485" height="0.3836666666666485" fill="#252525" />
<rect x="1.1709999999999454" y="1.9483333333332424" width="0.3836666666666485" height="0.3836666666666485" fill="#252525" />
<rect x="1.559666666666594" y="1.9483333333332424" width="0.3836666666666485" height="0.3836666666666485" fill="#252525" />
<rect x="1.9483333333332424" y="1.9483333333332424" width="0.3836666666666485" height="0.3836666666666485" fill="#252525" />
<rect x="2.336999999999891" y="1.9483333333332424" width="0.3836666666666485" height="0.3836666666666485" fill="#252525" />
<rect x="2.7256666666665392" y="1.9483333333332424" width="0.3836666666666485" height="0.3836666666666485" fill="#252525" />
<rect x="3.114333333333188" y="1.9483333333332424" width="0.3836666666666485" height="0.3836666666666485" fill="#252525" />
<rect x="0.005" y="2.336999999999891" width="0.3836666666666485" height="0.3836666666666485" fill="#252525" />
<rect x="0.3936666666666485" y="2.336999999999891" width="0.3836666666666485" height="0.3836666666666485" fill="#252525" />
<rect x="0.782333333333297" y="2.336999999999891" width="0.3836666666666485" height="0.3836666666666485" fill="#252525" />
<rect x="1.1709999999999454" y="2.336999999999891" width="0.3836666666666485" height="0.3836666666666485" fill="#252525" />
<rect x="1.559666666666594" y="2.336999999999891" width="0.3836666666666485" height="0.3836666666666485" fill="#252525" />
<rect x="1.9483333333332424" y="2.336999999999891" width="0.3836666666666485" height="0.3836666666666485" fill="#252525" />
<rect x="2.336999999999891" y="2.336999999999891" width="0.3836666666666485" height="0.3836666666666485" fill="#252525" />
<rect x="2.7256666666665392" y="2.336999999999891" width="0.3836666666666485" height="0.3836666666666485" fill="#252525" />
<rect x="3.114333333333188" y="2.336999999999891" width="0.3836666666666485" height="0.3836666666666485" fill="#252525" />
<rect x="-0.02666666666666667" y="-0.02666666666666667" width="3.55133333333317" height="2.7739999999998726" fill="none" stroke="#111111ff" stroke-width="0.08" />
<text x="3.497999999999837" y="3.1894166666665393" font-size="0.375" fill="black" text-anchor="end" font-family="Anuphan">9x7</text>
<text x="-0.037500000000000006" y="3.1894166666665393" font-size="0.375" fill="black" text-anchor="start" font-family="Anuphan" font-weight="600">Input 4</text>
</g>
<g id="d4">
<rect x="0.005" y="0.005" width="0.3836666666666485" height="0.3836666666666485" fill="#252525" />
<rect x="0.3936666666666485" y="0.005" width="0.3836666666666485" height="0.3836666666666485" fill="#252525" />
<rect x="0.782333333333297" y="0.005" width="0.3836666666666485" height="0.3836666666666485" fill="#252525" />
<rect x="1.1709999999999454" y="0.005" width="0.3836666666666485" height="0.3836666666666485" fill="#252525" />
<rect x="1.559666666666594" y="0.005" width="0.3836666666666485" height="0.3836666666666485" fill="#252525" />
<rect x="1.9483333333332424" y="0.005" width="0.3836666666666485" height="0.3836666666666485" fill="#252525" />
<rect x="2.336999999999891" y="0.005" width="0.3836666666666485" height="0.3836666666666485" fill="#252525" />
<rect x="2.7256666666665392" y="0.005" width="0.3836666666666485" height="0.3836666666666485" fill="#252525" />
<rect x="3.114333333333188" y="0.005" width="0.3836666666666485" height="0.3836666666666485" fill="#252525" />
<rect x="0.005" y="0.3936666666666485" width="0.3836666666666485" height="0.3836666666666485" fill="#FFDC00" />
<rect x="0.3936666666666485" y="0.3936666666666485" width="0.3836666666666485" height="0.3836666666666485" fill="#252525" />
<rect x="0.782333333333297" y="0.3936666666666485" width="0.3836666666666485" height="0.3836666666666485" fill="#252525" />
<rect x="1.1709999999999454" y="0.3936666666666485" width="0.3836666666666485" height="0.3836666666666485" fill="#252525" />
<rect x="1.559666666666594" y="0.3936666666666485" width="0.3836666666666485" height="0.3836666666666485" fill="#252525" />
<rect x="1.9483333333332424" y="0.3936666666666485" width="0.3836666666666485" height="0.3836666666666485" fill="#252525" />
<rect x="2.336999999999891" y="0.3936666666666485" width="0.3836666666666485" height="0.3836666666666485" fill="#252525" />
<rect x="2.7256666666665392" y="0.3936666666666485" width="0.3836666666666485" height="0.3836666666666485" fill="#252525" />
<rect x="3.114333333333188" y="0.3936666666666485" width="0.3836666666666485" height="0.3836666666666485" fill="#252525" />
<rect x="0.005" y="0.782333333333297" width="0.3836666666666485" height="0.3836666666666485" fill="#FFDC00" />
<rect x="0.3936666666666485" y="0.782333333333297" width="0.3836666666666485" height="0.3836666666666485" fill="#FFDC00" />
<rect x="0.782333333333297" y="0.782333333333297" width="0.3836666666666485" height="0.3836666666666485" fill="#252525" />
<rect x="1.1709999999999454" y="0.782333333333297" width="0.3836666666666485" height="0.3836666666666485" fill="#37D449" />
<rect x="1.559666666666594" y="0.782333333333297" width="0.3836666666666485" height="0.3836666666666485" fill="#37D449" />
<rect x="1.9483333333332424" y="0.782333333333297" width="0.3836666666666485" height="0.3836666666666485" fill="#37D449" />
<rect x="2.336999999999891" y="0.782333333333297" width="0.3836666666666485" height="0.3836666666666485" fill="#252525" />
<rect x="2.7256666666665392" y="0.782333333333297" width="0.3836666666666485" height="0.3836666666666485" fill="#252525" />
<rect x="3.114333333333188" y="0.782333333333297" width="0.3836666666666485" height="0.3836666666666485" fill="#252525" />
<rect x="0.005" y="1.1709999999999454" width="0.3836666666666485" height="0.3836666666666485" fill="#252525" />
<rect x="0.3936666666666485" y="1.1709999999999454" width="0.3836666666666485" height="0.3836666666666485" fill="#FFDC00" />
<rect x="0.782333333333297" y="1.1709999999999454" width="0.3836666666666485" height="0.3836666666666485" fill="#252525" />
<rect x="1.1709999999999454" y="1.1709999999999454" width="0.3836666666666485" height="0.3836666666666485" fill="#37D449" />
<rect x="1.559666666666594" y="1.1709999999999454" width="0.3836666666666485" height="0.3836666666666485" fill="#37D449" />
<rect x="1.9483333333332424" y="1.1709999999999454" width="0.3836666666666485" height="0.3836666666666485" fill="#37D449" />
<rect x="2.336999999999891" y="1.1709999999999454" width="0.3836666666666485" height="0.3836666666666485" fill="#252525" />
<rect x="2.7256666666665392" y="1.1709999999999454" width="0.3836666666666485" height="0.3836666666666485" fill="#252525" />
<rect x="3.114333333333188" y="1.1709999999999454" width="0.3836666666666485" height="0.3836666666666485" fill="#252525" />
<rect x="0.005" y="1.559666666666594" width="0.3836666666666485" height="0.3836666666666485" fill="#252525" />
<rect x="0.3936666666666485" y="1.559666666666594" width="0.3836666666666485" height="0.3836666666666485" fill="#252525" />
<rect x="0.782333333333297" y="1.559666666666594" width="0.3836666666666485" height="0.3836666666666485" fill="#252525" />
<rect x="1.1709999999999454" y="1.559666666666594" width="0.3836666666666485" height="0.3836666666666485" fill="#37D449" />
<rect x="1.559666666666594" y="1.559666666666594" width="0.3836666666666485" height="0.3836666666666485" fill="#252525" />
<rect x="1.9483333333332424" y="1.559666666666594" width="0.3836666666666485" height="0.3836666666666485" fill="#37D449" />
<rect x="2.336999999999891" y="1.559666666666594" width="0.3836666666666485" height="0.3836666666666485" fill="#252525" />
<rect x="2.7256666666665392" y="1.559666666666594" width="0.3836666666666485" height="0.3836666666666485" fill="#252525" />
<rect x="3.114333333333188" y="1.559666666666594" width="0.3836666666666485" height="0.3836666666666485" fill="#252525" />
<rect x="0.005" y="1.9483333333332424" width="0.3836666666666485" height="0.3836666666666485" fill="#252525" />
<rect x="0.3936666666666485" y="1.9483333333332424" width="0.3836666666666485" height="0.3836666666666485" fill="#252525" />
<rect x="0.782333333333297" y="1.9483333333332424" width="0.3836666666666485" height="0.3836666666666485" fill="#252525" />
<rect x="1.1709999999999454" y="1.9483333333332424" width="0.3836666666666485" height="0.3836666666666485" fill="#37D449" />
<rect x="1.559666666666594" y="1.9483333333332424" width="0.3836666666666485" height="0.3836666666666485" fill="#252525" />
<rect x="1.9483333333332424" y="1.9483333333332424" width="0.3836666666666485" height="0.3836666666666485" fill="#37D449" />
<rect x="2.336999999999891" y="1.9483333333332424" width="0.3836666666666485" height="0.3836666666666485" fill="#252525" />
<rect x="2.7256666666665392" y="1.9483333333332424" width="0.3836666666666485" height="0.3836666666666485" fill="#252525" />
<rect x="3.114333333333188" y="1.9483333333332424" width="0.3836666666666485" height="0.3836666666666485" fill="#252525" />
<rect x="0.005" y="2.336999999999891" width="0.3836666666666485" height="0.3836666666666485" fill="#252525" />
<rect x="0.3936666666666485" y="2.336999999999891" width="0.3836666666666485" height="0.3836666666666485" fill="#252525" />
<rect x="0.782333333333297" y="2.336999999999891" width="0.3836666666666485" height="0.3836666666666485" fill="#252525" />
<rect x="1.1709999999999454" y="2.336999999999891" width="0.3836666666666485" height="0.3836666666666485" fill="#252525" />
<rect x="1.559666666666594" y="2.336999999999891" width="0.3836666666666485" height="0.3836666666666485" fill="#252525" />
<rect x="1.9483333333332424" y="2.336999999999891" width="0.3836666666666485" height="0.3836666666666485" fill="#252525" />
<rect x="2.336999999999891" y="2.336999999999891" width="0.3836666666666485" height="0.3836666666666485" fill="#252525" />
<rect x="2.7256666666665392" y="2.336999999999891" width="0.3836666666666485" height="0.3836666666666485" fill="#F012BE" />
<rect x="3.114333333333188" y="2.336999999999891" width="0.3836666666666485" height="0.3836666666666485" fill="#F012BE" />
<rect x="0.005" y="2.7256666666665392" width="0.3836666666666485" height="0.3836666666666485" fill="#252525" />
<rect x="0.3936666666666485" y="2.7256666666665392" width="0.3836666666666485" height="0.3836666666666485" fill="#E6E6E6" />
<rect x="0.782333333333297" y="2.7256666666665392" width="0.3836666666666485" height="0.3836666666666485" fill="#E6E6E6" />
<rect x="1.1709999999999454" y="2.7256666666665392" width="0.3836666666666485" height="0.3836666666666485" fill="#E6E6E6" />
<rect x="1.559666666666594" y="2.7256666666665392" width="0.3836666666666485" height="0.3836666666666485" fill="#252525" />
<rect x="1.9483333333332424" y="2.7256666666665392" width="0.3836666666666485" height="0.3836666666666485" fill="#252525" />
<rect x="2.336999999999891" y="2.7256666666665392" width="0.3836666666666485" height="0.3836666666666485" fill="#F012BE" />
<rect x="2.7256666666665392" y="2.7256666666665392" width="0.3836666666666485" height="0.3836666666666485" fill="#F012BE" />
<rect x="3.114333333333188" y="2.7256666666665392" width="0.3836666666666485" height="0.3836666666666485" fill="#F012BE" />
<rect x="0.005" y="3.114333333333188" width="0.3836666666666485" height="0.3836666666666485" fill="#252525" />
<rect x="0.3936666666666485" y="3.114333333333188" width="0.3836666666666485" height="0.3836666666666485" fill="#E6E6E6" />
<rect x="0.782333333333297" y="3.114333333333188" width="0.3836666666666485" height="0.3836666666666485" fill="#E6E6E6" />
<rect x="1.1709999999999454" y="3.114333333333188" width="0.3836666666666485" height="0.3836666666666485" fill="#252525" />
<rect x="1.559666666666594" y="3.114333333333188" width="0.3836666666666485" height="0.3836666666666485" fill="#252525" />
<rect x="1.9483333333332424" y="3.114333333333188" width="0.3836666666666485" height="0.3836666666666485" fill="#252525" />
<rect x="2.336999999999891" y="3.114333333333188" width="0.3836666666666485" height="0.3836666666666485" fill="#F012BE" />
<rect x="2.7256666666665392" y="3.114333333333188" width="0.3836666666666485" height="0.3836666666666485" fill="#F012BE" />
<rect x="3.114333333333188" y="3.114333333333188" width="0.3836666666666485" height="0.3836666666666485" fill="#252525" />
<rect x="-0.02666666666666667" y="-0.02666666666666667" width="3.55133333333317" height="3.55133333333317" fill="none" stroke="#111111ff" stroke-width="0.08" />
<text x="3.497999999999837" y="3.966749999999837" font-size="0.375" fill="black" text-anchor="end" font-family="Anuphan">9x9</text>
<text x="-0.037500000000000006" y="3.966749999999837" font-size="0.375" fill="black" text-anchor="start" font-family="Anuphan" font-weight="600">Test 1</text>
</g>
<g id="d5">
<rect x="0.005" y="0.005" width="1.1609999999999456" height="1.1609999999999456" fill="#FF4136" />
<rect x="1.1709999999999454" y="0.005" width="1.1609999999999456" height="1.1609999999999456" fill="#FF4136" />
<rect x="2.336999999999891" y="0.005" width="1.1609999999999456" height="1.1609999999999456" fill="#252525" />
<rect x="0.005" y="1.1709999999999454" width="1.1609999999999456" height="1.1609999999999456" fill="#252525" />
<rect x="1.1709999999999454" y="1.1709999999999454" width="1.1609999999999456" height="1.1609999999999456" fill="#FF4136" />
<rect x="2.336999999999891" y="1.1709999999999454" width="1.1609999999999456" height="1.1609999999999456" fill="#252525" />
<rect x="0.005" y="2.336999999999891" width="1.1609999999999456" height="1.1609999999999456" fill="#252525" />
<rect x="1.1709999999999454" y="2.336999999999891" width="1.1609999999999456" height="1.1609999999999456" fill="#FF4136" />
<rect x="2.336999999999891" y="2.336999999999891" width="1.1609999999999456" height="1.1609999999999456" fill="#FF4136" />
<rect x="0.005" y="3.5029999999998367" width="1.1609999999999456" height="1.1609999999999456" fill="#FF4136" />
<rect x="1.1709999999999454" y="3.5029999999998367" width="1.1609999999999456" height="1.1609999999999456" fill="#FF4136" />
<rect x="2.336999999999891" y="3.5029999999998367" width="1.1609999999999456" height="1.1609999999999456" fill="#FF4136" />
<rect x="-0.02666666666666667" y="-0.02666666666666667" width="3.55133333333317" height="4.717333333333116" fill="none" stroke="#111111ff" stroke-width="0.08" />
<text x="3.497999999999837" y="5.132749999999782" font-size="0.375" fill="black" text-anchor="end" font-family="Anuphan">3x4</text>
<text x="-0.037500000000000006" y="5.132749999999782" font-size="0.375" fill="black" text-anchor="start" font-family="Anuphan" font-weight="600">Output 1</text>
</g>
<g id="d6">
<rect x="0.005" y="0.005" width="1.7439999999999183" height="1.7439999999999183" fill="#FFDC00" />
<rect x="1.753999999999918" y="0.005" width="1.7439999999999183" height="1.7439999999999183" fill="#FFDC00" />
<rect x="0.005" y="1.753999999999918" width="1.7439999999999183" height="1.7439999999999183" fill="#FFDC00" />
<rect x="1.753999999999918" y="1.753999999999918" width="1.7439999999999183" height="1.7439999999999183" fill="#FFDC00" />
<rect x="0.005" y="3.5029999999998362" width="1.7439999999999183" height="1.7439999999999183" fill="#FFDC00" />
<rect x="1.753999999999918" y="3.5029999999998362" width="1.7439999999999183" height="1.7439999999999183" fill="#FFDC00" />
<rect x="-0.02666666666666667" y="-0.02666666666666667" width="3.5513333333331696" height="5.300333333333088" fill="none" stroke="#111111ff" stroke-width="0.08" />
<text x="3.4979999999998364" y="5.715749999999755" font-size="0.375" fill="black" text-anchor="end" font-family="Anuphan">2x3</text>
<text x="-0.037500000000000006" y="5.715749999999755" font-size="0.375" fill="black" text-anchor="start" font-family="Anuphan" font-weight="600">Output 2</text>
</g>
<g id="d7">
<rect x="0.005" y="0.005" width="1.1609999999999456" height="1.1609999999999456" fill="#54D2EB" />
<rect x="1.1709999999999454" y="0.005" width="1.1609999999999456" height="1.1609999999999456" fill="#54D2EB" />
<rect x="2.336999999999891" y="0.005" width="1.1609999999999456" height="1.1609999999999456" fill="#54D2EB" />
<rect x="0.005" y="1.1709999999999454" width="1.1609999999999456" height="1.1609999999999456" fill="#252525" />
<rect x="1.1709999999999454" y="1.1709999999999454" width="1.1609999999999456" height="1.1609999999999456" fill="#54D2EB" />
<rect x="2.336999999999891" y="1.1709999999999454" width="1.1609999999999456" height="1.1609999999999456" fill="#252525" />
<rect x="0.005" y="2.336999999999891" width="1.1609999999999456" height="1.1609999999999456" fill="#54D2EB" />
<rect x="1.1709999999999454" y="2.336999999999891" width="1.1609999999999456" height="1.1609999999999456" fill="#54D2EB" />
<rect x="2.336999999999891" y="2.336999999999891" width="1.1609999999999456" height="1.1609999999999456" fill="#252525" />
<rect x="0.005" y="3.5029999999998367" width="1.1609999999999456" height="1.1609999999999456" fill="#54D2EB" />
<rect x="1.1709999999999454" y="3.5029999999998367" width="1.1609999999999456" height="1.1609999999999456" fill="#54D2EB" />
<rect x="2.336999999999891" y="3.5029999999998367" width="1.1609999999999456" height="1.1609999999999456" fill="#252525" />
<rect x="-0.02666666666666667" y="-0.02666666666666667" width="3.55133333333317" height="4.717333333333116" fill="none" stroke="#111111ff" stroke-width="0.08" />
<text x="3.497999999999837" y="5.132749999999782" font-size="0.375" fill="black" text-anchor="end" font-family="Anuphan">3x4</text>
<text x="-0.037500000000000006" y="5.132749999999782" font-size="0.375" fill="black" text-anchor="start" font-family="Anuphan" font-weight="600">Output 3</text>
</g>
<g id="d8">
<rect x="0.005" y="0.005" width="1.1609999999999456" height="1.1609999999999456" fill="#FF4136" />
<rect x="1.1709999999999454" y="0.005" width="1.1609999999999456" height="1.1609999999999456" fill="#FF4136" />
<rect x="2.336999999999891" y="0.005" width="1.1609999999999456" height="1.1609999999999456" fill="#FF4136" />
<rect x="0.005" y="1.1709999999999454" width="1.1609999999999456" height="1.1609999999999456" fill="#252525" />
<rect x="1.1709999999999454" y="1.1709999999999454" width="1.1609999999999456" height="1.1609999999999456" fill="#FF4136" />
<rect x="2.336999999999891" y="1.1709999999999454" width="1.1609999999999456" height="1.1609999999999456" fill="#252525" />
<rect x="0.005" y="2.336999999999891" width="1.1609999999999456" height="1.1609999999999456" fill="#FF4136" />
<rect x="1.1709999999999454" y="2.336999999999891" width="1.1609999999999456" height="1.1609999999999456" fill="#FF4136" />
<rect x="2.336999999999891" y="2.336999999999891" width="1.1609999999999456" height="1.1609999999999456" fill="#FF4136" />
<rect x="-0.02666666666666667" y="-0.02666666666666667" width="3.55133333333317" height="3.55133333333317" fill="none" stroke="#111111ff" stroke-width="0.08" />
<text x="3.497999999999837" y="3.966749999999837" font-size="0.375" fill="black" text-anchor="end" font-family="Anuphan">3x3</text>
<text x="-0.037500000000000006" y="3.966749999999837" font-size="0.375" fill="black" text-anchor="start" font-family="Anuphan" font-weight="600">Output 4</text>
</g>
</defs>
<rect x="0" y="0" width="100%" height="100%" fill="#eeeff6" />
<use xlink:href="#d0" x="0.25" y="0.25" />
<use xlink:href="#d1" x="4.247999999999837" y="0.25" />
<use xlink:href="#d2" x="8.245999999999674" y="0.25" />
<use xlink:href="#d3" x="12.24399999999951" y="0.25" />
<use xlink:href="#d4" x="16.241999999999347" y="0.25" />
<path d="M1.9989999999999182,4.397999999999837 L1.9989999999999182,4.7979999999998375" stroke-width="0.05" stroke="#888888" />
<path d="M1.8489999999999183,4.597999999999837 L1.9989999999999182,4.7979999999998375" stroke-width="0.05" stroke="#888888" />
<path d="M2.1489999999999183,4.597999999999837 L1.9989999999999182,4.7979999999998375" stroke-width="0.05" stroke="#888888" />
<use xlink:href="#d5" x="0.24999999999999978" y="5.147999999999837" />
<path d="M5.996999999999755,4.397999999999837 L5.996999999999755,4.7979999999998375" stroke-width="0.05" stroke="#888888" />
<path d="M5.846999999999754,4.597999999999837 L5.996999999999755,4.7979999999998375" stroke-width="0.05" stroke="#888888" />
<path d="M6.146999999999755,4.597999999999837 L5.996999999999755,4.7979999999998375" stroke-width="0.05" stroke="#888888" />
<use xlink:href="#d6" x="4.247999999999837" y="5.147999999999837" />
<path d="M9.994999999999592,4.397999999999837 L9.994999999999592,4.7979999999998375" stroke-width="0.05" stroke="#888888" />
<path d="M9.844999999999592,4.597999999999837 L9.994999999999592,4.7979999999998375" stroke-width="0.05" stroke="#888888" />
<path d="M10.144999999999593,4.597999999999837 L9.994999999999592,4.7979999999998375" stroke-width="0.05" stroke="#888888" />
<use xlink:href="#d7" x="8.245999999999674" y="5.147999999999837" />
<path d="M13.992999999999428,4.397999999999837 L13.992999999999428,4.7979999999998375" stroke-width="0.05" stroke="#888888" />
<path d="M13.842999999999428,4.597999999999837 L13.992999999999428,4.7979999999998375" stroke-width="0.05" stroke="#888888" />
<path d="M14.142999999999429,4.597999999999837 L13.992999999999428,4.7979999999998375" stroke-width="0.05" stroke="#888888" />
<use xlink:href="#d8" x="12.24399999999951" y="5.147999999999837" />
<path d="M17.990999999999264,4.397999999999837 L17.990999999999264,4.7979999999998375" stroke-width="0.05" stroke="#888888" />
<path d="M17.840999999999266,4.597999999999837 L17.990999999999264,4.7979999999998375" stroke-width="0.05" stroke="#888888" />
<path d="M18.140999999999263,4.597999999999837 L17.990999999999264,4.7979999999998375" stroke-width="0.05" stroke="#888888" />
<text x="17.990999999999264" y="7.579999999999728" font-size="1" font-family="Anuphan" font-weight="700" fill="#333333" text-anchor="middle" alignment-baseline="middle">?</text>
<text x="19.9" y="11.2" font-size="0.3" font-family="Anuphan" font-weight="600" fill="#666666" text-anchor="end" alignment-baseline="bottom">Task be94b721</text>
</svg>