<?xml version="1.0" encoding="UTF-8"?>
<svg xmlns="http://www.w3.org/2000/svg" xmlns:xlink="http://www.w3.org/1999/xlink"
     width="800.0" height="244.00000000000003" viewBox="0 0 20.0 6.1000000000000005">
<defs>
<g id="d0">
<rect x="0.005" y="0.005" width="0.38761904761903415" height="0.38761904761903415" fill="#FFDC00" />
<rect x="0.39761904761903416" y="0.005" width="0.38761904761903415" height="0.38761904761903415" fill="#FFDC00" />
<rect x="0.7902380952380683" y="0.005" width="0.38761904761903415" height="0.38761904761903415" fill="#252525" />
<rect x="1.1828571428571024" y="0.005" width="0.38761904761903415" height="0.38761904761903415" fill="#37D449" />
<rect x="1.5754761904761365" y="0.005" width="0.38761904761903415" height="0.38761904761903415" fill="#37D449" />
<rect x="1.9680952380951706" y="0.005" width="0.38761904761903415" height="0.38761904761903415" fill="#252525" />
<rect x="0.005" y="0.39761904761903416" width="0.38761904761903415" height="0.38761904761903415" fill="#FFDC00" />
<rect x="0.39761904761903416" y="0.39761904761903416" width="0.38761904761903415" height="0.38761904761903415" fill="#252525" />
<rect x="0.7902380952380683" y="0.39761904761903416" width="0.38761904761903415" height="0.38761904761903415" fill="#252525" />
<rect x="1.1828571428571024" y="0.39761904761903416" width="0.38761904761903415" height="0.38761904761903415" fill="#37D449" />
<rect x="1.5754761904761365" y="0.39761904761903416" width="0.38761904761903415" height="0.38761904761903415" fill="#252525" />
<rect x="1.9680952380951706" y="0.39761904761903416" width="0.38761904761903415" height="0.38761904761903415" fill="#252525" />
<rect x="0.005" y="0.7902380952380683" width="0.38761904761903415" height="0.38761904761903415" fill="#252525" />
<rect x="0.39761904761903416" y="0.7902380952380683" width="0.38761904761903415" height="0.38761904761903415" fill="#252525" />
<rect x="0.7902380952380683" y="0.7902380952380683" width="0.38761904761903415" height="0.38761904761903415" fill="#252525" />
<rect x="1.1828571428571024" y="0.7902380952380683" width="0.38761904761903415" height="0.38761904761903415" fill="#252525" />
<rect x="1.5754761904761365" y="0.7902380952380683" width="0.38761904761903415" height="0.38761904761903415" fill="#252525" />
<rect x="1.9680952380951706" y="0.7902380952380683" width="0.38761904761903415" height="0.38761904761903415" fill="#37D449" />
<rect x="-0.02666666666666667" y="-0.02666666666666667" width="2.4090476190475383" height="1.2311904761904358" fill="none" stroke="#111111ff" stroke-width="0.08" />
<text x="2.355714285714205" y="1.6466071428571025" font-size="0.375" fill="black" text-anchor="end" font-family="Anuphan">6x3</text>
<text x="-0.037500000000000006" y="1.6466071428571025" font-size="0.375" fill="black" text-anchor="start" font-family="Anuphan" font-weight="600">Input 1</text>
</g>
<g id="d1">
<rect x="0.005" y="0.005" width="0.38761904761903415" height="0.38761904761903415" fill="#FFDC00" />
<rect x="0.39761904761903416" y="0.005" width="0.38761904761903415" height="0.38761904761903415" fill="#252525" />
<rect x="0.7902380952380683" y="0.005" width="0.38761904761903415" height="0.38761904761903415" fill="#FFDC00" />
<rect x="1.1828571428571024" y="0.005" width="0.38761904761903415" height="0.38761904761903415" fill="#37D449" />
<rect x="1.5754761904761365" y="0.005" width="0.38761904761903415" height="0.38761904761903415" fill="#37D449" />
<rect x="1.9680952380951706" y="0.005" width="0.38761904761903415" height="0.38761904761903415" fill="#252525" />
<rect x="0.005" y="0.39761904761903416" width="0.38761904761903415" height="0.38761904761903415" fill="#FFDC00" />
<rect x="0.39761904761903416" y="0.39761904761903416" width="0.38761904761903415" height="0.38761904761903415" fill="#252525" />
<rect x="0.7902380952380683" y="0.39761904761903416" width="0.38761904761903415" height="0.38761904761903415" fill="#252525" />
<rect x="1.1828571428571024" y="0.39761904761903416" width="0.38761904761903415" height="0.38761904761903415" fill="#37D449" />
<rect x="1.5754761904761365" y="0.39761904761903416" width="0.38761904761903415" height="0.38761904761903415" fill="#252525" />
<rect x="1.9680952380951706" y="0.39761904761903416" width="0.38761904761903415" height="0.38761904761903415" fill="#252525" />
<rect x="0.005" y="0.7902380952380683" width="0.38761904761903415" height="0.38761904761903415" fill="#252525" />
<rect x="0.39761904761903416" y="0.7902380952380683" width="0.38761904761903415" height="0.38761904761903415" fill="#252525" />
<rect x="0.7902380952380683" y="0.7902380952380683" width="0.38761904761903415" height="0.38761904761903415" fill="#FFDC00" />
<rect x="1.1828571428571024" y="0.7902380952380683" width="0.38761904761903415" height="0.38761904761903415" fill="#37D449" />
<rect x="1.5754761904761365" y="0.7902380952380683" width="0.38761904761903415" height="0.38761904761903415" fill="#252525" />
<rect x="1.9680952380951706" y="0.7902380952380683" width="0.38761904761903415" height="0.38761904761903415" fill="#252525" />
<rect x="-0.02666666666666667" y="-0.02666666666666667" width="2.4090476190475383" height="1.2311904761904358" fill="none" stroke="#111111ff" stroke-width="0.08" />
<text x="2.355714285714205" y="1.6466071428571025" font-size="0.375" fill="black" text-anchor="end" font-family="Anuphan">6x3</text>
<text x="-0.037500000000000006" y="1.6466071428571025" font-size="0.375" fill="black" text-anchor="start" font-family="Anuphan" font-weight="600">Input 2</text>
</g>
<g id="d2">
<rect x="0.005" y="0.005" width="0.38761904761903415" height="0.38761904761903415" fill="#252525" />
<rect x="0.39761904761903416" y="0.005" width="0.38761904761903415" height="0.38761904761903415" fill="#252525" />
<rect x="0.7902380952380683" y="0.005" width="0.38761904761903415" height="0.38761904761903415" fill="#FFDC00" />
<rect x="1.1828571428571024" y="0.005" width="0.38761904761903415" height="0.38761904761903415" fill="#252525" />
<rect x="1.5754761904761365" y="0.005" width="0.38761904761903415" height="0.38761904761903415" fill="#37D449" />
<rect x="1.9680952380951706" y="0.005" width="0.38761904761903415" height="0.38761904761903415" fill="#252525" />
<rect x="0.005" y="0.39761904761903416" width="0.38761904761903415" height="0.38761904761903415" fill="#252525" />
<rect x="0.39761904761903416" y="0.39761904761903416" width="0.38761904761903415" height="0.38761904761903415" fill="#FFDC00" />
<rect x="0.7902380952380683" y="0.39761904761903416" width="0.38761904761903415" height="0.38761904761903415" fill="#FFDC00" />
<rect x="1.1828571428571024" y="0.39761904761903416" width="0.38761904761903415" height="0.38761904761903415" fill="#37D449" />
<rect x="1.5754761904761365" y="0.39761904761903416" width="0.38761904761903415" height="0.38761904761903415" fill="#252525" />
<rect x="1.9680952380951706" y="0.39761904761903416" width="0.38761904761903415" height="0.38761904761903415" fill="#37D449" />
<rect x="0.005" y="0.7902380952380683" width="0.38761904761903415" height="0.38761904761903415" fill="#FFDC00" />
<rect x="0.39761904761903416" y="0.7902380952380683" width="0.38761904761903415" height="0.38761904761903415" fill="#FFDC00" />
<rect x="0.7902380952380683" y="0.7902380952380683" width="0.38761904761903415" height="0.38761904761903415" fill="#252525" />
<rect x="1.1828571428571024" y="0.7902380952380683" width="0.38761904761903415" height="0.38761904761903415" fill="#252525" />
<rect x="1.5754761904761365" y="0.7902380952380683" width="0.38761904761903415" height="0.38761904761903415" fill="#252525" />
<rect x="1.9680952380951706" y="0.7902380952380683" width="0.38761904761903415" height="0.38761904761903415" fill="#37D449" />
<rect x="-0.02666666666666667" y="-0.02666666666666667" width="2.4090476190475383" height="1.2311904761904358" fill="none" stroke="#111111ff" stroke-width="0.08" />
<text x="2.355714285714205" y="1.6466071428571025" font-size="0.375" fill="black" text-anchor="end" font-family="Anuphan">6x3</text>
<text x="-0.037500000000000006" y="1.6466071428571025" font-size="0.375" fill="black" text-anchor="start" font-family="Anuphan" font-weight="600">Input 3</text>
</g>
<g id="d3">
<rect x="0.005" y="0.005" width="0.38761904761903415" height="0.38761904761903415" fill="#FFDC00" />
<rect x="0.39761904761903416" y="0.005" width="0.38761904761903415" height="0.38761904761903415" fill="#FFDC00" />
<rect x="0.7902380952380683" y="0.005" width="0.38761904761903415" height="0.38761904761903415" fill="#252525" />
<rect x="1.1828571428571024" y="0.005" width="0.38761904761903415" height="0.38761904761903415" fill="#37D449" />
<rect x="1.5754761904761365" y="0.005" width="0.38761904761903415" height="0.38761904761903415" fill="#252525" />
<rect x="1.9680952380951706" y="0.005" width="0.38761904761903415" height="0.38761904761903415" fill="#252525" />
<rect x="0.005" y="0.39761904761903416" width="0.38761904761903415" height="0.38761904761903415" fill="#252525" />
<rect x="0.39761904761903416" y="0.39761904761903416" width="0.38761904761903415" height="0.38761904761903415" fill="#252525" />
<rect x="0.7902380952380683" y="0.39761904761903416" width="0.38761904761903415" height="0.38761904761903415" fill="#252525" />
<rect x="1.1828571428571024" y="0.39761904761903416" width="0.38761904761903415" height="0.38761904761903415" fill="#252525" />
<rect x="1.5754761904761365" y="0.39761904761903416" width="0.38761904761903415" height="0.38761904761903415" fill="#252525" />
<rect x="1.9680952380951706" y="0.39761904761903416" width="0.38761904761903415" height="0.38761904761903415" fill="#37D449" />
<rect x="0.005" y="0.7902380952380683" width="0.38761904761903415" height="0.38761904761903415" fill="#FFDC00" />
<rect x="0.39761904761903416" y="0.7902380952380683" width="0.38761904761903415" height="0.38761904761903415" fill="#252525" />
<rect x="0.7902380952380683" y="0.7902380952380683" width="0.38761904761903415" height="0.38761904761903415" fill="#252525" />
<rect x="1.1828571428571024" y="0.7902380952380683" width="0.38761904761903415" height="0.38761904761903415" fill="#252525" />
<rect x="1.5754761904761365" y="0.7902380952380683" width="0.38761904761903415" height="0.38761904761903415" fill="#252525" />
<rect x="1.9680952380951706" y="0.7902380952380683" width="0.38761904761903415" height="0.38761904761903415" fill="#252525" />
<rect x="-0.02666666666666667" y="-0.02666666666666667" width="2.4090476190475383" height="1.2311904761904358" fill="none" stroke="#111111ff" stroke-width="0.08" />
<text x="2.355714285714205" y="1.6466071428571025" font-size="0.375" fill="black" text-anchor="end" font-family="Anuphan">6x3</text>
<text x="-0.037500000000000006" y="1.6466071428571025" font-size="0.375" fill="black" text-anchor="start" font-family="Anuphan" font-weight="600">Input 4</text>
</g>
<g id="d4">
<rect x="0.005" y="0.005" width="0.38761904761903415" height="0.38761904761903415" fill="#252525" />
<rect x="0.39761904761903416" y="0.005" width="0.38761904761903415" height="0.38761904761903415" fill="#252525" />
<rect x="0.7902380952380683" y="0.005" width="0.38761904761903415" height="0.38761904761903415" fill="#252525" />
<rect x="1.1828571428571024" y="0.005" width="0.38761904761903415" height="0.38761904761903415" fill="#252525" />
<rect x="1.5754761904761365" y="0.005" width="0.38761904761903415" height="0.38761904761903415" fill="#37D449" />
<rect x="1.9680952380951706" y="0.005" width="0.38761904761903415" height="0.38761904761903415" fill="#252525" />
<rect x="0.005" y="0.39761904761903416" width="0.38761904761903415" height="0.38761904761903415" fill="#FFDC00" />
<rect x="0.39761904761903416" y="0.39761904761903416" width="0.38761904761903415" height="0.38761904761903415" fill="#252525" />
<rect x="0.7902380952380683" y="0.39761904761903416" width="0.38761904761903415" height="0.38761904761903415" fill="#252525" />
<rect x="1.1828571428571024" y="0.39761904761903416" width="0.38761904761903415" height="0.38761904761903415" fill="#252525" />
<rect x="1.5754761904761365" y="0.39761904761903416" width="0.38761904761903415" height="0.38761904761903415" fill="#252525" />
<rect x="1.9680952380951706" y="0.39761904761903416" width="0.38761904761903415" height="0.38761904761903415" fill="#252525" />
<rect x="0.005" y="0.7902380952380683" width="0.38761904761903415" height="0.38761904761903415" fill="#252525" />
<rect x="0.39761904761903416" y="0.7902380952380683" width="0.38761904761903415" height="0.38761904761903415" fill="#252525" />
<rect x="0.7902380952380683" y="0.7902380952380683" width="0.38761904761903415" height="0.38761904761903415" fill="#FFDC00" />
<rect x="1.1828571428571024" y="0.7902380952380683" width="0.38761904761903415" height="0.38761904761903415" fill="#37D449" />
<rect x="1.5754761904761365" y="0.7902380952380683" width="0.38761904761903415" height="0.38761904761903415" fill="#37D449" />
<rect x="1.9680952380951706" y="0.7902380952380683" width="0.38761904761903415" height="0.38761904761903415" fill="#252525" />
<rect x="-0.02666666666666667" y="-0.02666666666666667" width="2.4090476190475383" height="1.2311904761904358" fill="none" stroke="#111111ff" stroke-width="0.08" />
<text x="2.355714285714205" y="1.6466071428571025" font-size="0.375" fill="black" text-anchor="end" font-family="Anuphan">6x3</text>
<text x="-0.037500000000000006" y="1.6466071428571025" font-size="0.375" fill="black" text-anchor="start" font-family="Anuphan" font-weight="600">Input 5</text>
</g>
<g id="d5">
<rect x="0.005" y="0.005" width="0.38761904761903415" height="0.38761904761903415" fill="#252525" />
<rect x="0.39761904761903416" y="0.005" width="0.38761904761903415" height="0.38761904761903415" fill="#FFDC00" />
<rect x="0.7902380952380683" y="0.005" width="0.38761904761903415" height="0.38761904761903415" fill="#FFDC00" />
<rect x="1.1828571428571024" y="0.005" width="0.38761904761903415" height="0.38761904761903415" fill="#37D449" />
<rect x="1.5754761904761365" y="0.005" width="0.38761904761903415" height="0.38761904761903415" fill="#252525" />
<rect x="1.9680952380951706" y="0.005" width="0.38761904761903415" height="0.38761904761903415" fill="#252525" />
<rect x="0.005" y="0.39761904761903416" width="0.38761904761903415" height="0.38761904761903415" fill="#FFDC00" />
<rect x="0.39761904761903416" y="0.39761904761903416" width="0.38761904761903415" height="0.38761904761903415" fill="#252525" />
<rect x="0.7902380952380683" y="0.39761904761903416" width="0.38761904761903415" height="0.38761904761903415" fill="#252525" />
<rect x="1.1828571428571024" y="0.39761904761903416" width="0.38761904761903415" height="0.38761904761903415" fill="#37D449" />
<rect x="1.5754761904761365" y="0.39761904761903416" width="0.38761904761903415" height="0.38761904761903415" fill="#37D449" />
<rect x="1.9680952380951706" y="0.39761904761903416" width="0.38761904761903415" height="0.38761904761903415" fill="#252525" />
<rect x="0.005" y="0.7902380952380683" width="0.38761904761903415" height="0.38761904761903415" fill="#252525" />
<rect x="0.39761904761903416" y="0.7902380952380683" width="0.38761904761903415" height="0.38761904761903415" fill="#FFDC00" />
<rect x="0.7902380952380683" y="0.7902380952380683" width="0.38761904761903415" height="0.38761904761903415" fill="#252525" />
<rect x="1.1828571428571024" y="0.7902380952380683" width="0.38761904761903415" height="0.38761904761903415" fill="#37D449" />
<rect x="1.5754761904761365" y="0.7902380952380683" width="0.38761904761903415" height="0.38761904761903415" fill="#252525" />
<rect x="1.9680952380951706" y="0.7902380952380683" width="0.38761904761903415" height="0.38761904761903415" fill="#252525" />
<rect x="-0.02666666666666667" y="-0.02666666666666667" width="2.4090476190475383" height="1.2311904761904358" fill="none" stroke="#111111ff" stroke-width="0.08" />
<text x="2.355714285714205" y="1.6466071428571025" font-size="0.375" fill="black" text-anchor="end" font-family="Anuphan">6x3</text>
<text x="-0.037500000000000006" y="1.6466071428571025" font-size="0.375" fill="black" text-anchor="start" font-family="Anuphan" font-weight="600">Test 1</text>
</g>
<g id="d6">
<rect x="0.005" y="0.005" width="0.38761904761903415" height="0.38761904761903415" fill="#252525" />
<rect x="0.39761904761903416" y="0.005" width="0.38761904761903415" height="0.38761904761903415" fill="#252525" />
<rect x="0.7902380952380683" y="0.005" width="0.38761904761903415" height="0.38761904761903415" fill="#FFDC00" />
<rect x="1.1828571428571024" y="0.005" width="0.38761904761903415" height="0.38761904761903415" fill="#252525" />
<rect x="1.5754761904761365" y="0.005" width="0.38761904761903415" height="0.38761904761903415" fill="#37D449" />
<rect x="1.9680952380951706" y="0.005" width="0.38761904761903415" height="0.38761904761903415" fill="#252525" />
<rect x="0.005" y="0.39761904761903416" width="0.38761904761903415" height="0.38761904761903415" fill="#252525" />
<rect x="0.39761904761903416" y="0.39761904761903416" width="0.38761904761903415" height="0.38761904761903415" fill="#FFDC00" />
<rect x="0.7902380952380683" y="0.39761904761903416" width="0.38761904761903415" height="0.38761904761903415" fill="#252525" />
<rect x="1.1828571428571024" y="0.39761904761903416" width="0.38761904761903415" height="0.38761904761903415" fill="#37D449" />
<rect x="1.5754761904761365" y="0.39761904761903416" width="0.38761904761903415" height="0.38761904761903415" fill="#37D449" />
<rect x="1.9680952380951706" y="0.39761904761903416" width="0.38761904761903415" height="0.38761904761903415" fill="#37D449" />
<rect x="0.005" y="0.7902380952380683" width="0.38761904761903415" height="0.38761904761903415" fill="#FFDC00" />
<rect x="0.39761904761903416" y="0.7902380952380683" width="0.38761904761903415" height="0.38761904761903415" fill="#252525" />
<rect x="0.7902380952380683" y="0.7902380952380683" width="0.38761904761903415" height="0.38761904761903415" fill="#252525" />
<rect x="1.1828571428571024" y="0.7902380952380683" width="0.38761904761903415" height="0.38761904761903415" fill="#37D449" />
<rect x="1.5754761904761365" y="0.7902380952380683" width="0.38761904761903415" height="0.38761904761903415" fill="#252525" />
<rect x="1.9680952380951706" y="0.7902380952380683" width="0.38761904761903415" height="0.38761904761903415" fill="#252525" />
<rect x="-0.02666666666666667" y="-0.02666666666666667" width="2.4090476190475383" height="1.2311904761904358" fill="none" stroke="#111111ff" stroke-width="0.08" />
<text x="2.355714285714205" y="1.6466071428571025" font-size="0.375" fill="black" text-anchor="end" font-family="Anuphan">6x3</text>
<text x="-0.037500000000000006" y="1.6466071428571025" font-size="0.375" fill="black" text-anchor="start" font-family="Anuphan" font-weight="600">Test 2</text>
</g>
<g id="d7">
<rect x="0.005" y="0.005" width="0.7802380952380683" height="0.7802380952380683" fill="#F012BE" />
<rect x="0.7902380952380683" y="0.005" width="0.7802380952380683" height="0.7802380952380683" fill="#F012BE" />
<rect x="1.5754761904761365" y="0.005" width="0.7802380952380683" height="0.7802380952380683" fill="#252525" />
<rect x="0.005" y="0.7902380952380683" width="0.7802380952380683" height="0.7802380952380683" fill="#F012BE" />
<rect x="0.7902380952380683" y="0.7902380952380683" width="0.7802380952380683" height="0.7802380952380683" fill="#252525" />
<rect x="1.5754761904761365" y="0.7902380952380683" width="0.7802380952380683" height="0.7802380952380683" fill="#252525" />
<rect x="0.005" y="1.5754761904761365" width="0.7802380952380683" height="0.7802380952380683" fill="#252525" />
<rect x="0.7902380952380683" y="1.5754761904761365" width="0.7802380952380683" height="0.7802380952380683" fill="#252525" />
<rect x="1.5754761904761365" y="1.5754761904761365" width="0.7802380952380683" height="0.7802380952380683" fill="#F012BE" />
<rect x="-0.02666666666666667" y="-0.02666666666666667" width="2.4090476190475383" height="2.4090476190475383" fill="none" stroke="#111111ff" stroke-width="0.08" />
<text x="2.355714285714205" y="2.824464285714205" font-size="0.375" fill="black" text-anchor="end" font-family="Anuphan">3x3</text>
<text x="-0.037500000000000006" y="2.824464285714205" font-size="0.375" fill="black" text-anchor="start" font-family="Anuphan" font-weight="600">Output 1</text>
</g>
<g id="d8">
<rect x="0.005" y="0.005" width="0.7802380952380683" height="0.7802380952380683" fill="#F012BE" />
<rect x="0.7902380952380683" y="0.005" width="0.7802380952380683" height="0.7802380952380683" fill="#F012BE" />
<rect x="1.5754761904761365" y="0.005" width="0.7802380952380683" height="0.7802380952380683" fill="#F012BE" />
<rect x="0.005" y="0.7902380952380683" width="0.7802380952380683" height="0.7802380952380683" fill="#F012BE" />
<rect x="0.7902380952380683" y="0.7902380952380683" width="0.7802380952380683" height="0.7802380952380683" fill="#252525" />
<rect x="1.5754761904761365" y="0.7902380952380683" width="0.7802380952380683" height="0.7802380952380683" fill="#252525" />
<rect x="0.005" y="1.5754761904761365" width="0.7802380952380683" height="0.7802380952380683" fill="#F012BE" />
<rect x="0.7902380952380683" y="1.5754761904761365" width="0.7802380952380683" height="0.7802380952380683" fill="#252525" />
<rect x="1.5754761904761365" y="1.5754761904761365" width="0.7802380952380683" height="0.7802380952380683" fill="#F012BE" />
<rect x="-0.02666666666666667" y="-0.02666666666666667" width="2.4090476190475383" height="2.4090476190475383" fill="none" stroke="#111111ff" stroke-width="0.08" />
<text x="2.355714285714205" y="2.824464285714205" font-size="0.375" fill="black" text-anchor="end" font-family="Anuphan">3x3</text>
<text x="-0.037500000000000006" y="2.824464285714205" font-size="0.375" fill="black" text-anchor="start" font-family="Anuphan" font-weight="600">Output 2</text>
</g>
<g id="d9">
<rect x="0.005" y="0.005" width="0.7802380952380683" height="0.7802380952380683" fill="#252525" />
<rect x="0.7902380952380683" y="0.005" width="0.7802380952380683" height="0.7802380952380683" fill="#F012BE" />
<rect x="1.5754761904761365" y="0.005" width="0.7802380952380683" height="0.7802380952380683" fill="#F012BE" />
<rect x="0.005" y="0.7902380952380683" width="0.7802380952380683" height="0.7802380952380683" fill="#F012BE" />
<rect x="0.7902380952380683" y="0.7902380952380683" width="0.7802380952380683" height="0.7802380952380683" fill="#F012BE" />
<rect x="1.5754761904761365" y="0.7902380952380683" width="0.7802380952380683" height="0.7802380952380683" fill="#F012BE" />
<rect x="0.005" y="1.5754761904761365" width="0.7802380952380683" height="0.7802380952380683" fill="#F012BE" />
<rect x="0.7902380952380683" y="1.5754761904761365" width="0.7802380952380683" height="0.7802380952380683" fill="#F012BE" />
<rect x="1.5754761904761365" y="1.5754761904761365" width="0.7802380952380683" height="0.7802380952380683" fill="#F012BE" />
<rect x="-0.02666666666666667" y="-0.02666666666666667" width="2.4090476190475383" height="2.4090476190475383" fill="none" stroke="#111111ff" stroke-width="0.08" />
<text x="2.355714285714205" y="2.824464285714205" font-size="0.375" fill="black" text-anchor="end" font-family="Anuphan">3x3</text>
<text x="-0.037500000000000006" y="2.824464285714205" font-size="0.375" fill="black" text-anchor="start" font-family="Anuphan" font-weight="600">Output 3</text>
</g>
<g id="d10">
<rect x="0.005" y="0.005" width="0.7802380952380683" height="0.7802380952380683" fill="#F012BE" />
<rect x="0.7902380952380683" y="0.005" width="0.7802380952380683" height="0.7802380952380683" fill="#F012BE" />
<rect x="1.5754761904761365" y="0.005" width="0.7802380952380683" height="0.7802380952380683" fill="#252525" />
<rect x="0.005" y="0.7902380952380683" width="0.7802380952380683" height="0.7802380952380683" fill="#252525" />
<rect x="0.7902380952380683" y="0.7902380952380683" width="0.7802380952380683" height="0.7802380952380683" fill="#252525" />
<rect x="1.5754761904761365" y="0.7902380952380683" width="0.7802380952380683" height="0.7802380952380683" fill="#F012BE" />
<rect x="0.005" y="1.5754761904761365" width="0.7802380952380683" height="0.7802380952380683" fill="#F012BE" />
<rect x="0.7902380952380683" y="1.5754761904761365" width="0.7802380952380683" height="0.7802380952380683" fill="#252525" />
<rect x="1.5754761904761365" y="1.5754761904761365" width="0.7802380952380683" height="0.7802380952380683" fill="#252525" />
<rect x="-0.02666666666666667" y="-0.02666666666666667" width="2.4090476190475383" height="2.4090476190475383" fill="none" stroke="#111111ff" stroke-width="0.08" />
<text x="2.355714285714205" y="2.824464285714205" font-size="0.375" fill="black" text-anchor="end" font-family="Anuphan">3x3</text>
<text x="-0.037500000000000006" y="2.824464285714205" font-size="0.375" fill="black" text-anchor="start" font-family="Anuphan" font-weight="600">Output 4</text>
</g>
<g id="d11">
<rect x="0.005" y="0.005" width="0.7802380952380683" height="0.7802380952380683" fill="#252525" />
<rect x="0.7902380952380683" y="0.005" width="0.7802380952380683" height="0.7802380952380683" fill="#F012BE" />
<rect x="1.5754761904761365" y="0.005" width="0.7802380952380683" height="0.7802380952380683" fill="#252525" />
<rect x="0.005" y="0.7902380952380683" width="0.7802380952380683" height="0.7802380952380683" fill="#F012BE" />
<rect x="0.7902380952380683" y="0.7902380952380683" width="0.7802380952380683" height="0.7802380952380683" fill="#252525" />
<rect x="1.5754761904761365" y="0.7902380952380683" width="0.7802380952380683" height="0.7802380952380683" fill="#252525" />
<rect x="0.005" y="1.5754761904761365" width="0.7802380952380683" height="0.7802380952380683" fill="#F012BE" />
<rect x="0.7902380952380683" y="1.5754761904761365" width="0.7802380952380683" height="0.7802380952380683" fill="#F012BE" />
<rect x="1.5754761904761365" y="1.5754761904761365" width="0.7802380952380683" height="0.7802380952380683" fill="#F012BE" />
<rect x="-0.02666666666666667" y="-0.02666666666666667" width="2.4090476190475383" height="2.4090476190475383" fill="none" stroke="#111111ff" stroke-width="0.08" />
<text x="2.355714285714205" y="2.824464285714205" font-size="0.375" fill="black" text-anchor="end" font-family="Anuphan">3x3</text>
<text x="-0.037500000000000006" y="2.824464285714205" font-size="0.375" fill="black" text-anchor="start" font-family="Anuphan" font-weight="600">Output 5</text>
</g>
</defs>
<rect x="0" y="0" width="100%" height="100%" fill="#eeeff6" />
<use xlink:href="#d0" x="0.25" y="0.25" />
<use xlink:href="#d1" x="3.105714285714205" y="0.25" />
<use xlink:href="#d2" x="5.96142857142841" y="0.25" />
<use xlink:href="#d3" x="8.817142857142615" y="0.25" />
<use xlink:href="#d4" x="11.67285714285682" y="0.25" />
<use xlink:href="#d5" x="14.528571428571025" y="0.25" />
<use xlink:href="#d6" x="17.38428571428523" y="0.25" />
<path d="M1.4278571428571025,2.0778571428571024 L1.4278571428571025,2.4778571428571023" stroke-width="0.05" stroke="#888888" />
<path d="M1.2778571428571026,2.277857142857102 L1.4278571428571025,2.4778571428571023" stroke-width="0.05" stroke="#888888" />
<path d="M1.5778571428571024,2.277857142857102 L1.4278571428571025,2.4778571428571023" stroke-width="0.05" stroke="#888888" />
<use xlink:href="#d7" x="0.25" y="2.8278571428571024" />
<path d="M4.283571428571308,2.0778571428571024 L4.283571428571308,2.4778571428571023" stroke-width="0.05" stroke="#888888" />
<path d="M4.133571428571307,2.277857142857102 L4.283571428571308,2.4778571428571023" stroke-width="0.05" stroke="#888888" />
<path d="M4.433571428571308,2.277857142857102 L4.283571428571308,2.4778571428571023" stroke-width="0.05" stroke="#888888" />
<use xlink:href="#d8" x="3.105714285714205" y="2.8278571428571024" />
<path d="M7.139285714285513,2.0778571428571024 L7.139285714285513,2.4778571428571023" stroke-width="0.05" stroke="#888888" />
<path d="M6.989285714285512,2.277857142857102 L7.139285714285513,2.4778571428571023" stroke-width="0.05" stroke="#888888" />
<path d="M7.289285714285513,2.277857142857102 L7.139285714285513,2.4778571428571023" stroke-width="0.05" stroke="#888888" />
<use xlink:href="#d9" x="5.96142857142841" y="2.8278571428571024" />
<path d="M9.994999999999717,2.0778571428571024 L9.994999999999717,2.4778571428571023" stroke-width="0.05" stroke="#888888" />
<path d="M9.844999999999716,2.277857142857102 L9.994999999999717,2.4778571428571023" stroke-width="0.05" stroke="#888888" />
<path d="M10.144999999999717,2.277857142857102 L9.994999999999717,2.4778571428571023" stroke-width="0.05" stroke="#888888" />
<use xlink:href="#d10" x="8.817142857142615" y="2.8278571428571024" />
<path d="M12.850714285713924,2.0778571428571024 L12.850714285713924,2.4778571428571023" stroke-width="0.05" stroke="#888888" />
<path d="M12.700714285713923,2.277857142857102 L12.850714285713924,2.4778571428571023" stroke-width="0.05" stroke="#888888" />
<path d="M13.000714285713924,2.277857142857102 L12.850714285713924,2.4778571428571023" stroke-width="0.05" stroke="#888888" />
<use xlink:href="#d11" x="11.67285714285682" y="2.8278571428571024" />
<path d="M15.706428571428127,2.0778571428571024 L15.706428571428127,2.4778571428571023" stroke-width="0.05" stroke="#888888" />
<path d="M15.556428571428127,2.277857142857102 L15.706428571428127,2.4778571428571023" stroke-width="0.05" stroke="#888888" />
<path d="M15.856428571428127,2.277857142857102 L15.706428571428127,2.4778571428571023" stroke-width="0.05" stroke="#888888" />
<text x="15.706428571428127" y="4.105714285714205" font-size="1" font-family="Anuphan" font-weight="700" fill="#333333" text-anchor="middle" alignment-baseline="middle">?</text>
<path d="M18.562142857142334,2.0778571428571024 L18.562142857142334,2.4778571428571023" stroke-width="0.05" stroke="#888888" />
<path d="M18.412142857142335,2.277857142857102 L18.562142857142334,2.4778571428571023" stroke-width="0.05" stroke="#888888" />
<path d="M18.712142857142332,2.277857142857102 L18.562142857142334,2.4778571428571023" stroke-width="0.05" stroke="#888888" />
<text x="18.562142857142334" y="4.105714285714205" font-size="1" font-family="Anuphan" font-weight="700" fill="#333333" text-anchor="middle" alignment-baseline="middle">?</text>
<text x="19.9" y="6.0" font-size="0.3" font-family="Anuphan" font-weight="600" fill="#666666" text-anchor="end" alignment-baseline="bottom">Task dae9d2b5</text>
</svg>