<?xml version="1.0" encoding="UTF-8"?>
<svg xmlns="http://www.w3.org/2000/svg" xmlns:xlink="http://www.w3.org/1999/xlink"
     width="800.0" height="212.0" viewBox="0 0 20.0 5.3">
<defs>
<g id="d0">
<rect x="0.005" y="0.005" width="0.4447500000000003" height="0.4447500000000003" fill="#FF4136" />
<rect x="0.4547500000000003" y="0.005" width="0.4447500000000003" height="0.4447500000000003" fill="#252525" />
<rect x="0.9045000000000006" y="0.005" width="0.4447500000000003" height="0.4447500000000003" fill="#252525" />
<rect x="1.3542500000000008" y="0.005" width="0.4447500000000003" height="0.4447500000000003" fill="#252525" />
<rect x="1.8040000000000012" y="0.005" width="0.4447500000000003" height="0.4447500000000003" fill="#FF4136" />
<rect x="2.2537500000000015" y="0.005" width="0.4447500000000003" height="0.4447500000000003" fill="#252525" />
<rect x="2.703500000000002" y="0.005" width="0.4447500000000003" height="0.4447500000000003" fill="#252525" />
<rect x="3.153250000000002" y="0.005" width="0.4447500000000003" height="0.4447500000000003" fill="#252525" />
<rect x="3.6030000000000024" y="0.005" width="0.4447500000000003" height="0.4447500000000003" fill="#FF4136" />
<rect x="4.052750000000002" y="0.005" width="0.4447500000000003" height="0.4447500000000003" fill="#252525" />
<rect x="0.005" y="0.4547500000000003" width="0.4447500000000003" height="0.4447500000000003" fill="#252525" />
<rect x="0.4547500000000003" y="0.4547500000000003" width="0.4447500000000003" height="0.4447500000000003" fill="#FF4136" />
<rect x="0.9045000000000006" y="0.4547500000000003" width="0.4447500000000003" height="0.4447500000000003" fill="#252525" />
<rect x="1.3542500000000008" y="0.4547500000000003" width="0.4447500000000003" height="0.4447500000000003" fill="#FF4136" />
<rect x="1.8040000000000012" y="0.4547500000000003" width="0.4447500000000003" height="0.4447500000000003" fill="#252525" />
<rect x="2.2537500000000015" y="0.4547500000000003" width="0.4447500000000003" height="0.4447500000000003" fill="#FF4136" />
<rect x="2.703500000000002" y="0.4547500000000003" width="0.4447500000000003" height="0.4447500000000003" fill="#252525" />
<rect x="3.153250000000002" y="0.4547500000000003" width="0.4447500000000003" height="0.4447500000000003" fill="#FF4136" />
<rect x="3.6030000000000024" y="0.4547500000000003" width="0.4447500000000003" height="0.4447500000000003" fill="#252525" />
<rect x="4.052750000000002" y="0.4547500000000003" width="0.4447500000000003" height="0.4447500000000003" fill="#FF4136" />
<rect x="0.005" y="0.9045000000000006" width="0.4447500000000003" height="0.4447500000000003" fill="#252525" />
<rect x="0.4547500000000003" y="0.9045000000000006" width="0.4447500000000003" height="0.4447500000000003" fill="#252525" />
<rect x="0.9045000000000006" y="0.9045000000000006" width="0.4447500000000003" height="0.4447500000000003" fill="#FF4136" />
<rect x="1.3542500000000008" y="0.9045000000000006" width="0.4447500000000003" height="0.4447500000000003" fill="#252525" />
<rect x="1.8040000000000012" y="0.9045000000000006" width="0.4447500000000003" height="0.4447500000000003" fill="#252525" />
<rect x="2.2537500000000015" y="0.9045000000000006" width="0.4447500000000003" height="0.4447500000000003" fill="#252525" />
<rect x="2.703500000000002" y="0.9045000000000006" width="0.4447500000000003" height="0.4447500000000003" fill="#FF4136" />
<rect x="3.153250000000002" y="0.9045000000000006" width="0.4447500000000003" height="0.4447500000000003" fill="#252525" />
<rect x="3.6030000000000024" y="0.9045000000000006" width="0.4447500000000003" height="0.4447500000000003" fill="#252525" />
<rect x="4.052750000000002" y="0.9045000000000006" width="0.4447500000000003" height="0.4447500000000003" fill="#252525" />
<rect x="-0.02666666666666667" y="-0.02666666666666667" width="4.550833333333337" height="1.4025833333333342" fill="none" stroke="#111111ff" stroke-width="0.08" />
<text x="4.497500000000003" y="1.818000000000001" font-size="0.375" fill="black" text-anchor="end" font-family="Anuphan">10x3</text>
<text x="-0.037500000000000006" y="1.818000000000001" font-size="0.375" fill="black" text-anchor="start" font-family="Anuphan" font-weight="600">Input 1</text>
</g>
<g id="d1">
<rect x="0.005" y="0.005" width="0.29483333333333356" height="0.29483333333333356" fill="#FF4136" />
<rect x="0.30483333333333357" y="0.005" width="0.29483333333333356" height="0.29483333333333356" fill="#252525" />
<rect x="0.6046666666666671" y="0.005" width="0.29483333333333356" height="0.29483333333333356" fill="#252525" />
<rect x="0.9045000000000006" y="0.005" width="0.29483333333333356" height="0.29483333333333356" fill="#252525" />
<rect x="1.2043333333333341" y="0.005" width="0.29483333333333356" height="0.29483333333333356" fill="#FF4136" />
<rect x="1.5041666666666678" y="0.005" width="0.29483333333333356" height="0.29483333333333356" fill="#252525" />
<rect x="1.8040000000000012" y="0.005" width="0.29483333333333356" height="0.29483333333333356" fill="#252525" />
<rect x="2.103833333333335" y="0.005" width="0.29483333333333356" height="0.29483333333333356" fill="#252525" />
<rect x="2.4036666666666684" y="0.005" width="0.29483333333333356" height="0.29483333333333356" fill="#FF4136" />
<rect x="2.703500000000002" y="0.005" width="0.29483333333333356" height="0.29483333333333356" fill="#252525" />
<rect x="3.0033333333333356" y="0.005" width="0.29483333333333356" height="0.29483333333333356" fill="#252525" />
<rect x="3.303166666666669" y="0.005" width="0.29483333333333356" height="0.29483333333333356" fill="#252525" />
<rect x="3.6030000000000024" y="0.005" width="0.29483333333333356" height="0.29483333333333356" fill="#FF4136" />
<rect x="3.9028333333333363" y="0.005" width="0.29483333333333356" height="0.29483333333333356" fill="#252525" />
<rect x="4.20266666666667" y="0.005" width="0.29483333333333356" height="0.29483333333333356" fill="#252525" />
<rect x="0.005" y="0.30483333333333357" width="0.29483333333333356" height="0.29483333333333356" fill="#252525" />
<rect x="0.30483333333333357" y="0.30483333333333357" width="0.29483333333333356" height="0.29483333333333356" fill="#FF4136" />
<rect x="0.6046666666666671" y="0.30483333333333357" width="0.29483333333333356" height="0.29483333333333356" fill="#252525" />
<rect x="0.9045000000000006" y="0.30483333333333357" width="0.29483333333333356" height="0.29483333333333356" fill="#FF4136" />
<rect x="1.2043333333333341" y="0.30483333333333357" width="0.29483333333333356" height="0.29483333333333356" fill="#252525" />
<rect x="1.5041666666666678" y="0.30483333333333357" width="0.29483333333333356" height="0.29483333333333356" fill="#FF4136" />
<rect x="1.8040000000000012" y="0.30483333333333357" width="0.29483333333333356" height="0.29483333333333356" fill="#252525" />
<rect x="2.103833333333335" y="0.30483333333333357" width="0.29483333333333356" height="0.29483333333333356" fill="#FF4136" />
<rect x="2.4036666666666684" y="0.30483333333333357" width="0.29483333333333356" height="0.29483333333333356" fill="#252525" />
<rect x="2.703500000000002" y="0.30483333333333357" width="0.29483333333333356" height="0.29483333333333356" fill="#FF4136" />
<rect x="3.0033333333333356" y="0.30483333333333357" width="0.29483333333333356" height="0.29483333333333356" fill="#252525" />
<rect x="3.303166666666669" y="0.30483333333333357" width="0.29483333333333356" height="0.29483333333333356" fill="#FF4136" />
<rect x="3.6030000000000024" y="0.30483333333333357" width="0.29483333333333356" height="0.29483333333333356" fill="#252525" />
<rect x="3.9028333333333363" y="0.30483333333333357" width="0.29483333333333356" height="0.29483333333333356" fill="#FF4136" />
<rect x="4.20266666666667" y="0.30483333333333357" width="0.29483333333333356" height="0.29483333333333356" fill="#252525" />
<rect x="0.005" y="0.6046666666666671" width="0.29483333333333356" height="0.29483333333333356" fill="#252525" />
<rect x="0.30483333333333357" y="0.6046666666666671" width="0.29483333333333356" height="0.29483333333333356" fill="#252525" />
<rect x="0.6046666666666671" y="0.6046666666666671" width="0.29483333333333356" height="0.29483333333333356" fill="#FF4136" />
<rect x="0.9045000000000006" y="0.6046666666666671" width="0.29483333333333356" height="0.29483333333333356" fill="#252525" />
<rect x="1.2043333333333341" y="0.6046666666666671" width="0.29483333333333356" height="0.29483333333333356" fill="#252525" />
<rect x="1.5041666666666678" y="0.6046666666666671" width="0.29483333333333356" height="0.29483333333333356" fill="#252525" />
<rect x="1.8040000000000012" y="0.6046666666666671" width="0.29483333333333356" height="0.29483333333333356" fill="#FF4136" />
<rect x="2.103833333333335" y="0.6046666666666671" width="0.29483333333333356" height="0.29483333333333356" fill="#252525" />
<rect x="2.4036666666666684" y="0.6046666666666671" width="0.29483333333333356" height="0.29483333333333356" fill="#252525" />
<rect x="2.703500000000002" y="0.6046666666666671" width="0.29483333333333356" height="0.29483333333333356" fill="#252525" />
<rect x="3.0033333333333356" y="0.6046666666666671" width="0.29483333333333356" height="0.29483333333333356" fill="#FF4136" />
<rect x="3.303166666666669" y="0.6046666666666671" width="0.29483333333333356" height="0.29483333333333356" fill="#252525" />
<rect x="3.6030000000000024" y="0.6046666666666671" width="0.29483333333333356" height="0.29483333333333356" fill="#252525" />
<rect x="3.9028333333333363" y="0.6046666666666671" width="0.29483333333333356" height="0.29483333333333356" fill="#252525" />
<rect x="4.20266666666667" y="0.6046666666666671" width="0.29483333333333356" height="0.29483333333333356" fill="#FF4136" />
<rect x="-0.02666666666666667" y="-0.02666666666666667" width="4.550833333333337" height="0.952833333333334" fill="none" stroke="#111111ff" stroke-width="0.08" />
<text x="4.497500000000003" y="1.3682500000000006" font-size="0.375" fill="black" text-anchor="end" font-family="Anuphan">15x3</text>
<text x="-0.037500000000000006" y="1.3682500000000006" font-size="0.375" fill="black" text-anchor="start" font-family="Anuphan" font-weight="600">Input 2</text>
</g>
<g id="d2">
<rect x="0.005" y="0.005" width="0.24486111111111128" height="0.24486111111111128" fill="#FF4136" />
<rect x="0.25486111111111126" y="0.005" width="0.24486111111111128" height="0.24486111111111128" fill="#252525" />
<rect x="0.5047222222222225" y="0.005" width="0.24486111111111128" height="0.24486111111111128" fill="#252525" />
<rect x="0.7545833333333338" y="0.005" width="0.24486111111111128" height="0.24486111111111128" fill="#252525" />
<rect x="1.0044444444444451" y="0.005" width="0.24486111111111128" height="0.24486111111111128" fill="#FF4136" />
<rect x="1.2543055555555562" y="0.005" width="0.24486111111111128" height="0.24486111111111128" fill="#252525" />
<rect x="1.5041666666666675" y="0.005" width="0.24486111111111128" height="0.24486111111111128" fill="#252525" />
<rect x="1.7540277777777789" y="0.005" width="0.24486111111111128" height="0.24486111111111128" fill="#252525" />
<rect x="2.0038888888888904" y="0.005" width="0.24486111111111128" height="0.24486111111111128" fill="#FF4136" />
<rect x="2.2537500000000015" y="0.005" width="0.24486111111111128" height="0.24486111111111128" fill="#252525" />
<rect x="2.5036111111111126" y="0.005" width="0.24486111111111128" height="0.24486111111111128" fill="#252525" />
<rect x="2.753472222222224" y="0.005" width="0.24486111111111128" height="0.24486111111111128" fill="#252525" />
<rect x="3.003333333333335" y="0.005" width="0.24486111111111128" height="0.24486111111111128" fill="#FF4136" />
<rect x="3.2531944444444467" y="0.005" width="0.24486111111111128" height="0.24486111111111128" fill="#252525" />
<rect x="3.503055555555558" y="0.005" width="0.24486111111111128" height="0.24486111111111128" fill="#252525" />
<rect x="3.7529166666666693" y="0.005" width="0.24486111111111128" height="0.24486111111111128" fill="#252525" />
<rect x="4.002777777777781" y="0.005" width="0.24486111111111128" height="0.24486111111111128" fill="#FF4136" />
<rect x="4.2526388888888915" y="0.005" width="0.24486111111111128" height="0.24486111111111128" fill="#252525" />
<rect x="0.005" y="0.25486111111111126" width="0.24486111111111128" height="0.24486111111111128" fill="#252525" />
<rect x="0.25486111111111126" y="0.25486111111111126" width="0.24486111111111128" height="0.24486111111111128" fill="#FF4136" />
<rect x="0.5047222222222225" y="0.25486111111111126" width="0.24486111111111128" height="0.24486111111111128" fill="#252525" />
<rect x="0.7545833333333338" y="0.25486111111111126" width="0.24486111111111128" height="0.24486111111111128" fill="#FF4136" />
<rect x="1.0044444444444451" y="0.25486111111111126" width="0.24486111111111128" height="0.24486111111111128" fill="#252525" />
<rect x="1.2543055555555562" y="0.25486111111111126" width="0.24486111111111128" height="0.24486111111111128" fill="#FF4136" />
<rect x="1.5041666666666675" y="0.25486111111111126" width="0.24486111111111128" height="0.24486111111111128" fill="#252525" />
<rect x="1.7540277777777789" y="0.25486111111111126" width="0.24486111111111128" height="0.24486111111111128" fill="#FF4136" />
<rect x="2.0038888888888904" y="0.25486111111111126" width="0.24486111111111128" height="0.24486111111111128" fill="#252525" />
<rect x="2.2537500000000015" y="0.25486111111111126" width="0.24486111111111128" height="0.24486111111111128" fill="#FF4136" />
<rect x="2.5036111111111126" y="0.25486111111111126" width="0.24486111111111128" height="0.24486111111111128" fill="#252525" />
<rect x="2.753472222222224" y="0.25486111111111126" width="0.24486111111111128" height="0.24486111111111128" fill="#FF4136" />
<rect x="3.003333333333335" y="0.25486111111111126" width="0.24486111111111128" height="0.24486111111111128" fill="#252525" />
<rect x="3.2531944444444467" y="0.25486111111111126" width="0.24486111111111128" height="0.24486111111111128" fill="#FF4136" />
<rect x="3.503055555555558" y="0.25486111111111126" width="0.24486111111111128" height="0.24486111111111128" fill="#252525" />
<rect x="3.7529166666666693" y="0.25486111111111126" width="0.24486111111111128" height="0.24486111111111128" fill="#FF4136" />
<rect x="4.002777777777781" y="0.25486111111111126" width="0.24486111111111128" height="0.24486111111111128" fill="#252525" />
<rect x="4.2526388888888915" y="0.25486111111111126" width="0.24486111111111128" height="0.24486111111111128" fill="#FF4136" />
<rect x="0.005" y="0.5047222222222225" width="0.24486111111111128" height="0.24486111111111128" fill="#252525" />
<rect x="0.25486111111111126" y="0.5047222222222225" width="0.24486111111111128" height="0.24486111111111128" fill="#252525" />
<rect x="0.5047222222222225" y="0.5047222222222225" width="0.24486111111111128" height="0.24486111111111128" fill="#FF4136" />
<rect x="0.7545833333333338" y="0.5047222222222225" width="0.24486111111111128" height="0.24486111111111128" fill="#252525" />
<rect x="1.0044444444444451" y="0.5047222222222225" width="0.24486111111111128" height="0.24486111111111128" fill="#252525" />
<rect x="1.2543055555555562" y="0.5047222222222225" width="0.24486111111111128" height="0.24486111111111128" fill="#252525" />
<rect x="1.5041666666666675" y="0.5047222222222225" width="0.24486111111111128" height="0.24486111111111128" fill="#FF4136" />
<rect x="1.7540277777777789" y="0.5047222222222225" width="0.24486111111111128" height="0.24486111111111128" fill="#252525" />
<rect x="2.0038888888888904" y="0.5047222222222225" width="0.24486111111111128" height="0.24486111111111128" fill="#252525" />
<rect x="2.2537500000000015" y="0.5047222222222225" width="0.24486111111111128" height="0.24486111111111128" fill="#252525" />
<rect x="2.5036111111111126" y="0.5047222222222225" width="0.24486111111111128" height="0.24486111111111128" fill="#FF4136" />
<rect x="2.753472222222224" y="0.5047222222222225" width="0.24486111111111128" height="0.24486111111111128" fill="#252525" />
<rect x="3.003333333333335" y="0.5047222222222225" width="0.24486111111111128" height="0.24486111111111128" fill="#252525" />
<rect x="3.2531944444444467" y="0.5047222222222225" width="0.24486111111111128" height="0.24486111111111128" fill="#252525" />
<rect x="3.503055555555558" y="0.5047222222222225" width="0.24486111111111128" height="0.24486111111111128" fill="#FF4136" />
<rect x="3.7529166666666693" y="0.5047222222222225" width="0.24486111111111128" height="0.24486111111111128" fill="#252525" />
<rect x="4.002777777777781" y="0.5047222222222225" width="0.24486111111111128" height="0.24486111111111128" fill="#252525" />
<rect x="4.2526388888888915" y="0.5047222222222225" width="0.24486111111111128" height="0.24486111111111128" fill="#252525" />
<rect x="-0.02666666666666667" y="-0.02666666666666667" width="4.550833333333337" height="0.8029166666666672" fill="none" stroke="#111111ff" stroke-width="0.08" />
<text x="4.497500000000003" y="1.2183333333333337" font-size="0.375" fill="black" text-anchor="end" font-family="Anuphan">18x3</text>
<text x="-0.037500000000000006" y="1.2183333333333337" font-size="0.375" fill="black" text-anchor="start" font-family="Anuphan" font-weight="600">Input 3</text>
</g>
<g id="d3">
<rect x="0.005" y="0.005" width="0.1749000000000001" height="0.1749000000000001" fill="#FF4136" />
<rect x="0.18490000000000012" y="0.005" width="0.1749000000000001" height="0.1749000000000001" fill="#252525" />
<rect x="0.36480000000000024" y="0.005" width="0.1749000000000001" height="0.1749000000000001" fill="#252525" />
<rect x="0.5447000000000003" y="0.005" width="0.1749000000000001" height="0.1749000000000001" fill="#252525" />
<rect x="0.7246000000000005" y="0.005" width="0.1749000000000001" height="0.1749000000000001" fill="#FF4136" />
<rect x="0.9045000000000006" y="0.005" width="0.1749000000000001" height="0.1749000000000001" fill="#252525" />
<rect x="1.0844000000000005" y="0.005" width="0.1749000000000001" height="0.1749000000000001" fill="#252525" />
<rect x="1.2643000000000006" y="0.005" width="0.1749000000000001" height="0.1749000000000001" fill="#252525" />
<rect x="1.4442000000000008" y="0.005" width="0.1749000000000001" height="0.1749000000000001" fill="#FF4136" />
<rect x="1.624100000000001" y="0.005" width="0.1749000000000001" height="0.1749000000000001" fill="#252525" />
<rect x="1.8040000000000012" y="0.005" width="0.1749000000000001" height="0.1749000000000001" fill="#252525" />
<rect x="1.983900000000001" y="0.005" width="0.1749000000000001" height="0.1749000000000001" fill="#252525" />
<rect x="2.163800000000001" y="0.005" width="0.1749000000000001" height="0.1749000000000001" fill="#FF4136" />
<rect x="2.3437000000000014" y="0.005" width="0.1749000000000001" height="0.1749000000000001" fill="#252525" />
<rect x="2.5236000000000014" y="0.005" width="0.1749000000000001" height="0.1749000000000001" fill="#252525" />
<rect x="2.703500000000002" y="0.005" width="0.1749000000000001" height="0.1749000000000001" fill="#252525" />
<rect x="2.8834000000000017" y="0.005" width="0.1749000000000001" height="0.1749000000000001" fill="#FF4136" />
<rect x="3.0633000000000017" y="0.005" width="0.1749000000000001" height="0.1749000000000001" fill="#252525" />
<rect x="3.243200000000002" y="0.005" width="0.1749000000000001" height="0.1749000000000001" fill="#252525" />
<rect x="3.423100000000002" y="0.005" width="0.1749000000000001" height="0.1749000000000001" fill="#252525" />
<rect x="3.6030000000000024" y="0.005" width="0.1749000000000001" height="0.1749000000000001" fill="#FF4136" />
<rect x="3.7829000000000024" y="0.005" width="0.1749000000000001" height="0.1749000000000001" fill="#252525" />
<rect x="3.9628000000000023" y="0.005" width="0.1749000000000001" height="0.1749000000000001" fill="#252525" />
<rect x="4.142700000000002" y="0.005" width="0.1749000000000001" height="0.1749000000000001" fill="#252525" />
<rect x="4.322600000000002" y="0.005" width="0.1749000000000001" height="0.1749000000000001" fill="#FF4136" />
<rect x="0.005" y="0.18490000000000012" width="0.1749000000000001" height="0.1749000000000001" fill="#252525" />
<rect x="0.18490000000000012" y="0.18490000000000012" width="0.1749000000000001" height="0.1749000000000001" fill="#FF4136" />
<rect x="0.36480000000000024" y="0.18490000000000012" width="0.1749000000000001" height="0.1749000000000001" fill="#252525" />
<rect x="0.5447000000000003" y="0.18490000000000012" width="0.1749000000000001" height="0.1749000000000001" fill="#FF4136" />
<rect x="0.7246000000000005" y="0.18490000000000012" width="0.1749000000000001" height="0.1749000000000001" fill="#252525" />
<rect x="0.9045000000000006" y="0.18490000000000012" width="0.1749000000000001" height="0.1749000000000001" fill="#FF4136" />
<rect x="1.0844000000000005" y="0.18490000000000012" width="0.1749000000000001" height="0.1749000000000001" fill="#252525" />
<rect x="1.2643000000000006" y="0.18490000000000012" width="0.1749000000000001" height="0.1749000000000001" fill="#FF4136" />
<rect x="1.4442000000000008" y="0.18490000000000012" width="0.1749000000000001" height="0.1749000000000001" fill="#252525" />
<rect x="1.624100000000001" y="0.18490000000000012" width="0.1749000000000001" height="0.1749000000000001" fill="#FF4136" />
<rect x="1.8040000000000012" y="0.18490000000000012" width="0.1749000000000001" height="0.1749000000000001" fill="#252525" />
<rect x="1.983900000000001" y="0.18490000000000012" width="0.1749000000000001" height="0.1749000000000001" fill="#FF4136" />
<rect x="2.163800000000001" y="0.18490000000000012" width="0.1749000000000001" height="0.1749000000000001" fill="#252525" />
<rect x="2.3437000000000014" y="0.18490000000000012" width="0.1749000000000001" height="0.1749000000000001" fill="#FF4136" />
<rect x="2.5236000000000014" y="0.18490000000000012" width="0.1749000000000001" height="0.1749000000000001" fill="#252525" />
<rect x="2.703500000000002" y="0.18490000000000012" width="0.1749000000000001" height="0.1749000000000001" fill="#FF4136" />
<rect x="2.8834000000000017" y="0.18490000000000012" width="0.1749000000000001" height="0.1749000000000001" fill="#252525" />
<rect x="3.0633000000000017" y="0.18490000000000012" width="0.1749000000000001" height="0.1749000000000001" fill="#FF4136" />
<rect x="3.243200000000002" y="0.18490000000000012" width="0.1749000000000001" height="0.1749000000000001" fill="#252525" />
<rect x="3.423100000000002" y="0.18490000000000012" width="0.1749000000000001" height="0.1749000000000001" fill="#FF4136" />
<rect x="3.6030000000000024" y="0.18490000000000012" width="0.1749000000000001" height="0.1749000000000001" fill="#252525" />
<rect x="3.7829000000000024" y="0.18490000000000012" width="0.1749000000000001" height="0.1749000000000001" fill="#FF4136" />
<rect x="3.9628000000000023" y="0.18490000000000012" width="0.1749000000000001" height="0.1749000000000001" fill="#252525" />
<rect x="4.142700000000002" y="0.18490000000000012" width="0.1749000000000001" height="0.1749000000000001" fill="#FF4136" />
<rect x="4.322600000000002" y="0.18490000000000012" width="0.1749000000000001" height="0.1749000000000001" fill="#252525" />
<rect x="0.005" y="0.36480000000000024" width="0.1749000000000001" height="0.1749000000000001" fill="#252525" />
<rect x="0.18490000000000012" y="0.36480000000000024" width="0.1749000000000001" height="0.1749000000000001" fill="#252525" />
<rect x="0.36480000000000024" y="0.36480000000000024" width="0.1749000000000001" height="0.1749000000000001" fill="#FF4136" />
<rect x="0.5447000000000003" y="0.36480000000000024" width="0.1749000000000001" height="0.1749000000000001" fill="#252525" />
<rect x="0.7246000000000005" y="0.36480000000000024" width="0.1749000000000001" height="0.1749000000000001" fill="#252525" />
<rect x="0.9045000000000006" y="0.36480000000000024" width="0.1749000000000001" height="0.1749000000000001" fill="#252525" />
<rect x="1.0844000000000005" y="0.36480000000000024" width="0.1749000000000001" height="0.1749000000000001" fill="#FF4136" />
<rect x="1.2643000000000006" y="0.36480000000000024" width="0.1749000000000001" height="0.1749000000000001" fill="#252525" />
<rect x="1.4442000000000008" y="0.36480000000000024" width="0.1749000000000001" height="0.1749000000000001" fill="#252525" />
<rect x="1.624100000000001" y="0.36480000000000024" width="0.1749000000000001" height="0.1749000000000001" fill="#252525" />
<rect x="1.8040000000000012" y="0.36480000000000024" width="0.1749000000000001" height="0.1749000000000001" fill="#FF4136" />
<rect x="1.983900000000001" y="0.36480000000000024" width="0.1749000000000001" height="0.1749000000000001" fill="#252525" />
<rect x="2.163800000000001" y="0.36480000000000024" width="0.1749000000000001" height="0.1749000000000001" fill="#252525" />
<rect x="2.3437000000000014" y="0.36480000000000024" width="0.1749000000000001" height="0.1749000000000001" fill="#252525" />
<rect x="2.5236000000000014" y="0.36480000000000024" width="0.1749000000000001" height="0.1749000000000001" fill="#FF4136" />
<rect x="2.703500000000002" y="0.36480000000000024" width="0.1749000000000001" height="0.1749000000000001" fill="#252525" />
<rect x="2.8834000000000017" y="0.36480000000000024" width="0.1749000000000001" height="0.1749000000000001" fill="#252525" />
<rect x="3.0633000000000017" y="0.36480000000000024" width="0.1749000000000001" height="0.1749000000000001" fill="#252525" />
<rect x="3.243200000000002" y="0.36480000000000024" width="0.1749000000000001" height="0.1749000000000001" fill="#FF4136" />
<rect x="3.423100000000002" y="0.36480000000000024" width="0.1749000000000001" height="0.1749000000000001" fill="#252525" />
<rect x="3.6030000000000024" y="0.36480000000000024" width="0.1749000000000001" height="0.1749000000000001" fill="#252525" />
<rect x="3.7829000000000024" y="0.36480000000000024" width="0.1749000000000001" height="0.1749000000000001" fill="#252525" />
<rect x="3.9628000000000023" y="0.36480000000000024" width="0.1749000000000001" height="0.1749000000000001" fill="#FF4136" />
<rect x="4.142700000000002" y="0.36480000000000024" width="0.1749000000000001" height="0.1749000000000001" fill="#252525" />
<rect x="4.322600000000002" y="0.36480000000000024" width="0.1749000000000001" height="0.1749000000000001" fill="#252525" />
<rect x="-0.02666666666666667" y="-0.02666666666666667" width="4.550833333333337" height="0.5930333333333336" fill="none" stroke="#111111ff" stroke-width="0.08" />
<text x="4.497500000000003" y="1.0084500000000003" font-size="0.375" fill="black" text-anchor="end" font-family="Anuphan">25x3</text>
<text x="-0.037500000000000006" y="1.0084500000000003" font-size="0.375" fill="black" text-anchor="start" font-family="Anuphan" font-weight="600">Test 1</text>
</g>
<g id="d4">
<rect x="0.005" y="0.005" width="0.4447500000000003" height="0.4447500000000003" fill="#FF4136" />
<rect x="0.4547500000000003" y="0.005" width="0.4447500000000003" height="0.4447500000000003" fill="#252525" />
<rect x="0.9045000000000006" y="0.005" width="0.4447500000000003" height="0.4447500000000003" fill="#252525" />
<rect x="1.3542500000000008" y="0.005" width="0.4447500000000003" height="0.4447500000000003" fill="#252525" />
<rect x="1.8040000000000012" y="0.005" width="0.4447500000000003" height="0.4447500000000003" fill="#FF4136" />
<rect x="2.2537500000000015" y="0.005" width="0.4447500000000003" height="0.4447500000000003" fill="#FFDC00" />
<rect x="2.703500000000002" y="0.005" width="0.4447500000000003" height="0.4447500000000003" fill="#FFDC00" />
<rect x="3.153250000000002" y="0.005" width="0.4447500000000003" height="0.4447500000000003" fill="#FFDC00" />
<rect x="3.6030000000000024" y="0.005" width="0.4447500000000003" height="0.4447500000000003" fill="#FF4136" />
<rect x="4.052750000000002" y="0.005" width="0.4447500000000003" height="0.4447500000000003" fill="#252525" />
<rect x="0.005" y="0.4547500000000003" width="0.4447500000000003" height="0.4447500000000003" fill="#FFDC00" />
<rect x="0.4547500000000003" y="0.4547500000000003" width="0.4447500000000003" height="0.4447500000000003" fill="#FF4136" />
<rect x="0.9045000000000006" y="0.4547500000000003" width="0.4447500000000003" height="0.4447500000000003" fill="#252525" />
<rect x="1.3542500000000008" y="0.4547500000000003" width="0.4447500000000003" height="0.4447500000000003" fill="#FF4136" />
<rect x="1.8040000000000012" y="0.4547500000000003" width="0.4447500000000003" height="0.4447500000000003" fill="#252525" />
<rect x="2.2537500000000015" y="0.4547500000000003" width="0.4447500000000003" height="0.4447500000000003" fill="#FF4136" />
<rect x="2.703500000000002" y="0.4547500000000003" width="0.4447500000000003" height="0.4447500000000003" fill="#FFDC00" />
<rect x="3.153250000000002" y="0.4547500000000003" width="0.4447500000000003" height="0.4447500000000003" fill="#FF4136" />
<rect x="3.6030000000000024" y="0.4547500000000003" width="0.4447500000000003" height="0.4447500000000003" fill="#252525" />
<rect x="4.052750000000002" y="0.4547500000000003" width="0.4447500000000003" height="0.4447500000000003" fill="#FF4136" />
<rect x="0.005" y="0.9045000000000006" width="0.4447500000000003" height="0.4447500000000003" fill="#FFDC00" />
<rect x="0.4547500000000003" y="0.9045000000000006" width="0.4447500000000003" height="0.4447500000000003" fill="#FFDC00" />
<rect x="0.9045000000000006" y="0.9045000000000006" width="0.4447500000000003" height="0.4447500000000003" fill="#FF4136" />
<rect x="1.3542500000000008" y="0.9045000000000006" width="0.4447500000000003" height="0.4447500000000003" fill="#252525" />
<rect x="1.8040000000000012" y="0.9045000000000006" width="0.4447500000000003" height="0.4447500000000003" fill="#252525" />
<rect x="2.2537500000000015" y="0.9045000000000006" width="0.4447500000000003" height="0.4447500000000003" fill="#252525" />
<rect x="2.703500000000002" y="0.9045000000000006" width="0.4447500000000003" height="0.4447500000000003" fill="#FF4136" />
<rect x="3.153250000000002" y="0.9045000000000006" width="0.4447500000000003" height="0.4447500000000003" fill="#252525" />
<rect x="3.6030000000000024" y="0.9045000000000006" width="0.4447500000000003" height="0.4447500000000003" fill="#252525" />
<rect x="4.052750000000002" y="0.9045000000000006" width="0.4447500000000003" height="0.4447500000000003" fill="#252525" />
<rect x="-0.02666666666666667" y="-0.02666666666666667" width="4.550833333333337" height="1.4025833333333342" fill="none" stroke="#111111ff" stroke-width="0.08" />
<text x="4.497500000000003" y="1.818000000000001" font-size="0.375" fill="black" text-anchor="end" font-family="Anuphan">10x3</text>
<text x="-0.037500000000000006" y="1.818000000000001" font-size="0.375" fill="black" text-anchor="start" font-family="Anuphan" font-weight="600">Output 1</text>
</g>
<g id="d5">
<rect x="0.005" y="0.005" width="0.29483333333333356" height="0.29483333333333356" fill="#FF4136" />
<rect x="0.30483333333333357" y="0.005" width="0.29483333333333356" height="0.29483333333333356" fill="#252525" />
<rect x="0.6046666666666671" y="0.005" width="0.29483333333333356" height="0.29483333333333356" fill="#252525" />
<rect x="0.9045000000000006" y="0.005" width="0.29483333333333356" height="0.29483333333333356" fill="#252525" />
<rect x="1.2043333333333341" y="0.005" width="0.29483333333333356" height="0.29483333333333356" fill="#FF4136" />
<rect x="1.5041666666666678" y="0.005" width="0.29483333333333356" height="0.29483333333333356" fill="#FFDC00" />
<rect x="1.8040000000000012" y="0.005" width="0.29483333333333356" height="0.29483333333333356" fill="#FFDC00" />
<rect x="2.103833333333335" y="0.005" width="0.29483333333333356" height="0.29483333333333356" fill="#FFDC00" />
<rect x="2.4036666666666684" y="0.005" width="0.29483333333333356" height="0.29483333333333356" fill="#FF4136" />
<rect x="2.703500000000002" y="0.005" width="0.29483333333333356" height="0.29483333333333356" fill="#252525" />
<rect x="3.0033333333333356" y="0.005" width="0.29483333333333356" height="0.29483333333333356" fill="#252525" />
<rect x="3.303166666666669" y="0.005" width="0.29483333333333356" height="0.29483333333333356" fill="#252525" />
<rect x="3.6030000000000024" y="0.005" width="0.29483333333333356" height="0.29483333333333356" fill="#FF4136" />
<rect x="3.9028333333333363" y="0.005" width="0.29483333333333356" height="0.29483333333333356" fill="#252525" />
<rect x="4.20266666666667" y="0.005" width="0.29483333333333356" height="0.29483333333333356" fill="#252525" />
<rect x="0.005" y="0.30483333333333357" width="0.29483333333333356" height="0.29483333333333356" fill="#FFDC00" />
<rect x="0.30483333333333357" y="0.30483333333333357" width="0.29483333333333356" height="0.29483333333333356" fill="#FF4136" />
<rect x="0.6046666666666671" y="0.30483333333333357" width="0.29483333333333356" height="0.29483333333333356" fill="#252525" />
<rect x="0.9045000000000006" y="0.30483333333333357" width="0.29483333333333356" height="0.29483333333333356" fill="#FF4136" />
<rect x="1.2043333333333341" y="0.30483333333333357" width="0.29483333333333356" height="0.29483333333333356" fill="#252525" />
<rect x="1.5041666666666678" y="0.30483333333333357" width="0.29483333333333356" height="0.29483333333333356" fill="#FF4136" />
<rect x="1.8040000000000012" y="0.30483333333333357" width="0.29483333333333356" height="0.29483333333333356" fill="#FFDC00" />
<rect x="2.103833333333335" y="0.30483333333333357" width="0.29483333333333356" height="0.29483333333333356" fill="#FF4136" />
<rect x="2.4036666666666684" y="0.30483333333333357" width="0.29483333333333356" height="0.29483333333333356" fill="#252525" />
<rect x="2.703500000000002" y="0.30483333333333357" width="0.29483333333333356" height="0.29483333333333356" fill="#FF4136" />
<rect x="3.0033333333333356" y="0.30483333333333357" width="0.29483333333333356" height="0.29483333333333356" fill="#252525" />
<rect x="3.303166666666669" y="0.30483333333333357" width="0.29483333333333356" height="0.29483333333333356" fill="#FF4136" />
<rect x="3.6030000000000024" y="0.30483333333333357" width="0.29483333333333356" height="0.29483333333333356" fill="#FFDC00" />
<rect x="3.9028333333333363" y="0.30483333333333357" width="0.29483333333333356" height="0.29483333333333356" fill="#FF4136" />
<rect x="4.20266666666667" y="0.30483333333333357" width="0.29483333333333356" height="0.29483333333333356" fill="#252525" />
<rect x="0.005" y="0.6046666666666671" width="0.29483333333333356" height="0.29483333333333356" fill="#FFDC00" />
<rect x="0.30483333333333357" y="0.6046666666666671" width="0.29483333333333356" height="0.29483333333333356" fill="#FFDC00" />
<rect x="0.6046666666666671" y="0.6046666666666671" width="0.29483333333333356" height="0.29483333333333356" fill="#FF4136" />
<rect x="0.9045000000000006" y="0.6046666666666671" width="0.29483333333333356" height="0.29483333333333356" fill="#252525" />
<rect x="1.2043333333333341" y="0.6046666666666671" width="0.29483333333333356" height="0.29483333333333356" fill="#252525" />
<rect x="1.5041666666666678" y="0.6046666666666671" width="0.29483333333333356" height="0.29483333333333356" fill="#252525" />
<rect x="1.8040000000000012" y="0.6046666666666671" width="0.29483333333333356" height="0.29483333333333356" fill="#FF4136" />
<rect x="2.103833333333335" y="0.6046666666666671" width="0.29483333333333356" height="0.29483333333333356" fill="#252525" />
<rect x="2.4036666666666684" y="0.6046666666666671" width="0.29483333333333356" height="0.29483333333333356" fill="#252525" />
<rect x="2.703500000000002" y="0.6046666666666671" width="0.29483333333333356" height="0.29483333333333356" fill="#252525" />
<rect x="3.0033333333333356" y="0.6046666666666671" width="0.29483333333333356" height="0.29483333333333356" fill="#FF4136" />
<rect x="3.303166666666669" y="0.6046666666666671" width="0.29483333333333356" height="0.29483333333333356" fill="#FFDC00" />
<rect x="3.6030000000000024" y="0.6046666666666671" width="0.29483333333333356" height="0.29483333333333356" fill="#FFDC00" />
<rect x="3.9028333333333363" y="0.6046666666666671" width="0.29483333333333356" height="0.29483333333333356" fill="#FFDC00" />
<rect x="4.20266666666667" y="0.6046666666666671" width="0.29483333333333356" height="0.29483333333333356" fill="#FF4136" />
<rect x="-0.02666666666666667" y="-0.02666666666666667" width="4.550833333333337" height="0.952833333333334" fill="none" stroke="#111111ff" stroke-width="0.08" />
<text x="4.497500000000003" y="1.3682500000000006" font-size="0.375" fill="black" text-anchor="end" font-family="Anuphan">15x3</text>
<text x="-0.037500000000000006" y="1.3682500000000006" font-size="0.375" fill="black" text-anchor="start" font-family="Anuphan" font-weight="600">Output 2</text>
</g>
<g id="d6">
<rect x="0.005" y="0.005" width="0.24486111111111128" height="0.24486111111111128" fill="#FF4136" />
<rect x="0.25486111111111126" y="0.005" width="0.24486111111111128" height="0.24486111111111128" fill="#252525" />
<rect x="0.5047222222222225" y="0.005" width="0.24486111111111128" height="0.24486111111111128" fill="#252525" />
<rect x="0.7545833333333338" y="0.005" width="0.24486111111111128" height="0.24486111111111128" fill="#252525" />
<rect x="1.0044444444444451" y="0.005" width="0.24486111111111128" height="0.24486111111111128" fill="#FF4136" />
<rect x="1.2543055555555562" y="0.005" width="0.24486111111111128" height="0.24486111111111128" fill="#FFDC00" />
<rect x="1.5041666666666675" y="0.005" width="0.24486111111111128" height="0.24486111111111128" fill="#FFDC00" />
<rect x="1.7540277777777789" y="0.005" width="0.24486111111111128" height="0.24486111111111128" fill="#FFDC00" />
<rect x="2.0038888888888904" y="0.005" width="0.24486111111111128" height="0.24486111111111128" fill="#FF4136" />
<rect x="2.2537500000000015" y="0.005" width="0.24486111111111128" height="0.24486111111111128" fill="#252525" />
<rect x="2.5036111111111126" y="0.005" width="0.24486111111111128" height="0.24486111111111128" fill="#252525" />
<rect x="2.753472222222224" y="0.005" width="0.24486111111111128" height="0.24486111111111128" fill="#252525" />
<rect x="3.003333333333335" y="0.005" width="0.24486111111111128" height="0.24486111111111128" fill="#FF4136" />
<rect x="3.2531944444444467" y="0.005" width="0.24486111111111128" height="0.24486111111111128" fill="#252525" />
<rect x="3.503055555555558" y="0.005" width="0.24486111111111128" height="0.24486111111111128" fill="#252525" />
<rect x="3.7529166666666693" y="0.005" width="0.24486111111111128" height="0.24486111111111128" fill="#252525" />
<rect x="4.002777777777781" y="0.005" width="0.24486111111111128" height="0.24486111111111128" fill="#FF4136" />
<rect x="4.2526388888888915" y="0.005" width="0.24486111111111128" height="0.24486111111111128" fill="#FFDC00" />
<rect x="0.005" y="0.25486111111111126" width="0.24486111111111128" height="0.24486111111111128" fill="#FFDC00" />
<rect x="0.25486111111111126" y="0.25486111111111126" width="0.24486111111111128" height="0.24486111111111128" fill="#FF4136" />
<rect x="0.5047222222222225" y="0.25486111111111126" width="0.24486111111111128" height="0.24486111111111128" fill="#252525" />
<rect x="0.7545833333333338" y="0.25486111111111126" width="0.24486111111111128" height="0.24486111111111128" fill="#FF4136" />
<rect x="1.0044444444444451" y="0.25486111111111126" width="0.24486111111111128" height="0.24486111111111128" fill="#252525" />
<rect x="1.2543055555555562" y="0.25486111111111126" width="0.24486111111111128" height="0.24486111111111128" fill="#FF4136" />
<rect x="1.5041666666666675" y="0.25486111111111126" width="0.24486111111111128" height="0.24486111111111128" fill="#FFDC00" />
<rect x="1.7540277777777789" y="0.25486111111111126" width="0.24486111111111128" height="0.24486111111111128" fill="#FF4136" />
<rect x="2.0038888888888904" y="0.25486111111111126" width="0.24486111111111128" height="0.24486111111111128" fill="#252525" />
<rect x="2.2537500000000015" y="0.25486111111111126" width="0.24486111111111128" height="0.24486111111111128" fill="#FF4136" />
<rect x="2.5036111111111126" y="0.25486111111111126" width="0.24486111111111128" height="0.24486111111111128" fill="#252525" />
<rect x="2.753472222222224" y="0.25486111111111126" width="0.24486111111111128" height="0.24486111111111128" fill="#FF4136" />
<rect x="3.003333333333335" y="0.25486111111111126" width="0.24486111111111128" height="0.24486111111111128" fill="#FFDC00" />
<rect x="3.2531944444444467" y="0.25486111111111126" width="0.24486111111111128" height="0.24486111111111128" fill="#FF4136" />
<rect x="3.503055555555558" y="0.25486111111111126" width="0.24486111111111128" height="0.24486111111111128" fill="#252525" />
<rect x="3.7529166666666693" y="0.25486111111111126" width="0.24486111111111128" height="0.24486111111111128" fill="#FF4136" />
<rect x="4.002777777777781" y="0.25486111111111126" width="0.24486111111111128" height="0.24486111111111128" fill="#252525" />
<rect x="4.2526388888888915" y="0.25486111111111126" width="0.24486111111111128" height="0.24486111111111128" fill="#FF4136" />
<rect x="0.005" y="0.5047222222222225" width="0.24486111111111128" height="0.24486111111111128" fill="#FFDC00" />
<rect x="0.25486111111111126" y="0.5047222222222225" width="0.24486111111111128" height="0.24486111111111128" fill="#FFDC00" />
<rect x="0.5047222222222225" y="0.5047222222222225" width="0.24486111111111128" height="0.24486111111111128" fill="#FF4136" />
<rect x="0.7545833333333338" y="0.5047222222222225" width="0.24486111111111128" height="0.24486111111111128" fill="#252525" />
<rect x="1.0044444444444451" y="0.5047222222222225" width="0.24486111111111128" height="0.24486111111111128" fill="#252525" />
<rect x="1.2543055555555562" y="0.5047222222222225" width="0.24486111111111128" height="0.24486111111111128" fill="#252525" />
<rect x="1.5041666666666675" y="0.5047222222222225" width="0.24486111111111128" height="0.24486111111111128" fill="#FF4136" />
<rect x="1.7540277777777789" y="0.5047222222222225" width="0.24486111111111128" height="0.24486111111111128" fill="#252525" />
<rect x="2.0038888888888904" y="0.5047222222222225" width="0.24486111111111128" height="0.24486111111111128" fill="#252525" />
<rect x="2.2537500000000015" y="0.5047222222222225" width="0.24486111111111128" height="0.24486111111111128" fill="#252525" />
<rect x="2.5036111111111126" y="0.5047222222222225" width="0.24486111111111128" height="0.24486111111111128" fill="#FF4136" />
<rect x="2.753472222222224" y="0.5047222222222225" width="0.24486111111111128" height="0.24486111111111128" fill="#FFDC00" />
<rect x="3.003333333333335" y="0.5047222222222225" width="0.24486111111111128" height="0.24486111111111128" fill="#FFDC00" />
<rect x="3.2531944444444467" y="0.5047222222222225" width="0.24486111111111128" height="0.24486111111111128" fill="#FFDC00" />
<rect x="3.503055555555558" y="0.5047222222222225" width="0.24486111111111128" height="0.24486111111111128" fill="#FF4136" />
<rect x="3.7529166666666693" y="0.5047222222222225" width="0.24486111111111128" height="0.24486111111111128" fill="#252525" />
<rect x="4.002777777777781" y="0.5047222222222225" width="0.24486111111111128" height="0.24486111111111128" fill="#252525" />
<rect x="4.2526388888888915" y="0.5047222222222225" width="0.24486111111111128" height="0.24486111111111128" fill="#252525" />
<rect x="-0.02666666666666667" y="-0.02666666666666667" width="4.550833333333337" height="0.8029166666666672" fill="none" stroke="#111111ff" stroke-width="0.08" />
<text x="4.497500000000003" y="1.2183333333333337" font-size="0.375" fill="black" text-anchor="end" font-family="Anuphan">18x3</text>
<text x="-0.037500000000000006" y="1.2183333333333337" font-size="0.375" fill="black" text-anchor="start" font-family="Anuphan" font-weight="600">Output 3</text>
</g>
</defs>
<rect x="0" y="0" width="100%" height="100%" fill="#eeeff6" />
<use xlink:href="#d0" x="0.25" y="0.25" />
<use xlink:href="#d1" x="5.247500000000003" y="0.25" />
<use xlink:href="#d2" x="10.245000000000006" y="0.25" />
<use xlink:href="#d3" x="15.24250000000001" y="0.25" />
<path d="M2.4987500000000016,2.249250000000001 L2.4987500000000016,2.6492500000000008" stroke-width="0.05" stroke="#888888" />
<path d="M2.3487500000000017,2.449250000000001 L2.4987500000000016,2.6492500000000008" stroke-width="0.05" stroke="#888888" />
<path d="M2.6487500000000015,2.449250000000001 L2.4987500000000016,2.6492500000000008" stroke-width="0.05" stroke="#888888" />
<use xlink:href="#d4" x="0.25" y="2.999250000000001" />
<path d="M7.496250000000005,2.249250000000001 L7.496250000000005,2.6492500000000008" stroke-width="0.05" stroke="#888888" />
<path d="M7.346250000000005,2.449250000000001 L7.496250000000005,2.6492500000000008" stroke-width="0.05" stroke="#888888" />
<path d="M7.6462500000000055,2.449250000000001 L7.496250000000005,2.6492500000000008" stroke-width="0.05" stroke="#888888" />
<use xlink:href="#d5" x="5.247500000000003" y="2.999250000000001" />
<path d="M12.493750000000007,2.249250000000001 L12.493750000000007,2.6492500000000008" stroke-width="0.05" stroke="#888888" />
<path d="M12.343750000000007,2.449250000000001 L12.493750000000007,2.6492500000000008" stroke-width="0.05" stroke="#888888" />
<path d="M12.643750000000008,2.449250000000001 L12.493750000000007,2.6492500000000008" stroke-width="0.05" stroke="#888888" />
<use xlink:href="#d6" x="10.245000000000006" y="2.999250000000001" />
<path d="M17.49125000000001,2.249250000000001 L17.49125000000001,2.6492500000000008" stroke-width="0.05" stroke="#888888" />
<path d="M17.341250000000013,2.449250000000001 L17.49125000000001,2.6492500000000008" stroke-width="0.05" stroke="#888888" />
<path d="M17.64125000000001,2.449250000000001 L17.49125000000001,2.6492500000000008" stroke-width="0.05" stroke="#888888" />
<text x="17.49125000000001" y="3.3691000000000013" font-size="1" font-family="Anuphan" font-weight="700" fill="#333333" text-anchor="middle" alignment-baseline="middle">?</text>
<text x="19.9" y="5.199999999999999" font-size="0.3" font-family="Anuphan" font-weight="600" fill="#666666" text-anchor="end" alignment-baseline="bottom">Task 7447852a</text>
</svg>