<?xml version="1.0" encoding="UTF-8"?>
<svg xmlns="http://www.w3.org/2000/svg" xmlns:xlink="http://www.w3.org/1999/xlink"
     width="800.0" height="536.0" viewBox="0 0 20.0 13.399999999999999">
<defs>
<g id="d0">
<rect x="0.005" y="0.005" width="0.49722222222222034" height="0.49722222222222034" fill="#252525" />
<rect x="0.5072222222222204" y="0.005" width="0.49722222222222034" height="0.49722222222222034" fill="#252525" />
<rect x="1.0094444444444406" y="0.005" width="0.49722222222222034" height="0.49722222222222034" fill="#252525" />
<rect x="1.511666666666661" y="0.005" width="0.49722222222222034" height="0.49722222222222034" fill="#252525" />
<rect x="2.0138888888888813" y="0.005" width="0.49722222222222034" height="0.49722222222222034" fill="#252525" />
<rect x="2.5161111111111016" y="0.005" width="0.49722222222222034" height="0.49722222222222034" fill="#252525" />
<rect x="3.018333333333322" y="0.005" width="0.49722222222222034" height="0.49722222222222034" fill="#252525" />
<rect x="3.5205555555555423" y="0.005" width="0.49722222222222034" height="0.49722222222222034" fill="#252525" />
<rect x="4.022777777777763" y="0.005" width="0.49722222222222034" height="0.49722222222222034" fill="#252525" />
<rect x="0.005" y="0.5072222222222204" width="0.49722222222222034" height="0.49722222222222034" fill="#252525" />
<rect x="0.5072222222222204" y="0.5072222222222204" width="0.49722222222222034" height="0.49722222222222034" fill="#FF4136" />
<rect x="1.0094444444444406" y="0.5072222222222204" width="0.49722222222222034" height="0.49722222222222034" fill="#252525" />
<rect x="1.511666666666661" y="0.5072222222222204" width="0.49722222222222034" height="0.49722222222222034" fill="#252525" />
<rect x="2.0138888888888813" y="0.5072222222222204" width="0.49722222222222034" height="0.49722222222222034" fill="#252525" />
<rect x="2.5161111111111016" y="0.5072222222222204" width="0.49722222222222034" height="0.49722222222222034" fill="#252525" />
<rect x="3.018333333333322" y="0.5072222222222204" width="0.49722222222222034" height="0.49722222222222034" fill="#252525" />
<rect x="3.5205555555555423" y="0.5072222222222204" width="0.49722222222222034" height="0.49722222222222034" fill="#252525" />
<rect x="4.022777777777763" y="0.5072222222222204" width="0.49722222222222034" height="0.49722222222222034" fill="#252525" />
<rect x="0.005" y="1.0094444444444406" width="0.49722222222222034" height="0.49722222222222034" fill="#252525" />
<rect x="0.5072222222222204" y="1.0094444444444406" width="0.49722222222222034" height="0.49722222222222034" fill="#FF4136" />
<rect x="1.0094444444444406" y="1.0094444444444406" width="0.49722222222222034" height="0.49722222222222034" fill="#252525" />
<rect x="1.511666666666661" y="1.0094444444444406" width="0.49722222222222034" height="0.49722222222222034" fill="#FF4136" />
<rect x="2.0138888888888813" y="1.0094444444444406" width="0.49722222222222034" height="0.49722222222222034" fill="#252525" />
<rect x="2.5161111111111016" y="1.0094444444444406" width="0.49722222222222034" height="0.49722222222222034" fill="#252525" />
<rect x="3.018333333333322" y="1.0094444444444406" width="0.49722222222222034" height="0.49722222222222034" fill="#252525" />
<rect x="3.5205555555555423" y="1.0094444444444406" width="0.49722222222222034" height="0.49722222222222034" fill="#252525" />
<rect x="4.022777777777763" y="1.0094444444444406" width="0.49722222222222034" height="0.49722222222222034" fill="#252525" />
<rect x="0.005" y="1.511666666666661" width="0.49722222222222034" height="0.49722222222222034" fill="#252525" />
<rect x="0.5072222222222204" y="1.511666666666661" width="0.49722222222222034" height="0.49722222222222034" fill="#FF4136" />
<rect x="1.0094444444444406" y="1.511666666666661" width="0.49722222222222034" height="0.49722222222222034" fill="#252525" />
<rect x="1.511666666666661" y="1.511666666666661" width="0.49722222222222034" height="0.49722222222222034" fill="#FF4136" />
<rect x="2.0138888888888813" y="1.511666666666661" width="0.49722222222222034" height="0.49722222222222034" fill="#252525" />
<rect x="2.5161111111111016" y="1.511666666666661" width="0.49722222222222034" height="0.49722222222222034" fill="#FF4136" />
<rect x="3.018333333333322" y="1.511666666666661" width="0.49722222222222034" height="0.49722222222222034" fill="#252525" />
<rect x="3.5205555555555423" y="1.511666666666661" width="0.49722222222222034" height="0.49722222222222034" fill="#252525" />
<rect x="4.022777777777763" y="1.511666666666661" width="0.49722222222222034" height="0.49722222222222034" fill="#252525" />
<rect x="0.005" y="2.0138888888888813" width="0.49722222222222034" height="0.49722222222222034" fill="#252525" />
<rect x="0.5072222222222204" y="2.0138888888888813" width="0.49722222222222034" height="0.49722222222222034" fill="#FF4136" />
<rect x="1.0094444444444406" y="2.0138888888888813" width="0.49722222222222034" height="0.49722222222222034" fill="#252525" />
<rect x="1.511666666666661" y="2.0138888888888813" width="0.49722222222222034" height="0.49722222222222034" fill="#FF4136" />
<rect x="2.0138888888888813" y="2.0138888888888813" width="0.49722222222222034" height="0.49722222222222034" fill="#252525" />
<rect x="2.5161111111111016" y="2.0138888888888813" width="0.49722222222222034" height="0.49722222222222034" fill="#FF4136" />
<rect x="3.018333333333322" y="2.0138888888888813" width="0.49722222222222034" height="0.49722222222222034" fill="#252525" />
<rect x="3.5205555555555423" y="2.0138888888888813" width="0.49722222222222034" height="0.49722222222222034" fill="#FF4136" />
<rect x="4.022777777777763" y="2.0138888888888813" width="0.49722222222222034" height="0.49722222222222034" fill="#252525" />
<rect x="0.005" y="2.5161111111111016" width="0.49722222222222034" height="0.49722222222222034" fill="#252525" />
<rect x="0.5072222222222204" y="2.5161111111111016" width="0.49722222222222034" height="0.49722222222222034" fill="#FF4136" />
<rect x="1.0094444444444406" y="2.5161111111111016" width="0.49722222222222034" height="0.49722222222222034" fill="#252525" />
<rect x="1.511666666666661" y="2.5161111111111016" width="0.49722222222222034" height="0.49722222222222034" fill="#FF4136" />
<rect x="2.0138888888888813" y="2.5161111111111016" width="0.49722222222222034" height="0.49722222222222034" fill="#252525" />
<rect x="2.5161111111111016" y="2.5161111111111016" width="0.49722222222222034" height="0.49722222222222034" fill="#FF4136" />
<rect x="3.018333333333322" y="2.5161111111111016" width="0.49722222222222034" height="0.49722222222222034" fill="#252525" />
<rect x="3.5205555555555423" y="2.5161111111111016" width="0.49722222222222034" height="0.49722222222222034" fill="#FF4136" />
<rect x="4.022777777777763" y="2.5161111111111016" width="0.49722222222222034" height="0.49722222222222034" fill="#252525" />
<rect x="0.005" y="3.018333333333322" width="0.49722222222222034" height="0.49722222222222034" fill="#252525" />
<rect x="0.5072222222222204" y="3.018333333333322" width="0.49722222222222034" height="0.49722222222222034" fill="#FF4136" />
<rect x="1.0094444444444406" y="3.018333333333322" width="0.49722222222222034" height="0.49722222222222034" fill="#252525" />
<rect x="1.511666666666661" y="3.018333333333322" width="0.49722222222222034" height="0.49722222222222034" fill="#FF4136" />
<rect x="2.0138888888888813" y="3.018333333333322" width="0.49722222222222034" height="0.49722222222222034" fill="#252525" />
<rect x="2.5161111111111016" y="3.018333333333322" width="0.49722222222222034" height="0.49722222222222034" fill="#FF4136" />
<rect x="3.018333333333322" y="3.018333333333322" width="0.49722222222222034" height="0.49722222222222034" fill="#252525" />
<rect x="3.5205555555555423" y="3.018333333333322" width="0.49722222222222034" height="0.49722222222222034" fill="#FF4136" />
<rect x="4.022777777777763" y="3.018333333333322" width="0.49722222222222034" height="0.49722222222222034" fill="#252525" />
<rect x="-0.02666666666666667" y="-0.02666666666666667" width="4.573333333333317" height="3.5688888888888757" fill="none" stroke="#111111ff" stroke-width="0.08" />
<text x="4.519999999999984" y="3.9843055555555424" font-size="0.375" fill="black" text-anchor="end" font-family="Anuphan">9x7</text>
<text x="-0.037500000000000006" y="3.9843055555555424" font-size="0.375" fill="black" text-anchor="start" font-family="Anuphan" font-weight="600">Input 1</text>
</g>
<g id="d1">
<rect x="0.005" y="0.005" width="0.49722222222222034" height="0.49722222222222034" fill="#252525" />
<rect x="0.5072222222222204" y="0.005" width="0.49722222222222034" height="0.49722222222222034" fill="#252525" />
<rect x="1.0094444444444406" y="0.005" width="0.49722222222222034" height="0.49722222222222034" fill="#252525" />
<rect x="1.511666666666661" y="0.005" width="0.49722222222222034" height="0.49722222222222034" fill="#252525" />
<rect x="2.0138888888888813" y="0.005" width="0.49722222222222034" height="0.49722222222222034" fill="#252525" />
<rect x="2.5161111111111016" y="0.005" width="0.49722222222222034" height="0.49722222222222034" fill="#252525" />
<rect x="3.018333333333322" y="0.005" width="0.49722222222222034" height="0.49722222222222034" fill="#252525" />
<rect x="3.5205555555555423" y="0.005" width="0.49722222222222034" height="0.49722222222222034" fill="#252525" />
<rect x="4.022777777777763" y="0.005" width="0.49722222222222034" height="0.49722222222222034" fill="#252525" />
<rect x="0.005" y="0.5072222222222204" width="0.49722222222222034" height="0.49722222222222034" fill="#252525" />
<rect x="0.5072222222222204" y="0.5072222222222204" width="0.49722222222222034" height="0.49722222222222034" fill="#FF4136" />
<rect x="1.0094444444444406" y="0.5072222222222204" width="0.49722222222222034" height="0.49722222222222034" fill="#252525" />
<rect x="1.511666666666661" y="0.5072222222222204" width="0.49722222222222034" height="0.49722222222222034" fill="#252525" />
<rect x="2.0138888888888813" y="0.5072222222222204" width="0.49722222222222034" height="0.49722222222222034" fill="#252525" />
<rect x="2.5161111111111016" y="0.5072222222222204" width="0.49722222222222034" height="0.49722222222222034" fill="#252525" />
<rect x="3.018333333333322" y="0.5072222222222204" width="0.49722222222222034" height="0.49722222222222034" fill="#252525" />
<rect x="3.5205555555555423" y="0.5072222222222204" width="0.49722222222222034" height="0.49722222222222034" fill="#252525" />
<rect x="4.022777777777763" y="0.5072222222222204" width="0.49722222222222034" height="0.49722222222222034" fill="#252525" />
<rect x="0.005" y="1.0094444444444406" width="0.49722222222222034" height="0.49722222222222034" fill="#252525" />
<rect x="0.5072222222222204" y="1.0094444444444406" width="0.49722222222222034" height="0.49722222222222034" fill="#FF4136" />
<rect x="1.0094444444444406" y="1.0094444444444406" width="0.49722222222222034" height="0.49722222222222034" fill="#252525" />
<rect x="1.511666666666661" y="1.0094444444444406" width="0.49722222222222034" height="0.49722222222222034" fill="#252525" />
<rect x="2.0138888888888813" y="1.0094444444444406" width="0.49722222222222034" height="0.49722222222222034" fill="#252525" />
<rect x="2.5161111111111016" y="1.0094444444444406" width="0.49722222222222034" height="0.49722222222222034" fill="#252525" />
<rect x="3.018333333333322" y="1.0094444444444406" width="0.49722222222222034" height="0.49722222222222034" fill="#252525" />
<rect x="3.5205555555555423" y="1.0094444444444406" width="0.49722222222222034" height="0.49722222222222034" fill="#FF4136" />
<rect x="4.022777777777763" y="1.0094444444444406" width="0.49722222222222034" height="0.49722222222222034" fill="#252525" />
<rect x="0.005" y="1.511666666666661" width="0.49722222222222034" height="0.49722222222222034" fill="#252525" />
<rect x="0.5072222222222204" y="1.511666666666661" width="0.49722222222222034" height="0.49722222222222034" fill="#FF4136" />
<rect x="1.0094444444444406" y="1.511666666666661" width="0.49722222222222034" height="0.49722222222222034" fill="#252525" />
<rect x="1.511666666666661" y="1.511666666666661" width="0.49722222222222034" height="0.49722222222222034" fill="#FF4136" />
<rect x="2.0138888888888813" y="1.511666666666661" width="0.49722222222222034" height="0.49722222222222034" fill="#252525" />
<rect x="2.5161111111111016" y="1.511666666666661" width="0.49722222222222034" height="0.49722222222222034" fill="#252525" />
<rect x="3.018333333333322" y="1.511666666666661" width="0.49722222222222034" height="0.49722222222222034" fill="#252525" />
<rect x="3.5205555555555423" y="1.511666666666661" width="0.49722222222222034" height="0.49722222222222034" fill="#FF4136" />
<rect x="4.022777777777763" y="1.511666666666661" width="0.49722222222222034" height="0.49722222222222034" fill="#252525" />
<rect x="0.005" y="2.0138888888888813" width="0.49722222222222034" height="0.49722222222222034" fill="#252525" />
<rect x="0.5072222222222204" y="2.0138888888888813" width="0.49722222222222034" height="0.49722222222222034" fill="#FF4136" />
<rect x="1.0094444444444406" y="2.0138888888888813" width="0.49722222222222034" height="0.49722222222222034" fill="#252525" />
<rect x="1.511666666666661" y="2.0138888888888813" width="0.49722222222222034" height="0.49722222222222034" fill="#FF4136" />
<rect x="2.0138888888888813" y="2.0138888888888813" width="0.49722222222222034" height="0.49722222222222034" fill="#252525" />
<rect x="2.5161111111111016" y="2.0138888888888813" width="0.49722222222222034" height="0.49722222222222034" fill="#252525" />
<rect x="3.018333333333322" y="2.0138888888888813" width="0.49722222222222034" height="0.49722222222222034" fill="#252525" />
<rect x="3.5205555555555423" y="2.0138888888888813" width="0.49722222222222034" height="0.49722222222222034" fill="#FF4136" />
<rect x="4.022777777777763" y="2.0138888888888813" width="0.49722222222222034" height="0.49722222222222034" fill="#252525" />
<rect x="0.005" y="2.5161111111111016" width="0.49722222222222034" height="0.49722222222222034" fill="#252525" />
<rect x="0.5072222222222204" y="2.5161111111111016" width="0.49722222222222034" height="0.49722222222222034" fill="#FF4136" />
<rect x="1.0094444444444406" y="2.5161111111111016" width="0.49722222222222034" height="0.49722222222222034" fill="#252525" />
<rect x="1.511666666666661" y="2.5161111111111016" width="0.49722222222222034" height="0.49722222222222034" fill="#FF4136" />
<rect x="2.0138888888888813" y="2.5161111111111016" width="0.49722222222222034" height="0.49722222222222034" fill="#252525" />
<rect x="2.5161111111111016" y="2.5161111111111016" width="0.49722222222222034" height="0.49722222222222034" fill="#FF4136" />
<rect x="3.018333333333322" y="2.5161111111111016" width="0.49722222222222034" height="0.49722222222222034" fill="#252525" />
<rect x="3.5205555555555423" y="2.5161111111111016" width="0.49722222222222034" height="0.49722222222222034" fill="#FF4136" />
<rect x="4.022777777777763" y="2.5161111111111016" width="0.49722222222222034" height="0.49722222222222034" fill="#252525" />
<rect x="0.005" y="3.018333333333322" width="0.49722222222222034" height="0.49722222222222034" fill="#252525" />
<rect x="0.5072222222222204" y="3.018333333333322" width="0.49722222222222034" height="0.49722222222222034" fill="#FF4136" />
<rect x="1.0094444444444406" y="3.018333333333322" width="0.49722222222222034" height="0.49722222222222034" fill="#252525" />
<rect x="1.511666666666661" y="3.018333333333322" width="0.49722222222222034" height="0.49722222222222034" fill="#FF4136" />
<rect x="2.0138888888888813" y="3.018333333333322" width="0.49722222222222034" height="0.49722222222222034" fill="#252525" />
<rect x="2.5161111111111016" y="3.018333333333322" width="0.49722222222222034" height="0.49722222222222034" fill="#FF4136" />
<rect x="3.018333333333322" y="3.018333333333322" width="0.49722222222222034" height="0.49722222222222034" fill="#252525" />
<rect x="3.5205555555555423" y="3.018333333333322" width="0.49722222222222034" height="0.49722222222222034" fill="#FF4136" />
<rect x="4.022777777777763" y="3.018333333333322" width="0.49722222222222034" height="0.49722222222222034" fill="#252525" />
<rect x="0.005" y="3.5205555555555423" width="0.49722222222222034" height="0.49722222222222034" fill="#252525" />
<rect x="0.5072222222222204" y="3.5205555555555423" width="0.49722222222222034" height="0.49722222222222034" fill="#FF4136" />
<rect x="1.0094444444444406" y="3.5205555555555423" width="0.49722222222222034" height="0.49722222222222034" fill="#252525" />
<rect x="1.511666666666661" y="3.5205555555555423" width="0.49722222222222034" height="0.49722222222222034" fill="#FF4136" />
<rect x="2.0138888888888813" y="3.5205555555555423" width="0.49722222222222034" height="0.49722222222222034" fill="#252525" />
<rect x="2.5161111111111016" y="3.5205555555555423" width="0.49722222222222034" height="0.49722222222222034" fill="#FF4136" />
<rect x="3.018333333333322" y="3.5205555555555423" width="0.49722222222222034" height="0.49722222222222034" fill="#252525" />
<rect x="3.5205555555555423" y="3.5205555555555423" width="0.49722222222222034" height="0.49722222222222034" fill="#FF4136" />
<rect x="4.022777777777763" y="3.5205555555555423" width="0.49722222222222034" height="0.49722222222222034" fill="#252525" />
<rect x="-0.02666666666666667" y="-0.02666666666666667" width="4.573333333333317" height="4.0711111111110965" fill="none" stroke="#111111ff" stroke-width="0.08" />
<text x="4.519999999999984" y="4.486527777777763" font-size="0.375" fill="black" text-anchor="end" font-family="Anuphan">9x8</text>
<text x="-0.037500000000000006" y="4.486527777777763" font-size="0.375" fill="black" text-anchor="start" font-family="Anuphan" font-weight="600">Input 2</text>
</g>
<g id="d2">
<rect x="0.005" y="0.005" width="0.49722222222222034" height="0.49722222222222034" fill="#252525" />
<rect x="0.5072222222222204" y="0.005" width="0.49722222222222034" height="0.49722222222222034" fill="#252525" />
<rect x="1.0094444444444406" y="0.005" width="0.49722222222222034" height="0.49722222222222034" fill="#252525" />
<rect x="1.511666666666661" y="0.005" width="0.49722222222222034" height="0.49722222222222034" fill="#252525" />
<rect x="2.0138888888888813" y="0.005" width="0.49722222222222034" height="0.49722222222222034" fill="#252525" />
<rect x="2.5161111111111016" y="0.005" width="0.49722222222222034" height="0.49722222222222034" fill="#252525" />
<rect x="3.018333333333322" y="0.005" width="0.49722222222222034" height="0.49722222222222034" fill="#252525" />
<rect x="3.5205555555555423" y="0.005" width="0.49722222222222034" height="0.49722222222222034" fill="#252525" />
<rect x="4.022777777777763" y="0.005" width="0.49722222222222034" height="0.49722222222222034" fill="#252525" />
<rect x="0.005" y="0.5072222222222204" width="0.49722222222222034" height="0.49722222222222034" fill="#252525" />
<rect x="0.5072222222222204" y="0.5072222222222204" width="0.49722222222222034" height="0.49722222222222034" fill="#252525" />
<rect x="1.0094444444444406" y="0.5072222222222204" width="0.49722222222222034" height="0.49722222222222034" fill="#252525" />
<rect x="1.511666666666661" y="0.5072222222222204" width="0.49722222222222034" height="0.49722222222222034" fill="#252525" />
<rect x="2.0138888888888813" y="0.5072222222222204" width="0.49722222222222034" height="0.49722222222222034" fill="#252525" />
<rect x="2.5161111111111016" y="0.5072222222222204" width="0.49722222222222034" height="0.49722222222222034" fill="#252525" />
<rect x="3.018333333333322" y="0.5072222222222204" width="0.49722222222222034" height="0.49722222222222034" fill="#252525" />
<rect x="3.5205555555555423" y="0.5072222222222204" width="0.49722222222222034" height="0.49722222222222034" fill="#FF4136" />
<rect x="4.022777777777763" y="0.5072222222222204" width="0.49722222222222034" height="0.49722222222222034" fill="#252525" />
<rect x="0.005" y="1.0094444444444406" width="0.49722222222222034" height="0.49722222222222034" fill="#252525" />
<rect x="0.5072222222222204" y="1.0094444444444406" width="0.49722222222222034" height="0.49722222222222034" fill="#FF4136" />
<rect x="1.0094444444444406" y="1.0094444444444406" width="0.49722222222222034" height="0.49722222222222034" fill="#252525" />
<rect x="1.511666666666661" y="1.0094444444444406" width="0.49722222222222034" height="0.49722222222222034" fill="#252525" />
<rect x="2.0138888888888813" y="1.0094444444444406" width="0.49722222222222034" height="0.49722222222222034" fill="#252525" />
<rect x="2.5161111111111016" y="1.0094444444444406" width="0.49722222222222034" height="0.49722222222222034" fill="#252525" />
<rect x="3.018333333333322" y="1.0094444444444406" width="0.49722222222222034" height="0.49722222222222034" fill="#252525" />
<rect x="3.5205555555555423" y="1.0094444444444406" width="0.49722222222222034" height="0.49722222222222034" fill="#FF4136" />
<rect x="4.022777777777763" y="1.0094444444444406" width="0.49722222222222034" height="0.49722222222222034" fill="#252525" />
<rect x="0.005" y="1.511666666666661" width="0.49722222222222034" height="0.49722222222222034" fill="#252525" />
<rect x="0.5072222222222204" y="1.511666666666661" width="0.49722222222222034" height="0.49722222222222034" fill="#FF4136" />
<rect x="1.0094444444444406" y="1.511666666666661" width="0.49722222222222034" height="0.49722222222222034" fill="#252525" />
<rect x="1.511666666666661" y="1.511666666666661" width="0.49722222222222034" height="0.49722222222222034" fill="#252525" />
<rect x="2.0138888888888813" y="1.511666666666661" width="0.49722222222222034" height="0.49722222222222034" fill="#252525" />
<rect x="2.5161111111111016" y="1.511666666666661" width="0.49722222222222034" height="0.49722222222222034" fill="#252525" />
<rect x="3.018333333333322" y="1.511666666666661" width="0.49722222222222034" height="0.49722222222222034" fill="#252525" />
<rect x="3.5205555555555423" y="1.511666666666661" width="0.49722222222222034" height="0.49722222222222034" fill="#FF4136" />
<rect x="4.022777777777763" y="1.511666666666661" width="0.49722222222222034" height="0.49722222222222034" fill="#252525" />
<rect x="0.005" y="2.0138888888888813" width="0.49722222222222034" height="0.49722222222222034" fill="#252525" />
<rect x="0.5072222222222204" y="2.0138888888888813" width="0.49722222222222034" height="0.49722222222222034" fill="#FF4136" />
<rect x="1.0094444444444406" y="2.0138888888888813" width="0.49722222222222034" height="0.49722222222222034" fill="#252525" />
<rect x="1.511666666666661" y="2.0138888888888813" width="0.49722222222222034" height="0.49722222222222034" fill="#252525" />
<rect x="2.0138888888888813" y="2.0138888888888813" width="0.49722222222222034" height="0.49722222222222034" fill="#252525" />
<rect x="2.5161111111111016" y="2.0138888888888813" width="0.49722222222222034" height="0.49722222222222034" fill="#252525" />
<rect x="3.018333333333322" y="2.0138888888888813" width="0.49722222222222034" height="0.49722222222222034" fill="#252525" />
<rect x="3.5205555555555423" y="2.0138888888888813" width="0.49722222222222034" height="0.49722222222222034" fill="#FF4136" />
<rect x="4.022777777777763" y="2.0138888888888813" width="0.49722222222222034" height="0.49722222222222034" fill="#252525" />
<rect x="0.005" y="2.5161111111111016" width="0.49722222222222034" height="0.49722222222222034" fill="#252525" />
<rect x="0.5072222222222204" y="2.5161111111111016" width="0.49722222222222034" height="0.49722222222222034" fill="#FF4136" />
<rect x="1.0094444444444406" y="2.5161111111111016" width="0.49722222222222034" height="0.49722222222222034" fill="#252525" />
<rect x="1.511666666666661" y="2.5161111111111016" width="0.49722222222222034" height="0.49722222222222034" fill="#252525" />
<rect x="2.0138888888888813" y="2.5161111111111016" width="0.49722222222222034" height="0.49722222222222034" fill="#252525" />
<rect x="2.5161111111111016" y="2.5161111111111016" width="0.49722222222222034" height="0.49722222222222034" fill="#FF4136" />
<rect x="3.018333333333322" y="2.5161111111111016" width="0.49722222222222034" height="0.49722222222222034" fill="#252525" />
<rect x="3.5205555555555423" y="2.5161111111111016" width="0.49722222222222034" height="0.49722222222222034" fill="#FF4136" />
<rect x="4.022777777777763" y="2.5161111111111016" width="0.49722222222222034" height="0.49722222222222034" fill="#252525" />
<rect x="0.005" y="3.018333333333322" width="0.49722222222222034" height="0.49722222222222034" fill="#252525" />
<rect x="0.5072222222222204" y="3.018333333333322" width="0.49722222222222034" height="0.49722222222222034" fill="#FF4136" />
<rect x="1.0094444444444406" y="3.018333333333322" width="0.49722222222222034" height="0.49722222222222034" fill="#252525" />
<rect x="1.511666666666661" y="3.018333333333322" width="0.49722222222222034" height="0.49722222222222034" fill="#FF4136" />
<rect x="2.0138888888888813" y="3.018333333333322" width="0.49722222222222034" height="0.49722222222222034" fill="#252525" />
<rect x="2.5161111111111016" y="3.018333333333322" width="0.49722222222222034" height="0.49722222222222034" fill="#FF4136" />
<rect x="3.018333333333322" y="3.018333333333322" width="0.49722222222222034" height="0.49722222222222034" fill="#252525" />
<rect x="3.5205555555555423" y="3.018333333333322" width="0.49722222222222034" height="0.49722222222222034" fill="#FF4136" />
<rect x="4.022777777777763" y="3.018333333333322" width="0.49722222222222034" height="0.49722222222222034" fill="#252525" />
<rect x="0.005" y="3.5205555555555423" width="0.49722222222222034" height="0.49722222222222034" fill="#252525" />
<rect x="0.5072222222222204" y="3.5205555555555423" width="0.49722222222222034" height="0.49722222222222034" fill="#FF4136" />
<rect x="1.0094444444444406" y="3.5205555555555423" width="0.49722222222222034" height="0.49722222222222034" fill="#252525" />
<rect x="1.511666666666661" y="3.5205555555555423" width="0.49722222222222034" height="0.49722222222222034" fill="#FF4136" />
<rect x="2.0138888888888813" y="3.5205555555555423" width="0.49722222222222034" height="0.49722222222222034" fill="#252525" />
<rect x="2.5161111111111016" y="3.5205555555555423" width="0.49722222222222034" height="0.49722222222222034" fill="#FF4136" />
<rect x="3.018333333333322" y="3.5205555555555423" width="0.49722222222222034" height="0.49722222222222034" fill="#252525" />
<rect x="3.5205555555555423" y="3.5205555555555423" width="0.49722222222222034" height="0.49722222222222034" fill="#FF4136" />
<rect x="4.022777777777763" y="3.5205555555555423" width="0.49722222222222034" height="0.49722222222222034" fill="#252525" />
<rect x="0.005" y="4.022777777777763" width="0.49722222222222034" height="0.49722222222222034" fill="#252525" />
<rect x="0.5072222222222204" y="4.022777777777763" width="0.49722222222222034" height="0.49722222222222034" fill="#FF4136" />
<rect x="1.0094444444444406" y="4.022777777777763" width="0.49722222222222034" height="0.49722222222222034" fill="#252525" />
<rect x="1.511666666666661" y="4.022777777777763" width="0.49722222222222034" height="0.49722222222222034" fill="#FF4136" />
<rect x="2.0138888888888813" y="4.022777777777763" width="0.49722222222222034" height="0.49722222222222034" fill="#252525" />
<rect x="2.5161111111111016" y="4.022777777777763" width="0.49722222222222034" height="0.49722222222222034" fill="#FF4136" />
<rect x="3.018333333333322" y="4.022777777777763" width="0.49722222222222034" height="0.49722222222222034" fill="#252525" />
<rect x="3.5205555555555423" y="4.022777777777763" width="0.49722222222222034" height="0.49722222222222034" fill="#FF4136" />
<rect x="4.022777777777763" y="4.022777777777763" width="0.49722222222222034" height="0.49722222222222034" fill="#252525" />
<rect x="-0.02666666666666667" y="-0.02666666666666667" width="4.573333333333317" height="4.573333333333317" fill="none" stroke="#111111ff" stroke-width="0.08" />
<text x="4.519999999999984" y="4.988749999999984" font-size="0.375" fill="black" text-anchor="end" font-family="Anuphan">9x9</text>
<text x="-0.037500000000000006" y="4.988749999999984" font-size="0.375" fill="black" text-anchor="start" font-family="Anuphan" font-weight="600">Input 3</text>
</g>
<g id="d3">
<rect x="0.005" y="0.005" width="0.4872222222222214" height="0.4872222222222214" fill="#252525" />
<rect x="0.4972222222222214" y="0.005" width="0.4872222222222214" height="0.4872222222222214" fill="#252525" />
<rect x="0.9894444444444428" y="0.005" width="0.4872222222222214" height="0.4872222222222214" fill="#252525" />
<rect x="1.481666666666664" y="0.005" width="0.4872222222222214" height="0.4872222222222214" fill="#252525" />
<rect x="1.9738888888888855" y="0.005" width="0.4872222222222214" height="0.4872222222222214" fill="#252525" />
<rect x="2.4661111111111067" y="0.005" width="0.4872222222222214" height="0.4872222222222214" fill="#252525" />
<rect x="2.958333333333328" y="0.005" width="0.4872222222222214" height="0.4872222222222214" fill="#252525" />
<rect x="3.4505555555555496" y="0.005" width="0.4872222222222214" height="0.4872222222222214" fill="#252525" />
<rect x="3.942777777777771" y="0.005" width="0.4872222222222214" height="0.4872222222222214" fill="#252525" />
<rect x="0.005" y="0.4972222222222214" width="0.4872222222222214" height="0.4872222222222214" fill="#252525" />
<rect x="0.4972222222222214" y="0.4972222222222214" width="0.4872222222222214" height="0.4872222222222214" fill="#FF4136" />
<rect x="0.9894444444444428" y="0.4972222222222214" width="0.4872222222222214" height="0.4872222222222214" fill="#252525" />
<rect x="1.481666666666664" y="0.4972222222222214" width="0.4872222222222214" height="0.4872222222222214" fill="#252525" />
<rect x="1.9738888888888855" y="0.4972222222222214" width="0.4872222222222214" height="0.4872222222222214" fill="#252525" />
<rect x="2.4661111111111067" y="0.4972222222222214" width="0.4872222222222214" height="0.4872222222222214" fill="#252525" />
<rect x="2.958333333333328" y="0.4972222222222214" width="0.4872222222222214" height="0.4872222222222214" fill="#252525" />
<rect x="3.4505555555555496" y="0.4972222222222214" width="0.4872222222222214" height="0.4872222222222214" fill="#252525" />
<rect x="3.942777777777771" y="0.4972222222222214" width="0.4872222222222214" height="0.4872222222222214" fill="#252525" />
<rect x="0.005" y="0.9894444444444428" width="0.4872222222222214" height="0.4872222222222214" fill="#252525" />
<rect x="0.4972222222222214" y="0.9894444444444428" width="0.4872222222222214" height="0.4872222222222214" fill="#FF4136" />
<rect x="0.9894444444444428" y="0.9894444444444428" width="0.4872222222222214" height="0.4872222222222214" fill="#252525" />
<rect x="1.481666666666664" y="0.9894444444444428" width="0.4872222222222214" height="0.4872222222222214" fill="#FF4136" />
<rect x="1.9738888888888855" y="0.9894444444444428" width="0.4872222222222214" height="0.4872222222222214" fill="#252525" />
<rect x="2.4661111111111067" y="0.9894444444444428" width="0.4872222222222214" height="0.4872222222222214" fill="#252525" />
<rect x="2.958333333333328" y="0.9894444444444428" width="0.4872222222222214" height="0.4872222222222214" fill="#252525" />
<rect x="3.4505555555555496" y="0.9894444444444428" width="0.4872222222222214" height="0.4872222222222214" fill="#252525" />
<rect x="3.942777777777771" y="0.9894444444444428" width="0.4872222222222214" height="0.4872222222222214" fill="#252525" />
<rect x="0.005" y="1.481666666666664" width="0.4872222222222214" height="0.4872222222222214" fill="#252525" />
<rect x="0.4972222222222214" y="1.481666666666664" width="0.4872222222222214" height="0.4872222222222214" fill="#FF4136" />
<rect x="0.9894444444444428" y="1.481666666666664" width="0.4872222222222214" height="0.4872222222222214" fill="#252525" />
<rect x="1.481666666666664" y="1.481666666666664" width="0.4872222222222214" height="0.4872222222222214" fill="#FF4136" />
<rect x="1.9738888888888855" y="1.481666666666664" width="0.4872222222222214" height="0.4872222222222214" fill="#252525" />
<rect x="2.4661111111111067" y="1.481666666666664" width="0.4872222222222214" height="0.4872222222222214" fill="#252525" />
<rect x="2.958333333333328" y="1.481666666666664" width="0.4872222222222214" height="0.4872222222222214" fill="#252525" />
<rect x="3.4505555555555496" y="1.481666666666664" width="0.4872222222222214" height="0.4872222222222214" fill="#252525" />
<rect x="3.942777777777771" y="1.481666666666664" width="0.4872222222222214" height="0.4872222222222214" fill="#252525" />
<rect x="0.005" y="1.9738888888888855" width="0.4872222222222214" height="0.4872222222222214" fill="#252525" />
<rect x="0.4972222222222214" y="1.9738888888888855" width="0.4872222222222214" height="0.4872222222222214" fill="#FF4136" />
<rect x="0.9894444444444428" y="1.9738888888888855" width="0.4872222222222214" height="0.4872222222222214" fill="#252525" />
<rect x="1.481666666666664" y="1.9738888888888855" width="0.4872222222222214" height="0.4872222222222214" fill="#FF4136" />
<rect x="1.9738888888888855" y="1.9738888888888855" width="0.4872222222222214" height="0.4872222222222214" fill="#252525" />
<rect x="2.4661111111111067" y="1.9738888888888855" width="0.4872222222222214" height="0.4872222222222214" fill="#252525" />
<rect x="2.958333333333328" y="1.9738888888888855" width="0.4872222222222214" height="0.4872222222222214" fill="#252525" />
<rect x="3.4505555555555496" y="1.9738888888888855" width="0.4872222222222214" height="0.4872222222222214" fill="#252525" />
<rect x="3.942777777777771" y="1.9738888888888855" width="0.4872222222222214" height="0.4872222222222214" fill="#252525" />
<rect x="0.005" y="2.4661111111111067" width="0.4872222222222214" height="0.4872222222222214" fill="#252525" />
<rect x="0.4972222222222214" y="2.4661111111111067" width="0.4872222222222214" height="0.4872222222222214" fill="#FF4136" />
<rect x="0.9894444444444428" y="2.4661111111111067" width="0.4872222222222214" height="0.4872222222222214" fill="#252525" />
<rect x="1.481666666666664" y="2.4661111111111067" width="0.4872222222222214" height="0.4872222222222214" fill="#FF4136" />
<rect x="1.9738888888888855" y="2.4661111111111067" width="0.4872222222222214" height="0.4872222222222214" fill="#252525" />
<rect x="2.4661111111111067" y="2.4661111111111067" width="0.4872222222222214" height="0.4872222222222214" fill="#252525" />
<rect x="2.958333333333328" y="2.4661111111111067" width="0.4872222222222214" height="0.4872222222222214" fill="#252525" />
<rect x="3.4505555555555496" y="2.4661111111111067" width="0.4872222222222214" height="0.4872222222222214" fill="#252525" />
<rect x="3.942777777777771" y="2.4661111111111067" width="0.4872222222222214" height="0.4872222222222214" fill="#252525" />
<rect x="0.005" y="2.958333333333328" width="0.4872222222222214" height="0.4872222222222214" fill="#252525" />
<rect x="0.4972222222222214" y="2.958333333333328" width="0.4872222222222214" height="0.4872222222222214" fill="#FF4136" />
<rect x="0.9894444444444428" y="2.958333333333328" width="0.4872222222222214" height="0.4872222222222214" fill="#252525" />
<rect x="1.481666666666664" y="2.958333333333328" width="0.4872222222222214" height="0.4872222222222214" fill="#FF4136" />
<rect x="1.9738888888888855" y="2.958333333333328" width="0.4872222222222214" height="0.4872222222222214" fill="#252525" />
<rect x="2.4661111111111067" y="2.958333333333328" width="0.4872222222222214" height="0.4872222222222214" fill="#252525" />
<rect x="2.958333333333328" y="2.958333333333328" width="0.4872222222222214" height="0.4872222222222214" fill="#252525" />
<rect x="3.4505555555555496" y="2.958333333333328" width="0.4872222222222214" height="0.4872222222222214" fill="#FF4136" />
<rect x="3.942777777777771" y="2.958333333333328" width="0.4872222222222214" height="0.4872222222222214" fill="#252525" />
<rect x="0.005" y="3.4505555555555496" width="0.4872222222222214" height="0.4872222222222214" fill="#252525" />
<rect x="0.4972222222222214" y="3.4505555555555496" width="0.4872222222222214" height="0.4872222222222214" fill="#FF4136" />
<rect x="0.9894444444444428" y="3.4505555555555496" width="0.4872222222222214" height="0.4872222222222214" fill="#252525" />
<rect x="1.481666666666664" y="3.4505555555555496" width="0.4872222222222214" height="0.4872222222222214" fill="#FF4136" />
<rect x="1.9738888888888855" y="3.4505555555555496" width="0.4872222222222214" height="0.4872222222222214" fill="#252525" />
<rect x="2.4661111111111067" y="3.4505555555555496" width="0.4872222222222214" height="0.4872222222222214" fill="#252525" />
<rect x="2.958333333333328" y="3.4505555555555496" width="0.4872222222222214" height="0.4872222222222214" fill="#252525" />
<rect x="3.4505555555555496" y="3.4505555555555496" width="0.4872222222222214" height="0.4872222222222214" fill="#FF4136" />
<rect x="3.942777777777771" y="3.4505555555555496" width="0.4872222222222214" height="0.4872222222222214" fill="#252525" />
<rect x="0.005" y="3.942777777777771" width="0.4872222222222214" height="0.4872222222222214" fill="#252525" />
<rect x="0.4972222222222214" y="3.942777777777771" width="0.4872222222222214" height="0.4872222222222214" fill="#FF4136" />
<rect x="0.9894444444444428" y="3.942777777777771" width="0.4872222222222214" height="0.4872222222222214" fill="#252525" />
<rect x="1.481666666666664" y="3.942777777777771" width="0.4872222222222214" height="0.4872222222222214" fill="#FF4136" />
<rect x="1.9738888888888855" y="3.942777777777771" width="0.4872222222222214" height="0.4872222222222214" fill="#252525" />
<rect x="2.4661111111111067" y="3.942777777777771" width="0.4872222222222214" height="0.4872222222222214" fill="#252525" />
<rect x="2.958333333333328" y="3.942777777777771" width="0.4872222222222214" height="0.4872222222222214" fill="#252525" />
<rect x="3.4505555555555496" y="3.942777777777771" width="0.4872222222222214" height="0.4872222222222214" fill="#FF4136" />
<rect x="3.942777777777771" y="3.942777777777771" width="0.4872222222222214" height="0.4872222222222214" fill="#252525" />
<rect x="0.005" y="4.4349999999999925" width="0.4872222222222214" height="0.4872222222222214" fill="#252525" />
<rect x="0.4972222222222214" y="4.4349999999999925" width="0.4872222222222214" height="0.4872222222222214" fill="#FF4136" />
<rect x="0.9894444444444428" y="4.4349999999999925" width="0.4872222222222214" height="0.4872222222222214" fill="#252525" />
<rect x="1.481666666666664" y="4.4349999999999925" width="0.4872222222222214" height="0.4872222222222214" fill="#FF4136" />
<rect x="1.9738888888888855" y="4.4349999999999925" width="0.4872222222222214" height="0.4872222222222214" fill="#252525" />
<rect x="2.4661111111111067" y="4.4349999999999925" width="0.4872222222222214" height="0.4872222222222214" fill="#FF4136" />
<rect x="2.958333333333328" y="4.4349999999999925" width="0.4872222222222214" height="0.4872222222222214" fill="#252525" />
<rect x="3.4505555555555496" y="4.4349999999999925" width="0.4872222222222214" height="0.4872222222222214" fill="#FF4136" />
<rect x="3.942777777777771" y="4.4349999999999925" width="0.4872222222222214" height="0.4872222222222214" fill="#252525" />
<rect x="0.005" y="4.9272222222222135" width="0.4872222222222214" height="0.4872222222222214" fill="#252525" />
<rect x="0.4972222222222214" y="4.9272222222222135" width="0.4872222222222214" height="0.4872222222222214" fill="#FF4136" />
<rect x="0.9894444444444428" y="4.9272222222222135" width="0.4872222222222214" height="0.4872222222222214" fill="#252525" />
<rect x="1.481666666666664" y="4.9272222222222135" width="0.4872222222222214" height="0.4872222222222214" fill="#FF4136" />
<rect x="1.9738888888888855" y="4.9272222222222135" width="0.4872222222222214" height="0.4872222222222214" fill="#252525" />
<rect x="2.4661111111111067" y="4.9272222222222135" width="0.4872222222222214" height="0.4872222222222214" fill="#FF4136" />
<rect x="2.958333333333328" y="4.9272222222222135" width="0.4872222222222214" height="0.4872222222222214" fill="#252525" />
<rect x="3.4505555555555496" y="4.9272222222222135" width="0.4872222222222214" height="0.4872222222222214" fill="#FF4136" />
<rect x="3.942777777777771" y="4.9272222222222135" width="0.4872222222222214" height="0.4872222222222214" fill="#252525" />
<rect x="-0.02666666666666667" y="-0.02666666666666667" width="4.483333333333326" height="5.467777777777769" fill="none" stroke="#111111ff" stroke-width="0.08" />
<text x="4.429999999999993" y="5.8831944444444355" font-size="0.375" fill="black" text-anchor="end" font-family="Anuphan">9x11</text>
<text x="-0.037500000000000006" y="5.8831944444444355" font-size="0.375" fill="black" text-anchor="start" font-family="Anuphan" font-weight="600">Test 1</text>
</g>
<g id="d4">
<rect x="0.005" y="0.005" width="0.49722222222222034" height="0.49722222222222034" fill="#252525" />
<rect x="0.5072222222222204" y="0.005" width="0.49722222222222034" height="0.49722222222222034" fill="#252525" />
<rect x="1.0094444444444406" y="0.005" width="0.49722222222222034" height="0.49722222222222034" fill="#252525" />
<rect x="1.511666666666661" y="0.005" width="0.49722222222222034" height="0.49722222222222034" fill="#252525" />
<rect x="2.0138888888888813" y="0.005" width="0.49722222222222034" height="0.49722222222222034" fill="#252525" />
<rect x="2.5161111111111016" y="0.005" width="0.49722222222222034" height="0.49722222222222034" fill="#252525" />
<rect x="3.018333333333322" y="0.005" width="0.49722222222222034" height="0.49722222222222034" fill="#252525" />
<rect x="3.5205555555555423" y="0.005" width="0.49722222222222034" height="0.49722222222222034" fill="#252525" />
<rect x="4.022777777777763" y="0.005" width="0.49722222222222034" height="0.49722222222222034" fill="#252525" />
<rect x="0.005" y="0.5072222222222204" width="0.49722222222222034" height="0.49722222222222034" fill="#252525" />
<rect x="0.5072222222222204" y="0.5072222222222204" width="0.49722222222222034" height="0.49722222222222034" fill="#FF4136" />
<rect x="1.0094444444444406" y="0.5072222222222204" width="0.49722222222222034" height="0.49722222222222034" fill="#252525" />
<rect x="1.511666666666661" y="0.5072222222222204" width="0.49722222222222034" height="0.49722222222222034" fill="#252525" />
<rect x="2.0138888888888813" y="0.5072222222222204" width="0.49722222222222034" height="0.49722222222222034" fill="#252525" />
<rect x="2.5161111111111016" y="0.5072222222222204" width="0.49722222222222034" height="0.49722222222222034" fill="#252525" />
<rect x="3.018333333333322" y="0.5072222222222204" width="0.49722222222222034" height="0.49722222222222034" fill="#252525" />
<rect x="3.5205555555555423" y="0.5072222222222204" width="0.49722222222222034" height="0.49722222222222034" fill="#252525" />
<rect x="4.022777777777763" y="0.5072222222222204" width="0.49722222222222034" height="0.49722222222222034" fill="#252525" />
<rect x="0.005" y="1.0094444444444406" width="0.49722222222222034" height="0.49722222222222034" fill="#252525" />
<rect x="0.5072222222222204" y="1.0094444444444406" width="0.49722222222222034" height="0.49722222222222034" fill="#FF4136" />
<rect x="1.0094444444444406" y="1.0094444444444406" width="0.49722222222222034" height="0.49722222222222034" fill="#252525" />
<rect x="1.511666666666661" y="1.0094444444444406" width="0.49722222222222034" height="0.49722222222222034" fill="#FF4136" />
<rect x="2.0138888888888813" y="1.0094444444444406" width="0.49722222222222034" height="0.49722222222222034" fill="#252525" />
<rect x="2.5161111111111016" y="1.0094444444444406" width="0.49722222222222034" height="0.49722222222222034" fill="#252525" />
<rect x="3.018333333333322" y="1.0094444444444406" width="0.49722222222222034" height="0.49722222222222034" fill="#252525" />
<rect x="3.5205555555555423" y="1.0094444444444406" width="0.49722222222222034" height="0.49722222222222034" fill="#252525" />
<rect x="4.022777777777763" y="1.0094444444444406" width="0.49722222222222034" height="0.49722222222222034" fill="#252525" />
<rect x="0.005" y="1.511666666666661" width="0.49722222222222034" height="0.49722222222222034" fill="#252525" />
<rect x="0.5072222222222204" y="1.511666666666661" width="0.49722222222222034" height="0.49722222222222034" fill="#FF4136" />
<rect x="1.0094444444444406" y="1.511666666666661" width="0.49722222222222034" height="0.49722222222222034" fill="#252525" />
<rect x="1.511666666666661" y="1.511666666666661" width="0.49722222222222034" height="0.49722222222222034" fill="#FF4136" />
<rect x="2.0138888888888813" y="1.511666666666661" width="0.49722222222222034" height="0.49722222222222034" fill="#252525" />
<rect x="2.5161111111111016" y="1.511666666666661" width="0.49722222222222034" height="0.49722222222222034" fill="#FF4136" />
<rect x="3.018333333333322" y="1.511666666666661" width="0.49722222222222034" height="0.49722222222222034" fill="#252525" />
<rect x="3.5205555555555423" y="1.511666666666661" width="0.49722222222222034" height="0.49722222222222034" fill="#252525" />
<rect x="4.022777777777763" y="1.511666666666661" width="0.49722222222222034" height="0.49722222222222034" fill="#252525" />
<rect x="0.005" y="2.0138888888888813" width="0.49722222222222034" height="0.49722222222222034" fill="#252525" />
<rect x="0.5072222222222204" y="2.0138888888888813" width="0.49722222222222034" height="0.49722222222222034" fill="#54D2EB" />
<rect x="1.0094444444444406" y="2.0138888888888813" width="0.49722222222222034" height="0.49722222222222034" fill="#252525" />
<rect x="1.511666666666661" y="2.0138888888888813" width="0.49722222222222034" height="0.49722222222222034" fill="#FF4136" />
<rect x="2.0138888888888813" y="2.0138888888888813" width="0.49722222222222034" height="0.49722222222222034" fill="#252525" />
<rect x="2.5161111111111016" y="2.0138888888888813" width="0.49722222222222034" height="0.49722222222222034" fill="#FF4136" />
<rect x="3.018333333333322" y="2.0138888888888813" width="0.49722222222222034" height="0.49722222222222034" fill="#252525" />
<rect x="3.5205555555555423" y="2.0138888888888813" width="0.49722222222222034" height="0.49722222222222034" fill="#FF4136" />
<rect x="4.022777777777763" y="2.0138888888888813" width="0.49722222222222034" height="0.49722222222222034" fill="#252525" />
<rect x="0.005" y="2.5161111111111016" width="0.49722222222222034" height="0.49722222222222034" fill="#252525" />
<rect x="0.5072222222222204" y="2.5161111111111016" width="0.49722222222222034" height="0.49722222222222034" fill="#54D2EB" />
<rect x="1.0094444444444406" y="2.5161111111111016" width="0.49722222222222034" height="0.49722222222222034" fill="#252525" />
<rect x="1.511666666666661" y="2.5161111111111016" width="0.49722222222222034" height="0.49722222222222034" fill="#54D2EB" />
<rect x="2.0138888888888813" y="2.5161111111111016" width="0.49722222222222034" height="0.49722222222222034" fill="#252525" />
<rect x="2.5161111111111016" y="2.5161111111111016" width="0.49722222222222034" height="0.49722222222222034" fill="#54D2EB" />
<rect x="3.018333333333322" y="2.5161111111111016" width="0.49722222222222034" height="0.49722222222222034" fill="#252525" />
<rect x="3.5205555555555423" y="2.5161111111111016" width="0.49722222222222034" height="0.49722222222222034" fill="#FF4136" />
<rect x="4.022777777777763" y="2.5161111111111016" width="0.49722222222222034" height="0.49722222222222034" fill="#252525" />
<rect x="0.005" y="3.018333333333322" width="0.49722222222222034" height="0.49722222222222034" fill="#252525" />
<rect x="0.5072222222222204" y="3.018333333333322" width="0.49722222222222034" height="0.49722222222222034" fill="#54D2EB" />
<rect x="1.0094444444444406" y="3.018333333333322" width="0.49722222222222034" height="0.49722222222222034" fill="#252525" />
<rect x="1.511666666666661" y="3.018333333333322" width="0.49722222222222034" height="0.49722222222222034" fill="#54D2EB" />
<rect x="2.0138888888888813" y="3.018333333333322" width="0.49722222222222034" height="0.49722222222222034" fill="#252525" />
<rect x="2.5161111111111016" y="3.018333333333322" width="0.49722222222222034" height="0.49722222222222034" fill="#54D2EB" />
<rect x="3.018333333333322" y="3.018333333333322" width="0.49722222222222034" height="0.49722222222222034" fill="#252525" />
<rect x="3.5205555555555423" y="3.018333333333322" width="0.49722222222222034" height="0.49722222222222034" fill="#54D2EB" />
<rect x="4.022777777777763" y="3.018333333333322" width="0.49722222222222034" height="0.49722222222222034" fill="#252525" />
<rect x="-0.02666666666666667" y="-0.02666666666666667" width="4.573333333333317" height="3.5688888888888757" fill="none" stroke="#111111ff" stroke-width="0.08" />
<text x="4.519999999999984" y="3.9843055555555424" font-size="0.375" fill="black" text-anchor="end" font-family="Anuphan">9x7</text>
<text x="-0.037500000000000006" y="3.9843055555555424" font-size="0.375" fill="black" text-anchor="start" font-family="Anuphan" font-weight="600">Output 1</text>
</g>
<g id="d5">
<rect x="0.005" y="0.005" width="0.49722222222222034" height="0.49722222222222034" fill="#252525" />
<rect x="0.5072222222222204" y="0.005" width="0.49722222222222034" height="0.49722222222222034" fill="#252525" />
<rect x="1.0094444444444406" y="0.005" width="0.49722222222222034" height="0.49722222222222034" fill="#252525" />
<rect x="1.511666666666661" y="0.005" width="0.49722222222222034" height="0.49722222222222034" fill="#252525" />
<rect x="2.0138888888888813" y="0.005" width="0.49722222222222034" height="0.49722222222222034" fill="#252525" />
<rect x="2.5161111111111016" y="0.005" width="0.49722222222222034" height="0.49722222222222034" fill="#252525" />
<rect x="3.018333333333322" y="0.005" width="0.49722222222222034" height="0.49722222222222034" fill="#252525" />
<rect x="3.5205555555555423" y="0.005" width="0.49722222222222034" height="0.49722222222222034" fill="#252525" />
<rect x="4.022777777777763" y="0.005" width="0.49722222222222034" height="0.49722222222222034" fill="#252525" />
<rect x="0.005" y="0.5072222222222204" width="0.49722222222222034" height="0.49722222222222034" fill="#252525" />
<rect x="0.5072222222222204" y="0.5072222222222204" width="0.49722222222222034" height="0.49722222222222034" fill="#FF4136" />
<rect x="1.0094444444444406" y="0.5072222222222204" width="0.49722222222222034" height="0.49722222222222034" fill="#252525" />
<rect x="1.511666666666661" y="0.5072222222222204" width="0.49722222222222034" height="0.49722222222222034" fill="#252525" />
<rect x="2.0138888888888813" y="0.5072222222222204" width="0.49722222222222034" height="0.49722222222222034" fill="#252525" />
<rect x="2.5161111111111016" y="0.5072222222222204" width="0.49722222222222034" height="0.49722222222222034" fill="#252525" />
<rect x="3.018333333333322" y="0.5072222222222204" width="0.49722222222222034" height="0.49722222222222034" fill="#252525" />
<rect x="3.5205555555555423" y="0.5072222222222204" width="0.49722222222222034" height="0.49722222222222034" fill="#252525" />
<rect x="4.022777777777763" y="0.5072222222222204" width="0.49722222222222034" height="0.49722222222222034" fill="#252525" />
<rect x="0.005" y="1.0094444444444406" width="0.49722222222222034" height="0.49722222222222034" fill="#252525" />
<rect x="0.5072222222222204" y="1.0094444444444406" width="0.49722222222222034" height="0.49722222222222034" fill="#FF4136" />
<rect x="1.0094444444444406" y="1.0094444444444406" width="0.49722222222222034" height="0.49722222222222034" fill="#252525" />
<rect x="1.511666666666661" y="1.0094444444444406" width="0.49722222222222034" height="0.49722222222222034" fill="#252525" />
<rect x="2.0138888888888813" y="1.0094444444444406" width="0.49722222222222034" height="0.49722222222222034" fill="#252525" />
<rect x="2.5161111111111016" y="1.0094444444444406" width="0.49722222222222034" height="0.49722222222222034" fill="#252525" />
<rect x="3.018333333333322" y="1.0094444444444406" width="0.49722222222222034" height="0.49722222222222034" fill="#252525" />
<rect x="3.5205555555555423" y="1.0094444444444406" width="0.49722222222222034" height="0.49722222222222034" fill="#FF4136" />
<rect x="4.022777777777763" y="1.0094444444444406" width="0.49722222222222034" height="0.49722222222222034" fill="#252525" />
<rect x="0.005" y="1.511666666666661" width="0.49722222222222034" height="0.49722222222222034" fill="#252525" />
<rect x="0.5072222222222204" y="1.511666666666661" width="0.49722222222222034" height="0.49722222222222034" fill="#FF4136" />
<rect x="1.0094444444444406" y="1.511666666666661" width="0.49722222222222034" height="0.49722222222222034" fill="#252525" />
<rect x="1.511666666666661" y="1.511666666666661" width="0.49722222222222034" height="0.49722222222222034" fill="#FF4136" />
<rect x="2.0138888888888813" y="1.511666666666661" width="0.49722222222222034" height="0.49722222222222034" fill="#252525" />
<rect x="2.5161111111111016" y="1.511666666666661" width="0.49722222222222034" height="0.49722222222222034" fill="#252525" />
<rect x="3.018333333333322" y="1.511666666666661" width="0.49722222222222034" height="0.49722222222222034" fill="#252525" />
<rect x="3.5205555555555423" y="1.511666666666661" width="0.49722222222222034" height="0.49722222222222034" fill="#FF4136" />
<rect x="4.022777777777763" y="1.511666666666661" width="0.49722222222222034" height="0.49722222222222034" fill="#252525" />
<rect x="0.005" y="2.0138888888888813" width="0.49722222222222034" height="0.49722222222222034" fill="#252525" />
<rect x="0.5072222222222204" y="2.0138888888888813" width="0.49722222222222034" height="0.49722222222222034" fill="#FF4136" />
<rect x="1.0094444444444406" y="2.0138888888888813" width="0.49722222222222034" height="0.49722222222222034" fill="#252525" />
<rect x="1.511666666666661" y="2.0138888888888813" width="0.49722222222222034" height="0.49722222222222034" fill="#FF4136" />
<rect x="2.0138888888888813" y="2.0138888888888813" width="0.49722222222222034" height="0.49722222222222034" fill="#252525" />
<rect x="2.5161111111111016" y="2.0138888888888813" width="0.49722222222222034" height="0.49722222222222034" fill="#252525" />
<rect x="3.018333333333322" y="2.0138888888888813" width="0.49722222222222034" height="0.49722222222222034" fill="#252525" />
<rect x="3.5205555555555423" y="2.0138888888888813" width="0.49722222222222034" height="0.49722222222222034" fill="#FF4136" />
<rect x="4.022777777777763" y="2.0138888888888813" width="0.49722222222222034" height="0.49722222222222034" fill="#252525" />
<rect x="0.005" y="2.5161111111111016" width="0.49722222222222034" height="0.49722222222222034" fill="#252525" />
<rect x="0.5072222222222204" y="2.5161111111111016" width="0.49722222222222034" height="0.49722222222222034" fill="#54D2EB" />
<rect x="1.0094444444444406" y="2.5161111111111016" width="0.49722222222222034" height="0.49722222222222034" fill="#252525" />
<rect x="1.511666666666661" y="2.5161111111111016" width="0.49722222222222034" height="0.49722222222222034" fill="#FF4136" />
<rect x="2.0138888888888813" y="2.5161111111111016" width="0.49722222222222034" height="0.49722222222222034" fill="#252525" />
<rect x="2.5161111111111016" y="2.5161111111111016" width="0.49722222222222034" height="0.49722222222222034" fill="#FF4136" />
<rect x="3.018333333333322" y="2.5161111111111016" width="0.49722222222222034" height="0.49722222222222034" fill="#252525" />
<rect x="3.5205555555555423" y="2.5161111111111016" width="0.49722222222222034" height="0.49722222222222034" fill="#54D2EB" />
<rect x="4.022777777777763" y="2.5161111111111016" width="0.49722222222222034" height="0.49722222222222034" fill="#252525" />
<rect x="0.005" y="3.018333333333322" width="0.49722222222222034" height="0.49722222222222034" fill="#252525" />
<rect x="0.5072222222222204" y="3.018333333333322" width="0.49722222222222034" height="0.49722222222222034" fill="#54D2EB" />
<rect x="1.0094444444444406" y="3.018333333333322" width="0.49722222222222034" height="0.49722222222222034" fill="#252525" />
<rect x="1.511666666666661" y="3.018333333333322" width="0.49722222222222034" height="0.49722222222222034" fill="#54D2EB" />
<rect x="2.0138888888888813" y="3.018333333333322" width="0.49722222222222034" height="0.49722222222222034" fill="#252525" />
<rect x="2.5161111111111016" y="3.018333333333322" width="0.49722222222222034" height="0.49722222222222034" fill="#FF4136" />
<rect x="3.018333333333322" y="3.018333333333322" width="0.49722222222222034" height="0.49722222222222034" fill="#252525" />
<rect x="3.5205555555555423" y="3.018333333333322" width="0.49722222222222034" height="0.49722222222222034" fill="#54D2EB" />
<rect x="4.022777777777763" y="3.018333333333322" width="0.49722222222222034" height="0.49722222222222034" fill="#252525" />
<rect x="0.005" y="3.5205555555555423" width="0.49722222222222034" height="0.49722222222222034" fill="#252525" />
<rect x="0.5072222222222204" y="3.5205555555555423" width="0.49722222222222034" height="0.49722222222222034" fill="#54D2EB" />
<rect x="1.0094444444444406" y="3.5205555555555423" width="0.49722222222222034" height="0.49722222222222034" fill="#252525" />
<rect x="1.511666666666661" y="3.5205555555555423" width="0.49722222222222034" height="0.49722222222222034" fill="#54D2EB" />
<rect x="2.0138888888888813" y="3.5205555555555423" width="0.49722222222222034" height="0.49722222222222034" fill="#252525" />
<rect x="2.5161111111111016" y="3.5205555555555423" width="0.49722222222222034" height="0.49722222222222034" fill="#54D2EB" />
<rect x="3.018333333333322" y="3.5205555555555423" width="0.49722222222222034" height="0.49722222222222034" fill="#252525" />
<rect x="3.5205555555555423" y="3.5205555555555423" width="0.49722222222222034" height="0.49722222222222034" fill="#54D2EB" />
<rect x="4.022777777777763" y="3.5205555555555423" width="0.49722222222222034" height="0.49722222222222034" fill="#252525" />
<rect x="-0.02666666666666667" y="-0.02666666666666667" width="4.573333333333317" height="4.0711111111110965" fill="none" stroke="#111111ff" stroke-width="0.08" />
<text x="4.519999999999984" y="4.486527777777763" font-size="0.375" fill="black" text-anchor="end" font-family="Anuphan">9x8</text>
<text x="-0.037500000000000006" y="4.486527777777763" font-size="0.375" fill="black" text-anchor="start" font-family="Anuphan" font-weight="600">Output 2</text>
</g>
<g id="d6">
<rect x="0.005" y="0.005" width="0.49722222222222034" height="0.49722222222222034" fill="#252525" />
<rect x="0.5072222222222204" y="0.005" width="0.49722222222222034" height="0.49722222222222034" fill="#252525" />
<rect x="1.0094444444444406" y="0.005" width="0.49722222222222034" height="0.49722222222222034" fill="#252525" />
<rect x="1.511666666666661" y="0.005" width="0.49722222222222034" height="0.49722222222222034" fill="#252525" />
<rect x="2.0138888888888813" y="0.005" width="0.49722222222222034" height="0.49722222222222034" fill="#252525" />
<rect x="2.5161111111111016" y="0.005" width="0.49722222222222034" height="0.49722222222222034" fill="#252525" />
<rect x="3.018333333333322" y="0.005" width="0.49722222222222034" height="0.49722222222222034" fill="#252525" />
<rect x="3.5205555555555423" y="0.005" width="0.49722222222222034" height="0.49722222222222034" fill="#252525" />
<rect x="4.022777777777763" y="0.005" width="0.49722222222222034" height="0.49722222222222034" fill="#252525" />
<rect x="0.005" y="0.5072222222222204" width="0.49722222222222034" height="0.49722222222222034" fill="#252525" />
<rect x="0.5072222222222204" y="0.5072222222222204" width="0.49722222222222034" height="0.49722222222222034" fill="#252525" />
<rect x="1.0094444444444406" y="0.5072222222222204" width="0.49722222222222034" height="0.49722222222222034" fill="#252525" />
<rect x="1.511666666666661" y="0.5072222222222204" width="0.49722222222222034" height="0.49722222222222034" fill="#252525" />
<rect x="2.0138888888888813" y="0.5072222222222204" width="0.49722222222222034" height="0.49722222222222034" fill="#252525" />
<rect x="2.5161111111111016" y="0.5072222222222204" width="0.49722222222222034" height="0.49722222222222034" fill="#252525" />
<rect x="3.018333333333322" y="0.5072222222222204" width="0.49722222222222034" height="0.49722222222222034" fill="#252525" />
<rect x="3.5205555555555423" y="0.5072222222222204" width="0.49722222222222034" height="0.49722222222222034" fill="#FF4136" />
<rect x="4.022777777777763" y="0.5072222222222204" width="0.49722222222222034" height="0.49722222222222034" fill="#252525" />
<rect x="0.005" y="1.0094444444444406" width="0.49722222222222034" height="0.49722222222222034" fill="#252525" />
<rect x="0.5072222222222204" y="1.0094444444444406" width="0.49722222222222034" height="0.49722222222222034" fill="#FF4136" />
<rect x="1.0094444444444406" y="1.0094444444444406" width="0.49722222222222034" height="0.49722222222222034" fill="#252525" />
<rect x="1.511666666666661" y="1.0094444444444406" width="0.49722222222222034" height="0.49722222222222034" fill="#252525" />
<rect x="2.0138888888888813" y="1.0094444444444406" width="0.49722222222222034" height="0.49722222222222034" fill="#252525" />
<rect x="2.5161111111111016" y="1.0094444444444406" width="0.49722222222222034" height="0.49722222222222034" fill="#252525" />
<rect x="3.018333333333322" y="1.0094444444444406" width="0.49722222222222034" height="0.49722222222222034" fill="#252525" />
<rect x="3.5205555555555423" y="1.0094444444444406" width="0.49722222222222034" height="0.49722222222222034" fill="#FF4136" />
<rect x="4.022777777777763" y="1.0094444444444406" width="0.49722222222222034" height="0.49722222222222034" fill="#252525" />
<rect x="0.005" y="1.511666666666661" width="0.49722222222222034" height="0.49722222222222034" fill="#252525" />
<rect x="0.5072222222222204" y="1.511666666666661" width="0.49722222222222034" height="0.49722222222222034" fill="#FF4136" />
<rect x="1.0094444444444406" y="1.511666666666661" width="0.49722222222222034" height="0.49722222222222034" fill="#252525" />
<rect x="1.511666666666661" y="1.511666666666661" width="0.49722222222222034" height="0.49722222222222034" fill="#252525" />
<rect x="2.0138888888888813" y="1.511666666666661" width="0.49722222222222034" height="0.49722222222222034" fill="#252525" />
<rect x="2.5161111111111016" y="1.511666666666661" width="0.49722222222222034" height="0.49722222222222034" fill="#252525" />
<rect x="3.018333333333322" y="1.511666666666661" width="0.49722222222222034" height="0.49722222222222034" fill="#252525" />
<rect x="3.5205555555555423" y="1.511666666666661" width="0.49722222222222034" height="0.49722222222222034" fill="#FF4136" />
<rect x="4.022777777777763" y="1.511666666666661" width="0.49722222222222034" height="0.49722222222222034" fill="#252525" />
<rect x="0.005" y="2.0138888888888813" width="0.49722222222222034" height="0.49722222222222034" fill="#252525" />
<rect x="0.5072222222222204" y="2.0138888888888813" width="0.49722222222222034" height="0.49722222222222034" fill="#FF4136" />
<rect x="1.0094444444444406" y="2.0138888888888813" width="0.49722222222222034" height="0.49722222222222034" fill="#252525" />
<rect x="1.511666666666661" y="2.0138888888888813" width="0.49722222222222034" height="0.49722222222222034" fill="#252525" />
<rect x="2.0138888888888813" y="2.0138888888888813" width="0.49722222222222034" height="0.49722222222222034" fill="#252525" />
<rect x="2.5161111111111016" y="2.0138888888888813" width="0.49722222222222034" height="0.49722222222222034" fill="#252525" />
<rect x="3.018333333333322" y="2.0138888888888813" width="0.49722222222222034" height="0.49722222222222034" fill="#252525" />
<rect x="3.5205555555555423" y="2.0138888888888813" width="0.49722222222222034" height="0.49722222222222034" fill="#FF4136" />
<rect x="4.022777777777763" y="2.0138888888888813" width="0.49722222222222034" height="0.49722222222222034" fill="#252525" />
<rect x="0.005" y="2.5161111111111016" width="0.49722222222222034" height="0.49722222222222034" fill="#252525" />
<rect x="0.5072222222222204" y="2.5161111111111016" width="0.49722222222222034" height="0.49722222222222034" fill="#FF4136" />
<rect x="1.0094444444444406" y="2.5161111111111016" width="0.49722222222222034" height="0.49722222222222034" fill="#252525" />
<rect x="1.511666666666661" y="2.5161111111111016" width="0.49722222222222034" height="0.49722222222222034" fill="#252525" />
<rect x="2.0138888888888813" y="2.5161111111111016" width="0.49722222222222034" height="0.49722222222222034" fill="#252525" />
<rect x="2.5161111111111016" y="2.5161111111111016" width="0.49722222222222034" height="0.49722222222222034" fill="#FF4136" />
<rect x="3.018333333333322" y="2.5161111111111016" width="0.49722222222222034" height="0.49722222222222034" fill="#252525" />
<rect x="3.5205555555555423" y="2.5161111111111016" width="0.49722222222222034" height="0.49722222222222034" fill="#54D2EB" />
<rect x="4.022777777777763" y="2.5161111111111016" width="0.49722222222222034" height="0.49722222222222034" fill="#252525" />
<rect x="0.005" y="3.018333333333322" width="0.49722222222222034" height="0.49722222222222034" fill="#252525" />
<rect x="0.5072222222222204" y="3.018333333333322" width="0.49722222222222034" height="0.49722222222222034" fill="#54D2EB" />
<rect x="1.0094444444444406" y="3.018333333333322" width="0.49722222222222034" height="0.49722222222222034" fill="#252525" />
<rect x="1.511666666666661" y="3.018333333333322" width="0.49722222222222034" height="0.49722222222222034" fill="#FF4136" />
<rect x="2.0138888888888813" y="3.018333333333322" width="0.49722222222222034" height="0.49722222222222034" fill="#252525" />
<rect x="2.5161111111111016" y="3.018333333333322" width="0.49722222222222034" height="0.49722222222222034" fill="#FF4136" />
<rect x="3.018333333333322" y="3.018333333333322" width="0.49722222222222034" height="0.49722222222222034" fill="#252525" />
<rect x="3.5205555555555423" y="3.018333333333322" width="0.49722222222222034" height="0.49722222222222034" fill="#54D2EB" />
<rect x="4.022777777777763" y="3.018333333333322" width="0.49722222222222034" height="0.49722222222222034" fill="#252525" />
<rect x="0.005" y="3.5205555555555423" width="0.49722222222222034" height="0.49722222222222034" fill="#252525" />
<rect x="0.5072222222222204" y="3.5205555555555423" width="0.49722222222222034" height="0.49722222222222034" fill="#54D2EB" />
<rect x="1.0094444444444406" y="3.5205555555555423" width="0.49722222222222034" height="0.49722222222222034" fill="#252525" />
<rect x="1.511666666666661" y="3.5205555555555423" width="0.49722222222222034" height="0.49722222222222034" fill="#FF4136" />
<rect x="2.0138888888888813" y="3.5205555555555423" width="0.49722222222222034" height="0.49722222222222034" fill="#252525" />
<rect x="2.5161111111111016" y="3.5205555555555423" width="0.49722222222222034" height="0.49722222222222034" fill="#54D2EB" />
<rect x="3.018333333333322" y="3.5205555555555423" width="0.49722222222222034" height="0.49722222222222034" fill="#252525" />
<rect x="3.5205555555555423" y="3.5205555555555423" width="0.49722222222222034" height="0.49722222222222034" fill="#54D2EB" />
<rect x="4.022777777777763" y="3.5205555555555423" width="0.49722222222222034" height="0.49722222222222034" fill="#252525" />
<rect x="0.005" y="4.022777777777763" width="0.49722222222222034" height="0.49722222222222034" fill="#252525" />
<rect x="0.5072222222222204" y="4.022777777777763" width="0.49722222222222034" height="0.49722222222222034" fill="#54D2EB" />
<rect x="1.0094444444444406" y="4.022777777777763" width="0.49722222222222034" height="0.49722222222222034" fill="#252525" />
<rect x="1.511666666666661" y="4.022777777777763" width="0.49722222222222034" height="0.49722222222222034" fill="#54D2EB" />
<rect x="2.0138888888888813" y="4.022777777777763" width="0.49722222222222034" height="0.49722222222222034" fill="#252525" />
<rect x="2.5161111111111016" y="4.022777777777763" width="0.49722222222222034" height="0.49722222222222034" fill="#54D2EB" />
<rect x="3.018333333333322" y="4.022777777777763" width="0.49722222222222034" height="0.49722222222222034" fill="#252525" />
<rect x="3.5205555555555423" y="4.022777777777763" width="0.49722222222222034" height="0.49722222222222034" fill="#54D2EB" />
<rect x="4.022777777777763" y="4.022777777777763" width="0.49722222222222034" height="0.49722222222222034" fill="#252525" />
<rect x="-0.02666666666666667" y="-0.02666666666666667" width="4.573333333333317" height="4.573333333333317" fill="none" stroke="#111111ff" stroke-width="0.08" />
<text x="4.519999999999984" y="4.988749999999984" font-size="0.375" fill="black" text-anchor="end" font-family="Anuphan">9x9</text>
<text x="-0.037500000000000006" y="4.988749999999984" font-size="0.375" fill="black" text-anchor="start" font-family="Anuphan" font-weight="600">Output 3</text>
</g>
</defs>
<rect x="0" y="0" width="100%" height="100%" fill="#eeeff6" />
<use xlink:href="#d0" x="0.24999999999999956" y="0.25" />
<use xlink:href="#d1" x="5.269999999999984" y="0.25" />
<use xlink:href="#d2" x="10.289999999999967" y="0.25" />
<use xlink:href="#d3" x="15.30999999999995" y="0.25" />
<path d="M2.509999999999992,6.314444444444436 L2.509999999999992,6.714444444444436" stroke-width="0.05" stroke="#888888" />
<path d="M2.359999999999992,6.514444444444436 L2.509999999999992,6.714444444444436" stroke-width="0.05" stroke="#888888" />
<path d="M2.6599999999999917,6.514444444444436 L2.509999999999992,6.714444444444436" stroke-width="0.05" stroke="#888888" />
<use xlink:href="#d4" x="0.24999999999999956" y="7.064444444444436" />
<path d="M7.529999999999975,6.314444444444436 L7.529999999999975,6.714444444444436" stroke-width="0.05" stroke="#888888" />
<path d="M7.379999999999975,6.514444444444436 L7.529999999999975,6.714444444444436" stroke-width="0.05" stroke="#888888" />
<path d="M7.679999999999976,6.514444444444436 L7.529999999999975,6.714444444444436" stroke-width="0.05" stroke="#888888" />
<use xlink:href="#d5" x="5.269999999999984" y="7.064444444444436" />
<path d="M12.549999999999958,6.314444444444436 L12.549999999999958,6.714444444444436" stroke-width="0.05" stroke="#888888" />
<path d="M12.399999999999958,6.514444444444436 L12.549999999999958,6.714444444444436" stroke-width="0.05" stroke="#888888" />
<path d="M12.699999999999958,6.514444444444436 L12.549999999999958,6.714444444444436" stroke-width="0.05" stroke="#888888" />
<use xlink:href="#d6" x="10.289999999999967" y="7.064444444444436" />
<path d="M17.52499999999995,6.314444444444436 L17.52499999999995,6.714444444444436" stroke-width="0.05" stroke="#888888" />
<path d="M17.37499999999995,6.514444444444436 L17.52499999999995,6.714444444444436" stroke-width="0.05" stroke="#888888" />
<path d="M17.674999999999947,6.514444444444436 L17.52499999999995,6.714444444444436" stroke-width="0.05" stroke="#888888" />
<text x="17.52499999999995" y="9.871666666666654" font-size="1" font-family="Anuphan" font-weight="700" fill="#333333" text-anchor="middle" alignment-baseline="middle">?</text>
<text x="19.9" y="13.299999999999999" font-size="0.3" font-family="Anuphan" font-weight="600" fill="#666666" text-anchor="end" alignment-baseline="bottom">Task ce9e57f2</text>
</svg>