<?xml version="1.0" encoding="UTF-8"?>
<svg xmlns="http://www.w3.org/2000/svg" xmlns:xlink="http://www.w3.org/1999/xlink"
     width="800.0" height="524.0" viewBox="0 0 20.0 13.1">
<defs>
<g id="d0">
<rect x="0.005" y="0.005" width="0.43224999999997954" height="0.43224999999997954" fill="#252525" />
<rect x="0.44224999999997955" y="0.005" width="0.43224999999997954" height="0.43224999999997954" fill="#252525" />
<rect x="0.8794999999999591" y="0.005" width="0.43224999999997954" height="0.43224999999997954" fill="#252525" />
<rect x="1.3167499999999386" y="0.005" width="0.43224999999997954" height="0.43224999999997954" fill="#252525" />
<rect x="1.753999999999918" y="0.005" width="0.43224999999997954" height="0.43224999999997954" fill="#252525" />
<rect x="2.1912499999998976" y="0.005" width="0.43224999999997954" height="0.43224999999997954" fill="#252525" />
<rect x="2.6284999999998773" y="0.005" width="0.43224999999997954" height="0.43224999999997954" fill="#252525" />
<rect x="3.0657499999998565" y="0.005" width="0.43224999999997954" height="0.43224999999997954" fill="#252525" />
<rect x="0.005" y="0.44224999999997955" width="0.43224999999997954" height="0.43224999999997954" fill="#37D449" />
<rect x="0.44224999999997955" y="0.44224999999997955" width="0.43224999999997954" height="0.43224999999997954" fill="#37D449" />
<rect x="0.8794999999999591" y="0.44224999999997955" width="0.43224999999997954" height="0.43224999999997954" fill="#FF4136" />
<rect x="1.3167499999999386" y="0.44224999999997955" width="0.43224999999997954" height="0.43224999999997954" fill="#37D449" />
<rect x="1.753999999999918" y="0.44224999999997955" width="0.43224999999997954" height="0.43224999999997954" fill="#37D449" />
<rect x="2.1912499999998976" y="0.44224999999997955" width="0.43224999999997954" height="0.43224999999997954" fill="#FF4136" />
<rect x="2.6284999999998773" y="0.44224999999997955" width="0.43224999999997954" height="0.43224999999997954" fill="#37D449" />
<rect x="3.0657499999998565" y="0.44224999999997955" width="0.43224999999997954" height="0.43224999999997954" fill="#37D449" />
<rect x="0.005" y="0.8794999999999591" width="0.43224999999997954" height="0.43224999999997954" fill="#252525" />
<rect x="0.44224999999997955" y="0.8794999999999591" width="0.43224999999997954" height="0.43224999999997954" fill="#252525" />
<rect x="0.8794999999999591" y="0.8794999999999591" width="0.43224999999997954" height="0.43224999999997954" fill="#252525" />
<rect x="1.3167499999999386" y="0.8794999999999591" width="0.43224999999997954" height="0.43224999999997954" fill="#252525" />
<rect x="1.753999999999918" y="0.8794999999999591" width="0.43224999999997954" height="0.43224999999997954" fill="#252525" />
<rect x="2.1912499999998976" y="0.8794999999999591" width="0.43224999999997954" height="0.43224999999997954" fill="#252525" />
<rect x="2.6284999999998773" y="0.8794999999999591" width="0.43224999999997954" height="0.43224999999997954" fill="#252525" />
<rect x="3.0657499999998565" y="0.8794999999999591" width="0.43224999999997954" height="0.43224999999997954" fill="#252525" />
<rect x="0.005" y="1.3167499999999386" width="0.43224999999997954" height="0.43224999999997954" fill="#252525" />
<rect x="0.44224999999997955" y="1.3167499999999386" width="0.43224999999997954" height="0.43224999999997954" fill="#252525" />
<rect x="0.8794999999999591" y="1.3167499999999386" width="0.43224999999997954" height="0.43224999999997954" fill="#252525" />
<rect x="1.3167499999999386" y="1.3167499999999386" width="0.43224999999997954" height="0.43224999999997954" fill="#252525" />
<rect x="1.753999999999918" y="1.3167499999999386" width="0.43224999999997954" height="0.43224999999997954" fill="#252525" />
<rect x="2.1912499999998976" y="1.3167499999999386" width="0.43224999999997954" height="0.43224999999997954" fill="#252525" />
<rect x="2.6284999999998773" y="1.3167499999999386" width="0.43224999999997954" height="0.43224999999997954" fill="#252525" />
<rect x="3.0657499999998565" y="1.3167499999999386" width="0.43224999999997954" height="0.43224999999997954" fill="#252525" />
<rect x="0.005" y="1.753999999999918" width="0.43224999999997954" height="0.43224999999997954" fill="#54D2EB" />
<rect x="0.44224999999997955" y="1.753999999999918" width="0.43224999999997954" height="0.43224999999997954" fill="#54D2EB" />
<rect x="0.8794999999999591" y="1.753999999999918" width="0.43224999999997954" height="0.43224999999997954" fill="#FFDC00" />
<rect x="1.3167499999999386" y="1.753999999999918" width="0.43224999999997954" height="0.43224999999997954" fill="#252525" />
<rect x="1.753999999999918" y="1.753999999999918" width="0.43224999999997954" height="0.43224999999997954" fill="#252525" />
<rect x="2.1912499999998976" y="1.753999999999918" width="0.43224999999997954" height="0.43224999999997954" fill="#252525" />
<rect x="2.6284999999998773" y="1.753999999999918" width="0.43224999999997954" height="0.43224999999997954" fill="#252525" />
<rect x="3.0657499999998565" y="1.753999999999918" width="0.43224999999997954" height="0.43224999999997954" fill="#252525" />
<rect x="0.005" y="2.1912499999998976" width="0.43224999999997954" height="0.43224999999997954" fill="#252525" />
<rect x="0.44224999999997955" y="2.1912499999998976" width="0.43224999999997954" height="0.43224999999997954" fill="#252525" />
<rect x="0.8794999999999591" y="2.1912499999998976" width="0.43224999999997954" height="0.43224999999997954" fill="#252525" />
<rect x="1.3167499999999386" y="2.1912499999998976" width="0.43224999999997954" height="0.43224999999997954" fill="#252525" />
<rect x="1.753999999999918" y="2.1912499999998976" width="0.43224999999997954" height="0.43224999999997954" fill="#252525" />
<rect x="2.1912499999998976" y="2.1912499999998976" width="0.43224999999997954" height="0.43224999999997954" fill="#252525" />
<rect x="2.6284999999998773" y="2.1912499999998976" width="0.43224999999997954" height="0.43224999999997954" fill="#252525" />
<rect x="3.0657499999998565" y="2.1912499999998976" width="0.43224999999997954" height="0.43224999999997954" fill="#252525" />
<rect x="0.005" y="2.6284999999998773" width="0.43224999999997954" height="0.43224999999997954" fill="#0074D9" />
<rect x="0.44224999999997955" y="2.6284999999998773" width="0.43224999999997954" height="0.43224999999997954" fill="#0074D9" />
<rect x="0.8794999999999591" y="2.6284999999998773" width="0.43224999999997954" height="0.43224999999997954" fill="#F012BE" />
<rect x="1.3167499999999386" y="2.6284999999998773" width="0.43224999999997954" height="0.43224999999997954" fill="#252525" />
<rect x="1.753999999999918" y="2.6284999999998773" width="0.43224999999997954" height="0.43224999999997954" fill="#252525" />
<rect x="2.1912499999998976" y="2.6284999999998773" width="0.43224999999997954" height="0.43224999999997954" fill="#252525" />
<rect x="2.6284999999998773" y="2.6284999999998773" width="0.43224999999997954" height="0.43224999999997954" fill="#252525" />
<rect x="3.0657499999998565" y="2.6284999999998773" width="0.43224999999997954" height="0.43224999999997954" fill="#252525" />
<rect x="0.005" y="3.0657499999998565" width="0.43224999999997954" height="0.43224999999997954" fill="#252525" />
<rect x="0.44224999999997955" y="3.0657499999998565" width="0.43224999999997954" height="0.43224999999997954" fill="#252525" />
<rect x="0.8794999999999591" y="3.0657499999998565" width="0.43224999999997954" height="0.43224999999997954" fill="#252525" />
<rect x="1.3167499999999386" y="3.0657499999998565" width="0.43224999999997954" height="0.43224999999997954" fill="#252525" />
<rect x="1.753999999999918" y="3.0657499999998565" width="0.43224999999997954" height="0.43224999999997954" fill="#252525" />
<rect x="2.1912499999998976" y="3.0657499999998565" width="0.43224999999997954" height="0.43224999999997954" fill="#252525" />
<rect x="2.6284999999998773" y="3.0657499999998565" width="0.43224999999997954" height="0.43224999999997954" fill="#252525" />
<rect x="3.0657499999998565" y="3.0657499999998565" width="0.43224999999997954" height="0.43224999999997954" fill="#252525" />
<rect x="0.005" y="3.5029999999998362" width="0.43224999999997954" height="0.43224999999997954" fill="#252525" />
<rect x="0.44224999999997955" y="3.5029999999998362" width="0.43224999999997954" height="0.43224999999997954" fill="#252525" />
<rect x="0.8794999999999591" y="3.5029999999998362" width="0.43224999999997954" height="0.43224999999997954" fill="#252525" />
<rect x="1.3167499999999386" y="3.5029999999998362" width="0.43224999999997954" height="0.43224999999997954" fill="#252525" />
<rect x="1.753999999999918" y="3.5029999999998362" width="0.43224999999997954" height="0.43224999999997954" fill="#252525" />
<rect x="2.1912499999998976" y="3.5029999999998362" width="0.43224999999997954" height="0.43224999999997954" fill="#252525" />
<rect x="2.6284999999998773" y="3.5029999999998362" width="0.43224999999997954" height="0.43224999999997954" fill="#252525" />
<rect x="3.0657499999998565" y="3.5029999999998362" width="0.43224999999997954" height="0.43224999999997954" fill="#252525" />
<rect x="0.005" y="3.940249999999816" width="0.43224999999997954" height="0.43224999999997954" fill="#252525" />
<rect x="0.44224999999997955" y="3.940249999999816" width="0.43224999999997954" height="0.43224999999997954" fill="#252525" />
<rect x="0.8794999999999591" y="3.940249999999816" width="0.43224999999997954" height="0.43224999999997954" fill="#252525" />
<rect x="1.3167499999999386" y="3.940249999999816" width="0.43224999999997954" height="0.43224999999997954" fill="#252525" />
<rect x="1.753999999999918" y="3.940249999999816" width="0.43224999999997954" height="0.43224999999997954" fill="#252525" />
<rect x="2.1912499999998976" y="3.940249999999816" width="0.43224999999997954" height="0.43224999999997954" fill="#252525" />
<rect x="2.6284999999998773" y="3.940249999999816" width="0.43224999999997954" height="0.43224999999997954" fill="#252525" />
<rect x="3.0657499999998565" y="3.940249999999816" width="0.43224999999997954" height="0.43224999999997954" fill="#252525" />
<rect x="-0.02666666666666667" y="-0.02666666666666667" width="3.5513333333331696" height="4.425833333333129" fill="none" stroke="#111111ff" stroke-width="0.08" />
<text x="3.4979999999998364" y="4.841249999999795" font-size="0.375" fill="black" text-anchor="end" font-family="Anuphan">8x10</text>
<text x="-0.037500000000000006" y="4.841249999999795" font-size="0.375" fill="black" text-anchor="start" font-family="Anuphan" font-weight="600">Input 1</text>
</g>
<g id="d1">
<rect x="0.005" y="0.005" width="0.43224999999997954" height="0.43224999999997954" fill="#252525" />
<rect x="0.44224999999997955" y="0.005" width="0.43224999999997954" height="0.43224999999997954" fill="#252525" />
<rect x="0.8794999999999591" y="0.005" width="0.43224999999997954" height="0.43224999999997954" fill="#252525" />
<rect x="1.3167499999999386" y="0.005" width="0.43224999999997954" height="0.43224999999997954" fill="#252525" />
<rect x="1.753999999999918" y="0.005" width="0.43224999999997954" height="0.43224999999997954" fill="#252525" />
<rect x="2.1912499999998976" y="0.005" width="0.43224999999997954" height="0.43224999999997954" fill="#252525" />
<rect x="2.6284999999998773" y="0.005" width="0.43224999999997954" height="0.43224999999997954" fill="#252525" />
<rect x="3.0657499999998565" y="0.005" width="0.43224999999997954" height="0.43224999999997954" fill="#252525" />
<rect x="0.005" y="0.44224999999997955" width="0.43224999999997954" height="0.43224999999997954" fill="#FF4136" />
<rect x="0.44224999999997955" y="0.44224999999997955" width="0.43224999999997954" height="0.43224999999997954" fill="#FF4136" />
<rect x="0.8794999999999591" y="0.44224999999997955" width="0.43224999999997954" height="0.43224999999997954" fill="#0074D9" />
<rect x="1.3167499999999386" y="0.44224999999997955" width="0.43224999999997954" height="0.43224999999997954" fill="#FF4136" />
<rect x="1.753999999999918" y="0.44224999999997955" width="0.43224999999997954" height="0.43224999999997954" fill="#0074D9" />
<rect x="2.1912499999998976" y="0.44224999999997955" width="0.43224999999997954" height="0.43224999999997954" fill="#FF4136" />
<rect x="2.6284999999998773" y="0.44224999999997955" width="0.43224999999997954" height="0.43224999999997954" fill="#0074D9" />
<rect x="3.0657499999998565" y="0.44224999999997955" width="0.43224999999997954" height="0.43224999999997954" fill="#0074D9" />
<rect x="0.005" y="0.8794999999999591" width="0.43224999999997954" height="0.43224999999997954" fill="#252525" />
<rect x="0.44224999999997955" y="0.8794999999999591" width="0.43224999999997954" height="0.43224999999997954" fill="#252525" />
<rect x="0.8794999999999591" y="0.8794999999999591" width="0.43224999999997954" height="0.43224999999997954" fill="#252525" />
<rect x="1.3167499999999386" y="0.8794999999999591" width="0.43224999999997954" height="0.43224999999997954" fill="#252525" />
<rect x="1.753999999999918" y="0.8794999999999591" width="0.43224999999997954" height="0.43224999999997954" fill="#252525" />
<rect x="2.1912499999998976" y="0.8794999999999591" width="0.43224999999997954" height="0.43224999999997954" fill="#252525" />
<rect x="2.6284999999998773" y="0.8794999999999591" width="0.43224999999997954" height="0.43224999999997954" fill="#252525" />
<rect x="3.0657499999998565" y="0.8794999999999591" width="0.43224999999997954" height="0.43224999999997954" fill="#252525" />
<rect x="0.005" y="1.3167499999999386" width="0.43224999999997954" height="0.43224999999997954" fill="#37D449" />
<rect x="0.44224999999997955" y="1.3167499999999386" width="0.43224999999997954" height="0.43224999999997954" fill="#37D449" />
<rect x="0.8794999999999591" y="1.3167499999999386" width="0.43224999999997954" height="0.43224999999997954" fill="#0074D9" />
<rect x="1.3167499999999386" y="1.3167499999999386" width="0.43224999999997954" height="0.43224999999997954" fill="#252525" />
<rect x="1.753999999999918" y="1.3167499999999386" width="0.43224999999997954" height="0.43224999999997954" fill="#252525" />
<rect x="2.1912499999998976" y="1.3167499999999386" width="0.43224999999997954" height="0.43224999999997954" fill="#252525" />
<rect x="2.6284999999998773" y="1.3167499999999386" width="0.43224999999997954" height="0.43224999999997954" fill="#252525" />
<rect x="3.0657499999998565" y="1.3167499999999386" width="0.43224999999997954" height="0.43224999999997954" fill="#252525" />
<rect x="0.005" y="1.753999999999918" width="0.43224999999997954" height="0.43224999999997954" fill="#252525" />
<rect x="0.44224999999997955" y="1.753999999999918" width="0.43224999999997954" height="0.43224999999997954" fill="#252525" />
<rect x="0.8794999999999591" y="1.753999999999918" width="0.43224999999997954" height="0.43224999999997954" fill="#252525" />
<rect x="1.3167499999999386" y="1.753999999999918" width="0.43224999999997954" height="0.43224999999997954" fill="#252525" />
<rect x="1.753999999999918" y="1.753999999999918" width="0.43224999999997954" height="0.43224999999997954" fill="#252525" />
<rect x="2.1912499999998976" y="1.753999999999918" width="0.43224999999997954" height="0.43224999999997954" fill="#252525" />
<rect x="2.6284999999998773" y="1.753999999999918" width="0.43224999999997954" height="0.43224999999997954" fill="#252525" />
<rect x="3.0657499999998565" y="1.753999999999918" width="0.43224999999997954" height="0.43224999999997954" fill="#252525" />
<rect x="0.005" y="2.1912499999998976" width="0.43224999999997954" height="0.43224999999997954" fill="#252525" />
<rect x="0.44224999999997955" y="2.1912499999998976" width="0.43224999999997954" height="0.43224999999997954" fill="#252525" />
<rect x="0.8794999999999591" y="2.1912499999998976" width="0.43224999999997954" height="0.43224999999997954" fill="#252525" />
<rect x="1.3167499999999386" y="2.1912499999998976" width="0.43224999999997954" height="0.43224999999997954" fill="#252525" />
<rect x="1.753999999999918" y="2.1912499999998976" width="0.43224999999997954" height="0.43224999999997954" fill="#252525" />
<rect x="2.1912499999998976" y="2.1912499999998976" width="0.43224999999997954" height="0.43224999999997954" fill="#252525" />
<rect x="2.6284999999998773" y="2.1912499999998976" width="0.43224999999997954" height="0.43224999999997954" fill="#252525" />
<rect x="3.0657499999998565" y="2.1912499999998976" width="0.43224999999997954" height="0.43224999999997954" fill="#252525" />
<rect x="0.005" y="2.6284999999998773" width="0.43224999999997954" height="0.43224999999997954" fill="#252525" />
<rect x="0.44224999999997955" y="2.6284999999998773" width="0.43224999999997954" height="0.43224999999997954" fill="#252525" />
<rect x="0.8794999999999591" y="2.6284999999998773" width="0.43224999999997954" height="0.43224999999997954" fill="#252525" />
<rect x="1.3167499999999386" y="2.6284999999998773" width="0.43224999999997954" height="0.43224999999997954" fill="#252525" />
<rect x="1.753999999999918" y="2.6284999999998773" width="0.43224999999997954" height="0.43224999999997954" fill="#252525" />
<rect x="2.1912499999998976" y="2.6284999999998773" width="0.43224999999997954" height="0.43224999999997954" fill="#252525" />
<rect x="2.6284999999998773" y="2.6284999999998773" width="0.43224999999997954" height="0.43224999999997954" fill="#252525" />
<rect x="3.0657499999998565" y="2.6284999999998773" width="0.43224999999997954" height="0.43224999999997954" fill="#252525" />
<rect x="0.005" y="3.0657499999998565" width="0.43224999999997954" height="0.43224999999997954" fill="#54D2EB" />
<rect x="0.44224999999997955" y="3.0657499999998565" width="0.43224999999997954" height="0.43224999999997954" fill="#54D2EB" />
<rect x="0.8794999999999591" y="3.0657499999998565" width="0.43224999999997954" height="0.43224999999997954" fill="#FF4136" />
<rect x="1.3167499999999386" y="3.0657499999998565" width="0.43224999999997954" height="0.43224999999997954" fill="#252525" />
<rect x="1.753999999999918" y="3.0657499999998565" width="0.43224999999997954" height="0.43224999999997954" fill="#252525" />
<rect x="2.1912499999998976" y="3.0657499999998565" width="0.43224999999997954" height="0.43224999999997954" fill="#252525" />
<rect x="2.6284999999998773" y="3.0657499999998565" width="0.43224999999997954" height="0.43224999999997954" fill="#252525" />
<rect x="3.0657499999998565" y="3.0657499999998565" width="0.43224999999997954" height="0.43224999999997954" fill="#252525" />
<rect x="0.005" y="3.5029999999998362" width="0.43224999999997954" height="0.43224999999997954" fill="#252525" />
<rect x="0.44224999999997955" y="3.5029999999998362" width="0.43224999999997954" height="0.43224999999997954" fill="#252525" />
<rect x="0.8794999999999591" y="3.5029999999998362" width="0.43224999999997954" height="0.43224999999997954" fill="#252525" />
<rect x="1.3167499999999386" y="3.5029999999998362" width="0.43224999999997954" height="0.43224999999997954" fill="#252525" />
<rect x="1.753999999999918" y="3.5029999999998362" width="0.43224999999997954" height="0.43224999999997954" fill="#252525" />
<rect x="2.1912499999998976" y="3.5029999999998362" width="0.43224999999997954" height="0.43224999999997954" fill="#252525" />
<rect x="2.6284999999998773" y="3.5029999999998362" width="0.43224999999997954" height="0.43224999999997954" fill="#252525" />
<rect x="3.0657499999998565" y="3.5029999999998362" width="0.43224999999997954" height="0.43224999999997954" fill="#252525" />
<rect x="0.005" y="3.940249999999816" width="0.43224999999997954" height="0.43224999999997954" fill="#252525" />
<rect x="0.44224999999997955" y="3.940249999999816" width="0.43224999999997954" height="0.43224999999997954" fill="#252525" />
<rect x="0.8794999999999591" y="3.940249999999816" width="0.43224999999997954" height="0.43224999999997954" fill="#252525" />
<rect x="1.3167499999999386" y="3.940249999999816" width="0.43224999999997954" height="0.43224999999997954" fill="#252525" />
<rect x="1.753999999999918" y="3.940249999999816" width="0.43224999999997954" height="0.43224999999997954" fill="#252525" />
<rect x="2.1912499999998976" y="3.940249999999816" width="0.43224999999997954" height="0.43224999999997954" fill="#252525" />
<rect x="2.6284999999998773" y="3.940249999999816" width="0.43224999999997954" height="0.43224999999997954" fill="#252525" />
<rect x="3.0657499999998565" y="3.940249999999816" width="0.43224999999997954" height="0.43224999999997954" fill="#252525" />
<rect x="-0.02666666666666667" y="-0.02666666666666667" width="3.5513333333331696" height="4.425833333333129" fill="none" stroke="#111111ff" stroke-width="0.08" />
<text x="3.4979999999998364" y="4.841249999999795" font-size="0.375" fill="black" text-anchor="end" font-family="Anuphan">8x10</text>
<text x="-0.037500000000000006" y="4.841249999999795" font-size="0.375" fill="black" text-anchor="start" font-family="Anuphan" font-weight="600">Input 2</text>
</g>
<g id="d2">
<rect x="0.005" y="0.005" width="0.43224999999997954" height="0.43224999999997954" fill="#252525" />
<rect x="0.44224999999997955" y="0.005" width="0.43224999999997954" height="0.43224999999997954" fill="#252525" />
<rect x="0.8794999999999591" y="0.005" width="0.43224999999997954" height="0.43224999999997954" fill="#252525" />
<rect x="1.3167499999999386" y="0.005" width="0.43224999999997954" height="0.43224999999997954" fill="#252525" />
<rect x="1.753999999999918" y="0.005" width="0.43224999999997954" height="0.43224999999997954" fill="#252525" />
<rect x="2.1912499999998976" y="0.005" width="0.43224999999997954" height="0.43224999999997954" fill="#252525" />
<rect x="2.6284999999998773" y="0.005" width="0.43224999999997954" height="0.43224999999997954" fill="#252525" />
<rect x="3.0657499999998565" y="0.005" width="0.43224999999997954" height="0.43224999999997954" fill="#252525" />
<rect x="0.005" y="0.44224999999997955" width="0.43224999999997954" height="0.43224999999997954" fill="#0074D9" />
<rect x="0.44224999999997955" y="0.44224999999997955" width="0.43224999999997954" height="0.43224999999997954" fill="#FFDC00" />
<rect x="0.8794999999999591" y="0.44224999999997955" width="0.43224999999997954" height="0.43224999999997954" fill="#0074D9" />
<rect x="1.3167499999999386" y="0.44224999999997955" width="0.43224999999997954" height="0.43224999999997954" fill="#FFDC00" />
<rect x="1.753999999999918" y="0.44224999999997955" width="0.43224999999997954" height="0.43224999999997954" fill="#FFDC00" />
<rect x="2.1912499999998976" y="0.44224999999997955" width="0.43224999999997954" height="0.43224999999997954" fill="#0074D9" />
<rect x="2.6284999999998773" y="0.44224999999997955" width="0.43224999999997954" height="0.43224999999997954" fill="#FFDC00" />
<rect x="3.0657499999998565" y="0.44224999999997955" width="0.43224999999997954" height="0.43224999999997954" fill="#0074D9" />
<rect x="0.005" y="0.8794999999999591" width="0.43224999999997954" height="0.43224999999997954" fill="#252525" />
<rect x="0.44224999999997955" y="0.8794999999999591" width="0.43224999999997954" height="0.43224999999997954" fill="#252525" />
<rect x="0.8794999999999591" y="0.8794999999999591" width="0.43224999999997954" height="0.43224999999997954" fill="#252525" />
<rect x="1.3167499999999386" y="0.8794999999999591" width="0.43224999999997954" height="0.43224999999997954" fill="#252525" />
<rect x="1.753999999999918" y="0.8794999999999591" width="0.43224999999997954" height="0.43224999999997954" fill="#252525" />
<rect x="2.1912499999998976" y="0.8794999999999591" width="0.43224999999997954" height="0.43224999999997954" fill="#252525" />
<rect x="2.6284999999998773" y="0.8794999999999591" width="0.43224999999997954" height="0.43224999999997954" fill="#252525" />
<rect x="3.0657499999998565" y="0.8794999999999591" width="0.43224999999997954" height="0.43224999999997954" fill="#252525" />
<rect x="0.005" y="1.3167499999999386" width="0.43224999999997954" height="0.43224999999997954" fill="#252525" />
<rect x="0.44224999999997955" y="1.3167499999999386" width="0.43224999999997954" height="0.43224999999997954" fill="#252525" />
<rect x="0.8794999999999591" y="1.3167499999999386" width="0.43224999999997954" height="0.43224999999997954" fill="#252525" />
<rect x="1.3167499999999386" y="1.3167499999999386" width="0.43224999999997954" height="0.43224999999997954" fill="#252525" />
<rect x="1.753999999999918" y="1.3167499999999386" width="0.43224999999997954" height="0.43224999999997954" fill="#252525" />
<rect x="2.1912499999998976" y="1.3167499999999386" width="0.43224999999997954" height="0.43224999999997954" fill="#252525" />
<rect x="2.6284999999998773" y="1.3167499999999386" width="0.43224999999997954" height="0.43224999999997954" fill="#252525" />
<rect x="3.0657499999998565" y="1.3167499999999386" width="0.43224999999997954" height="0.43224999999997954" fill="#252525" />
<rect x="0.005" y="1.753999999999918" width="0.43224999999997954" height="0.43224999999997954" fill="#FF4136" />
<rect x="0.44224999999997955" y="1.753999999999918" width="0.43224999999997954" height="0.43224999999997954" fill="#37D449" />
<rect x="0.8794999999999591" y="1.753999999999918" width="0.43224999999997954" height="0.43224999999997954" fill="#252525" />
<rect x="1.3167499999999386" y="1.753999999999918" width="0.43224999999997954" height="0.43224999999997954" fill="#252525" />
<rect x="1.753999999999918" y="1.753999999999918" width="0.43224999999997954" height="0.43224999999997954" fill="#252525" />
<rect x="2.1912499999998976" y="1.753999999999918" width="0.43224999999997954" height="0.43224999999997954" fill="#252525" />
<rect x="2.6284999999998773" y="1.753999999999918" width="0.43224999999997954" height="0.43224999999997954" fill="#252525" />
<rect x="3.0657499999998565" y="1.753999999999918" width="0.43224999999997954" height="0.43224999999997954" fill="#252525" />
<rect x="0.005" y="2.1912499999998976" width="0.43224999999997954" height="0.43224999999997954" fill="#252525" />
<rect x="0.44224999999997955" y="2.1912499999998976" width="0.43224999999997954" height="0.43224999999997954" fill="#252525" />
<rect x="0.8794999999999591" y="2.1912499999998976" width="0.43224999999997954" height="0.43224999999997954" fill="#252525" />
<rect x="1.3167499999999386" y="2.1912499999998976" width="0.43224999999997954" height="0.43224999999997954" fill="#252525" />
<rect x="1.753999999999918" y="2.1912499999998976" width="0.43224999999997954" height="0.43224999999997954" fill="#252525" />
<rect x="2.1912499999998976" y="2.1912499999998976" width="0.43224999999997954" height="0.43224999999997954" fill="#252525" />
<rect x="2.6284999999998773" y="2.1912499999998976" width="0.43224999999997954" height="0.43224999999997954" fill="#252525" />
<rect x="3.0657499999998565" y="2.1912499999998976" width="0.43224999999997954" height="0.43224999999997954" fill="#252525" />
<rect x="0.005" y="2.6284999999998773" width="0.43224999999997954" height="0.43224999999997954" fill="#54D2EB" />
<rect x="0.44224999999997955" y="2.6284999999998773" width="0.43224999999997954" height="0.43224999999997954" fill="#FF4136" />
<rect x="0.8794999999999591" y="2.6284999999998773" width="0.43224999999997954" height="0.43224999999997954" fill="#252525" />
<rect x="1.3167499999999386" y="2.6284999999998773" width="0.43224999999997954" height="0.43224999999997954" fill="#252525" />
<rect x="1.753999999999918" y="2.6284999999998773" width="0.43224999999997954" height="0.43224999999997954" fill="#252525" />
<rect x="2.1912499999998976" y="2.6284999999998773" width="0.43224999999997954" height="0.43224999999997954" fill="#252525" />
<rect x="2.6284999999998773" y="2.6284999999998773" width="0.43224999999997954" height="0.43224999999997954" fill="#252525" />
<rect x="3.0657499999998565" y="2.6284999999998773" width="0.43224999999997954" height="0.43224999999997954" fill="#252525" />
<rect x="0.005" y="3.0657499999998565" width="0.43224999999997954" height="0.43224999999997954" fill="#252525" />
<rect x="0.44224999999997955" y="3.0657499999998565" width="0.43224999999997954" height="0.43224999999997954" fill="#252525" />
<rect x="0.8794999999999591" y="3.0657499999998565" width="0.43224999999997954" height="0.43224999999997954" fill="#252525" />
<rect x="1.3167499999999386" y="3.0657499999998565" width="0.43224999999997954" height="0.43224999999997954" fill="#252525" />
<rect x="1.753999999999918" y="3.0657499999998565" width="0.43224999999997954" height="0.43224999999997954" fill="#252525" />
<rect x="2.1912499999998976" y="3.0657499999998565" width="0.43224999999997954" height="0.43224999999997954" fill="#252525" />
<rect x="2.6284999999998773" y="3.0657499999998565" width="0.43224999999997954" height="0.43224999999997954" fill="#252525" />
<rect x="3.0657499999998565" y="3.0657499999998565" width="0.43224999999997954" height="0.43224999999997954" fill="#252525" />
<rect x="0.005" y="3.5029999999998362" width="0.43224999999997954" height="0.43224999999997954" fill="#F012BE" />
<rect x="0.44224999999997955" y="3.5029999999998362" width="0.43224999999997954" height="0.43224999999997954" fill="#E6E6E6" />
<rect x="0.8794999999999591" y="3.5029999999998362" width="0.43224999999997954" height="0.43224999999997954" fill="#252525" />
<rect x="1.3167499999999386" y="3.5029999999998362" width="0.43224999999997954" height="0.43224999999997954" fill="#252525" />
<rect x="1.753999999999918" y="3.5029999999998362" width="0.43224999999997954" height="0.43224999999997954" fill="#252525" />
<rect x="2.1912499999998976" y="3.5029999999998362" width="0.43224999999997954" height="0.43224999999997954" fill="#252525" />
<rect x="2.6284999999998773" y="3.5029999999998362" width="0.43224999999997954" height="0.43224999999997954" fill="#252525" />
<rect x="3.0657499999998565" y="3.5029999999998362" width="0.43224999999997954" height="0.43224999999997954" fill="#252525" />
<rect x="0.005" y="3.940249999999816" width="0.43224999999997954" height="0.43224999999997954" fill="#252525" />
<rect x="0.44224999999997955" y="3.940249999999816" width="0.43224999999997954" height="0.43224999999997954" fill="#252525" />
<rect x="0.8794999999999591" y="3.940249999999816" width="0.43224999999997954" height="0.43224999999997954" fill="#252525" />
<rect x="1.3167499999999386" y="3.940249999999816" width="0.43224999999997954" height="0.43224999999997954" fill="#252525" />
<rect x="1.753999999999918" y="3.940249999999816" width="0.43224999999997954" height="0.43224999999997954" fill="#252525" />
<rect x="2.1912499999998976" y="3.940249999999816" width="0.43224999999997954" height="0.43224999999997954" fill="#252525" />
<rect x="2.6284999999998773" y="3.940249999999816" width="0.43224999999997954" height="0.43224999999997954" fill="#252525" />
<rect x="3.0657499999998565" y="3.940249999999816" width="0.43224999999997954" height="0.43224999999997954" fill="#252525" />
<rect x="0.005" y="4.377499999999795" width="0.43224999999997954" height="0.43224999999997954" fill="#252525" />
<rect x="0.44224999999997955" y="4.377499999999795" width="0.43224999999997954" height="0.43224999999997954" fill="#252525" />
<rect x="0.8794999999999591" y="4.377499999999795" width="0.43224999999997954" height="0.43224999999997954" fill="#252525" />
<rect x="1.3167499999999386" y="4.377499999999795" width="0.43224999999997954" height="0.43224999999997954" fill="#252525" />
<rect x="1.753999999999918" y="4.377499999999795" width="0.43224999999997954" height="0.43224999999997954" fill="#252525" />
<rect x="2.1912499999998976" y="4.377499999999795" width="0.43224999999997954" height="0.43224999999997954" fill="#252525" />
<rect x="2.6284999999998773" y="4.377499999999795" width="0.43224999999997954" height="0.43224999999997954" fill="#252525" />
<rect x="3.0657499999998565" y="4.377499999999795" width="0.43224999999997954" height="0.43224999999997954" fill="#252525" />
<rect x="0.005" y="4.8147499999997745" width="0.43224999999997954" height="0.43224999999997954" fill="#252525" />
<rect x="0.44224999999997955" y="4.8147499999997745" width="0.43224999999997954" height="0.43224999999997954" fill="#252525" />
<rect x="0.8794999999999591" y="4.8147499999997745" width="0.43224999999997954" height="0.43224999999997954" fill="#252525" />
<rect x="1.3167499999999386" y="4.8147499999997745" width="0.43224999999997954" height="0.43224999999997954" fill="#252525" />
<rect x="1.753999999999918" y="4.8147499999997745" width="0.43224999999997954" height="0.43224999999997954" fill="#252525" />
<rect x="2.1912499999998976" y="4.8147499999997745" width="0.43224999999997954" height="0.43224999999997954" fill="#252525" />
<rect x="2.6284999999998773" y="4.8147499999997745" width="0.43224999999997954" height="0.43224999999997954" fill="#252525" />
<rect x="3.0657499999998565" y="4.8147499999997745" width="0.43224999999997954" height="0.43224999999997954" fill="#252525" />
<rect x="-0.02666666666666667" y="-0.02666666666666667" width="3.5513333333331696" height="5.300333333333088" fill="none" stroke="#111111ff" stroke-width="0.08" />
<text x="3.4979999999998364" y="5.715749999999755" font-size="0.375" fill="black" text-anchor="end" font-family="Anuphan">8x12</text>
<text x="-0.037500000000000006" y="5.715749999999755" font-size="0.375" fill="black" text-anchor="start" font-family="Anuphan" font-weight="600">Input 3</text>
</g>
<g id="d3">
<rect x="0.005" y="0.005" width="0.43224999999997954" height="0.43224999999997954" fill="#252525" />
<rect x="0.44224999999997955" y="0.005" width="0.43224999999997954" height="0.43224999999997954" fill="#252525" />
<rect x="0.8794999999999591" y="0.005" width="0.43224999999997954" height="0.43224999999997954" fill="#252525" />
<rect x="1.3167499999999386" y="0.005" width="0.43224999999997954" height="0.43224999999997954" fill="#252525" />
<rect x="1.753999999999918" y="0.005" width="0.43224999999997954" height="0.43224999999997954" fill="#252525" />
<rect x="2.1912499999998976" y="0.005" width="0.43224999999997954" height="0.43224999999997954" fill="#252525" />
<rect x="2.6284999999998773" y="0.005" width="0.43224999999997954" height="0.43224999999997954" fill="#252525" />
<rect x="3.0657499999998565" y="0.005" width="0.43224999999997954" height="0.43224999999997954" fill="#252525" />
<rect x="0.005" y="0.44224999999997955" width="0.43224999999997954" height="0.43224999999997954" fill="#37D449" />
<rect x="0.44224999999997955" y="0.44224999999997955" width="0.43224999999997954" height="0.43224999999997954" fill="#37D449" />
<rect x="0.8794999999999591" y="0.44224999999997955" width="0.43224999999997954" height="0.43224999999997954" fill="#FFDC00" />
<rect x="1.3167499999999386" y="0.44224999999997955" width="0.43224999999997954" height="0.43224999999997954" fill="#FFDC00" />
<rect x="1.753999999999918" y="0.44224999999997955" width="0.43224999999997954" height="0.43224999999997954" fill="#FFDC00" />
<rect x="2.1912499999998976" y="0.44224999999997955" width="0.43224999999997954" height="0.43224999999997954" fill="#37D449" />
<rect x="2.6284999999998773" y="0.44224999999997955" width="0.43224999999997954" height="0.43224999999997954" fill="#FFDC00" />
<rect x="3.0657499999998565" y="0.44224999999997955" width="0.43224999999997954" height="0.43224999999997954" fill="#37D449" />
<rect x="0.005" y="0.8794999999999591" width="0.43224999999997954" height="0.43224999999997954" fill="#252525" />
<rect x="0.44224999999997955" y="0.8794999999999591" width="0.43224999999997954" height="0.43224999999997954" fill="#252525" />
<rect x="0.8794999999999591" y="0.8794999999999591" width="0.43224999999997954" height="0.43224999999997954" fill="#252525" />
<rect x="1.3167499999999386" y="0.8794999999999591" width="0.43224999999997954" height="0.43224999999997954" fill="#252525" />
<rect x="1.753999999999918" y="0.8794999999999591" width="0.43224999999997954" height="0.43224999999997954" fill="#252525" />
<rect x="2.1912499999998976" y="0.8794999999999591" width="0.43224999999997954" height="0.43224999999997954" fill="#252525" />
<rect x="2.6284999999998773" y="0.8794999999999591" width="0.43224999999997954" height="0.43224999999997954" fill="#252525" />
<rect x="3.0657499999998565" y="0.8794999999999591" width="0.43224999999997954" height="0.43224999999997954" fill="#252525" />
<rect x="0.005" y="1.3167499999999386" width="0.43224999999997954" height="0.43224999999997954" fill="#252525" />
<rect x="0.44224999999997955" y="1.3167499999999386" width="0.43224999999997954" height="0.43224999999997954" fill="#252525" />
<rect x="0.8794999999999591" y="1.3167499999999386" width="0.43224999999997954" height="0.43224999999997954" fill="#252525" />
<rect x="1.3167499999999386" y="1.3167499999999386" width="0.43224999999997954" height="0.43224999999997954" fill="#252525" />
<rect x="1.753999999999918" y="1.3167499999999386" width="0.43224999999997954" height="0.43224999999997954" fill="#252525" />
<rect x="2.1912499999998976" y="1.3167499999999386" width="0.43224999999997954" height="0.43224999999997954" fill="#252525" />
<rect x="2.6284999999998773" y="1.3167499999999386" width="0.43224999999997954" height="0.43224999999997954" fill="#252525" />
<rect x="3.0657499999998565" y="1.3167499999999386" width="0.43224999999997954" height="0.43224999999997954" fill="#252525" />
<rect x="0.005" y="1.753999999999918" width="0.43224999999997954" height="0.43224999999997954" fill="#54D2EB" />
<rect x="0.44224999999997955" y="1.753999999999918" width="0.43224999999997954" height="0.43224999999997954" fill="#54D2EB" />
<rect x="0.8794999999999591" y="1.753999999999918" width="0.43224999999997954" height="0.43224999999997954" fill="#FF4136" />
<rect x="1.3167499999999386" y="1.753999999999918" width="0.43224999999997954" height="0.43224999999997954" fill="#252525" />
<rect x="1.753999999999918" y="1.753999999999918" width="0.43224999999997954" height="0.43224999999997954" fill="#252525" />
<rect x="2.1912499999998976" y="1.753999999999918" width="0.43224999999997954" height="0.43224999999997954" fill="#252525" />
<rect x="2.6284999999998773" y="1.753999999999918" width="0.43224999999997954" height="0.43224999999997954" fill="#252525" />
<rect x="3.0657499999998565" y="1.753999999999918" width="0.43224999999997954" height="0.43224999999997954" fill="#252525" />
<rect x="0.005" y="2.1912499999998976" width="0.43224999999997954" height="0.43224999999997954" fill="#252525" />
<rect x="0.44224999999997955" y="2.1912499999998976" width="0.43224999999997954" height="0.43224999999997954" fill="#252525" />
<rect x="0.8794999999999591" y="2.1912499999998976" width="0.43224999999997954" height="0.43224999999997954" fill="#252525" />
<rect x="1.3167499999999386" y="2.1912499999998976" width="0.43224999999997954" height="0.43224999999997954" fill="#252525" />
<rect x="1.753999999999918" y="2.1912499999998976" width="0.43224999999997954" height="0.43224999999997954" fill="#252525" />
<rect x="2.1912499999998976" y="2.1912499999998976" width="0.43224999999997954" height="0.43224999999997954" fill="#252525" />
<rect x="2.6284999999998773" y="2.1912499999998976" width="0.43224999999997954" height="0.43224999999997954" fill="#252525" />
<rect x="3.0657499999998565" y="2.1912499999998976" width="0.43224999999997954" height="0.43224999999997954" fill="#252525" />
<rect x="-0.02666666666666667" y="-0.02666666666666667" width="3.5513333333331696" height="2.6768333333332106" fill="none" stroke="#111111ff" stroke-width="0.08" />
<text x="3.4979999999998364" y="3.0922499999998774" font-size="0.375" fill="black" text-anchor="end" font-family="Anuphan">8x6</text>
<text x="-0.037500000000000006" y="3.0922499999998774" font-size="0.375" fill="black" text-anchor="start" font-family="Anuphan" font-weight="600">Input 4</text>
</g>
<g id="d4">
<rect x="0.005" y="0.005" width="0.3447999999999836" height="0.3447999999999836" fill="#252525" />
<rect x="0.35479999999998363" y="0.005" width="0.3447999999999836" height="0.3447999999999836" fill="#252525" />
<rect x="0.7045999999999673" y="0.005" width="0.3447999999999836" height="0.3447999999999836" fill="#252525" />
<rect x="1.0543999999999507" y="0.005" width="0.3447999999999836" height="0.3447999999999836" fill="#252525" />
<rect x="1.4041999999999344" y="0.005" width="0.3447999999999836" height="0.3447999999999836" fill="#252525" />
<rect x="1.753999999999918" y="0.005" width="0.3447999999999836" height="0.3447999999999836" fill="#252525" />
<rect x="2.1037999999999015" y="0.005" width="0.3447999999999836" height="0.3447999999999836" fill="#252525" />
<rect x="2.453599999999885" y="0.005" width="0.3447999999999836" height="0.3447999999999836" fill="#252525" />
<rect x="2.803399999999869" y="0.005" width="0.3447999999999836" height="0.3447999999999836" fill="#252525" />
<rect x="3.1531999999998526" y="0.005" width="0.3447999999999836" height="0.3447999999999836" fill="#252525" />
<rect x="0.005" y="0.35479999999998363" width="0.3447999999999836" height="0.3447999999999836" fill="#FF4136" />
<rect x="0.35479999999998363" y="0.35479999999998363" width="0.3447999999999836" height="0.3447999999999836" fill="#FF4136" />
<rect x="0.7045999999999673" y="0.35479999999998363" width="0.3447999999999836" height="0.3447999999999836" fill="#0074D9" />
<rect x="1.0543999999999507" y="0.35479999999998363" width="0.3447999999999836" height="0.3447999999999836" fill="#FF4136" />
<rect x="1.4041999999999344" y="0.35479999999998363" width="0.3447999999999836" height="0.3447999999999836" fill="#0074D9" />
<rect x="1.753999999999918" y="0.35479999999998363" width="0.3447999999999836" height="0.3447999999999836" fill="#FF4136" />
<rect x="2.1037999999999015" y="0.35479999999998363" width="0.3447999999999836" height="0.3447999999999836" fill="#0074D9" />
<rect x="2.453599999999885" y="0.35479999999998363" width="0.3447999999999836" height="0.3447999999999836" fill="#0074D9" />
<rect x="2.803399999999869" y="0.35479999999998363" width="0.3447999999999836" height="0.3447999999999836" fill="#FF4136" />
<rect x="3.1531999999998526" y="0.35479999999998363" width="0.3447999999999836" height="0.3447999999999836" fill="#0074D9" />
<rect x="0.005" y="0.7045999999999673" width="0.3447999999999836" height="0.3447999999999836" fill="#252525" />
<rect x="0.35479999999998363" y="0.7045999999999673" width="0.3447999999999836" height="0.3447999999999836" fill="#252525" />
<rect x="0.7045999999999673" y="0.7045999999999673" width="0.3447999999999836" height="0.3447999999999836" fill="#252525" />
<rect x="1.0543999999999507" y="0.7045999999999673" width="0.3447999999999836" height="0.3447999999999836" fill="#252525" />
<rect x="1.4041999999999344" y="0.7045999999999673" width="0.3447999999999836" height="0.3447999999999836" fill="#252525" />
<rect x="1.753999999999918" y="0.7045999999999673" width="0.3447999999999836" height="0.3447999999999836" fill="#252525" />
<rect x="2.1037999999999015" y="0.7045999999999673" width="0.3447999999999836" height="0.3447999999999836" fill="#252525" />
<rect x="2.453599999999885" y="0.7045999999999673" width="0.3447999999999836" height="0.3447999999999836" fill="#252525" />
<rect x="2.803399999999869" y="0.7045999999999673" width="0.3447999999999836" height="0.3447999999999836" fill="#252525" />
<rect x="3.1531999999998526" y="0.7045999999999673" width="0.3447999999999836" height="0.3447999999999836" fill="#252525" />
<rect x="0.005" y="1.0543999999999507" width="0.3447999999999836" height="0.3447999999999836" fill="#54D2EB" />
<rect x="0.35479999999998363" y="1.0543999999999507" width="0.3447999999999836" height="0.3447999999999836" fill="#54D2EB" />
<rect x="0.7045999999999673" y="1.0543999999999507" width="0.3447999999999836" height="0.3447999999999836" fill="#37D449" />
<rect x="1.0543999999999507" y="1.0543999999999507" width="0.3447999999999836" height="0.3447999999999836" fill="#252525" />
<rect x="1.4041999999999344" y="1.0543999999999507" width="0.3447999999999836" height="0.3447999999999836" fill="#252525" />
<rect x="1.753999999999918" y="1.0543999999999507" width="0.3447999999999836" height="0.3447999999999836" fill="#252525" />
<rect x="2.1037999999999015" y="1.0543999999999507" width="0.3447999999999836" height="0.3447999999999836" fill="#252525" />
<rect x="2.453599999999885" y="1.0543999999999507" width="0.3447999999999836" height="0.3447999999999836" fill="#252525" />
<rect x="2.803399999999869" y="1.0543999999999507" width="0.3447999999999836" height="0.3447999999999836" fill="#252525" />
<rect x="3.1531999999998526" y="1.0543999999999507" width="0.3447999999999836" height="0.3447999999999836" fill="#252525" />
<rect x="0.005" y="1.4041999999999344" width="0.3447999999999836" height="0.3447999999999836" fill="#252525" />
<rect x="0.35479999999998363" y="1.4041999999999344" width="0.3447999999999836" height="0.3447999999999836" fill="#252525" />
<rect x="0.7045999999999673" y="1.4041999999999344" width="0.3447999999999836" height="0.3447999999999836" fill="#252525" />
<rect x="1.0543999999999507" y="1.4041999999999344" width="0.3447999999999836" height="0.3447999999999836" fill="#252525" />
<rect x="1.4041999999999344" y="1.4041999999999344" width="0.3447999999999836" height="0.3447999999999836" fill="#252525" />
<rect x="1.753999999999918" y="1.4041999999999344" width="0.3447999999999836" height="0.3447999999999836" fill="#252525" />
<rect x="2.1037999999999015" y="1.4041999999999344" width="0.3447999999999836" height="0.3447999999999836" fill="#252525" />
<rect x="2.453599999999885" y="1.4041999999999344" width="0.3447999999999836" height="0.3447999999999836" fill="#252525" />
<rect x="2.803399999999869" y="1.4041999999999344" width="0.3447999999999836" height="0.3447999999999836" fill="#252525" />
<rect x="3.1531999999998526" y="1.4041999999999344" width="0.3447999999999836" height="0.3447999999999836" fill="#252525" />
<rect x="0.005" y="1.753999999999918" width="0.3447999999999836" height="0.3447999999999836" fill="#252525" />
<rect x="0.35479999999998363" y="1.753999999999918" width="0.3447999999999836" height="0.3447999999999836" fill="#252525" />
<rect x="0.7045999999999673" y="1.753999999999918" width="0.3447999999999836" height="0.3447999999999836" fill="#252525" />
<rect x="1.0543999999999507" y="1.753999999999918" width="0.3447999999999836" height="0.3447999999999836" fill="#252525" />
<rect x="1.4041999999999344" y="1.753999999999918" width="0.3447999999999836" height="0.3447999999999836" fill="#252525" />
<rect x="1.753999999999918" y="1.753999999999918" width="0.3447999999999836" height="0.3447999999999836" fill="#252525" />
<rect x="2.1037999999999015" y="1.753999999999918" width="0.3447999999999836" height="0.3447999999999836" fill="#252525" />
<rect x="2.453599999999885" y="1.753999999999918" width="0.3447999999999836" height="0.3447999999999836" fill="#252525" />
<rect x="2.803399999999869" y="1.753999999999918" width="0.3447999999999836" height="0.3447999999999836" fill="#252525" />
<rect x="3.1531999999998526" y="1.753999999999918" width="0.3447999999999836" height="0.3447999999999836" fill="#252525" />
<rect x="0.005" y="2.1037999999999015" width="0.3447999999999836" height="0.3447999999999836" fill="#0074D9" />
<rect x="0.35479999999998363" y="2.1037999999999015" width="0.3447999999999836" height="0.3447999999999836" fill="#0074D9" />
<rect x="0.7045999999999673" y="2.1037999999999015" width="0.3447999999999836" height="0.3447999999999836" fill="#FFDC00" />
<rect x="1.0543999999999507" y="2.1037999999999015" width="0.3447999999999836" height="0.3447999999999836" fill="#252525" />
<rect x="1.4041999999999344" y="2.1037999999999015" width="0.3447999999999836" height="0.3447999999999836" fill="#252525" />
<rect x="1.753999999999918" y="2.1037999999999015" width="0.3447999999999836" height="0.3447999999999836" fill="#252525" />
<rect x="2.1037999999999015" y="2.1037999999999015" width="0.3447999999999836" height="0.3447999999999836" fill="#252525" />
<rect x="2.453599999999885" y="2.1037999999999015" width="0.3447999999999836" height="0.3447999999999836" fill="#252525" />
<rect x="2.803399999999869" y="2.1037999999999015" width="0.3447999999999836" height="0.3447999999999836" fill="#252525" />
<rect x="3.1531999999998526" y="2.1037999999999015" width="0.3447999999999836" height="0.3447999999999836" fill="#252525" />
<rect x="0.005" y="2.453599999999885" width="0.3447999999999836" height="0.3447999999999836" fill="#252525" />
<rect x="0.35479999999998363" y="2.453599999999885" width="0.3447999999999836" height="0.3447999999999836" fill="#252525" />
<rect x="0.7045999999999673" y="2.453599999999885" width="0.3447999999999836" height="0.3447999999999836" fill="#252525" />
<rect x="1.0543999999999507" y="2.453599999999885" width="0.3447999999999836" height="0.3447999999999836" fill="#252525" />
<rect x="1.4041999999999344" y="2.453599999999885" width="0.3447999999999836" height="0.3447999999999836" fill="#252525" />
<rect x="1.753999999999918" y="2.453599999999885" width="0.3447999999999836" height="0.3447999999999836" fill="#252525" />
<rect x="2.1037999999999015" y="2.453599999999885" width="0.3447999999999836" height="0.3447999999999836" fill="#252525" />
<rect x="2.453599999999885" y="2.453599999999885" width="0.3447999999999836" height="0.3447999999999836" fill="#252525" />
<rect x="2.803399999999869" y="2.453599999999885" width="0.3447999999999836" height="0.3447999999999836" fill="#252525" />
<rect x="3.1531999999998526" y="2.453599999999885" width="0.3447999999999836" height="0.3447999999999836" fill="#252525" />
<rect x="0.005" y="2.803399999999869" width="0.3447999999999836" height="0.3447999999999836" fill="#252525" />
<rect x="0.35479999999998363" y="2.803399999999869" width="0.3447999999999836" height="0.3447999999999836" fill="#252525" />
<rect x="0.7045999999999673" y="2.803399999999869" width="0.3447999999999836" height="0.3447999999999836" fill="#252525" />
<rect x="1.0543999999999507" y="2.803399999999869" width="0.3447999999999836" height="0.3447999999999836" fill="#252525" />
<rect x="1.4041999999999344" y="2.803399999999869" width="0.3447999999999836" height="0.3447999999999836" fill="#252525" />
<rect x="1.753999999999918" y="2.803399999999869" width="0.3447999999999836" height="0.3447999999999836" fill="#252525" />
<rect x="2.1037999999999015" y="2.803399999999869" width="0.3447999999999836" height="0.3447999999999836" fill="#252525" />
<rect x="2.453599999999885" y="2.803399999999869" width="0.3447999999999836" height="0.3447999999999836" fill="#252525" />
<rect x="2.803399999999869" y="2.803399999999869" width="0.3447999999999836" height="0.3447999999999836" fill="#252525" />
<rect x="3.1531999999998526" y="2.803399999999869" width="0.3447999999999836" height="0.3447999999999836" fill="#252525" />
<rect x="0.005" y="3.1531999999998526" width="0.3447999999999836" height="0.3447999999999836" fill="#F012BE" />
<rect x="0.35479999999998363" y="3.1531999999998526" width="0.3447999999999836" height="0.3447999999999836" fill="#F012BE" />
<rect x="0.7045999999999673" y="3.1531999999998526" width="0.3447999999999836" height="0.3447999999999836" fill="#54D2EB" />
<rect x="1.0543999999999507" y="3.1531999999998526" width="0.3447999999999836" height="0.3447999999999836" fill="#252525" />
<rect x="1.4041999999999344" y="3.1531999999998526" width="0.3447999999999836" height="0.3447999999999836" fill="#252525" />
<rect x="1.753999999999918" y="3.1531999999998526" width="0.3447999999999836" height="0.3447999999999836" fill="#252525" />
<rect x="2.1037999999999015" y="3.1531999999998526" width="0.3447999999999836" height="0.3447999999999836" fill="#252525" />
<rect x="2.453599999999885" y="3.1531999999998526" width="0.3447999999999836" height="0.3447999999999836" fill="#252525" />
<rect x="2.803399999999869" y="3.1531999999998526" width="0.3447999999999836" height="0.3447999999999836" fill="#252525" />
<rect x="3.1531999999998526" y="3.1531999999998526" width="0.3447999999999836" height="0.3447999999999836" fill="#252525" />
<rect x="0.005" y="3.5029999999998362" width="0.3447999999999836" height="0.3447999999999836" fill="#252525" />
<rect x="0.35479999999998363" y="3.5029999999998362" width="0.3447999999999836" height="0.3447999999999836" fill="#252525" />
<rect x="0.7045999999999673" y="3.5029999999998362" width="0.3447999999999836" height="0.3447999999999836" fill="#252525" />
<rect x="1.0543999999999507" y="3.5029999999998362" width="0.3447999999999836" height="0.3447999999999836" fill="#252525" />
<rect x="1.4041999999999344" y="3.5029999999998362" width="0.3447999999999836" height="0.3447999999999836" fill="#252525" />
<rect x="1.753999999999918" y="3.5029999999998362" width="0.3447999999999836" height="0.3447999999999836" fill="#252525" />
<rect x="2.1037999999999015" y="3.5029999999998362" width="0.3447999999999836" height="0.3447999999999836" fill="#252525" />
<rect x="2.453599999999885" y="3.5029999999998362" width="0.3447999999999836" height="0.3447999999999836" fill="#252525" />
<rect x="2.803399999999869" y="3.5029999999998362" width="0.3447999999999836" height="0.3447999999999836" fill="#252525" />
<rect x="3.1531999999998526" y="3.5029999999998362" width="0.3447999999999836" height="0.3447999999999836" fill="#252525" />
<rect x="0.005" y="3.85279999999982" width="0.3447999999999836" height="0.3447999999999836" fill="#0074D9" />
<rect x="0.35479999999998363" y="3.85279999999982" width="0.3447999999999836" height="0.3447999999999836" fill="#0074D9" />
<rect x="0.7045999999999673" y="3.85279999999982" width="0.3447999999999836" height="0.3447999999999836" fill="#F012BE" />
<rect x="1.0543999999999507" y="3.85279999999982" width="0.3447999999999836" height="0.3447999999999836" fill="#252525" />
<rect x="1.4041999999999344" y="3.85279999999982" width="0.3447999999999836" height="0.3447999999999836" fill="#252525" />
<rect x="1.753999999999918" y="3.85279999999982" width="0.3447999999999836" height="0.3447999999999836" fill="#252525" />
<rect x="2.1037999999999015" y="3.85279999999982" width="0.3447999999999836" height="0.3447999999999836" fill="#252525" />
<rect x="2.453599999999885" y="3.85279999999982" width="0.3447999999999836" height="0.3447999999999836" fill="#252525" />
<rect x="2.803399999999869" y="3.85279999999982" width="0.3447999999999836" height="0.3447999999999836" fill="#252525" />
<rect x="3.1531999999998526" y="3.85279999999982" width="0.3447999999999836" height="0.3447999999999836" fill="#252525" />
<rect x="0.005" y="4.202599999999803" width="0.3447999999999836" height="0.3447999999999836" fill="#252525" />
<rect x="0.35479999999998363" y="4.202599999999803" width="0.3447999999999836" height="0.3447999999999836" fill="#252525" />
<rect x="0.7045999999999673" y="4.202599999999803" width="0.3447999999999836" height="0.3447999999999836" fill="#252525" />
<rect x="1.0543999999999507" y="4.202599999999803" width="0.3447999999999836" height="0.3447999999999836" fill="#252525" />
<rect x="1.4041999999999344" y="4.202599999999803" width="0.3447999999999836" height="0.3447999999999836" fill="#252525" />
<rect x="1.753999999999918" y="4.202599999999803" width="0.3447999999999836" height="0.3447999999999836" fill="#252525" />
<rect x="2.1037999999999015" y="4.202599999999803" width="0.3447999999999836" height="0.3447999999999836" fill="#252525" />
<rect x="2.453599999999885" y="4.202599999999803" width="0.3447999999999836" height="0.3447999999999836" fill="#252525" />
<rect x="2.803399999999869" y="4.202599999999803" width="0.3447999999999836" height="0.3447999999999836" fill="#252525" />
<rect x="3.1531999999998526" y="4.202599999999803" width="0.3447999999999836" height="0.3447999999999836" fill="#252525" />
<rect x="0.005" y="4.552399999999787" width="0.3447999999999836" height="0.3447999999999836" fill="#252525" />
<rect x="0.35479999999998363" y="4.552399999999787" width="0.3447999999999836" height="0.3447999999999836" fill="#252525" />
<rect x="0.7045999999999673" y="4.552399999999787" width="0.3447999999999836" height="0.3447999999999836" fill="#252525" />
<rect x="1.0543999999999507" y="4.552399999999787" width="0.3447999999999836" height="0.3447999999999836" fill="#252525" />
<rect x="1.4041999999999344" y="4.552399999999787" width="0.3447999999999836" height="0.3447999999999836" fill="#252525" />
<rect x="1.753999999999918" y="4.552399999999787" width="0.3447999999999836" height="0.3447999999999836" fill="#252525" />
<rect x="2.1037999999999015" y="4.552399999999787" width="0.3447999999999836" height="0.3447999999999836" fill="#252525" />
<rect x="2.453599999999885" y="4.552399999999787" width="0.3447999999999836" height="0.3447999999999836" fill="#252525" />
<rect x="2.803399999999869" y="4.552399999999787" width="0.3447999999999836" height="0.3447999999999836" fill="#252525" />
<rect x="3.1531999999998526" y="4.552399999999787" width="0.3447999999999836" height="0.3447999999999836" fill="#252525" />
<rect x="-0.02666666666666667" y="-0.02666666666666667" width="3.5513333333331696" height="4.950533333333104" fill="none" stroke="#111111ff" stroke-width="0.08" />
<text x="3.4979999999998364" y="5.365949999999771" font-size="0.375" fill="black" text-anchor="end" font-family="Anuphan">10x14</text>
<text x="-0.037500000000000006" y="5.365949999999771" font-size="0.375" fill="black" text-anchor="start" font-family="Anuphan" font-weight="600">Test 1</text>
</g>
<g id="d5">
<rect x="0.005" y="0.005" width="0.43224999999997954" height="0.43224999999997954" fill="#252525" />
<rect x="0.44224999999997955" y="0.005" width="0.43224999999997954" height="0.43224999999997954" fill="#252525" />
<rect x="0.8794999999999591" y="0.005" width="0.43224999999997954" height="0.43224999999997954" fill="#252525" />
<rect x="1.3167499999999386" y="0.005" width="0.43224999999997954" height="0.43224999999997954" fill="#252525" />
<rect x="1.753999999999918" y="0.005" width="0.43224999999997954" height="0.43224999999997954" fill="#252525" />
<rect x="2.1912499999998976" y="0.005" width="0.43224999999997954" height="0.43224999999997954" fill="#252525" />
<rect x="2.6284999999998773" y="0.005" width="0.43224999999997954" height="0.43224999999997954" fill="#252525" />
<rect x="3.0657499999998565" y="0.005" width="0.43224999999997954" height="0.43224999999997954" fill="#252525" />
<rect x="0.005" y="0.44224999999997955" width="0.43224999999997954" height="0.43224999999997954" fill="#37D449" />
<rect x="0.44224999999997955" y="0.44224999999997955" width="0.43224999999997954" height="0.43224999999997954" fill="#37D449" />
<rect x="0.8794999999999591" y="0.44224999999997955" width="0.43224999999997954" height="0.43224999999997954" fill="#FF4136" />
<rect x="1.3167499999999386" y="0.44224999999997955" width="0.43224999999997954" height="0.43224999999997954" fill="#37D449" />
<rect x="1.753999999999918" y="0.44224999999997955" width="0.43224999999997954" height="0.43224999999997954" fill="#37D449" />
<rect x="2.1912499999998976" y="0.44224999999997955" width="0.43224999999997954" height="0.43224999999997954" fill="#FF4136" />
<rect x="2.6284999999998773" y="0.44224999999997955" width="0.43224999999997954" height="0.43224999999997954" fill="#37D449" />
<rect x="3.0657499999998565" y="0.44224999999997955" width="0.43224999999997954" height="0.43224999999997954" fill="#37D449" />
<rect x="0.005" y="0.8794999999999591" width="0.43224999999997954" height="0.43224999999997954" fill="#252525" />
<rect x="0.44224999999997955" y="0.8794999999999591" width="0.43224999999997954" height="0.43224999999997954" fill="#252525" />
<rect x="0.8794999999999591" y="0.8794999999999591" width="0.43224999999997954" height="0.43224999999997954" fill="#252525" />
<rect x="1.3167499999999386" y="0.8794999999999591" width="0.43224999999997954" height="0.43224999999997954" fill="#252525" />
<rect x="1.753999999999918" y="0.8794999999999591" width="0.43224999999997954" height="0.43224999999997954" fill="#252525" />
<rect x="2.1912499999998976" y="0.8794999999999591" width="0.43224999999997954" height="0.43224999999997954" fill="#252525" />
<rect x="2.6284999999998773" y="0.8794999999999591" width="0.43224999999997954" height="0.43224999999997954" fill="#252525" />
<rect x="3.0657499999998565" y="0.8794999999999591" width="0.43224999999997954" height="0.43224999999997954" fill="#252525" />
<rect x="0.005" y="1.3167499999999386" width="0.43224999999997954" height="0.43224999999997954" fill="#252525" />
<rect x="0.44224999999997955" y="1.3167499999999386" width="0.43224999999997954" height="0.43224999999997954" fill="#252525" />
<rect x="0.8794999999999591" y="1.3167499999999386" width="0.43224999999997954" height="0.43224999999997954" fill="#252525" />
<rect x="1.3167499999999386" y="1.3167499999999386" width="0.43224999999997954" height="0.43224999999997954" fill="#252525" />
<rect x="1.753999999999918" y="1.3167499999999386" width="0.43224999999997954" height="0.43224999999997954" fill="#252525" />
<rect x="2.1912499999998976" y="1.3167499999999386" width="0.43224999999997954" height="0.43224999999997954" fill="#252525" />
<rect x="2.6284999999998773" y="1.3167499999999386" width="0.43224999999997954" height="0.43224999999997954" fill="#252525" />
<rect x="3.0657499999998565" y="1.3167499999999386" width="0.43224999999997954" height="0.43224999999997954" fill="#252525" />
<rect x="0.005" y="1.753999999999918" width="0.43224999999997954" height="0.43224999999997954" fill="#54D2EB" />
<rect x="0.44224999999997955" y="1.753999999999918" width="0.43224999999997954" height="0.43224999999997954" fill="#54D2EB" />
<rect x="0.8794999999999591" y="1.753999999999918" width="0.43224999999997954" height="0.43224999999997954" fill="#FFDC00" />
<rect x="1.3167499999999386" y="1.753999999999918" width="0.43224999999997954" height="0.43224999999997954" fill="#54D2EB" />
<rect x="1.753999999999918" y="1.753999999999918" width="0.43224999999997954" height="0.43224999999997954" fill="#54D2EB" />
<rect x="2.1912499999998976" y="1.753999999999918" width="0.43224999999997954" height="0.43224999999997954" fill="#FFDC00" />
<rect x="2.6284999999998773" y="1.753999999999918" width="0.43224999999997954" height="0.43224999999997954" fill="#54D2EB" />
<rect x="3.0657499999998565" y="1.753999999999918" width="0.43224999999997954" height="0.43224999999997954" fill="#54D2EB" />
<rect x="0.005" y="2.1912499999998976" width="0.43224999999997954" height="0.43224999999997954" fill="#252525" />
<rect x="0.44224999999997955" y="2.1912499999998976" width="0.43224999999997954" height="0.43224999999997954" fill="#252525" />
<rect x="0.8794999999999591" y="2.1912499999998976" width="0.43224999999997954" height="0.43224999999997954" fill="#252525" />
<rect x="1.3167499999999386" y="2.1912499999998976" width="0.43224999999997954" height="0.43224999999997954" fill="#252525" />
<rect x="1.753999999999918" y="2.1912499999998976" width="0.43224999999997954" height="0.43224999999997954" fill="#252525" />
<rect x="2.1912499999998976" y="2.1912499999998976" width="0.43224999999997954" height="0.43224999999997954" fill="#252525" />
<rect x="2.6284999999998773" y="2.1912499999998976" width="0.43224999999997954" height="0.43224999999997954" fill="#252525" />
<rect x="3.0657499999998565" y="2.1912499999998976" width="0.43224999999997954" height="0.43224999999997954" fill="#252525" />
<rect x="0.005" y="2.6284999999998773" width="0.43224999999997954" height="0.43224999999997954" fill="#0074D9" />
<rect x="0.44224999999997955" y="2.6284999999998773" width="0.43224999999997954" height="0.43224999999997954" fill="#0074D9" />
<rect x="0.8794999999999591" y="2.6284999999998773" width="0.43224999999997954" height="0.43224999999997954" fill="#F012BE" />
<rect x="1.3167499999999386" y="2.6284999999998773" width="0.43224999999997954" height="0.43224999999997954" fill="#0074D9" />
<rect x="1.753999999999918" y="2.6284999999998773" width="0.43224999999997954" height="0.43224999999997954" fill="#0074D9" />
<rect x="2.1912499999998976" y="2.6284999999998773" width="0.43224999999997954" height="0.43224999999997954" fill="#F012BE" />
<rect x="2.6284999999998773" y="2.6284999999998773" width="0.43224999999997954" height="0.43224999999997954" fill="#0074D9" />
<rect x="3.0657499999998565" y="2.6284999999998773" width="0.43224999999997954" height="0.43224999999997954" fill="#0074D9" />
<rect x="0.005" y="3.0657499999998565" width="0.43224999999997954" height="0.43224999999997954" fill="#252525" />
<rect x="0.44224999999997955" y="3.0657499999998565" width="0.43224999999997954" height="0.43224999999997954" fill="#252525" />
<rect x="0.8794999999999591" y="3.0657499999998565" width="0.43224999999997954" height="0.43224999999997954" fill="#252525" />
<rect x="1.3167499999999386" y="3.0657499999998565" width="0.43224999999997954" height="0.43224999999997954" fill="#252525" />
<rect x="1.753999999999918" y="3.0657499999998565" width="0.43224999999997954" height="0.43224999999997954" fill="#252525" />
<rect x="2.1912499999998976" y="3.0657499999998565" width="0.43224999999997954" height="0.43224999999997954" fill="#252525" />
<rect x="2.6284999999998773" y="3.0657499999998565" width="0.43224999999997954" height="0.43224999999997954" fill="#252525" />
<rect x="3.0657499999998565" y="3.0657499999998565" width="0.43224999999997954" height="0.43224999999997954" fill="#252525" />
<rect x="0.005" y="3.5029999999998362" width="0.43224999999997954" height="0.43224999999997954" fill="#252525" />
<rect x="0.44224999999997955" y="3.5029999999998362" width="0.43224999999997954" height="0.43224999999997954" fill="#252525" />
<rect x="0.8794999999999591" y="3.5029999999998362" width="0.43224999999997954" height="0.43224999999997954" fill="#252525" />
<rect x="1.3167499999999386" y="3.5029999999998362" width="0.43224999999997954" height="0.43224999999997954" fill="#252525" />
<rect x="1.753999999999918" y="3.5029999999998362" width="0.43224999999997954" height="0.43224999999997954" fill="#252525" />
<rect x="2.1912499999998976" y="3.5029999999998362" width="0.43224999999997954" height="0.43224999999997954" fill="#252525" />
<rect x="2.6284999999998773" y="3.5029999999998362" width="0.43224999999997954" height="0.43224999999997954" fill="#252525" />
<rect x="3.0657499999998565" y="3.5029999999998362" width="0.43224999999997954" height="0.43224999999997954" fill="#252525" />
<rect x="0.005" y="3.940249999999816" width="0.43224999999997954" height="0.43224999999997954" fill="#252525" />
<rect x="0.44224999999997955" y="3.940249999999816" width="0.43224999999997954" height="0.43224999999997954" fill="#252525" />
<rect x="0.8794999999999591" y="3.940249999999816" width="0.43224999999997954" height="0.43224999999997954" fill="#252525" />
<rect x="1.3167499999999386" y="3.940249999999816" width="0.43224999999997954" height="0.43224999999997954" fill="#252525" />
<rect x="1.753999999999918" y="3.940249999999816" width="0.43224999999997954" height="0.43224999999997954" fill="#252525" />
<rect x="2.1912499999998976" y="3.940249999999816" width="0.43224999999997954" height="0.43224999999997954" fill="#252525" />
<rect x="2.6284999999998773" y="3.940249999999816" width="0.43224999999997954" height="0.43224999999997954" fill="#252525" />
<rect x="3.0657499999998565" y="3.940249999999816" width="0.43224999999997954" height="0.43224999999997954" fill="#252525" />
<rect x="-0.02666666666666667" y="-0.02666666666666667" width="3.5513333333331696" height="4.425833333333129" fill="none" stroke="#111111ff" stroke-width="0.08" />
<text x="3.4979999999998364" y="4.841249999999795" font-size="0.375" fill="black" text-anchor="end" font-family="Anuphan">8x10</text>
<text x="-0.037500000000000006" y="4.841249999999795" font-size="0.375" fill="black" text-anchor="start" font-family="Anuphan" font-weight="600">Output 1</text>
</g>
<g id="d6">
<rect x="0.005" y="0.005" width="0.43224999999997954" height="0.43224999999997954" fill="#252525" />
<rect x="0.44224999999997955" y="0.005" width="0.43224999999997954" height="0.43224999999997954" fill="#252525" />
<rect x="0.8794999999999591" y="0.005" width="0.43224999999997954" height="0.43224999999997954" fill="#252525" />
<rect x="1.3167499999999386" y="0.005" width="0.43224999999997954" height="0.43224999999997954" fill="#252525" />
<rect x="1.753999999999918" y="0.005" width="0.43224999999997954" height="0.43224999999997954" fill="#252525" />
<rect x="2.1912499999998976" y="0.005" width="0.43224999999997954" height="0.43224999999997954" fill="#252525" />
<rect x="2.6284999999998773" y="0.005" width="0.43224999999997954" height="0.43224999999997954" fill="#252525" />
<rect x="3.0657499999998565" y="0.005" width="0.43224999999997954" height="0.43224999999997954" fill="#252525" />
<rect x="0.005" y="0.44224999999997955" width="0.43224999999997954" height="0.43224999999997954" fill="#FF4136" />
<rect x="0.44224999999997955" y="0.44224999999997955" width="0.43224999999997954" height="0.43224999999997954" fill="#FF4136" />
<rect x="0.8794999999999591" y="0.44224999999997955" width="0.43224999999997954" height="0.43224999999997954" fill="#0074D9" />
<rect x="1.3167499999999386" y="0.44224999999997955" width="0.43224999999997954" height="0.43224999999997954" fill="#FF4136" />
<rect x="1.753999999999918" y="0.44224999999997955" width="0.43224999999997954" height="0.43224999999997954" fill="#0074D9" />
<rect x="2.1912499999998976" y="0.44224999999997955" width="0.43224999999997954" height="0.43224999999997954" fill="#FF4136" />
<rect x="2.6284999999998773" y="0.44224999999997955" width="0.43224999999997954" height="0.43224999999997954" fill="#0074D9" />
<rect x="3.0657499999998565" y="0.44224999999997955" width="0.43224999999997954" height="0.43224999999997954" fill="#0074D9" />
<rect x="0.005" y="0.8794999999999591" width="0.43224999999997954" height="0.43224999999997954" fill="#252525" />
<rect x="0.44224999999997955" y="0.8794999999999591" width="0.43224999999997954" height="0.43224999999997954" fill="#252525" />
<rect x="0.8794999999999591" y="0.8794999999999591" width="0.43224999999997954" height="0.43224999999997954" fill="#252525" />
<rect x="1.3167499999999386" y="0.8794999999999591" width="0.43224999999997954" height="0.43224999999997954" fill="#252525" />
<rect x="1.753999999999918" y="0.8794999999999591" width="0.43224999999997954" height="0.43224999999997954" fill="#252525" />
<rect x="2.1912499999998976" y="0.8794999999999591" width="0.43224999999997954" height="0.43224999999997954" fill="#252525" />
<rect x="2.6284999999998773" y="0.8794999999999591" width="0.43224999999997954" height="0.43224999999997954" fill="#252525" />
<rect x="3.0657499999998565" y="0.8794999999999591" width="0.43224999999997954" height="0.43224999999997954" fill="#252525" />
<rect x="0.005" y="1.3167499999999386" width="0.43224999999997954" height="0.43224999999997954" fill="#37D449" />
<rect x="0.44224999999997955" y="1.3167499999999386" width="0.43224999999997954" height="0.43224999999997954" fill="#37D449" />
<rect x="0.8794999999999591" y="1.3167499999999386" width="0.43224999999997954" height="0.43224999999997954" fill="#0074D9" />
<rect x="1.3167499999999386" y="1.3167499999999386" width="0.43224999999997954" height="0.43224999999997954" fill="#37D449" />
<rect x="1.753999999999918" y="1.3167499999999386" width="0.43224999999997954" height="0.43224999999997954" fill="#0074D9" />
<rect x="2.1912499999998976" y="1.3167499999999386" width="0.43224999999997954" height="0.43224999999997954" fill="#37D449" />
<rect x="2.6284999999998773" y="1.3167499999999386" width="0.43224999999997954" height="0.43224999999997954" fill="#0074D9" />
<rect x="3.0657499999998565" y="1.3167499999999386" width="0.43224999999997954" height="0.43224999999997954" fill="#0074D9" />
<rect x="0.005" y="1.753999999999918" width="0.43224999999997954" height="0.43224999999997954" fill="#252525" />
<rect x="0.44224999999997955" y="1.753999999999918" width="0.43224999999997954" height="0.43224999999997954" fill="#252525" />
<rect x="0.8794999999999591" y="1.753999999999918" width="0.43224999999997954" height="0.43224999999997954" fill="#252525" />
<rect x="1.3167499999999386" y="1.753999999999918" width="0.43224999999997954" height="0.43224999999997954" fill="#252525" />
<rect x="1.753999999999918" y="1.753999999999918" width="0.43224999999997954" height="0.43224999999997954" fill="#252525" />
<rect x="2.1912499999998976" y="1.753999999999918" width="0.43224999999997954" height="0.43224999999997954" fill="#252525" />
<rect x="2.6284999999998773" y="1.753999999999918" width="0.43224999999997954" height="0.43224999999997954" fill="#252525" />
<rect x="3.0657499999998565" y="1.753999999999918" width="0.43224999999997954" height="0.43224999999997954" fill="#252525" />
<rect x="0.005" y="2.1912499999998976" width="0.43224999999997954" height="0.43224999999997954" fill="#252525" />
<rect x="0.44224999999997955" y="2.1912499999998976" width="0.43224999999997954" height="0.43224999999997954" fill="#252525" />
<rect x="0.8794999999999591" y="2.1912499999998976" width="0.43224999999997954" height="0.43224999999997954" fill="#252525" />
<rect x="1.3167499999999386" y="2.1912499999998976" width="0.43224999999997954" height="0.43224999999997954" fill="#252525" />
<rect x="1.753999999999918" y="2.1912499999998976" width="0.43224999999997954" height="0.43224999999997954" fill="#252525" />
<rect x="2.1912499999998976" y="2.1912499999998976" width="0.43224999999997954" height="0.43224999999997954" fill="#252525" />
<rect x="2.6284999999998773" y="2.1912499999998976" width="0.43224999999997954" height="0.43224999999997954" fill="#252525" />
<rect x="3.0657499999998565" y="2.1912499999998976" width="0.43224999999997954" height="0.43224999999997954" fill="#252525" />
<rect x="0.005" y="2.6284999999998773" width="0.43224999999997954" height="0.43224999999997954" fill="#252525" />
<rect x="0.44224999999997955" y="2.6284999999998773" width="0.43224999999997954" height="0.43224999999997954" fill="#252525" />
<rect x="0.8794999999999591" y="2.6284999999998773" width="0.43224999999997954" height="0.43224999999997954" fill="#252525" />
<rect x="1.3167499999999386" y="2.6284999999998773" width="0.43224999999997954" height="0.43224999999997954" fill="#252525" />
<rect x="1.753999999999918" y="2.6284999999998773" width="0.43224999999997954" height="0.43224999999997954" fill="#252525" />
<rect x="2.1912499999998976" y="2.6284999999998773" width="0.43224999999997954" height="0.43224999999997954" fill="#252525" />
<rect x="2.6284999999998773" y="2.6284999999998773" width="0.43224999999997954" height="0.43224999999997954" fill="#252525" />
<rect x="3.0657499999998565" y="2.6284999999998773" width="0.43224999999997954" height="0.43224999999997954" fill="#252525" />
<rect x="0.005" y="3.0657499999998565" width="0.43224999999997954" height="0.43224999999997954" fill="#54D2EB" />
<rect x="0.44224999999997955" y="3.0657499999998565" width="0.43224999999997954" height="0.43224999999997954" fill="#54D2EB" />
<rect x="0.8794999999999591" y="3.0657499999998565" width="0.43224999999997954" height="0.43224999999997954" fill="#FF4136" />
<rect x="1.3167499999999386" y="3.0657499999998565" width="0.43224999999997954" height="0.43224999999997954" fill="#54D2EB" />
<rect x="1.753999999999918" y="3.0657499999998565" width="0.43224999999997954" height="0.43224999999997954" fill="#FF4136" />
<rect x="2.1912499999998976" y="3.0657499999998565" width="0.43224999999997954" height="0.43224999999997954" fill="#54D2EB" />
<rect x="2.6284999999998773" y="3.0657499999998565" width="0.43224999999997954" height="0.43224999999997954" fill="#FF4136" />
<rect x="3.0657499999998565" y="3.0657499999998565" width="0.43224999999997954" height="0.43224999999997954" fill="#FF4136" />
<rect x="0.005" y="3.5029999999998362" width="0.43224999999997954" height="0.43224999999997954" fill="#252525" />
<rect x="0.44224999999997955" y="3.5029999999998362" width="0.43224999999997954" height="0.43224999999997954" fill="#252525" />
<rect x="0.8794999999999591" y="3.5029999999998362" width="0.43224999999997954" height="0.43224999999997954" fill="#252525" />
<rect x="1.3167499999999386" y="3.5029999999998362" width="0.43224999999997954" height="0.43224999999997954" fill="#252525" />
<rect x="1.753999999999918" y="3.5029999999998362" width="0.43224999999997954" height="0.43224999999997954" fill="#252525" />
<rect x="2.1912499999998976" y="3.5029999999998362" width="0.43224999999997954" height="0.43224999999997954" fill="#252525" />
<rect x="2.6284999999998773" y="3.5029999999998362" width="0.43224999999997954" height="0.43224999999997954" fill="#252525" />
<rect x="3.0657499999998565" y="3.5029999999998362" width="0.43224999999997954" height="0.43224999999997954" fill="#252525" />
<rect x="0.005" y="3.940249999999816" width="0.43224999999997954" height="0.43224999999997954" fill="#252525" />
<rect x="0.44224999999997955" y="3.940249999999816" width="0.43224999999997954" height="0.43224999999997954" fill="#252525" />
<rect x="0.8794999999999591" y="3.940249999999816" width="0.43224999999997954" height="0.43224999999997954" fill="#252525" />
<rect x="1.3167499999999386" y="3.940249999999816" width="0.43224999999997954" height="0.43224999999997954" fill="#252525" />
<rect x="1.753999999999918" y="3.940249999999816" width="0.43224999999997954" height="0.43224999999997954" fill="#252525" />
<rect x="2.1912499999998976" y="3.940249999999816" width="0.43224999999997954" height="0.43224999999997954" fill="#252525" />
<rect x="2.6284999999998773" y="3.940249999999816" width="0.43224999999997954" height="0.43224999999997954" fill="#252525" />
<rect x="3.0657499999998565" y="3.940249999999816" width="0.43224999999997954" height="0.43224999999997954" fill="#252525" />
<rect x="-0.02666666666666667" y="-0.02666666666666667" width="3.5513333333331696" height="4.425833333333129" fill="none" stroke="#111111ff" stroke-width="0.08" />
<text x="3.4979999999998364" y="4.841249999999795" font-size="0.375" fill="black" text-anchor="end" font-family="Anuphan">8x10</text>
<text x="-0.037500000000000006" y="4.841249999999795" font-size="0.375" fill="black" text-anchor="start" font-family="Anuphan" font-weight="600">Output 2</text>
</g>
<g id="d7">
<rect x="0.005" y="0.005" width="0.43224999999997954" height="0.43224999999997954" fill="#252525" />
<rect x="0.44224999999997955" y="0.005" width="0.43224999999997954" height="0.43224999999997954" fill="#252525" />
<rect x="0.8794999999999591" y="0.005" width="0.43224999999997954" height="0.43224999999997954" fill="#252525" />
<rect x="1.3167499999999386" y="0.005" width="0.43224999999997954" height="0.43224999999997954" fill="#252525" />
<rect x="1.753999999999918" y="0.005" width="0.43224999999997954" height="0.43224999999997954" fill="#252525" />
<rect x="2.1912499999998976" y="0.005" width="0.43224999999997954" height="0.43224999999997954" fill="#252525" />
<rect x="2.6284999999998773" y="0.005" width="0.43224999999997954" height="0.43224999999997954" fill="#252525" />
<rect x="3.0657499999998565" y="0.005" width="0.43224999999997954" height="0.43224999999997954" fill="#252525" />
<rect x="0.005" y="0.44224999999997955" width="0.43224999999997954" height="0.43224999999997954" fill="#0074D9" />
<rect x="0.44224999999997955" y="0.44224999999997955" width="0.43224999999997954" height="0.43224999999997954" fill="#FFDC00" />
<rect x="0.8794999999999591" y="0.44224999999997955" width="0.43224999999997954" height="0.43224999999997954" fill="#0074D9" />
<rect x="1.3167499999999386" y="0.44224999999997955" width="0.43224999999997954" height="0.43224999999997954" fill="#FFDC00" />
<rect x="1.753999999999918" y="0.44224999999997955" width="0.43224999999997954" height="0.43224999999997954" fill="#FFDC00" />
<rect x="2.1912499999998976" y="0.44224999999997955" width="0.43224999999997954" height="0.43224999999997954" fill="#0074D9" />
<rect x="2.6284999999998773" y="0.44224999999997955" width="0.43224999999997954" height="0.43224999999997954" fill="#FFDC00" />
<rect x="3.0657499999998565" y="0.44224999999997955" width="0.43224999999997954" height="0.43224999999997954" fill="#0074D9" />
<rect x="0.005" y="0.8794999999999591" width="0.43224999999997954" height="0.43224999999997954" fill="#252525" />
<rect x="0.44224999999997955" y="0.8794999999999591" width="0.43224999999997954" height="0.43224999999997954" fill="#252525" />
<rect x="0.8794999999999591" y="0.8794999999999591" width="0.43224999999997954" height="0.43224999999997954" fill="#252525" />
<rect x="1.3167499999999386" y="0.8794999999999591" width="0.43224999999997954" height="0.43224999999997954" fill="#252525" />
<rect x="1.753999999999918" y="0.8794999999999591" width="0.43224999999997954" height="0.43224999999997954" fill="#252525" />
<rect x="2.1912499999998976" y="0.8794999999999591" width="0.43224999999997954" height="0.43224999999997954" fill="#252525" />
<rect x="2.6284999999998773" y="0.8794999999999591" width="0.43224999999997954" height="0.43224999999997954" fill="#252525" />
<rect x="3.0657499999998565" y="0.8794999999999591" width="0.43224999999997954" height="0.43224999999997954" fill="#252525" />
<rect x="0.005" y="1.3167499999999386" width="0.43224999999997954" height="0.43224999999997954" fill="#252525" />
<rect x="0.44224999999997955" y="1.3167499999999386" width="0.43224999999997954" height="0.43224999999997954" fill="#252525" />
<rect x="0.8794999999999591" y="1.3167499999999386" width="0.43224999999997954" height="0.43224999999997954" fill="#252525" />
<rect x="1.3167499999999386" y="1.3167499999999386" width="0.43224999999997954" height="0.43224999999997954" fill="#252525" />
<rect x="1.753999999999918" y="1.3167499999999386" width="0.43224999999997954" height="0.43224999999997954" fill="#252525" />
<rect x="2.1912499999998976" y="1.3167499999999386" width="0.43224999999997954" height="0.43224999999997954" fill="#252525" />
<rect x="2.6284999999998773" y="1.3167499999999386" width="0.43224999999997954" height="0.43224999999997954" fill="#252525" />
<rect x="3.0657499999998565" y="1.3167499999999386" width="0.43224999999997954" height="0.43224999999997954" fill="#252525" />
<rect x="0.005" y="1.753999999999918" width="0.43224999999997954" height="0.43224999999997954" fill="#FF4136" />
<rect x="0.44224999999997955" y="1.753999999999918" width="0.43224999999997954" height="0.43224999999997954" fill="#37D449" />
<rect x="0.8794999999999591" y="1.753999999999918" width="0.43224999999997954" height="0.43224999999997954" fill="#FF4136" />
<rect x="1.3167499999999386" y="1.753999999999918" width="0.43224999999997954" height="0.43224999999997954" fill="#37D449" />
<rect x="1.753999999999918" y="1.753999999999918" width="0.43224999999997954" height="0.43224999999997954" fill="#37D449" />
<rect x="2.1912499999998976" y="1.753999999999918" width="0.43224999999997954" height="0.43224999999997954" fill="#FF4136" />
<rect x="2.6284999999998773" y="1.753999999999918" width="0.43224999999997954" height="0.43224999999997954" fill="#37D449" />
<rect x="3.0657499999998565" y="1.753999999999918" width="0.43224999999997954" height="0.43224999999997954" fill="#FF4136" />
<rect x="0.005" y="2.1912499999998976" width="0.43224999999997954" height="0.43224999999997954" fill="#252525" />
<rect x="0.44224999999997955" y="2.1912499999998976" width="0.43224999999997954" height="0.43224999999997954" fill="#252525" />
<rect x="0.8794999999999591" y="2.1912499999998976" width="0.43224999999997954" height="0.43224999999997954" fill="#252525" />
<rect x="1.3167499999999386" y="2.1912499999998976" width="0.43224999999997954" height="0.43224999999997954" fill="#252525" />
<rect x="1.753999999999918" y="2.1912499999998976" width="0.43224999999997954" height="0.43224999999997954" fill="#252525" />
<rect x="2.1912499999998976" y="2.1912499999998976" width="0.43224999999997954" height="0.43224999999997954" fill="#252525" />
<rect x="2.6284999999998773" y="2.1912499999998976" width="0.43224999999997954" height="0.43224999999997954" fill="#252525" />
<rect x="3.0657499999998565" y="2.1912499999998976" width="0.43224999999997954" height="0.43224999999997954" fill="#252525" />
<rect x="0.005" y="2.6284999999998773" width="0.43224999999997954" height="0.43224999999997954" fill="#54D2EB" />
<rect x="0.44224999999997955" y="2.6284999999998773" width="0.43224999999997954" height="0.43224999999997954" fill="#FF4136" />
<rect x="0.8794999999999591" y="2.6284999999998773" width="0.43224999999997954" height="0.43224999999997954" fill="#54D2EB" />
<rect x="1.3167499999999386" y="2.6284999999998773" width="0.43224999999997954" height="0.43224999999997954" fill="#FF4136" />
<rect x="1.753999999999918" y="2.6284999999998773" width="0.43224999999997954" height="0.43224999999997954" fill="#FF4136" />
<rect x="2.1912499999998976" y="2.6284999999998773" width="0.43224999999997954" height="0.43224999999997954" fill="#54D2EB" />
<rect x="2.6284999999998773" y="2.6284999999998773" width="0.43224999999997954" height="0.43224999999997954" fill="#FF4136" />
<rect x="3.0657499999998565" y="2.6284999999998773" width="0.43224999999997954" height="0.43224999999997954" fill="#54D2EB" />
<rect x="0.005" y="3.0657499999998565" width="0.43224999999997954" height="0.43224999999997954" fill="#252525" />
<rect x="0.44224999999997955" y="3.0657499999998565" width="0.43224999999997954" height="0.43224999999997954" fill="#252525" />
<rect x="0.8794999999999591" y="3.0657499999998565" width="0.43224999999997954" height="0.43224999999997954" fill="#252525" />
<rect x="1.3167499999999386" y="3.0657499999998565" width="0.43224999999997954" height="0.43224999999997954" fill="#252525" />
<rect x="1.753999999999918" y="3.0657499999998565" width="0.43224999999997954" height="0.43224999999997954" fill="#252525" />
<rect x="2.1912499999998976" y="3.0657499999998565" width="0.43224999999997954" height="0.43224999999997954" fill="#252525" />
<rect x="2.6284999999998773" y="3.0657499999998565" width="0.43224999999997954" height="0.43224999999997954" fill="#252525" />
<rect x="3.0657499999998565" y="3.0657499999998565" width="0.43224999999997954" height="0.43224999999997954" fill="#252525" />
<rect x="0.005" y="3.5029999999998362" width="0.43224999999997954" height="0.43224999999997954" fill="#F012BE" />
<rect x="0.44224999999997955" y="3.5029999999998362" width="0.43224999999997954" height="0.43224999999997954" fill="#E6E6E6" />
<rect x="0.8794999999999591" y="3.5029999999998362" width="0.43224999999997954" height="0.43224999999997954" fill="#F012BE" />
<rect x="1.3167499999999386" y="3.5029999999998362" width="0.43224999999997954" height="0.43224999999997954" fill="#E6E6E6" />
<rect x="1.753999999999918" y="3.5029999999998362" width="0.43224999999997954" height="0.43224999999997954" fill="#E6E6E6" />
<rect x="2.1912499999998976" y="3.5029999999998362" width="0.43224999999997954" height="0.43224999999997954" fill="#F012BE" />
<rect x="2.6284999999998773" y="3.5029999999998362" width="0.43224999999997954" height="0.43224999999997954" fill="#E6E6E6" />
<rect x="3.0657499999998565" y="3.5029999999998362" width="0.43224999999997954" height="0.43224999999997954" fill="#F012BE" />
<rect x="0.005" y="3.940249999999816" width="0.43224999999997954" height="0.43224999999997954" fill="#252525" />
<rect x="0.44224999999997955" y="3.940249999999816" width="0.43224999999997954" height="0.43224999999997954" fill="#252525" />
<rect x="0.8794999999999591" y="3.940249999999816" width="0.43224999999997954" height="0.43224999999997954" fill="#252525" />
<rect x="1.3167499999999386" y="3.940249999999816" width="0.43224999999997954" height="0.43224999999997954" fill="#252525" />
<rect x="1.753999999999918" y="3.940249999999816" width="0.43224999999997954" height="0.43224999999997954" fill="#252525" />
<rect x="2.1912499999998976" y="3.940249999999816" width="0.43224999999997954" height="0.43224999999997954" fill="#252525" />
<rect x="2.6284999999998773" y="3.940249999999816" width="0.43224999999997954" height="0.43224999999997954" fill="#252525" />
<rect x="3.0657499999998565" y="3.940249999999816" width="0.43224999999997954" height="0.43224999999997954" fill="#252525" />
<rect x="0.005" y="4.377499999999795" width="0.43224999999997954" height="0.43224999999997954" fill="#252525" />
<rect x="0.44224999999997955" y="4.377499999999795" width="0.43224999999997954" height="0.43224999999997954" fill="#252525" />
<rect x="0.8794999999999591" y="4.377499999999795" width="0.43224999999997954" height="0.43224999999997954" fill="#252525" />
<rect x="1.3167499999999386" y="4.377499999999795" width="0.43224999999997954" height="0.43224999999997954" fill="#252525" />
<rect x="1.753999999999918" y="4.377499999999795" width="0.43224999999997954" height="0.43224999999997954" fill="#252525" />
<rect x="2.1912499999998976" y="4.377499999999795" width="0.43224999999997954" height="0.43224999999997954" fill="#252525" />
<rect x="2.6284999999998773" y="4.377499999999795" width="0.43224999999997954" height="0.43224999999997954" fill="#252525" />
<rect x="3.0657499999998565" y="4.377499999999795" width="0.43224999999997954" height="0.43224999999997954" fill="#252525" />
<rect x="0.005" y="4.8147499999997745" width="0.43224999999997954" height="0.43224999999997954" fill="#252525" />
<rect x="0.44224999999997955" y="4.8147499999997745" width="0.43224999999997954" height="0.43224999999997954" fill="#252525" />
<rect x="0.8794999999999591" y="4.8147499999997745" width="0.43224999999997954" height="0.43224999999997954" fill="#252525" />
<rect x="1.3167499999999386" y="4.8147499999997745" width="0.43224999999997954" height="0.43224999999997954" fill="#252525" />
<rect x="1.753999999999918" y="4.8147499999997745" width="0.43224999999997954" height="0.43224999999997954" fill="#252525" />
<rect x="2.1912499999998976" y="4.8147499999997745" width="0.43224999999997954" height="0.43224999999997954" fill="#252525" />
<rect x="2.6284999999998773" y="4.8147499999997745" width="0.43224999999997954" height="0.43224999999997954" fill="#252525" />
<rect x="3.0657499999998565" y="4.8147499999997745" width="0.43224999999997954" height="0.43224999999997954" fill="#252525" />
<rect x="-0.02666666666666667" y="-0.02666666666666667" width="3.5513333333331696" height="5.300333333333088" fill="none" stroke="#111111ff" stroke-width="0.08" />
<text x="3.4979999999998364" y="5.715749999999755" font-size="0.375" fill="black" text-anchor="end" font-family="Anuphan">8x12</text>
<text x="-0.037500000000000006" y="5.715749999999755" font-size="0.375" fill="black" text-anchor="start" font-family="Anuphan" font-weight="600">Output 3</text>
</g>
<g id="d8">
<rect x="0.005" y="0.005" width="0.43224999999997954" height="0.43224999999997954" fill="#252525" />
<rect x="0.44224999999997955" y="0.005" width="0.43224999999997954" height="0.43224999999997954" fill="#252525" />
<rect x="0.8794999999999591" y="0.005" width="0.43224999999997954" height="0.43224999999997954" fill="#252525" />
<rect x="1.3167499999999386" y="0.005" width="0.43224999999997954" height="0.43224999999997954" fill="#252525" />
<rect x="1.753999999999918" y="0.005" width="0.43224999999997954" height="0.43224999999997954" fill="#252525" />
<rect x="2.1912499999998976" y="0.005" width="0.43224999999997954" height="0.43224999999997954" fill="#252525" />
<rect x="2.6284999999998773" y="0.005" width="0.43224999999997954" height="0.43224999999997954" fill="#252525" />
<rect x="3.0657499999998565" y="0.005" width="0.43224999999997954" height="0.43224999999997954" fill="#252525" />
<rect x="0.005" y="0.44224999999997955" width="0.43224999999997954" height="0.43224999999997954" fill="#37D449" />
<rect x="0.44224999999997955" y="0.44224999999997955" width="0.43224999999997954" height="0.43224999999997954" fill="#37D449" />
<rect x="0.8794999999999591" y="0.44224999999997955" width="0.43224999999997954" height="0.43224999999997954" fill="#FFDC00" />
<rect x="1.3167499999999386" y="0.44224999999997955" width="0.43224999999997954" height="0.43224999999997954" fill="#FFDC00" />
<rect x="1.753999999999918" y="0.44224999999997955" width="0.43224999999997954" height="0.43224999999997954" fill="#FFDC00" />
<rect x="2.1912499999998976" y="0.44224999999997955" width="0.43224999999997954" height="0.43224999999997954" fill="#37D449" />
<rect x="2.6284999999998773" y="0.44224999999997955" width="0.43224999999997954" height="0.43224999999997954" fill="#FFDC00" />
<rect x="3.0657499999998565" y="0.44224999999997955" width="0.43224999999997954" height="0.43224999999997954" fill="#37D449" />
<rect x="0.005" y="0.8794999999999591" width="0.43224999999997954" height="0.43224999999997954" fill="#252525" />
<rect x="0.44224999999997955" y="0.8794999999999591" width="0.43224999999997954" height="0.43224999999997954" fill="#252525" />
<rect x="0.8794999999999591" y="0.8794999999999591" width="0.43224999999997954" height="0.43224999999997954" fill="#252525" />
<rect x="1.3167499999999386" y="0.8794999999999591" width="0.43224999999997954" height="0.43224999999997954" fill="#252525" />
<rect x="1.753999999999918" y="0.8794999999999591" width="0.43224999999997954" height="0.43224999999997954" fill="#252525" />
<rect x="2.1912499999998976" y="0.8794999999999591" width="0.43224999999997954" height="0.43224999999997954" fill="#252525" />
<rect x="2.6284999999998773" y="0.8794999999999591" width="0.43224999999997954" height="0.43224999999997954" fill="#252525" />
<rect x="3.0657499999998565" y="0.8794999999999591" width="0.43224999999997954" height="0.43224999999997954" fill="#252525" />
<rect x="0.005" y="1.3167499999999386" width="0.43224999999997954" height="0.43224999999997954" fill="#252525" />
<rect x="0.44224999999997955" y="1.3167499999999386" width="0.43224999999997954" height="0.43224999999997954" fill="#252525" />
<rect x="0.8794999999999591" y="1.3167499999999386" width="0.43224999999997954" height="0.43224999999997954" fill="#252525" />
<rect x="1.3167499999999386" y="1.3167499999999386" width="0.43224999999997954" height="0.43224999999997954" fill="#252525" />
<rect x="1.753999999999918" y="1.3167499999999386" width="0.43224999999997954" height="0.43224999999997954" fill="#252525" />
<rect x="2.1912499999998976" y="1.3167499999999386" width="0.43224999999997954" height="0.43224999999997954" fill="#252525" />
<rect x="2.6284999999998773" y="1.3167499999999386" width="0.43224999999997954" height="0.43224999999997954" fill="#252525" />
<rect x="3.0657499999998565" y="1.3167499999999386" width="0.43224999999997954" height="0.43224999999997954" fill="#252525" />
<rect x="0.005" y="1.753999999999918" width="0.43224999999997954" height="0.43224999999997954" fill="#54D2EB" />
<rect x="0.44224999999997955" y="1.753999999999918" width="0.43224999999997954" height="0.43224999999997954" fill="#54D2EB" />
<rect x="0.8794999999999591" y="1.753999999999918" width="0.43224999999997954" height="0.43224999999997954" fill="#FF4136" />
<rect x="1.3167499999999386" y="1.753999999999918" width="0.43224999999997954" height="0.43224999999997954" fill="#FF4136" />
<rect x="1.753999999999918" y="1.753999999999918" width="0.43224999999997954" height="0.43224999999997954" fill="#FF4136" />
<rect x="2.1912499999998976" y="1.753999999999918" width="0.43224999999997954" height="0.43224999999997954" fill="#54D2EB" />
<rect x="2.6284999999998773" y="1.753999999999918" width="0.43224999999997954" height="0.43224999999997954" fill="#FF4136" />
<rect x="3.0657499999998565" y="1.753999999999918" width="0.43224999999997954" height="0.43224999999997954" fill="#54D2EB" />
<rect x="0.005" y="2.1912499999998976" width="0.43224999999997954" height="0.43224999999997954" fill="#252525" />
<rect x="0.44224999999997955" y="2.1912499999998976" width="0.43224999999997954" height="0.43224999999997954" fill="#252525" />
<rect x="0.8794999999999591" y="2.1912499999998976" width="0.43224999999997954" height="0.43224999999997954" fill="#252525" />
<rect x="1.3167499999999386" y="2.1912499999998976" width="0.43224999999997954" height="0.43224999999997954" fill="#252525" />
<rect x="1.753999999999918" y="2.1912499999998976" width="0.43224999999997954" height="0.43224999999997954" fill="#252525" />
<rect x="2.1912499999998976" y="2.1912499999998976" width="0.43224999999997954" height="0.43224999999997954" fill="#252525" />
<rect x="2.6284999999998773" y="2.1912499999998976" width="0.43224999999997954" height="0.43224999999997954" fill="#252525" />
<rect x="3.0657499999998565" y="2.1912499999998976" width="0.43224999999997954" height="0.43224999999997954" fill="#252525" />
<rect x="-0.02666666666666667" y="-0.02666666666666667" width="3.5513333333331696" height="2.6768333333332106" fill="none" stroke="#111111ff" stroke-width="0.08" />
<text x="3.4979999999998364" y="3.0922499999998774" font-size="0.375" fill="black" text-anchor="end" font-family="Anuphan">8x6</text>
<text x="-0.037500000000000006" y="3.0922499999998774" font-size="0.375" fill="black" text-anchor="start" font-family="Anuphan" font-weight="600">Output 4</text>
</g>
</defs>
<rect x="0" y="0" width="100%" height="100%" fill="#eeeff6" />
<use xlink:href="#d0" x="0.25" y="0.25" />
<use xlink:href="#d1" x="4.247999999999836" y="0.25" />
<use xlink:href="#d2" x="8.245999999999672" y="0.25" />
<use xlink:href="#d3" x="12.24399999999951" y="0.25" />
<use xlink:href="#d4" x="16.241999999999344" y="0.25" />
<path d="M1.9989999999999182,6.146999999999755 L1.9989999999999182,6.5469999999997555" stroke-width="0.05" stroke="#888888" />
<path d="M1.8489999999999183,6.346999999999755 L1.9989999999999182,6.5469999999997555" stroke-width="0.05" stroke="#888888" />
<path d="M2.1489999999999183,6.346999999999755 L1.9989999999999182,6.5469999999997555" stroke-width="0.05" stroke="#888888" />
<use xlink:href="#d5" x="0.25" y="6.896999999999755" />
<path d="M5.996999999999755,6.146999999999755 L5.996999999999755,6.5469999999997555" stroke-width="0.05" stroke="#888888" />
<path d="M5.846999999999754,6.346999999999755 L5.996999999999755,6.5469999999997555" stroke-width="0.05" stroke="#888888" />
<path d="M6.146999999999755,6.346999999999755 L5.996999999999755,6.5469999999997555" stroke-width="0.05" stroke="#888888" />
<use xlink:href="#d6" x="4.247999999999836" y="6.896999999999755" />
<path d="M9.99499999999959,6.146999999999755 L9.99499999999959,6.5469999999997555" stroke-width="0.05" stroke="#888888" />
<path d="M9.84499999999959,6.346999999999755 L9.99499999999959,6.5469999999997555" stroke-width="0.05" stroke="#888888" />
<path d="M10.144999999999591,6.346999999999755 L9.99499999999959,6.5469999999997555" stroke-width="0.05" stroke="#888888" />
<use xlink:href="#d7" x="8.245999999999672" y="6.896999999999755" />
<path d="M13.992999999999428,6.146999999999755 L13.992999999999428,6.5469999999997555" stroke-width="0.05" stroke="#888888" />
<path d="M13.842999999999428,6.346999999999755 L13.992999999999428,6.5469999999997555" stroke-width="0.05" stroke="#888888" />
<path d="M14.142999999999429,6.346999999999755 L13.992999999999428,6.5469999999997555" stroke-width="0.05" stroke="#888888" />
<use xlink:href="#d8" x="12.24399999999951" y="6.896999999999755" />
<path d="M17.990999999999264,6.146999999999755 L17.990999999999264,6.5469999999997555" stroke-width="0.05" stroke="#888888" />
<path d="M17.840999999999266,6.346999999999755 L17.990999999999264,6.5469999999997555" stroke-width="0.05" stroke="#888888" />
<path d="M18.140999999999263,6.346999999999755 L17.990999999999264,6.5469999999997555" stroke-width="0.05" stroke="#888888" />
<text x="17.990999999999264" y="9.44559999999964" font-size="1" font-family="Anuphan" font-weight="700" fill="#333333" text-anchor="middle" alignment-baseline="middle">?</text>
<text x="19.9" y="13.0" font-size="0.3" font-family="Anuphan" font-weight="600" fill="#666666" text-anchor="end" alignment-baseline="bottom">Task 82819916</text>
</svg>