<?xml version="1.0" encoding="UTF-8"?>
<svg xmlns="http://www.w3.org/2000/svg" xmlns:xlink="http://www.w3.org/1999/xlink"
     width="800.0" height="371.99999999999994" viewBox="0 0 20.0 9.299999999999999">
<defs>
<g id="d0">
<rect x="0.005" y="0.005" width="0.7445833333333338" height="0.7445833333333338" fill="#0074D9" />
<rect x="0.7545833333333338" y="0.005" width="0.7445833333333338" height="0.7445833333333338" fill="#54D2EB" />
<rect x="1.5041666666666675" y="0.005" width="0.7445833333333338" height="0.7445833333333338" fill="#54D2EB" />
<rect x="2.2537500000000015" y="0.005" width="0.7445833333333338" height="0.7445833333333338" fill="#FF871E" />
<rect x="3.003333333333335" y="0.005" width="0.7445833333333338" height="0.7445833333333338" fill="#FF871E" />
<rect x="3.752916666666669" y="0.005" width="0.7445833333333338" height="0.7445833333333338" fill="#54D2EB" />
<rect x="0.005" y="0.7545833333333338" width="0.7445833333333338" height="0.7445833333333338" fill="#0074D9" />
<rect x="0.7545833333333338" y="0.7545833333333338" width="0.7445833333333338" height="0.7445833333333338" fill="#0074D9" />
<rect x="1.5041666666666675" y="0.7545833333333338" width="0.7445833333333338" height="0.7445833333333338" fill="#FF871E" />
<rect x="2.2537500000000015" y="0.7545833333333338" width="0.7445833333333338" height="0.7445833333333338" fill="#FF871E" />
<rect x="3.003333333333335" y="0.7545833333333338" width="0.7445833333333338" height="0.7445833333333338" fill="#0074D9" />
<rect x="3.752916666666669" y="0.7545833333333338" width="0.7445833333333338" height="0.7445833333333338" fill="#54D2EB" />
<rect x="0.005" y="1.5041666666666675" width="0.7445833333333338" height="0.7445833333333338" fill="#FF871E" />
<rect x="0.7545833333333338" y="1.5041666666666675" width="0.7445833333333338" height="0.7445833333333338" fill="#0074D9" />
<rect x="1.5041666666666675" y="1.5041666666666675" width="0.7445833333333338" height="0.7445833333333338" fill="#0074D9" />
<rect x="2.2537500000000015" y="1.5041666666666675" width="0.7445833333333338" height="0.7445833333333338" fill="#FF871E" />
<rect x="3.003333333333335" y="1.5041666666666675" width="0.7445833333333338" height="0.7445833333333338" fill="#FF871E" />
<rect x="3.752916666666669" y="1.5041666666666675" width="0.7445833333333338" height="0.7445833333333338" fill="#54D2EB" />
<rect x="-0.02666666666666667" y="-0.02666666666666667" width="4.550833333333337" height="2.302083333333335" fill="none" stroke="#111111ff" stroke-width="0.08" />
<text x="4.497500000000003" y="2.7175000000000016" font-size="0.375" fill="black" text-anchor="end" font-family="Anuphan">6x3</text>
<text x="-0.037500000000000006" y="2.7175000000000016" font-size="0.375" fill="black" text-anchor="start" font-family="Anuphan" font-weight="600">Input 1</text>
</g>
<g id="d1">
<rect x="0.005" y="0.005" width="1.119375000000001" height="1.119375000000001" fill="#FF871E" />
<rect x="1.1293750000000007" y="0.005" width="1.119375000000001" height="1.119375000000001" fill="#FF871E" />
<rect x="2.2537500000000015" y="0.005" width="1.119375000000001" height="1.119375000000001" fill="#FF871E" />
<rect x="3.3781250000000025" y="0.005" width="1.119375000000001" height="1.119375000000001" fill="#0074D9" />
<rect x="0.005" y="1.1293750000000007" width="1.119375000000001" height="1.119375000000001" fill="#0074D9" />
<rect x="1.1293750000000007" y="1.1293750000000007" width="1.119375000000001" height="1.119375000000001" fill="#54D2EB" />
<rect x="2.2537500000000015" y="1.1293750000000007" width="1.119375000000001" height="1.119375000000001" fill="#0074D9" />
<rect x="3.3781250000000025" y="1.1293750000000007" width="1.119375000000001" height="1.119375000000001" fill="#FF871E" />
<rect x="0.005" y="2.2537500000000015" width="1.119375000000001" height="1.119375000000001" fill="#FF871E" />
<rect x="1.1293750000000007" y="2.2537500000000015" width="1.119375000000001" height="1.119375000000001" fill="#0074D9" />
<rect x="2.2537500000000015" y="2.2537500000000015" width="1.119375000000001" height="1.119375000000001" fill="#0074D9" />
<rect x="3.3781250000000025" y="2.2537500000000015" width="1.119375000000001" height="1.119375000000001" fill="#FF871E" />
<rect x="-0.02666666666666667" y="-0.02666666666666667" width="4.550833333333337" height="3.426458333333336" fill="none" stroke="#111111ff" stroke-width="0.08" />
<text x="4.497500000000003" y="3.8418750000000026" font-size="0.375" fill="black" text-anchor="end" font-family="Anuphan">4x3</text>
<text x="-0.037500000000000006" y="3.8418750000000026" font-size="0.375" fill="black" text-anchor="start" font-family="Anuphan" font-weight="600">Input 2</text>
</g>
<g id="d2">
<rect x="0.005" y="0.005" width="0.8945000000000006" height="0.8945000000000006" fill="#0074D9" />
<rect x="0.9045000000000006" y="0.005" width="0.8945000000000006" height="0.8945000000000006" fill="#54D2EB" />
<rect x="1.8040000000000012" y="0.005" width="0.8945000000000006" height="0.8945000000000006" fill="#0074D9" />
<rect x="2.703500000000002" y="0.005" width="0.8945000000000006" height="0.8945000000000006" fill="#FF871E" />
<rect x="3.6030000000000024" y="0.005" width="0.8945000000000006" height="0.8945000000000006" fill="#0074D9" />
<rect x="0.005" y="0.9045000000000006" width="0.8945000000000006" height="0.8945000000000006" fill="#FF871E" />
<rect x="0.9045000000000006" y="0.9045000000000006" width="0.8945000000000006" height="0.8945000000000006" fill="#54D2EB" />
<rect x="1.8040000000000012" y="0.9045000000000006" width="0.8945000000000006" height="0.8945000000000006" fill="#54D2EB" />
<rect x="2.703500000000002" y="0.9045000000000006" width="0.8945000000000006" height="0.8945000000000006" fill="#0074D9" />
<rect x="3.6030000000000024" y="0.9045000000000006" width="0.8945000000000006" height="0.8945000000000006" fill="#0074D9" />
<rect x="0.005" y="1.8040000000000012" width="0.8945000000000006" height="0.8945000000000006" fill="#FF871E" />
<rect x="0.9045000000000006" y="1.8040000000000012" width="0.8945000000000006" height="0.8945000000000006" fill="#0074D9" />
<rect x="1.8040000000000012" y="1.8040000000000012" width="0.8945000000000006" height="0.8945000000000006" fill="#54D2EB" />
<rect x="2.703500000000002" y="1.8040000000000012" width="0.8945000000000006" height="0.8945000000000006" fill="#54D2EB" />
<rect x="3.6030000000000024" y="1.8040000000000012" width="0.8945000000000006" height="0.8945000000000006" fill="#FF871E" />
<rect x="-0.02666666666666667" y="-0.02666666666666667" width="4.550833333333337" height="2.751833333333335" fill="none" stroke="#111111ff" stroke-width="0.08" />
<text x="4.497500000000003" y="3.167250000000002" font-size="0.375" fill="black" text-anchor="end" font-family="Anuphan">5x3</text>
<text x="-0.037500000000000006" y="3.167250000000002" font-size="0.375" fill="black" text-anchor="start" font-family="Anuphan" font-weight="600">Input 3</text>
</g>
<g id="d3">
<rect x="0.005" y="0.005" width="0.8945000000000006" height="0.8945000000000006" fill="#0074D9" />
<rect x="0.9045000000000006" y="0.005" width="0.8945000000000006" height="0.8945000000000006" fill="#FF871E" />
<rect x="1.8040000000000012" y="0.005" width="0.8945000000000006" height="0.8945000000000006" fill="#FF871E" />
<rect x="2.703500000000002" y="0.005" width="0.8945000000000006" height="0.8945000000000006" fill="#0074D9" />
<rect x="3.6030000000000024" y="0.005" width="0.8945000000000006" height="0.8945000000000006" fill="#FF871E" />
<rect x="0.005" y="0.9045000000000006" width="0.8945000000000006" height="0.8945000000000006" fill="#54D2EB" />
<rect x="0.9045000000000006" y="0.9045000000000006" width="0.8945000000000006" height="0.8945000000000006" fill="#0074D9" />
<rect x="1.8040000000000012" y="0.9045000000000006" width="0.8945000000000006" height="0.8945000000000006" fill="#FF871E" />
<rect x="2.703500000000002" y="0.9045000000000006" width="0.8945000000000006" height="0.8945000000000006" fill="#FF871E" />
<rect x="3.6030000000000024" y="0.9045000000000006" width="0.8945000000000006" height="0.8945000000000006" fill="#FF871E" />
<rect x="0.005" y="1.8040000000000012" width="0.8945000000000006" height="0.8945000000000006" fill="#54D2EB" />
<rect x="0.9045000000000006" y="1.8040000000000012" width="0.8945000000000006" height="0.8945000000000006" fill="#FF871E" />
<rect x="1.8040000000000012" y="1.8040000000000012" width="0.8945000000000006" height="0.8945000000000006" fill="#0074D9" />
<rect x="2.703500000000002" y="1.8040000000000012" width="0.8945000000000006" height="0.8945000000000006" fill="#FF871E" />
<rect x="3.6030000000000024" y="1.8040000000000012" width="0.8945000000000006" height="0.8945000000000006" fill="#54D2EB" />
<rect x="-0.02666666666666667" y="-0.02666666666666667" width="4.550833333333337" height="2.751833333333335" fill="none" stroke="#111111ff" stroke-width="0.08" />
<text x="4.497500000000003" y="3.167250000000002" font-size="0.375" fill="black" text-anchor="end" font-family="Anuphan">5x3</text>
<text x="-0.037500000000000006" y="3.167250000000002" font-size="0.375" fill="black" text-anchor="start" font-family="Anuphan" font-weight="600">Test 1</text>
</g>
<g id="d4">
<rect x="0.005" y="0.005" width="0.7445833333333338" height="0.7445833333333338" fill="#0074D9" />
<rect x="0.7545833333333338" y="0.005" width="0.7445833333333338" height="0.7445833333333338" fill="#54D2EB" />
<rect x="1.5041666666666675" y="0.005" width="0.7445833333333338" height="0.7445833333333338" fill="#54D2EB" />
<rect x="2.2537500000000015" y="0.005" width="0.7445833333333338" height="0.7445833333333338" fill="#E6E6E6" />
<rect x="3.003333333333335" y="0.005" width="0.7445833333333338" height="0.7445833333333338" fill="#E6E6E6" />
<rect x="3.752916666666669" y="0.005" width="0.7445833333333338" height="0.7445833333333338" fill="#54D2EB" />
<rect x="0.005" y="0.7545833333333338" width="0.7445833333333338" height="0.7445833333333338" fill="#0074D9" />
<rect x="0.7545833333333338" y="0.7545833333333338" width="0.7445833333333338" height="0.7445833333333338" fill="#0074D9" />
<rect x="1.5041666666666675" y="0.7545833333333338" width="0.7445833333333338" height="0.7445833333333338" fill="#E6E6E6" />
<rect x="2.2537500000000015" y="0.7545833333333338" width="0.7445833333333338" height="0.7445833333333338" fill="#E6E6E6" />
<rect x="3.003333333333335" y="0.7545833333333338" width="0.7445833333333338" height="0.7445833333333338" fill="#0074D9" />
<rect x="3.752916666666669" y="0.7545833333333338" width="0.7445833333333338" height="0.7445833333333338" fill="#54D2EB" />
<rect x="0.005" y="1.5041666666666675" width="0.7445833333333338" height="0.7445833333333338" fill="#E6E6E6" />
<rect x="0.7545833333333338" y="1.5041666666666675" width="0.7445833333333338" height="0.7445833333333338" fill="#0074D9" />
<rect x="1.5041666666666675" y="1.5041666666666675" width="0.7445833333333338" height="0.7445833333333338" fill="#0074D9" />
<rect x="2.2537500000000015" y="1.5041666666666675" width="0.7445833333333338" height="0.7445833333333338" fill="#E6E6E6" />
<rect x="3.003333333333335" y="1.5041666666666675" width="0.7445833333333338" height="0.7445833333333338" fill="#E6E6E6" />
<rect x="3.752916666666669" y="1.5041666666666675" width="0.7445833333333338" height="0.7445833333333338" fill="#54D2EB" />
<rect x="-0.02666666666666667" y="-0.02666666666666667" width="4.550833333333337" height="2.302083333333335" fill="none" stroke="#111111ff" stroke-width="0.08" />
<text x="4.497500000000003" y="2.7175000000000016" font-size="0.375" fill="black" text-anchor="end" font-family="Anuphan">6x3</text>
<text x="-0.037500000000000006" y="2.7175000000000016" font-size="0.375" fill="black" text-anchor="start" font-family="Anuphan" font-weight="600">Output 1</text>
</g>
<g id="d5">
<rect x="0.005" y="0.005" width="1.119375000000001" height="1.119375000000001" fill="#E6E6E6" />
<rect x="1.1293750000000007" y="0.005" width="1.119375000000001" height="1.119375000000001" fill="#E6E6E6" />
<rect x="2.2537500000000015" y="0.005" width="1.119375000000001" height="1.119375000000001" fill="#E6E6E6" />
<rect x="3.3781250000000025" y="0.005" width="1.119375000000001" height="1.119375000000001" fill="#0074D9" />
<rect x="0.005" y="1.1293750000000007" width="1.119375000000001" height="1.119375000000001" fill="#0074D9" />
<rect x="1.1293750000000007" y="1.1293750000000007" width="1.119375000000001" height="1.119375000000001" fill="#54D2EB" />
<rect x="2.2537500000000015" y="1.1293750000000007" width="1.119375000000001" height="1.119375000000001" fill="#0074D9" />
<rect x="3.3781250000000025" y="1.1293750000000007" width="1.119375000000001" height="1.119375000000001" fill="#E6E6E6" />
<rect x="0.005" y="2.2537500000000015" width="1.119375000000001" height="1.119375000000001" fill="#E6E6E6" />
<rect x="1.1293750000000007" y="2.2537500000000015" width="1.119375000000001" height="1.119375000000001" fill="#0074D9" />
<rect x="2.2537500000000015" y="2.2537500000000015" width="1.119375000000001" height="1.119375000000001" fill="#0074D9" />
<rect x="3.3781250000000025" y="2.2537500000000015" width="1.119375000000001" height="1.119375000000001" fill="#E6E6E6" />
<rect x="-0.02666666666666667" y="-0.02666666666666667" width="4.550833333333337" height="3.426458333333336" fill="none" stroke="#111111ff" stroke-width="0.08" />
<text x="4.497500000000003" y="3.8418750000000026" font-size="0.375" fill="black" text-anchor="end" font-family="Anuphan">4x3</text>
<text x="-0.037500000000000006" y="3.8418750000000026" font-size="0.375" fill="black" text-anchor="start" font-family="Anuphan" font-weight="600">Output 2</text>
</g>
<g id="d6">
<rect x="0.005" y="0.005" width="0.8945000000000006" height="0.8945000000000006" fill="#0074D9" />
<rect x="0.9045000000000006" y="0.005" width="0.8945000000000006" height="0.8945000000000006" fill="#54D2EB" />
<rect x="1.8040000000000012" y="0.005" width="0.8945000000000006" height="0.8945000000000006" fill="#0074D9" />
<rect x="2.703500000000002" y="0.005" width="0.8945000000000006" height="0.8945000000000006" fill="#E6E6E6" />
<rect x="3.6030000000000024" y="0.005" width="0.8945000000000006" height="0.8945000000000006" fill="#0074D9" />
<rect x="0.005" y="0.9045000000000006" width="0.8945000000000006" height="0.8945000000000006" fill="#E6E6E6" />
<rect x="0.9045000000000006" y="0.9045000000000006" width="0.8945000000000006" height="0.8945000000000006" fill="#54D2EB" />
<rect x="1.8040000000000012" y="0.9045000000000006" width="0.8945000000000006" height="0.8945000000000006" fill="#54D2EB" />
<rect x="2.703500000000002" y="0.9045000000000006" width="0.8945000000000006" height="0.8945000000000006" fill="#0074D9" />
<rect x="3.6030000000000024" y="0.9045000000000006" width="0.8945000000000006" height="0.8945000000000006" fill="#0074D9" />
<rect x="0.005" y="1.8040000000000012" width="0.8945000000000006" height="0.8945000000000006" fill="#E6E6E6" />
<rect x="0.9045000000000006" y="1.8040000000000012" width="0.8945000000000006" height="0.8945000000000006" fill="#0074D9" />
<rect x="1.8040000000000012" y="1.8040000000000012" width="0.8945000000000006" height="0.8945000000000006" fill="#54D2EB" />
<rect x="2.703500000000002" y="1.8040000000000012" width="0.8945000000000006" height="0.8945000000000006" fill="#54D2EB" />
<rect x="3.6030000000000024" y="1.8040000000000012" width="0.8945000000000006" height="0.8945000000000006" fill="#E6E6E6" />
<rect x="-0.02666666666666667" y="-0.02666666666666667" width="4.550833333333337" height="2.751833333333335" fill="none" stroke="#111111ff" stroke-width="0.08" />
<text x="4.497500000000003" y="3.167250000000002" font-size="0.375" fill="black" text-anchor="end" font-family="Anuphan">5x3</text>
<text x="-0.037500000000000006" y="3.167250000000002" font-size="0.375" fill="black" text-anchor="start" font-family="Anuphan" font-weight="600">Output 3</text>
</g>
</defs>
<rect x="0" y="0" width="100%" height="100%" fill="#eeeff6" />
<use xlink:href="#d0" x="0.25" y="0.25" />
<use xlink:href="#d1" x="5.247500000000003" y="0.25" />
<use xlink:href="#d2" x="10.245000000000006" y="0.25" />
<use xlink:href="#d3" x="15.24250000000001" y="0.25" />
<path d="M2.4987500000000016,4.273125000000003 L2.4987500000000016,4.673125000000003" stroke-width="0.05" stroke="#888888" />
<path d="M2.3487500000000017,4.473125000000003 L2.4987500000000016,4.673125000000003" stroke-width="0.05" stroke="#888888" />
<path d="M2.6487500000000015,4.473125000000003 L2.4987500000000016,4.673125000000003" stroke-width="0.05" stroke="#888888" />
<use xlink:href="#d4" x="0.25" y="5.023125000000003" />
<path d="M7.496250000000005,4.273125000000003 L7.496250000000005,4.673125000000003" stroke-width="0.05" stroke="#888888" />
<path d="M7.346250000000005,4.473125000000003 L7.496250000000005,4.673125000000003" stroke-width="0.05" stroke="#888888" />
<path d="M7.6462500000000055,4.473125000000003 L7.496250000000005,4.673125000000003" stroke-width="0.05" stroke="#888888" />
<use xlink:href="#d5" x="5.247500000000003" y="5.023125000000003" />
<path d="M12.493750000000007,4.273125000000003 L12.493750000000007,4.673125000000003" stroke-width="0.05" stroke="#888888" />
<path d="M12.343750000000007,4.473125000000003 L12.493750000000007,4.673125000000003" stroke-width="0.05" stroke="#888888" />
<path d="M12.643750000000008,4.473125000000003 L12.493750000000007,4.673125000000003" stroke-width="0.05" stroke="#888888" />
<use xlink:href="#d6" x="10.245000000000006" y="5.023125000000003" />
<path d="M17.49125000000001,4.273125000000003 L17.49125000000001,4.673125000000003" stroke-width="0.05" stroke="#888888" />
<path d="M17.341250000000013,4.473125000000003 L17.49125000000001,4.673125000000003" stroke-width="0.05" stroke="#888888" />
<path d="M17.64125000000001,4.473125000000003 L17.49125000000001,4.673125000000003" stroke-width="0.05" stroke="#888888" />
<text x="17.49125000000001" y="6.472375000000003" font-size="1" font-family="Anuphan" font-weight="700" fill="#333333" text-anchor="middle" alignment-baseline="middle">?</text>
<text x="19.9" y="9.2" font-size="0.3" font-family="Anuphan" font-weight="600" fill="#666666" text-anchor="end" alignment-baseline="bottom">Task c8f0f002</text>
</svg>