<?xml version="1.0" encoding="UTF-8"?>
<svg xmlns="http://www.w3.org/2000/svg" xmlns:xlink="http://www.w3.org/1999/xlink"
     width="800.0" height="500.0" viewBox="0 0 20.0 12.5">
<defs>
<g id="d0">
<rect x="0.005" y="0.005" width="0.7445833333333338" height="0.7445833333333338" fill="#FFDC00" />
<rect x="0.7545833333333338" y="0.005" width="0.7445833333333338" height="0.7445833333333338" fill="#37D449" />
<rect x="1.5041666666666675" y="0.005" width="0.7445833333333338" height="0.7445833333333338" fill="#F012BE" />
<rect x="2.2537500000000015" y="0.005" width="0.7445833333333338" height="0.7445833333333338" fill="#FFDC00" />
<rect x="3.003333333333335" y="0.005" width="0.7445833333333338" height="0.7445833333333338" fill="#252525" />
<rect x="3.752916666666669" y="0.005" width="0.7445833333333338" height="0.7445833333333338" fill="#F012BE" />
<rect x="0.005" y="0.7545833333333338" width="0.7445833333333338" height="0.7445833333333338" fill="#F012BE" />
<rect x="0.7545833333333338" y="0.7545833333333338" width="0.7445833333333338" height="0.7445833333333338" fill="#252525" />
<rect x="1.5041666666666675" y="0.7545833333333338" width="0.7445833333333338" height="0.7445833333333338" fill="#252525" />
<rect x="2.2537500000000015" y="0.7545833333333338" width="0.7445833333333338" height="0.7445833333333338" fill="#37D449" />
<rect x="3.003333333333335" y="0.7545833333333338" width="0.7445833333333338" height="0.7445833333333338" fill="#37D449" />
<rect x="3.752916666666669" y="0.7545833333333338" width="0.7445833333333338" height="0.7445833333333338" fill="#FFDC00" />
<rect x="0.005" y="1.5041666666666675" width="0.7445833333333338" height="0.7445833333333338" fill="#F012BE" />
<rect x="0.7545833333333338" y="1.5041666666666675" width="0.7445833333333338" height="0.7445833333333338" fill="#FFDC00" />
<rect x="1.5041666666666675" y="1.5041666666666675" width="0.7445833333333338" height="0.7445833333333338" fill="#FFDC00" />
<rect x="2.2537500000000015" y="1.5041666666666675" width="0.7445833333333338" height="0.7445833333333338" fill="#37D449" />
<rect x="3.003333333333335" y="1.5041666666666675" width="0.7445833333333338" height="0.7445833333333338" fill="#37D449" />
<rect x="3.752916666666669" y="1.5041666666666675" width="0.7445833333333338" height="0.7445833333333338" fill="#252525" />
<rect x="0.005" y="2.2537500000000015" width="0.7445833333333338" height="0.7445833333333338" fill="#252525" />
<rect x="0.7545833333333338" y="2.2537500000000015" width="0.7445833333333338" height="0.7445833333333338" fill="#37D449" />
<rect x="1.5041666666666675" y="2.2537500000000015" width="0.7445833333333338" height="0.7445833333333338" fill="#F012BE" />
<rect x="2.2537500000000015" y="2.2537500000000015" width="0.7445833333333338" height="0.7445833333333338" fill="#252525" />
<rect x="3.003333333333335" y="2.2537500000000015" width="0.7445833333333338" height="0.7445833333333338" fill="#FFDC00" />
<rect x="3.752916666666669" y="2.2537500000000015" width="0.7445833333333338" height="0.7445833333333338" fill="#F012BE" />
<rect x="0.005" y="3.003333333333335" width="0.7445833333333338" height="0.7445833333333338" fill="#252525" />
<rect x="0.7545833333333338" y="3.003333333333335" width="0.7445833333333338" height="0.7445833333333338" fill="#F012BE" />
<rect x="1.5041666666666675" y="3.003333333333335" width="0.7445833333333338" height="0.7445833333333338" fill="#37D449" />
<rect x="2.2537500000000015" y="3.003333333333335" width="0.7445833333333338" height="0.7445833333333338" fill="#252525" />
<rect x="3.003333333333335" y="3.003333333333335" width="0.7445833333333338" height="0.7445833333333338" fill="#FFDC00" />
<rect x="3.752916666666669" y="3.003333333333335" width="0.7445833333333338" height="0.7445833333333338" fill="#37D449" />
<rect x="0.005" y="3.752916666666669" width="0.7445833333333338" height="0.7445833333333338" fill="#37D449" />
<rect x="0.7545833333333338" y="3.752916666666669" width="0.7445833333333338" height="0.7445833333333338" fill="#FFDC00" />
<rect x="1.5041666666666675" y="3.752916666666669" width="0.7445833333333338" height="0.7445833333333338" fill="#FFDC00" />
<rect x="2.2537500000000015" y="3.752916666666669" width="0.7445833333333338" height="0.7445833333333338" fill="#F012BE" />
<rect x="3.003333333333335" y="3.752916666666669" width="0.7445833333333338" height="0.7445833333333338" fill="#F012BE" />
<rect x="3.752916666666669" y="3.752916666666669" width="0.7445833333333338" height="0.7445833333333338" fill="#252525" />
<rect x="-0.02666666666666667" y="-0.02666666666666667" width="4.550833333333337" height="4.550833333333337" fill="none" stroke="#111111ff" stroke-width="0.08" />
<text x="4.497500000000003" y="4.966250000000003" font-size="0.375" fill="black" text-anchor="end" font-family="Anuphan">6x6</text>
<text x="-0.037500000000000006" y="4.966250000000003" font-size="0.375" fill="black" text-anchor="start" font-family="Anuphan" font-weight="600">Input 1</text>
</g>
<g id="d1">
<rect x="0.005" y="0.005" width="0.5571875000000004" height="0.5571875000000004" fill="#FF4136" />
<rect x="0.5671875000000004" y="0.005" width="0.5571875000000004" height="0.5571875000000004" fill="#FFDC00" />
<rect x="1.1293750000000007" y="0.005" width="0.5571875000000004" height="0.5571875000000004" fill="#FF4136" />
<rect x="1.6915625000000012" y="0.005" width="0.5571875000000004" height="0.5571875000000004" fill="#FF4136" />
<rect x="2.2537500000000015" y="0.005" width="0.5571875000000004" height="0.5571875000000004" fill="#E6E6E6" />
<rect x="2.8159375000000018" y="0.005" width="0.5571875000000004" height="0.5571875000000004" fill="#FF4136" />
<rect x="3.3781250000000025" y="0.005" width="0.5571875000000004" height="0.5571875000000004" fill="#FFDC00" />
<rect x="3.9403125000000028" y="0.005" width="0.5571875000000004" height="0.5571875000000004" fill="#E6E6E6" />
<rect x="0.005" y="0.5671875000000004" width="0.5571875000000004" height="0.5571875000000004" fill="#FF4136" />
<rect x="0.5671875000000004" y="0.5671875000000004" width="0.5571875000000004" height="0.5571875000000004" fill="#E6E6E6" />
<rect x="1.1293750000000007" y="0.5671875000000004" width="0.5571875000000004" height="0.5571875000000004" fill="#E6E6E6" />
<rect x="1.6915625000000012" y="0.5671875000000004" width="0.5571875000000004" height="0.5571875000000004" fill="#FFDC00" />
<rect x="2.2537500000000015" y="0.5671875000000004" width="0.5571875000000004" height="0.5571875000000004" fill="#FFDC00" />
<rect x="2.8159375000000018" y="0.5671875000000004" width="0.5571875000000004" height="0.5571875000000004" fill="#FF4136" />
<rect x="3.3781250000000025" y="0.5671875000000004" width="0.5571875000000004" height="0.5571875000000004" fill="#FF4136" />
<rect x="3.9403125000000028" y="0.5671875000000004" width="0.5571875000000004" height="0.5571875000000004" fill="#FF4136" />
<rect x="0.005" y="1.1293750000000007" width="0.5571875000000004" height="0.5571875000000004" fill="#FFDC00" />
<rect x="0.5671875000000004" y="1.1293750000000007" width="0.5571875000000004" height="0.5571875000000004" fill="#E6E6E6" />
<rect x="1.1293750000000007" y="1.1293750000000007" width="0.5571875000000004" height="0.5571875000000004" fill="#E6E6E6" />
<rect x="1.6915625000000012" y="1.1293750000000007" width="0.5571875000000004" height="0.5571875000000004" fill="#FF4136" />
<rect x="2.2537500000000015" y="1.1293750000000007" width="0.5571875000000004" height="0.5571875000000004" fill="#FF4136" />
<rect x="2.8159375000000018" y="1.1293750000000007" width="0.5571875000000004" height="0.5571875000000004" fill="#FF4136" />
<rect x="3.3781250000000025" y="1.1293750000000007" width="0.5571875000000004" height="0.5571875000000004" fill="#FF4136" />
<rect x="3.9403125000000028" y="1.1293750000000007" width="0.5571875000000004" height="0.5571875000000004" fill="#FFDC00" />
<rect x="0.005" y="1.6915625000000012" width="0.5571875000000004" height="0.5571875000000004" fill="#FF4136" />
<rect x="0.5671875000000004" y="1.6915625000000012" width="0.5571875000000004" height="0.5571875000000004" fill="#FF4136" />
<rect x="1.1293750000000007" y="1.6915625000000012" width="0.5571875000000004" height="0.5571875000000004" fill="#FFDC00" />
<rect x="1.6915625000000012" y="1.6915625000000012" width="0.5571875000000004" height="0.5571875000000004" fill="#FF4136" />
<rect x="2.2537500000000015" y="1.6915625000000012" width="0.5571875000000004" height="0.5571875000000004" fill="#E6E6E6" />
<rect x="2.8159375000000018" y="1.6915625000000012" width="0.5571875000000004" height="0.5571875000000004" fill="#FFDC00" />
<rect x="3.3781250000000025" y="1.6915625000000012" width="0.5571875000000004" height="0.5571875000000004" fill="#FF4136" />
<rect x="3.9403125000000028" y="1.6915625000000012" width="0.5571875000000004" height="0.5571875000000004" fill="#E6E6E6" />
<rect x="0.005" y="2.2537500000000015" width="0.5571875000000004" height="0.5571875000000004" fill="#FF4136" />
<rect x="0.5671875000000004" y="2.2537500000000015" width="0.5571875000000004" height="0.5571875000000004" fill="#FFDC00" />
<rect x="1.1293750000000007" y="2.2537500000000015" width="0.5571875000000004" height="0.5571875000000004" fill="#FF4136" />
<rect x="1.6915625000000012" y="2.2537500000000015" width="0.5571875000000004" height="0.5571875000000004" fill="#FF4136" />
<rect x="2.2537500000000015" y="2.2537500000000015" width="0.5571875000000004" height="0.5571875000000004" fill="#E6E6E6" />
<rect x="2.8159375000000018" y="2.2537500000000015" width="0.5571875000000004" height="0.5571875000000004" fill="#FF4136" />
<rect x="3.3781250000000025" y="2.2537500000000015" width="0.5571875000000004" height="0.5571875000000004" fill="#FFDC00" />
<rect x="3.9403125000000028" y="2.2537500000000015" width="0.5571875000000004" height="0.5571875000000004" fill="#E6E6E6" />
<rect x="0.005" y="2.8159375000000018" width="0.5571875000000004" height="0.5571875000000004" fill="#FF4136" />
<rect x="0.5671875000000004" y="2.8159375000000018" width="0.5571875000000004" height="0.5571875000000004" fill="#E6E6E6" />
<rect x="1.1293750000000007" y="2.8159375000000018" width="0.5571875000000004" height="0.5571875000000004" fill="#E6E6E6" />
<rect x="1.6915625000000012" y="2.8159375000000018" width="0.5571875000000004" height="0.5571875000000004" fill="#FFDC00" />
<rect x="2.2537500000000015" y="2.8159375000000018" width="0.5571875000000004" height="0.5571875000000004" fill="#FFDC00" />
<rect x="2.8159375000000018" y="2.8159375000000018" width="0.5571875000000004" height="0.5571875000000004" fill="#FF4136" />
<rect x="3.3781250000000025" y="2.8159375000000018" width="0.5571875000000004" height="0.5571875000000004" fill="#FF4136" />
<rect x="3.9403125000000028" y="2.8159375000000018" width="0.5571875000000004" height="0.5571875000000004" fill="#FF4136" />
<rect x="0.005" y="3.3781250000000025" width="0.5571875000000004" height="0.5571875000000004" fill="#FFDC00" />
<rect x="0.5671875000000004" y="3.3781250000000025" width="0.5571875000000004" height="0.5571875000000004" fill="#E6E6E6" />
<rect x="1.1293750000000007" y="3.3781250000000025" width="0.5571875000000004" height="0.5571875000000004" fill="#E6E6E6" />
<rect x="1.6915625000000012" y="3.3781250000000025" width="0.5571875000000004" height="0.5571875000000004" fill="#FF4136" />
<rect x="2.2537500000000015" y="3.3781250000000025" width="0.5571875000000004" height="0.5571875000000004" fill="#FF4136" />
<rect x="2.8159375000000018" y="3.3781250000000025" width="0.5571875000000004" height="0.5571875000000004" fill="#FF4136" />
<rect x="3.3781250000000025" y="3.3781250000000025" width="0.5571875000000004" height="0.5571875000000004" fill="#FF4136" />
<rect x="3.9403125000000028" y="3.3781250000000025" width="0.5571875000000004" height="0.5571875000000004" fill="#FFDC00" />
<rect x="0.005" y="3.9403125000000028" width="0.5571875000000004" height="0.5571875000000004" fill="#FF4136" />
<rect x="0.5671875000000004" y="3.9403125000000028" width="0.5571875000000004" height="0.5571875000000004" fill="#FF4136" />
<rect x="1.1293750000000007" y="3.9403125000000028" width="0.5571875000000004" height="0.5571875000000004" fill="#FFDC00" />
<rect x="1.6915625000000012" y="3.9403125000000028" width="0.5571875000000004" height="0.5571875000000004" fill="#FF4136" />
<rect x="2.2537500000000015" y="3.9403125000000028" width="0.5571875000000004" height="0.5571875000000004" fill="#E6E6E6" />
<rect x="2.8159375000000018" y="3.9403125000000028" width="0.5571875000000004" height="0.5571875000000004" fill="#FFDC00" />
<rect x="3.3781250000000025" y="3.9403125000000028" width="0.5571875000000004" height="0.5571875000000004" fill="#FF4136" />
<rect x="3.9403125000000028" y="3.9403125000000028" width="0.5571875000000004" height="0.5571875000000004" fill="#E6E6E6" />
<rect x="-0.02666666666666667" y="-0.02666666666666667" width="4.550833333333337" height="4.550833333333337" fill="none" stroke="#111111ff" stroke-width="0.08" />
<text x="4.497500000000003" y="4.966250000000003" font-size="0.375" fill="black" text-anchor="end" font-family="Anuphan">8x8</text>
<text x="-0.037500000000000006" y="4.966250000000003" font-size="0.375" fill="black" text-anchor="start" font-family="Anuphan" font-weight="600">Input 2</text>
</g>
<g id="d2">
<rect x="0.005" y="0.005" width="0.44708333333333333" height="0.44708333333333333" fill="#37D449" />
<rect x="0.45708333333333334" y="0.005" width="0.44708333333333333" height="0.44708333333333333" fill="#FF4136" />
<rect x="0.9091666666666667" y="0.005" width="0.44708333333333333" height="0.44708333333333333" fill="#0074D9" />
<rect x="1.3612499999999998" y="0.005" width="0.44708333333333333" height="0.44708333333333333" fill="#37D449" />
<rect x="1.8133333333333332" y="0.005" width="0.44708333333333333" height="0.44708333333333333" fill="#FFDC00" />
<rect x="2.2654166666666664" y="0.005" width="0.44708333333333333" height="0.44708333333333333" fill="#0074D9" />
<rect x="0.005" y="0.45708333333333334" width="0.44708333333333333" height="0.44708333333333333" fill="#0074D9" />
<rect x="0.45708333333333334" y="0.45708333333333334" width="0.44708333333333333" height="0.44708333333333333" fill="#FFDC00" />
<rect x="0.9091666666666667" y="0.45708333333333334" width="0.44708333333333333" height="0.44708333333333333" fill="#FFDC00" />
<rect x="1.3612499999999998" y="0.45708333333333334" width="0.44708333333333333" height="0.44708333333333333" fill="#FF4136" />
<rect x="1.8133333333333332" y="0.45708333333333334" width="0.44708333333333333" height="0.44708333333333333" fill="#FF4136" />
<rect x="2.2654166666666664" y="0.45708333333333334" width="0.44708333333333333" height="0.44708333333333333" fill="#37D449" />
<rect x="0.005" y="0.9091666666666667" width="0.44708333333333333" height="0.44708333333333333" fill="#0074D9" />
<rect x="0.45708333333333334" y="0.9091666666666667" width="0.44708333333333333" height="0.44708333333333333" fill="#37D449" />
<rect x="0.9091666666666667" y="0.9091666666666667" width="0.44708333333333333" height="0.44708333333333333" fill="#37D449" />
<rect x="1.3612499999999998" y="0.9091666666666667" width="0.44708333333333333" height="0.44708333333333333" fill="#FF4136" />
<rect x="1.8133333333333332" y="0.9091666666666667" width="0.44708333333333333" height="0.44708333333333333" fill="#FF4136" />
<rect x="2.2654166666666664" y="0.9091666666666667" width="0.44708333333333333" height="0.44708333333333333" fill="#FFDC00" />
<rect x="0.005" y="1.3612499999999998" width="0.44708333333333333" height="0.44708333333333333" fill="#FFDC00" />
<rect x="0.45708333333333334" y="1.3612499999999998" width="0.44708333333333333" height="0.44708333333333333" fill="#FF4136" />
<rect x="0.9091666666666667" y="1.3612499999999998" width="0.44708333333333333" height="0.44708333333333333" fill="#0074D9" />
<rect x="1.3612499999999998" y="1.3612499999999998" width="0.44708333333333333" height="0.44708333333333333" fill="#FFDC00" />
<rect x="1.8133333333333332" y="1.3612499999999998" width="0.44708333333333333" height="0.44708333333333333" fill="#37D449" />
<rect x="2.2654166666666664" y="1.3612499999999998" width="0.44708333333333333" height="0.44708333333333333" fill="#0074D9" />
<rect x="0.005" y="1.8133333333333332" width="0.44708333333333333" height="0.44708333333333333" fill="#FFDC00" />
<rect x="0.45708333333333334" y="1.8133333333333332" width="0.44708333333333333" height="0.44708333333333333" fill="#0074D9" />
<rect x="0.9091666666666667" y="1.8133333333333332" width="0.44708333333333333" height="0.44708333333333333" fill="#FF4136" />
<rect x="1.3612499999999998" y="1.8133333333333332" width="0.44708333333333333" height="0.44708333333333333" fill="#FFDC00" />
<rect x="1.8133333333333332" y="1.8133333333333332" width="0.44708333333333333" height="0.44708333333333333" fill="#37D449" />
<rect x="2.2654166666666664" y="1.8133333333333332" width="0.44708333333333333" height="0.44708333333333333" fill="#FF4136" />
<rect x="0.005" y="2.2654166666666664" width="0.44708333333333333" height="0.44708333333333333" fill="#FF4136" />
<rect x="0.45708333333333334" y="2.2654166666666664" width="0.44708333333333333" height="0.44708333333333333" fill="#37D449" />
<rect x="0.9091666666666667" y="2.2654166666666664" width="0.44708333333333333" height="0.44708333333333333" fill="#37D449" />
<rect x="1.3612499999999998" y="2.2654166666666664" width="0.44708333333333333" height="0.44708333333333333" fill="#0074D9" />
<rect x="1.8133333333333332" y="2.2654166666666664" width="0.44708333333333333" height="0.44708333333333333" fill="#0074D9" />
<rect x="2.2654166666666664" y="2.2654166666666664" width="0.44708333333333333" height="0.44708333333333333" fill="#FFDC00" />
<rect x="0.005" y="2.7175" width="0.44708333333333333" height="0.44708333333333333" fill="#FF4136" />
<rect x="0.45708333333333334" y="2.7175" width="0.44708333333333333" height="0.44708333333333333" fill="#FFDC00" />
<rect x="0.9091666666666667" y="2.7175" width="0.44708333333333333" height="0.44708333333333333" fill="#FFDC00" />
<rect x="1.3612499999999998" y="2.7175" width="0.44708333333333333" height="0.44708333333333333" fill="#0074D9" />
<rect x="1.8133333333333332" y="2.7175" width="0.44708333333333333" height="0.44708333333333333" fill="#0074D9" />
<rect x="2.2654166666666664" y="2.7175" width="0.44708333333333333" height="0.44708333333333333" fill="#37D449" />
<rect x="0.005" y="3.169583333333333" width="0.44708333333333333" height="0.44708333333333333" fill="#37D449" />
<rect x="0.45708333333333334" y="3.169583333333333" width="0.44708333333333333" height="0.44708333333333333" fill="#0074D9" />
<rect x="0.9091666666666667" y="3.169583333333333" width="0.44708333333333333" height="0.44708333333333333" fill="#FF4136" />
<rect x="1.3612499999999998" y="3.169583333333333" width="0.44708333333333333" height="0.44708333333333333" fill="#37D449" />
<rect x="1.8133333333333332" y="3.169583333333333" width="0.44708333333333333" height="0.44708333333333333" fill="#FFDC00" />
<rect x="2.2654166666666664" y="3.169583333333333" width="0.44708333333333333" height="0.44708333333333333" fill="#FF4136" />
<rect x="0.005" y="3.6216666666666666" width="0.44708333333333333" height="0.44708333333333333" fill="#37D449" />
<rect x="0.45708333333333334" y="3.6216666666666666" width="0.44708333333333333" height="0.44708333333333333" fill="#FF4136" />
<rect x="0.9091666666666667" y="3.6216666666666666" width="0.44708333333333333" height="0.44708333333333333" fill="#0074D9" />
<rect x="1.3612499999999998" y="3.6216666666666666" width="0.44708333333333333" height="0.44708333333333333" fill="#37D449" />
<rect x="1.8133333333333332" y="3.6216666666666666" width="0.44708333333333333" height="0.44708333333333333" fill="#FFDC00" />
<rect x="2.2654166666666664" y="3.6216666666666666" width="0.44708333333333333" height="0.44708333333333333" fill="#0074D9" />
<rect x="0.005" y="4.0737499999999995" width="0.44708333333333333" height="0.44708333333333333" fill="#0074D9" />
<rect x="0.45708333333333334" y="4.0737499999999995" width="0.44708333333333333" height="0.44708333333333333" fill="#FFDC00" />
<rect x="0.9091666666666667" y="4.0737499999999995" width="0.44708333333333333" height="0.44708333333333333" fill="#FFDC00" />
<rect x="1.3612499999999998" y="4.0737499999999995" width="0.44708333333333333" height="0.44708333333333333" fill="#FF4136" />
<rect x="1.8133333333333332" y="4.0737499999999995" width="0.44708333333333333" height="0.44708333333333333" fill="#FF4136" />
<rect x="2.2654166666666664" y="4.0737499999999995" width="0.44708333333333333" height="0.44708333333333333" fill="#37D449" />
<rect x="0.005" y="4.525833333333333" width="0.44708333333333333" height="0.44708333333333333" fill="#0074D9" />
<rect x="0.45708333333333334" y="4.525833333333333" width="0.44708333333333333" height="0.44708333333333333" fill="#37D449" />
<rect x="0.9091666666666667" y="4.525833333333333" width="0.44708333333333333" height="0.44708333333333333" fill="#37D449" />
<rect x="1.3612499999999998" y="4.525833333333333" width="0.44708333333333333" height="0.44708333333333333" fill="#FF4136" />
<rect x="1.8133333333333332" y="4.525833333333333" width="0.44708333333333333" height="0.44708333333333333" fill="#FF4136" />
<rect x="2.2654166666666664" y="4.525833333333333" width="0.44708333333333333" height="0.44708333333333333" fill="#FFDC00" />
<rect x="0.005" y="4.977916666666666" width="0.44708333333333333" height="0.44708333333333333" fill="#FFDC00" />
<rect x="0.45708333333333334" y="4.977916666666666" width="0.44708333333333333" height="0.44708333333333333" fill="#FF4136" />
<rect x="0.9091666666666667" y="4.977916666666666" width="0.44708333333333333" height="0.44708333333333333" fill="#0074D9" />
<rect x="1.3612499999999998" y="4.977916666666666" width="0.44708333333333333" height="0.44708333333333333" fill="#FFDC00" />
<rect x="1.8133333333333332" y="4.977916666666666" width="0.44708333333333333" height="0.44708333333333333" fill="#37D449" />
<rect x="2.2654166666666664" y="4.977916666666666" width="0.44708333333333333" height="0.44708333333333333" fill="#0074D9" />
<rect x="-0.02666666666666667" y="-0.02666666666666667" width="2.765833333333333" height="5.4783333333333335" fill="none" stroke="#111111ff" stroke-width="0.08" />
<text x="2.7125" y="5.89375" font-size="0.375" fill="black" text-anchor="end" font-family="Anuphan">6x12</text>
<text x="-0.037500000000000006" y="5.89375" font-size="0.375" fill="black" text-anchor="start" font-family="Anuphan" font-weight="600">Input 3</text>
</g>
<g id="d3">
<rect x="0.005" y="0.005" width="0.5571875000000004" height="0.5571875000000004" fill="#8D1D2C" />
<rect x="0.5671875000000004" y="0.005" width="0.5571875000000004" height="0.5571875000000004" fill="#F012BE" />
<rect x="1.1293750000000007" y="0.005" width="0.5571875000000004" height="0.5571875000000004" fill="#FF4136" />
<rect x="1.6915625000000012" y="0.005" width="0.5571875000000004" height="0.5571875000000004" fill="#8D1D2C" />
<rect x="2.2537500000000015" y="0.005" width="0.5571875000000004" height="0.5571875000000004" fill="#8D1D2C" />
<rect x="2.8159375000000018" y="0.005" width="0.5571875000000004" height="0.5571875000000004" fill="#FF4136" />
<rect x="3.3781250000000025" y="0.005" width="0.5571875000000004" height="0.5571875000000004" fill="#F012BE" />
<rect x="3.9403125000000028" y="0.005" width="0.5571875000000004" height="0.5571875000000004" fill="#8D1D2C" />
<rect x="0.005" y="0.5671875000000004" width="0.5571875000000004" height="0.5571875000000004" fill="#FF4136" />
<rect x="0.5671875000000004" y="0.5671875000000004" width="0.5571875000000004" height="0.5571875000000004" fill="#8D1D2C" />
<rect x="1.1293750000000007" y="0.5671875000000004" width="0.5571875000000004" height="0.5571875000000004" fill="#8D1D2C" />
<rect x="1.6915625000000012" y="0.5671875000000004" width="0.5571875000000004" height="0.5571875000000004" fill="#F012BE" />
<rect x="2.2537500000000015" y="0.5671875000000004" width="0.5571875000000004" height="0.5571875000000004" fill="#F012BE" />
<rect x="2.8159375000000018" y="0.5671875000000004" width="0.5571875000000004" height="0.5571875000000004" fill="#8D1D2C" />
<rect x="3.3781250000000025" y="0.5671875000000004" width="0.5571875000000004" height="0.5571875000000004" fill="#8D1D2C" />
<rect x="3.9403125000000028" y="0.5671875000000004" width="0.5571875000000004" height="0.5571875000000004" fill="#FF4136" />
<rect x="0.005" y="1.1293750000000007" width="0.5571875000000004" height="0.5571875000000004" fill="#F012BE" />
<rect x="0.5671875000000004" y="1.1293750000000007" width="0.5571875000000004" height="0.5571875000000004" fill="#8D1D2C" />
<rect x="1.1293750000000007" y="1.1293750000000007" width="0.5571875000000004" height="0.5571875000000004" fill="#8D1D2C" />
<rect x="1.6915625000000012" y="1.1293750000000007" width="0.5571875000000004" height="0.5571875000000004" fill="#FF4136" />
<rect x="2.2537500000000015" y="1.1293750000000007" width="0.5571875000000004" height="0.5571875000000004" fill="#FF4136" />
<rect x="2.8159375000000018" y="1.1293750000000007" width="0.5571875000000004" height="0.5571875000000004" fill="#8D1D2C" />
<rect x="3.3781250000000025" y="1.1293750000000007" width="0.5571875000000004" height="0.5571875000000004" fill="#8D1D2C" />
<rect x="3.9403125000000028" y="1.1293750000000007" width="0.5571875000000004" height="0.5571875000000004" fill="#F012BE" />
<rect x="0.005" y="1.6915625000000012" width="0.5571875000000004" height="0.5571875000000004" fill="#8D1D2C" />
<rect x="0.5671875000000004" y="1.6915625000000012" width="0.5571875000000004" height="0.5571875000000004" fill="#FF4136" />
<rect x="1.1293750000000007" y="1.6915625000000012" width="0.5571875000000004" height="0.5571875000000004" fill="#F012BE" />
<rect x="1.6915625000000012" y="1.6915625000000012" width="0.5571875000000004" height="0.5571875000000004" fill="#8D1D2C" />
<rect x="2.2537500000000015" y="1.6915625000000012" width="0.5571875000000004" height="0.5571875000000004" fill="#8D1D2C" />
<rect x="2.8159375000000018" y="1.6915625000000012" width="0.5571875000000004" height="0.5571875000000004" fill="#F012BE" />
<rect x="3.3781250000000025" y="1.6915625000000012" width="0.5571875000000004" height="0.5571875000000004" fill="#FF4136" />
<rect x="3.9403125000000028" y="1.6915625000000012" width="0.5571875000000004" height="0.5571875000000004" fill="#8D1D2C" />
<rect x="-0.02666666666666667" y="-0.02666666666666667" width="4.550833333333337" height="2.302083333333335" fill="none" stroke="#111111ff" stroke-width="0.08" />
<text x="4.497500000000003" y="2.7175000000000016" font-size="0.375" fill="black" text-anchor="end" font-family="Anuphan">8x4</text>
<text x="-0.037500000000000006" y="2.7175000000000016" font-size="0.375" fill="black" text-anchor="start" font-family="Anuphan" font-weight="600">Test 1</text>
</g>
<g id="d4">
<rect x="0.005" y="0.005" width="2.2437500000000017" height="2.2437500000000017" fill="#FFDC00" />
<rect x="2.2537500000000015" y="0.005" width="2.2437500000000017" height="2.2437500000000017" fill="#37D449" />
<rect x="0.005" y="2.2537500000000015" width="2.2437500000000017" height="2.2437500000000017" fill="#F012BE" />
<rect x="2.2537500000000015" y="2.2537500000000015" width="2.2437500000000017" height="2.2437500000000017" fill="#252525" />
<rect x="-0.02666666666666667" y="-0.02666666666666667" width="4.550833333333337" height="4.550833333333337" fill="none" stroke="#111111ff" stroke-width="0.08" />
<text x="4.497500000000003" y="4.966250000000003" font-size="0.375" fill="black" text-anchor="end" font-family="Anuphan">2x2</text>
<text x="-0.037500000000000006" y="4.966250000000003" font-size="0.375" fill="black" text-anchor="start" font-family="Anuphan" font-weight="600">Output 1</text>
</g>
<g id="d5">
<rect x="0.005" y="0.005" width="2.2437500000000017" height="2.2437500000000017" fill="#FF4136" />
<rect x="2.2537500000000015" y="0.005" width="2.2437500000000017" height="2.2437500000000017" fill="#FFDC00" />
<rect x="0.005" y="2.2537500000000015" width="2.2437500000000017" height="2.2437500000000017" fill="#FF4136" />
<rect x="2.2537500000000015" y="2.2537500000000015" width="2.2437500000000017" height="2.2437500000000017" fill="#E6E6E6" />
<rect x="-0.02666666666666667" y="-0.02666666666666667" width="4.550833333333337" height="4.550833333333337" fill="none" stroke="#111111ff" stroke-width="0.08" />
<text x="4.497500000000003" y="4.966250000000003" font-size="0.375" fill="black" text-anchor="end" font-family="Anuphan">2x2</text>
<text x="-0.037500000000000006" y="4.966250000000003" font-size="0.375" fill="black" text-anchor="start" font-family="Anuphan" font-weight="600">Output 2</text>
</g>
<g id="d6">
<rect x="0.005" y="0.005" width="2.2437500000000017" height="2.2437500000000017" fill="#37D449" />
<rect x="2.2537500000000015" y="0.005" width="2.2437500000000017" height="2.2437500000000017" fill="#FF4136" />
<rect x="0.005" y="2.2537500000000015" width="2.2437500000000017" height="2.2437500000000017" fill="#0074D9" />
<rect x="2.2537500000000015" y="2.2537500000000015" width="2.2437500000000017" height="2.2437500000000017" fill="#FFDC00" />
<rect x="-0.02666666666666667" y="-0.02666666666666667" width="4.550833333333337" height="4.550833333333337" fill="none" stroke="#111111ff" stroke-width="0.08" />
<text x="4.497500000000003" y="4.966250000000003" font-size="0.375" fill="black" text-anchor="end" font-family="Anuphan">2x2</text>
<text x="-0.037500000000000006" y="4.966250000000003" font-size="0.375" fill="black" text-anchor="start" font-family="Anuphan" font-weight="600">Output 3</text>
</g>
</defs>
<rect x="0" y="0" width="100%" height="100%" fill="#eeeff6" />
<use xlink:href="#d0" x="0.25" y="0.25" />
<use xlink:href="#d1" x="5.247500000000003" y="0.25" />
<use xlink:href="#d2" x="11.137500000000008" y="0.25" />
<use xlink:href="#d3" x="15.24250000000001" y="0.25" />
<path d="M2.4987500000000016,6.325 L2.4987500000000016,6.7250000000000005" stroke-width="0.05" stroke="#888888" />
<path d="M2.3487500000000017,6.525 L2.4987500000000016,6.7250000000000005" stroke-width="0.05" stroke="#888888" />
<path d="M2.6487500000000015,6.525 L2.4987500000000016,6.7250000000000005" stroke-width="0.05" stroke="#888888" />
<use xlink:href="#d4" x="0.25" y="7.075" />
<path d="M7.496250000000005,6.325 L7.496250000000005,6.7250000000000005" stroke-width="0.05" stroke="#888888" />
<path d="M7.346250000000005,6.525 L7.496250000000005,6.7250000000000005" stroke-width="0.05" stroke="#888888" />
<path d="M7.6462500000000055,6.525 L7.496250000000005,6.7250000000000005" stroke-width="0.05" stroke="#888888" />
<use xlink:href="#d5" x="5.247500000000003" y="7.075" />
<path d="M11.601250000000006,6.325 L11.601250000000006,6.7250000000000005" stroke-width="0.05" stroke="#888888" />
<path d="M11.451250000000005,6.525 L11.601250000000006,6.7250000000000005" stroke-width="0.05" stroke="#888888" />
<path d="M11.751250000000006,6.525 L11.601250000000006,6.7250000000000005" stroke-width="0.05" stroke="#888888" />
<use xlink:href="#d6" x="10.245000000000006" y="7.075" />
<path d="M17.49125000000001,6.325 L17.49125000000001,6.7250000000000005" stroke-width="0.05" stroke="#888888" />
<path d="M17.341250000000013,6.525 L17.49125000000001,6.7250000000000005" stroke-width="0.05" stroke="#888888" />
<path d="M17.64125000000001,6.525 L17.49125000000001,6.7250000000000005" stroke-width="0.05" stroke="#888888" />
<text x="17.49125000000001" y="9.423750000000002" font-size="1" font-family="Anuphan" font-weight="700" fill="#333333" text-anchor="middle" alignment-baseline="middle">?</text>
<text x="19.9" y="12.4" font-size="0.3" font-family="Anuphan" font-weight="600" fill="#666666" text-anchor="end" alignment-baseline="bottom">Task d10ecb37</text>
</svg>