<?xml version="1.0" encoding="UTF-8"?>
<svg xmlns="http://www.w3.org/2000/svg" xmlns:xlink="http://www.w3.org/1999/xlink"
     width="800.0" height="284.0" viewBox="0 0 20.0 7.1000000000000005">
<defs>
<g id="d0">
<rect x="0.005" y="0.005" width="0.3129999999999851" height="0.3129999999999851" fill="#252525" />
<rect x="0.32299999999998513" y="0.005" width="0.3129999999999851" height="0.3129999999999851" fill="#252525" />
<rect x="0.6409999999999703" y="0.005" width="0.3129999999999851" height="0.3129999999999851" fill="#252525" />
<rect x="0.9589999999999553" y="0.005" width="0.3129999999999851" height="0.3129999999999851" fill="#E6E6E6" />
<rect x="1.2769999999999404" y="0.005" width="0.3129999999999851" height="0.3129999999999851" fill="#252525" />
<rect x="1.5949999999999256" y="0.005" width="0.3129999999999851" height="0.3129999999999851" fill="#252525" />
<rect x="1.9129999999999105" y="0.005" width="0.3129999999999851" height="0.3129999999999851" fill="#252525" />
<rect x="2.230999999999896" y="0.005" width="0.3129999999999851" height="0.3129999999999851" fill="#E6E6E6" />
<rect x="2.548999999999881" y="0.005" width="0.3129999999999851" height="0.3129999999999851" fill="#252525" />
<rect x="2.866999999999866" y="0.005" width="0.3129999999999851" height="0.3129999999999851" fill="#252525" />
<rect x="3.1849999999998513" y="0.005" width="0.3129999999999851" height="0.3129999999999851" fill="#252525" />
<rect x="0.005" y="0.32299999999998513" width="0.3129999999999851" height="0.3129999999999851" fill="#252525" />
<rect x="0.32299999999998513" y="0.32299999999998513" width="0.3129999999999851" height="0.3129999999999851" fill="#0074D9" />
<rect x="0.6409999999999703" y="0.32299999999998513" width="0.3129999999999851" height="0.3129999999999851" fill="#252525" />
<rect x="0.9589999999999553" y="0.32299999999998513" width="0.3129999999999851" height="0.3129999999999851" fill="#E6E6E6" />
<rect x="1.2769999999999404" y="0.32299999999998513" width="0.3129999999999851" height="0.3129999999999851" fill="#252525" />
<rect x="1.5949999999999256" y="0.32299999999998513" width="0.3129999999999851" height="0.3129999999999851" fill="#FF4136" />
<rect x="1.9129999999999105" y="0.32299999999998513" width="0.3129999999999851" height="0.3129999999999851" fill="#252525" />
<rect x="2.230999999999896" y="0.32299999999998513" width="0.3129999999999851" height="0.3129999999999851" fill="#E6E6E6" />
<rect x="2.548999999999881" y="0.32299999999998513" width="0.3129999999999851" height="0.3129999999999851" fill="#252525" />
<rect x="2.866999999999866" y="0.32299999999998513" width="0.3129999999999851" height="0.3129999999999851" fill="#0074D9" />
<rect x="3.1849999999998513" y="0.32299999999998513" width="0.3129999999999851" height="0.3129999999999851" fill="#252525" />
<rect x="0.005" y="0.6409999999999703" width="0.3129999999999851" height="0.3129999999999851" fill="#252525" />
<rect x="0.32299999999998513" y="0.6409999999999703" width="0.3129999999999851" height="0.3129999999999851" fill="#252525" />
<rect x="0.6409999999999703" y="0.6409999999999703" width="0.3129999999999851" height="0.3129999999999851" fill="#252525" />
<rect x="0.9589999999999553" y="0.6409999999999703" width="0.3129999999999851" height="0.3129999999999851" fill="#E6E6E6" />
<rect x="1.2769999999999404" y="0.6409999999999703" width="0.3129999999999851" height="0.3129999999999851" fill="#252525" />
<rect x="1.5949999999999256" y="0.6409999999999703" width="0.3129999999999851" height="0.3129999999999851" fill="#252525" />
<rect x="1.9129999999999105" y="0.6409999999999703" width="0.3129999999999851" height="0.3129999999999851" fill="#252525" />
<rect x="2.230999999999896" y="0.6409999999999703" width="0.3129999999999851" height="0.3129999999999851" fill="#E6E6E6" />
<rect x="2.548999999999881" y="0.6409999999999703" width="0.3129999999999851" height="0.3129999999999851" fill="#252525" />
<rect x="2.866999999999866" y="0.6409999999999703" width="0.3129999999999851" height="0.3129999999999851" fill="#252525" />
<rect x="3.1849999999998513" y="0.6409999999999703" width="0.3129999999999851" height="0.3129999999999851" fill="#252525" />
<rect x="-0.02666666666666667" y="-0.02666666666666667" width="3.5513333333331696" height="1.0073333333332886" fill="none" stroke="#111111ff" stroke-width="0.08" />
<text x="3.4979999999998364" y="1.4227499999999553" font-size="0.375" fill="black" text-anchor="end" font-family="Anuphan">11x3</text>
<text x="-0.037500000000000006" y="1.4227499999999553" font-size="0.375" fill="black" text-anchor="start" font-family="Anuphan" font-weight="600">Input 1</text>
</g>
<g id="d1">
<rect x="0.005" y="0.005" width="0.3129999999999851" height="0.3129999999999851" fill="#252525" />
<rect x="0.32299999999998513" y="0.005" width="0.3129999999999851" height="0.3129999999999851" fill="#252525" />
<rect x="0.6409999999999703" y="0.005" width="0.3129999999999851" height="0.3129999999999851" fill="#252525" />
<rect x="0.9589999999999553" y="0.005" width="0.3129999999999851" height="0.3129999999999851" fill="#E6E6E6" />
<rect x="1.2769999999999404" y="0.005" width="0.3129999999999851" height="0.3129999999999851" fill="#252525" />
<rect x="1.5949999999999256" y="0.005" width="0.3129999999999851" height="0.3129999999999851" fill="#252525" />
<rect x="1.9129999999999105" y="0.005" width="0.3129999999999851" height="0.3129999999999851" fill="#252525" />
<rect x="2.230999999999896" y="0.005" width="0.3129999999999851" height="0.3129999999999851" fill="#E6E6E6" />
<rect x="2.548999999999881" y="0.005" width="0.3129999999999851" height="0.3129999999999851" fill="#252525" />
<rect x="2.866999999999866" y="0.005" width="0.3129999999999851" height="0.3129999999999851" fill="#252525" />
<rect x="3.1849999999998513" y="0.005" width="0.3129999999999851" height="0.3129999999999851" fill="#252525" />
<rect x="0.005" y="0.32299999999998513" width="0.3129999999999851" height="0.3129999999999851" fill="#252525" />
<rect x="0.32299999999998513" y="0.32299999999998513" width="0.3129999999999851" height="0.3129999999999851" fill="#FF4136" />
<rect x="0.6409999999999703" y="0.32299999999998513" width="0.3129999999999851" height="0.3129999999999851" fill="#252525" />
<rect x="0.9589999999999553" y="0.32299999999998513" width="0.3129999999999851" height="0.3129999999999851" fill="#E6E6E6" />
<rect x="1.2769999999999404" y="0.32299999999998513" width="0.3129999999999851" height="0.3129999999999851" fill="#252525" />
<rect x="1.5949999999999256" y="0.32299999999998513" width="0.3129999999999851" height="0.3129999999999851" fill="#37D449" />
<rect x="1.9129999999999105" y="0.32299999999998513" width="0.3129999999999851" height="0.3129999999999851" fill="#252525" />
<rect x="2.230999999999896" y="0.32299999999998513" width="0.3129999999999851" height="0.3129999999999851" fill="#E6E6E6" />
<rect x="2.548999999999881" y="0.32299999999998513" width="0.3129999999999851" height="0.3129999999999851" fill="#252525" />
<rect x="2.866999999999866" y="0.32299999999998513" width="0.3129999999999851" height="0.3129999999999851" fill="#0074D9" />
<rect x="3.1849999999998513" y="0.32299999999998513" width="0.3129999999999851" height="0.3129999999999851" fill="#252525" />
<rect x="0.005" y="0.6409999999999703" width="0.3129999999999851" height="0.3129999999999851" fill="#252525" />
<rect x="0.32299999999998513" y="0.6409999999999703" width="0.3129999999999851" height="0.3129999999999851" fill="#252525" />
<rect x="0.6409999999999703" y="0.6409999999999703" width="0.3129999999999851" height="0.3129999999999851" fill="#252525" />
<rect x="0.9589999999999553" y="0.6409999999999703" width="0.3129999999999851" height="0.3129999999999851" fill="#E6E6E6" />
<rect x="1.2769999999999404" y="0.6409999999999703" width="0.3129999999999851" height="0.3129999999999851" fill="#252525" />
<rect x="1.5949999999999256" y="0.6409999999999703" width="0.3129999999999851" height="0.3129999999999851" fill="#252525" />
<rect x="1.9129999999999105" y="0.6409999999999703" width="0.3129999999999851" height="0.3129999999999851" fill="#252525" />
<rect x="2.230999999999896" y="0.6409999999999703" width="0.3129999999999851" height="0.3129999999999851" fill="#E6E6E6" />
<rect x="2.548999999999881" y="0.6409999999999703" width="0.3129999999999851" height="0.3129999999999851" fill="#252525" />
<rect x="2.866999999999866" y="0.6409999999999703" width="0.3129999999999851" height="0.3129999999999851" fill="#252525" />
<rect x="3.1849999999998513" y="0.6409999999999703" width="0.3129999999999851" height="0.3129999999999851" fill="#252525" />
<rect x="-0.02666666666666667" y="-0.02666666666666667" width="3.5513333333331696" height="1.0073333333332886" fill="none" stroke="#111111ff" stroke-width="0.08" />
<text x="3.4979999999998364" y="1.4227499999999553" font-size="0.375" fill="black" text-anchor="end" font-family="Anuphan">11x3</text>
<text x="-0.037500000000000006" y="1.4227499999999553" font-size="0.375" fill="black" text-anchor="start" font-family="Anuphan" font-weight="600">Input 2</text>
</g>
<g id="d2">
<rect x="0.005" y="0.005" width="0.3129999999999851" height="0.3129999999999851" fill="#252525" />
<rect x="0.32299999999998513" y="0.005" width="0.3129999999999851" height="0.3129999999999851" fill="#252525" />
<rect x="0.6409999999999703" y="0.005" width="0.3129999999999851" height="0.3129999999999851" fill="#252525" />
<rect x="0.9589999999999553" y="0.005" width="0.3129999999999851" height="0.3129999999999851" fill="#E6E6E6" />
<rect x="1.2769999999999404" y="0.005" width="0.3129999999999851" height="0.3129999999999851" fill="#252525" />
<rect x="1.5949999999999256" y="0.005" width="0.3129999999999851" height="0.3129999999999851" fill="#252525" />
<rect x="1.9129999999999105" y="0.005" width="0.3129999999999851" height="0.3129999999999851" fill="#252525" />
<rect x="2.230999999999896" y="0.005" width="0.3129999999999851" height="0.3129999999999851" fill="#E6E6E6" />
<rect x="2.548999999999881" y="0.005" width="0.3129999999999851" height="0.3129999999999851" fill="#252525" />
<rect x="2.866999999999866" y="0.005" width="0.3129999999999851" height="0.3129999999999851" fill="#252525" />
<rect x="3.1849999999998513" y="0.005" width="0.3129999999999851" height="0.3129999999999851" fill="#252525" />
<rect x="0.005" y="0.32299999999998513" width="0.3129999999999851" height="0.3129999999999851" fill="#252525" />
<rect x="0.32299999999998513" y="0.32299999999998513" width="0.3129999999999851" height="0.3129999999999851" fill="#37D449" />
<rect x="0.6409999999999703" y="0.32299999999998513" width="0.3129999999999851" height="0.3129999999999851" fill="#252525" />
<rect x="0.9589999999999553" y="0.32299999999998513" width="0.3129999999999851" height="0.3129999999999851" fill="#E6E6E6" />
<rect x="1.2769999999999404" y="0.32299999999998513" width="0.3129999999999851" height="0.3129999999999851" fill="#252525" />
<rect x="1.5949999999999256" y="0.32299999999998513" width="0.3129999999999851" height="0.3129999999999851" fill="#0074D9" />
<rect x="1.9129999999999105" y="0.32299999999998513" width="0.3129999999999851" height="0.3129999999999851" fill="#252525" />
<rect x="2.230999999999896" y="0.32299999999998513" width="0.3129999999999851" height="0.3129999999999851" fill="#E6E6E6" />
<rect x="2.548999999999881" y="0.32299999999998513" width="0.3129999999999851" height="0.3129999999999851" fill="#252525" />
<rect x="2.866999999999866" y="0.32299999999998513" width="0.3129999999999851" height="0.3129999999999851" fill="#FFDC00" />
<rect x="3.1849999999998513" y="0.32299999999998513" width="0.3129999999999851" height="0.3129999999999851" fill="#252525" />
<rect x="0.005" y="0.6409999999999703" width="0.3129999999999851" height="0.3129999999999851" fill="#252525" />
<rect x="0.32299999999998513" y="0.6409999999999703" width="0.3129999999999851" height="0.3129999999999851" fill="#252525" />
<rect x="0.6409999999999703" y="0.6409999999999703" width="0.3129999999999851" height="0.3129999999999851" fill="#252525" />
<rect x="0.9589999999999553" y="0.6409999999999703" width="0.3129999999999851" height="0.3129999999999851" fill="#E6E6E6" />
<rect x="1.2769999999999404" y="0.6409999999999703" width="0.3129999999999851" height="0.3129999999999851" fill="#252525" />
<rect x="1.5949999999999256" y="0.6409999999999703" width="0.3129999999999851" height="0.3129999999999851" fill="#252525" />
<rect x="1.9129999999999105" y="0.6409999999999703" width="0.3129999999999851" height="0.3129999999999851" fill="#252525" />
<rect x="2.230999999999896" y="0.6409999999999703" width="0.3129999999999851" height="0.3129999999999851" fill="#E6E6E6" />
<rect x="2.548999999999881" y="0.6409999999999703" width="0.3129999999999851" height="0.3129999999999851" fill="#252525" />
<rect x="2.866999999999866" y="0.6409999999999703" width="0.3129999999999851" height="0.3129999999999851" fill="#252525" />
<rect x="3.1849999999998513" y="0.6409999999999703" width="0.3129999999999851" height="0.3129999999999851" fill="#252525" />
<rect x="-0.02666666666666667" y="-0.02666666666666667" width="3.5513333333331696" height="1.0073333333332886" fill="none" stroke="#111111ff" stroke-width="0.08" />
<text x="3.4979999999998364" y="1.4227499999999553" font-size="0.375" fill="black" text-anchor="end" font-family="Anuphan">11x3</text>
<text x="-0.037500000000000006" y="1.4227499999999553" font-size="0.375" fill="black" text-anchor="start" font-family="Anuphan" font-weight="600">Input 3</text>
</g>
<g id="d3">
<rect x="0.005" y="0.005" width="0.3129999999999851" height="0.3129999999999851" fill="#252525" />
<rect x="0.32299999999998513" y="0.005" width="0.3129999999999851" height="0.3129999999999851" fill="#252525" />
<rect x="0.6409999999999703" y="0.005" width="0.3129999999999851" height="0.3129999999999851" fill="#252525" />
<rect x="0.9589999999999553" y="0.005" width="0.3129999999999851" height="0.3129999999999851" fill="#E6E6E6" />
<rect x="1.2769999999999404" y="0.005" width="0.3129999999999851" height="0.3129999999999851" fill="#252525" />
<rect x="1.5949999999999256" y="0.005" width="0.3129999999999851" height="0.3129999999999851" fill="#252525" />
<rect x="1.9129999999999105" y="0.005" width="0.3129999999999851" height="0.3129999999999851" fill="#252525" />
<rect x="2.230999999999896" y="0.005" width="0.3129999999999851" height="0.3129999999999851" fill="#E6E6E6" />
<rect x="2.548999999999881" y="0.005" width="0.3129999999999851" height="0.3129999999999851" fill="#252525" />
<rect x="2.866999999999866" y="0.005" width="0.3129999999999851" height="0.3129999999999851" fill="#252525" />
<rect x="3.1849999999998513" y="0.005" width="0.3129999999999851" height="0.3129999999999851" fill="#252525" />
<rect x="0.005" y="0.32299999999998513" width="0.3129999999999851" height="0.3129999999999851" fill="#252525" />
<rect x="0.32299999999998513" y="0.32299999999998513" width="0.3129999999999851" height="0.3129999999999851" fill="#FFDC00" />
<rect x="0.6409999999999703" y="0.32299999999998513" width="0.3129999999999851" height="0.3129999999999851" fill="#252525" />
<rect x="0.9589999999999553" y="0.32299999999998513" width="0.3129999999999851" height="0.3129999999999851" fill="#E6E6E6" />
<rect x="1.2769999999999404" y="0.32299999999998513" width="0.3129999999999851" height="0.3129999999999851" fill="#252525" />
<rect x="1.5949999999999256" y="0.32299999999998513" width="0.3129999999999851" height="0.3129999999999851" fill="#0074D9" />
<rect x="1.9129999999999105" y="0.32299999999998513" width="0.3129999999999851" height="0.3129999999999851" fill="#252525" />
<rect x="2.230999999999896" y="0.32299999999998513" width="0.3129999999999851" height="0.3129999999999851" fill="#E6E6E6" />
<rect x="2.548999999999881" y="0.32299999999998513" width="0.3129999999999851" height="0.3129999999999851" fill="#252525" />
<rect x="2.866999999999866" y="0.32299999999998513" width="0.3129999999999851" height="0.3129999999999851" fill="#FF4136" />
<rect x="3.1849999999998513" y="0.32299999999998513" width="0.3129999999999851" height="0.3129999999999851" fill="#252525" />
<rect x="0.005" y="0.6409999999999703" width="0.3129999999999851" height="0.3129999999999851" fill="#252525" />
<rect x="0.32299999999998513" y="0.6409999999999703" width="0.3129999999999851" height="0.3129999999999851" fill="#252525" />
<rect x="0.6409999999999703" y="0.6409999999999703" width="0.3129999999999851" height="0.3129999999999851" fill="#252525" />
<rect x="0.9589999999999553" y="0.6409999999999703" width="0.3129999999999851" height="0.3129999999999851" fill="#E6E6E6" />
<rect x="1.2769999999999404" y="0.6409999999999703" width="0.3129999999999851" height="0.3129999999999851" fill="#252525" />
<rect x="1.5949999999999256" y="0.6409999999999703" width="0.3129999999999851" height="0.3129999999999851" fill="#252525" />
<rect x="1.9129999999999105" y="0.6409999999999703" width="0.3129999999999851" height="0.3129999999999851" fill="#252525" />
<rect x="2.230999999999896" y="0.6409999999999703" width="0.3129999999999851" height="0.3129999999999851" fill="#E6E6E6" />
<rect x="2.548999999999881" y="0.6409999999999703" width="0.3129999999999851" height="0.3129999999999851" fill="#252525" />
<rect x="2.866999999999866" y="0.6409999999999703" width="0.3129999999999851" height="0.3129999999999851" fill="#252525" />
<rect x="3.1849999999998513" y="0.6409999999999703" width="0.3129999999999851" height="0.3129999999999851" fill="#252525" />
<rect x="0.005" y="0.9589999999999553" width="0.3129999999999851" height="0.3129999999999851" fill="#E6E6E6" />
<rect x="0.32299999999998513" y="0.9589999999999553" width="0.3129999999999851" height="0.3129999999999851" fill="#E6E6E6" />
<rect x="0.6409999999999703" y="0.9589999999999553" width="0.3129999999999851" height="0.3129999999999851" fill="#E6E6E6" />
<rect x="0.9589999999999553" y="0.9589999999999553" width="0.3129999999999851" height="0.3129999999999851" fill="#E6E6E6" />
<rect x="1.2769999999999404" y="0.9589999999999553" width="0.3129999999999851" height="0.3129999999999851" fill="#E6E6E6" />
<rect x="1.5949999999999256" y="0.9589999999999553" width="0.3129999999999851" height="0.3129999999999851" fill="#E6E6E6" />
<rect x="1.9129999999999105" y="0.9589999999999553" width="0.3129999999999851" height="0.3129999999999851" fill="#E6E6E6" />
<rect x="2.230999999999896" y="0.9589999999999553" width="0.3129999999999851" height="0.3129999999999851" fill="#E6E6E6" />
<rect x="2.548999999999881" y="0.9589999999999553" width="0.3129999999999851" height="0.3129999999999851" fill="#E6E6E6" />
<rect x="2.866999999999866" y="0.9589999999999553" width="0.3129999999999851" height="0.3129999999999851" fill="#E6E6E6" />
<rect x="3.1849999999998513" y="0.9589999999999553" width="0.3129999999999851" height="0.3129999999999851" fill="#E6E6E6" />
<rect x="0.005" y="1.2769999999999404" width="0.3129999999999851" height="0.3129999999999851" fill="#252525" />
<rect x="0.32299999999998513" y="1.2769999999999404" width="0.3129999999999851" height="0.3129999999999851" fill="#252525" />
<rect x="0.6409999999999703" y="1.2769999999999404" width="0.3129999999999851" height="0.3129999999999851" fill="#252525" />
<rect x="0.9589999999999553" y="1.2769999999999404" width="0.3129999999999851" height="0.3129999999999851" fill="#E6E6E6" />
<rect x="1.2769999999999404" y="1.2769999999999404" width="0.3129999999999851" height="0.3129999999999851" fill="#252525" />
<rect x="1.5949999999999256" y="1.2769999999999404" width="0.3129999999999851" height="0.3129999999999851" fill="#252525" />
<rect x="1.9129999999999105" y="1.2769999999999404" width="0.3129999999999851" height="0.3129999999999851" fill="#252525" />
<rect x="2.230999999999896" y="1.2769999999999404" width="0.3129999999999851" height="0.3129999999999851" fill="#E6E6E6" />
<rect x="2.548999999999881" y="1.2769999999999404" width="0.3129999999999851" height="0.3129999999999851" fill="#252525" />
<rect x="2.866999999999866" y="1.2769999999999404" width="0.3129999999999851" height="0.3129999999999851" fill="#252525" />
<rect x="3.1849999999998513" y="1.2769999999999404" width="0.3129999999999851" height="0.3129999999999851" fill="#252525" />
<rect x="0.005" y="1.5949999999999256" width="0.3129999999999851" height="0.3129999999999851" fill="#252525" />
<rect x="0.32299999999998513" y="1.5949999999999256" width="0.3129999999999851" height="0.3129999999999851" fill="#FF4136" />
<rect x="0.6409999999999703" y="1.5949999999999256" width="0.3129999999999851" height="0.3129999999999851" fill="#252525" />
<rect x="0.9589999999999553" y="1.5949999999999256" width="0.3129999999999851" height="0.3129999999999851" fill="#E6E6E6" />
<rect x="1.2769999999999404" y="1.5949999999999256" width="0.3129999999999851" height="0.3129999999999851" fill="#252525" />
<rect x="1.5949999999999256" y="1.5949999999999256" width="0.3129999999999851" height="0.3129999999999851" fill="#37D449" />
<rect x="1.9129999999999105" y="1.5949999999999256" width="0.3129999999999851" height="0.3129999999999851" fill="#252525" />
<rect x="2.230999999999896" y="1.5949999999999256" width="0.3129999999999851" height="0.3129999999999851" fill="#E6E6E6" />
<rect x="2.548999999999881" y="1.5949999999999256" width="0.3129999999999851" height="0.3129999999999851" fill="#252525" />
<rect x="2.866999999999866" y="1.5949999999999256" width="0.3129999999999851" height="0.3129999999999851" fill="#FFDC00" />
<rect x="3.1849999999998513" y="1.5949999999999256" width="0.3129999999999851" height="0.3129999999999851" fill="#252525" />
<rect x="0.005" y="1.9129999999999105" width="0.3129999999999851" height="0.3129999999999851" fill="#252525" />
<rect x="0.32299999999998513" y="1.9129999999999105" width="0.3129999999999851" height="0.3129999999999851" fill="#252525" />
<rect x="0.6409999999999703" y="1.9129999999999105" width="0.3129999999999851" height="0.3129999999999851" fill="#252525" />
<rect x="0.9589999999999553" y="1.9129999999999105" width="0.3129999999999851" height="0.3129999999999851" fill="#E6E6E6" />
<rect x="1.2769999999999404" y="1.9129999999999105" width="0.3129999999999851" height="0.3129999999999851" fill="#252525" />
<rect x="1.5949999999999256" y="1.9129999999999105" width="0.3129999999999851" height="0.3129999999999851" fill="#252525" />
<rect x="1.9129999999999105" y="1.9129999999999105" width="0.3129999999999851" height="0.3129999999999851" fill="#252525" />
<rect x="2.230999999999896" y="1.9129999999999105" width="0.3129999999999851" height="0.3129999999999851" fill="#E6E6E6" />
<rect x="2.548999999999881" y="1.9129999999999105" width="0.3129999999999851" height="0.3129999999999851" fill="#252525" />
<rect x="2.866999999999866" y="1.9129999999999105" width="0.3129999999999851" height="0.3129999999999851" fill="#252525" />
<rect x="3.1849999999998513" y="1.9129999999999105" width="0.3129999999999851" height="0.3129999999999851" fill="#252525" />
<rect x="-0.02666666666666667" y="-0.02666666666666667" width="3.5513333333331696" height="2.2793333333332293" fill="none" stroke="#111111ff" stroke-width="0.08" />
<text x="3.4979999999998364" y="2.694749999999896" font-size="0.375" fill="black" text-anchor="end" font-family="Anuphan">11x7</text>
<text x="-0.037500000000000006" y="2.694749999999896" font-size="0.375" fill="black" text-anchor="start" font-family="Anuphan" font-weight="600">Input 4</text>
</g>
<g id="d4">
<rect x="0.005" y="0.005" width="0.3129999999999851" height="0.3129999999999851" fill="#252525" />
<rect x="0.32299999999998513" y="0.005" width="0.3129999999999851" height="0.3129999999999851" fill="#252525" />
<rect x="0.6409999999999703" y="0.005" width="0.3129999999999851" height="0.3129999999999851" fill="#252525" />
<rect x="0.9589999999999553" y="0.005" width="0.3129999999999851" height="0.3129999999999851" fill="#E6E6E6" />
<rect x="1.2769999999999404" y="0.005" width="0.3129999999999851" height="0.3129999999999851" fill="#252525" />
<rect x="1.5949999999999256" y="0.005" width="0.3129999999999851" height="0.3129999999999851" fill="#252525" />
<rect x="1.9129999999999105" y="0.005" width="0.3129999999999851" height="0.3129999999999851" fill="#252525" />
<rect x="2.230999999999896" y="0.005" width="0.3129999999999851" height="0.3129999999999851" fill="#E6E6E6" />
<rect x="2.548999999999881" y="0.005" width="0.3129999999999851" height="0.3129999999999851" fill="#252525" />
<rect x="2.866999999999866" y="0.005" width="0.3129999999999851" height="0.3129999999999851" fill="#252525" />
<rect x="3.1849999999998513" y="0.005" width="0.3129999999999851" height="0.3129999999999851" fill="#252525" />
<rect x="0.005" y="0.32299999999998513" width="0.3129999999999851" height="0.3129999999999851" fill="#252525" />
<rect x="0.32299999999998513" y="0.32299999999998513" width="0.3129999999999851" height="0.3129999999999851" fill="#FF4136" />
<rect x="0.6409999999999703" y="0.32299999999998513" width="0.3129999999999851" height="0.3129999999999851" fill="#252525" />
<rect x="0.9589999999999553" y="0.32299999999998513" width="0.3129999999999851" height="0.3129999999999851" fill="#E6E6E6" />
<rect x="1.2769999999999404" y="0.32299999999998513" width="0.3129999999999851" height="0.3129999999999851" fill="#252525" />
<rect x="1.5949999999999256" y="0.32299999999998513" width="0.3129999999999851" height="0.3129999999999851" fill="#37D449" />
<rect x="1.9129999999999105" y="0.32299999999998513" width="0.3129999999999851" height="0.3129999999999851" fill="#252525" />
<rect x="2.230999999999896" y="0.32299999999998513" width="0.3129999999999851" height="0.3129999999999851" fill="#E6E6E6" />
<rect x="2.548999999999881" y="0.32299999999998513" width="0.3129999999999851" height="0.3129999999999851" fill="#252525" />
<rect x="2.866999999999866" y="0.32299999999998513" width="0.3129999999999851" height="0.3129999999999851" fill="#FFDC00" />
<rect x="3.1849999999998513" y="0.32299999999998513" width="0.3129999999999851" height="0.3129999999999851" fill="#252525" />
<rect x="0.005" y="0.6409999999999703" width="0.3129999999999851" height="0.3129999999999851" fill="#252525" />
<rect x="0.32299999999998513" y="0.6409999999999703" width="0.3129999999999851" height="0.3129999999999851" fill="#252525" />
<rect x="0.6409999999999703" y="0.6409999999999703" width="0.3129999999999851" height="0.3129999999999851" fill="#252525" />
<rect x="0.9589999999999553" y="0.6409999999999703" width="0.3129999999999851" height="0.3129999999999851" fill="#E6E6E6" />
<rect x="1.2769999999999404" y="0.6409999999999703" width="0.3129999999999851" height="0.3129999999999851" fill="#252525" />
<rect x="1.5949999999999256" y="0.6409999999999703" width="0.3129999999999851" height="0.3129999999999851" fill="#252525" />
<rect x="1.9129999999999105" y="0.6409999999999703" width="0.3129999999999851" height="0.3129999999999851" fill="#252525" />
<rect x="2.230999999999896" y="0.6409999999999703" width="0.3129999999999851" height="0.3129999999999851" fill="#E6E6E6" />
<rect x="2.548999999999881" y="0.6409999999999703" width="0.3129999999999851" height="0.3129999999999851" fill="#252525" />
<rect x="2.866999999999866" y="0.6409999999999703" width="0.3129999999999851" height="0.3129999999999851" fill="#252525" />
<rect x="3.1849999999998513" y="0.6409999999999703" width="0.3129999999999851" height="0.3129999999999851" fill="#252525" />
<rect x="0.005" y="0.9589999999999553" width="0.3129999999999851" height="0.3129999999999851" fill="#E6E6E6" />
<rect x="0.32299999999998513" y="0.9589999999999553" width="0.3129999999999851" height="0.3129999999999851" fill="#E6E6E6" />
<rect x="0.6409999999999703" y="0.9589999999999553" width="0.3129999999999851" height="0.3129999999999851" fill="#E6E6E6" />
<rect x="0.9589999999999553" y="0.9589999999999553" width="0.3129999999999851" height="0.3129999999999851" fill="#E6E6E6" />
<rect x="1.2769999999999404" y="0.9589999999999553" width="0.3129999999999851" height="0.3129999999999851" fill="#E6E6E6" />
<rect x="1.5949999999999256" y="0.9589999999999553" width="0.3129999999999851" height="0.3129999999999851" fill="#E6E6E6" />
<rect x="1.9129999999999105" y="0.9589999999999553" width="0.3129999999999851" height="0.3129999999999851" fill="#E6E6E6" />
<rect x="2.230999999999896" y="0.9589999999999553" width="0.3129999999999851" height="0.3129999999999851" fill="#E6E6E6" />
<rect x="2.548999999999881" y="0.9589999999999553" width="0.3129999999999851" height="0.3129999999999851" fill="#E6E6E6" />
<rect x="2.866999999999866" y="0.9589999999999553" width="0.3129999999999851" height="0.3129999999999851" fill="#E6E6E6" />
<rect x="3.1849999999998513" y="0.9589999999999553" width="0.3129999999999851" height="0.3129999999999851" fill="#E6E6E6" />
<rect x="0.005" y="1.2769999999999404" width="0.3129999999999851" height="0.3129999999999851" fill="#252525" />
<rect x="0.32299999999998513" y="1.2769999999999404" width="0.3129999999999851" height="0.3129999999999851" fill="#252525" />
<rect x="0.6409999999999703" y="1.2769999999999404" width="0.3129999999999851" height="0.3129999999999851" fill="#252525" />
<rect x="0.9589999999999553" y="1.2769999999999404" width="0.3129999999999851" height="0.3129999999999851" fill="#E6E6E6" />
<rect x="1.2769999999999404" y="1.2769999999999404" width="0.3129999999999851" height="0.3129999999999851" fill="#252525" />
<rect x="1.5949999999999256" y="1.2769999999999404" width="0.3129999999999851" height="0.3129999999999851" fill="#252525" />
<rect x="1.9129999999999105" y="1.2769999999999404" width="0.3129999999999851" height="0.3129999999999851" fill="#252525" />
<rect x="2.230999999999896" y="1.2769999999999404" width="0.3129999999999851" height="0.3129999999999851" fill="#E6E6E6" />
<rect x="2.548999999999881" y="1.2769999999999404" width="0.3129999999999851" height="0.3129999999999851" fill="#252525" />
<rect x="2.866999999999866" y="1.2769999999999404" width="0.3129999999999851" height="0.3129999999999851" fill="#252525" />
<rect x="3.1849999999998513" y="1.2769999999999404" width="0.3129999999999851" height="0.3129999999999851" fill="#252525" />
<rect x="0.005" y="1.5949999999999256" width="0.3129999999999851" height="0.3129999999999851" fill="#252525" />
<rect x="0.32299999999998513" y="1.5949999999999256" width="0.3129999999999851" height="0.3129999999999851" fill="#0074D9" />
<rect x="0.6409999999999703" y="1.5949999999999256" width="0.3129999999999851" height="0.3129999999999851" fill="#252525" />
<rect x="0.9589999999999553" y="1.5949999999999256" width="0.3129999999999851" height="0.3129999999999851" fill="#E6E6E6" />
<rect x="1.2769999999999404" y="1.5949999999999256" width="0.3129999999999851" height="0.3129999999999851" fill="#252525" />
<rect x="1.5949999999999256" y="1.5949999999999256" width="0.3129999999999851" height="0.3129999999999851" fill="#0074D9" />
<rect x="1.9129999999999105" y="1.5949999999999256" width="0.3129999999999851" height="0.3129999999999851" fill="#252525" />
<rect x="2.230999999999896" y="1.5949999999999256" width="0.3129999999999851" height="0.3129999999999851" fill="#E6E6E6" />
<rect x="2.548999999999881" y="1.5949999999999256" width="0.3129999999999851" height="0.3129999999999851" fill="#252525" />
<rect x="2.866999999999866" y="1.5949999999999256" width="0.3129999999999851" height="0.3129999999999851" fill="#37D449" />
<rect x="3.1849999999998513" y="1.5949999999999256" width="0.3129999999999851" height="0.3129999999999851" fill="#252525" />
<rect x="0.005" y="1.9129999999999105" width="0.3129999999999851" height="0.3129999999999851" fill="#252525" />
<rect x="0.32299999999998513" y="1.9129999999999105" width="0.3129999999999851" height="0.3129999999999851" fill="#252525" />
<rect x="0.6409999999999703" y="1.9129999999999105" width="0.3129999999999851" height="0.3129999999999851" fill="#252525" />
<rect x="0.9589999999999553" y="1.9129999999999105" width="0.3129999999999851" height="0.3129999999999851" fill="#E6E6E6" />
<rect x="1.2769999999999404" y="1.9129999999999105" width="0.3129999999999851" height="0.3129999999999851" fill="#252525" />
<rect x="1.5949999999999256" y="1.9129999999999105" width="0.3129999999999851" height="0.3129999999999851" fill="#252525" />
<rect x="1.9129999999999105" y="1.9129999999999105" width="0.3129999999999851" height="0.3129999999999851" fill="#252525" />
<rect x="2.230999999999896" y="1.9129999999999105" width="0.3129999999999851" height="0.3129999999999851" fill="#E6E6E6" />
<rect x="2.548999999999881" y="1.9129999999999105" width="0.3129999999999851" height="0.3129999999999851" fill="#252525" />
<rect x="2.866999999999866" y="1.9129999999999105" width="0.3129999999999851" height="0.3129999999999851" fill="#252525" />
<rect x="3.1849999999998513" y="1.9129999999999105" width="0.3129999999999851" height="0.3129999999999851" fill="#252525" />
<rect x="-0.02666666666666667" y="-0.02666666666666667" width="3.5513333333331696" height="2.2793333333332293" fill="none" stroke="#111111ff" stroke-width="0.08" />
<text x="3.4979999999998364" y="2.694749999999896" font-size="0.375" fill="black" text-anchor="end" font-family="Anuphan">11x7</text>
<text x="-0.037500000000000006" y="2.694749999999896" font-size="0.375" fill="black" text-anchor="start" font-family="Anuphan" font-weight="600">Test 1</text>
</g>
<g id="d5">
<rect x="0.005" y="0.005" width="0.3129999999999851" height="0.3129999999999851" fill="#F012BE" />
<rect x="0.32299999999998513" y="0.005" width="0.3129999999999851" height="0.3129999999999851" fill="#F012BE" />
<rect x="0.6409999999999703" y="0.005" width="0.3129999999999851" height="0.3129999999999851" fill="#F012BE" />
<rect x="0.9589999999999553" y="0.005" width="0.3129999999999851" height="0.3129999999999851" fill="#E6E6E6" />
<rect x="1.2769999999999404" y="0.005" width="0.3129999999999851" height="0.3129999999999851" fill="#FF871E" />
<rect x="1.5949999999999256" y="0.005" width="0.3129999999999851" height="0.3129999999999851" fill="#FF871E" />
<rect x="1.9129999999999105" y="0.005" width="0.3129999999999851" height="0.3129999999999851" fill="#FF871E" />
<rect x="2.230999999999896" y="0.005" width="0.3129999999999851" height="0.3129999999999851" fill="#E6E6E6" />
<rect x="2.548999999999881" y="0.005" width="0.3129999999999851" height="0.3129999999999851" fill="#F012BE" />
<rect x="2.866999999999866" y="0.005" width="0.3129999999999851" height="0.3129999999999851" fill="#F012BE" />
<rect x="3.1849999999998513" y="0.005" width="0.3129999999999851" height="0.3129999999999851" fill="#F012BE" />
<rect x="0.005" y="0.32299999999998513" width="0.3129999999999851" height="0.3129999999999851" fill="#F012BE" />
<rect x="0.32299999999998513" y="0.32299999999998513" width="0.3129999999999851" height="0.3129999999999851" fill="#F012BE" />
<rect x="0.6409999999999703" y="0.32299999999998513" width="0.3129999999999851" height="0.3129999999999851" fill="#F012BE" />
<rect x="0.9589999999999553" y="0.32299999999998513" width="0.3129999999999851" height="0.3129999999999851" fill="#E6E6E6" />
<rect x="1.2769999999999404" y="0.32299999999998513" width="0.3129999999999851" height="0.3129999999999851" fill="#FF871E" />
<rect x="1.5949999999999256" y="0.32299999999998513" width="0.3129999999999851" height="0.3129999999999851" fill="#FF871E" />
<rect x="1.9129999999999105" y="0.32299999999998513" width="0.3129999999999851" height="0.3129999999999851" fill="#FF871E" />
<rect x="2.230999999999896" y="0.32299999999998513" width="0.3129999999999851" height="0.3129999999999851" fill="#E6E6E6" />
<rect x="2.548999999999881" y="0.32299999999998513" width="0.3129999999999851" height="0.3129999999999851" fill="#F012BE" />
<rect x="2.866999999999866" y="0.32299999999998513" width="0.3129999999999851" height="0.3129999999999851" fill="#F012BE" />
<rect x="3.1849999999998513" y="0.32299999999998513" width="0.3129999999999851" height="0.3129999999999851" fill="#F012BE" />
<rect x="0.005" y="0.6409999999999703" width="0.3129999999999851" height="0.3129999999999851" fill="#F012BE" />
<rect x="0.32299999999998513" y="0.6409999999999703" width="0.3129999999999851" height="0.3129999999999851" fill="#F012BE" />
<rect x="0.6409999999999703" y="0.6409999999999703" width="0.3129999999999851" height="0.3129999999999851" fill="#F012BE" />
<rect x="0.9589999999999553" y="0.6409999999999703" width="0.3129999999999851" height="0.3129999999999851" fill="#E6E6E6" />
<rect x="1.2769999999999404" y="0.6409999999999703" width="0.3129999999999851" height="0.3129999999999851" fill="#FF871E" />
<rect x="1.5949999999999256" y="0.6409999999999703" width="0.3129999999999851" height="0.3129999999999851" fill="#FF871E" />
<rect x="1.9129999999999105" y="0.6409999999999703" width="0.3129999999999851" height="0.3129999999999851" fill="#FF871E" />
<rect x="2.230999999999896" y="0.6409999999999703" width="0.3129999999999851" height="0.3129999999999851" fill="#E6E6E6" />
<rect x="2.548999999999881" y="0.6409999999999703" width="0.3129999999999851" height="0.3129999999999851" fill="#F012BE" />
<rect x="2.866999999999866" y="0.6409999999999703" width="0.3129999999999851" height="0.3129999999999851" fill="#F012BE" />
<rect x="3.1849999999998513" y="0.6409999999999703" width="0.3129999999999851" height="0.3129999999999851" fill="#F012BE" />
<rect x="-0.02666666666666667" y="-0.02666666666666667" width="3.5513333333331696" height="1.0073333333332886" fill="none" stroke="#111111ff" stroke-width="0.08" />
<text x="3.4979999999998364" y="1.4227499999999553" font-size="0.375" fill="black" text-anchor="end" font-family="Anuphan">11x3</text>
<text x="-0.037500000000000006" y="1.4227499999999553" font-size="0.375" fill="black" text-anchor="start" font-family="Anuphan" font-weight="600">Output 1</text>
</g>
<g id="d6">
<rect x="0.005" y="0.005" width="0.3129999999999851" height="0.3129999999999851" fill="#FF871E" />
<rect x="0.32299999999998513" y="0.005" width="0.3129999999999851" height="0.3129999999999851" fill="#FF871E" />
<rect x="0.6409999999999703" y="0.005" width="0.3129999999999851" height="0.3129999999999851" fill="#FF871E" />
<rect x="0.9589999999999553" y="0.005" width="0.3129999999999851" height="0.3129999999999851" fill="#E6E6E6" />
<rect x="1.2769999999999404" y="0.005" width="0.3129999999999851" height="0.3129999999999851" fill="#54D2EB" />
<rect x="1.5949999999999256" y="0.005" width="0.3129999999999851" height="0.3129999999999851" fill="#54D2EB" />
<rect x="1.9129999999999105" y="0.005" width="0.3129999999999851" height="0.3129999999999851" fill="#54D2EB" />
<rect x="2.230999999999896" y="0.005" width="0.3129999999999851" height="0.3129999999999851" fill="#E6E6E6" />
<rect x="2.548999999999881" y="0.005" width="0.3129999999999851" height="0.3129999999999851" fill="#F012BE" />
<rect x="2.866999999999866" y="0.005" width="0.3129999999999851" height="0.3129999999999851" fill="#F012BE" />
<rect x="3.1849999999998513" y="0.005" width="0.3129999999999851" height="0.3129999999999851" fill="#F012BE" />
<rect x="0.005" y="0.32299999999998513" width="0.3129999999999851" height="0.3129999999999851" fill="#FF871E" />
<rect x="0.32299999999998513" y="0.32299999999998513" width="0.3129999999999851" height="0.3129999999999851" fill="#FF871E" />
<rect x="0.6409999999999703" y="0.32299999999998513" width="0.3129999999999851" height="0.3129999999999851" fill="#FF871E" />
<rect x="0.9589999999999553" y="0.32299999999998513" width="0.3129999999999851" height="0.3129999999999851" fill="#E6E6E6" />
<rect x="1.2769999999999404" y="0.32299999999998513" width="0.3129999999999851" height="0.3129999999999851" fill="#54D2EB" />
<rect x="1.5949999999999256" y="0.32299999999998513" width="0.3129999999999851" height="0.3129999999999851" fill="#54D2EB" />
<rect x="1.9129999999999105" y="0.32299999999998513" width="0.3129999999999851" height="0.3129999999999851" fill="#54D2EB" />
<rect x="2.230999999999896" y="0.32299999999998513" width="0.3129999999999851" height="0.3129999999999851" fill="#E6E6E6" />
<rect x="2.548999999999881" y="0.32299999999998513" width="0.3129999999999851" height="0.3129999999999851" fill="#F012BE" />
<rect x="2.866999999999866" y="0.32299999999998513" width="0.3129999999999851" height="0.3129999999999851" fill="#F012BE" />
<rect x="3.1849999999998513" y="0.32299999999998513" width="0.3129999999999851" height="0.3129999999999851" fill="#F012BE" />
<rect x="0.005" y="0.6409999999999703" width="0.3129999999999851" height="0.3129999999999851" fill="#FF871E" />
<rect x="0.32299999999998513" y="0.6409999999999703" width="0.3129999999999851" height="0.3129999999999851" fill="#FF871E" />
<rect x="0.6409999999999703" y="0.6409999999999703" width="0.3129999999999851" height="0.3129999999999851" fill="#FF871E" />
<rect x="0.9589999999999553" y="0.6409999999999703" width="0.3129999999999851" height="0.3129999999999851" fill="#E6E6E6" />
<rect x="1.2769999999999404" y="0.6409999999999703" width="0.3129999999999851" height="0.3129999999999851" fill="#54D2EB" />
<rect x="1.5949999999999256" y="0.6409999999999703" width="0.3129999999999851" height="0.3129999999999851" fill="#54D2EB" />
<rect x="1.9129999999999105" y="0.6409999999999703" width="0.3129999999999851" height="0.3129999999999851" fill="#54D2EB" />
<rect x="2.230999999999896" y="0.6409999999999703" width="0.3129999999999851" height="0.3129999999999851" fill="#E6E6E6" />
<rect x="2.548999999999881" y="0.6409999999999703" width="0.3129999999999851" height="0.3129999999999851" fill="#F012BE" />
<rect x="2.866999999999866" y="0.6409999999999703" width="0.3129999999999851" height="0.3129999999999851" fill="#F012BE" />
<rect x="3.1849999999998513" y="0.6409999999999703" width="0.3129999999999851" height="0.3129999999999851" fill="#F012BE" />
<rect x="-0.02666666666666667" y="-0.02666666666666667" width="3.5513333333331696" height="1.0073333333332886" fill="none" stroke="#111111ff" stroke-width="0.08" />
<text x="3.4979999999998364" y="1.4227499999999553" font-size="0.375" fill="black" text-anchor="end" font-family="Anuphan">11x3</text>
<text x="-0.037500000000000006" y="1.4227499999999553" font-size="0.375" fill="black" text-anchor="start" font-family="Anuphan" font-weight="600">Output 2</text>
</g>
<g id="d7">
<rect x="0.005" y="0.005" width="0.3129999999999851" height="0.3129999999999851" fill="#54D2EB" />
<rect x="0.32299999999998513" y="0.005" width="0.3129999999999851" height="0.3129999999999851" fill="#54D2EB" />
<rect x="0.6409999999999703" y="0.005" width="0.3129999999999851" height="0.3129999999999851" fill="#54D2EB" />
<rect x="0.9589999999999553" y="0.005" width="0.3129999999999851" height="0.3129999999999851" fill="#E6E6E6" />
<rect x="1.2769999999999404" y="0.005" width="0.3129999999999851" height="0.3129999999999851" fill="#F012BE" />
<rect x="1.5949999999999256" y="0.005" width="0.3129999999999851" height="0.3129999999999851" fill="#F012BE" />
<rect x="1.9129999999999105" y="0.005" width="0.3129999999999851" height="0.3129999999999851" fill="#F012BE" />
<rect x="2.230999999999896" y="0.005" width="0.3129999999999851" height="0.3129999999999851" fill="#E6E6E6" />
<rect x="2.548999999999881" y="0.005" width="0.3129999999999851" height="0.3129999999999851" fill="#8D1D2C" />
<rect x="2.866999999999866" y="0.005" width="0.3129999999999851" height="0.3129999999999851" fill="#8D1D2C" />
<rect x="3.1849999999998513" y="0.005" width="0.3129999999999851" height="0.3129999999999851" fill="#8D1D2C" />
<rect x="0.005" y="0.32299999999998513" width="0.3129999999999851" height="0.3129999999999851" fill="#54D2EB" />
<rect x="0.32299999999998513" y="0.32299999999998513" width="0.3129999999999851" height="0.3129999999999851" fill="#54D2EB" />
<rect x="0.6409999999999703" y="0.32299999999998513" width="0.3129999999999851" height="0.3129999999999851" fill="#54D2EB" />
<rect x="0.9589999999999553" y="0.32299999999998513" width="0.3129999999999851" height="0.3129999999999851" fill="#E6E6E6" />
<rect x="1.2769999999999404" y="0.32299999999998513" width="0.3129999999999851" height="0.3129999999999851" fill="#F012BE" />
<rect x="1.5949999999999256" y="0.32299999999998513" width="0.3129999999999851" height="0.3129999999999851" fill="#F012BE" />
<rect x="1.9129999999999105" y="0.32299999999998513" width="0.3129999999999851" height="0.3129999999999851" fill="#F012BE" />
<rect x="2.230999999999896" y="0.32299999999998513" width="0.3129999999999851" height="0.3129999999999851" fill="#E6E6E6" />
<rect x="2.548999999999881" y="0.32299999999998513" width="0.3129999999999851" height="0.3129999999999851" fill="#8D1D2C" />
<rect x="2.866999999999866" y="0.32299999999998513" width="0.3129999999999851" height="0.3129999999999851" fill="#8D1D2C" />
<rect x="3.1849999999998513" y="0.32299999999998513" width="0.3129999999999851" height="0.3129999999999851" fill="#8D1D2C" />
<rect x="0.005" y="0.6409999999999703" width="0.3129999999999851" height="0.3129999999999851" fill="#54D2EB" />
<rect x="0.32299999999998513" y="0.6409999999999703" width="0.3129999999999851" height="0.3129999999999851" fill="#54D2EB" />
<rect x="0.6409999999999703" y="0.6409999999999703" width="0.3129999999999851" height="0.3129999999999851" fill="#54D2EB" />
<rect x="0.9589999999999553" y="0.6409999999999703" width="0.3129999999999851" height="0.3129999999999851" fill="#E6E6E6" />
<rect x="1.2769999999999404" y="0.6409999999999703" width="0.3129999999999851" height="0.3129999999999851" fill="#F012BE" />
<rect x="1.5949999999999256" y="0.6409999999999703" width="0.3129999999999851" height="0.3129999999999851" fill="#F012BE" />
<rect x="1.9129999999999105" y="0.6409999999999703" width="0.3129999999999851" height="0.3129999999999851" fill="#F012BE" />
<rect x="2.230999999999896" y="0.6409999999999703" width="0.3129999999999851" height="0.3129999999999851" fill="#E6E6E6" />
<rect x="2.548999999999881" y="0.6409999999999703" width="0.3129999999999851" height="0.3129999999999851" fill="#8D1D2C" />
<rect x="2.866999999999866" y="0.6409999999999703" width="0.3129999999999851" height="0.3129999999999851" fill="#8D1D2C" />
<rect x="3.1849999999998513" y="0.6409999999999703" width="0.3129999999999851" height="0.3129999999999851" fill="#8D1D2C" />
<rect x="-0.02666666666666667" y="-0.02666666666666667" width="3.5513333333331696" height="1.0073333333332886" fill="none" stroke="#111111ff" stroke-width="0.08" />
<text x="3.4979999999998364" y="1.4227499999999553" font-size="0.375" fill="black" text-anchor="end" font-family="Anuphan">11x3</text>
<text x="-0.037500000000000006" y="1.4227499999999553" font-size="0.375" fill="black" text-anchor="start" font-family="Anuphan" font-weight="600">Output 3</text>
</g>
<g id="d8">
<rect x="0.005" y="0.005" width="0.3129999999999851" height="0.3129999999999851" fill="#8D1D2C" />
<rect x="0.32299999999998513" y="0.005" width="0.3129999999999851" height="0.3129999999999851" fill="#8D1D2C" />
<rect x="0.6409999999999703" y="0.005" width="0.3129999999999851" height="0.3129999999999851" fill="#8D1D2C" />
<rect x="0.9589999999999553" y="0.005" width="0.3129999999999851" height="0.3129999999999851" fill="#E6E6E6" />
<rect x="1.2769999999999404" y="0.005" width="0.3129999999999851" height="0.3129999999999851" fill="#F012BE" />
<rect x="1.5949999999999256" y="0.005" width="0.3129999999999851" height="0.3129999999999851" fill="#F012BE" />
<rect x="1.9129999999999105" y="0.005" width="0.3129999999999851" height="0.3129999999999851" fill="#F012BE" />
<rect x="2.230999999999896" y="0.005" width="0.3129999999999851" height="0.3129999999999851" fill="#E6E6E6" />
<rect x="2.548999999999881" y="0.005" width="0.3129999999999851" height="0.3129999999999851" fill="#FF871E" />
<rect x="2.866999999999866" y="0.005" width="0.3129999999999851" height="0.3129999999999851" fill="#FF871E" />
<rect x="3.1849999999998513" y="0.005" width="0.3129999999999851" height="0.3129999999999851" fill="#FF871E" />
<rect x="0.005" y="0.32299999999998513" width="0.3129999999999851" height="0.3129999999999851" fill="#8D1D2C" />
<rect x="0.32299999999998513" y="0.32299999999998513" width="0.3129999999999851" height="0.3129999999999851" fill="#8D1D2C" />
<rect x="0.6409999999999703" y="0.32299999999998513" width="0.3129999999999851" height="0.3129999999999851" fill="#8D1D2C" />
<rect x="0.9589999999999553" y="0.32299999999998513" width="0.3129999999999851" height="0.3129999999999851" fill="#E6E6E6" />
<rect x="1.2769999999999404" y="0.32299999999998513" width="0.3129999999999851" height="0.3129999999999851" fill="#F012BE" />
<rect x="1.5949999999999256" y="0.32299999999998513" width="0.3129999999999851" height="0.3129999999999851" fill="#F012BE" />
<rect x="1.9129999999999105" y="0.32299999999998513" width="0.3129999999999851" height="0.3129999999999851" fill="#F012BE" />
<rect x="2.230999999999896" y="0.32299999999998513" width="0.3129999999999851" height="0.3129999999999851" fill="#E6E6E6" />
<rect x="2.548999999999881" y="0.32299999999998513" width="0.3129999999999851" height="0.3129999999999851" fill="#FF871E" />
<rect x="2.866999999999866" y="0.32299999999998513" width="0.3129999999999851" height="0.3129999999999851" fill="#FF871E" />
<rect x="3.1849999999998513" y="0.32299999999998513" width="0.3129999999999851" height="0.3129999999999851" fill="#FF871E" />
<rect x="0.005" y="0.6409999999999703" width="0.3129999999999851" height="0.3129999999999851" fill="#8D1D2C" />
<rect x="0.32299999999998513" y="0.6409999999999703" width="0.3129999999999851" height="0.3129999999999851" fill="#8D1D2C" />
<rect x="0.6409999999999703" y="0.6409999999999703" width="0.3129999999999851" height="0.3129999999999851" fill="#8D1D2C" />
<rect x="0.9589999999999553" y="0.6409999999999703" width="0.3129999999999851" height="0.3129999999999851" fill="#E6E6E6" />
<rect x="1.2769999999999404" y="0.6409999999999703" width="0.3129999999999851" height="0.3129999999999851" fill="#F012BE" />
<rect x="1.5949999999999256" y="0.6409999999999703" width="0.3129999999999851" height="0.3129999999999851" fill="#F012BE" />
<rect x="1.9129999999999105" y="0.6409999999999703" width="0.3129999999999851" height="0.3129999999999851" fill="#F012BE" />
<rect x="2.230999999999896" y="0.6409999999999703" width="0.3129999999999851" height="0.3129999999999851" fill="#E6E6E6" />
<rect x="2.548999999999881" y="0.6409999999999703" width="0.3129999999999851" height="0.3129999999999851" fill="#FF871E" />
<rect x="2.866999999999866" y="0.6409999999999703" width="0.3129999999999851" height="0.3129999999999851" fill="#FF871E" />
<rect x="3.1849999999998513" y="0.6409999999999703" width="0.3129999999999851" height="0.3129999999999851" fill="#FF871E" />
<rect x="0.005" y="0.9589999999999553" width="0.3129999999999851" height="0.3129999999999851" fill="#E6E6E6" />
<rect x="0.32299999999998513" y="0.9589999999999553" width="0.3129999999999851" height="0.3129999999999851" fill="#E6E6E6" />
<rect x="0.6409999999999703" y="0.9589999999999553" width="0.3129999999999851" height="0.3129999999999851" fill="#E6E6E6" />
<rect x="0.9589999999999553" y="0.9589999999999553" width="0.3129999999999851" height="0.3129999999999851" fill="#E6E6E6" />
<rect x="1.2769999999999404" y="0.9589999999999553" width="0.3129999999999851" height="0.3129999999999851" fill="#E6E6E6" />
<rect x="1.5949999999999256" y="0.9589999999999553" width="0.3129999999999851" height="0.3129999999999851" fill="#E6E6E6" />
<rect x="1.9129999999999105" y="0.9589999999999553" width="0.3129999999999851" height="0.3129999999999851" fill="#E6E6E6" />
<rect x="2.230999999999896" y="0.9589999999999553" width="0.3129999999999851" height="0.3129999999999851" fill="#E6E6E6" />
<rect x="2.548999999999881" y="0.9589999999999553" width="0.3129999999999851" height="0.3129999999999851" fill="#E6E6E6" />
<rect x="2.866999999999866" y="0.9589999999999553" width="0.3129999999999851" height="0.3129999999999851" fill="#E6E6E6" />
<rect x="3.1849999999998513" y="0.9589999999999553" width="0.3129999999999851" height="0.3129999999999851" fill="#E6E6E6" />
<rect x="0.005" y="1.2769999999999404" width="0.3129999999999851" height="0.3129999999999851" fill="#FF871E" />
<rect x="0.32299999999998513" y="1.2769999999999404" width="0.3129999999999851" height="0.3129999999999851" fill="#FF871E" />
<rect x="0.6409999999999703" y="1.2769999999999404" width="0.3129999999999851" height="0.3129999999999851" fill="#FF871E" />
<rect x="0.9589999999999553" y="1.2769999999999404" width="0.3129999999999851" height="0.3129999999999851" fill="#E6E6E6" />
<rect x="1.2769999999999404" y="1.2769999999999404" width="0.3129999999999851" height="0.3129999999999851" fill="#54D2EB" />
<rect x="1.5949999999999256" y="1.2769999999999404" width="0.3129999999999851" height="0.3129999999999851" fill="#54D2EB" />
<rect x="1.9129999999999105" y="1.2769999999999404" width="0.3129999999999851" height="0.3129999999999851" fill="#54D2EB" />
<rect x="2.230999999999896" y="1.2769999999999404" width="0.3129999999999851" height="0.3129999999999851" fill="#E6E6E6" />
<rect x="2.548999999999881" y="1.2769999999999404" width="0.3129999999999851" height="0.3129999999999851" fill="#8D1D2C" />
<rect x="2.866999999999866" y="1.2769999999999404" width="0.3129999999999851" height="0.3129999999999851" fill="#8D1D2C" />
<rect x="3.1849999999998513" y="1.2769999999999404" width="0.3129999999999851" height="0.3129999999999851" fill="#8D1D2C" />
<rect x="0.005" y="1.5949999999999256" width="0.3129999999999851" height="0.3129999999999851" fill="#FF871E" />
<rect x="0.32299999999998513" y="1.5949999999999256" width="0.3129999999999851" height="0.3129999999999851" fill="#FF871E" />
<rect x="0.6409999999999703" y="1.5949999999999256" width="0.3129999999999851" height="0.3129999999999851" fill="#FF871E" />
<rect x="0.9589999999999553" y="1.5949999999999256" width="0.3129999999999851" height="0.3129999999999851" fill="#E6E6E6" />
<rect x="1.2769999999999404" y="1.5949999999999256" width="0.3129999999999851" height="0.3129999999999851" fill="#54D2EB" />
<rect x="1.5949999999999256" y="1.5949999999999256" width="0.3129999999999851" height="0.3129999999999851" fill="#54D2EB" />
<rect x="1.9129999999999105" y="1.5949999999999256" width="0.3129999999999851" height="0.3129999999999851" fill="#54D2EB" />
<rect x="2.230999999999896" y="1.5949999999999256" width="0.3129999999999851" height="0.3129999999999851" fill="#E6E6E6" />
<rect x="2.548999999999881" y="1.5949999999999256" width="0.3129999999999851" height="0.3129999999999851" fill="#8D1D2C" />
<rect x="2.866999999999866" y="1.5949999999999256" width="0.3129999999999851" height="0.3129999999999851" fill="#8D1D2C" />
<rect x="3.1849999999998513" y="1.5949999999999256" width="0.3129999999999851" height="0.3129999999999851" fill="#8D1D2C" />
<rect x="0.005" y="1.9129999999999105" width="0.3129999999999851" height="0.3129999999999851" fill="#FF871E" />
<rect x="0.32299999999998513" y="1.9129999999999105" width="0.3129999999999851" height="0.3129999999999851" fill="#FF871E" />
<rect x="0.6409999999999703" y="1.9129999999999105" width="0.3129999999999851" height="0.3129999999999851" fill="#FF871E" />
<rect x="0.9589999999999553" y="1.9129999999999105" width="0.3129999999999851" height="0.3129999999999851" fill="#E6E6E6" />
<rect x="1.2769999999999404" y="1.9129999999999105" width="0.3129999999999851" height="0.3129999999999851" fill="#54D2EB" />
<rect x="1.5949999999999256" y="1.9129999999999105" width="0.3129999999999851" height="0.3129999999999851" fill="#54D2EB" />
<rect x="1.9129999999999105" y="1.9129999999999105" width="0.3129999999999851" height="0.3129999999999851" fill="#54D2EB" />
<rect x="2.230999999999896" y="1.9129999999999105" width="0.3129999999999851" height="0.3129999999999851" fill="#E6E6E6" />
<rect x="2.548999999999881" y="1.9129999999999105" width="0.3129999999999851" height="0.3129999999999851" fill="#8D1D2C" />
<rect x="2.866999999999866" y="1.9129999999999105" width="0.3129999999999851" height="0.3129999999999851" fill="#8D1D2C" />
<rect x="3.1849999999998513" y="1.9129999999999105" width="0.3129999999999851" height="0.3129999999999851" fill="#8D1D2C" />
<rect x="-0.02666666666666667" y="-0.02666666666666667" width="3.5513333333331696" height="2.2793333333332293" fill="none" stroke="#111111ff" stroke-width="0.08" />
<text x="3.4979999999998364" y="2.694749999999896" font-size="0.375" fill="black" text-anchor="end" font-family="Anuphan">11x7</text>
<text x="-0.037500000000000006" y="2.694749999999896" font-size="0.375" fill="black" text-anchor="start" font-family="Anuphan" font-weight="600">Output 4</text>
</g>
</defs>
<rect x="0" y="0" width="100%" height="100%" fill="#eeeff6" />
<use xlink:href="#d0" x="0.25" y="0.25" />
<use xlink:href="#d1" x="4.247999999999836" y="0.25" />
<use xlink:href="#d2" x="8.245999999999672" y="0.25" />
<use xlink:href="#d3" x="12.24399999999951" y="0.25" />
<use xlink:href="#d4" x="16.241999999999344" y="0.25" />
<path d="M1.9989999999999182,3.125999999999896 L1.9989999999999182,3.5259999999998963" stroke-width="0.05" stroke="#888888" />
<path d="M1.8489999999999183,3.3259999999998966 L1.9989999999999182,3.5259999999998963" stroke-width="0.05" stroke="#888888" />
<path d="M2.1489999999999183,3.3259999999998966 L1.9989999999999182,3.5259999999998963" stroke-width="0.05" stroke="#888888" />
<use xlink:href="#d5" x="0.25" y="3.875999999999896" />
<path d="M5.996999999999755,3.125999999999896 L5.996999999999755,3.5259999999998963" stroke-width="0.05" stroke="#888888" />
<path d="M5.846999999999754,3.3259999999998966 L5.996999999999755,3.5259999999998963" stroke-width="0.05" stroke="#888888" />
<path d="M6.146999999999755,3.3259999999998966 L5.996999999999755,3.5259999999998963" stroke-width="0.05" stroke="#888888" />
<use xlink:href="#d6" x="4.247999999999836" y="3.875999999999896" />
<path d="M9.99499999999959,3.125999999999896 L9.99499999999959,3.5259999999998963" stroke-width="0.05" stroke="#888888" />
<path d="M9.84499999999959,3.3259999999998966 L9.99499999999959,3.5259999999998963" stroke-width="0.05" stroke="#888888" />
<path d="M10.144999999999591,3.3259999999998966 L9.99499999999959,3.5259999999998963" stroke-width="0.05" stroke="#888888" />
<use xlink:href="#d7" x="8.245999999999672" y="3.875999999999896" />
<path d="M13.992999999999428,3.125999999999896 L13.992999999999428,3.5259999999998963" stroke-width="0.05" stroke="#888888" />
<path d="M13.842999999999428,3.3259999999998966 L13.992999999999428,3.5259999999998963" stroke-width="0.05" stroke="#888888" />
<path d="M14.142999999999429,3.3259999999998966 L13.992999999999428,3.5259999999998963" stroke-width="0.05" stroke="#888888" />
<use xlink:href="#d8" x="12.24399999999951" y="3.875999999999896" />
<path d="M17.990999999999264,3.125999999999896 L17.990999999999264,3.5259999999998963" stroke-width="0.05" stroke="#888888" />
<path d="M17.840999999999266,3.3259999999998966 L17.990999999999264,3.5259999999998963" stroke-width="0.05" stroke="#888888" />
<path d="M18.140999999999263,3.3259999999998966 L17.990999999999264,3.5259999999998963" stroke-width="0.05" stroke="#888888" />
<text x="17.990999999999264" y="5.088999999999844" font-size="1" font-family="Anuphan" font-weight="700" fill="#333333" text-anchor="middle" alignment-baseline="middle">?</text>
<text x="19.9" y="7.0" font-size="0.3" font-family="Anuphan" font-weight="600" fill="#666666" text-anchor="end" alignment-baseline="bottom">Task 54d9e175</text>
</svg>