<?xml version="1.0" encoding="UTF-8"?>
<svg xmlns="http://www.w3.org/2000/svg" xmlns:xlink="http://www.w3.org/1999/xlink"
     width="800.0" height="224.00000000000003" viewBox="0 0 20.0 5.6000000000000005">
<defs>
<g id="d0">
<rect x="0.005" y="0.005" width="0.49466666666664855" height="0.49466666666664855" fill="#E6E6E6" />
<rect x="0.5046666666666485" y="0.005" width="0.49466666666664855" height="0.49466666666664855" fill="#E6E6E6" />
<rect x="1.004333333333297" y="0.005" width="0.49466666666664855" height="0.49466666666664855" fill="#252525" />
<rect x="0.005" y="0.5046666666666485" width="0.49466666666664855" height="0.49466666666664855" fill="#E6E6E6" />
<rect x="0.5046666666666485" y="0.5046666666666485" width="0.49466666666664855" height="0.49466666666664855" fill="#252525" />
<rect x="1.004333333333297" y="0.5046666666666485" width="0.49466666666664855" height="0.49466666666664855" fill="#E6E6E6" />
<rect x="0.005" y="1.004333333333297" width="0.49466666666664855" height="0.49466666666664855" fill="#252525" />
<rect x="0.5046666666666485" y="1.004333333333297" width="0.49466666666664855" height="0.49466666666664855" fill="#E6E6E6" />
<rect x="1.004333333333297" y="1.004333333333297" width="0.49466666666664855" height="0.49466666666664855" fill="#252525" />
<rect x="-0.02666666666666667" y="-0.02666666666666667" width="1.552333333333279" height="1.552333333333279" fill="none" stroke="#111111ff" stroke-width="0.08" />
<text x="1.4989999999999457" y="1.9677499999999457" font-size="0.375" fill="black" text-anchor="end" font-family="Anuphan">3x3</text>
<text x="-0.037500000000000006" y="1.9677499999999457" font-size="0.375" fill="black" text-anchor="start" font-family="Anuphan" font-weight="600">Input 1</text>
</g>
<g id="d1">
<rect x="0.005" y="0.005" width="0.49466666666664855" height="0.49466666666664855" fill="#54D2EB" />
<rect x="0.5046666666666485" y="0.005" width="0.49466666666664855" height="0.49466666666664855" fill="#252525" />
<rect x="1.004333333333297" y="0.005" width="0.49466666666664855" height="0.49466666666664855" fill="#54D2EB" />
<rect x="0.005" y="0.5046666666666485" width="0.49466666666664855" height="0.49466666666664855" fill="#252525" />
<rect x="0.5046666666666485" y="0.5046666666666485" width="0.49466666666664855" height="0.49466666666664855" fill="#54D2EB" />
<rect x="1.004333333333297" y="0.5046666666666485" width="0.49466666666664855" height="0.49466666666664855" fill="#252525" />
<rect x="0.005" y="1.004333333333297" width="0.49466666666664855" height="0.49466666666664855" fill="#54D2EB" />
<rect x="0.5046666666666485" y="1.004333333333297" width="0.49466666666664855" height="0.49466666666664855" fill="#252525" />
<rect x="1.004333333333297" y="1.004333333333297" width="0.49466666666664855" height="0.49466666666664855" fill="#54D2EB" />
<rect x="-0.02666666666666667" y="-0.02666666666666667" width="1.552333333333279" height="1.552333333333279" fill="none" stroke="#111111ff" stroke-width="0.08" />
<text x="1.4989999999999457" y="1.9677499999999457" font-size="0.375" fill="black" text-anchor="end" font-family="Anuphan">3x3</text>
<text x="-0.037500000000000006" y="1.9677499999999457" font-size="0.375" fill="black" text-anchor="start" font-family="Anuphan" font-weight="600">Input 2</text>
</g>
<g id="d2">
<rect x="0.005" y="0.005" width="0.49466666666664855" height="0.49466666666664855" fill="#E6E6E6" />
<rect x="0.5046666666666485" y="0.005" width="0.49466666666664855" height="0.49466666666664855" fill="#252525" />
<rect x="1.004333333333297" y="0.005" width="0.49466666666664855" height="0.49466666666664855" fill="#E6E6E6" />
<rect x="0.005" y="0.5046666666666485" width="0.49466666666664855" height="0.49466666666664855" fill="#252525" />
<rect x="0.5046666666666485" y="0.5046666666666485" width="0.49466666666664855" height="0.49466666666664855" fill="#E6E6E6" />
<rect x="1.004333333333297" y="0.5046666666666485" width="0.49466666666664855" height="0.49466666666664855" fill="#252525" />
<rect x="0.005" y="1.004333333333297" width="0.49466666666664855" height="0.49466666666664855" fill="#E6E6E6" />
<rect x="0.5046666666666485" y="1.004333333333297" width="0.49466666666664855" height="0.49466666666664855" fill="#252525" />
<rect x="1.004333333333297" y="1.004333333333297" width="0.49466666666664855" height="0.49466666666664855" fill="#E6E6E6" />
<rect x="-0.02666666666666667" y="-0.02666666666666667" width="1.552333333333279" height="1.552333333333279" fill="none" stroke="#111111ff" stroke-width="0.08" />
<text x="1.4989999999999457" y="1.9677499999999457" font-size="0.375" fill="black" text-anchor="end" font-family="Anuphan">3x3</text>
<text x="-0.037500000000000006" y="1.9677499999999457" font-size="0.375" fill="black" text-anchor="start" font-family="Anuphan" font-weight="600">Input 3</text>
</g>
<g id="d3">
<rect x="0.005" y="0.005" width="0.49466666666664855" height="0.49466666666664855" fill="#252525" />
<rect x="0.5046666666666485" y="0.005" width="0.49466666666664855" height="0.49466666666664855" fill="#0074D9" />
<rect x="1.004333333333297" y="0.005" width="0.49466666666664855" height="0.49466666666664855" fill="#0074D9" />
<rect x="0.005" y="0.5046666666666485" width="0.49466666666664855" height="0.49466666666664855" fill="#252525" />
<rect x="0.5046666666666485" y="0.5046666666666485" width="0.49466666666664855" height="0.49466666666664855" fill="#0074D9" />
<rect x="1.004333333333297" y="0.5046666666666485" width="0.49466666666664855" height="0.49466666666664855" fill="#0074D9" />
<rect x="0.005" y="1.004333333333297" width="0.49466666666664855" height="0.49466666666664855" fill="#0074D9" />
<rect x="0.5046666666666485" y="1.004333333333297" width="0.49466666666664855" height="0.49466666666664855" fill="#252525" />
<rect x="1.004333333333297" y="1.004333333333297" width="0.49466666666664855" height="0.49466666666664855" fill="#252525" />
<rect x="-0.02666666666666667" y="-0.02666666666666667" width="1.552333333333279" height="1.552333333333279" fill="none" stroke="#111111ff" stroke-width="0.08" />
<text x="1.4989999999999457" y="1.9677499999999457" font-size="0.375" fill="black" text-anchor="end" font-family="Anuphan">3x3</text>
<text x="-0.037500000000000006" y="1.9677499999999457" font-size="0.375" fill="black" text-anchor="start" font-family="Anuphan" font-weight="600">Input 4</text>
</g>
<g id="d4">
<rect x="0.005" y="0.005" width="0.49466666666664855" height="0.49466666666664855" fill="#252525" />
<rect x="0.5046666666666485" y="0.005" width="0.49466666666664855" height="0.49466666666664855" fill="#54D2EB" />
<rect x="1.004333333333297" y="0.005" width="0.49466666666664855" height="0.49466666666664855" fill="#54D2EB" />
<rect x="0.005" y="0.5046666666666485" width="0.49466666666664855" height="0.49466666666664855" fill="#252525" />
<rect x="0.5046666666666485" y="0.5046666666666485" width="0.49466666666664855" height="0.49466666666664855" fill="#54D2EB" />
<rect x="1.004333333333297" y="0.5046666666666485" width="0.49466666666664855" height="0.49466666666664855" fill="#54D2EB" />
<rect x="0.005" y="1.004333333333297" width="0.49466666666664855" height="0.49466666666664855" fill="#54D2EB" />
<rect x="0.5046666666666485" y="1.004333333333297" width="0.49466666666664855" height="0.49466666666664855" fill="#252525" />
<rect x="1.004333333333297" y="1.004333333333297" width="0.49466666666664855" height="0.49466666666664855" fill="#252525" />
<rect x="-0.02666666666666667" y="-0.02666666666666667" width="1.552333333333279" height="1.552333333333279" fill="none" stroke="#111111ff" stroke-width="0.08" />
<text x="1.4989999999999457" y="1.9677499999999457" font-size="0.375" fill="black" text-anchor="end" font-family="Anuphan">3x3</text>
<text x="-0.037500000000000006" y="1.9677499999999457" font-size="0.375" fill="black" text-anchor="start" font-family="Anuphan" font-weight="600">Input 5</text>
</g>
<g id="d5">
<rect x="0.005" y="0.005" width="0.49466666666664855" height="0.49466666666664855" fill="#FFDC00" />
<rect x="0.5046666666666485" y="0.005" width="0.49466666666664855" height="0.49466666666664855" fill="#FFDC00" />
<rect x="1.004333333333297" y="0.005" width="0.49466666666664855" height="0.49466666666664855" fill="#252525" />
<rect x="0.005" y="0.5046666666666485" width="0.49466666666664855" height="0.49466666666664855" fill="#FFDC00" />
<rect x="0.5046666666666485" y="0.5046666666666485" width="0.49466666666664855" height="0.49466666666664855" fill="#252525" />
<rect x="1.004333333333297" y="0.5046666666666485" width="0.49466666666664855" height="0.49466666666664855" fill="#FFDC00" />
<rect x="0.005" y="1.004333333333297" width="0.49466666666664855" height="0.49466666666664855" fill="#252525" />
<rect x="0.5046666666666485" y="1.004333333333297" width="0.49466666666664855" height="0.49466666666664855" fill="#FFDC00" />
<rect x="1.004333333333297" y="1.004333333333297" width="0.49466666666664855" height="0.49466666666664855" fill="#252525" />
<rect x="-0.02666666666666667" y="-0.02666666666666667" width="1.552333333333279" height="1.552333333333279" fill="none" stroke="#111111ff" stroke-width="0.08" />
<text x="1.4989999999999457" y="1.9677499999999457" font-size="0.375" fill="black" text-anchor="end" font-family="Anuphan">3x3</text>
<text x="-0.037500000000000006" y="1.9677499999999457" font-size="0.375" fill="black" text-anchor="start" font-family="Anuphan" font-weight="600">Input 6</text>
</g>
<g id="d6">
<rect x="0.005" y="0.005" width="0.49466666666664855" height="0.49466666666664855" fill="#252525" />
<rect x="0.5046666666666485" y="0.005" width="0.49466666666664855" height="0.49466666666664855" fill="#E6E6E6" />
<rect x="1.004333333333297" y="0.005" width="0.49466666666664855" height="0.49466666666664855" fill="#252525" />
<rect x="0.005" y="0.5046666666666485" width="0.49466666666664855" height="0.49466666666664855" fill="#E6E6E6" />
<rect x="0.5046666666666485" y="0.5046666666666485" width="0.49466666666664855" height="0.49466666666664855" fill="#E6E6E6" />
<rect x="1.004333333333297" y="0.5046666666666485" width="0.49466666666664855" height="0.49466666666664855" fill="#E6E6E6" />
<rect x="0.005" y="1.004333333333297" width="0.49466666666664855" height="0.49466666666664855" fill="#252525" />
<rect x="0.5046666666666485" y="1.004333333333297" width="0.49466666666664855" height="0.49466666666664855" fill="#E6E6E6" />
<rect x="1.004333333333297" y="1.004333333333297" width="0.49466666666664855" height="0.49466666666664855" fill="#252525" />
<rect x="-0.02666666666666667" y="-0.02666666666666667" width="1.552333333333279" height="1.552333333333279" fill="none" stroke="#111111ff" stroke-width="0.08" />
<text x="1.4989999999999457" y="1.9677499999999457" font-size="0.375" fill="black" text-anchor="end" font-family="Anuphan">3x3</text>
<text x="-0.037500000000000006" y="1.9677499999999457" font-size="0.375" fill="black" text-anchor="start" font-family="Anuphan" font-weight="600">Input 7</text>
</g>
<g id="d7">
<rect x="0.005" y="0.005" width="0.49466666666664855" height="0.49466666666664855" fill="#252525" />
<rect x="0.5046666666666485" y="0.005" width="0.49466666666664855" height="0.49466666666664855" fill="#54D2EB" />
<rect x="1.004333333333297" y="0.005" width="0.49466666666664855" height="0.49466666666664855" fill="#252525" />
<rect x="0.005" y="0.5046666666666485" width="0.49466666666664855" height="0.49466666666664855" fill="#54D2EB" />
<rect x="0.5046666666666485" y="0.5046666666666485" width="0.49466666666664855" height="0.49466666666664855" fill="#54D2EB" />
<rect x="1.004333333333297" y="0.5046666666666485" width="0.49466666666664855" height="0.49466666666664855" fill="#54D2EB" />
<rect x="0.005" y="1.004333333333297" width="0.49466666666664855" height="0.49466666666664855" fill="#252525" />
<rect x="0.5046666666666485" y="1.004333333333297" width="0.49466666666664855" height="0.49466666666664855" fill="#54D2EB" />
<rect x="1.004333333333297" y="1.004333333333297" width="0.49466666666664855" height="0.49466666666664855" fill="#252525" />
<rect x="-0.02666666666666667" y="-0.02666666666666667" width="1.552333333333279" height="1.552333333333279" fill="none" stroke="#111111ff" stroke-width="0.08" />
<text x="1.4989999999999457" y="1.9677499999999457" font-size="0.375" fill="black" text-anchor="end" font-family="Anuphan">3x3</text>
<text x="-0.037500000000000006" y="1.9677499999999457" font-size="0.375" fill="black" text-anchor="start" font-family="Anuphan" font-weight="600">Test 1</text>
</g>
<g id="d8">
<rect x="0.005" y="0.005" width="0.49466666666664855" height="0.49466666666664855" fill="#FF871E" />
<rect x="0.5046666666666485" y="0.005" width="0.49466666666664855" height="0.49466666666664855" fill="#FF871E" />
<rect x="1.004333333333297" y="0.005" width="0.49466666666664855" height="0.49466666666664855" fill="#252525" />
<rect x="0.005" y="0.5046666666666485" width="0.49466666666664855" height="0.49466666666664855" fill="#FF871E" />
<rect x="0.5046666666666485" y="0.5046666666666485" width="0.49466666666664855" height="0.49466666666664855" fill="#252525" />
<rect x="1.004333333333297" y="0.5046666666666485" width="0.49466666666664855" height="0.49466666666664855" fill="#FF871E" />
<rect x="0.005" y="1.004333333333297" width="0.49466666666664855" height="0.49466666666664855" fill="#252525" />
<rect x="0.5046666666666485" y="1.004333333333297" width="0.49466666666664855" height="0.49466666666664855" fill="#FF871E" />
<rect x="1.004333333333297" y="1.004333333333297" width="0.49466666666664855" height="0.49466666666664855" fill="#252525" />
<rect x="-0.02666666666666667" y="-0.02666666666666667" width="1.552333333333279" height="1.552333333333279" fill="none" stroke="#111111ff" stroke-width="0.08" />
<text x="1.4989999999999457" y="1.9677499999999457" font-size="0.375" fill="black" text-anchor="end" font-family="Anuphan">3x3</text>
<text x="-0.037500000000000006" y="1.9677499999999457" font-size="0.375" fill="black" text-anchor="start" font-family="Anuphan" font-weight="600">Test 2</text>
</g>
<g id="d9">
<rect x="0.005" y="0.005" width="0.49466666666664855" height="0.49466666666664855" fill="#FF4136" />
<rect x="0.5046666666666485" y="0.005" width="0.49466666666664855" height="0.49466666666664855" fill="#252525" />
<rect x="1.004333333333297" y="0.005" width="0.49466666666664855" height="0.49466666666664855" fill="#FF4136" />
<rect x="0.005" y="0.5046666666666485" width="0.49466666666664855" height="0.49466666666664855" fill="#252525" />
<rect x="0.5046666666666485" y="0.5046666666666485" width="0.49466666666664855" height="0.49466666666664855" fill="#FF4136" />
<rect x="1.004333333333297" y="0.5046666666666485" width="0.49466666666664855" height="0.49466666666664855" fill="#252525" />
<rect x="0.005" y="1.004333333333297" width="0.49466666666664855" height="0.49466666666664855" fill="#FF4136" />
<rect x="0.5046666666666485" y="1.004333333333297" width="0.49466666666664855" height="0.49466666666664855" fill="#252525" />
<rect x="1.004333333333297" y="1.004333333333297" width="0.49466666666664855" height="0.49466666666664855" fill="#FF4136" />
<rect x="-0.02666666666666667" y="-0.02666666666666667" width="1.552333333333279" height="1.552333333333279" fill="none" stroke="#111111ff" stroke-width="0.08" />
<text x="1.4989999999999457" y="1.9677499999999457" font-size="0.375" fill="black" text-anchor="end" font-family="Anuphan">3x3</text>
<text x="-0.037500000000000006" y="1.9677499999999457" font-size="0.375" fill="black" text-anchor="start" font-family="Anuphan" font-weight="600">Test 3</text>
</g>
<g id="d10">
<rect x="0.005" y="0.005" width="1.4939999999999458" height="1.4939999999999458" fill="#0074D9" />
<rect x="-0.02666666666666667" y="-0.02666666666666667" width="1.552333333333279" height="1.552333333333279" fill="none" stroke="#111111ff" stroke-width="0.08" />
<text x="1.4989999999999457" y="1.9677499999999457" font-size="0.375" fill="black" text-anchor="end" font-family="Anuphan">1x1</text>
<text x="-0.037500000000000006" y="1.9677499999999457" font-size="0.375" fill="black" text-anchor="start" font-family="Anuphan" font-weight="600">Output 1</text>
</g>
<g id="d11">
<rect x="0.005" y="0.005" width="1.4939999999999458" height="1.4939999999999458" fill="#FF4136" />
<rect x="-0.02666666666666667" y="-0.02666666666666667" width="1.552333333333279" height="1.552333333333279" fill="none" stroke="#111111ff" stroke-width="0.08" />
<text x="1.4989999999999457" y="1.9677499999999457" font-size="0.375" fill="black" text-anchor="end" font-family="Anuphan">1x1</text>
<text x="-0.037500000000000006" y="1.9677499999999457" font-size="0.375" fill="black" text-anchor="start" font-family="Anuphan" font-weight="600">Output 2</text>
</g>
<g id="d12">
<rect x="0.005" y="0.005" width="1.4939999999999458" height="1.4939999999999458" fill="#FF4136" />
<rect x="-0.02666666666666667" y="-0.02666666666666667" width="1.552333333333279" height="1.552333333333279" fill="none" stroke="#111111ff" stroke-width="0.08" />
<text x="1.4989999999999457" y="1.9677499999999457" font-size="0.375" fill="black" text-anchor="end" font-family="Anuphan">1x1</text>
<text x="-0.037500000000000006" y="1.9677499999999457" font-size="0.375" fill="black" text-anchor="start" font-family="Anuphan" font-weight="600">Output 3</text>
</g>
<g id="d13">
<rect x="0.005" y="0.005" width="1.4939999999999458" height="1.4939999999999458" fill="#37D449" />
<rect x="-0.02666666666666667" y="-0.02666666666666667" width="1.552333333333279" height="1.552333333333279" fill="none" stroke="#111111ff" stroke-width="0.08" />
<text x="1.4989999999999457" y="1.9677499999999457" font-size="0.375" fill="black" text-anchor="end" font-family="Anuphan">1x1</text>
<text x="-0.037500000000000006" y="1.9677499999999457" font-size="0.375" fill="black" text-anchor="start" font-family="Anuphan" font-weight="600">Output 4</text>
</g>
<g id="d14">
<rect x="0.005" y="0.005" width="1.4939999999999458" height="1.4939999999999458" fill="#37D449" />
<rect x="-0.02666666666666667" y="-0.02666666666666667" width="1.552333333333279" height="1.552333333333279" fill="none" stroke="#111111ff" stroke-width="0.08" />
<text x="1.4989999999999457" y="1.9677499999999457" font-size="0.375" fill="black" text-anchor="end" font-family="Anuphan">1x1</text>
<text x="-0.037500000000000006" y="1.9677499999999457" font-size="0.375" fill="black" text-anchor="start" font-family="Anuphan" font-weight="600">Output 5</text>
</g>
<g id="d15">
<rect x="0.005" y="0.005" width="1.4939999999999458" height="1.4939999999999458" fill="#0074D9" />
<rect x="-0.02666666666666667" y="-0.02666666666666667" width="1.552333333333279" height="1.552333333333279" fill="none" stroke="#111111ff" stroke-width="0.08" />
<text x="1.4989999999999457" y="1.9677499999999457" font-size="0.375" fill="black" text-anchor="end" font-family="Anuphan">1x1</text>
<text x="-0.037500000000000006" y="1.9677499999999457" font-size="0.375" fill="black" text-anchor="start" font-family="Anuphan" font-weight="600">Output 6</text>
</g>
<g id="d16">
<rect x="0.005" y="0.005" width="1.4939999999999458" height="1.4939999999999458" fill="#F012BE" />
<rect x="-0.02666666666666667" y="-0.02666666666666667" width="1.552333333333279" height="1.552333333333279" fill="none" stroke="#111111ff" stroke-width="0.08" />
<text x="1.4989999999999457" y="1.9677499999999457" font-size="0.375" fill="black" text-anchor="end" font-family="Anuphan">1x1</text>
<text x="-0.037500000000000006" y="1.9677499999999457" font-size="0.375" fill="black" text-anchor="start" font-family="Anuphan" font-weight="600">Output 7</text>
</g>
</defs>
<rect x="0" y="0" width="100%" height="100%" fill="#eeeff6" />
<use xlink:href="#d0" x="0.25" y="0.25" />
<use xlink:href="#d1" x="2.2489999999999455" y="0.25" />
<use xlink:href="#d2" x="4.247999999999891" y="0.25" />
<use xlink:href="#d3" x="6.246999999999837" y="0.25" />
<use xlink:href="#d4" x="8.245999999999782" y="0.25" />
<use xlink:href="#d5" x="10.24499999999973" y="0.25" />
<use xlink:href="#d6" x="12.243999999999675" y="0.25" />
<use xlink:href="#d7" x="14.24299999999962" y="0.25" />
<use xlink:href="#d8" x="16.241999999999564" y="0.25" />
<use xlink:href="#d9" x="18.240999999999513" y="0.25" />
<path d="M0.9994999999999729,2.3989999999999454 L0.9994999999999729,2.7989999999999453" stroke-width="0.05" stroke="#888888" />
<path d="M0.8494999999999728,2.598999999999945 L0.9994999999999729,2.7989999999999453" stroke-width="0.05" stroke="#888888" />
<path d="M1.1494999999999729,2.598999999999945 L0.9994999999999729,2.7989999999999453" stroke-width="0.05" stroke="#888888" />
<use xlink:href="#d10" x="0.25" y="3.1489999999999454" />
<path d="M2.9984999999999187,2.3989999999999454 L2.9984999999999187,2.7989999999999453" stroke-width="0.05" stroke="#888888" />
<path d="M2.8484999999999188,2.598999999999945 L2.9984999999999187,2.7989999999999453" stroke-width="0.05" stroke="#888888" />
<path d="M3.1484999999999186,2.598999999999945 L2.9984999999999187,2.7989999999999453" stroke-width="0.05" stroke="#888888" />
<use xlink:href="#d11" x="2.2489999999999455" y="3.1489999999999454" />
<path d="M4.997499999999865,2.3989999999999454 L4.997499999999865,2.7989999999999453" stroke-width="0.05" stroke="#888888" />
<path d="M4.847499999999864,2.598999999999945 L4.997499999999865,2.7989999999999453" stroke-width="0.05" stroke="#888888" />
<path d="M5.147499999999865,2.598999999999945 L4.997499999999865,2.7989999999999453" stroke-width="0.05" stroke="#888888" />
<use xlink:href="#d12" x="4.247999999999891" y="3.1489999999999454" />
<path d="M6.99649999999981,2.3989999999999454 L6.99649999999981,2.7989999999999453" stroke-width="0.05" stroke="#888888" />
<path d="M6.84649999999981,2.598999999999945 L6.99649999999981,2.7989999999999453" stroke-width="0.05" stroke="#888888" />
<path d="M7.1464999999998104,2.598999999999945 L6.99649999999981,2.7989999999999453" stroke-width="0.05" stroke="#888888" />
<use xlink:href="#d13" x="6.246999999999837" y="3.1489999999999454" />
<path d="M8.995499999999756,2.3989999999999454 L8.995499999999756,2.7989999999999453" stroke-width="0.05" stroke="#888888" />
<path d="M8.845499999999756,2.598999999999945 L8.995499999999756,2.7989999999999453" stroke-width="0.05" stroke="#888888" />
<path d="M9.145499999999757,2.598999999999945 L8.995499999999756,2.7989999999999453" stroke-width="0.05" stroke="#888888" />
<use xlink:href="#d14" x="8.245999999999782" y="3.1489999999999454" />
<path d="M10.994499999999702,2.3989999999999454 L10.994499999999702,2.7989999999999453" stroke-width="0.05" stroke="#888888" />
<path d="M10.844499999999702,2.598999999999945 L10.994499999999702,2.7989999999999453" stroke-width="0.05" stroke="#888888" />
<path d="M11.144499999999702,2.598999999999945 L10.994499999999702,2.7989999999999453" stroke-width="0.05" stroke="#888888" />
<use xlink:href="#d15" x="10.24499999999973" y="3.1489999999999454" />
<path d="M12.993499999999647,2.3989999999999454 L12.993499999999647,2.7989999999999453" stroke-width="0.05" stroke="#888888" />
<path d="M12.843499999999647,2.598999999999945 L12.993499999999647,2.7989999999999453" stroke-width="0.05" stroke="#888888" />
<path d="M13.143499999999648,2.598999999999945 L12.993499999999647,2.7989999999999453" stroke-width="0.05" stroke="#888888" />
<use xlink:href="#d16" x="12.243999999999675" y="3.1489999999999454" />
<path d="M14.992499999999593,2.3989999999999454 L14.992499999999593,2.7989999999999453" stroke-width="0.05" stroke="#888888" />
<path d="M14.842499999999593,2.598999999999945 L14.992499999999593,2.7989999999999453" stroke-width="0.05" stroke="#888888" />
<path d="M15.142499999999593,2.598999999999945 L14.992499999999593,2.7989999999999453" stroke-width="0.05" stroke="#888888" />
<text x="14.992499999999593" y="3.9984999999999182" font-size="1" font-family="Anuphan" font-weight="700" fill="#333333" text-anchor="middle" alignment-baseline="middle">?</text>
<path d="M16.99149999999954,2.3989999999999454 L16.99149999999954,2.7989999999999453" stroke-width="0.05" stroke="#888888" />
<path d="M16.84149999999954,2.598999999999945 L16.99149999999954,2.7989999999999453" stroke-width="0.05" stroke="#888888" />
<path d="M17.14149999999954,2.598999999999945 L16.99149999999954,2.7989999999999453" stroke-width="0.05" stroke="#888888" />
<text x="16.99149999999954" y="3.9984999999999182" font-size="1" font-family="Anuphan" font-weight="700" fill="#333333" text-anchor="middle" alignment-baseline="middle">?</text>
<path d="M18.990499999999486,2.3989999999999454 L18.990499999999486,2.7989999999999453" stroke-width="0.05" stroke="#888888" />
<path d="M18.840499999999487,2.598999999999945 L18.990499999999486,2.7989999999999453" stroke-width="0.05" stroke="#888888" />
<path d="M19.140499999999484,2.598999999999945 L18.990499999999486,2.7989999999999453" stroke-width="0.05" stroke="#888888" />
<text x="18.990499999999486" y="3.9984999999999182" font-size="1" font-family="Anuphan" font-weight="700" fill="#333333" text-anchor="middle" alignment-baseline="middle">?</text>
<text x="19.9" y="5.5" font-size="0.3" font-family="Anuphan" font-weight="600" fill="#666666" text-anchor="end" alignment-baseline="bottom">Task 27a28665</text>
</svg>