<?xml version="1.0" encoding="UTF-8"?>
<svg xmlns="http://www.w3.org/2000/svg" xmlns:xlink="http://www.w3.org/1999/xlink"
     width="800.0" height="460.0" viewBox="0 0 20.0 11.5">
<defs>
<g id="d0">
<rect x="0.005" y="0.005" width="0.5977777777777777" height="0.5977777777777777" fill="#252525" />
<rect x="0.6077777777777778" y="0.005" width="0.5977777777777777" height="0.5977777777777777" fill="#0074D9" />
<rect x="1.2105555555555554" y="0.005" width="0.5977777777777777" height="0.5977777777777777" fill="#252525" />
<rect x="1.813333333333333" y="0.005" width="0.5977777777777777" height="0.5977777777777777" fill="#0074D9" />
<rect x="0.005" y="0.6077777777777778" width="0.5977777777777777" height="0.5977777777777777" fill="#252525" />
<rect x="0.6077777777777778" y="0.6077777777777778" width="0.5977777777777777" height="0.5977777777777777" fill="#252525" />
<rect x="1.2105555555555554" y="0.6077777777777778" width="0.5977777777777777" height="0.5977777777777777" fill="#252525" />
<rect x="1.813333333333333" y="0.6077777777777778" width="0.5977777777777777" height="0.5977777777777777" fill="#0074D9" />
<rect x="0.005" y="1.2105555555555554" width="0.5977777777777777" height="0.5977777777777777" fill="#0074D9" />
<rect x="0.6077777777777778" y="1.2105555555555554" width="0.5977777777777777" height="0.5977777777777777" fill="#252525" />
<rect x="1.2105555555555554" y="1.2105555555555554" width="0.5977777777777777" height="0.5977777777777777" fill="#0074D9" />
<rect x="1.813333333333333" y="1.2105555555555554" width="0.5977777777777777" height="0.5977777777777777" fill="#252525" />
<rect x="0.005" y="1.813333333333333" width="0.5977777777777777" height="0.5977777777777777" fill="#252525" />
<rect x="0.6077777777777778" y="1.813333333333333" width="0.5977777777777777" height="0.5977777777777777" fill="#252525" />
<rect x="1.2105555555555554" y="1.813333333333333" width="0.5977777777777777" height="0.5977777777777777" fill="#252525" />
<rect x="1.813333333333333" y="1.813333333333333" width="0.5977777777777777" height="0.5977777777777777" fill="#0074D9" />
<rect x="0.005" y="2.416111111111111" width="0.5977777777777777" height="0.5977777777777777" fill="#FFDC00" />
<rect x="0.6077777777777778" y="2.416111111111111" width="0.5977777777777777" height="0.5977777777777777" fill="#FFDC00" />
<rect x="1.2105555555555554" y="2.416111111111111" width="0.5977777777777777" height="0.5977777777777777" fill="#FFDC00" />
<rect x="1.813333333333333" y="2.416111111111111" width="0.5977777777777777" height="0.5977777777777777" fill="#FFDC00" />
<rect x="0.005" y="3.0188888888888887" width="0.5977777777777777" height="0.5977777777777777" fill="#252525" />
<rect x="0.6077777777777778" y="3.0188888888888887" width="0.5977777777777777" height="0.5977777777777777" fill="#FF4136" />
<rect x="1.2105555555555554" y="3.0188888888888887" width="0.5977777777777777" height="0.5977777777777777" fill="#252525" />
<rect x="1.813333333333333" y="3.0188888888888887" width="0.5977777777777777" height="0.5977777777777777" fill="#FF4136" />
<rect x="0.005" y="3.621666666666666" width="0.5977777777777777" height="0.5977777777777777" fill="#252525" />
<rect x="0.6077777777777778" y="3.621666666666666" width="0.5977777777777777" height="0.5977777777777777" fill="#252525" />
<rect x="1.2105555555555554" y="3.621666666666666" width="0.5977777777777777" height="0.5977777777777777" fill="#252525" />
<rect x="1.813333333333333" y="3.621666666666666" width="0.5977777777777777" height="0.5977777777777777" fill="#FF4136" />
<rect x="0.005" y="4.224444444444444" width="0.5977777777777777" height="0.5977777777777777" fill="#FF4136" />
<rect x="0.6077777777777778" y="4.224444444444444" width="0.5977777777777777" height="0.5977777777777777" fill="#252525" />
<rect x="1.2105555555555554" y="4.224444444444444" width="0.5977777777777777" height="0.5977777777777777" fill="#252525" />
<rect x="1.813333333333333" y="4.224444444444444" width="0.5977777777777777" height="0.5977777777777777" fill="#FF4136" />
<rect x="0.005" y="4.827222222222222" width="0.5977777777777777" height="0.5977777777777777" fill="#FF4136" />
<rect x="0.6077777777777778" y="4.827222222222222" width="0.5977777777777777" height="0.5977777777777777" fill="#FF4136" />
<rect x="1.2105555555555554" y="4.827222222222222" width="0.5977777777777777" height="0.5977777777777777" fill="#FF4136" />
<rect x="1.813333333333333" y="4.827222222222222" width="0.5977777777777777" height="0.5977777777777777" fill="#252525" />
<rect x="-0.02666666666666667" y="-0.02666666666666667" width="2.464444444444444" height="5.4783333333333335" fill="none" stroke="#111111ff" stroke-width="0.08" />
<text x="2.411111111111111" y="5.89375" font-size="0.375" fill="black" text-anchor="end" font-family="Anuphan">4x9</text>
<text x="-0.037500000000000006" y="5.89375" font-size="0.375" fill="black" text-anchor="start" font-family="Anuphan" font-weight="600">Input 1</text>
</g>
<g id="d1">
<rect x="0.005" y="0.005" width="0.5977777777777777" height="0.5977777777777777" fill="#0074D9" />
<rect x="0.6077777777777778" y="0.005" width="0.5977777777777777" height="0.5977777777777777" fill="#0074D9" />
<rect x="1.2105555555555554" y="0.005" width="0.5977777777777777" height="0.5977777777777777" fill="#252525" />
<rect x="1.813333333333333" y="0.005" width="0.5977777777777777" height="0.5977777777777777" fill="#252525" />
<rect x="0.005" y="0.6077777777777778" width="0.5977777777777777" height="0.5977777777777777" fill="#0074D9" />
<rect x="0.6077777777777778" y="0.6077777777777778" width="0.5977777777777777" height="0.5977777777777777" fill="#252525" />
<rect x="1.2105555555555554" y="0.6077777777777778" width="0.5977777777777777" height="0.5977777777777777" fill="#0074D9" />
<rect x="1.813333333333333" y="0.6077777777777778" width="0.5977777777777777" height="0.5977777777777777" fill="#252525" />
<rect x="0.005" y="1.2105555555555554" width="0.5977777777777777" height="0.5977777777777777" fill="#0074D9" />
<rect x="0.6077777777777778" y="1.2105555555555554" width="0.5977777777777777" height="0.5977777777777777" fill="#0074D9" />
<rect x="1.2105555555555554" y="1.2105555555555554" width="0.5977777777777777" height="0.5977777777777777" fill="#252525" />
<rect x="1.813333333333333" y="1.2105555555555554" width="0.5977777777777777" height="0.5977777777777777" fill="#0074D9" />
<rect x="0.005" y="1.813333333333333" width="0.5977777777777777" height="0.5977777777777777" fill="#252525" />
<rect x="0.6077777777777778" y="1.813333333333333" width="0.5977777777777777" height="0.5977777777777777" fill="#0074D9" />
<rect x="1.2105555555555554" y="1.813333333333333" width="0.5977777777777777" height="0.5977777777777777" fill="#0074D9" />
<rect x="1.813333333333333" y="1.813333333333333" width="0.5977777777777777" height="0.5977777777777777" fill="#252525" />
<rect x="0.005" y="2.416111111111111" width="0.5977777777777777" height="0.5977777777777777" fill="#FFDC00" />
<rect x="0.6077777777777778" y="2.416111111111111" width="0.5977777777777777" height="0.5977777777777777" fill="#FFDC00" />
<rect x="1.2105555555555554" y="2.416111111111111" width="0.5977777777777777" height="0.5977777777777777" fill="#FFDC00" />
<rect x="1.813333333333333" y="2.416111111111111" width="0.5977777777777777" height="0.5977777777777777" fill="#FFDC00" />
<rect x="0.005" y="3.0188888888888887" width="0.5977777777777777" height="0.5977777777777777" fill="#252525" />
<rect x="0.6077777777777778" y="3.0188888888888887" width="0.5977777777777777" height="0.5977777777777777" fill="#FF4136" />
<rect x="1.2105555555555554" y="3.0188888888888887" width="0.5977777777777777" height="0.5977777777777777" fill="#FF4136" />
<rect x="1.813333333333333" y="3.0188888888888887" width="0.5977777777777777" height="0.5977777777777777" fill="#FF4136" />
<rect x="0.005" y="3.621666666666666" width="0.5977777777777777" height="0.5977777777777777" fill="#FF4136" />
<rect x="0.6077777777777778" y="3.621666666666666" width="0.5977777777777777" height="0.5977777777777777" fill="#252525" />
<rect x="1.2105555555555554" y="3.621666666666666" width="0.5977777777777777" height="0.5977777777777777" fill="#FF4136" />
<rect x="1.813333333333333" y="3.621666666666666" width="0.5977777777777777" height="0.5977777777777777" fill="#252525" />
<rect x="0.005" y="4.224444444444444" width="0.5977777777777777" height="0.5977777777777777" fill="#FF4136" />
<rect x="0.6077777777777778" y="4.224444444444444" width="0.5977777777777777" height="0.5977777777777777" fill="#FF4136" />
<rect x="1.2105555555555554" y="4.224444444444444" width="0.5977777777777777" height="0.5977777777777777" fill="#FF4136" />
<rect x="1.813333333333333" y="4.224444444444444" width="0.5977777777777777" height="0.5977777777777777" fill="#FF4136" />
<rect x="0.005" y="4.827222222222222" width="0.5977777777777777" height="0.5977777777777777" fill="#FF4136" />
<rect x="0.6077777777777778" y="4.827222222222222" width="0.5977777777777777" height="0.5977777777777777" fill="#FF4136" />
<rect x="1.2105555555555554" y="4.827222222222222" width="0.5977777777777777" height="0.5977777777777777" fill="#FF4136" />
<rect x="1.813333333333333" y="4.827222222222222" width="0.5977777777777777" height="0.5977777777777777" fill="#FF4136" />
<rect x="-0.02666666666666667" y="-0.02666666666666667" width="2.464444444444444" height="5.4783333333333335" fill="none" stroke="#111111ff" stroke-width="0.08" />
<text x="2.411111111111111" y="5.89375" font-size="0.375" fill="black" text-anchor="end" font-family="Anuphan">4x9</text>
<text x="-0.037500000000000006" y="5.89375" font-size="0.375" fill="black" text-anchor="start" font-family="Anuphan" font-weight="600">Input 2</text>
</g>
<g id="d2">
<rect x="0.005" y="0.005" width="0.5977777777777777" height="0.5977777777777777" fill="#252525" />
<rect x="0.6077777777777778" y="0.005" width="0.5977777777777777" height="0.5977777777777777" fill="#0074D9" />
<rect x="1.2105555555555554" y="0.005" width="0.5977777777777777" height="0.5977777777777777" fill="#252525" />
<rect x="1.813333333333333" y="0.005" width="0.5977777777777777" height="0.5977777777777777" fill="#252525" />
<rect x="0.005" y="0.6077777777777778" width="0.5977777777777777" height="0.5977777777777777" fill="#0074D9" />
<rect x="0.6077777777777778" y="0.6077777777777778" width="0.5977777777777777" height="0.5977777777777777" fill="#252525" />
<rect x="1.2105555555555554" y="0.6077777777777778" width="0.5977777777777777" height="0.5977777777777777" fill="#0074D9" />
<rect x="1.813333333333333" y="0.6077777777777778" width="0.5977777777777777" height="0.5977777777777777" fill="#0074D9" />
<rect x="0.005" y="1.2105555555555554" width="0.5977777777777777" height="0.5977777777777777" fill="#0074D9" />
<rect x="0.6077777777777778" y="1.2105555555555554" width="0.5977777777777777" height="0.5977777777777777" fill="#0074D9" />
<rect x="1.2105555555555554" y="1.2105555555555554" width="0.5977777777777777" height="0.5977777777777777" fill="#0074D9" />
<rect x="1.813333333333333" y="1.2105555555555554" width="0.5977777777777777" height="0.5977777777777777" fill="#252525" />
<rect x="0.005" y="1.813333333333333" width="0.5977777777777777" height="0.5977777777777777" fill="#0074D9" />
<rect x="0.6077777777777778" y="1.813333333333333" width="0.5977777777777777" height="0.5977777777777777" fill="#0074D9" />
<rect x="1.2105555555555554" y="1.813333333333333" width="0.5977777777777777" height="0.5977777777777777" fill="#0074D9" />
<rect x="1.813333333333333" y="1.813333333333333" width="0.5977777777777777" height="0.5977777777777777" fill="#252525" />
<rect x="0.005" y="2.416111111111111" width="0.5977777777777777" height="0.5977777777777777" fill="#FFDC00" />
<rect x="0.6077777777777778" y="2.416111111111111" width="0.5977777777777777" height="0.5977777777777777" fill="#FFDC00" />
<rect x="1.2105555555555554" y="2.416111111111111" width="0.5977777777777777" height="0.5977777777777777" fill="#FFDC00" />
<rect x="1.813333333333333" y="2.416111111111111" width="0.5977777777777777" height="0.5977777777777777" fill="#FFDC00" />
<rect x="0.005" y="3.0188888888888887" width="0.5977777777777777" height="0.5977777777777777" fill="#252525" />
<rect x="0.6077777777777778" y="3.0188888888888887" width="0.5977777777777777" height="0.5977777777777777" fill="#252525" />
<rect x="1.2105555555555554" y="3.0188888888888887" width="0.5977777777777777" height="0.5977777777777777" fill="#252525" />
<rect x="1.813333333333333" y="3.0188888888888887" width="0.5977777777777777" height="0.5977777777777777" fill="#252525" />
<rect x="0.005" y="3.621666666666666" width="0.5977777777777777" height="0.5977777777777777" fill="#252525" />
<rect x="0.6077777777777778" y="3.621666666666666" width="0.5977777777777777" height="0.5977777777777777" fill="#FF4136" />
<rect x="1.2105555555555554" y="3.621666666666666" width="0.5977777777777777" height="0.5977777777777777" fill="#252525" />
<rect x="1.813333333333333" y="3.621666666666666" width="0.5977777777777777" height="0.5977777777777777" fill="#FF4136" />
<rect x="0.005" y="4.224444444444444" width="0.5977777777777777" height="0.5977777777777777" fill="#FF4136" />
<rect x="0.6077777777777778" y="4.224444444444444" width="0.5977777777777777" height="0.5977777777777777" fill="#FF4136" />
<rect x="1.2105555555555554" y="4.224444444444444" width="0.5977777777777777" height="0.5977777777777777" fill="#252525" />
<rect x="1.813333333333333" y="4.224444444444444" width="0.5977777777777777" height="0.5977777777777777" fill="#FF4136" />
<rect x="0.005" y="4.827222222222222" width="0.5977777777777777" height="0.5977777777777777" fill="#252525" />
<rect x="0.6077777777777778" y="4.827222222222222" width="0.5977777777777777" height="0.5977777777777777" fill="#FF4136" />
<rect x="1.2105555555555554" y="4.827222222222222" width="0.5977777777777777" height="0.5977777777777777" fill="#252525" />
<rect x="1.813333333333333" y="4.827222222222222" width="0.5977777777777777" height="0.5977777777777777" fill="#252525" />
<rect x="-0.02666666666666667" y="-0.02666666666666667" width="2.464444444444444" height="5.4783333333333335" fill="none" stroke="#111111ff" stroke-width="0.08" />
<text x="2.411111111111111" y="5.89375" font-size="0.375" fill="black" text-anchor="end" font-family="Anuphan">4x9</text>
<text x="-0.037500000000000006" y="5.89375" font-size="0.375" fill="black" text-anchor="start" font-family="Anuphan" font-weight="600">Input 3</text>
</g>
<g id="d3">
<rect x="0.005" y="0.005" width="0.5977777777777777" height="0.5977777777777777" fill="#0074D9" />
<rect x="0.6077777777777778" y="0.005" width="0.5977777777777777" height="0.5977777777777777" fill="#252525" />
<rect x="1.2105555555555554" y="0.005" width="0.5977777777777777" height="0.5977777777777777" fill="#0074D9" />
<rect x="1.813333333333333" y="0.005" width="0.5977777777777777" height="0.5977777777777777" fill="#0074D9" />
<rect x="0.005" y="0.6077777777777778" width="0.5977777777777777" height="0.5977777777777777" fill="#252525" />
<rect x="0.6077777777777778" y="0.6077777777777778" width="0.5977777777777777" height="0.5977777777777777" fill="#252525" />
<rect x="1.2105555555555554" y="0.6077777777777778" width="0.5977777777777777" height="0.5977777777777777" fill="#252525" />
<rect x="1.813333333333333" y="0.6077777777777778" width="0.5977777777777777" height="0.5977777777777777" fill="#0074D9" />
<rect x="0.005" y="1.2105555555555554" width="0.5977777777777777" height="0.5977777777777777" fill="#0074D9" />
<rect x="0.6077777777777778" y="1.2105555555555554" width="0.5977777777777777" height="0.5977777777777777" fill="#0074D9" />
<rect x="1.2105555555555554" y="1.2105555555555554" width="0.5977777777777777" height="0.5977777777777777" fill="#252525" />
<rect x="1.813333333333333" y="1.2105555555555554" width="0.5977777777777777" height="0.5977777777777777" fill="#252525" />
<rect x="0.005" y="1.813333333333333" width="0.5977777777777777" height="0.5977777777777777" fill="#252525" />
<rect x="0.6077777777777778" y="1.813333333333333" width="0.5977777777777777" height="0.5977777777777777" fill="#252525" />
<rect x="1.2105555555555554" y="1.813333333333333" width="0.5977777777777777" height="0.5977777777777777" fill="#0074D9" />
<rect x="1.813333333333333" y="1.813333333333333" width="0.5977777777777777" height="0.5977777777777777" fill="#0074D9" />
<rect x="0.005" y="2.416111111111111" width="0.5977777777777777" height="0.5977777777777777" fill="#FFDC00" />
<rect x="0.6077777777777778" y="2.416111111111111" width="0.5977777777777777" height="0.5977777777777777" fill="#FFDC00" />
<rect x="1.2105555555555554" y="2.416111111111111" width="0.5977777777777777" height="0.5977777777777777" fill="#FFDC00" />
<rect x="1.813333333333333" y="2.416111111111111" width="0.5977777777777777" height="0.5977777777777777" fill="#FFDC00" />
<rect x="0.005" y="3.0188888888888887" width="0.5977777777777777" height="0.5977777777777777" fill="#252525" />
<rect x="0.6077777777777778" y="3.0188888888888887" width="0.5977777777777777" height="0.5977777777777777" fill="#FF4136" />
<rect x="1.2105555555555554" y="3.0188888888888887" width="0.5977777777777777" height="0.5977777777777777" fill="#FF4136" />
<rect x="1.813333333333333" y="3.0188888888888887" width="0.5977777777777777" height="0.5977777777777777" fill="#FF4136" />
<rect x="0.005" y="3.621666666666666" width="0.5977777777777777" height="0.5977777777777777" fill="#252525" />
<rect x="0.6077777777777778" y="3.621666666666666" width="0.5977777777777777" height="0.5977777777777777" fill="#FF4136" />
<rect x="1.2105555555555554" y="3.621666666666666" width="0.5977777777777777" height="0.5977777777777777" fill="#FF4136" />
<rect x="1.813333333333333" y="3.621666666666666" width="0.5977777777777777" height="0.5977777777777777" fill="#FF4136" />
<rect x="0.005" y="4.224444444444444" width="0.5977777777777777" height="0.5977777777777777" fill="#FF4136" />
<rect x="0.6077777777777778" y="4.224444444444444" width="0.5977777777777777" height="0.5977777777777777" fill="#252525" />
<rect x="1.2105555555555554" y="4.224444444444444" width="0.5977777777777777" height="0.5977777777777777" fill="#FF4136" />
<rect x="1.813333333333333" y="4.224444444444444" width="0.5977777777777777" height="0.5977777777777777" fill="#FF4136" />
<rect x="0.005" y="4.827222222222222" width="0.5977777777777777" height="0.5977777777777777" fill="#FF4136" />
<rect x="0.6077777777777778" y="4.827222222222222" width="0.5977777777777777" height="0.5977777777777777" fill="#FF4136" />
<rect x="1.2105555555555554" y="4.827222222222222" width="0.5977777777777777" height="0.5977777777777777" fill="#FF4136" />
<rect x="1.813333333333333" y="4.827222222222222" width="0.5977777777777777" height="0.5977777777777777" fill="#FF4136" />
<rect x="-0.02666666666666667" y="-0.02666666666666667" width="2.464444444444444" height="5.4783333333333335" fill="none" stroke="#111111ff" stroke-width="0.08" />
<text x="2.411111111111111" y="5.89375" font-size="0.375" fill="black" text-anchor="end" font-family="Anuphan">4x9</text>
<text x="-0.037500000000000006" y="5.89375" font-size="0.375" fill="black" text-anchor="start" font-family="Anuphan" font-weight="600">Input 4</text>
</g>
<g id="d4">
<rect x="0.005" y="0.005" width="0.5977777777777777" height="0.5977777777777777" fill="#0074D9" />
<rect x="0.6077777777777778" y="0.005" width="0.5977777777777777" height="0.5977777777777777" fill="#252525" />
<rect x="1.2105555555555554" y="0.005" width="0.5977777777777777" height="0.5977777777777777" fill="#0074D9" />
<rect x="1.813333333333333" y="0.005" width="0.5977777777777777" height="0.5977777777777777" fill="#0074D9" />
<rect x="0.005" y="0.6077777777777778" width="0.5977777777777777" height="0.5977777777777777" fill="#252525" />
<rect x="0.6077777777777778" y="0.6077777777777778" width="0.5977777777777777" height="0.5977777777777777" fill="#0074D9" />
<rect x="1.2105555555555554" y="0.6077777777777778" width="0.5977777777777777" height="0.5977777777777777" fill="#0074D9" />
<rect x="1.813333333333333" y="0.6077777777777778" width="0.5977777777777777" height="0.5977777777777777" fill="#0074D9" />
<rect x="0.005" y="1.2105555555555554" width="0.5977777777777777" height="0.5977777777777777" fill="#252525" />
<rect x="0.6077777777777778" y="1.2105555555555554" width="0.5977777777777777" height="0.5977777777777777" fill="#252525" />
<rect x="1.2105555555555554" y="1.2105555555555554" width="0.5977777777777777" height="0.5977777777777777" fill="#0074D9" />
<rect x="1.813333333333333" y="1.2105555555555554" width="0.5977777777777777" height="0.5977777777777777" fill="#252525" />
<rect x="0.005" y="1.813333333333333" width="0.5977777777777777" height="0.5977777777777777" fill="#0074D9" />
<rect x="0.6077777777777778" y="1.813333333333333" width="0.5977777777777777" height="0.5977777777777777" fill="#252525" />
<rect x="1.2105555555555554" y="1.813333333333333" width="0.5977777777777777" height="0.5977777777777777" fill="#0074D9" />
<rect x="1.813333333333333" y="1.813333333333333" width="0.5977777777777777" height="0.5977777777777777" fill="#0074D9" />
<rect x="0.005" y="2.416111111111111" width="0.5977777777777777" height="0.5977777777777777" fill="#FFDC00" />
<rect x="0.6077777777777778" y="2.416111111111111" width="0.5977777777777777" height="0.5977777777777777" fill="#FFDC00" />
<rect x="1.2105555555555554" y="2.416111111111111" width="0.5977777777777777" height="0.5977777777777777" fill="#FFDC00" />
<rect x="1.813333333333333" y="2.416111111111111" width="0.5977777777777777" height="0.5977777777777777" fill="#FFDC00" />
<rect x="0.005" y="3.0188888888888887" width="0.5977777777777777" height="0.5977777777777777" fill="#FF4136" />
<rect x="0.6077777777777778" y="3.0188888888888887" width="0.5977777777777777" height="0.5977777777777777" fill="#FF4136" />
<rect x="1.2105555555555554" y="3.0188888888888887" width="0.5977777777777777" height="0.5977777777777777" fill="#252525" />
<rect x="1.813333333333333" y="3.0188888888888887" width="0.5977777777777777" height="0.5977777777777777" fill="#FF4136" />
<rect x="0.005" y="3.621666666666666" width="0.5977777777777777" height="0.5977777777777777" fill="#252525" />
<rect x="0.6077777777777778" y="3.621666666666666" width="0.5977777777777777" height="0.5977777777777777" fill="#252525" />
<rect x="1.2105555555555554" y="3.621666666666666" width="0.5977777777777777" height="0.5977777777777777" fill="#FF4136" />
<rect x="1.813333333333333" y="3.621666666666666" width="0.5977777777777777" height="0.5977777777777777" fill="#252525" />
<rect x="0.005" y="4.224444444444444" width="0.5977777777777777" height="0.5977777777777777" fill="#FF4136" />
<rect x="0.6077777777777778" y="4.224444444444444" width="0.5977777777777777" height="0.5977777777777777" fill="#252525" />
<rect x="1.2105555555555554" y="4.224444444444444" width="0.5977777777777777" height="0.5977777777777777" fill="#252525" />
<rect x="1.813333333333333" y="4.224444444444444" width="0.5977777777777777" height="0.5977777777777777" fill="#FF4136" />
<rect x="0.005" y="4.827222222222222" width="0.5977777777777777" height="0.5977777777777777" fill="#252525" />
<rect x="0.6077777777777778" y="4.827222222222222" width="0.5977777777777777" height="0.5977777777777777" fill="#FF4136" />
<rect x="1.2105555555555554" y="4.827222222222222" width="0.5977777777777777" height="0.5977777777777777" fill="#252525" />
<rect x="1.813333333333333" y="4.827222222222222" width="0.5977777777777777" height="0.5977777777777777" fill="#FF4136" />
<rect x="-0.02666666666666667" y="-0.02666666666666667" width="2.464444444444444" height="5.4783333333333335" fill="none" stroke="#111111ff" stroke-width="0.08" />
<text x="2.411111111111111" y="5.89375" font-size="0.375" fill="black" text-anchor="end" font-family="Anuphan">4x9</text>
<text x="-0.037500000000000006" y="5.89375" font-size="0.375" fill="black" text-anchor="start" font-family="Anuphan" font-weight="600">Test 1</text>
</g>
<g id="d5">
<rect x="0.005" y="0.005" width="0.8694999999999591" height="0.8694999999999591" fill="#252525" />
<rect x="0.8794999999999591" y="0.005" width="0.8694999999999591" height="0.8694999999999591" fill="#252525" />
<rect x="1.753999999999918" y="0.005" width="0.8694999999999591" height="0.8694999999999591" fill="#252525" />
<rect x="2.6284999999998773" y="0.005" width="0.8694999999999591" height="0.8694999999999591" fill="#252525" />
<rect x="0.005" y="0.8794999999999591" width="0.8694999999999591" height="0.8694999999999591" fill="#252525" />
<rect x="0.8794999999999591" y="0.8794999999999591" width="0.8694999999999591" height="0.8694999999999591" fill="#252525" />
<rect x="1.753999999999918" y="0.8794999999999591" width="0.8694999999999591" height="0.8694999999999591" fill="#252525" />
<rect x="2.6284999999998773" y="0.8794999999999591" width="0.8694999999999591" height="0.8694999999999591" fill="#252525" />
<rect x="0.005" y="1.753999999999918" width="0.8694999999999591" height="0.8694999999999591" fill="#252525" />
<rect x="0.8794999999999591" y="1.753999999999918" width="0.8694999999999591" height="0.8694999999999591" fill="#252525" />
<rect x="1.753999999999918" y="1.753999999999918" width="0.8694999999999591" height="0.8694999999999591" fill="#37D449" />
<rect x="2.6284999999998773" y="1.753999999999918" width="0.8694999999999591" height="0.8694999999999591" fill="#37D449" />
<rect x="0.005" y="2.6284999999998773" width="0.8694999999999591" height="0.8694999999999591" fill="#37D449" />
<rect x="0.8794999999999591" y="2.6284999999998773" width="0.8694999999999591" height="0.8694999999999591" fill="#37D449" />
<rect x="1.753999999999918" y="2.6284999999998773" width="0.8694999999999591" height="0.8694999999999591" fill="#37D449" />
<rect x="2.6284999999998773" y="2.6284999999998773" width="0.8694999999999591" height="0.8694999999999591" fill="#37D449" />
<rect x="-0.02666666666666667" y="-0.02666666666666667" width="3.5513333333331696" height="3.5513333333331696" fill="none" stroke="#111111ff" stroke-width="0.08" />
<text x="3.4979999999998364" y="3.9667499999998364" font-size="0.375" fill="black" text-anchor="end" font-family="Anuphan">4x4</text>
<text x="-0.037500000000000006" y="3.9667499999998364" font-size="0.375" fill="black" text-anchor="start" font-family="Anuphan" font-weight="600">Output 1</text>
</g>
<g id="d6">
<rect x="0.005" y="0.005" width="0.8694999999999591" height="0.8694999999999591" fill="#37D449" />
<rect x="0.8794999999999591" y="0.005" width="0.8694999999999591" height="0.8694999999999591" fill="#252525" />
<rect x="1.753999999999918" y="0.005" width="0.8694999999999591" height="0.8694999999999591" fill="#37D449" />
<rect x="2.6284999999998773" y="0.005" width="0.8694999999999591" height="0.8694999999999591" fill="#37D449" />
<rect x="0.005" y="0.8794999999999591" width="0.8694999999999591" height="0.8694999999999591" fill="#252525" />
<rect x="0.8794999999999591" y="0.8794999999999591" width="0.8694999999999591" height="0.8694999999999591" fill="#252525" />
<rect x="1.753999999999918" y="0.8794999999999591" width="0.8694999999999591" height="0.8694999999999591" fill="#252525" />
<rect x="2.6284999999998773" y="0.8794999999999591" width="0.8694999999999591" height="0.8694999999999591" fill="#252525" />
<rect x="0.005" y="1.753999999999918" width="0.8694999999999591" height="0.8694999999999591" fill="#252525" />
<rect x="0.8794999999999591" y="1.753999999999918" width="0.8694999999999591" height="0.8694999999999591" fill="#252525" />
<rect x="1.753999999999918" y="1.753999999999918" width="0.8694999999999591" height="0.8694999999999591" fill="#37D449" />
<rect x="2.6284999999998773" y="1.753999999999918" width="0.8694999999999591" height="0.8694999999999591" fill="#252525" />
<rect x="0.005" y="2.6284999999998773" width="0.8694999999999591" height="0.8694999999999591" fill="#37D449" />
<rect x="0.8794999999999591" y="2.6284999999998773" width="0.8694999999999591" height="0.8694999999999591" fill="#252525" />
<rect x="1.753999999999918" y="2.6284999999998773" width="0.8694999999999591" height="0.8694999999999591" fill="#252525" />
<rect x="2.6284999999998773" y="2.6284999999998773" width="0.8694999999999591" height="0.8694999999999591" fill="#37D449" />
<rect x="-0.02666666666666667" y="-0.02666666666666667" width="3.5513333333331696" height="3.5513333333331696" fill="none" stroke="#111111ff" stroke-width="0.08" />
<text x="3.4979999999998364" y="3.9667499999998364" font-size="0.375" fill="black" text-anchor="end" font-family="Anuphan">4x4</text>
<text x="-0.037500000000000006" y="3.9667499999998364" font-size="0.375" fill="black" text-anchor="start" font-family="Anuphan" font-weight="600">Output 2</text>
</g>
<g id="d7">
<rect x="0.005" y="0.005" width="0.8694999999999591" height="0.8694999999999591" fill="#252525" />
<rect x="0.8794999999999591" y="0.005" width="0.8694999999999591" height="0.8694999999999591" fill="#37D449" />
<rect x="1.753999999999918" y="0.005" width="0.8694999999999591" height="0.8694999999999591" fill="#252525" />
<rect x="2.6284999999998773" y="0.005" width="0.8694999999999591" height="0.8694999999999591" fill="#252525" />
<rect x="0.005" y="0.8794999999999591" width="0.8694999999999591" height="0.8694999999999591" fill="#37D449" />
<rect x="0.8794999999999591" y="0.8794999999999591" width="0.8694999999999591" height="0.8694999999999591" fill="#37D449" />
<rect x="1.753999999999918" y="0.8794999999999591" width="0.8694999999999591" height="0.8694999999999591" fill="#37D449" />
<rect x="2.6284999999998773" y="0.8794999999999591" width="0.8694999999999591" height="0.8694999999999591" fill="#252525" />
<rect x="0.005" y="1.753999999999918" width="0.8694999999999591" height="0.8694999999999591" fill="#252525" />
<rect x="0.8794999999999591" y="1.753999999999918" width="0.8694999999999591" height="0.8694999999999591" fill="#252525" />
<rect x="1.753999999999918" y="1.753999999999918" width="0.8694999999999591" height="0.8694999999999591" fill="#37D449" />
<rect x="2.6284999999998773" y="1.753999999999918" width="0.8694999999999591" height="0.8694999999999591" fill="#37D449" />
<rect x="0.005" y="2.6284999999998773" width="0.8694999999999591" height="0.8694999999999591" fill="#37D449" />
<rect x="0.8794999999999591" y="2.6284999999998773" width="0.8694999999999591" height="0.8694999999999591" fill="#252525" />
<rect x="1.753999999999918" y="2.6284999999998773" width="0.8694999999999591" height="0.8694999999999591" fill="#37D449" />
<rect x="2.6284999999998773" y="2.6284999999998773" width="0.8694999999999591" height="0.8694999999999591" fill="#252525" />
<rect x="-0.02666666666666667" y="-0.02666666666666667" width="3.5513333333331696" height="3.5513333333331696" fill="none" stroke="#111111ff" stroke-width="0.08" />
<text x="3.4979999999998364" y="3.9667499999998364" font-size="0.375" fill="black" text-anchor="end" font-family="Anuphan">4x4</text>
<text x="-0.037500000000000006" y="3.9667499999998364" font-size="0.375" fill="black" text-anchor="start" font-family="Anuphan" font-weight="600">Output 3</text>
</g>
<g id="d8">
<rect x="0.005" y="0.005" width="0.8694999999999591" height="0.8694999999999591" fill="#37D449" />
<rect x="0.8794999999999591" y="0.005" width="0.8694999999999591" height="0.8694999999999591" fill="#37D449" />
<rect x="1.753999999999918" y="0.005" width="0.8694999999999591" height="0.8694999999999591" fill="#252525" />
<rect x="2.6284999999998773" y="0.005" width="0.8694999999999591" height="0.8694999999999591" fill="#252525" />
<rect x="0.005" y="0.8794999999999591" width="0.8694999999999591" height="0.8694999999999591" fill="#252525" />
<rect x="0.8794999999999591" y="0.8794999999999591" width="0.8694999999999591" height="0.8694999999999591" fill="#37D449" />
<rect x="1.753999999999918" y="0.8794999999999591" width="0.8694999999999591" height="0.8694999999999591" fill="#37D449" />
<rect x="2.6284999999998773" y="0.8794999999999591" width="0.8694999999999591" height="0.8694999999999591" fill="#252525" />
<rect x="0.005" y="1.753999999999918" width="0.8694999999999591" height="0.8694999999999591" fill="#252525" />
<rect x="0.8794999999999591" y="1.753999999999918" width="0.8694999999999591" height="0.8694999999999591" fill="#37D449" />
<rect x="1.753999999999918" y="1.753999999999918" width="0.8694999999999591" height="0.8694999999999591" fill="#37D449" />
<rect x="2.6284999999998773" y="1.753999999999918" width="0.8694999999999591" height="0.8694999999999591" fill="#37D449" />
<rect x="0.005" y="2.6284999999998773" width="0.8694999999999591" height="0.8694999999999591" fill="#37D449" />
<rect x="0.8794999999999591" y="2.6284999999998773" width="0.8694999999999591" height="0.8694999999999591" fill="#37D449" />
<rect x="1.753999999999918" y="2.6284999999998773" width="0.8694999999999591" height="0.8694999999999591" fill="#252525" />
<rect x="2.6284999999998773" y="2.6284999999998773" width="0.8694999999999591" height="0.8694999999999591" fill="#252525" />
<rect x="-0.02666666666666667" y="-0.02666666666666667" width="3.5513333333331696" height="3.5513333333331696" fill="none" stroke="#111111ff" stroke-width="0.08" />
<text x="3.4979999999998364" y="3.9667499999998364" font-size="0.375" fill="black" text-anchor="end" font-family="Anuphan">4x4</text>
<text x="-0.037500000000000006" y="3.9667499999998364" font-size="0.375" fill="black" text-anchor="start" font-family="Anuphan" font-weight="600">Output 4</text>
</g>
</defs>
<rect x="0" y="0" width="100%" height="100%" fill="#eeeff6" />
<use xlink:href="#d0" x="0.7934444444443627" y="0.25" />
<use xlink:href="#d1" x="4.791444444444199" y="0.25" />
<use xlink:href="#d2" x="8.789444444444035" y="0.25" />
<use xlink:href="#d3" x="12.787444444443873" y="0.25" />
<use xlink:href="#d4" x="16.78544444444371" y="0.25" />
<path d="M1.4555555555555555,6.325 L1.4555555555555555,6.7250000000000005" stroke-width="0.05" stroke="#888888" />
<path d="M1.3055555555555556,6.525 L1.4555555555555555,6.7250000000000005" stroke-width="0.05" stroke="#888888" />
<path d="M1.6055555555555554,6.525 L1.4555555555555555,6.7250000000000005" stroke-width="0.05" stroke="#888888" />
<use xlink:href="#d5" x="0.25" y="7.075" />
<path d="M5.453555555555392,6.325 L5.453555555555392,6.7250000000000005" stroke-width="0.05" stroke="#888888" />
<path d="M5.303555555555391,6.525 L5.453555555555392,6.7250000000000005" stroke-width="0.05" stroke="#888888" />
<path d="M5.603555555555392,6.525 L5.453555555555392,6.7250000000000005" stroke-width="0.05" stroke="#888888" />
<use xlink:href="#d6" x="4.247999999999836" y="7.075" />
<path d="M9.451555555555228,6.325 L9.451555555555228,6.7250000000000005" stroke-width="0.05" stroke="#888888" />
<path d="M9.301555555555227,6.525 L9.451555555555228,6.7250000000000005" stroke-width="0.05" stroke="#888888" />
<path d="M9.601555555555228,6.525 L9.451555555555228,6.7250000000000005" stroke-width="0.05" stroke="#888888" />
<use xlink:href="#d7" x="8.245999999999672" y="7.075" />
<path d="M13.449555555555065,6.325 L13.449555555555065,6.7250000000000005" stroke-width="0.05" stroke="#888888" />
<path d="M13.299555555555065,6.525 L13.449555555555065,6.7250000000000005" stroke-width="0.05" stroke="#888888" />
<path d="M13.599555555555066,6.525 L13.449555555555065,6.7250000000000005" stroke-width="0.05" stroke="#888888" />
<use xlink:href="#d8" x="12.24399999999951" y="7.075" />
<path d="M17.4475555555549,6.325 L17.4475555555549,6.7250000000000005" stroke-width="0.05" stroke="#888888" />
<path d="M17.2975555555549,6.525 L17.4475555555549,6.7250000000000005" stroke-width="0.05" stroke="#888888" />
<path d="M17.597555555554898,6.525 L17.4475555555549,6.7250000000000005" stroke-width="0.05" stroke="#888888" />
<text x="17.990999999999264" y="8.923999999999918" font-size="1" font-family="Anuphan" font-weight="700" fill="#333333" text-anchor="middle" alignment-baseline="middle">?</text>
<text x="19.9" y="11.4" font-size="0.3" font-family="Anuphan" font-weight="600" fill="#666666" text-anchor="end" alignment-baseline="bottom">Task 99b1bc43</text>
</svg>