<?xml version="1.0" encoding="UTF-8"?>
<svg xmlns="http://www.w3.org/2000/svg" xmlns:xlink="http://www.w3.org/1999/xlink"
     width="364.0" height="536.0" viewBox="0 0 9.1 13.399999999999999">
<defs>
<g id="d0">
<rect x="0.005" y="0.005" width="0.5350000000000035" height="0.5350000000000035" fill="#FF4136" />
<rect x="0.5450000000000035" y="0.005" width="0.5350000000000035" height="0.5350000000000035" fill="#FF4136" />
<rect x="1.0850000000000068" y="0.005" width="0.5350000000000035" height="0.5350000000000035" fill="#FF4136" />
<rect x="0.005" y="0.5450000000000035" width="0.5350000000000035" height="0.5350000000000035" fill="#FF4136" />
<rect x="0.5450000000000035" y="0.5450000000000035" width="0.5350000000000035" height="0.5350000000000035" fill="#FF4136" />
<rect x="1.0850000000000068" y="0.5450000000000035" width="0.5350000000000035" height="0.5350000000000035" fill="#FF4136" />
<rect x="0.005" y="1.0850000000000068" width="0.5350000000000035" height="0.5350000000000035" fill="#37D449" />
<rect x="0.5450000000000035" y="1.0850000000000068" width="0.5350000000000035" height="0.5350000000000035" fill="#37D449" />
<rect x="1.0850000000000068" y="1.0850000000000068" width="0.5350000000000035" height="0.5350000000000035" fill="#37D449" />
<rect x="0.005" y="1.6250000000000102" width="0.5350000000000035" height="0.5350000000000035" fill="#252525" />
<rect x="0.5450000000000035" y="1.6250000000000102" width="0.5350000000000035" height="0.5350000000000035" fill="#252525" />
<rect x="1.0850000000000068" y="1.6250000000000102" width="0.5350000000000035" height="0.5350000000000035" fill="#252525" />
<rect x="0.005" y="2.165000000000014" width="0.5350000000000035" height="0.5350000000000035" fill="#252525" />
<rect x="0.5450000000000035" y="2.165000000000014" width="0.5350000000000035" height="0.5350000000000035" fill="#252525" />
<rect x="1.0850000000000068" y="2.165000000000014" width="0.5350000000000035" height="0.5350000000000035" fill="#252525" />
<rect x="0.005" y="2.7050000000000174" width="0.5350000000000035" height="0.5350000000000035" fill="#252525" />
<rect x="0.5450000000000035" y="2.7050000000000174" width="0.5350000000000035" height="0.5350000000000035" fill="#252525" />
<rect x="1.0850000000000068" y="2.7050000000000174" width="0.5350000000000035" height="0.5350000000000035" fill="#252525" />
<rect x="0.005" y="3.2450000000000205" width="0.5350000000000035" height="0.5350000000000035" fill="#252525" />
<rect x="0.5450000000000035" y="3.2450000000000205" width="0.5350000000000035" height="0.5350000000000035" fill="#252525" />
<rect x="1.0850000000000068" y="3.2450000000000205" width="0.5350000000000035" height="0.5350000000000035" fill="#252525" />
<rect x="0.005" y="3.785000000000024" width="0.5350000000000035" height="0.5350000000000035" fill="#252525" />
<rect x="0.5450000000000035" y="3.785000000000024" width="0.5350000000000035" height="0.5350000000000035" fill="#252525" />
<rect x="1.0850000000000068" y="3.785000000000024" width="0.5350000000000035" height="0.5350000000000035" fill="#252525" />
<rect x="0.005" y="4.325000000000028" width="0.5350000000000035" height="0.5350000000000035" fill="#252525" />
<rect x="0.5450000000000035" y="4.325000000000028" width="0.5350000000000035" height="0.5350000000000035" fill="#252525" />
<rect x="1.0850000000000068" y="4.325000000000028" width="0.5350000000000035" height="0.5350000000000035" fill="#252525" />
<rect x="0.005" y="4.865000000000031" width="0.5350000000000035" height="0.5350000000000035" fill="#252525" />
<rect x="0.5450000000000035" y="4.865000000000031" width="0.5350000000000035" height="0.5350000000000035" fill="#252525" />
<rect x="1.0850000000000068" y="4.865000000000031" width="0.5350000000000035" height="0.5350000000000035" fill="#252525" />
<rect x="-0.02666666666666667" y="-0.02666666666666667" width="1.6733333333333436" height="5.453333333333369" fill="none" stroke="#111111ff" stroke-width="0.08" />
<text x="1.6200000000000103" y="5.868750000000035" font-size="0.375" fill="black" text-anchor="end" font-family="Anuphan">3x10</text>
<text x="-0.037500000000000006" y="5.868750000000035" font-size="0.375" fill="black" text-anchor="start" font-family="Anuphan" font-weight="600">Input 1</text>
</g>
<g id="d1">
<rect x="0.005" y="0.005" width="0.5359999999999975" height="0.5359999999999975" fill="#FF4136" />
<rect x="0.5459999999999975" y="0.005" width="0.5359999999999975" height="0.5359999999999975" fill="#FF4136" />
<rect x="1.0869999999999949" y="0.005" width="0.5359999999999975" height="0.5359999999999975" fill="#FF4136" />
<rect x="1.6279999999999923" y="0.005" width="0.5359999999999975" height="0.5359999999999975" fill="#FF4136" />
<rect x="2.16899999999999" y="0.005" width="0.5359999999999975" height="0.5359999999999975" fill="#FF4136" />
<rect x="0.005" y="0.5459999999999975" width="0.5359999999999975" height="0.5359999999999975" fill="#54D2EB" />
<rect x="0.5459999999999975" y="0.5459999999999975" width="0.5359999999999975" height="0.5359999999999975" fill="#54D2EB" />
<rect x="1.0869999999999949" y="0.5459999999999975" width="0.5359999999999975" height="0.5359999999999975" fill="#54D2EB" />
<rect x="1.6279999999999923" y="0.5459999999999975" width="0.5359999999999975" height="0.5359999999999975" fill="#54D2EB" />
<rect x="2.16899999999999" y="0.5459999999999975" width="0.5359999999999975" height="0.5359999999999975" fill="#54D2EB" />
<rect x="0.005" y="1.0869999999999949" width="0.5359999999999975" height="0.5359999999999975" fill="#252525" />
<rect x="0.5459999999999975" y="1.0869999999999949" width="0.5359999999999975" height="0.5359999999999975" fill="#252525" />
<rect x="1.0869999999999949" y="1.0869999999999949" width="0.5359999999999975" height="0.5359999999999975" fill="#252525" />
<rect x="1.6279999999999923" y="1.0869999999999949" width="0.5359999999999975" height="0.5359999999999975" fill="#252525" />
<rect x="2.16899999999999" y="1.0869999999999949" width="0.5359999999999975" height="0.5359999999999975" fill="#252525" />
<rect x="0.005" y="1.6279999999999923" width="0.5359999999999975" height="0.5359999999999975" fill="#252525" />
<rect x="0.5459999999999975" y="1.6279999999999923" width="0.5359999999999975" height="0.5359999999999975" fill="#252525" />
<rect x="1.0869999999999949" y="1.6279999999999923" width="0.5359999999999975" height="0.5359999999999975" fill="#252525" />
<rect x="1.6279999999999923" y="1.6279999999999923" width="0.5359999999999975" height="0.5359999999999975" fill="#252525" />
<rect x="2.16899999999999" y="1.6279999999999923" width="0.5359999999999975" height="0.5359999999999975" fill="#252525" />
<rect x="0.005" y="2.16899999999999" width="0.5359999999999975" height="0.5359999999999975" fill="#252525" />
<rect x="0.5459999999999975" y="2.16899999999999" width="0.5359999999999975" height="0.5359999999999975" fill="#252525" />
<rect x="1.0869999999999949" y="2.16899999999999" width="0.5359999999999975" height="0.5359999999999975" fill="#252525" />
<rect x="1.6279999999999923" y="2.16899999999999" width="0.5359999999999975" height="0.5359999999999975" fill="#252525" />
<rect x="2.16899999999999" y="2.16899999999999" width="0.5359999999999975" height="0.5359999999999975" fill="#252525" />
<rect x="0.005" y="2.7099999999999875" width="0.5359999999999975" height="0.5359999999999975" fill="#252525" />
<rect x="0.5459999999999975" y="2.7099999999999875" width="0.5359999999999975" height="0.5359999999999975" fill="#252525" />
<rect x="1.0869999999999949" y="2.7099999999999875" width="0.5359999999999975" height="0.5359999999999975" fill="#252525" />
<rect x="1.6279999999999923" y="2.7099999999999875" width="0.5359999999999975" height="0.5359999999999975" fill="#252525" />
<rect x="2.16899999999999" y="2.7099999999999875" width="0.5359999999999975" height="0.5359999999999975" fill="#252525" />
<rect x="0.005" y="3.250999999999985" width="0.5359999999999975" height="0.5359999999999975" fill="#252525" />
<rect x="0.5459999999999975" y="3.250999999999985" width="0.5359999999999975" height="0.5359999999999975" fill="#252525" />
<rect x="1.0869999999999949" y="3.250999999999985" width="0.5359999999999975" height="0.5359999999999975" fill="#252525" />
<rect x="1.6279999999999923" y="3.250999999999985" width="0.5359999999999975" height="0.5359999999999975" fill="#252525" />
<rect x="2.16899999999999" y="3.250999999999985" width="0.5359999999999975" height="0.5359999999999975" fill="#252525" />
<rect x="0.005" y="3.791999999999982" width="0.5359999999999975" height="0.5359999999999975" fill="#252525" />
<rect x="0.5459999999999975" y="3.791999999999982" width="0.5359999999999975" height="0.5359999999999975" fill="#252525" />
<rect x="1.0869999999999949" y="3.791999999999982" width="0.5359999999999975" height="0.5359999999999975" fill="#252525" />
<rect x="1.6279999999999923" y="3.791999999999982" width="0.5359999999999975" height="0.5359999999999975" fill="#252525" />
<rect x="2.16899999999999" y="3.791999999999982" width="0.5359999999999975" height="0.5359999999999975" fill="#252525" />
<rect x="0.005" y="4.33299999999998" width="0.5359999999999975" height="0.5359999999999975" fill="#252525" />
<rect x="0.5459999999999975" y="4.33299999999998" width="0.5359999999999975" height="0.5359999999999975" fill="#252525" />
<rect x="1.0869999999999949" y="4.33299999999998" width="0.5359999999999975" height="0.5359999999999975" fill="#252525" />
<rect x="1.6279999999999923" y="4.33299999999998" width="0.5359999999999975" height="0.5359999999999975" fill="#252525" />
<rect x="2.16899999999999" y="4.33299999999998" width="0.5359999999999975" height="0.5359999999999975" fill="#252525" />
<rect x="0.005" y="4.8739999999999775" width="0.5359999999999975" height="0.5359999999999975" fill="#252525" />
<rect x="0.5459999999999975" y="4.8739999999999775" width="0.5359999999999975" height="0.5359999999999975" fill="#252525" />
<rect x="1.0869999999999949" y="4.8739999999999775" width="0.5359999999999975" height="0.5359999999999975" fill="#252525" />
<rect x="1.6279999999999923" y="4.8739999999999775" width="0.5359999999999975" height="0.5359999999999975" fill="#252525" />
<rect x="2.16899999999999" y="4.8739999999999775" width="0.5359999999999975" height="0.5359999999999975" fill="#252525" />
<rect x="-0.02666666666666667" y="-0.02666666666666667" width="2.758333333333321" height="5.463333333333309" fill="none" stroke="#111111ff" stroke-width="0.08" />
<text x="2.7049999999999876" y="5.878749999999975" font-size="0.375" fill="black" text-anchor="end" font-family="Anuphan">5x10</text>
<text x="-0.037500000000000006" y="5.878749999999975" font-size="0.375" fill="black" text-anchor="start" font-family="Anuphan" font-weight="600">Input 2</text>
</g>
<g id="d2">
<rect x="0.005" y="0.005" width="0.5374999999999959" height="0.5374999999999959" fill="#37D449" />
<rect x="0.5474999999999959" y="0.005" width="0.5374999999999959" height="0.5374999999999959" fill="#37D449" />
<rect x="1.0899999999999916" y="0.005" width="0.5374999999999959" height="0.5374999999999959" fill="#37D449" />
<rect x="1.6324999999999874" y="0.005" width="0.5374999999999959" height="0.5374999999999959" fill="#37D449" />
<rect x="2.1749999999999834" y="0.005" width="0.5374999999999959" height="0.5374999999999959" fill="#37D449" />
<rect x="2.7174999999999794" y="0.005" width="0.5374999999999959" height="0.5374999999999959" fill="#37D449" />
<rect x="0.005" y="0.5474999999999959" width="0.5374999999999959" height="0.5374999999999959" fill="#E6E6E6" />
<rect x="0.5474999999999959" y="0.5474999999999959" width="0.5374999999999959" height="0.5374999999999959" fill="#E6E6E6" />
<rect x="1.0899999999999916" y="0.5474999999999959" width="0.5374999999999959" height="0.5374999999999959" fill="#E6E6E6" />
<rect x="1.6324999999999874" y="0.5474999999999959" width="0.5374999999999959" height="0.5374999999999959" fill="#E6E6E6" />
<rect x="2.1749999999999834" y="0.5474999999999959" width="0.5374999999999959" height="0.5374999999999959" fill="#E6E6E6" />
<rect x="2.7174999999999794" y="0.5474999999999959" width="0.5374999999999959" height="0.5374999999999959" fill="#E6E6E6" />
<rect x="0.005" y="1.0899999999999916" width="0.5374999999999959" height="0.5374999999999959" fill="#E6E6E6" />
<rect x="0.5474999999999959" y="1.0899999999999916" width="0.5374999999999959" height="0.5374999999999959" fill="#E6E6E6" />
<rect x="1.0899999999999916" y="1.0899999999999916" width="0.5374999999999959" height="0.5374999999999959" fill="#E6E6E6" />
<rect x="1.6324999999999874" y="1.0899999999999916" width="0.5374999999999959" height="0.5374999999999959" fill="#E6E6E6" />
<rect x="2.1749999999999834" y="1.0899999999999916" width="0.5374999999999959" height="0.5374999999999959" fill="#E6E6E6" />
<rect x="2.7174999999999794" y="1.0899999999999916" width="0.5374999999999959" height="0.5374999999999959" fill="#E6E6E6" />
<rect x="0.005" y="1.6324999999999874" width="0.5374999999999959" height="0.5374999999999959" fill="#252525" />
<rect x="0.5474999999999959" y="1.6324999999999874" width="0.5374999999999959" height="0.5374999999999959" fill="#252525" />
<rect x="1.0899999999999916" y="1.6324999999999874" width="0.5374999999999959" height="0.5374999999999959" fill="#252525" />
<rect x="1.6324999999999874" y="1.6324999999999874" width="0.5374999999999959" height="0.5374999999999959" fill="#252525" />
<rect x="2.1749999999999834" y="1.6324999999999874" width="0.5374999999999959" height="0.5374999999999959" fill="#252525" />
<rect x="2.7174999999999794" y="1.6324999999999874" width="0.5374999999999959" height="0.5374999999999959" fill="#252525" />
<rect x="0.005" y="2.1749999999999834" width="0.5374999999999959" height="0.5374999999999959" fill="#252525" />
<rect x="0.5474999999999959" y="2.1749999999999834" width="0.5374999999999959" height="0.5374999999999959" fill="#252525" />
<rect x="1.0899999999999916" y="2.1749999999999834" width="0.5374999999999959" height="0.5374999999999959" fill="#252525" />
<rect x="1.6324999999999874" y="2.1749999999999834" width="0.5374999999999959" height="0.5374999999999959" fill="#252525" />
<rect x="2.1749999999999834" y="2.1749999999999834" width="0.5374999999999959" height="0.5374999999999959" fill="#252525" />
<rect x="2.7174999999999794" y="2.1749999999999834" width="0.5374999999999959" height="0.5374999999999959" fill="#252525" />
<rect x="0.005" y="2.7174999999999794" width="0.5374999999999959" height="0.5374999999999959" fill="#252525" />
<rect x="0.5474999999999959" y="2.7174999999999794" width="0.5374999999999959" height="0.5374999999999959" fill="#252525" />
<rect x="1.0899999999999916" y="2.7174999999999794" width="0.5374999999999959" height="0.5374999999999959" fill="#252525" />
<rect x="1.6324999999999874" y="2.7174999999999794" width="0.5374999999999959" height="0.5374999999999959" fill="#252525" />
<rect x="2.1749999999999834" y="2.7174999999999794" width="0.5374999999999959" height="0.5374999999999959" fill="#252525" />
<rect x="2.7174999999999794" y="2.7174999999999794" width="0.5374999999999959" height="0.5374999999999959" fill="#252525" />
<rect x="0.005" y="3.259999999999975" width="0.5374999999999959" height="0.5374999999999959" fill="#252525" />
<rect x="0.5474999999999959" y="3.259999999999975" width="0.5374999999999959" height="0.5374999999999959" fill="#252525" />
<rect x="1.0899999999999916" y="3.259999999999975" width="0.5374999999999959" height="0.5374999999999959" fill="#252525" />
<rect x="1.6324999999999874" y="3.259999999999975" width="0.5374999999999959" height="0.5374999999999959" fill="#252525" />
<rect x="2.1749999999999834" y="3.259999999999975" width="0.5374999999999959" height="0.5374999999999959" fill="#252525" />
<rect x="2.7174999999999794" y="3.259999999999975" width="0.5374999999999959" height="0.5374999999999959" fill="#252525" />
<rect x="0.005" y="3.802499999999971" width="0.5374999999999959" height="0.5374999999999959" fill="#252525" />
<rect x="0.5474999999999959" y="3.802499999999971" width="0.5374999999999959" height="0.5374999999999959" fill="#252525" />
<rect x="1.0899999999999916" y="3.802499999999971" width="0.5374999999999959" height="0.5374999999999959" fill="#252525" />
<rect x="1.6324999999999874" y="3.802499999999971" width="0.5374999999999959" height="0.5374999999999959" fill="#252525" />
<rect x="2.1749999999999834" y="3.802499999999971" width="0.5374999999999959" height="0.5374999999999959" fill="#252525" />
<rect x="2.7174999999999794" y="3.802499999999971" width="0.5374999999999959" height="0.5374999999999959" fill="#252525" />
<rect x="0.005" y="4.344999999999967" width="0.5374999999999959" height="0.5374999999999959" fill="#252525" />
<rect x="0.5474999999999959" y="4.344999999999967" width="0.5374999999999959" height="0.5374999999999959" fill="#252525" />
<rect x="1.0899999999999916" y="4.344999999999967" width="0.5374999999999959" height="0.5374999999999959" fill="#252525" />
<rect x="1.6324999999999874" y="4.344999999999967" width="0.5374999999999959" height="0.5374999999999959" fill="#252525" />
<rect x="2.1749999999999834" y="4.344999999999967" width="0.5374999999999959" height="0.5374999999999959" fill="#252525" />
<rect x="2.7174999999999794" y="4.344999999999967" width="0.5374999999999959" height="0.5374999999999959" fill="#252525" />
<rect x="0.005" y="4.887499999999963" width="0.5374999999999959" height="0.5374999999999959" fill="#252525" />
<rect x="0.5474999999999959" y="4.887499999999963" width="0.5374999999999959" height="0.5374999999999959" fill="#252525" />
<rect x="1.0899999999999916" y="4.887499999999963" width="0.5374999999999959" height="0.5374999999999959" fill="#252525" />
<rect x="1.6324999999999874" y="4.887499999999963" width="0.5374999999999959" height="0.5374999999999959" fill="#252525" />
<rect x="2.1749999999999834" y="4.887499999999963" width="0.5374999999999959" height="0.5374999999999959" fill="#252525" />
<rect x="2.7174999999999794" y="4.887499999999963" width="0.5374999999999959" height="0.5374999999999959" fill="#252525" />
<rect x="-0.02666666666666667" y="-0.02666666666666667" width="3.3083333333333083" height="5.478333333333293" fill="none" stroke="#111111ff" stroke-width="0.08" />
<text x="3.254999999999975" y="5.893749999999959" font-size="0.375" fill="black" text-anchor="end" font-family="Anuphan">6x10</text>
<text x="-0.037500000000000006" y="5.893749999999959" font-size="0.375" fill="black" text-anchor="start" font-family="Anuphan" font-weight="600">Test 1</text>
</g>
<g id="d3">
<rect x="0.005" y="0.005" width="0.5350000000000035" height="0.5350000000000035" fill="#FF4136" />
<rect x="0.5450000000000035" y="0.005" width="0.5350000000000035" height="0.5350000000000035" fill="#FF4136" />
<rect x="1.0850000000000068" y="0.005" width="0.5350000000000035" height="0.5350000000000035" fill="#FF4136" />
<rect x="0.005" y="0.5450000000000035" width="0.5350000000000035" height="0.5350000000000035" fill="#FF4136" />
<rect x="0.5450000000000035" y="0.5450000000000035" width="0.5350000000000035" height="0.5350000000000035" fill="#FF4136" />
<rect x="1.0850000000000068" y="0.5450000000000035" width="0.5350000000000035" height="0.5350000000000035" fill="#FF4136" />
<rect x="0.005" y="1.0850000000000068" width="0.5350000000000035" height="0.5350000000000035" fill="#37D449" />
<rect x="0.5450000000000035" y="1.0850000000000068" width="0.5350000000000035" height="0.5350000000000035" fill="#37D449" />
<rect x="1.0850000000000068" y="1.0850000000000068" width="0.5350000000000035" height="0.5350000000000035" fill="#37D449" />
<rect x="0.005" y="1.6250000000000102" width="0.5350000000000035" height="0.5350000000000035" fill="#252525" />
<rect x="0.5450000000000035" y="1.6250000000000102" width="0.5350000000000035" height="0.5350000000000035" fill="#252525" />
<rect x="1.0850000000000068" y="1.6250000000000102" width="0.5350000000000035" height="0.5350000000000035" fill="#252525" />
<rect x="0.005" y="2.165000000000014" width="0.5350000000000035" height="0.5350000000000035" fill="#252525" />
<rect x="0.5450000000000035" y="2.165000000000014" width="0.5350000000000035" height="0.5350000000000035" fill="#252525" />
<rect x="1.0850000000000068" y="2.165000000000014" width="0.5350000000000035" height="0.5350000000000035" fill="#252525" />
<rect x="0.005" y="2.7050000000000174" width="0.5350000000000035" height="0.5350000000000035" fill="#252525" />
<rect x="0.5450000000000035" y="2.7050000000000174" width="0.5350000000000035" height="0.5350000000000035" fill="#252525" />
<rect x="1.0850000000000068" y="2.7050000000000174" width="0.5350000000000035" height="0.5350000000000035" fill="#252525" />
<rect x="0.005" y="3.2450000000000205" width="0.5350000000000035" height="0.5350000000000035" fill="#252525" />
<rect x="0.5450000000000035" y="3.2450000000000205" width="0.5350000000000035" height="0.5350000000000035" fill="#252525" />
<rect x="1.0850000000000068" y="3.2450000000000205" width="0.5350000000000035" height="0.5350000000000035" fill="#252525" />
<rect x="0.005" y="3.785000000000024" width="0.5350000000000035" height="0.5350000000000035" fill="#37D449" />
<rect x="0.5450000000000035" y="3.785000000000024" width="0.5350000000000035" height="0.5350000000000035" fill="#37D449" />
<rect x="1.0850000000000068" y="3.785000000000024" width="0.5350000000000035" height="0.5350000000000035" fill="#37D449" />
<rect x="0.005" y="4.325000000000028" width="0.5350000000000035" height="0.5350000000000035" fill="#FF4136" />
<rect x="0.5450000000000035" y="4.325000000000028" width="0.5350000000000035" height="0.5350000000000035" fill="#FF4136" />
<rect x="1.0850000000000068" y="4.325000000000028" width="0.5350000000000035" height="0.5350000000000035" fill="#FF4136" />
<rect x="0.005" y="4.865000000000031" width="0.5350000000000035" height="0.5350000000000035" fill="#FF4136" />
<rect x="0.5450000000000035" y="4.865000000000031" width="0.5350000000000035" height="0.5350000000000035" fill="#FF4136" />
<rect x="1.0850000000000068" y="4.865000000000031" width="0.5350000000000035" height="0.5350000000000035" fill="#FF4136" />
<rect x="-0.02666666666666667" y="-0.02666666666666667" width="1.6733333333333436" height="5.453333333333369" fill="none" stroke="#111111ff" stroke-width="0.08" />
<text x="1.6200000000000103" y="5.868750000000035" font-size="0.375" fill="black" text-anchor="end" font-family="Anuphan">3x10</text>
<text x="-0.037500000000000006" y="5.868750000000035" font-size="0.375" fill="black" text-anchor="start" font-family="Anuphan" font-weight="600">Output 1</text>
</g>
<g id="d4">
<rect x="0.005" y="0.005" width="0.5359999999999975" height="0.5359999999999975" fill="#FF4136" />
<rect x="0.5459999999999975" y="0.005" width="0.5359999999999975" height="0.5359999999999975" fill="#FF4136" />
<rect x="1.0869999999999949" y="0.005" width="0.5359999999999975" height="0.5359999999999975" fill="#FF4136" />
<rect x="1.6279999999999923" y="0.005" width="0.5359999999999975" height="0.5359999999999975" fill="#FF4136" />
<rect x="2.16899999999999" y="0.005" width="0.5359999999999975" height="0.5359999999999975" fill="#FF4136" />
<rect x="0.005" y="0.5459999999999975" width="0.5359999999999975" height="0.5359999999999975" fill="#54D2EB" />
<rect x="0.5459999999999975" y="0.5459999999999975" width="0.5359999999999975" height="0.5359999999999975" fill="#54D2EB" />
<rect x="1.0869999999999949" y="0.5459999999999975" width="0.5359999999999975" height="0.5359999999999975" fill="#54D2EB" />
<rect x="1.6279999999999923" y="0.5459999999999975" width="0.5359999999999975" height="0.5359999999999975" fill="#54D2EB" />
<rect x="2.16899999999999" y="0.5459999999999975" width="0.5359999999999975" height="0.5359999999999975" fill="#54D2EB" />
<rect x="0.005" y="1.0869999999999949" width="0.5359999999999975" height="0.5359999999999975" fill="#252525" />
<rect x="0.5459999999999975" y="1.0869999999999949" width="0.5359999999999975" height="0.5359999999999975" fill="#252525" />
<rect x="1.0869999999999949" y="1.0869999999999949" width="0.5359999999999975" height="0.5359999999999975" fill="#252525" />
<rect x="1.6279999999999923" y="1.0869999999999949" width="0.5359999999999975" height="0.5359999999999975" fill="#252525" />
<rect x="2.16899999999999" y="1.0869999999999949" width="0.5359999999999975" height="0.5359999999999975" fill="#252525" />
<rect x="0.005" y="1.6279999999999923" width="0.5359999999999975" height="0.5359999999999975" fill="#252525" />
<rect x="0.5459999999999975" y="1.6279999999999923" width="0.5359999999999975" height="0.5359999999999975" fill="#252525" />
<rect x="1.0869999999999949" y="1.6279999999999923" width="0.5359999999999975" height="0.5359999999999975" fill="#252525" />
<rect x="1.6279999999999923" y="1.6279999999999923" width="0.5359999999999975" height="0.5359999999999975" fill="#252525" />
<rect x="2.16899999999999" y="1.6279999999999923" width="0.5359999999999975" height="0.5359999999999975" fill="#252525" />
<rect x="0.005" y="2.16899999999999" width="0.5359999999999975" height="0.5359999999999975" fill="#252525" />
<rect x="0.5459999999999975" y="2.16899999999999" width="0.5359999999999975" height="0.5359999999999975" fill="#252525" />
<rect x="1.0869999999999949" y="2.16899999999999" width="0.5359999999999975" height="0.5359999999999975" fill="#252525" />
<rect x="1.6279999999999923" y="2.16899999999999" width="0.5359999999999975" height="0.5359999999999975" fill="#252525" />
<rect x="2.16899999999999" y="2.16899999999999" width="0.5359999999999975" height="0.5359999999999975" fill="#252525" />
<rect x="0.005" y="2.7099999999999875" width="0.5359999999999975" height="0.5359999999999975" fill="#252525" />
<rect x="0.5459999999999975" y="2.7099999999999875" width="0.5359999999999975" height="0.5359999999999975" fill="#252525" />
<rect x="1.0869999999999949" y="2.7099999999999875" width="0.5359999999999975" height="0.5359999999999975" fill="#252525" />
<rect x="1.6279999999999923" y="2.7099999999999875" width="0.5359999999999975" height="0.5359999999999975" fill="#252525" />
<rect x="2.16899999999999" y="2.7099999999999875" width="0.5359999999999975" height="0.5359999999999975" fill="#252525" />
<rect x="0.005" y="3.250999999999985" width="0.5359999999999975" height="0.5359999999999975" fill="#252525" />
<rect x="0.5459999999999975" y="3.250999999999985" width="0.5359999999999975" height="0.5359999999999975" fill="#252525" />
<rect x="1.0869999999999949" y="3.250999999999985" width="0.5359999999999975" height="0.5359999999999975" fill="#252525" />
<rect x="1.6279999999999923" y="3.250999999999985" width="0.5359999999999975" height="0.5359999999999975" fill="#252525" />
<rect x="2.16899999999999" y="3.250999999999985" width="0.5359999999999975" height="0.5359999999999975" fill="#252525" />
<rect x="0.005" y="3.791999999999982" width="0.5359999999999975" height="0.5359999999999975" fill="#252525" />
<rect x="0.5459999999999975" y="3.791999999999982" width="0.5359999999999975" height="0.5359999999999975" fill="#252525" />
<rect x="1.0869999999999949" y="3.791999999999982" width="0.5359999999999975" height="0.5359999999999975" fill="#252525" />
<rect x="1.6279999999999923" y="3.791999999999982" width="0.5359999999999975" height="0.5359999999999975" fill="#252525" />
<rect x="2.16899999999999" y="3.791999999999982" width="0.5359999999999975" height="0.5359999999999975" fill="#252525" />
<rect x="0.005" y="4.33299999999998" width="0.5359999999999975" height="0.5359999999999975" fill="#54D2EB" />
<rect x="0.5459999999999975" y="4.33299999999998" width="0.5359999999999975" height="0.5359999999999975" fill="#54D2EB" />
<rect x="1.0869999999999949" y="4.33299999999998" width="0.5359999999999975" height="0.5359999999999975" fill="#54D2EB" />
<rect x="1.6279999999999923" y="4.33299999999998" width="0.5359999999999975" height="0.5359999999999975" fill="#54D2EB" />
<rect x="2.16899999999999" y="4.33299999999998" width="0.5359999999999975" height="0.5359999999999975" fill="#54D2EB" />
<rect x="0.005" y="4.8739999999999775" width="0.5359999999999975" height="0.5359999999999975" fill="#FF4136" />
<rect x="0.5459999999999975" y="4.8739999999999775" width="0.5359999999999975" height="0.5359999999999975" fill="#FF4136" />
<rect x="1.0869999999999949" y="4.8739999999999775" width="0.5359999999999975" height="0.5359999999999975" fill="#FF4136" />
<rect x="1.6279999999999923" y="4.8739999999999775" width="0.5359999999999975" height="0.5359999999999975" fill="#FF4136" />
<rect x="2.16899999999999" y="4.8739999999999775" width="0.5359999999999975" height="0.5359999999999975" fill="#FF4136" />
<rect x="-0.02666666666666667" y="-0.02666666666666667" width="2.758333333333321" height="5.463333333333309" fill="none" stroke="#111111ff" stroke-width="0.08" />
<text x="2.7049999999999876" y="5.878749999999975" font-size="0.375" fill="black" text-anchor="end" font-family="Anuphan">5x10</text>
<text x="-0.037500000000000006" y="5.878749999999975" font-size="0.375" fill="black" text-anchor="start" font-family="Anuphan" font-weight="600">Output 2</text>
</g>
</defs>
<rect x="0" y="0" width="100%" height="100%" fill="#eeeff6" />
<use xlink:href="#d0" x="0.25" y="0.25" />
<use xlink:href="#d1" x="2.37000000000001" y="0.25" />
<use xlink:href="#d2" x="5.5749999999999975" y="0.25" />
<path d="M1.0600000000000052,6.324999999999959 L1.0600000000000052,6.72499999999996" stroke-width="0.05" stroke="#888888" />
<path d="M0.9100000000000051,6.5249999999999595 L1.0600000000000052,6.72499999999996" stroke-width="0.05" stroke="#888888" />
<path d="M1.210000000000005,6.5249999999999595 L1.0600000000000052,6.72499999999996" stroke-width="0.05" stroke="#888888" />
<use xlink:href="#d3" x="0.25" y="7.074999999999959" />
<path d="M3.722500000000004,6.324999999999959 L3.722500000000004,6.72499999999996" stroke-width="0.05" stroke="#888888" />
<path d="M3.5725000000000042,6.5249999999999595 L3.722500000000004,6.72499999999996" stroke-width="0.05" stroke="#888888" />
<path d="M3.872500000000004,6.5249999999999595 L3.722500000000004,6.72499999999996" stroke-width="0.05" stroke="#888888" />
<use xlink:href="#d4" x="2.37000000000001" y="7.074999999999959" />
<path d="M7.202499999999985,6.324999999999959 L7.202499999999985,6.72499999999996" stroke-width="0.05" stroke="#888888" />
<path d="M7.052499999999984,6.5249999999999595 L7.202499999999985,6.72499999999996" stroke-width="0.05" stroke="#888888" />
<path d="M7.352499999999985,6.5249999999999595 L7.202499999999985,6.72499999999996" stroke-width="0.05" stroke="#888888" />
<text x="7.2024999999999855" y="9.887499999999939" font-size="1" font-family="Anuphan" font-weight="700" fill="#333333" text-anchor="middle" alignment-baseline="middle">?</text>
<text x="9.0" y="13.299999999999999" font-size="0.3" font-family="Anuphan" font-weight="600" fill="#666666" text-anchor="end" alignment-baseline="bottom">Task 496994bd</text>
</svg>