<?xml version="1.0" encoding="UTF-8"?>
<svg xmlns="http://www.w3.org/2000/svg" xmlns:xlink="http://www.w3.org/1999/xlink"
     width="800.0" height="508.0" viewBox="0 0 20.0 12.7">
<defs>
<g id="d0">
<rect x="0.005" y="0.005" width="1.1609999999999456" height="1.1609999999999456" fill="#FF4136" />
<rect x="1.1709999999999454" y="0.005" width="1.1609999999999456" height="1.1609999999999456" fill="#FF4136" />
<rect x="2.336999999999891" y="0.005" width="1.1609999999999456" height="1.1609999999999456" fill="#0074D9" />
<rect x="0.005" y="1.1709999999999454" width="1.1609999999999456" height="1.1609999999999456" fill="#FF4136" />
<rect x="1.1709999999999454" y="1.1709999999999454" width="1.1609999999999456" height="1.1609999999999456" fill="#37D449" />
<rect x="2.336999999999891" y="1.1709999999999454" width="1.1609999999999456" height="1.1609999999999456" fill="#0074D9" />
<rect x="0.005" y="2.336999999999891" width="1.1609999999999456" height="1.1609999999999456" fill="#0074D9" />
<rect x="1.1709999999999454" y="2.336999999999891" width="1.1609999999999456" height="1.1609999999999456" fill="#0074D9" />
<rect x="2.336999999999891" y="2.336999999999891" width="1.1609999999999456" height="1.1609999999999456" fill="#0074D9" />
<rect x="-0.02666666666666667" y="-0.02666666666666667" width="3.55133333333317" height="3.55133333333317" fill="none" stroke="#111111ff" stroke-width="0.08" />
<text x="3.497999999999837" y="3.966749999999837" font-size="0.375" fill="black" text-anchor="end" font-family="Anuphan">3x3</text>
<text x="-0.037500000000000006" y="3.966749999999837" font-size="0.375" fill="black" text-anchor="start" font-family="Anuphan" font-weight="600">Input 1</text>
</g>
<g id="d1">
<rect x="0.005" y="0.005" width="0.8694999999999591" height="0.8694999999999591" fill="#37D449" />
<rect x="0.8794999999999591" y="0.005" width="0.8694999999999591" height="0.8694999999999591" fill="#0074D9" />
<rect x="1.753999999999918" y="0.005" width="0.8694999999999591" height="0.8694999999999591" fill="#0074D9" />
<rect x="2.6284999999998773" y="0.005" width="0.8694999999999591" height="0.8694999999999591" fill="#FFDC00" />
<rect x="0.005" y="0.8794999999999591" width="0.8694999999999591" height="0.8694999999999591" fill="#FF4136" />
<rect x="0.8794999999999591" y="0.8794999999999591" width="0.8694999999999591" height="0.8694999999999591" fill="#FF4136" />
<rect x="1.753999999999918" y="0.8794999999999591" width="0.8694999999999591" height="0.8694999999999591" fill="#FF4136" />
<rect x="2.6284999999998773" y="0.8794999999999591" width="0.8694999999999591" height="0.8694999999999591" fill="#FFDC00" />
<rect x="0.005" y="1.753999999999918" width="0.8694999999999591" height="0.8694999999999591" fill="#FFDC00" />
<rect x="0.8794999999999591" y="1.753999999999918" width="0.8694999999999591" height="0.8694999999999591" fill="#FFDC00" />
<rect x="1.753999999999918" y="1.753999999999918" width="0.8694999999999591" height="0.8694999999999591" fill="#FFDC00" />
<rect x="2.6284999999998773" y="1.753999999999918" width="0.8694999999999591" height="0.8694999999999591" fill="#FFDC00" />
<rect x="-0.02666666666666667" y="-0.02666666666666667" width="3.5513333333331696" height="2.6768333333332106" fill="none" stroke="#111111ff" stroke-width="0.08" />
<text x="3.4979999999998364" y="3.0922499999998774" font-size="0.375" fill="black" text-anchor="end" font-family="Anuphan">4x3</text>
<text x="-0.037500000000000006" y="3.0922499999998774" font-size="0.375" fill="black" text-anchor="start" font-family="Anuphan" font-weight="600">Input 2</text>
</g>
<g id="d2">
<rect x="0.005" y="0.005" width="1.1609999999999456" height="1.1609999999999456" fill="#54D2EB" />
<rect x="1.1709999999999454" y="0.005" width="1.1609999999999456" height="1.1609999999999456" fill="#54D2EB" />
<rect x="2.336999999999891" y="0.005" width="1.1609999999999456" height="1.1609999999999456" fill="#FF4136" />
<rect x="0.005" y="1.1709999999999454" width="1.1609999999999456" height="1.1609999999999456" fill="#37D449" />
<rect x="1.1709999999999454" y="1.1709999999999454" width="1.1609999999999456" height="1.1609999999999456" fill="#54D2EB" />
<rect x="2.336999999999891" y="1.1709999999999454" width="1.1609999999999456" height="1.1609999999999456" fill="#54D2EB" />
<rect x="0.005" y="2.336999999999891" width="1.1609999999999456" height="1.1609999999999456" fill="#37D449" />
<rect x="1.1709999999999454" y="2.336999999999891" width="1.1609999999999456" height="1.1609999999999456" fill="#37D449" />
<rect x="2.336999999999891" y="2.336999999999891" width="1.1609999999999456" height="1.1609999999999456" fill="#FFDC00" />
<rect x="0.005" y="3.5029999999998367" width="1.1609999999999456" height="1.1609999999999456" fill="#37D449" />
<rect x="1.1709999999999454" y="3.5029999999998367" width="1.1609999999999456" height="1.1609999999999456" fill="#37D449" />
<rect x="2.336999999999891" y="3.5029999999998367" width="1.1609999999999456" height="1.1609999999999456" fill="#FFDC00" />
<rect x="-0.02666666666666667" y="-0.02666666666666667" width="3.55133333333317" height="4.717333333333116" fill="none" stroke="#111111ff" stroke-width="0.08" />
<text x="3.497999999999837" y="5.132749999999782" font-size="0.375" fill="black" text-anchor="end" font-family="Anuphan">3x4</text>
<text x="-0.037500000000000006" y="5.132749999999782" font-size="0.375" fill="black" text-anchor="start" font-family="Anuphan" font-weight="600">Input 3</text>
</g>
<g id="d3">
<rect x="0.005" y="0.005" width="1.1609999999999456" height="1.1609999999999456" fill="#0074D9" />
<rect x="1.1709999999999454" y="0.005" width="1.1609999999999456" height="1.1609999999999456" fill="#0074D9" />
<rect x="2.336999999999891" y="0.005" width="1.1609999999999456" height="1.1609999999999456" fill="#0074D9" />
<rect x="0.005" y="1.1709999999999454" width="1.1609999999999456" height="1.1609999999999456" fill="#FF4136" />
<rect x="1.1709999999999454" y="1.1709999999999454" width="1.1609999999999456" height="1.1609999999999456" fill="#FF4136" />
<rect x="2.336999999999891" y="1.1709999999999454" width="1.1609999999999456" height="1.1609999999999456" fill="#0074D9" />
<rect x="0.005" y="2.336999999999891" width="1.1609999999999456" height="1.1609999999999456" fill="#FF4136" />
<rect x="1.1709999999999454" y="2.336999999999891" width="1.1609999999999456" height="1.1609999999999456" fill="#54D2EB" />
<rect x="2.336999999999891" y="2.336999999999891" width="1.1609999999999456" height="1.1609999999999456" fill="#0074D9" />
<rect x="0.005" y="3.5029999999998367" width="1.1609999999999456" height="1.1609999999999456" fill="#FF4136" />
<rect x="1.1709999999999454" y="3.5029999999998367" width="1.1609999999999456" height="1.1609999999999456" fill="#54D2EB" />
<rect x="2.336999999999891" y="3.5029999999998367" width="1.1609999999999456" height="1.1609999999999456" fill="#0074D9" />
<rect x="-0.02666666666666667" y="-0.02666666666666667" width="3.55133333333317" height="4.717333333333116" fill="none" stroke="#111111ff" stroke-width="0.08" />
<text x="3.497999999999837" y="5.132749999999782" font-size="0.375" fill="black" text-anchor="end" font-family="Anuphan">3x4</text>
<text x="-0.037500000000000006" y="5.132749999999782" font-size="0.375" fill="black" text-anchor="start" font-family="Anuphan" font-weight="600">Input 4</text>
</g>
<g id="d4">
<rect x="0.005" y="0.005" width="0.8694999999999591" height="0.8694999999999591" fill="#54D2EB" />
<rect x="0.8794999999999591" y="0.005" width="0.8694999999999591" height="0.8694999999999591" fill="#54D2EB" />
<rect x="1.753999999999918" y="0.005" width="0.8694999999999591" height="0.8694999999999591" fill="#FF4136" />
<rect x="2.6284999999998773" y="0.005" width="0.8694999999999591" height="0.8694999999999591" fill="#FF4136" />
<rect x="0.005" y="0.8794999999999591" width="0.8694999999999591" height="0.8694999999999591" fill="#0074D9" />
<rect x="0.8794999999999591" y="0.8794999999999591" width="0.8694999999999591" height="0.8694999999999591" fill="#54D2EB" />
<rect x="1.753999999999918" y="0.8794999999999591" width="0.8694999999999591" height="0.8694999999999591" fill="#54D2EB" />
<rect x="2.6284999999998773" y="0.8794999999999591" width="0.8694999999999591" height="0.8694999999999591" fill="#FF4136" />
<rect x="0.005" y="1.753999999999918" width="0.8694999999999591" height="0.8694999999999591" fill="#0074D9" />
<rect x="0.8794999999999591" y="1.753999999999918" width="0.8694999999999591" height="0.8694999999999591" fill="#37D449" />
<rect x="1.753999999999918" y="1.753999999999918" width="0.8694999999999591" height="0.8694999999999591" fill="#37D449" />
<rect x="2.6284999999998773" y="1.753999999999918" width="0.8694999999999591" height="0.8694999999999591" fill="#FFDC00" />
<rect x="0.005" y="2.6284999999998773" width="0.8694999999999591" height="0.8694999999999591" fill="#0074D9" />
<rect x="0.8794999999999591" y="2.6284999999998773" width="0.8694999999999591" height="0.8694999999999591" fill="#0074D9" />
<rect x="1.753999999999918" y="2.6284999999998773" width="0.8694999999999591" height="0.8694999999999591" fill="#0074D9" />
<rect x="2.6284999999998773" y="2.6284999999998773" width="0.8694999999999591" height="0.8694999999999591" fill="#0074D9" />
<rect x="-0.02666666666666667" y="-0.02666666666666667" width="3.5513333333331696" height="3.5513333333331696" fill="none" stroke="#111111ff" stroke-width="0.08" />
<text x="3.4979999999998364" y="3.9667499999998364" font-size="0.375" fill="black" text-anchor="end" font-family="Anuphan">4x4</text>
<text x="-0.037500000000000006" y="3.9667499999998364" font-size="0.375" fill="black" text-anchor="start" font-family="Anuphan" font-weight="600">Test 1</text>
</g>
<g id="d5">
<rect x="0.005" y="0.005" width="1.08" height="1.08" fill="#0074D9" />
<rect x="1.0899999999999999" y="0.005" width="1.08" height="1.08" fill="#FF4136" />
<rect x="2.175" y="0.005" width="1.08" height="1.08" fill="#37D449" />
<rect x="0.005" y="1.0899999999999999" width="1.08" height="1.08" fill="#0074D9" />
<rect x="1.0899999999999999" y="1.0899999999999999" width="1.08" height="1.08" fill="#FF4136" />
<rect x="2.175" y="1.0899999999999999" width="1.08" height="1.08" fill="#252525" />
<rect x="0.005" y="2.175" width="1.08" height="1.08" fill="#0074D9" />
<rect x="1.0899999999999999" y="2.175" width="1.08" height="1.08" fill="#FF4136" />
<rect x="2.175" y="2.175" width="1.08" height="1.08" fill="#252525" />
<rect x="0.005" y="3.26" width="1.08" height="1.08" fill="#0074D9" />
<rect x="1.0899999999999999" y="3.26" width="1.08" height="1.08" fill="#252525" />
<rect x="2.175" y="3.26" width="1.08" height="1.08" fill="#252525" />
<rect x="0.005" y="4.345" width="1.08" height="1.08" fill="#0074D9" />
<rect x="1.0899999999999999" y="4.345" width="1.08" height="1.08" fill="#252525" />
<rect x="2.175" y="4.345" width="1.08" height="1.08" fill="#252525" />
<rect x="-0.02666666666666667" y="-0.02666666666666667" width="3.308333333333333" height="5.4783333333333335" fill="none" stroke="#111111ff" stroke-width="0.08" />
<text x="3.255" y="5.89375" font-size="0.375" fill="black" text-anchor="end" font-family="Anuphan">3x5</text>
<text x="-0.037500000000000006" y="5.89375" font-size="0.375" fill="black" text-anchor="start" font-family="Anuphan" font-weight="600">Output 1</text>
</g>
<g id="d6">
<rect x="0.005" y="0.005" width="0.8694999999999591" height="0.8694999999999591" fill="#FFDC00" />
<rect x="0.8794999999999591" y="0.005" width="0.8694999999999591" height="0.8694999999999591" fill="#FF4136" />
<rect x="1.753999999999918" y="0.005" width="0.8694999999999591" height="0.8694999999999591" fill="#0074D9" />
<rect x="2.6284999999998773" y="0.005" width="0.8694999999999591" height="0.8694999999999591" fill="#37D449" />
<rect x="0.005" y="0.8794999999999591" width="0.8694999999999591" height="0.8694999999999591" fill="#FFDC00" />
<rect x="0.8794999999999591" y="0.8794999999999591" width="0.8694999999999591" height="0.8694999999999591" fill="#FF4136" />
<rect x="1.753999999999918" y="0.8794999999999591" width="0.8694999999999591" height="0.8694999999999591" fill="#0074D9" />
<rect x="2.6284999999998773" y="0.8794999999999591" width="0.8694999999999591" height="0.8694999999999591" fill="#252525" />
<rect x="0.005" y="1.753999999999918" width="0.8694999999999591" height="0.8694999999999591" fill="#FFDC00" />
<rect x="0.8794999999999591" y="1.753999999999918" width="0.8694999999999591" height="0.8694999999999591" fill="#FF4136" />
<rect x="1.753999999999918" y="1.753999999999918" width="0.8694999999999591" height="0.8694999999999591" fill="#252525" />
<rect x="2.6284999999998773" y="1.753999999999918" width="0.8694999999999591" height="0.8694999999999591" fill="#252525" />
<rect x="0.005" y="2.6284999999998773" width="0.8694999999999591" height="0.8694999999999591" fill="#FFDC00" />
<rect x="0.8794999999999591" y="2.6284999999998773" width="0.8694999999999591" height="0.8694999999999591" fill="#252525" />
<rect x="1.753999999999918" y="2.6284999999998773" width="0.8694999999999591" height="0.8694999999999591" fill="#252525" />
<rect x="2.6284999999998773" y="2.6284999999998773" width="0.8694999999999591" height="0.8694999999999591" fill="#252525" />
<rect x="0.005" y="3.5029999999998362" width="0.8694999999999591" height="0.8694999999999591" fill="#FFDC00" />
<rect x="0.8794999999999591" y="3.5029999999998362" width="0.8694999999999591" height="0.8694999999999591" fill="#252525" />
<rect x="1.753999999999918" y="3.5029999999998362" width="0.8694999999999591" height="0.8694999999999591" fill="#252525" />
<rect x="2.6284999999998773" y="3.5029999999998362" width="0.8694999999999591" height="0.8694999999999591" fill="#252525" />
<rect x="0.005" y="4.377499999999795" width="0.8694999999999591" height="0.8694999999999591" fill="#FFDC00" />
<rect x="0.8794999999999591" y="4.377499999999795" width="0.8694999999999591" height="0.8694999999999591" fill="#252525" />
<rect x="1.753999999999918" y="4.377499999999795" width="0.8694999999999591" height="0.8694999999999591" fill="#252525" />
<rect x="2.6284999999998773" y="4.377499999999795" width="0.8694999999999591" height="0.8694999999999591" fill="#252525" />
<rect x="-0.02666666666666667" y="-0.02666666666666667" width="3.5513333333331696" height="5.300333333333088" fill="none" stroke="#111111ff" stroke-width="0.08" />
<text x="3.4979999999998364" y="5.715749999999755" font-size="0.375" fill="black" text-anchor="end" font-family="Anuphan">4x6</text>
<text x="-0.037500000000000006" y="5.715749999999755" font-size="0.375" fill="black" text-anchor="start" font-family="Anuphan" font-weight="600">Output 2</text>
</g>
<g id="d7">
<rect x="0.005" y="0.005" width="0.8694999999999591" height="0.8694999999999591" fill="#37D449" />
<rect x="0.8794999999999591" y="0.005" width="0.8694999999999591" height="0.8694999999999591" fill="#54D2EB" />
<rect x="1.753999999999918" y="0.005" width="0.8694999999999591" height="0.8694999999999591" fill="#FFDC00" />
<rect x="2.6284999999998773" y="0.005" width="0.8694999999999591" height="0.8694999999999591" fill="#FF4136" />
<rect x="0.005" y="0.8794999999999591" width="0.8694999999999591" height="0.8694999999999591" fill="#37D449" />
<rect x="0.8794999999999591" y="0.8794999999999591" width="0.8694999999999591" height="0.8694999999999591" fill="#54D2EB" />
<rect x="1.753999999999918" y="0.8794999999999591" width="0.8694999999999591" height="0.8694999999999591" fill="#FFDC00" />
<rect x="2.6284999999998773" y="0.8794999999999591" width="0.8694999999999591" height="0.8694999999999591" fill="#252525" />
<rect x="0.005" y="1.753999999999918" width="0.8694999999999591" height="0.8694999999999591" fill="#37D449" />
<rect x="0.8794999999999591" y="1.753999999999918" width="0.8694999999999591" height="0.8694999999999591" fill="#54D2EB" />
<rect x="1.753999999999918" y="1.753999999999918" width="0.8694999999999591" height="0.8694999999999591" fill="#252525" />
<rect x="2.6284999999998773" y="1.753999999999918" width="0.8694999999999591" height="0.8694999999999591" fill="#252525" />
<rect x="0.005" y="2.6284999999998773" width="0.8694999999999591" height="0.8694999999999591" fill="#37D449" />
<rect x="0.8794999999999591" y="2.6284999999998773" width="0.8694999999999591" height="0.8694999999999591" fill="#54D2EB" />
<rect x="1.753999999999918" y="2.6284999999998773" width="0.8694999999999591" height="0.8694999999999591" fill="#252525" />
<rect x="2.6284999999998773" y="2.6284999999998773" width="0.8694999999999591" height="0.8694999999999591" fill="#252525" />
<rect x="0.005" y="3.5029999999998362" width="0.8694999999999591" height="0.8694999999999591" fill="#37D449" />
<rect x="0.8794999999999591" y="3.5029999999998362" width="0.8694999999999591" height="0.8694999999999591" fill="#252525" />
<rect x="1.753999999999918" y="3.5029999999998362" width="0.8694999999999591" height="0.8694999999999591" fill="#252525" />
<rect x="2.6284999999998773" y="3.5029999999998362" width="0.8694999999999591" height="0.8694999999999591" fill="#252525" />
<rect x="-0.02666666666666667" y="-0.02666666666666667" width="3.5513333333331696" height="4.425833333333129" fill="none" stroke="#111111ff" stroke-width="0.08" />
<text x="3.4979999999998364" y="4.841249999999795" font-size="0.375" fill="black" text-anchor="end" font-family="Anuphan">4x5</text>
<text x="-0.037500000000000006" y="4.841249999999795" font-size="0.375" fill="black" text-anchor="start" font-family="Anuphan" font-weight="600">Output 3</text>
</g>
<g id="d8">
<rect x="0.005" y="0.005" width="0.8991666666666667" height="0.8991666666666667" fill="#0074D9" />
<rect x="0.9091666666666667" y="0.005" width="0.8991666666666667" height="0.8991666666666667" fill="#FF4136" />
<rect x="1.8133333333333332" y="0.005" width="0.8991666666666667" height="0.8991666666666667" fill="#54D2EB" />
<rect x="0.005" y="0.9091666666666667" width="0.8991666666666667" height="0.8991666666666667" fill="#0074D9" />
<rect x="0.9091666666666667" y="0.9091666666666667" width="0.8991666666666667" height="0.8991666666666667" fill="#FF4136" />
<rect x="1.8133333333333332" y="0.9091666666666667" width="0.8991666666666667" height="0.8991666666666667" fill="#54D2EB" />
<rect x="0.005" y="1.8133333333333332" width="0.8991666666666667" height="0.8991666666666667" fill="#0074D9" />
<rect x="0.9091666666666667" y="1.8133333333333332" width="0.8991666666666667" height="0.8991666666666667" fill="#FF4136" />
<rect x="1.8133333333333332" y="1.8133333333333332" width="0.8991666666666667" height="0.8991666666666667" fill="#252525" />
<rect x="0.005" y="2.7175" width="0.8991666666666667" height="0.8991666666666667" fill="#0074D9" />
<rect x="0.9091666666666667" y="2.7175" width="0.8991666666666667" height="0.8991666666666667" fill="#FF4136" />
<rect x="1.8133333333333332" y="2.7175" width="0.8991666666666667" height="0.8991666666666667" fill="#252525" />
<rect x="0.005" y="3.6216666666666666" width="0.8991666666666667" height="0.8991666666666667" fill="#0074D9" />
<rect x="0.9091666666666667" y="3.6216666666666666" width="0.8991666666666667" height="0.8991666666666667" fill="#252525" />
<rect x="1.8133333333333332" y="3.6216666666666666" width="0.8991666666666667" height="0.8991666666666667" fill="#252525" />
<rect x="0.005" y="4.525833333333333" width="0.8991666666666667" height="0.8991666666666667" fill="#0074D9" />
<rect x="0.9091666666666667" y="4.525833333333333" width="0.8991666666666667" height="0.8991666666666667" fill="#252525" />
<rect x="1.8133333333333332" y="4.525833333333333" width="0.8991666666666667" height="0.8991666666666667" fill="#252525" />
<rect x="-0.02666666666666667" y="-0.02666666666666667" width="2.765833333333333" height="5.4783333333333335" fill="none" stroke="#111111ff" stroke-width="0.08" />
<text x="2.7125" y="5.89375" font-size="0.375" fill="black" text-anchor="end" font-family="Anuphan">3x6</text>
<text x="-0.037500000000000006" y="5.89375" font-size="0.375" fill="black" text-anchor="start" font-family="Anuphan" font-weight="600">Output 4</text>
</g>
</defs>
<rect x="0" y="0" width="100%" height="100%" fill="#eeeff6" />
<use xlink:href="#d0" x="0.24999999999999978" y="0.25" />
<use xlink:href="#d1" x="4.247999999999837" y="0.25" />
<use xlink:href="#d2" x="8.245999999999674" y="0.25" />
<use xlink:href="#d3" x="12.24399999999951" y="0.25" />
<use xlink:href="#d4" x="16.241999999999347" y="0.25" />
<path d="M1.9989999999999184,5.5639999999997825 L1.9989999999999184,5.963999999999783" stroke-width="0.05" stroke="#888888" />
<path d="M1.8489999999999185,5.763999999999783 L1.9989999999999184,5.963999999999783" stroke-width="0.05" stroke="#888888" />
<path d="M2.1489999999999183,5.763999999999783 L1.9989999999999184,5.963999999999783" stroke-width="0.05" stroke="#888888" />
<use xlink:href="#d5" x="0.37149999999991823" y="6.3139999999997825" />
<path d="M5.996999999999755,5.5639999999997825 L5.996999999999755,5.963999999999783" stroke-width="0.05" stroke="#888888" />
<path d="M5.846999999999754,5.763999999999783 L5.996999999999755,5.963999999999783" stroke-width="0.05" stroke="#888888" />
<path d="M6.146999999999755,5.763999999999783 L5.996999999999755,5.963999999999783" stroke-width="0.05" stroke="#888888" />
<use xlink:href="#d6" x="4.247999999999837" y="6.3139999999997825" />
<path d="M9.994999999999592,5.5639999999997825 L9.994999999999592,5.963999999999783" stroke-width="0.05" stroke="#888888" />
<path d="M9.844999999999592,5.763999999999783 L9.994999999999592,5.963999999999783" stroke-width="0.05" stroke="#888888" />
<path d="M10.144999999999593,5.763999999999783 L9.994999999999592,5.963999999999783" stroke-width="0.05" stroke="#888888" />
<use xlink:href="#d7" x="8.245999999999674" y="6.3139999999997825" />
<path d="M13.992999999999428,5.5639999999997825 L13.992999999999428,5.963999999999783" stroke-width="0.05" stroke="#888888" />
<path d="M13.842999999999428,5.763999999999783 L13.992999999999428,5.963999999999783" stroke-width="0.05" stroke="#888888" />
<path d="M14.142999999999429,5.763999999999783 L13.992999999999428,5.963999999999783" stroke-width="0.05" stroke="#888888" />
<use xlink:href="#d8" x="12.636749999999427" y="6.3139999999997825" />
<path d="M17.990999999999264,5.5639999999997825 L17.990999999999264,5.963999999999783" stroke-width="0.05" stroke="#888888" />
<path d="M17.840999999999266,5.763999999999783 L17.990999999999264,5.963999999999783" stroke-width="0.05" stroke="#888888" />
<path d="M18.140999999999263,5.763999999999783 L17.990999999999264,5.963999999999783" stroke-width="0.05" stroke="#888888" />
<text x="17.990999999999264" y="8.512799999999684" font-size="1" font-family="Anuphan" font-weight="700" fill="#333333" text-anchor="middle" alignment-baseline="middle">?</text>
<text x="19.9" y="12.6" font-size="0.3" font-family="Anuphan" font-weight="600" fill="#666666" text-anchor="end" alignment-baseline="bottom">Task 9af7a82c</text>
</svg>