<?xml version="1.0" encoding="UTF-8"?>
<svg xmlns="http://www.w3.org/2000/svg" xmlns:xlink="http://www.w3.org/1999/xlink"
     width="800.0" height="224.00000000000003" viewBox="0 0 20.0 5.6000000000000005">
<defs>
<g id="d0">
<rect x="0.005" y="0.005" width="0.29483333333333356" height="0.29483333333333356" fill="#252525" />
<rect x="0.30483333333333357" y="0.005" width="0.29483333333333356" height="0.29483333333333356" fill="#252525" />
<rect x="0.6046666666666671" y="0.005" width="0.29483333333333356" height="0.29483333333333356" fill="#252525" />
<rect x="0.9045000000000006" y="0.005" width="0.29483333333333356" height="0.29483333333333356" fill="#252525" />
<rect x="1.2043333333333341" y="0.005" width="0.29483333333333356" height="0.29483333333333356" fill="#252525" />
<rect x="1.5041666666666678" y="0.005" width="0.29483333333333356" height="0.29483333333333356" fill="#252525" />
<rect x="1.8040000000000012" y="0.005" width="0.29483333333333356" height="0.29483333333333356" fill="#252525" />
<rect x="2.103833333333335" y="0.005" width="0.29483333333333356" height="0.29483333333333356" fill="#252525" />
<rect x="2.4036666666666684" y="0.005" width="0.29483333333333356" height="0.29483333333333356" fill="#252525" />
<rect x="2.703500000000002" y="0.005" width="0.29483333333333356" height="0.29483333333333356" fill="#252525" />
<rect x="3.0033333333333356" y="0.005" width="0.29483333333333356" height="0.29483333333333356" fill="#252525" />
<rect x="3.303166666666669" y="0.005" width="0.29483333333333356" height="0.29483333333333356" fill="#252525" />
<rect x="3.6030000000000024" y="0.005" width="0.29483333333333356" height="0.29483333333333356" fill="#252525" />
<rect x="3.9028333333333363" y="0.005" width="0.29483333333333356" height="0.29483333333333356" fill="#252525" />
<rect x="4.20266666666667" y="0.005" width="0.29483333333333356" height="0.29483333333333356" fill="#252525" />
<rect x="0.005" y="0.30483333333333357" width="0.29483333333333356" height="0.29483333333333356" fill="#252525" />
<rect x="0.30483333333333357" y="0.30483333333333357" width="0.29483333333333356" height="0.29483333333333356" fill="#252525" />
<rect x="0.6046666666666671" y="0.30483333333333357" width="0.29483333333333356" height="0.29483333333333356" fill="#252525" />
<rect x="0.9045000000000006" y="0.30483333333333357" width="0.29483333333333356" height="0.29483333333333356" fill="#252525" />
<rect x="1.2043333333333341" y="0.30483333333333357" width="0.29483333333333356" height="0.29483333333333356" fill="#252525" />
<rect x="1.5041666666666678" y="0.30483333333333357" width="0.29483333333333356" height="0.29483333333333356" fill="#252525" />
<rect x="1.8040000000000012" y="0.30483333333333357" width="0.29483333333333356" height="0.29483333333333356" fill="#252525" />
<rect x="2.103833333333335" y="0.30483333333333357" width="0.29483333333333356" height="0.29483333333333356" fill="#252525" />
<rect x="2.4036666666666684" y="0.30483333333333357" width="0.29483333333333356" height="0.29483333333333356" fill="#252525" />
<rect x="2.703500000000002" y="0.30483333333333357" width="0.29483333333333356" height="0.29483333333333356" fill="#252525" />
<rect x="3.0033333333333356" y="0.30483333333333357" width="0.29483333333333356" height="0.29483333333333356" fill="#252525" />
<rect x="3.303166666666669" y="0.30483333333333357" width="0.29483333333333356" height="0.29483333333333356" fill="#252525" />
<rect x="3.6030000000000024" y="0.30483333333333357" width="0.29483333333333356" height="0.29483333333333356" fill="#252525" />
<rect x="3.9028333333333363" y="0.30483333333333357" width="0.29483333333333356" height="0.29483333333333356" fill="#252525" />
<rect x="4.20266666666667" y="0.30483333333333357" width="0.29483333333333356" height="0.29483333333333356" fill="#252525" />
<rect x="0.005" y="0.6046666666666671" width="0.29483333333333356" height="0.29483333333333356" fill="#252525" />
<rect x="0.30483333333333357" y="0.6046666666666671" width="0.29483333333333356" height="0.29483333333333356" fill="#252525" />
<rect x="0.6046666666666671" y="0.6046666666666671" width="0.29483333333333356" height="0.29483333333333356" fill="#252525" />
<rect x="0.9045000000000006" y="0.6046666666666671" width="0.29483333333333356" height="0.29483333333333356" fill="#252525" />
<rect x="1.2043333333333341" y="0.6046666666666671" width="0.29483333333333356" height="0.29483333333333356" fill="#252525" />
<rect x="1.5041666666666678" y="0.6046666666666671" width="0.29483333333333356" height="0.29483333333333356" fill="#252525" />
<rect x="1.8040000000000012" y="0.6046666666666671" width="0.29483333333333356" height="0.29483333333333356" fill="#252525" />
<rect x="2.103833333333335" y="0.6046666666666671" width="0.29483333333333356" height="0.29483333333333356" fill="#252525" />
<rect x="2.4036666666666684" y="0.6046666666666671" width="0.29483333333333356" height="0.29483333333333356" fill="#252525" />
<rect x="2.703500000000002" y="0.6046666666666671" width="0.29483333333333356" height="0.29483333333333356" fill="#252525" />
<rect x="3.0033333333333356" y="0.6046666666666671" width="0.29483333333333356" height="0.29483333333333356" fill="#252525" />
<rect x="3.303166666666669" y="0.6046666666666671" width="0.29483333333333356" height="0.29483333333333356" fill="#252525" />
<rect x="3.6030000000000024" y="0.6046666666666671" width="0.29483333333333356" height="0.29483333333333356" fill="#252525" />
<rect x="3.9028333333333363" y="0.6046666666666671" width="0.29483333333333356" height="0.29483333333333356" fill="#252525" />
<rect x="4.20266666666667" y="0.6046666666666671" width="0.29483333333333356" height="0.29483333333333356" fill="#252525" />
<rect x="0.005" y="0.9045000000000006" width="0.29483333333333356" height="0.29483333333333356" fill="#252525" />
<rect x="0.30483333333333357" y="0.9045000000000006" width="0.29483333333333356" height="0.29483333333333356" fill="#FF4136" />
<rect x="0.6046666666666671" y="0.9045000000000006" width="0.29483333333333356" height="0.29483333333333356" fill="#FF4136" />
<rect x="0.9045000000000006" y="0.9045000000000006" width="0.29483333333333356" height="0.29483333333333356" fill="#252525" />
<rect x="1.2043333333333341" y="0.9045000000000006" width="0.29483333333333356" height="0.29483333333333356" fill="#FF4136" />
<rect x="1.5041666666666678" y="0.9045000000000006" width="0.29483333333333356" height="0.29483333333333356" fill="#FF4136" />
<rect x="1.8040000000000012" y="0.9045000000000006" width="0.29483333333333356" height="0.29483333333333356" fill="#252525" />
<rect x="2.103833333333335" y="0.9045000000000006" width="0.29483333333333356" height="0.29483333333333356" fill="#252525" />
<rect x="2.4036666666666684" y="0.9045000000000006" width="0.29483333333333356" height="0.29483333333333356" fill="#252525" />
<rect x="2.703500000000002" y="0.9045000000000006" width="0.29483333333333356" height="0.29483333333333356" fill="#252525" />
<rect x="3.0033333333333356" y="0.9045000000000006" width="0.29483333333333356" height="0.29483333333333356" fill="#252525" />
<rect x="3.303166666666669" y="0.9045000000000006" width="0.29483333333333356" height="0.29483333333333356" fill="#252525" />
<rect x="3.6030000000000024" y="0.9045000000000006" width="0.29483333333333356" height="0.29483333333333356" fill="#252525" />
<rect x="3.9028333333333363" y="0.9045000000000006" width="0.29483333333333356" height="0.29483333333333356" fill="#252525" />
<rect x="4.20266666666667" y="0.9045000000000006" width="0.29483333333333356" height="0.29483333333333356" fill="#252525" />
<rect x="0.005" y="1.2043333333333341" width="0.29483333333333356" height="0.29483333333333356" fill="#0074D9" />
<rect x="0.30483333333333357" y="1.2043333333333341" width="0.29483333333333356" height="0.29483333333333356" fill="#FF4136" />
<rect x="0.6046666666666671" y="1.2043333333333341" width="0.29483333333333356" height="0.29483333333333356" fill="#FF4136" />
<rect x="0.9045000000000006" y="1.2043333333333341" width="0.29483333333333356" height="0.29483333333333356" fill="#0074D9" />
<rect x="1.2043333333333341" y="1.2043333333333341" width="0.29483333333333356" height="0.29483333333333356" fill="#FF4136" />
<rect x="1.5041666666666678" y="1.2043333333333341" width="0.29483333333333356" height="0.29483333333333356" fill="#FF4136" />
<rect x="1.8040000000000012" y="1.2043333333333341" width="0.29483333333333356" height="0.29483333333333356" fill="#0074D9" />
<rect x="2.103833333333335" y="1.2043333333333341" width="0.29483333333333356" height="0.29483333333333356" fill="#252525" />
<rect x="2.4036666666666684" y="1.2043333333333341" width="0.29483333333333356" height="0.29483333333333356" fill="#252525" />
<rect x="2.703500000000002" y="1.2043333333333341" width="0.29483333333333356" height="0.29483333333333356" fill="#252525" />
<rect x="3.0033333333333356" y="1.2043333333333341" width="0.29483333333333356" height="0.29483333333333356" fill="#252525" />
<rect x="3.303166666666669" y="1.2043333333333341" width="0.29483333333333356" height="0.29483333333333356" fill="#252525" />
<rect x="3.6030000000000024" y="1.2043333333333341" width="0.29483333333333356" height="0.29483333333333356" fill="#252525" />
<rect x="3.9028333333333363" y="1.2043333333333341" width="0.29483333333333356" height="0.29483333333333356" fill="#252525" />
<rect x="4.20266666666667" y="1.2043333333333341" width="0.29483333333333356" height="0.29483333333333356" fill="#252525" />
<rect x="-0.02666666666666667" y="-0.02666666666666667" width="4.550833333333337" height="1.552500000000001" fill="none" stroke="#111111ff" stroke-width="0.08" />
<text x="4.497500000000003" y="1.9679166666666679" font-size="0.375" fill="black" text-anchor="end" font-family="Anuphan">15x5</text>
<text x="-0.037500000000000006" y="1.9679166666666679" font-size="0.375" fill="black" text-anchor="start" font-family="Anuphan" font-weight="600">Input 1</text>
</g>
<g id="d1">
<rect x="0.005" y="0.005" width="0.29483333333333356" height="0.29483333333333356" fill="#252525" />
<rect x="0.30483333333333357" y="0.005" width="0.29483333333333356" height="0.29483333333333356" fill="#252525" />
<rect x="0.6046666666666671" y="0.005" width="0.29483333333333356" height="0.29483333333333356" fill="#252525" />
<rect x="0.9045000000000006" y="0.005" width="0.29483333333333356" height="0.29483333333333356" fill="#252525" />
<rect x="1.2043333333333341" y="0.005" width="0.29483333333333356" height="0.29483333333333356" fill="#252525" />
<rect x="1.5041666666666678" y="0.005" width="0.29483333333333356" height="0.29483333333333356" fill="#252525" />
<rect x="1.8040000000000012" y="0.005" width="0.29483333333333356" height="0.29483333333333356" fill="#252525" />
<rect x="2.103833333333335" y="0.005" width="0.29483333333333356" height="0.29483333333333356" fill="#252525" />
<rect x="2.4036666666666684" y="0.005" width="0.29483333333333356" height="0.29483333333333356" fill="#252525" />
<rect x="2.703500000000002" y="0.005" width="0.29483333333333356" height="0.29483333333333356" fill="#252525" />
<rect x="3.0033333333333356" y="0.005" width="0.29483333333333356" height="0.29483333333333356" fill="#252525" />
<rect x="3.303166666666669" y="0.005" width="0.29483333333333356" height="0.29483333333333356" fill="#252525" />
<rect x="3.6030000000000024" y="0.005" width="0.29483333333333356" height="0.29483333333333356" fill="#252525" />
<rect x="3.9028333333333363" y="0.005" width="0.29483333333333356" height="0.29483333333333356" fill="#252525" />
<rect x="4.20266666666667" y="0.005" width="0.29483333333333356" height="0.29483333333333356" fill="#252525" />
<rect x="0.005" y="0.30483333333333357" width="0.29483333333333356" height="0.29483333333333356" fill="#252525" />
<rect x="0.30483333333333357" y="0.30483333333333357" width="0.29483333333333356" height="0.29483333333333356" fill="#252525" />
<rect x="0.6046666666666671" y="0.30483333333333357" width="0.29483333333333356" height="0.29483333333333356" fill="#252525" />
<rect x="0.9045000000000006" y="0.30483333333333357" width="0.29483333333333356" height="0.29483333333333356" fill="#252525" />
<rect x="1.2043333333333341" y="0.30483333333333357" width="0.29483333333333356" height="0.29483333333333356" fill="#252525" />
<rect x="1.5041666666666678" y="0.30483333333333357" width="0.29483333333333356" height="0.29483333333333356" fill="#252525" />
<rect x="1.8040000000000012" y="0.30483333333333357" width="0.29483333333333356" height="0.29483333333333356" fill="#252525" />
<rect x="2.103833333333335" y="0.30483333333333357" width="0.29483333333333356" height="0.29483333333333356" fill="#252525" />
<rect x="2.4036666666666684" y="0.30483333333333357" width="0.29483333333333356" height="0.29483333333333356" fill="#252525" />
<rect x="2.703500000000002" y="0.30483333333333357" width="0.29483333333333356" height="0.29483333333333356" fill="#252525" />
<rect x="3.0033333333333356" y="0.30483333333333357" width="0.29483333333333356" height="0.29483333333333356" fill="#252525" />
<rect x="3.303166666666669" y="0.30483333333333357" width="0.29483333333333356" height="0.29483333333333356" fill="#252525" />
<rect x="3.6030000000000024" y="0.30483333333333357" width="0.29483333333333356" height="0.29483333333333356" fill="#252525" />
<rect x="3.9028333333333363" y="0.30483333333333357" width="0.29483333333333356" height="0.29483333333333356" fill="#252525" />
<rect x="4.20266666666667" y="0.30483333333333357" width="0.29483333333333356" height="0.29483333333333356" fill="#252525" />
<rect x="0.005" y="0.6046666666666671" width="0.29483333333333356" height="0.29483333333333356" fill="#252525" />
<rect x="0.30483333333333357" y="0.6046666666666671" width="0.29483333333333356" height="0.29483333333333356" fill="#252525" />
<rect x="0.6046666666666671" y="0.6046666666666671" width="0.29483333333333356" height="0.29483333333333356" fill="#FF4136" />
<rect x="0.9045000000000006" y="0.6046666666666671" width="0.29483333333333356" height="0.29483333333333356" fill="#252525" />
<rect x="1.2043333333333341" y="0.6046666666666671" width="0.29483333333333356" height="0.29483333333333356" fill="#252525" />
<rect x="1.5041666666666678" y="0.6046666666666671" width="0.29483333333333356" height="0.29483333333333356" fill="#252525" />
<rect x="1.8040000000000012" y="0.6046666666666671" width="0.29483333333333356" height="0.29483333333333356" fill="#FF4136" />
<rect x="2.103833333333335" y="0.6046666666666671" width="0.29483333333333356" height="0.29483333333333356" fill="#252525" />
<rect x="2.4036666666666684" y="0.6046666666666671" width="0.29483333333333356" height="0.29483333333333356" fill="#252525" />
<rect x="2.703500000000002" y="0.6046666666666671" width="0.29483333333333356" height="0.29483333333333356" fill="#252525" />
<rect x="3.0033333333333356" y="0.6046666666666671" width="0.29483333333333356" height="0.29483333333333356" fill="#252525" />
<rect x="3.303166666666669" y="0.6046666666666671" width="0.29483333333333356" height="0.29483333333333356" fill="#252525" />
<rect x="3.6030000000000024" y="0.6046666666666671" width="0.29483333333333356" height="0.29483333333333356" fill="#252525" />
<rect x="3.9028333333333363" y="0.6046666666666671" width="0.29483333333333356" height="0.29483333333333356" fill="#252525" />
<rect x="4.20266666666667" y="0.6046666666666671" width="0.29483333333333356" height="0.29483333333333356" fill="#252525" />
<rect x="0.005" y="0.9045000000000006" width="0.29483333333333356" height="0.29483333333333356" fill="#252525" />
<rect x="0.30483333333333357" y="0.9045000000000006" width="0.29483333333333356" height="0.29483333333333356" fill="#252525" />
<rect x="0.6046666666666671" y="0.9045000000000006" width="0.29483333333333356" height="0.29483333333333356" fill="#FF4136" />
<rect x="0.9045000000000006" y="0.9045000000000006" width="0.29483333333333356" height="0.29483333333333356" fill="#252525" />
<rect x="1.2043333333333341" y="0.9045000000000006" width="0.29483333333333356" height="0.29483333333333356" fill="#252525" />
<rect x="1.5041666666666678" y="0.9045000000000006" width="0.29483333333333356" height="0.29483333333333356" fill="#252525" />
<rect x="1.8040000000000012" y="0.9045000000000006" width="0.29483333333333356" height="0.29483333333333356" fill="#FF4136" />
<rect x="2.103833333333335" y="0.9045000000000006" width="0.29483333333333356" height="0.29483333333333356" fill="#252525" />
<rect x="2.4036666666666684" y="0.9045000000000006" width="0.29483333333333356" height="0.29483333333333356" fill="#252525" />
<rect x="2.703500000000002" y="0.9045000000000006" width="0.29483333333333356" height="0.29483333333333356" fill="#252525" />
<rect x="3.0033333333333356" y="0.9045000000000006" width="0.29483333333333356" height="0.29483333333333356" fill="#252525" />
<rect x="3.303166666666669" y="0.9045000000000006" width="0.29483333333333356" height="0.29483333333333356" fill="#252525" />
<rect x="3.6030000000000024" y="0.9045000000000006" width="0.29483333333333356" height="0.29483333333333356" fill="#252525" />
<rect x="3.9028333333333363" y="0.9045000000000006" width="0.29483333333333356" height="0.29483333333333356" fill="#252525" />
<rect x="4.20266666666667" y="0.9045000000000006" width="0.29483333333333356" height="0.29483333333333356" fill="#252525" />
<rect x="0.005" y="1.2043333333333341" width="0.29483333333333356" height="0.29483333333333356" fill="#37D449" />
<rect x="0.30483333333333357" y="1.2043333333333341" width="0.29483333333333356" height="0.29483333333333356" fill="#37D449" />
<rect x="0.6046666666666671" y="1.2043333333333341" width="0.29483333333333356" height="0.29483333333333356" fill="#FF4136" />
<rect x="0.9045000000000006" y="1.2043333333333341" width="0.29483333333333356" height="0.29483333333333356" fill="#0074D9" />
<rect x="1.2043333333333341" y="1.2043333333333341" width="0.29483333333333356" height="0.29483333333333356" fill="#37D449" />
<rect x="1.5041666666666678" y="1.2043333333333341" width="0.29483333333333356" height="0.29483333333333356" fill="#37D449" />
<rect x="1.8040000000000012" y="1.2043333333333341" width="0.29483333333333356" height="0.29483333333333356" fill="#FF4136" />
<rect x="2.103833333333335" y="1.2043333333333341" width="0.29483333333333356" height="0.29483333333333356" fill="#0074D9" />
<rect x="2.4036666666666684" y="1.2043333333333341" width="0.29483333333333356" height="0.29483333333333356" fill="#252525" />
<rect x="2.703500000000002" y="1.2043333333333341" width="0.29483333333333356" height="0.29483333333333356" fill="#252525" />
<rect x="3.0033333333333356" y="1.2043333333333341" width="0.29483333333333356" height="0.29483333333333356" fill="#252525" />
<rect x="3.303166666666669" y="1.2043333333333341" width="0.29483333333333356" height="0.29483333333333356" fill="#252525" />
<rect x="3.6030000000000024" y="1.2043333333333341" width="0.29483333333333356" height="0.29483333333333356" fill="#252525" />
<rect x="3.9028333333333363" y="1.2043333333333341" width="0.29483333333333356" height="0.29483333333333356" fill="#252525" />
<rect x="4.20266666666667" y="1.2043333333333341" width="0.29483333333333356" height="0.29483333333333356" fill="#252525" />
<rect x="-0.02666666666666667" y="-0.02666666666666667" width="4.550833333333337" height="1.552500000000001" fill="none" stroke="#111111ff" stroke-width="0.08" />
<text x="4.497500000000003" y="1.9679166666666679" font-size="0.375" fill="black" text-anchor="end" font-family="Anuphan">15x5</text>
<text x="-0.037500000000000006" y="1.9679166666666679" font-size="0.375" fill="black" text-anchor="start" font-family="Anuphan" font-weight="600">Input 2</text>
</g>
<g id="d2">
<rect x="0.005" y="0.005" width="0.29483333333333356" height="0.29483333333333356" fill="#252525" />
<rect x="0.30483333333333357" y="0.005" width="0.29483333333333356" height="0.29483333333333356" fill="#252525" />
<rect x="0.6046666666666671" y="0.005" width="0.29483333333333356" height="0.29483333333333356" fill="#252525" />
<rect x="0.9045000000000006" y="0.005" width="0.29483333333333356" height="0.29483333333333356" fill="#252525" />
<rect x="1.2043333333333341" y="0.005" width="0.29483333333333356" height="0.29483333333333356" fill="#252525" />
<rect x="1.5041666666666678" y="0.005" width="0.29483333333333356" height="0.29483333333333356" fill="#252525" />
<rect x="1.8040000000000012" y="0.005" width="0.29483333333333356" height="0.29483333333333356" fill="#252525" />
<rect x="2.103833333333335" y="0.005" width="0.29483333333333356" height="0.29483333333333356" fill="#252525" />
<rect x="2.4036666666666684" y="0.005" width="0.29483333333333356" height="0.29483333333333356" fill="#252525" />
<rect x="2.703500000000002" y="0.005" width="0.29483333333333356" height="0.29483333333333356" fill="#252525" />
<rect x="3.0033333333333356" y="0.005" width="0.29483333333333356" height="0.29483333333333356" fill="#252525" />
<rect x="3.303166666666669" y="0.005" width="0.29483333333333356" height="0.29483333333333356" fill="#252525" />
<rect x="3.6030000000000024" y="0.005" width="0.29483333333333356" height="0.29483333333333356" fill="#252525" />
<rect x="3.9028333333333363" y="0.005" width="0.29483333333333356" height="0.29483333333333356" fill="#252525" />
<rect x="4.20266666666667" y="0.005" width="0.29483333333333356" height="0.29483333333333356" fill="#252525" />
<rect x="0.005" y="0.30483333333333357" width="0.29483333333333356" height="0.29483333333333356" fill="#252525" />
<rect x="0.30483333333333357" y="0.30483333333333357" width="0.29483333333333356" height="0.29483333333333356" fill="#252525" />
<rect x="0.6046666666666671" y="0.30483333333333357" width="0.29483333333333356" height="0.29483333333333356" fill="#252525" />
<rect x="0.9045000000000006" y="0.30483333333333357" width="0.29483333333333356" height="0.29483333333333356" fill="#252525" />
<rect x="1.2043333333333341" y="0.30483333333333357" width="0.29483333333333356" height="0.29483333333333356" fill="#252525" />
<rect x="1.5041666666666678" y="0.30483333333333357" width="0.29483333333333356" height="0.29483333333333356" fill="#252525" />
<rect x="1.8040000000000012" y="0.30483333333333357" width="0.29483333333333356" height="0.29483333333333356" fill="#252525" />
<rect x="2.103833333333335" y="0.30483333333333357" width="0.29483333333333356" height="0.29483333333333356" fill="#252525" />
<rect x="2.4036666666666684" y="0.30483333333333357" width="0.29483333333333356" height="0.29483333333333356" fill="#252525" />
<rect x="2.703500000000002" y="0.30483333333333357" width="0.29483333333333356" height="0.29483333333333356" fill="#252525" />
<rect x="3.0033333333333356" y="0.30483333333333357" width="0.29483333333333356" height="0.29483333333333356" fill="#252525" />
<rect x="3.303166666666669" y="0.30483333333333357" width="0.29483333333333356" height="0.29483333333333356" fill="#252525" />
<rect x="3.6030000000000024" y="0.30483333333333357" width="0.29483333333333356" height="0.29483333333333356" fill="#252525" />
<rect x="3.9028333333333363" y="0.30483333333333357" width="0.29483333333333356" height="0.29483333333333356" fill="#252525" />
<rect x="4.20266666666667" y="0.30483333333333357" width="0.29483333333333356" height="0.29483333333333356" fill="#252525" />
<rect x="0.005" y="0.6046666666666671" width="0.29483333333333356" height="0.29483333333333356" fill="#FFDC00" />
<rect x="0.30483333333333357" y="0.6046666666666671" width="0.29483333333333356" height="0.29483333333333356" fill="#252525" />
<rect x="0.6046666666666671" y="0.6046666666666671" width="0.29483333333333356" height="0.29483333333333356" fill="#252525" />
<rect x="0.9045000000000006" y="0.6046666666666671" width="0.29483333333333356" height="0.29483333333333356" fill="#252525" />
<rect x="1.2043333333333341" y="0.6046666666666671" width="0.29483333333333356" height="0.29483333333333356" fill="#252525" />
<rect x="1.5041666666666678" y="0.6046666666666671" width="0.29483333333333356" height="0.29483333333333356" fill="#FFDC00" />
<rect x="1.8040000000000012" y="0.6046666666666671" width="0.29483333333333356" height="0.29483333333333356" fill="#FFDC00" />
<rect x="2.103833333333335" y="0.6046666666666671" width="0.29483333333333356" height="0.29483333333333356" fill="#252525" />
<rect x="2.4036666666666684" y="0.6046666666666671" width="0.29483333333333356" height="0.29483333333333356" fill="#252525" />
<rect x="2.703500000000002" y="0.6046666666666671" width="0.29483333333333356" height="0.29483333333333356" fill="#252525" />
<rect x="3.0033333333333356" y="0.6046666666666671" width="0.29483333333333356" height="0.29483333333333356" fill="#252525" />
<rect x="3.303166666666669" y="0.6046666666666671" width="0.29483333333333356" height="0.29483333333333356" fill="#252525" />
<rect x="3.6030000000000024" y="0.6046666666666671" width="0.29483333333333356" height="0.29483333333333356" fill="#252525" />
<rect x="3.9028333333333363" y="0.6046666666666671" width="0.29483333333333356" height="0.29483333333333356" fill="#252525" />
<rect x="4.20266666666667" y="0.6046666666666671" width="0.29483333333333356" height="0.29483333333333356" fill="#252525" />
<rect x="0.005" y="0.9045000000000006" width="0.29483333333333356" height="0.29483333333333356" fill="#FFDC00" />
<rect x="0.30483333333333357" y="0.9045000000000006" width="0.29483333333333356" height="0.29483333333333356" fill="#37D449" />
<rect x="0.6046666666666671" y="0.9045000000000006" width="0.29483333333333356" height="0.29483333333333356" fill="#252525" />
<rect x="0.9045000000000006" y="0.9045000000000006" width="0.29483333333333356" height="0.29483333333333356" fill="#252525" />
<rect x="1.2043333333333341" y="0.9045000000000006" width="0.29483333333333356" height="0.29483333333333356" fill="#37D449" />
<rect x="1.5041666666666678" y="0.9045000000000006" width="0.29483333333333356" height="0.29483333333333356" fill="#FFDC00" />
<rect x="1.8040000000000012" y="0.9045000000000006" width="0.29483333333333356" height="0.29483333333333356" fill="#FFDC00" />
<rect x="2.103833333333335" y="0.9045000000000006" width="0.29483333333333356" height="0.29483333333333356" fill="#37D449" />
<rect x="2.4036666666666684" y="0.9045000000000006" width="0.29483333333333356" height="0.29483333333333356" fill="#252525" />
<rect x="2.703500000000002" y="0.9045000000000006" width="0.29483333333333356" height="0.29483333333333356" fill="#252525" />
<rect x="3.0033333333333356" y="0.9045000000000006" width="0.29483333333333356" height="0.29483333333333356" fill="#252525" />
<rect x="3.303166666666669" y="0.9045000000000006" width="0.29483333333333356" height="0.29483333333333356" fill="#252525" />
<rect x="3.6030000000000024" y="0.9045000000000006" width="0.29483333333333356" height="0.29483333333333356" fill="#252525" />
<rect x="3.9028333333333363" y="0.9045000000000006" width="0.29483333333333356" height="0.29483333333333356" fill="#252525" />
<rect x="4.20266666666667" y="0.9045000000000006" width="0.29483333333333356" height="0.29483333333333356" fill="#252525" />
<rect x="0.005" y="1.2043333333333341" width="0.29483333333333356" height="0.29483333333333356" fill="#FFDC00" />
<rect x="0.30483333333333357" y="1.2043333333333341" width="0.29483333333333356" height="0.29483333333333356" fill="#37D449" />
<rect x="0.6046666666666671" y="1.2043333333333341" width="0.29483333333333356" height="0.29483333333333356" fill="#FF4136" />
<rect x="0.9045000000000006" y="1.2043333333333341" width="0.29483333333333356" height="0.29483333333333356" fill="#FF4136" />
<rect x="1.2043333333333341" y="1.2043333333333341" width="0.29483333333333356" height="0.29483333333333356" fill="#37D449" />
<rect x="1.5041666666666678" y="1.2043333333333341" width="0.29483333333333356" height="0.29483333333333356" fill="#FFDC00" />
<rect x="1.8040000000000012" y="1.2043333333333341" width="0.29483333333333356" height="0.29483333333333356" fill="#FFDC00" />
<rect x="2.103833333333335" y="1.2043333333333341" width="0.29483333333333356" height="0.29483333333333356" fill="#37D449" />
<rect x="2.4036666666666684" y="1.2043333333333341" width="0.29483333333333356" height="0.29483333333333356" fill="#FF4136" />
<rect x="2.703500000000002" y="1.2043333333333341" width="0.29483333333333356" height="0.29483333333333356" fill="#FF4136" />
<rect x="3.0033333333333356" y="1.2043333333333341" width="0.29483333333333356" height="0.29483333333333356" fill="#252525" />
<rect x="3.303166666666669" y="1.2043333333333341" width="0.29483333333333356" height="0.29483333333333356" fill="#252525" />
<rect x="3.6030000000000024" y="1.2043333333333341" width="0.29483333333333356" height="0.29483333333333356" fill="#252525" />
<rect x="3.9028333333333363" y="1.2043333333333341" width="0.29483333333333356" height="0.29483333333333356" fill="#252525" />
<rect x="4.20266666666667" y="1.2043333333333341" width="0.29483333333333356" height="0.29483333333333356" fill="#252525" />
<rect x="-0.02666666666666667" y="-0.02666666666666667" width="4.550833333333337" height="1.552500000000001" fill="none" stroke="#111111ff" stroke-width="0.08" />
<text x="4.497500000000003" y="1.9679166666666679" font-size="0.375" fill="black" text-anchor="end" font-family="Anuphan">15x5</text>
<text x="-0.037500000000000006" y="1.9679166666666679" font-size="0.375" fill="black" text-anchor="start" font-family="Anuphan" font-weight="600">Input 3</text>
</g>
<g id="d3">
<rect x="0.005" y="0.005" width="0.29483333333333356" height="0.29483333333333356" fill="#252525" />
<rect x="0.30483333333333357" y="0.005" width="0.29483333333333356" height="0.29483333333333356" fill="#252525" />
<rect x="0.6046666666666671" y="0.005" width="0.29483333333333356" height="0.29483333333333356" fill="#252525" />
<rect x="0.9045000000000006" y="0.005" width="0.29483333333333356" height="0.29483333333333356" fill="#252525" />
<rect x="1.2043333333333341" y="0.005" width="0.29483333333333356" height="0.29483333333333356" fill="#252525" />
<rect x="1.5041666666666678" y="0.005" width="0.29483333333333356" height="0.29483333333333356" fill="#252525" />
<rect x="1.8040000000000012" y="0.005" width="0.29483333333333356" height="0.29483333333333356" fill="#252525" />
<rect x="2.103833333333335" y="0.005" width="0.29483333333333356" height="0.29483333333333356" fill="#252525" />
<rect x="2.4036666666666684" y="0.005" width="0.29483333333333356" height="0.29483333333333356" fill="#252525" />
<rect x="2.703500000000002" y="0.005" width="0.29483333333333356" height="0.29483333333333356" fill="#252525" />
<rect x="3.0033333333333356" y="0.005" width="0.29483333333333356" height="0.29483333333333356" fill="#252525" />
<rect x="3.303166666666669" y="0.005" width="0.29483333333333356" height="0.29483333333333356" fill="#252525" />
<rect x="3.6030000000000024" y="0.005" width="0.29483333333333356" height="0.29483333333333356" fill="#252525" />
<rect x="3.9028333333333363" y="0.005" width="0.29483333333333356" height="0.29483333333333356" fill="#252525" />
<rect x="4.20266666666667" y="0.005" width="0.29483333333333356" height="0.29483333333333356" fill="#252525" />
<rect x="0.005" y="0.30483333333333357" width="0.29483333333333356" height="0.29483333333333356" fill="#252525" />
<rect x="0.30483333333333357" y="0.30483333333333357" width="0.29483333333333356" height="0.29483333333333356" fill="#252525" />
<rect x="0.6046666666666671" y="0.30483333333333357" width="0.29483333333333356" height="0.29483333333333356" fill="#252525" />
<rect x="0.9045000000000006" y="0.30483333333333357" width="0.29483333333333356" height="0.29483333333333356" fill="#252525" />
<rect x="1.2043333333333341" y="0.30483333333333357" width="0.29483333333333356" height="0.29483333333333356" fill="#252525" />
<rect x="1.5041666666666678" y="0.30483333333333357" width="0.29483333333333356" height="0.29483333333333356" fill="#252525" />
<rect x="1.8040000000000012" y="0.30483333333333357" width="0.29483333333333356" height="0.29483333333333356" fill="#252525" />
<rect x="2.103833333333335" y="0.30483333333333357" width="0.29483333333333356" height="0.29483333333333356" fill="#252525" />
<rect x="2.4036666666666684" y="0.30483333333333357" width="0.29483333333333356" height="0.29483333333333356" fill="#252525" />
<rect x="2.703500000000002" y="0.30483333333333357" width="0.29483333333333356" height="0.29483333333333356" fill="#252525" />
<rect x="3.0033333333333356" y="0.30483333333333357" width="0.29483333333333356" height="0.29483333333333356" fill="#252525" />
<rect x="3.303166666666669" y="0.30483333333333357" width="0.29483333333333356" height="0.29483333333333356" fill="#252525" />
<rect x="3.6030000000000024" y="0.30483333333333357" width="0.29483333333333356" height="0.29483333333333356" fill="#252525" />
<rect x="3.9028333333333363" y="0.30483333333333357" width="0.29483333333333356" height="0.29483333333333356" fill="#252525" />
<rect x="4.20266666666667" y="0.30483333333333357" width="0.29483333333333356" height="0.29483333333333356" fill="#252525" />
<rect x="0.005" y="0.6046666666666671" width="0.29483333333333356" height="0.29483333333333356" fill="#252525" />
<rect x="0.30483333333333357" y="0.6046666666666671" width="0.29483333333333356" height="0.29483333333333356" fill="#252525" />
<rect x="0.6046666666666671" y="0.6046666666666671" width="0.29483333333333356" height="0.29483333333333356" fill="#FF4136" />
<rect x="0.9045000000000006" y="0.6046666666666671" width="0.29483333333333356" height="0.29483333333333356" fill="#252525" />
<rect x="1.2043333333333341" y="0.6046666666666671" width="0.29483333333333356" height="0.29483333333333356" fill="#252525" />
<rect x="1.5041666666666678" y="0.6046666666666671" width="0.29483333333333356" height="0.29483333333333356" fill="#252525" />
<rect x="1.8040000000000012" y="0.6046666666666671" width="0.29483333333333356" height="0.29483333333333356" fill="#FF4136" />
<rect x="2.103833333333335" y="0.6046666666666671" width="0.29483333333333356" height="0.29483333333333356" fill="#252525" />
<rect x="2.4036666666666684" y="0.6046666666666671" width="0.29483333333333356" height="0.29483333333333356" fill="#252525" />
<rect x="2.703500000000002" y="0.6046666666666671" width="0.29483333333333356" height="0.29483333333333356" fill="#252525" />
<rect x="3.0033333333333356" y="0.6046666666666671" width="0.29483333333333356" height="0.29483333333333356" fill="#252525" />
<rect x="3.303166666666669" y="0.6046666666666671" width="0.29483333333333356" height="0.29483333333333356" fill="#252525" />
<rect x="3.6030000000000024" y="0.6046666666666671" width="0.29483333333333356" height="0.29483333333333356" fill="#252525" />
<rect x="3.9028333333333363" y="0.6046666666666671" width="0.29483333333333356" height="0.29483333333333356" fill="#252525" />
<rect x="4.20266666666667" y="0.6046666666666671" width="0.29483333333333356" height="0.29483333333333356" fill="#252525" />
<rect x="0.005" y="0.9045000000000006" width="0.29483333333333356" height="0.29483333333333356" fill="#F012BE" />
<rect x="0.30483333333333357" y="0.9045000000000006" width="0.29483333333333356" height="0.29483333333333356" fill="#FF4136" />
<rect x="0.6046666666666671" y="0.9045000000000006" width="0.29483333333333356" height="0.29483333333333356" fill="#FF4136" />
<rect x="0.9045000000000006" y="0.9045000000000006" width="0.29483333333333356" height="0.29483333333333356" fill="#252525" />
<rect x="1.2043333333333341" y="0.9045000000000006" width="0.29483333333333356" height="0.29483333333333356" fill="#F012BE" />
<rect x="1.5041666666666678" y="0.9045000000000006" width="0.29483333333333356" height="0.29483333333333356" fill="#FF4136" />
<rect x="1.8040000000000012" y="0.9045000000000006" width="0.29483333333333356" height="0.29483333333333356" fill="#FF4136" />
<rect x="2.103833333333335" y="0.9045000000000006" width="0.29483333333333356" height="0.29483333333333356" fill="#252525" />
<rect x="2.4036666666666684" y="0.9045000000000006" width="0.29483333333333356" height="0.29483333333333356" fill="#F012BE" />
<rect x="2.703500000000002" y="0.9045000000000006" width="0.29483333333333356" height="0.29483333333333356" fill="#FF4136" />
<rect x="3.0033333333333356" y="0.9045000000000006" width="0.29483333333333356" height="0.29483333333333356" fill="#252525" />
<rect x="3.303166666666669" y="0.9045000000000006" width="0.29483333333333356" height="0.29483333333333356" fill="#252525" />
<rect x="3.6030000000000024" y="0.9045000000000006" width="0.29483333333333356" height="0.29483333333333356" fill="#252525" />
<rect x="3.9028333333333363" y="0.9045000000000006" width="0.29483333333333356" height="0.29483333333333356" fill="#252525" />
<rect x="4.20266666666667" y="0.9045000000000006" width="0.29483333333333356" height="0.29483333333333356" fill="#252525" />
<rect x="0.005" y="1.2043333333333341" width="0.29483333333333356" height="0.29483333333333356" fill="#F012BE" />
<rect x="0.30483333333333357" y="1.2043333333333341" width="0.29483333333333356" height="0.29483333333333356" fill="#F012BE" />
<rect x="0.6046666666666671" y="1.2043333333333341" width="0.29483333333333356" height="0.29483333333333356" fill="#FF4136" />
<rect x="0.9045000000000006" y="1.2043333333333341" width="0.29483333333333356" height="0.29483333333333356" fill="#37D449" />
<rect x="1.2043333333333341" y="1.2043333333333341" width="0.29483333333333356" height="0.29483333333333356" fill="#F012BE" />
<rect x="1.5041666666666678" y="1.2043333333333341" width="0.29483333333333356" height="0.29483333333333356" fill="#F012BE" />
<rect x="1.8040000000000012" y="1.2043333333333341" width="0.29483333333333356" height="0.29483333333333356" fill="#FF4136" />
<rect x="2.103833333333335" y="1.2043333333333341" width="0.29483333333333356" height="0.29483333333333356" fill="#37D449" />
<rect x="2.4036666666666684" y="1.2043333333333341" width="0.29483333333333356" height="0.29483333333333356" fill="#F012BE" />
<rect x="2.703500000000002" y="1.2043333333333341" width="0.29483333333333356" height="0.29483333333333356" fill="#F012BE" />
<rect x="3.0033333333333356" y="1.2043333333333341" width="0.29483333333333356" height="0.29483333333333356" fill="#252525" />
<rect x="3.303166666666669" y="1.2043333333333341" width="0.29483333333333356" height="0.29483333333333356" fill="#252525" />
<rect x="3.6030000000000024" y="1.2043333333333341" width="0.29483333333333356" height="0.29483333333333356" fill="#252525" />
<rect x="3.9028333333333363" y="1.2043333333333341" width="0.29483333333333356" height="0.29483333333333356" fill="#252525" />
<rect x="4.20266666666667" y="1.2043333333333341" width="0.29483333333333356" height="0.29483333333333356" fill="#252525" />
<rect x="-0.02666666666666667" y="-0.02666666666666667" width="4.550833333333337" height="1.552500000000001" fill="none" stroke="#111111ff" stroke-width="0.08" />
<text x="4.497500000000003" y="1.9679166666666679" font-size="0.375" fill="black" text-anchor="end" font-family="Anuphan">15x5</text>
<text x="-0.037500000000000006" y="1.9679166666666679" font-size="0.375" fill="black" text-anchor="start" font-family="Anuphan" font-weight="600">Test 1</text>
</g>
<g id="d4">
<rect x="0.005" y="0.005" width="0.29483333333333356" height="0.29483333333333356" fill="#252525" />
<rect x="0.30483333333333357" y="0.005" width="0.29483333333333356" height="0.29483333333333356" fill="#252525" />
<rect x="0.6046666666666671" y="0.005" width="0.29483333333333356" height="0.29483333333333356" fill="#252525" />
<rect x="0.9045000000000006" y="0.005" width="0.29483333333333356" height="0.29483333333333356" fill="#252525" />
<rect x="1.2043333333333341" y="0.005" width="0.29483333333333356" height="0.29483333333333356" fill="#252525" />
<rect x="1.5041666666666678" y="0.005" width="0.29483333333333356" height="0.29483333333333356" fill="#252525" />
<rect x="1.8040000000000012" y="0.005" width="0.29483333333333356" height="0.29483333333333356" fill="#252525" />
<rect x="2.103833333333335" y="0.005" width="0.29483333333333356" height="0.29483333333333356" fill="#252525" />
<rect x="2.4036666666666684" y="0.005" width="0.29483333333333356" height="0.29483333333333356" fill="#252525" />
<rect x="2.703500000000002" y="0.005" width="0.29483333333333356" height="0.29483333333333356" fill="#252525" />
<rect x="3.0033333333333356" y="0.005" width="0.29483333333333356" height="0.29483333333333356" fill="#252525" />
<rect x="3.303166666666669" y="0.005" width="0.29483333333333356" height="0.29483333333333356" fill="#252525" />
<rect x="3.6030000000000024" y="0.005" width="0.29483333333333356" height="0.29483333333333356" fill="#252525" />
<rect x="3.9028333333333363" y="0.005" width="0.29483333333333356" height="0.29483333333333356" fill="#252525" />
<rect x="4.20266666666667" y="0.005" width="0.29483333333333356" height="0.29483333333333356" fill="#252525" />
<rect x="0.005" y="0.30483333333333357" width="0.29483333333333356" height="0.29483333333333356" fill="#252525" />
<rect x="0.30483333333333357" y="0.30483333333333357" width="0.29483333333333356" height="0.29483333333333356" fill="#252525" />
<rect x="0.6046666666666671" y="0.30483333333333357" width="0.29483333333333356" height="0.29483333333333356" fill="#252525" />
<rect x="0.9045000000000006" y="0.30483333333333357" width="0.29483333333333356" height="0.29483333333333356" fill="#252525" />
<rect x="1.2043333333333341" y="0.30483333333333357" width="0.29483333333333356" height="0.29483333333333356" fill="#252525" />
<rect x="1.5041666666666678" y="0.30483333333333357" width="0.29483333333333356" height="0.29483333333333356" fill="#252525" />
<rect x="1.8040000000000012" y="0.30483333333333357" width="0.29483333333333356" height="0.29483333333333356" fill="#252525" />
<rect x="2.103833333333335" y="0.30483333333333357" width="0.29483333333333356" height="0.29483333333333356" fill="#252525" />
<rect x="2.4036666666666684" y="0.30483333333333357" width="0.29483333333333356" height="0.29483333333333356" fill="#252525" />
<rect x="2.703500000000002" y="0.30483333333333357" width="0.29483333333333356" height="0.29483333333333356" fill="#252525" />
<rect x="3.0033333333333356" y="0.30483333333333357" width="0.29483333333333356" height="0.29483333333333356" fill="#252525" />
<rect x="3.303166666666669" y="0.30483333333333357" width="0.29483333333333356" height="0.29483333333333356" fill="#252525" />
<rect x="3.6030000000000024" y="0.30483333333333357" width="0.29483333333333356" height="0.29483333333333356" fill="#252525" />
<rect x="3.9028333333333363" y="0.30483333333333357" width="0.29483333333333356" height="0.29483333333333356" fill="#252525" />
<rect x="4.20266666666667" y="0.30483333333333357" width="0.29483333333333356" height="0.29483333333333356" fill="#252525" />
<rect x="0.005" y="0.6046666666666671" width="0.29483333333333356" height="0.29483333333333356" fill="#252525" />
<rect x="0.30483333333333357" y="0.6046666666666671" width="0.29483333333333356" height="0.29483333333333356" fill="#252525" />
<rect x="0.6046666666666671" y="0.6046666666666671" width="0.29483333333333356" height="0.29483333333333356" fill="#252525" />
<rect x="0.9045000000000006" y="0.6046666666666671" width="0.29483333333333356" height="0.29483333333333356" fill="#252525" />
<rect x="1.2043333333333341" y="0.6046666666666671" width="0.29483333333333356" height="0.29483333333333356" fill="#252525" />
<rect x="1.5041666666666678" y="0.6046666666666671" width="0.29483333333333356" height="0.29483333333333356" fill="#252525" />
<rect x="1.8040000000000012" y="0.6046666666666671" width="0.29483333333333356" height="0.29483333333333356" fill="#252525" />
<rect x="2.103833333333335" y="0.6046666666666671" width="0.29483333333333356" height="0.29483333333333356" fill="#252525" />
<rect x="2.4036666666666684" y="0.6046666666666671" width="0.29483333333333356" height="0.29483333333333356" fill="#252525" />
<rect x="2.703500000000002" y="0.6046666666666671" width="0.29483333333333356" height="0.29483333333333356" fill="#252525" />
<rect x="3.0033333333333356" y="0.6046666666666671" width="0.29483333333333356" height="0.29483333333333356" fill="#252525" />
<rect x="3.303166666666669" y="0.6046666666666671" width="0.29483333333333356" height="0.29483333333333356" fill="#252525" />
<rect x="3.6030000000000024" y="0.6046666666666671" width="0.29483333333333356" height="0.29483333333333356" fill="#252525" />
<rect x="3.9028333333333363" y="0.6046666666666671" width="0.29483333333333356" height="0.29483333333333356" fill="#252525" />
<rect x="4.20266666666667" y="0.6046666666666671" width="0.29483333333333356" height="0.29483333333333356" fill="#252525" />
<rect x="0.005" y="0.9045000000000006" width="0.29483333333333356" height="0.29483333333333356" fill="#252525" />
<rect x="0.30483333333333357" y="0.9045000000000006" width="0.29483333333333356" height="0.29483333333333356" fill="#FF4136" />
<rect x="0.6046666666666671" y="0.9045000000000006" width="0.29483333333333356" height="0.29483333333333356" fill="#FF4136" />
<rect x="0.9045000000000006" y="0.9045000000000006" width="0.29483333333333356" height="0.29483333333333356" fill="#252525" />
<rect x="1.2043333333333341" y="0.9045000000000006" width="0.29483333333333356" height="0.29483333333333356" fill="#FF4136" />
<rect x="1.5041666666666678" y="0.9045000000000006" width="0.29483333333333356" height="0.29483333333333356" fill="#FF4136" />
<rect x="1.8040000000000012" y="0.9045000000000006" width="0.29483333333333356" height="0.29483333333333356" fill="#252525" />
<rect x="2.103833333333335" y="0.9045000000000006" width="0.29483333333333356" height="0.29483333333333356" fill="#FF4136" />
<rect x="2.4036666666666684" y="0.9045000000000006" width="0.29483333333333356" height="0.29483333333333356" fill="#FF4136" />
<rect x="2.703500000000002" y="0.9045000000000006" width="0.29483333333333356" height="0.29483333333333356" fill="#252525" />
<rect x="3.0033333333333356" y="0.9045000000000006" width="0.29483333333333356" height="0.29483333333333356" fill="#FF4136" />
<rect x="3.303166666666669" y="0.9045000000000006" width="0.29483333333333356" height="0.29483333333333356" fill="#FF4136" />
<rect x="3.6030000000000024" y="0.9045000000000006" width="0.29483333333333356" height="0.29483333333333356" fill="#252525" />
<rect x="3.9028333333333363" y="0.9045000000000006" width="0.29483333333333356" height="0.29483333333333356" fill="#FF4136" />
<rect x="4.20266666666667" y="0.9045000000000006" width="0.29483333333333356" height="0.29483333333333356" fill="#FF4136" />
<rect x="0.005" y="1.2043333333333341" width="0.29483333333333356" height="0.29483333333333356" fill="#0074D9" />
<rect x="0.30483333333333357" y="1.2043333333333341" width="0.29483333333333356" height="0.29483333333333356" fill="#FF4136" />
<rect x="0.6046666666666671" y="1.2043333333333341" width="0.29483333333333356" height="0.29483333333333356" fill="#FF4136" />
<rect x="0.9045000000000006" y="1.2043333333333341" width="0.29483333333333356" height="0.29483333333333356" fill="#0074D9" />
<rect x="1.2043333333333341" y="1.2043333333333341" width="0.29483333333333356" height="0.29483333333333356" fill="#FF4136" />
<rect x="1.5041666666666678" y="1.2043333333333341" width="0.29483333333333356" height="0.29483333333333356" fill="#FF4136" />
<rect x="1.8040000000000012" y="1.2043333333333341" width="0.29483333333333356" height="0.29483333333333356" fill="#0074D9" />
<rect x="2.103833333333335" y="1.2043333333333341" width="0.29483333333333356" height="0.29483333333333356" fill="#FF4136" />
<rect x="2.4036666666666684" y="1.2043333333333341" width="0.29483333333333356" height="0.29483333333333356" fill="#FF4136" />
<rect x="2.703500000000002" y="1.2043333333333341" width="0.29483333333333356" height="0.29483333333333356" fill="#0074D9" />
<rect x="3.0033333333333356" y="1.2043333333333341" width="0.29483333333333356" height="0.29483333333333356" fill="#FF4136" />
<rect x="3.303166666666669" y="1.2043333333333341" width="0.29483333333333356" height="0.29483333333333356" fill="#FF4136" />
<rect x="3.6030000000000024" y="1.2043333333333341" width="0.29483333333333356" height="0.29483333333333356" fill="#0074D9" />
<rect x="3.9028333333333363" y="1.2043333333333341" width="0.29483333333333356" height="0.29483333333333356" fill="#FF4136" />
<rect x="4.20266666666667" y="1.2043333333333341" width="0.29483333333333356" height="0.29483333333333356" fill="#FF4136" />
<rect x="-0.02666666666666667" y="-0.02666666666666667" width="4.550833333333337" height="1.552500000000001" fill="none" stroke="#111111ff" stroke-width="0.08" />
<text x="4.497500000000003" y="1.9679166666666679" font-size="0.375" fill="black" text-anchor="end" font-family="Anuphan">15x5</text>
<text x="-0.037500000000000006" y="1.9679166666666679" font-size="0.375" fill="black" text-anchor="start" font-family="Anuphan" font-weight="600">Output 1</text>
</g>
<g id="d5">
<rect x="0.005" y="0.005" width="0.29483333333333356" height="0.29483333333333356" fill="#252525" />
<rect x="0.30483333333333357" y="0.005" width="0.29483333333333356" height="0.29483333333333356" fill="#252525" />
<rect x="0.6046666666666671" y="0.005" width="0.29483333333333356" height="0.29483333333333356" fill="#252525" />
<rect x="0.9045000000000006" y="0.005" width="0.29483333333333356" height="0.29483333333333356" fill="#252525" />
<rect x="1.2043333333333341" y="0.005" width="0.29483333333333356" height="0.29483333333333356" fill="#252525" />
<rect x="1.5041666666666678" y="0.005" width="0.29483333333333356" height="0.29483333333333356" fill="#252525" />
<rect x="1.8040000000000012" y="0.005" width="0.29483333333333356" height="0.29483333333333356" fill="#252525" />
<rect x="2.103833333333335" y="0.005" width="0.29483333333333356" height="0.29483333333333356" fill="#252525" />
<rect x="2.4036666666666684" y="0.005" width="0.29483333333333356" height="0.29483333333333356" fill="#252525" />
<rect x="2.703500000000002" y="0.005" width="0.29483333333333356" height="0.29483333333333356" fill="#252525" />
<rect x="3.0033333333333356" y="0.005" width="0.29483333333333356" height="0.29483333333333356" fill="#252525" />
<rect x="3.303166666666669" y="0.005" width="0.29483333333333356" height="0.29483333333333356" fill="#252525" />
<rect x="3.6030000000000024" y="0.005" width="0.29483333333333356" height="0.29483333333333356" fill="#252525" />
<rect x="3.9028333333333363" y="0.005" width="0.29483333333333356" height="0.29483333333333356" fill="#252525" />
<rect x="4.20266666666667" y="0.005" width="0.29483333333333356" height="0.29483333333333356" fill="#252525" />
<rect x="0.005" y="0.30483333333333357" width="0.29483333333333356" height="0.29483333333333356" fill="#252525" />
<rect x="0.30483333333333357" y="0.30483333333333357" width="0.29483333333333356" height="0.29483333333333356" fill="#252525" />
<rect x="0.6046666666666671" y="0.30483333333333357" width="0.29483333333333356" height="0.29483333333333356" fill="#252525" />
<rect x="0.9045000000000006" y="0.30483333333333357" width="0.29483333333333356" height="0.29483333333333356" fill="#252525" />
<rect x="1.2043333333333341" y="0.30483333333333357" width="0.29483333333333356" height="0.29483333333333356" fill="#252525" />
<rect x="1.5041666666666678" y="0.30483333333333357" width="0.29483333333333356" height="0.29483333333333356" fill="#252525" />
<rect x="1.8040000000000012" y="0.30483333333333357" width="0.29483333333333356" height="0.29483333333333356" fill="#252525" />
<rect x="2.103833333333335" y="0.30483333333333357" width="0.29483333333333356" height="0.29483333333333356" fill="#252525" />
<rect x="2.4036666666666684" y="0.30483333333333357" width="0.29483333333333356" height="0.29483333333333356" fill="#252525" />
<rect x="2.703500000000002" y="0.30483333333333357" width="0.29483333333333356" height="0.29483333333333356" fill="#252525" />
<rect x="3.0033333333333356" y="0.30483333333333357" width="0.29483333333333356" height="0.29483333333333356" fill="#252525" />
<rect x="3.303166666666669" y="0.30483333333333357" width="0.29483333333333356" height="0.29483333333333356" fill="#252525" />
<rect x="3.6030000000000024" y="0.30483333333333357" width="0.29483333333333356" height="0.29483333333333356" fill="#252525" />
<rect x="3.9028333333333363" y="0.30483333333333357" width="0.29483333333333356" height="0.29483333333333356" fill="#252525" />
<rect x="4.20266666666667" y="0.30483333333333357" width="0.29483333333333356" height="0.29483333333333356" fill="#252525" />
<rect x="0.005" y="0.6046666666666671" width="0.29483333333333356" height="0.29483333333333356" fill="#252525" />
<rect x="0.30483333333333357" y="0.6046666666666671" width="0.29483333333333356" height="0.29483333333333356" fill="#252525" />
<rect x="0.6046666666666671" y="0.6046666666666671" width="0.29483333333333356" height="0.29483333333333356" fill="#FF4136" />
<rect x="0.9045000000000006" y="0.6046666666666671" width="0.29483333333333356" height="0.29483333333333356" fill="#252525" />
<rect x="1.2043333333333341" y="0.6046666666666671" width="0.29483333333333356" height="0.29483333333333356" fill="#252525" />
<rect x="1.5041666666666678" y="0.6046666666666671" width="0.29483333333333356" height="0.29483333333333356" fill="#252525" />
<rect x="1.8040000000000012" y="0.6046666666666671" width="0.29483333333333356" height="0.29483333333333356" fill="#FF4136" />
<rect x="2.103833333333335" y="0.6046666666666671" width="0.29483333333333356" height="0.29483333333333356" fill="#252525" />
<rect x="2.4036666666666684" y="0.6046666666666671" width="0.29483333333333356" height="0.29483333333333356" fill="#252525" />
<rect x="2.703500000000002" y="0.6046666666666671" width="0.29483333333333356" height="0.29483333333333356" fill="#252525" />
<rect x="3.0033333333333356" y="0.6046666666666671" width="0.29483333333333356" height="0.29483333333333356" fill="#FF4136" />
<rect x="3.303166666666669" y="0.6046666666666671" width="0.29483333333333356" height="0.29483333333333356" fill="#252525" />
<rect x="3.6030000000000024" y="0.6046666666666671" width="0.29483333333333356" height="0.29483333333333356" fill="#252525" />
<rect x="3.9028333333333363" y="0.6046666666666671" width="0.29483333333333356" height="0.29483333333333356" fill="#252525" />
<rect x="4.20266666666667" y="0.6046666666666671" width="0.29483333333333356" height="0.29483333333333356" fill="#FF4136" />
<rect x="0.005" y="0.9045000000000006" width="0.29483333333333356" height="0.29483333333333356" fill="#252525" />
<rect x="0.30483333333333357" y="0.9045000000000006" width="0.29483333333333356" height="0.29483333333333356" fill="#252525" />
<rect x="0.6046666666666671" y="0.9045000000000006" width="0.29483333333333356" height="0.29483333333333356" fill="#FF4136" />
<rect x="0.9045000000000006" y="0.9045000000000006" width="0.29483333333333356" height="0.29483333333333356" fill="#252525" />
<rect x="1.2043333333333341" y="0.9045000000000006" width="0.29483333333333356" height="0.29483333333333356" fill="#252525" />
<rect x="1.5041666666666678" y="0.9045000000000006" width="0.29483333333333356" height="0.29483333333333356" fill="#252525" />
<rect x="1.8040000000000012" y="0.9045000000000006" width="0.29483333333333356" height="0.29483333333333356" fill="#FF4136" />
<rect x="2.103833333333335" y="0.9045000000000006" width="0.29483333333333356" height="0.29483333333333356" fill="#252525" />
<rect x="2.4036666666666684" y="0.9045000000000006" width="0.29483333333333356" height="0.29483333333333356" fill="#252525" />
<rect x="2.703500000000002" y="0.9045000000000006" width="0.29483333333333356" height="0.29483333333333356" fill="#252525" />
<rect x="3.0033333333333356" y="0.9045000000000006" width="0.29483333333333356" height="0.29483333333333356" fill="#FF4136" />
<rect x="3.303166666666669" y="0.9045000000000006" width="0.29483333333333356" height="0.29483333333333356" fill="#252525" />
<rect x="3.6030000000000024" y="0.9045000000000006" width="0.29483333333333356" height="0.29483333333333356" fill="#252525" />
<rect x="3.9028333333333363" y="0.9045000000000006" width="0.29483333333333356" height="0.29483333333333356" fill="#252525" />
<rect x="4.20266666666667" y="0.9045000000000006" width="0.29483333333333356" height="0.29483333333333356" fill="#FF4136" />
<rect x="0.005" y="1.2043333333333341" width="0.29483333333333356" height="0.29483333333333356" fill="#37D449" />
<rect x="0.30483333333333357" y="1.2043333333333341" width="0.29483333333333356" height="0.29483333333333356" fill="#37D449" />
<rect x="0.6046666666666671" y="1.2043333333333341" width="0.29483333333333356" height="0.29483333333333356" fill="#FF4136" />
<rect x="0.9045000000000006" y="1.2043333333333341" width="0.29483333333333356" height="0.29483333333333356" fill="#0074D9" />
<rect x="1.2043333333333341" y="1.2043333333333341" width="0.29483333333333356" height="0.29483333333333356" fill="#37D449" />
<rect x="1.5041666666666678" y="1.2043333333333341" width="0.29483333333333356" height="0.29483333333333356" fill="#37D449" />
<rect x="1.8040000000000012" y="1.2043333333333341" width="0.29483333333333356" height="0.29483333333333356" fill="#FF4136" />
<rect x="2.103833333333335" y="1.2043333333333341" width="0.29483333333333356" height="0.29483333333333356" fill="#0074D9" />
<rect x="2.4036666666666684" y="1.2043333333333341" width="0.29483333333333356" height="0.29483333333333356" fill="#37D449" />
<rect x="2.703500000000002" y="1.2043333333333341" width="0.29483333333333356" height="0.29483333333333356" fill="#37D449" />
<rect x="3.0033333333333356" y="1.2043333333333341" width="0.29483333333333356" height="0.29483333333333356" fill="#FF4136" />
<rect x="3.303166666666669" y="1.2043333333333341" width="0.29483333333333356" height="0.29483333333333356" fill="#0074D9" />
<rect x="3.6030000000000024" y="1.2043333333333341" width="0.29483333333333356" height="0.29483333333333356" fill="#37D449" />
<rect x="3.9028333333333363" y="1.2043333333333341" width="0.29483333333333356" height="0.29483333333333356" fill="#37D449" />
<rect x="4.20266666666667" y="1.2043333333333341" width="0.29483333333333356" height="0.29483333333333356" fill="#FF4136" />
<rect x="-0.02666666666666667" y="-0.02666666666666667" width="4.550833333333337" height="1.552500000000001" fill="none" stroke="#111111ff" stroke-width="0.08" />
<text x="4.497500000000003" y="1.9679166666666679" font-size="0.375" fill="black" text-anchor="end" font-family="Anuphan">15x5</text>
<text x="-0.037500000000000006" y="1.9679166666666679" font-size="0.375" fill="black" text-anchor="start" font-family="Anuphan" font-weight="600">Output 2</text>
</g>
<g id="d6">
<rect x="0.005" y="0.005" width="0.29483333333333356" height="0.29483333333333356" fill="#252525" />
<rect x="0.30483333333333357" y="0.005" width="0.29483333333333356" height="0.29483333333333356" fill="#252525" />
<rect x="0.6046666666666671" y="0.005" width="0.29483333333333356" height="0.29483333333333356" fill="#252525" />
<rect x="0.9045000000000006" y="0.005" width="0.29483333333333356" height="0.29483333333333356" fill="#252525" />
<rect x="1.2043333333333341" y="0.005" width="0.29483333333333356" height="0.29483333333333356" fill="#252525" />
<rect x="1.5041666666666678" y="0.005" width="0.29483333333333356" height="0.29483333333333356" fill="#252525" />
<rect x="1.8040000000000012" y="0.005" width="0.29483333333333356" height="0.29483333333333356" fill="#252525" />
<rect x="2.103833333333335" y="0.005" width="0.29483333333333356" height="0.29483333333333356" fill="#252525" />
<rect x="2.4036666666666684" y="0.005" width="0.29483333333333356" height="0.29483333333333356" fill="#252525" />
<rect x="2.703500000000002" y="0.005" width="0.29483333333333356" height="0.29483333333333356" fill="#252525" />
<rect x="3.0033333333333356" y="0.005" width="0.29483333333333356" height="0.29483333333333356" fill="#252525" />
<rect x="3.303166666666669" y="0.005" width="0.29483333333333356" height="0.29483333333333356" fill="#252525" />
<rect x="3.6030000000000024" y="0.005" width="0.29483333333333356" height="0.29483333333333356" fill="#252525" />
<rect x="3.9028333333333363" y="0.005" width="0.29483333333333356" height="0.29483333333333356" fill="#252525" />
<rect x="4.20266666666667" y="0.005" width="0.29483333333333356" height="0.29483333333333356" fill="#252525" />
<rect x="0.005" y="0.30483333333333357" width="0.29483333333333356" height="0.29483333333333356" fill="#252525" />
<rect x="0.30483333333333357" y="0.30483333333333357" width="0.29483333333333356" height="0.29483333333333356" fill="#252525" />
<rect x="0.6046666666666671" y="0.30483333333333357" width="0.29483333333333356" height="0.29483333333333356" fill="#252525" />
<rect x="0.9045000000000006" y="0.30483333333333357" width="0.29483333333333356" height="0.29483333333333356" fill="#252525" />
<rect x="1.2043333333333341" y="0.30483333333333357" width="0.29483333333333356" height="0.29483333333333356" fill="#252525" />
<rect x="1.5041666666666678" y="0.30483333333333357" width="0.29483333333333356" height="0.29483333333333356" fill="#252525" />
<rect x="1.8040000000000012" y="0.30483333333333357" width="0.29483333333333356" height="0.29483333333333356" fill="#252525" />
<rect x="2.103833333333335" y="0.30483333333333357" width="0.29483333333333356" height="0.29483333333333356" fill="#252525" />
<rect x="2.4036666666666684" y="0.30483333333333357" width="0.29483333333333356" height="0.29483333333333356" fill="#252525" />
<rect x="2.703500000000002" y="0.30483333333333357" width="0.29483333333333356" height="0.29483333333333356" fill="#252525" />
<rect x="3.0033333333333356" y="0.30483333333333357" width="0.29483333333333356" height="0.29483333333333356" fill="#252525" />
<rect x="3.303166666666669" y="0.30483333333333357" width="0.29483333333333356" height="0.29483333333333356" fill="#252525" />
<rect x="3.6030000000000024" y="0.30483333333333357" width="0.29483333333333356" height="0.29483333333333356" fill="#252525" />
<rect x="3.9028333333333363" y="0.30483333333333357" width="0.29483333333333356" height="0.29483333333333356" fill="#252525" />
<rect x="4.20266666666667" y="0.30483333333333357" width="0.29483333333333356" height="0.29483333333333356" fill="#252525" />
<rect x="0.005" y="0.6046666666666671" width="0.29483333333333356" height="0.29483333333333356" fill="#FFDC00" />
<rect x="0.30483333333333357" y="0.6046666666666671" width="0.29483333333333356" height="0.29483333333333356" fill="#252525" />
<rect x="0.6046666666666671" y="0.6046666666666671" width="0.29483333333333356" height="0.29483333333333356" fill="#252525" />
<rect x="0.9045000000000006" y="0.6046666666666671" width="0.29483333333333356" height="0.29483333333333356" fill="#252525" />
<rect x="1.2043333333333341" y="0.6046666666666671" width="0.29483333333333356" height="0.29483333333333356" fill="#252525" />
<rect x="1.5041666666666678" y="0.6046666666666671" width="0.29483333333333356" height="0.29483333333333356" fill="#FFDC00" />
<rect x="1.8040000000000012" y="0.6046666666666671" width="0.29483333333333356" height="0.29483333333333356" fill="#FFDC00" />
<rect x="2.103833333333335" y="0.6046666666666671" width="0.29483333333333356" height="0.29483333333333356" fill="#252525" />
<rect x="2.4036666666666684" y="0.6046666666666671" width="0.29483333333333356" height="0.29483333333333356" fill="#252525" />
<rect x="2.703500000000002" y="0.6046666666666671" width="0.29483333333333356" height="0.29483333333333356" fill="#252525" />
<rect x="3.0033333333333356" y="0.6046666666666671" width="0.29483333333333356" height="0.29483333333333356" fill="#252525" />
<rect x="3.303166666666669" y="0.6046666666666671" width="0.29483333333333356" height="0.29483333333333356" fill="#FFDC00" />
<rect x="3.6030000000000024" y="0.6046666666666671" width="0.29483333333333356" height="0.29483333333333356" fill="#FFDC00" />
<rect x="3.9028333333333363" y="0.6046666666666671" width="0.29483333333333356" height="0.29483333333333356" fill="#252525" />
<rect x="4.20266666666667" y="0.6046666666666671" width="0.29483333333333356" height="0.29483333333333356" fill="#252525" />
<rect x="0.005" y="0.9045000000000006" width="0.29483333333333356" height="0.29483333333333356" fill="#FFDC00" />
<rect x="0.30483333333333357" y="0.9045000000000006" width="0.29483333333333356" height="0.29483333333333356" fill="#37D449" />
<rect x="0.6046666666666671" y="0.9045000000000006" width="0.29483333333333356" height="0.29483333333333356" fill="#252525" />
<rect x="0.9045000000000006" y="0.9045000000000006" width="0.29483333333333356" height="0.29483333333333356" fill="#252525" />
<rect x="1.2043333333333341" y="0.9045000000000006" width="0.29483333333333356" height="0.29483333333333356" fill="#37D449" />
<rect x="1.5041666666666678" y="0.9045000000000006" width="0.29483333333333356" height="0.29483333333333356" fill="#FFDC00" />
<rect x="1.8040000000000012" y="0.9045000000000006" width="0.29483333333333356" height="0.29483333333333356" fill="#FFDC00" />
<rect x="2.103833333333335" y="0.9045000000000006" width="0.29483333333333356" height="0.29483333333333356" fill="#37D449" />
<rect x="2.4036666666666684" y="0.9045000000000006" width="0.29483333333333356" height="0.29483333333333356" fill="#252525" />
<rect x="2.703500000000002" y="0.9045000000000006" width="0.29483333333333356" height="0.29483333333333356" fill="#252525" />
<rect x="3.0033333333333356" y="0.9045000000000006" width="0.29483333333333356" height="0.29483333333333356" fill="#37D449" />
<rect x="3.303166666666669" y="0.9045000000000006" width="0.29483333333333356" height="0.29483333333333356" fill="#FFDC00" />
<rect x="3.6030000000000024" y="0.9045000000000006" width="0.29483333333333356" height="0.29483333333333356" fill="#FFDC00" />
<rect x="3.9028333333333363" y="0.9045000000000006" width="0.29483333333333356" height="0.29483333333333356" fill="#37D449" />
<rect x="4.20266666666667" y="0.9045000000000006" width="0.29483333333333356" height="0.29483333333333356" fill="#252525" />
<rect x="0.005" y="1.2043333333333341" width="0.29483333333333356" height="0.29483333333333356" fill="#FFDC00" />
<rect x="0.30483333333333357" y="1.2043333333333341" width="0.29483333333333356" height="0.29483333333333356" fill="#37D449" />
<rect x="0.6046666666666671" y="1.2043333333333341" width="0.29483333333333356" height="0.29483333333333356" fill="#FF4136" />
<rect x="0.9045000000000006" y="1.2043333333333341" width="0.29483333333333356" height="0.29483333333333356" fill="#FF4136" />
<rect x="1.2043333333333341" y="1.2043333333333341" width="0.29483333333333356" height="0.29483333333333356" fill="#37D449" />
<rect x="1.5041666666666678" y="1.2043333333333341" width="0.29483333333333356" height="0.29483333333333356" fill="#FFDC00" />
<rect x="1.8040000000000012" y="1.2043333333333341" width="0.29483333333333356" height="0.29483333333333356" fill="#FFDC00" />
<rect x="2.103833333333335" y="1.2043333333333341" width="0.29483333333333356" height="0.29483333333333356" fill="#37D449" />
<rect x="2.4036666666666684" y="1.2043333333333341" width="0.29483333333333356" height="0.29483333333333356" fill="#FF4136" />
<rect x="2.703500000000002" y="1.2043333333333341" width="0.29483333333333356" height="0.29483333333333356" fill="#FF4136" />
<rect x="3.0033333333333356" y="1.2043333333333341" width="0.29483333333333356" height="0.29483333333333356" fill="#37D449" />
<rect x="3.303166666666669" y="1.2043333333333341" width="0.29483333333333356" height="0.29483333333333356" fill="#FFDC00" />
<rect x="3.6030000000000024" y="1.2043333333333341" width="0.29483333333333356" height="0.29483333333333356" fill="#FFDC00" />
<rect x="3.9028333333333363" y="1.2043333333333341" width="0.29483333333333356" height="0.29483333333333356" fill="#37D449" />
<rect x="4.20266666666667" y="1.2043333333333341" width="0.29483333333333356" height="0.29483333333333356" fill="#FF4136" />
<rect x="-0.02666666666666667" y="-0.02666666666666667" width="4.550833333333337" height="1.552500000000001" fill="none" stroke="#111111ff" stroke-width="0.08" />
<text x="4.497500000000003" y="1.9679166666666679" font-size="0.375" fill="black" text-anchor="end" font-family="Anuphan">15x5</text>
<text x="-0.037500000000000006" y="1.9679166666666679" font-size="0.375" fill="black" text-anchor="start" font-family="Anuphan" font-weight="600">Output 3</text>
</g>
</defs>
<rect x="0" y="0" width="100%" height="100%" fill="#eeeff6" />
<use xlink:href="#d0" x="0.25" y="0.25" />
<use xlink:href="#d1" x="5.247500000000003" y="0.25" />
<use xlink:href="#d2" x="10.245000000000006" y="0.25" />
<use xlink:href="#d3" x="15.24250000000001" y="0.25" />
<path d="M2.4987500000000016,2.399166666666668 L2.4987500000000016,2.7991666666666677" stroke-width="0.05" stroke="#888888" />
<path d="M2.3487500000000017,2.599166666666668 L2.4987500000000016,2.7991666666666677" stroke-width="0.05" stroke="#888888" />
<path d="M2.6487500000000015,2.599166666666668 L2.4987500000000016,2.7991666666666677" stroke-width="0.05" stroke="#888888" />
<use xlink:href="#d4" x="0.25" y="3.149166666666668" />
<path d="M7.496250000000005,2.399166666666668 L7.496250000000005,2.7991666666666677" stroke-width="0.05" stroke="#888888" />
<path d="M7.346250000000005,2.599166666666668 L7.496250000000005,2.7991666666666677" stroke-width="0.05" stroke="#888888" />
<path d="M7.6462500000000055,2.599166666666668 L7.496250000000005,2.7991666666666677" stroke-width="0.05" stroke="#888888" />
<use xlink:href="#d5" x="5.247500000000003" y="3.149166666666668" />
<path d="M12.493750000000007,2.399166666666668 L12.493750000000007,2.7991666666666677" stroke-width="0.05" stroke="#888888" />
<path d="M12.343750000000007,2.599166666666668 L12.493750000000007,2.7991666666666677" stroke-width="0.05" stroke="#888888" />
<path d="M12.643750000000008,2.599166666666668 L12.493750000000007,2.7991666666666677" stroke-width="0.05" stroke="#888888" />
<use xlink:href="#d6" x="10.245000000000006" y="3.149166666666668" />
<path d="M17.49125000000001,2.399166666666668 L17.49125000000001,2.7991666666666677" stroke-width="0.05" stroke="#888888" />
<path d="M17.341250000000013,2.599166666666668 L17.49125000000001,2.7991666666666677" stroke-width="0.05" stroke="#888888" />
<path d="M17.64125000000001,2.599166666666668 L17.49125000000001,2.7991666666666677" stroke-width="0.05" stroke="#888888" />
<text x="17.49125000000001" y="3.998750000000002" font-size="1" font-family="Anuphan" font-weight="700" fill="#333333" text-anchor="middle" alignment-baseline="middle">?</text>
<text x="19.9" y="5.5" font-size="0.3" font-family="Anuphan" font-weight="600" fill="#666666" text-anchor="end" alignment-baseline="bottom">Task d8c310e9</text>
</svg>