<?xml version="1.0" encoding="UTF-8"?>
<svg xmlns="http://www.w3.org/2000/svg" xmlns:xlink="http://www.w3.org/1999/xlink"
     width="656.0" height="536.0" viewBox="0 0 16.4 13.399999999999999">
<defs>
<g id="d0">
<rect x="0.005" y="0.005" width="1.7987499999999672" height="1.7987499999999672" fill="#252525" />
<rect x="1.808749999999967" y="0.005" width="1.7987499999999672" height="1.7987499999999672" fill="#54D2EB" />
<rect x="0.005" y="1.808749999999967" width="1.7987499999999672" height="1.7987499999999672" fill="#252525" />
<rect x="1.808749999999967" y="1.808749999999967" width="1.7987499999999672" height="1.7987499999999672" fill="#252525" />
<rect x="0.005" y="3.612499999999934" width="1.7987499999999672" height="1.7987499999999672" fill="#252525" />
<rect x="1.808749999999967" y="3.612499999999934" width="1.7987499999999672" height="1.7987499999999672" fill="#54D2EB" />
<rect x="-0.02666666666666667" y="-0.02666666666666667" width="3.6608333333332674" height="5.464583333333235" fill="none" stroke="#111111ff" stroke-width="0.08" />
<text x="3.607499999999934" y="5.879999999999901" font-size="0.375" fill="black" text-anchor="end" font-family="Anuphan">2x3</text>
<text x="-0.037500000000000006" y="5.879999999999901" font-size="0.375" fill="black" text-anchor="start" font-family="Anuphan" font-weight="600">Input 1</text>
</g>
<g id="d1">
<rect x="0.005" y="0.005" width="1.7987499999999672" height="1.7987499999999672" fill="#FF4136" />
<rect x="1.808749999999967" y="0.005" width="1.7987499999999672" height="1.7987499999999672" fill="#252525" />
<rect x="0.005" y="1.808749999999967" width="1.7987499999999672" height="1.7987499999999672" fill="#FF4136" />
<rect x="1.808749999999967" y="1.808749999999967" width="1.7987499999999672" height="1.7987499999999672" fill="#FF4136" />
<rect x="0.005" y="3.612499999999934" width="1.7987499999999672" height="1.7987499999999672" fill="#FF4136" />
<rect x="1.808749999999967" y="3.612499999999934" width="1.7987499999999672" height="1.7987499999999672" fill="#252525" />
<rect x="-0.02666666666666667" y="-0.02666666666666667" width="3.6608333333332674" height="5.464583333333235" fill="none" stroke="#111111ff" stroke-width="0.08" />
<text x="3.607499999999934" y="5.879999999999901" font-size="0.375" fill="black" text-anchor="end" font-family="Anuphan">2x3</text>
<text x="-0.037500000000000006" y="5.879999999999901" font-size="0.375" fill="black" text-anchor="start" font-family="Anuphan" font-weight="600">Input 2</text>
</g>
<g id="d2">
<rect x="0.005" y="0.005" width="1.7987499999999672" height="1.7987499999999672" fill="#252525" />
<rect x="1.808749999999967" y="0.005" width="1.7987499999999672" height="1.7987499999999672" fill="#252525" />
<rect x="0.005" y="1.808749999999967" width="1.7987499999999672" height="1.7987499999999672" fill="#252525" />
<rect x="1.808749999999967" y="1.808749999999967" width="1.7987499999999672" height="1.7987499999999672" fill="#E6E6E6" />
<rect x="0.005" y="3.612499999999934" width="1.7987499999999672" height="1.7987499999999672" fill="#E6E6E6" />
<rect x="1.808749999999967" y="3.612499999999934" width="1.7987499999999672" height="1.7987499999999672" fill="#252525" />
<rect x="-0.02666666666666667" y="-0.02666666666666667" width="3.6608333333332674" height="5.464583333333235" fill="none" stroke="#111111ff" stroke-width="0.08" />
<text x="3.607499999999934" y="5.879999999999901" font-size="0.375" fill="black" text-anchor="end" font-family="Anuphan">2x3</text>
<text x="-0.037500000000000006" y="5.879999999999901" font-size="0.375" fill="black" text-anchor="start" font-family="Anuphan" font-weight="600">Input 3</text>
</g>
<g id="d3">
<rect x="0.005" y="0.005" width="1.7987499999999672" height="1.7987499999999672" fill="#37D449" />
<rect x="1.808749999999967" y="0.005" width="1.7987499999999672" height="1.7987499999999672" fill="#37D449" />
<rect x="0.005" y="1.808749999999967" width="1.7987499999999672" height="1.7987499999999672" fill="#37D449" />
<rect x="1.808749999999967" y="1.808749999999967" width="1.7987499999999672" height="1.7987499999999672" fill="#252525" />
<rect x="0.005" y="3.612499999999934" width="1.7987499999999672" height="1.7987499999999672" fill="#37D449" />
<rect x="1.808749999999967" y="3.612499999999934" width="1.7987499999999672" height="1.7987499999999672" fill="#37D449" />
<rect x="-0.02666666666666667" y="-0.02666666666666667" width="3.6608333333332674" height="5.464583333333235" fill="none" stroke="#111111ff" stroke-width="0.08" />
<text x="3.607499999999934" y="5.879999999999901" font-size="0.375" fill="black" text-anchor="end" font-family="Anuphan">2x3</text>
<text x="-0.037500000000000006" y="5.879999999999901" font-size="0.375" fill="black" text-anchor="start" font-family="Anuphan" font-weight="600">Test 1</text>
</g>
<g id="d4">
<rect x="0.005" y="0.005" width="0.5977777777777777" height="0.5977777777777777" fill="#54D2EB" />
<rect x="0.6077777777777778" y="0.005" width="0.5977777777777777" height="0.5977777777777777" fill="#252525" />
<rect x="1.2105555555555554" y="0.005" width="0.5977777777777777" height="0.5977777777777777" fill="#252525" />
<rect x="1.813333333333333" y="0.005" width="0.5977777777777777" height="0.5977777777777777" fill="#54D2EB" />
<rect x="0.005" y="0.6077777777777778" width="0.5977777777777777" height="0.5977777777777777" fill="#252525" />
<rect x="0.6077777777777778" y="0.6077777777777778" width="0.5977777777777777" height="0.5977777777777777" fill="#252525" />
<rect x="1.2105555555555554" y="0.6077777777777778" width="0.5977777777777777" height="0.5977777777777777" fill="#252525" />
<rect x="1.813333333333333" y="0.6077777777777778" width="0.5977777777777777" height="0.5977777777777777" fill="#252525" />
<rect x="0.005" y="1.2105555555555554" width="0.5977777777777777" height="0.5977777777777777" fill="#54D2EB" />
<rect x="0.6077777777777778" y="1.2105555555555554" width="0.5977777777777777" height="0.5977777777777777" fill="#252525" />
<rect x="1.2105555555555554" y="1.2105555555555554" width="0.5977777777777777" height="0.5977777777777777" fill="#252525" />
<rect x="1.813333333333333" y="1.2105555555555554" width="0.5977777777777777" height="0.5977777777777777" fill="#54D2EB" />
<rect x="0.005" y="1.813333333333333" width="0.5977777777777777" height="0.5977777777777777" fill="#54D2EB" />
<rect x="0.6077777777777778" y="1.813333333333333" width="0.5977777777777777" height="0.5977777777777777" fill="#252525" />
<rect x="1.2105555555555554" y="1.813333333333333" width="0.5977777777777777" height="0.5977777777777777" fill="#252525" />
<rect x="1.813333333333333" y="1.813333333333333" width="0.5977777777777777" height="0.5977777777777777" fill="#54D2EB" />
<rect x="0.005" y="2.416111111111111" width="0.5977777777777777" height="0.5977777777777777" fill="#252525" />
<rect x="0.6077777777777778" y="2.416111111111111" width="0.5977777777777777" height="0.5977777777777777" fill="#252525" />
<rect x="1.2105555555555554" y="2.416111111111111" width="0.5977777777777777" height="0.5977777777777777" fill="#252525" />
<rect x="1.813333333333333" y="2.416111111111111" width="0.5977777777777777" height="0.5977777777777777" fill="#252525" />
<rect x="0.005" y="3.0188888888888887" width="0.5977777777777777" height="0.5977777777777777" fill="#54D2EB" />
<rect x="0.6077777777777778" y="3.0188888888888887" width="0.5977777777777777" height="0.5977777777777777" fill="#252525" />
<rect x="1.2105555555555554" y="3.0188888888888887" width="0.5977777777777777" height="0.5977777777777777" fill="#252525" />
<rect x="1.813333333333333" y="3.0188888888888887" width="0.5977777777777777" height="0.5977777777777777" fill="#54D2EB" />
<rect x="0.005" y="3.621666666666666" width="0.5977777777777777" height="0.5977777777777777" fill="#54D2EB" />
<rect x="0.6077777777777778" y="3.621666666666666" width="0.5977777777777777" height="0.5977777777777777" fill="#252525" />
<rect x="1.2105555555555554" y="3.621666666666666" width="0.5977777777777777" height="0.5977777777777777" fill="#252525" />
<rect x="1.813333333333333" y="3.621666666666666" width="0.5977777777777777" height="0.5977777777777777" fill="#54D2EB" />
<rect x="0.005" y="4.224444444444444" width="0.5977777777777777" height="0.5977777777777777" fill="#252525" />
<rect x="0.6077777777777778" y="4.224444444444444" width="0.5977777777777777" height="0.5977777777777777" fill="#252525" />
<rect x="1.2105555555555554" y="4.224444444444444" width="0.5977777777777777" height="0.5977777777777777" fill="#252525" />
<rect x="1.813333333333333" y="4.224444444444444" width="0.5977777777777777" height="0.5977777777777777" fill="#252525" />
<rect x="0.005" y="4.827222222222222" width="0.5977777777777777" height="0.5977777777777777" fill="#54D2EB" />
<rect x="0.6077777777777778" y="4.827222222222222" width="0.5977777777777777" height="0.5977777777777777" fill="#252525" />
<rect x="1.2105555555555554" y="4.827222222222222" width="0.5977777777777777" height="0.5977777777777777" fill="#252525" />
<rect x="1.813333333333333" y="4.827222222222222" width="0.5977777777777777" height="0.5977777777777777" fill="#54D2EB" />
<rect x="-0.02666666666666667" y="-0.02666666666666667" width="2.464444444444444" height="5.4783333333333335" fill="none" stroke="#111111ff" stroke-width="0.08" />
<text x="2.411111111111111" y="5.89375" font-size="0.375" fill="black" text-anchor="end" font-family="Anuphan">4x9</text>
<text x="-0.037500000000000006" y="5.89375" font-size="0.375" fill="black" text-anchor="start" font-family="Anuphan" font-weight="600">Output 1</text>
</g>
<g id="d5">
<rect x="0.005" y="0.005" width="0.5977777777777777" height="0.5977777777777777" fill="#252525" />
<rect x="0.6077777777777778" y="0.005" width="0.5977777777777777" height="0.5977777777777777" fill="#FF4136" />
<rect x="1.2105555555555554" y="0.005" width="0.5977777777777777" height="0.5977777777777777" fill="#FF4136" />
<rect x="1.813333333333333" y="0.005" width="0.5977777777777777" height="0.5977777777777777" fill="#252525" />
<rect x="0.005" y="0.6077777777777778" width="0.5977777777777777" height="0.5977777777777777" fill="#FF4136" />
<rect x="0.6077777777777778" y="0.6077777777777778" width="0.5977777777777777" height="0.5977777777777777" fill="#FF4136" />
<rect x="1.2105555555555554" y="0.6077777777777778" width="0.5977777777777777" height="0.5977777777777777" fill="#FF4136" />
<rect x="1.813333333333333" y="0.6077777777777778" width="0.5977777777777777" height="0.5977777777777777" fill="#FF4136" />
<rect x="0.005" y="1.2105555555555554" width="0.5977777777777777" height="0.5977777777777777" fill="#252525" />
<rect x="0.6077777777777778" y="1.2105555555555554" width="0.5977777777777777" height="0.5977777777777777" fill="#FF4136" />
<rect x="1.2105555555555554" y="1.2105555555555554" width="0.5977777777777777" height="0.5977777777777777" fill="#FF4136" />
<rect x="1.813333333333333" y="1.2105555555555554" width="0.5977777777777777" height="0.5977777777777777" fill="#252525" />
<rect x="0.005" y="1.813333333333333" width="0.5977777777777777" height="0.5977777777777777" fill="#252525" />
<rect x="0.6077777777777778" y="1.813333333333333" width="0.5977777777777777" height="0.5977777777777777" fill="#FF4136" />
<rect x="1.2105555555555554" y="1.813333333333333" width="0.5977777777777777" height="0.5977777777777777" fill="#FF4136" />
<rect x="1.813333333333333" y="1.813333333333333" width="0.5977777777777777" height="0.5977777777777777" fill="#252525" />
<rect x="0.005" y="2.416111111111111" width="0.5977777777777777" height="0.5977777777777777" fill="#FF4136" />
<rect x="0.6077777777777778" y="2.416111111111111" width="0.5977777777777777" height="0.5977777777777777" fill="#FF4136" />
<rect x="1.2105555555555554" y="2.416111111111111" width="0.5977777777777777" height="0.5977777777777777" fill="#FF4136" />
<rect x="1.813333333333333" y="2.416111111111111" width="0.5977777777777777" height="0.5977777777777777" fill="#FF4136" />
<rect x="0.005" y="3.0188888888888887" width="0.5977777777777777" height="0.5977777777777777" fill="#252525" />
<rect x="0.6077777777777778" y="3.0188888888888887" width="0.5977777777777777" height="0.5977777777777777" fill="#FF4136" />
<rect x="1.2105555555555554" y="3.0188888888888887" width="0.5977777777777777" height="0.5977777777777777" fill="#FF4136" />
<rect x="1.813333333333333" y="3.0188888888888887" width="0.5977777777777777" height="0.5977777777777777" fill="#252525" />
<rect x="0.005" y="3.621666666666666" width="0.5977777777777777" height="0.5977777777777777" fill="#252525" />
<rect x="0.6077777777777778" y="3.621666666666666" width="0.5977777777777777" height="0.5977777777777777" fill="#FF4136" />
<rect x="1.2105555555555554" y="3.621666666666666" width="0.5977777777777777" height="0.5977777777777777" fill="#FF4136" />
<rect x="1.813333333333333" y="3.621666666666666" width="0.5977777777777777" height="0.5977777777777777" fill="#252525" />
<rect x="0.005" y="4.224444444444444" width="0.5977777777777777" height="0.5977777777777777" fill="#FF4136" />
<rect x="0.6077777777777778" y="4.224444444444444" width="0.5977777777777777" height="0.5977777777777777" fill="#FF4136" />
<rect x="1.2105555555555554" y="4.224444444444444" width="0.5977777777777777" height="0.5977777777777777" fill="#FF4136" />
<rect x="1.813333333333333" y="4.224444444444444" width="0.5977777777777777" height="0.5977777777777777" fill="#FF4136" />
<rect x="0.005" y="4.827222222222222" width="0.5977777777777777" height="0.5977777777777777" fill="#252525" />
<rect x="0.6077777777777778" y="4.827222222222222" width="0.5977777777777777" height="0.5977777777777777" fill="#FF4136" />
<rect x="1.2105555555555554" y="4.827222222222222" width="0.5977777777777777" height="0.5977777777777777" fill="#FF4136" />
<rect x="1.813333333333333" y="4.827222222222222" width="0.5977777777777777" height="0.5977777777777777" fill="#252525" />
<rect x="-0.02666666666666667" y="-0.02666666666666667" width="2.464444444444444" height="5.4783333333333335" fill="none" stroke="#111111ff" stroke-width="0.08" />
<text x="2.411111111111111" y="5.89375" font-size="0.375" fill="black" text-anchor="end" font-family="Anuphan">4x9</text>
<text x="-0.037500000000000006" y="5.89375" font-size="0.375" fill="black" text-anchor="start" font-family="Anuphan" font-weight="600">Output 2</text>
</g>
<g id="d6">
<rect x="0.005" y="0.005" width="0.5977777777777777" height="0.5977777777777777" fill="#252525" />
<rect x="0.6077777777777778" y="0.005" width="0.5977777777777777" height="0.5977777777777777" fill="#E6E6E6" />
<rect x="1.2105555555555554" y="0.005" width="0.5977777777777777" height="0.5977777777777777" fill="#E6E6E6" />
<rect x="1.813333333333333" y="0.005" width="0.5977777777777777" height="0.5977777777777777" fill="#252525" />
<rect x="0.005" y="0.6077777777777778" width="0.5977777777777777" height="0.5977777777777777" fill="#E6E6E6" />
<rect x="0.6077777777777778" y="0.6077777777777778" width="0.5977777777777777" height="0.5977777777777777" fill="#252525" />
<rect x="1.2105555555555554" y="0.6077777777777778" width="0.5977777777777777" height="0.5977777777777777" fill="#252525" />
<rect x="1.813333333333333" y="0.6077777777777778" width="0.5977777777777777" height="0.5977777777777777" fill="#E6E6E6" />
<rect x="0.005" y="1.2105555555555554" width="0.5977777777777777" height="0.5977777777777777" fill="#252525" />
<rect x="0.6077777777777778" y="1.2105555555555554" width="0.5977777777777777" height="0.5977777777777777" fill="#252525" />
<rect x="1.2105555555555554" y="1.2105555555555554" width="0.5977777777777777" height="0.5977777777777777" fill="#252525" />
<rect x="1.813333333333333" y="1.2105555555555554" width="0.5977777777777777" height="0.5977777777777777" fill="#252525" />
<rect x="0.005" y="1.813333333333333" width="0.5977777777777777" height="0.5977777777777777" fill="#252525" />
<rect x="0.6077777777777778" y="1.813333333333333" width="0.5977777777777777" height="0.5977777777777777" fill="#252525" />
<rect x="1.2105555555555554" y="1.813333333333333" width="0.5977777777777777" height="0.5977777777777777" fill="#252525" />
<rect x="1.813333333333333" y="1.813333333333333" width="0.5977777777777777" height="0.5977777777777777" fill="#252525" />
<rect x="0.005" y="2.416111111111111" width="0.5977777777777777" height="0.5977777777777777" fill="#E6E6E6" />
<rect x="0.6077777777777778" y="2.416111111111111" width="0.5977777777777777" height="0.5977777777777777" fill="#252525" />
<rect x="1.2105555555555554" y="2.416111111111111" width="0.5977777777777777" height="0.5977777777777777" fill="#252525" />
<rect x="1.813333333333333" y="2.416111111111111" width="0.5977777777777777" height="0.5977777777777777" fill="#E6E6E6" />
<rect x="0.005" y="3.0188888888888887" width="0.5977777777777777" height="0.5977777777777777" fill="#252525" />
<rect x="0.6077777777777778" y="3.0188888888888887" width="0.5977777777777777" height="0.5977777777777777" fill="#E6E6E6" />
<rect x="1.2105555555555554" y="3.0188888888888887" width="0.5977777777777777" height="0.5977777777777777" fill="#E6E6E6" />
<rect x="1.813333333333333" y="3.0188888888888887" width="0.5977777777777777" height="0.5977777777777777" fill="#252525" />
<rect x="0.005" y="3.621666666666666" width="0.5977777777777777" height="0.5977777777777777" fill="#252525" />
<rect x="0.6077777777777778" y="3.621666666666666" width="0.5977777777777777" height="0.5977777777777777" fill="#E6E6E6" />
<rect x="1.2105555555555554" y="3.621666666666666" width="0.5977777777777777" height="0.5977777777777777" fill="#E6E6E6" />
<rect x="1.813333333333333" y="3.621666666666666" width="0.5977777777777777" height="0.5977777777777777" fill="#252525" />
<rect x="0.005" y="4.224444444444444" width="0.5977777777777777" height="0.5977777777777777" fill="#E6E6E6" />
<rect x="0.6077777777777778" y="4.224444444444444" width="0.5977777777777777" height="0.5977777777777777" fill="#252525" />
<rect x="1.2105555555555554" y="4.224444444444444" width="0.5977777777777777" height="0.5977777777777777" fill="#252525" />
<rect x="1.813333333333333" y="4.224444444444444" width="0.5977777777777777" height="0.5977777777777777" fill="#E6E6E6" />
<rect x="0.005" y="4.827222222222222" width="0.5977777777777777" height="0.5977777777777777" fill="#252525" />
<rect x="0.6077777777777778" y="4.827222222222222" width="0.5977777777777777" height="0.5977777777777777" fill="#252525" />
<rect x="1.2105555555555554" y="4.827222222222222" width="0.5977777777777777" height="0.5977777777777777" fill="#252525" />
<rect x="1.813333333333333" y="4.827222222222222" width="0.5977777777777777" height="0.5977777777777777" fill="#252525" />
<rect x="-0.02666666666666667" y="-0.02666666666666667" width="2.464444444444444" height="5.4783333333333335" fill="none" stroke="#111111ff" stroke-width="0.08" />
<text x="2.411111111111111" y="5.89375" font-size="0.375" fill="black" text-anchor="end" font-family="Anuphan">4x9</text>
<text x="-0.037500000000000006" y="5.89375" font-size="0.375" fill="black" text-anchor="start" font-family="Anuphan" font-weight="600">Output 3</text>
</g>
</defs>
<rect x="0" y="0" width="100%" height="100%" fill="#eeeff6" />
<use xlink:href="#d0" x="0.25" y="0.25" />
<use xlink:href="#d1" x="4.357499999999934" y="0.25" />
<use xlink:href="#d2" x="8.464999999999868" y="0.25" />
<use xlink:href="#d3" x="12.572499999999803" y="0.25" />
<path d="M2.053749999999967,6.311249999999902 L2.053749999999967,6.711249999999902" stroke-width="0.05" stroke="#888888" />
<path d="M1.9037499999999672,6.511249999999902 L2.053749999999967,6.711249999999902" stroke-width="0.05" stroke="#888888" />
<path d="M2.203749999999967,6.511249999999902 L2.053749999999967,6.711249999999902" stroke-width="0.05" stroke="#888888" />
<use xlink:href="#d4" x="0.8481944444444116" y="7.061249999999902" />
<path d="M6.161249999999901,6.311249999999902 L6.161249999999901,6.711249999999902" stroke-width="0.05" stroke="#888888" />
<path d="M6.011249999999901,6.511249999999902 L6.161249999999901,6.711249999999902" stroke-width="0.05" stroke="#888888" />
<path d="M6.311249999999902,6.511249999999902 L6.161249999999901,6.711249999999902" stroke-width="0.05" stroke="#888888" />
<use xlink:href="#d5" x="4.955694444444346" y="7.061249999999902" />
<path d="M10.268749999999836,6.311249999999902 L10.268749999999836,6.711249999999902" stroke-width="0.05" stroke="#888888" />
<path d="M10.118749999999835,6.511249999999902 L10.268749999999836,6.711249999999902" stroke-width="0.05" stroke="#888888" />
<path d="M10.418749999999836,6.511249999999902 L10.268749999999836,6.711249999999902" stroke-width="0.05" stroke="#888888" />
<use xlink:href="#d6" x="9.06319444444428" y="7.061249999999902" />
<path d="M14.37624999999977,6.311249999999902 L14.37624999999977,6.711249999999902" stroke-width="0.05" stroke="#888888" />
<path d="M14.22624999999977,6.511249999999902 L14.37624999999977,6.711249999999902" stroke-width="0.05" stroke="#888888" />
<path d="M14.52624999999977,6.511249999999902 L14.37624999999977,6.711249999999902" stroke-width="0.05" stroke="#888888" />
<text x="14.37624999999977" y="9.873749999999902" font-size="1" font-family="Anuphan" font-weight="700" fill="#333333" text-anchor="middle" alignment-baseline="middle">?</text>
<text x="16.299999999999997" y="13.299999999999999" font-size="0.3" font-family="Anuphan" font-weight="600" fill="#666666" text-anchor="end" alignment-baseline="bottom">Task 8d5021e8</text>
</svg>