<?xml version="1.0" encoding="UTF-8"?>
<svg xmlns="http://www.w3.org/2000/svg" xmlns:xlink="http://www.w3.org/1999/xlink"
     width="800.0" height="431.99999999999994" viewBox="0 0 20.0 10.799999999999999">
<defs>
<g id="d0">
<rect x="0.005" y="0.005" width="0.4058888888888773" height="0.4058888888888773" fill="#FF4136" />
<rect x="0.4158888888888773" y="0.005" width="0.4058888888888773" height="0.4058888888888773" fill="#FF4136" />
<rect x="0.8267777777777546" y="0.005" width="0.4058888888888773" height="0.4058888888888773" fill="#FF4136" />
<rect x="1.2376666666666318" y="0.005" width="0.4058888888888773" height="0.4058888888888773" fill="#FF4136" />
<rect x="1.6485555555555091" y="0.005" width="0.4058888888888773" height="0.4058888888888773" fill="#FF4136" />
<rect x="2.0594444444443862" y="0.005" width="0.4058888888888773" height="0.4058888888888773" fill="#FF4136" />
<rect x="2.4703333333332638" y="0.005" width="0.4058888888888773" height="0.4058888888888773" fill="#FF4136" />
<rect x="2.8812222222221413" y="0.005" width="0.4058888888888773" height="0.4058888888888773" fill="#FF4136" />
<rect x="3.2921111111110184" y="0.005" width="0.4058888888888773" height="0.4058888888888773" fill="#FF4136" />
<rect x="3.7029999999998955" y="0.005" width="0.4058888888888773" height="0.4058888888888773" fill="#FF4136" />
<rect x="4.113888888888773" y="0.005" width="0.4058888888888773" height="0.4058888888888773" fill="#FF4136" />
<rect x="4.5247777777776506" y="0.005" width="0.4058888888888773" height="0.4058888888888773" fill="#FF4136" />
<rect x="4.935666666666528" y="0.005" width="0.4058888888888773" height="0.4058888888888773" fill="#FF4136" />
<rect x="5.346555555555405" y="0.005" width="0.4058888888888773" height="0.4058888888888773" fill="#FF4136" />
<rect x="5.757444444444283" y="0.005" width="0.4058888888888773" height="0.4058888888888773" fill="#FF4136" />
<rect x="0.005" y="0.4158888888888773" width="0.4058888888888773" height="0.4058888888888773" fill="#FF4136" />
<rect x="0.4158888888888773" y="0.4158888888888773" width="0.4058888888888773" height="0.4058888888888773" fill="#252525" />
<rect x="0.8267777777777546" y="0.4158888888888773" width="0.4058888888888773" height="0.4058888888888773" fill="#FF4136" />
<rect x="1.2376666666666318" y="0.4158888888888773" width="0.4058888888888773" height="0.4058888888888773" fill="#FF4136" />
<rect x="1.6485555555555091" y="0.4158888888888773" width="0.4058888888888773" height="0.4058888888888773" fill="#FF4136" />
<rect x="2.0594444444443862" y="0.4158888888888773" width="0.4058888888888773" height="0.4058888888888773" fill="#FF4136" />
<rect x="2.4703333333332638" y="0.4158888888888773" width="0.4058888888888773" height="0.4058888888888773" fill="#FF4136" />
<rect x="2.8812222222221413" y="0.4158888888888773" width="0.4058888888888773" height="0.4058888888888773" fill="#FF4136" />
<rect x="3.2921111111110184" y="0.4158888888888773" width="0.4058888888888773" height="0.4058888888888773" fill="#FF4136" />
<rect x="3.7029999999998955" y="0.4158888888888773" width="0.4058888888888773" height="0.4058888888888773" fill="#FF4136" />
<rect x="4.113888888888773" y="0.4158888888888773" width="0.4058888888888773" height="0.4058888888888773" fill="#FF4136" />
<rect x="4.5247777777776506" y="0.4158888888888773" width="0.4058888888888773" height="0.4058888888888773" fill="#FF4136" />
<rect x="4.935666666666528" y="0.4158888888888773" width="0.4058888888888773" height="0.4058888888888773" fill="#FF4136" />
<rect x="5.346555555555405" y="0.4158888888888773" width="0.4058888888888773" height="0.4058888888888773" fill="#FF4136" />
<rect x="5.757444444444283" y="0.4158888888888773" width="0.4058888888888773" height="0.4058888888888773" fill="#252525" />
<rect x="0.005" y="0.8267777777777546" width="0.4058888888888773" height="0.4058888888888773" fill="#FF4136" />
<rect x="0.4158888888888773" y="0.8267777777777546" width="0.4058888888888773" height="0.4058888888888773" fill="#252525" />
<rect x="0.8267777777777546" y="0.8267777777777546" width="0.4058888888888773" height="0.4058888888888773" fill="#252525" />
<rect x="1.2376666666666318" y="0.8267777777777546" width="0.4058888888888773" height="0.4058888888888773" fill="#FF4136" />
<rect x="1.6485555555555091" y="0.8267777777777546" width="0.4058888888888773" height="0.4058888888888773" fill="#FF4136" />
<rect x="2.0594444444443862" y="0.8267777777777546" width="0.4058888888888773" height="0.4058888888888773" fill="#FF4136" />
<rect x="2.4703333333332638" y="0.8267777777777546" width="0.4058888888888773" height="0.4058888888888773" fill="#252525" />
<rect x="2.8812222222221413" y="0.8267777777777546" width="0.4058888888888773" height="0.4058888888888773" fill="#252525" />
<rect x="3.2921111111110184" y="0.8267777777777546" width="0.4058888888888773" height="0.4058888888888773" fill="#252525" />
<rect x="3.7029999999998955" y="0.8267777777777546" width="0.4058888888888773" height="0.4058888888888773" fill="#FF4136" />
<rect x="4.113888888888773" y="0.8267777777777546" width="0.4058888888888773" height="0.4058888888888773" fill="#FF4136" />
<rect x="4.5247777777776506" y="0.8267777777777546" width="0.4058888888888773" height="0.4058888888888773" fill="#FF4136" />
<rect x="4.935666666666528" y="0.8267777777777546" width="0.4058888888888773" height="0.4058888888888773" fill="#FF4136" />
<rect x="5.346555555555405" y="0.8267777777777546" width="0.4058888888888773" height="0.4058888888888773" fill="#FF4136" />
<rect x="5.757444444444283" y="0.8267777777777546" width="0.4058888888888773" height="0.4058888888888773" fill="#252525" />
<rect x="0.005" y="1.2376666666666318" width="0.4058888888888773" height="0.4058888888888773" fill="#252525" />
<rect x="0.4158888888888773" y="1.2376666666666318" width="0.4058888888888773" height="0.4058888888888773" fill="#252525" />
<rect x="0.8267777777777546" y="1.2376666666666318" width="0.4058888888888773" height="0.4058888888888773" fill="#252525" />
<rect x="1.2376666666666318" y="1.2376666666666318" width="0.4058888888888773" height="0.4058888888888773" fill="#252525" />
<rect x="1.6485555555555091" y="1.2376666666666318" width="0.4058888888888773" height="0.4058888888888773" fill="#252525" />
<rect x="2.0594444444443862" y="1.2376666666666318" width="0.4058888888888773" height="0.4058888888888773" fill="#252525" />
<rect x="2.4703333333332638" y="1.2376666666666318" width="0.4058888888888773" height="0.4058888888888773" fill="#252525" />
<rect x="2.8812222222221413" y="1.2376666666666318" width="0.4058888888888773" height="0.4058888888888773" fill="#252525" />
<rect x="3.2921111111110184" y="1.2376666666666318" width="0.4058888888888773" height="0.4058888888888773" fill="#252525" />
<rect x="3.7029999999998955" y="1.2376666666666318" width="0.4058888888888773" height="0.4058888888888773" fill="#252525" />
<rect x="4.113888888888773" y="1.2376666666666318" width="0.4058888888888773" height="0.4058888888888773" fill="#252525" />
<rect x="4.5247777777776506" y="1.2376666666666318" width="0.4058888888888773" height="0.4058888888888773" fill="#252525" />
<rect x="4.935666666666528" y="1.2376666666666318" width="0.4058888888888773" height="0.4058888888888773" fill="#252525" />
<rect x="5.346555555555405" y="1.2376666666666318" width="0.4058888888888773" height="0.4058888888888773" fill="#252525" />
<rect x="5.757444444444283" y="1.2376666666666318" width="0.4058888888888773" height="0.4058888888888773" fill="#252525" />
<rect x="0.005" y="1.6485555555555091" width="0.4058888888888773" height="0.4058888888888773" fill="#252525" />
<rect x="0.4158888888888773" y="1.6485555555555091" width="0.4058888888888773" height="0.4058888888888773" fill="#252525" />
<rect x="0.8267777777777546" y="1.6485555555555091" width="0.4058888888888773" height="0.4058888888888773" fill="#252525" />
<rect x="1.2376666666666318" y="1.6485555555555091" width="0.4058888888888773" height="0.4058888888888773" fill="#252525" />
<rect x="1.6485555555555091" y="1.6485555555555091" width="0.4058888888888773" height="0.4058888888888773" fill="#252525" />
<rect x="2.0594444444443862" y="1.6485555555555091" width="0.4058888888888773" height="0.4058888888888773" fill="#252525" />
<rect x="2.4703333333332638" y="1.6485555555555091" width="0.4058888888888773" height="0.4058888888888773" fill="#252525" />
<rect x="2.8812222222221413" y="1.6485555555555091" width="0.4058888888888773" height="0.4058888888888773" fill="#252525" />
<rect x="3.2921111111110184" y="1.6485555555555091" width="0.4058888888888773" height="0.4058888888888773" fill="#252525" />
<rect x="3.7029999999998955" y="1.6485555555555091" width="0.4058888888888773" height="0.4058888888888773" fill="#252525" />
<rect x="4.113888888888773" y="1.6485555555555091" width="0.4058888888888773" height="0.4058888888888773" fill="#252525" />
<rect x="4.5247777777776506" y="1.6485555555555091" width="0.4058888888888773" height="0.4058888888888773" fill="#252525" />
<rect x="4.935666666666528" y="1.6485555555555091" width="0.4058888888888773" height="0.4058888888888773" fill="#252525" />
<rect x="5.346555555555405" y="1.6485555555555091" width="0.4058888888888773" height="0.4058888888888773" fill="#252525" />
<rect x="5.757444444444283" y="1.6485555555555091" width="0.4058888888888773" height="0.4058888888888773" fill="#252525" />
<rect x="0.005" y="2.0594444444443862" width="0.4058888888888773" height="0.4058888888888773" fill="#252525" />
<rect x="0.4158888888888773" y="2.0594444444443862" width="0.4058888888888773" height="0.4058888888888773" fill="#252525" />
<rect x="0.8267777777777546" y="2.0594444444443862" width="0.4058888888888773" height="0.4058888888888773" fill="#252525" />
<rect x="1.2376666666666318" y="2.0594444444443862" width="0.4058888888888773" height="0.4058888888888773" fill="#252525" />
<rect x="1.6485555555555091" y="2.0594444444443862" width="0.4058888888888773" height="0.4058888888888773" fill="#252525" />
<rect x="2.0594444444443862" y="2.0594444444443862" width="0.4058888888888773" height="0.4058888888888773" fill="#252525" />
<rect x="2.4703333333332638" y="2.0594444444443862" width="0.4058888888888773" height="0.4058888888888773" fill="#252525" />
<rect x="2.8812222222221413" y="2.0594444444443862" width="0.4058888888888773" height="0.4058888888888773" fill="#252525" />
<rect x="3.2921111111110184" y="2.0594444444443862" width="0.4058888888888773" height="0.4058888888888773" fill="#252525" />
<rect x="3.7029999999998955" y="2.0594444444443862" width="0.4058888888888773" height="0.4058888888888773" fill="#252525" />
<rect x="4.113888888888773" y="2.0594444444443862" width="0.4058888888888773" height="0.4058888888888773" fill="#252525" />
<rect x="4.5247777777776506" y="2.0594444444443862" width="0.4058888888888773" height="0.4058888888888773" fill="#252525" />
<rect x="4.935666666666528" y="2.0594444444443862" width="0.4058888888888773" height="0.4058888888888773" fill="#252525" />
<rect x="5.346555555555405" y="2.0594444444443862" width="0.4058888888888773" height="0.4058888888888773" fill="#252525" />
<rect x="5.757444444444283" y="2.0594444444443862" width="0.4058888888888773" height="0.4058888888888773" fill="#252525" />
<rect x="0.005" y="2.4703333333332638" width="0.4058888888888773" height="0.4058888888888773" fill="#252525" />
<rect x="0.4158888888888773" y="2.4703333333332638" width="0.4058888888888773" height="0.4058888888888773" fill="#252525" />
<rect x="0.8267777777777546" y="2.4703333333332638" width="0.4058888888888773" height="0.4058888888888773" fill="#252525" />
<rect x="1.2376666666666318" y="2.4703333333332638" width="0.4058888888888773" height="0.4058888888888773" fill="#252525" />
<rect x="1.6485555555555091" y="2.4703333333332638" width="0.4058888888888773" height="0.4058888888888773" fill="#252525" />
<rect x="2.0594444444443862" y="2.4703333333332638" width="0.4058888888888773" height="0.4058888888888773" fill="#252525" />
<rect x="2.4703333333332638" y="2.4703333333332638" width="0.4058888888888773" height="0.4058888888888773" fill="#252525" />
<rect x="2.8812222222221413" y="2.4703333333332638" width="0.4058888888888773" height="0.4058888888888773" fill="#252525" />
<rect x="3.2921111111110184" y="2.4703333333332638" width="0.4058888888888773" height="0.4058888888888773" fill="#252525" />
<rect x="3.7029999999998955" y="2.4703333333332638" width="0.4058888888888773" height="0.4058888888888773" fill="#252525" />
<rect x="4.113888888888773" y="2.4703333333332638" width="0.4058888888888773" height="0.4058888888888773" fill="#252525" />
<rect x="4.5247777777776506" y="2.4703333333332638" width="0.4058888888888773" height="0.4058888888888773" fill="#252525" />
<rect x="4.935666666666528" y="2.4703333333332638" width="0.4058888888888773" height="0.4058888888888773" fill="#252525" />
<rect x="5.346555555555405" y="2.4703333333332638" width="0.4058888888888773" height="0.4058888888888773" fill="#E6E6E6" />
<rect x="5.757444444444283" y="2.4703333333332638" width="0.4058888888888773" height="0.4058888888888773" fill="#252525" />
<rect x="0.005" y="2.8812222222221413" width="0.4058888888888773" height="0.4058888888888773" fill="#252525" />
<rect x="0.4158888888888773" y="2.8812222222221413" width="0.4058888888888773" height="0.4058888888888773" fill="#252525" />
<rect x="0.8267777777777546" y="2.8812222222221413" width="0.4058888888888773" height="0.4058888888888773" fill="#252525" />
<rect x="1.2376666666666318" y="2.8812222222221413" width="0.4058888888888773" height="0.4058888888888773" fill="#252525" />
<rect x="1.6485555555555091" y="2.8812222222221413" width="0.4058888888888773" height="0.4058888888888773" fill="#252525" />
<rect x="2.0594444444443862" y="2.8812222222221413" width="0.4058888888888773" height="0.4058888888888773" fill="#252525" />
<rect x="2.4703333333332638" y="2.8812222222221413" width="0.4058888888888773" height="0.4058888888888773" fill="#E6E6E6" />
<rect x="2.8812222222221413" y="2.8812222222221413" width="0.4058888888888773" height="0.4058888888888773" fill="#252525" />
<rect x="3.2921111111110184" y="2.8812222222221413" width="0.4058888888888773" height="0.4058888888888773" fill="#252525" />
<rect x="3.7029999999998955" y="2.8812222222221413" width="0.4058888888888773" height="0.4058888888888773" fill="#252525" />
<rect x="4.113888888888773" y="2.8812222222221413" width="0.4058888888888773" height="0.4058888888888773" fill="#252525" />
<rect x="4.5247777777776506" y="2.8812222222221413" width="0.4058888888888773" height="0.4058888888888773" fill="#252525" />
<rect x="4.935666666666528" y="2.8812222222221413" width="0.4058888888888773" height="0.4058888888888773" fill="#252525" />
<rect x="5.346555555555405" y="2.8812222222221413" width="0.4058888888888773" height="0.4058888888888773" fill="#E6E6E6" />
<rect x="5.757444444444283" y="2.8812222222221413" width="0.4058888888888773" height="0.4058888888888773" fill="#252525" />
<rect x="0.005" y="3.2921111111110184" width="0.4058888888888773" height="0.4058888888888773" fill="#252525" />
<rect x="0.4158888888888773" y="3.2921111111110184" width="0.4058888888888773" height="0.4058888888888773" fill="#E6E6E6" />
<rect x="0.8267777777777546" y="3.2921111111110184" width="0.4058888888888773" height="0.4058888888888773" fill="#E6E6E6" />
<rect x="1.2376666666666318" y="3.2921111111110184" width="0.4058888888888773" height="0.4058888888888773" fill="#E6E6E6" />
<rect x="1.6485555555555091" y="3.2921111111110184" width="0.4058888888888773" height="0.4058888888888773" fill="#252525" />
<rect x="2.0594444444443862" y="3.2921111111110184" width="0.4058888888888773" height="0.4058888888888773" fill="#252525" />
<rect x="2.4703333333332638" y="3.2921111111110184" width="0.4058888888888773" height="0.4058888888888773" fill="#E6E6E6" />
<rect x="2.8812222222221413" y="3.2921111111110184" width="0.4058888888888773" height="0.4058888888888773" fill="#E6E6E6" />
<rect x="3.2921111111110184" y="3.2921111111110184" width="0.4058888888888773" height="0.4058888888888773" fill="#252525" />
<rect x="3.7029999999998955" y="3.2921111111110184" width="0.4058888888888773" height="0.4058888888888773" fill="#252525" />
<rect x="4.113888888888773" y="3.2921111111110184" width="0.4058888888888773" height="0.4058888888888773" fill="#252525" />
<rect x="4.5247777777776506" y="3.2921111111110184" width="0.4058888888888773" height="0.4058888888888773" fill="#252525" />
<rect x="4.935666666666528" y="3.2921111111110184" width="0.4058888888888773" height="0.4058888888888773" fill="#252525" />
<rect x="5.346555555555405" y="3.2921111111110184" width="0.4058888888888773" height="0.4058888888888773" fill="#E6E6E6" />
<rect x="5.757444444444283" y="3.2921111111110184" width="0.4058888888888773" height="0.4058888888888773" fill="#252525" />
<rect x="0.005" y="3.7029999999998955" width="0.4058888888888773" height="0.4058888888888773" fill="#252525" />
<rect x="0.4158888888888773" y="3.7029999999998955" width="0.4058888888888773" height="0.4058888888888773" fill="#E6E6E6" />
<rect x="0.8267777777777546" y="3.7029999999998955" width="0.4058888888888773" height="0.4058888888888773" fill="#E6E6E6" />
<rect x="1.2376666666666318" y="3.7029999999998955" width="0.4058888888888773" height="0.4058888888888773" fill="#E6E6E6" />
<rect x="1.6485555555555091" y="3.7029999999998955" width="0.4058888888888773" height="0.4058888888888773" fill="#252525" />
<rect x="2.0594444444443862" y="3.7029999999998955" width="0.4058888888888773" height="0.4058888888888773" fill="#252525" />
<rect x="2.4703333333332638" y="3.7029999999998955" width="0.4058888888888773" height="0.4058888888888773" fill="#E6E6E6" />
<rect x="2.8812222222221413" y="3.7029999999998955" width="0.4058888888888773" height="0.4058888888888773" fill="#E6E6E6" />
<rect x="3.2921111111110184" y="3.7029999999998955" width="0.4058888888888773" height="0.4058888888888773" fill="#E6E6E6" />
<rect x="3.7029999999998955" y="3.7029999999998955" width="0.4058888888888773" height="0.4058888888888773" fill="#252525" />
<rect x="4.113888888888773" y="3.7029999999998955" width="0.4058888888888773" height="0.4058888888888773" fill="#252525" />
<rect x="4.5247777777776506" y="3.7029999999998955" width="0.4058888888888773" height="0.4058888888888773" fill="#252525" />
<rect x="4.935666666666528" y="3.7029999999998955" width="0.4058888888888773" height="0.4058888888888773" fill="#252525" />
<rect x="5.346555555555405" y="3.7029999999998955" width="0.4058888888888773" height="0.4058888888888773" fill="#E6E6E6" />
<rect x="5.757444444444283" y="3.7029999999998955" width="0.4058888888888773" height="0.4058888888888773" fill="#252525" />
<rect x="-0.02666666666666667" y="-0.02666666666666667" width="6.216666666666494" height="4.162222222222106" fill="none" stroke="#111111ff" stroke-width="0.08" />
<text x="6.16333333333316" y="4.577638888888773" font-size="0.375" fill="black" text-anchor="end" font-family="Anuphan">15x10</text>
<text x="-0.037500000000000006" y="4.577638888888773" font-size="0.375" fill="black" text-anchor="start" font-family="Anuphan" font-weight="600">Input 1</text>
</g>
<g id="d1">
<rect x="0.005" y="0.005" width="0.4058888888888773" height="0.4058888888888773" fill="#FF4136" />
<rect x="0.4158888888888773" y="0.005" width="0.4058888888888773" height="0.4058888888888773" fill="#FF4136" />
<rect x="0.8267777777777546" y="0.005" width="0.4058888888888773" height="0.4058888888888773" fill="#FF4136" />
<rect x="1.2376666666666318" y="0.005" width="0.4058888888888773" height="0.4058888888888773" fill="#FF4136" />
<rect x="1.6485555555555091" y="0.005" width="0.4058888888888773" height="0.4058888888888773" fill="#FF4136" />
<rect x="2.0594444444443862" y="0.005" width="0.4058888888888773" height="0.4058888888888773" fill="#FF4136" />
<rect x="2.4703333333332638" y="0.005" width="0.4058888888888773" height="0.4058888888888773" fill="#FF4136" />
<rect x="2.8812222222221413" y="0.005" width="0.4058888888888773" height="0.4058888888888773" fill="#FF4136" />
<rect x="3.2921111111110184" y="0.005" width="0.4058888888888773" height="0.4058888888888773" fill="#FF4136" />
<rect x="3.7029999999998955" y="0.005" width="0.4058888888888773" height="0.4058888888888773" fill="#FF4136" />
<rect x="4.113888888888773" y="0.005" width="0.4058888888888773" height="0.4058888888888773" fill="#FF4136" />
<rect x="4.5247777777776506" y="0.005" width="0.4058888888888773" height="0.4058888888888773" fill="#FF4136" />
<rect x="4.935666666666528" y="0.005" width="0.4058888888888773" height="0.4058888888888773" fill="#FF4136" />
<rect x="5.346555555555405" y="0.005" width="0.4058888888888773" height="0.4058888888888773" fill="#FF4136" />
<rect x="5.757444444444283" y="0.005" width="0.4058888888888773" height="0.4058888888888773" fill="#FF4136" />
<rect x="0.005" y="0.4158888888888773" width="0.4058888888888773" height="0.4058888888888773" fill="#FF4136" />
<rect x="0.4158888888888773" y="0.4158888888888773" width="0.4058888888888773" height="0.4058888888888773" fill="#FF4136" />
<rect x="0.8267777777777546" y="0.4158888888888773" width="0.4058888888888773" height="0.4058888888888773" fill="#FF4136" />
<rect x="1.2376666666666318" y="0.4158888888888773" width="0.4058888888888773" height="0.4058888888888773" fill="#FF4136" />
<rect x="1.6485555555555091" y="0.4158888888888773" width="0.4058888888888773" height="0.4058888888888773" fill="#252525" />
<rect x="2.0594444444443862" y="0.4158888888888773" width="0.4058888888888773" height="0.4058888888888773" fill="#FF4136" />
<rect x="2.4703333333332638" y="0.4158888888888773" width="0.4058888888888773" height="0.4058888888888773" fill="#FF4136" />
<rect x="2.8812222222221413" y="0.4158888888888773" width="0.4058888888888773" height="0.4058888888888773" fill="#FF4136" />
<rect x="3.2921111111110184" y="0.4158888888888773" width="0.4058888888888773" height="0.4058888888888773" fill="#252525" />
<rect x="3.7029999999998955" y="0.4158888888888773" width="0.4058888888888773" height="0.4058888888888773" fill="#FF4136" />
<rect x="4.113888888888773" y="0.4158888888888773" width="0.4058888888888773" height="0.4058888888888773" fill="#FF4136" />
<rect x="4.5247777777776506" y="0.4158888888888773" width="0.4058888888888773" height="0.4058888888888773" fill="#252525" />
<rect x="4.935666666666528" y="0.4158888888888773" width="0.4058888888888773" height="0.4058888888888773" fill="#252525" />
<rect x="5.346555555555405" y="0.4158888888888773" width="0.4058888888888773" height="0.4058888888888773" fill="#FF4136" />
<rect x="5.757444444444283" y="0.4158888888888773" width="0.4058888888888773" height="0.4058888888888773" fill="#FF4136" />
<rect x="0.005" y="0.8267777777777546" width="0.4058888888888773" height="0.4058888888888773" fill="#FF4136" />
<rect x="0.4158888888888773" y="0.8267777777777546" width="0.4058888888888773" height="0.4058888888888773" fill="#252525" />
<rect x="0.8267777777777546" y="0.8267777777777546" width="0.4058888888888773" height="0.4058888888888773" fill="#252525" />
<rect x="1.2376666666666318" y="0.8267777777777546" width="0.4058888888888773" height="0.4058888888888773" fill="#FF4136" />
<rect x="1.6485555555555091" y="0.8267777777777546" width="0.4058888888888773" height="0.4058888888888773" fill="#252525" />
<rect x="2.0594444444443862" y="0.8267777777777546" width="0.4058888888888773" height="0.4058888888888773" fill="#FF4136" />
<rect x="2.4703333333332638" y="0.8267777777777546" width="0.4058888888888773" height="0.4058888888888773" fill="#FF4136" />
<rect x="2.8812222222221413" y="0.8267777777777546" width="0.4058888888888773" height="0.4058888888888773" fill="#252525" />
<rect x="3.2921111111110184" y="0.8267777777777546" width="0.4058888888888773" height="0.4058888888888773" fill="#252525" />
<rect x="3.7029999999998955" y="0.8267777777777546" width="0.4058888888888773" height="0.4058888888888773" fill="#252525" />
<rect x="4.113888888888773" y="0.8267777777777546" width="0.4058888888888773" height="0.4058888888888773" fill="#FF4136" />
<rect x="4.5247777777776506" y="0.8267777777777546" width="0.4058888888888773" height="0.4058888888888773" fill="#252525" />
<rect x="4.935666666666528" y="0.8267777777777546" width="0.4058888888888773" height="0.4058888888888773" fill="#252525" />
<rect x="5.346555555555405" y="0.8267777777777546" width="0.4058888888888773" height="0.4058888888888773" fill="#FF4136" />
<rect x="5.757444444444283" y="0.8267777777777546" width="0.4058888888888773" height="0.4058888888888773" fill="#FF4136" />
<rect x="0.005" y="1.2376666666666318" width="0.4058888888888773" height="0.4058888888888773" fill="#252525" />
<rect x="0.4158888888888773" y="1.2376666666666318" width="0.4058888888888773" height="0.4058888888888773" fill="#252525" />
<rect x="0.8267777777777546" y="1.2376666666666318" width="0.4058888888888773" height="0.4058888888888773" fill="#252525" />
<rect x="1.2376666666666318" y="1.2376666666666318" width="0.4058888888888773" height="0.4058888888888773" fill="#252525" />
<rect x="1.6485555555555091" y="1.2376666666666318" width="0.4058888888888773" height="0.4058888888888773" fill="#252525" />
<rect x="2.0594444444443862" y="1.2376666666666318" width="0.4058888888888773" height="0.4058888888888773" fill="#252525" />
<rect x="2.4703333333332638" y="1.2376666666666318" width="0.4058888888888773" height="0.4058888888888773" fill="#252525" />
<rect x="2.8812222222221413" y="1.2376666666666318" width="0.4058888888888773" height="0.4058888888888773" fill="#252525" />
<rect x="3.2921111111110184" y="1.2376666666666318" width="0.4058888888888773" height="0.4058888888888773" fill="#252525" />
<rect x="3.7029999999998955" y="1.2376666666666318" width="0.4058888888888773" height="0.4058888888888773" fill="#252525" />
<rect x="4.113888888888773" y="1.2376666666666318" width="0.4058888888888773" height="0.4058888888888773" fill="#252525" />
<rect x="4.5247777777776506" y="1.2376666666666318" width="0.4058888888888773" height="0.4058888888888773" fill="#252525" />
<rect x="4.935666666666528" y="1.2376666666666318" width="0.4058888888888773" height="0.4058888888888773" fill="#252525" />
<rect x="5.346555555555405" y="1.2376666666666318" width="0.4058888888888773" height="0.4058888888888773" fill="#252525" />
<rect x="5.757444444444283" y="1.2376666666666318" width="0.4058888888888773" height="0.4058888888888773" fill="#252525" />
<rect x="0.005" y="1.6485555555555091" width="0.4058888888888773" height="0.4058888888888773" fill="#252525" />
<rect x="0.4158888888888773" y="1.6485555555555091" width="0.4058888888888773" height="0.4058888888888773" fill="#252525" />
<rect x="0.8267777777777546" y="1.6485555555555091" width="0.4058888888888773" height="0.4058888888888773" fill="#252525" />
<rect x="1.2376666666666318" y="1.6485555555555091" width="0.4058888888888773" height="0.4058888888888773" fill="#252525" />
<rect x="1.6485555555555091" y="1.6485555555555091" width="0.4058888888888773" height="0.4058888888888773" fill="#252525" />
<rect x="2.0594444444443862" y="1.6485555555555091" width="0.4058888888888773" height="0.4058888888888773" fill="#252525" />
<rect x="2.4703333333332638" y="1.6485555555555091" width="0.4058888888888773" height="0.4058888888888773" fill="#252525" />
<rect x="2.8812222222221413" y="1.6485555555555091" width="0.4058888888888773" height="0.4058888888888773" fill="#252525" />
<rect x="3.2921111111110184" y="1.6485555555555091" width="0.4058888888888773" height="0.4058888888888773" fill="#252525" />
<rect x="3.7029999999998955" y="1.6485555555555091" width="0.4058888888888773" height="0.4058888888888773" fill="#252525" />
<rect x="4.113888888888773" y="1.6485555555555091" width="0.4058888888888773" height="0.4058888888888773" fill="#252525" />
<rect x="4.5247777777776506" y="1.6485555555555091" width="0.4058888888888773" height="0.4058888888888773" fill="#252525" />
<rect x="4.935666666666528" y="1.6485555555555091" width="0.4058888888888773" height="0.4058888888888773" fill="#252525" />
<rect x="5.346555555555405" y="1.6485555555555091" width="0.4058888888888773" height="0.4058888888888773" fill="#252525" />
<rect x="5.757444444444283" y="1.6485555555555091" width="0.4058888888888773" height="0.4058888888888773" fill="#252525" />
<rect x="0.005" y="2.0594444444443862" width="0.4058888888888773" height="0.4058888888888773" fill="#252525" />
<rect x="0.4158888888888773" y="2.0594444444443862" width="0.4058888888888773" height="0.4058888888888773" fill="#252525" />
<rect x="0.8267777777777546" y="2.0594444444443862" width="0.4058888888888773" height="0.4058888888888773" fill="#252525" />
<rect x="1.2376666666666318" y="2.0594444444443862" width="0.4058888888888773" height="0.4058888888888773" fill="#252525" />
<rect x="1.6485555555555091" y="2.0594444444443862" width="0.4058888888888773" height="0.4058888888888773" fill="#252525" />
<rect x="2.0594444444443862" y="2.0594444444443862" width="0.4058888888888773" height="0.4058888888888773" fill="#252525" />
<rect x="2.4703333333332638" y="2.0594444444443862" width="0.4058888888888773" height="0.4058888888888773" fill="#252525" />
<rect x="2.8812222222221413" y="2.0594444444443862" width="0.4058888888888773" height="0.4058888888888773" fill="#252525" />
<rect x="3.2921111111110184" y="2.0594444444443862" width="0.4058888888888773" height="0.4058888888888773" fill="#252525" />
<rect x="3.7029999999998955" y="2.0594444444443862" width="0.4058888888888773" height="0.4058888888888773" fill="#252525" />
<rect x="4.113888888888773" y="2.0594444444443862" width="0.4058888888888773" height="0.4058888888888773" fill="#252525" />
<rect x="4.5247777777776506" y="2.0594444444443862" width="0.4058888888888773" height="0.4058888888888773" fill="#252525" />
<rect x="4.935666666666528" y="2.0594444444443862" width="0.4058888888888773" height="0.4058888888888773" fill="#252525" />
<rect x="5.346555555555405" y="2.0594444444443862" width="0.4058888888888773" height="0.4058888888888773" fill="#252525" />
<rect x="5.757444444444283" y="2.0594444444443862" width="0.4058888888888773" height="0.4058888888888773" fill="#252525" />
<rect x="0.005" y="2.4703333333332638" width="0.4058888888888773" height="0.4058888888888773" fill="#252525" />
<rect x="0.4158888888888773" y="2.4703333333332638" width="0.4058888888888773" height="0.4058888888888773" fill="#E6E6E6" />
<rect x="0.8267777777777546" y="2.4703333333332638" width="0.4058888888888773" height="0.4058888888888773" fill="#E6E6E6" />
<rect x="1.2376666666666318" y="2.4703333333332638" width="0.4058888888888773" height="0.4058888888888773" fill="#252525" />
<rect x="1.6485555555555091" y="2.4703333333332638" width="0.4058888888888773" height="0.4058888888888773" fill="#252525" />
<rect x="2.0594444444443862" y="2.4703333333332638" width="0.4058888888888773" height="0.4058888888888773" fill="#252525" />
<rect x="2.4703333333332638" y="2.4703333333332638" width="0.4058888888888773" height="0.4058888888888773" fill="#252525" />
<rect x="2.8812222222221413" y="2.4703333333332638" width="0.4058888888888773" height="0.4058888888888773" fill="#252525" />
<rect x="3.2921111111110184" y="2.4703333333332638" width="0.4058888888888773" height="0.4058888888888773" fill="#252525" />
<rect x="3.7029999999998955" y="2.4703333333332638" width="0.4058888888888773" height="0.4058888888888773" fill="#252525" />
<rect x="4.113888888888773" y="2.4703333333332638" width="0.4058888888888773" height="0.4058888888888773" fill="#252525" />
<rect x="4.5247777777776506" y="2.4703333333332638" width="0.4058888888888773" height="0.4058888888888773" fill="#252525" />
<rect x="4.935666666666528" y="2.4703333333332638" width="0.4058888888888773" height="0.4058888888888773" fill="#252525" />
<rect x="5.346555555555405" y="2.4703333333332638" width="0.4058888888888773" height="0.4058888888888773" fill="#252525" />
<rect x="5.757444444444283" y="2.4703333333332638" width="0.4058888888888773" height="0.4058888888888773" fill="#252525" />
<rect x="0.005" y="2.8812222222221413" width="0.4058888888888773" height="0.4058888888888773" fill="#252525" />
<rect x="0.4158888888888773" y="2.8812222222221413" width="0.4058888888888773" height="0.4058888888888773" fill="#E6E6E6" />
<rect x="0.8267777777777546" y="2.8812222222221413" width="0.4058888888888773" height="0.4058888888888773" fill="#E6E6E6" />
<rect x="1.2376666666666318" y="2.8812222222221413" width="0.4058888888888773" height="0.4058888888888773" fill="#252525" />
<rect x="1.6485555555555091" y="2.8812222222221413" width="0.4058888888888773" height="0.4058888888888773" fill="#252525" />
<rect x="2.0594444444443862" y="2.8812222222221413" width="0.4058888888888773" height="0.4058888888888773" fill="#252525" />
<rect x="2.4703333333332638" y="2.8812222222221413" width="0.4058888888888773" height="0.4058888888888773" fill="#252525" />
<rect x="2.8812222222221413" y="2.8812222222221413" width="0.4058888888888773" height="0.4058888888888773" fill="#252525" />
<rect x="3.2921111111110184" y="2.8812222222221413" width="0.4058888888888773" height="0.4058888888888773" fill="#252525" />
<rect x="3.7029999999998955" y="2.8812222222221413" width="0.4058888888888773" height="0.4058888888888773" fill="#252525" />
<rect x="4.113888888888773" y="2.8812222222221413" width="0.4058888888888773" height="0.4058888888888773" fill="#E6E6E6" />
<rect x="4.5247777777776506" y="2.8812222222221413" width="0.4058888888888773" height="0.4058888888888773" fill="#252525" />
<rect x="4.935666666666528" y="2.8812222222221413" width="0.4058888888888773" height="0.4058888888888773" fill="#252525" />
<rect x="5.346555555555405" y="2.8812222222221413" width="0.4058888888888773" height="0.4058888888888773" fill="#252525" />
<rect x="5.757444444444283" y="2.8812222222221413" width="0.4058888888888773" height="0.4058888888888773" fill="#252525" />
<rect x="0.005" y="3.2921111111110184" width="0.4058888888888773" height="0.4058888888888773" fill="#E6E6E6" />
<rect x="0.4158888888888773" y="3.2921111111110184" width="0.4058888888888773" height="0.4058888888888773" fill="#E6E6E6" />
<rect x="0.8267777777777546" y="3.2921111111110184" width="0.4058888888888773" height="0.4058888888888773" fill="#E6E6E6" />
<rect x="1.2376666666666318" y="3.2921111111110184" width="0.4058888888888773" height="0.4058888888888773" fill="#E6E6E6" />
<rect x="1.6485555555555091" y="3.2921111111110184" width="0.4058888888888773" height="0.4058888888888773" fill="#252525" />
<rect x="2.0594444444443862" y="3.2921111111110184" width="0.4058888888888773" height="0.4058888888888773" fill="#252525" />
<rect x="2.4703333333332638" y="3.2921111111110184" width="0.4058888888888773" height="0.4058888888888773" fill="#252525" />
<rect x="2.8812222222221413" y="3.2921111111110184" width="0.4058888888888773" height="0.4058888888888773" fill="#E6E6E6" />
<rect x="3.2921111111110184" y="3.2921111111110184" width="0.4058888888888773" height="0.4058888888888773" fill="#252525" />
<rect x="3.7029999999998955" y="3.2921111111110184" width="0.4058888888888773" height="0.4058888888888773" fill="#252525" />
<rect x="4.113888888888773" y="3.2921111111110184" width="0.4058888888888773" height="0.4058888888888773" fill="#E6E6E6" />
<rect x="4.5247777777776506" y="3.2921111111110184" width="0.4058888888888773" height="0.4058888888888773" fill="#252525" />
<rect x="4.935666666666528" y="3.2921111111110184" width="0.4058888888888773" height="0.4058888888888773" fill="#252525" />
<rect x="5.346555555555405" y="3.2921111111110184" width="0.4058888888888773" height="0.4058888888888773" fill="#E6E6E6" />
<rect x="5.757444444444283" y="3.2921111111110184" width="0.4058888888888773" height="0.4058888888888773" fill="#E6E6E6" />
<rect x="0.005" y="3.7029999999998955" width="0.4058888888888773" height="0.4058888888888773" fill="#252525" />
<rect x="0.4158888888888773" y="3.7029999999998955" width="0.4058888888888773" height="0.4058888888888773" fill="#E6E6E6" />
<rect x="0.8267777777777546" y="3.7029999999998955" width="0.4058888888888773" height="0.4058888888888773" fill="#E6E6E6" />
<rect x="1.2376666666666318" y="3.7029999999998955" width="0.4058888888888773" height="0.4058888888888773" fill="#252525" />
<rect x="1.6485555555555091" y="3.7029999999998955" width="0.4058888888888773" height="0.4058888888888773" fill="#252525" />
<rect x="2.0594444444443862" y="3.7029999999998955" width="0.4058888888888773" height="0.4058888888888773" fill="#252525" />
<rect x="2.4703333333332638" y="3.7029999999998955" width="0.4058888888888773" height="0.4058888888888773" fill="#E6E6E6" />
<rect x="2.8812222222221413" y="3.7029999999998955" width="0.4058888888888773" height="0.4058888888888773" fill="#E6E6E6" />
<rect x="3.2921111111110184" y="3.7029999999998955" width="0.4058888888888773" height="0.4058888888888773" fill="#E6E6E6" />
<rect x="3.7029999999998955" y="3.7029999999998955" width="0.4058888888888773" height="0.4058888888888773" fill="#252525" />
<rect x="4.113888888888773" y="3.7029999999998955" width="0.4058888888888773" height="0.4058888888888773" fill="#E6E6E6" />
<rect x="4.5247777777776506" y="3.7029999999998955" width="0.4058888888888773" height="0.4058888888888773" fill="#252525" />
<rect x="4.935666666666528" y="3.7029999999998955" width="0.4058888888888773" height="0.4058888888888773" fill="#E6E6E6" />
<rect x="5.346555555555405" y="3.7029999999998955" width="0.4058888888888773" height="0.4058888888888773" fill="#E6E6E6" />
<rect x="5.757444444444283" y="3.7029999999998955" width="0.4058888888888773" height="0.4058888888888773" fill="#E6E6E6" />
<rect x="-0.02666666666666667" y="-0.02666666666666667" width="6.216666666666494" height="4.162222222222106" fill="none" stroke="#111111ff" stroke-width="0.08" />
<text x="6.16333333333316" y="4.577638888888773" font-size="0.375" fill="black" text-anchor="end" font-family="Anuphan">15x10</text>
<text x="-0.037500000000000006" y="4.577638888888773" font-size="0.375" fill="black" text-anchor="start" font-family="Anuphan" font-weight="600">Input 2</text>
</g>
<g id="d2">
<rect x="0.005" y="0.005" width="0.4058888888888773" height="0.4058888888888773" fill="#FF4136" />
<rect x="0.4158888888888773" y="0.005" width="0.4058888888888773" height="0.4058888888888773" fill="#FF4136" />
<rect x="0.8267777777777546" y="0.005" width="0.4058888888888773" height="0.4058888888888773" fill="#FF4136" />
<rect x="1.2376666666666318" y="0.005" width="0.4058888888888773" height="0.4058888888888773" fill="#FF4136" />
<rect x="1.6485555555555091" y="0.005" width="0.4058888888888773" height="0.4058888888888773" fill="#FF4136" />
<rect x="2.0594444444443862" y="0.005" width="0.4058888888888773" height="0.4058888888888773" fill="#FF4136" />
<rect x="2.4703333333332638" y="0.005" width="0.4058888888888773" height="0.4058888888888773" fill="#FF4136" />
<rect x="2.8812222222221413" y="0.005" width="0.4058888888888773" height="0.4058888888888773" fill="#FF4136" />
<rect x="3.2921111111110184" y="0.005" width="0.4058888888888773" height="0.4058888888888773" fill="#FF4136" />
<rect x="3.7029999999998955" y="0.005" width="0.4058888888888773" height="0.4058888888888773" fill="#FF4136" />
<rect x="4.113888888888773" y="0.005" width="0.4058888888888773" height="0.4058888888888773" fill="#FF4136" />
<rect x="4.5247777777776506" y="0.005" width="0.4058888888888773" height="0.4058888888888773" fill="#FF4136" />
<rect x="4.935666666666528" y="0.005" width="0.4058888888888773" height="0.4058888888888773" fill="#FF4136" />
<rect x="5.346555555555405" y="0.005" width="0.4058888888888773" height="0.4058888888888773" fill="#FF4136" />
<rect x="5.757444444444283" y="0.005" width="0.4058888888888773" height="0.4058888888888773" fill="#FF4136" />
<rect x="0.005" y="0.4158888888888773" width="0.4058888888888773" height="0.4058888888888773" fill="#FF4136" />
<rect x="0.4158888888888773" y="0.4158888888888773" width="0.4058888888888773" height="0.4058888888888773" fill="#252525" />
<rect x="0.8267777777777546" y="0.4158888888888773" width="0.4058888888888773" height="0.4058888888888773" fill="#FF4136" />
<rect x="1.2376666666666318" y="0.4158888888888773" width="0.4058888888888773" height="0.4058888888888773" fill="#FF4136" />
<rect x="1.6485555555555091" y="0.4158888888888773" width="0.4058888888888773" height="0.4058888888888773" fill="#FF4136" />
<rect x="2.0594444444443862" y="0.4158888888888773" width="0.4058888888888773" height="0.4058888888888773" fill="#FF4136" />
<rect x="2.4703333333332638" y="0.4158888888888773" width="0.4058888888888773" height="0.4058888888888773" fill="#252525" />
<rect x="2.8812222222221413" y="0.4158888888888773" width="0.4058888888888773" height="0.4058888888888773" fill="#FF4136" />
<rect x="3.2921111111110184" y="0.4158888888888773" width="0.4058888888888773" height="0.4058888888888773" fill="#252525" />
<rect x="3.7029999999998955" y="0.4158888888888773" width="0.4058888888888773" height="0.4058888888888773" fill="#FF4136" />
<rect x="4.113888888888773" y="0.4158888888888773" width="0.4058888888888773" height="0.4058888888888773" fill="#FF4136" />
<rect x="4.5247777777776506" y="0.4158888888888773" width="0.4058888888888773" height="0.4058888888888773" fill="#252525" />
<rect x="4.935666666666528" y="0.4158888888888773" width="0.4058888888888773" height="0.4058888888888773" fill="#FF4136" />
<rect x="5.346555555555405" y="0.4158888888888773" width="0.4058888888888773" height="0.4058888888888773" fill="#FF4136" />
<rect x="5.757444444444283" y="0.4158888888888773" width="0.4058888888888773" height="0.4058888888888773" fill="#FF4136" />
<rect x="0.005" y="0.8267777777777546" width="0.4058888888888773" height="0.4058888888888773" fill="#FF4136" />
<rect x="0.4158888888888773" y="0.8267777777777546" width="0.4058888888888773" height="0.4058888888888773" fill="#252525" />
<rect x="0.8267777777777546" y="0.8267777777777546" width="0.4058888888888773" height="0.4058888888888773" fill="#252525" />
<rect x="1.2376666666666318" y="0.8267777777777546" width="0.4058888888888773" height="0.4058888888888773" fill="#FF4136" />
<rect x="1.6485555555555091" y="0.8267777777777546" width="0.4058888888888773" height="0.4058888888888773" fill="#FF4136" />
<rect x="2.0594444444443862" y="0.8267777777777546" width="0.4058888888888773" height="0.4058888888888773" fill="#FF4136" />
<rect x="2.4703333333332638" y="0.8267777777777546" width="0.4058888888888773" height="0.4058888888888773" fill="#252525" />
<rect x="2.8812222222221413" y="0.8267777777777546" width="0.4058888888888773" height="0.4058888888888773" fill="#252525" />
<rect x="3.2921111111110184" y="0.8267777777777546" width="0.4058888888888773" height="0.4058888888888773" fill="#252525" />
<rect x="3.7029999999998955" y="0.8267777777777546" width="0.4058888888888773" height="0.4058888888888773" fill="#FF4136" />
<rect x="4.113888888888773" y="0.8267777777777546" width="0.4058888888888773" height="0.4058888888888773" fill="#FF4136" />
<rect x="4.5247777777776506" y="0.8267777777777546" width="0.4058888888888773" height="0.4058888888888773" fill="#252525" />
<rect x="4.935666666666528" y="0.8267777777777546" width="0.4058888888888773" height="0.4058888888888773" fill="#252525" />
<rect x="5.346555555555405" y="0.8267777777777546" width="0.4058888888888773" height="0.4058888888888773" fill="#252525" />
<rect x="5.757444444444283" y="0.8267777777777546" width="0.4058888888888773" height="0.4058888888888773" fill="#FF4136" />
<rect x="0.005" y="1.2376666666666318" width="0.4058888888888773" height="0.4058888888888773" fill="#252525" />
<rect x="0.4158888888888773" y="1.2376666666666318" width="0.4058888888888773" height="0.4058888888888773" fill="#252525" />
<rect x="0.8267777777777546" y="1.2376666666666318" width="0.4058888888888773" height="0.4058888888888773" fill="#252525" />
<rect x="1.2376666666666318" y="1.2376666666666318" width="0.4058888888888773" height="0.4058888888888773" fill="#252525" />
<rect x="1.6485555555555091" y="1.2376666666666318" width="0.4058888888888773" height="0.4058888888888773" fill="#252525" />
<rect x="2.0594444444443862" y="1.2376666666666318" width="0.4058888888888773" height="0.4058888888888773" fill="#252525" />
<rect x="2.4703333333332638" y="1.2376666666666318" width="0.4058888888888773" height="0.4058888888888773" fill="#252525" />
<rect x="2.8812222222221413" y="1.2376666666666318" width="0.4058888888888773" height="0.4058888888888773" fill="#252525" />
<rect x="3.2921111111110184" y="1.2376666666666318" width="0.4058888888888773" height="0.4058888888888773" fill="#252525" />
<rect x="3.7029999999998955" y="1.2376666666666318" width="0.4058888888888773" height="0.4058888888888773" fill="#252525" />
<rect x="4.113888888888773" y="1.2376666666666318" width="0.4058888888888773" height="0.4058888888888773" fill="#252525" />
<rect x="4.5247777777776506" y="1.2376666666666318" width="0.4058888888888773" height="0.4058888888888773" fill="#252525" />
<rect x="4.935666666666528" y="1.2376666666666318" width="0.4058888888888773" height="0.4058888888888773" fill="#252525" />
<rect x="5.346555555555405" y="1.2376666666666318" width="0.4058888888888773" height="0.4058888888888773" fill="#252525" />
<rect x="5.757444444444283" y="1.2376666666666318" width="0.4058888888888773" height="0.4058888888888773" fill="#252525" />
<rect x="0.005" y="1.6485555555555091" width="0.4058888888888773" height="0.4058888888888773" fill="#252525" />
<rect x="0.4158888888888773" y="1.6485555555555091" width="0.4058888888888773" height="0.4058888888888773" fill="#252525" />
<rect x="0.8267777777777546" y="1.6485555555555091" width="0.4058888888888773" height="0.4058888888888773" fill="#252525" />
<rect x="1.2376666666666318" y="1.6485555555555091" width="0.4058888888888773" height="0.4058888888888773" fill="#252525" />
<rect x="1.6485555555555091" y="1.6485555555555091" width="0.4058888888888773" height="0.4058888888888773" fill="#252525" />
<rect x="2.0594444444443862" y="1.6485555555555091" width="0.4058888888888773" height="0.4058888888888773" fill="#252525" />
<rect x="2.4703333333332638" y="1.6485555555555091" width="0.4058888888888773" height="0.4058888888888773" fill="#252525" />
<rect x="2.8812222222221413" y="1.6485555555555091" width="0.4058888888888773" height="0.4058888888888773" fill="#252525" />
<rect x="3.2921111111110184" y="1.6485555555555091" width="0.4058888888888773" height="0.4058888888888773" fill="#252525" />
<rect x="3.7029999999998955" y="1.6485555555555091" width="0.4058888888888773" height="0.4058888888888773" fill="#252525" />
<rect x="4.113888888888773" y="1.6485555555555091" width="0.4058888888888773" height="0.4058888888888773" fill="#252525" />
<rect x="4.5247777777776506" y="1.6485555555555091" width="0.4058888888888773" height="0.4058888888888773" fill="#252525" />
<rect x="4.935666666666528" y="1.6485555555555091" width="0.4058888888888773" height="0.4058888888888773" fill="#252525" />
<rect x="5.346555555555405" y="1.6485555555555091" width="0.4058888888888773" height="0.4058888888888773" fill="#252525" />
<rect x="5.757444444444283" y="1.6485555555555091" width="0.4058888888888773" height="0.4058888888888773" fill="#252525" />
<rect x="0.005" y="2.0594444444443862" width="0.4058888888888773" height="0.4058888888888773" fill="#252525" />
<rect x="0.4158888888888773" y="2.0594444444443862" width="0.4058888888888773" height="0.4058888888888773" fill="#252525" />
<rect x="0.8267777777777546" y="2.0594444444443862" width="0.4058888888888773" height="0.4058888888888773" fill="#252525" />
<rect x="1.2376666666666318" y="2.0594444444443862" width="0.4058888888888773" height="0.4058888888888773" fill="#252525" />
<rect x="1.6485555555555091" y="2.0594444444443862" width="0.4058888888888773" height="0.4058888888888773" fill="#252525" />
<rect x="2.0594444444443862" y="2.0594444444443862" width="0.4058888888888773" height="0.4058888888888773" fill="#252525" />
<rect x="2.4703333333332638" y="2.0594444444443862" width="0.4058888888888773" height="0.4058888888888773" fill="#252525" />
<rect x="2.8812222222221413" y="2.0594444444443862" width="0.4058888888888773" height="0.4058888888888773" fill="#252525" />
<rect x="3.2921111111110184" y="2.0594444444443862" width="0.4058888888888773" height="0.4058888888888773" fill="#252525" />
<rect x="3.7029999999998955" y="2.0594444444443862" width="0.4058888888888773" height="0.4058888888888773" fill="#252525" />
<rect x="4.113888888888773" y="2.0594444444443862" width="0.4058888888888773" height="0.4058888888888773" fill="#252525" />
<rect x="4.5247777777776506" y="2.0594444444443862" width="0.4058888888888773" height="0.4058888888888773" fill="#252525" />
<rect x="4.935666666666528" y="2.0594444444443862" width="0.4058888888888773" height="0.4058888888888773" fill="#252525" />
<rect x="5.346555555555405" y="2.0594444444443862" width="0.4058888888888773" height="0.4058888888888773" fill="#252525" />
<rect x="5.757444444444283" y="2.0594444444443862" width="0.4058888888888773" height="0.4058888888888773" fill="#252525" />
<rect x="0.005" y="2.4703333333332638" width="0.4058888888888773" height="0.4058888888888773" fill="#252525" />
<rect x="0.4158888888888773" y="2.4703333333332638" width="0.4058888888888773" height="0.4058888888888773" fill="#252525" />
<rect x="0.8267777777777546" y="2.4703333333332638" width="0.4058888888888773" height="0.4058888888888773" fill="#252525" />
<rect x="1.2376666666666318" y="2.4703333333332638" width="0.4058888888888773" height="0.4058888888888773" fill="#252525" />
<rect x="1.6485555555555091" y="2.4703333333332638" width="0.4058888888888773" height="0.4058888888888773" fill="#252525" />
<rect x="2.0594444444443862" y="2.4703333333332638" width="0.4058888888888773" height="0.4058888888888773" fill="#252525" />
<rect x="2.4703333333332638" y="2.4703333333332638" width="0.4058888888888773" height="0.4058888888888773" fill="#252525" />
<rect x="2.8812222222221413" y="2.4703333333332638" width="0.4058888888888773" height="0.4058888888888773" fill="#E6E6E6" />
<rect x="3.2921111111110184" y="2.4703333333332638" width="0.4058888888888773" height="0.4058888888888773" fill="#252525" />
<rect x="3.7029999999998955" y="2.4703333333332638" width="0.4058888888888773" height="0.4058888888888773" fill="#252525" />
<rect x="4.113888888888773" y="2.4703333333332638" width="0.4058888888888773" height="0.4058888888888773" fill="#252525" />
<rect x="4.5247777777776506" y="2.4703333333332638" width="0.4058888888888773" height="0.4058888888888773" fill="#E6E6E6" />
<rect x="4.935666666666528" y="2.4703333333332638" width="0.4058888888888773" height="0.4058888888888773" fill="#252525" />
<rect x="5.346555555555405" y="2.4703333333332638" width="0.4058888888888773" height="0.4058888888888773" fill="#E6E6E6" />
<rect x="5.757444444444283" y="2.4703333333332638" width="0.4058888888888773" height="0.4058888888888773" fill="#252525" />
<rect x="0.005" y="2.8812222222221413" width="0.4058888888888773" height="0.4058888888888773" fill="#252525" />
<rect x="0.4158888888888773" y="2.8812222222221413" width="0.4058888888888773" height="0.4058888888888773" fill="#E6E6E6" />
<rect x="0.8267777777777546" y="2.8812222222221413" width="0.4058888888888773" height="0.4058888888888773" fill="#252525" />
<rect x="1.2376666666666318" y="2.8812222222221413" width="0.4058888888888773" height="0.4058888888888773" fill="#252525" />
<rect x="1.6485555555555091" y="2.8812222222221413" width="0.4058888888888773" height="0.4058888888888773" fill="#252525" />
<rect x="2.0594444444443862" y="2.8812222222221413" width="0.4058888888888773" height="0.4058888888888773" fill="#252525" />
<rect x="2.4703333333332638" y="2.8812222222221413" width="0.4058888888888773" height="0.4058888888888773" fill="#252525" />
<rect x="2.8812222222221413" y="2.8812222222221413" width="0.4058888888888773" height="0.4058888888888773" fill="#E6E6E6" />
<rect x="3.2921111111110184" y="2.8812222222221413" width="0.4058888888888773" height="0.4058888888888773" fill="#E6E6E6" />
<rect x="3.7029999999998955" y="2.8812222222221413" width="0.4058888888888773" height="0.4058888888888773" fill="#252525" />
<rect x="4.113888888888773" y="2.8812222222221413" width="0.4058888888888773" height="0.4058888888888773" fill="#252525" />
<rect x="4.5247777777776506" y="2.8812222222221413" width="0.4058888888888773" height="0.4058888888888773" fill="#E6E6E6" />
<rect x="4.935666666666528" y="2.8812222222221413" width="0.4058888888888773" height="0.4058888888888773" fill="#E6E6E6" />
<rect x="5.346555555555405" y="2.8812222222221413" width="0.4058888888888773" height="0.4058888888888773" fill="#E6E6E6" />
<rect x="5.757444444444283" y="2.8812222222221413" width="0.4058888888888773" height="0.4058888888888773" fill="#252525" />
<rect x="0.005" y="3.2921111111110184" width="0.4058888888888773" height="0.4058888888888773" fill="#252525" />
<rect x="0.4158888888888773" y="3.2921111111110184" width="0.4058888888888773" height="0.4058888888888773" fill="#E6E6E6" />
<rect x="0.8267777777777546" y="3.2921111111110184" width="0.4058888888888773" height="0.4058888888888773" fill="#E6E6E6" />
<rect x="1.2376666666666318" y="3.2921111111110184" width="0.4058888888888773" height="0.4058888888888773" fill="#E6E6E6" />
<rect x="1.6485555555555091" y="3.2921111111110184" width="0.4058888888888773" height="0.4058888888888773" fill="#252525" />
<rect x="2.0594444444443862" y="3.2921111111110184" width="0.4058888888888773" height="0.4058888888888773" fill="#252525" />
<rect x="2.4703333333332638" y="3.2921111111110184" width="0.4058888888888773" height="0.4058888888888773" fill="#252525" />
<rect x="2.8812222222221413" y="3.2921111111110184" width="0.4058888888888773" height="0.4058888888888773" fill="#E6E6E6" />
<rect x="3.2921111111110184" y="3.2921111111110184" width="0.4058888888888773" height="0.4058888888888773" fill="#252525" />
<rect x="3.7029999999998955" y="3.2921111111110184" width="0.4058888888888773" height="0.4058888888888773" fill="#252525" />
<rect x="4.113888888888773" y="3.2921111111110184" width="0.4058888888888773" height="0.4058888888888773" fill="#252525" />
<rect x="4.5247777777776506" y="3.2921111111110184" width="0.4058888888888773" height="0.4058888888888773" fill="#E6E6E6" />
<rect x="4.935666666666528" y="3.2921111111110184" width="0.4058888888888773" height="0.4058888888888773" fill="#E6E6E6" />
<rect x="5.346555555555405" y="3.2921111111110184" width="0.4058888888888773" height="0.4058888888888773" fill="#E6E6E6" />
<rect x="5.757444444444283" y="3.2921111111110184" width="0.4058888888888773" height="0.4058888888888773" fill="#252525" />
<rect x="0.005" y="3.7029999999998955" width="0.4058888888888773" height="0.4058888888888773" fill="#252525" />
<rect x="0.4158888888888773" y="3.7029999999998955" width="0.4058888888888773" height="0.4058888888888773" fill="#E6E6E6" />
<rect x="0.8267777777777546" y="3.7029999999998955" width="0.4058888888888773" height="0.4058888888888773" fill="#E6E6E6" />
<rect x="1.2376666666666318" y="3.7029999999998955" width="0.4058888888888773" height="0.4058888888888773" fill="#E6E6E6" />
<rect x="1.6485555555555091" y="3.7029999999998955" width="0.4058888888888773" height="0.4058888888888773" fill="#E6E6E6" />
<rect x="2.0594444444443862" y="3.7029999999998955" width="0.4058888888888773" height="0.4058888888888773" fill="#252525" />
<rect x="2.4703333333332638" y="3.7029999999998955" width="0.4058888888888773" height="0.4058888888888773" fill="#252525" />
<rect x="2.8812222222221413" y="3.7029999999998955" width="0.4058888888888773" height="0.4058888888888773" fill="#E6E6E6" />
<rect x="3.2921111111110184" y="3.7029999999998955" width="0.4058888888888773" height="0.4058888888888773" fill="#E6E6E6" />
<rect x="3.7029999999998955" y="3.7029999999998955" width="0.4058888888888773" height="0.4058888888888773" fill="#252525" />
<rect x="4.113888888888773" y="3.7029999999998955" width="0.4058888888888773" height="0.4058888888888773" fill="#252525" />
<rect x="4.5247777777776506" y="3.7029999999998955" width="0.4058888888888773" height="0.4058888888888773" fill="#E6E6E6" />
<rect x="4.935666666666528" y="3.7029999999998955" width="0.4058888888888773" height="0.4058888888888773" fill="#E6E6E6" />
<rect x="5.346555555555405" y="3.7029999999998955" width="0.4058888888888773" height="0.4058888888888773" fill="#E6E6E6" />
<rect x="5.757444444444283" y="3.7029999999998955" width="0.4058888888888773" height="0.4058888888888773" fill="#252525" />
<rect x="-0.02666666666666667" y="-0.02666666666666667" width="6.216666666666494" height="4.162222222222106" fill="none" stroke="#111111ff" stroke-width="0.08" />
<text x="6.16333333333316" y="4.577638888888773" font-size="0.375" fill="black" text-anchor="end" font-family="Anuphan">15x10</text>
<text x="-0.037500000000000006" y="4.577638888888773" font-size="0.375" fill="black" text-anchor="start" font-family="Anuphan" font-weight="600">Test 1</text>
</g>
<g id="d3">
<rect x="0.005" y="0.005" width="0.4058888888888773" height="0.4058888888888773" fill="#FF4136" />
<rect x="0.4158888888888773" y="0.005" width="0.4058888888888773" height="0.4058888888888773" fill="#FF4136" />
<rect x="0.8267777777777546" y="0.005" width="0.4058888888888773" height="0.4058888888888773" fill="#FF4136" />
<rect x="1.2376666666666318" y="0.005" width="0.4058888888888773" height="0.4058888888888773" fill="#FF4136" />
<rect x="1.6485555555555091" y="0.005" width="0.4058888888888773" height="0.4058888888888773" fill="#FF4136" />
<rect x="2.0594444444443862" y="0.005" width="0.4058888888888773" height="0.4058888888888773" fill="#FF4136" />
<rect x="2.4703333333332638" y="0.005" width="0.4058888888888773" height="0.4058888888888773" fill="#FF4136" />
<rect x="2.8812222222221413" y="0.005" width="0.4058888888888773" height="0.4058888888888773" fill="#FF4136" />
<rect x="3.2921111111110184" y="0.005" width="0.4058888888888773" height="0.4058888888888773" fill="#FF4136" />
<rect x="3.7029999999998955" y="0.005" width="0.4058888888888773" height="0.4058888888888773" fill="#FF4136" />
<rect x="4.113888888888773" y="0.005" width="0.4058888888888773" height="0.4058888888888773" fill="#FF4136" />
<rect x="4.5247777777776506" y="0.005" width="0.4058888888888773" height="0.4058888888888773" fill="#FF4136" />
<rect x="4.935666666666528" y="0.005" width="0.4058888888888773" height="0.4058888888888773" fill="#FF4136" />
<rect x="5.346555555555405" y="0.005" width="0.4058888888888773" height="0.4058888888888773" fill="#FF4136" />
<rect x="5.757444444444283" y="0.005" width="0.4058888888888773" height="0.4058888888888773" fill="#FF4136" />
<rect x="0.005" y="0.4158888888888773" width="0.4058888888888773" height="0.4058888888888773" fill="#FF4136" />
<rect x="0.4158888888888773" y="0.4158888888888773" width="0.4058888888888773" height="0.4058888888888773" fill="#0074D9" />
<rect x="0.8267777777777546" y="0.4158888888888773" width="0.4058888888888773" height="0.4058888888888773" fill="#FF4136" />
<rect x="1.2376666666666318" y="0.4158888888888773" width="0.4058888888888773" height="0.4058888888888773" fill="#FF4136" />
<rect x="1.6485555555555091" y="0.4158888888888773" width="0.4058888888888773" height="0.4058888888888773" fill="#FF4136" />
<rect x="2.0594444444443862" y="0.4158888888888773" width="0.4058888888888773" height="0.4058888888888773" fill="#FF4136" />
<rect x="2.4703333333332638" y="0.4158888888888773" width="0.4058888888888773" height="0.4058888888888773" fill="#FF4136" />
<rect x="2.8812222222221413" y="0.4158888888888773" width="0.4058888888888773" height="0.4058888888888773" fill="#FF4136" />
<rect x="3.2921111111110184" y="0.4158888888888773" width="0.4058888888888773" height="0.4058888888888773" fill="#FF4136" />
<rect x="3.7029999999998955" y="0.4158888888888773" width="0.4058888888888773" height="0.4058888888888773" fill="#FF4136" />
<rect x="4.113888888888773" y="0.4158888888888773" width="0.4058888888888773" height="0.4058888888888773" fill="#FF4136" />
<rect x="4.5247777777776506" y="0.4158888888888773" width="0.4058888888888773" height="0.4058888888888773" fill="#FF4136" />
<rect x="4.935666666666528" y="0.4158888888888773" width="0.4058888888888773" height="0.4058888888888773" fill="#FF4136" />
<rect x="5.346555555555405" y="0.4158888888888773" width="0.4058888888888773" height="0.4058888888888773" fill="#FF4136" />
<rect x="5.757444444444283" y="0.4158888888888773" width="0.4058888888888773" height="0.4058888888888773" fill="#0074D9" />
<rect x="0.005" y="0.8267777777777546" width="0.4058888888888773" height="0.4058888888888773" fill="#FF4136" />
<rect x="0.4158888888888773" y="0.8267777777777546" width="0.4058888888888773" height="0.4058888888888773" fill="#0074D9" />
<rect x="0.8267777777777546" y="0.8267777777777546" width="0.4058888888888773" height="0.4058888888888773" fill="#0074D9" />
<rect x="1.2376666666666318" y="0.8267777777777546" width="0.4058888888888773" height="0.4058888888888773" fill="#FF4136" />
<rect x="1.6485555555555091" y="0.8267777777777546" width="0.4058888888888773" height="0.4058888888888773" fill="#FF4136" />
<rect x="2.0594444444443862" y="0.8267777777777546" width="0.4058888888888773" height="0.4058888888888773" fill="#FF4136" />
<rect x="2.4703333333332638" y="0.8267777777777546" width="0.4058888888888773" height="0.4058888888888773" fill="#0074D9" />
<rect x="2.8812222222221413" y="0.8267777777777546" width="0.4058888888888773" height="0.4058888888888773" fill="#0074D9" />
<rect x="3.2921111111110184" y="0.8267777777777546" width="0.4058888888888773" height="0.4058888888888773" fill="#0074D9" />
<rect x="3.7029999999998955" y="0.8267777777777546" width="0.4058888888888773" height="0.4058888888888773" fill="#FF4136" />
<rect x="4.113888888888773" y="0.8267777777777546" width="0.4058888888888773" height="0.4058888888888773" fill="#FF4136" />
<rect x="4.5247777777776506" y="0.8267777777777546" width="0.4058888888888773" height="0.4058888888888773" fill="#FF4136" />
<rect x="4.935666666666528" y="0.8267777777777546" width="0.4058888888888773" height="0.4058888888888773" fill="#FF4136" />
<rect x="5.346555555555405" y="0.8267777777777546" width="0.4058888888888773" height="0.4058888888888773" fill="#FF4136" />
<rect x="5.757444444444283" y="0.8267777777777546" width="0.4058888888888773" height="0.4058888888888773" fill="#0074D9" />
<rect x="0.005" y="1.2376666666666318" width="0.4058888888888773" height="0.4058888888888773" fill="#252525" />
<rect x="0.4158888888888773" y="1.2376666666666318" width="0.4058888888888773" height="0.4058888888888773" fill="#0074D9" />
<rect x="0.8267777777777546" y="1.2376666666666318" width="0.4058888888888773" height="0.4058888888888773" fill="#0074D9" />
<rect x="1.2376666666666318" y="1.2376666666666318" width="0.4058888888888773" height="0.4058888888888773" fill="#0074D9" />
<rect x="1.6485555555555091" y="1.2376666666666318" width="0.4058888888888773" height="0.4058888888888773" fill="#252525" />
<rect x="2.0594444444443862" y="1.2376666666666318" width="0.4058888888888773" height="0.4058888888888773" fill="#252525" />
<rect x="2.4703333333332638" y="1.2376666666666318" width="0.4058888888888773" height="0.4058888888888773" fill="#0074D9" />
<rect x="2.8812222222221413" y="1.2376666666666318" width="0.4058888888888773" height="0.4058888888888773" fill="#0074D9" />
<rect x="3.2921111111110184" y="1.2376666666666318" width="0.4058888888888773" height="0.4058888888888773" fill="#0074D9" />
<rect x="3.7029999999998955" y="1.2376666666666318" width="0.4058888888888773" height="0.4058888888888773" fill="#252525" />
<rect x="4.113888888888773" y="1.2376666666666318" width="0.4058888888888773" height="0.4058888888888773" fill="#252525" />
<rect x="4.5247777777776506" y="1.2376666666666318" width="0.4058888888888773" height="0.4058888888888773" fill="#252525" />
<rect x="4.935666666666528" y="1.2376666666666318" width="0.4058888888888773" height="0.4058888888888773" fill="#252525" />
<rect x="5.346555555555405" y="1.2376666666666318" width="0.4058888888888773" height="0.4058888888888773" fill="#252525" />
<rect x="5.757444444444283" y="1.2376666666666318" width="0.4058888888888773" height="0.4058888888888773" fill="#0074D9" />
<rect x="0.005" y="1.6485555555555091" width="0.4058888888888773" height="0.4058888888888773" fill="#252525" />
<rect x="0.4158888888888773" y="1.6485555555555091" width="0.4058888888888773" height="0.4058888888888773" fill="#252525" />
<rect x="0.8267777777777546" y="1.6485555555555091" width="0.4058888888888773" height="0.4058888888888773" fill="#252525" />
<rect x="1.2376666666666318" y="1.6485555555555091" width="0.4058888888888773" height="0.4058888888888773" fill="#252525" />
<rect x="1.6485555555555091" y="1.6485555555555091" width="0.4058888888888773" height="0.4058888888888773" fill="#252525" />
<rect x="2.0594444444443862" y="1.6485555555555091" width="0.4058888888888773" height="0.4058888888888773" fill="#252525" />
<rect x="2.4703333333332638" y="1.6485555555555091" width="0.4058888888888773" height="0.4058888888888773" fill="#252525" />
<rect x="2.8812222222221413" y="1.6485555555555091" width="0.4058888888888773" height="0.4058888888888773" fill="#252525" />
<rect x="3.2921111111110184" y="1.6485555555555091" width="0.4058888888888773" height="0.4058888888888773" fill="#252525" />
<rect x="3.7029999999998955" y="1.6485555555555091" width="0.4058888888888773" height="0.4058888888888773" fill="#252525" />
<rect x="4.113888888888773" y="1.6485555555555091" width="0.4058888888888773" height="0.4058888888888773" fill="#252525" />
<rect x="4.5247777777776506" y="1.6485555555555091" width="0.4058888888888773" height="0.4058888888888773" fill="#252525" />
<rect x="4.935666666666528" y="1.6485555555555091" width="0.4058888888888773" height="0.4058888888888773" fill="#252525" />
<rect x="5.346555555555405" y="1.6485555555555091" width="0.4058888888888773" height="0.4058888888888773" fill="#252525" />
<rect x="5.757444444444283" y="1.6485555555555091" width="0.4058888888888773" height="0.4058888888888773" fill="#0074D9" />
<rect x="0.005" y="2.0594444444443862" width="0.4058888888888773" height="0.4058888888888773" fill="#252525" />
<rect x="0.4158888888888773" y="2.0594444444443862" width="0.4058888888888773" height="0.4058888888888773" fill="#252525" />
<rect x="0.8267777777777546" y="2.0594444444443862" width="0.4058888888888773" height="0.4058888888888773" fill="#252525" />
<rect x="1.2376666666666318" y="2.0594444444443862" width="0.4058888888888773" height="0.4058888888888773" fill="#252525" />
<rect x="1.6485555555555091" y="2.0594444444443862" width="0.4058888888888773" height="0.4058888888888773" fill="#252525" />
<rect x="2.0594444444443862" y="2.0594444444443862" width="0.4058888888888773" height="0.4058888888888773" fill="#252525" />
<rect x="2.4703333333332638" y="2.0594444444443862" width="0.4058888888888773" height="0.4058888888888773" fill="#252525" />
<rect x="2.8812222222221413" y="2.0594444444443862" width="0.4058888888888773" height="0.4058888888888773" fill="#252525" />
<rect x="3.2921111111110184" y="2.0594444444443862" width="0.4058888888888773" height="0.4058888888888773" fill="#252525" />
<rect x="3.7029999999998955" y="2.0594444444443862" width="0.4058888888888773" height="0.4058888888888773" fill="#252525" />
<rect x="4.113888888888773" y="2.0594444444443862" width="0.4058888888888773" height="0.4058888888888773" fill="#252525" />
<rect x="4.5247777777776506" y="2.0594444444443862" width="0.4058888888888773" height="0.4058888888888773" fill="#252525" />
<rect x="4.935666666666528" y="2.0594444444443862" width="0.4058888888888773" height="0.4058888888888773" fill="#252525" />
<rect x="5.346555555555405" y="2.0594444444443862" width="0.4058888888888773" height="0.4058888888888773" fill="#252525" />
<rect x="5.757444444444283" y="2.0594444444443862" width="0.4058888888888773" height="0.4058888888888773" fill="#252525" />
<rect x="0.005" y="2.4703333333332638" width="0.4058888888888773" height="0.4058888888888773" fill="#252525" />
<rect x="0.4158888888888773" y="2.4703333333332638" width="0.4058888888888773" height="0.4058888888888773" fill="#252525" />
<rect x="0.8267777777777546" y="2.4703333333332638" width="0.4058888888888773" height="0.4058888888888773" fill="#252525" />
<rect x="1.2376666666666318" y="2.4703333333332638" width="0.4058888888888773" height="0.4058888888888773" fill="#252525" />
<rect x="1.6485555555555091" y="2.4703333333332638" width="0.4058888888888773" height="0.4058888888888773" fill="#252525" />
<rect x="2.0594444444443862" y="2.4703333333332638" width="0.4058888888888773" height="0.4058888888888773" fill="#252525" />
<rect x="2.4703333333332638" y="2.4703333333332638" width="0.4058888888888773" height="0.4058888888888773" fill="#252525" />
<rect x="2.8812222222221413" y="2.4703333333332638" width="0.4058888888888773" height="0.4058888888888773" fill="#252525" />
<rect x="3.2921111111110184" y="2.4703333333332638" width="0.4058888888888773" height="0.4058888888888773" fill="#252525" />
<rect x="3.7029999999998955" y="2.4703333333332638" width="0.4058888888888773" height="0.4058888888888773" fill="#252525" />
<rect x="4.113888888888773" y="2.4703333333332638" width="0.4058888888888773" height="0.4058888888888773" fill="#252525" />
<rect x="4.5247777777776506" y="2.4703333333332638" width="0.4058888888888773" height="0.4058888888888773" fill="#252525" />
<rect x="4.935666666666528" y="2.4703333333332638" width="0.4058888888888773" height="0.4058888888888773" fill="#252525" />
<rect x="5.346555555555405" y="2.4703333333332638" width="0.4058888888888773" height="0.4058888888888773" fill="#252525" />
<rect x="5.757444444444283" y="2.4703333333332638" width="0.4058888888888773" height="0.4058888888888773" fill="#252525" />
<rect x="0.005" y="2.8812222222221413" width="0.4058888888888773" height="0.4058888888888773" fill="#252525" />
<rect x="0.4158888888888773" y="2.8812222222221413" width="0.4058888888888773" height="0.4058888888888773" fill="#252525" />
<rect x="0.8267777777777546" y="2.8812222222221413" width="0.4058888888888773" height="0.4058888888888773" fill="#252525" />
<rect x="1.2376666666666318" y="2.8812222222221413" width="0.4058888888888773" height="0.4058888888888773" fill="#252525" />
<rect x="1.6485555555555091" y="2.8812222222221413" width="0.4058888888888773" height="0.4058888888888773" fill="#252525" />
<rect x="2.0594444444443862" y="2.8812222222221413" width="0.4058888888888773" height="0.4058888888888773" fill="#252525" />
<rect x="2.4703333333332638" y="2.8812222222221413" width="0.4058888888888773" height="0.4058888888888773" fill="#252525" />
<rect x="2.8812222222221413" y="2.8812222222221413" width="0.4058888888888773" height="0.4058888888888773" fill="#252525" />
<rect x="3.2921111111110184" y="2.8812222222221413" width="0.4058888888888773" height="0.4058888888888773" fill="#252525" />
<rect x="3.7029999999998955" y="2.8812222222221413" width="0.4058888888888773" height="0.4058888888888773" fill="#252525" />
<rect x="4.113888888888773" y="2.8812222222221413" width="0.4058888888888773" height="0.4058888888888773" fill="#252525" />
<rect x="4.5247777777776506" y="2.8812222222221413" width="0.4058888888888773" height="0.4058888888888773" fill="#252525" />
<rect x="4.935666666666528" y="2.8812222222221413" width="0.4058888888888773" height="0.4058888888888773" fill="#252525" />
<rect x="5.346555555555405" y="2.8812222222221413" width="0.4058888888888773" height="0.4058888888888773" fill="#252525" />
<rect x="5.757444444444283" y="2.8812222222221413" width="0.4058888888888773" height="0.4058888888888773" fill="#252525" />
<rect x="0.005" y="3.2921111111110184" width="0.4058888888888773" height="0.4058888888888773" fill="#252525" />
<rect x="0.4158888888888773" y="3.2921111111110184" width="0.4058888888888773" height="0.4058888888888773" fill="#252525" />
<rect x="0.8267777777777546" y="3.2921111111110184" width="0.4058888888888773" height="0.4058888888888773" fill="#252525" />
<rect x="1.2376666666666318" y="3.2921111111110184" width="0.4058888888888773" height="0.4058888888888773" fill="#252525" />
<rect x="1.6485555555555091" y="3.2921111111110184" width="0.4058888888888773" height="0.4058888888888773" fill="#252525" />
<rect x="2.0594444444443862" y="3.2921111111110184" width="0.4058888888888773" height="0.4058888888888773" fill="#252525" />
<rect x="2.4703333333332638" y="3.2921111111110184" width="0.4058888888888773" height="0.4058888888888773" fill="#252525" />
<rect x="2.8812222222221413" y="3.2921111111110184" width="0.4058888888888773" height="0.4058888888888773" fill="#252525" />
<rect x="3.2921111111110184" y="3.2921111111110184" width="0.4058888888888773" height="0.4058888888888773" fill="#252525" />
<rect x="3.7029999999998955" y="3.2921111111110184" width="0.4058888888888773" height="0.4058888888888773" fill="#252525" />
<rect x="4.113888888888773" y="3.2921111111110184" width="0.4058888888888773" height="0.4058888888888773" fill="#252525" />
<rect x="4.5247777777776506" y="3.2921111111110184" width="0.4058888888888773" height="0.4058888888888773" fill="#252525" />
<rect x="4.935666666666528" y="3.2921111111110184" width="0.4058888888888773" height="0.4058888888888773" fill="#252525" />
<rect x="5.346555555555405" y="3.2921111111110184" width="0.4058888888888773" height="0.4058888888888773" fill="#252525" />
<rect x="5.757444444444283" y="3.2921111111110184" width="0.4058888888888773" height="0.4058888888888773" fill="#252525" />
<rect x="0.005" y="3.7029999999998955" width="0.4058888888888773" height="0.4058888888888773" fill="#252525" />
<rect x="0.4158888888888773" y="3.7029999999998955" width="0.4058888888888773" height="0.4058888888888773" fill="#252525" />
<rect x="0.8267777777777546" y="3.7029999999998955" width="0.4058888888888773" height="0.4058888888888773" fill="#252525" />
<rect x="1.2376666666666318" y="3.7029999999998955" width="0.4058888888888773" height="0.4058888888888773" fill="#252525" />
<rect x="1.6485555555555091" y="3.7029999999998955" width="0.4058888888888773" height="0.4058888888888773" fill="#252525" />
<rect x="2.0594444444443862" y="3.7029999999998955" width="0.4058888888888773" height="0.4058888888888773" fill="#252525" />
<rect x="2.4703333333332638" y="3.7029999999998955" width="0.4058888888888773" height="0.4058888888888773" fill="#252525" />
<rect x="2.8812222222221413" y="3.7029999999998955" width="0.4058888888888773" height="0.4058888888888773" fill="#252525" />
<rect x="3.2921111111110184" y="3.7029999999998955" width="0.4058888888888773" height="0.4058888888888773" fill="#252525" />
<rect x="3.7029999999998955" y="3.7029999999998955" width="0.4058888888888773" height="0.4058888888888773" fill="#252525" />
<rect x="4.113888888888773" y="3.7029999999998955" width="0.4058888888888773" height="0.4058888888888773" fill="#252525" />
<rect x="4.5247777777776506" y="3.7029999999998955" width="0.4058888888888773" height="0.4058888888888773" fill="#252525" />
<rect x="4.935666666666528" y="3.7029999999998955" width="0.4058888888888773" height="0.4058888888888773" fill="#252525" />
<rect x="5.346555555555405" y="3.7029999999998955" width="0.4058888888888773" height="0.4058888888888773" fill="#252525" />
<rect x="5.757444444444283" y="3.7029999999998955" width="0.4058888888888773" height="0.4058888888888773" fill="#252525" />
<rect x="-0.02666666666666667" y="-0.02666666666666667" width="6.216666666666494" height="4.162222222222106" fill="none" stroke="#111111ff" stroke-width="0.08" />
<text x="6.16333333333316" y="4.577638888888773" font-size="0.375" fill="black" text-anchor="end" font-family="Anuphan">15x10</text>
<text x="-0.037500000000000006" y="4.577638888888773" font-size="0.375" fill="black" text-anchor="start" font-family="Anuphan" font-weight="600">Output 1</text>
</g>
<g id="d4">
<rect x="0.005" y="0.005" width="0.4058888888888773" height="0.4058888888888773" fill="#FF4136" />
<rect x="0.4158888888888773" y="0.005" width="0.4058888888888773" height="0.4058888888888773" fill="#FF4136" />
<rect x="0.8267777777777546" y="0.005" width="0.4058888888888773" height="0.4058888888888773" fill="#FF4136" />
<rect x="1.2376666666666318" y="0.005" width="0.4058888888888773" height="0.4058888888888773" fill="#FF4136" />
<rect x="1.6485555555555091" y="0.005" width="0.4058888888888773" height="0.4058888888888773" fill="#FF4136" />
<rect x="2.0594444444443862" y="0.005" width="0.4058888888888773" height="0.4058888888888773" fill="#FF4136" />
<rect x="2.4703333333332638" y="0.005" width="0.4058888888888773" height="0.4058888888888773" fill="#FF4136" />
<rect x="2.8812222222221413" y="0.005" width="0.4058888888888773" height="0.4058888888888773" fill="#FF4136" />
<rect x="3.2921111111110184" y="0.005" width="0.4058888888888773" height="0.4058888888888773" fill="#FF4136" />
<rect x="3.7029999999998955" y="0.005" width="0.4058888888888773" height="0.4058888888888773" fill="#FF4136" />
<rect x="4.113888888888773" y="0.005" width="0.4058888888888773" height="0.4058888888888773" fill="#FF4136" />
<rect x="4.5247777777776506" y="0.005" width="0.4058888888888773" height="0.4058888888888773" fill="#FF4136" />
<rect x="4.935666666666528" y="0.005" width="0.4058888888888773" height="0.4058888888888773" fill="#FF4136" />
<rect x="5.346555555555405" y="0.005" width="0.4058888888888773" height="0.4058888888888773" fill="#FF4136" />
<rect x="5.757444444444283" y="0.005" width="0.4058888888888773" height="0.4058888888888773" fill="#FF4136" />
<rect x="0.005" y="0.4158888888888773" width="0.4058888888888773" height="0.4058888888888773" fill="#FF4136" />
<rect x="0.4158888888888773" y="0.4158888888888773" width="0.4058888888888773" height="0.4058888888888773" fill="#FF4136" />
<rect x="0.8267777777777546" y="0.4158888888888773" width="0.4058888888888773" height="0.4058888888888773" fill="#FF4136" />
<rect x="1.2376666666666318" y="0.4158888888888773" width="0.4058888888888773" height="0.4058888888888773" fill="#FF4136" />
<rect x="1.6485555555555091" y="0.4158888888888773" width="0.4058888888888773" height="0.4058888888888773" fill="#0074D9" />
<rect x="2.0594444444443862" y="0.4158888888888773" width="0.4058888888888773" height="0.4058888888888773" fill="#FF4136" />
<rect x="2.4703333333332638" y="0.4158888888888773" width="0.4058888888888773" height="0.4058888888888773" fill="#FF4136" />
<rect x="2.8812222222221413" y="0.4158888888888773" width="0.4058888888888773" height="0.4058888888888773" fill="#FF4136" />
<rect x="3.2921111111110184" y="0.4158888888888773" width="0.4058888888888773" height="0.4058888888888773" fill="#0074D9" />
<rect x="3.7029999999998955" y="0.4158888888888773" width="0.4058888888888773" height="0.4058888888888773" fill="#FF4136" />
<rect x="4.113888888888773" y="0.4158888888888773" width="0.4058888888888773" height="0.4058888888888773" fill="#FF4136" />
<rect x="4.5247777777776506" y="0.4158888888888773" width="0.4058888888888773" height="0.4058888888888773" fill="#0074D9" />
<rect x="4.935666666666528" y="0.4158888888888773" width="0.4058888888888773" height="0.4058888888888773" fill="#0074D9" />
<rect x="5.346555555555405" y="0.4158888888888773" width="0.4058888888888773" height="0.4058888888888773" fill="#FF4136" />
<rect x="5.757444444444283" y="0.4158888888888773" width="0.4058888888888773" height="0.4058888888888773" fill="#FF4136" />
<rect x="0.005" y="0.8267777777777546" width="0.4058888888888773" height="0.4058888888888773" fill="#FF4136" />
<rect x="0.4158888888888773" y="0.8267777777777546" width="0.4058888888888773" height="0.4058888888888773" fill="#0074D9" />
<rect x="0.8267777777777546" y="0.8267777777777546" width="0.4058888888888773" height="0.4058888888888773" fill="#0074D9" />
<rect x="1.2376666666666318" y="0.8267777777777546" width="0.4058888888888773" height="0.4058888888888773" fill="#FF4136" />
<rect x="1.6485555555555091" y="0.8267777777777546" width="0.4058888888888773" height="0.4058888888888773" fill="#0074D9" />
<rect x="2.0594444444443862" y="0.8267777777777546" width="0.4058888888888773" height="0.4058888888888773" fill="#FF4136" />
<rect x="2.4703333333332638" y="0.8267777777777546" width="0.4058888888888773" height="0.4058888888888773" fill="#FF4136" />
<rect x="2.8812222222221413" y="0.8267777777777546" width="0.4058888888888773" height="0.4058888888888773" fill="#0074D9" />
<rect x="3.2921111111110184" y="0.8267777777777546" width="0.4058888888888773" height="0.4058888888888773" fill="#0074D9" />
<rect x="3.7029999999998955" y="0.8267777777777546" width="0.4058888888888773" height="0.4058888888888773" fill="#0074D9" />
<rect x="4.113888888888773" y="0.8267777777777546" width="0.4058888888888773" height="0.4058888888888773" fill="#FF4136" />
<rect x="4.5247777777776506" y="0.8267777777777546" width="0.4058888888888773" height="0.4058888888888773" fill="#0074D9" />
<rect x="4.935666666666528" y="0.8267777777777546" width="0.4058888888888773" height="0.4058888888888773" fill="#0074D9" />
<rect x="5.346555555555405" y="0.8267777777777546" width="0.4058888888888773" height="0.4058888888888773" fill="#FF4136" />
<rect x="5.757444444444283" y="0.8267777777777546" width="0.4058888888888773" height="0.4058888888888773" fill="#FF4136" />
<rect x="0.005" y="1.2376666666666318" width="0.4058888888888773" height="0.4058888888888773" fill="#0074D9" />
<rect x="0.4158888888888773" y="1.2376666666666318" width="0.4058888888888773" height="0.4058888888888773" fill="#0074D9" />
<rect x="0.8267777777777546" y="1.2376666666666318" width="0.4058888888888773" height="0.4058888888888773" fill="#0074D9" />
<rect x="1.2376666666666318" y="1.2376666666666318" width="0.4058888888888773" height="0.4058888888888773" fill="#252525" />
<rect x="1.6485555555555091" y="1.2376666666666318" width="0.4058888888888773" height="0.4058888888888773" fill="#0074D9" />
<rect x="2.0594444444443862" y="1.2376666666666318" width="0.4058888888888773" height="0.4058888888888773" fill="#252525" />
<rect x="2.4703333333332638" y="1.2376666666666318" width="0.4058888888888773" height="0.4058888888888773" fill="#252525" />
<rect x="2.8812222222221413" y="1.2376666666666318" width="0.4058888888888773" height="0.4058888888888773" fill="#252525" />
<rect x="3.2921111111110184" y="1.2376666666666318" width="0.4058888888888773" height="0.4058888888888773" fill="#252525" />
<rect x="3.7029999999998955" y="1.2376666666666318" width="0.4058888888888773" height="0.4058888888888773" fill="#252525" />
<rect x="4.113888888888773" y="1.2376666666666318" width="0.4058888888888773" height="0.4058888888888773" fill="#0074D9" />
<rect x="4.5247777777776506" y="1.2376666666666318" width="0.4058888888888773" height="0.4058888888888773" fill="#0074D9" />
<rect x="4.935666666666528" y="1.2376666666666318" width="0.4058888888888773" height="0.4058888888888773" fill="#0074D9" />
<rect x="5.346555555555405" y="1.2376666666666318" width="0.4058888888888773" height="0.4058888888888773" fill="#0074D9" />
<rect x="5.757444444444283" y="1.2376666666666318" width="0.4058888888888773" height="0.4058888888888773" fill="#252525" />
<rect x="0.005" y="1.6485555555555091" width="0.4058888888888773" height="0.4058888888888773" fill="#252525" />
<rect x="0.4158888888888773" y="1.6485555555555091" width="0.4058888888888773" height="0.4058888888888773" fill="#252525" />
<rect x="0.8267777777777546" y="1.6485555555555091" width="0.4058888888888773" height="0.4058888888888773" fill="#252525" />
<rect x="1.2376666666666318" y="1.6485555555555091" width="0.4058888888888773" height="0.4058888888888773" fill="#252525" />
<rect x="1.6485555555555091" y="1.6485555555555091" width="0.4058888888888773" height="0.4058888888888773" fill="#252525" />
<rect x="2.0594444444443862" y="1.6485555555555091" width="0.4058888888888773" height="0.4058888888888773" fill="#252525" />
<rect x="2.4703333333332638" y="1.6485555555555091" width="0.4058888888888773" height="0.4058888888888773" fill="#252525" />
<rect x="2.8812222222221413" y="1.6485555555555091" width="0.4058888888888773" height="0.4058888888888773" fill="#252525" />
<rect x="3.2921111111110184" y="1.6485555555555091" width="0.4058888888888773" height="0.4058888888888773" fill="#252525" />
<rect x="3.7029999999998955" y="1.6485555555555091" width="0.4058888888888773" height="0.4058888888888773" fill="#252525" />
<rect x="4.113888888888773" y="1.6485555555555091" width="0.4058888888888773" height="0.4058888888888773" fill="#252525" />
<rect x="4.5247777777776506" y="1.6485555555555091" width="0.4058888888888773" height="0.4058888888888773" fill="#0074D9" />
<rect x="4.935666666666528" y="1.6485555555555091" width="0.4058888888888773" height="0.4058888888888773" fill="#0074D9" />
<rect x="5.346555555555405" y="1.6485555555555091" width="0.4058888888888773" height="0.4058888888888773" fill="#252525" />
<rect x="5.757444444444283" y="1.6485555555555091" width="0.4058888888888773" height="0.4058888888888773" fill="#252525" />
<rect x="0.005" y="2.0594444444443862" width="0.4058888888888773" height="0.4058888888888773" fill="#252525" />
<rect x="0.4158888888888773" y="2.0594444444443862" width="0.4058888888888773" height="0.4058888888888773" fill="#252525" />
<rect x="0.8267777777777546" y="2.0594444444443862" width="0.4058888888888773" height="0.4058888888888773" fill="#252525" />
<rect x="1.2376666666666318" y="2.0594444444443862" width="0.4058888888888773" height="0.4058888888888773" fill="#252525" />
<rect x="1.6485555555555091" y="2.0594444444443862" width="0.4058888888888773" height="0.4058888888888773" fill="#252525" />
<rect x="2.0594444444443862" y="2.0594444444443862" width="0.4058888888888773" height="0.4058888888888773" fill="#252525" />
<rect x="2.4703333333332638" y="2.0594444444443862" width="0.4058888888888773" height="0.4058888888888773" fill="#252525" />
<rect x="2.8812222222221413" y="2.0594444444443862" width="0.4058888888888773" height="0.4058888888888773" fill="#252525" />
<rect x="3.2921111111110184" y="2.0594444444443862" width="0.4058888888888773" height="0.4058888888888773" fill="#252525" />
<rect x="3.7029999999998955" y="2.0594444444443862" width="0.4058888888888773" height="0.4058888888888773" fill="#252525" />
<rect x="4.113888888888773" y="2.0594444444443862" width="0.4058888888888773" height="0.4058888888888773" fill="#252525" />
<rect x="4.5247777777776506" y="2.0594444444443862" width="0.4058888888888773" height="0.4058888888888773" fill="#252525" />
<rect x="4.935666666666528" y="2.0594444444443862" width="0.4058888888888773" height="0.4058888888888773" fill="#252525" />
<rect x="5.346555555555405" y="2.0594444444443862" width="0.4058888888888773" height="0.4058888888888773" fill="#252525" />
<rect x="5.757444444444283" y="2.0594444444443862" width="0.4058888888888773" height="0.4058888888888773" fill="#252525" />
<rect x="0.005" y="2.4703333333332638" width="0.4058888888888773" height="0.4058888888888773" fill="#252525" />
<rect x="0.4158888888888773" y="2.4703333333332638" width="0.4058888888888773" height="0.4058888888888773" fill="#252525" />
<rect x="0.8267777777777546" y="2.4703333333332638" width="0.4058888888888773" height="0.4058888888888773" fill="#252525" />
<rect x="1.2376666666666318" y="2.4703333333332638" width="0.4058888888888773" height="0.4058888888888773" fill="#252525" />
<rect x="1.6485555555555091" y="2.4703333333332638" width="0.4058888888888773" height="0.4058888888888773" fill="#252525" />
<rect x="2.0594444444443862" y="2.4703333333332638" width="0.4058888888888773" height="0.4058888888888773" fill="#252525" />
<rect x="2.4703333333332638" y="2.4703333333332638" width="0.4058888888888773" height="0.4058888888888773" fill="#252525" />
<rect x="2.8812222222221413" y="2.4703333333332638" width="0.4058888888888773" height="0.4058888888888773" fill="#252525" />
<rect x="3.2921111111110184" y="2.4703333333332638" width="0.4058888888888773" height="0.4058888888888773" fill="#252525" />
<rect x="3.7029999999998955" y="2.4703333333332638" width="0.4058888888888773" height="0.4058888888888773" fill="#252525" />
<rect x="4.113888888888773" y="2.4703333333332638" width="0.4058888888888773" height="0.4058888888888773" fill="#252525" />
<rect x="4.5247777777776506" y="2.4703333333332638" width="0.4058888888888773" height="0.4058888888888773" fill="#252525" />
<rect x="4.935666666666528" y="2.4703333333332638" width="0.4058888888888773" height="0.4058888888888773" fill="#252525" />
<rect x="5.346555555555405" y="2.4703333333332638" width="0.4058888888888773" height="0.4058888888888773" fill="#252525" />
<rect x="5.757444444444283" y="2.4703333333332638" width="0.4058888888888773" height="0.4058888888888773" fill="#252525" />
<rect x="0.005" y="2.8812222222221413" width="0.4058888888888773" height="0.4058888888888773" fill="#252525" />
<rect x="0.4158888888888773" y="2.8812222222221413" width="0.4058888888888773" height="0.4058888888888773" fill="#252525" />
<rect x="0.8267777777777546" y="2.8812222222221413" width="0.4058888888888773" height="0.4058888888888773" fill="#252525" />
<rect x="1.2376666666666318" y="2.8812222222221413" width="0.4058888888888773" height="0.4058888888888773" fill="#252525" />
<rect x="1.6485555555555091" y="2.8812222222221413" width="0.4058888888888773" height="0.4058888888888773" fill="#252525" />
<rect x="2.0594444444443862" y="2.8812222222221413" width="0.4058888888888773" height="0.4058888888888773" fill="#252525" />
<rect x="2.4703333333332638" y="2.8812222222221413" width="0.4058888888888773" height="0.4058888888888773" fill="#252525" />
<rect x="2.8812222222221413" y="2.8812222222221413" width="0.4058888888888773" height="0.4058888888888773" fill="#252525" />
<rect x="3.2921111111110184" y="2.8812222222221413" width="0.4058888888888773" height="0.4058888888888773" fill="#252525" />
<rect x="3.7029999999998955" y="2.8812222222221413" width="0.4058888888888773" height="0.4058888888888773" fill="#252525" />
<rect x="4.113888888888773" y="2.8812222222221413" width="0.4058888888888773" height="0.4058888888888773" fill="#252525" />
<rect x="4.5247777777776506" y="2.8812222222221413" width="0.4058888888888773" height="0.4058888888888773" fill="#252525" />
<rect x="4.935666666666528" y="2.8812222222221413" width="0.4058888888888773" height="0.4058888888888773" fill="#252525" />
<rect x="5.346555555555405" y="2.8812222222221413" width="0.4058888888888773" height="0.4058888888888773" fill="#252525" />
<rect x="5.757444444444283" y="2.8812222222221413" width="0.4058888888888773" height="0.4058888888888773" fill="#252525" />
<rect x="0.005" y="3.2921111111110184" width="0.4058888888888773" height="0.4058888888888773" fill="#252525" />
<rect x="0.4158888888888773" y="3.2921111111110184" width="0.4058888888888773" height="0.4058888888888773" fill="#252525" />
<rect x="0.8267777777777546" y="3.2921111111110184" width="0.4058888888888773" height="0.4058888888888773" fill="#252525" />
<rect x="1.2376666666666318" y="3.2921111111110184" width="0.4058888888888773" height="0.4058888888888773" fill="#252525" />
<rect x="1.6485555555555091" y="3.2921111111110184" width="0.4058888888888773" height="0.4058888888888773" fill="#252525" />
<rect x="2.0594444444443862" y="3.2921111111110184" width="0.4058888888888773" height="0.4058888888888773" fill="#252525" />
<rect x="2.4703333333332638" y="3.2921111111110184" width="0.4058888888888773" height="0.4058888888888773" fill="#252525" />
<rect x="2.8812222222221413" y="3.2921111111110184" width="0.4058888888888773" height="0.4058888888888773" fill="#252525" />
<rect x="3.2921111111110184" y="3.2921111111110184" width="0.4058888888888773" height="0.4058888888888773" fill="#252525" />
<rect x="3.7029999999998955" y="3.2921111111110184" width="0.4058888888888773" height="0.4058888888888773" fill="#252525" />
<rect x="4.113888888888773" y="3.2921111111110184" width="0.4058888888888773" height="0.4058888888888773" fill="#252525" />
<rect x="4.5247777777776506" y="3.2921111111110184" width="0.4058888888888773" height="0.4058888888888773" fill="#252525" />
<rect x="4.935666666666528" y="3.2921111111110184" width="0.4058888888888773" height="0.4058888888888773" fill="#252525" />
<rect x="5.346555555555405" y="3.2921111111110184" width="0.4058888888888773" height="0.4058888888888773" fill="#252525" />
<rect x="5.757444444444283" y="3.2921111111110184" width="0.4058888888888773" height="0.4058888888888773" fill="#252525" />
<rect x="0.005" y="3.7029999999998955" width="0.4058888888888773" height="0.4058888888888773" fill="#252525" />
<rect x="0.4158888888888773" y="3.7029999999998955" width="0.4058888888888773" height="0.4058888888888773" fill="#252525" />
<rect x="0.8267777777777546" y="3.7029999999998955" width="0.4058888888888773" height="0.4058888888888773" fill="#252525" />
<rect x="1.2376666666666318" y="3.7029999999998955" width="0.4058888888888773" height="0.4058888888888773" fill="#252525" />
<rect x="1.6485555555555091" y="3.7029999999998955" width="0.4058888888888773" height="0.4058888888888773" fill="#252525" />
<rect x="2.0594444444443862" y="3.7029999999998955" width="0.4058888888888773" height="0.4058888888888773" fill="#252525" />
<rect x="2.4703333333332638" y="3.7029999999998955" width="0.4058888888888773" height="0.4058888888888773" fill="#252525" />
<rect x="2.8812222222221413" y="3.7029999999998955" width="0.4058888888888773" height="0.4058888888888773" fill="#252525" />
<rect x="3.2921111111110184" y="3.7029999999998955" width="0.4058888888888773" height="0.4058888888888773" fill="#252525" />
<rect x="3.7029999999998955" y="3.7029999999998955" width="0.4058888888888773" height="0.4058888888888773" fill="#252525" />
<rect x="4.113888888888773" y="3.7029999999998955" width="0.4058888888888773" height="0.4058888888888773" fill="#252525" />
<rect x="4.5247777777776506" y="3.7029999999998955" width="0.4058888888888773" height="0.4058888888888773" fill="#252525" />
<rect x="4.935666666666528" y="3.7029999999998955" width="0.4058888888888773" height="0.4058888888888773" fill="#252525" />
<rect x="5.346555555555405" y="3.7029999999998955" width="0.4058888888888773" height="0.4058888888888773" fill="#252525" />
<rect x="5.757444444444283" y="3.7029999999998955" width="0.4058888888888773" height="0.4058888888888773" fill="#252525" />
<rect x="-0.02666666666666667" y="-0.02666666666666667" width="6.216666666666494" height="4.162222222222106" fill="none" stroke="#111111ff" stroke-width="0.08" />
<text x="6.16333333333316" y="4.577638888888773" font-size="0.375" fill="black" text-anchor="end" font-family="Anuphan">15x10</text>
<text x="-0.037500000000000006" y="4.577638888888773" font-size="0.375" fill="black" text-anchor="start" font-family="Anuphan" font-weight="600">Output 2</text>
</g>
</defs>
<rect x="0" y="0" width="100%" height="100%" fill="#eeeff6" />
<use xlink:href="#d0" x="0.25" y="0.25" />
<use xlink:href="#d1" x="6.91333333333316" y="0.25" />
<use xlink:href="#d2" x="13.57666666666632" y="0.25" />
<path d="M3.33166666666658,5.008888888888773 L3.33166666666658,5.408888888888773" stroke-width="0.05" stroke="#888888" />
<path d="M3.18166666666658,5.208888888888773 L3.33166666666658,5.408888888888773" stroke-width="0.05" stroke="#888888" />
<path d="M3.48166666666658,5.208888888888773 L3.33166666666658,5.408888888888773" stroke-width="0.05" stroke="#888888" />
<use xlink:href="#d3" x="0.25" y="5.758888888888773" />
<path d="M9.99499999999974,5.008888888888773 L9.99499999999974,5.408888888888773" stroke-width="0.05" stroke="#888888" />
<path d="M9.84499999999974,5.208888888888773 L9.99499999999974,5.408888888888773" stroke-width="0.05" stroke="#888888" />
<path d="M10.14499999999974,5.208888888888773 L9.99499999999974,5.408888888888773" stroke-width="0.05" stroke="#888888" />
<use xlink:href="#d4" x="6.91333333333316" y="5.758888888888773" />
<path d="M16.658333333332898,5.008888888888773 L16.658333333332898,5.408888888888773" stroke-width="0.05" stroke="#888888" />
<path d="M16.5083333333329,5.208888888888773 L16.658333333332898,5.408888888888773" stroke-width="0.05" stroke="#888888" />
<path d="M16.808333333332897,5.208888888888773 L16.658333333332898,5.408888888888773" stroke-width="0.05" stroke="#888888" />
<text x="16.658333333332898" y="7.913333333333159" font-size="1" font-family="Anuphan" font-weight="700" fill="#333333" text-anchor="middle" alignment-baseline="middle">?</text>
<text x="19.9" y="10.7" font-size="0.3" font-family="Anuphan" font-weight="600" fill="#666666" text-anchor="end" alignment-baseline="bottom">Task 6a1e5592</text>
</svg>