<?xml version="1.0" encoding="UTF-8"?>
<svg xmlns="http://www.w3.org/2000/svg" xmlns:xlink="http://www.w3.org/1999/xlink"
     width="800.0" height="536.0" viewBox="0 0 20.0 13.399999999999999">
<defs>
<g id="d0">
<rect x="0.005" y="0.005" width="0.27461538461537555" height="0.27461538461537555" fill="#252525" />
<rect x="0.28461538461537556" y="0.005" width="0.27461538461537555" height="0.27461538461537555" fill="#252525" />
<rect x="0.5642307692307511" y="0.005" width="0.27461538461537555" height="0.27461538461537555" fill="#252525" />
<rect x="0.8438461538461267" y="0.005" width="0.27461538461537555" height="0.27461538461537555" fill="#54D2EB" />
<rect x="1.123461538461502" y="0.005" width="0.27461538461537555" height="0.27461538461537555" fill="#54D2EB" />
<rect x="1.4030769230768776" y="0.005" width="0.27461538461537555" height="0.27461538461537555" fill="#252525" />
<rect x="1.6826923076922533" y="0.005" width="0.27461538461537555" height="0.27461538461537555" fill="#252525" />
<rect x="1.9623076923076288" y="0.005" width="0.27461538461537555" height="0.27461538461537555" fill="#252525" />
<rect x="2.2419230769230043" y="0.005" width="0.27461538461537555" height="0.27461538461537555" fill="#252525" />
<rect x="2.52153846153838" y="0.005" width="0.27461538461537555" height="0.27461538461537555" fill="#252525" />
<rect x="2.8011538461537553" y="0.005" width="0.27461538461537555" height="0.27461538461537555" fill="#252525" />
<rect x="3.080769230769131" y="0.005" width="0.27461538461537555" height="0.27461538461537555" fill="#252525" />
<rect x="3.3603846153845067" y="0.005" width="0.27461538461537555" height="0.27461538461537555" fill="#252525" />
<rect x="0.005" y="0.28461538461537556" width="0.27461538461537555" height="0.27461538461537555" fill="#252525" />
<rect x="0.28461538461537556" y="0.28461538461537556" width="0.27461538461537555" height="0.27461538461537555" fill="#252525" />
<rect x="0.5642307692307511" y="0.28461538461537556" width="0.27461538461537555" height="0.27461538461537555" fill="#252525" />
<rect x="0.8438461538461267" y="0.28461538461537556" width="0.27461538461537555" height="0.27461538461537555" fill="#54D2EB" />
<rect x="1.123461538461502" y="0.28461538461537556" width="0.27461538461537555" height="0.27461538461537555" fill="#54D2EB" />
<rect x="1.4030769230768776" y="0.28461538461537556" width="0.27461538461537555" height="0.27461538461537555" fill="#252525" />
<rect x="1.6826923076922533" y="0.28461538461537556" width="0.27461538461537555" height="0.27461538461537555" fill="#252525" />
<rect x="1.9623076923076288" y="0.28461538461537556" width="0.27461538461537555" height="0.27461538461537555" fill="#252525" />
<rect x="2.2419230769230043" y="0.28461538461537556" width="0.27461538461537555" height="0.27461538461537555" fill="#252525" />
<rect x="2.52153846153838" y="0.28461538461537556" width="0.27461538461537555" height="0.27461538461537555" fill="#252525" />
<rect x="2.8011538461537553" y="0.28461538461537556" width="0.27461538461537555" height="0.27461538461537555" fill="#252525" />
<rect x="3.080769230769131" y="0.28461538461537556" width="0.27461538461537555" height="0.27461538461537555" fill="#252525" />
<rect x="3.3603846153845067" y="0.28461538461537556" width="0.27461538461537555" height="0.27461538461537555" fill="#252525" />
<rect x="0.005" y="0.5642307692307511" width="0.27461538461537555" height="0.27461538461537555" fill="#252525" />
<rect x="0.28461538461537556" y="0.5642307692307511" width="0.27461538461537555" height="0.27461538461537555" fill="#252525" />
<rect x="0.5642307692307511" y="0.5642307692307511" width="0.27461538461537555" height="0.27461538461537555" fill="#252525" />
<rect x="0.8438461538461267" y="0.5642307692307511" width="0.27461538461537555" height="0.27461538461537555" fill="#54D2EB" />
<rect x="1.123461538461502" y="0.5642307692307511" width="0.27461538461537555" height="0.27461538461537555" fill="#54D2EB" />
<rect x="1.4030769230768776" y="0.5642307692307511" width="0.27461538461537555" height="0.27461538461537555" fill="#252525" />
<rect x="1.6826923076922533" y="0.5642307692307511" width="0.27461538461537555" height="0.27461538461537555" fill="#252525" />
<rect x="1.9623076923076288" y="0.5642307692307511" width="0.27461538461537555" height="0.27461538461537555" fill="#252525" />
<rect x="2.2419230769230043" y="0.5642307692307511" width="0.27461538461537555" height="0.27461538461537555" fill="#252525" />
<rect x="2.52153846153838" y="0.5642307692307511" width="0.27461538461537555" height="0.27461538461537555" fill="#252525" />
<rect x="2.8011538461537553" y="0.5642307692307511" width="0.27461538461537555" height="0.27461538461537555" fill="#252525" />
<rect x="3.080769230769131" y="0.5642307692307511" width="0.27461538461537555" height="0.27461538461537555" fill="#252525" />
<rect x="3.3603846153845067" y="0.5642307692307511" width="0.27461538461537555" height="0.27461538461537555" fill="#252525" />
<rect x="0.005" y="0.8438461538461267" width="0.27461538461537555" height="0.27461538461537555" fill="#37D449" />
<rect x="0.28461538461537556" y="0.8438461538461267" width="0.27461538461537555" height="0.27461538461537555" fill="#37D449" />
<rect x="0.5642307692307511" y="0.8438461538461267" width="0.27461538461537555" height="0.27461538461537555" fill="#37D449" />
<rect x="0.8438461538461267" y="0.8438461538461267" width="0.27461538461537555" height="0.27461538461537555" fill="#54D2EB" />
<rect x="1.123461538461502" y="0.8438461538461267" width="0.27461538461537555" height="0.27461538461537555" fill="#54D2EB" />
<rect x="1.4030769230768776" y="0.8438461538461267" width="0.27461538461537555" height="0.27461538461537555" fill="#37D449" />
<rect x="1.6826923076922533" y="0.8438461538461267" width="0.27461538461537555" height="0.27461538461537555" fill="#37D449" />
<rect x="1.9623076923076288" y="0.8438461538461267" width="0.27461538461537555" height="0.27461538461537555" fill="#37D449" />
<rect x="2.2419230769230043" y="0.8438461538461267" width="0.27461538461537555" height="0.27461538461537555" fill="#37D449" />
<rect x="2.52153846153838" y="0.8438461538461267" width="0.27461538461537555" height="0.27461538461537555" fill="#37D449" />
<rect x="2.8011538461537553" y="0.8438461538461267" width="0.27461538461537555" height="0.27461538461537555" fill="#37D449" />
<rect x="3.080769230769131" y="0.8438461538461267" width="0.27461538461537555" height="0.27461538461537555" fill="#37D449" />
<rect x="3.3603846153845067" y="0.8438461538461267" width="0.27461538461537555" height="0.27461538461537555" fill="#37D449" />
<rect x="0.005" y="1.123461538461502" width="0.27461538461537555" height="0.27461538461537555" fill="#37D449" />
<rect x="0.28461538461537556" y="1.123461538461502" width="0.27461538461537555" height="0.27461538461537555" fill="#37D449" />
<rect x="0.5642307692307511" y="1.123461538461502" width="0.27461538461537555" height="0.27461538461537555" fill="#37D449" />
<rect x="0.8438461538461267" y="1.123461538461502" width="0.27461538461537555" height="0.27461538461537555" fill="#54D2EB" />
<rect x="1.123461538461502" y="1.123461538461502" width="0.27461538461537555" height="0.27461538461537555" fill="#54D2EB" />
<rect x="1.4030769230768776" y="1.123461538461502" width="0.27461538461537555" height="0.27461538461537555" fill="#37D449" />
<rect x="1.6826923076922533" y="1.123461538461502" width="0.27461538461537555" height="0.27461538461537555" fill="#37D449" />
<rect x="1.9623076923076288" y="1.123461538461502" width="0.27461538461537555" height="0.27461538461537555" fill="#37D449" />
<rect x="2.2419230769230043" y="1.123461538461502" width="0.27461538461537555" height="0.27461538461537555" fill="#37D449" />
<rect x="2.52153846153838" y="1.123461538461502" width="0.27461538461537555" height="0.27461538461537555" fill="#37D449" />
<rect x="2.8011538461537553" y="1.123461538461502" width="0.27461538461537555" height="0.27461538461537555" fill="#37D449" />
<rect x="3.080769230769131" y="1.123461538461502" width="0.27461538461537555" height="0.27461538461537555" fill="#37D449" />
<rect x="3.3603846153845067" y="1.123461538461502" width="0.27461538461537555" height="0.27461538461537555" fill="#37D449" />
<rect x="0.005" y="1.4030769230768776" width="0.27461538461537555" height="0.27461538461537555" fill="#37D449" />
<rect x="0.28461538461537556" y="1.4030769230768776" width="0.27461538461537555" height="0.27461538461537555" fill="#37D449" />
<rect x="0.5642307692307511" y="1.4030769230768776" width="0.27461538461537555" height="0.27461538461537555" fill="#37D449" />
<rect x="0.8438461538461267" y="1.4030769230768776" width="0.27461538461537555" height="0.27461538461537555" fill="#54D2EB" />
<rect x="1.123461538461502" y="1.4030769230768776" width="0.27461538461537555" height="0.27461538461537555" fill="#54D2EB" />
<rect x="1.4030769230768776" y="1.4030769230768776" width="0.27461538461537555" height="0.27461538461537555" fill="#37D449" />
<rect x="1.6826923076922533" y="1.4030769230768776" width="0.27461538461537555" height="0.27461538461537555" fill="#37D449" />
<rect x="1.9623076923076288" y="1.4030769230768776" width="0.27461538461537555" height="0.27461538461537555" fill="#37D449" />
<rect x="2.2419230769230043" y="1.4030769230768776" width="0.27461538461537555" height="0.27461538461537555" fill="#37D449" />
<rect x="2.52153846153838" y="1.4030769230768776" width="0.27461538461537555" height="0.27461538461537555" fill="#37D449" />
<rect x="2.8011538461537553" y="1.4030769230768776" width="0.27461538461537555" height="0.27461538461537555" fill="#37D449" />
<rect x="3.080769230769131" y="1.4030769230768776" width="0.27461538461537555" height="0.27461538461537555" fill="#37D449" />
<rect x="3.3603846153845067" y="1.4030769230768776" width="0.27461538461537555" height="0.27461538461537555" fill="#37D449" />
<rect x="0.005" y="1.6826923076922533" width="0.27461538461537555" height="0.27461538461537555" fill="#252525" />
<rect x="0.28461538461537556" y="1.6826923076922533" width="0.27461538461537555" height="0.27461538461537555" fill="#252525" />
<rect x="0.5642307692307511" y="1.6826923076922533" width="0.27461538461537555" height="0.27461538461537555" fill="#252525" />
<rect x="0.8438461538461267" y="1.6826923076922533" width="0.27461538461537555" height="0.27461538461537555" fill="#54D2EB" />
<rect x="1.123461538461502" y="1.6826923076922533" width="0.27461538461537555" height="0.27461538461537555" fill="#54D2EB" />
<rect x="1.4030769230768776" y="1.6826923076922533" width="0.27461538461537555" height="0.27461538461537555" fill="#252525" />
<rect x="1.6826923076922533" y="1.6826923076922533" width="0.27461538461537555" height="0.27461538461537555" fill="#252525" />
<rect x="1.9623076923076288" y="1.6826923076922533" width="0.27461538461537555" height="0.27461538461537555" fill="#252525" />
<rect x="2.2419230769230043" y="1.6826923076922533" width="0.27461538461537555" height="0.27461538461537555" fill="#252525" />
<rect x="2.52153846153838" y="1.6826923076922533" width="0.27461538461537555" height="0.27461538461537555" fill="#252525" />
<rect x="2.8011538461537553" y="1.6826923076922533" width="0.27461538461537555" height="0.27461538461537555" fill="#252525" />
<rect x="3.080769230769131" y="1.6826923076922533" width="0.27461538461537555" height="0.27461538461537555" fill="#252525" />
<rect x="3.3603846153845067" y="1.6826923076922533" width="0.27461538461537555" height="0.27461538461537555" fill="#252525" />
<rect x="0.005" y="1.9623076923076288" width="0.27461538461537555" height="0.27461538461537555" fill="#252525" />
<rect x="0.28461538461537556" y="1.9623076923076288" width="0.27461538461537555" height="0.27461538461537555" fill="#252525" />
<rect x="0.5642307692307511" y="1.9623076923076288" width="0.27461538461537555" height="0.27461538461537555" fill="#252525" />
<rect x="0.8438461538461267" y="1.9623076923076288" width="0.27461538461537555" height="0.27461538461537555" fill="#54D2EB" />
<rect x="1.123461538461502" y="1.9623076923076288" width="0.27461538461537555" height="0.27461538461537555" fill="#54D2EB" />
<rect x="1.4030769230768776" y="1.9623076923076288" width="0.27461538461537555" height="0.27461538461537555" fill="#252525" />
<rect x="1.6826923076922533" y="1.9623076923076288" width="0.27461538461537555" height="0.27461538461537555" fill="#252525" />
<rect x="1.9623076923076288" y="1.9623076923076288" width="0.27461538461537555" height="0.27461538461537555" fill="#252525" />
<rect x="2.2419230769230043" y="1.9623076923076288" width="0.27461538461537555" height="0.27461538461537555" fill="#252525" />
<rect x="2.52153846153838" y="1.9623076923076288" width="0.27461538461537555" height="0.27461538461537555" fill="#252525" />
<rect x="2.8011538461537553" y="1.9623076923076288" width="0.27461538461537555" height="0.27461538461537555" fill="#252525" />
<rect x="3.080769230769131" y="1.9623076923076288" width="0.27461538461537555" height="0.27461538461537555" fill="#252525" />
<rect x="3.3603846153845067" y="1.9623076923076288" width="0.27461538461537555" height="0.27461538461537555" fill="#252525" />
<rect x="0.005" y="2.2419230769230043" width="0.27461538461537555" height="0.27461538461537555" fill="#252525" />
<rect x="0.28461538461537556" y="2.2419230769230043" width="0.27461538461537555" height="0.27461538461537555" fill="#252525" />
<rect x="0.5642307692307511" y="2.2419230769230043" width="0.27461538461537555" height="0.27461538461537555" fill="#252525" />
<rect x="0.8438461538461267" y="2.2419230769230043" width="0.27461538461537555" height="0.27461538461537555" fill="#54D2EB" />
<rect x="1.123461538461502" y="2.2419230769230043" width="0.27461538461537555" height="0.27461538461537555" fill="#54D2EB" />
<rect x="1.4030769230768776" y="2.2419230769230043" width="0.27461538461537555" height="0.27461538461537555" fill="#252525" />
<rect x="1.6826923076922533" y="2.2419230769230043" width="0.27461538461537555" height="0.27461538461537555" fill="#252525" />
<rect x="1.9623076923076288" y="2.2419230769230043" width="0.27461538461537555" height="0.27461538461537555" fill="#252525" />
<rect x="2.2419230769230043" y="2.2419230769230043" width="0.27461538461537555" height="0.27461538461537555" fill="#252525" />
<rect x="2.52153846153838" y="2.2419230769230043" width="0.27461538461537555" height="0.27461538461537555" fill="#252525" />
<rect x="2.8011538461537553" y="2.2419230769230043" width="0.27461538461537555" height="0.27461538461537555" fill="#252525" />
<rect x="3.080769230769131" y="2.2419230769230043" width="0.27461538461537555" height="0.27461538461537555" fill="#252525" />
<rect x="3.3603846153845067" y="2.2419230769230043" width="0.27461538461537555" height="0.27461538461537555" fill="#252525" />
<rect x="0.005" y="2.52153846153838" width="0.27461538461537555" height="0.27461538461537555" fill="#252525" />
<rect x="0.28461538461537556" y="2.52153846153838" width="0.27461538461537555" height="0.27461538461537555" fill="#252525" />
<rect x="0.5642307692307511" y="2.52153846153838" width="0.27461538461537555" height="0.27461538461537555" fill="#252525" />
<rect x="0.8438461538461267" y="2.52153846153838" width="0.27461538461537555" height="0.27461538461537555" fill="#54D2EB" />
<rect x="1.123461538461502" y="2.52153846153838" width="0.27461538461537555" height="0.27461538461537555" fill="#54D2EB" />
<rect x="1.4030769230768776" y="2.52153846153838" width="0.27461538461537555" height="0.27461538461537555" fill="#252525" />
<rect x="1.6826923076922533" y="2.52153846153838" width="0.27461538461537555" height="0.27461538461537555" fill="#252525" />
<rect x="1.9623076923076288" y="2.52153846153838" width="0.27461538461537555" height="0.27461538461537555" fill="#252525" />
<rect x="2.2419230769230043" y="2.52153846153838" width="0.27461538461537555" height="0.27461538461537555" fill="#252525" />
<rect x="2.52153846153838" y="2.52153846153838" width="0.27461538461537555" height="0.27461538461537555" fill="#252525" />
<rect x="2.8011538461537553" y="2.52153846153838" width="0.27461538461537555" height="0.27461538461537555" fill="#252525" />
<rect x="3.080769230769131" y="2.52153846153838" width="0.27461538461537555" height="0.27461538461537555" fill="#252525" />
<rect x="3.3603846153845067" y="2.52153846153838" width="0.27461538461537555" height="0.27461538461537555" fill="#252525" />
<rect x="0.005" y="2.8011538461537553" width="0.27461538461537555" height="0.27461538461537555" fill="#252525" />
<rect x="0.28461538461537556" y="2.8011538461537553" width="0.27461538461537555" height="0.27461538461537555" fill="#252525" />
<rect x="0.5642307692307511" y="2.8011538461537553" width="0.27461538461537555" height="0.27461538461537555" fill="#252525" />
<rect x="0.8438461538461267" y="2.8011538461537553" width="0.27461538461537555" height="0.27461538461537555" fill="#54D2EB" />
<rect x="1.123461538461502" y="2.8011538461537553" width="0.27461538461537555" height="0.27461538461537555" fill="#54D2EB" />
<rect x="1.4030769230768776" y="2.8011538461537553" width="0.27461538461537555" height="0.27461538461537555" fill="#252525" />
<rect x="1.6826923076922533" y="2.8011538461537553" width="0.27461538461537555" height="0.27461538461537555" fill="#252525" />
<rect x="1.9623076923076288" y="2.8011538461537553" width="0.27461538461537555" height="0.27461538461537555" fill="#252525" />
<rect x="2.2419230769230043" y="2.8011538461537553" width="0.27461538461537555" height="0.27461538461537555" fill="#252525" />
<rect x="2.52153846153838" y="2.8011538461537553" width="0.27461538461537555" height="0.27461538461537555" fill="#252525" />
<rect x="2.8011538461537553" y="2.8011538461537553" width="0.27461538461537555" height="0.27461538461537555" fill="#252525" />
<rect x="3.080769230769131" y="2.8011538461537553" width="0.27461538461537555" height="0.27461538461537555" fill="#252525" />
<rect x="3.3603846153845067" y="2.8011538461537553" width="0.27461538461537555" height="0.27461538461537555" fill="#252525" />
<rect x="0.005" y="3.080769230769131" width="0.27461538461537555" height="0.27461538461537555" fill="#252525" />
<rect x="0.28461538461537556" y="3.080769230769131" width="0.27461538461537555" height="0.27461538461537555" fill="#252525" />
<rect x="0.5642307692307511" y="3.080769230769131" width="0.27461538461537555" height="0.27461538461537555" fill="#252525" />
<rect x="0.8438461538461267" y="3.080769230769131" width="0.27461538461537555" height="0.27461538461537555" fill="#54D2EB" />
<rect x="1.123461538461502" y="3.080769230769131" width="0.27461538461537555" height="0.27461538461537555" fill="#54D2EB" />
<rect x="1.4030769230768776" y="3.080769230769131" width="0.27461538461537555" height="0.27461538461537555" fill="#252525" />
<rect x="1.6826923076922533" y="3.080769230769131" width="0.27461538461537555" height="0.27461538461537555" fill="#252525" />
<rect x="1.9623076923076288" y="3.080769230769131" width="0.27461538461537555" height="0.27461538461537555" fill="#252525" />
<rect x="2.2419230769230043" y="3.080769230769131" width="0.27461538461537555" height="0.27461538461537555" fill="#252525" />
<rect x="2.52153846153838" y="3.080769230769131" width="0.27461538461537555" height="0.27461538461537555" fill="#252525" />
<rect x="2.8011538461537553" y="3.080769230769131" width="0.27461538461537555" height="0.27461538461537555" fill="#252525" />
<rect x="3.080769230769131" y="3.080769230769131" width="0.27461538461537555" height="0.27461538461537555" fill="#252525" />
<rect x="3.3603846153845067" y="3.080769230769131" width="0.27461538461537555" height="0.27461538461537555" fill="#252525" />
<rect x="0.005" y="3.3603846153845067" width="0.27461538461537555" height="0.27461538461537555" fill="#252525" />
<rect x="0.28461538461537556" y="3.3603846153845067" width="0.27461538461537555" height="0.27461538461537555" fill="#252525" />
<rect x="0.5642307692307511" y="3.3603846153845067" width="0.27461538461537555" height="0.27461538461537555" fill="#252525" />
<rect x="0.8438461538461267" y="3.3603846153845067" width="0.27461538461537555" height="0.27461538461537555" fill="#54D2EB" />
<rect x="1.123461538461502" y="3.3603846153845067" width="0.27461538461537555" height="0.27461538461537555" fill="#54D2EB" />
<rect x="1.4030769230768776" y="3.3603846153845067" width="0.27461538461537555" height="0.27461538461537555" fill="#252525" />
<rect x="1.6826923076922533" y="3.3603846153845067" width="0.27461538461537555" height="0.27461538461537555" fill="#252525" />
<rect x="1.9623076923076288" y="3.3603846153845067" width="0.27461538461537555" height="0.27461538461537555" fill="#252525" />
<rect x="2.2419230769230043" y="3.3603846153845067" width="0.27461538461537555" height="0.27461538461537555" fill="#252525" />
<rect x="2.52153846153838" y="3.3603846153845067" width="0.27461538461537555" height="0.27461538461537555" fill="#252525" />
<rect x="2.8011538461537553" y="3.3603846153845067" width="0.27461538461537555" height="0.27461538461537555" fill="#252525" />
<rect x="3.080769230769131" y="3.3603846153845067" width="0.27461538461537555" height="0.27461538461537555" fill="#252525" />
<rect x="3.3603846153845067" y="3.3603846153845067" width="0.27461538461537555" height="0.27461538461537555" fill="#252525" />
<rect x="-0.02666666666666667" y="-0.02666666666666667" width="3.6883333333332153" height="3.6883333333332153" fill="none" stroke="#111111ff" stroke-width="0.08" />
<text x="3.634999999999882" y="4.1037499999998825" font-size="0.375" fill="black" text-anchor="end" font-family="Anuphan">13x13</text>
<text x="-0.037500000000000006" y="4.1037499999998825" font-size="0.375" fill="black" text-anchor="start" font-family="Anuphan" font-weight="600">Input 1</text>
</g>
<g id="d1">
<rect x="0.005" y="0.005" width="0.3988888888888758" height="0.3988888888888758" fill="#252525" />
<rect x="0.4088888888888758" y="0.005" width="0.3988888888888758" height="0.3988888888888758" fill="#252525" />
<rect x="0.8127777777777516" y="0.005" width="0.3988888888888758" height="0.3988888888888758" fill="#F012BE" />
<rect x="1.2166666666666273" y="0.005" width="0.3988888888888758" height="0.3988888888888758" fill="#F012BE" />
<rect x="1.6205555555555031" y="0.005" width="0.3988888888888758" height="0.3988888888888758" fill="#252525" />
<rect x="2.024444444444379" y="0.005" width="0.3988888888888758" height="0.3988888888888758" fill="#252525" />
<rect x="2.4283333333332546" y="0.005" width="0.3988888888888758" height="0.3988888888888758" fill="#252525" />
<rect x="2.8322222222221307" y="0.005" width="0.3988888888888758" height="0.3988888888888758" fill="#252525" />
<rect x="3.2361111111110064" y="0.005" width="0.3988888888888758" height="0.3988888888888758" fill="#252525" />
<rect x="0.005" y="0.4088888888888758" width="0.3988888888888758" height="0.3988888888888758" fill="#252525" />
<rect x="0.4088888888888758" y="0.4088888888888758" width="0.3988888888888758" height="0.3988888888888758" fill="#252525" />
<rect x="0.8127777777777516" y="0.4088888888888758" width="0.3988888888888758" height="0.3988888888888758" fill="#F012BE" />
<rect x="1.2166666666666273" y="0.4088888888888758" width="0.3988888888888758" height="0.3988888888888758" fill="#F012BE" />
<rect x="1.6205555555555031" y="0.4088888888888758" width="0.3988888888888758" height="0.3988888888888758" fill="#252525" />
<rect x="2.024444444444379" y="0.4088888888888758" width="0.3988888888888758" height="0.3988888888888758" fill="#252525" />
<rect x="2.4283333333332546" y="0.4088888888888758" width="0.3988888888888758" height="0.3988888888888758" fill="#252525" />
<rect x="2.8322222222221307" y="0.4088888888888758" width="0.3988888888888758" height="0.3988888888888758" fill="#252525" />
<rect x="3.2361111111110064" y="0.4088888888888758" width="0.3988888888888758" height="0.3988888888888758" fill="#252525" />
<rect x="0.005" y="0.8127777777777516" width="0.3988888888888758" height="0.3988888888888758" fill="#252525" />
<rect x="0.4088888888888758" y="0.8127777777777516" width="0.3988888888888758" height="0.3988888888888758" fill="#252525" />
<rect x="0.8127777777777516" y="0.8127777777777516" width="0.3988888888888758" height="0.3988888888888758" fill="#F012BE" />
<rect x="1.2166666666666273" y="0.8127777777777516" width="0.3988888888888758" height="0.3988888888888758" fill="#F012BE" />
<rect x="1.6205555555555031" y="0.8127777777777516" width="0.3988888888888758" height="0.3988888888888758" fill="#252525" />
<rect x="2.024444444444379" y="0.8127777777777516" width="0.3988888888888758" height="0.3988888888888758" fill="#252525" />
<rect x="2.4283333333332546" y="0.8127777777777516" width="0.3988888888888758" height="0.3988888888888758" fill="#252525" />
<rect x="2.8322222222221307" y="0.8127777777777516" width="0.3988888888888758" height="0.3988888888888758" fill="#252525" />
<rect x="3.2361111111110064" y="0.8127777777777516" width="0.3988888888888758" height="0.3988888888888758" fill="#252525" />
<rect x="0.005" y="1.2166666666666273" width="0.3988888888888758" height="0.3988888888888758" fill="#0074D9" />
<rect x="0.4088888888888758" y="1.2166666666666273" width="0.3988888888888758" height="0.3988888888888758" fill="#0074D9" />
<rect x="0.8127777777777516" y="1.2166666666666273" width="0.3988888888888758" height="0.3988888888888758" fill="#0074D9" />
<rect x="1.2166666666666273" y="1.2166666666666273" width="0.3988888888888758" height="0.3988888888888758" fill="#0074D9" />
<rect x="1.6205555555555031" y="1.2166666666666273" width="0.3988888888888758" height="0.3988888888888758" fill="#0074D9" />
<rect x="2.024444444444379" y="1.2166666666666273" width="0.3988888888888758" height="0.3988888888888758" fill="#0074D9" />
<rect x="2.4283333333332546" y="1.2166666666666273" width="0.3988888888888758" height="0.3988888888888758" fill="#0074D9" />
<rect x="2.8322222222221307" y="1.2166666666666273" width="0.3988888888888758" height="0.3988888888888758" fill="#0074D9" />
<rect x="3.2361111111110064" y="1.2166666666666273" width="0.3988888888888758" height="0.3988888888888758" fill="#0074D9" />
<rect x="0.005" y="1.6205555555555031" width="0.3988888888888758" height="0.3988888888888758" fill="#252525" />
<rect x="0.4088888888888758" y="1.6205555555555031" width="0.3988888888888758" height="0.3988888888888758" fill="#252525" />
<rect x="0.8127777777777516" y="1.6205555555555031" width="0.3988888888888758" height="0.3988888888888758" fill="#F012BE" />
<rect x="1.2166666666666273" y="1.6205555555555031" width="0.3988888888888758" height="0.3988888888888758" fill="#F012BE" />
<rect x="1.6205555555555031" y="1.6205555555555031" width="0.3988888888888758" height="0.3988888888888758" fill="#252525" />
<rect x="2.024444444444379" y="1.6205555555555031" width="0.3988888888888758" height="0.3988888888888758" fill="#252525" />
<rect x="2.4283333333332546" y="1.6205555555555031" width="0.3988888888888758" height="0.3988888888888758" fill="#252525" />
<rect x="2.8322222222221307" y="1.6205555555555031" width="0.3988888888888758" height="0.3988888888888758" fill="#252525" />
<rect x="3.2361111111110064" y="1.6205555555555031" width="0.3988888888888758" height="0.3988888888888758" fill="#252525" />
<rect x="0.005" y="2.024444444444379" width="0.3988888888888758" height="0.3988888888888758" fill="#252525" />
<rect x="0.4088888888888758" y="2.024444444444379" width="0.3988888888888758" height="0.3988888888888758" fill="#252525" />
<rect x="0.8127777777777516" y="2.024444444444379" width="0.3988888888888758" height="0.3988888888888758" fill="#F012BE" />
<rect x="1.2166666666666273" y="2.024444444444379" width="0.3988888888888758" height="0.3988888888888758" fill="#F012BE" />
<rect x="1.6205555555555031" y="2.024444444444379" width="0.3988888888888758" height="0.3988888888888758" fill="#252525" />
<rect x="2.024444444444379" y="2.024444444444379" width="0.3988888888888758" height="0.3988888888888758" fill="#252525" />
<rect x="2.4283333333332546" y="2.024444444444379" width="0.3988888888888758" height="0.3988888888888758" fill="#252525" />
<rect x="2.8322222222221307" y="2.024444444444379" width="0.3988888888888758" height="0.3988888888888758" fill="#252525" />
<rect x="3.2361111111110064" y="2.024444444444379" width="0.3988888888888758" height="0.3988888888888758" fill="#252525" />
<rect x="0.005" y="2.4283333333332546" width="0.3988888888888758" height="0.3988888888888758" fill="#252525" />
<rect x="0.4088888888888758" y="2.4283333333332546" width="0.3988888888888758" height="0.3988888888888758" fill="#252525" />
<rect x="0.8127777777777516" y="2.4283333333332546" width="0.3988888888888758" height="0.3988888888888758" fill="#F012BE" />
<rect x="1.2166666666666273" y="2.4283333333332546" width="0.3988888888888758" height="0.3988888888888758" fill="#F012BE" />
<rect x="1.6205555555555031" y="2.4283333333332546" width="0.3988888888888758" height="0.3988888888888758" fill="#252525" />
<rect x="2.024444444444379" y="2.4283333333332546" width="0.3988888888888758" height="0.3988888888888758" fill="#252525" />
<rect x="2.4283333333332546" y="2.4283333333332546" width="0.3988888888888758" height="0.3988888888888758" fill="#252525" />
<rect x="2.8322222222221307" y="2.4283333333332546" width="0.3988888888888758" height="0.3988888888888758" fill="#252525" />
<rect x="3.2361111111110064" y="2.4283333333332546" width="0.3988888888888758" height="0.3988888888888758" fill="#252525" />
<rect x="-0.02666666666666667" y="-0.02666666666666667" width="3.6883333333332153" height="2.880555555555464" fill="none" stroke="#111111ff" stroke-width="0.08" />
<text x="3.634999999999882" y="3.295972222222131" font-size="0.375" fill="black" text-anchor="end" font-family="Anuphan">9x7</text>
<text x="-0.037500000000000006" y="3.295972222222131" font-size="0.375" fill="black" text-anchor="start" font-family="Anuphan" font-weight="600">Input 2</text>
</g>
<g id="d2">
<rect x="0.005" y="0.005" width="0.5142857142856975" height="0.5142857142856975" fill="#252525" />
<rect x="0.5242857142856975" y="0.005" width="0.5142857142856975" height="0.5142857142856975" fill="#252525" />
<rect x="1.0435714285713948" y="0.005" width="0.5142857142856975" height="0.5142857142856975" fill="#0074D9" />
<rect x="1.5628571428570923" y="0.005" width="0.5142857142856975" height="0.5142857142856975" fill="#252525" />
<rect x="2.08214285714279" y="0.005" width="0.5142857142856975" height="0.5142857142856975" fill="#252525" />
<rect x="2.601428571428487" y="0.005" width="0.5142857142856975" height="0.5142857142856975" fill="#252525" />
<rect x="3.1207142857141847" y="0.005" width="0.5142857142856975" height="0.5142857142856975" fill="#252525" />
<rect x="0.005" y="0.5242857142856975" width="0.5142857142856975" height="0.5142857142856975" fill="#252525" />
<rect x="0.5242857142856975" y="0.5242857142856975" width="0.5142857142856975" height="0.5142857142856975" fill="#252525" />
<rect x="1.0435714285713948" y="0.5242857142856975" width="0.5142857142856975" height="0.5142857142856975" fill="#0074D9" />
<rect x="1.5628571428570923" y="0.5242857142856975" width="0.5142857142856975" height="0.5142857142856975" fill="#252525" />
<rect x="2.08214285714279" y="0.5242857142856975" width="0.5142857142856975" height="0.5142857142856975" fill="#252525" />
<rect x="2.601428571428487" y="0.5242857142856975" width="0.5142857142856975" height="0.5142857142856975" fill="#252525" />
<rect x="3.1207142857141847" y="0.5242857142856975" width="0.5142857142856975" height="0.5142857142856975" fill="#252525" />
<rect x="0.005" y="1.0435714285713948" width="0.5142857142856975" height="0.5142857142856975" fill="#252525" />
<rect x="0.5242857142856975" y="1.0435714285713948" width="0.5142857142856975" height="0.5142857142856975" fill="#252525" />
<rect x="1.0435714285713948" y="1.0435714285713948" width="0.5142857142856975" height="0.5142857142856975" fill="#0074D9" />
<rect x="1.5628571428570923" y="1.0435714285713948" width="0.5142857142856975" height="0.5142857142856975" fill="#252525" />
<rect x="2.08214285714279" y="1.0435714285713948" width="0.5142857142856975" height="0.5142857142856975" fill="#252525" />
<rect x="2.601428571428487" y="1.0435714285713948" width="0.5142857142856975" height="0.5142857142856975" fill="#252525" />
<rect x="3.1207142857141847" y="1.0435714285713948" width="0.5142857142856975" height="0.5142857142856975" fill="#252525" />
<rect x="0.005" y="1.5628571428570923" width="0.5142857142856975" height="0.5142857142856975" fill="#FF871E" />
<rect x="0.5242857142856975" y="1.5628571428570923" width="0.5142857142856975" height="0.5142857142856975" fill="#FF871E" />
<rect x="1.0435714285713948" y="1.5628571428570923" width="0.5142857142856975" height="0.5142857142856975" fill="#FF871E" />
<rect x="1.5628571428570923" y="1.5628571428570923" width="0.5142857142856975" height="0.5142857142856975" fill="#FF871E" />
<rect x="2.08214285714279" y="1.5628571428570923" width="0.5142857142856975" height="0.5142857142856975" fill="#FF871E" />
<rect x="2.601428571428487" y="1.5628571428570923" width="0.5142857142856975" height="0.5142857142856975" fill="#FF871E" />
<rect x="3.1207142857141847" y="1.5628571428570923" width="0.5142857142856975" height="0.5142857142856975" fill="#FF871E" />
<rect x="0.005" y="2.08214285714279" width="0.5142857142856975" height="0.5142857142856975" fill="#252525" />
<rect x="0.5242857142856975" y="2.08214285714279" width="0.5142857142856975" height="0.5142857142856975" fill="#252525" />
<rect x="1.0435714285713948" y="2.08214285714279" width="0.5142857142856975" height="0.5142857142856975" fill="#0074D9" />
<rect x="1.5628571428570923" y="2.08214285714279" width="0.5142857142856975" height="0.5142857142856975" fill="#252525" />
<rect x="2.08214285714279" y="2.08214285714279" width="0.5142857142856975" height="0.5142857142856975" fill="#252525" />
<rect x="2.601428571428487" y="2.08214285714279" width="0.5142857142856975" height="0.5142857142856975" fill="#252525" />
<rect x="3.1207142857141847" y="2.08214285714279" width="0.5142857142856975" height="0.5142857142856975" fill="#252525" />
<rect x="0.005" y="2.601428571428487" width="0.5142857142856975" height="0.5142857142856975" fill="#252525" />
<rect x="0.5242857142856975" y="2.601428571428487" width="0.5142857142856975" height="0.5142857142856975" fill="#252525" />
<rect x="1.0435714285713948" y="2.601428571428487" width="0.5142857142856975" height="0.5142857142856975" fill="#0074D9" />
<rect x="1.5628571428570923" y="2.601428571428487" width="0.5142857142856975" height="0.5142857142856975" fill="#252525" />
<rect x="2.08214285714279" y="2.601428571428487" width="0.5142857142856975" height="0.5142857142856975" fill="#252525" />
<rect x="2.601428571428487" y="2.601428571428487" width="0.5142857142856975" height="0.5142857142856975" fill="#252525" />
<rect x="3.1207142857141847" y="2.601428571428487" width="0.5142857142856975" height="0.5142857142856975" fill="#252525" />
<rect x="0.005" y="3.1207142857141847" width="0.5142857142856975" height="0.5142857142856975" fill="#252525" />
<rect x="0.5242857142856975" y="3.1207142857141847" width="0.5142857142856975" height="0.5142857142856975" fill="#252525" />
<rect x="1.0435714285713948" y="3.1207142857141847" width="0.5142857142856975" height="0.5142857142856975" fill="#0074D9" />
<rect x="1.5628571428570923" y="3.1207142857141847" width="0.5142857142856975" height="0.5142857142856975" fill="#252525" />
<rect x="2.08214285714279" y="3.1207142857141847" width="0.5142857142856975" height="0.5142857142856975" fill="#252525" />
<rect x="2.601428571428487" y="3.1207142857141847" width="0.5142857142856975" height="0.5142857142856975" fill="#252525" />
<rect x="3.1207142857141847" y="3.1207142857141847" width="0.5142857142856975" height="0.5142857142856975" fill="#252525" />
<rect x="0.005" y="3.6399999999998824" width="0.5142857142856975" height="0.5142857142856975" fill="#252525" />
<rect x="0.5242857142856975" y="3.6399999999998824" width="0.5142857142856975" height="0.5142857142856975" fill="#252525" />
<rect x="1.0435714285713948" y="3.6399999999998824" width="0.5142857142856975" height="0.5142857142856975" fill="#0074D9" />
<rect x="1.5628571428570923" y="3.6399999999998824" width="0.5142857142856975" height="0.5142857142856975" fill="#252525" />
<rect x="2.08214285714279" y="3.6399999999998824" width="0.5142857142856975" height="0.5142857142856975" fill="#252525" />
<rect x="2.601428571428487" y="3.6399999999998824" width="0.5142857142856975" height="0.5142857142856975" fill="#252525" />
<rect x="3.1207142857141847" y="3.6399999999998824" width="0.5142857142856975" height="0.5142857142856975" fill="#252525" />
<rect x="-0.02666666666666667" y="-0.02666666666666667" width="3.688333333333216" height="4.2076190476189135" fill="none" stroke="#111111ff" stroke-width="0.08" />
<text x="3.6349999999998825" y="4.62303571428558" font-size="0.375" fill="black" text-anchor="end" font-family="Anuphan">7x8</text>
<text x="-0.037500000000000006" y="4.62303571428558" font-size="0.375" fill="black" text-anchor="start" font-family="Anuphan" font-weight="600">Input 3</text>
</g>
<g id="d3">
<rect x="0.005" y="0.005" width="0.6008333333333137" height="0.6008333333333137" fill="#252525" />
<rect x="0.6108333333333137" y="0.005" width="0.6008333333333137" height="0.6008333333333137" fill="#37D449" />
<rect x="1.2166666666666273" y="0.005" width="0.6008333333333137" height="0.6008333333333137" fill="#252525" />
<rect x="1.822499999999941" y="0.005" width="0.6008333333333137" height="0.6008333333333137" fill="#252525" />
<rect x="2.4283333333332546" y="0.005" width="0.6008333333333137" height="0.6008333333333137" fill="#252525" />
<rect x="3.034166666666568" y="0.005" width="0.6008333333333137" height="0.6008333333333137" fill="#252525" />
<rect x="0.005" y="0.6108333333333137" width="0.6008333333333137" height="0.6008333333333137" fill="#252525" />
<rect x="0.6108333333333137" y="0.6108333333333137" width="0.6008333333333137" height="0.6008333333333137" fill="#37D449" />
<rect x="1.2166666666666273" y="0.6108333333333137" width="0.6008333333333137" height="0.6008333333333137" fill="#252525" />
<rect x="1.822499999999941" y="0.6108333333333137" width="0.6008333333333137" height="0.6008333333333137" fill="#252525" />
<rect x="2.4283333333332546" y="0.6108333333333137" width="0.6008333333333137" height="0.6008333333333137" fill="#252525" />
<rect x="3.034166666666568" y="0.6108333333333137" width="0.6008333333333137" height="0.6008333333333137" fill="#252525" />
<rect x="0.005" y="1.2166666666666273" width="0.6008333333333137" height="0.6008333333333137" fill="#252525" />
<rect x="0.6108333333333137" y="1.2166666666666273" width="0.6008333333333137" height="0.6008333333333137" fill="#37D449" />
<rect x="1.2166666666666273" y="1.2166666666666273" width="0.6008333333333137" height="0.6008333333333137" fill="#252525" />
<rect x="1.822499999999941" y="1.2166666666666273" width="0.6008333333333137" height="0.6008333333333137" fill="#252525" />
<rect x="2.4283333333332546" y="1.2166666666666273" width="0.6008333333333137" height="0.6008333333333137" fill="#252525" />
<rect x="3.034166666666568" y="1.2166666666666273" width="0.6008333333333137" height="0.6008333333333137" fill="#252525" />
<rect x="0.005" y="1.822499999999941" width="0.6008333333333137" height="0.6008333333333137" fill="#252525" />
<rect x="0.6108333333333137" y="1.822499999999941" width="0.6008333333333137" height="0.6008333333333137" fill="#37D449" />
<rect x="1.2166666666666273" y="1.822499999999941" width="0.6008333333333137" height="0.6008333333333137" fill="#252525" />
<rect x="1.822499999999941" y="1.822499999999941" width="0.6008333333333137" height="0.6008333333333137" fill="#252525" />
<rect x="2.4283333333332546" y="1.822499999999941" width="0.6008333333333137" height="0.6008333333333137" fill="#252525" />
<rect x="3.034166666666568" y="1.822499999999941" width="0.6008333333333137" height="0.6008333333333137" fill="#252525" />
<rect x="0.005" y="2.4283333333332546" width="0.6008333333333137" height="0.6008333333333137" fill="#FF4136" />
<rect x="0.6108333333333137" y="2.4283333333332546" width="0.6008333333333137" height="0.6008333333333137" fill="#37D449" />
<rect x="1.2166666666666273" y="2.4283333333332546" width="0.6008333333333137" height="0.6008333333333137" fill="#FF4136" />
<rect x="1.822499999999941" y="2.4283333333332546" width="0.6008333333333137" height="0.6008333333333137" fill="#FF4136" />
<rect x="2.4283333333332546" y="2.4283333333332546" width="0.6008333333333137" height="0.6008333333333137" fill="#FF4136" />
<rect x="3.034166666666568" y="2.4283333333332546" width="0.6008333333333137" height="0.6008333333333137" fill="#FF4136" />
<rect x="0.005" y="3.034166666666568" width="0.6008333333333137" height="0.6008333333333137" fill="#252525" />
<rect x="0.6108333333333137" y="3.034166666666568" width="0.6008333333333137" height="0.6008333333333137" fill="#37D449" />
<rect x="1.2166666666666273" y="3.034166666666568" width="0.6008333333333137" height="0.6008333333333137" fill="#252525" />
<rect x="1.822499999999941" y="3.034166666666568" width="0.6008333333333137" height="0.6008333333333137" fill="#252525" />
<rect x="2.4283333333332546" y="3.034166666666568" width="0.6008333333333137" height="0.6008333333333137" fill="#252525" />
<rect x="3.034166666666568" y="3.034166666666568" width="0.6008333333333137" height="0.6008333333333137" fill="#252525" />
<rect x="0.005" y="3.639999999999882" width="0.6008333333333137" height="0.6008333333333137" fill="#252525" />
<rect x="0.6108333333333137" y="3.639999999999882" width="0.6008333333333137" height="0.6008333333333137" fill="#37D449" />
<rect x="1.2166666666666273" y="3.639999999999882" width="0.6008333333333137" height="0.6008333333333137" fill="#252525" />
<rect x="1.822499999999941" y="3.639999999999882" width="0.6008333333333137" height="0.6008333333333137" fill="#252525" />
<rect x="2.4283333333332546" y="3.639999999999882" width="0.6008333333333137" height="0.6008333333333137" fill="#252525" />
<rect x="3.034166666666568" y="3.639999999999882" width="0.6008333333333137" height="0.6008333333333137" fill="#252525" />
<rect x="0.005" y="4.245833333333196" width="0.6008333333333137" height="0.6008333333333137" fill="#252525" />
<rect x="0.6108333333333137" y="4.245833333333196" width="0.6008333333333137" height="0.6008333333333137" fill="#37D449" />
<rect x="1.2166666666666273" y="4.245833333333196" width="0.6008333333333137" height="0.6008333333333137" fill="#252525" />
<rect x="1.822499999999941" y="4.245833333333196" width="0.6008333333333137" height="0.6008333333333137" fill="#252525" />
<rect x="2.4283333333332546" y="4.245833333333196" width="0.6008333333333137" height="0.6008333333333137" fill="#252525" />
<rect x="3.034166666666568" y="4.245833333333196" width="0.6008333333333137" height="0.6008333333333137" fill="#252525" />
<rect x="-0.02666666666666667" y="-0.02666666666666667" width="3.6883333333332153" height="4.899999999999843" fill="none" stroke="#111111ff" stroke-width="0.08" />
<text x="3.634999999999882" y="5.3154166666665095" font-size="0.375" fill="black" text-anchor="end" font-family="Anuphan">6x8</text>
<text x="-0.037500000000000006" y="5.3154166666665095" font-size="0.375" fill="black" text-anchor="start" font-family="Anuphan" font-weight="600">Input 4</text>
</g>
<g id="d4">
<rect x="0.005" y="0.005" width="0.48666666666664943" height="0.48666666666664943" fill="#252525" />
<rect x="0.49666666666664944" y="0.005" width="0.48666666666664943" height="0.48666666666664943" fill="#252525" />
<rect x="0.9883333333332989" y="0.005" width="0.48666666666664943" height="0.48666666666664943" fill="#FFDC00" />
<rect x="1.4799999999999482" y="0.005" width="0.48666666666664943" height="0.48666666666664943" fill="#FFDC00" />
<rect x="1.9716666666665976" y="0.005" width="0.48666666666664943" height="0.48666666666664943" fill="#252525" />
<rect x="2.463333333333247" y="0.005" width="0.48666666666664943" height="0.48666666666664943" fill="#252525" />
<rect x="0.005" y="0.49666666666664944" width="0.48666666666664943" height="0.48666666666664943" fill="#252525" />
<rect x="0.49666666666664944" y="0.49666666666664944" width="0.48666666666664943" height="0.48666666666664943" fill="#252525" />
<rect x="0.9883333333332989" y="0.49666666666664944" width="0.48666666666664943" height="0.48666666666664943" fill="#FFDC00" />
<rect x="1.4799999999999482" y="0.49666666666664944" width="0.48666666666664943" height="0.48666666666664943" fill="#FFDC00" />
<rect x="1.9716666666665976" y="0.49666666666664944" width="0.48666666666664943" height="0.48666666666664943" fill="#252525" />
<rect x="2.463333333333247" y="0.49666666666664944" width="0.48666666666664943" height="0.48666666666664943" fill="#252525" />
<rect x="0.005" y="0.9883333333332989" width="0.48666666666664943" height="0.48666666666664943" fill="#E6E6E6" />
<rect x="0.49666666666664944" y="0.9883333333332989" width="0.48666666666664943" height="0.48666666666664943" fill="#E6E6E6" />
<rect x="0.9883333333332989" y="0.9883333333332989" width="0.48666666666664943" height="0.48666666666664943" fill="#FFDC00" />
<rect x="1.4799999999999482" y="0.9883333333332989" width="0.48666666666664943" height="0.48666666666664943" fill="#FFDC00" />
<rect x="1.9716666666665976" y="0.9883333333332989" width="0.48666666666664943" height="0.48666666666664943" fill="#E6E6E6" />
<rect x="2.463333333333247" y="0.9883333333332989" width="0.48666666666664943" height="0.48666666666664943" fill="#E6E6E6" />
<rect x="0.005" y="1.4799999999999482" width="0.48666666666664943" height="0.48666666666664943" fill="#E6E6E6" />
<rect x="0.49666666666664944" y="1.4799999999999482" width="0.48666666666664943" height="0.48666666666664943" fill="#E6E6E6" />
<rect x="0.9883333333332989" y="1.4799999999999482" width="0.48666666666664943" height="0.48666666666664943" fill="#FFDC00" />
<rect x="1.4799999999999482" y="1.4799999999999482" width="0.48666666666664943" height="0.48666666666664943" fill="#FFDC00" />
<rect x="1.9716666666665976" y="1.4799999999999482" width="0.48666666666664943" height="0.48666666666664943" fill="#E6E6E6" />
<rect x="2.463333333333247" y="1.4799999999999482" width="0.48666666666664943" height="0.48666666666664943" fill="#E6E6E6" />
<rect x="0.005" y="1.9716666666665976" width="0.48666666666664943" height="0.48666666666664943" fill="#252525" />
<rect x="0.49666666666664944" y="1.9716666666665976" width="0.48666666666664943" height="0.48666666666664943" fill="#252525" />
<rect x="0.9883333333332989" y="1.9716666666665976" width="0.48666666666664943" height="0.48666666666664943" fill="#FFDC00" />
<rect x="1.4799999999999482" y="1.9716666666665976" width="0.48666666666664943" height="0.48666666666664943" fill="#FFDC00" />
<rect x="1.9716666666665976" y="1.9716666666665976" width="0.48666666666664943" height="0.48666666666664943" fill="#252525" />
<rect x="2.463333333333247" y="1.9716666666665976" width="0.48666666666664943" height="0.48666666666664943" fill="#252525" />
<rect x="0.005" y="2.463333333333247" width="0.48666666666664943" height="0.48666666666664943" fill="#252525" />
<rect x="0.49666666666664944" y="2.463333333333247" width="0.48666666666664943" height="0.48666666666664943" fill="#252525" />
<rect x="0.9883333333332989" y="2.463333333333247" width="0.48666666666664943" height="0.48666666666664943" fill="#FFDC00" />
<rect x="1.4799999999999482" y="2.463333333333247" width="0.48666666666664943" height="0.48666666666664943" fill="#FFDC00" />
<rect x="1.9716666666665976" y="2.463333333333247" width="0.48666666666664943" height="0.48666666666664943" fill="#252525" />
<rect x="2.463333333333247" y="2.463333333333247" width="0.48666666666664943" height="0.48666666666664943" fill="#252525" />
<rect x="0.005" y="2.9549999999998966" width="0.48666666666664943" height="0.48666666666664943" fill="#252525" />
<rect x="0.49666666666664944" y="2.9549999999998966" width="0.48666666666664943" height="0.48666666666664943" fill="#252525" />
<rect x="0.9883333333332989" y="2.9549999999998966" width="0.48666666666664943" height="0.48666666666664943" fill="#FFDC00" />
<rect x="1.4799999999999482" y="2.9549999999998966" width="0.48666666666664943" height="0.48666666666664943" fill="#FFDC00" />
<rect x="1.9716666666665976" y="2.9549999999998966" width="0.48666666666664943" height="0.48666666666664943" fill="#252525" />
<rect x="2.463333333333247" y="2.9549999999998966" width="0.48666666666664943" height="0.48666666666664943" fill="#252525" />
<rect x="0.005" y="3.446666666666546" width="0.48666666666664943" height="0.48666666666664943" fill="#252525" />
<rect x="0.49666666666664944" y="3.446666666666546" width="0.48666666666664943" height="0.48666666666664943" fill="#252525" />
<rect x="0.9883333333332989" y="3.446666666666546" width="0.48666666666664943" height="0.48666666666664943" fill="#FFDC00" />
<rect x="1.4799999999999482" y="3.446666666666546" width="0.48666666666664943" height="0.48666666666664943" fill="#FFDC00" />
<rect x="1.9716666666665976" y="3.446666666666546" width="0.48666666666664943" height="0.48666666666664943" fill="#252525" />
<rect x="2.463333333333247" y="3.446666666666546" width="0.48666666666664943" height="0.48666666666664943" fill="#252525" />
<rect x="0.005" y="3.9383333333331954" width="0.48666666666664943" height="0.48666666666664943" fill="#252525" />
<rect x="0.49666666666664944" y="3.9383333333331954" width="0.48666666666664943" height="0.48666666666664943" fill="#252525" />
<rect x="0.9883333333332989" y="3.9383333333331954" width="0.48666666666664943" height="0.48666666666664943" fill="#FFDC00" />
<rect x="1.4799999999999482" y="3.9383333333331954" width="0.48666666666664943" height="0.48666666666664943" fill="#FFDC00" />
<rect x="1.9716666666665976" y="3.9383333333331954" width="0.48666666666664943" height="0.48666666666664943" fill="#252525" />
<rect x="2.463333333333247" y="3.9383333333331954" width="0.48666666666664943" height="0.48666666666664943" fill="#252525" />
<rect x="0.005" y="4.429999999999845" width="0.48666666666664943" height="0.48666666666664943" fill="#252525" />
<rect x="0.49666666666664944" y="4.429999999999845" width="0.48666666666664943" height="0.48666666666664943" fill="#252525" />
<rect x="0.9883333333332989" y="4.429999999999845" width="0.48666666666664943" height="0.48666666666664943" fill="#FFDC00" />
<rect x="1.4799999999999482" y="4.429999999999845" width="0.48666666666664943" height="0.48666666666664943" fill="#FFDC00" />
<rect x="1.9716666666665976" y="4.429999999999845" width="0.48666666666664943" height="0.48666666666664943" fill="#252525" />
<rect x="2.463333333333247" y="4.429999999999845" width="0.48666666666664943" height="0.48666666666664943" fill="#252525" />
<rect x="0.005" y="4.9216666666664945" width="0.48666666666664943" height="0.48666666666664943" fill="#252525" />
<rect x="0.49666666666664944" y="4.9216666666664945" width="0.48666666666664943" height="0.48666666666664943" fill="#252525" />
<rect x="0.9883333333332989" y="4.9216666666664945" width="0.48666666666664943" height="0.48666666666664943" fill="#FFDC00" />
<rect x="1.4799999999999482" y="4.9216666666664945" width="0.48666666666664943" height="0.48666666666664943" fill="#FFDC00" />
<rect x="1.9716666666665976" y="4.9216666666664945" width="0.48666666666664943" height="0.48666666666664943" fill="#252525" />
<rect x="2.463333333333247" y="4.9216666666664945" width="0.48666666666664943" height="0.48666666666664943" fill="#252525" />
<rect x="-0.02666666666666667" y="-0.02666666666666667" width="3.00333333333323" height="5.461666666666478" fill="none" stroke="#111111ff" stroke-width="0.08" />
<text x="2.9499999999998967" y="5.877083333333144" font-size="0.375" fill="black" text-anchor="end" font-family="Anuphan">6x11</text>
<text x="-0.037500000000000006" y="5.877083333333144" font-size="0.375" fill="black" text-anchor="start" font-family="Anuphan" font-weight="600">Test 1</text>
</g>
<g id="d5">
<rect x="0.005" y="0.005" width="0.27461538461537555" height="0.27461538461537555" fill="#252525" />
<rect x="0.28461538461537556" y="0.005" width="0.27461538461537555" height="0.27461538461537555" fill="#252525" />
<rect x="0.5642307692307511" y="0.005" width="0.27461538461537555" height="0.27461538461537555" fill="#252525" />
<rect x="0.8438461538461267" y="0.005" width="0.27461538461537555" height="0.27461538461537555" fill="#54D2EB" />
<rect x="1.123461538461502" y="0.005" width="0.27461538461537555" height="0.27461538461537555" fill="#54D2EB" />
<rect x="1.4030769230768776" y="0.005" width="0.27461538461537555" height="0.27461538461537555" fill="#252525" />
<rect x="1.6826923076922533" y="0.005" width="0.27461538461537555" height="0.27461538461537555" fill="#252525" />
<rect x="1.9623076923076288" y="0.005" width="0.27461538461537555" height="0.27461538461537555" fill="#252525" />
<rect x="2.2419230769230043" y="0.005" width="0.27461538461537555" height="0.27461538461537555" fill="#252525" />
<rect x="2.52153846153838" y="0.005" width="0.27461538461537555" height="0.27461538461537555" fill="#252525" />
<rect x="2.8011538461537553" y="0.005" width="0.27461538461537555" height="0.27461538461537555" fill="#252525" />
<rect x="3.080769230769131" y="0.005" width="0.27461538461537555" height="0.27461538461537555" fill="#252525" />
<rect x="3.3603846153845067" y="0.005" width="0.27461538461537555" height="0.27461538461537555" fill="#252525" />
<rect x="0.005" y="0.28461538461537556" width="0.27461538461537555" height="0.27461538461537555" fill="#252525" />
<rect x="0.28461538461537556" y="0.28461538461537556" width="0.27461538461537555" height="0.27461538461537555" fill="#252525" />
<rect x="0.5642307692307511" y="0.28461538461537556" width="0.27461538461537555" height="0.27461538461537555" fill="#252525" />
<rect x="0.8438461538461267" y="0.28461538461537556" width="0.27461538461537555" height="0.27461538461537555" fill="#54D2EB" />
<rect x="1.123461538461502" y="0.28461538461537556" width="0.27461538461537555" height="0.27461538461537555" fill="#54D2EB" />
<rect x="1.4030769230768776" y="0.28461538461537556" width="0.27461538461537555" height="0.27461538461537555" fill="#252525" />
<rect x="1.6826923076922533" y="0.28461538461537556" width="0.27461538461537555" height="0.27461538461537555" fill="#252525" />
<rect x="1.9623076923076288" y="0.28461538461537556" width="0.27461538461537555" height="0.27461538461537555" fill="#252525" />
<rect x="2.2419230769230043" y="0.28461538461537556" width="0.27461538461537555" height="0.27461538461537555" fill="#252525" />
<rect x="2.52153846153838" y="0.28461538461537556" width="0.27461538461537555" height="0.27461538461537555" fill="#252525" />
<rect x="2.8011538461537553" y="0.28461538461537556" width="0.27461538461537555" height="0.27461538461537555" fill="#252525" />
<rect x="3.080769230769131" y="0.28461538461537556" width="0.27461538461537555" height="0.27461538461537555" fill="#252525" />
<rect x="3.3603846153845067" y="0.28461538461537556" width="0.27461538461537555" height="0.27461538461537555" fill="#252525" />
<rect x="0.005" y="0.5642307692307511" width="0.27461538461537555" height="0.27461538461537555" fill="#252525" />
<rect x="0.28461538461537556" y="0.5642307692307511" width="0.27461538461537555" height="0.27461538461537555" fill="#252525" />
<rect x="0.5642307692307511" y="0.5642307692307511" width="0.27461538461537555" height="0.27461538461537555" fill="#252525" />
<rect x="0.8438461538461267" y="0.5642307692307511" width="0.27461538461537555" height="0.27461538461537555" fill="#54D2EB" />
<rect x="1.123461538461502" y="0.5642307692307511" width="0.27461538461537555" height="0.27461538461537555" fill="#54D2EB" />
<rect x="1.4030769230768776" y="0.5642307692307511" width="0.27461538461537555" height="0.27461538461537555" fill="#252525" />
<rect x="1.6826923076922533" y="0.5642307692307511" width="0.27461538461537555" height="0.27461538461537555" fill="#252525" />
<rect x="1.9623076923076288" y="0.5642307692307511" width="0.27461538461537555" height="0.27461538461537555" fill="#252525" />
<rect x="2.2419230769230043" y="0.5642307692307511" width="0.27461538461537555" height="0.27461538461537555" fill="#252525" />
<rect x="2.52153846153838" y="0.5642307692307511" width="0.27461538461537555" height="0.27461538461537555" fill="#252525" />
<rect x="2.8011538461537553" y="0.5642307692307511" width="0.27461538461537555" height="0.27461538461537555" fill="#252525" />
<rect x="3.080769230769131" y="0.5642307692307511" width="0.27461538461537555" height="0.27461538461537555" fill="#252525" />
<rect x="3.3603846153845067" y="0.5642307692307511" width="0.27461538461537555" height="0.27461538461537555" fill="#252525" />
<rect x="0.005" y="0.8438461538461267" width="0.27461538461537555" height="0.27461538461537555" fill="#37D449" />
<rect x="0.28461538461537556" y="0.8438461538461267" width="0.27461538461537555" height="0.27461538461537555" fill="#37D449" />
<rect x="0.5642307692307511" y="0.8438461538461267" width="0.27461538461537555" height="0.27461538461537555" fill="#37D449" />
<rect x="0.8438461538461267" y="0.8438461538461267" width="0.27461538461537555" height="0.27461538461537555" fill="#37D449" />
<rect x="1.123461538461502" y="0.8438461538461267" width="0.27461538461537555" height="0.27461538461537555" fill="#37D449" />
<rect x="1.4030769230768776" y="0.8438461538461267" width="0.27461538461537555" height="0.27461538461537555" fill="#37D449" />
<rect x="1.6826923076922533" y="0.8438461538461267" width="0.27461538461537555" height="0.27461538461537555" fill="#37D449" />
<rect x="1.9623076923076288" y="0.8438461538461267" width="0.27461538461537555" height="0.27461538461537555" fill="#37D449" />
<rect x="2.2419230769230043" y="0.8438461538461267" width="0.27461538461537555" height="0.27461538461537555" fill="#37D449" />
<rect x="2.52153846153838" y="0.8438461538461267" width="0.27461538461537555" height="0.27461538461537555" fill="#37D449" />
<rect x="2.8011538461537553" y="0.8438461538461267" width="0.27461538461537555" height="0.27461538461537555" fill="#37D449" />
<rect x="3.080769230769131" y="0.8438461538461267" width="0.27461538461537555" height="0.27461538461537555" fill="#37D449" />
<rect x="3.3603846153845067" y="0.8438461538461267" width="0.27461538461537555" height="0.27461538461537555" fill="#37D449" />
<rect x="0.005" y="1.123461538461502" width="0.27461538461537555" height="0.27461538461537555" fill="#37D449" />
<rect x="0.28461538461537556" y="1.123461538461502" width="0.27461538461537555" height="0.27461538461537555" fill="#37D449" />
<rect x="0.5642307692307511" y="1.123461538461502" width="0.27461538461537555" height="0.27461538461537555" fill="#37D449" />
<rect x="0.8438461538461267" y="1.123461538461502" width="0.27461538461537555" height="0.27461538461537555" fill="#37D449" />
<rect x="1.123461538461502" y="1.123461538461502" width="0.27461538461537555" height="0.27461538461537555" fill="#37D449" />
<rect x="1.4030769230768776" y="1.123461538461502" width="0.27461538461537555" height="0.27461538461537555" fill="#37D449" />
<rect x="1.6826923076922533" y="1.123461538461502" width="0.27461538461537555" height="0.27461538461537555" fill="#37D449" />
<rect x="1.9623076923076288" y="1.123461538461502" width="0.27461538461537555" height="0.27461538461537555" fill="#37D449" />
<rect x="2.2419230769230043" y="1.123461538461502" width="0.27461538461537555" height="0.27461538461537555" fill="#37D449" />
<rect x="2.52153846153838" y="1.123461538461502" width="0.27461538461537555" height="0.27461538461537555" fill="#37D449" />
<rect x="2.8011538461537553" y="1.123461538461502" width="0.27461538461537555" height="0.27461538461537555" fill="#37D449" />
<rect x="3.080769230769131" y="1.123461538461502" width="0.27461538461537555" height="0.27461538461537555" fill="#37D449" />
<rect x="3.3603846153845067" y="1.123461538461502" width="0.27461538461537555" height="0.27461538461537555" fill="#37D449" />
<rect x="0.005" y="1.4030769230768776" width="0.27461538461537555" height="0.27461538461537555" fill="#37D449" />
<rect x="0.28461538461537556" y="1.4030769230768776" width="0.27461538461537555" height="0.27461538461537555" fill="#37D449" />
<rect x="0.5642307692307511" y="1.4030769230768776" width="0.27461538461537555" height="0.27461538461537555" fill="#37D449" />
<rect x="0.8438461538461267" y="1.4030769230768776" width="0.27461538461537555" height="0.27461538461537555" fill="#37D449" />
<rect x="1.123461538461502" y="1.4030769230768776" width="0.27461538461537555" height="0.27461538461537555" fill="#37D449" />
<rect x="1.4030769230768776" y="1.4030769230768776" width="0.27461538461537555" height="0.27461538461537555" fill="#37D449" />
<rect x="1.6826923076922533" y="1.4030769230768776" width="0.27461538461537555" height="0.27461538461537555" fill="#37D449" />
<rect x="1.9623076923076288" y="1.4030769230768776" width="0.27461538461537555" height="0.27461538461537555" fill="#37D449" />
<rect x="2.2419230769230043" y="1.4030769230768776" width="0.27461538461537555" height="0.27461538461537555" fill="#37D449" />
<rect x="2.52153846153838" y="1.4030769230768776" width="0.27461538461537555" height="0.27461538461537555" fill="#37D449" />
<rect x="2.8011538461537553" y="1.4030769230768776" width="0.27461538461537555" height="0.27461538461537555" fill="#37D449" />
<rect x="3.080769230769131" y="1.4030769230768776" width="0.27461538461537555" height="0.27461538461537555" fill="#37D449" />
<rect x="3.3603846153845067" y="1.4030769230768776" width="0.27461538461537555" height="0.27461538461537555" fill="#37D449" />
<rect x="0.005" y="1.6826923076922533" width="0.27461538461537555" height="0.27461538461537555" fill="#252525" />
<rect x="0.28461538461537556" y="1.6826923076922533" width="0.27461538461537555" height="0.27461538461537555" fill="#252525" />
<rect x="0.5642307692307511" y="1.6826923076922533" width="0.27461538461537555" height="0.27461538461537555" fill="#252525" />
<rect x="0.8438461538461267" y="1.6826923076922533" width="0.27461538461537555" height="0.27461538461537555" fill="#54D2EB" />
<rect x="1.123461538461502" y="1.6826923076922533" width="0.27461538461537555" height="0.27461538461537555" fill="#54D2EB" />
<rect x="1.4030769230768776" y="1.6826923076922533" width="0.27461538461537555" height="0.27461538461537555" fill="#252525" />
<rect x="1.6826923076922533" y="1.6826923076922533" width="0.27461538461537555" height="0.27461538461537555" fill="#252525" />
<rect x="1.9623076923076288" y="1.6826923076922533" width="0.27461538461537555" height="0.27461538461537555" fill="#252525" />
<rect x="2.2419230769230043" y="1.6826923076922533" width="0.27461538461537555" height="0.27461538461537555" fill="#252525" />
<rect x="2.52153846153838" y="1.6826923076922533" width="0.27461538461537555" height="0.27461538461537555" fill="#252525" />
<rect x="2.8011538461537553" y="1.6826923076922533" width="0.27461538461537555" height="0.27461538461537555" fill="#252525" />
<rect x="3.080769230769131" y="1.6826923076922533" width="0.27461538461537555" height="0.27461538461537555" fill="#252525" />
<rect x="3.3603846153845067" y="1.6826923076922533" width="0.27461538461537555" height="0.27461538461537555" fill="#252525" />
<rect x="0.005" y="1.9623076923076288" width="0.27461538461537555" height="0.27461538461537555" fill="#252525" />
<rect x="0.28461538461537556" y="1.9623076923076288" width="0.27461538461537555" height="0.27461538461537555" fill="#252525" />
<rect x="0.5642307692307511" y="1.9623076923076288" width="0.27461538461537555" height="0.27461538461537555" fill="#252525" />
<rect x="0.8438461538461267" y="1.9623076923076288" width="0.27461538461537555" height="0.27461538461537555" fill="#54D2EB" />
<rect x="1.123461538461502" y="1.9623076923076288" width="0.27461538461537555" height="0.27461538461537555" fill="#54D2EB" />
<rect x="1.4030769230768776" y="1.9623076923076288" width="0.27461538461537555" height="0.27461538461537555" fill="#252525" />
<rect x="1.6826923076922533" y="1.9623076923076288" width="0.27461538461537555" height="0.27461538461537555" fill="#252525" />
<rect x="1.9623076923076288" y="1.9623076923076288" width="0.27461538461537555" height="0.27461538461537555" fill="#252525" />
<rect x="2.2419230769230043" y="1.9623076923076288" width="0.27461538461537555" height="0.27461538461537555" fill="#252525" />
<rect x="2.52153846153838" y="1.9623076923076288" width="0.27461538461537555" height="0.27461538461537555" fill="#252525" />
<rect x="2.8011538461537553" y="1.9623076923076288" width="0.27461538461537555" height="0.27461538461537555" fill="#252525" />
<rect x="3.080769230769131" y="1.9623076923076288" width="0.27461538461537555" height="0.27461538461537555" fill="#252525" />
<rect x="3.3603846153845067" y="1.9623076923076288" width="0.27461538461537555" height="0.27461538461537555" fill="#252525" />
<rect x="0.005" y="2.2419230769230043" width="0.27461538461537555" height="0.27461538461537555" fill="#252525" />
<rect x="0.28461538461537556" y="2.2419230769230043" width="0.27461538461537555" height="0.27461538461537555" fill="#252525" />
<rect x="0.5642307692307511" y="2.2419230769230043" width="0.27461538461537555" height="0.27461538461537555" fill="#252525" />
<rect x="0.8438461538461267" y="2.2419230769230043" width="0.27461538461537555" height="0.27461538461537555" fill="#54D2EB" />
<rect x="1.123461538461502" y="2.2419230769230043" width="0.27461538461537555" height="0.27461538461537555" fill="#54D2EB" />
<rect x="1.4030769230768776" y="2.2419230769230043" width="0.27461538461537555" height="0.27461538461537555" fill="#252525" />
<rect x="1.6826923076922533" y="2.2419230769230043" width="0.27461538461537555" height="0.27461538461537555" fill="#252525" />
<rect x="1.9623076923076288" y="2.2419230769230043" width="0.27461538461537555" height="0.27461538461537555" fill="#252525" />
<rect x="2.2419230769230043" y="2.2419230769230043" width="0.27461538461537555" height="0.27461538461537555" fill="#252525" />
<rect x="2.52153846153838" y="2.2419230769230043" width="0.27461538461537555" height="0.27461538461537555" fill="#252525" />
<rect x="2.8011538461537553" y="2.2419230769230043" width="0.27461538461537555" height="0.27461538461537555" fill="#252525" />
<rect x="3.080769230769131" y="2.2419230769230043" width="0.27461538461537555" height="0.27461538461537555" fill="#252525" />
<rect x="3.3603846153845067" y="2.2419230769230043" width="0.27461538461537555" height="0.27461538461537555" fill="#252525" />
<rect x="0.005" y="2.52153846153838" width="0.27461538461537555" height="0.27461538461537555" fill="#252525" />
<rect x="0.28461538461537556" y="2.52153846153838" width="0.27461538461537555" height="0.27461538461537555" fill="#252525" />
<rect x="0.5642307692307511" y="2.52153846153838" width="0.27461538461537555" height="0.27461538461537555" fill="#252525" />
<rect x="0.8438461538461267" y="2.52153846153838" width="0.27461538461537555" height="0.27461538461537555" fill="#54D2EB" />
<rect x="1.123461538461502" y="2.52153846153838" width="0.27461538461537555" height="0.27461538461537555" fill="#54D2EB" />
<rect x="1.4030769230768776" y="2.52153846153838" width="0.27461538461537555" height="0.27461538461537555" fill="#252525" />
<rect x="1.6826923076922533" y="2.52153846153838" width="0.27461538461537555" height="0.27461538461537555" fill="#252525" />
<rect x="1.9623076923076288" y="2.52153846153838" width="0.27461538461537555" height="0.27461538461537555" fill="#252525" />
<rect x="2.2419230769230043" y="2.52153846153838" width="0.27461538461537555" height="0.27461538461537555" fill="#252525" />
<rect x="2.52153846153838" y="2.52153846153838" width="0.27461538461537555" height="0.27461538461537555" fill="#252525" />
<rect x="2.8011538461537553" y="2.52153846153838" width="0.27461538461537555" height="0.27461538461537555" fill="#252525" />
<rect x="3.080769230769131" y="2.52153846153838" width="0.27461538461537555" height="0.27461538461537555" fill="#252525" />
<rect x="3.3603846153845067" y="2.52153846153838" width="0.27461538461537555" height="0.27461538461537555" fill="#252525" />
<rect x="0.005" y="2.8011538461537553" width="0.27461538461537555" height="0.27461538461537555" fill="#252525" />
<rect x="0.28461538461537556" y="2.8011538461537553" width="0.27461538461537555" height="0.27461538461537555" fill="#252525" />
<rect x="0.5642307692307511" y="2.8011538461537553" width="0.27461538461537555" height="0.27461538461537555" fill="#252525" />
<rect x="0.8438461538461267" y="2.8011538461537553" width="0.27461538461537555" height="0.27461538461537555" fill="#54D2EB" />
<rect x="1.123461538461502" y="2.8011538461537553" width="0.27461538461537555" height="0.27461538461537555" fill="#54D2EB" />
<rect x="1.4030769230768776" y="2.8011538461537553" width="0.27461538461537555" height="0.27461538461537555" fill="#252525" />
<rect x="1.6826923076922533" y="2.8011538461537553" width="0.27461538461537555" height="0.27461538461537555" fill="#252525" />
<rect x="1.9623076923076288" y="2.8011538461537553" width="0.27461538461537555" height="0.27461538461537555" fill="#252525" />
<rect x="2.2419230769230043" y="2.8011538461537553" width="0.27461538461537555" height="0.27461538461537555" fill="#252525" />
<rect x="2.52153846153838" y="2.8011538461537553" width="0.27461538461537555" height="0.27461538461537555" fill="#252525" />
<rect x="2.8011538461537553" y="2.8011538461537553" width="0.27461538461537555" height="0.27461538461537555" fill="#252525" />
<rect x="3.080769230769131" y="2.8011538461537553" width="0.27461538461537555" height="0.27461538461537555" fill="#252525" />
<rect x="3.3603846153845067" y="2.8011538461537553" width="0.27461538461537555" height="0.27461538461537555" fill="#252525" />
<rect x="0.005" y="3.080769230769131" width="0.27461538461537555" height="0.27461538461537555" fill="#252525" />
<rect x="0.28461538461537556" y="3.080769230769131" width="0.27461538461537555" height="0.27461538461537555" fill="#252525" />
<rect x="0.5642307692307511" y="3.080769230769131" width="0.27461538461537555" height="0.27461538461537555" fill="#252525" />
<rect x="0.8438461538461267" y="3.080769230769131" width="0.27461538461537555" height="0.27461538461537555" fill="#54D2EB" />
<rect x="1.123461538461502" y="3.080769230769131" width="0.27461538461537555" height="0.27461538461537555" fill="#54D2EB" />
<rect x="1.4030769230768776" y="3.080769230769131" width="0.27461538461537555" height="0.27461538461537555" fill="#252525" />
<rect x="1.6826923076922533" y="3.080769230769131" width="0.27461538461537555" height="0.27461538461537555" fill="#252525" />
<rect x="1.9623076923076288" y="3.080769230769131" width="0.27461538461537555" height="0.27461538461537555" fill="#252525" />
<rect x="2.2419230769230043" y="3.080769230769131" width="0.27461538461537555" height="0.27461538461537555" fill="#252525" />
<rect x="2.52153846153838" y="3.080769230769131" width="0.27461538461537555" height="0.27461538461537555" fill="#252525" />
<rect x="2.8011538461537553" y="3.080769230769131" width="0.27461538461537555" height="0.27461538461537555" fill="#252525" />
<rect x="3.080769230769131" y="3.080769230769131" width="0.27461538461537555" height="0.27461538461537555" fill="#252525" />
<rect x="3.3603846153845067" y="3.080769230769131" width="0.27461538461537555" height="0.27461538461537555" fill="#252525" />
<rect x="0.005" y="3.3603846153845067" width="0.27461538461537555" height="0.27461538461537555" fill="#252525" />
<rect x="0.28461538461537556" y="3.3603846153845067" width="0.27461538461537555" height="0.27461538461537555" fill="#252525" />
<rect x="0.5642307692307511" y="3.3603846153845067" width="0.27461538461537555" height="0.27461538461537555" fill="#252525" />
<rect x="0.8438461538461267" y="3.3603846153845067" width="0.27461538461537555" height="0.27461538461537555" fill="#54D2EB" />
<rect x="1.123461538461502" y="3.3603846153845067" width="0.27461538461537555" height="0.27461538461537555" fill="#54D2EB" />
<rect x="1.4030769230768776" y="3.3603846153845067" width="0.27461538461537555" height="0.27461538461537555" fill="#252525" />
<rect x="1.6826923076922533" y="3.3603846153845067" width="0.27461538461537555" height="0.27461538461537555" fill="#252525" />
<rect x="1.9623076923076288" y="3.3603846153845067" width="0.27461538461537555" height="0.27461538461537555" fill="#252525" />
<rect x="2.2419230769230043" y="3.3603846153845067" width="0.27461538461537555" height="0.27461538461537555" fill="#252525" />
<rect x="2.52153846153838" y="3.3603846153845067" width="0.27461538461537555" height="0.27461538461537555" fill="#252525" />
<rect x="2.8011538461537553" y="3.3603846153845067" width="0.27461538461537555" height="0.27461538461537555" fill="#252525" />
<rect x="3.080769230769131" y="3.3603846153845067" width="0.27461538461537555" height="0.27461538461537555" fill="#252525" />
<rect x="3.3603846153845067" y="3.3603846153845067" width="0.27461538461537555" height="0.27461538461537555" fill="#252525" />
<rect x="-0.02666666666666667" y="-0.02666666666666667" width="3.6883333333332153" height="3.6883333333332153" fill="none" stroke="#111111ff" stroke-width="0.08" />
<text x="3.634999999999882" y="4.1037499999998825" font-size="0.375" fill="black" text-anchor="end" font-family="Anuphan">13x13</text>
<text x="-0.037500000000000006" y="4.1037499999998825" font-size="0.375" fill="black" text-anchor="start" font-family="Anuphan" font-weight="600">Output 1</text>
</g>
<g id="d6">
<rect x="0.005" y="0.005" width="0.3988888888888758" height="0.3988888888888758" fill="#252525" />
<rect x="0.4088888888888758" y="0.005" width="0.3988888888888758" height="0.3988888888888758" fill="#252525" />
<rect x="0.8127777777777516" y="0.005" width="0.3988888888888758" height="0.3988888888888758" fill="#F012BE" />
<rect x="1.2166666666666273" y="0.005" width="0.3988888888888758" height="0.3988888888888758" fill="#F012BE" />
<rect x="1.6205555555555031" y="0.005" width="0.3988888888888758" height="0.3988888888888758" fill="#252525" />
<rect x="2.024444444444379" y="0.005" width="0.3988888888888758" height="0.3988888888888758" fill="#252525" />
<rect x="2.4283333333332546" y="0.005" width="0.3988888888888758" height="0.3988888888888758" fill="#252525" />
<rect x="2.8322222222221307" y="0.005" width="0.3988888888888758" height="0.3988888888888758" fill="#252525" />
<rect x="3.2361111111110064" y="0.005" width="0.3988888888888758" height="0.3988888888888758" fill="#252525" />
<rect x="0.005" y="0.4088888888888758" width="0.3988888888888758" height="0.3988888888888758" fill="#252525" />
<rect x="0.4088888888888758" y="0.4088888888888758" width="0.3988888888888758" height="0.3988888888888758" fill="#252525" />
<rect x="0.8127777777777516" y="0.4088888888888758" width="0.3988888888888758" height="0.3988888888888758" fill="#F012BE" />
<rect x="1.2166666666666273" y="0.4088888888888758" width="0.3988888888888758" height="0.3988888888888758" fill="#F012BE" />
<rect x="1.6205555555555031" y="0.4088888888888758" width="0.3988888888888758" height="0.3988888888888758" fill="#252525" />
<rect x="2.024444444444379" y="0.4088888888888758" width="0.3988888888888758" height="0.3988888888888758" fill="#252525" />
<rect x="2.4283333333332546" y="0.4088888888888758" width="0.3988888888888758" height="0.3988888888888758" fill="#252525" />
<rect x="2.8322222222221307" y="0.4088888888888758" width="0.3988888888888758" height="0.3988888888888758" fill="#252525" />
<rect x="3.2361111111110064" y="0.4088888888888758" width="0.3988888888888758" height="0.3988888888888758" fill="#252525" />
<rect x="0.005" y="0.8127777777777516" width="0.3988888888888758" height="0.3988888888888758" fill="#252525" />
<rect x="0.4088888888888758" y="0.8127777777777516" width="0.3988888888888758" height="0.3988888888888758" fill="#252525" />
<rect x="0.8127777777777516" y="0.8127777777777516" width="0.3988888888888758" height="0.3988888888888758" fill="#F012BE" />
<rect x="1.2166666666666273" y="0.8127777777777516" width="0.3988888888888758" height="0.3988888888888758" fill="#F012BE" />
<rect x="1.6205555555555031" y="0.8127777777777516" width="0.3988888888888758" height="0.3988888888888758" fill="#252525" />
<rect x="2.024444444444379" y="0.8127777777777516" width="0.3988888888888758" height="0.3988888888888758" fill="#252525" />
<rect x="2.4283333333332546" y="0.8127777777777516" width="0.3988888888888758" height="0.3988888888888758" fill="#252525" />
<rect x="2.8322222222221307" y="0.8127777777777516" width="0.3988888888888758" height="0.3988888888888758" fill="#252525" />
<rect x="3.2361111111110064" y="0.8127777777777516" width="0.3988888888888758" height="0.3988888888888758" fill="#252525" />
<rect x="0.005" y="1.2166666666666273" width="0.3988888888888758" height="0.3988888888888758" fill="#0074D9" />
<rect x="0.4088888888888758" y="1.2166666666666273" width="0.3988888888888758" height="0.3988888888888758" fill="#0074D9" />
<rect x="0.8127777777777516" y="1.2166666666666273" width="0.3988888888888758" height="0.3988888888888758" fill="#F012BE" />
<rect x="1.2166666666666273" y="1.2166666666666273" width="0.3988888888888758" height="0.3988888888888758" fill="#F012BE" />
<rect x="1.6205555555555031" y="1.2166666666666273" width="0.3988888888888758" height="0.3988888888888758" fill="#0074D9" />
<rect x="2.024444444444379" y="1.2166666666666273" width="0.3988888888888758" height="0.3988888888888758" fill="#0074D9" />
<rect x="2.4283333333332546" y="1.2166666666666273" width="0.3988888888888758" height="0.3988888888888758" fill="#0074D9" />
<rect x="2.8322222222221307" y="1.2166666666666273" width="0.3988888888888758" height="0.3988888888888758" fill="#0074D9" />
<rect x="3.2361111111110064" y="1.2166666666666273" width="0.3988888888888758" height="0.3988888888888758" fill="#0074D9" />
<rect x="0.005" y="1.6205555555555031" width="0.3988888888888758" height="0.3988888888888758" fill="#252525" />
<rect x="0.4088888888888758" y="1.6205555555555031" width="0.3988888888888758" height="0.3988888888888758" fill="#252525" />
<rect x="0.8127777777777516" y="1.6205555555555031" width="0.3988888888888758" height="0.3988888888888758" fill="#F012BE" />
<rect x="1.2166666666666273" y="1.6205555555555031" width="0.3988888888888758" height="0.3988888888888758" fill="#F012BE" />
<rect x="1.6205555555555031" y="1.6205555555555031" width="0.3988888888888758" height="0.3988888888888758" fill="#252525" />
<rect x="2.024444444444379" y="1.6205555555555031" width="0.3988888888888758" height="0.3988888888888758" fill="#252525" />
<rect x="2.4283333333332546" y="1.6205555555555031" width="0.3988888888888758" height="0.3988888888888758" fill="#252525" />
<rect x="2.8322222222221307" y="1.6205555555555031" width="0.3988888888888758" height="0.3988888888888758" fill="#252525" />
<rect x="3.2361111111110064" y="1.6205555555555031" width="0.3988888888888758" height="0.3988888888888758" fill="#252525" />
<rect x="0.005" y="2.024444444444379" width="0.3988888888888758" height="0.3988888888888758" fill="#252525" />
<rect x="0.4088888888888758" y="2.024444444444379" width="0.3988888888888758" height="0.3988888888888758" fill="#252525" />
<rect x="0.8127777777777516" y="2.024444444444379" width="0.3988888888888758" height="0.3988888888888758" fill="#F012BE" />
<rect x="1.2166666666666273" y="2.024444444444379" width="0.3988888888888758" height="0.3988888888888758" fill="#F012BE" />
<rect x="1.6205555555555031" y="2.024444444444379" width="0.3988888888888758" height="0.3988888888888758" fill="#252525" />
<rect x="2.024444444444379" y="2.024444444444379" width="0.3988888888888758" height="0.3988888888888758" fill="#252525" />
<rect x="2.4283333333332546" y="2.024444444444379" width="0.3988888888888758" height="0.3988888888888758" fill="#252525" />
<rect x="2.8322222222221307" y="2.024444444444379" width="0.3988888888888758" height="0.3988888888888758" fill="#252525" />
<rect x="3.2361111111110064" y="2.024444444444379" width="0.3988888888888758" height="0.3988888888888758" fill="#252525" />
<rect x="0.005" y="2.4283333333332546" width="0.3988888888888758" height="0.3988888888888758" fill="#252525" />
<rect x="0.4088888888888758" y="2.4283333333332546" width="0.3988888888888758" height="0.3988888888888758" fill="#252525" />
<rect x="0.8127777777777516" y="2.4283333333332546" width="0.3988888888888758" height="0.3988888888888758" fill="#F012BE" />
<rect x="1.2166666666666273" y="2.4283333333332546" width="0.3988888888888758" height="0.3988888888888758" fill="#F012BE" />
<rect x="1.6205555555555031" y="2.4283333333332546" width="0.3988888888888758" height="0.3988888888888758" fill="#252525" />
<rect x="2.024444444444379" y="2.4283333333332546" width="0.3988888888888758" height="0.3988888888888758" fill="#252525" />
<rect x="2.4283333333332546" y="2.4283333333332546" width="0.3988888888888758" height="0.3988888888888758" fill="#252525" />
<rect x="2.8322222222221307" y="2.4283333333332546" width="0.3988888888888758" height="0.3988888888888758" fill="#252525" />
<rect x="3.2361111111110064" y="2.4283333333332546" width="0.3988888888888758" height="0.3988888888888758" fill="#252525" />
<rect x="-0.02666666666666667" y="-0.02666666666666667" width="3.6883333333332153" height="2.880555555555464" fill="none" stroke="#111111ff" stroke-width="0.08" />
<text x="3.634999999999882" y="3.295972222222131" font-size="0.375" fill="black" text-anchor="end" font-family="Anuphan">9x7</text>
<text x="-0.037500000000000006" y="3.295972222222131" font-size="0.375" fill="black" text-anchor="start" font-family="Anuphan" font-weight="600">Output 2</text>
</g>
<g id="d7">
<rect x="0.005" y="0.005" width="0.5142857142856975" height="0.5142857142856975" fill="#252525" />
<rect x="0.5242857142856975" y="0.005" width="0.5142857142856975" height="0.5142857142856975" fill="#252525" />
<rect x="1.0435714285713948" y="0.005" width="0.5142857142856975" height="0.5142857142856975" fill="#0074D9" />
<rect x="1.5628571428570923" y="0.005" width="0.5142857142856975" height="0.5142857142856975" fill="#252525" />
<rect x="2.08214285714279" y="0.005" width="0.5142857142856975" height="0.5142857142856975" fill="#252525" />
<rect x="2.601428571428487" y="0.005" width="0.5142857142856975" height="0.5142857142856975" fill="#252525" />
<rect x="3.1207142857141847" y="0.005" width="0.5142857142856975" height="0.5142857142856975" fill="#252525" />
<rect x="0.005" y="0.5242857142856975" width="0.5142857142856975" height="0.5142857142856975" fill="#252525" />
<rect x="0.5242857142856975" y="0.5242857142856975" width="0.5142857142856975" height="0.5142857142856975" fill="#252525" />
<rect x="1.0435714285713948" y="0.5242857142856975" width="0.5142857142856975" height="0.5142857142856975" fill="#0074D9" />
<rect x="1.5628571428570923" y="0.5242857142856975" width="0.5142857142856975" height="0.5142857142856975" fill="#252525" />
<rect x="2.08214285714279" y="0.5242857142856975" width="0.5142857142856975" height="0.5142857142856975" fill="#252525" />
<rect x="2.601428571428487" y="0.5242857142856975" width="0.5142857142856975" height="0.5142857142856975" fill="#252525" />
<rect x="3.1207142857141847" y="0.5242857142856975" width="0.5142857142856975" height="0.5142857142856975" fill="#252525" />
<rect x="0.005" y="1.0435714285713948" width="0.5142857142856975" height="0.5142857142856975" fill="#252525" />
<rect x="0.5242857142856975" y="1.0435714285713948" width="0.5142857142856975" height="0.5142857142856975" fill="#252525" />
<rect x="1.0435714285713948" y="1.0435714285713948" width="0.5142857142856975" height="0.5142857142856975" fill="#0074D9" />
<rect x="1.5628571428570923" y="1.0435714285713948" width="0.5142857142856975" height="0.5142857142856975" fill="#252525" />
<rect x="2.08214285714279" y="1.0435714285713948" width="0.5142857142856975" height="0.5142857142856975" fill="#252525" />
<rect x="2.601428571428487" y="1.0435714285713948" width="0.5142857142856975" height="0.5142857142856975" fill="#252525" />
<rect x="3.1207142857141847" y="1.0435714285713948" width="0.5142857142856975" height="0.5142857142856975" fill="#252525" />
<rect x="0.005" y="1.5628571428570923" width="0.5142857142856975" height="0.5142857142856975" fill="#FF871E" />
<rect x="0.5242857142856975" y="1.5628571428570923" width="0.5142857142856975" height="0.5142857142856975" fill="#FF871E" />
<rect x="1.0435714285713948" y="1.5628571428570923" width="0.5142857142856975" height="0.5142857142856975" fill="#0074D9" />
<rect x="1.5628571428570923" y="1.5628571428570923" width="0.5142857142856975" height="0.5142857142856975" fill="#FF871E" />
<rect x="2.08214285714279" y="1.5628571428570923" width="0.5142857142856975" height="0.5142857142856975" fill="#FF871E" />
<rect x="2.601428571428487" y="1.5628571428570923" width="0.5142857142856975" height="0.5142857142856975" fill="#FF871E" />
<rect x="3.1207142857141847" y="1.5628571428570923" width="0.5142857142856975" height="0.5142857142856975" fill="#FF871E" />
<rect x="0.005" y="2.08214285714279" width="0.5142857142856975" height="0.5142857142856975" fill="#252525" />
<rect x="0.5242857142856975" y="2.08214285714279" width="0.5142857142856975" height="0.5142857142856975" fill="#252525" />
<rect x="1.0435714285713948" y="2.08214285714279" width="0.5142857142856975" height="0.5142857142856975" fill="#0074D9" />
<rect x="1.5628571428570923" y="2.08214285714279" width="0.5142857142856975" height="0.5142857142856975" fill="#252525" />
<rect x="2.08214285714279" y="2.08214285714279" width="0.5142857142856975" height="0.5142857142856975" fill="#252525" />
<rect x="2.601428571428487" y="2.08214285714279" width="0.5142857142856975" height="0.5142857142856975" fill="#252525" />
<rect x="3.1207142857141847" y="2.08214285714279" width="0.5142857142856975" height="0.5142857142856975" fill="#252525" />
<rect x="0.005" y="2.601428571428487" width="0.5142857142856975" height="0.5142857142856975" fill="#252525" />
<rect x="0.5242857142856975" y="2.601428571428487" width="0.5142857142856975" height="0.5142857142856975" fill="#252525" />
<rect x="1.0435714285713948" y="2.601428571428487" width="0.5142857142856975" height="0.5142857142856975" fill="#0074D9" />
<rect x="1.5628571428570923" y="2.601428571428487" width="0.5142857142856975" height="0.5142857142856975" fill="#252525" />
<rect x="2.08214285714279" y="2.601428571428487" width="0.5142857142856975" height="0.5142857142856975" fill="#252525" />
<rect x="2.601428571428487" y="2.601428571428487" width="0.5142857142856975" height="0.5142857142856975" fill="#252525" />
<rect x="3.1207142857141847" y="2.601428571428487" width="0.5142857142856975" height="0.5142857142856975" fill="#252525" />
<rect x="0.005" y="3.1207142857141847" width="0.5142857142856975" height="0.5142857142856975" fill="#252525" />
<rect x="0.5242857142856975" y="3.1207142857141847" width="0.5142857142856975" height="0.5142857142856975" fill="#252525" />
<rect x="1.0435714285713948" y="3.1207142857141847" width="0.5142857142856975" height="0.5142857142856975" fill="#0074D9" />
<rect x="1.5628571428570923" y="3.1207142857141847" width="0.5142857142856975" height="0.5142857142856975" fill="#252525" />
<rect x="2.08214285714279" y="3.1207142857141847" width="0.5142857142856975" height="0.5142857142856975" fill="#252525" />
<rect x="2.601428571428487" y="3.1207142857141847" width="0.5142857142856975" height="0.5142857142856975" fill="#252525" />
<rect x="3.1207142857141847" y="3.1207142857141847" width="0.5142857142856975" height="0.5142857142856975" fill="#252525" />
<rect x="0.005" y="3.6399999999998824" width="0.5142857142856975" height="0.5142857142856975" fill="#252525" />
<rect x="0.5242857142856975" y="3.6399999999998824" width="0.5142857142856975" height="0.5142857142856975" fill="#252525" />
<rect x="1.0435714285713948" y="3.6399999999998824" width="0.5142857142856975" height="0.5142857142856975" fill="#0074D9" />
<rect x="1.5628571428570923" y="3.6399999999998824" width="0.5142857142856975" height="0.5142857142856975" fill="#252525" />
<rect x="2.08214285714279" y="3.6399999999998824" width="0.5142857142856975" height="0.5142857142856975" fill="#252525" />
<rect x="2.601428571428487" y="3.6399999999998824" width="0.5142857142856975" height="0.5142857142856975" fill="#252525" />
<rect x="3.1207142857141847" y="3.6399999999998824" width="0.5142857142856975" height="0.5142857142856975" fill="#252525" />
<rect x="-0.02666666666666667" y="-0.02666666666666667" width="3.688333333333216" height="4.2076190476189135" fill="none" stroke="#111111ff" stroke-width="0.08" />
<text x="3.6349999999998825" y="4.62303571428558" font-size="0.375" fill="black" text-anchor="end" font-family="Anuphan">7x8</text>
<text x="-0.037500000000000006" y="4.62303571428558" font-size="0.375" fill="black" text-anchor="start" font-family="Anuphan" font-weight="600">Output 3</text>
</g>
<g id="d8">
<rect x="0.005" y="0.005" width="0.6008333333333137" height="0.6008333333333137" fill="#252525" />
<rect x="0.6108333333333137" y="0.005" width="0.6008333333333137" height="0.6008333333333137" fill="#37D449" />
<rect x="1.2166666666666273" y="0.005" width="0.6008333333333137" height="0.6008333333333137" fill="#252525" />
<rect x="1.822499999999941" y="0.005" width="0.6008333333333137" height="0.6008333333333137" fill="#252525" />
<rect x="2.4283333333332546" y="0.005" width="0.6008333333333137" height="0.6008333333333137" fill="#252525" />
<rect x="3.034166666666568" y="0.005" width="0.6008333333333137" height="0.6008333333333137" fill="#252525" />
<rect x="0.005" y="0.6108333333333137" width="0.6008333333333137" height="0.6008333333333137" fill="#252525" />
<rect x="0.6108333333333137" y="0.6108333333333137" width="0.6008333333333137" height="0.6008333333333137" fill="#37D449" />
<rect x="1.2166666666666273" y="0.6108333333333137" width="0.6008333333333137" height="0.6008333333333137" fill="#252525" />
<rect x="1.822499999999941" y="0.6108333333333137" width="0.6008333333333137" height="0.6008333333333137" fill="#252525" />
<rect x="2.4283333333332546" y="0.6108333333333137" width="0.6008333333333137" height="0.6008333333333137" fill="#252525" />
<rect x="3.034166666666568" y="0.6108333333333137" width="0.6008333333333137" height="0.6008333333333137" fill="#252525" />
<rect x="0.005" y="1.2166666666666273" width="0.6008333333333137" height="0.6008333333333137" fill="#252525" />
<rect x="0.6108333333333137" y="1.2166666666666273" width="0.6008333333333137" height="0.6008333333333137" fill="#37D449" />
<rect x="1.2166666666666273" y="1.2166666666666273" width="0.6008333333333137" height="0.6008333333333137" fill="#252525" />
<rect x="1.822499999999941" y="1.2166666666666273" width="0.6008333333333137" height="0.6008333333333137" fill="#252525" />
<rect x="2.4283333333332546" y="1.2166666666666273" width="0.6008333333333137" height="0.6008333333333137" fill="#252525" />
<rect x="3.034166666666568" y="1.2166666666666273" width="0.6008333333333137" height="0.6008333333333137" fill="#252525" />
<rect x="0.005" y="1.822499999999941" width="0.6008333333333137" height="0.6008333333333137" fill="#252525" />
<rect x="0.6108333333333137" y="1.822499999999941" width="0.6008333333333137" height="0.6008333333333137" fill="#37D449" />
<rect x="1.2166666666666273" y="1.822499999999941" width="0.6008333333333137" height="0.6008333333333137" fill="#252525" />
<rect x="1.822499999999941" y="1.822499999999941" width="0.6008333333333137" height="0.6008333333333137" fill="#252525" />
<rect x="2.4283333333332546" y="1.822499999999941" width="0.6008333333333137" height="0.6008333333333137" fill="#252525" />
<rect x="3.034166666666568" y="1.822499999999941" width="0.6008333333333137" height="0.6008333333333137" fill="#252525" />
<rect x="0.005" y="2.4283333333332546" width="0.6008333333333137" height="0.6008333333333137" fill="#FF4136" />
<rect x="0.6108333333333137" y="2.4283333333332546" width="0.6008333333333137" height="0.6008333333333137" fill="#FF4136" />
<rect x="1.2166666666666273" y="2.4283333333332546" width="0.6008333333333137" height="0.6008333333333137" fill="#FF4136" />
<rect x="1.822499999999941" y="2.4283333333332546" width="0.6008333333333137" height="0.6008333333333137" fill="#FF4136" />
<rect x="2.4283333333332546" y="2.4283333333332546" width="0.6008333333333137" height="0.6008333333333137" fill="#FF4136" />
<rect x="3.034166666666568" y="2.4283333333332546" width="0.6008333333333137" height="0.6008333333333137" fill="#FF4136" />
<rect x="0.005" y="3.034166666666568" width="0.6008333333333137" height="0.6008333333333137" fill="#252525" />
<rect x="0.6108333333333137" y="3.034166666666568" width="0.6008333333333137" height="0.6008333333333137" fill="#37D449" />
<rect x="1.2166666666666273" y="3.034166666666568" width="0.6008333333333137" height="0.6008333333333137" fill="#252525" />
<rect x="1.822499999999941" y="3.034166666666568" width="0.6008333333333137" height="0.6008333333333137" fill="#252525" />
<rect x="2.4283333333332546" y="3.034166666666568" width="0.6008333333333137" height="0.6008333333333137" fill="#252525" />
<rect x="3.034166666666568" y="3.034166666666568" width="0.6008333333333137" height="0.6008333333333137" fill="#252525" />
<rect x="0.005" y="3.639999999999882" width="0.6008333333333137" height="0.6008333333333137" fill="#252525" />
<rect x="0.6108333333333137" y="3.639999999999882" width="0.6008333333333137" height="0.6008333333333137" fill="#37D449" />
<rect x="1.2166666666666273" y="3.639999999999882" width="0.6008333333333137" height="0.6008333333333137" fill="#252525" />
<rect x="1.822499999999941" y="3.639999999999882" width="0.6008333333333137" height="0.6008333333333137" fill="#252525" />
<rect x="2.4283333333332546" y="3.639999999999882" width="0.6008333333333137" height="0.6008333333333137" fill="#252525" />
<rect x="3.034166666666568" y="3.639999999999882" width="0.6008333333333137" height="0.6008333333333137" fill="#252525" />
<rect x="0.005" y="4.245833333333196" width="0.6008333333333137" height="0.6008333333333137" fill="#252525" />
<rect x="0.6108333333333137" y="4.245833333333196" width="0.6008333333333137" height="0.6008333333333137" fill="#37D449" />
<rect x="1.2166666666666273" y="4.245833333333196" width="0.6008333333333137" height="0.6008333333333137" fill="#252525" />
<rect x="1.822499999999941" y="4.245833333333196" width="0.6008333333333137" height="0.6008333333333137" fill="#252525" />
<rect x="2.4283333333332546" y="4.245833333333196" width="0.6008333333333137" height="0.6008333333333137" fill="#252525" />
<rect x="3.034166666666568" y="4.245833333333196" width="0.6008333333333137" height="0.6008333333333137" fill="#252525" />
<rect x="-0.02666666666666667" y="-0.02666666666666667" width="3.6883333333332153" height="4.899999999999843" fill="none" stroke="#111111ff" stroke-width="0.08" />
<text x="3.634999999999882" y="5.3154166666665095" font-size="0.375" fill="black" text-anchor="end" font-family="Anuphan">6x8</text>
<text x="-0.037500000000000006" y="5.3154166666665095" font-size="0.375" fill="black" text-anchor="start" font-family="Anuphan" font-weight="600">Output 4</text>
</g>
</defs>
<rect x="0" y="0" width="100%" height="100%" fill="#eeeff6" />
<use xlink:href="#d0" x="0.25" y="0.25" />
<use xlink:href="#d1" x="4.3849999999998825" y="0.25" />
<use xlink:href="#d2" x="8.519999999999765" y="0.25" />
<use xlink:href="#d3" x="12.654999999999648" y="0.25" />
<use xlink:href="#d4" x="16.78999999999953" y="0.25" />
<path d="M2.0674999999999413,6.308333333333144 L2.0674999999999413,6.708333333333145" stroke-width="0.05" stroke="#888888" />
<path d="M1.9174999999999414,6.508333333333145 L2.0674999999999413,6.708333333333145" stroke-width="0.05" stroke="#888888" />
<path d="M2.217499999999941,6.508333333333145 L2.0674999999999413,6.708333333333145" stroke-width="0.05" stroke="#888888" />
<use xlink:href="#d5" x="0.25" y="7.058333333333144" />
<path d="M6.202499999999824,6.308333333333144 L6.202499999999824,6.708333333333145" stroke-width="0.05" stroke="#888888" />
<path d="M6.0524999999998235,6.508333333333145 L6.202499999999824,6.708333333333145" stroke-width="0.05" stroke="#888888" />
<path d="M6.352499999999824,6.508333333333145 L6.202499999999824,6.708333333333145" stroke-width="0.05" stroke="#888888" />
<use xlink:href="#d6" x="4.3849999999998825" y="7.058333333333144" />
<path d="M10.337499999999707,6.308333333333144 L10.337499999999707,6.708333333333145" stroke-width="0.05" stroke="#888888" />
<path d="M10.187499999999707,6.508333333333145 L10.337499999999707,6.708333333333145" stroke-width="0.05" stroke="#888888" />
<path d="M10.487499999999708,6.508333333333145 L10.337499999999707,6.708333333333145" stroke-width="0.05" stroke="#888888" />
<use xlink:href="#d7" x="8.519999999999765" y="7.058333333333144" />
<path d="M14.472499999999588,6.308333333333144 L14.472499999999588,6.708333333333145" stroke-width="0.05" stroke="#888888" />
<path d="M14.322499999999588,6.508333333333145 L14.472499999999588,6.708333333333145" stroke-width="0.05" stroke="#888888" />
<path d="M14.622499999999588,6.508333333333145 L14.472499999999588,6.708333333333145" stroke-width="0.05" stroke="#888888" />
<use xlink:href="#d8" x="12.654999999999648" y="7.058333333333144" />
<path d="M18.26499999999948,6.308333333333144 L18.26499999999948,6.708333333333145" stroke-width="0.05" stroke="#888888" />
<path d="M18.11499999999948,6.508333333333145 L18.26499999999948,6.708333333333145" stroke-width="0.05" stroke="#888888" />
<path d="M18.414999999999477,6.508333333333145 L18.26499999999948,6.708333333333145" stroke-width="0.05" stroke="#888888" />
<text x="18.26499999999948" y="9.862499999999716" font-size="1" font-family="Anuphan" font-weight="700" fill="#333333" text-anchor="middle" alignment-baseline="middle">?</text>
<text x="19.9" y="13.299999999999999" font-size="0.3" font-family="Anuphan" font-weight="600" fill="#666666" text-anchor="end" alignment-baseline="bottom">Task ba97ae07</text>
</svg>