<?xml version="1.0" encoding="UTF-8"?>
<svg xmlns="http://www.w3.org/2000/svg" xmlns:xlink="http://www.w3.org/1999/xlink"
     width="800.0" height="451.99999999999994" viewBox="0 0 20.0 11.299999999999999">
<defs>
<g id="d0">
<rect x="0.005" y="0.005" width="0.49471428571426235" height="0.49471428571426235" fill="#37D449" />
<rect x="0.5047142857142624" y="0.005" width="0.49471428571426235" height="0.49471428571426235" fill="#252525" />
<rect x="1.0044285714285246" y="0.005" width="0.49471428571426235" height="0.49471428571426235" fill="#FF4136" />
<rect x="1.5041428571427868" y="0.005" width="0.49471428571426235" height="0.49471428571426235" fill="#252525" />
<rect x="2.0038571428570493" y="0.005" width="0.49471428571426235" height="0.49471428571426235" fill="#252525" />
<rect x="2.5035714285713118" y="0.005" width="0.49471428571426235" height="0.49471428571426235" fill="#252525" />
<rect x="3.003285714285574" y="0.005" width="0.49471428571426235" height="0.49471428571426235" fill="#37D449" />
<rect x="0.005" y="0.5047142857142624" width="0.49471428571426235" height="0.49471428571426235" fill="#252525" />
<rect x="0.5047142857142624" y="0.5047142857142624" width="0.49471428571426235" height="0.49471428571426235" fill="#FF4136" />
<rect x="1.0044285714285246" y="0.5047142857142624" width="0.49471428571426235" height="0.49471428571426235" fill="#FF4136" />
<rect x="1.5041428571427868" y="0.5047142857142624" width="0.49471428571426235" height="0.49471428571426235" fill="#252525" />
<rect x="2.0038571428570493" y="0.5047142857142624" width="0.49471428571426235" height="0.49471428571426235" fill="#252525" />
<rect x="2.5035714285713118" y="0.5047142857142624" width="0.49471428571426235" height="0.49471428571426235" fill="#252525" />
<rect x="3.003285714285574" y="0.5047142857142624" width="0.49471428571426235" height="0.49471428571426235" fill="#252525" />
<rect x="0.005" y="1.0044285714285246" width="0.49471428571426235" height="0.49471428571426235" fill="#FF4136" />
<rect x="0.5047142857142624" y="1.0044285714285246" width="0.49471428571426235" height="0.49471428571426235" fill="#FF4136" />
<rect x="1.0044285714285246" y="1.0044285714285246" width="0.49471428571426235" height="0.49471428571426235" fill="#FF4136" />
<rect x="1.5041428571427868" y="1.0044285714285246" width="0.49471428571426235" height="0.49471428571426235" fill="#FF4136" />
<rect x="2.0038571428570493" y="1.0044285714285246" width="0.49471428571426235" height="0.49471428571426235" fill="#FF4136" />
<rect x="2.5035714285713118" y="1.0044285714285246" width="0.49471428571426235" height="0.49471428571426235" fill="#252525" />
<rect x="3.003285714285574" y="1.0044285714285246" width="0.49471428571426235" height="0.49471428571426235" fill="#252525" />
<rect x="0.005" y="1.5041428571427868" width="0.49471428571426235" height="0.49471428571426235" fill="#252525" />
<rect x="0.5047142857142624" y="1.5041428571427868" width="0.49471428571426235" height="0.49471428571426235" fill="#FF4136" />
<rect x="1.0044285714285246" y="1.5041428571427868" width="0.49471428571426235" height="0.49471428571426235" fill="#252525" />
<rect x="1.5041428571427868" y="1.5041428571427868" width="0.49471428571426235" height="0.49471428571426235" fill="#252525" />
<rect x="2.0038571428570493" y="1.5041428571427868" width="0.49471428571426235" height="0.49471428571426235" fill="#252525" />
<rect x="2.5035714285713118" y="1.5041428571427868" width="0.49471428571426235" height="0.49471428571426235" fill="#252525" />
<rect x="3.003285714285574" y="1.5041428571427868" width="0.49471428571426235" height="0.49471428571426235" fill="#252525" />
<rect x="0.005" y="2.0038571428570493" width="0.49471428571426235" height="0.49471428571426235" fill="#252525" />
<rect x="0.5047142857142624" y="2.0038571428570493" width="0.49471428571426235" height="0.49471428571426235" fill="#FF4136" />
<rect x="1.0044285714285246" y="2.0038571428570493" width="0.49471428571426235" height="0.49471428571426235" fill="#FF4136" />
<rect x="1.5041428571427868" y="2.0038571428570493" width="0.49471428571426235" height="0.49471428571426235" fill="#252525" />
<rect x="2.0038571428570493" y="2.0038571428570493" width="0.49471428571426235" height="0.49471428571426235" fill="#252525" />
<rect x="2.5035714285713118" y="2.0038571428570493" width="0.49471428571426235" height="0.49471428571426235" fill="#252525" />
<rect x="3.003285714285574" y="2.0038571428570493" width="0.49471428571426235" height="0.49471428571426235" fill="#252525" />
<rect x="0.005" y="2.5035714285713118" width="0.49471428571426235" height="0.49471428571426235" fill="#252525" />
<rect x="0.5047142857142624" y="2.5035714285713118" width="0.49471428571426235" height="0.49471428571426235" fill="#252525" />
<rect x="1.0044285714285246" y="2.5035714285713118" width="0.49471428571426235" height="0.49471428571426235" fill="#252525" />
<rect x="1.5041428571427868" y="2.5035714285713118" width="0.49471428571426235" height="0.49471428571426235" fill="#252525" />
<rect x="2.0038571428570493" y="2.5035714285713118" width="0.49471428571426235" height="0.49471428571426235" fill="#252525" />
<rect x="2.5035714285713118" y="2.5035714285713118" width="0.49471428571426235" height="0.49471428571426235" fill="#252525" />
<rect x="3.003285714285574" y="2.5035714285713118" width="0.49471428571426235" height="0.49471428571426235" fill="#252525" />
<rect x="0.005" y="3.003285714285574" width="0.49471428571426235" height="0.49471428571426235" fill="#37D449" />
<rect x="0.5047142857142624" y="3.003285714285574" width="0.49471428571426235" height="0.49471428571426235" fill="#252525" />
<rect x="1.0044285714285246" y="3.003285714285574" width="0.49471428571426235" height="0.49471428571426235" fill="#252525" />
<rect x="1.5041428571427868" y="3.003285714285574" width="0.49471428571426235" height="0.49471428571426235" fill="#252525" />
<rect x="2.0038571428570493" y="3.003285714285574" width="0.49471428571426235" height="0.49471428571426235" fill="#252525" />
<rect x="2.5035714285713118" y="3.003285714285574" width="0.49471428571426235" height="0.49471428571426235" fill="#252525" />
<rect x="3.003285714285574" y="3.003285714285574" width="0.49471428571426235" height="0.49471428571426235" fill="#37D449" />
<rect x="-0.02666666666666667" y="-0.02666666666666667" width="3.5513333333331696" height="3.5513333333331696" fill="none" stroke="#111111ff" stroke-width="0.08" />
<text x="3.4979999999998364" y="3.9667499999998364" font-size="0.375" fill="black" text-anchor="end" font-family="Anuphan">7x7</text>
<text x="-0.037500000000000006" y="3.9667499999998364" font-size="0.375" fill="black" text-anchor="start" font-family="Anuphan" font-weight="600">Input 1</text>
</g>
<g id="d1">
<rect x="0.005" y="0.005" width="0.3836666666666485" height="0.3836666666666485" fill="#252525" />
<rect x="0.3936666666666485" y="0.005" width="0.3836666666666485" height="0.3836666666666485" fill="#252525" />
<rect x="0.782333333333297" y="0.005" width="0.3836666666666485" height="0.3836666666666485" fill="#252525" />
<rect x="1.1709999999999454" y="0.005" width="0.3836666666666485" height="0.3836666666666485" fill="#252525" />
<rect x="1.559666666666594" y="0.005" width="0.3836666666666485" height="0.3836666666666485" fill="#252525" />
<rect x="1.9483333333332424" y="0.005" width="0.3836666666666485" height="0.3836666666666485" fill="#252525" />
<rect x="2.336999999999891" y="0.005" width="0.3836666666666485" height="0.3836666666666485" fill="#252525" />
<rect x="2.7256666666665392" y="0.005" width="0.3836666666666485" height="0.3836666666666485" fill="#252525" />
<rect x="3.114333333333188" y="0.005" width="0.3836666666666485" height="0.3836666666666485" fill="#252525" />
<rect x="0.005" y="0.3936666666666485" width="0.3836666666666485" height="0.3836666666666485" fill="#252525" />
<rect x="0.3936666666666485" y="0.3936666666666485" width="0.3836666666666485" height="0.3836666666666485" fill="#37D449" />
<rect x="0.782333333333297" y="0.3936666666666485" width="0.3836666666666485" height="0.3836666666666485" fill="#252525" />
<rect x="1.1709999999999454" y="0.3936666666666485" width="0.3836666666666485" height="0.3836666666666485" fill="#252525" />
<rect x="1.559666666666594" y="0.3936666666666485" width="0.3836666666666485" height="0.3836666666666485" fill="#252525" />
<rect x="1.9483333333332424" y="0.3936666666666485" width="0.3836666666666485" height="0.3836666666666485" fill="#252525" />
<rect x="2.336999999999891" y="0.3936666666666485" width="0.3836666666666485" height="0.3836666666666485" fill="#252525" />
<rect x="2.7256666666665392" y="0.3936666666666485" width="0.3836666666666485" height="0.3836666666666485" fill="#37D449" />
<rect x="3.114333333333188" y="0.3936666666666485" width="0.3836666666666485" height="0.3836666666666485" fill="#252525" />
<rect x="0.005" y="0.782333333333297" width="0.3836666666666485" height="0.3836666666666485" fill="#252525" />
<rect x="0.3936666666666485" y="0.782333333333297" width="0.3836666666666485" height="0.3836666666666485" fill="#252525" />
<rect x="0.782333333333297" y="0.782333333333297" width="0.3836666666666485" height="0.3836666666666485" fill="#FF4136" />
<rect x="1.1709999999999454" y="0.782333333333297" width="0.3836666666666485" height="0.3836666666666485" fill="#FF4136" />
<rect x="1.559666666666594" y="0.782333333333297" width="0.3836666666666485" height="0.3836666666666485" fill="#FF4136" />
<rect x="1.9483333333332424" y="0.782333333333297" width="0.3836666666666485" height="0.3836666666666485" fill="#252525" />
<rect x="2.336999999999891" y="0.782333333333297" width="0.3836666666666485" height="0.3836666666666485" fill="#252525" />
<rect x="2.7256666666665392" y="0.782333333333297" width="0.3836666666666485" height="0.3836666666666485" fill="#252525" />
<rect x="3.114333333333188" y="0.782333333333297" width="0.3836666666666485" height="0.3836666666666485" fill="#252525" />
<rect x="0.005" y="1.1709999999999454" width="0.3836666666666485" height="0.3836666666666485" fill="#FF4136" />
<rect x="0.3936666666666485" y="1.1709999999999454" width="0.3836666666666485" height="0.3836666666666485" fill="#FF4136" />
<rect x="0.782333333333297" y="1.1709999999999454" width="0.3836666666666485" height="0.3836666666666485" fill="#FF4136" />
<rect x="1.1709999999999454" y="1.1709999999999454" width="0.3836666666666485" height="0.3836666666666485" fill="#252525" />
<rect x="1.559666666666594" y="1.1709999999999454" width="0.3836666666666485" height="0.3836666666666485" fill="#252525" />
<rect x="1.9483333333332424" y="1.1709999999999454" width="0.3836666666666485" height="0.3836666666666485" fill="#252525" />
<rect x="2.336999999999891" y="1.1709999999999454" width="0.3836666666666485" height="0.3836666666666485" fill="#252525" />
<rect x="2.7256666666665392" y="1.1709999999999454" width="0.3836666666666485" height="0.3836666666666485" fill="#252525" />
<rect x="3.114333333333188" y="1.1709999999999454" width="0.3836666666666485" height="0.3836666666666485" fill="#252525" />
<rect x="0.005" y="1.559666666666594" width="0.3836666666666485" height="0.3836666666666485" fill="#FF4136" />
<rect x="0.3936666666666485" y="1.559666666666594" width="0.3836666666666485" height="0.3836666666666485" fill="#252525" />
<rect x="0.782333333333297" y="1.559666666666594" width="0.3836666666666485" height="0.3836666666666485" fill="#FF4136" />
<rect x="1.1709999999999454" y="1.559666666666594" width="0.3836666666666485" height="0.3836666666666485" fill="#252525" />
<rect x="1.559666666666594" y="1.559666666666594" width="0.3836666666666485" height="0.3836666666666485" fill="#252525" />
<rect x="1.9483333333332424" y="1.559666666666594" width="0.3836666666666485" height="0.3836666666666485" fill="#252525" />
<rect x="2.336999999999891" y="1.559666666666594" width="0.3836666666666485" height="0.3836666666666485" fill="#252525" />
<rect x="2.7256666666665392" y="1.559666666666594" width="0.3836666666666485" height="0.3836666666666485" fill="#252525" />
<rect x="3.114333333333188" y="1.559666666666594" width="0.3836666666666485" height="0.3836666666666485" fill="#252525" />
<rect x="0.005" y="1.9483333333332424" width="0.3836666666666485" height="0.3836666666666485" fill="#FF4136" />
<rect x="0.3936666666666485" y="1.9483333333332424" width="0.3836666666666485" height="0.3836666666666485" fill="#FF4136" />
<rect x="0.782333333333297" y="1.9483333333332424" width="0.3836666666666485" height="0.3836666666666485" fill="#FF4136" />
<rect x="1.1709999999999454" y="1.9483333333332424" width="0.3836666666666485" height="0.3836666666666485" fill="#FF4136" />
<rect x="1.559666666666594" y="1.9483333333332424" width="0.3836666666666485" height="0.3836666666666485" fill="#252525" />
<rect x="1.9483333333332424" y="1.9483333333332424" width="0.3836666666666485" height="0.3836666666666485" fill="#252525" />
<rect x="2.336999999999891" y="1.9483333333332424" width="0.3836666666666485" height="0.3836666666666485" fill="#252525" />
<rect x="2.7256666666665392" y="1.9483333333332424" width="0.3836666666666485" height="0.3836666666666485" fill="#252525" />
<rect x="3.114333333333188" y="1.9483333333332424" width="0.3836666666666485" height="0.3836666666666485" fill="#252525" />
<rect x="0.005" y="2.336999999999891" width="0.3836666666666485" height="0.3836666666666485" fill="#252525" />
<rect x="0.3936666666666485" y="2.336999999999891" width="0.3836666666666485" height="0.3836666666666485" fill="#252525" />
<rect x="0.782333333333297" y="2.336999999999891" width="0.3836666666666485" height="0.3836666666666485" fill="#252525" />
<rect x="1.1709999999999454" y="2.336999999999891" width="0.3836666666666485" height="0.3836666666666485" fill="#FF4136" />
<rect x="1.559666666666594" y="2.336999999999891" width="0.3836666666666485" height="0.3836666666666485" fill="#252525" />
<rect x="1.9483333333332424" y="2.336999999999891" width="0.3836666666666485" height="0.3836666666666485" fill="#252525" />
<rect x="2.336999999999891" y="2.336999999999891" width="0.3836666666666485" height="0.3836666666666485" fill="#252525" />
<rect x="2.7256666666665392" y="2.336999999999891" width="0.3836666666666485" height="0.3836666666666485" fill="#252525" />
<rect x="3.114333333333188" y="2.336999999999891" width="0.3836666666666485" height="0.3836666666666485" fill="#252525" />
<rect x="0.005" y="2.7256666666665392" width="0.3836666666666485" height="0.3836666666666485" fill="#252525" />
<rect x="0.3936666666666485" y="2.7256666666665392" width="0.3836666666666485" height="0.3836666666666485" fill="#37D449" />
<rect x="0.782333333333297" y="2.7256666666665392" width="0.3836666666666485" height="0.3836666666666485" fill="#252525" />
<rect x="1.1709999999999454" y="2.7256666666665392" width="0.3836666666666485" height="0.3836666666666485" fill="#252525" />
<rect x="1.559666666666594" y="2.7256666666665392" width="0.3836666666666485" height="0.3836666666666485" fill="#252525" />
<rect x="1.9483333333332424" y="2.7256666666665392" width="0.3836666666666485" height="0.3836666666666485" fill="#252525" />
<rect x="2.336999999999891" y="2.7256666666665392" width="0.3836666666666485" height="0.3836666666666485" fill="#252525" />
<rect x="2.7256666666665392" y="2.7256666666665392" width="0.3836666666666485" height="0.3836666666666485" fill="#37D449" />
<rect x="3.114333333333188" y="2.7256666666665392" width="0.3836666666666485" height="0.3836666666666485" fill="#252525" />
<rect x="0.005" y="3.114333333333188" width="0.3836666666666485" height="0.3836666666666485" fill="#252525" />
<rect x="0.3936666666666485" y="3.114333333333188" width="0.3836666666666485" height="0.3836666666666485" fill="#252525" />
<rect x="0.782333333333297" y="3.114333333333188" width="0.3836666666666485" height="0.3836666666666485" fill="#252525" />
<rect x="1.1709999999999454" y="3.114333333333188" width="0.3836666666666485" height="0.3836666666666485" fill="#252525" />
<rect x="1.559666666666594" y="3.114333333333188" width="0.3836666666666485" height="0.3836666666666485" fill="#252525" />
<rect x="1.9483333333332424" y="3.114333333333188" width="0.3836666666666485" height="0.3836666666666485" fill="#252525" />
<rect x="2.336999999999891" y="3.114333333333188" width="0.3836666666666485" height="0.3836666666666485" fill="#252525" />
<rect x="2.7256666666665392" y="3.114333333333188" width="0.3836666666666485" height="0.3836666666666485" fill="#252525" />
<rect x="3.114333333333188" y="3.114333333333188" width="0.3836666666666485" height="0.3836666666666485" fill="#252525" />
<rect x="-0.02666666666666667" y="-0.02666666666666667" width="3.55133333333317" height="3.55133333333317" fill="none" stroke="#111111ff" stroke-width="0.08" />
<text x="3.497999999999837" y="3.966749999999837" font-size="0.375" fill="black" text-anchor="end" font-family="Anuphan">9x9</text>
<text x="-0.037500000000000006" y="3.966749999999837" font-size="0.375" fill="black" text-anchor="start" font-family="Anuphan" font-weight="600">Input 2</text>
</g>
<g id="d2">
<rect x="0.005" y="0.005" width="0.3447999999999836" height="0.3447999999999836" fill="#252525" />
<rect x="0.35479999999998363" y="0.005" width="0.3447999999999836" height="0.3447999999999836" fill="#252525" />
<rect x="0.7045999999999673" y="0.005" width="0.3447999999999836" height="0.3447999999999836" fill="#252525" />
<rect x="1.0543999999999507" y="0.005" width="0.3447999999999836" height="0.3447999999999836" fill="#FF4136" />
<rect x="1.4041999999999344" y="0.005" width="0.3447999999999836" height="0.3447999999999836" fill="#FF4136" />
<rect x="1.753999999999918" y="0.005" width="0.3447999999999836" height="0.3447999999999836" fill="#252525" />
<rect x="2.1037999999999015" y="0.005" width="0.3447999999999836" height="0.3447999999999836" fill="#252525" />
<rect x="2.453599999999885" y="0.005" width="0.3447999999999836" height="0.3447999999999836" fill="#252525" />
<rect x="2.803399999999869" y="0.005" width="0.3447999999999836" height="0.3447999999999836" fill="#252525" />
<rect x="3.1531999999998526" y="0.005" width="0.3447999999999836" height="0.3447999999999836" fill="#252525" />
<rect x="0.005" y="0.35479999999998363" width="0.3447999999999836" height="0.3447999999999836" fill="#252525" />
<rect x="0.35479999999998363" y="0.35479999999998363" width="0.3447999999999836" height="0.3447999999999836" fill="#37D449" />
<rect x="0.7045999999999673" y="0.35479999999998363" width="0.3447999999999836" height="0.3447999999999836" fill="#FF4136" />
<rect x="1.0543999999999507" y="0.35479999999998363" width="0.3447999999999836" height="0.3447999999999836" fill="#FF4136" />
<rect x="1.4041999999999344" y="0.35479999999998363" width="0.3447999999999836" height="0.3447999999999836" fill="#FF4136" />
<rect x="1.753999999999918" y="0.35479999999998363" width="0.3447999999999836" height="0.3447999999999836" fill="#FF4136" />
<rect x="2.1037999999999015" y="0.35479999999998363" width="0.3447999999999836" height="0.3447999999999836" fill="#252525" />
<rect x="2.453599999999885" y="0.35479999999998363" width="0.3447999999999836" height="0.3447999999999836" fill="#37D449" />
<rect x="2.803399999999869" y="0.35479999999998363" width="0.3447999999999836" height="0.3447999999999836" fill="#252525" />
<rect x="3.1531999999998526" y="0.35479999999998363" width="0.3447999999999836" height="0.3447999999999836" fill="#252525" />
<rect x="0.005" y="0.7045999999999673" width="0.3447999999999836" height="0.3447999999999836" fill="#252525" />
<rect x="0.35479999999998363" y="0.7045999999999673" width="0.3447999999999836" height="0.3447999999999836" fill="#252525" />
<rect x="0.7045999999999673" y="0.7045999999999673" width="0.3447999999999836" height="0.3447999999999836" fill="#252525" />
<rect x="1.0543999999999507" y="0.7045999999999673" width="0.3447999999999836" height="0.3447999999999836" fill="#252525" />
<rect x="1.4041999999999344" y="0.7045999999999673" width="0.3447999999999836" height="0.3447999999999836" fill="#FF4136" />
<rect x="1.753999999999918" y="0.7045999999999673" width="0.3447999999999836" height="0.3447999999999836" fill="#FF4136" />
<rect x="2.1037999999999015" y="0.7045999999999673" width="0.3447999999999836" height="0.3447999999999836" fill="#FF4136" />
<rect x="2.453599999999885" y="0.7045999999999673" width="0.3447999999999836" height="0.3447999999999836" fill="#252525" />
<rect x="2.803399999999869" y="0.7045999999999673" width="0.3447999999999836" height="0.3447999999999836" fill="#252525" />
<rect x="3.1531999999998526" y="0.7045999999999673" width="0.3447999999999836" height="0.3447999999999836" fill="#252525" />
<rect x="0.005" y="1.0543999999999507" width="0.3447999999999836" height="0.3447999999999836" fill="#252525" />
<rect x="0.35479999999998363" y="1.0543999999999507" width="0.3447999999999836" height="0.3447999999999836" fill="#252525" />
<rect x="0.7045999999999673" y="1.0543999999999507" width="0.3447999999999836" height="0.3447999999999836" fill="#252525" />
<rect x="1.0543999999999507" y="1.0543999999999507" width="0.3447999999999836" height="0.3447999999999836" fill="#252525" />
<rect x="1.4041999999999344" y="1.0543999999999507" width="0.3447999999999836" height="0.3447999999999836" fill="#FF4136" />
<rect x="1.753999999999918" y="1.0543999999999507" width="0.3447999999999836" height="0.3447999999999836" fill="#252525" />
<rect x="2.1037999999999015" y="1.0543999999999507" width="0.3447999999999836" height="0.3447999999999836" fill="#252525" />
<rect x="2.453599999999885" y="1.0543999999999507" width="0.3447999999999836" height="0.3447999999999836" fill="#252525" />
<rect x="2.803399999999869" y="1.0543999999999507" width="0.3447999999999836" height="0.3447999999999836" fill="#252525" />
<rect x="3.1531999999998526" y="1.0543999999999507" width="0.3447999999999836" height="0.3447999999999836" fill="#252525" />
<rect x="0.005" y="1.4041999999999344" width="0.3447999999999836" height="0.3447999999999836" fill="#252525" />
<rect x="0.35479999999998363" y="1.4041999999999344" width="0.3447999999999836" height="0.3447999999999836" fill="#252525" />
<rect x="0.7045999999999673" y="1.4041999999999344" width="0.3447999999999836" height="0.3447999999999836" fill="#252525" />
<rect x="1.0543999999999507" y="1.4041999999999344" width="0.3447999999999836" height="0.3447999999999836" fill="#FF4136" />
<rect x="1.4041999999999344" y="1.4041999999999344" width="0.3447999999999836" height="0.3447999999999836" fill="#FF4136" />
<rect x="1.753999999999918" y="1.4041999999999344" width="0.3447999999999836" height="0.3447999999999836" fill="#252525" />
<rect x="2.1037999999999015" y="1.4041999999999344" width="0.3447999999999836" height="0.3447999999999836" fill="#252525" />
<rect x="2.453599999999885" y="1.4041999999999344" width="0.3447999999999836" height="0.3447999999999836" fill="#252525" />
<rect x="2.803399999999869" y="1.4041999999999344" width="0.3447999999999836" height="0.3447999999999836" fill="#252525" />
<rect x="3.1531999999998526" y="1.4041999999999344" width="0.3447999999999836" height="0.3447999999999836" fill="#252525" />
<rect x="0.005" y="1.753999999999918" width="0.3447999999999836" height="0.3447999999999836" fill="#252525" />
<rect x="0.35479999999998363" y="1.753999999999918" width="0.3447999999999836" height="0.3447999999999836" fill="#252525" />
<rect x="0.7045999999999673" y="1.753999999999918" width="0.3447999999999836" height="0.3447999999999836" fill="#252525" />
<rect x="1.0543999999999507" y="1.753999999999918" width="0.3447999999999836" height="0.3447999999999836" fill="#252525" />
<rect x="1.4041999999999344" y="1.753999999999918" width="0.3447999999999836" height="0.3447999999999836" fill="#252525" />
<rect x="1.753999999999918" y="1.753999999999918" width="0.3447999999999836" height="0.3447999999999836" fill="#252525" />
<rect x="2.1037999999999015" y="1.753999999999918" width="0.3447999999999836" height="0.3447999999999836" fill="#252525" />
<rect x="2.453599999999885" y="1.753999999999918" width="0.3447999999999836" height="0.3447999999999836" fill="#252525" />
<rect x="2.803399999999869" y="1.753999999999918" width="0.3447999999999836" height="0.3447999999999836" fill="#252525" />
<rect x="3.1531999999998526" y="1.753999999999918" width="0.3447999999999836" height="0.3447999999999836" fill="#252525" />
<rect x="0.005" y="2.1037999999999015" width="0.3447999999999836" height="0.3447999999999836" fill="#252525" />
<rect x="0.35479999999998363" y="2.1037999999999015" width="0.3447999999999836" height="0.3447999999999836" fill="#252525" />
<rect x="0.7045999999999673" y="2.1037999999999015" width="0.3447999999999836" height="0.3447999999999836" fill="#252525" />
<rect x="1.0543999999999507" y="2.1037999999999015" width="0.3447999999999836" height="0.3447999999999836" fill="#252525" />
<rect x="1.4041999999999344" y="2.1037999999999015" width="0.3447999999999836" height="0.3447999999999836" fill="#252525" />
<rect x="1.753999999999918" y="2.1037999999999015" width="0.3447999999999836" height="0.3447999999999836" fill="#252525" />
<rect x="2.1037999999999015" y="2.1037999999999015" width="0.3447999999999836" height="0.3447999999999836" fill="#252525" />
<rect x="2.453599999999885" y="2.1037999999999015" width="0.3447999999999836" height="0.3447999999999836" fill="#252525" />
<rect x="2.803399999999869" y="2.1037999999999015" width="0.3447999999999836" height="0.3447999999999836" fill="#252525" />
<rect x="3.1531999999998526" y="2.1037999999999015" width="0.3447999999999836" height="0.3447999999999836" fill="#252525" />
<rect x="0.005" y="2.453599999999885" width="0.3447999999999836" height="0.3447999999999836" fill="#252525" />
<rect x="0.35479999999998363" y="2.453599999999885" width="0.3447999999999836" height="0.3447999999999836" fill="#37D449" />
<rect x="0.7045999999999673" y="2.453599999999885" width="0.3447999999999836" height="0.3447999999999836" fill="#252525" />
<rect x="1.0543999999999507" y="2.453599999999885" width="0.3447999999999836" height="0.3447999999999836" fill="#252525" />
<rect x="1.4041999999999344" y="2.453599999999885" width="0.3447999999999836" height="0.3447999999999836" fill="#252525" />
<rect x="1.753999999999918" y="2.453599999999885" width="0.3447999999999836" height="0.3447999999999836" fill="#252525" />
<rect x="2.1037999999999015" y="2.453599999999885" width="0.3447999999999836" height="0.3447999999999836" fill="#252525" />
<rect x="2.453599999999885" y="2.453599999999885" width="0.3447999999999836" height="0.3447999999999836" fill="#37D449" />
<rect x="2.803399999999869" y="2.453599999999885" width="0.3447999999999836" height="0.3447999999999836" fill="#252525" />
<rect x="3.1531999999998526" y="2.453599999999885" width="0.3447999999999836" height="0.3447999999999836" fill="#252525" />
<rect x="0.005" y="2.803399999999869" width="0.3447999999999836" height="0.3447999999999836" fill="#252525" />
<rect x="0.35479999999998363" y="2.803399999999869" width="0.3447999999999836" height="0.3447999999999836" fill="#252525" />
<rect x="0.7045999999999673" y="2.803399999999869" width="0.3447999999999836" height="0.3447999999999836" fill="#252525" />
<rect x="1.0543999999999507" y="2.803399999999869" width="0.3447999999999836" height="0.3447999999999836" fill="#252525" />
<rect x="1.4041999999999344" y="2.803399999999869" width="0.3447999999999836" height="0.3447999999999836" fill="#252525" />
<rect x="1.753999999999918" y="2.803399999999869" width="0.3447999999999836" height="0.3447999999999836" fill="#252525" />
<rect x="2.1037999999999015" y="2.803399999999869" width="0.3447999999999836" height="0.3447999999999836" fill="#252525" />
<rect x="2.453599999999885" y="2.803399999999869" width="0.3447999999999836" height="0.3447999999999836" fill="#252525" />
<rect x="2.803399999999869" y="2.803399999999869" width="0.3447999999999836" height="0.3447999999999836" fill="#252525" />
<rect x="3.1531999999998526" y="2.803399999999869" width="0.3447999999999836" height="0.3447999999999836" fill="#252525" />
<rect x="-0.02666666666666667" y="-0.02666666666666667" width="3.5513333333331696" height="3.201533333333186" fill="none" stroke="#111111ff" stroke-width="0.08" />
<text x="3.4979999999998364" y="3.6169499999998527" font-size="0.375" fill="black" text-anchor="end" font-family="Anuphan">10x9</text>
<text x="-0.037500000000000006" y="3.6169499999998527" font-size="0.375" fill="black" text-anchor="start" font-family="Anuphan" font-weight="600">Input 3</text>
</g>
<g id="d3">
<rect x="0.005" y="0.005" width="0.43224999999997954" height="0.43224999999997954" fill="#37D449" />
<rect x="0.44224999999997955" y="0.005" width="0.43224999999997954" height="0.43224999999997954" fill="#252525" />
<rect x="0.8794999999999591" y="0.005" width="0.43224999999997954" height="0.43224999999997954" fill="#252525" />
<rect x="1.3167499999999386" y="0.005" width="0.43224999999997954" height="0.43224999999997954" fill="#252525" />
<rect x="1.753999999999918" y="0.005" width="0.43224999999997954" height="0.43224999999997954" fill="#252525" />
<rect x="2.1912499999998976" y="0.005" width="0.43224999999997954" height="0.43224999999997954" fill="#252525" />
<rect x="2.6284999999998773" y="0.005" width="0.43224999999997954" height="0.43224999999997954" fill="#37D449" />
<rect x="3.0657499999998565" y="0.005" width="0.43224999999997954" height="0.43224999999997954" fill="#252525" />
<rect x="0.005" y="0.44224999999997955" width="0.43224999999997954" height="0.43224999999997954" fill="#252525" />
<rect x="0.44224999999997955" y="0.44224999999997955" width="0.43224999999997954" height="0.43224999999997954" fill="#252525" />
<rect x="0.8794999999999591" y="0.44224999999997955" width="0.43224999999997954" height="0.43224999999997954" fill="#252525" />
<rect x="1.3167499999999386" y="0.44224999999997955" width="0.43224999999997954" height="0.43224999999997954" fill="#FF4136" />
<rect x="1.753999999999918" y="0.44224999999997955" width="0.43224999999997954" height="0.43224999999997954" fill="#252525" />
<rect x="2.1912499999998976" y="0.44224999999997955" width="0.43224999999997954" height="0.43224999999997954" fill="#252525" />
<rect x="2.6284999999998773" y="0.44224999999997955" width="0.43224999999997954" height="0.43224999999997954" fill="#252525" />
<rect x="3.0657499999998565" y="0.44224999999997955" width="0.43224999999997954" height="0.43224999999997954" fill="#252525" />
<rect x="0.005" y="0.8794999999999591" width="0.43224999999997954" height="0.43224999999997954" fill="#252525" />
<rect x="0.44224999999997955" y="0.8794999999999591" width="0.43224999999997954" height="0.43224999999997954" fill="#FF4136" />
<rect x="0.8794999999999591" y="0.8794999999999591" width="0.43224999999997954" height="0.43224999999997954" fill="#FF4136" />
<rect x="1.3167499999999386" y="0.8794999999999591" width="0.43224999999997954" height="0.43224999999997954" fill="#FF4136" />
<rect x="1.753999999999918" y="0.8794999999999591" width="0.43224999999997954" height="0.43224999999997954" fill="#252525" />
<rect x="2.1912499999998976" y="0.8794999999999591" width="0.43224999999997954" height="0.43224999999997954" fill="#252525" />
<rect x="2.6284999999998773" y="0.8794999999999591" width="0.43224999999997954" height="0.43224999999997954" fill="#252525" />
<rect x="3.0657499999998565" y="0.8794999999999591" width="0.43224999999997954" height="0.43224999999997954" fill="#252525" />
<rect x="0.005" y="1.3167499999999386" width="0.43224999999997954" height="0.43224999999997954" fill="#252525" />
<rect x="0.44224999999997955" y="1.3167499999999386" width="0.43224999999997954" height="0.43224999999997954" fill="#FF4136" />
<rect x="0.8794999999999591" y="1.3167499999999386" width="0.43224999999997954" height="0.43224999999997954" fill="#252525" />
<rect x="1.3167499999999386" y="1.3167499999999386" width="0.43224999999997954" height="0.43224999999997954" fill="#252525" />
<rect x="1.753999999999918" y="1.3167499999999386" width="0.43224999999997954" height="0.43224999999997954" fill="#252525" />
<rect x="2.1912499999998976" y="1.3167499999999386" width="0.43224999999997954" height="0.43224999999997954" fill="#252525" />
<rect x="2.6284999999998773" y="1.3167499999999386" width="0.43224999999997954" height="0.43224999999997954" fill="#252525" />
<rect x="3.0657499999998565" y="1.3167499999999386" width="0.43224999999997954" height="0.43224999999997954" fill="#252525" />
<rect x="0.005" y="1.753999999999918" width="0.43224999999997954" height="0.43224999999997954" fill="#FF4136" />
<rect x="0.44224999999997955" y="1.753999999999918" width="0.43224999999997954" height="0.43224999999997954" fill="#FF4136" />
<rect x="0.8794999999999591" y="1.753999999999918" width="0.43224999999997954" height="0.43224999999997954" fill="#FF4136" />
<rect x="1.3167499999999386" y="1.753999999999918" width="0.43224999999997954" height="0.43224999999997954" fill="#FF4136" />
<rect x="1.753999999999918" y="1.753999999999918" width="0.43224999999997954" height="0.43224999999997954" fill="#FF4136" />
<rect x="2.1912499999998976" y="1.753999999999918" width="0.43224999999997954" height="0.43224999999997954" fill="#252525" />
<rect x="2.6284999999998773" y="1.753999999999918" width="0.43224999999997954" height="0.43224999999997954" fill="#252525" />
<rect x="3.0657499999998565" y="1.753999999999918" width="0.43224999999997954" height="0.43224999999997954" fill="#252525" />
<rect x="0.005" y="2.1912499999998976" width="0.43224999999997954" height="0.43224999999997954" fill="#252525" />
<rect x="0.44224999999997955" y="2.1912499999998976" width="0.43224999999997954" height="0.43224999999997954" fill="#FF4136" />
<rect x="0.8794999999999591" y="2.1912499999998976" width="0.43224999999997954" height="0.43224999999997954" fill="#252525" />
<rect x="1.3167499999999386" y="2.1912499999998976" width="0.43224999999997954" height="0.43224999999997954" fill="#252525" />
<rect x="1.753999999999918" y="2.1912499999998976" width="0.43224999999997954" height="0.43224999999997954" fill="#252525" />
<rect x="2.1912499999998976" y="2.1912499999998976" width="0.43224999999997954" height="0.43224999999997954" fill="#252525" />
<rect x="2.6284999999998773" y="2.1912499999998976" width="0.43224999999997954" height="0.43224999999997954" fill="#252525" />
<rect x="3.0657499999998565" y="2.1912499999998976" width="0.43224999999997954" height="0.43224999999997954" fill="#252525" />
<rect x="0.005" y="2.6284999999998773" width="0.43224999999997954" height="0.43224999999997954" fill="#37D449" />
<rect x="0.44224999999997955" y="2.6284999999998773" width="0.43224999999997954" height="0.43224999999997954" fill="#252525" />
<rect x="0.8794999999999591" y="2.6284999999998773" width="0.43224999999997954" height="0.43224999999997954" fill="#252525" />
<rect x="1.3167499999999386" y="2.6284999999998773" width="0.43224999999997954" height="0.43224999999997954" fill="#252525" />
<rect x="1.753999999999918" y="2.6284999999998773" width="0.43224999999997954" height="0.43224999999997954" fill="#252525" />
<rect x="2.1912499999998976" y="2.6284999999998773" width="0.43224999999997954" height="0.43224999999997954" fill="#252525" />
<rect x="2.6284999999998773" y="2.6284999999998773" width="0.43224999999997954" height="0.43224999999997954" fill="#37D449" />
<rect x="3.0657499999998565" y="2.6284999999998773" width="0.43224999999997954" height="0.43224999999997954" fill="#252525" />
<rect x="0.005" y="3.0657499999998565" width="0.43224999999997954" height="0.43224999999997954" fill="#252525" />
<rect x="0.44224999999997955" y="3.0657499999998565" width="0.43224999999997954" height="0.43224999999997954" fill="#252525" />
<rect x="0.8794999999999591" y="3.0657499999998565" width="0.43224999999997954" height="0.43224999999997954" fill="#252525" />
<rect x="1.3167499999999386" y="3.0657499999998565" width="0.43224999999997954" height="0.43224999999997954" fill="#252525" />
<rect x="1.753999999999918" y="3.0657499999998565" width="0.43224999999997954" height="0.43224999999997954" fill="#252525" />
<rect x="2.1912499999998976" y="3.0657499999998565" width="0.43224999999997954" height="0.43224999999997954" fill="#252525" />
<rect x="2.6284999999998773" y="3.0657499999998565" width="0.43224999999997954" height="0.43224999999997954" fill="#252525" />
<rect x="3.0657499999998565" y="3.0657499999998565" width="0.43224999999997954" height="0.43224999999997954" fill="#252525" />
<rect x="0.005" y="3.5029999999998362" width="0.43224999999997954" height="0.43224999999997954" fill="#252525" />
<rect x="0.44224999999997955" y="3.5029999999998362" width="0.43224999999997954" height="0.43224999999997954" fill="#252525" />
<rect x="0.8794999999999591" y="3.5029999999998362" width="0.43224999999997954" height="0.43224999999997954" fill="#252525" />
<rect x="1.3167499999999386" y="3.5029999999998362" width="0.43224999999997954" height="0.43224999999997954" fill="#252525" />
<rect x="1.753999999999918" y="3.5029999999998362" width="0.43224999999997954" height="0.43224999999997954" fill="#252525" />
<rect x="2.1912499999998976" y="3.5029999999998362" width="0.43224999999997954" height="0.43224999999997954" fill="#252525" />
<rect x="2.6284999999998773" y="3.5029999999998362" width="0.43224999999997954" height="0.43224999999997954" fill="#252525" />
<rect x="3.0657499999998565" y="3.5029999999998362" width="0.43224999999997954" height="0.43224999999997954" fill="#252525" />
<rect x="-0.02666666666666667" y="-0.02666666666666667" width="3.5513333333331696" height="3.9885833333331493" fill="none" stroke="#111111ff" stroke-width="0.08" />
<text x="3.4979999999998364" y="4.403999999999816" font-size="0.375" fill="black" text-anchor="end" font-family="Anuphan">8x9</text>
<text x="-0.037500000000000006" y="4.403999999999816" font-size="0.375" fill="black" text-anchor="start" font-family="Anuphan" font-weight="600">Input 4</text>
</g>
<g id="d4">
<rect x="0.005" y="0.005" width="0.43224999999997954" height="0.43224999999997954" fill="#252525" />
<rect x="0.44224999999997955" y="0.005" width="0.43224999999997954" height="0.43224999999997954" fill="#252525" />
<rect x="0.8794999999999591" y="0.005" width="0.43224999999997954" height="0.43224999999997954" fill="#252525" />
<rect x="1.3167499999999386" y="0.005" width="0.43224999999997954" height="0.43224999999997954" fill="#252525" />
<rect x="1.753999999999918" y="0.005" width="0.43224999999997954" height="0.43224999999997954" fill="#252525" />
<rect x="2.1912499999998976" y="0.005" width="0.43224999999997954" height="0.43224999999997954" fill="#252525" />
<rect x="2.6284999999998773" y="0.005" width="0.43224999999997954" height="0.43224999999997954" fill="#252525" />
<rect x="3.0657499999998565" y="0.005" width="0.43224999999997954" height="0.43224999999997954" fill="#252525" />
<rect x="0.005" y="0.44224999999997955" width="0.43224999999997954" height="0.43224999999997954" fill="#37D449" />
<rect x="0.44224999999997955" y="0.44224999999997955" width="0.43224999999997954" height="0.43224999999997954" fill="#252525" />
<rect x="0.8794999999999591" y="0.44224999999997955" width="0.43224999999997954" height="0.43224999999997954" fill="#252525" />
<rect x="1.3167499999999386" y="0.44224999999997955" width="0.43224999999997954" height="0.43224999999997954" fill="#252525" />
<rect x="1.753999999999918" y="0.44224999999997955" width="0.43224999999997954" height="0.43224999999997954" fill="#252525" />
<rect x="2.1912499999998976" y="0.44224999999997955" width="0.43224999999997954" height="0.43224999999997954" fill="#252525" />
<rect x="2.6284999999998773" y="0.44224999999997955" width="0.43224999999997954" height="0.43224999999997954" fill="#37D449" />
<rect x="3.0657499999998565" y="0.44224999999997955" width="0.43224999999997954" height="0.43224999999997954" fill="#252525" />
<rect x="0.005" y="0.8794999999999591" width="0.43224999999997954" height="0.43224999999997954" fill="#FF4136" />
<rect x="0.44224999999997955" y="0.8794999999999591" width="0.43224999999997954" height="0.43224999999997954" fill="#252525" />
<rect x="0.8794999999999591" y="0.8794999999999591" width="0.43224999999997954" height="0.43224999999997954" fill="#252525" />
<rect x="1.3167499999999386" y="0.8794999999999591" width="0.43224999999997954" height="0.43224999999997954" fill="#252525" />
<rect x="1.753999999999918" y="0.8794999999999591" width="0.43224999999997954" height="0.43224999999997954" fill="#252525" />
<rect x="2.1912499999998976" y="0.8794999999999591" width="0.43224999999997954" height="0.43224999999997954" fill="#252525" />
<rect x="2.6284999999998773" y="0.8794999999999591" width="0.43224999999997954" height="0.43224999999997954" fill="#252525" />
<rect x="3.0657499999998565" y="0.8794999999999591" width="0.43224999999997954" height="0.43224999999997954" fill="#252525" />
<rect x="0.005" y="1.3167499999999386" width="0.43224999999997954" height="0.43224999999997954" fill="#FF4136" />
<rect x="0.44224999999997955" y="1.3167499999999386" width="0.43224999999997954" height="0.43224999999997954" fill="#FF4136" />
<rect x="0.8794999999999591" y="1.3167499999999386" width="0.43224999999997954" height="0.43224999999997954" fill="#252525" />
<rect x="1.3167499999999386" y="1.3167499999999386" width="0.43224999999997954" height="0.43224999999997954" fill="#252525" />
<rect x="1.753999999999918" y="1.3167499999999386" width="0.43224999999997954" height="0.43224999999997954" fill="#252525" />
<rect x="2.1912499999998976" y="1.3167499999999386" width="0.43224999999997954" height="0.43224999999997954" fill="#252525" />
<rect x="2.6284999999998773" y="1.3167499999999386" width="0.43224999999997954" height="0.43224999999997954" fill="#252525" />
<rect x="3.0657499999998565" y="1.3167499999999386" width="0.43224999999997954" height="0.43224999999997954" fill="#252525" />
<rect x="0.005" y="1.753999999999918" width="0.43224999999997954" height="0.43224999999997954" fill="#FF4136" />
<rect x="0.44224999999997955" y="1.753999999999918" width="0.43224999999997954" height="0.43224999999997954" fill="#FF4136" />
<rect x="0.8794999999999591" y="1.753999999999918" width="0.43224999999997954" height="0.43224999999997954" fill="#FF4136" />
<rect x="1.3167499999999386" y="1.753999999999918" width="0.43224999999997954" height="0.43224999999997954" fill="#252525" />
<rect x="1.753999999999918" y="1.753999999999918" width="0.43224999999997954" height="0.43224999999997954" fill="#252525" />
<rect x="2.1912499999998976" y="1.753999999999918" width="0.43224999999997954" height="0.43224999999997954" fill="#252525" />
<rect x="2.6284999999998773" y="1.753999999999918" width="0.43224999999997954" height="0.43224999999997954" fill="#252525" />
<rect x="3.0657499999998565" y="1.753999999999918" width="0.43224999999997954" height="0.43224999999997954" fill="#252525" />
<rect x="0.005" y="2.1912499999998976" width="0.43224999999997954" height="0.43224999999997954" fill="#FF4136" />
<rect x="0.44224999999997955" y="2.1912499999998976" width="0.43224999999997954" height="0.43224999999997954" fill="#FF4136" />
<rect x="0.8794999999999591" y="2.1912499999998976" width="0.43224999999997954" height="0.43224999999997954" fill="#FF4136" />
<rect x="1.3167499999999386" y="2.1912499999998976" width="0.43224999999997954" height="0.43224999999997954" fill="#FF4136" />
<rect x="1.753999999999918" y="2.1912499999998976" width="0.43224999999997954" height="0.43224999999997954" fill="#FF4136" />
<rect x="2.1912499999998976" y="2.1912499999998976" width="0.43224999999997954" height="0.43224999999997954" fill="#252525" />
<rect x="2.6284999999998773" y="2.1912499999998976" width="0.43224999999997954" height="0.43224999999997954" fill="#252525" />
<rect x="3.0657499999998565" y="2.1912499999998976" width="0.43224999999997954" height="0.43224999999997954" fill="#252525" />
<rect x="0.005" y="2.6284999999998773" width="0.43224999999997954" height="0.43224999999997954" fill="#FF4136" />
<rect x="0.44224999999997955" y="2.6284999999998773" width="0.43224999999997954" height="0.43224999999997954" fill="#252525" />
<rect x="0.8794999999999591" y="2.6284999999998773" width="0.43224999999997954" height="0.43224999999997954" fill="#252525" />
<rect x="1.3167499999999386" y="2.6284999999998773" width="0.43224999999997954" height="0.43224999999997954" fill="#252525" />
<rect x="1.753999999999918" y="2.6284999999998773" width="0.43224999999997954" height="0.43224999999997954" fill="#252525" />
<rect x="2.1912499999998976" y="2.6284999999998773" width="0.43224999999997954" height="0.43224999999997954" fill="#252525" />
<rect x="2.6284999999998773" y="2.6284999999998773" width="0.43224999999997954" height="0.43224999999997954" fill="#252525" />
<rect x="3.0657499999998565" y="2.6284999999998773" width="0.43224999999997954" height="0.43224999999997954" fill="#252525" />
<rect x="0.005" y="3.0657499999998565" width="0.43224999999997954" height="0.43224999999997954" fill="#37D449" />
<rect x="0.44224999999997955" y="3.0657499999998565" width="0.43224999999997954" height="0.43224999999997954" fill="#252525" />
<rect x="0.8794999999999591" y="3.0657499999998565" width="0.43224999999997954" height="0.43224999999997954" fill="#252525" />
<rect x="1.3167499999999386" y="3.0657499999998565" width="0.43224999999997954" height="0.43224999999997954" fill="#252525" />
<rect x="1.753999999999918" y="3.0657499999998565" width="0.43224999999997954" height="0.43224999999997954" fill="#252525" />
<rect x="2.1912499999998976" y="3.0657499999998565" width="0.43224999999997954" height="0.43224999999997954" fill="#252525" />
<rect x="2.6284999999998773" y="3.0657499999998565" width="0.43224999999997954" height="0.43224999999997954" fill="#37D449" />
<rect x="3.0657499999998565" y="3.0657499999998565" width="0.43224999999997954" height="0.43224999999997954" fill="#252525" />
<rect x="0.005" y="3.5029999999998362" width="0.43224999999997954" height="0.43224999999997954" fill="#252525" />
<rect x="0.44224999999997955" y="3.5029999999998362" width="0.43224999999997954" height="0.43224999999997954" fill="#252525" />
<rect x="0.8794999999999591" y="3.5029999999998362" width="0.43224999999997954" height="0.43224999999997954" fill="#252525" />
<rect x="1.3167499999999386" y="3.5029999999998362" width="0.43224999999997954" height="0.43224999999997954" fill="#252525" />
<rect x="1.753999999999918" y="3.5029999999998362" width="0.43224999999997954" height="0.43224999999997954" fill="#252525" />
<rect x="2.1912499999998976" y="3.5029999999998362" width="0.43224999999997954" height="0.43224999999997954" fill="#252525" />
<rect x="2.6284999999998773" y="3.5029999999998362" width="0.43224999999997954" height="0.43224999999997954" fill="#252525" />
<rect x="3.0657499999998565" y="3.5029999999998362" width="0.43224999999997954" height="0.43224999999997954" fill="#252525" />
<rect x="0.005" y="3.940249999999816" width="0.43224999999997954" height="0.43224999999997954" fill="#252525" />
<rect x="0.44224999999997955" y="3.940249999999816" width="0.43224999999997954" height="0.43224999999997954" fill="#252525" />
<rect x="0.8794999999999591" y="3.940249999999816" width="0.43224999999997954" height="0.43224999999997954" fill="#252525" />
<rect x="1.3167499999999386" y="3.940249999999816" width="0.43224999999997954" height="0.43224999999997954" fill="#252525" />
<rect x="1.753999999999918" y="3.940249999999816" width="0.43224999999997954" height="0.43224999999997954" fill="#252525" />
<rect x="2.1912499999998976" y="3.940249999999816" width="0.43224999999997954" height="0.43224999999997954" fill="#252525" />
<rect x="2.6284999999998773" y="3.940249999999816" width="0.43224999999997954" height="0.43224999999997954" fill="#252525" />
<rect x="3.0657499999998565" y="3.940249999999816" width="0.43224999999997954" height="0.43224999999997954" fill="#252525" />
<rect x="-0.02666666666666667" y="-0.02666666666666667" width="3.5513333333331696" height="4.425833333333129" fill="none" stroke="#111111ff" stroke-width="0.08" />
<text x="3.4979999999998364" y="4.841249999999795" font-size="0.375" fill="black" text-anchor="end" font-family="Anuphan">8x10</text>
<text x="-0.037500000000000006" y="4.841249999999795" font-size="0.375" fill="black" text-anchor="start" font-family="Anuphan" font-weight="600">Test 1</text>
</g>
<g id="d5">
<rect x="0.005" y="0.005" width="0.49471428571426235" height="0.49471428571426235" fill="#37D449" />
<rect x="0.5047142857142624" y="0.005" width="0.49471428571426235" height="0.49471428571426235" fill="#252525" />
<rect x="1.0044285714285246" y="0.005" width="0.49471428571426235" height="0.49471428571426235" fill="#252525" />
<rect x="1.5041428571427868" y="0.005" width="0.49471428571426235" height="0.49471428571426235" fill="#252525" />
<rect x="2.0038571428570493" y="0.005" width="0.49471428571426235" height="0.49471428571426235" fill="#252525" />
<rect x="2.5035714285713118" y="0.005" width="0.49471428571426235" height="0.49471428571426235" fill="#252525" />
<rect x="3.003285714285574" y="0.005" width="0.49471428571426235" height="0.49471428571426235" fill="#37D449" />
<rect x="0.005" y="0.5047142857142624" width="0.49471428571426235" height="0.49471428571426235" fill="#252525" />
<rect x="0.5047142857142624" y="0.5047142857142624" width="0.49471428571426235" height="0.49471428571426235" fill="#252525" />
<rect x="1.0044285714285246" y="0.5047142857142624" width="0.49471428571426235" height="0.49471428571426235" fill="#252525" />
<rect x="1.5041428571427868" y="0.5047142857142624" width="0.49471428571426235" height="0.49471428571426235" fill="#FF4136" />
<rect x="2.0038571428570493" y="0.5047142857142624" width="0.49471428571426235" height="0.49471428571426235" fill="#252525" />
<rect x="2.5035714285713118" y="0.5047142857142624" width="0.49471428571426235" height="0.49471428571426235" fill="#252525" />
<rect x="3.003285714285574" y="0.5047142857142624" width="0.49471428571426235" height="0.49471428571426235" fill="#252525" />
<rect x="0.005" y="1.0044285714285246" width="0.49471428571426235" height="0.49471428571426235" fill="#252525" />
<rect x="0.5047142857142624" y="1.0044285714285246" width="0.49471428571426235" height="0.49471428571426235" fill="#252525" />
<rect x="1.0044285714285246" y="1.0044285714285246" width="0.49471428571426235" height="0.49471428571426235" fill="#FF4136" />
<rect x="1.5041428571427868" y="1.0044285714285246" width="0.49471428571426235" height="0.49471428571426235" fill="#FF4136" />
<rect x="2.0038571428570493" y="1.0044285714285246" width="0.49471428571426235" height="0.49471428571426235" fill="#252525" />
<rect x="2.5035714285713118" y="1.0044285714285246" width="0.49471428571426235" height="0.49471428571426235" fill="#252525" />
<rect x="3.003285714285574" y="1.0044285714285246" width="0.49471428571426235" height="0.49471428571426235" fill="#252525" />
<rect x="0.005" y="1.5041428571427868" width="0.49471428571426235" height="0.49471428571426235" fill="#252525" />
<rect x="0.5047142857142624" y="1.5041428571427868" width="0.49471428571426235" height="0.49471428571426235" fill="#FF4136" />
<rect x="1.0044285714285246" y="1.5041428571427868" width="0.49471428571426235" height="0.49471428571426235" fill="#FF4136" />
<rect x="1.5041428571427868" y="1.5041428571427868" width="0.49471428571426235" height="0.49471428571426235" fill="#FF4136" />
<rect x="2.0038571428570493" y="1.5041428571427868" width="0.49471428571426235" height="0.49471428571426235" fill="#FF4136" />
<rect x="2.5035714285713118" y="1.5041428571427868" width="0.49471428571426235" height="0.49471428571426235" fill="#FF4136" />
<rect x="3.003285714285574" y="1.5041428571427868" width="0.49471428571426235" height="0.49471428571426235" fill="#252525" />
<rect x="0.005" y="2.0038571428570493" width="0.49471428571426235" height="0.49471428571426235" fill="#252525" />
<rect x="0.5047142857142624" y="2.0038571428570493" width="0.49471428571426235" height="0.49471428571426235" fill="#252525" />
<rect x="1.0044285714285246" y="2.0038571428570493" width="0.49471428571426235" height="0.49471428571426235" fill="#FF4136" />
<rect x="1.5041428571427868" y="2.0038571428570493" width="0.49471428571426235" height="0.49471428571426235" fill="#252525" />
<rect x="2.0038571428570493" y="2.0038571428570493" width="0.49471428571426235" height="0.49471428571426235" fill="#252525" />
<rect x="2.5035714285713118" y="2.0038571428570493" width="0.49471428571426235" height="0.49471428571426235" fill="#252525" />
<rect x="3.003285714285574" y="2.0038571428570493" width="0.49471428571426235" height="0.49471428571426235" fill="#252525" />
<rect x="0.005" y="2.5035714285713118" width="0.49471428571426235" height="0.49471428571426235" fill="#252525" />
<rect x="0.5047142857142624" y="2.5035714285713118" width="0.49471428571426235" height="0.49471428571426235" fill="#252525" />
<rect x="1.0044285714285246" y="2.5035714285713118" width="0.49471428571426235" height="0.49471428571426235" fill="#FF4136" />
<rect x="1.5041428571427868" y="2.5035714285713118" width="0.49471428571426235" height="0.49471428571426235" fill="#FF4136" />
<rect x="2.0038571428570493" y="2.5035714285713118" width="0.49471428571426235" height="0.49471428571426235" fill="#252525" />
<rect x="2.5035714285713118" y="2.5035714285713118" width="0.49471428571426235" height="0.49471428571426235" fill="#252525" />
<rect x="3.003285714285574" y="2.5035714285713118" width="0.49471428571426235" height="0.49471428571426235" fill="#252525" />
<rect x="0.005" y="3.003285714285574" width="0.49471428571426235" height="0.49471428571426235" fill="#37D449" />
<rect x="0.5047142857142624" y="3.003285714285574" width="0.49471428571426235" height="0.49471428571426235" fill="#252525" />
<rect x="1.0044285714285246" y="3.003285714285574" width="0.49471428571426235" height="0.49471428571426235" fill="#252525" />
<rect x="1.5041428571427868" y="3.003285714285574" width="0.49471428571426235" height="0.49471428571426235" fill="#252525" />
<rect x="2.0038571428570493" y="3.003285714285574" width="0.49471428571426235" height="0.49471428571426235" fill="#252525" />
<rect x="2.5035714285713118" y="3.003285714285574" width="0.49471428571426235" height="0.49471428571426235" fill="#252525" />
<rect x="3.003285714285574" y="3.003285714285574" width="0.49471428571426235" height="0.49471428571426235" fill="#37D449" />
<rect x="-0.02666666666666667" y="-0.02666666666666667" width="3.5513333333331696" height="3.5513333333331696" fill="none" stroke="#111111ff" stroke-width="0.08" />
<text x="3.4979999999998364" y="3.9667499999998364" font-size="0.375" fill="black" text-anchor="end" font-family="Anuphan">7x7</text>
<text x="-0.037500000000000006" y="3.9667499999998364" font-size="0.375" fill="black" text-anchor="start" font-family="Anuphan" font-weight="600">Output 1</text>
</g>
<g id="d6">
<rect x="0.005" y="0.005" width="0.3836666666666485" height="0.3836666666666485" fill="#252525" />
<rect x="0.3936666666666485" y="0.005" width="0.3836666666666485" height="0.3836666666666485" fill="#252525" />
<rect x="0.782333333333297" y="0.005" width="0.3836666666666485" height="0.3836666666666485" fill="#252525" />
<rect x="1.1709999999999454" y="0.005" width="0.3836666666666485" height="0.3836666666666485" fill="#252525" />
<rect x="1.559666666666594" y="0.005" width="0.3836666666666485" height="0.3836666666666485" fill="#252525" />
<rect x="1.9483333333332424" y="0.005" width="0.3836666666666485" height="0.3836666666666485" fill="#252525" />
<rect x="2.336999999999891" y="0.005" width="0.3836666666666485" height="0.3836666666666485" fill="#252525" />
<rect x="2.7256666666665392" y="0.005" width="0.3836666666666485" height="0.3836666666666485" fill="#252525" />
<rect x="3.114333333333188" y="0.005" width="0.3836666666666485" height="0.3836666666666485" fill="#252525" />
<rect x="0.005" y="0.3936666666666485" width="0.3836666666666485" height="0.3836666666666485" fill="#252525" />
<rect x="0.3936666666666485" y="0.3936666666666485" width="0.3836666666666485" height="0.3836666666666485" fill="#37D449" />
<rect x="0.782333333333297" y="0.3936666666666485" width="0.3836666666666485" height="0.3836666666666485" fill="#252525" />
<rect x="1.1709999999999454" y="0.3936666666666485" width="0.3836666666666485" height="0.3836666666666485" fill="#252525" />
<rect x="1.559666666666594" y="0.3936666666666485" width="0.3836666666666485" height="0.3836666666666485" fill="#252525" />
<rect x="1.9483333333332424" y="0.3936666666666485" width="0.3836666666666485" height="0.3836666666666485" fill="#252525" />
<rect x="2.336999999999891" y="0.3936666666666485" width="0.3836666666666485" height="0.3836666666666485" fill="#252525" />
<rect x="2.7256666666665392" y="0.3936666666666485" width="0.3836666666666485" height="0.3836666666666485" fill="#37D449" />
<rect x="3.114333333333188" y="0.3936666666666485" width="0.3836666666666485" height="0.3836666666666485" fill="#252525" />
<rect x="0.005" y="0.782333333333297" width="0.3836666666666485" height="0.3836666666666485" fill="#252525" />
<rect x="0.3936666666666485" y="0.782333333333297" width="0.3836666666666485" height="0.3836666666666485" fill="#252525" />
<rect x="0.782333333333297" y="0.782333333333297" width="0.3836666666666485" height="0.3836666666666485" fill="#252525" />
<rect x="1.1709999999999454" y="0.782333333333297" width="0.3836666666666485" height="0.3836666666666485" fill="#252525" />
<rect x="1.559666666666594" y="0.782333333333297" width="0.3836666666666485" height="0.3836666666666485" fill="#FF4136" />
<rect x="1.9483333333332424" y="0.782333333333297" width="0.3836666666666485" height="0.3836666666666485" fill="#FF4136" />
<rect x="2.336999999999891" y="0.782333333333297" width="0.3836666666666485" height="0.3836666666666485" fill="#FF4136" />
<rect x="2.7256666666665392" y="0.782333333333297" width="0.3836666666666485" height="0.3836666666666485" fill="#252525" />
<rect x="3.114333333333188" y="0.782333333333297" width="0.3836666666666485" height="0.3836666666666485" fill="#252525" />
<rect x="0.005" y="1.1709999999999454" width="0.3836666666666485" height="0.3836666666666485" fill="#252525" />
<rect x="0.3936666666666485" y="1.1709999999999454" width="0.3836666666666485" height="0.3836666666666485" fill="#252525" />
<rect x="0.782333333333297" y="1.1709999999999454" width="0.3836666666666485" height="0.3836666666666485" fill="#FF4136" />
<rect x="1.1709999999999454" y="1.1709999999999454" width="0.3836666666666485" height="0.3836666666666485" fill="#FF4136" />
<rect x="1.559666666666594" y="1.1709999999999454" width="0.3836666666666485" height="0.3836666666666485" fill="#FF4136" />
<rect x="1.9483333333332424" y="1.1709999999999454" width="0.3836666666666485" height="0.3836666666666485" fill="#252525" />
<rect x="2.336999999999891" y="1.1709999999999454" width="0.3836666666666485" height="0.3836666666666485" fill="#252525" />
<rect x="2.7256666666665392" y="1.1709999999999454" width="0.3836666666666485" height="0.3836666666666485" fill="#252525" />
<rect x="3.114333333333188" y="1.1709999999999454" width="0.3836666666666485" height="0.3836666666666485" fill="#252525" />
<rect x="0.005" y="1.559666666666594" width="0.3836666666666485" height="0.3836666666666485" fill="#252525" />
<rect x="0.3936666666666485" y="1.559666666666594" width="0.3836666666666485" height="0.3836666666666485" fill="#252525" />
<rect x="0.782333333333297" y="1.559666666666594" width="0.3836666666666485" height="0.3836666666666485" fill="#FF4136" />
<rect x="1.1709999999999454" y="1.559666666666594" width="0.3836666666666485" height="0.3836666666666485" fill="#252525" />
<rect x="1.559666666666594" y="1.559666666666594" width="0.3836666666666485" height="0.3836666666666485" fill="#FF4136" />
<rect x="1.9483333333332424" y="1.559666666666594" width="0.3836666666666485" height="0.3836666666666485" fill="#252525" />
<rect x="2.336999999999891" y="1.559666666666594" width="0.3836666666666485" height="0.3836666666666485" fill="#252525" />
<rect x="2.7256666666665392" y="1.559666666666594" width="0.3836666666666485" height="0.3836666666666485" fill="#252525" />
<rect x="3.114333333333188" y="1.559666666666594" width="0.3836666666666485" height="0.3836666666666485" fill="#252525" />
<rect x="0.005" y="1.9483333333332424" width="0.3836666666666485" height="0.3836666666666485" fill="#252525" />
<rect x="0.3936666666666485" y="1.9483333333332424" width="0.3836666666666485" height="0.3836666666666485" fill="#252525" />
<rect x="0.782333333333297" y="1.9483333333332424" width="0.3836666666666485" height="0.3836666666666485" fill="#FF4136" />
<rect x="1.1709999999999454" y="1.9483333333332424" width="0.3836666666666485" height="0.3836666666666485" fill="#FF4136" />
<rect x="1.559666666666594" y="1.9483333333332424" width="0.3836666666666485" height="0.3836666666666485" fill="#FF4136" />
<rect x="1.9483333333332424" y="1.9483333333332424" width="0.3836666666666485" height="0.3836666666666485" fill="#FF4136" />
<rect x="2.336999999999891" y="1.9483333333332424" width="0.3836666666666485" height="0.3836666666666485" fill="#252525" />
<rect x="2.7256666666665392" y="1.9483333333332424" width="0.3836666666666485" height="0.3836666666666485" fill="#252525" />
<rect x="3.114333333333188" y="1.9483333333332424" width="0.3836666666666485" height="0.3836666666666485" fill="#252525" />
<rect x="0.005" y="2.336999999999891" width="0.3836666666666485" height="0.3836666666666485" fill="#252525" />
<rect x="0.3936666666666485" y="2.336999999999891" width="0.3836666666666485" height="0.3836666666666485" fill="#252525" />
<rect x="0.782333333333297" y="2.336999999999891" width="0.3836666666666485" height="0.3836666666666485" fill="#252525" />
<rect x="1.1709999999999454" y="2.336999999999891" width="0.3836666666666485" height="0.3836666666666485" fill="#252525" />
<rect x="1.559666666666594" y="2.336999999999891" width="0.3836666666666485" height="0.3836666666666485" fill="#252525" />
<rect x="1.9483333333332424" y="2.336999999999891" width="0.3836666666666485" height="0.3836666666666485" fill="#FF4136" />
<rect x="2.336999999999891" y="2.336999999999891" width="0.3836666666666485" height="0.3836666666666485" fill="#252525" />
<rect x="2.7256666666665392" y="2.336999999999891" width="0.3836666666666485" height="0.3836666666666485" fill="#252525" />
<rect x="3.114333333333188" y="2.336999999999891" width="0.3836666666666485" height="0.3836666666666485" fill="#252525" />
<rect x="0.005" y="2.7256666666665392" width="0.3836666666666485" height="0.3836666666666485" fill="#252525" />
<rect x="0.3936666666666485" y="2.7256666666665392" width="0.3836666666666485" height="0.3836666666666485" fill="#37D449" />
<rect x="0.782333333333297" y="2.7256666666665392" width="0.3836666666666485" height="0.3836666666666485" fill="#252525" />
<rect x="1.1709999999999454" y="2.7256666666665392" width="0.3836666666666485" height="0.3836666666666485" fill="#252525" />
<rect x="1.559666666666594" y="2.7256666666665392" width="0.3836666666666485" height="0.3836666666666485" fill="#252525" />
<rect x="1.9483333333332424" y="2.7256666666665392" width="0.3836666666666485" height="0.3836666666666485" fill="#252525" />
<rect x="2.336999999999891" y="2.7256666666665392" width="0.3836666666666485" height="0.3836666666666485" fill="#252525" />
<rect x="2.7256666666665392" y="2.7256666666665392" width="0.3836666666666485" height="0.3836666666666485" fill="#37D449" />
<rect x="3.114333333333188" y="2.7256666666665392" width="0.3836666666666485" height="0.3836666666666485" fill="#252525" />
<rect x="0.005" y="3.114333333333188" width="0.3836666666666485" height="0.3836666666666485" fill="#252525" />
<rect x="0.3936666666666485" y="3.114333333333188" width="0.3836666666666485" height="0.3836666666666485" fill="#252525" />
<rect x="0.782333333333297" y="3.114333333333188" width="0.3836666666666485" height="0.3836666666666485" fill="#252525" />
<rect x="1.1709999999999454" y="3.114333333333188" width="0.3836666666666485" height="0.3836666666666485" fill="#252525" />
<rect x="1.559666666666594" y="3.114333333333188" width="0.3836666666666485" height="0.3836666666666485" fill="#252525" />
<rect x="1.9483333333332424" y="3.114333333333188" width="0.3836666666666485" height="0.3836666666666485" fill="#252525" />
<rect x="2.336999999999891" y="3.114333333333188" width="0.3836666666666485" height="0.3836666666666485" fill="#252525" />
<rect x="2.7256666666665392" y="3.114333333333188" width="0.3836666666666485" height="0.3836666666666485" fill="#252525" />
<rect x="3.114333333333188" y="3.114333333333188" width="0.3836666666666485" height="0.3836666666666485" fill="#252525" />
<rect x="-0.02666666666666667" y="-0.02666666666666667" width="3.55133333333317" height="3.55133333333317" fill="none" stroke="#111111ff" stroke-width="0.08" />
<text x="3.497999999999837" y="3.966749999999837" font-size="0.375" fill="black" text-anchor="end" font-family="Anuphan">9x9</text>
<text x="-0.037500000000000006" y="3.966749999999837" font-size="0.375" fill="black" text-anchor="start" font-family="Anuphan" font-weight="600">Output 2</text>
</g>
<g id="d7">
<rect x="0.005" y="0.005" width="0.3447999999999836" height="0.3447999999999836" fill="#252525" />
<rect x="0.35479999999998363" y="0.005" width="0.3447999999999836" height="0.3447999999999836" fill="#252525" />
<rect x="0.7045999999999673" y="0.005" width="0.3447999999999836" height="0.3447999999999836" fill="#252525" />
<rect x="1.0543999999999507" y="0.005" width="0.3447999999999836" height="0.3447999999999836" fill="#252525" />
<rect x="1.4041999999999344" y="0.005" width="0.3447999999999836" height="0.3447999999999836" fill="#252525" />
<rect x="1.753999999999918" y="0.005" width="0.3447999999999836" height="0.3447999999999836" fill="#252525" />
<rect x="2.1037999999999015" y="0.005" width="0.3447999999999836" height="0.3447999999999836" fill="#252525" />
<rect x="2.453599999999885" y="0.005" width="0.3447999999999836" height="0.3447999999999836" fill="#252525" />
<rect x="2.803399999999869" y="0.005" width="0.3447999999999836" height="0.3447999999999836" fill="#252525" />
<rect x="3.1531999999998526" y="0.005" width="0.3447999999999836" height="0.3447999999999836" fill="#252525" />
<rect x="0.005" y="0.35479999999998363" width="0.3447999999999836" height="0.3447999999999836" fill="#252525" />
<rect x="0.35479999999998363" y="0.35479999999998363" width="0.3447999999999836" height="0.3447999999999836" fill="#37D449" />
<rect x="0.7045999999999673" y="0.35479999999998363" width="0.3447999999999836" height="0.3447999999999836" fill="#252525" />
<rect x="1.0543999999999507" y="0.35479999999998363" width="0.3447999999999836" height="0.3447999999999836" fill="#252525" />
<rect x="1.4041999999999344" y="0.35479999999998363" width="0.3447999999999836" height="0.3447999999999836" fill="#252525" />
<rect x="1.753999999999918" y="0.35479999999998363" width="0.3447999999999836" height="0.3447999999999836" fill="#252525" />
<rect x="2.1037999999999015" y="0.35479999999998363" width="0.3447999999999836" height="0.3447999999999836" fill="#252525" />
<rect x="2.453599999999885" y="0.35479999999998363" width="0.3447999999999836" height="0.3447999999999836" fill="#37D449" />
<rect x="2.803399999999869" y="0.35479999999998363" width="0.3447999999999836" height="0.3447999999999836" fill="#252525" />
<rect x="3.1531999999998526" y="0.35479999999998363" width="0.3447999999999836" height="0.3447999999999836" fill="#252525" />
<rect x="0.005" y="0.7045999999999673" width="0.3447999999999836" height="0.3447999999999836" fill="#252525" />
<rect x="0.35479999999998363" y="0.7045999999999673" width="0.3447999999999836" height="0.3447999999999836" fill="#252525" />
<rect x="0.7045999999999673" y="0.7045999999999673" width="0.3447999999999836" height="0.3447999999999836" fill="#252525" />
<rect x="1.0543999999999507" y="0.7045999999999673" width="0.3447999999999836" height="0.3447999999999836" fill="#FF4136" />
<rect x="1.4041999999999344" y="0.7045999999999673" width="0.3447999999999836" height="0.3447999999999836" fill="#FF4136" />
<rect x="1.753999999999918" y="0.7045999999999673" width="0.3447999999999836" height="0.3447999999999836" fill="#252525" />
<rect x="2.1037999999999015" y="0.7045999999999673" width="0.3447999999999836" height="0.3447999999999836" fill="#252525" />
<rect x="2.453599999999885" y="0.7045999999999673" width="0.3447999999999836" height="0.3447999999999836" fill="#252525" />
<rect x="2.803399999999869" y="0.7045999999999673" width="0.3447999999999836" height="0.3447999999999836" fill="#252525" />
<rect x="3.1531999999998526" y="0.7045999999999673" width="0.3447999999999836" height="0.3447999999999836" fill="#252525" />
<rect x="0.005" y="1.0543999999999507" width="0.3447999999999836" height="0.3447999999999836" fill="#252525" />
<rect x="0.35479999999998363" y="1.0543999999999507" width="0.3447999999999836" height="0.3447999999999836" fill="#252525" />
<rect x="0.7045999999999673" y="1.0543999999999507" width="0.3447999999999836" height="0.3447999999999836" fill="#FF4136" />
<rect x="1.0543999999999507" y="1.0543999999999507" width="0.3447999999999836" height="0.3447999999999836" fill="#FF4136" />
<rect x="1.4041999999999344" y="1.0543999999999507" width="0.3447999999999836" height="0.3447999999999836" fill="#FF4136" />
<rect x="1.753999999999918" y="1.0543999999999507" width="0.3447999999999836" height="0.3447999999999836" fill="#FF4136" />
<rect x="2.1037999999999015" y="1.0543999999999507" width="0.3447999999999836" height="0.3447999999999836" fill="#252525" />
<rect x="2.453599999999885" y="1.0543999999999507" width="0.3447999999999836" height="0.3447999999999836" fill="#252525" />
<rect x="2.803399999999869" y="1.0543999999999507" width="0.3447999999999836" height="0.3447999999999836" fill="#252525" />
<rect x="3.1531999999998526" y="1.0543999999999507" width="0.3447999999999836" height="0.3447999999999836" fill="#252525" />
<rect x="0.005" y="1.4041999999999344" width="0.3447999999999836" height="0.3447999999999836" fill="#252525" />
<rect x="0.35479999999998363" y="1.4041999999999344" width="0.3447999999999836" height="0.3447999999999836" fill="#252525" />
<rect x="0.7045999999999673" y="1.4041999999999344" width="0.3447999999999836" height="0.3447999999999836" fill="#252525" />
<rect x="1.0543999999999507" y="1.4041999999999344" width="0.3447999999999836" height="0.3447999999999836" fill="#252525" />
<rect x="1.4041999999999344" y="1.4041999999999344" width="0.3447999999999836" height="0.3447999999999836" fill="#FF4136" />
<rect x="1.753999999999918" y="1.4041999999999344" width="0.3447999999999836" height="0.3447999999999836" fill="#FF4136" />
<rect x="2.1037999999999015" y="1.4041999999999344" width="0.3447999999999836" height="0.3447999999999836" fill="#FF4136" />
<rect x="2.453599999999885" y="1.4041999999999344" width="0.3447999999999836" height="0.3447999999999836" fill="#252525" />
<rect x="2.803399999999869" y="1.4041999999999344" width="0.3447999999999836" height="0.3447999999999836" fill="#252525" />
<rect x="3.1531999999998526" y="1.4041999999999344" width="0.3447999999999836" height="0.3447999999999836" fill="#252525" />
<rect x="0.005" y="1.753999999999918" width="0.3447999999999836" height="0.3447999999999836" fill="#252525" />
<rect x="0.35479999999998363" y="1.753999999999918" width="0.3447999999999836" height="0.3447999999999836" fill="#252525" />
<rect x="0.7045999999999673" y="1.753999999999918" width="0.3447999999999836" height="0.3447999999999836" fill="#252525" />
<rect x="1.0543999999999507" y="1.753999999999918" width="0.3447999999999836" height="0.3447999999999836" fill="#252525" />
<rect x="1.4041999999999344" y="1.753999999999918" width="0.3447999999999836" height="0.3447999999999836" fill="#FF4136" />
<rect x="1.753999999999918" y="1.753999999999918" width="0.3447999999999836" height="0.3447999999999836" fill="#252525" />
<rect x="2.1037999999999015" y="1.753999999999918" width="0.3447999999999836" height="0.3447999999999836" fill="#252525" />
<rect x="2.453599999999885" y="1.753999999999918" width="0.3447999999999836" height="0.3447999999999836" fill="#252525" />
<rect x="2.803399999999869" y="1.753999999999918" width="0.3447999999999836" height="0.3447999999999836" fill="#252525" />
<rect x="3.1531999999998526" y="1.753999999999918" width="0.3447999999999836" height="0.3447999999999836" fill="#252525" />
<rect x="0.005" y="2.1037999999999015" width="0.3447999999999836" height="0.3447999999999836" fill="#252525" />
<rect x="0.35479999999998363" y="2.1037999999999015" width="0.3447999999999836" height="0.3447999999999836" fill="#252525" />
<rect x="0.7045999999999673" y="2.1037999999999015" width="0.3447999999999836" height="0.3447999999999836" fill="#252525" />
<rect x="1.0543999999999507" y="2.1037999999999015" width="0.3447999999999836" height="0.3447999999999836" fill="#FF4136" />
<rect x="1.4041999999999344" y="2.1037999999999015" width="0.3447999999999836" height="0.3447999999999836" fill="#FF4136" />
<rect x="1.753999999999918" y="2.1037999999999015" width="0.3447999999999836" height="0.3447999999999836" fill="#252525" />
<rect x="2.1037999999999015" y="2.1037999999999015" width="0.3447999999999836" height="0.3447999999999836" fill="#252525" />
<rect x="2.453599999999885" y="2.1037999999999015" width="0.3447999999999836" height="0.3447999999999836" fill="#252525" />
<rect x="2.803399999999869" y="2.1037999999999015" width="0.3447999999999836" height="0.3447999999999836" fill="#252525" />
<rect x="3.1531999999998526" y="2.1037999999999015" width="0.3447999999999836" height="0.3447999999999836" fill="#252525" />
<rect x="0.005" y="2.453599999999885" width="0.3447999999999836" height="0.3447999999999836" fill="#252525" />
<rect x="0.35479999999998363" y="2.453599999999885" width="0.3447999999999836" height="0.3447999999999836" fill="#37D449" />
<rect x="0.7045999999999673" y="2.453599999999885" width="0.3447999999999836" height="0.3447999999999836" fill="#252525" />
<rect x="1.0543999999999507" y="2.453599999999885" width="0.3447999999999836" height="0.3447999999999836" fill="#252525" />
<rect x="1.4041999999999344" y="2.453599999999885" width="0.3447999999999836" height="0.3447999999999836" fill="#252525" />
<rect x="1.753999999999918" y="2.453599999999885" width="0.3447999999999836" height="0.3447999999999836" fill="#252525" />
<rect x="2.1037999999999015" y="2.453599999999885" width="0.3447999999999836" height="0.3447999999999836" fill="#252525" />
<rect x="2.453599999999885" y="2.453599999999885" width="0.3447999999999836" height="0.3447999999999836" fill="#37D449" />
<rect x="2.803399999999869" y="2.453599999999885" width="0.3447999999999836" height="0.3447999999999836" fill="#252525" />
<rect x="3.1531999999998526" y="2.453599999999885" width="0.3447999999999836" height="0.3447999999999836" fill="#252525" />
<rect x="0.005" y="2.803399999999869" width="0.3447999999999836" height="0.3447999999999836" fill="#252525" />
<rect x="0.35479999999998363" y="2.803399999999869" width="0.3447999999999836" height="0.3447999999999836" fill="#252525" />
<rect x="0.7045999999999673" y="2.803399999999869" width="0.3447999999999836" height="0.3447999999999836" fill="#252525" />
<rect x="1.0543999999999507" y="2.803399999999869" width="0.3447999999999836" height="0.3447999999999836" fill="#252525" />
<rect x="1.4041999999999344" y="2.803399999999869" width="0.3447999999999836" height="0.3447999999999836" fill="#252525" />
<rect x="1.753999999999918" y="2.803399999999869" width="0.3447999999999836" height="0.3447999999999836" fill="#252525" />
<rect x="2.1037999999999015" y="2.803399999999869" width="0.3447999999999836" height="0.3447999999999836" fill="#252525" />
<rect x="2.453599999999885" y="2.803399999999869" width="0.3447999999999836" height="0.3447999999999836" fill="#252525" />
<rect x="2.803399999999869" y="2.803399999999869" width="0.3447999999999836" height="0.3447999999999836" fill="#252525" />
<rect x="3.1531999999998526" y="2.803399999999869" width="0.3447999999999836" height="0.3447999999999836" fill="#252525" />
<rect x="-0.02666666666666667" y="-0.02666666666666667" width="3.5513333333331696" height="3.201533333333186" fill="none" stroke="#111111ff" stroke-width="0.08" />
<text x="3.4979999999998364" y="3.6169499999998527" font-size="0.375" fill="black" text-anchor="end" font-family="Anuphan">10x9</text>
<text x="-0.037500000000000006" y="3.6169499999998527" font-size="0.375" fill="black" text-anchor="start" font-family="Anuphan" font-weight="600">Output 3</text>
</g>
<g id="d8">
<rect x="0.005" y="0.005" width="0.43224999999997954" height="0.43224999999997954" fill="#37D449" />
<rect x="0.44224999999997955" y="0.005" width="0.43224999999997954" height="0.43224999999997954" fill="#252525" />
<rect x="0.8794999999999591" y="0.005" width="0.43224999999997954" height="0.43224999999997954" fill="#252525" />
<rect x="1.3167499999999386" y="0.005" width="0.43224999999997954" height="0.43224999999997954" fill="#252525" />
<rect x="1.753999999999918" y="0.005" width="0.43224999999997954" height="0.43224999999997954" fill="#252525" />
<rect x="2.1912499999998976" y="0.005" width="0.43224999999997954" height="0.43224999999997954" fill="#252525" />
<rect x="2.6284999999998773" y="0.005" width="0.43224999999997954" height="0.43224999999997954" fill="#37D449" />
<rect x="3.0657499999998565" y="0.005" width="0.43224999999997954" height="0.43224999999997954" fill="#252525" />
<rect x="0.005" y="0.44224999999997955" width="0.43224999999997954" height="0.43224999999997954" fill="#252525" />
<rect x="0.44224999999997955" y="0.44224999999997955" width="0.43224999999997954" height="0.43224999999997954" fill="#252525" />
<rect x="0.8794999999999591" y="0.44224999999997955" width="0.43224999999997954" height="0.43224999999997954" fill="#252525" />
<rect x="1.3167499999999386" y="0.44224999999997955" width="0.43224999999997954" height="0.43224999999997954" fill="#252525" />
<rect x="1.753999999999918" y="0.44224999999997955" width="0.43224999999997954" height="0.43224999999997954" fill="#FF4136" />
<rect x="2.1912499999998976" y="0.44224999999997955" width="0.43224999999997954" height="0.43224999999997954" fill="#252525" />
<rect x="2.6284999999998773" y="0.44224999999997955" width="0.43224999999997954" height="0.43224999999997954" fill="#252525" />
<rect x="3.0657499999998565" y="0.44224999999997955" width="0.43224999999997954" height="0.43224999999997954" fill="#252525" />
<rect x="0.005" y="0.8794999999999591" width="0.43224999999997954" height="0.43224999999997954" fill="#252525" />
<rect x="0.44224999999997955" y="0.8794999999999591" width="0.43224999999997954" height="0.43224999999997954" fill="#252525" />
<rect x="0.8794999999999591" y="0.8794999999999591" width="0.43224999999997954" height="0.43224999999997954" fill="#FF4136" />
<rect x="1.3167499999999386" y="0.8794999999999591" width="0.43224999999997954" height="0.43224999999997954" fill="#FF4136" />
<rect x="1.753999999999918" y="0.8794999999999591" width="0.43224999999997954" height="0.43224999999997954" fill="#FF4136" />
<rect x="2.1912499999998976" y="0.8794999999999591" width="0.43224999999997954" height="0.43224999999997954" fill="#252525" />
<rect x="2.6284999999998773" y="0.8794999999999591" width="0.43224999999997954" height="0.43224999999997954" fill="#252525" />
<rect x="3.0657499999998565" y="0.8794999999999591" width="0.43224999999997954" height="0.43224999999997954" fill="#252525" />
<rect x="0.005" y="1.3167499999999386" width="0.43224999999997954" height="0.43224999999997954" fill="#252525" />
<rect x="0.44224999999997955" y="1.3167499999999386" width="0.43224999999997954" height="0.43224999999997954" fill="#252525" />
<rect x="0.8794999999999591" y="1.3167499999999386" width="0.43224999999997954" height="0.43224999999997954" fill="#FF4136" />
<rect x="1.3167499999999386" y="1.3167499999999386" width="0.43224999999997954" height="0.43224999999997954" fill="#252525" />
<rect x="1.753999999999918" y="1.3167499999999386" width="0.43224999999997954" height="0.43224999999997954" fill="#252525" />
<rect x="2.1912499999998976" y="1.3167499999999386" width="0.43224999999997954" height="0.43224999999997954" fill="#252525" />
<rect x="2.6284999999998773" y="1.3167499999999386" width="0.43224999999997954" height="0.43224999999997954" fill="#252525" />
<rect x="3.0657499999998565" y="1.3167499999999386" width="0.43224999999997954" height="0.43224999999997954" fill="#252525" />
<rect x="0.005" y="1.753999999999918" width="0.43224999999997954" height="0.43224999999997954" fill="#252525" />
<rect x="0.44224999999997955" y="1.753999999999918" width="0.43224999999997954" height="0.43224999999997954" fill="#FF4136" />
<rect x="0.8794999999999591" y="1.753999999999918" width="0.43224999999997954" height="0.43224999999997954" fill="#FF4136" />
<rect x="1.3167499999999386" y="1.753999999999918" width="0.43224999999997954" height="0.43224999999997954" fill="#FF4136" />
<rect x="1.753999999999918" y="1.753999999999918" width="0.43224999999997954" height="0.43224999999997954" fill="#FF4136" />
<rect x="2.1912499999998976" y="1.753999999999918" width="0.43224999999997954" height="0.43224999999997954" fill="#FF4136" />
<rect x="2.6284999999998773" y="1.753999999999918" width="0.43224999999997954" height="0.43224999999997954" fill="#252525" />
<rect x="3.0657499999998565" y="1.753999999999918" width="0.43224999999997954" height="0.43224999999997954" fill="#252525" />
<rect x="0.005" y="2.1912499999998976" width="0.43224999999997954" height="0.43224999999997954" fill="#252525" />
<rect x="0.44224999999997955" y="2.1912499999998976" width="0.43224999999997954" height="0.43224999999997954" fill="#252525" />
<rect x="0.8794999999999591" y="2.1912499999998976" width="0.43224999999997954" height="0.43224999999997954" fill="#FF4136" />
<rect x="1.3167499999999386" y="2.1912499999998976" width="0.43224999999997954" height="0.43224999999997954" fill="#252525" />
<rect x="1.753999999999918" y="2.1912499999998976" width="0.43224999999997954" height="0.43224999999997954" fill="#252525" />
<rect x="2.1912499999998976" y="2.1912499999998976" width="0.43224999999997954" height="0.43224999999997954" fill="#252525" />
<rect x="2.6284999999998773" y="2.1912499999998976" width="0.43224999999997954" height="0.43224999999997954" fill="#252525" />
<rect x="3.0657499999998565" y="2.1912499999998976" width="0.43224999999997954" height="0.43224999999997954" fill="#252525" />
<rect x="0.005" y="2.6284999999998773" width="0.43224999999997954" height="0.43224999999997954" fill="#37D449" />
<rect x="0.44224999999997955" y="2.6284999999998773" width="0.43224999999997954" height="0.43224999999997954" fill="#252525" />
<rect x="0.8794999999999591" y="2.6284999999998773" width="0.43224999999997954" height="0.43224999999997954" fill="#252525" />
<rect x="1.3167499999999386" y="2.6284999999998773" width="0.43224999999997954" height="0.43224999999997954" fill="#252525" />
<rect x="1.753999999999918" y="2.6284999999998773" width="0.43224999999997954" height="0.43224999999997954" fill="#252525" />
<rect x="2.1912499999998976" y="2.6284999999998773" width="0.43224999999997954" height="0.43224999999997954" fill="#252525" />
<rect x="2.6284999999998773" y="2.6284999999998773" width="0.43224999999997954" height="0.43224999999997954" fill="#37D449" />
<rect x="3.0657499999998565" y="2.6284999999998773" width="0.43224999999997954" height="0.43224999999997954" fill="#252525" />
<rect x="0.005" y="3.0657499999998565" width="0.43224999999997954" height="0.43224999999997954" fill="#252525" />
<rect x="0.44224999999997955" y="3.0657499999998565" width="0.43224999999997954" height="0.43224999999997954" fill="#252525" />
<rect x="0.8794999999999591" y="3.0657499999998565" width="0.43224999999997954" height="0.43224999999997954" fill="#252525" />
<rect x="1.3167499999999386" y="3.0657499999998565" width="0.43224999999997954" height="0.43224999999997954" fill="#252525" />
<rect x="1.753999999999918" y="3.0657499999998565" width="0.43224999999997954" height="0.43224999999997954" fill="#252525" />
<rect x="2.1912499999998976" y="3.0657499999998565" width="0.43224999999997954" height="0.43224999999997954" fill="#252525" />
<rect x="2.6284999999998773" y="3.0657499999998565" width="0.43224999999997954" height="0.43224999999997954" fill="#252525" />
<rect x="3.0657499999998565" y="3.0657499999998565" width="0.43224999999997954" height="0.43224999999997954" fill="#252525" />
<rect x="0.005" y="3.5029999999998362" width="0.43224999999997954" height="0.43224999999997954" fill="#252525" />
<rect x="0.44224999999997955" y="3.5029999999998362" width="0.43224999999997954" height="0.43224999999997954" fill="#252525" />
<rect x="0.8794999999999591" y="3.5029999999998362" width="0.43224999999997954" height="0.43224999999997954" fill="#252525" />
<rect x="1.3167499999999386" y="3.5029999999998362" width="0.43224999999997954" height="0.43224999999997954" fill="#252525" />
<rect x="1.753999999999918" y="3.5029999999998362" width="0.43224999999997954" height="0.43224999999997954" fill="#252525" />
<rect x="2.1912499999998976" y="3.5029999999998362" width="0.43224999999997954" height="0.43224999999997954" fill="#252525" />
<rect x="2.6284999999998773" y="3.5029999999998362" width="0.43224999999997954" height="0.43224999999997954" fill="#252525" />
<rect x="3.0657499999998565" y="3.5029999999998362" width="0.43224999999997954" height="0.43224999999997954" fill="#252525" />
<rect x="-0.02666666666666667" y="-0.02666666666666667" width="3.5513333333331696" height="3.9885833333331493" fill="none" stroke="#111111ff" stroke-width="0.08" />
<text x="3.4979999999998364" y="4.403999999999816" font-size="0.375" fill="black" text-anchor="end" font-family="Anuphan">8x9</text>
<text x="-0.037500000000000006" y="4.403999999999816" font-size="0.375" fill="black" text-anchor="start" font-family="Anuphan" font-weight="600">Output 4</text>
</g>
</defs>
<rect x="0" y="0" width="100%" height="100%" fill="#eeeff6" />
<use xlink:href="#d0" x="0.25" y="0.25" />
<use xlink:href="#d1" x="4.247999999999836" y="0.25" />
<use xlink:href="#d2" x="8.245999999999674" y="0.25" />
<use xlink:href="#d3" x="12.24399999999951" y="0.25" />
<use xlink:href="#d4" x="16.241999999999344" y="0.25" />
<path d="M1.9989999999999182,5.272499999999796 L1.9989999999999182,5.672499999999796" stroke-width="0.05" stroke="#888888" />
<path d="M1.8489999999999183,5.472499999999796 L1.9989999999999182,5.672499999999796" stroke-width="0.05" stroke="#888888" />
<path d="M2.1489999999999183,5.472499999999796 L1.9989999999999182,5.672499999999796" stroke-width="0.05" stroke="#888888" />
<use xlink:href="#d5" x="0.25" y="6.022499999999796" />
<path d="M5.996999999999755,5.272499999999796 L5.996999999999755,5.672499999999796" stroke-width="0.05" stroke="#888888" />
<path d="M5.846999999999754,5.472499999999796 L5.996999999999755,5.672499999999796" stroke-width="0.05" stroke="#888888" />
<path d="M6.146999999999755,5.472499999999796 L5.996999999999755,5.672499999999796" stroke-width="0.05" stroke="#888888" />
<use xlink:href="#d6" x="4.247999999999836" y="6.022499999999796" />
<path d="M9.994999999999592,5.272499999999796 L9.994999999999592,5.672499999999796" stroke-width="0.05" stroke="#888888" />
<path d="M9.844999999999592,5.472499999999796 L9.994999999999592,5.672499999999796" stroke-width="0.05" stroke="#888888" />
<path d="M10.144999999999593,5.472499999999796 L9.994999999999592,5.672499999999796" stroke-width="0.05" stroke="#888888" />
<use xlink:href="#d7" x="8.245999999999674" y="6.022499999999796" />
<path d="M13.992999999999428,5.272499999999796 L13.992999999999428,5.672499999999796" stroke-width="0.05" stroke="#888888" />
<path d="M13.842999999999428,5.472499999999796 L13.992999999999428,5.672499999999796" stroke-width="0.05" stroke="#888888" />
<path d="M14.142999999999429,5.472499999999796 L13.992999999999428,5.672499999999796" stroke-width="0.05" stroke="#888888" />
<use xlink:href="#d8" x="12.24399999999951" y="6.022499999999796" />
<path d="M17.990999999999264,5.272499999999796 L17.990999999999264,5.672499999999796" stroke-width="0.05" stroke="#888888" />
<path d="M17.840999999999266,5.472499999999796 L17.990999999999264,5.672499999999796" stroke-width="0.05" stroke="#888888" />
<path d="M18.140999999999263,5.472499999999796 L17.990999999999264,5.672499999999796" stroke-width="0.05" stroke="#888888" />
<text x="17.990999999999264" y="8.308749999999693" font-size="1" font-family="Anuphan" font-weight="700" fill="#333333" text-anchor="middle" alignment-baseline="middle">?</text>
<text x="19.9" y="11.2" font-size="0.3" font-family="Anuphan" font-weight="600" fill="#666666" text-anchor="end" alignment-baseline="bottom">Task a1570a43</text>
</svg>