<?xml version="1.0" encoding="UTF-8"?>
<svg xmlns="http://www.w3.org/2000/svg" xmlns:xlink="http://www.w3.org/1999/xlink"
     width="800.0" height="272.0" viewBox="0 0 20.0 6.8">
<defs>
<g id="d0">
<rect x="0.005" y="0.005" width="0.6945999999999672" height="0.6945999999999672" fill="#252525" />
<rect x="0.7045999999999673" y="0.005" width="0.6945999999999672" height="0.6945999999999672" fill="#252525" />
<rect x="1.4041999999999344" y="0.005" width="0.6945999999999672" height="0.6945999999999672" fill="#252525" />
<rect x="2.1037999999999015" y="0.005" width="0.6945999999999672" height="0.6945999999999672" fill="#252525" />
<rect x="2.803399999999869" y="0.005" width="0.6945999999999672" height="0.6945999999999672" fill="#252525" />
<rect x="0.005" y="0.7045999999999673" width="0.6945999999999672" height="0.6945999999999672" fill="#252525" />
<rect x="0.7045999999999673" y="0.7045999999999673" width="0.6945999999999672" height="0.6945999999999672" fill="#FF4136" />
<rect x="1.4041999999999344" y="0.7045999999999673" width="0.6945999999999672" height="0.6945999999999672" fill="#252525" />
<rect x="2.1037999999999015" y="0.7045999999999673" width="0.6945999999999672" height="0.6945999999999672" fill="#252525" />
<rect x="2.803399999999869" y="0.7045999999999673" width="0.6945999999999672" height="0.6945999999999672" fill="#252525" />
<rect x="0.005" y="1.4041999999999344" width="0.6945999999999672" height="0.6945999999999672" fill="#252525" />
<rect x="0.7045999999999673" y="1.4041999999999344" width="0.6945999999999672" height="0.6945999999999672" fill="#252525" />
<rect x="1.4041999999999344" y="1.4041999999999344" width="0.6945999999999672" height="0.6945999999999672" fill="#252525" />
<rect x="2.1037999999999015" y="1.4041999999999344" width="0.6945999999999672" height="0.6945999999999672" fill="#252525" />
<rect x="2.803399999999869" y="1.4041999999999344" width="0.6945999999999672" height="0.6945999999999672" fill="#252525" />
<rect x="-0.02666666666666667" y="-0.02666666666666667" width="3.5513333333331696" height="2.152133333333235" fill="none" stroke="#111111ff" stroke-width="0.08" />
<text x="3.4979999999998364" y="2.5675499999999016" font-size="0.375" fill="black" text-anchor="end" font-family="Anuphan">5x3</text>
<text x="-0.037500000000000006" y="2.5675499999999016" font-size="0.375" fill="black" text-anchor="start" font-family="Anuphan" font-weight="600">Input 1</text>
</g>
<g id="d1">
<rect x="0.005" y="0.005" width="0.6945999999999672" height="0.6945999999999672" fill="#252525" />
<rect x="0.7045999999999673" y="0.005" width="0.6945999999999672" height="0.6945999999999672" fill="#252525" />
<rect x="1.4041999999999344" y="0.005" width="0.6945999999999672" height="0.6945999999999672" fill="#252525" />
<rect x="2.1037999999999015" y="0.005" width="0.6945999999999672" height="0.6945999999999672" fill="#252525" />
<rect x="2.803399999999869" y="0.005" width="0.6945999999999672" height="0.6945999999999672" fill="#252525" />
<rect x="0.005" y="0.7045999999999673" width="0.6945999999999672" height="0.6945999999999672" fill="#252525" />
<rect x="0.7045999999999673" y="0.7045999999999673" width="0.6945999999999672" height="0.6945999999999672" fill="#252525" />
<rect x="1.4041999999999344" y="0.7045999999999673" width="0.6945999999999672" height="0.6945999999999672" fill="#252525" />
<rect x="2.1037999999999015" y="0.7045999999999673" width="0.6945999999999672" height="0.6945999999999672" fill="#252525" />
<rect x="2.803399999999869" y="0.7045999999999673" width="0.6945999999999672" height="0.6945999999999672" fill="#252525" />
<rect x="0.005" y="1.4041999999999344" width="0.6945999999999672" height="0.6945999999999672" fill="#252525" />
<rect x="0.7045999999999673" y="1.4041999999999344" width="0.6945999999999672" height="0.6945999999999672" fill="#252525" />
<rect x="1.4041999999999344" y="1.4041999999999344" width="0.6945999999999672" height="0.6945999999999672" fill="#252525" />
<rect x="2.1037999999999015" y="1.4041999999999344" width="0.6945999999999672" height="0.6945999999999672" fill="#252525" />
<rect x="2.803399999999869" y="1.4041999999999344" width="0.6945999999999672" height="0.6945999999999672" fill="#FF4136" />
<rect x="-0.02666666666666667" y="-0.02666666666666667" width="3.5513333333331696" height="2.152133333333235" fill="none" stroke="#111111ff" stroke-width="0.08" />
<text x="3.4979999999998364" y="2.5675499999999016" font-size="0.375" fill="black" text-anchor="end" font-family="Anuphan">5x3</text>
<text x="-0.037500000000000006" y="2.5675499999999016" font-size="0.375" fill="black" text-anchor="start" font-family="Anuphan" font-weight="600">Input 2</text>
</g>
<g id="d2">
<rect x="0.005" y="0.005" width="0.6945999999999672" height="0.6945999999999672" fill="#252525" />
<rect x="0.7045999999999673" y="0.005" width="0.6945999999999672" height="0.6945999999999672" fill="#252525" />
<rect x="1.4041999999999344" y="0.005" width="0.6945999999999672" height="0.6945999999999672" fill="#FF4136" />
<rect x="2.1037999999999015" y="0.005" width="0.6945999999999672" height="0.6945999999999672" fill="#252525" />
<rect x="2.803399999999869" y="0.005" width="0.6945999999999672" height="0.6945999999999672" fill="#252525" />
<rect x="0.005" y="0.7045999999999673" width="0.6945999999999672" height="0.6945999999999672" fill="#252525" />
<rect x="0.7045999999999673" y="0.7045999999999673" width="0.6945999999999672" height="0.6945999999999672" fill="#252525" />
<rect x="1.4041999999999344" y="0.7045999999999673" width="0.6945999999999672" height="0.6945999999999672" fill="#252525" />
<rect x="2.1037999999999015" y="0.7045999999999673" width="0.6945999999999672" height="0.6945999999999672" fill="#252525" />
<rect x="2.803399999999869" y="0.7045999999999673" width="0.6945999999999672" height="0.6945999999999672" fill="#252525" />
<rect x="0.005" y="1.4041999999999344" width="0.6945999999999672" height="0.6945999999999672" fill="#252525" />
<rect x="0.7045999999999673" y="1.4041999999999344" width="0.6945999999999672" height="0.6945999999999672" fill="#252525" />
<rect x="1.4041999999999344" y="1.4041999999999344" width="0.6945999999999672" height="0.6945999999999672" fill="#252525" />
<rect x="2.1037999999999015" y="1.4041999999999344" width="0.6945999999999672" height="0.6945999999999672" fill="#252525" />
<rect x="2.803399999999869" y="1.4041999999999344" width="0.6945999999999672" height="0.6945999999999672" fill="#252525" />
<rect x="-0.02666666666666667" y="-0.02666666666666667" width="3.5513333333331696" height="2.152133333333235" fill="none" stroke="#111111ff" stroke-width="0.08" />
<text x="3.4979999999998364" y="2.5675499999999016" font-size="0.375" fill="black" text-anchor="end" font-family="Anuphan">5x3</text>
<text x="-0.037500000000000006" y="2.5675499999999016" font-size="0.375" fill="black" text-anchor="start" font-family="Anuphan" font-weight="600">Input 3</text>
</g>
<g id="d3">
<rect x="0.005" y="0.005" width="0.6945999999999672" height="0.6945999999999672" fill="#252525" />
<rect x="0.7045999999999673" y="0.005" width="0.6945999999999672" height="0.6945999999999672" fill="#252525" />
<rect x="1.4041999999999344" y="0.005" width="0.6945999999999672" height="0.6945999999999672" fill="#252525" />
<rect x="2.1037999999999015" y="0.005" width="0.6945999999999672" height="0.6945999999999672" fill="#252525" />
<rect x="2.803399999999869" y="0.005" width="0.6945999999999672" height="0.6945999999999672" fill="#252525" />
<rect x="0.005" y="0.7045999999999673" width="0.6945999999999672" height="0.6945999999999672" fill="#252525" />
<rect x="0.7045999999999673" y="0.7045999999999673" width="0.6945999999999672" height="0.6945999999999672" fill="#252525" />
<rect x="1.4041999999999344" y="0.7045999999999673" width="0.6945999999999672" height="0.6945999999999672" fill="#252525" />
<rect x="2.1037999999999015" y="0.7045999999999673" width="0.6945999999999672" height="0.6945999999999672" fill="#FF4136" />
<rect x="2.803399999999869" y="0.7045999999999673" width="0.6945999999999672" height="0.6945999999999672" fill="#252525" />
<rect x="0.005" y="1.4041999999999344" width="0.6945999999999672" height="0.6945999999999672" fill="#252525" />
<rect x="0.7045999999999673" y="1.4041999999999344" width="0.6945999999999672" height="0.6945999999999672" fill="#252525" />
<rect x="1.4041999999999344" y="1.4041999999999344" width="0.6945999999999672" height="0.6945999999999672" fill="#252525" />
<rect x="2.1037999999999015" y="1.4041999999999344" width="0.6945999999999672" height="0.6945999999999672" fill="#252525" />
<rect x="2.803399999999869" y="1.4041999999999344" width="0.6945999999999672" height="0.6945999999999672" fill="#252525" />
<rect x="-0.02666666666666667" y="-0.02666666666666667" width="3.5513333333331696" height="2.152133333333235" fill="none" stroke="#111111ff" stroke-width="0.08" />
<text x="3.4979999999998364" y="2.5675499999999016" font-size="0.375" fill="black" text-anchor="end" font-family="Anuphan">5x3</text>
<text x="-0.037500000000000006" y="2.5675499999999016" font-size="0.375" fill="black" text-anchor="start" font-family="Anuphan" font-weight="600">Input 4</text>
</g>
<g id="d4">
<rect x="0.005" y="0.005" width="0.6945999999999672" height="0.6945999999999672" fill="#252525" />
<rect x="0.7045999999999673" y="0.005" width="0.6945999999999672" height="0.6945999999999672" fill="#252525" />
<rect x="1.4041999999999344" y="0.005" width="0.6945999999999672" height="0.6945999999999672" fill="#252525" />
<rect x="2.1037999999999015" y="0.005" width="0.6945999999999672" height="0.6945999999999672" fill="#252525" />
<rect x="2.803399999999869" y="0.005" width="0.6945999999999672" height="0.6945999999999672" fill="#252525" />
<rect x="0.005" y="0.7045999999999673" width="0.6945999999999672" height="0.6945999999999672" fill="#252525" />
<rect x="0.7045999999999673" y="0.7045999999999673" width="0.6945999999999672" height="0.6945999999999672" fill="#252525" />
<rect x="1.4041999999999344" y="0.7045999999999673" width="0.6945999999999672" height="0.6945999999999672" fill="#252525" />
<rect x="2.1037999999999015" y="0.7045999999999673" width="0.6945999999999672" height="0.6945999999999672" fill="#252525" />
<rect x="2.803399999999869" y="0.7045999999999673" width="0.6945999999999672" height="0.6945999999999672" fill="#FF4136" />
<rect x="0.005" y="1.4041999999999344" width="0.6945999999999672" height="0.6945999999999672" fill="#252525" />
<rect x="0.7045999999999673" y="1.4041999999999344" width="0.6945999999999672" height="0.6945999999999672" fill="#252525" />
<rect x="1.4041999999999344" y="1.4041999999999344" width="0.6945999999999672" height="0.6945999999999672" fill="#252525" />
<rect x="2.1037999999999015" y="1.4041999999999344" width="0.6945999999999672" height="0.6945999999999672" fill="#252525" />
<rect x="2.803399999999869" y="1.4041999999999344" width="0.6945999999999672" height="0.6945999999999672" fill="#252525" />
<rect x="-0.02666666666666667" y="-0.02666666666666667" width="3.5513333333331696" height="2.152133333333235" fill="none" stroke="#111111ff" stroke-width="0.08" />
<text x="3.4979999999998364" y="2.5675499999999016" font-size="0.375" fill="black" text-anchor="end" font-family="Anuphan">5x3</text>
<text x="-0.037500000000000006" y="2.5675499999999016" font-size="0.375" fill="black" text-anchor="start" font-family="Anuphan" font-weight="600">Test 1</text>
</g>
<g id="d5">
<rect x="0.005" y="0.005" width="0.6945999999999672" height="0.6945999999999672" fill="#37D449" />
<rect x="0.7045999999999673" y="0.005" width="0.6945999999999672" height="0.6945999999999672" fill="#252525" />
<rect x="1.4041999999999344" y="0.005" width="0.6945999999999672" height="0.6945999999999672" fill="#F012BE" />
<rect x="2.1037999999999015" y="0.005" width="0.6945999999999672" height="0.6945999999999672" fill="#252525" />
<rect x="2.803399999999869" y="0.005" width="0.6945999999999672" height="0.6945999999999672" fill="#252525" />
<rect x="0.005" y="0.7045999999999673" width="0.6945999999999672" height="0.6945999999999672" fill="#252525" />
<rect x="0.7045999999999673" y="0.7045999999999673" width="0.6945999999999672" height="0.6945999999999672" fill="#252525" />
<rect x="1.4041999999999344" y="0.7045999999999673" width="0.6945999999999672" height="0.6945999999999672" fill="#252525" />
<rect x="2.1037999999999015" y="0.7045999999999673" width="0.6945999999999672" height="0.6945999999999672" fill="#252525" />
<rect x="2.803399999999869" y="0.7045999999999673" width="0.6945999999999672" height="0.6945999999999672" fill="#252525" />
<rect x="0.005" y="1.4041999999999344" width="0.6945999999999672" height="0.6945999999999672" fill="#54D2EB" />
<rect x="0.7045999999999673" y="1.4041999999999344" width="0.6945999999999672" height="0.6945999999999672" fill="#252525" />
<rect x="1.4041999999999344" y="1.4041999999999344" width="0.6945999999999672" height="0.6945999999999672" fill="#FF871E" />
<rect x="2.1037999999999015" y="1.4041999999999344" width="0.6945999999999672" height="0.6945999999999672" fill="#252525" />
<rect x="2.803399999999869" y="1.4041999999999344" width="0.6945999999999672" height="0.6945999999999672" fill="#252525" />
<rect x="-0.02666666666666667" y="-0.02666666666666667" width="3.5513333333331696" height="2.152133333333235" fill="none" stroke="#111111ff" stroke-width="0.08" />
<text x="3.4979999999998364" y="2.5675499999999016" font-size="0.375" fill="black" text-anchor="end" font-family="Anuphan">5x3</text>
<text x="-0.037500000000000006" y="2.5675499999999016" font-size="0.375" fill="black" text-anchor="start" font-family="Anuphan" font-weight="600">Output 1</text>
</g>
<g id="d6">
<rect x="0.005" y="0.005" width="0.6945999999999672" height="0.6945999999999672" fill="#252525" />
<rect x="0.7045999999999673" y="0.005" width="0.6945999999999672" height="0.6945999999999672" fill="#252525" />
<rect x="1.4041999999999344" y="0.005" width="0.6945999999999672" height="0.6945999999999672" fill="#252525" />
<rect x="2.1037999999999015" y="0.005" width="0.6945999999999672" height="0.6945999999999672" fill="#252525" />
<rect x="2.803399999999869" y="0.005" width="0.6945999999999672" height="0.6945999999999672" fill="#252525" />
<rect x="0.005" y="0.7045999999999673" width="0.6945999999999672" height="0.6945999999999672" fill="#252525" />
<rect x="0.7045999999999673" y="0.7045999999999673" width="0.6945999999999672" height="0.6945999999999672" fill="#252525" />
<rect x="1.4041999999999344" y="0.7045999999999673" width="0.6945999999999672" height="0.6945999999999672" fill="#252525" />
<rect x="2.1037999999999015" y="0.7045999999999673" width="0.6945999999999672" height="0.6945999999999672" fill="#37D449" />
<rect x="2.803399999999869" y="0.7045999999999673" width="0.6945999999999672" height="0.6945999999999672" fill="#252525" />
<rect x="0.005" y="1.4041999999999344" width="0.6945999999999672" height="0.6945999999999672" fill="#252525" />
<rect x="0.7045999999999673" y="1.4041999999999344" width="0.6945999999999672" height="0.6945999999999672" fill="#252525" />
<rect x="1.4041999999999344" y="1.4041999999999344" width="0.6945999999999672" height="0.6945999999999672" fill="#252525" />
<rect x="2.1037999999999015" y="1.4041999999999344" width="0.6945999999999672" height="0.6945999999999672" fill="#252525" />
<rect x="2.803399999999869" y="1.4041999999999344" width="0.6945999999999672" height="0.6945999999999672" fill="#252525" />
<rect x="-0.02666666666666667" y="-0.02666666666666667" width="3.5513333333331696" height="2.152133333333235" fill="none" stroke="#111111ff" stroke-width="0.08" />
<text x="3.4979999999998364" y="2.5675499999999016" font-size="0.375" fill="black" text-anchor="end" font-family="Anuphan">5x3</text>
<text x="-0.037500000000000006" y="2.5675499999999016" font-size="0.375" fill="black" text-anchor="start" font-family="Anuphan" font-weight="600">Output 2</text>
</g>
<g id="d7">
<rect x="0.005" y="0.005" width="0.6945999999999672" height="0.6945999999999672" fill="#252525" />
<rect x="0.7045999999999673" y="0.005" width="0.6945999999999672" height="0.6945999999999672" fill="#252525" />
<rect x="1.4041999999999344" y="0.005" width="0.6945999999999672" height="0.6945999999999672" fill="#252525" />
<rect x="2.1037999999999015" y="0.005" width="0.6945999999999672" height="0.6945999999999672" fill="#252525" />
<rect x="2.803399999999869" y="0.005" width="0.6945999999999672" height="0.6945999999999672" fill="#252525" />
<rect x="0.005" y="0.7045999999999673" width="0.6945999999999672" height="0.6945999999999672" fill="#252525" />
<rect x="0.7045999999999673" y="0.7045999999999673" width="0.6945999999999672" height="0.6945999999999672" fill="#54D2EB" />
<rect x="1.4041999999999344" y="0.7045999999999673" width="0.6945999999999672" height="0.6945999999999672" fill="#252525" />
<rect x="2.1037999999999015" y="0.7045999999999673" width="0.6945999999999672" height="0.6945999999999672" fill="#FF871E" />
<rect x="2.803399999999869" y="0.7045999999999673" width="0.6945999999999672" height="0.6945999999999672" fill="#252525" />
<rect x="0.005" y="1.4041999999999344" width="0.6945999999999672" height="0.6945999999999672" fill="#252525" />
<rect x="0.7045999999999673" y="1.4041999999999344" width="0.6945999999999672" height="0.6945999999999672" fill="#252525" />
<rect x="1.4041999999999344" y="1.4041999999999344" width="0.6945999999999672" height="0.6945999999999672" fill="#252525" />
<rect x="2.1037999999999015" y="1.4041999999999344" width="0.6945999999999672" height="0.6945999999999672" fill="#252525" />
<rect x="2.803399999999869" y="1.4041999999999344" width="0.6945999999999672" height="0.6945999999999672" fill="#252525" />
<rect x="-0.02666666666666667" y="-0.02666666666666667" width="3.5513333333331696" height="2.152133333333235" fill="none" stroke="#111111ff" stroke-width="0.08" />
<text x="3.4979999999998364" y="2.5675499999999016" font-size="0.375" fill="black" text-anchor="end" font-family="Anuphan">5x3</text>
<text x="-0.037500000000000006" y="2.5675499999999016" font-size="0.375" fill="black" text-anchor="start" font-family="Anuphan" font-weight="600">Output 3</text>
</g>
<g id="d8">
<rect x="0.005" y="0.005" width="0.6945999999999672" height="0.6945999999999672" fill="#252525" />
<rect x="0.7045999999999673" y="0.005" width="0.6945999999999672" height="0.6945999999999672" fill="#252525" />
<rect x="1.4041999999999344" y="0.005" width="0.6945999999999672" height="0.6945999999999672" fill="#37D449" />
<rect x="2.1037999999999015" y="0.005" width="0.6945999999999672" height="0.6945999999999672" fill="#252525" />
<rect x="2.803399999999869" y="0.005" width="0.6945999999999672" height="0.6945999999999672" fill="#F012BE" />
<rect x="0.005" y="0.7045999999999673" width="0.6945999999999672" height="0.6945999999999672" fill="#252525" />
<rect x="0.7045999999999673" y="0.7045999999999673" width="0.6945999999999672" height="0.6945999999999672" fill="#252525" />
<rect x="1.4041999999999344" y="0.7045999999999673" width="0.6945999999999672" height="0.6945999999999672" fill="#252525" />
<rect x="2.1037999999999015" y="0.7045999999999673" width="0.6945999999999672" height="0.6945999999999672" fill="#252525" />
<rect x="2.803399999999869" y="0.7045999999999673" width="0.6945999999999672" height="0.6945999999999672" fill="#252525" />
<rect x="0.005" y="1.4041999999999344" width="0.6945999999999672" height="0.6945999999999672" fill="#252525" />
<rect x="0.7045999999999673" y="1.4041999999999344" width="0.6945999999999672" height="0.6945999999999672" fill="#252525" />
<rect x="1.4041999999999344" y="1.4041999999999344" width="0.6945999999999672" height="0.6945999999999672" fill="#54D2EB" />
<rect x="2.1037999999999015" y="1.4041999999999344" width="0.6945999999999672" height="0.6945999999999672" fill="#252525" />
<rect x="2.803399999999869" y="1.4041999999999344" width="0.6945999999999672" height="0.6945999999999672" fill="#FF871E" />
<rect x="-0.02666666666666667" y="-0.02666666666666667" width="3.5513333333331696" height="2.152133333333235" fill="none" stroke="#111111ff" stroke-width="0.08" />
<text x="3.4979999999998364" y="2.5675499999999016" font-size="0.375" fill="black" text-anchor="end" font-family="Anuphan">5x3</text>
<text x="-0.037500000000000006" y="2.5675499999999016" font-size="0.375" fill="black" text-anchor="start" font-family="Anuphan" font-weight="600">Output 4</text>
</g>
</defs>
<rect x="0" y="0" width="100%" height="100%" fill="#eeeff6" />
<use xlink:href="#d0" x="0.25" y="0.25" />
<use xlink:href="#d1" x="4.247999999999836" y="0.25" />
<use xlink:href="#d2" x="8.245999999999672" y="0.25" />
<use xlink:href="#d3" x="12.24399999999951" y="0.25" />
<use xlink:href="#d4" x="16.241999999999344" y="0.25" />
<path d="M1.9989999999999182,2.9987999999999015 L1.9989999999999182,3.3987999999999015" stroke-width="0.05" stroke="#888888" />
<path d="M1.8489999999999183,3.1987999999999017 L1.9989999999999182,3.3987999999999015" stroke-width="0.05" stroke="#888888" />
<path d="M2.1489999999999183,3.1987999999999017 L1.9989999999999182,3.3987999999999015" stroke-width="0.05" stroke="#888888" />
<use xlink:href="#d5" x="0.25" y="3.7487999999999015" />
<path d="M5.996999999999755,2.9987999999999015 L5.996999999999755,3.3987999999999015" stroke-width="0.05" stroke="#888888" />
<path d="M5.846999999999754,3.1987999999999017 L5.996999999999755,3.3987999999999015" stroke-width="0.05" stroke="#888888" />
<path d="M6.146999999999755,3.1987999999999017 L5.996999999999755,3.3987999999999015" stroke-width="0.05" stroke="#888888" />
<use xlink:href="#d6" x="4.247999999999836" y="3.7487999999999015" />
<path d="M9.99499999999959,2.9987999999999015 L9.99499999999959,3.3987999999999015" stroke-width="0.05" stroke="#888888" />
<path d="M9.84499999999959,3.1987999999999017 L9.99499999999959,3.3987999999999015" stroke-width="0.05" stroke="#888888" />
<path d="M10.144999999999591,3.1987999999999017 L9.99499999999959,3.3987999999999015" stroke-width="0.05" stroke="#888888" />
<use xlink:href="#d7" x="8.245999999999672" y="3.7487999999999015" />
<path d="M13.992999999999428,2.9987999999999015 L13.992999999999428,3.3987999999999015" stroke-width="0.05" stroke="#888888" />
<path d="M13.842999999999428,3.1987999999999017 L13.992999999999428,3.3987999999999015" stroke-width="0.05" stroke="#888888" />
<path d="M14.142999999999429,3.1987999999999017 L13.992999999999428,3.3987999999999015" stroke-width="0.05" stroke="#888888" />
<use xlink:href="#d8" x="12.24399999999951" y="3.7487999999999015" />
<path d="M17.990999999999264,2.9987999999999015 L17.990999999999264,3.3987999999999015" stroke-width="0.05" stroke="#888888" />
<path d="M17.840999999999266,3.1987999999999017 L17.990999999999264,3.3987999999999015" stroke-width="0.05" stroke="#888888" />
<path d="M18.140999999999263,3.1987999999999017 L17.990999999999264,3.3987999999999015" stroke-width="0.05" stroke="#888888" />
<text x="17.990999999999264" y="4.898199999999853" font-size="1" font-family="Anuphan" font-weight="700" fill="#333333" text-anchor="middle" alignment-baseline="middle">?</text>
<text x="19.9" y="6.699999999999999" font-size="0.3" font-family="Anuphan" font-weight="600" fill="#666666" text-anchor="end" alignment-baseline="bottom">Task a9f96cdd</text>
</svg>