<?xml version="1.0" encoding="UTF-8"?>
<svg xmlns="http://www.w3.org/2000/svg" xmlns:xlink="http://www.w3.org/1999/xlink"
     width="800.0" height="536.0" viewBox="0 0 20.0 13.399999999999999">
<defs>
<g id="d0">
<rect x="0.005" y="0.005" width="0.4864166666666525" height="0.4864166666666525" fill="#252525" />
<rect x="0.4964166666666525" y="0.005" width="0.4864166666666525" height="0.4864166666666525" fill="#252525" />
<rect x="0.987833333333305" y="0.005" width="0.4864166666666525" height="0.4864166666666525" fill="#252525" />
<rect x="1.4792499999999573" y="0.005" width="0.4864166666666525" height="0.4864166666666525" fill="#252525" />
<rect x="1.97066666666661" y="0.005" width="0.4864166666666525" height="0.4864166666666525" fill="#252525" />
<rect x="2.4620833333332626" y="0.005" width="0.4864166666666525" height="0.4864166666666525" fill="#252525" />
<rect x="2.9534999999999147" y="0.005" width="0.4864166666666525" height="0.4864166666666525" fill="#252525" />
<rect x="3.4449166666665674" y="0.005" width="0.4864166666666525" height="0.4864166666666525" fill="#252525" />
<rect x="3.93633333333322" y="0.005" width="0.4864166666666525" height="0.4864166666666525" fill="#252525" />
<rect x="4.427749999999873" y="0.005" width="0.4864166666666525" height="0.4864166666666525" fill="#252525" />
<rect x="0.005" y="0.4964166666666525" width="0.4864166666666525" height="0.4864166666666525" fill="#252525" />
<rect x="0.4964166666666525" y="0.4964166666666525" width="0.4864166666666525" height="0.4864166666666525" fill="#252525" />
<rect x="0.987833333333305" y="0.4964166666666525" width="0.4864166666666525" height="0.4864166666666525" fill="#252525" />
<rect x="1.4792499999999573" y="0.4964166666666525" width="0.4864166666666525" height="0.4864166666666525" fill="#252525" />
<rect x="1.97066666666661" y="0.4964166666666525" width="0.4864166666666525" height="0.4864166666666525" fill="#252525" />
<rect x="2.4620833333332626" y="0.4964166666666525" width="0.4864166666666525" height="0.4864166666666525" fill="#252525" />
<rect x="2.9534999999999147" y="0.4964166666666525" width="0.4864166666666525" height="0.4864166666666525" fill="#252525" />
<rect x="3.4449166666665674" y="0.4964166666666525" width="0.4864166666666525" height="0.4864166666666525" fill="#252525" />
<rect x="3.93633333333322" y="0.4964166666666525" width="0.4864166666666525" height="0.4864166666666525" fill="#252525" />
<rect x="4.427749999999873" y="0.4964166666666525" width="0.4864166666666525" height="0.4864166666666525" fill="#252525" />
<rect x="0.005" y="0.987833333333305" width="0.4864166666666525" height="0.4864166666666525" fill="#252525" />
<rect x="0.4964166666666525" y="0.987833333333305" width="0.4864166666666525" height="0.4864166666666525" fill="#252525" />
<rect x="0.987833333333305" y="0.987833333333305" width="0.4864166666666525" height="0.4864166666666525" fill="#252525" />
<rect x="1.4792499999999573" y="0.987833333333305" width="0.4864166666666525" height="0.4864166666666525" fill="#252525" />
<rect x="1.97066666666661" y="0.987833333333305" width="0.4864166666666525" height="0.4864166666666525" fill="#252525" />
<rect x="2.4620833333332626" y="0.987833333333305" width="0.4864166666666525" height="0.4864166666666525" fill="#252525" />
<rect x="2.9534999999999147" y="0.987833333333305" width="0.4864166666666525" height="0.4864166666666525" fill="#252525" />
<rect x="3.4449166666665674" y="0.987833333333305" width="0.4864166666666525" height="0.4864166666666525" fill="#252525" />
<rect x="3.93633333333322" y="0.987833333333305" width="0.4864166666666525" height="0.4864166666666525" fill="#252525" />
<rect x="4.427749999999873" y="0.987833333333305" width="0.4864166666666525" height="0.4864166666666525" fill="#252525" />
<rect x="0.005" y="1.4792499999999573" width="0.4864166666666525" height="0.4864166666666525" fill="#252525" />
<rect x="0.4964166666666525" y="1.4792499999999573" width="0.4864166666666525" height="0.4864166666666525" fill="#252525" />
<rect x="0.987833333333305" y="1.4792499999999573" width="0.4864166666666525" height="0.4864166666666525" fill="#252525" />
<rect x="1.4792499999999573" y="1.4792499999999573" width="0.4864166666666525" height="0.4864166666666525" fill="#252525" />
<rect x="1.97066666666661" y="1.4792499999999573" width="0.4864166666666525" height="0.4864166666666525" fill="#252525" />
<rect x="2.4620833333332626" y="1.4792499999999573" width="0.4864166666666525" height="0.4864166666666525" fill="#252525" />
<rect x="2.9534999999999147" y="1.4792499999999573" width="0.4864166666666525" height="0.4864166666666525" fill="#252525" />
<rect x="3.4449166666665674" y="1.4792499999999573" width="0.4864166666666525" height="0.4864166666666525" fill="#252525" />
<rect x="3.93633333333322" y="1.4792499999999573" width="0.4864166666666525" height="0.4864166666666525" fill="#252525" />
<rect x="4.427749999999873" y="1.4792499999999573" width="0.4864166666666525" height="0.4864166666666525" fill="#252525" />
<rect x="0.005" y="1.97066666666661" width="0.4864166666666525" height="0.4864166666666525" fill="#252525" />
<rect x="0.4964166666666525" y="1.97066666666661" width="0.4864166666666525" height="0.4864166666666525" fill="#0074D9" />
<rect x="0.987833333333305" y="1.97066666666661" width="0.4864166666666525" height="0.4864166666666525" fill="#252525" />
<rect x="1.4792499999999573" y="1.97066666666661" width="0.4864166666666525" height="0.4864166666666525" fill="#252525" />
<rect x="1.97066666666661" y="1.97066666666661" width="0.4864166666666525" height="0.4864166666666525" fill="#252525" />
<rect x="2.4620833333332626" y="1.97066666666661" width="0.4864166666666525" height="0.4864166666666525" fill="#252525" />
<rect x="2.9534999999999147" y="1.97066666666661" width="0.4864166666666525" height="0.4864166666666525" fill="#252525" />
<rect x="3.4449166666665674" y="1.97066666666661" width="0.4864166666666525" height="0.4864166666666525" fill="#0074D9" />
<rect x="3.93633333333322" y="1.97066666666661" width="0.4864166666666525" height="0.4864166666666525" fill="#252525" />
<rect x="4.427749999999873" y="1.97066666666661" width="0.4864166666666525" height="0.4864166666666525" fill="#252525" />
<rect x="0.005" y="2.4620833333332626" width="0.4864166666666525" height="0.4864166666666525" fill="#252525" />
<rect x="0.4964166666666525" y="2.4620833333332626" width="0.4864166666666525" height="0.4864166666666525" fill="#252525" />
<rect x="0.987833333333305" y="2.4620833333332626" width="0.4864166666666525" height="0.4864166666666525" fill="#252525" />
<rect x="1.4792499999999573" y="2.4620833333332626" width="0.4864166666666525" height="0.4864166666666525" fill="#252525" />
<rect x="1.97066666666661" y="2.4620833333332626" width="0.4864166666666525" height="0.4864166666666525" fill="#252525" />
<rect x="2.4620833333332626" y="2.4620833333332626" width="0.4864166666666525" height="0.4864166666666525" fill="#252525" />
<rect x="2.9534999999999147" y="2.4620833333332626" width="0.4864166666666525" height="0.4864166666666525" fill="#252525" />
<rect x="3.4449166666665674" y="2.4620833333332626" width="0.4864166666666525" height="0.4864166666666525" fill="#252525" />
<rect x="3.93633333333322" y="2.4620833333332626" width="0.4864166666666525" height="0.4864166666666525" fill="#252525" />
<rect x="4.427749999999873" y="2.4620833333332626" width="0.4864166666666525" height="0.4864166666666525" fill="#252525" />
<rect x="0.005" y="2.9534999999999147" width="0.4864166666666525" height="0.4864166666666525" fill="#252525" />
<rect x="0.4964166666666525" y="2.9534999999999147" width="0.4864166666666525" height="0.4864166666666525" fill="#252525" />
<rect x="0.987833333333305" y="2.9534999999999147" width="0.4864166666666525" height="0.4864166666666525" fill="#252525" />
<rect x="1.4792499999999573" y="2.9534999999999147" width="0.4864166666666525" height="0.4864166666666525" fill="#252525" />
<rect x="1.97066666666661" y="2.9534999999999147" width="0.4864166666666525" height="0.4864166666666525" fill="#252525" />
<rect x="2.4620833333332626" y="2.9534999999999147" width="0.4864166666666525" height="0.4864166666666525" fill="#252525" />
<rect x="2.9534999999999147" y="2.9534999999999147" width="0.4864166666666525" height="0.4864166666666525" fill="#252525" />
<rect x="3.4449166666665674" y="2.9534999999999147" width="0.4864166666666525" height="0.4864166666666525" fill="#252525" />
<rect x="3.93633333333322" y="2.9534999999999147" width="0.4864166666666525" height="0.4864166666666525" fill="#252525" />
<rect x="4.427749999999873" y="2.9534999999999147" width="0.4864166666666525" height="0.4864166666666525" fill="#252525" />
<rect x="0.005" y="3.4449166666665674" width="0.4864166666666525" height="0.4864166666666525" fill="#252525" />
<rect x="0.4964166666666525" y="3.4449166666665674" width="0.4864166666666525" height="0.4864166666666525" fill="#252525" />
<rect x="0.987833333333305" y="3.4449166666665674" width="0.4864166666666525" height="0.4864166666666525" fill="#252525" />
<rect x="1.4792499999999573" y="3.4449166666665674" width="0.4864166666666525" height="0.4864166666666525" fill="#252525" />
<rect x="1.97066666666661" y="3.4449166666665674" width="0.4864166666666525" height="0.4864166666666525" fill="#252525" />
<rect x="2.4620833333332626" y="3.4449166666665674" width="0.4864166666666525" height="0.4864166666666525" fill="#252525" />
<rect x="2.9534999999999147" y="3.4449166666665674" width="0.4864166666666525" height="0.4864166666666525" fill="#252525" />
<rect x="3.4449166666665674" y="3.4449166666665674" width="0.4864166666666525" height="0.4864166666666525" fill="#252525" />
<rect x="3.93633333333322" y="3.4449166666665674" width="0.4864166666666525" height="0.4864166666666525" fill="#252525" />
<rect x="4.427749999999873" y="3.4449166666665674" width="0.4864166666666525" height="0.4864166666666525" fill="#252525" />
<rect x="0.005" y="3.93633333333322" width="0.4864166666666525" height="0.4864166666666525" fill="#252525" />
<rect x="0.4964166666666525" y="3.93633333333322" width="0.4864166666666525" height="0.4864166666666525" fill="#252525" />
<rect x="0.987833333333305" y="3.93633333333322" width="0.4864166666666525" height="0.4864166666666525" fill="#252525" />
<rect x="1.4792499999999573" y="3.93633333333322" width="0.4864166666666525" height="0.4864166666666525" fill="#252525" />
<rect x="1.97066666666661" y="3.93633333333322" width="0.4864166666666525" height="0.4864166666666525" fill="#252525" />
<rect x="2.4620833333332626" y="3.93633333333322" width="0.4864166666666525" height="0.4864166666666525" fill="#252525" />
<rect x="2.9534999999999147" y="3.93633333333322" width="0.4864166666666525" height="0.4864166666666525" fill="#252525" />
<rect x="3.4449166666665674" y="3.93633333333322" width="0.4864166666666525" height="0.4864166666666525" fill="#252525" />
<rect x="3.93633333333322" y="3.93633333333322" width="0.4864166666666525" height="0.4864166666666525" fill="#252525" />
<rect x="4.427749999999873" y="3.93633333333322" width="0.4864166666666525" height="0.4864166666666525" fill="#252525" />
<rect x="0.005" y="4.427749999999873" width="0.4864166666666525" height="0.4864166666666525" fill="#252525" />
<rect x="0.4964166666666525" y="4.427749999999873" width="0.4864166666666525" height="0.4864166666666525" fill="#252525" />
<rect x="0.987833333333305" y="4.427749999999873" width="0.4864166666666525" height="0.4864166666666525" fill="#252525" />
<rect x="1.4792499999999573" y="4.427749999999873" width="0.4864166666666525" height="0.4864166666666525" fill="#252525" />
<rect x="1.97066666666661" y="4.427749999999873" width="0.4864166666666525" height="0.4864166666666525" fill="#252525" />
<rect x="2.4620833333332626" y="4.427749999999873" width="0.4864166666666525" height="0.4864166666666525" fill="#252525" />
<rect x="2.9534999999999147" y="4.427749999999873" width="0.4864166666666525" height="0.4864166666666525" fill="#252525" />
<rect x="3.4449166666665674" y="4.427749999999873" width="0.4864166666666525" height="0.4864166666666525" fill="#252525" />
<rect x="3.93633333333322" y="4.427749999999873" width="0.4864166666666525" height="0.4864166666666525" fill="#252525" />
<rect x="4.427749999999873" y="4.427749999999873" width="0.4864166666666525" height="0.4864166666666525" fill="#252525" />
<rect x="-0.02666666666666667" y="-0.02666666666666667" width="4.967499999999859" height="4.967499999999859" fill="none" stroke="#111111ff" stroke-width="0.08" />
<text x="4.914166666666525" y="5.382916666666525" font-size="0.375" fill="black" text-anchor="end" font-family="Anuphan">10x10</text>
<text x="-0.037500000000000006" y="5.382916666666525" font-size="0.375" fill="black" text-anchor="start" font-family="Anuphan" font-weight="600">Input 1</text>
</g>
<g id="d1">
<rect x="0.005" y="0.005" width="0.4864166666666525" height="0.4864166666666525" fill="#252525" />
<rect x="0.4964166666666525" y="0.005" width="0.4864166666666525" height="0.4864166666666525" fill="#252525" />
<rect x="0.987833333333305" y="0.005" width="0.4864166666666525" height="0.4864166666666525" fill="#252525" />
<rect x="1.4792499999999573" y="0.005" width="0.4864166666666525" height="0.4864166666666525" fill="#0074D9" />
<rect x="1.97066666666661" y="0.005" width="0.4864166666666525" height="0.4864166666666525" fill="#252525" />
<rect x="2.4620833333332626" y="0.005" width="0.4864166666666525" height="0.4864166666666525" fill="#252525" />
<rect x="2.9534999999999147" y="0.005" width="0.4864166666666525" height="0.4864166666666525" fill="#252525" />
<rect x="3.4449166666665674" y="0.005" width="0.4864166666666525" height="0.4864166666666525" fill="#252525" />
<rect x="3.93633333333322" y="0.005" width="0.4864166666666525" height="0.4864166666666525" fill="#252525" />
<rect x="4.427749999999873" y="0.005" width="0.4864166666666525" height="0.4864166666666525" fill="#252525" />
<rect x="0.005" y="0.4964166666666525" width="0.4864166666666525" height="0.4864166666666525" fill="#252525" />
<rect x="0.4964166666666525" y="0.4964166666666525" width="0.4864166666666525" height="0.4864166666666525" fill="#252525" />
<rect x="0.987833333333305" y="0.4964166666666525" width="0.4864166666666525" height="0.4864166666666525" fill="#252525" />
<rect x="1.4792499999999573" y="0.4964166666666525" width="0.4864166666666525" height="0.4864166666666525" fill="#252525" />
<rect x="1.97066666666661" y="0.4964166666666525" width="0.4864166666666525" height="0.4864166666666525" fill="#252525" />
<rect x="2.4620833333332626" y="0.4964166666666525" width="0.4864166666666525" height="0.4864166666666525" fill="#252525" />
<rect x="2.9534999999999147" y="0.4964166666666525" width="0.4864166666666525" height="0.4864166666666525" fill="#252525" />
<rect x="3.4449166666665674" y="0.4964166666666525" width="0.4864166666666525" height="0.4864166666666525" fill="#252525" />
<rect x="3.93633333333322" y="0.4964166666666525" width="0.4864166666666525" height="0.4864166666666525" fill="#252525" />
<rect x="4.427749999999873" y="0.4964166666666525" width="0.4864166666666525" height="0.4864166666666525" fill="#252525" />
<rect x="0.005" y="0.987833333333305" width="0.4864166666666525" height="0.4864166666666525" fill="#252525" />
<rect x="0.4964166666666525" y="0.987833333333305" width="0.4864166666666525" height="0.4864166666666525" fill="#252525" />
<rect x="0.987833333333305" y="0.987833333333305" width="0.4864166666666525" height="0.4864166666666525" fill="#252525" />
<rect x="1.4792499999999573" y="0.987833333333305" width="0.4864166666666525" height="0.4864166666666525" fill="#252525" />
<rect x="1.97066666666661" y="0.987833333333305" width="0.4864166666666525" height="0.4864166666666525" fill="#252525" />
<rect x="2.4620833333332626" y="0.987833333333305" width="0.4864166666666525" height="0.4864166666666525" fill="#252525" />
<rect x="2.9534999999999147" y="0.987833333333305" width="0.4864166666666525" height="0.4864166666666525" fill="#252525" />
<rect x="3.4449166666665674" y="0.987833333333305" width="0.4864166666666525" height="0.4864166666666525" fill="#252525" />
<rect x="3.93633333333322" y="0.987833333333305" width="0.4864166666666525" height="0.4864166666666525" fill="#252525" />
<rect x="4.427749999999873" y="0.987833333333305" width="0.4864166666666525" height="0.4864166666666525" fill="#252525" />
<rect x="0.005" y="1.4792499999999573" width="0.4864166666666525" height="0.4864166666666525" fill="#252525" />
<rect x="0.4964166666666525" y="1.4792499999999573" width="0.4864166666666525" height="0.4864166666666525" fill="#252525" />
<rect x="0.987833333333305" y="1.4792499999999573" width="0.4864166666666525" height="0.4864166666666525" fill="#252525" />
<rect x="1.4792499999999573" y="1.4792499999999573" width="0.4864166666666525" height="0.4864166666666525" fill="#252525" />
<rect x="1.97066666666661" y="1.4792499999999573" width="0.4864166666666525" height="0.4864166666666525" fill="#252525" />
<rect x="2.4620833333332626" y="1.4792499999999573" width="0.4864166666666525" height="0.4864166666666525" fill="#252525" />
<rect x="2.9534999999999147" y="1.4792499999999573" width="0.4864166666666525" height="0.4864166666666525" fill="#252525" />
<rect x="3.4449166666665674" y="1.4792499999999573" width="0.4864166666666525" height="0.4864166666666525" fill="#252525" />
<rect x="3.93633333333322" y="1.4792499999999573" width="0.4864166666666525" height="0.4864166666666525" fill="#252525" />
<rect x="4.427749999999873" y="1.4792499999999573" width="0.4864166666666525" height="0.4864166666666525" fill="#252525" />
<rect x="0.005" y="1.97066666666661" width="0.4864166666666525" height="0.4864166666666525" fill="#252525" />
<rect x="0.4964166666666525" y="1.97066666666661" width="0.4864166666666525" height="0.4864166666666525" fill="#252525" />
<rect x="0.987833333333305" y="1.97066666666661" width="0.4864166666666525" height="0.4864166666666525" fill="#252525" />
<rect x="1.4792499999999573" y="1.97066666666661" width="0.4864166666666525" height="0.4864166666666525" fill="#252525" />
<rect x="1.97066666666661" y="1.97066666666661" width="0.4864166666666525" height="0.4864166666666525" fill="#252525" />
<rect x="2.4620833333332626" y="1.97066666666661" width="0.4864166666666525" height="0.4864166666666525" fill="#252525" />
<rect x="2.9534999999999147" y="1.97066666666661" width="0.4864166666666525" height="0.4864166666666525" fill="#252525" />
<rect x="3.4449166666665674" y="1.97066666666661" width="0.4864166666666525" height="0.4864166666666525" fill="#252525" />
<rect x="3.93633333333322" y="1.97066666666661" width="0.4864166666666525" height="0.4864166666666525" fill="#252525" />
<rect x="4.427749999999873" y="1.97066666666661" width="0.4864166666666525" height="0.4864166666666525" fill="#252525" />
<rect x="0.005" y="2.4620833333332626" width="0.4864166666666525" height="0.4864166666666525" fill="#252525" />
<rect x="0.4964166666666525" y="2.4620833333332626" width="0.4864166666666525" height="0.4864166666666525" fill="#252525" />
<rect x="0.987833333333305" y="2.4620833333332626" width="0.4864166666666525" height="0.4864166666666525" fill="#252525" />
<rect x="1.4792499999999573" y="2.4620833333332626" width="0.4864166666666525" height="0.4864166666666525" fill="#252525" />
<rect x="1.97066666666661" y="2.4620833333332626" width="0.4864166666666525" height="0.4864166666666525" fill="#252525" />
<rect x="2.4620833333332626" y="2.4620833333332626" width="0.4864166666666525" height="0.4864166666666525" fill="#252525" />
<rect x="2.9534999999999147" y="2.4620833333332626" width="0.4864166666666525" height="0.4864166666666525" fill="#252525" />
<rect x="3.4449166666665674" y="2.4620833333332626" width="0.4864166666666525" height="0.4864166666666525" fill="#252525" />
<rect x="3.93633333333322" y="2.4620833333332626" width="0.4864166666666525" height="0.4864166666666525" fill="#252525" />
<rect x="4.427749999999873" y="2.4620833333332626" width="0.4864166666666525" height="0.4864166666666525" fill="#252525" />
<rect x="0.005" y="2.9534999999999147" width="0.4864166666666525" height="0.4864166666666525" fill="#252525" />
<rect x="0.4964166666666525" y="2.9534999999999147" width="0.4864166666666525" height="0.4864166666666525" fill="#252525" />
<rect x="0.987833333333305" y="2.9534999999999147" width="0.4864166666666525" height="0.4864166666666525" fill="#252525" />
<rect x="1.4792499999999573" y="2.9534999999999147" width="0.4864166666666525" height="0.4864166666666525" fill="#252525" />
<rect x="1.97066666666661" y="2.9534999999999147" width="0.4864166666666525" height="0.4864166666666525" fill="#252525" />
<rect x="2.4620833333332626" y="2.9534999999999147" width="0.4864166666666525" height="0.4864166666666525" fill="#252525" />
<rect x="2.9534999999999147" y="2.9534999999999147" width="0.4864166666666525" height="0.4864166666666525" fill="#252525" />
<rect x="3.4449166666665674" y="2.9534999999999147" width="0.4864166666666525" height="0.4864166666666525" fill="#252525" />
<rect x="3.93633333333322" y="2.9534999999999147" width="0.4864166666666525" height="0.4864166666666525" fill="#252525" />
<rect x="4.427749999999873" y="2.9534999999999147" width="0.4864166666666525" height="0.4864166666666525" fill="#252525" />
<rect x="0.005" y="3.4449166666665674" width="0.4864166666666525" height="0.4864166666666525" fill="#252525" />
<rect x="0.4964166666666525" y="3.4449166666665674" width="0.4864166666666525" height="0.4864166666666525" fill="#252525" />
<rect x="0.987833333333305" y="3.4449166666665674" width="0.4864166666666525" height="0.4864166666666525" fill="#252525" />
<rect x="1.4792499999999573" y="3.4449166666665674" width="0.4864166666666525" height="0.4864166666666525" fill="#252525" />
<rect x="1.97066666666661" y="3.4449166666665674" width="0.4864166666666525" height="0.4864166666666525" fill="#252525" />
<rect x="2.4620833333332626" y="3.4449166666665674" width="0.4864166666666525" height="0.4864166666666525" fill="#252525" />
<rect x="2.9534999999999147" y="3.4449166666665674" width="0.4864166666666525" height="0.4864166666666525" fill="#252525" />
<rect x="3.4449166666665674" y="3.4449166666665674" width="0.4864166666666525" height="0.4864166666666525" fill="#252525" />
<rect x="3.93633333333322" y="3.4449166666665674" width="0.4864166666666525" height="0.4864166666666525" fill="#252525" />
<rect x="4.427749999999873" y="3.4449166666665674" width="0.4864166666666525" height="0.4864166666666525" fill="#252525" />
<rect x="0.005" y="3.93633333333322" width="0.4864166666666525" height="0.4864166666666525" fill="#252525" />
<rect x="0.4964166666666525" y="3.93633333333322" width="0.4864166666666525" height="0.4864166666666525" fill="#252525" />
<rect x="0.987833333333305" y="3.93633333333322" width="0.4864166666666525" height="0.4864166666666525" fill="#252525" />
<rect x="1.4792499999999573" y="3.93633333333322" width="0.4864166666666525" height="0.4864166666666525" fill="#0074D9" />
<rect x="1.97066666666661" y="3.93633333333322" width="0.4864166666666525" height="0.4864166666666525" fill="#252525" />
<rect x="2.4620833333332626" y="3.93633333333322" width="0.4864166666666525" height="0.4864166666666525" fill="#252525" />
<rect x="2.9534999999999147" y="3.93633333333322" width="0.4864166666666525" height="0.4864166666666525" fill="#252525" />
<rect x="3.4449166666665674" y="3.93633333333322" width="0.4864166666666525" height="0.4864166666666525" fill="#252525" />
<rect x="3.93633333333322" y="3.93633333333322" width="0.4864166666666525" height="0.4864166666666525" fill="#252525" />
<rect x="4.427749999999873" y="3.93633333333322" width="0.4864166666666525" height="0.4864166666666525" fill="#252525" />
<rect x="0.005" y="4.427749999999873" width="0.4864166666666525" height="0.4864166666666525" fill="#252525" />
<rect x="0.4964166666666525" y="4.427749999999873" width="0.4864166666666525" height="0.4864166666666525" fill="#252525" />
<rect x="0.987833333333305" y="4.427749999999873" width="0.4864166666666525" height="0.4864166666666525" fill="#252525" />
<rect x="1.4792499999999573" y="4.427749999999873" width="0.4864166666666525" height="0.4864166666666525" fill="#252525" />
<rect x="1.97066666666661" y="4.427749999999873" width="0.4864166666666525" height="0.4864166666666525" fill="#252525" />
<rect x="2.4620833333332626" y="4.427749999999873" width="0.4864166666666525" height="0.4864166666666525" fill="#252525" />
<rect x="2.9534999999999147" y="4.427749999999873" width="0.4864166666666525" height="0.4864166666666525" fill="#252525" />
<rect x="3.4449166666665674" y="4.427749999999873" width="0.4864166666666525" height="0.4864166666666525" fill="#252525" />
<rect x="3.93633333333322" y="4.427749999999873" width="0.4864166666666525" height="0.4864166666666525" fill="#252525" />
<rect x="4.427749999999873" y="4.427749999999873" width="0.4864166666666525" height="0.4864166666666525" fill="#252525" />
<rect x="-0.02666666666666667" y="-0.02666666666666667" width="4.967499999999859" height="4.967499999999859" fill="none" stroke="#111111ff" stroke-width="0.08" />
<text x="4.914166666666525" y="5.382916666666525" font-size="0.375" fill="black" text-anchor="end" font-family="Anuphan">10x10</text>
<text x="-0.037500000000000006" y="5.382916666666525" font-size="0.375" fill="black" text-anchor="start" font-family="Anuphan" font-weight="600">Input 2</text>
</g>
<g id="d2">
<rect x="0.005" y="0.005" width="0.4045138888888771" height="0.4045138888888771" fill="#252525" />
<rect x="0.41451388888887714" y="0.005" width="0.4045138888888771" height="0.4045138888888771" fill="#252525" />
<rect x="0.8240277777777543" y="0.005" width="0.4045138888888771" height="0.4045138888888771" fill="#252525" />
<rect x="1.2335416666666312" y="0.005" width="0.4045138888888771" height="0.4045138888888771" fill="#252525" />
<rect x="1.6430555555555084" y="0.005" width="0.4045138888888771" height="0.4045138888888771" fill="#252525" />
<rect x="2.0525694444443854" y="0.005" width="0.4045138888888771" height="0.4045138888888771" fill="#252525" />
<rect x="2.4620833333332626" y="0.005" width="0.4045138888888771" height="0.4045138888888771" fill="#252525" />
<rect x="2.8715972222221398" y="0.005" width="0.4045138888888771" height="0.4045138888888771" fill="#252525" />
<rect x="3.281111111111017" y="0.005" width="0.4045138888888771" height="0.4045138888888771" fill="#252525" />
<rect x="3.690624999999894" y="0.005" width="0.4045138888888771" height="0.4045138888888771" fill="#252525" />
<rect x="4.100138888888771" y="0.005" width="0.4045138888888771" height="0.4045138888888771" fill="#252525" />
<rect x="4.5096527777776485" y="0.005" width="0.4045138888888771" height="0.4045138888888771" fill="#252525" />
<rect x="0.005" y="0.41451388888887714" width="0.4045138888888771" height="0.4045138888888771" fill="#252525" />
<rect x="0.41451388888887714" y="0.41451388888887714" width="0.4045138888888771" height="0.4045138888888771" fill="#252525" />
<rect x="0.8240277777777543" y="0.41451388888887714" width="0.4045138888888771" height="0.4045138888888771" fill="#252525" />
<rect x="1.2335416666666312" y="0.41451388888887714" width="0.4045138888888771" height="0.4045138888888771" fill="#252525" />
<rect x="1.6430555555555084" y="0.41451388888887714" width="0.4045138888888771" height="0.4045138888888771" fill="#252525" />
<rect x="2.0525694444443854" y="0.41451388888887714" width="0.4045138888888771" height="0.4045138888888771" fill="#252525" />
<rect x="2.4620833333332626" y="0.41451388888887714" width="0.4045138888888771" height="0.4045138888888771" fill="#252525" />
<rect x="2.8715972222221398" y="0.41451388888887714" width="0.4045138888888771" height="0.4045138888888771" fill="#252525" />
<rect x="3.281111111111017" y="0.41451388888887714" width="0.4045138888888771" height="0.4045138888888771" fill="#252525" />
<rect x="3.690624999999894" y="0.41451388888887714" width="0.4045138888888771" height="0.4045138888888771" fill="#252525" />
<rect x="4.100138888888771" y="0.41451388888887714" width="0.4045138888888771" height="0.4045138888888771" fill="#252525" />
<rect x="4.5096527777776485" y="0.41451388888887714" width="0.4045138888888771" height="0.4045138888888771" fill="#252525" />
<rect x="0.005" y="0.8240277777777543" width="0.4045138888888771" height="0.4045138888888771" fill="#252525" />
<rect x="0.41451388888887714" y="0.8240277777777543" width="0.4045138888888771" height="0.4045138888888771" fill="#252525" />
<rect x="0.8240277777777543" y="0.8240277777777543" width="0.4045138888888771" height="0.4045138888888771" fill="#252525" />
<rect x="1.2335416666666312" y="0.8240277777777543" width="0.4045138888888771" height="0.4045138888888771" fill="#252525" />
<rect x="1.6430555555555084" y="0.8240277777777543" width="0.4045138888888771" height="0.4045138888888771" fill="#252525" />
<rect x="2.0525694444443854" y="0.8240277777777543" width="0.4045138888888771" height="0.4045138888888771" fill="#252525" />
<rect x="2.4620833333332626" y="0.8240277777777543" width="0.4045138888888771" height="0.4045138888888771" fill="#252525" />
<rect x="2.8715972222221398" y="0.8240277777777543" width="0.4045138888888771" height="0.4045138888888771" fill="#252525" />
<rect x="3.281111111111017" y="0.8240277777777543" width="0.4045138888888771" height="0.4045138888888771" fill="#252525" />
<rect x="3.690624999999894" y="0.8240277777777543" width="0.4045138888888771" height="0.4045138888888771" fill="#252525" />
<rect x="4.100138888888771" y="0.8240277777777543" width="0.4045138888888771" height="0.4045138888888771" fill="#252525" />
<rect x="4.5096527777776485" y="0.8240277777777543" width="0.4045138888888771" height="0.4045138888888771" fill="#252525" />
<rect x="0.005" y="1.2335416666666312" width="0.4045138888888771" height="0.4045138888888771" fill="#252525" />
<rect x="0.41451388888887714" y="1.2335416666666312" width="0.4045138888888771" height="0.4045138888888771" fill="#0074D9" />
<rect x="0.8240277777777543" y="1.2335416666666312" width="0.4045138888888771" height="0.4045138888888771" fill="#252525" />
<rect x="1.2335416666666312" y="1.2335416666666312" width="0.4045138888888771" height="0.4045138888888771" fill="#252525" />
<rect x="1.6430555555555084" y="1.2335416666666312" width="0.4045138888888771" height="0.4045138888888771" fill="#252525" />
<rect x="2.0525694444443854" y="1.2335416666666312" width="0.4045138888888771" height="0.4045138888888771" fill="#252525" />
<rect x="2.4620833333332626" y="1.2335416666666312" width="0.4045138888888771" height="0.4045138888888771" fill="#252525" />
<rect x="2.8715972222221398" y="1.2335416666666312" width="0.4045138888888771" height="0.4045138888888771" fill="#252525" />
<rect x="3.281111111111017" y="1.2335416666666312" width="0.4045138888888771" height="0.4045138888888771" fill="#252525" />
<rect x="3.690624999999894" y="1.2335416666666312" width="0.4045138888888771" height="0.4045138888888771" fill="#252525" />
<rect x="4.100138888888771" y="1.2335416666666312" width="0.4045138888888771" height="0.4045138888888771" fill="#252525" />
<rect x="4.5096527777776485" y="1.2335416666666312" width="0.4045138888888771" height="0.4045138888888771" fill="#0074D9" />
<rect x="0.005" y="1.6430555555555084" width="0.4045138888888771" height="0.4045138888888771" fill="#252525" />
<rect x="0.41451388888887714" y="1.6430555555555084" width="0.4045138888888771" height="0.4045138888888771" fill="#252525" />
<rect x="0.8240277777777543" y="1.6430555555555084" width="0.4045138888888771" height="0.4045138888888771" fill="#252525" />
<rect x="1.2335416666666312" y="1.6430555555555084" width="0.4045138888888771" height="0.4045138888888771" fill="#252525" />
<rect x="1.6430555555555084" y="1.6430555555555084" width="0.4045138888888771" height="0.4045138888888771" fill="#252525" />
<rect x="2.0525694444443854" y="1.6430555555555084" width="0.4045138888888771" height="0.4045138888888771" fill="#252525" />
<rect x="2.4620833333332626" y="1.6430555555555084" width="0.4045138888888771" height="0.4045138888888771" fill="#252525" />
<rect x="2.8715972222221398" y="1.6430555555555084" width="0.4045138888888771" height="0.4045138888888771" fill="#252525" />
<rect x="3.281111111111017" y="1.6430555555555084" width="0.4045138888888771" height="0.4045138888888771" fill="#252525" />
<rect x="3.690624999999894" y="1.6430555555555084" width="0.4045138888888771" height="0.4045138888888771" fill="#252525" />
<rect x="4.100138888888771" y="1.6430555555555084" width="0.4045138888888771" height="0.4045138888888771" fill="#252525" />
<rect x="4.5096527777776485" y="1.6430555555555084" width="0.4045138888888771" height="0.4045138888888771" fill="#252525" />
<rect x="0.005" y="2.0525694444443854" width="0.4045138888888771" height="0.4045138888888771" fill="#252525" />
<rect x="0.41451388888887714" y="2.0525694444443854" width="0.4045138888888771" height="0.4045138888888771" fill="#252525" />
<rect x="0.8240277777777543" y="2.0525694444443854" width="0.4045138888888771" height="0.4045138888888771" fill="#252525" />
<rect x="1.2335416666666312" y="2.0525694444443854" width="0.4045138888888771" height="0.4045138888888771" fill="#252525" />
<rect x="1.6430555555555084" y="2.0525694444443854" width="0.4045138888888771" height="0.4045138888888771" fill="#252525" />
<rect x="2.0525694444443854" y="2.0525694444443854" width="0.4045138888888771" height="0.4045138888888771" fill="#252525" />
<rect x="2.4620833333332626" y="2.0525694444443854" width="0.4045138888888771" height="0.4045138888888771" fill="#252525" />
<rect x="2.8715972222221398" y="2.0525694444443854" width="0.4045138888888771" height="0.4045138888888771" fill="#252525" />
<rect x="3.281111111111017" y="2.0525694444443854" width="0.4045138888888771" height="0.4045138888888771" fill="#252525" />
<rect x="3.690624999999894" y="2.0525694444443854" width="0.4045138888888771" height="0.4045138888888771" fill="#252525" />
<rect x="4.100138888888771" y="2.0525694444443854" width="0.4045138888888771" height="0.4045138888888771" fill="#252525" />
<rect x="4.5096527777776485" y="2.0525694444443854" width="0.4045138888888771" height="0.4045138888888771" fill="#252525" />
<rect x="0.005" y="2.4620833333332626" width="0.4045138888888771" height="0.4045138888888771" fill="#252525" />
<rect x="0.41451388888887714" y="2.4620833333332626" width="0.4045138888888771" height="0.4045138888888771" fill="#252525" />
<rect x="0.8240277777777543" y="2.4620833333332626" width="0.4045138888888771" height="0.4045138888888771" fill="#252525" />
<rect x="1.2335416666666312" y="2.4620833333332626" width="0.4045138888888771" height="0.4045138888888771" fill="#252525" />
<rect x="1.6430555555555084" y="2.4620833333332626" width="0.4045138888888771" height="0.4045138888888771" fill="#252525" />
<rect x="2.0525694444443854" y="2.4620833333332626" width="0.4045138888888771" height="0.4045138888888771" fill="#252525" />
<rect x="2.4620833333332626" y="2.4620833333332626" width="0.4045138888888771" height="0.4045138888888771" fill="#252525" />
<rect x="2.8715972222221398" y="2.4620833333332626" width="0.4045138888888771" height="0.4045138888888771" fill="#252525" />
<rect x="3.281111111111017" y="2.4620833333332626" width="0.4045138888888771" height="0.4045138888888771" fill="#252525" />
<rect x="3.690624999999894" y="2.4620833333332626" width="0.4045138888888771" height="0.4045138888888771" fill="#252525" />
<rect x="4.100138888888771" y="2.4620833333332626" width="0.4045138888888771" height="0.4045138888888771" fill="#252525" />
<rect x="4.5096527777776485" y="2.4620833333332626" width="0.4045138888888771" height="0.4045138888888771" fill="#252525" />
<rect x="0.005" y="2.8715972222221398" width="0.4045138888888771" height="0.4045138888888771" fill="#252525" />
<rect x="0.41451388888887714" y="2.8715972222221398" width="0.4045138888888771" height="0.4045138888888771" fill="#252525" />
<rect x="0.8240277777777543" y="2.8715972222221398" width="0.4045138888888771" height="0.4045138888888771" fill="#252525" />
<rect x="1.2335416666666312" y="2.8715972222221398" width="0.4045138888888771" height="0.4045138888888771" fill="#252525" />
<rect x="1.6430555555555084" y="2.8715972222221398" width="0.4045138888888771" height="0.4045138888888771" fill="#252525" />
<rect x="2.0525694444443854" y="2.8715972222221398" width="0.4045138888888771" height="0.4045138888888771" fill="#252525" />
<rect x="2.4620833333332626" y="2.8715972222221398" width="0.4045138888888771" height="0.4045138888888771" fill="#252525" />
<rect x="2.8715972222221398" y="2.8715972222221398" width="0.4045138888888771" height="0.4045138888888771" fill="#252525" />
<rect x="3.281111111111017" y="2.8715972222221398" width="0.4045138888888771" height="0.4045138888888771" fill="#252525" />
<rect x="3.690624999999894" y="2.8715972222221398" width="0.4045138888888771" height="0.4045138888888771" fill="#252525" />
<rect x="4.100138888888771" y="2.8715972222221398" width="0.4045138888888771" height="0.4045138888888771" fill="#252525" />
<rect x="4.5096527777776485" y="2.8715972222221398" width="0.4045138888888771" height="0.4045138888888771" fill="#252525" />
<rect x="0.005" y="3.281111111111017" width="0.4045138888888771" height="0.4045138888888771" fill="#252525" />
<rect x="0.41451388888887714" y="3.281111111111017" width="0.4045138888888771" height="0.4045138888888771" fill="#252525" />
<rect x="0.8240277777777543" y="3.281111111111017" width="0.4045138888888771" height="0.4045138888888771" fill="#252525" />
<rect x="1.2335416666666312" y="3.281111111111017" width="0.4045138888888771" height="0.4045138888888771" fill="#252525" />
<rect x="1.6430555555555084" y="3.281111111111017" width="0.4045138888888771" height="0.4045138888888771" fill="#252525" />
<rect x="2.0525694444443854" y="3.281111111111017" width="0.4045138888888771" height="0.4045138888888771" fill="#252525" />
<rect x="2.4620833333332626" y="3.281111111111017" width="0.4045138888888771" height="0.4045138888888771" fill="#252525" />
<rect x="2.8715972222221398" y="3.281111111111017" width="0.4045138888888771" height="0.4045138888888771" fill="#252525" />
<rect x="3.281111111111017" y="3.281111111111017" width="0.4045138888888771" height="0.4045138888888771" fill="#252525" />
<rect x="3.690624999999894" y="3.281111111111017" width="0.4045138888888771" height="0.4045138888888771" fill="#252525" />
<rect x="4.100138888888771" y="3.281111111111017" width="0.4045138888888771" height="0.4045138888888771" fill="#252525" />
<rect x="4.5096527777776485" y="3.281111111111017" width="0.4045138888888771" height="0.4045138888888771" fill="#252525" />
<rect x="0.005" y="3.690624999999894" width="0.4045138888888771" height="0.4045138888888771" fill="#252525" />
<rect x="0.41451388888887714" y="3.690624999999894" width="0.4045138888888771" height="0.4045138888888771" fill="#252525" />
<rect x="0.8240277777777543" y="3.690624999999894" width="0.4045138888888771" height="0.4045138888888771" fill="#252525" />
<rect x="1.2335416666666312" y="3.690624999999894" width="0.4045138888888771" height="0.4045138888888771" fill="#252525" />
<rect x="1.6430555555555084" y="3.690624999999894" width="0.4045138888888771" height="0.4045138888888771" fill="#252525" />
<rect x="2.0525694444443854" y="3.690624999999894" width="0.4045138888888771" height="0.4045138888888771" fill="#252525" />
<rect x="2.4620833333332626" y="3.690624999999894" width="0.4045138888888771" height="0.4045138888888771" fill="#252525" />
<rect x="2.8715972222221398" y="3.690624999999894" width="0.4045138888888771" height="0.4045138888888771" fill="#252525" />
<rect x="3.281111111111017" y="3.690624999999894" width="0.4045138888888771" height="0.4045138888888771" fill="#252525" />
<rect x="3.690624999999894" y="3.690624999999894" width="0.4045138888888771" height="0.4045138888888771" fill="#252525" />
<rect x="4.100138888888771" y="3.690624999999894" width="0.4045138888888771" height="0.4045138888888771" fill="#252525" />
<rect x="4.5096527777776485" y="3.690624999999894" width="0.4045138888888771" height="0.4045138888888771" fill="#252525" />
<rect x="0.005" y="4.100138888888771" width="0.4045138888888771" height="0.4045138888888771" fill="#252525" />
<rect x="0.41451388888887714" y="4.100138888888771" width="0.4045138888888771" height="0.4045138888888771" fill="#252525" />
<rect x="0.8240277777777543" y="4.100138888888771" width="0.4045138888888771" height="0.4045138888888771" fill="#252525" />
<rect x="1.2335416666666312" y="4.100138888888771" width="0.4045138888888771" height="0.4045138888888771" fill="#252525" />
<rect x="1.6430555555555084" y="4.100138888888771" width="0.4045138888888771" height="0.4045138888888771" fill="#252525" />
<rect x="2.0525694444443854" y="4.100138888888771" width="0.4045138888888771" height="0.4045138888888771" fill="#252525" />
<rect x="2.4620833333332626" y="4.100138888888771" width="0.4045138888888771" height="0.4045138888888771" fill="#252525" />
<rect x="2.8715972222221398" y="4.100138888888771" width="0.4045138888888771" height="0.4045138888888771" fill="#252525" />
<rect x="3.281111111111017" y="4.100138888888771" width="0.4045138888888771" height="0.4045138888888771" fill="#252525" />
<rect x="3.690624999999894" y="4.100138888888771" width="0.4045138888888771" height="0.4045138888888771" fill="#252525" />
<rect x="4.100138888888771" y="4.100138888888771" width="0.4045138888888771" height="0.4045138888888771" fill="#252525" />
<rect x="4.5096527777776485" y="4.100138888888771" width="0.4045138888888771" height="0.4045138888888771" fill="#252525" />
<rect x="0.005" y="4.5096527777776485" width="0.4045138888888771" height="0.4045138888888771" fill="#252525" />
<rect x="0.41451388888887714" y="4.5096527777776485" width="0.4045138888888771" height="0.4045138888888771" fill="#252525" />
<rect x="0.8240277777777543" y="4.5096527777776485" width="0.4045138888888771" height="0.4045138888888771" fill="#252525" />
<rect x="1.2335416666666312" y="4.5096527777776485" width="0.4045138888888771" height="0.4045138888888771" fill="#252525" />
<rect x="1.6430555555555084" y="4.5096527777776485" width="0.4045138888888771" height="0.4045138888888771" fill="#252525" />
<rect x="2.0525694444443854" y="4.5096527777776485" width="0.4045138888888771" height="0.4045138888888771" fill="#252525" />
<rect x="2.4620833333332626" y="4.5096527777776485" width="0.4045138888888771" height="0.4045138888888771" fill="#252525" />
<rect x="2.8715972222221398" y="4.5096527777776485" width="0.4045138888888771" height="0.4045138888888771" fill="#252525" />
<rect x="3.281111111111017" y="4.5096527777776485" width="0.4045138888888771" height="0.4045138888888771" fill="#252525" />
<rect x="3.690624999999894" y="4.5096527777776485" width="0.4045138888888771" height="0.4045138888888771" fill="#252525" />
<rect x="4.100138888888771" y="4.5096527777776485" width="0.4045138888888771" height="0.4045138888888771" fill="#252525" />
<rect x="4.5096527777776485" y="4.5096527777776485" width="0.4045138888888771" height="0.4045138888888771" fill="#252525" />
<rect x="-0.02666666666666667" y="-0.02666666666666667" width="4.967499999999859" height="4.967499999999859" fill="none" stroke="#111111ff" stroke-width="0.08" />
<text x="4.914166666666525" y="5.382916666666525" font-size="0.375" fill="black" text-anchor="end" font-family="Anuphan">12x12</text>
<text x="-0.037500000000000006" y="5.382916666666525" font-size="0.375" fill="black" text-anchor="start" font-family="Anuphan" font-weight="600">Test 1</text>
</g>
<g id="d3">
<rect x="0.005" y="0.005" width="0.5362499999999903" height="0.5362499999999903" fill="#252525" />
<rect x="0.5462499999999904" y="0.005" width="0.5362499999999903" height="0.5362499999999903" fill="#252525" />
<rect x="1.0874999999999806" y="0.005" width="0.5362499999999903" height="0.5362499999999903" fill="#252525" />
<rect x="1.6287499999999708" y="0.005" width="0.5362499999999903" height="0.5362499999999903" fill="#0074D9" />
<rect x="2.1699999999999613" y="0.005" width="0.5362499999999903" height="0.5362499999999903" fill="#252525" />
<rect x="2.7112499999999518" y="0.005" width="0.5362499999999903" height="0.5362499999999903" fill="#252525" />
<rect x="0.005" y="0.5462499999999904" width="0.5362499999999903" height="0.5362499999999903" fill="#252525" />
<rect x="0.5462499999999904" y="0.5462499999999904" width="0.5362499999999903" height="0.5362499999999903" fill="#252525" />
<rect x="1.0874999999999806" y="0.5462499999999904" width="0.5362499999999903" height="0.5362499999999903" fill="#252525" />
<rect x="1.6287499999999708" y="0.5462499999999904" width="0.5362499999999903" height="0.5362499999999903" fill="#252525" />
<rect x="2.1699999999999613" y="0.5462499999999904" width="0.5362499999999903" height="0.5362499999999903" fill="#252525" />
<rect x="2.7112499999999518" y="0.5462499999999904" width="0.5362499999999903" height="0.5362499999999903" fill="#252525" />
<rect x="0.005" y="1.0874999999999806" width="0.5362499999999903" height="0.5362499999999903" fill="#252525" />
<rect x="0.5462499999999904" y="1.0874999999999806" width="0.5362499999999903" height="0.5362499999999903" fill="#252525" />
<rect x="1.0874999999999806" y="1.0874999999999806" width="0.5362499999999903" height="0.5362499999999903" fill="#252525" />
<rect x="1.6287499999999708" y="1.0874999999999806" width="0.5362499999999903" height="0.5362499999999903" fill="#252525" />
<rect x="2.1699999999999613" y="1.0874999999999806" width="0.5362499999999903" height="0.5362499999999903" fill="#252525" />
<rect x="2.7112499999999518" y="1.0874999999999806" width="0.5362499999999903" height="0.5362499999999903" fill="#252525" />
<rect x="0.005" y="1.6287499999999708" width="0.5362499999999903" height="0.5362499999999903" fill="#252525" />
<rect x="0.5462499999999904" y="1.6287499999999708" width="0.5362499999999903" height="0.5362499999999903" fill="#252525" />
<rect x="1.0874999999999806" y="1.6287499999999708" width="0.5362499999999903" height="0.5362499999999903" fill="#252525" />
<rect x="1.6287499999999708" y="1.6287499999999708" width="0.5362499999999903" height="0.5362499999999903" fill="#252525" />
<rect x="2.1699999999999613" y="1.6287499999999708" width="0.5362499999999903" height="0.5362499999999903" fill="#252525" />
<rect x="2.7112499999999518" y="1.6287499999999708" width="0.5362499999999903" height="0.5362499999999903" fill="#252525" />
<rect x="0.005" y="2.1699999999999613" width="0.5362499999999903" height="0.5362499999999903" fill="#252525" />
<rect x="0.5462499999999904" y="2.1699999999999613" width="0.5362499999999903" height="0.5362499999999903" fill="#252525" />
<rect x="1.0874999999999806" y="2.1699999999999613" width="0.5362499999999903" height="0.5362499999999903" fill="#252525" />
<rect x="1.6287499999999708" y="2.1699999999999613" width="0.5362499999999903" height="0.5362499999999903" fill="#252525" />
<rect x="2.1699999999999613" y="2.1699999999999613" width="0.5362499999999903" height="0.5362499999999903" fill="#252525" />
<rect x="2.7112499999999518" y="2.1699999999999613" width="0.5362499999999903" height="0.5362499999999903" fill="#252525" />
<rect x="0.005" y="2.7112499999999518" width="0.5362499999999903" height="0.5362499999999903" fill="#252525" />
<rect x="0.5462499999999904" y="2.7112499999999518" width="0.5362499999999903" height="0.5362499999999903" fill="#252525" />
<rect x="1.0874999999999806" y="2.7112499999999518" width="0.5362499999999903" height="0.5362499999999903" fill="#252525" />
<rect x="1.6287499999999708" y="2.7112499999999518" width="0.5362499999999903" height="0.5362499999999903" fill="#252525" />
<rect x="2.1699999999999613" y="2.7112499999999518" width="0.5362499999999903" height="0.5362499999999903" fill="#252525" />
<rect x="2.7112499999999518" y="2.7112499999999518" width="0.5362499999999903" height="0.5362499999999903" fill="#252525" />
<rect x="0.005" y="3.2524999999999418" width="0.5362499999999903" height="0.5362499999999903" fill="#252525" />
<rect x="0.5462499999999904" y="3.2524999999999418" width="0.5362499999999903" height="0.5362499999999903" fill="#252525" />
<rect x="1.0874999999999806" y="3.2524999999999418" width="0.5362499999999903" height="0.5362499999999903" fill="#252525" />
<rect x="1.6287499999999708" y="3.2524999999999418" width="0.5362499999999903" height="0.5362499999999903" fill="#0074D9" />
<rect x="2.1699999999999613" y="3.2524999999999418" width="0.5362499999999903" height="0.5362499999999903" fill="#252525" />
<rect x="2.7112499999999518" y="3.2524999999999418" width="0.5362499999999903" height="0.5362499999999903" fill="#252525" />
<rect x="0.005" y="3.7937499999999322" width="0.5362499999999903" height="0.5362499999999903" fill="#252525" />
<rect x="0.5462499999999904" y="3.7937499999999322" width="0.5362499999999903" height="0.5362499999999903" fill="#252525" />
<rect x="1.0874999999999806" y="3.7937499999999322" width="0.5362499999999903" height="0.5362499999999903" fill="#252525" />
<rect x="1.6287499999999708" y="3.7937499999999322" width="0.5362499999999903" height="0.5362499999999903" fill="#252525" />
<rect x="2.1699999999999613" y="3.7937499999999322" width="0.5362499999999903" height="0.5362499999999903" fill="#252525" />
<rect x="2.7112499999999518" y="3.7937499999999322" width="0.5362499999999903" height="0.5362499999999903" fill="#252525" />
<rect x="0.005" y="4.334999999999923" width="0.5362499999999903" height="0.5362499999999903" fill="#252525" />
<rect x="0.5462499999999904" y="4.334999999999923" width="0.5362499999999903" height="0.5362499999999903" fill="#252525" />
<rect x="1.0874999999999806" y="4.334999999999923" width="0.5362499999999903" height="0.5362499999999903" fill="#252525" />
<rect x="1.6287499999999708" y="4.334999999999923" width="0.5362499999999903" height="0.5362499999999903" fill="#252525" />
<rect x="2.1699999999999613" y="4.334999999999923" width="0.5362499999999903" height="0.5362499999999903" fill="#252525" />
<rect x="2.7112499999999518" y="4.334999999999923" width="0.5362499999999903" height="0.5362499999999903" fill="#252525" />
<rect x="0.005" y="4.876249999999913" width="0.5362499999999903" height="0.5362499999999903" fill="#252525" />
<rect x="0.5462499999999904" y="4.876249999999913" width="0.5362499999999903" height="0.5362499999999903" fill="#252525" />
<rect x="1.0874999999999806" y="4.876249999999913" width="0.5362499999999903" height="0.5362499999999903" fill="#252525" />
<rect x="1.6287499999999708" y="4.876249999999913" width="0.5362499999999903" height="0.5362499999999903" fill="#252525" />
<rect x="2.1699999999999613" y="4.876249999999913" width="0.5362499999999903" height="0.5362499999999903" fill="#252525" />
<rect x="2.7112499999999518" y="4.876249999999913" width="0.5362499999999903" height="0.5362499999999903" fill="#252525" />
<rect x="-0.02666666666666667" y="-0.02666666666666667" width="3.300833333333275" height="5.465833333333237" fill="none" stroke="#111111ff" stroke-width="0.08" />
<text x="3.247499999999942" y="5.881249999999904" font-size="0.375" fill="black" text-anchor="end" font-family="Anuphan">6x10</text>
<text x="-0.037500000000000006" y="5.881249999999904" font-size="0.375" fill="black" text-anchor="start" font-family="Anuphan" font-weight="600">Test 2</text>
</g>
<g id="d4">
<rect x="0.005" y="0.005" width="0.4864166666666525" height="0.4864166666666525" fill="#252525" />
<rect x="0.4964166666666525" y="0.005" width="0.4864166666666525" height="0.4864166666666525" fill="#252525" />
<rect x="0.987833333333305" y="0.005" width="0.4864166666666525" height="0.4864166666666525" fill="#252525" />
<rect x="1.4792499999999573" y="0.005" width="0.4864166666666525" height="0.4864166666666525" fill="#252525" />
<rect x="1.97066666666661" y="0.005" width="0.4864166666666525" height="0.4864166666666525" fill="#252525" />
<rect x="2.4620833333332626" y="0.005" width="0.4864166666666525" height="0.4864166666666525" fill="#252525" />
<rect x="2.9534999999999147" y="0.005" width="0.4864166666666525" height="0.4864166666666525" fill="#252525" />
<rect x="3.4449166666665674" y="0.005" width="0.4864166666666525" height="0.4864166666666525" fill="#252525" />
<rect x="3.93633333333322" y="0.005" width="0.4864166666666525" height="0.4864166666666525" fill="#252525" />
<rect x="4.427749999999873" y="0.005" width="0.4864166666666525" height="0.4864166666666525" fill="#252525" />
<rect x="0.005" y="0.4964166666666525" width="0.4864166666666525" height="0.4864166666666525" fill="#252525" />
<rect x="0.4964166666666525" y="0.4964166666666525" width="0.4864166666666525" height="0.4864166666666525" fill="#252525" />
<rect x="0.987833333333305" y="0.4964166666666525" width="0.4864166666666525" height="0.4864166666666525" fill="#252525" />
<rect x="1.4792499999999573" y="0.4964166666666525" width="0.4864166666666525" height="0.4864166666666525" fill="#252525" />
<rect x="1.97066666666661" y="0.4964166666666525" width="0.4864166666666525" height="0.4864166666666525" fill="#252525" />
<rect x="2.4620833333332626" y="0.4964166666666525" width="0.4864166666666525" height="0.4864166666666525" fill="#252525" />
<rect x="2.9534999999999147" y="0.4964166666666525" width="0.4864166666666525" height="0.4864166666666525" fill="#252525" />
<rect x="3.4449166666665674" y="0.4964166666666525" width="0.4864166666666525" height="0.4864166666666525" fill="#252525" />
<rect x="3.93633333333322" y="0.4964166666666525" width="0.4864166666666525" height="0.4864166666666525" fill="#252525" />
<rect x="4.427749999999873" y="0.4964166666666525" width="0.4864166666666525" height="0.4864166666666525" fill="#252525" />
<rect x="0.005" y="0.987833333333305" width="0.4864166666666525" height="0.4864166666666525" fill="#252525" />
<rect x="0.4964166666666525" y="0.987833333333305" width="0.4864166666666525" height="0.4864166666666525" fill="#252525" />
<rect x="0.987833333333305" y="0.987833333333305" width="0.4864166666666525" height="0.4864166666666525" fill="#252525" />
<rect x="1.4792499999999573" y="0.987833333333305" width="0.4864166666666525" height="0.4864166666666525" fill="#252525" />
<rect x="1.97066666666661" y="0.987833333333305" width="0.4864166666666525" height="0.4864166666666525" fill="#252525" />
<rect x="2.4620833333332626" y="0.987833333333305" width="0.4864166666666525" height="0.4864166666666525" fill="#252525" />
<rect x="2.9534999999999147" y="0.987833333333305" width="0.4864166666666525" height="0.4864166666666525" fill="#252525" />
<rect x="3.4449166666665674" y="0.987833333333305" width="0.4864166666666525" height="0.4864166666666525" fill="#252525" />
<rect x="3.93633333333322" y="0.987833333333305" width="0.4864166666666525" height="0.4864166666666525" fill="#252525" />
<rect x="4.427749999999873" y="0.987833333333305" width="0.4864166666666525" height="0.4864166666666525" fill="#252525" />
<rect x="0.005" y="1.4792499999999573" width="0.4864166666666525" height="0.4864166666666525" fill="#252525" />
<rect x="0.4964166666666525" y="1.4792499999999573" width="0.4864166666666525" height="0.4864166666666525" fill="#252525" />
<rect x="0.987833333333305" y="1.4792499999999573" width="0.4864166666666525" height="0.4864166666666525" fill="#252525" />
<rect x="1.4792499999999573" y="1.4792499999999573" width="0.4864166666666525" height="0.4864166666666525" fill="#252525" />
<rect x="1.97066666666661" y="1.4792499999999573" width="0.4864166666666525" height="0.4864166666666525" fill="#37D449" />
<rect x="2.4620833333332626" y="1.4792499999999573" width="0.4864166666666525" height="0.4864166666666525" fill="#252525" />
<rect x="2.9534999999999147" y="1.4792499999999573" width="0.4864166666666525" height="0.4864166666666525" fill="#252525" />
<rect x="3.4449166666665674" y="1.4792499999999573" width="0.4864166666666525" height="0.4864166666666525" fill="#252525" />
<rect x="3.93633333333322" y="1.4792499999999573" width="0.4864166666666525" height="0.4864166666666525" fill="#252525" />
<rect x="4.427749999999873" y="1.4792499999999573" width="0.4864166666666525" height="0.4864166666666525" fill="#252525" />
<rect x="0.005" y="1.97066666666661" width="0.4864166666666525" height="0.4864166666666525" fill="#252525" />
<rect x="0.4964166666666525" y="1.97066666666661" width="0.4864166666666525" height="0.4864166666666525" fill="#0074D9" />
<rect x="0.987833333333305" y="1.97066666666661" width="0.4864166666666525" height="0.4864166666666525" fill="#252525" />
<rect x="1.4792499999999573" y="1.97066666666661" width="0.4864166666666525" height="0.4864166666666525" fill="#37D449" />
<rect x="1.97066666666661" y="1.97066666666661" width="0.4864166666666525" height="0.4864166666666525" fill="#37D449" />
<rect x="2.4620833333332626" y="1.97066666666661" width="0.4864166666666525" height="0.4864166666666525" fill="#37D449" />
<rect x="2.9534999999999147" y="1.97066666666661" width="0.4864166666666525" height="0.4864166666666525" fill="#252525" />
<rect x="3.4449166666665674" y="1.97066666666661" width="0.4864166666666525" height="0.4864166666666525" fill="#0074D9" />
<rect x="3.93633333333322" y="1.97066666666661" width="0.4864166666666525" height="0.4864166666666525" fill="#252525" />
<rect x="4.427749999999873" y="1.97066666666661" width="0.4864166666666525" height="0.4864166666666525" fill="#252525" />
<rect x="0.005" y="2.4620833333332626" width="0.4864166666666525" height="0.4864166666666525" fill="#252525" />
<rect x="0.4964166666666525" y="2.4620833333332626" width="0.4864166666666525" height="0.4864166666666525" fill="#252525" />
<rect x="0.987833333333305" y="2.4620833333332626" width="0.4864166666666525" height="0.4864166666666525" fill="#252525" />
<rect x="1.4792499999999573" y="2.4620833333332626" width="0.4864166666666525" height="0.4864166666666525" fill="#252525" />
<rect x="1.97066666666661" y="2.4620833333332626" width="0.4864166666666525" height="0.4864166666666525" fill="#37D449" />
<rect x="2.4620833333332626" y="2.4620833333332626" width="0.4864166666666525" height="0.4864166666666525" fill="#252525" />
<rect x="2.9534999999999147" y="2.4620833333332626" width="0.4864166666666525" height="0.4864166666666525" fill="#252525" />
<rect x="3.4449166666665674" y="2.4620833333332626" width="0.4864166666666525" height="0.4864166666666525" fill="#252525" />
<rect x="3.93633333333322" y="2.4620833333332626" width="0.4864166666666525" height="0.4864166666666525" fill="#252525" />
<rect x="4.427749999999873" y="2.4620833333332626" width="0.4864166666666525" height="0.4864166666666525" fill="#252525" />
<rect x="0.005" y="2.9534999999999147" width="0.4864166666666525" height="0.4864166666666525" fill="#252525" />
<rect x="0.4964166666666525" y="2.9534999999999147" width="0.4864166666666525" height="0.4864166666666525" fill="#252525" />
<rect x="0.987833333333305" y="2.9534999999999147" width="0.4864166666666525" height="0.4864166666666525" fill="#252525" />
<rect x="1.4792499999999573" y="2.9534999999999147" width="0.4864166666666525" height="0.4864166666666525" fill="#252525" />
<rect x="1.97066666666661" y="2.9534999999999147" width="0.4864166666666525" height="0.4864166666666525" fill="#252525" />
<rect x="2.4620833333332626" y="2.9534999999999147" width="0.4864166666666525" height="0.4864166666666525" fill="#252525" />
<rect x="2.9534999999999147" y="2.9534999999999147" width="0.4864166666666525" height="0.4864166666666525" fill="#252525" />
<rect x="3.4449166666665674" y="2.9534999999999147" width="0.4864166666666525" height="0.4864166666666525" fill="#252525" />
<rect x="3.93633333333322" y="2.9534999999999147" width="0.4864166666666525" height="0.4864166666666525" fill="#252525" />
<rect x="4.427749999999873" y="2.9534999999999147" width="0.4864166666666525" height="0.4864166666666525" fill="#252525" />
<rect x="0.005" y="3.4449166666665674" width="0.4864166666666525" height="0.4864166666666525" fill="#252525" />
<rect x="0.4964166666666525" y="3.4449166666665674" width="0.4864166666666525" height="0.4864166666666525" fill="#252525" />
<rect x="0.987833333333305" y="3.4449166666665674" width="0.4864166666666525" height="0.4864166666666525" fill="#252525" />
<rect x="1.4792499999999573" y="3.4449166666665674" width="0.4864166666666525" height="0.4864166666666525" fill="#252525" />
<rect x="1.97066666666661" y="3.4449166666665674" width="0.4864166666666525" height="0.4864166666666525" fill="#252525" />
<rect x="2.4620833333332626" y="3.4449166666665674" width="0.4864166666666525" height="0.4864166666666525" fill="#252525" />
<rect x="2.9534999999999147" y="3.4449166666665674" width="0.4864166666666525" height="0.4864166666666525" fill="#252525" />
<rect x="3.4449166666665674" y="3.4449166666665674" width="0.4864166666666525" height="0.4864166666666525" fill="#252525" />
<rect x="3.93633333333322" y="3.4449166666665674" width="0.4864166666666525" height="0.4864166666666525" fill="#252525" />
<rect x="4.427749999999873" y="3.4449166666665674" width="0.4864166666666525" height="0.4864166666666525" fill="#252525" />
<rect x="0.005" y="3.93633333333322" width="0.4864166666666525" height="0.4864166666666525" fill="#252525" />
<rect x="0.4964166666666525" y="3.93633333333322" width="0.4864166666666525" height="0.4864166666666525" fill="#252525" />
<rect x="0.987833333333305" y="3.93633333333322" width="0.4864166666666525" height="0.4864166666666525" fill="#252525" />
<rect x="1.4792499999999573" y="3.93633333333322" width="0.4864166666666525" height="0.4864166666666525" fill="#252525" />
<rect x="1.97066666666661" y="3.93633333333322" width="0.4864166666666525" height="0.4864166666666525" fill="#252525" />
<rect x="2.4620833333332626" y="3.93633333333322" width="0.4864166666666525" height="0.4864166666666525" fill="#252525" />
<rect x="2.9534999999999147" y="3.93633333333322" width="0.4864166666666525" height="0.4864166666666525" fill="#252525" />
<rect x="3.4449166666665674" y="3.93633333333322" width="0.4864166666666525" height="0.4864166666666525" fill="#252525" />
<rect x="3.93633333333322" y="3.93633333333322" width="0.4864166666666525" height="0.4864166666666525" fill="#252525" />
<rect x="4.427749999999873" y="3.93633333333322" width="0.4864166666666525" height="0.4864166666666525" fill="#252525" />
<rect x="0.005" y="4.427749999999873" width="0.4864166666666525" height="0.4864166666666525" fill="#252525" />
<rect x="0.4964166666666525" y="4.427749999999873" width="0.4864166666666525" height="0.4864166666666525" fill="#252525" />
<rect x="0.987833333333305" y="4.427749999999873" width="0.4864166666666525" height="0.4864166666666525" fill="#252525" />
<rect x="1.4792499999999573" y="4.427749999999873" width="0.4864166666666525" height="0.4864166666666525" fill="#252525" />
<rect x="1.97066666666661" y="4.427749999999873" width="0.4864166666666525" height="0.4864166666666525" fill="#252525" />
<rect x="2.4620833333332626" y="4.427749999999873" width="0.4864166666666525" height="0.4864166666666525" fill="#252525" />
<rect x="2.9534999999999147" y="4.427749999999873" width="0.4864166666666525" height="0.4864166666666525" fill="#252525" />
<rect x="3.4449166666665674" y="4.427749999999873" width="0.4864166666666525" height="0.4864166666666525" fill="#252525" />
<rect x="3.93633333333322" y="4.427749999999873" width="0.4864166666666525" height="0.4864166666666525" fill="#252525" />
<rect x="4.427749999999873" y="4.427749999999873" width="0.4864166666666525" height="0.4864166666666525" fill="#252525" />
<rect x="-0.02666666666666667" y="-0.02666666666666667" width="4.967499999999859" height="4.967499999999859" fill="none" stroke="#111111ff" stroke-width="0.08" />
<text x="4.914166666666525" y="5.382916666666525" font-size="0.375" fill="black" text-anchor="end" font-family="Anuphan">10x10</text>
<text x="-0.037500000000000006" y="5.382916666666525" font-size="0.375" fill="black" text-anchor="start" font-family="Anuphan" font-weight="600">Output 1</text>
</g>
<g id="d5">
<rect x="0.005" y="0.005" width="0.4864166666666525" height="0.4864166666666525" fill="#252525" />
<rect x="0.4964166666666525" y="0.005" width="0.4864166666666525" height="0.4864166666666525" fill="#252525" />
<rect x="0.987833333333305" y="0.005" width="0.4864166666666525" height="0.4864166666666525" fill="#252525" />
<rect x="1.4792499999999573" y="0.005" width="0.4864166666666525" height="0.4864166666666525" fill="#0074D9" />
<rect x="1.97066666666661" y="0.005" width="0.4864166666666525" height="0.4864166666666525" fill="#252525" />
<rect x="2.4620833333332626" y="0.005" width="0.4864166666666525" height="0.4864166666666525" fill="#252525" />
<rect x="2.9534999999999147" y="0.005" width="0.4864166666666525" height="0.4864166666666525" fill="#252525" />
<rect x="3.4449166666665674" y="0.005" width="0.4864166666666525" height="0.4864166666666525" fill="#252525" />
<rect x="3.93633333333322" y="0.005" width="0.4864166666666525" height="0.4864166666666525" fill="#252525" />
<rect x="4.427749999999873" y="0.005" width="0.4864166666666525" height="0.4864166666666525" fill="#252525" />
<rect x="0.005" y="0.4964166666666525" width="0.4864166666666525" height="0.4864166666666525" fill="#252525" />
<rect x="0.4964166666666525" y="0.4964166666666525" width="0.4864166666666525" height="0.4864166666666525" fill="#252525" />
<rect x="0.987833333333305" y="0.4964166666666525" width="0.4864166666666525" height="0.4864166666666525" fill="#252525" />
<rect x="1.4792499999999573" y="0.4964166666666525" width="0.4864166666666525" height="0.4864166666666525" fill="#252525" />
<rect x="1.97066666666661" y="0.4964166666666525" width="0.4864166666666525" height="0.4864166666666525" fill="#252525" />
<rect x="2.4620833333332626" y="0.4964166666666525" width="0.4864166666666525" height="0.4864166666666525" fill="#252525" />
<rect x="2.9534999999999147" y="0.4964166666666525" width="0.4864166666666525" height="0.4864166666666525" fill="#252525" />
<rect x="3.4449166666665674" y="0.4964166666666525" width="0.4864166666666525" height="0.4864166666666525" fill="#252525" />
<rect x="3.93633333333322" y="0.4964166666666525" width="0.4864166666666525" height="0.4864166666666525" fill="#252525" />
<rect x="4.427749999999873" y="0.4964166666666525" width="0.4864166666666525" height="0.4864166666666525" fill="#252525" />
<rect x="0.005" y="0.987833333333305" width="0.4864166666666525" height="0.4864166666666525" fill="#252525" />
<rect x="0.4964166666666525" y="0.987833333333305" width="0.4864166666666525" height="0.4864166666666525" fill="#252525" />
<rect x="0.987833333333305" y="0.987833333333305" width="0.4864166666666525" height="0.4864166666666525" fill="#252525" />
<rect x="1.4792499999999573" y="0.987833333333305" width="0.4864166666666525" height="0.4864166666666525" fill="#252525" />
<rect x="1.97066666666661" y="0.987833333333305" width="0.4864166666666525" height="0.4864166666666525" fill="#252525" />
<rect x="2.4620833333332626" y="0.987833333333305" width="0.4864166666666525" height="0.4864166666666525" fill="#252525" />
<rect x="2.9534999999999147" y="0.987833333333305" width="0.4864166666666525" height="0.4864166666666525" fill="#252525" />
<rect x="3.4449166666665674" y="0.987833333333305" width="0.4864166666666525" height="0.4864166666666525" fill="#252525" />
<rect x="3.93633333333322" y="0.987833333333305" width="0.4864166666666525" height="0.4864166666666525" fill="#252525" />
<rect x="4.427749999999873" y="0.987833333333305" width="0.4864166666666525" height="0.4864166666666525" fill="#252525" />
<rect x="0.005" y="1.4792499999999573" width="0.4864166666666525" height="0.4864166666666525" fill="#252525" />
<rect x="0.4964166666666525" y="1.4792499999999573" width="0.4864166666666525" height="0.4864166666666525" fill="#252525" />
<rect x="0.987833333333305" y="1.4792499999999573" width="0.4864166666666525" height="0.4864166666666525" fill="#252525" />
<rect x="1.4792499999999573" y="1.4792499999999573" width="0.4864166666666525" height="0.4864166666666525" fill="#37D449" />
<rect x="1.97066666666661" y="1.4792499999999573" width="0.4864166666666525" height="0.4864166666666525" fill="#252525" />
<rect x="2.4620833333332626" y="1.4792499999999573" width="0.4864166666666525" height="0.4864166666666525" fill="#252525" />
<rect x="2.9534999999999147" y="1.4792499999999573" width="0.4864166666666525" height="0.4864166666666525" fill="#252525" />
<rect x="3.4449166666665674" y="1.4792499999999573" width="0.4864166666666525" height="0.4864166666666525" fill="#252525" />
<rect x="3.93633333333322" y="1.4792499999999573" width="0.4864166666666525" height="0.4864166666666525" fill="#252525" />
<rect x="4.427749999999873" y="1.4792499999999573" width="0.4864166666666525" height="0.4864166666666525" fill="#252525" />
<rect x="0.005" y="1.97066666666661" width="0.4864166666666525" height="0.4864166666666525" fill="#252525" />
<rect x="0.4964166666666525" y="1.97066666666661" width="0.4864166666666525" height="0.4864166666666525" fill="#252525" />
<rect x="0.987833333333305" y="1.97066666666661" width="0.4864166666666525" height="0.4864166666666525" fill="#37D449" />
<rect x="1.4792499999999573" y="1.97066666666661" width="0.4864166666666525" height="0.4864166666666525" fill="#37D449" />
<rect x="1.97066666666661" y="1.97066666666661" width="0.4864166666666525" height="0.4864166666666525" fill="#37D449" />
<rect x="2.4620833333332626" y="1.97066666666661" width="0.4864166666666525" height="0.4864166666666525" fill="#252525" />
<rect x="2.9534999999999147" y="1.97066666666661" width="0.4864166666666525" height="0.4864166666666525" fill="#252525" />
<rect x="3.4449166666665674" y="1.97066666666661" width="0.4864166666666525" height="0.4864166666666525" fill="#252525" />
<rect x="3.93633333333322" y="1.97066666666661" width="0.4864166666666525" height="0.4864166666666525" fill="#252525" />
<rect x="4.427749999999873" y="1.97066666666661" width="0.4864166666666525" height="0.4864166666666525" fill="#252525" />
<rect x="0.005" y="2.4620833333332626" width="0.4864166666666525" height="0.4864166666666525" fill="#252525" />
<rect x="0.4964166666666525" y="2.4620833333332626" width="0.4864166666666525" height="0.4864166666666525" fill="#252525" />
<rect x="0.987833333333305" y="2.4620833333332626" width="0.4864166666666525" height="0.4864166666666525" fill="#252525" />
<rect x="1.4792499999999573" y="2.4620833333332626" width="0.4864166666666525" height="0.4864166666666525" fill="#37D449" />
<rect x="1.97066666666661" y="2.4620833333332626" width="0.4864166666666525" height="0.4864166666666525" fill="#252525" />
<rect x="2.4620833333332626" y="2.4620833333332626" width="0.4864166666666525" height="0.4864166666666525" fill="#252525" />
<rect x="2.9534999999999147" y="2.4620833333332626" width="0.4864166666666525" height="0.4864166666666525" fill="#252525" />
<rect x="3.4449166666665674" y="2.4620833333332626" width="0.4864166666666525" height="0.4864166666666525" fill="#252525" />
<rect x="3.93633333333322" y="2.4620833333332626" width="0.4864166666666525" height="0.4864166666666525" fill="#252525" />
<rect x="4.427749999999873" y="2.4620833333332626" width="0.4864166666666525" height="0.4864166666666525" fill="#252525" />
<rect x="0.005" y="2.9534999999999147" width="0.4864166666666525" height="0.4864166666666525" fill="#252525" />
<rect x="0.4964166666666525" y="2.9534999999999147" width="0.4864166666666525" height="0.4864166666666525" fill="#252525" />
<rect x="0.987833333333305" y="2.9534999999999147" width="0.4864166666666525" height="0.4864166666666525" fill="#252525" />
<rect x="1.4792499999999573" y="2.9534999999999147" width="0.4864166666666525" height="0.4864166666666525" fill="#252525" />
<rect x="1.97066666666661" y="2.9534999999999147" width="0.4864166666666525" height="0.4864166666666525" fill="#252525" />
<rect x="2.4620833333332626" y="2.9534999999999147" width="0.4864166666666525" height="0.4864166666666525" fill="#252525" />
<rect x="2.9534999999999147" y="2.9534999999999147" width="0.4864166666666525" height="0.4864166666666525" fill="#252525" />
<rect x="3.4449166666665674" y="2.9534999999999147" width="0.4864166666666525" height="0.4864166666666525" fill="#252525" />
<rect x="3.93633333333322" y="2.9534999999999147" width="0.4864166666666525" height="0.4864166666666525" fill="#252525" />
<rect x="4.427749999999873" y="2.9534999999999147" width="0.4864166666666525" height="0.4864166666666525" fill="#252525" />
<rect x="0.005" y="3.4449166666665674" width="0.4864166666666525" height="0.4864166666666525" fill="#252525" />
<rect x="0.4964166666666525" y="3.4449166666665674" width="0.4864166666666525" height="0.4864166666666525" fill="#252525" />
<rect x="0.987833333333305" y="3.4449166666665674" width="0.4864166666666525" height="0.4864166666666525" fill="#252525" />
<rect x="1.4792499999999573" y="3.4449166666665674" width="0.4864166666666525" height="0.4864166666666525" fill="#252525" />
<rect x="1.97066666666661" y="3.4449166666665674" width="0.4864166666666525" height="0.4864166666666525" fill="#252525" />
<rect x="2.4620833333332626" y="3.4449166666665674" width="0.4864166666666525" height="0.4864166666666525" fill="#252525" />
<rect x="2.9534999999999147" y="3.4449166666665674" width="0.4864166666666525" height="0.4864166666666525" fill="#252525" />
<rect x="3.4449166666665674" y="3.4449166666665674" width="0.4864166666666525" height="0.4864166666666525" fill="#252525" />
<rect x="3.93633333333322" y="3.4449166666665674" width="0.4864166666666525" height="0.4864166666666525" fill="#252525" />
<rect x="4.427749999999873" y="3.4449166666665674" width="0.4864166666666525" height="0.4864166666666525" fill="#252525" />
<rect x="0.005" y="3.93633333333322" width="0.4864166666666525" height="0.4864166666666525" fill="#252525" />
<rect x="0.4964166666666525" y="3.93633333333322" width="0.4864166666666525" height="0.4864166666666525" fill="#252525" />
<rect x="0.987833333333305" y="3.93633333333322" width="0.4864166666666525" height="0.4864166666666525" fill="#252525" />
<rect x="1.4792499999999573" y="3.93633333333322" width="0.4864166666666525" height="0.4864166666666525" fill="#0074D9" />
<rect x="1.97066666666661" y="3.93633333333322" width="0.4864166666666525" height="0.4864166666666525" fill="#252525" />
<rect x="2.4620833333332626" y="3.93633333333322" width="0.4864166666666525" height="0.4864166666666525" fill="#252525" />
<rect x="2.9534999999999147" y="3.93633333333322" width="0.4864166666666525" height="0.4864166666666525" fill="#252525" />
<rect x="3.4449166666665674" y="3.93633333333322" width="0.4864166666666525" height="0.4864166666666525" fill="#252525" />
<rect x="3.93633333333322" y="3.93633333333322" width="0.4864166666666525" height="0.4864166666666525" fill="#252525" />
<rect x="4.427749999999873" y="3.93633333333322" width="0.4864166666666525" height="0.4864166666666525" fill="#252525" />
<rect x="0.005" y="4.427749999999873" width="0.4864166666666525" height="0.4864166666666525" fill="#252525" />
<rect x="0.4964166666666525" y="4.427749999999873" width="0.4864166666666525" height="0.4864166666666525" fill="#252525" />
<rect x="0.987833333333305" y="4.427749999999873" width="0.4864166666666525" height="0.4864166666666525" fill="#252525" />
<rect x="1.4792499999999573" y="4.427749999999873" width="0.4864166666666525" height="0.4864166666666525" fill="#252525" />
<rect x="1.97066666666661" y="4.427749999999873" width="0.4864166666666525" height="0.4864166666666525" fill="#252525" />
<rect x="2.4620833333332626" y="4.427749999999873" width="0.4864166666666525" height="0.4864166666666525" fill="#252525" />
<rect x="2.9534999999999147" y="4.427749999999873" width="0.4864166666666525" height="0.4864166666666525" fill="#252525" />
<rect x="3.4449166666665674" y="4.427749999999873" width="0.4864166666666525" height="0.4864166666666525" fill="#252525" />
<rect x="3.93633333333322" y="4.427749999999873" width="0.4864166666666525" height="0.4864166666666525" fill="#252525" />
<rect x="4.427749999999873" y="4.427749999999873" width="0.4864166666666525" height="0.4864166666666525" fill="#252525" />
<rect x="-0.02666666666666667" y="-0.02666666666666667" width="4.967499999999859" height="4.967499999999859" fill="none" stroke="#111111ff" stroke-width="0.08" />
<text x="4.914166666666525" y="5.382916666666525" font-size="0.375" fill="black" text-anchor="end" font-family="Anuphan">10x10</text>
<text x="-0.037500000000000006" y="5.382916666666525" font-size="0.375" fill="black" text-anchor="start" font-family="Anuphan" font-weight="600">Output 2</text>
</g>
</defs>
<rect x="0" y="0" width="100%" height="100%" fill="#eeeff6" />
<use xlink:href="#d0" x="0.25" y="0.25" />
<use xlink:href="#d1" x="5.664166666666525" y="0.25" />
<use xlink:href="#d2" x="11.07833333333305" y="0.25" />
<use xlink:href="#d3" x="16.492499999999577" y="0.25" />
<path d="M2.7070833333332627,6.312499999999904 L2.7070833333332627,6.712499999999904" stroke-width="0.05" stroke="#888888" />
<path d="M2.5570833333332628,6.512499999999904 L2.7070833333332627,6.712499999999904" stroke-width="0.05" stroke="#888888" />
<path d="M2.8570833333332626,6.512499999999904 L2.7070833333332627,6.712499999999904" stroke-width="0.05" stroke="#888888" />
<use xlink:href="#d4" x="0.25" y="7.062499999999904" />
<path d="M8.121249999999788,6.312499999999904 L8.121249999999788,6.712499999999904" stroke-width="0.05" stroke="#888888" />
<path d="M7.971249999999788,6.512499999999904 L8.121249999999788,6.712499999999904" stroke-width="0.05" stroke="#888888" />
<path d="M8.271249999999789,6.512499999999904 L8.121249999999788,6.712499999999904" stroke-width="0.05" stroke="#888888" />
<use xlink:href="#d5" x="5.664166666666525" y="7.062499999999904" />
<path d="M13.535416666666313,6.312499999999904 L13.535416666666313,6.712499999999904" stroke-width="0.05" stroke="#888888" />
<path d="M13.385416666666313,6.512499999999904 L13.535416666666313,6.712499999999904" stroke-width="0.05" stroke="#888888" />
<path d="M13.685416666666313,6.512499999999904 L13.535416666666313,6.712499999999904" stroke-width="0.05" stroke="#888888" />
<text x="13.535416666666313" y="9.619583333333166" font-size="1" font-family="Anuphan" font-weight="700" fill="#333333" text-anchor="middle" alignment-baseline="middle">?</text>
<path d="M18.116249999999546,6.312499999999904 L18.116249999999546,6.712499999999904" stroke-width="0.05" stroke="#888888" />
<path d="M17.966249999999548,6.512499999999904 L18.116249999999546,6.712499999999904" stroke-width="0.05" stroke="#888888" />
<path d="M18.266249999999545,6.512499999999904 L18.116249999999546,6.712499999999904" stroke-width="0.05" stroke="#888888" />
<text x="18.116249999999546" y="9.868749999999856" font-size="1" font-family="Anuphan" font-weight="700" fill="#333333" text-anchor="middle" alignment-baseline="middle">?</text>
<text x="19.9" y="13.299999999999999" font-size="0.3" font-family="Anuphan" font-weight="600" fill="#666666" text-anchor="end" alignment-baseline="bottom">Task e9614598</text>
</svg>