<?xml version="1.0" encoding="UTF-8"?>
<svg xmlns="http://www.w3.org/2000/svg" xmlns:xlink="http://www.w3.org/1999/xlink"
     width="800.0" height="384.0" viewBox="0 0 20.0 9.6">
<defs>
<g id="d0">
<rect x="0.005" y="0.005" width="1.1609999999999456" height="1.1609999999999456" fill="#252525" />
<rect x="1.1709999999999454" y="0.005" width="1.1609999999999456" height="1.1609999999999456" fill="#252525" />
<rect x="2.336999999999891" y="0.005" width="1.1609999999999456" height="1.1609999999999456" fill="#E6E6E6" />
<rect x="0.005" y="1.1709999999999454" width="1.1609999999999456" height="1.1609999999999456" fill="#252525" />
<rect x="1.1709999999999454" y="1.1709999999999454" width="1.1609999999999456" height="1.1609999999999456" fill="#E6E6E6" />
<rect x="2.336999999999891" y="1.1709999999999454" width="1.1609999999999456" height="1.1609999999999456" fill="#252525" />
<rect x="0.005" y="2.336999999999891" width="1.1609999999999456" height="1.1609999999999456" fill="#E6E6E6" />
<rect x="1.1709999999999454" y="2.336999999999891" width="1.1609999999999456" height="1.1609999999999456" fill="#252525" />
<rect x="2.336999999999891" y="2.336999999999891" width="1.1609999999999456" height="1.1609999999999456" fill="#252525" />
<rect x="-0.02666666666666667" y="-0.02666666666666667" width="3.55133333333317" height="3.55133333333317" fill="none" stroke="#111111ff" stroke-width="0.08" />
<text x="3.497999999999837" y="3.966749999999837" font-size="0.375" fill="black" text-anchor="end" font-family="Anuphan">3x3</text>
<text x="-0.037500000000000006" y="3.966749999999837" font-size="0.375" fill="black" text-anchor="start" font-family="Anuphan" font-weight="600">Input 1</text>
</g>
<g id="d1">
<rect x="0.005" y="0.005" width="1.1609999999999456" height="1.1609999999999456" fill="#252525" />
<rect x="1.1709999999999454" y="0.005" width="1.1609999999999456" height="1.1609999999999456" fill="#252525" />
<rect x="2.336999999999891" y="0.005" width="1.1609999999999456" height="1.1609999999999456" fill="#E6E6E6" />
<rect x="0.005" y="1.1709999999999454" width="1.1609999999999456" height="1.1609999999999456" fill="#252525" />
<rect x="1.1709999999999454" y="1.1709999999999454" width="1.1609999999999456" height="1.1609999999999456" fill="#252525" />
<rect x="2.336999999999891" y="1.1709999999999454" width="1.1609999999999456" height="1.1609999999999456" fill="#E6E6E6" />
<rect x="0.005" y="2.336999999999891" width="1.1609999999999456" height="1.1609999999999456" fill="#252525" />
<rect x="1.1709999999999454" y="2.336999999999891" width="1.1609999999999456" height="1.1609999999999456" fill="#252525" />
<rect x="2.336999999999891" y="2.336999999999891" width="1.1609999999999456" height="1.1609999999999456" fill="#E6E6E6" />
<rect x="-0.02666666666666667" y="-0.02666666666666667" width="3.55133333333317" height="3.55133333333317" fill="none" stroke="#111111ff" stroke-width="0.08" />
<text x="3.497999999999837" y="3.966749999999837" font-size="0.375" fill="black" text-anchor="end" font-family="Anuphan">3x3</text>
<text x="-0.037500000000000006" y="3.966749999999837" font-size="0.375" fill="black" text-anchor="start" font-family="Anuphan" font-weight="600">Input 2</text>
</g>
<g id="d2">
<rect x="0.005" y="0.005" width="1.1609999999999456" height="1.1609999999999456" fill="#E6E6E6" />
<rect x="1.1709999999999454" y="0.005" width="1.1609999999999456" height="1.1609999999999456" fill="#252525" />
<rect x="2.336999999999891" y="0.005" width="1.1609999999999456" height="1.1609999999999456" fill="#252525" />
<rect x="0.005" y="1.1709999999999454" width="1.1609999999999456" height="1.1609999999999456" fill="#252525" />
<rect x="1.1709999999999454" y="1.1709999999999454" width="1.1609999999999456" height="1.1609999999999456" fill="#E6E6E6" />
<rect x="2.336999999999891" y="1.1709999999999454" width="1.1609999999999456" height="1.1609999999999456" fill="#252525" />
<rect x="0.005" y="2.336999999999891" width="1.1609999999999456" height="1.1609999999999456" fill="#E6E6E6" />
<rect x="1.1709999999999454" y="2.336999999999891" width="1.1609999999999456" height="1.1609999999999456" fill="#252525" />
<rect x="2.336999999999891" y="2.336999999999891" width="1.1609999999999456" height="1.1609999999999456" fill="#252525" />
<rect x="-0.02666666666666667" y="-0.02666666666666667" width="3.55133333333317" height="3.55133333333317" fill="none" stroke="#111111ff" stroke-width="0.08" />
<text x="3.497999999999837" y="3.966749999999837" font-size="0.375" fill="black" text-anchor="end" font-family="Anuphan">3x3</text>
<text x="-0.037500000000000006" y="3.966749999999837" font-size="0.375" fill="black" text-anchor="start" font-family="Anuphan" font-weight="600">Input 3</text>
</g>
<g id="d3">
<rect x="0.005" y="0.005" width="1.1609999999999456" height="1.1609999999999456" fill="#252525" />
<rect x="1.1709999999999454" y="0.005" width="1.1609999999999456" height="1.1609999999999456" fill="#E6E6E6" />
<rect x="2.336999999999891" y="0.005" width="1.1609999999999456" height="1.1609999999999456" fill="#252525" />
<rect x="0.005" y="1.1709999999999454" width="1.1609999999999456" height="1.1609999999999456" fill="#252525" />
<rect x="1.1709999999999454" y="1.1709999999999454" width="1.1609999999999456" height="1.1609999999999456" fill="#252525" />
<rect x="2.336999999999891" y="1.1709999999999454" width="1.1609999999999456" height="1.1609999999999456" fill="#E6E6E6" />
<rect x="0.005" y="2.336999999999891" width="1.1609999999999456" height="1.1609999999999456" fill="#252525" />
<rect x="1.1709999999999454" y="2.336999999999891" width="1.1609999999999456" height="1.1609999999999456" fill="#E6E6E6" />
<rect x="2.336999999999891" y="2.336999999999891" width="1.1609999999999456" height="1.1609999999999456" fill="#252525" />
<rect x="-0.02666666666666667" y="-0.02666666666666667" width="3.55133333333317" height="3.55133333333317" fill="none" stroke="#111111ff" stroke-width="0.08" />
<text x="3.497999999999837" y="3.966749999999837" font-size="0.375" fill="black" text-anchor="end" font-family="Anuphan">3x3</text>
<text x="-0.037500000000000006" y="3.966749999999837" font-size="0.375" fill="black" text-anchor="start" font-family="Anuphan" font-weight="600">Input 4</text>
</g>
<g id="d4">
<rect x="0.005" y="0.005" width="1.1609999999999456" height="1.1609999999999456" fill="#252525" />
<rect x="1.1709999999999454" y="0.005" width="1.1609999999999456" height="1.1609999999999456" fill="#252525" />
<rect x="2.336999999999891" y="0.005" width="1.1609999999999456" height="1.1609999999999456" fill="#E6E6E6" />
<rect x="0.005" y="1.1709999999999454" width="1.1609999999999456" height="1.1609999999999456" fill="#E6E6E6" />
<rect x="1.1709999999999454" y="1.1709999999999454" width="1.1609999999999456" height="1.1609999999999456" fill="#252525" />
<rect x="2.336999999999891" y="1.1709999999999454" width="1.1609999999999456" height="1.1609999999999456" fill="#252525" />
<rect x="0.005" y="2.336999999999891" width="1.1609999999999456" height="1.1609999999999456" fill="#252525" />
<rect x="1.1709999999999454" y="2.336999999999891" width="1.1609999999999456" height="1.1609999999999456" fill="#E6E6E6" />
<rect x="2.336999999999891" y="2.336999999999891" width="1.1609999999999456" height="1.1609999999999456" fill="#252525" />
<rect x="-0.02666666666666667" y="-0.02666666666666667" width="3.55133333333317" height="3.55133333333317" fill="none" stroke="#111111ff" stroke-width="0.08" />
<text x="3.497999999999837" y="3.966749999999837" font-size="0.375" fill="black" text-anchor="end" font-family="Anuphan">3x3</text>
<text x="-0.037500000000000006" y="3.966749999999837" font-size="0.375" fill="black" text-anchor="start" font-family="Anuphan" font-weight="600">Test 1</text>
</g>
<g id="d5">
<rect x="0.005" y="0.005" width="1.1609999999999456" height="1.1609999999999456" fill="#37D449" />
<rect x="1.1709999999999454" y="0.005" width="1.1609999999999456" height="1.1609999999999456" fill="#37D449" />
<rect x="2.336999999999891" y="0.005" width="1.1609999999999456" height="1.1609999999999456" fill="#37D449" />
<rect x="0.005" y="1.1709999999999454" width="1.1609999999999456" height="1.1609999999999456" fill="#FFDC00" />
<rect x="1.1709999999999454" y="1.1709999999999454" width="1.1609999999999456" height="1.1609999999999456" fill="#FFDC00" />
<rect x="2.336999999999891" y="1.1709999999999454" width="1.1609999999999456" height="1.1609999999999456" fill="#FFDC00" />
<rect x="0.005" y="2.336999999999891" width="1.1609999999999456" height="1.1609999999999456" fill="#FF4136" />
<rect x="1.1709999999999454" y="2.336999999999891" width="1.1609999999999456" height="1.1609999999999456" fill="#FF4136" />
<rect x="2.336999999999891" y="2.336999999999891" width="1.1609999999999456" height="1.1609999999999456" fill="#FF4136" />
<rect x="-0.02666666666666667" y="-0.02666666666666667" width="3.55133333333317" height="3.55133333333317" fill="none" stroke="#111111ff" stroke-width="0.08" />
<text x="3.497999999999837" y="3.966749999999837" font-size="0.375" fill="black" text-anchor="end" font-family="Anuphan">3x3</text>
<text x="-0.037500000000000006" y="3.966749999999837" font-size="0.375" fill="black" text-anchor="start" font-family="Anuphan" font-weight="600">Output 1</text>
</g>
<g id="d6">
<rect x="0.005" y="0.005" width="1.1609999999999456" height="1.1609999999999456" fill="#37D449" />
<rect x="1.1709999999999454" y="0.005" width="1.1609999999999456" height="1.1609999999999456" fill="#37D449" />
<rect x="2.336999999999891" y="0.005" width="1.1609999999999456" height="1.1609999999999456" fill="#37D449" />
<rect x="0.005" y="1.1709999999999454" width="1.1609999999999456" height="1.1609999999999456" fill="#37D449" />
<rect x="1.1709999999999454" y="1.1709999999999454" width="1.1609999999999456" height="1.1609999999999456" fill="#37D449" />
<rect x="2.336999999999891" y="1.1709999999999454" width="1.1609999999999456" height="1.1609999999999456" fill="#37D449" />
<rect x="0.005" y="2.336999999999891" width="1.1609999999999456" height="1.1609999999999456" fill="#37D449" />
<rect x="1.1709999999999454" y="2.336999999999891" width="1.1609999999999456" height="1.1609999999999456" fill="#37D449" />
<rect x="2.336999999999891" y="2.336999999999891" width="1.1609999999999456" height="1.1609999999999456" fill="#37D449" />
<rect x="-0.02666666666666667" y="-0.02666666666666667" width="3.55133333333317" height="3.55133333333317" fill="none" stroke="#111111ff" stroke-width="0.08" />
<text x="3.497999999999837" y="3.966749999999837" font-size="0.375" fill="black" text-anchor="end" font-family="Anuphan">3x3</text>
<text x="-0.037500000000000006" y="3.966749999999837" font-size="0.375" fill="black" text-anchor="start" font-family="Anuphan" font-weight="600">Output 2</text>
</g>
<g id="d7">
<rect x="0.005" y="0.005" width="1.1609999999999456" height="1.1609999999999456" fill="#FF4136" />
<rect x="1.1709999999999454" y="0.005" width="1.1609999999999456" height="1.1609999999999456" fill="#FF4136" />
<rect x="2.336999999999891" y="0.005" width="1.1609999999999456" height="1.1609999999999456" fill="#FF4136" />
<rect x="0.005" y="1.1709999999999454" width="1.1609999999999456" height="1.1609999999999456" fill="#FFDC00" />
<rect x="1.1709999999999454" y="1.1709999999999454" width="1.1609999999999456" height="1.1609999999999456" fill="#FFDC00" />
<rect x="2.336999999999891" y="1.1709999999999454" width="1.1609999999999456" height="1.1609999999999456" fill="#FFDC00" />
<rect x="0.005" y="2.336999999999891" width="1.1609999999999456" height="1.1609999999999456" fill="#FF4136" />
<rect x="1.1709999999999454" y="2.336999999999891" width="1.1609999999999456" height="1.1609999999999456" fill="#FF4136" />
<rect x="2.336999999999891" y="2.336999999999891" width="1.1609999999999456" height="1.1609999999999456" fill="#FF4136" />
<rect x="-0.02666666666666667" y="-0.02666666666666667" width="3.55133333333317" height="3.55133333333317" fill="none" stroke="#111111ff" stroke-width="0.08" />
<text x="3.497999999999837" y="3.966749999999837" font-size="0.375" fill="black" text-anchor="end" font-family="Anuphan">3x3</text>
<text x="-0.037500000000000006" y="3.966749999999837" font-size="0.375" fill="black" text-anchor="start" font-family="Anuphan" font-weight="600">Output 3</text>
</g>
<g id="d8">
<rect x="0.005" y="0.005" width="1.1609999999999456" height="1.1609999999999456" fill="#FFDC00" />
<rect x="1.1709999999999454" y="0.005" width="1.1609999999999456" height="1.1609999999999456" fill="#FFDC00" />
<rect x="2.336999999999891" y="0.005" width="1.1609999999999456" height="1.1609999999999456" fill="#FFDC00" />
<rect x="0.005" y="1.1709999999999454" width="1.1609999999999456" height="1.1609999999999456" fill="#37D449" />
<rect x="1.1709999999999454" y="1.1709999999999454" width="1.1609999999999456" height="1.1609999999999456" fill="#37D449" />
<rect x="2.336999999999891" y="1.1709999999999454" width="1.1609999999999456" height="1.1609999999999456" fill="#37D449" />
<rect x="0.005" y="2.336999999999891" width="1.1609999999999456" height="1.1609999999999456" fill="#FFDC00" />
<rect x="1.1709999999999454" y="2.336999999999891" width="1.1609999999999456" height="1.1609999999999456" fill="#FFDC00" />
<rect x="2.336999999999891" y="2.336999999999891" width="1.1609999999999456" height="1.1609999999999456" fill="#FFDC00" />
<rect x="-0.02666666666666667" y="-0.02666666666666667" width="3.55133333333317" height="3.55133333333317" fill="none" stroke="#111111ff" stroke-width="0.08" />
<text x="3.497999999999837" y="3.966749999999837" font-size="0.375" fill="black" text-anchor="end" font-family="Anuphan">3x3</text>
<text x="-0.037500000000000006" y="3.966749999999837" font-size="0.375" fill="black" text-anchor="start" font-family="Anuphan" font-weight="600">Output 4</text>
</g>
</defs>
<rect x="0" y="0" width="100%" height="100%" fill="#eeeff6" />
<use xlink:href="#d0" x="0.24999999999999978" y="0.25" />
<use xlink:href="#d1" x="4.247999999999837" y="0.25" />
<use xlink:href="#d2" x="8.245999999999674" y="0.25" />
<use xlink:href="#d3" x="12.24399999999951" y="0.25" />
<use xlink:href="#d4" x="16.241999999999347" y="0.25" />
<path d="M1.9989999999999184,4.397999999999837 L1.9989999999999184,4.7979999999998375" stroke-width="0.05" stroke="#888888" />
<path d="M1.8489999999999185,4.597999999999837 L1.9989999999999184,4.7979999999998375" stroke-width="0.05" stroke="#888888" />
<path d="M2.1489999999999183,4.597999999999837 L1.9989999999999184,4.7979999999998375" stroke-width="0.05" stroke="#888888" />
<use xlink:href="#d5" x="0.24999999999999978" y="5.147999999999837" />
<path d="M5.996999999999755,4.397999999999837 L5.996999999999755,4.7979999999998375" stroke-width="0.05" stroke="#888888" />
<path d="M5.846999999999754,4.597999999999837 L5.996999999999755,4.7979999999998375" stroke-width="0.05" stroke="#888888" />
<path d="M6.146999999999755,4.597999999999837 L5.996999999999755,4.7979999999998375" stroke-width="0.05" stroke="#888888" />
<use xlink:href="#d6" x="4.247999999999837" y="5.147999999999837" />
<path d="M9.994999999999592,4.397999999999837 L9.994999999999592,4.7979999999998375" stroke-width="0.05" stroke="#888888" />
<path d="M9.844999999999592,4.597999999999837 L9.994999999999592,4.7979999999998375" stroke-width="0.05" stroke="#888888" />
<path d="M10.144999999999593,4.597999999999837 L9.994999999999592,4.7979999999998375" stroke-width="0.05" stroke="#888888" />
<use xlink:href="#d7" x="8.245999999999674" y="5.147999999999837" />
<path d="M13.992999999999428,4.397999999999837 L13.992999999999428,4.7979999999998375" stroke-width="0.05" stroke="#888888" />
<path d="M13.842999999999428,4.597999999999837 L13.992999999999428,4.7979999999998375" stroke-width="0.05" stroke="#888888" />
<path d="M14.142999999999429,4.597999999999837 L13.992999999999428,4.7979999999998375" stroke-width="0.05" stroke="#888888" />
<use xlink:href="#d8" x="12.24399999999951" y="5.147999999999837" />
<path d="M17.990999999999264,4.397999999999837 L17.990999999999264,4.7979999999998375" stroke-width="0.05" stroke="#888888" />
<path d="M17.840999999999266,4.597999999999837 L17.990999999999264,4.7979999999998375" stroke-width="0.05" stroke="#888888" />
<path d="M18.140999999999263,4.597999999999837 L17.990999999999264,4.7979999999998375" stroke-width="0.05" stroke="#888888" />
<text x="17.990999999999264" y="6.996999999999755" font-size="1" font-family="Anuphan" font-weight="700" fill="#333333" text-anchor="middle" alignment-baseline="middle">?</text>
<text x="19.9" y="9.5" font-size="0.3" font-family="Anuphan" font-weight="600" fill="#666666" text-anchor="end" alignment-baseline="bottom">Task a85d4709</text>
</svg>