<?xml version="1.0" encoding="UTF-8"?>
<svg xmlns="http://www.w3.org/2000/svg" xmlns:xlink="http://www.w3.org/1999/xlink"
     width="800.0" height="536.0" viewBox="0 0 20.0 13.399999999999999">
<defs>
<g id="d0">
<rect x="0.005" y="0.005" width="0.3817499999999929" height="0.3817499999999929" fill="#252525" />
<rect x="0.3917499999999929" y="0.005" width="0.3817499999999929" height="0.3817499999999929" fill="#252525" />
<rect x="0.7784999999999858" y="0.005" width="0.3817499999999929" height="0.3817499999999929" fill="#252525" />
<rect x="1.1652499999999786" y="0.005" width="0.3817499999999929" height="0.3817499999999929" fill="#252525" />
<rect x="1.5519999999999714" y="0.005" width="0.3817499999999929" height="0.3817499999999929" fill="#252525" />
<rect x="1.9387499999999642" y="0.005" width="0.3817499999999929" height="0.3817499999999929" fill="#252525" />
<rect x="2.3254999999999573" y="0.005" width="0.3817499999999929" height="0.3817499999999929" fill="#252525" />
<rect x="2.71224999999995" y="0.005" width="0.3817499999999929" height="0.3817499999999929" fill="#252525" />
<rect x="3.098999999999943" y="0.005" width="0.3817499999999929" height="0.3817499999999929" fill="#252525" />
<rect x="3.485749999999936" y="0.005" width="0.3817499999999929" height="0.3817499999999929" fill="#252525" />
<rect x="0.005" y="0.3917499999999929" width="0.3817499999999929" height="0.3817499999999929" fill="#252525" />
<rect x="0.3917499999999929" y="0.3917499999999929" width="0.3817499999999929" height="0.3817499999999929" fill="#252525" />
<rect x="0.7784999999999858" y="0.3917499999999929" width="0.3817499999999929" height="0.3817499999999929" fill="#252525" />
<rect x="1.1652499999999786" y="0.3917499999999929" width="0.3817499999999929" height="0.3817499999999929" fill="#252525" />
<rect x="1.5519999999999714" y="0.3917499999999929" width="0.3817499999999929" height="0.3817499999999929" fill="#252525" />
<rect x="1.9387499999999642" y="0.3917499999999929" width="0.3817499999999929" height="0.3817499999999929" fill="#252525" />
<rect x="2.3254999999999573" y="0.3917499999999929" width="0.3817499999999929" height="0.3817499999999929" fill="#252525" />
<rect x="2.71224999999995" y="0.3917499999999929" width="0.3817499999999929" height="0.3817499999999929" fill="#252525" />
<rect x="3.098999999999943" y="0.3917499999999929" width="0.3817499999999929" height="0.3817499999999929" fill="#252525" />
<rect x="3.485749999999936" y="0.3917499999999929" width="0.3817499999999929" height="0.3817499999999929" fill="#252525" />
<rect x="0.005" y="0.7784999999999858" width="0.3817499999999929" height="0.3817499999999929" fill="#252525" />
<rect x="0.3917499999999929" y="0.7784999999999858" width="0.3817499999999929" height="0.3817499999999929" fill="#54D2EB" />
<rect x="0.7784999999999858" y="0.7784999999999858" width="0.3817499999999929" height="0.3817499999999929" fill="#54D2EB" />
<rect x="1.1652499999999786" y="0.7784999999999858" width="0.3817499999999929" height="0.3817499999999929" fill="#54D2EB" />
<rect x="1.5519999999999714" y="0.7784999999999858" width="0.3817499999999929" height="0.3817499999999929" fill="#252525" />
<rect x="1.9387499999999642" y="0.7784999999999858" width="0.3817499999999929" height="0.3817499999999929" fill="#252525" />
<rect x="2.3254999999999573" y="0.7784999999999858" width="0.3817499999999929" height="0.3817499999999929" fill="#252525" />
<rect x="2.71224999999995" y="0.7784999999999858" width="0.3817499999999929" height="0.3817499999999929" fill="#252525" />
<rect x="3.098999999999943" y="0.7784999999999858" width="0.3817499999999929" height="0.3817499999999929" fill="#252525" />
<rect x="3.485749999999936" y="0.7784999999999858" width="0.3817499999999929" height="0.3817499999999929" fill="#252525" />
<rect x="0.005" y="1.1652499999999786" width="0.3817499999999929" height="0.3817499999999929" fill="#252525" />
<rect x="0.3917499999999929" y="1.1652499999999786" width="0.3817499999999929" height="0.3817499999999929" fill="#54D2EB" />
<rect x="0.7784999999999858" y="1.1652499999999786" width="0.3817499999999929" height="0.3817499999999929" fill="#252525" />
<rect x="1.1652499999999786" y="1.1652499999999786" width="0.3817499999999929" height="0.3817499999999929" fill="#252525" />
<rect x="1.5519999999999714" y="1.1652499999999786" width="0.3817499999999929" height="0.3817499999999929" fill="#252525" />
<rect x="1.9387499999999642" y="1.1652499999999786" width="0.3817499999999929" height="0.3817499999999929" fill="#252525" />
<rect x="2.3254999999999573" y="1.1652499999999786" width="0.3817499999999929" height="0.3817499999999929" fill="#252525" />
<rect x="2.71224999999995" y="1.1652499999999786" width="0.3817499999999929" height="0.3817499999999929" fill="#252525" />
<rect x="3.098999999999943" y="1.1652499999999786" width="0.3817499999999929" height="0.3817499999999929" fill="#252525" />
<rect x="3.485749999999936" y="1.1652499999999786" width="0.3817499999999929" height="0.3817499999999929" fill="#252525" />
<rect x="0.005" y="1.5519999999999714" width="0.3817499999999929" height="0.3817499999999929" fill="#252525" />
<rect x="0.3917499999999929" y="1.5519999999999714" width="0.3817499999999929" height="0.3817499999999929" fill="#54D2EB" />
<rect x="0.7784999999999858" y="1.5519999999999714" width="0.3817499999999929" height="0.3817499999999929" fill="#54D2EB" />
<rect x="1.1652499999999786" y="1.5519999999999714" width="0.3817499999999929" height="0.3817499999999929" fill="#54D2EB" />
<rect x="1.5519999999999714" y="1.5519999999999714" width="0.3817499999999929" height="0.3817499999999929" fill="#54D2EB" />
<rect x="1.9387499999999642" y="1.5519999999999714" width="0.3817499999999929" height="0.3817499999999929" fill="#252525" />
<rect x="2.3254999999999573" y="1.5519999999999714" width="0.3817499999999929" height="0.3817499999999929" fill="#252525" />
<rect x="2.71224999999995" y="1.5519999999999714" width="0.3817499999999929" height="0.3817499999999929" fill="#252525" />
<rect x="3.098999999999943" y="1.5519999999999714" width="0.3817499999999929" height="0.3817499999999929" fill="#252525" />
<rect x="3.485749999999936" y="1.5519999999999714" width="0.3817499999999929" height="0.3817499999999929" fill="#252525" />
<rect x="0.005" y="1.9387499999999642" width="0.3817499999999929" height="0.3817499999999929" fill="#252525" />
<rect x="0.3917499999999929" y="1.9387499999999642" width="0.3817499999999929" height="0.3817499999999929" fill="#54D2EB" />
<rect x="0.7784999999999858" y="1.9387499999999642" width="0.3817499999999929" height="0.3817499999999929" fill="#54D2EB" />
<rect x="1.1652499999999786" y="1.9387499999999642" width="0.3817499999999929" height="0.3817499999999929" fill="#252525" />
<rect x="1.5519999999999714" y="1.9387499999999642" width="0.3817499999999929" height="0.3817499999999929" fill="#252525" />
<rect x="1.9387499999999642" y="1.9387499999999642" width="0.3817499999999929" height="0.3817499999999929" fill="#252525" />
<rect x="2.3254999999999573" y="1.9387499999999642" width="0.3817499999999929" height="0.3817499999999929" fill="#252525" />
<rect x="2.71224999999995" y="1.9387499999999642" width="0.3817499999999929" height="0.3817499999999929" fill="#252525" />
<rect x="3.098999999999943" y="1.9387499999999642" width="0.3817499999999929" height="0.3817499999999929" fill="#252525" />
<rect x="3.485749999999936" y="1.9387499999999642" width="0.3817499999999929" height="0.3817499999999929" fill="#252525" />
<rect x="0.005" y="2.3254999999999573" width="0.3817499999999929" height="0.3817499999999929" fill="#252525" />
<rect x="0.3917499999999929" y="2.3254999999999573" width="0.3817499999999929" height="0.3817499999999929" fill="#54D2EB" />
<rect x="0.7784999999999858" y="2.3254999999999573" width="0.3817499999999929" height="0.3817499999999929" fill="#54D2EB" />
<rect x="1.1652499999999786" y="2.3254999999999573" width="0.3817499999999929" height="0.3817499999999929" fill="#54D2EB" />
<rect x="1.5519999999999714" y="2.3254999999999573" width="0.3817499999999929" height="0.3817499999999929" fill="#252525" />
<rect x="1.9387499999999642" y="2.3254999999999573" width="0.3817499999999929" height="0.3817499999999929" fill="#252525" />
<rect x="2.3254999999999573" y="2.3254999999999573" width="0.3817499999999929" height="0.3817499999999929" fill="#252525" />
<rect x="2.71224999999995" y="2.3254999999999573" width="0.3817499999999929" height="0.3817499999999929" fill="#252525" />
<rect x="3.098999999999943" y="2.3254999999999573" width="0.3817499999999929" height="0.3817499999999929" fill="#252525" />
<rect x="3.485749999999936" y="2.3254999999999573" width="0.3817499999999929" height="0.3817499999999929" fill="#252525" />
<rect x="0.005" y="2.71224999999995" width="0.3817499999999929" height="0.3817499999999929" fill="#252525" />
<rect x="0.3917499999999929" y="2.71224999999995" width="0.3817499999999929" height="0.3817499999999929" fill="#54D2EB" />
<rect x="0.7784999999999858" y="2.71224999999995" width="0.3817499999999929" height="0.3817499999999929" fill="#252525" />
<rect x="1.1652499999999786" y="2.71224999999995" width="0.3817499999999929" height="0.3817499999999929" fill="#252525" />
<rect x="1.5519999999999714" y="2.71224999999995" width="0.3817499999999929" height="0.3817499999999929" fill="#252525" />
<rect x="1.9387499999999642" y="2.71224999999995" width="0.3817499999999929" height="0.3817499999999929" fill="#252525" />
<rect x="2.3254999999999573" y="2.71224999999995" width="0.3817499999999929" height="0.3817499999999929" fill="#252525" />
<rect x="2.71224999999995" y="2.71224999999995" width="0.3817499999999929" height="0.3817499999999929" fill="#252525" />
<rect x="3.098999999999943" y="2.71224999999995" width="0.3817499999999929" height="0.3817499999999929" fill="#252525" />
<rect x="3.485749999999936" y="2.71224999999995" width="0.3817499999999929" height="0.3817499999999929" fill="#252525" />
<rect x="0.005" y="3.098999999999943" width="0.3817499999999929" height="0.3817499999999929" fill="#252525" />
<rect x="0.3917499999999929" y="3.098999999999943" width="0.3817499999999929" height="0.3817499999999929" fill="#54D2EB" />
<rect x="0.7784999999999858" y="3.098999999999943" width="0.3817499999999929" height="0.3817499999999929" fill="#54D2EB" />
<rect x="1.1652499999999786" y="3.098999999999943" width="0.3817499999999929" height="0.3817499999999929" fill="#54D2EB" />
<rect x="1.5519999999999714" y="3.098999999999943" width="0.3817499999999929" height="0.3817499999999929" fill="#252525" />
<rect x="1.9387499999999642" y="3.098999999999943" width="0.3817499999999929" height="0.3817499999999929" fill="#252525" />
<rect x="2.3254999999999573" y="3.098999999999943" width="0.3817499999999929" height="0.3817499999999929" fill="#252525" />
<rect x="2.71224999999995" y="3.098999999999943" width="0.3817499999999929" height="0.3817499999999929" fill="#252525" />
<rect x="3.098999999999943" y="3.098999999999943" width="0.3817499999999929" height="0.3817499999999929" fill="#252525" />
<rect x="3.485749999999936" y="3.098999999999943" width="0.3817499999999929" height="0.3817499999999929" fill="#252525" />
<rect x="0.005" y="3.485749999999936" width="0.3817499999999929" height="0.3817499999999929" fill="#252525" />
<rect x="0.3917499999999929" y="3.485749999999936" width="0.3817499999999929" height="0.3817499999999929" fill="#54D2EB" />
<rect x="0.7784999999999858" y="3.485749999999936" width="0.3817499999999929" height="0.3817499999999929" fill="#54D2EB" />
<rect x="1.1652499999999786" y="3.485749999999936" width="0.3817499999999929" height="0.3817499999999929" fill="#54D2EB" />
<rect x="1.5519999999999714" y="3.485749999999936" width="0.3817499999999929" height="0.3817499999999929" fill="#252525" />
<rect x="1.9387499999999642" y="3.485749999999936" width="0.3817499999999929" height="0.3817499999999929" fill="#252525" />
<rect x="2.3254999999999573" y="3.485749999999936" width="0.3817499999999929" height="0.3817499999999929" fill="#252525" />
<rect x="2.71224999999995" y="3.485749999999936" width="0.3817499999999929" height="0.3817499999999929" fill="#252525" />
<rect x="3.098999999999943" y="3.485749999999936" width="0.3817499999999929" height="0.3817499999999929" fill="#252525" />
<rect x="3.485749999999936" y="3.485749999999936" width="0.3817499999999929" height="0.3817499999999929" fill="#252525" />
<rect x="0.005" y="3.8724999999999286" width="0.3817499999999929" height="0.3817499999999929" fill="#252525" />
<rect x="0.3917499999999929" y="3.8724999999999286" width="0.3817499999999929" height="0.3817499999999929" fill="#54D2EB" />
<rect x="0.7784999999999858" y="3.8724999999999286" width="0.3817499999999929" height="0.3817499999999929" fill="#54D2EB" />
<rect x="1.1652499999999786" y="3.8724999999999286" width="0.3817499999999929" height="0.3817499999999929" fill="#252525" />
<rect x="1.5519999999999714" y="3.8724999999999286" width="0.3817499999999929" height="0.3817499999999929" fill="#252525" />
<rect x="1.9387499999999642" y="3.8724999999999286" width="0.3817499999999929" height="0.3817499999999929" fill="#252525" />
<rect x="2.3254999999999573" y="3.8724999999999286" width="0.3817499999999929" height="0.3817499999999929" fill="#252525" />
<rect x="2.71224999999995" y="3.8724999999999286" width="0.3817499999999929" height="0.3817499999999929" fill="#252525" />
<rect x="3.098999999999943" y="3.8724999999999286" width="0.3817499999999929" height="0.3817499999999929" fill="#252525" />
<rect x="3.485749999999936" y="3.8724999999999286" width="0.3817499999999929" height="0.3817499999999929" fill="#252525" />
<rect x="0.005" y="4.259249999999922" width="0.3817499999999929" height="0.3817499999999929" fill="#252525" />
<rect x="0.3917499999999929" y="4.259249999999922" width="0.3817499999999929" height="0.3817499999999929" fill="#252525" />
<rect x="0.7784999999999858" y="4.259249999999922" width="0.3817499999999929" height="0.3817499999999929" fill="#252525" />
<rect x="1.1652499999999786" y="4.259249999999922" width="0.3817499999999929" height="0.3817499999999929" fill="#252525" />
<rect x="1.5519999999999714" y="4.259249999999922" width="0.3817499999999929" height="0.3817499999999929" fill="#252525" />
<rect x="1.9387499999999642" y="4.259249999999922" width="0.3817499999999929" height="0.3817499999999929" fill="#252525" />
<rect x="2.3254999999999573" y="4.259249999999922" width="0.3817499999999929" height="0.3817499999999929" fill="#252525" />
<rect x="2.71224999999995" y="4.259249999999922" width="0.3817499999999929" height="0.3817499999999929" fill="#252525" />
<rect x="3.098999999999943" y="4.259249999999922" width="0.3817499999999929" height="0.3817499999999929" fill="#252525" />
<rect x="3.485749999999936" y="4.259249999999922" width="0.3817499999999929" height="0.3817499999999929" fill="#252525" />
<rect x="0.005" y="4.645999999999915" width="0.3817499999999929" height="0.3817499999999929" fill="#252525" />
<rect x="0.3917499999999929" y="4.645999999999915" width="0.3817499999999929" height="0.3817499999999929" fill="#252525" />
<rect x="0.7784999999999858" y="4.645999999999915" width="0.3817499999999929" height="0.3817499999999929" fill="#252525" />
<rect x="1.1652499999999786" y="4.645999999999915" width="0.3817499999999929" height="0.3817499999999929" fill="#252525" />
<rect x="1.5519999999999714" y="4.645999999999915" width="0.3817499999999929" height="0.3817499999999929" fill="#252525" />
<rect x="1.9387499999999642" y="4.645999999999915" width="0.3817499999999929" height="0.3817499999999929" fill="#252525" />
<rect x="2.3254999999999573" y="4.645999999999915" width="0.3817499999999929" height="0.3817499999999929" fill="#252525" />
<rect x="2.71224999999995" y="4.645999999999915" width="0.3817499999999929" height="0.3817499999999929" fill="#252525" />
<rect x="3.098999999999943" y="4.645999999999915" width="0.3817499999999929" height="0.3817499999999929" fill="#252525" />
<rect x="3.485749999999936" y="4.645999999999915" width="0.3817499999999929" height="0.3817499999999929" fill="#252525" />
<rect x="0.005" y="5.032749999999908" width="0.3817499999999929" height="0.3817499999999929" fill="#252525" />
<rect x="0.3917499999999929" y="5.032749999999908" width="0.3817499999999929" height="0.3817499999999929" fill="#252525" />
<rect x="0.7784999999999858" y="5.032749999999908" width="0.3817499999999929" height="0.3817499999999929" fill="#252525" />
<rect x="1.1652499999999786" y="5.032749999999908" width="0.3817499999999929" height="0.3817499999999929" fill="#252525" />
<rect x="1.5519999999999714" y="5.032749999999908" width="0.3817499999999929" height="0.3817499999999929" fill="#252525" />
<rect x="1.9387499999999642" y="5.032749999999908" width="0.3817499999999929" height="0.3817499999999929" fill="#252525" />
<rect x="2.3254999999999573" y="5.032749999999908" width="0.3817499999999929" height="0.3817499999999929" fill="#252525" />
<rect x="2.71224999999995" y="5.032749999999908" width="0.3817499999999929" height="0.3817499999999929" fill="#252525" />
<rect x="3.098999999999943" y="5.032749999999908" width="0.3817499999999929" height="0.3817499999999929" fill="#252525" />
<rect x="3.485749999999936" y="5.032749999999908" width="0.3817499999999929" height="0.3817499999999929" fill="#252525" />
<rect x="-0.02666666666666667" y="-0.02666666666666667" width="3.920833333333262" height="5.467833333333234" fill="none" stroke="#111111ff" stroke-width="0.08" />
<text x="3.8674999999999287" y="5.8832499999999" font-size="0.375" fill="black" text-anchor="end" font-family="Anuphan">10x14</text>
<text x="-0.037500000000000006" y="5.8832499999999" font-size="0.375" fill="black" text-anchor="start" font-family="Anuphan" font-weight="600">Input 1</text>
</g>
<g id="d1">
<rect x="0.005" y="0.005" width="0.5834374999999817" height="0.5834374999999817" fill="#252525" />
<rect x="0.5934374999999817" y="0.005" width="0.5834374999999817" height="0.5834374999999817" fill="#252525" />
<rect x="1.1818749999999634" y="0.005" width="0.5834374999999817" height="0.5834374999999817" fill="#252525" />
<rect x="1.770312499999945" y="0.005" width="0.5834374999999817" height="0.5834374999999817" fill="#252525" />
<rect x="2.358749999999927" y="0.005" width="0.5834374999999817" height="0.5834374999999817" fill="#252525" />
<rect x="2.9471874999999086" y="0.005" width="0.5834374999999817" height="0.5834374999999817" fill="#252525" />
<rect x="3.5356249999998903" y="0.005" width="0.5834374999999817" height="0.5834374999999817" fill="#252525" />
<rect x="4.124062499999872" y="0.005" width="0.5834374999999817" height="0.5834374999999817" fill="#252525" />
<rect x="0.005" y="0.5934374999999817" width="0.5834374999999817" height="0.5834374999999817" fill="#252525" />
<rect x="0.5934374999999817" y="0.5934374999999817" width="0.5834374999999817" height="0.5834374999999817" fill="#54D2EB" />
<rect x="1.1818749999999634" y="0.5934374999999817" width="0.5834374999999817" height="0.5834374999999817" fill="#54D2EB" />
<rect x="1.770312499999945" y="0.5934374999999817" width="0.5834374999999817" height="0.5834374999999817" fill="#54D2EB" />
<rect x="2.358749999999927" y="0.5934374999999817" width="0.5834374999999817" height="0.5834374999999817" fill="#54D2EB" />
<rect x="2.9471874999999086" y="0.5934374999999817" width="0.5834374999999817" height="0.5834374999999817" fill="#54D2EB" />
<rect x="3.5356249999998903" y="0.5934374999999817" width="0.5834374999999817" height="0.5834374999999817" fill="#54D2EB" />
<rect x="4.124062499999872" y="0.5934374999999817" width="0.5834374999999817" height="0.5834374999999817" fill="#252525" />
<rect x="0.005" y="1.1818749999999634" width="0.5834374999999817" height="0.5834374999999817" fill="#252525" />
<rect x="0.5934374999999817" y="1.1818749999999634" width="0.5834374999999817" height="0.5834374999999817" fill="#54D2EB" />
<rect x="1.1818749999999634" y="1.1818749999999634" width="0.5834374999999817" height="0.5834374999999817" fill="#252525" />
<rect x="1.770312499999945" y="1.1818749999999634" width="0.5834374999999817" height="0.5834374999999817" fill="#54D2EB" />
<rect x="2.358749999999927" y="1.1818749999999634" width="0.5834374999999817" height="0.5834374999999817" fill="#54D2EB" />
<rect x="2.9471874999999086" y="1.1818749999999634" width="0.5834374999999817" height="0.5834374999999817" fill="#252525" />
<rect x="3.5356249999998903" y="1.1818749999999634" width="0.5834374999999817" height="0.5834374999999817" fill="#54D2EB" />
<rect x="4.124062499999872" y="1.1818749999999634" width="0.5834374999999817" height="0.5834374999999817" fill="#252525" />
<rect x="0.005" y="1.770312499999945" width="0.5834374999999817" height="0.5834374999999817" fill="#252525" />
<rect x="0.5934374999999817" y="1.770312499999945" width="0.5834374999999817" height="0.5834374999999817" fill="#54D2EB" />
<rect x="1.1818749999999634" y="1.770312499999945" width="0.5834374999999817" height="0.5834374999999817" fill="#252525" />
<rect x="1.770312499999945" y="1.770312499999945" width="0.5834374999999817" height="0.5834374999999817" fill="#54D2EB" />
<rect x="2.358749999999927" y="1.770312499999945" width="0.5834374999999817" height="0.5834374999999817" fill="#252525" />
<rect x="2.9471874999999086" y="1.770312499999945" width="0.5834374999999817" height="0.5834374999999817" fill="#252525" />
<rect x="3.5356249999998903" y="1.770312499999945" width="0.5834374999999817" height="0.5834374999999817" fill="#54D2EB" />
<rect x="4.124062499999872" y="1.770312499999945" width="0.5834374999999817" height="0.5834374999999817" fill="#252525" />
<rect x="0.005" y="2.358749999999927" width="0.5834374999999817" height="0.5834374999999817" fill="#252525" />
<rect x="0.5934374999999817" y="2.358749999999927" width="0.5834374999999817" height="0.5834374999999817" fill="#252525" />
<rect x="1.1818749999999634" y="2.358749999999927" width="0.5834374999999817" height="0.5834374999999817" fill="#252525" />
<rect x="1.770312499999945" y="2.358749999999927" width="0.5834374999999817" height="0.5834374999999817" fill="#54D2EB" />
<rect x="2.358749999999927" y="2.358749999999927" width="0.5834374999999817" height="0.5834374999999817" fill="#252525" />
<rect x="2.9471874999999086" y="2.358749999999927" width="0.5834374999999817" height="0.5834374999999817" fill="#54D2EB" />
<rect x="3.5356249999998903" y="2.358749999999927" width="0.5834374999999817" height="0.5834374999999817" fill="#54D2EB" />
<rect x="4.124062499999872" y="2.358749999999927" width="0.5834374999999817" height="0.5834374999999817" fill="#252525" />
<rect x="0.005" y="2.9471874999999086" width="0.5834374999999817" height="0.5834374999999817" fill="#252525" />
<rect x="0.5934374999999817" y="2.9471874999999086" width="0.5834374999999817" height="0.5834374999999817" fill="#252525" />
<rect x="1.1818749999999634" y="2.9471874999999086" width="0.5834374999999817" height="0.5834374999999817" fill="#252525" />
<rect x="1.770312499999945" y="2.9471874999999086" width="0.5834374999999817" height="0.5834374999999817" fill="#252525" />
<rect x="2.358749999999927" y="2.9471874999999086" width="0.5834374999999817" height="0.5834374999999817" fill="#252525" />
<rect x="2.9471874999999086" y="2.9471874999999086" width="0.5834374999999817" height="0.5834374999999817" fill="#252525" />
<rect x="3.5356249999998903" y="2.9471874999999086" width="0.5834374999999817" height="0.5834374999999817" fill="#252525" />
<rect x="4.124062499999872" y="2.9471874999999086" width="0.5834374999999817" height="0.5834374999999817" fill="#252525" />
<rect x="0.005" y="3.5356249999998903" width="0.5834374999999817" height="0.5834374999999817" fill="#252525" />
<rect x="0.5934374999999817" y="3.5356249999998903" width="0.5834374999999817" height="0.5834374999999817" fill="#252525" />
<rect x="1.1818749999999634" y="3.5356249999998903" width="0.5834374999999817" height="0.5834374999999817" fill="#252525" />
<rect x="1.770312499999945" y="3.5356249999998903" width="0.5834374999999817" height="0.5834374999999817" fill="#252525" />
<rect x="2.358749999999927" y="3.5356249999998903" width="0.5834374999999817" height="0.5834374999999817" fill="#252525" />
<rect x="2.9471874999999086" y="3.5356249999998903" width="0.5834374999999817" height="0.5834374999999817" fill="#252525" />
<rect x="3.5356249999998903" y="3.5356249999998903" width="0.5834374999999817" height="0.5834374999999817" fill="#252525" />
<rect x="4.124062499999872" y="3.5356249999998903" width="0.5834374999999817" height="0.5834374999999817" fill="#252525" />
<rect x="-0.02666666666666667" y="-0.02666666666666667" width="4.760833333333188" height="4.172395833333206" fill="none" stroke="#111111ff" stroke-width="0.08" />
<text x="4.707499999999854" y="4.587812499999872" font-size="0.375" fill="black" text-anchor="end" font-family="Anuphan">8x7</text>
<text x="-0.037500000000000006" y="4.587812499999872" font-size="0.375" fill="black" text-anchor="start" font-family="Anuphan" font-weight="600">Input 2</text>
</g>
<g id="d2">
<rect x="0.005" y="0.005" width="0.5834374999999817" height="0.5834374999999817" fill="#252525" />
<rect x="0.5934374999999817" y="0.005" width="0.5834374999999817" height="0.5834374999999817" fill="#252525" />
<rect x="1.1818749999999634" y="0.005" width="0.5834374999999817" height="0.5834374999999817" fill="#252525" />
<rect x="1.770312499999945" y="0.005" width="0.5834374999999817" height="0.5834374999999817" fill="#252525" />
<rect x="2.358749999999927" y="0.005" width="0.5834374999999817" height="0.5834374999999817" fill="#252525" />
<rect x="2.9471874999999086" y="0.005" width="0.5834374999999817" height="0.5834374999999817" fill="#252525" />
<rect x="3.5356249999998903" y="0.005" width="0.5834374999999817" height="0.5834374999999817" fill="#252525" />
<rect x="4.124062499999872" y="0.005" width="0.5834374999999817" height="0.5834374999999817" fill="#252525" />
<rect x="0.005" y="0.5934374999999817" width="0.5834374999999817" height="0.5834374999999817" fill="#252525" />
<rect x="0.5934374999999817" y="0.5934374999999817" width="0.5834374999999817" height="0.5834374999999817" fill="#54D2EB" />
<rect x="1.1818749999999634" y="0.5934374999999817" width="0.5834374999999817" height="0.5834374999999817" fill="#54D2EB" />
<rect x="1.770312499999945" y="0.5934374999999817" width="0.5834374999999817" height="0.5834374999999817" fill="#54D2EB" />
<rect x="2.358749999999927" y="0.5934374999999817" width="0.5834374999999817" height="0.5834374999999817" fill="#54D2EB" />
<rect x="2.9471874999999086" y="0.5934374999999817" width="0.5834374999999817" height="0.5834374999999817" fill="#54D2EB" />
<rect x="3.5356249999998903" y="0.5934374999999817" width="0.5834374999999817" height="0.5834374999999817" fill="#252525" />
<rect x="4.124062499999872" y="0.5934374999999817" width="0.5834374999999817" height="0.5834374999999817" fill="#252525" />
<rect x="0.005" y="1.1818749999999634" width="0.5834374999999817" height="0.5834374999999817" fill="#252525" />
<rect x="0.5934374999999817" y="1.1818749999999634" width="0.5834374999999817" height="0.5834374999999817" fill="#252525" />
<rect x="1.1818749999999634" y="1.1818749999999634" width="0.5834374999999817" height="0.5834374999999817" fill="#252525" />
<rect x="1.770312499999945" y="1.1818749999999634" width="0.5834374999999817" height="0.5834374999999817" fill="#54D2EB" />
<rect x="2.358749999999927" y="1.1818749999999634" width="0.5834374999999817" height="0.5834374999999817" fill="#252525" />
<rect x="2.9471874999999086" y="1.1818749999999634" width="0.5834374999999817" height="0.5834374999999817" fill="#54D2EB" />
<rect x="3.5356249999998903" y="1.1818749999999634" width="0.5834374999999817" height="0.5834374999999817" fill="#252525" />
<rect x="4.124062499999872" y="1.1818749999999634" width="0.5834374999999817" height="0.5834374999999817" fill="#252525" />
<rect x="0.005" y="1.770312499999945" width="0.5834374999999817" height="0.5834374999999817" fill="#252525" />
<rect x="0.5934374999999817" y="1.770312499999945" width="0.5834374999999817" height="0.5834374999999817" fill="#252525" />
<rect x="1.1818749999999634" y="1.770312499999945" width="0.5834374999999817" height="0.5834374999999817" fill="#54D2EB" />
<rect x="1.770312499999945" y="1.770312499999945" width="0.5834374999999817" height="0.5834374999999817" fill="#54D2EB" />
<rect x="2.358749999999927" y="1.770312499999945" width="0.5834374999999817" height="0.5834374999999817" fill="#54D2EB" />
<rect x="2.9471874999999086" y="1.770312499999945" width="0.5834374999999817" height="0.5834374999999817" fill="#54D2EB" />
<rect x="3.5356249999998903" y="1.770312499999945" width="0.5834374999999817" height="0.5834374999999817" fill="#252525" />
<rect x="4.124062499999872" y="1.770312499999945" width="0.5834374999999817" height="0.5834374999999817" fill="#252525" />
<rect x="0.005" y="2.358749999999927" width="0.5834374999999817" height="0.5834374999999817" fill="#252525" />
<rect x="0.5934374999999817" y="2.358749999999927" width="0.5834374999999817" height="0.5834374999999817" fill="#252525" />
<rect x="1.1818749999999634" y="2.358749999999927" width="0.5834374999999817" height="0.5834374999999817" fill="#252525" />
<rect x="1.770312499999945" y="2.358749999999927" width="0.5834374999999817" height="0.5834374999999817" fill="#54D2EB" />
<rect x="2.358749999999927" y="2.358749999999927" width="0.5834374999999817" height="0.5834374999999817" fill="#54D2EB" />
<rect x="2.9471874999999086" y="2.358749999999927" width="0.5834374999999817" height="0.5834374999999817" fill="#54D2EB" />
<rect x="3.5356249999998903" y="2.358749999999927" width="0.5834374999999817" height="0.5834374999999817" fill="#252525" />
<rect x="4.124062499999872" y="2.358749999999927" width="0.5834374999999817" height="0.5834374999999817" fill="#252525" />
<rect x="0.005" y="2.9471874999999086" width="0.5834374999999817" height="0.5834374999999817" fill="#252525" />
<rect x="0.5934374999999817" y="2.9471874999999086" width="0.5834374999999817" height="0.5834374999999817" fill="#252525" />
<rect x="1.1818749999999634" y="2.9471874999999086" width="0.5834374999999817" height="0.5834374999999817" fill="#252525" />
<rect x="1.770312499999945" y="2.9471874999999086" width="0.5834374999999817" height="0.5834374999999817" fill="#252525" />
<rect x="2.358749999999927" y="2.9471874999999086" width="0.5834374999999817" height="0.5834374999999817" fill="#54D2EB" />
<rect x="2.9471874999999086" y="2.9471874999999086" width="0.5834374999999817" height="0.5834374999999817" fill="#54D2EB" />
<rect x="3.5356249999998903" y="2.9471874999999086" width="0.5834374999999817" height="0.5834374999999817" fill="#252525" />
<rect x="4.124062499999872" y="2.9471874999999086" width="0.5834374999999817" height="0.5834374999999817" fill="#252525" />
<rect x="0.005" y="3.5356249999998903" width="0.5834374999999817" height="0.5834374999999817" fill="#252525" />
<rect x="0.5934374999999817" y="3.5356249999998903" width="0.5834374999999817" height="0.5834374999999817" fill="#252525" />
<rect x="1.1818749999999634" y="3.5356249999998903" width="0.5834374999999817" height="0.5834374999999817" fill="#252525" />
<rect x="1.770312499999945" y="3.5356249999998903" width="0.5834374999999817" height="0.5834374999999817" fill="#54D2EB" />
<rect x="2.358749999999927" y="3.5356249999998903" width="0.5834374999999817" height="0.5834374999999817" fill="#54D2EB" />
<rect x="2.9471874999999086" y="3.5356249999998903" width="0.5834374999999817" height="0.5834374999999817" fill="#54D2EB" />
<rect x="3.5356249999998903" y="3.5356249999998903" width="0.5834374999999817" height="0.5834374999999817" fill="#252525" />
<rect x="4.124062499999872" y="3.5356249999998903" width="0.5834374999999817" height="0.5834374999999817" fill="#252525" />
<rect x="0.005" y="4.124062499999872" width="0.5834374999999817" height="0.5834374999999817" fill="#252525" />
<rect x="0.5934374999999817" y="4.124062499999872" width="0.5834374999999817" height="0.5834374999999817" fill="#252525" />
<rect x="1.1818749999999634" y="4.124062499999872" width="0.5834374999999817" height="0.5834374999999817" fill="#252525" />
<rect x="1.770312499999945" y="4.124062499999872" width="0.5834374999999817" height="0.5834374999999817" fill="#252525" />
<rect x="2.358749999999927" y="4.124062499999872" width="0.5834374999999817" height="0.5834374999999817" fill="#252525" />
<rect x="2.9471874999999086" y="4.124062499999872" width="0.5834374999999817" height="0.5834374999999817" fill="#252525" />
<rect x="3.5356249999998903" y="4.124062499999872" width="0.5834374999999817" height="0.5834374999999817" fill="#252525" />
<rect x="4.124062499999872" y="4.124062499999872" width="0.5834374999999817" height="0.5834374999999817" fill="#252525" />
<rect x="0.005" y="4.712499999999854" width="0.5834374999999817" height="0.5834374999999817" fill="#252525" />
<rect x="0.5934374999999817" y="4.712499999999854" width="0.5834374999999817" height="0.5834374999999817" fill="#252525" />
<rect x="1.1818749999999634" y="4.712499999999854" width="0.5834374999999817" height="0.5834374999999817" fill="#252525" />
<rect x="1.770312499999945" y="4.712499999999854" width="0.5834374999999817" height="0.5834374999999817" fill="#252525" />
<rect x="2.358749999999927" y="4.712499999999854" width="0.5834374999999817" height="0.5834374999999817" fill="#252525" />
<rect x="2.9471874999999086" y="4.712499999999854" width="0.5834374999999817" height="0.5834374999999817" fill="#252525" />
<rect x="3.5356249999998903" y="4.712499999999854" width="0.5834374999999817" height="0.5834374999999817" fill="#252525" />
<rect x="4.124062499999872" y="4.712499999999854" width="0.5834374999999817" height="0.5834374999999817" fill="#252525" />
<rect x="-0.02666666666666667" y="-0.02666666666666667" width="4.760833333333188" height="5.349270833333169" fill="none" stroke="#111111ff" stroke-width="0.08" />
<text x="4.707499999999854" y="5.764687499999836" font-size="0.375" fill="black" text-anchor="end" font-family="Anuphan">8x9</text>
<text x="-0.037500000000000006" y="5.764687499999836" font-size="0.375" fill="black" text-anchor="start" font-family="Anuphan" font-weight="600">Input 3</text>
</g>
<g id="d3">
<rect x="0.005" y="0.005" width="0.42295454545453215" height="0.42295454545453215" fill="#252525" />
<rect x="0.43295454545453216" y="0.005" width="0.42295454545453215" height="0.42295454545453215" fill="#252525" />
<rect x="0.8609090909090643" y="0.005" width="0.42295454545453215" height="0.42295454545453215" fill="#252525" />
<rect x="1.2888636363635964" y="0.005" width="0.42295454545453215" height="0.42295454545453215" fill="#252525" />
<rect x="1.7168181818181285" y="0.005" width="0.42295454545453215" height="0.42295454545453215" fill="#252525" />
<rect x="2.1447727272726604" y="0.005" width="0.42295454545453215" height="0.42295454545453215" fill="#252525" />
<rect x="2.572727272727193" y="0.005" width="0.42295454545453215" height="0.42295454545453215" fill="#252525" />
<rect x="3.000681818181725" y="0.005" width="0.42295454545453215" height="0.42295454545453215" fill="#252525" />
<rect x="3.428636363636257" y="0.005" width="0.42295454545453215" height="0.42295454545453215" fill="#252525" />
<rect x="3.856590909090789" y="0.005" width="0.42295454545453215" height="0.42295454545453215" fill="#252525" />
<rect x="4.284545454545321" y="0.005" width="0.42295454545453215" height="0.42295454545453215" fill="#252525" />
<rect x="0.005" y="0.43295454545453216" width="0.42295454545453215" height="0.42295454545453215" fill="#252525" />
<rect x="0.43295454545453216" y="0.43295454545453216" width="0.42295454545453215" height="0.42295454545453215" fill="#252525" />
<rect x="0.8609090909090643" y="0.43295454545453216" width="0.42295454545453215" height="0.42295454545453215" fill="#252525" />
<rect x="1.2888636363635964" y="0.43295454545453216" width="0.42295454545453215" height="0.42295454545453215" fill="#252525" />
<rect x="1.7168181818181285" y="0.43295454545453216" width="0.42295454545453215" height="0.42295454545453215" fill="#252525" />
<rect x="2.1447727272726604" y="0.43295454545453216" width="0.42295454545453215" height="0.42295454545453215" fill="#252525" />
<rect x="2.572727272727193" y="0.43295454545453216" width="0.42295454545453215" height="0.42295454545453215" fill="#252525" />
<rect x="3.000681818181725" y="0.43295454545453216" width="0.42295454545453215" height="0.42295454545453215" fill="#252525" />
<rect x="3.428636363636257" y="0.43295454545453216" width="0.42295454545453215" height="0.42295454545453215" fill="#252525" />
<rect x="3.856590909090789" y="0.43295454545453216" width="0.42295454545453215" height="0.42295454545453215" fill="#252525" />
<rect x="4.284545454545321" y="0.43295454545453216" width="0.42295454545453215" height="0.42295454545453215" fill="#252525" />
<rect x="0.005" y="0.8609090909090643" width="0.42295454545453215" height="0.42295454545453215" fill="#252525" />
<rect x="0.43295454545453216" y="0.8609090909090643" width="0.42295454545453215" height="0.42295454545453215" fill="#252525" />
<rect x="0.8609090909090643" y="0.8609090909090643" width="0.42295454545453215" height="0.42295454545453215" fill="#54D2EB" />
<rect x="1.2888636363635964" y="0.8609090909090643" width="0.42295454545453215" height="0.42295454545453215" fill="#252525" />
<rect x="1.7168181818181285" y="0.8609090909090643" width="0.42295454545453215" height="0.42295454545453215" fill="#252525" />
<rect x="2.1447727272726604" y="0.8609090909090643" width="0.42295454545453215" height="0.42295454545453215" fill="#252525" />
<rect x="2.572727272727193" y="0.8609090909090643" width="0.42295454545453215" height="0.42295454545453215" fill="#252525" />
<rect x="3.000681818181725" y="0.8609090909090643" width="0.42295454545453215" height="0.42295454545453215" fill="#252525" />
<rect x="3.428636363636257" y="0.8609090909090643" width="0.42295454545453215" height="0.42295454545453215" fill="#252525" />
<rect x="3.856590909090789" y="0.8609090909090643" width="0.42295454545453215" height="0.42295454545453215" fill="#252525" />
<rect x="4.284545454545321" y="0.8609090909090643" width="0.42295454545453215" height="0.42295454545453215" fill="#252525" />
<rect x="0.005" y="1.2888636363635964" width="0.42295454545453215" height="0.42295454545453215" fill="#252525" />
<rect x="0.43295454545453216" y="1.2888636363635964" width="0.42295454545453215" height="0.42295454545453215" fill="#252525" />
<rect x="0.8609090909090643" y="1.2888636363635964" width="0.42295454545453215" height="0.42295454545453215" fill="#54D2EB" />
<rect x="1.2888636363635964" y="1.2888636363635964" width="0.42295454545453215" height="0.42295454545453215" fill="#252525" />
<rect x="1.7168181818181285" y="1.2888636363635964" width="0.42295454545453215" height="0.42295454545453215" fill="#252525" />
<rect x="2.1447727272726604" y="1.2888636363635964" width="0.42295454545453215" height="0.42295454545453215" fill="#252525" />
<rect x="2.572727272727193" y="1.2888636363635964" width="0.42295454545453215" height="0.42295454545453215" fill="#54D2EB" />
<rect x="3.000681818181725" y="1.2888636363635964" width="0.42295454545453215" height="0.42295454545453215" fill="#54D2EB" />
<rect x="3.428636363636257" y="1.2888636363635964" width="0.42295454545453215" height="0.42295454545453215" fill="#252525" />
<rect x="3.856590909090789" y="1.2888636363635964" width="0.42295454545453215" height="0.42295454545453215" fill="#252525" />
<rect x="4.284545454545321" y="1.2888636363635964" width="0.42295454545453215" height="0.42295454545453215" fill="#252525" />
<rect x="0.005" y="1.7168181818181285" width="0.42295454545453215" height="0.42295454545453215" fill="#252525" />
<rect x="0.43295454545453216" y="1.7168181818181285" width="0.42295454545453215" height="0.42295454545453215" fill="#252525" />
<rect x="0.8609090909090643" y="1.7168181818181285" width="0.42295454545453215" height="0.42295454545453215" fill="#54D2EB" />
<rect x="1.2888636363635964" y="1.7168181818181285" width="0.42295454545453215" height="0.42295454545453215" fill="#252525" />
<rect x="1.7168181818181285" y="1.7168181818181285" width="0.42295454545453215" height="0.42295454545453215" fill="#54D2EB" />
<rect x="2.1447727272726604" y="1.7168181818181285" width="0.42295454545453215" height="0.42295454545453215" fill="#252525" />
<rect x="2.572727272727193" y="1.7168181818181285" width="0.42295454545453215" height="0.42295454545453215" fill="#252525" />
<rect x="3.000681818181725" y="1.7168181818181285" width="0.42295454545453215" height="0.42295454545453215" fill="#54D2EB" />
<rect x="3.428636363636257" y="1.7168181818181285" width="0.42295454545453215" height="0.42295454545453215" fill="#252525" />
<rect x="3.856590909090789" y="1.7168181818181285" width="0.42295454545453215" height="0.42295454545453215" fill="#252525" />
<rect x="4.284545454545321" y="1.7168181818181285" width="0.42295454545453215" height="0.42295454545453215" fill="#252525" />
<rect x="0.005" y="2.1447727272726604" width="0.42295454545453215" height="0.42295454545453215" fill="#252525" />
<rect x="0.43295454545453216" y="2.1447727272726604" width="0.42295454545453215" height="0.42295454545453215" fill="#252525" />
<rect x="0.8609090909090643" y="2.1447727272726604" width="0.42295454545453215" height="0.42295454545453215" fill="#54D2EB" />
<rect x="1.2888636363635964" y="2.1447727272726604" width="0.42295454545453215" height="0.42295454545453215" fill="#54D2EB" />
<rect x="1.7168181818181285" y="2.1447727272726604" width="0.42295454545453215" height="0.42295454545453215" fill="#54D2EB" />
<rect x="2.1447727272726604" y="2.1447727272726604" width="0.42295454545453215" height="0.42295454545453215" fill="#252525" />
<rect x="2.572727272727193" y="2.1447727272726604" width="0.42295454545453215" height="0.42295454545453215" fill="#252525" />
<rect x="3.000681818181725" y="2.1447727272726604" width="0.42295454545453215" height="0.42295454545453215" fill="#54D2EB" />
<rect x="3.428636363636257" y="2.1447727272726604" width="0.42295454545453215" height="0.42295454545453215" fill="#252525" />
<rect x="3.856590909090789" y="2.1447727272726604" width="0.42295454545453215" height="0.42295454545453215" fill="#252525" />
<rect x="4.284545454545321" y="2.1447727272726604" width="0.42295454545453215" height="0.42295454545453215" fill="#252525" />
<rect x="0.005" y="2.572727272727193" width="0.42295454545453215" height="0.42295454545453215" fill="#252525" />
<rect x="0.43295454545453216" y="2.572727272727193" width="0.42295454545453215" height="0.42295454545453215" fill="#252525" />
<rect x="0.8609090909090643" y="2.572727272727193" width="0.42295454545453215" height="0.42295454545453215" fill="#54D2EB" />
<rect x="1.2888636363635964" y="2.572727272727193" width="0.42295454545453215" height="0.42295454545453215" fill="#54D2EB" />
<rect x="1.7168181818181285" y="2.572727272727193" width="0.42295454545453215" height="0.42295454545453215" fill="#54D2EB" />
<rect x="2.1447727272726604" y="2.572727272727193" width="0.42295454545453215" height="0.42295454545453215" fill="#54D2EB" />
<rect x="2.572727272727193" y="2.572727272727193" width="0.42295454545453215" height="0.42295454545453215" fill="#252525" />
<rect x="3.000681818181725" y="2.572727272727193" width="0.42295454545453215" height="0.42295454545453215" fill="#54D2EB" />
<rect x="3.428636363636257" y="2.572727272727193" width="0.42295454545453215" height="0.42295454545453215" fill="#54D2EB" />
<rect x="3.856590909090789" y="2.572727272727193" width="0.42295454545453215" height="0.42295454545453215" fill="#252525" />
<rect x="4.284545454545321" y="2.572727272727193" width="0.42295454545453215" height="0.42295454545453215" fill="#252525" />
<rect x="0.005" y="3.000681818181725" width="0.42295454545453215" height="0.42295454545453215" fill="#252525" />
<rect x="0.43295454545453216" y="3.000681818181725" width="0.42295454545453215" height="0.42295454545453215" fill="#252525" />
<rect x="0.8609090909090643" y="3.000681818181725" width="0.42295454545453215" height="0.42295454545453215" fill="#54D2EB" />
<rect x="1.2888636363635964" y="3.000681818181725" width="0.42295454545453215" height="0.42295454545453215" fill="#54D2EB" />
<rect x="1.7168181818181285" y="3.000681818181725" width="0.42295454545453215" height="0.42295454545453215" fill="#54D2EB" />
<rect x="2.1447727272726604" y="3.000681818181725" width="0.42295454545453215" height="0.42295454545453215" fill="#54D2EB" />
<rect x="2.572727272727193" y="3.000681818181725" width="0.42295454545453215" height="0.42295454545453215" fill="#54D2EB" />
<rect x="3.000681818181725" y="3.000681818181725" width="0.42295454545453215" height="0.42295454545453215" fill="#54D2EB" />
<rect x="3.428636363636257" y="3.000681818181725" width="0.42295454545453215" height="0.42295454545453215" fill="#54D2EB" />
<rect x="3.856590909090789" y="3.000681818181725" width="0.42295454545453215" height="0.42295454545453215" fill="#252525" />
<rect x="4.284545454545321" y="3.000681818181725" width="0.42295454545453215" height="0.42295454545453215" fill="#252525" />
<rect x="0.005" y="3.428636363636257" width="0.42295454545453215" height="0.42295454545453215" fill="#252525" />
<rect x="0.43295454545453216" y="3.428636363636257" width="0.42295454545453215" height="0.42295454545453215" fill="#252525" />
<rect x="0.8609090909090643" y="3.428636363636257" width="0.42295454545453215" height="0.42295454545453215" fill="#252525" />
<rect x="1.2888636363635964" y="3.428636363636257" width="0.42295454545453215" height="0.42295454545453215" fill="#252525" />
<rect x="1.7168181818181285" y="3.428636363636257" width="0.42295454545453215" height="0.42295454545453215" fill="#252525" />
<rect x="2.1447727272726604" y="3.428636363636257" width="0.42295454545453215" height="0.42295454545453215" fill="#252525" />
<rect x="2.572727272727193" y="3.428636363636257" width="0.42295454545453215" height="0.42295454545453215" fill="#252525" />
<rect x="3.000681818181725" y="3.428636363636257" width="0.42295454545453215" height="0.42295454545453215" fill="#252525" />
<rect x="3.428636363636257" y="3.428636363636257" width="0.42295454545453215" height="0.42295454545453215" fill="#252525" />
<rect x="3.856590909090789" y="3.428636363636257" width="0.42295454545453215" height="0.42295454545453215" fill="#252525" />
<rect x="4.284545454545321" y="3.428636363636257" width="0.42295454545453215" height="0.42295454545453215" fill="#252525" />
<rect x="-0.02666666666666667" y="-0.02666666666666667" width="4.760833333333188" height="3.9049242424241224" fill="none" stroke="#111111ff" stroke-width="0.08" />
<text x="4.707499999999854" y="4.320340909090789" font-size="0.375" fill="black" text-anchor="end" font-family="Anuphan">11x9</text>
<text x="-0.037500000000000006" y="4.320340909090789" font-size="0.375" fill="black" text-anchor="start" font-family="Anuphan" font-weight="600">Test 1</text>
</g>
<g id="d4">
<rect x="0.005" y="0.005" width="0.3817499999999929" height="0.3817499999999929" fill="#252525" />
<rect x="0.3917499999999929" y="0.005" width="0.3817499999999929" height="0.3817499999999929" fill="#252525" />
<rect x="0.7784999999999858" y="0.005" width="0.3817499999999929" height="0.3817499999999929" fill="#252525" />
<rect x="1.1652499999999786" y="0.005" width="0.3817499999999929" height="0.3817499999999929" fill="#252525" />
<rect x="1.5519999999999714" y="0.005" width="0.3817499999999929" height="0.3817499999999929" fill="#252525" />
<rect x="1.9387499999999642" y="0.005" width="0.3817499999999929" height="0.3817499999999929" fill="#252525" />
<rect x="2.3254999999999573" y="0.005" width="0.3817499999999929" height="0.3817499999999929" fill="#252525" />
<rect x="2.71224999999995" y="0.005" width="0.3817499999999929" height="0.3817499999999929" fill="#252525" />
<rect x="3.098999999999943" y="0.005" width="0.3817499999999929" height="0.3817499999999929" fill="#252525" />
<rect x="3.485749999999936" y="0.005" width="0.3817499999999929" height="0.3817499999999929" fill="#252525" />
<rect x="0.005" y="0.3917499999999929" width="0.3817499999999929" height="0.3817499999999929" fill="#252525" />
<rect x="0.3917499999999929" y="0.3917499999999929" width="0.3817499999999929" height="0.3817499999999929" fill="#252525" />
<rect x="0.7784999999999858" y="0.3917499999999929" width="0.3817499999999929" height="0.3817499999999929" fill="#252525" />
<rect x="1.1652499999999786" y="0.3917499999999929" width="0.3817499999999929" height="0.3817499999999929" fill="#252525" />
<rect x="1.5519999999999714" y="0.3917499999999929" width="0.3817499999999929" height="0.3817499999999929" fill="#252525" />
<rect x="1.9387499999999642" y="0.3917499999999929" width="0.3817499999999929" height="0.3817499999999929" fill="#252525" />
<rect x="2.3254999999999573" y="0.3917499999999929" width="0.3817499999999929" height="0.3817499999999929" fill="#252525" />
<rect x="2.71224999999995" y="0.3917499999999929" width="0.3817499999999929" height="0.3817499999999929" fill="#252525" />
<rect x="3.098999999999943" y="0.3917499999999929" width="0.3817499999999929" height="0.3817499999999929" fill="#252525" />
<rect x="3.485749999999936" y="0.3917499999999929" width="0.3817499999999929" height="0.3817499999999929" fill="#252525" />
<rect x="0.005" y="0.7784999999999858" width="0.3817499999999929" height="0.3817499999999929" fill="#252525" />
<rect x="0.3917499999999929" y="0.7784999999999858" width="0.3817499999999929" height="0.3817499999999929" fill="#54D2EB" />
<rect x="0.7784999999999858" y="0.7784999999999858" width="0.3817499999999929" height="0.3817499999999929" fill="#54D2EB" />
<rect x="1.1652499999999786" y="0.7784999999999858" width="0.3817499999999929" height="0.3817499999999929" fill="#54D2EB" />
<rect x="1.5519999999999714" y="0.7784999999999858" width="0.3817499999999929" height="0.3817499999999929" fill="#FF4136" />
<rect x="1.9387499999999642" y="0.7784999999999858" width="0.3817499999999929" height="0.3817499999999929" fill="#252525" />
<rect x="2.3254999999999573" y="0.7784999999999858" width="0.3817499999999929" height="0.3817499999999929" fill="#252525" />
<rect x="2.71224999999995" y="0.7784999999999858" width="0.3817499999999929" height="0.3817499999999929" fill="#252525" />
<rect x="3.098999999999943" y="0.7784999999999858" width="0.3817499999999929" height="0.3817499999999929" fill="#252525" />
<rect x="3.485749999999936" y="0.7784999999999858" width="0.3817499999999929" height="0.3817499999999929" fill="#252525" />
<rect x="0.005" y="1.1652499999999786" width="0.3817499999999929" height="0.3817499999999929" fill="#252525" />
<rect x="0.3917499999999929" y="1.1652499999999786" width="0.3817499999999929" height="0.3817499999999929" fill="#54D2EB" />
<rect x="0.7784999999999858" y="1.1652499999999786" width="0.3817499999999929" height="0.3817499999999929" fill="#FF4136" />
<rect x="1.1652499999999786" y="1.1652499999999786" width="0.3817499999999929" height="0.3817499999999929" fill="#FF4136" />
<rect x="1.5519999999999714" y="1.1652499999999786" width="0.3817499999999929" height="0.3817499999999929" fill="#FF4136" />
<rect x="1.9387499999999642" y="1.1652499999999786" width="0.3817499999999929" height="0.3817499999999929" fill="#252525" />
<rect x="2.3254999999999573" y="1.1652499999999786" width="0.3817499999999929" height="0.3817499999999929" fill="#252525" />
<rect x="2.71224999999995" y="1.1652499999999786" width="0.3817499999999929" height="0.3817499999999929" fill="#252525" />
<rect x="3.098999999999943" y="1.1652499999999786" width="0.3817499999999929" height="0.3817499999999929" fill="#252525" />
<rect x="3.485749999999936" y="1.1652499999999786" width="0.3817499999999929" height="0.3817499999999929" fill="#252525" />
<rect x="0.005" y="1.5519999999999714" width="0.3817499999999929" height="0.3817499999999929" fill="#252525" />
<rect x="0.3917499999999929" y="1.5519999999999714" width="0.3817499999999929" height="0.3817499999999929" fill="#54D2EB" />
<rect x="0.7784999999999858" y="1.5519999999999714" width="0.3817499999999929" height="0.3817499999999929" fill="#54D2EB" />
<rect x="1.1652499999999786" y="1.5519999999999714" width="0.3817499999999929" height="0.3817499999999929" fill="#54D2EB" />
<rect x="1.5519999999999714" y="1.5519999999999714" width="0.3817499999999929" height="0.3817499999999929" fill="#54D2EB" />
<rect x="1.9387499999999642" y="1.5519999999999714" width="0.3817499999999929" height="0.3817499999999929" fill="#252525" />
<rect x="2.3254999999999573" y="1.5519999999999714" width="0.3817499999999929" height="0.3817499999999929" fill="#252525" />
<rect x="2.71224999999995" y="1.5519999999999714" width="0.3817499999999929" height="0.3817499999999929" fill="#252525" />
<rect x="3.098999999999943" y="1.5519999999999714" width="0.3817499999999929" height="0.3817499999999929" fill="#252525" />
<rect x="3.485749999999936" y="1.5519999999999714" width="0.3817499999999929" height="0.3817499999999929" fill="#252525" />
<rect x="0.005" y="1.9387499999999642" width="0.3817499999999929" height="0.3817499999999929" fill="#252525" />
<rect x="0.3917499999999929" y="1.9387499999999642" width="0.3817499999999929" height="0.3817499999999929" fill="#54D2EB" />
<rect x="0.7784999999999858" y="1.9387499999999642" width="0.3817499999999929" height="0.3817499999999929" fill="#54D2EB" />
<rect x="1.1652499999999786" y="1.9387499999999642" width="0.3817499999999929" height="0.3817499999999929" fill="#FF4136" />
<rect x="1.5519999999999714" y="1.9387499999999642" width="0.3817499999999929" height="0.3817499999999929" fill="#FF4136" />
<rect x="1.9387499999999642" y="1.9387499999999642" width="0.3817499999999929" height="0.3817499999999929" fill="#252525" />
<rect x="2.3254999999999573" y="1.9387499999999642" width="0.3817499999999929" height="0.3817499999999929" fill="#252525" />
<rect x="2.71224999999995" y="1.9387499999999642" width="0.3817499999999929" height="0.3817499999999929" fill="#252525" />
<rect x="3.098999999999943" y="1.9387499999999642" width="0.3817499999999929" height="0.3817499999999929" fill="#252525" />
<rect x="3.485749999999936" y="1.9387499999999642" width="0.3817499999999929" height="0.3817499999999929" fill="#252525" />
<rect x="0.005" y="2.3254999999999573" width="0.3817499999999929" height="0.3817499999999929" fill="#252525" />
<rect x="0.3917499999999929" y="2.3254999999999573" width="0.3817499999999929" height="0.3817499999999929" fill="#54D2EB" />
<rect x="0.7784999999999858" y="2.3254999999999573" width="0.3817499999999929" height="0.3817499999999929" fill="#54D2EB" />
<rect x="1.1652499999999786" y="2.3254999999999573" width="0.3817499999999929" height="0.3817499999999929" fill="#54D2EB" />
<rect x="1.5519999999999714" y="2.3254999999999573" width="0.3817499999999929" height="0.3817499999999929" fill="#FF4136" />
<rect x="1.9387499999999642" y="2.3254999999999573" width="0.3817499999999929" height="0.3817499999999929" fill="#252525" />
<rect x="2.3254999999999573" y="2.3254999999999573" width="0.3817499999999929" height="0.3817499999999929" fill="#252525" />
<rect x="2.71224999999995" y="2.3254999999999573" width="0.3817499999999929" height="0.3817499999999929" fill="#252525" />
<rect x="3.098999999999943" y="2.3254999999999573" width="0.3817499999999929" height="0.3817499999999929" fill="#252525" />
<rect x="3.485749999999936" y="2.3254999999999573" width="0.3817499999999929" height="0.3817499999999929" fill="#252525" />
<rect x="0.005" y="2.71224999999995" width="0.3817499999999929" height="0.3817499999999929" fill="#252525" />
<rect x="0.3917499999999929" y="2.71224999999995" width="0.3817499999999929" height="0.3817499999999929" fill="#54D2EB" />
<rect x="0.7784999999999858" y="2.71224999999995" width="0.3817499999999929" height="0.3817499999999929" fill="#FF4136" />
<rect x="1.1652499999999786" y="2.71224999999995" width="0.3817499999999929" height="0.3817499999999929" fill="#FF4136" />
<rect x="1.5519999999999714" y="2.71224999999995" width="0.3817499999999929" height="0.3817499999999929" fill="#FF4136" />
<rect x="1.9387499999999642" y="2.71224999999995" width="0.3817499999999929" height="0.3817499999999929" fill="#252525" />
<rect x="2.3254999999999573" y="2.71224999999995" width="0.3817499999999929" height="0.3817499999999929" fill="#252525" />
<rect x="2.71224999999995" y="2.71224999999995" width="0.3817499999999929" height="0.3817499999999929" fill="#252525" />
<rect x="3.098999999999943" y="2.71224999999995" width="0.3817499999999929" height="0.3817499999999929" fill="#252525" />
<rect x="3.485749999999936" y="2.71224999999995" width="0.3817499999999929" height="0.3817499999999929" fill="#252525" />
<rect x="0.005" y="3.098999999999943" width="0.3817499999999929" height="0.3817499999999929" fill="#252525" />
<rect x="0.3917499999999929" y="3.098999999999943" width="0.3817499999999929" height="0.3817499999999929" fill="#54D2EB" />
<rect x="0.7784999999999858" y="3.098999999999943" width="0.3817499999999929" height="0.3817499999999929" fill="#54D2EB" />
<rect x="1.1652499999999786" y="3.098999999999943" width="0.3817499999999929" height="0.3817499999999929" fill="#54D2EB" />
<rect x="1.5519999999999714" y="3.098999999999943" width="0.3817499999999929" height="0.3817499999999929" fill="#FF4136" />
<rect x="1.9387499999999642" y="3.098999999999943" width="0.3817499999999929" height="0.3817499999999929" fill="#252525" />
<rect x="2.3254999999999573" y="3.098999999999943" width="0.3817499999999929" height="0.3817499999999929" fill="#252525" />
<rect x="2.71224999999995" y="3.098999999999943" width="0.3817499999999929" height="0.3817499999999929" fill="#252525" />
<rect x="3.098999999999943" y="3.098999999999943" width="0.3817499999999929" height="0.3817499999999929" fill="#252525" />
<rect x="3.485749999999936" y="3.098999999999943" width="0.3817499999999929" height="0.3817499999999929" fill="#252525" />
<rect x="0.005" y="3.485749999999936" width="0.3817499999999929" height="0.3817499999999929" fill="#252525" />
<rect x="0.3917499999999929" y="3.485749999999936" width="0.3817499999999929" height="0.3817499999999929" fill="#54D2EB" />
<rect x="0.7784999999999858" y="3.485749999999936" width="0.3817499999999929" height="0.3817499999999929" fill="#54D2EB" />
<rect x="1.1652499999999786" y="3.485749999999936" width="0.3817499999999929" height="0.3817499999999929" fill="#54D2EB" />
<rect x="1.5519999999999714" y="3.485749999999936" width="0.3817499999999929" height="0.3817499999999929" fill="#FF4136" />
<rect x="1.9387499999999642" y="3.485749999999936" width="0.3817499999999929" height="0.3817499999999929" fill="#252525" />
<rect x="2.3254999999999573" y="3.485749999999936" width="0.3817499999999929" height="0.3817499999999929" fill="#252525" />
<rect x="2.71224999999995" y="3.485749999999936" width="0.3817499999999929" height="0.3817499999999929" fill="#252525" />
<rect x="3.098999999999943" y="3.485749999999936" width="0.3817499999999929" height="0.3817499999999929" fill="#252525" />
<rect x="3.485749999999936" y="3.485749999999936" width="0.3817499999999929" height="0.3817499999999929" fill="#252525" />
<rect x="0.005" y="3.8724999999999286" width="0.3817499999999929" height="0.3817499999999929" fill="#252525" />
<rect x="0.3917499999999929" y="3.8724999999999286" width="0.3817499999999929" height="0.3817499999999929" fill="#54D2EB" />
<rect x="0.7784999999999858" y="3.8724999999999286" width="0.3817499999999929" height="0.3817499999999929" fill="#54D2EB" />
<rect x="1.1652499999999786" y="3.8724999999999286" width="0.3817499999999929" height="0.3817499999999929" fill="#FF4136" />
<rect x="1.5519999999999714" y="3.8724999999999286" width="0.3817499999999929" height="0.3817499999999929" fill="#FF4136" />
<rect x="1.9387499999999642" y="3.8724999999999286" width="0.3817499999999929" height="0.3817499999999929" fill="#252525" />
<rect x="2.3254999999999573" y="3.8724999999999286" width="0.3817499999999929" height="0.3817499999999929" fill="#252525" />
<rect x="2.71224999999995" y="3.8724999999999286" width="0.3817499999999929" height="0.3817499999999929" fill="#252525" />
<rect x="3.098999999999943" y="3.8724999999999286" width="0.3817499999999929" height="0.3817499999999929" fill="#252525" />
<rect x="3.485749999999936" y="3.8724999999999286" width="0.3817499999999929" height="0.3817499999999929" fill="#252525" />
<rect x="0.005" y="4.259249999999922" width="0.3817499999999929" height="0.3817499999999929" fill="#252525" />
<rect x="0.3917499999999929" y="4.259249999999922" width="0.3817499999999929" height="0.3817499999999929" fill="#252525" />
<rect x="0.7784999999999858" y="4.259249999999922" width="0.3817499999999929" height="0.3817499999999929" fill="#252525" />
<rect x="1.1652499999999786" y="4.259249999999922" width="0.3817499999999929" height="0.3817499999999929" fill="#252525" />
<rect x="1.5519999999999714" y="4.259249999999922" width="0.3817499999999929" height="0.3817499999999929" fill="#252525" />
<rect x="1.9387499999999642" y="4.259249999999922" width="0.3817499999999929" height="0.3817499999999929" fill="#252525" />
<rect x="2.3254999999999573" y="4.259249999999922" width="0.3817499999999929" height="0.3817499999999929" fill="#252525" />
<rect x="2.71224999999995" y="4.259249999999922" width="0.3817499999999929" height="0.3817499999999929" fill="#252525" />
<rect x="3.098999999999943" y="4.259249999999922" width="0.3817499999999929" height="0.3817499999999929" fill="#252525" />
<rect x="3.485749999999936" y="4.259249999999922" width="0.3817499999999929" height="0.3817499999999929" fill="#252525" />
<rect x="0.005" y="4.645999999999915" width="0.3817499999999929" height="0.3817499999999929" fill="#252525" />
<rect x="0.3917499999999929" y="4.645999999999915" width="0.3817499999999929" height="0.3817499999999929" fill="#252525" />
<rect x="0.7784999999999858" y="4.645999999999915" width="0.3817499999999929" height="0.3817499999999929" fill="#252525" />
<rect x="1.1652499999999786" y="4.645999999999915" width="0.3817499999999929" height="0.3817499999999929" fill="#252525" />
<rect x="1.5519999999999714" y="4.645999999999915" width="0.3817499999999929" height="0.3817499999999929" fill="#252525" />
<rect x="1.9387499999999642" y="4.645999999999915" width="0.3817499999999929" height="0.3817499999999929" fill="#252525" />
<rect x="2.3254999999999573" y="4.645999999999915" width="0.3817499999999929" height="0.3817499999999929" fill="#252525" />
<rect x="2.71224999999995" y="4.645999999999915" width="0.3817499999999929" height="0.3817499999999929" fill="#252525" />
<rect x="3.098999999999943" y="4.645999999999915" width="0.3817499999999929" height="0.3817499999999929" fill="#252525" />
<rect x="3.485749999999936" y="4.645999999999915" width="0.3817499999999929" height="0.3817499999999929" fill="#252525" />
<rect x="0.005" y="5.032749999999908" width="0.3817499999999929" height="0.3817499999999929" fill="#252525" />
<rect x="0.3917499999999929" y="5.032749999999908" width="0.3817499999999929" height="0.3817499999999929" fill="#252525" />
<rect x="0.7784999999999858" y="5.032749999999908" width="0.3817499999999929" height="0.3817499999999929" fill="#252525" />
<rect x="1.1652499999999786" y="5.032749999999908" width="0.3817499999999929" height="0.3817499999999929" fill="#252525" />
<rect x="1.5519999999999714" y="5.032749999999908" width="0.3817499999999929" height="0.3817499999999929" fill="#252525" />
<rect x="1.9387499999999642" y="5.032749999999908" width="0.3817499999999929" height="0.3817499999999929" fill="#252525" />
<rect x="2.3254999999999573" y="5.032749999999908" width="0.3817499999999929" height="0.3817499999999929" fill="#252525" />
<rect x="2.71224999999995" y="5.032749999999908" width="0.3817499999999929" height="0.3817499999999929" fill="#252525" />
<rect x="3.098999999999943" y="5.032749999999908" width="0.3817499999999929" height="0.3817499999999929" fill="#252525" />
<rect x="3.485749999999936" y="5.032749999999908" width="0.3817499999999929" height="0.3817499999999929" fill="#252525" />
<rect x="-0.02666666666666667" y="-0.02666666666666667" width="3.920833333333262" height="5.467833333333234" fill="none" stroke="#111111ff" stroke-width="0.08" />
<text x="3.8674999999999287" y="5.8832499999999" font-size="0.375" fill="black" text-anchor="end" font-family="Anuphan">10x14</text>
<text x="-0.037500000000000006" y="5.8832499999999" font-size="0.375" fill="black" text-anchor="start" font-family="Anuphan" font-weight="600">Output 1</text>
</g>
<g id="d5">
<rect x="0.005" y="0.005" width="0.5834374999999817" height="0.5834374999999817" fill="#252525" />
<rect x="0.5934374999999817" y="0.005" width="0.5834374999999817" height="0.5834374999999817" fill="#252525" />
<rect x="1.1818749999999634" y="0.005" width="0.5834374999999817" height="0.5834374999999817" fill="#252525" />
<rect x="1.770312499999945" y="0.005" width="0.5834374999999817" height="0.5834374999999817" fill="#252525" />
<rect x="2.358749999999927" y="0.005" width="0.5834374999999817" height="0.5834374999999817" fill="#252525" />
<rect x="2.9471874999999086" y="0.005" width="0.5834374999999817" height="0.5834374999999817" fill="#252525" />
<rect x="3.5356249999998903" y="0.005" width="0.5834374999999817" height="0.5834374999999817" fill="#252525" />
<rect x="4.124062499999872" y="0.005" width="0.5834374999999817" height="0.5834374999999817" fill="#252525" />
<rect x="0.005" y="0.5934374999999817" width="0.5834374999999817" height="0.5834374999999817" fill="#252525" />
<rect x="0.5934374999999817" y="0.5934374999999817" width="0.5834374999999817" height="0.5834374999999817" fill="#54D2EB" />
<rect x="1.1818749999999634" y="0.5934374999999817" width="0.5834374999999817" height="0.5834374999999817" fill="#54D2EB" />
<rect x="1.770312499999945" y="0.5934374999999817" width="0.5834374999999817" height="0.5834374999999817" fill="#54D2EB" />
<rect x="2.358749999999927" y="0.5934374999999817" width="0.5834374999999817" height="0.5834374999999817" fill="#54D2EB" />
<rect x="2.9471874999999086" y="0.5934374999999817" width="0.5834374999999817" height="0.5834374999999817" fill="#54D2EB" />
<rect x="3.5356249999998903" y="0.5934374999999817" width="0.5834374999999817" height="0.5834374999999817" fill="#54D2EB" />
<rect x="4.124062499999872" y="0.5934374999999817" width="0.5834374999999817" height="0.5834374999999817" fill="#252525" />
<rect x="0.005" y="1.1818749999999634" width="0.5834374999999817" height="0.5834374999999817" fill="#252525" />
<rect x="0.5934374999999817" y="1.1818749999999634" width="0.5834374999999817" height="0.5834374999999817" fill="#54D2EB" />
<rect x="1.1818749999999634" y="1.1818749999999634" width="0.5834374999999817" height="0.5834374999999817" fill="#FF4136" />
<rect x="1.770312499999945" y="1.1818749999999634" width="0.5834374999999817" height="0.5834374999999817" fill="#54D2EB" />
<rect x="2.358749999999927" y="1.1818749999999634" width="0.5834374999999817" height="0.5834374999999817" fill="#54D2EB" />
<rect x="2.9471874999999086" y="1.1818749999999634" width="0.5834374999999817" height="0.5834374999999817" fill="#FF4136" />
<rect x="3.5356249999998903" y="1.1818749999999634" width="0.5834374999999817" height="0.5834374999999817" fill="#54D2EB" />
<rect x="4.124062499999872" y="1.1818749999999634" width="0.5834374999999817" height="0.5834374999999817" fill="#252525" />
<rect x="0.005" y="1.770312499999945" width="0.5834374999999817" height="0.5834374999999817" fill="#252525" />
<rect x="0.5934374999999817" y="1.770312499999945" width="0.5834374999999817" height="0.5834374999999817" fill="#54D2EB" />
<rect x="1.1818749999999634" y="1.770312499999945" width="0.5834374999999817" height="0.5834374999999817" fill="#FF4136" />
<rect x="1.770312499999945" y="1.770312499999945" width="0.5834374999999817" height="0.5834374999999817" fill="#54D2EB" />
<rect x="2.358749999999927" y="1.770312499999945" width="0.5834374999999817" height="0.5834374999999817" fill="#FF4136" />
<rect x="2.9471874999999086" y="1.770312499999945" width="0.5834374999999817" height="0.5834374999999817" fill="#FF4136" />
<rect x="3.5356249999998903" y="1.770312499999945" width="0.5834374999999817" height="0.5834374999999817" fill="#54D2EB" />
<rect x="4.124062499999872" y="1.770312499999945" width="0.5834374999999817" height="0.5834374999999817" fill="#252525" />
<rect x="0.005" y="2.358749999999927" width="0.5834374999999817" height="0.5834374999999817" fill="#252525" />
<rect x="0.5934374999999817" y="2.358749999999927" width="0.5834374999999817" height="0.5834374999999817" fill="#FF4136" />
<rect x="1.1818749999999634" y="2.358749999999927" width="0.5834374999999817" height="0.5834374999999817" fill="#FF4136" />
<rect x="1.770312499999945" y="2.358749999999927" width="0.5834374999999817" height="0.5834374999999817" fill="#54D2EB" />
<rect x="2.358749999999927" y="2.358749999999927" width="0.5834374999999817" height="0.5834374999999817" fill="#FF4136" />
<rect x="2.9471874999999086" y="2.358749999999927" width="0.5834374999999817" height="0.5834374999999817" fill="#54D2EB" />
<rect x="3.5356249999998903" y="2.358749999999927" width="0.5834374999999817" height="0.5834374999999817" fill="#54D2EB" />
<rect x="4.124062499999872" y="2.358749999999927" width="0.5834374999999817" height="0.5834374999999817" fill="#252525" />
<rect x="0.005" y="2.9471874999999086" width="0.5834374999999817" height="0.5834374999999817" fill="#252525" />
<rect x="0.5934374999999817" y="2.9471874999999086" width="0.5834374999999817" height="0.5834374999999817" fill="#252525" />
<rect x="1.1818749999999634" y="2.9471874999999086" width="0.5834374999999817" height="0.5834374999999817" fill="#252525" />
<rect x="1.770312499999945" y="2.9471874999999086" width="0.5834374999999817" height="0.5834374999999817" fill="#252525" />
<rect x="2.358749999999927" y="2.9471874999999086" width="0.5834374999999817" height="0.5834374999999817" fill="#252525" />
<rect x="2.9471874999999086" y="2.9471874999999086" width="0.5834374999999817" height="0.5834374999999817" fill="#252525" />
<rect x="3.5356249999998903" y="2.9471874999999086" width="0.5834374999999817" height="0.5834374999999817" fill="#252525" />
<rect x="4.124062499999872" y="2.9471874999999086" width="0.5834374999999817" height="0.5834374999999817" fill="#252525" />
<rect x="0.005" y="3.5356249999998903" width="0.5834374999999817" height="0.5834374999999817" fill="#252525" />
<rect x="0.5934374999999817" y="3.5356249999998903" width="0.5834374999999817" height="0.5834374999999817" fill="#252525" />
<rect x="1.1818749999999634" y="3.5356249999998903" width="0.5834374999999817" height="0.5834374999999817" fill="#252525" />
<rect x="1.770312499999945" y="3.5356249999998903" width="0.5834374999999817" height="0.5834374999999817" fill="#252525" />
<rect x="2.358749999999927" y="3.5356249999998903" width="0.5834374999999817" height="0.5834374999999817" fill="#252525" />
<rect x="2.9471874999999086" y="3.5356249999998903" width="0.5834374999999817" height="0.5834374999999817" fill="#252525" />
<rect x="3.5356249999998903" y="3.5356249999998903" width="0.5834374999999817" height="0.5834374999999817" fill="#252525" />
<rect x="4.124062499999872" y="3.5356249999998903" width="0.5834374999999817" height="0.5834374999999817" fill="#252525" />
<rect x="-0.02666666666666667" y="-0.02666666666666667" width="4.760833333333188" height="4.172395833333206" fill="none" stroke="#111111ff" stroke-width="0.08" />
<text x="4.707499999999854" y="4.587812499999872" font-size="0.375" fill="black" text-anchor="end" font-family="Anuphan">8x7</text>
<text x="-0.037500000000000006" y="4.587812499999872" font-size="0.375" fill="black" text-anchor="start" font-family="Anuphan" font-weight="600">Output 2</text>
</g>
<g id="d6">
<rect x="0.005" y="0.005" width="0.5834374999999817" height="0.5834374999999817" fill="#252525" />
<rect x="0.5934374999999817" y="0.005" width="0.5834374999999817" height="0.5834374999999817" fill="#252525" />
<rect x="1.1818749999999634" y="0.005" width="0.5834374999999817" height="0.5834374999999817" fill="#252525" />
<rect x="1.770312499999945" y="0.005" width="0.5834374999999817" height="0.5834374999999817" fill="#252525" />
<rect x="2.358749999999927" y="0.005" width="0.5834374999999817" height="0.5834374999999817" fill="#252525" />
<rect x="2.9471874999999086" y="0.005" width="0.5834374999999817" height="0.5834374999999817" fill="#252525" />
<rect x="3.5356249999998903" y="0.005" width="0.5834374999999817" height="0.5834374999999817" fill="#252525" />
<rect x="4.124062499999872" y="0.005" width="0.5834374999999817" height="0.5834374999999817" fill="#252525" />
<rect x="0.005" y="0.5934374999999817" width="0.5834374999999817" height="0.5834374999999817" fill="#252525" />
<rect x="0.5934374999999817" y="0.5934374999999817" width="0.5834374999999817" height="0.5834374999999817" fill="#54D2EB" />
<rect x="1.1818749999999634" y="0.5934374999999817" width="0.5834374999999817" height="0.5834374999999817" fill="#54D2EB" />
<rect x="1.770312499999945" y="0.5934374999999817" width="0.5834374999999817" height="0.5834374999999817" fill="#54D2EB" />
<rect x="2.358749999999927" y="0.5934374999999817" width="0.5834374999999817" height="0.5834374999999817" fill="#54D2EB" />
<rect x="2.9471874999999086" y="0.5934374999999817" width="0.5834374999999817" height="0.5834374999999817" fill="#54D2EB" />
<rect x="3.5356249999998903" y="0.5934374999999817" width="0.5834374999999817" height="0.5834374999999817" fill="#252525" />
<rect x="4.124062499999872" y="0.5934374999999817" width="0.5834374999999817" height="0.5834374999999817" fill="#252525" />
<rect x="0.005" y="1.1818749999999634" width="0.5834374999999817" height="0.5834374999999817" fill="#252525" />
<rect x="0.5934374999999817" y="1.1818749999999634" width="0.5834374999999817" height="0.5834374999999817" fill="#FF4136" />
<rect x="1.1818749999999634" y="1.1818749999999634" width="0.5834374999999817" height="0.5834374999999817" fill="#FF4136" />
<rect x="1.770312499999945" y="1.1818749999999634" width="0.5834374999999817" height="0.5834374999999817" fill="#54D2EB" />
<rect x="2.358749999999927" y="1.1818749999999634" width="0.5834374999999817" height="0.5834374999999817" fill="#FF4136" />
<rect x="2.9471874999999086" y="1.1818749999999634" width="0.5834374999999817" height="0.5834374999999817" fill="#54D2EB" />
<rect x="3.5356249999998903" y="1.1818749999999634" width="0.5834374999999817" height="0.5834374999999817" fill="#252525" />
<rect x="4.124062499999872" y="1.1818749999999634" width="0.5834374999999817" height="0.5834374999999817" fill="#252525" />
<rect x="0.005" y="1.770312499999945" width="0.5834374999999817" height="0.5834374999999817" fill="#252525" />
<rect x="0.5934374999999817" y="1.770312499999945" width="0.5834374999999817" height="0.5834374999999817" fill="#FF4136" />
<rect x="1.1818749999999634" y="1.770312499999945" width="0.5834374999999817" height="0.5834374999999817" fill="#54D2EB" />
<rect x="1.770312499999945" y="1.770312499999945" width="0.5834374999999817" height="0.5834374999999817" fill="#54D2EB" />
<rect x="2.358749999999927" y="1.770312499999945" width="0.5834374999999817" height="0.5834374999999817" fill="#54D2EB" />
<rect x="2.9471874999999086" y="1.770312499999945" width="0.5834374999999817" height="0.5834374999999817" fill="#54D2EB" />
<rect x="3.5356249999998903" y="1.770312499999945" width="0.5834374999999817" height="0.5834374999999817" fill="#252525" />
<rect x="4.124062499999872" y="1.770312499999945" width="0.5834374999999817" height="0.5834374999999817" fill="#252525" />
<rect x="0.005" y="2.358749999999927" width="0.5834374999999817" height="0.5834374999999817" fill="#252525" />
<rect x="0.5934374999999817" y="2.358749999999927" width="0.5834374999999817" height="0.5834374999999817" fill="#FF4136" />
<rect x="1.1818749999999634" y="2.358749999999927" width="0.5834374999999817" height="0.5834374999999817" fill="#FF4136" />
<rect x="1.770312499999945" y="2.358749999999927" width="0.5834374999999817" height="0.5834374999999817" fill="#54D2EB" />
<rect x="2.358749999999927" y="2.358749999999927" width="0.5834374999999817" height="0.5834374999999817" fill="#54D2EB" />
<rect x="2.9471874999999086" y="2.358749999999927" width="0.5834374999999817" height="0.5834374999999817" fill="#54D2EB" />
<rect x="3.5356249999998903" y="2.358749999999927" width="0.5834374999999817" height="0.5834374999999817" fill="#252525" />
<rect x="4.124062499999872" y="2.358749999999927" width="0.5834374999999817" height="0.5834374999999817" fill="#252525" />
<rect x="0.005" y="2.9471874999999086" width="0.5834374999999817" height="0.5834374999999817" fill="#252525" />
<rect x="0.5934374999999817" y="2.9471874999999086" width="0.5834374999999817" height="0.5834374999999817" fill="#FF4136" />
<rect x="1.1818749999999634" y="2.9471874999999086" width="0.5834374999999817" height="0.5834374999999817" fill="#FF4136" />
<rect x="1.770312499999945" y="2.9471874999999086" width="0.5834374999999817" height="0.5834374999999817" fill="#FF4136" />
<rect x="2.358749999999927" y="2.9471874999999086" width="0.5834374999999817" height="0.5834374999999817" fill="#54D2EB" />
<rect x="2.9471874999999086" y="2.9471874999999086" width="0.5834374999999817" height="0.5834374999999817" fill="#54D2EB" />
<rect x="3.5356249999998903" y="2.9471874999999086" width="0.5834374999999817" height="0.5834374999999817" fill="#252525" />
<rect x="4.124062499999872" y="2.9471874999999086" width="0.5834374999999817" height="0.5834374999999817" fill="#252525" />
<rect x="0.005" y="3.5356249999998903" width="0.5834374999999817" height="0.5834374999999817" fill="#252525" />
<rect x="0.5934374999999817" y="3.5356249999998903" width="0.5834374999999817" height="0.5834374999999817" fill="#FF4136" />
<rect x="1.1818749999999634" y="3.5356249999998903" width="0.5834374999999817" height="0.5834374999999817" fill="#FF4136" />
<rect x="1.770312499999945" y="3.5356249999998903" width="0.5834374999999817" height="0.5834374999999817" fill="#54D2EB" />
<rect x="2.358749999999927" y="3.5356249999998903" width="0.5834374999999817" height="0.5834374999999817" fill="#54D2EB" />
<rect x="2.9471874999999086" y="3.5356249999998903" width="0.5834374999999817" height="0.5834374999999817" fill="#54D2EB" />
<rect x="3.5356249999998903" y="3.5356249999998903" width="0.5834374999999817" height="0.5834374999999817" fill="#252525" />
<rect x="4.124062499999872" y="3.5356249999998903" width="0.5834374999999817" height="0.5834374999999817" fill="#252525" />
<rect x="0.005" y="4.124062499999872" width="0.5834374999999817" height="0.5834374999999817" fill="#252525" />
<rect x="0.5934374999999817" y="4.124062499999872" width="0.5834374999999817" height="0.5834374999999817" fill="#252525" />
<rect x="1.1818749999999634" y="4.124062499999872" width="0.5834374999999817" height="0.5834374999999817" fill="#252525" />
<rect x="1.770312499999945" y="4.124062499999872" width="0.5834374999999817" height="0.5834374999999817" fill="#252525" />
<rect x="2.358749999999927" y="4.124062499999872" width="0.5834374999999817" height="0.5834374999999817" fill="#252525" />
<rect x="2.9471874999999086" y="4.124062499999872" width="0.5834374999999817" height="0.5834374999999817" fill="#252525" />
<rect x="3.5356249999998903" y="4.124062499999872" width="0.5834374999999817" height="0.5834374999999817" fill="#252525" />
<rect x="4.124062499999872" y="4.124062499999872" width="0.5834374999999817" height="0.5834374999999817" fill="#252525" />
<rect x="0.005" y="4.712499999999854" width="0.5834374999999817" height="0.5834374999999817" fill="#252525" />
<rect x="0.5934374999999817" y="4.712499999999854" width="0.5834374999999817" height="0.5834374999999817" fill="#252525" />
<rect x="1.1818749999999634" y="4.712499999999854" width="0.5834374999999817" height="0.5834374999999817" fill="#252525" />
<rect x="1.770312499999945" y="4.712499999999854" width="0.5834374999999817" height="0.5834374999999817" fill="#252525" />
<rect x="2.358749999999927" y="4.712499999999854" width="0.5834374999999817" height="0.5834374999999817" fill="#252525" />
<rect x="2.9471874999999086" y="4.712499999999854" width="0.5834374999999817" height="0.5834374999999817" fill="#252525" />
<rect x="3.5356249999998903" y="4.712499999999854" width="0.5834374999999817" height="0.5834374999999817" fill="#252525" />
<rect x="4.124062499999872" y="4.712499999999854" width="0.5834374999999817" height="0.5834374999999817" fill="#252525" />
<rect x="-0.02666666666666667" y="-0.02666666666666667" width="4.760833333333188" height="5.349270833333169" fill="none" stroke="#111111ff" stroke-width="0.08" />
<text x="4.707499999999854" y="5.764687499999836" font-size="0.375" fill="black" text-anchor="end" font-family="Anuphan">8x9</text>
<text x="-0.037500000000000006" y="5.764687499999836" font-size="0.375" fill="black" text-anchor="start" font-family="Anuphan" font-weight="600">Output 3</text>
</g>
</defs>
<rect x="0" y="0" width="100%" height="100%" fill="#eeeff6" />
<use xlink:href="#d0" x="0.25" y="0.25" />
<use xlink:href="#d1" x="4.617499999999929" y="0.25" />
<use xlink:href="#d2" x="9.824999999999783" y="0.25" />
<use xlink:href="#d3" x="15.032499999999636" y="0.25" />
<path d="M2.1837499999999643,6.3144999999999 L2.1837499999999643,6.714499999999901" stroke-width="0.05" stroke="#888888" />
<path d="M2.0337499999999644,6.5144999999999005 L2.1837499999999643,6.714499999999901" stroke-width="0.05" stroke="#888888" />
<path d="M2.3337499999999642,6.5144999999999005 L2.1837499999999643,6.714499999999901" stroke-width="0.05" stroke="#888888" />
<use xlink:href="#d4" x="0.25" y="7.0644999999999" />
<path d="M6.971249999999856,6.3144999999999 L6.971249999999856,6.714499999999901" stroke-width="0.05" stroke="#888888" />
<path d="M6.821249999999855,6.5144999999999005 L6.971249999999856,6.714499999999901" stroke-width="0.05" stroke="#888888" />
<path d="M7.121249999999856,6.5144999999999005 L6.971249999999856,6.714499999999901" stroke-width="0.05" stroke="#888888" />
<use xlink:href="#d5" x="4.617499999999929" y="7.0644999999999" />
<path d="M12.17874999999971,6.3144999999999 L12.17874999999971,6.714499999999901" stroke-width="0.05" stroke="#888888" />
<path d="M12.02874999999971,6.5144999999999005 L12.17874999999971,6.714499999999901" stroke-width="0.05" stroke="#888888" />
<path d="M12.32874999999971,6.5144999999999005 L12.17874999999971,6.714499999999901" stroke-width="0.05" stroke="#888888" />
<use xlink:href="#d6" x="9.824999999999783" y="7.0644999999999" />
<path d="M17.386249999999563,6.3144999999999 L17.386249999999563,6.714499999999901" stroke-width="0.05" stroke="#888888" />
<path d="M17.236249999999565,6.5144999999999005 L17.386249999999563,6.714499999999901" stroke-width="0.05" stroke="#888888" />
<path d="M17.536249999999562,6.5144999999999005 L17.386249999999563,6.714499999999901" stroke-width="0.05" stroke="#888888" />
<text x="17.386249999999563" y="9.090295454545295" font-size="1" font-family="Anuphan" font-weight="700" fill="#333333" text-anchor="middle" alignment-baseline="middle">?</text>
<text x="19.9" y="13.299999999999999" font-size="0.3" font-family="Anuphan" font-weight="600" fill="#666666" text-anchor="end" alignment-baseline="bottom">Task 6d75e8bb</text>
</svg>