<?xml version="1.0" encoding="UTF-8"?>
<svg xmlns="http://www.w3.org/2000/svg" xmlns:xlink="http://www.w3.org/1999/xlink"
     width="800.0" height="536.0" viewBox="0 0 20.0 13.399999999999999">
<defs>
<g id="d0">
<rect x="0.005" y="0.005" width="0.5365624999999972" height="0.5365624999999972" fill="#252525" />
<rect x="0.5465624999999972" y="0.005" width="0.5365624999999972" height="0.5365624999999972" fill="#252525" />
<rect x="1.0881249999999942" y="0.005" width="0.5365624999999972" height="0.5365624999999972" fill="#252525" />
<rect x="1.6296874999999913" y="0.005" width="0.5365624999999972" height="0.5365624999999972" fill="#252525" />
<rect x="2.1712499999999886" y="0.005" width="0.5365624999999972" height="0.5365624999999972" fill="#252525" />
<rect x="2.712812499999986" y="0.005" width="0.5365624999999972" height="0.5365624999999972" fill="#252525" />
<rect x="3.2543749999999827" y="0.005" width="0.5365624999999972" height="0.5365624999999972" fill="#252525" />
<rect x="3.79593749999998" y="0.005" width="0.5365624999999972" height="0.5365624999999972" fill="#252525" />
<rect x="0.005" y="0.5465624999999972" width="0.5365624999999972" height="0.5365624999999972" fill="#252525" />
<rect x="0.5465624999999972" y="0.5465624999999972" width="0.5365624999999972" height="0.5365624999999972" fill="#252525" />
<rect x="1.0881249999999942" y="0.5465624999999972" width="0.5365624999999972" height="0.5365624999999972" fill="#252525" />
<rect x="1.6296874999999913" y="0.5465624999999972" width="0.5365624999999972" height="0.5365624999999972" fill="#252525" />
<rect x="2.1712499999999886" y="0.5465624999999972" width="0.5365624999999972" height="0.5365624999999972" fill="#252525" />
<rect x="2.712812499999986" y="0.5465624999999972" width="0.5365624999999972" height="0.5365624999999972" fill="#252525" />
<rect x="3.2543749999999827" y="0.5465624999999972" width="0.5365624999999972" height="0.5365624999999972" fill="#252525" />
<rect x="3.79593749999998" y="0.5465624999999972" width="0.5365624999999972" height="0.5365624999999972" fill="#252525" />
<rect x="0.005" y="1.0881249999999942" width="0.5365624999999972" height="0.5365624999999972" fill="#252525" />
<rect x="0.5465624999999972" y="1.0881249999999942" width="0.5365624999999972" height="0.5365624999999972" fill="#252525" />
<rect x="1.0881249999999942" y="1.0881249999999942" width="0.5365624999999972" height="0.5365624999999972" fill="#FF4136" />
<rect x="1.6296874999999913" y="1.0881249999999942" width="0.5365624999999972" height="0.5365624999999972" fill="#252525" />
<rect x="2.1712499999999886" y="1.0881249999999942" width="0.5365624999999972" height="0.5365624999999972" fill="#252525" />
<rect x="2.712812499999986" y="1.0881249999999942" width="0.5365624999999972" height="0.5365624999999972" fill="#252525" />
<rect x="3.2543749999999827" y="1.0881249999999942" width="0.5365624999999972" height="0.5365624999999972" fill="#252525" />
<rect x="3.79593749999998" y="1.0881249999999942" width="0.5365624999999972" height="0.5365624999999972" fill="#252525" />
<rect x="0.005" y="1.6296874999999913" width="0.5365624999999972" height="0.5365624999999972" fill="#252525" />
<rect x="0.5465624999999972" y="1.6296874999999913" width="0.5365624999999972" height="0.5365624999999972" fill="#252525" />
<rect x="1.0881249999999942" y="1.6296874999999913" width="0.5365624999999972" height="0.5365624999999972" fill="#252525" />
<rect x="1.6296874999999913" y="1.6296874999999913" width="0.5365624999999972" height="0.5365624999999972" fill="#252525" />
<rect x="2.1712499999999886" y="1.6296874999999913" width="0.5365624999999972" height="0.5365624999999972" fill="#252525" />
<rect x="2.712812499999986" y="1.6296874999999913" width="0.5365624999999972" height="0.5365624999999972" fill="#252525" />
<rect x="3.2543749999999827" y="1.6296874999999913" width="0.5365624999999972" height="0.5365624999999972" fill="#252525" />
<rect x="3.79593749999998" y="1.6296874999999913" width="0.5365624999999972" height="0.5365624999999972" fill="#252525" />
<rect x="0.005" y="2.1712499999999886" width="0.5365624999999972" height="0.5365624999999972" fill="#252525" />
<rect x="0.5465624999999972" y="2.1712499999999886" width="0.5365624999999972" height="0.5365624999999972" fill="#252525" />
<rect x="1.0881249999999942" y="2.1712499999999886" width="0.5365624999999972" height="0.5365624999999972" fill="#252525" />
<rect x="1.6296874999999913" y="2.1712499999999886" width="0.5365624999999972" height="0.5365624999999972" fill="#252525" />
<rect x="2.1712499999999886" y="2.1712499999999886" width="0.5365624999999972" height="0.5365624999999972" fill="#252525" />
<rect x="2.712812499999986" y="2.1712499999999886" width="0.5365624999999972" height="0.5365624999999972" fill="#252525" />
<rect x="3.2543749999999827" y="2.1712499999999886" width="0.5365624999999972" height="0.5365624999999972" fill="#252525" />
<rect x="3.79593749999998" y="2.1712499999999886" width="0.5365624999999972" height="0.5365624999999972" fill="#252525" />
<rect x="0.005" y="2.712812499999986" width="0.5365624999999972" height="0.5365624999999972" fill="#252525" />
<rect x="0.5465624999999972" y="2.712812499999986" width="0.5365624999999972" height="0.5365624999999972" fill="#252525" />
<rect x="1.0881249999999942" y="2.712812499999986" width="0.5365624999999972" height="0.5365624999999972" fill="#252525" />
<rect x="1.6296874999999913" y="2.712812499999986" width="0.5365624999999972" height="0.5365624999999972" fill="#F012BE" />
<rect x="2.1712499999999886" y="2.712812499999986" width="0.5365624999999972" height="0.5365624999999972" fill="#252525" />
<rect x="2.712812499999986" y="2.712812499999986" width="0.5365624999999972" height="0.5365624999999972" fill="#252525" />
<rect x="3.2543749999999827" y="2.712812499999986" width="0.5365624999999972" height="0.5365624999999972" fill="#252525" />
<rect x="3.79593749999998" y="2.712812499999986" width="0.5365624999999972" height="0.5365624999999972" fill="#252525" />
<rect x="0.005" y="3.2543749999999827" width="0.5365624999999972" height="0.5365624999999972" fill="#252525" />
<rect x="0.5465624999999972" y="3.2543749999999827" width="0.5365624999999972" height="0.5365624999999972" fill="#252525" />
<rect x="1.0881249999999942" y="3.2543749999999827" width="0.5365624999999972" height="0.5365624999999972" fill="#252525" />
<rect x="1.6296874999999913" y="3.2543749999999827" width="0.5365624999999972" height="0.5365624999999972" fill="#252525" />
<rect x="2.1712499999999886" y="3.2543749999999827" width="0.5365624999999972" height="0.5365624999999972" fill="#252525" />
<rect x="2.712812499999986" y="3.2543749999999827" width="0.5365624999999972" height="0.5365624999999972" fill="#252525" />
<rect x="3.2543749999999827" y="3.2543749999999827" width="0.5365624999999972" height="0.5365624999999972" fill="#252525" />
<rect x="3.79593749999998" y="3.2543749999999827" width="0.5365624999999972" height="0.5365624999999972" fill="#252525" />
<rect x="0.005" y="3.79593749999998" width="0.5365624999999972" height="0.5365624999999972" fill="#252525" />
<rect x="0.5465624999999972" y="3.79593749999998" width="0.5365624999999972" height="0.5365624999999972" fill="#252525" />
<rect x="1.0881249999999942" y="3.79593749999998" width="0.5365624999999972" height="0.5365624999999972" fill="#252525" />
<rect x="1.6296874999999913" y="3.79593749999998" width="0.5365624999999972" height="0.5365624999999972" fill="#252525" />
<rect x="2.1712499999999886" y="3.79593749999998" width="0.5365624999999972" height="0.5365624999999972" fill="#252525" />
<rect x="2.712812499999986" y="3.79593749999998" width="0.5365624999999972" height="0.5365624999999972" fill="#252525" />
<rect x="3.2543749999999827" y="3.79593749999998" width="0.5365624999999972" height="0.5365624999999972" fill="#252525" />
<rect x="3.79593749999998" y="3.79593749999998" width="0.5365624999999972" height="0.5365624999999972" fill="#252525" />
<rect x="0.005" y="4.337499999999977" width="0.5365624999999972" height="0.5365624999999972" fill="#252525" />
<rect x="0.5465624999999972" y="4.337499999999977" width="0.5365624999999972" height="0.5365624999999972" fill="#252525" />
<rect x="1.0881249999999942" y="4.337499999999977" width="0.5365624999999972" height="0.5365624999999972" fill="#252525" />
<rect x="1.6296874999999913" y="4.337499999999977" width="0.5365624999999972" height="0.5365624999999972" fill="#252525" />
<rect x="2.1712499999999886" y="4.337499999999977" width="0.5365624999999972" height="0.5365624999999972" fill="#252525" />
<rect x="2.712812499999986" y="4.337499999999977" width="0.5365624999999972" height="0.5365624999999972" fill="#252525" />
<rect x="3.2543749999999827" y="4.337499999999977" width="0.5365624999999972" height="0.5365624999999972" fill="#252525" />
<rect x="3.79593749999998" y="4.337499999999977" width="0.5365624999999972" height="0.5365624999999972" fill="#252525" />
<rect x="0.005" y="4.879062499999974" width="0.5365624999999972" height="0.5365624999999972" fill="#252525" />
<rect x="0.5465624999999972" y="4.879062499999974" width="0.5365624999999972" height="0.5365624999999972" fill="#252525" />
<rect x="1.0881249999999942" y="4.879062499999974" width="0.5365624999999972" height="0.5365624999999972" fill="#252525" />
<rect x="1.6296874999999913" y="4.879062499999974" width="0.5365624999999972" height="0.5365624999999972" fill="#252525" />
<rect x="2.1712499999999886" y="4.879062499999974" width="0.5365624999999972" height="0.5365624999999972" fill="#252525" />
<rect x="2.712812499999986" y="4.879062499999974" width="0.5365624999999972" height="0.5365624999999972" fill="#252525" />
<rect x="3.2543749999999827" y="4.879062499999974" width="0.5365624999999972" height="0.5365624999999972" fill="#252525" />
<rect x="3.79593749999998" y="4.879062499999974" width="0.5365624999999972" height="0.5365624999999972" fill="#252525" />
<rect x="-0.02666666666666667" y="-0.02666666666666667" width="4.385833333333311" height="5.468958333333306" fill="none" stroke="#111111ff" stroke-width="0.08" />
<text x="4.332499999999977" y="5.884374999999972" font-size="0.375" fill="black" text-anchor="end" font-family="Anuphan">8x10</text>
<text x="-0.037500000000000006" y="5.884374999999972" font-size="0.375" fill="black" text-anchor="start" font-family="Anuphan" font-weight="600">Input 1</text>
</g>
<g id="d1">
<rect x="0.005" y="0.005" width="0.37437499999999607" height="0.37437499999999607" fill="#252525" />
<rect x="0.3843749999999961" y="0.005" width="0.37437499999999607" height="0.37437499999999607" fill="#252525" />
<rect x="0.7637499999999922" y="0.005" width="0.37437499999999607" height="0.37437499999999607" fill="#252525" />
<rect x="1.1431249999999882" y="0.005" width="0.37437499999999607" height="0.37437499999999607" fill="#252525" />
<rect x="1.5224999999999842" y="0.005" width="0.37437499999999607" height="0.37437499999999607" fill="#252525" />
<rect x="1.9018749999999802" y="0.005" width="0.37437499999999607" height="0.37437499999999607" fill="#252525" />
<rect x="2.2812499999999765" y="0.005" width="0.37437499999999607" height="0.37437499999999607" fill="#252525" />
<rect x="2.6606249999999725" y="0.005" width="0.37437499999999607" height="0.37437499999999607" fill="#252525" />
<rect x="3.0399999999999685" y="0.005" width="0.37437499999999607" height="0.37437499999999607" fill="#252525" />
<rect x="3.4193749999999645" y="0.005" width="0.37437499999999607" height="0.37437499999999607" fill="#252525" />
<rect x="3.7987499999999605" y="0.005" width="0.37437499999999607" height="0.37437499999999607" fill="#252525" />
<rect x="4.178124999999957" y="0.005" width="0.37437499999999607" height="0.37437499999999607" fill="#252525" />
<rect x="0.005" y="0.3843749999999961" width="0.37437499999999607" height="0.37437499999999607" fill="#252525" />
<rect x="0.3843749999999961" y="0.3843749999999961" width="0.37437499999999607" height="0.37437499999999607" fill="#252525" />
<rect x="0.7637499999999922" y="0.3843749999999961" width="0.37437499999999607" height="0.37437499999999607" fill="#FF4136" />
<rect x="1.1431249999999882" y="0.3843749999999961" width="0.37437499999999607" height="0.37437499999999607" fill="#252525" />
<rect x="1.5224999999999842" y="0.3843749999999961" width="0.37437499999999607" height="0.37437499999999607" fill="#252525" />
<rect x="1.9018749999999802" y="0.3843749999999961" width="0.37437499999999607" height="0.37437499999999607" fill="#252525" />
<rect x="2.2812499999999765" y="0.3843749999999961" width="0.37437499999999607" height="0.37437499999999607" fill="#252525" />
<rect x="2.6606249999999725" y="0.3843749999999961" width="0.37437499999999607" height="0.37437499999999607" fill="#252525" />
<rect x="3.0399999999999685" y="0.3843749999999961" width="0.37437499999999607" height="0.37437499999999607" fill="#252525" />
<rect x="3.4193749999999645" y="0.3843749999999961" width="0.37437499999999607" height="0.37437499999999607" fill="#252525" />
<rect x="3.7987499999999605" y="0.3843749999999961" width="0.37437499999999607" height="0.37437499999999607" fill="#252525" />
<rect x="4.178124999999957" y="0.3843749999999961" width="0.37437499999999607" height="0.37437499999999607" fill="#252525" />
<rect x="0.005" y="0.7637499999999922" width="0.37437499999999607" height="0.37437499999999607" fill="#252525" />
<rect x="0.3843749999999961" y="0.7637499999999922" width="0.37437499999999607" height="0.37437499999999607" fill="#252525" />
<rect x="0.7637499999999922" y="0.7637499999999922" width="0.37437499999999607" height="0.37437499999999607" fill="#252525" />
<rect x="1.1431249999999882" y="0.7637499999999922" width="0.37437499999999607" height="0.37437499999999607" fill="#252525" />
<rect x="1.5224999999999842" y="0.7637499999999922" width="0.37437499999999607" height="0.37437499999999607" fill="#252525" />
<rect x="1.9018749999999802" y="0.7637499999999922" width="0.37437499999999607" height="0.37437499999999607" fill="#252525" />
<rect x="2.2812499999999765" y="0.7637499999999922" width="0.37437499999999607" height="0.37437499999999607" fill="#252525" />
<rect x="2.6606249999999725" y="0.7637499999999922" width="0.37437499999999607" height="0.37437499999999607" fill="#252525" />
<rect x="3.0399999999999685" y="0.7637499999999922" width="0.37437499999999607" height="0.37437499999999607" fill="#252525" />
<rect x="3.4193749999999645" y="0.7637499999999922" width="0.37437499999999607" height="0.37437499999999607" fill="#252525" />
<rect x="3.7987499999999605" y="0.7637499999999922" width="0.37437499999999607" height="0.37437499999999607" fill="#252525" />
<rect x="4.178124999999957" y="0.7637499999999922" width="0.37437499999999607" height="0.37437499999999607" fill="#252525" />
<rect x="0.005" y="1.1431249999999882" width="0.37437499999999607" height="0.37437499999999607" fill="#252525" />
<rect x="0.3843749999999961" y="1.1431249999999882" width="0.37437499999999607" height="0.37437499999999607" fill="#252525" />
<rect x="0.7637499999999922" y="1.1431249999999882" width="0.37437499999999607" height="0.37437499999999607" fill="#252525" />
<rect x="1.1431249999999882" y="1.1431249999999882" width="0.37437499999999607" height="0.37437499999999607" fill="#252525" />
<rect x="1.5224999999999842" y="1.1431249999999882" width="0.37437499999999607" height="0.37437499999999607" fill="#252525" />
<rect x="1.9018749999999802" y="1.1431249999999882" width="0.37437499999999607" height="0.37437499999999607" fill="#252525" />
<rect x="2.2812499999999765" y="1.1431249999999882" width="0.37437499999999607" height="0.37437499999999607" fill="#252525" />
<rect x="2.6606249999999725" y="1.1431249999999882" width="0.37437499999999607" height="0.37437499999999607" fill="#252525" />
<rect x="3.0399999999999685" y="1.1431249999999882" width="0.37437499999999607" height="0.37437499999999607" fill="#252525" />
<rect x="3.4193749999999645" y="1.1431249999999882" width="0.37437499999999607" height="0.37437499999999607" fill="#252525" />
<rect x="3.7987499999999605" y="1.1431249999999882" width="0.37437499999999607" height="0.37437499999999607" fill="#252525" />
<rect x="4.178124999999957" y="1.1431249999999882" width="0.37437499999999607" height="0.37437499999999607" fill="#252525" />
<rect x="0.005" y="1.5224999999999842" width="0.37437499999999607" height="0.37437499999999607" fill="#252525" />
<rect x="0.3843749999999961" y="1.5224999999999842" width="0.37437499999999607" height="0.37437499999999607" fill="#37D449" />
<rect x="0.7637499999999922" y="1.5224999999999842" width="0.37437499999999607" height="0.37437499999999607" fill="#252525" />
<rect x="1.1431249999999882" y="1.5224999999999842" width="0.37437499999999607" height="0.37437499999999607" fill="#252525" />
<rect x="1.5224999999999842" y="1.5224999999999842" width="0.37437499999999607" height="0.37437499999999607" fill="#252525" />
<rect x="1.9018749999999802" y="1.5224999999999842" width="0.37437499999999607" height="0.37437499999999607" fill="#252525" />
<rect x="2.2812499999999765" y="1.5224999999999842" width="0.37437499999999607" height="0.37437499999999607" fill="#252525" />
<rect x="2.6606249999999725" y="1.5224999999999842" width="0.37437499999999607" height="0.37437499999999607" fill="#252525" />
<rect x="3.0399999999999685" y="1.5224999999999842" width="0.37437499999999607" height="0.37437499999999607" fill="#252525" />
<rect x="3.4193749999999645" y="1.5224999999999842" width="0.37437499999999607" height="0.37437499999999607" fill="#252525" />
<rect x="3.7987499999999605" y="1.5224999999999842" width="0.37437499999999607" height="0.37437499999999607" fill="#252525" />
<rect x="4.178124999999957" y="1.5224999999999842" width="0.37437499999999607" height="0.37437499999999607" fill="#252525" />
<rect x="0.005" y="1.9018749999999802" width="0.37437499999999607" height="0.37437499999999607" fill="#252525" />
<rect x="0.3843749999999961" y="1.9018749999999802" width="0.37437499999999607" height="0.37437499999999607" fill="#252525" />
<rect x="0.7637499999999922" y="1.9018749999999802" width="0.37437499999999607" height="0.37437499999999607" fill="#252525" />
<rect x="1.1431249999999882" y="1.9018749999999802" width="0.37437499999999607" height="0.37437499999999607" fill="#252525" />
<rect x="1.5224999999999842" y="1.9018749999999802" width="0.37437499999999607" height="0.37437499999999607" fill="#252525" />
<rect x="1.9018749999999802" y="1.9018749999999802" width="0.37437499999999607" height="0.37437499999999607" fill="#252525" />
<rect x="2.2812499999999765" y="1.9018749999999802" width="0.37437499999999607" height="0.37437499999999607" fill="#F012BE" />
<rect x="2.6606249999999725" y="1.9018749999999802" width="0.37437499999999607" height="0.37437499999999607" fill="#252525" />
<rect x="3.0399999999999685" y="1.9018749999999802" width="0.37437499999999607" height="0.37437499999999607" fill="#252525" />
<rect x="3.4193749999999645" y="1.9018749999999802" width="0.37437499999999607" height="0.37437499999999607" fill="#252525" />
<rect x="3.7987499999999605" y="1.9018749999999802" width="0.37437499999999607" height="0.37437499999999607" fill="#252525" />
<rect x="4.178124999999957" y="1.9018749999999802" width="0.37437499999999607" height="0.37437499999999607" fill="#252525" />
<rect x="0.005" y="2.2812499999999765" width="0.37437499999999607" height="0.37437499999999607" fill="#252525" />
<rect x="0.3843749999999961" y="2.2812499999999765" width="0.37437499999999607" height="0.37437499999999607" fill="#252525" />
<rect x="0.7637499999999922" y="2.2812499999999765" width="0.37437499999999607" height="0.37437499999999607" fill="#252525" />
<rect x="1.1431249999999882" y="2.2812499999999765" width="0.37437499999999607" height="0.37437499999999607" fill="#252525" />
<rect x="1.5224999999999842" y="2.2812499999999765" width="0.37437499999999607" height="0.37437499999999607" fill="#252525" />
<rect x="1.9018749999999802" y="2.2812499999999765" width="0.37437499999999607" height="0.37437499999999607" fill="#252525" />
<rect x="2.2812499999999765" y="2.2812499999999765" width="0.37437499999999607" height="0.37437499999999607" fill="#252525" />
<rect x="2.6606249999999725" y="2.2812499999999765" width="0.37437499999999607" height="0.37437499999999607" fill="#252525" />
<rect x="3.0399999999999685" y="2.2812499999999765" width="0.37437499999999607" height="0.37437499999999607" fill="#252525" />
<rect x="3.4193749999999645" y="2.2812499999999765" width="0.37437499999999607" height="0.37437499999999607" fill="#252525" />
<rect x="3.7987499999999605" y="2.2812499999999765" width="0.37437499999999607" height="0.37437499999999607" fill="#252525" />
<rect x="4.178124999999957" y="2.2812499999999765" width="0.37437499999999607" height="0.37437499999999607" fill="#252525" />
<rect x="0.005" y="2.6606249999999725" width="0.37437499999999607" height="0.37437499999999607" fill="#252525" />
<rect x="0.3843749999999961" y="2.6606249999999725" width="0.37437499999999607" height="0.37437499999999607" fill="#252525" />
<rect x="0.7637499999999922" y="2.6606249999999725" width="0.37437499999999607" height="0.37437499999999607" fill="#252525" />
<rect x="1.1431249999999882" y="2.6606249999999725" width="0.37437499999999607" height="0.37437499999999607" fill="#252525" />
<rect x="1.5224999999999842" y="2.6606249999999725" width="0.37437499999999607" height="0.37437499999999607" fill="#252525" />
<rect x="1.9018749999999802" y="2.6606249999999725" width="0.37437499999999607" height="0.37437499999999607" fill="#252525" />
<rect x="2.2812499999999765" y="2.6606249999999725" width="0.37437499999999607" height="0.37437499999999607" fill="#252525" />
<rect x="2.6606249999999725" y="2.6606249999999725" width="0.37437499999999607" height="0.37437499999999607" fill="#252525" />
<rect x="3.0399999999999685" y="2.6606249999999725" width="0.37437499999999607" height="0.37437499999999607" fill="#252525" />
<rect x="3.4193749999999645" y="2.6606249999999725" width="0.37437499999999607" height="0.37437499999999607" fill="#252525" />
<rect x="3.7987499999999605" y="2.6606249999999725" width="0.37437499999999607" height="0.37437499999999607" fill="#252525" />
<rect x="4.178124999999957" y="2.6606249999999725" width="0.37437499999999607" height="0.37437499999999607" fill="#252525" />
<rect x="0.005" y="3.0399999999999685" width="0.37437499999999607" height="0.37437499999999607" fill="#252525" />
<rect x="0.3843749999999961" y="3.0399999999999685" width="0.37437499999999607" height="0.37437499999999607" fill="#252525" />
<rect x="0.7637499999999922" y="3.0399999999999685" width="0.37437499999999607" height="0.37437499999999607" fill="#252525" />
<rect x="1.1431249999999882" y="3.0399999999999685" width="0.37437499999999607" height="0.37437499999999607" fill="#252525" />
<rect x="1.5224999999999842" y="3.0399999999999685" width="0.37437499999999607" height="0.37437499999999607" fill="#252525" />
<rect x="1.9018749999999802" y="3.0399999999999685" width="0.37437499999999607" height="0.37437499999999607" fill="#252525" />
<rect x="2.2812499999999765" y="3.0399999999999685" width="0.37437499999999607" height="0.37437499999999607" fill="#252525" />
<rect x="2.6606249999999725" y="3.0399999999999685" width="0.37437499999999607" height="0.37437499999999607" fill="#252525" />
<rect x="3.0399999999999685" y="3.0399999999999685" width="0.37437499999999607" height="0.37437499999999607" fill="#252525" />
<rect x="3.4193749999999645" y="3.0399999999999685" width="0.37437499999999607" height="0.37437499999999607" fill="#252525" />
<rect x="3.7987499999999605" y="3.0399999999999685" width="0.37437499999999607" height="0.37437499999999607" fill="#252525" />
<rect x="4.178124999999957" y="3.0399999999999685" width="0.37437499999999607" height="0.37437499999999607" fill="#252525" />
<rect x="0.005" y="3.4193749999999645" width="0.37437499999999607" height="0.37437499999999607" fill="#252525" />
<rect x="0.3843749999999961" y="3.4193749999999645" width="0.37437499999999607" height="0.37437499999999607" fill="#252525" />
<rect x="0.7637499999999922" y="3.4193749999999645" width="0.37437499999999607" height="0.37437499999999607" fill="#252525" />
<rect x="1.1431249999999882" y="3.4193749999999645" width="0.37437499999999607" height="0.37437499999999607" fill="#252525" />
<rect x="1.5224999999999842" y="3.4193749999999645" width="0.37437499999999607" height="0.37437499999999607" fill="#252525" />
<rect x="1.9018749999999802" y="3.4193749999999645" width="0.37437499999999607" height="0.37437499999999607" fill="#252525" />
<rect x="2.2812499999999765" y="3.4193749999999645" width="0.37437499999999607" height="0.37437499999999607" fill="#252525" />
<rect x="2.6606249999999725" y="3.4193749999999645" width="0.37437499999999607" height="0.37437499999999607" fill="#252525" />
<rect x="3.0399999999999685" y="3.4193749999999645" width="0.37437499999999607" height="0.37437499999999607" fill="#252525" />
<rect x="3.4193749999999645" y="3.4193749999999645" width="0.37437499999999607" height="0.37437499999999607" fill="#252525" />
<rect x="3.7987499999999605" y="3.4193749999999645" width="0.37437499999999607" height="0.37437499999999607" fill="#252525" />
<rect x="4.178124999999957" y="3.4193749999999645" width="0.37437499999999607" height="0.37437499999999607" fill="#252525" />
<rect x="-0.02666666666666667" y="-0.02666666666666667" width="4.605833333333287" height="3.847083333333294" fill="none" stroke="#111111ff" stroke-width="0.08" />
<text x="4.552499999999953" y="4.26249999999996" font-size="0.375" fill="black" text-anchor="end" font-family="Anuphan">12x10</text>
<text x="-0.037500000000000006" y="4.26249999999996" font-size="0.375" fill="black" text-anchor="start" font-family="Anuphan" font-weight="600">Input 2</text>
</g>
<g id="d2">
<rect x="0.005" y="0.005" width="0.5640624999999941" height="0.5640624999999941" fill="#252525" />
<rect x="0.5740624999999941" y="0.005" width="0.5640624999999941" height="0.5640624999999941" fill="#252525" />
<rect x="1.1431249999999882" y="0.005" width="0.5640624999999941" height="0.5640624999999941" fill="#252525" />
<rect x="1.7121874999999824" y="0.005" width="0.5640624999999941" height="0.5640624999999941" fill="#252525" />
<rect x="2.2812499999999765" y="0.005" width="0.5640624999999941" height="0.5640624999999941" fill="#252525" />
<rect x="2.8503124999999705" y="0.005" width="0.5640624999999941" height="0.5640624999999941" fill="#252525" />
<rect x="3.419374999999965" y="0.005" width="0.5640624999999941" height="0.5640624999999941" fill="#252525" />
<rect x="3.988437499999959" y="0.005" width="0.5640624999999941" height="0.5640624999999941" fill="#252525" />
<rect x="0.005" y="0.5740624999999941" width="0.5640624999999941" height="0.5640624999999941" fill="#252525" />
<rect x="0.5740624999999941" y="0.5740624999999941" width="0.5640624999999941" height="0.5640624999999941" fill="#252525" />
<rect x="1.1431249999999882" y="0.5740624999999941" width="0.5640624999999941" height="0.5640624999999941" fill="#252525" />
<rect x="1.7121874999999824" y="0.5740624999999941" width="0.5640624999999941" height="0.5640624999999941" fill="#252525" />
<rect x="2.2812499999999765" y="0.5740624999999941" width="0.5640624999999941" height="0.5640624999999941" fill="#252525" />
<rect x="2.8503124999999705" y="0.5740624999999941" width="0.5640624999999941" height="0.5640624999999941" fill="#252525" />
<rect x="3.419374999999965" y="0.5740624999999941" width="0.5640624999999941" height="0.5640624999999941" fill="#252525" />
<rect x="3.988437499999959" y="0.5740624999999941" width="0.5640624999999941" height="0.5640624999999941" fill="#252525" />
<rect x="0.005" y="1.1431249999999882" width="0.5640624999999941" height="0.5640624999999941" fill="#252525" />
<rect x="0.5740624999999941" y="1.1431249999999882" width="0.5640624999999941" height="0.5640624999999941" fill="#252525" />
<rect x="1.1431249999999882" y="1.1431249999999882" width="0.5640624999999941" height="0.5640624999999941" fill="#252525" />
<rect x="1.7121874999999824" y="1.1431249999999882" width="0.5640624999999941" height="0.5640624999999941" fill="#252525" />
<rect x="2.2812499999999765" y="1.1431249999999882" width="0.5640624999999941" height="0.5640624999999941" fill="#252525" />
<rect x="2.8503124999999705" y="1.1431249999999882" width="0.5640624999999941" height="0.5640624999999941" fill="#252525" />
<rect x="3.419374999999965" y="1.1431249999999882" width="0.5640624999999941" height="0.5640624999999941" fill="#252525" />
<rect x="3.988437499999959" y="1.1431249999999882" width="0.5640624999999941" height="0.5640624999999941" fill="#252525" />
<rect x="0.005" y="1.7121874999999824" width="0.5640624999999941" height="0.5640624999999941" fill="#252525" />
<rect x="0.5740624999999941" y="1.7121874999999824" width="0.5640624999999941" height="0.5640624999999941" fill="#252525" />
<rect x="1.1431249999999882" y="1.7121874999999824" width="0.5640624999999941" height="0.5640624999999941" fill="#252525" />
<rect x="1.7121874999999824" y="1.7121874999999824" width="0.5640624999999941" height="0.5640624999999941" fill="#54D2EB" />
<rect x="2.2812499999999765" y="1.7121874999999824" width="0.5640624999999941" height="0.5640624999999941" fill="#252525" />
<rect x="2.8503124999999705" y="1.7121874999999824" width="0.5640624999999941" height="0.5640624999999941" fill="#252525" />
<rect x="3.419374999999965" y="1.7121874999999824" width="0.5640624999999941" height="0.5640624999999941" fill="#252525" />
<rect x="3.988437499999959" y="1.7121874999999824" width="0.5640624999999941" height="0.5640624999999941" fill="#252525" />
<rect x="0.005" y="2.2812499999999765" width="0.5640624999999941" height="0.5640624999999941" fill="#252525" />
<rect x="0.5740624999999941" y="2.2812499999999765" width="0.5640624999999941" height="0.5640624999999941" fill="#252525" />
<rect x="1.1431249999999882" y="2.2812499999999765" width="0.5640624999999941" height="0.5640624999999941" fill="#252525" />
<rect x="1.7121874999999824" y="2.2812499999999765" width="0.5640624999999941" height="0.5640624999999941" fill="#252525" />
<rect x="2.2812499999999765" y="2.2812499999999765" width="0.5640624999999941" height="0.5640624999999941" fill="#252525" />
<rect x="2.8503124999999705" y="2.2812499999999765" width="0.5640624999999941" height="0.5640624999999941" fill="#252525" />
<rect x="3.419374999999965" y="2.2812499999999765" width="0.5640624999999941" height="0.5640624999999941" fill="#252525" />
<rect x="3.988437499999959" y="2.2812499999999765" width="0.5640624999999941" height="0.5640624999999941" fill="#252525" />
<rect x="0.005" y="2.8503124999999705" width="0.5640624999999941" height="0.5640624999999941" fill="#252525" />
<rect x="0.5740624999999941" y="2.8503124999999705" width="0.5640624999999941" height="0.5640624999999941" fill="#252525" />
<rect x="1.1431249999999882" y="2.8503124999999705" width="0.5640624999999941" height="0.5640624999999941" fill="#252525" />
<rect x="1.7121874999999824" y="2.8503124999999705" width="0.5640624999999941" height="0.5640624999999941" fill="#252525" />
<rect x="2.2812499999999765" y="2.8503124999999705" width="0.5640624999999941" height="0.5640624999999941" fill="#252525" />
<rect x="2.8503124999999705" y="2.8503124999999705" width="0.5640624999999941" height="0.5640624999999941" fill="#252525" />
<rect x="3.419374999999965" y="2.8503124999999705" width="0.5640624999999941" height="0.5640624999999941" fill="#252525" />
<rect x="3.988437499999959" y="2.8503124999999705" width="0.5640624999999941" height="0.5640624999999941" fill="#252525" />
<rect x="0.005" y="3.419374999999965" width="0.5640624999999941" height="0.5640624999999941" fill="#252525" />
<rect x="0.5740624999999941" y="3.419374999999965" width="0.5640624999999941" height="0.5640624999999941" fill="#252525" />
<rect x="1.1431249999999882" y="3.419374999999965" width="0.5640624999999941" height="0.5640624999999941" fill="#252525" />
<rect x="1.7121874999999824" y="3.419374999999965" width="0.5640624999999941" height="0.5640624999999941" fill="#252525" />
<rect x="2.2812499999999765" y="3.419374999999965" width="0.5640624999999941" height="0.5640624999999941" fill="#252525" />
<rect x="2.8503124999999705" y="3.419374999999965" width="0.5640624999999941" height="0.5640624999999941" fill="#252525" />
<rect x="3.419374999999965" y="3.419374999999965" width="0.5640624999999941" height="0.5640624999999941" fill="#252525" />
<rect x="3.988437499999959" y="3.419374999999965" width="0.5640624999999941" height="0.5640624999999941" fill="#252525" />
<rect x="-0.02666666666666667" y="-0.02666666666666667" width="4.605833333333287" height="4.036770833333293" fill="none" stroke="#111111ff" stroke-width="0.08" />
<text x="4.552499999999953" y="4.452187499999959" font-size="0.375" fill="black" text-anchor="end" font-family="Anuphan">8x7</text>
<text x="-0.037500000000000006" y="4.452187499999959" font-size="0.375" fill="black" text-anchor="start" font-family="Anuphan" font-weight="600">Input 3</text>
</g>
<g id="d3">
<rect x="0.005" y="0.005" width="0.5640624999999941" height="0.5640624999999941" fill="#252525" />
<rect x="0.5740624999999941" y="0.005" width="0.5640624999999941" height="0.5640624999999941" fill="#252525" />
<rect x="1.1431249999999882" y="0.005" width="0.5640624999999941" height="0.5640624999999941" fill="#252525" />
<rect x="1.7121874999999824" y="0.005" width="0.5640624999999941" height="0.5640624999999941" fill="#252525" />
<rect x="2.2812499999999765" y="0.005" width="0.5640624999999941" height="0.5640624999999941" fill="#252525" />
<rect x="2.8503124999999705" y="0.005" width="0.5640624999999941" height="0.5640624999999941" fill="#252525" />
<rect x="3.419374999999965" y="0.005" width="0.5640624999999941" height="0.5640624999999941" fill="#252525" />
<rect x="3.988437499999959" y="0.005" width="0.5640624999999941" height="0.5640624999999941" fill="#252525" />
<rect x="0.005" y="0.5740624999999941" width="0.5640624999999941" height="0.5640624999999941" fill="#252525" />
<rect x="0.5740624999999941" y="0.5740624999999941" width="0.5640624999999941" height="0.5640624999999941" fill="#252525" />
<rect x="1.1431249999999882" y="0.5740624999999941" width="0.5640624999999941" height="0.5640624999999941" fill="#252525" />
<rect x="1.7121874999999824" y="0.5740624999999941" width="0.5640624999999941" height="0.5640624999999941" fill="#37D449" />
<rect x="2.2812499999999765" y="0.5740624999999941" width="0.5640624999999941" height="0.5640624999999941" fill="#252525" />
<rect x="2.8503124999999705" y="0.5740624999999941" width="0.5640624999999941" height="0.5640624999999941" fill="#252525" />
<rect x="3.419374999999965" y="0.5740624999999941" width="0.5640624999999941" height="0.5640624999999941" fill="#252525" />
<rect x="3.988437499999959" y="0.5740624999999941" width="0.5640624999999941" height="0.5640624999999941" fill="#252525" />
<rect x="0.005" y="1.1431249999999882" width="0.5640624999999941" height="0.5640624999999941" fill="#252525" />
<rect x="0.5740624999999941" y="1.1431249999999882" width="0.5640624999999941" height="0.5640624999999941" fill="#252525" />
<rect x="1.1431249999999882" y="1.1431249999999882" width="0.5640624999999941" height="0.5640624999999941" fill="#FFDC00" />
<rect x="1.7121874999999824" y="1.1431249999999882" width="0.5640624999999941" height="0.5640624999999941" fill="#252525" />
<rect x="2.2812499999999765" y="1.1431249999999882" width="0.5640624999999941" height="0.5640624999999941" fill="#252525" />
<rect x="2.8503124999999705" y="1.1431249999999882" width="0.5640624999999941" height="0.5640624999999941" fill="#252525" />
<rect x="3.419374999999965" y="1.1431249999999882" width="0.5640624999999941" height="0.5640624999999941" fill="#252525" />
<rect x="3.988437499999959" y="1.1431249999999882" width="0.5640624999999941" height="0.5640624999999941" fill="#252525" />
<rect x="0.005" y="1.7121874999999824" width="0.5640624999999941" height="0.5640624999999941" fill="#252525" />
<rect x="0.5740624999999941" y="1.7121874999999824" width="0.5640624999999941" height="0.5640624999999941" fill="#252525" />
<rect x="1.1431249999999882" y="1.7121874999999824" width="0.5640624999999941" height="0.5640624999999941" fill="#252525" />
<rect x="1.7121874999999824" y="1.7121874999999824" width="0.5640624999999941" height="0.5640624999999941" fill="#252525" />
<rect x="2.2812499999999765" y="1.7121874999999824" width="0.5640624999999941" height="0.5640624999999941" fill="#252525" />
<rect x="2.8503124999999705" y="1.7121874999999824" width="0.5640624999999941" height="0.5640624999999941" fill="#252525" />
<rect x="3.419374999999965" y="1.7121874999999824" width="0.5640624999999941" height="0.5640624999999941" fill="#252525" />
<rect x="3.988437499999959" y="1.7121874999999824" width="0.5640624999999941" height="0.5640624999999941" fill="#252525" />
<rect x="0.005" y="2.2812499999999765" width="0.5640624999999941" height="0.5640624999999941" fill="#252525" />
<rect x="0.5740624999999941" y="2.2812499999999765" width="0.5640624999999941" height="0.5640624999999941" fill="#252525" />
<rect x="1.1431249999999882" y="2.2812499999999765" width="0.5640624999999941" height="0.5640624999999941" fill="#252525" />
<rect x="1.7121874999999824" y="2.2812499999999765" width="0.5640624999999941" height="0.5640624999999941" fill="#252525" />
<rect x="2.2812499999999765" y="2.2812499999999765" width="0.5640624999999941" height="0.5640624999999941" fill="#54D2EB" />
<rect x="2.8503124999999705" y="2.2812499999999765" width="0.5640624999999941" height="0.5640624999999941" fill="#252525" />
<rect x="3.419374999999965" y="2.2812499999999765" width="0.5640624999999941" height="0.5640624999999941" fill="#252525" />
<rect x="3.988437499999959" y="2.2812499999999765" width="0.5640624999999941" height="0.5640624999999941" fill="#252525" />
<rect x="0.005" y="2.8503124999999705" width="0.5640624999999941" height="0.5640624999999941" fill="#252525" />
<rect x="0.5740624999999941" y="2.8503124999999705" width="0.5640624999999941" height="0.5640624999999941" fill="#252525" />
<rect x="1.1431249999999882" y="2.8503124999999705" width="0.5640624999999941" height="0.5640624999999941" fill="#252525" />
<rect x="1.7121874999999824" y="2.8503124999999705" width="0.5640624999999941" height="0.5640624999999941" fill="#252525" />
<rect x="2.2812499999999765" y="2.8503124999999705" width="0.5640624999999941" height="0.5640624999999941" fill="#252525" />
<rect x="2.8503124999999705" y="2.8503124999999705" width="0.5640624999999941" height="0.5640624999999941" fill="#252525" />
<rect x="3.419374999999965" y="2.8503124999999705" width="0.5640624999999941" height="0.5640624999999941" fill="#252525" />
<rect x="3.988437499999959" y="2.8503124999999705" width="0.5640624999999941" height="0.5640624999999941" fill="#252525" />
<rect x="0.005" y="3.419374999999965" width="0.5640624999999941" height="0.5640624999999941" fill="#252525" />
<rect x="0.5740624999999941" y="3.419374999999965" width="0.5640624999999941" height="0.5640624999999941" fill="#252525" />
<rect x="1.1431249999999882" y="3.419374999999965" width="0.5640624999999941" height="0.5640624999999941" fill="#252525" />
<rect x="1.7121874999999824" y="3.419374999999965" width="0.5640624999999941" height="0.5640624999999941" fill="#FF4136" />
<rect x="2.2812499999999765" y="3.419374999999965" width="0.5640624999999941" height="0.5640624999999941" fill="#252525" />
<rect x="2.8503124999999705" y="3.419374999999965" width="0.5640624999999941" height="0.5640624999999941" fill="#252525" />
<rect x="3.419374999999965" y="3.419374999999965" width="0.5640624999999941" height="0.5640624999999941" fill="#252525" />
<rect x="3.988437499999959" y="3.419374999999965" width="0.5640624999999941" height="0.5640624999999941" fill="#252525" />
<rect x="0.005" y="3.988437499999959" width="0.5640624999999941" height="0.5640624999999941" fill="#252525" />
<rect x="0.5740624999999941" y="3.988437499999959" width="0.5640624999999941" height="0.5640624999999941" fill="#252525" />
<rect x="1.1431249999999882" y="3.988437499999959" width="0.5640624999999941" height="0.5640624999999941" fill="#252525" />
<rect x="1.7121874999999824" y="3.988437499999959" width="0.5640624999999941" height="0.5640624999999941" fill="#252525" />
<rect x="2.2812499999999765" y="3.988437499999959" width="0.5640624999999941" height="0.5640624999999941" fill="#252525" />
<rect x="2.8503124999999705" y="3.988437499999959" width="0.5640624999999941" height="0.5640624999999941" fill="#252525" />
<rect x="3.419374999999965" y="3.988437499999959" width="0.5640624999999941" height="0.5640624999999941" fill="#252525" />
<rect x="3.988437499999959" y="3.988437499999959" width="0.5640624999999941" height="0.5640624999999941" fill="#252525" />
<rect x="0.005" y="4.557499999999953" width="0.5640624999999941" height="0.5640624999999941" fill="#252525" />
<rect x="0.5740624999999941" y="4.557499999999953" width="0.5640624999999941" height="0.5640624999999941" fill="#252525" />
<rect x="1.1431249999999882" y="4.557499999999953" width="0.5640624999999941" height="0.5640624999999941" fill="#252525" />
<rect x="1.7121874999999824" y="4.557499999999953" width="0.5640624999999941" height="0.5640624999999941" fill="#252525" />
<rect x="2.2812499999999765" y="4.557499999999953" width="0.5640624999999941" height="0.5640624999999941" fill="#252525" />
<rect x="2.8503124999999705" y="4.557499999999953" width="0.5640624999999941" height="0.5640624999999941" fill="#252525" />
<rect x="3.419374999999965" y="4.557499999999953" width="0.5640624999999941" height="0.5640624999999941" fill="#252525" />
<rect x="3.988437499999959" y="4.557499999999953" width="0.5640624999999941" height="0.5640624999999941" fill="#252525" />
<rect x="-0.02666666666666667" y="-0.02666666666666667" width="4.605833333333287" height="5.174895833333281" fill="none" stroke="#111111ff" stroke-width="0.08" />
<text x="4.552499999999953" y="5.590312499999947" font-size="0.375" fill="black" text-anchor="end" font-family="Anuphan">8x9</text>
<text x="-0.037500000000000006" y="5.590312499999947" font-size="0.375" fill="black" text-anchor="start" font-family="Anuphan" font-weight="600">Test 1</text>
</g>
<g id="d4">
<rect x="0.005" y="0.005" width="0.5365624999999972" height="0.5365624999999972" fill="#252525" />
<rect x="0.5465624999999972" y="0.005" width="0.5365624999999972" height="0.5365624999999972" fill="#252525" />
<rect x="1.0881249999999942" y="0.005" width="0.5365624999999972" height="0.5365624999999972" fill="#252525" />
<rect x="1.6296874999999913" y="0.005" width="0.5365624999999972" height="0.5365624999999972" fill="#252525" />
<rect x="2.1712499999999886" y="0.005" width="0.5365624999999972" height="0.5365624999999972" fill="#252525" />
<rect x="2.712812499999986" y="0.005" width="0.5365624999999972" height="0.5365624999999972" fill="#252525" />
<rect x="3.2543749999999827" y="0.005" width="0.5365624999999972" height="0.5365624999999972" fill="#252525" />
<rect x="3.79593749999998" y="0.005" width="0.5365624999999972" height="0.5365624999999972" fill="#252525" />
<rect x="0.005" y="0.5465624999999972" width="0.5365624999999972" height="0.5365624999999972" fill="#252525" />
<rect x="0.5465624999999972" y="0.5465624999999972" width="0.5365624999999972" height="0.5365624999999972" fill="#252525" />
<rect x="1.0881249999999942" y="0.5465624999999972" width="0.5365624999999972" height="0.5365624999999972" fill="#252525" />
<rect x="1.6296874999999913" y="0.5465624999999972" width="0.5365624999999972" height="0.5365624999999972" fill="#252525" />
<rect x="2.1712499999999886" y="0.5465624999999972" width="0.5365624999999972" height="0.5365624999999972" fill="#252525" />
<rect x="2.712812499999986" y="0.5465624999999972" width="0.5365624999999972" height="0.5365624999999972" fill="#252525" />
<rect x="3.2543749999999827" y="0.5465624999999972" width="0.5365624999999972" height="0.5365624999999972" fill="#252525" />
<rect x="3.79593749999998" y="0.5465624999999972" width="0.5365624999999972" height="0.5365624999999972" fill="#252525" />
<rect x="0.005" y="1.0881249999999942" width="0.5365624999999972" height="0.5365624999999972" fill="#252525" />
<rect x="0.5465624999999972" y="1.0881249999999942" width="0.5365624999999972" height="0.5365624999999972" fill="#252525" />
<rect x="1.0881249999999942" y="1.0881249999999942" width="0.5365624999999972" height="0.5365624999999972" fill="#FF4136" />
<rect x="1.6296874999999913" y="1.0881249999999942" width="0.5365624999999972" height="0.5365624999999972" fill="#E6E6E6" />
<rect x="2.1712499999999886" y="1.0881249999999942" width="0.5365624999999972" height="0.5365624999999972" fill="#FF4136" />
<rect x="2.712812499999986" y="1.0881249999999942" width="0.5365624999999972" height="0.5365624999999972" fill="#E6E6E6" />
<rect x="3.2543749999999827" y="1.0881249999999942" width="0.5365624999999972" height="0.5365624999999972" fill="#FF4136" />
<rect x="3.79593749999998" y="1.0881249999999942" width="0.5365624999999972" height="0.5365624999999972" fill="#E6E6E6" />
<rect x="0.005" y="1.6296874999999913" width="0.5365624999999972" height="0.5365624999999972" fill="#252525" />
<rect x="0.5465624999999972" y="1.6296874999999913" width="0.5365624999999972" height="0.5365624999999972" fill="#252525" />
<rect x="1.0881249999999942" y="1.6296874999999913" width="0.5365624999999972" height="0.5365624999999972" fill="#252525" />
<rect x="1.6296874999999913" y="1.6296874999999913" width="0.5365624999999972" height="0.5365624999999972" fill="#252525" />
<rect x="2.1712499999999886" y="1.6296874999999913" width="0.5365624999999972" height="0.5365624999999972" fill="#252525" />
<rect x="2.712812499999986" y="1.6296874999999913" width="0.5365624999999972" height="0.5365624999999972" fill="#252525" />
<rect x="3.2543749999999827" y="1.6296874999999913" width="0.5365624999999972" height="0.5365624999999972" fill="#252525" />
<rect x="3.79593749999998" y="1.6296874999999913" width="0.5365624999999972" height="0.5365624999999972" fill="#252525" />
<rect x="0.005" y="2.1712499999999886" width="0.5365624999999972" height="0.5365624999999972" fill="#252525" />
<rect x="0.5465624999999972" y="2.1712499999999886" width="0.5365624999999972" height="0.5365624999999972" fill="#252525" />
<rect x="1.0881249999999942" y="2.1712499999999886" width="0.5365624999999972" height="0.5365624999999972" fill="#252525" />
<rect x="1.6296874999999913" y="2.1712499999999886" width="0.5365624999999972" height="0.5365624999999972" fill="#252525" />
<rect x="2.1712499999999886" y="2.1712499999999886" width="0.5365624999999972" height="0.5365624999999972" fill="#252525" />
<rect x="2.712812499999986" y="2.1712499999999886" width="0.5365624999999972" height="0.5365624999999972" fill="#252525" />
<rect x="3.2543749999999827" y="2.1712499999999886" width="0.5365624999999972" height="0.5365624999999972" fill="#252525" />
<rect x="3.79593749999998" y="2.1712499999999886" width="0.5365624999999972" height="0.5365624999999972" fill="#252525" />
<rect x="0.005" y="2.712812499999986" width="0.5365624999999972" height="0.5365624999999972" fill="#252525" />
<rect x="0.5465624999999972" y="2.712812499999986" width="0.5365624999999972" height="0.5365624999999972" fill="#252525" />
<rect x="1.0881249999999942" y="2.712812499999986" width="0.5365624999999972" height="0.5365624999999972" fill="#252525" />
<rect x="1.6296874999999913" y="2.712812499999986" width="0.5365624999999972" height="0.5365624999999972" fill="#F012BE" />
<rect x="2.1712499999999886" y="2.712812499999986" width="0.5365624999999972" height="0.5365624999999972" fill="#E6E6E6" />
<rect x="2.712812499999986" y="2.712812499999986" width="0.5365624999999972" height="0.5365624999999972" fill="#F012BE" />
<rect x="3.2543749999999827" y="2.712812499999986" width="0.5365624999999972" height="0.5365624999999972" fill="#E6E6E6" />
<rect x="3.79593749999998" y="2.712812499999986" width="0.5365624999999972" height="0.5365624999999972" fill="#F012BE" />
<rect x="0.005" y="3.2543749999999827" width="0.5365624999999972" height="0.5365624999999972" fill="#252525" />
<rect x="0.5465624999999972" y="3.2543749999999827" width="0.5365624999999972" height="0.5365624999999972" fill="#252525" />
<rect x="1.0881249999999942" y="3.2543749999999827" width="0.5365624999999972" height="0.5365624999999972" fill="#252525" />
<rect x="1.6296874999999913" y="3.2543749999999827" width="0.5365624999999972" height="0.5365624999999972" fill="#252525" />
<rect x="2.1712499999999886" y="3.2543749999999827" width="0.5365624999999972" height="0.5365624999999972" fill="#252525" />
<rect x="2.712812499999986" y="3.2543749999999827" width="0.5365624999999972" height="0.5365624999999972" fill="#252525" />
<rect x="3.2543749999999827" y="3.2543749999999827" width="0.5365624999999972" height="0.5365624999999972" fill="#252525" />
<rect x="3.79593749999998" y="3.2543749999999827" width="0.5365624999999972" height="0.5365624999999972" fill="#252525" />
<rect x="0.005" y="3.79593749999998" width="0.5365624999999972" height="0.5365624999999972" fill="#252525" />
<rect x="0.5465624999999972" y="3.79593749999998" width="0.5365624999999972" height="0.5365624999999972" fill="#252525" />
<rect x="1.0881249999999942" y="3.79593749999998" width="0.5365624999999972" height="0.5365624999999972" fill="#252525" />
<rect x="1.6296874999999913" y="3.79593749999998" width="0.5365624999999972" height="0.5365624999999972" fill="#252525" />
<rect x="2.1712499999999886" y="3.79593749999998" width="0.5365624999999972" height="0.5365624999999972" fill="#252525" />
<rect x="2.712812499999986" y="3.79593749999998" width="0.5365624999999972" height="0.5365624999999972" fill="#252525" />
<rect x="3.2543749999999827" y="3.79593749999998" width="0.5365624999999972" height="0.5365624999999972" fill="#252525" />
<rect x="3.79593749999998" y="3.79593749999998" width="0.5365624999999972" height="0.5365624999999972" fill="#252525" />
<rect x="0.005" y="4.337499999999977" width="0.5365624999999972" height="0.5365624999999972" fill="#252525" />
<rect x="0.5465624999999972" y="4.337499999999977" width="0.5365624999999972" height="0.5365624999999972" fill="#252525" />
<rect x="1.0881249999999942" y="4.337499999999977" width="0.5365624999999972" height="0.5365624999999972" fill="#252525" />
<rect x="1.6296874999999913" y="4.337499999999977" width="0.5365624999999972" height="0.5365624999999972" fill="#252525" />
<rect x="2.1712499999999886" y="4.337499999999977" width="0.5365624999999972" height="0.5365624999999972" fill="#252525" />
<rect x="2.712812499999986" y="4.337499999999977" width="0.5365624999999972" height="0.5365624999999972" fill="#252525" />
<rect x="3.2543749999999827" y="4.337499999999977" width="0.5365624999999972" height="0.5365624999999972" fill="#252525" />
<rect x="3.79593749999998" y="4.337499999999977" width="0.5365624999999972" height="0.5365624999999972" fill="#252525" />
<rect x="0.005" y="4.879062499999974" width="0.5365624999999972" height="0.5365624999999972" fill="#252525" />
<rect x="0.5465624999999972" y="4.879062499999974" width="0.5365624999999972" height="0.5365624999999972" fill="#252525" />
<rect x="1.0881249999999942" y="4.879062499999974" width="0.5365624999999972" height="0.5365624999999972" fill="#252525" />
<rect x="1.6296874999999913" y="4.879062499999974" width="0.5365624999999972" height="0.5365624999999972" fill="#252525" />
<rect x="2.1712499999999886" y="4.879062499999974" width="0.5365624999999972" height="0.5365624999999972" fill="#252525" />
<rect x="2.712812499999986" y="4.879062499999974" width="0.5365624999999972" height="0.5365624999999972" fill="#252525" />
<rect x="3.2543749999999827" y="4.879062499999974" width="0.5365624999999972" height="0.5365624999999972" fill="#252525" />
<rect x="3.79593749999998" y="4.879062499999974" width="0.5365624999999972" height="0.5365624999999972" fill="#252525" />
<rect x="-0.02666666666666667" y="-0.02666666666666667" width="4.385833333333311" height="5.468958333333306" fill="none" stroke="#111111ff" stroke-width="0.08" />
<text x="4.332499999999977" y="5.884374999999972" font-size="0.375" fill="black" text-anchor="end" font-family="Anuphan">8x10</text>
<text x="-0.037500000000000006" y="5.884374999999972" font-size="0.375" fill="black" text-anchor="start" font-family="Anuphan" font-weight="600">Output 1</text>
</g>
<g id="d5">
<rect x="0.005" y="0.005" width="0.37437499999999607" height="0.37437499999999607" fill="#252525" />
<rect x="0.3843749999999961" y="0.005" width="0.37437499999999607" height="0.37437499999999607" fill="#252525" />
<rect x="0.7637499999999922" y="0.005" width="0.37437499999999607" height="0.37437499999999607" fill="#252525" />
<rect x="1.1431249999999882" y="0.005" width="0.37437499999999607" height="0.37437499999999607" fill="#252525" />
<rect x="1.5224999999999842" y="0.005" width="0.37437499999999607" height="0.37437499999999607" fill="#252525" />
<rect x="1.9018749999999802" y="0.005" width="0.37437499999999607" height="0.37437499999999607" fill="#252525" />
<rect x="2.2812499999999765" y="0.005" width="0.37437499999999607" height="0.37437499999999607" fill="#252525" />
<rect x="2.6606249999999725" y="0.005" width="0.37437499999999607" height="0.37437499999999607" fill="#252525" />
<rect x="3.0399999999999685" y="0.005" width="0.37437499999999607" height="0.37437499999999607" fill="#252525" />
<rect x="3.4193749999999645" y="0.005" width="0.37437499999999607" height="0.37437499999999607" fill="#252525" />
<rect x="3.7987499999999605" y="0.005" width="0.37437499999999607" height="0.37437499999999607" fill="#252525" />
<rect x="4.178124999999957" y="0.005" width="0.37437499999999607" height="0.37437499999999607" fill="#252525" />
<rect x="0.005" y="0.3843749999999961" width="0.37437499999999607" height="0.37437499999999607" fill="#252525" />
<rect x="0.3843749999999961" y="0.3843749999999961" width="0.37437499999999607" height="0.37437499999999607" fill="#252525" />
<rect x="0.7637499999999922" y="0.3843749999999961" width="0.37437499999999607" height="0.37437499999999607" fill="#FF4136" />
<rect x="1.1431249999999882" y="0.3843749999999961" width="0.37437499999999607" height="0.37437499999999607" fill="#E6E6E6" />
<rect x="1.5224999999999842" y="0.3843749999999961" width="0.37437499999999607" height="0.37437499999999607" fill="#FF4136" />
<rect x="1.9018749999999802" y="0.3843749999999961" width="0.37437499999999607" height="0.37437499999999607" fill="#E6E6E6" />
<rect x="2.2812499999999765" y="0.3843749999999961" width="0.37437499999999607" height="0.37437499999999607" fill="#FF4136" />
<rect x="2.6606249999999725" y="0.3843749999999961" width="0.37437499999999607" height="0.37437499999999607" fill="#E6E6E6" />
<rect x="3.0399999999999685" y="0.3843749999999961" width="0.37437499999999607" height="0.37437499999999607" fill="#FF4136" />
<rect x="3.4193749999999645" y="0.3843749999999961" width="0.37437499999999607" height="0.37437499999999607" fill="#E6E6E6" />
<rect x="3.7987499999999605" y="0.3843749999999961" width="0.37437499999999607" height="0.37437499999999607" fill="#FF4136" />
<rect x="4.178124999999957" y="0.3843749999999961" width="0.37437499999999607" height="0.37437499999999607" fill="#E6E6E6" />
<rect x="0.005" y="0.7637499999999922" width="0.37437499999999607" height="0.37437499999999607" fill="#252525" />
<rect x="0.3843749999999961" y="0.7637499999999922" width="0.37437499999999607" height="0.37437499999999607" fill="#252525" />
<rect x="0.7637499999999922" y="0.7637499999999922" width="0.37437499999999607" height="0.37437499999999607" fill="#252525" />
<rect x="1.1431249999999882" y="0.7637499999999922" width="0.37437499999999607" height="0.37437499999999607" fill="#252525" />
<rect x="1.5224999999999842" y="0.7637499999999922" width="0.37437499999999607" height="0.37437499999999607" fill="#252525" />
<rect x="1.9018749999999802" y="0.7637499999999922" width="0.37437499999999607" height="0.37437499999999607" fill="#252525" />
<rect x="2.2812499999999765" y="0.7637499999999922" width="0.37437499999999607" height="0.37437499999999607" fill="#252525" />
<rect x="2.6606249999999725" y="0.7637499999999922" width="0.37437499999999607" height="0.37437499999999607" fill="#252525" />
<rect x="3.0399999999999685" y="0.7637499999999922" width="0.37437499999999607" height="0.37437499999999607" fill="#252525" />
<rect x="3.4193749999999645" y="0.7637499999999922" width="0.37437499999999607" height="0.37437499999999607" fill="#252525" />
<rect x="3.7987499999999605" y="0.7637499999999922" width="0.37437499999999607" height="0.37437499999999607" fill="#252525" />
<rect x="4.178124999999957" y="0.7637499999999922" width="0.37437499999999607" height="0.37437499999999607" fill="#252525" />
<rect x="0.005" y="1.1431249999999882" width="0.37437499999999607" height="0.37437499999999607" fill="#252525" />
<rect x="0.3843749999999961" y="1.1431249999999882" width="0.37437499999999607" height="0.37437499999999607" fill="#252525" />
<rect x="0.7637499999999922" y="1.1431249999999882" width="0.37437499999999607" height="0.37437499999999607" fill="#252525" />
<rect x="1.1431249999999882" y="1.1431249999999882" width="0.37437499999999607" height="0.37437499999999607" fill="#252525" />
<rect x="1.5224999999999842" y="1.1431249999999882" width="0.37437499999999607" height="0.37437499999999607" fill="#252525" />
<rect x="1.9018749999999802" y="1.1431249999999882" width="0.37437499999999607" height="0.37437499999999607" fill="#252525" />
<rect x="2.2812499999999765" y="1.1431249999999882" width="0.37437499999999607" height="0.37437499999999607" fill="#252525" />
<rect x="2.6606249999999725" y="1.1431249999999882" width="0.37437499999999607" height="0.37437499999999607" fill="#252525" />
<rect x="3.0399999999999685" y="1.1431249999999882" width="0.37437499999999607" height="0.37437499999999607" fill="#252525" />
<rect x="3.4193749999999645" y="1.1431249999999882" width="0.37437499999999607" height="0.37437499999999607" fill="#252525" />
<rect x="3.7987499999999605" y="1.1431249999999882" width="0.37437499999999607" height="0.37437499999999607" fill="#252525" />
<rect x="4.178124999999957" y="1.1431249999999882" width="0.37437499999999607" height="0.37437499999999607" fill="#252525" />
<rect x="0.005" y="1.5224999999999842" width="0.37437499999999607" height="0.37437499999999607" fill="#252525" />
<rect x="0.3843749999999961" y="1.5224999999999842" width="0.37437499999999607" height="0.37437499999999607" fill="#37D449" />
<rect x="0.7637499999999922" y="1.5224999999999842" width="0.37437499999999607" height="0.37437499999999607" fill="#E6E6E6" />
<rect x="1.1431249999999882" y="1.5224999999999842" width="0.37437499999999607" height="0.37437499999999607" fill="#37D449" />
<rect x="1.5224999999999842" y="1.5224999999999842" width="0.37437499999999607" height="0.37437499999999607" fill="#E6E6E6" />
<rect x="1.9018749999999802" y="1.5224999999999842" width="0.37437499999999607" height="0.37437499999999607" fill="#37D449" />
<rect x="2.2812499999999765" y="1.5224999999999842" width="0.37437499999999607" height="0.37437499999999607" fill="#E6E6E6" />
<rect x="2.6606249999999725" y="1.5224999999999842" width="0.37437499999999607" height="0.37437499999999607" fill="#37D449" />
<rect x="3.0399999999999685" y="1.5224999999999842" width="0.37437499999999607" height="0.37437499999999607" fill="#E6E6E6" />
<rect x="3.4193749999999645" y="1.5224999999999842" width="0.37437499999999607" height="0.37437499999999607" fill="#37D449" />
<rect x="3.7987499999999605" y="1.5224999999999842" width="0.37437499999999607" height="0.37437499999999607" fill="#E6E6E6" />
<rect x="4.178124999999957" y="1.5224999999999842" width="0.37437499999999607" height="0.37437499999999607" fill="#37D449" />
<rect x="0.005" y="1.9018749999999802" width="0.37437499999999607" height="0.37437499999999607" fill="#252525" />
<rect x="0.3843749999999961" y="1.9018749999999802" width="0.37437499999999607" height="0.37437499999999607" fill="#252525" />
<rect x="0.7637499999999922" y="1.9018749999999802" width="0.37437499999999607" height="0.37437499999999607" fill="#252525" />
<rect x="1.1431249999999882" y="1.9018749999999802" width="0.37437499999999607" height="0.37437499999999607" fill="#252525" />
<rect x="1.5224999999999842" y="1.9018749999999802" width="0.37437499999999607" height="0.37437499999999607" fill="#252525" />
<rect x="1.9018749999999802" y="1.9018749999999802" width="0.37437499999999607" height="0.37437499999999607" fill="#252525" />
<rect x="2.2812499999999765" y="1.9018749999999802" width="0.37437499999999607" height="0.37437499999999607" fill="#F012BE" />
<rect x="2.6606249999999725" y="1.9018749999999802" width="0.37437499999999607" height="0.37437499999999607" fill="#E6E6E6" />
<rect x="3.0399999999999685" y="1.9018749999999802" width="0.37437499999999607" height="0.37437499999999607" fill="#F012BE" />
<rect x="3.4193749999999645" y="1.9018749999999802" width="0.37437499999999607" height="0.37437499999999607" fill="#E6E6E6" />
<rect x="3.7987499999999605" y="1.9018749999999802" width="0.37437499999999607" height="0.37437499999999607" fill="#F012BE" />
<rect x="4.178124999999957" y="1.9018749999999802" width="0.37437499999999607" height="0.37437499999999607" fill="#E6E6E6" />
<rect x="0.005" y="2.2812499999999765" width="0.37437499999999607" height="0.37437499999999607" fill="#252525" />
<rect x="0.3843749999999961" y="2.2812499999999765" width="0.37437499999999607" height="0.37437499999999607" fill="#252525" />
<rect x="0.7637499999999922" y="2.2812499999999765" width="0.37437499999999607" height="0.37437499999999607" fill="#252525" />
<rect x="1.1431249999999882" y="2.2812499999999765" width="0.37437499999999607" height="0.37437499999999607" fill="#252525" />
<rect x="1.5224999999999842" y="2.2812499999999765" width="0.37437499999999607" height="0.37437499999999607" fill="#252525" />
<rect x="1.9018749999999802" y="2.2812499999999765" width="0.37437499999999607" height="0.37437499999999607" fill="#252525" />
<rect x="2.2812499999999765" y="2.2812499999999765" width="0.37437499999999607" height="0.37437499999999607" fill="#252525" />
<rect x="2.6606249999999725" y="2.2812499999999765" width="0.37437499999999607" height="0.37437499999999607" fill="#252525" />
<rect x="3.0399999999999685" y="2.2812499999999765" width="0.37437499999999607" height="0.37437499999999607" fill="#252525" />
<rect x="3.4193749999999645" y="2.2812499999999765" width="0.37437499999999607" height="0.37437499999999607" fill="#252525" />
<rect x="3.7987499999999605" y="2.2812499999999765" width="0.37437499999999607" height="0.37437499999999607" fill="#252525" />
<rect x="4.178124999999957" y="2.2812499999999765" width="0.37437499999999607" height="0.37437499999999607" fill="#252525" />
<rect x="0.005" y="2.6606249999999725" width="0.37437499999999607" height="0.37437499999999607" fill="#252525" />
<rect x="0.3843749999999961" y="2.6606249999999725" width="0.37437499999999607" height="0.37437499999999607" fill="#252525" />
<rect x="0.7637499999999922" y="2.6606249999999725" width="0.37437499999999607" height="0.37437499999999607" fill="#252525" />
<rect x="1.1431249999999882" y="2.6606249999999725" width="0.37437499999999607" height="0.37437499999999607" fill="#252525" />
<rect x="1.5224999999999842" y="2.6606249999999725" width="0.37437499999999607" height="0.37437499999999607" fill="#252525" />
<rect x="1.9018749999999802" y="2.6606249999999725" width="0.37437499999999607" height="0.37437499999999607" fill="#252525" />
<rect x="2.2812499999999765" y="2.6606249999999725" width="0.37437499999999607" height="0.37437499999999607" fill="#252525" />
<rect x="2.6606249999999725" y="2.6606249999999725" width="0.37437499999999607" height="0.37437499999999607" fill="#252525" />
<rect x="3.0399999999999685" y="2.6606249999999725" width="0.37437499999999607" height="0.37437499999999607" fill="#252525" />
<rect x="3.4193749999999645" y="2.6606249999999725" width="0.37437499999999607" height="0.37437499999999607" fill="#252525" />
<rect x="3.7987499999999605" y="2.6606249999999725" width="0.37437499999999607" height="0.37437499999999607" fill="#252525" />
<rect x="4.178124999999957" y="2.6606249999999725" width="0.37437499999999607" height="0.37437499999999607" fill="#252525" />
<rect x="0.005" y="3.0399999999999685" width="0.37437499999999607" height="0.37437499999999607" fill="#252525" />
<rect x="0.3843749999999961" y="3.0399999999999685" width="0.37437499999999607" height="0.37437499999999607" fill="#252525" />
<rect x="0.7637499999999922" y="3.0399999999999685" width="0.37437499999999607" height="0.37437499999999607" fill="#252525" />
<rect x="1.1431249999999882" y="3.0399999999999685" width="0.37437499999999607" height="0.37437499999999607" fill="#252525" />
<rect x="1.5224999999999842" y="3.0399999999999685" width="0.37437499999999607" height="0.37437499999999607" fill="#252525" />
<rect x="1.9018749999999802" y="3.0399999999999685" width="0.37437499999999607" height="0.37437499999999607" fill="#252525" />
<rect x="2.2812499999999765" y="3.0399999999999685" width="0.37437499999999607" height="0.37437499999999607" fill="#252525" />
<rect x="2.6606249999999725" y="3.0399999999999685" width="0.37437499999999607" height="0.37437499999999607" fill="#252525" />
<rect x="3.0399999999999685" y="3.0399999999999685" width="0.37437499999999607" height="0.37437499999999607" fill="#252525" />
<rect x="3.4193749999999645" y="3.0399999999999685" width="0.37437499999999607" height="0.37437499999999607" fill="#252525" />
<rect x="3.7987499999999605" y="3.0399999999999685" width="0.37437499999999607" height="0.37437499999999607" fill="#252525" />
<rect x="4.178124999999957" y="3.0399999999999685" width="0.37437499999999607" height="0.37437499999999607" fill="#252525" />
<rect x="0.005" y="3.4193749999999645" width="0.37437499999999607" height="0.37437499999999607" fill="#252525" />
<rect x="0.3843749999999961" y="3.4193749999999645" width="0.37437499999999607" height="0.37437499999999607" fill="#252525" />
<rect x="0.7637499999999922" y="3.4193749999999645" width="0.37437499999999607" height="0.37437499999999607" fill="#252525" />
<rect x="1.1431249999999882" y="3.4193749999999645" width="0.37437499999999607" height="0.37437499999999607" fill="#252525" />
<rect x="1.5224999999999842" y="3.4193749999999645" width="0.37437499999999607" height="0.37437499999999607" fill="#252525" />
<rect x="1.9018749999999802" y="3.4193749999999645" width="0.37437499999999607" height="0.37437499999999607" fill="#252525" />
<rect x="2.2812499999999765" y="3.4193749999999645" width="0.37437499999999607" height="0.37437499999999607" fill="#252525" />
<rect x="2.6606249999999725" y="3.4193749999999645" width="0.37437499999999607" height="0.37437499999999607" fill="#252525" />
<rect x="3.0399999999999685" y="3.4193749999999645" width="0.37437499999999607" height="0.37437499999999607" fill="#252525" />
<rect x="3.4193749999999645" y="3.4193749999999645" width="0.37437499999999607" height="0.37437499999999607" fill="#252525" />
<rect x="3.7987499999999605" y="3.4193749999999645" width="0.37437499999999607" height="0.37437499999999607" fill="#252525" />
<rect x="4.178124999999957" y="3.4193749999999645" width="0.37437499999999607" height="0.37437499999999607" fill="#252525" />
<rect x="-0.02666666666666667" y="-0.02666666666666667" width="4.605833333333287" height="3.847083333333294" fill="none" stroke="#111111ff" stroke-width="0.08" />
<text x="4.552499999999953" y="4.26249999999996" font-size="0.375" fill="black" text-anchor="end" font-family="Anuphan">12x10</text>
<text x="-0.037500000000000006" y="4.26249999999996" font-size="0.375" fill="black" text-anchor="start" font-family="Anuphan" font-weight="600">Output 2</text>
</g>
<g id="d6">
<rect x="0.005" y="0.005" width="0.5640624999999941" height="0.5640624999999941" fill="#252525" />
<rect x="0.5740624999999941" y="0.005" width="0.5640624999999941" height="0.5640624999999941" fill="#252525" />
<rect x="1.1431249999999882" y="0.005" width="0.5640624999999941" height="0.5640624999999941" fill="#252525" />
<rect x="1.7121874999999824" y="0.005" width="0.5640624999999941" height="0.5640624999999941" fill="#252525" />
<rect x="2.2812499999999765" y="0.005" width="0.5640624999999941" height="0.5640624999999941" fill="#252525" />
<rect x="2.8503124999999705" y="0.005" width="0.5640624999999941" height="0.5640624999999941" fill="#252525" />
<rect x="3.419374999999965" y="0.005" width="0.5640624999999941" height="0.5640624999999941" fill="#252525" />
<rect x="3.988437499999959" y="0.005" width="0.5640624999999941" height="0.5640624999999941" fill="#252525" />
<rect x="0.005" y="0.5740624999999941" width="0.5640624999999941" height="0.5640624999999941" fill="#252525" />
<rect x="0.5740624999999941" y="0.5740624999999941" width="0.5640624999999941" height="0.5640624999999941" fill="#252525" />
<rect x="1.1431249999999882" y="0.5740624999999941" width="0.5640624999999941" height="0.5640624999999941" fill="#252525" />
<rect x="1.7121874999999824" y="0.5740624999999941" width="0.5640624999999941" height="0.5640624999999941" fill="#252525" />
<rect x="2.2812499999999765" y="0.5740624999999941" width="0.5640624999999941" height="0.5640624999999941" fill="#252525" />
<rect x="2.8503124999999705" y="0.5740624999999941" width="0.5640624999999941" height="0.5640624999999941" fill="#252525" />
<rect x="3.419374999999965" y="0.5740624999999941" width="0.5640624999999941" height="0.5640624999999941" fill="#252525" />
<rect x="3.988437499999959" y="0.5740624999999941" width="0.5640624999999941" height="0.5640624999999941" fill="#252525" />
<rect x="0.005" y="1.1431249999999882" width="0.5640624999999941" height="0.5640624999999941" fill="#252525" />
<rect x="0.5740624999999941" y="1.1431249999999882" width="0.5640624999999941" height="0.5640624999999941" fill="#252525" />
<rect x="1.1431249999999882" y="1.1431249999999882" width="0.5640624999999941" height="0.5640624999999941" fill="#252525" />
<rect x="1.7121874999999824" y="1.1431249999999882" width="0.5640624999999941" height="0.5640624999999941" fill="#252525" />
<rect x="2.2812499999999765" y="1.1431249999999882" width="0.5640624999999941" height="0.5640624999999941" fill="#252525" />
<rect x="2.8503124999999705" y="1.1431249999999882" width="0.5640624999999941" height="0.5640624999999941" fill="#252525" />
<rect x="3.419374999999965" y="1.1431249999999882" width="0.5640624999999941" height="0.5640624999999941" fill="#252525" />
<rect x="3.988437499999959" y="1.1431249999999882" width="0.5640624999999941" height="0.5640624999999941" fill="#252525" />
<rect x="0.005" y="1.7121874999999824" width="0.5640624999999941" height="0.5640624999999941" fill="#252525" />
<rect x="0.5740624999999941" y="1.7121874999999824" width="0.5640624999999941" height="0.5640624999999941" fill="#252525" />
<rect x="1.1431249999999882" y="1.7121874999999824" width="0.5640624999999941" height="0.5640624999999941" fill="#252525" />
<rect x="1.7121874999999824" y="1.7121874999999824" width="0.5640624999999941" height="0.5640624999999941" fill="#54D2EB" />
<rect x="2.2812499999999765" y="1.7121874999999824" width="0.5640624999999941" height="0.5640624999999941" fill="#E6E6E6" />
<rect x="2.8503124999999705" y="1.7121874999999824" width="0.5640624999999941" height="0.5640624999999941" fill="#54D2EB" />
<rect x="3.419374999999965" y="1.7121874999999824" width="0.5640624999999941" height="0.5640624999999941" fill="#E6E6E6" />
<rect x="3.988437499999959" y="1.7121874999999824" width="0.5640624999999941" height="0.5640624999999941" fill="#54D2EB" />
<rect x="0.005" y="2.2812499999999765" width="0.5640624999999941" height="0.5640624999999941" fill="#252525" />
<rect x="0.5740624999999941" y="2.2812499999999765" width="0.5640624999999941" height="0.5640624999999941" fill="#252525" />
<rect x="1.1431249999999882" y="2.2812499999999765" width="0.5640624999999941" height="0.5640624999999941" fill="#252525" />
<rect x="1.7121874999999824" y="2.2812499999999765" width="0.5640624999999941" height="0.5640624999999941" fill="#252525" />
<rect x="2.2812499999999765" y="2.2812499999999765" width="0.5640624999999941" height="0.5640624999999941" fill="#252525" />
<rect x="2.8503124999999705" y="2.2812499999999765" width="0.5640624999999941" height="0.5640624999999941" fill="#252525" />
<rect x="3.419374999999965" y="2.2812499999999765" width="0.5640624999999941" height="0.5640624999999941" fill="#252525" />
<rect x="3.988437499999959" y="2.2812499999999765" width="0.5640624999999941" height="0.5640624999999941" fill="#252525" />
<rect x="0.005" y="2.8503124999999705" width="0.5640624999999941" height="0.5640624999999941" fill="#252525" />
<rect x="0.5740624999999941" y="2.8503124999999705" width="0.5640624999999941" height="0.5640624999999941" fill="#252525" />
<rect x="1.1431249999999882" y="2.8503124999999705" width="0.5640624999999941" height="0.5640624999999941" fill="#252525" />
<rect x="1.7121874999999824" y="2.8503124999999705" width="0.5640624999999941" height="0.5640624999999941" fill="#252525" />
<rect x="2.2812499999999765" y="2.8503124999999705" width="0.5640624999999941" height="0.5640624999999941" fill="#252525" />
<rect x="2.8503124999999705" y="2.8503124999999705" width="0.5640624999999941" height="0.5640624999999941" fill="#252525" />
<rect x="3.419374999999965" y="2.8503124999999705" width="0.5640624999999941" height="0.5640624999999941" fill="#252525" />
<rect x="3.988437499999959" y="2.8503124999999705" width="0.5640624999999941" height="0.5640624999999941" fill="#252525" />
<rect x="0.005" y="3.419374999999965" width="0.5640624999999941" height="0.5640624999999941" fill="#252525" />
<rect x="0.5740624999999941" y="3.419374999999965" width="0.5640624999999941" height="0.5640624999999941" fill="#252525" />
<rect x="1.1431249999999882" y="3.419374999999965" width="0.5640624999999941" height="0.5640624999999941" fill="#252525" />
<rect x="1.7121874999999824" y="3.419374999999965" width="0.5640624999999941" height="0.5640624999999941" fill="#252525" />
<rect x="2.2812499999999765" y="3.419374999999965" width="0.5640624999999941" height="0.5640624999999941" fill="#252525" />
<rect x="2.8503124999999705" y="3.419374999999965" width="0.5640624999999941" height="0.5640624999999941" fill="#252525" />
<rect x="3.419374999999965" y="3.419374999999965" width="0.5640624999999941" height="0.5640624999999941" fill="#252525" />
<rect x="3.988437499999959" y="3.419374999999965" width="0.5640624999999941" height="0.5640624999999941" fill="#252525" />
<rect x="-0.02666666666666667" y="-0.02666666666666667" width="4.605833333333287" height="4.036770833333293" fill="none" stroke="#111111ff" stroke-width="0.08" />
<text x="4.552499999999953" y="4.452187499999959" font-size="0.375" fill="black" text-anchor="end" font-family="Anuphan">8x7</text>
<text x="-0.037500000000000006" y="4.452187499999959" font-size="0.375" fill="black" text-anchor="start" font-family="Anuphan" font-weight="600">Output 3</text>
</g>
</defs>
<rect x="0" y="0" width="100%" height="100%" fill="#eeeff6" />
<use xlink:href="#d0" x="0.25" y="0.25" />
<use xlink:href="#d1" x="5.082499999999977" y="0.25" />
<use xlink:href="#d2" x="10.13499999999993" y="0.25" />
<use xlink:href="#d3" x="15.187499999999883" y="0.25" />
<path d="M2.4162499999999887,6.315624999999972 L2.4162499999999887,6.715624999999973" stroke-width="0.05" stroke="#888888" />
<path d="M2.2662499999999888,6.5156249999999725 L2.4162499999999887,6.715624999999973" stroke-width="0.05" stroke="#888888" />
<path d="M2.5662499999999886,6.5156249999999725 L2.4162499999999887,6.715624999999973" stroke-width="0.05" stroke="#888888" />
<use xlink:href="#d4" x="0.25" y="7.065624999999972" />
<path d="M7.358749999999954,6.315624999999972 L7.358749999999954,6.715624999999973" stroke-width="0.05" stroke="#888888" />
<path d="M7.208749999999954,6.5156249999999725 L7.358749999999954,6.715624999999973" stroke-width="0.05" stroke="#888888" />
<path d="M7.508749999999955,6.5156249999999725 L7.358749999999954,6.715624999999973" stroke-width="0.05" stroke="#888888" />
<use xlink:href="#d5" x="5.082499999999977" y="7.065624999999972" />
<path d="M12.411249999999907,6.315624999999972 L12.411249999999907,6.715624999999973" stroke-width="0.05" stroke="#888888" />
<path d="M12.261249999999906,6.5156249999999725 L12.411249999999907,6.715624999999973" stroke-width="0.05" stroke="#888888" />
<path d="M12.561249999999907,6.5156249999999725 L12.411249999999907,6.715624999999973" stroke-width="0.05" stroke="#888888" />
<use xlink:href="#d6" x="10.13499999999993" y="7.065624999999972" />
<path d="M17.46374999999986,6.315624999999972 L17.46374999999986,6.715624999999973" stroke-width="0.05" stroke="#888888" />
<path d="M17.31374999999986,6.5156249999999725 L17.46374999999986,6.715624999999973" stroke-width="0.05" stroke="#888888" />
<path d="M17.613749999999857,6.5156249999999725 L17.46374999999986,6.715624999999973" stroke-width="0.05" stroke="#888888" />
<text x="17.46374999999986" y="9.726406249999945" font-size="1" font-family="Anuphan" font-weight="700" fill="#333333" text-anchor="middle" alignment-baseline="middle">?</text>
<text x="19.9" y="13.299999999999999" font-size="0.3" font-family="Anuphan" font-weight="600" fill="#666666" text-anchor="end" alignment-baseline="bottom">Task 97999447</text>
</svg>