<?xml version="1.0" encoding="UTF-8"?>
<svg xmlns="http://www.w3.org/2000/svg" xmlns:xlink="http://www.w3.org/1999/xlink"
     width="800.0" height="328.0" viewBox="0 0 20.0 8.2">
<defs>
<g id="d0">
<rect x="0.005" y="0.005" width="0.7445833333333338" height="0.7445833333333338" fill="#252525" />
<rect x="0.7545833333333338" y="0.005" width="0.7445833333333338" height="0.7445833333333338" fill="#252525" />
<rect x="1.5041666666666675" y="0.005" width="0.7445833333333338" height="0.7445833333333338" fill="#252525" />
<rect x="2.2537500000000015" y="0.005" width="0.7445833333333338" height="0.7445833333333338" fill="#252525" />
<rect x="3.003333333333335" y="0.005" width="0.7445833333333338" height="0.7445833333333338" fill="#252525" />
<rect x="3.752916666666669" y="0.005" width="0.7445833333333338" height="0.7445833333333338" fill="#252525" />
<rect x="0.005" y="0.7545833333333338" width="0.7445833333333338" height="0.7445833333333338" fill="#FF4136" />
<rect x="0.7545833333333338" y="0.7545833333333338" width="0.7445833333333338" height="0.7445833333333338" fill="#54D2EB" />
<rect x="1.5041666666666675" y="0.7545833333333338" width="0.7445833333333338" height="0.7445833333333338" fill="#FF4136" />
<rect x="2.2537500000000015" y="0.7545833333333338" width="0.7445833333333338" height="0.7445833333333338" fill="#54D2EB" />
<rect x="3.003333333333335" y="0.7545833333333338" width="0.7445833333333338" height="0.7445833333333338" fill="#FF4136" />
<rect x="3.752916666666669" y="0.7545833333333338" width="0.7445833333333338" height="0.7445833333333338" fill="#54D2EB" />
<rect x="0.005" y="1.5041666666666675" width="0.7445833333333338" height="0.7445833333333338" fill="#FF4136" />
<rect x="0.7545833333333338" y="1.5041666666666675" width="0.7445833333333338" height="0.7445833333333338" fill="#54D2EB" />
<rect x="1.5041666666666675" y="1.5041666666666675" width="0.7445833333333338" height="0.7445833333333338" fill="#FF4136" />
<rect x="2.2537500000000015" y="1.5041666666666675" width="0.7445833333333338" height="0.7445833333333338" fill="#54D2EB" />
<rect x="3.003333333333335" y="1.5041666666666675" width="0.7445833333333338" height="0.7445833333333338" fill="#FF4136" />
<rect x="3.752916666666669" y="1.5041666666666675" width="0.7445833333333338" height="0.7445833333333338" fill="#54D2EB" />
<rect x="0.005" y="2.2537500000000015" width="0.7445833333333338" height="0.7445833333333338" fill="#252525" />
<rect x="0.7545833333333338" y="2.2537500000000015" width="0.7445833333333338" height="0.7445833333333338" fill="#252525" />
<rect x="1.5041666666666675" y="2.2537500000000015" width="0.7445833333333338" height="0.7445833333333338" fill="#252525" />
<rect x="2.2537500000000015" y="2.2537500000000015" width="0.7445833333333338" height="0.7445833333333338" fill="#252525" />
<rect x="3.003333333333335" y="2.2537500000000015" width="0.7445833333333338" height="0.7445833333333338" fill="#252525" />
<rect x="3.752916666666669" y="2.2537500000000015" width="0.7445833333333338" height="0.7445833333333338" fill="#252525" />
<rect x="0.005" y="3.003333333333335" width="0.7445833333333338" height="0.7445833333333338" fill="#252525" />
<rect x="0.7545833333333338" y="3.003333333333335" width="0.7445833333333338" height="0.7445833333333338" fill="#252525" />
<rect x="1.5041666666666675" y="3.003333333333335" width="0.7445833333333338" height="0.7445833333333338" fill="#252525" />
<rect x="2.2537500000000015" y="3.003333333333335" width="0.7445833333333338" height="0.7445833333333338" fill="#252525" />
<rect x="3.003333333333335" y="3.003333333333335" width="0.7445833333333338" height="0.7445833333333338" fill="#252525" />
<rect x="3.752916666666669" y="3.003333333333335" width="0.7445833333333338" height="0.7445833333333338" fill="#252525" />
<rect x="-0.02666666666666667" y="-0.02666666666666667" width="4.550833333333337" height="3.8012500000000022" fill="none" stroke="#111111ff" stroke-width="0.08" />
<text x="4.497500000000003" y="4.216666666666669" font-size="0.375" fill="black" text-anchor="end" font-family="Anuphan">6x5</text>
<text x="-0.037500000000000006" y="4.216666666666669" font-size="0.375" fill="black" text-anchor="start" font-family="Anuphan" font-weight="600">Input 1</text>
</g>
<g id="d1">
<rect x="0.005" y="0.005" width="0.6375000000000004" height="0.6375000000000004" fill="#252525" />
<rect x="0.6475000000000004" y="0.005" width="0.6375000000000004" height="0.6375000000000004" fill="#252525" />
<rect x="1.2900000000000007" y="0.005" width="0.6375000000000004" height="0.6375000000000004" fill="#252525" />
<rect x="1.932500000000001" y="0.005" width="0.6375000000000004" height="0.6375000000000004" fill="#252525" />
<rect x="2.5750000000000015" y="0.005" width="0.6375000000000004" height="0.6375000000000004" fill="#252525" />
<rect x="3.217500000000002" y="0.005" width="0.6375000000000004" height="0.6375000000000004" fill="#252525" />
<rect x="3.860000000000002" y="0.005" width="0.6375000000000004" height="0.6375000000000004" fill="#252525" />
<rect x="0.005" y="0.6475000000000004" width="0.6375000000000004" height="0.6375000000000004" fill="#252525" />
<rect x="0.6475000000000004" y="0.6475000000000004" width="0.6375000000000004" height="0.6375000000000004" fill="#252525" />
<rect x="1.2900000000000007" y="0.6475000000000004" width="0.6375000000000004" height="0.6375000000000004" fill="#252525" />
<rect x="1.932500000000001" y="0.6475000000000004" width="0.6375000000000004" height="0.6375000000000004" fill="#252525" />
<rect x="2.5750000000000015" y="0.6475000000000004" width="0.6375000000000004" height="0.6375000000000004" fill="#252525" />
<rect x="3.217500000000002" y="0.6475000000000004" width="0.6375000000000004" height="0.6375000000000004" fill="#252525" />
<rect x="3.860000000000002" y="0.6475000000000004" width="0.6375000000000004" height="0.6375000000000004" fill="#252525" />
<rect x="0.005" y="1.2900000000000007" width="0.6375000000000004" height="0.6375000000000004" fill="#FF4136" />
<rect x="0.6475000000000004" y="1.2900000000000007" width="0.6375000000000004" height="0.6375000000000004" fill="#37D449" />
<rect x="1.2900000000000007" y="1.2900000000000007" width="0.6375000000000004" height="0.6375000000000004" fill="#37D449" />
<rect x="1.932500000000001" y="1.2900000000000007" width="0.6375000000000004" height="0.6375000000000004" fill="#FF4136" />
<rect x="2.5750000000000015" y="1.2900000000000007" width="0.6375000000000004" height="0.6375000000000004" fill="#37D449" />
<rect x="3.217500000000002" y="1.2900000000000007" width="0.6375000000000004" height="0.6375000000000004" fill="#37D449" />
<rect x="3.860000000000002" y="1.2900000000000007" width="0.6375000000000004" height="0.6375000000000004" fill="#FF4136" />
<rect x="0.005" y="1.932500000000001" width="0.6375000000000004" height="0.6375000000000004" fill="#252525" />
<rect x="0.6475000000000004" y="1.932500000000001" width="0.6375000000000004" height="0.6375000000000004" fill="#252525" />
<rect x="1.2900000000000007" y="1.932500000000001" width="0.6375000000000004" height="0.6375000000000004" fill="#252525" />
<rect x="1.932500000000001" y="1.932500000000001" width="0.6375000000000004" height="0.6375000000000004" fill="#252525" />
<rect x="2.5750000000000015" y="1.932500000000001" width="0.6375000000000004" height="0.6375000000000004" fill="#252525" />
<rect x="3.217500000000002" y="1.932500000000001" width="0.6375000000000004" height="0.6375000000000004" fill="#252525" />
<rect x="3.860000000000002" y="1.932500000000001" width="0.6375000000000004" height="0.6375000000000004" fill="#252525" />
<rect x="0.005" y="2.5750000000000015" width="0.6375000000000004" height="0.6375000000000004" fill="#252525" />
<rect x="0.6475000000000004" y="2.5750000000000015" width="0.6375000000000004" height="0.6375000000000004" fill="#252525" />
<rect x="1.2900000000000007" y="2.5750000000000015" width="0.6375000000000004" height="0.6375000000000004" fill="#252525" />
<rect x="1.932500000000001" y="2.5750000000000015" width="0.6375000000000004" height="0.6375000000000004" fill="#252525" />
<rect x="2.5750000000000015" y="2.5750000000000015" width="0.6375000000000004" height="0.6375000000000004" fill="#252525" />
<rect x="3.217500000000002" y="2.5750000000000015" width="0.6375000000000004" height="0.6375000000000004" fill="#252525" />
<rect x="3.860000000000002" y="2.5750000000000015" width="0.6375000000000004" height="0.6375000000000004" fill="#252525" />
<rect x="-0.02666666666666667" y="-0.02666666666666667" width="4.550833333333337" height="3.2658333333333354" fill="none" stroke="#111111ff" stroke-width="0.08" />
<text x="4.497500000000003" y="3.681250000000002" font-size="0.375" fill="black" text-anchor="end" font-family="Anuphan">7x5</text>
<text x="-0.037500000000000006" y="3.681250000000002" font-size="0.375" fill="black" text-anchor="start" font-family="Anuphan" font-weight="600">Input 2</text>
</g>
<g id="d2">
<rect x="0.005" y="0.005" width="0.5571875000000004" height="0.5571875000000004" fill="#252525" />
<rect x="0.5671875000000004" y="0.005" width="0.5571875000000004" height="0.5571875000000004" fill="#252525" />
<rect x="1.1293750000000007" y="0.005" width="0.5571875000000004" height="0.5571875000000004" fill="#252525" />
<rect x="1.6915625000000012" y="0.005" width="0.5571875000000004" height="0.5571875000000004" fill="#252525" />
<rect x="2.2537500000000015" y="0.005" width="0.5571875000000004" height="0.5571875000000004" fill="#252525" />
<rect x="2.8159375000000018" y="0.005" width="0.5571875000000004" height="0.5571875000000004" fill="#252525" />
<rect x="3.3781250000000025" y="0.005" width="0.5571875000000004" height="0.5571875000000004" fill="#252525" />
<rect x="3.9403125000000028" y="0.005" width="0.5571875000000004" height="0.5571875000000004" fill="#252525" />
<rect x="0.005" y="0.5671875000000004" width="0.5571875000000004" height="0.5571875000000004" fill="#252525" />
<rect x="0.5671875000000004" y="0.5671875000000004" width="0.5571875000000004" height="0.5571875000000004" fill="#252525" />
<rect x="1.1293750000000007" y="0.5671875000000004" width="0.5571875000000004" height="0.5571875000000004" fill="#252525" />
<rect x="1.6915625000000012" y="0.5671875000000004" width="0.5571875000000004" height="0.5571875000000004" fill="#252525" />
<rect x="2.2537500000000015" y="0.5671875000000004" width="0.5571875000000004" height="0.5571875000000004" fill="#252525" />
<rect x="2.8159375000000018" y="0.5671875000000004" width="0.5571875000000004" height="0.5571875000000004" fill="#252525" />
<rect x="3.3781250000000025" y="0.5671875000000004" width="0.5571875000000004" height="0.5571875000000004" fill="#252525" />
<rect x="3.9403125000000028" y="0.5671875000000004" width="0.5571875000000004" height="0.5571875000000004" fill="#252525" />
<rect x="0.005" y="1.1293750000000007" width="0.5571875000000004" height="0.5571875000000004" fill="#0074D9" />
<rect x="0.5671875000000004" y="1.1293750000000007" width="0.5571875000000004" height="0.5571875000000004" fill="#FF4136" />
<rect x="1.1293750000000007" y="1.1293750000000007" width="0.5571875000000004" height="0.5571875000000004" fill="#FF4136" />
<rect x="1.6915625000000012" y="1.1293750000000007" width="0.5571875000000004" height="0.5571875000000004" fill="#0074D9" />
<rect x="2.2537500000000015" y="1.1293750000000007" width="0.5571875000000004" height="0.5571875000000004" fill="#FF4136" />
<rect x="2.8159375000000018" y="1.1293750000000007" width="0.5571875000000004" height="0.5571875000000004" fill="#FF4136" />
<rect x="3.3781250000000025" y="1.1293750000000007" width="0.5571875000000004" height="0.5571875000000004" fill="#0074D9" />
<rect x="3.9403125000000028" y="1.1293750000000007" width="0.5571875000000004" height="0.5571875000000004" fill="#FF4136" />
<rect x="0.005" y="1.6915625000000012" width="0.5571875000000004" height="0.5571875000000004" fill="#FF4136" />
<rect x="0.5671875000000004" y="1.6915625000000012" width="0.5571875000000004" height="0.5571875000000004" fill="#0074D9" />
<rect x="1.1293750000000007" y="1.6915625000000012" width="0.5571875000000004" height="0.5571875000000004" fill="#FF4136" />
<rect x="1.6915625000000012" y="1.6915625000000012" width="0.5571875000000004" height="0.5571875000000004" fill="#FF4136" />
<rect x="2.2537500000000015" y="1.6915625000000012" width="0.5571875000000004" height="0.5571875000000004" fill="#0074D9" />
<rect x="2.8159375000000018" y="1.6915625000000012" width="0.5571875000000004" height="0.5571875000000004" fill="#FF4136" />
<rect x="3.3781250000000025" y="1.6915625000000012" width="0.5571875000000004" height="0.5571875000000004" fill="#FF4136" />
<rect x="3.9403125000000028" y="1.6915625000000012" width="0.5571875000000004" height="0.5571875000000004" fill="#0074D9" />
<rect x="0.005" y="2.2537500000000015" width="0.5571875000000004" height="0.5571875000000004" fill="#252525" />
<rect x="0.5671875000000004" y="2.2537500000000015" width="0.5571875000000004" height="0.5571875000000004" fill="#252525" />
<rect x="1.1293750000000007" y="2.2537500000000015" width="0.5571875000000004" height="0.5571875000000004" fill="#252525" />
<rect x="1.6915625000000012" y="2.2537500000000015" width="0.5571875000000004" height="0.5571875000000004" fill="#252525" />
<rect x="2.2537500000000015" y="2.2537500000000015" width="0.5571875000000004" height="0.5571875000000004" fill="#252525" />
<rect x="2.8159375000000018" y="2.2537500000000015" width="0.5571875000000004" height="0.5571875000000004" fill="#252525" />
<rect x="3.3781250000000025" y="2.2537500000000015" width="0.5571875000000004" height="0.5571875000000004" fill="#252525" />
<rect x="3.9403125000000028" y="2.2537500000000015" width="0.5571875000000004" height="0.5571875000000004" fill="#252525" />
<rect x="-0.02666666666666667" y="-0.02666666666666667" width="4.550833333333337" height="2.864270833333335" fill="none" stroke="#111111ff" stroke-width="0.08" />
<text x="4.497500000000003" y="3.279687500000002" font-size="0.375" fill="black" text-anchor="end" font-family="Anuphan">8x5</text>
<text x="-0.037500000000000006" y="3.279687500000002" font-size="0.375" fill="black" text-anchor="start" font-family="Anuphan" font-weight="600">Input 3</text>
</g>
<g id="d3">
<rect x="0.005" y="0.005" width="0.49472222222222256" height="0.49472222222222256" fill="#252525" />
<rect x="0.5047222222222225" y="0.005" width="0.49472222222222256" height="0.49472222222222256" fill="#252525" />
<rect x="1.0044444444444451" y="0.005" width="0.49472222222222256" height="0.49472222222222256" fill="#252525" />
<rect x="1.5041666666666675" y="0.005" width="0.49472222222222256" height="0.49472222222222256" fill="#252525" />
<rect x="2.0038888888888904" y="0.005" width="0.49472222222222256" height="0.49472222222222256" fill="#252525" />
<rect x="2.5036111111111126" y="0.005" width="0.49472222222222256" height="0.49472222222222256" fill="#252525" />
<rect x="3.003333333333335" y="0.005" width="0.49472222222222256" height="0.49472222222222256" fill="#252525" />
<rect x="3.503055555555558" y="0.005" width="0.49472222222222256" height="0.49472222222222256" fill="#252525" />
<rect x="4.002777777777781" y="0.005" width="0.49472222222222256" height="0.49472222222222256" fill="#252525" />
<rect x="0.005" y="0.5047222222222225" width="0.49472222222222256" height="0.49472222222222256" fill="#37D449" />
<rect x="0.5047222222222225" y="0.5047222222222225" width="0.49472222222222256" height="0.49472222222222256" fill="#0074D9" />
<rect x="1.0044444444444451" y="0.5047222222222225" width="0.49472222222222256" height="0.49472222222222256" fill="#0074D9" />
<rect x="1.5041666666666675" y="0.5047222222222225" width="0.49472222222222256" height="0.49472222222222256" fill="#37D449" />
<rect x="2.0038888888888904" y="0.5047222222222225" width="0.49472222222222256" height="0.49472222222222256" fill="#0074D9" />
<rect x="2.5036111111111126" y="0.5047222222222225" width="0.49472222222222256" height="0.49472222222222256" fill="#0074D9" />
<rect x="3.003333333333335" y="0.5047222222222225" width="0.49472222222222256" height="0.49472222222222256" fill="#37D449" />
<rect x="3.503055555555558" y="0.5047222222222225" width="0.49472222222222256" height="0.49472222222222256" fill="#0074D9" />
<rect x="4.002777777777781" y="0.5047222222222225" width="0.49472222222222256" height="0.49472222222222256" fill="#0074D9" />
<rect x="0.005" y="1.0044444444444451" width="0.49472222222222256" height="0.49472222222222256" fill="#37D449" />
<rect x="0.5047222222222225" y="1.0044444444444451" width="0.49472222222222256" height="0.49472222222222256" fill="#0074D9" />
<rect x="1.0044444444444451" y="1.0044444444444451" width="0.49472222222222256" height="0.49472222222222256" fill="#0074D9" />
<rect x="1.5041666666666675" y="1.0044444444444451" width="0.49472222222222256" height="0.49472222222222256" fill="#37D449" />
<rect x="2.0038888888888904" y="1.0044444444444451" width="0.49472222222222256" height="0.49472222222222256" fill="#0074D9" />
<rect x="2.5036111111111126" y="1.0044444444444451" width="0.49472222222222256" height="0.49472222222222256" fill="#0074D9" />
<rect x="3.003333333333335" y="1.0044444444444451" width="0.49472222222222256" height="0.49472222222222256" fill="#37D449" />
<rect x="3.503055555555558" y="1.0044444444444451" width="0.49472222222222256" height="0.49472222222222256" fill="#0074D9" />
<rect x="4.002777777777781" y="1.0044444444444451" width="0.49472222222222256" height="0.49472222222222256" fill="#0074D9" />
<rect x="0.005" y="1.5041666666666675" width="0.49472222222222256" height="0.49472222222222256" fill="#252525" />
<rect x="0.5047222222222225" y="1.5041666666666675" width="0.49472222222222256" height="0.49472222222222256" fill="#252525" />
<rect x="1.0044444444444451" y="1.5041666666666675" width="0.49472222222222256" height="0.49472222222222256" fill="#252525" />
<rect x="1.5041666666666675" y="1.5041666666666675" width="0.49472222222222256" height="0.49472222222222256" fill="#252525" />
<rect x="2.0038888888888904" y="1.5041666666666675" width="0.49472222222222256" height="0.49472222222222256" fill="#252525" />
<rect x="2.5036111111111126" y="1.5041666666666675" width="0.49472222222222256" height="0.49472222222222256" fill="#252525" />
<rect x="3.003333333333335" y="1.5041666666666675" width="0.49472222222222256" height="0.49472222222222256" fill="#252525" />
<rect x="3.503055555555558" y="1.5041666666666675" width="0.49472222222222256" height="0.49472222222222256" fill="#252525" />
<rect x="4.002777777777781" y="1.5041666666666675" width="0.49472222222222256" height="0.49472222222222256" fill="#252525" />
<rect x="0.005" y="2.0038888888888904" width="0.49472222222222256" height="0.49472222222222256" fill="#252525" />
<rect x="0.5047222222222225" y="2.0038888888888904" width="0.49472222222222256" height="0.49472222222222256" fill="#252525" />
<rect x="1.0044444444444451" y="2.0038888888888904" width="0.49472222222222256" height="0.49472222222222256" fill="#252525" />
<rect x="1.5041666666666675" y="2.0038888888888904" width="0.49472222222222256" height="0.49472222222222256" fill="#252525" />
<rect x="2.0038888888888904" y="2.0038888888888904" width="0.49472222222222256" height="0.49472222222222256" fill="#252525" />
<rect x="2.5036111111111126" y="2.0038888888888904" width="0.49472222222222256" height="0.49472222222222256" fill="#252525" />
<rect x="3.003333333333335" y="2.0038888888888904" width="0.49472222222222256" height="0.49472222222222256" fill="#252525" />
<rect x="3.503055555555558" y="2.0038888888888904" width="0.49472222222222256" height="0.49472222222222256" fill="#252525" />
<rect x="4.002777777777781" y="2.0038888888888904" width="0.49472222222222256" height="0.49472222222222256" fill="#252525" />
<rect x="-0.02666666666666667" y="-0.02666666666666667" width="4.550833333333337" height="2.551944444444446" fill="none" stroke="#111111ff" stroke-width="0.08" />
<text x="4.497500000000003" y="2.9673611111111127" font-size="0.375" fill="black" text-anchor="end" font-family="Anuphan">9x5</text>
<text x="-0.037500000000000006" y="2.9673611111111127" font-size="0.375" fill="black" text-anchor="start" font-family="Anuphan" font-weight="600">Test 1</text>
</g>
<g id="d4">
<rect x="0.005" y="0.005" width="0.3697916666666669" height="0.3697916666666669" fill="#252525" />
<rect x="0.3797916666666669" y="0.005" width="0.3697916666666669" height="0.3697916666666669" fill="#252525" />
<rect x="0.7545833333333338" y="0.005" width="0.3697916666666669" height="0.3697916666666669" fill="#252525" />
<rect x="1.1293750000000007" y="0.005" width="0.3697916666666669" height="0.3697916666666669" fill="#252525" />
<rect x="1.5041666666666675" y="0.005" width="0.3697916666666669" height="0.3697916666666669" fill="#252525" />
<rect x="1.8789583333333344" y="0.005" width="0.3697916666666669" height="0.3697916666666669" fill="#252525" />
<rect x="2.2537500000000015" y="0.005" width="0.3697916666666669" height="0.3697916666666669" fill="#252525" />
<rect x="2.6285416666666683" y="0.005" width="0.3697916666666669" height="0.3697916666666669" fill="#252525" />
<rect x="3.003333333333335" y="0.005" width="0.3697916666666669" height="0.3697916666666669" fill="#252525" />
<rect x="3.378125000000002" y="0.005" width="0.3697916666666669" height="0.3697916666666669" fill="#252525" />
<rect x="3.752916666666669" y="0.005" width="0.3697916666666669" height="0.3697916666666669" fill="#252525" />
<rect x="4.127708333333336" y="0.005" width="0.3697916666666669" height="0.3697916666666669" fill="#252525" />
<rect x="0.005" y="0.3797916666666669" width="0.3697916666666669" height="0.3697916666666669" fill="#FF4136" />
<rect x="0.3797916666666669" y="0.3797916666666669" width="0.3697916666666669" height="0.3697916666666669" fill="#54D2EB" />
<rect x="0.7545833333333338" y="0.3797916666666669" width="0.3697916666666669" height="0.3697916666666669" fill="#FF4136" />
<rect x="1.1293750000000007" y="0.3797916666666669" width="0.3697916666666669" height="0.3697916666666669" fill="#54D2EB" />
<rect x="1.5041666666666675" y="0.3797916666666669" width="0.3697916666666669" height="0.3697916666666669" fill="#FF4136" />
<rect x="1.8789583333333344" y="0.3797916666666669" width="0.3697916666666669" height="0.3697916666666669" fill="#54D2EB" />
<rect x="2.2537500000000015" y="0.3797916666666669" width="0.3697916666666669" height="0.3697916666666669" fill="#FF4136" />
<rect x="2.6285416666666683" y="0.3797916666666669" width="0.3697916666666669" height="0.3697916666666669" fill="#54D2EB" />
<rect x="3.003333333333335" y="0.3797916666666669" width="0.3697916666666669" height="0.3697916666666669" fill="#FF4136" />
<rect x="3.378125000000002" y="0.3797916666666669" width="0.3697916666666669" height="0.3697916666666669" fill="#54D2EB" />
<rect x="3.752916666666669" y="0.3797916666666669" width="0.3697916666666669" height="0.3697916666666669" fill="#FF4136" />
<rect x="4.127708333333336" y="0.3797916666666669" width="0.3697916666666669" height="0.3697916666666669" fill="#54D2EB" />
<rect x="0.005" y="0.7545833333333338" width="0.3697916666666669" height="0.3697916666666669" fill="#FF4136" />
<rect x="0.3797916666666669" y="0.7545833333333338" width="0.3697916666666669" height="0.3697916666666669" fill="#54D2EB" />
<rect x="0.7545833333333338" y="0.7545833333333338" width="0.3697916666666669" height="0.3697916666666669" fill="#FF4136" />
<rect x="1.1293750000000007" y="0.7545833333333338" width="0.3697916666666669" height="0.3697916666666669" fill="#54D2EB" />
<rect x="1.5041666666666675" y="0.7545833333333338" width="0.3697916666666669" height="0.3697916666666669" fill="#FF4136" />
<rect x="1.8789583333333344" y="0.7545833333333338" width="0.3697916666666669" height="0.3697916666666669" fill="#54D2EB" />
<rect x="2.2537500000000015" y="0.7545833333333338" width="0.3697916666666669" height="0.3697916666666669" fill="#FF4136" />
<rect x="2.6285416666666683" y="0.7545833333333338" width="0.3697916666666669" height="0.3697916666666669" fill="#54D2EB" />
<rect x="3.003333333333335" y="0.7545833333333338" width="0.3697916666666669" height="0.3697916666666669" fill="#FF4136" />
<rect x="3.378125000000002" y="0.7545833333333338" width="0.3697916666666669" height="0.3697916666666669" fill="#54D2EB" />
<rect x="3.752916666666669" y="0.7545833333333338" width="0.3697916666666669" height="0.3697916666666669" fill="#FF4136" />
<rect x="4.127708333333336" y="0.7545833333333338" width="0.3697916666666669" height="0.3697916666666669" fill="#54D2EB" />
<rect x="0.005" y="1.1293750000000007" width="0.3697916666666669" height="0.3697916666666669" fill="#252525" />
<rect x="0.3797916666666669" y="1.1293750000000007" width="0.3697916666666669" height="0.3697916666666669" fill="#252525" />
<rect x="0.7545833333333338" y="1.1293750000000007" width="0.3697916666666669" height="0.3697916666666669" fill="#252525" />
<rect x="1.1293750000000007" y="1.1293750000000007" width="0.3697916666666669" height="0.3697916666666669" fill="#252525" />
<rect x="1.5041666666666675" y="1.1293750000000007" width="0.3697916666666669" height="0.3697916666666669" fill="#252525" />
<rect x="1.8789583333333344" y="1.1293750000000007" width="0.3697916666666669" height="0.3697916666666669" fill="#252525" />
<rect x="2.2537500000000015" y="1.1293750000000007" width="0.3697916666666669" height="0.3697916666666669" fill="#252525" />
<rect x="2.6285416666666683" y="1.1293750000000007" width="0.3697916666666669" height="0.3697916666666669" fill="#252525" />
<rect x="3.003333333333335" y="1.1293750000000007" width="0.3697916666666669" height="0.3697916666666669" fill="#252525" />
<rect x="3.378125000000002" y="1.1293750000000007" width="0.3697916666666669" height="0.3697916666666669" fill="#252525" />
<rect x="3.752916666666669" y="1.1293750000000007" width="0.3697916666666669" height="0.3697916666666669" fill="#252525" />
<rect x="4.127708333333336" y="1.1293750000000007" width="0.3697916666666669" height="0.3697916666666669" fill="#252525" />
<rect x="0.005" y="1.5041666666666675" width="0.3697916666666669" height="0.3697916666666669" fill="#252525" />
<rect x="0.3797916666666669" y="1.5041666666666675" width="0.3697916666666669" height="0.3697916666666669" fill="#252525" />
<rect x="0.7545833333333338" y="1.5041666666666675" width="0.3697916666666669" height="0.3697916666666669" fill="#252525" />
<rect x="1.1293750000000007" y="1.5041666666666675" width="0.3697916666666669" height="0.3697916666666669" fill="#252525" />
<rect x="1.5041666666666675" y="1.5041666666666675" width="0.3697916666666669" height="0.3697916666666669" fill="#252525" />
<rect x="1.8789583333333344" y="1.5041666666666675" width="0.3697916666666669" height="0.3697916666666669" fill="#252525" />
<rect x="2.2537500000000015" y="1.5041666666666675" width="0.3697916666666669" height="0.3697916666666669" fill="#252525" />
<rect x="2.6285416666666683" y="1.5041666666666675" width="0.3697916666666669" height="0.3697916666666669" fill="#252525" />
<rect x="3.003333333333335" y="1.5041666666666675" width="0.3697916666666669" height="0.3697916666666669" fill="#252525" />
<rect x="3.378125000000002" y="1.5041666666666675" width="0.3697916666666669" height="0.3697916666666669" fill="#252525" />
<rect x="3.752916666666669" y="1.5041666666666675" width="0.3697916666666669" height="0.3697916666666669" fill="#252525" />
<rect x="4.127708333333336" y="1.5041666666666675" width="0.3697916666666669" height="0.3697916666666669" fill="#252525" />
<rect x="-0.02666666666666667" y="-0.02666666666666667" width="4.550833333333337" height="1.9272916666666677" fill="none" stroke="#111111ff" stroke-width="0.08" />
<text x="4.497500000000003" y="2.3427083333333343" font-size="0.375" fill="black" text-anchor="end" font-family="Anuphan">12x5</text>
<text x="-0.037500000000000006" y="2.3427083333333343" font-size="0.375" fill="black" text-anchor="start" font-family="Anuphan" font-weight="600">Output 1</text>
</g>
<g id="d5">
<rect x="0.005" y="0.005" width="0.3162500000000002" height="0.3162500000000002" fill="#252525" />
<rect x="0.3262500000000002" y="0.005" width="0.3162500000000002" height="0.3162500000000002" fill="#252525" />
<rect x="0.6475000000000004" y="0.005" width="0.3162500000000002" height="0.3162500000000002" fill="#252525" />
<rect x="0.9687500000000006" y="0.005" width="0.3162500000000002" height="0.3162500000000002" fill="#252525" />
<rect x="1.2900000000000007" y="0.005" width="0.3162500000000002" height="0.3162500000000002" fill="#252525" />
<rect x="1.611250000000001" y="0.005" width="0.3162500000000002" height="0.3162500000000002" fill="#252525" />
<rect x="1.932500000000001" y="0.005" width="0.3162500000000002" height="0.3162500000000002" fill="#252525" />
<rect x="2.2537500000000015" y="0.005" width="0.3162500000000002" height="0.3162500000000002" fill="#252525" />
<rect x="2.5750000000000015" y="0.005" width="0.3162500000000002" height="0.3162500000000002" fill="#252525" />
<rect x="2.8962500000000015" y="0.005" width="0.3162500000000002" height="0.3162500000000002" fill="#252525" />
<rect x="3.217500000000002" y="0.005" width="0.3162500000000002" height="0.3162500000000002" fill="#252525" />
<rect x="3.538750000000002" y="0.005" width="0.3162500000000002" height="0.3162500000000002" fill="#252525" />
<rect x="3.860000000000002" y="0.005" width="0.3162500000000002" height="0.3162500000000002" fill="#252525" />
<rect x="4.181250000000002" y="0.005" width="0.3162500000000002" height="0.3162500000000002" fill="#252525" />
<rect x="0.005" y="0.3262500000000002" width="0.3162500000000002" height="0.3162500000000002" fill="#252525" />
<rect x="0.3262500000000002" y="0.3262500000000002" width="0.3162500000000002" height="0.3162500000000002" fill="#252525" />
<rect x="0.6475000000000004" y="0.3262500000000002" width="0.3162500000000002" height="0.3162500000000002" fill="#252525" />
<rect x="0.9687500000000006" y="0.3262500000000002" width="0.3162500000000002" height="0.3162500000000002" fill="#252525" />
<rect x="1.2900000000000007" y="0.3262500000000002" width="0.3162500000000002" height="0.3162500000000002" fill="#252525" />
<rect x="1.611250000000001" y="0.3262500000000002" width="0.3162500000000002" height="0.3162500000000002" fill="#252525" />
<rect x="1.932500000000001" y="0.3262500000000002" width="0.3162500000000002" height="0.3162500000000002" fill="#252525" />
<rect x="2.2537500000000015" y="0.3262500000000002" width="0.3162500000000002" height="0.3162500000000002" fill="#252525" />
<rect x="2.5750000000000015" y="0.3262500000000002" width="0.3162500000000002" height="0.3162500000000002" fill="#252525" />
<rect x="2.8962500000000015" y="0.3262500000000002" width="0.3162500000000002" height="0.3162500000000002" fill="#252525" />
<rect x="3.217500000000002" y="0.3262500000000002" width="0.3162500000000002" height="0.3162500000000002" fill="#252525" />
<rect x="3.538750000000002" y="0.3262500000000002" width="0.3162500000000002" height="0.3162500000000002" fill="#252525" />
<rect x="3.860000000000002" y="0.3262500000000002" width="0.3162500000000002" height="0.3162500000000002" fill="#252525" />
<rect x="4.181250000000002" y="0.3262500000000002" width="0.3162500000000002" height="0.3162500000000002" fill="#252525" />
<rect x="0.005" y="0.6475000000000004" width="0.3162500000000002" height="0.3162500000000002" fill="#FF4136" />
<rect x="0.3262500000000002" y="0.6475000000000004" width="0.3162500000000002" height="0.3162500000000002" fill="#37D449" />
<rect x="0.6475000000000004" y="0.6475000000000004" width="0.3162500000000002" height="0.3162500000000002" fill="#37D449" />
<rect x="0.9687500000000006" y="0.6475000000000004" width="0.3162500000000002" height="0.3162500000000002" fill="#FF4136" />
<rect x="1.2900000000000007" y="0.6475000000000004" width="0.3162500000000002" height="0.3162500000000002" fill="#37D449" />
<rect x="1.611250000000001" y="0.6475000000000004" width="0.3162500000000002" height="0.3162500000000002" fill="#37D449" />
<rect x="1.932500000000001" y="0.6475000000000004" width="0.3162500000000002" height="0.3162500000000002" fill="#FF4136" />
<rect x="2.2537500000000015" y="0.6475000000000004" width="0.3162500000000002" height="0.3162500000000002" fill="#37D449" />
<rect x="2.5750000000000015" y="0.6475000000000004" width="0.3162500000000002" height="0.3162500000000002" fill="#37D449" />
<rect x="2.8962500000000015" y="0.6475000000000004" width="0.3162500000000002" height="0.3162500000000002" fill="#FF4136" />
<rect x="3.217500000000002" y="0.6475000000000004" width="0.3162500000000002" height="0.3162500000000002" fill="#37D449" />
<rect x="3.538750000000002" y="0.6475000000000004" width="0.3162500000000002" height="0.3162500000000002" fill="#37D449" />
<rect x="3.860000000000002" y="0.6475000000000004" width="0.3162500000000002" height="0.3162500000000002" fill="#FF4136" />
<rect x="4.181250000000002" y="0.6475000000000004" width="0.3162500000000002" height="0.3162500000000002" fill="#37D449" />
<rect x="0.005" y="0.9687500000000006" width="0.3162500000000002" height="0.3162500000000002" fill="#252525" />
<rect x="0.3262500000000002" y="0.9687500000000006" width="0.3162500000000002" height="0.3162500000000002" fill="#252525" />
<rect x="0.6475000000000004" y="0.9687500000000006" width="0.3162500000000002" height="0.3162500000000002" fill="#252525" />
<rect x="0.9687500000000006" y="0.9687500000000006" width="0.3162500000000002" height="0.3162500000000002" fill="#252525" />
<rect x="1.2900000000000007" y="0.9687500000000006" width="0.3162500000000002" height="0.3162500000000002" fill="#252525" />
<rect x="1.611250000000001" y="0.9687500000000006" width="0.3162500000000002" height="0.3162500000000002" fill="#252525" />
<rect x="1.932500000000001" y="0.9687500000000006" width="0.3162500000000002" height="0.3162500000000002" fill="#252525" />
<rect x="2.2537500000000015" y="0.9687500000000006" width="0.3162500000000002" height="0.3162500000000002" fill="#252525" />
<rect x="2.5750000000000015" y="0.9687500000000006" width="0.3162500000000002" height="0.3162500000000002" fill="#252525" />
<rect x="2.8962500000000015" y="0.9687500000000006" width="0.3162500000000002" height="0.3162500000000002" fill="#252525" />
<rect x="3.217500000000002" y="0.9687500000000006" width="0.3162500000000002" height="0.3162500000000002" fill="#252525" />
<rect x="3.538750000000002" y="0.9687500000000006" width="0.3162500000000002" height="0.3162500000000002" fill="#252525" />
<rect x="3.860000000000002" y="0.9687500000000006" width="0.3162500000000002" height="0.3162500000000002" fill="#252525" />
<rect x="4.181250000000002" y="0.9687500000000006" width="0.3162500000000002" height="0.3162500000000002" fill="#252525" />
<rect x="0.005" y="1.2900000000000007" width="0.3162500000000002" height="0.3162500000000002" fill="#252525" />
<rect x="0.3262500000000002" y="1.2900000000000007" width="0.3162500000000002" height="0.3162500000000002" fill="#252525" />
<rect x="0.6475000000000004" y="1.2900000000000007" width="0.3162500000000002" height="0.3162500000000002" fill="#252525" />
<rect x="0.9687500000000006" y="1.2900000000000007" width="0.3162500000000002" height="0.3162500000000002" fill="#252525" />
<rect x="1.2900000000000007" y="1.2900000000000007" width="0.3162500000000002" height="0.3162500000000002" fill="#252525" />
<rect x="1.611250000000001" y="1.2900000000000007" width="0.3162500000000002" height="0.3162500000000002" fill="#252525" />
<rect x="1.932500000000001" y="1.2900000000000007" width="0.3162500000000002" height="0.3162500000000002" fill="#252525" />
<rect x="2.2537500000000015" y="1.2900000000000007" width="0.3162500000000002" height="0.3162500000000002" fill="#252525" />
<rect x="2.5750000000000015" y="1.2900000000000007" width="0.3162500000000002" height="0.3162500000000002" fill="#252525" />
<rect x="2.8962500000000015" y="1.2900000000000007" width="0.3162500000000002" height="0.3162500000000002" fill="#252525" />
<rect x="3.217500000000002" y="1.2900000000000007" width="0.3162500000000002" height="0.3162500000000002" fill="#252525" />
<rect x="3.538750000000002" y="1.2900000000000007" width="0.3162500000000002" height="0.3162500000000002" fill="#252525" />
<rect x="3.860000000000002" y="1.2900000000000007" width="0.3162500000000002" height="0.3162500000000002" fill="#252525" />
<rect x="4.181250000000002" y="1.2900000000000007" width="0.3162500000000002" height="0.3162500000000002" fill="#252525" />
<rect x="-0.02666666666666667" y="-0.02666666666666667" width="4.550833333333337" height="1.6595833333333343" fill="none" stroke="#111111ff" stroke-width="0.08" />
<text x="4.497500000000003" y="2.075000000000001" font-size="0.375" fill="black" text-anchor="end" font-family="Anuphan">14x5</text>
<text x="-0.037500000000000006" y="2.075000000000001" font-size="0.375" fill="black" text-anchor="start" font-family="Anuphan" font-weight="600">Output 2</text>
</g>
<g id="d6">
<rect x="0.005" y="0.005" width="0.2760937500000002" height="0.2760937500000002" fill="#252525" />
<rect x="0.2860937500000002" y="0.005" width="0.2760937500000002" height="0.2760937500000002" fill="#252525" />
<rect x="0.5671875000000004" y="0.005" width="0.2760937500000002" height="0.2760937500000002" fill="#252525" />
<rect x="0.8482812500000007" y="0.005" width="0.2760937500000002" height="0.2760937500000002" fill="#252525" />
<rect x="1.1293750000000007" y="0.005" width="0.2760937500000002" height="0.2760937500000002" fill="#252525" />
<rect x="1.4104687500000008" y="0.005" width="0.2760937500000002" height="0.2760937500000002" fill="#252525" />
<rect x="1.6915625000000012" y="0.005" width="0.2760937500000002" height="0.2760937500000002" fill="#252525" />
<rect x="1.9726562500000013" y="0.005" width="0.2760937500000002" height="0.2760937500000002" fill="#252525" />
<rect x="2.2537500000000015" y="0.005" width="0.2760937500000002" height="0.2760937500000002" fill="#252525" />
<rect x="2.5348437500000016" y="0.005" width="0.2760937500000002" height="0.2760937500000002" fill="#252525" />
<rect x="2.8159375000000018" y="0.005" width="0.2760937500000002" height="0.2760937500000002" fill="#252525" />
<rect x="3.097031250000002" y="0.005" width="0.2760937500000002" height="0.2760937500000002" fill="#252525" />
<rect x="3.3781250000000025" y="0.005" width="0.2760937500000002" height="0.2760937500000002" fill="#252525" />
<rect x="3.6592187500000026" y="0.005" width="0.2760937500000002" height="0.2760937500000002" fill="#252525" />
<rect x="3.9403125000000028" y="0.005" width="0.2760937500000002" height="0.2760937500000002" fill="#252525" />
<rect x="4.221406250000003" y="0.005" width="0.2760937500000002" height="0.2760937500000002" fill="#252525" />
<rect x="0.005" y="0.2860937500000002" width="0.2760937500000002" height="0.2760937500000002" fill="#252525" />
<rect x="0.2860937500000002" y="0.2860937500000002" width="0.2760937500000002" height="0.2760937500000002" fill="#252525" />
<rect x="0.5671875000000004" y="0.2860937500000002" width="0.2760937500000002" height="0.2760937500000002" fill="#252525" />
<rect x="0.8482812500000007" y="0.2860937500000002" width="0.2760937500000002" height="0.2760937500000002" fill="#252525" />
<rect x="1.1293750000000007" y="0.2860937500000002" width="0.2760937500000002" height="0.2760937500000002" fill="#252525" />
<rect x="1.4104687500000008" y="0.2860937500000002" width="0.2760937500000002" height="0.2760937500000002" fill="#252525" />
<rect x="1.6915625000000012" y="0.2860937500000002" width="0.2760937500000002" height="0.2760937500000002" fill="#252525" />
<rect x="1.9726562500000013" y="0.2860937500000002" width="0.2760937500000002" height="0.2760937500000002" fill="#252525" />
<rect x="2.2537500000000015" y="0.2860937500000002" width="0.2760937500000002" height="0.2760937500000002" fill="#252525" />
<rect x="2.5348437500000016" y="0.2860937500000002" width="0.2760937500000002" height="0.2760937500000002" fill="#252525" />
<rect x="2.8159375000000018" y="0.2860937500000002" width="0.2760937500000002" height="0.2760937500000002" fill="#252525" />
<rect x="3.097031250000002" y="0.2860937500000002" width="0.2760937500000002" height="0.2760937500000002" fill="#252525" />
<rect x="3.3781250000000025" y="0.2860937500000002" width="0.2760937500000002" height="0.2760937500000002" fill="#252525" />
<rect x="3.6592187500000026" y="0.2860937500000002" width="0.2760937500000002" height="0.2760937500000002" fill="#252525" />
<rect x="3.9403125000000028" y="0.2860937500000002" width="0.2760937500000002" height="0.2760937500000002" fill="#252525" />
<rect x="4.221406250000003" y="0.2860937500000002" width="0.2760937500000002" height="0.2760937500000002" fill="#252525" />
<rect x="0.005" y="0.5671875000000004" width="0.2760937500000002" height="0.2760937500000002" fill="#0074D9" />
<rect x="0.2860937500000002" y="0.5671875000000004" width="0.2760937500000002" height="0.2760937500000002" fill="#FF4136" />
<rect x="0.5671875000000004" y="0.5671875000000004" width="0.2760937500000002" height="0.2760937500000002" fill="#FF4136" />
<rect x="0.8482812500000007" y="0.5671875000000004" width="0.2760937500000002" height="0.2760937500000002" fill="#0074D9" />
<rect x="1.1293750000000007" y="0.5671875000000004" width="0.2760937500000002" height="0.2760937500000002" fill="#FF4136" />
<rect x="1.4104687500000008" y="0.5671875000000004" width="0.2760937500000002" height="0.2760937500000002" fill="#FF4136" />
<rect x="1.6915625000000012" y="0.5671875000000004" width="0.2760937500000002" height="0.2760937500000002" fill="#0074D9" />
<rect x="1.9726562500000013" y="0.5671875000000004" width="0.2760937500000002" height="0.2760937500000002" fill="#FF4136" />
<rect x="2.2537500000000015" y="0.5671875000000004" width="0.2760937500000002" height="0.2760937500000002" fill="#FF4136" />
<rect x="2.5348437500000016" y="0.5671875000000004" width="0.2760937500000002" height="0.2760937500000002" fill="#0074D9" />
<rect x="2.8159375000000018" y="0.5671875000000004" width="0.2760937500000002" height="0.2760937500000002" fill="#FF4136" />
<rect x="3.097031250000002" y="0.5671875000000004" width="0.2760937500000002" height="0.2760937500000002" fill="#FF4136" />
<rect x="3.3781250000000025" y="0.5671875000000004" width="0.2760937500000002" height="0.2760937500000002" fill="#0074D9" />
<rect x="3.6592187500000026" y="0.5671875000000004" width="0.2760937500000002" height="0.2760937500000002" fill="#FF4136" />
<rect x="3.9403125000000028" y="0.5671875000000004" width="0.2760937500000002" height="0.2760937500000002" fill="#FF4136" />
<rect x="4.221406250000003" y="0.5671875000000004" width="0.2760937500000002" height="0.2760937500000002" fill="#0074D9" />
<rect x="0.005" y="0.8482812500000007" width="0.2760937500000002" height="0.2760937500000002" fill="#FF4136" />
<rect x="0.2860937500000002" y="0.8482812500000007" width="0.2760937500000002" height="0.2760937500000002" fill="#0074D9" />
<rect x="0.5671875000000004" y="0.8482812500000007" width="0.2760937500000002" height="0.2760937500000002" fill="#FF4136" />
<rect x="0.8482812500000007" y="0.8482812500000007" width="0.2760937500000002" height="0.2760937500000002" fill="#FF4136" />
<rect x="1.1293750000000007" y="0.8482812500000007" width="0.2760937500000002" height="0.2760937500000002" fill="#0074D9" />
<rect x="1.4104687500000008" y="0.8482812500000007" width="0.2760937500000002" height="0.2760937500000002" fill="#FF4136" />
<rect x="1.6915625000000012" y="0.8482812500000007" width="0.2760937500000002" height="0.2760937500000002" fill="#FF4136" />
<rect x="1.9726562500000013" y="0.8482812500000007" width="0.2760937500000002" height="0.2760937500000002" fill="#0074D9" />
<rect x="2.2537500000000015" y="0.8482812500000007" width="0.2760937500000002" height="0.2760937500000002" fill="#FF4136" />
<rect x="2.5348437500000016" y="0.8482812500000007" width="0.2760937500000002" height="0.2760937500000002" fill="#FF4136" />
<rect x="2.8159375000000018" y="0.8482812500000007" width="0.2760937500000002" height="0.2760937500000002" fill="#0074D9" />
<rect x="3.097031250000002" y="0.8482812500000007" width="0.2760937500000002" height="0.2760937500000002" fill="#FF4136" />
<rect x="3.3781250000000025" y="0.8482812500000007" width="0.2760937500000002" height="0.2760937500000002" fill="#FF4136" />
<rect x="3.6592187500000026" y="0.8482812500000007" width="0.2760937500000002" height="0.2760937500000002" fill="#0074D9" />
<rect x="3.9403125000000028" y="0.8482812500000007" width="0.2760937500000002" height="0.2760937500000002" fill="#FF4136" />
<rect x="4.221406250000003" y="0.8482812500000007" width="0.2760937500000002" height="0.2760937500000002" fill="#FF4136" />
<rect x="0.005" y="1.1293750000000007" width="0.2760937500000002" height="0.2760937500000002" fill="#252525" />
<rect x="0.2860937500000002" y="1.1293750000000007" width="0.2760937500000002" height="0.2760937500000002" fill="#252525" />
<rect x="0.5671875000000004" y="1.1293750000000007" width="0.2760937500000002" height="0.2760937500000002" fill="#252525" />
<rect x="0.8482812500000007" y="1.1293750000000007" width="0.2760937500000002" height="0.2760937500000002" fill="#252525" />
<rect x="1.1293750000000007" y="1.1293750000000007" width="0.2760937500000002" height="0.2760937500000002" fill="#252525" />
<rect x="1.4104687500000008" y="1.1293750000000007" width="0.2760937500000002" height="0.2760937500000002" fill="#252525" />
<rect x="1.6915625000000012" y="1.1293750000000007" width="0.2760937500000002" height="0.2760937500000002" fill="#252525" />
<rect x="1.9726562500000013" y="1.1293750000000007" width="0.2760937500000002" height="0.2760937500000002" fill="#252525" />
<rect x="2.2537500000000015" y="1.1293750000000007" width="0.2760937500000002" height="0.2760937500000002" fill="#252525" />
<rect x="2.5348437500000016" y="1.1293750000000007" width="0.2760937500000002" height="0.2760937500000002" fill="#252525" />
<rect x="2.8159375000000018" y="1.1293750000000007" width="0.2760937500000002" height="0.2760937500000002" fill="#252525" />
<rect x="3.097031250000002" y="1.1293750000000007" width="0.2760937500000002" height="0.2760937500000002" fill="#252525" />
<rect x="3.3781250000000025" y="1.1293750000000007" width="0.2760937500000002" height="0.2760937500000002" fill="#252525" />
<rect x="3.6592187500000026" y="1.1293750000000007" width="0.2760937500000002" height="0.2760937500000002" fill="#252525" />
<rect x="3.9403125000000028" y="1.1293750000000007" width="0.2760937500000002" height="0.2760937500000002" fill="#252525" />
<rect x="4.221406250000003" y="1.1293750000000007" width="0.2760937500000002" height="0.2760937500000002" fill="#252525" />
<rect x="-0.02666666666666667" y="-0.02666666666666667" width="4.550833333333337" height="1.4588020833333342" fill="none" stroke="#111111ff" stroke-width="0.08" />
<text x="4.497500000000003" y="1.874218750000001" font-size="0.375" fill="black" text-anchor="end" font-family="Anuphan">16x5</text>
<text x="-0.037500000000000006" y="1.874218750000001" font-size="0.375" fill="black" text-anchor="start" font-family="Anuphan" font-weight="600">Output 3</text>
</g>
</defs>
<rect x="0" y="0" width="100%" height="100%" fill="#eeeff6" />
<use xlink:href="#d0" x="0.25" y="0.25" />
<use xlink:href="#d1" x="5.247500000000003" y="0.25" />
<use xlink:href="#d2" x="10.245000000000006" y="0.25" />
<use xlink:href="#d3" x="15.24250000000001" y="0.25" />
<path d="M2.4987500000000016,4.647916666666669 L2.4987500000000016,5.047916666666669" stroke-width="0.05" stroke="#888888" />
<path d="M2.3487500000000017,4.847916666666669 L2.4987500000000016,5.047916666666669" stroke-width="0.05" stroke="#888888" />
<path d="M2.6487500000000015,4.847916666666669 L2.4987500000000016,5.047916666666669" stroke-width="0.05" stroke="#888888" />
<use xlink:href="#d4" x="0.25" y="5.397916666666669" />
<path d="M7.496250000000005,4.647916666666669 L7.496250000000005,5.047916666666669" stroke-width="0.05" stroke="#888888" />
<path d="M7.346250000000005,4.847916666666669 L7.496250000000005,5.047916666666669" stroke-width="0.05" stroke="#888888" />
<path d="M7.6462500000000055,4.847916666666669 L7.496250000000005,5.047916666666669" stroke-width="0.05" stroke="#888888" />
<use xlink:href="#d5" x="5.247500000000003" y="5.397916666666669" />
<path d="M12.493750000000007,4.647916666666669 L12.493750000000007,5.047916666666669" stroke-width="0.05" stroke="#888888" />
<path d="M12.343750000000007,4.847916666666669 L12.493750000000007,5.047916666666669" stroke-width="0.05" stroke="#888888" />
<path d="M12.643750000000008,4.847916666666669 L12.493750000000007,5.047916666666669" stroke-width="0.05" stroke="#888888" />
<use xlink:href="#d6" x="10.245000000000006" y="5.397916666666669" />
<path d="M17.49125000000001,4.647916666666669 L17.49125000000001,5.047916666666669" stroke-width="0.05" stroke="#888888" />
<path d="M17.341250000000013,4.847916666666669 L17.49125000000001,5.047916666666669" stroke-width="0.05" stroke="#888888" />
<path d="M17.64125000000001,4.847916666666669 L17.49125000000001,5.047916666666669" stroke-width="0.05" stroke="#888888" />
<text x="17.49125000000001" y="6.122569444444447" font-size="1" font-family="Anuphan" font-weight="700" fill="#333333" text-anchor="middle" alignment-baseline="middle">?</text>
<text x="19.9" y="8.1" font-size="0.3" font-family="Anuphan" font-weight="600" fill="#666666" text-anchor="end" alignment-baseline="bottom">Task 963e52fc</text>
</svg>