<?xml version="1.0" encoding="UTF-8"?>
<svg xmlns="http://www.w3.org/2000/svg" xmlns:xlink="http://www.w3.org/1999/xlink"
     width="512.0" height="536.0" viewBox="0 0 12.8 13.399999999999999">
<defs>
<g id="d0">
<rect x="0.005" y="0.005" width="0.8966666666666512" height="0.8966666666666512" fill="#252525" />
<rect x="0.9066666666666512" y="0.005" width="0.8966666666666512" height="0.8966666666666512" fill="#0074D9" />
<rect x="1.8083333333333023" y="0.005" width="0.8966666666666512" height="0.8966666666666512" fill="#252525" />
<rect x="0.005" y="0.9066666666666512" width="0.8966666666666512" height="0.8966666666666512" fill="#0074D9" />
<rect x="0.9066666666666512" y="0.9066666666666512" width="0.8966666666666512" height="0.8966666666666512" fill="#0074D9" />
<rect x="1.8083333333333023" y="0.9066666666666512" width="0.8966666666666512" height="0.8966666666666512" fill="#252525" />
<rect x="0.005" y="1.8083333333333023" width="0.8966666666666512" height="0.8966666666666512" fill="#252525" />
<rect x="0.9066666666666512" y="1.8083333333333023" width="0.8966666666666512" height="0.8966666666666512" fill="#0074D9" />
<rect x="1.8083333333333023" y="1.8083333333333023" width="0.8966666666666512" height="0.8966666666666512" fill="#252525" />
<rect x="0.005" y="2.7099999999999533" width="0.8966666666666512" height="0.8966666666666512" fill="#252525" />
<rect x="0.9066666666666512" y="2.7099999999999533" width="0.8966666666666512" height="0.8966666666666512" fill="#0074D9" />
<rect x="1.8083333333333023" y="2.7099999999999533" width="0.8966666666666512" height="0.8966666666666512" fill="#0074D9" />
<rect x="0.005" y="3.6116666666666046" width="0.8966666666666512" height="0.8966666666666512" fill="#252525" />
<rect x="0.9066666666666512" y="3.6116666666666046" width="0.8966666666666512" height="0.8966666666666512" fill="#0074D9" />
<rect x="1.8083333333333023" y="3.6116666666666046" width="0.8966666666666512" height="0.8966666666666512" fill="#252525" />
<rect x="0.005" y="4.5133333333332555" width="0.8966666666666512" height="0.8966666666666512" fill="#0074D9" />
<rect x="0.9066666666666512" y="4.5133333333332555" width="0.8966666666666512" height="0.8966666666666512" fill="#0074D9" />
<rect x="1.8083333333333023" y="4.5133333333332555" width="0.8966666666666512" height="0.8966666666666512" fill="#252525" />
<rect x="-0.02666666666666667" y="-0.02666666666666667" width="2.7583333333332867" height="5.463333333333241" fill="none" stroke="#111111ff" stroke-width="0.08" />
<text x="2.7049999999999534" y="5.878749999999907" font-size="0.375" fill="black" text-anchor="end" font-family="Anuphan">3x6</text>
<text x="-0.037500000000000006" y="5.878749999999907" font-size="0.375" fill="black" text-anchor="start" font-family="Anuphan" font-weight="600">Input 1</text>
</g>
<g id="d1">
<rect x="0.005" y="0.005" width="0.8966666666666512" height="0.8966666666666512" fill="#252525" />
<rect x="0.9066666666666512" y="0.005" width="0.8966666666666512" height="0.8966666666666512" fill="#0074D9" />
<rect x="1.8083333333333023" y="0.005" width="0.8966666666666512" height="0.8966666666666512" fill="#252525" />
<rect x="0.005" y="0.9066666666666512" width="0.8966666666666512" height="0.8966666666666512" fill="#0074D9" />
<rect x="0.9066666666666512" y="0.9066666666666512" width="0.8966666666666512" height="0.8966666666666512" fill="#252525" />
<rect x="1.8083333333333023" y="0.9066666666666512" width="0.8966666666666512" height="0.8966666666666512" fill="#0074D9" />
<rect x="0.005" y="1.8083333333333023" width="0.8966666666666512" height="0.8966666666666512" fill="#252525" />
<rect x="0.9066666666666512" y="1.8083333333333023" width="0.8966666666666512" height="0.8966666666666512" fill="#0074D9" />
<rect x="1.8083333333333023" y="1.8083333333333023" width="0.8966666666666512" height="0.8966666666666512" fill="#252525" />
<rect x="0.005" y="2.7099999999999533" width="0.8966666666666512" height="0.8966666666666512" fill="#0074D9" />
<rect x="0.9066666666666512" y="2.7099999999999533" width="0.8966666666666512" height="0.8966666666666512" fill="#252525" />
<rect x="1.8083333333333023" y="2.7099999999999533" width="0.8966666666666512" height="0.8966666666666512" fill="#0074D9" />
<rect x="0.005" y="3.6116666666666046" width="0.8966666666666512" height="0.8966666666666512" fill="#252525" />
<rect x="0.9066666666666512" y="3.6116666666666046" width="0.8966666666666512" height="0.8966666666666512" fill="#0074D9" />
<rect x="1.8083333333333023" y="3.6116666666666046" width="0.8966666666666512" height="0.8966666666666512" fill="#252525" />
<rect x="0.005" y="4.5133333333332555" width="0.8966666666666512" height="0.8966666666666512" fill="#0074D9" />
<rect x="0.9066666666666512" y="4.5133333333332555" width="0.8966666666666512" height="0.8966666666666512" fill="#252525" />
<rect x="1.8083333333333023" y="4.5133333333332555" width="0.8966666666666512" height="0.8966666666666512" fill="#0074D9" />
<rect x="-0.02666666666666667" y="-0.02666666666666667" width="2.7583333333332867" height="5.463333333333241" fill="none" stroke="#111111ff" stroke-width="0.08" />
<text x="2.7049999999999534" y="5.878749999999907" font-size="0.375" fill="black" text-anchor="end" font-family="Anuphan">3x6</text>
<text x="-0.037500000000000006" y="5.878749999999907" font-size="0.375" fill="black" text-anchor="start" font-family="Anuphan" font-weight="600">Input 2</text>
</g>
<g id="d2">
<rect x="0.005" y="0.005" width="0.8966666666666512" height="0.8966666666666512" fill="#252525" />
<rect x="0.9066666666666512" y="0.005" width="0.8966666666666512" height="0.8966666666666512" fill="#0074D9" />
<rect x="1.8083333333333023" y="0.005" width="0.8966666666666512" height="0.8966666666666512" fill="#252525" />
<rect x="0.005" y="0.9066666666666512" width="0.8966666666666512" height="0.8966666666666512" fill="#0074D9" />
<rect x="0.9066666666666512" y="0.9066666666666512" width="0.8966666666666512" height="0.8966666666666512" fill="#0074D9" />
<rect x="1.8083333333333023" y="0.9066666666666512" width="0.8966666666666512" height="0.8966666666666512" fill="#252525" />
<rect x="0.005" y="1.8083333333333023" width="0.8966666666666512" height="0.8966666666666512" fill="#252525" />
<rect x="0.9066666666666512" y="1.8083333333333023" width="0.8966666666666512" height="0.8966666666666512" fill="#0074D9" />
<rect x="1.8083333333333023" y="1.8083333333333023" width="0.8966666666666512" height="0.8966666666666512" fill="#252525" />
<rect x="0.005" y="2.7099999999999533" width="0.8966666666666512" height="0.8966666666666512" fill="#252525" />
<rect x="0.9066666666666512" y="2.7099999999999533" width="0.8966666666666512" height="0.8966666666666512" fill="#0074D9" />
<rect x="1.8083333333333023" y="2.7099999999999533" width="0.8966666666666512" height="0.8966666666666512" fill="#252525" />
<rect x="0.005" y="3.6116666666666046" width="0.8966666666666512" height="0.8966666666666512" fill="#0074D9" />
<rect x="0.9066666666666512" y="3.6116666666666046" width="0.8966666666666512" height="0.8966666666666512" fill="#0074D9" />
<rect x="1.8083333333333023" y="3.6116666666666046" width="0.8966666666666512" height="0.8966666666666512" fill="#252525" />
<rect x="0.005" y="4.5133333333332555" width="0.8966666666666512" height="0.8966666666666512" fill="#252525" />
<rect x="0.9066666666666512" y="4.5133333333332555" width="0.8966666666666512" height="0.8966666666666512" fill="#0074D9" />
<rect x="1.8083333333333023" y="4.5133333333332555" width="0.8966666666666512" height="0.8966666666666512" fill="#252525" />
<rect x="-0.02666666666666667" y="-0.02666666666666667" width="2.7583333333332867" height="5.463333333333241" fill="none" stroke="#111111ff" stroke-width="0.08" />
<text x="2.7049999999999534" y="5.878749999999907" font-size="0.375" fill="black" text-anchor="end" font-family="Anuphan">3x6</text>
<text x="-0.037500000000000006" y="5.878749999999907" font-size="0.375" fill="black" text-anchor="start" font-family="Anuphan" font-weight="600">Input 3</text>
</g>
<g id="d3">
<rect x="0.005" y="0.005" width="0.8966666666666512" height="0.8966666666666512" fill="#0074D9" />
<rect x="0.9066666666666512" y="0.005" width="0.8966666666666512" height="0.8966666666666512" fill="#0074D9" />
<rect x="1.8083333333333023" y="0.005" width="0.8966666666666512" height="0.8966666666666512" fill="#0074D9" />
<rect x="0.005" y="0.9066666666666512" width="0.8966666666666512" height="0.8966666666666512" fill="#252525" />
<rect x="0.9066666666666512" y="0.9066666666666512" width="0.8966666666666512" height="0.8966666666666512" fill="#0074D9" />
<rect x="1.8083333333333023" y="0.9066666666666512" width="0.8966666666666512" height="0.8966666666666512" fill="#252525" />
<rect x="0.005" y="1.8083333333333023" width="0.8966666666666512" height="0.8966666666666512" fill="#252525" />
<rect x="0.9066666666666512" y="1.8083333333333023" width="0.8966666666666512" height="0.8966666666666512" fill="#0074D9" />
<rect x="1.8083333333333023" y="1.8083333333333023" width="0.8966666666666512" height="0.8966666666666512" fill="#252525" />
<rect x="0.005" y="2.7099999999999533" width="0.8966666666666512" height="0.8966666666666512" fill="#0074D9" />
<rect x="0.9066666666666512" y="2.7099999999999533" width="0.8966666666666512" height="0.8966666666666512" fill="#0074D9" />
<rect x="1.8083333333333023" y="2.7099999999999533" width="0.8966666666666512" height="0.8966666666666512" fill="#0074D9" />
<rect x="0.005" y="3.6116666666666046" width="0.8966666666666512" height="0.8966666666666512" fill="#252525" />
<rect x="0.9066666666666512" y="3.6116666666666046" width="0.8966666666666512" height="0.8966666666666512" fill="#0074D9" />
<rect x="1.8083333333333023" y="3.6116666666666046" width="0.8966666666666512" height="0.8966666666666512" fill="#252525" />
<rect x="0.005" y="4.5133333333332555" width="0.8966666666666512" height="0.8966666666666512" fill="#252525" />
<rect x="0.9066666666666512" y="4.5133333333332555" width="0.8966666666666512" height="0.8966666666666512" fill="#0074D9" />
<rect x="1.8083333333333023" y="4.5133333333332555" width="0.8966666666666512" height="0.8966666666666512" fill="#252525" />
<rect x="-0.02666666666666667" y="-0.02666666666666667" width="2.7583333333332867" height="5.463333333333241" fill="none" stroke="#111111ff" stroke-width="0.08" />
<text x="2.7049999999999534" y="5.878749999999907" font-size="0.375" fill="black" text-anchor="end" font-family="Anuphan">3x6</text>
<text x="-0.037500000000000006" y="5.878749999999907" font-size="0.375" fill="black" text-anchor="start" font-family="Anuphan" font-weight="600">Test 1</text>
</g>
<g id="d4">
<rect x="0.005" y="0.005" width="0.5977777777777777" height="0.5977777777777777" fill="#252525" />
<rect x="0.6077777777777778" y="0.005" width="0.5977777777777777" height="0.5977777777777777" fill="#FF4136" />
<rect x="1.2105555555555554" y="0.005" width="0.5977777777777777" height="0.5977777777777777" fill="#252525" />
<rect x="0.005" y="0.6077777777777778" width="0.5977777777777777" height="0.5977777777777777" fill="#FF4136" />
<rect x="0.6077777777777778" y="0.6077777777777778" width="0.5977777777777777" height="0.5977777777777777" fill="#FF4136" />
<rect x="1.2105555555555554" y="0.6077777777777778" width="0.5977777777777777" height="0.5977777777777777" fill="#252525" />
<rect x="0.005" y="1.2105555555555554" width="0.5977777777777777" height="0.5977777777777777" fill="#252525" />
<rect x="0.6077777777777778" y="1.2105555555555554" width="0.5977777777777777" height="0.5977777777777777" fill="#FF4136" />
<rect x="1.2105555555555554" y="1.2105555555555554" width="0.5977777777777777" height="0.5977777777777777" fill="#252525" />
<rect x="0.005" y="1.813333333333333" width="0.5977777777777777" height="0.5977777777777777" fill="#252525" />
<rect x="0.6077777777777778" y="1.813333333333333" width="0.5977777777777777" height="0.5977777777777777" fill="#FF4136" />
<rect x="1.2105555555555554" y="1.813333333333333" width="0.5977777777777777" height="0.5977777777777777" fill="#FF4136" />
<rect x="0.005" y="2.416111111111111" width="0.5977777777777777" height="0.5977777777777777" fill="#252525" />
<rect x="0.6077777777777778" y="2.416111111111111" width="0.5977777777777777" height="0.5977777777777777" fill="#FF4136" />
<rect x="1.2105555555555554" y="2.416111111111111" width="0.5977777777777777" height="0.5977777777777777" fill="#252525" />
<rect x="0.005" y="3.0188888888888887" width="0.5977777777777777" height="0.5977777777777777" fill="#FF4136" />
<rect x="0.6077777777777778" y="3.0188888888888887" width="0.5977777777777777" height="0.5977777777777777" fill="#FF4136" />
<rect x="1.2105555555555554" y="3.0188888888888887" width="0.5977777777777777" height="0.5977777777777777" fill="#252525" />
<rect x="0.005" y="3.621666666666666" width="0.5977777777777777" height="0.5977777777777777" fill="#252525" />
<rect x="0.6077777777777778" y="3.621666666666666" width="0.5977777777777777" height="0.5977777777777777" fill="#FF4136" />
<rect x="1.2105555555555554" y="3.621666666666666" width="0.5977777777777777" height="0.5977777777777777" fill="#252525" />
<rect x="0.005" y="4.224444444444444" width="0.5977777777777777" height="0.5977777777777777" fill="#252525" />
<rect x="0.6077777777777778" y="4.224444444444444" width="0.5977777777777777" height="0.5977777777777777" fill="#FF4136" />
<rect x="1.2105555555555554" y="4.224444444444444" width="0.5977777777777777" height="0.5977777777777777" fill="#FF4136" />
<rect x="0.005" y="4.827222222222222" width="0.5977777777777777" height="0.5977777777777777" fill="#252525" />
<rect x="0.6077777777777778" y="4.827222222222222" width="0.5977777777777777" height="0.5977777777777777" fill="#FF4136" />
<rect x="1.2105555555555554" y="4.827222222222222" width="0.5977777777777777" height="0.5977777777777777" fill="#252525" />
<rect x="-0.02666666666666667" y="-0.02666666666666667" width="1.8616666666666664" height="5.4783333333333335" fill="none" stroke="#111111ff" stroke-width="0.08" />
<text x="1.8083333333333331" y="5.89375" font-size="0.375" fill="black" text-anchor="end" font-family="Anuphan">3x9</text>
<text x="-0.037500000000000006" y="5.89375" font-size="0.375" fill="black" text-anchor="start" font-family="Anuphan" font-weight="600">Output 1</text>
</g>
<g id="d5">
<rect x="0.005" y="0.005" width="0.5977777777777777" height="0.5977777777777777" fill="#252525" />
<rect x="0.6077777777777778" y="0.005" width="0.5977777777777777" height="0.5977777777777777" fill="#FF4136" />
<rect x="1.2105555555555554" y="0.005" width="0.5977777777777777" height="0.5977777777777777" fill="#252525" />
<rect x="0.005" y="0.6077777777777778" width="0.5977777777777777" height="0.5977777777777777" fill="#FF4136" />
<rect x="0.6077777777777778" y="0.6077777777777778" width="0.5977777777777777" height="0.5977777777777777" fill="#252525" />
<rect x="1.2105555555555554" y="0.6077777777777778" width="0.5977777777777777" height="0.5977777777777777" fill="#FF4136" />
<rect x="0.005" y="1.2105555555555554" width="0.5977777777777777" height="0.5977777777777777" fill="#252525" />
<rect x="0.6077777777777778" y="1.2105555555555554" width="0.5977777777777777" height="0.5977777777777777" fill="#FF4136" />
<rect x="1.2105555555555554" y="1.2105555555555554" width="0.5977777777777777" height="0.5977777777777777" fill="#252525" />
<rect x="0.005" y="1.813333333333333" width="0.5977777777777777" height="0.5977777777777777" fill="#FF4136" />
<rect x="0.6077777777777778" y="1.813333333333333" width="0.5977777777777777" height="0.5977777777777777" fill="#252525" />
<rect x="1.2105555555555554" y="1.813333333333333" width="0.5977777777777777" height="0.5977777777777777" fill="#FF4136" />
<rect x="0.005" y="2.416111111111111" width="0.5977777777777777" height="0.5977777777777777" fill="#252525" />
<rect x="0.6077777777777778" y="2.416111111111111" width="0.5977777777777777" height="0.5977777777777777" fill="#FF4136" />
<rect x="1.2105555555555554" y="2.416111111111111" width="0.5977777777777777" height="0.5977777777777777" fill="#252525" />
<rect x="0.005" y="3.0188888888888887" width="0.5977777777777777" height="0.5977777777777777" fill="#FF4136" />
<rect x="0.6077777777777778" y="3.0188888888888887" width="0.5977777777777777" height="0.5977777777777777" fill="#252525" />
<rect x="1.2105555555555554" y="3.0188888888888887" width="0.5977777777777777" height="0.5977777777777777" fill="#FF4136" />
<rect x="0.005" y="3.621666666666666" width="0.5977777777777777" height="0.5977777777777777" fill="#252525" />
<rect x="0.6077777777777778" y="3.621666666666666" width="0.5977777777777777" height="0.5977777777777777" fill="#FF4136" />
<rect x="1.2105555555555554" y="3.621666666666666" width="0.5977777777777777" height="0.5977777777777777" fill="#252525" />
<rect x="0.005" y="4.224444444444444" width="0.5977777777777777" height="0.5977777777777777" fill="#FF4136" />
<rect x="0.6077777777777778" y="4.224444444444444" width="0.5977777777777777" height="0.5977777777777777" fill="#252525" />
<rect x="1.2105555555555554" y="4.224444444444444" width="0.5977777777777777" height="0.5977777777777777" fill="#FF4136" />
<rect x="0.005" y="4.827222222222222" width="0.5977777777777777" height="0.5977777777777777" fill="#252525" />
<rect x="0.6077777777777778" y="4.827222222222222" width="0.5977777777777777" height="0.5977777777777777" fill="#FF4136" />
<rect x="1.2105555555555554" y="4.827222222222222" width="0.5977777777777777" height="0.5977777777777777" fill="#252525" />
<rect x="-0.02666666666666667" y="-0.02666666666666667" width="1.8616666666666664" height="5.4783333333333335" fill="none" stroke="#111111ff" stroke-width="0.08" />
<text x="1.8083333333333331" y="5.89375" font-size="0.375" fill="black" text-anchor="end" font-family="Anuphan">3x9</text>
<text x="-0.037500000000000006" y="5.89375" font-size="0.375" fill="black" text-anchor="start" font-family="Anuphan" font-weight="600">Output 2</text>
</g>
<g id="d6">
<rect x="0.005" y="0.005" width="0.5977777777777777" height="0.5977777777777777" fill="#252525" />
<rect x="0.6077777777777778" y="0.005" width="0.5977777777777777" height="0.5977777777777777" fill="#FF4136" />
<rect x="1.2105555555555554" y="0.005" width="0.5977777777777777" height="0.5977777777777777" fill="#252525" />
<rect x="0.005" y="0.6077777777777778" width="0.5977777777777777" height="0.5977777777777777" fill="#FF4136" />
<rect x="0.6077777777777778" y="0.6077777777777778" width="0.5977777777777777" height="0.5977777777777777" fill="#FF4136" />
<rect x="1.2105555555555554" y="0.6077777777777778" width="0.5977777777777777" height="0.5977777777777777" fill="#252525" />
<rect x="0.005" y="1.2105555555555554" width="0.5977777777777777" height="0.5977777777777777" fill="#252525" />
<rect x="0.6077777777777778" y="1.2105555555555554" width="0.5977777777777777" height="0.5977777777777777" fill="#FF4136" />
<rect x="1.2105555555555554" y="1.2105555555555554" width="0.5977777777777777" height="0.5977777777777777" fill="#252525" />
<rect x="0.005" y="1.813333333333333" width="0.5977777777777777" height="0.5977777777777777" fill="#252525" />
<rect x="0.6077777777777778" y="1.813333333333333" width="0.5977777777777777" height="0.5977777777777777" fill="#FF4136" />
<rect x="1.2105555555555554" y="1.813333333333333" width="0.5977777777777777" height="0.5977777777777777" fill="#252525" />
<rect x="0.005" y="2.416111111111111" width="0.5977777777777777" height="0.5977777777777777" fill="#FF4136" />
<rect x="0.6077777777777778" y="2.416111111111111" width="0.5977777777777777" height="0.5977777777777777" fill="#FF4136" />
<rect x="1.2105555555555554" y="2.416111111111111" width="0.5977777777777777" height="0.5977777777777777" fill="#252525" />
<rect x="0.005" y="3.0188888888888887" width="0.5977777777777777" height="0.5977777777777777" fill="#252525" />
<rect x="0.6077777777777778" y="3.0188888888888887" width="0.5977777777777777" height="0.5977777777777777" fill="#FF4136" />
<rect x="1.2105555555555554" y="3.0188888888888887" width="0.5977777777777777" height="0.5977777777777777" fill="#252525" />
<rect x="0.005" y="3.621666666666666" width="0.5977777777777777" height="0.5977777777777777" fill="#252525" />
<rect x="0.6077777777777778" y="3.621666666666666" width="0.5977777777777777" height="0.5977777777777777" fill="#FF4136" />
<rect x="1.2105555555555554" y="3.621666666666666" width="0.5977777777777777" height="0.5977777777777777" fill="#252525" />
<rect x="0.005" y="4.224444444444444" width="0.5977777777777777" height="0.5977777777777777" fill="#FF4136" />
<rect x="0.6077777777777778" y="4.224444444444444" width="0.5977777777777777" height="0.5977777777777777" fill="#FF4136" />
<rect x="1.2105555555555554" y="4.224444444444444" width="0.5977777777777777" height="0.5977777777777777" fill="#252525" />
<rect x="0.005" y="4.827222222222222" width="0.5977777777777777" height="0.5977777777777777" fill="#252525" />
<rect x="0.6077777777777778" y="4.827222222222222" width="0.5977777777777777" height="0.5977777777777777" fill="#FF4136" />
<rect x="1.2105555555555554" y="4.827222222222222" width="0.5977777777777777" height="0.5977777777777777" fill="#252525" />
<rect x="-0.02666666666666667" y="-0.02666666666666667" width="1.8616666666666664" height="5.4783333333333335" fill="none" stroke="#111111ff" stroke-width="0.08" />
<text x="1.8083333333333331" y="5.89375" font-size="0.375" fill="black" text-anchor="end" font-family="Anuphan">3x9</text>
<text x="-0.037500000000000006" y="5.89375" font-size="0.375" fill="black" text-anchor="start" font-family="Anuphan" font-weight="600">Output 3</text>
</g>
</defs>
<rect x="0" y="0" width="100%" height="100%" fill="#eeeff6" />
<use xlink:href="#d0" x="0.25" y="0.25" />
<use xlink:href="#d1" x="3.4549999999999534" y="0.25" />
<use xlink:href="#d2" x="6.659999999999907" y="0.25" />
<use xlink:href="#d3" x="9.86499999999986" y="0.25" />
<path d="M1.6024999999999767,6.309999999999907 L1.6024999999999767,6.709999999999908" stroke-width="0.05" stroke="#888888" />
<path d="M1.4524999999999768,6.509999999999907 L1.6024999999999767,6.709999999999908" stroke-width="0.05" stroke="#888888" />
<path d="M1.7524999999999766,6.509999999999907 L1.6024999999999767,6.709999999999908" stroke-width="0.05" stroke="#888888" />
<use xlink:href="#d4" x="0.6983333333333102" y="7.059999999999907" />
<path d="M4.80749999999993,6.309999999999907 L4.80749999999993,6.709999999999908" stroke-width="0.05" stroke="#888888" />
<path d="M4.65749999999993,6.509999999999907 L4.80749999999993,6.709999999999908" stroke-width="0.05" stroke="#888888" />
<path d="M4.95749999999993,6.509999999999907 L4.80749999999993,6.709999999999908" stroke-width="0.05" stroke="#888888" />
<use xlink:href="#d5" x="3.9033333333332636" y="7.059999999999907" />
<path d="M8.012499999999884,6.309999999999907 L8.012499999999884,6.709999999999908" stroke-width="0.05" stroke="#888888" />
<path d="M7.8624999999998835,6.509999999999907 L8.012499999999884,6.709999999999908" stroke-width="0.05" stroke="#888888" />
<path d="M8.162499999999884,6.509999999999907 L8.012499999999884,6.709999999999908" stroke-width="0.05" stroke="#888888" />
<use xlink:href="#d6" x="7.108333333333217" y="7.059999999999907" />
<path d="M11.217499999999836,6.309999999999907 L11.217499999999836,6.709999999999908" stroke-width="0.05" stroke="#888888" />
<path d="M11.067499999999836,6.509999999999907 L11.217499999999836,6.709999999999908" stroke-width="0.05" stroke="#888888" />
<path d="M11.367499999999836,6.509999999999907 L11.217499999999836,6.709999999999908" stroke-width="0.05" stroke="#888888" />
<text x="11.217499999999836" y="9.872499999999906" font-size="1" font-family="Anuphan" font-weight="700" fill="#333333" text-anchor="middle" alignment-baseline="middle">?</text>
<text x="12.700000000000001" y="13.299999999999999" font-size="0.3" font-family="Anuphan" font-weight="600" fill="#666666" text-anchor="end" alignment-baseline="bottom">Task 017c7c7b</text>
</svg>