<?xml version="1.0" encoding="UTF-8"?>
<svg xmlns="http://www.w3.org/2000/svg" xmlns:xlink="http://www.w3.org/1999/xlink"
     width="800.0" height="536.0" viewBox="0 0 20.0 13.399999999999999">
<defs>
<g id="d0">
<rect x="0.005" y="0.005" width="0.8852499999999643" height="0.8852499999999643" fill="#252525" />
<rect x="0.8952499999999644" y="0.005" width="0.8852499999999643" height="0.8852499999999643" fill="#252525" />
<rect x="1.7854999999999286" y="0.005" width="0.8852499999999643" height="0.8852499999999643" fill="#252525" />
<rect x="2.675749999999893" y="0.005" width="0.8852499999999643" height="0.8852499999999643" fill="#252525" />
<rect x="0.005" y="0.8952499999999644" width="0.8852499999999643" height="0.8852499999999643" fill="#252525" />
<rect x="0.8952499999999644" y="0.8952499999999644" width="0.8852499999999643" height="0.8852499999999643" fill="#E6E6E6" />
<rect x="1.7854999999999286" y="0.8952499999999644" width="0.8852499999999643" height="0.8852499999999643" fill="#252525" />
<rect x="2.675749999999893" y="0.8952499999999644" width="0.8852499999999643" height="0.8852499999999643" fill="#252525" />
<rect x="-0.02666666666666667" y="-0.02666666666666667" width="3.6143333333331906" height="1.833833333333262" fill="none" stroke="#111111ff" stroke-width="0.08" />
<text x="3.5609999999998574" y="2.249249999999929" font-size="0.375" fill="black" text-anchor="end" font-family="Anuphan">4x2</text>
<text x="-0.037500000000000006" y="2.249249999999929" font-size="0.375" fill="black" text-anchor="start" font-family="Anuphan" font-weight="600">Input 1</text>
</g>
<g id="d1">
<rect x="0.005" y="0.005" width="0.8852499999999643" height="0.8852499999999643" fill="#252525" />
<rect x="0.8952499999999644" y="0.005" width="0.8852499999999643" height="0.8852499999999643" fill="#252525" />
<rect x="1.7854999999999286" y="0.005" width="0.8852499999999643" height="0.8852499999999643" fill="#F012BE" />
<rect x="2.675749999999893" y="0.005" width="0.8852499999999643" height="0.8852499999999643" fill="#252525" />
<rect x="0.005" y="0.8952499999999644" width="0.8852499999999643" height="0.8852499999999643" fill="#252525" />
<rect x="0.8952499999999644" y="0.8952499999999644" width="0.8852499999999643" height="0.8852499999999643" fill="#252525" />
<rect x="1.7854999999999286" y="0.8952499999999644" width="0.8852499999999643" height="0.8852499999999643" fill="#252525" />
<rect x="2.675749999999893" y="0.8952499999999644" width="0.8852499999999643" height="0.8852499999999643" fill="#252525" />
<rect x="0.005" y="1.7854999999999286" width="0.8852499999999643" height="0.8852499999999643" fill="#252525" />
<rect x="0.8952499999999644" y="1.7854999999999286" width="0.8852499999999643" height="0.8852499999999643" fill="#F012BE" />
<rect x="1.7854999999999286" y="1.7854999999999286" width="0.8852499999999643" height="0.8852499999999643" fill="#252525" />
<rect x="2.675749999999893" y="1.7854999999999286" width="0.8852499999999643" height="0.8852499999999643" fill="#252525" />
<rect x="-0.02666666666666667" y="-0.02666666666666667" width="3.6143333333331906" height="2.724083333333226" fill="none" stroke="#111111ff" stroke-width="0.08" />
<text x="3.5609999999998574" y="3.139499999999893" font-size="0.375" fill="black" text-anchor="end" font-family="Anuphan">4x3</text>
<text x="-0.037500000000000006" y="3.139499999999893" font-size="0.375" fill="black" text-anchor="start" font-family="Anuphan" font-weight="600">Input 2</text>
</g>
<g id="d2">
<rect x="0.005" y="0.005" width="1.0769999999999549" height="1.0769999999999549" fill="#252525" />
<rect x="1.0869999999999547" y="0.005" width="1.0769999999999549" height="1.0769999999999549" fill="#252525" />
<rect x="2.1689999999999094" y="0.005" width="1.0769999999999549" height="1.0769999999999549" fill="#252525" />
<rect x="0.005" y="1.0869999999999547" width="1.0769999999999549" height="1.0769999999999549" fill="#252525" />
<rect x="1.0869999999999547" y="1.0869999999999547" width="1.0769999999999549" height="1.0769999999999549" fill="#FFDC00" />
<rect x="2.1689999999999094" y="1.0869999999999547" width="1.0769999999999549" height="1.0769999999999549" fill="#252525" />
<rect x="0.005" y="2.1689999999999094" width="1.0769999999999549" height="1.0769999999999549" fill="#252525" />
<rect x="1.0869999999999547" y="2.1689999999999094" width="1.0769999999999549" height="1.0769999999999549" fill="#252525" />
<rect x="2.1689999999999094" y="2.1689999999999094" width="1.0769999999999549" height="1.0769999999999549" fill="#252525" />
<rect x="0.005" y="3.2509999999998644" width="1.0769999999999549" height="1.0769999999999549" fill="#252525" />
<rect x="1.0869999999999547" y="3.2509999999998644" width="1.0769999999999549" height="1.0769999999999549" fill="#252525" />
<rect x="2.1689999999999094" y="3.2509999999998644" width="1.0769999999999549" height="1.0769999999999549" fill="#252525" />
<rect x="0.005" y="4.332999999999819" width="1.0769999999999549" height="1.0769999999999549" fill="#FFDC00" />
<rect x="1.0869999999999547" y="4.332999999999819" width="1.0769999999999549" height="1.0769999999999549" fill="#252525" />
<rect x="2.1689999999999094" y="4.332999999999819" width="1.0769999999999549" height="1.0769999999999549" fill="#252525" />
<rect x="-0.02666666666666667" y="-0.02666666666666667" width="3.299333333333198" height="5.463333333333107" fill="none" stroke="#111111ff" stroke-width="0.08" />
<text x="3.2459999999998645" y="5.878749999999774" font-size="0.375" fill="black" text-anchor="end" font-family="Anuphan">3x5</text>
<text x="-0.037500000000000006" y="5.878749999999774" font-size="0.375" fill="black" text-anchor="start" font-family="Anuphan" font-weight="600">Input 3</text>
</g>
<g id="d3">
<rect x="0.005" y="0.005" width="0.8852499999999643" height="0.8852499999999643" fill="#252525" />
<rect x="0.8952499999999644" y="0.005" width="0.8852499999999643" height="0.8852499999999643" fill="#252525" />
<rect x="1.7854999999999286" y="0.005" width="0.8852499999999643" height="0.8852499999999643" fill="#252525" />
<rect x="2.675749999999893" y="0.005" width="0.8852499999999643" height="0.8852499999999643" fill="#252525" />
<rect x="0.005" y="0.8952499999999644" width="0.8852499999999643" height="0.8852499999999643" fill="#252525" />
<rect x="0.8952499999999644" y="0.8952499999999644" width="0.8852499999999643" height="0.8852499999999643" fill="#FF4136" />
<rect x="1.7854999999999286" y="0.8952499999999644" width="0.8852499999999643" height="0.8852499999999643" fill="#252525" />
<rect x="2.675749999999893" y="0.8952499999999644" width="0.8852499999999643" height="0.8852499999999643" fill="#252525" />
<rect x="0.005" y="1.7854999999999286" width="0.8852499999999643" height="0.8852499999999643" fill="#252525" />
<rect x="0.8952499999999644" y="1.7854999999999286" width="0.8852499999999643" height="0.8852499999999643" fill="#252525" />
<rect x="1.7854999999999286" y="1.7854999999999286" width="0.8852499999999643" height="0.8852499999999643" fill="#252525" />
<rect x="2.675749999999893" y="1.7854999999999286" width="0.8852499999999643" height="0.8852499999999643" fill="#252525" />
<rect x="0.005" y="2.675749999999893" width="0.8852499999999643" height="0.8852499999999643" fill="#252525" />
<rect x="0.8952499999999644" y="2.675749999999893" width="0.8852499999999643" height="0.8852499999999643" fill="#252525" />
<rect x="1.7854999999999286" y="2.675749999999893" width="0.8852499999999643" height="0.8852499999999643" fill="#252525" />
<rect x="2.675749999999893" y="2.675749999999893" width="0.8852499999999643" height="0.8852499999999643" fill="#252525" />
<rect x="-0.02666666666666667" y="-0.02666666666666667" width="3.6143333333331906" height="3.6143333333331906" fill="none" stroke="#111111ff" stroke-width="0.08" />
<text x="3.5609999999998574" y="4.029749999999858" font-size="0.375" fill="black" text-anchor="end" font-family="Anuphan">4x4</text>
<text x="-0.037500000000000006" y="4.029749999999858" font-size="0.375" fill="black" text-anchor="start" font-family="Anuphan" font-weight="600">Input 4</text>
</g>
<g id="d4">
<rect x="0.005" y="0.005" width="0.7071999999999715" height="0.7071999999999715" fill="#252525" />
<rect x="0.7171999999999715" y="0.005" width="0.7071999999999715" height="0.7071999999999715" fill="#37D449" />
<rect x="1.429399999999943" y="0.005" width="0.7071999999999715" height="0.7071999999999715" fill="#252525" />
<rect x="2.1415999999999142" y="0.005" width="0.7071999999999715" height="0.7071999999999715" fill="#252525" />
<rect x="2.853799999999886" y="0.005" width="0.7071999999999715" height="0.7071999999999715" fill="#252525" />
<rect x="0.005" y="0.7171999999999715" width="0.7071999999999715" height="0.7071999999999715" fill="#252525" />
<rect x="0.7171999999999715" y="0.7171999999999715" width="0.7071999999999715" height="0.7071999999999715" fill="#252525" />
<rect x="1.429399999999943" y="0.7171999999999715" width="0.7071999999999715" height="0.7071999999999715" fill="#252525" />
<rect x="2.1415999999999142" y="0.7171999999999715" width="0.7071999999999715" height="0.7071999999999715" fill="#252525" />
<rect x="2.853799999999886" y="0.7171999999999715" width="0.7071999999999715" height="0.7071999999999715" fill="#252525" />
<rect x="0.005" y="1.429399999999943" width="0.7071999999999715" height="0.7071999999999715" fill="#252525" />
<rect x="0.7171999999999715" y="1.429399999999943" width="0.7071999999999715" height="0.7071999999999715" fill="#252525" />
<rect x="1.429399999999943" y="1.429399999999943" width="0.7071999999999715" height="0.7071999999999715" fill="#252525" />
<rect x="2.1415999999999142" y="1.429399999999943" width="0.7071999999999715" height="0.7071999999999715" fill="#252525" />
<rect x="2.853799999999886" y="1.429399999999943" width="0.7071999999999715" height="0.7071999999999715" fill="#252525" />
<rect x="0.005" y="2.1415999999999142" width="0.7071999999999715" height="0.7071999999999715" fill="#252525" />
<rect x="0.7171999999999715" y="2.1415999999999142" width="0.7071999999999715" height="0.7071999999999715" fill="#252525" />
<rect x="1.429399999999943" y="2.1415999999999142" width="0.7071999999999715" height="0.7071999999999715" fill="#252525" />
<rect x="2.1415999999999142" y="2.1415999999999142" width="0.7071999999999715" height="0.7071999999999715" fill="#37D449" />
<rect x="2.853799999999886" y="2.1415999999999142" width="0.7071999999999715" height="0.7071999999999715" fill="#252525" />
<rect x="0.005" y="2.853799999999886" width="0.7071999999999715" height="0.7071999999999715" fill="#252525" />
<rect x="0.7171999999999715" y="2.853799999999886" width="0.7071999999999715" height="0.7071999999999715" fill="#252525" />
<rect x="1.429399999999943" y="2.853799999999886" width="0.7071999999999715" height="0.7071999999999715" fill="#252525" />
<rect x="2.1415999999999142" y="2.853799999999886" width="0.7071999999999715" height="0.7071999999999715" fill="#252525" />
<rect x="2.853799999999886" y="2.853799999999886" width="0.7071999999999715" height="0.7071999999999715" fill="#252525" />
<rect x="0.005" y="3.5659999999998577" width="0.7071999999999715" height="0.7071999999999715" fill="#252525" />
<rect x="0.7171999999999715" y="3.5659999999998577" width="0.7071999999999715" height="0.7071999999999715" fill="#37D449" />
<rect x="1.429399999999943" y="3.5659999999998577" width="0.7071999999999715" height="0.7071999999999715" fill="#252525" />
<rect x="2.1415999999999142" y="3.5659999999998577" width="0.7071999999999715" height="0.7071999999999715" fill="#252525" />
<rect x="2.853799999999886" y="3.5659999999998577" width="0.7071999999999715" height="0.7071999999999715" fill="#252525" />
<rect x="-0.02666666666666667" y="-0.02666666666666667" width="3.614333333333191" height="4.326533333333162" fill="none" stroke="#111111ff" stroke-width="0.08" />
<text x="3.560999999999858" y="4.741949999999829" font-size="0.375" fill="black" text-anchor="end" font-family="Anuphan">5x6</text>
<text x="-0.037500000000000006" y="4.741949999999829" font-size="0.375" fill="black" text-anchor="start" font-family="Anuphan" font-weight="600">Test 1</text>
</g>
<g id="d5">
<rect x="0.005" y="0.005" width="0.44012499999998217" height="0.44012499999998217" fill="#54D2EB" />
<rect x="0.4501249999999822" y="0.005" width="0.44012499999998217" height="0.44012499999998217" fill="#252525" />
<rect x="0.8952499999999644" y="0.005" width="0.44012499999998217" height="0.44012499999998217" fill="#54D2EB" />
<rect x="1.3403749999999464" y="0.005" width="0.44012499999998217" height="0.44012499999998217" fill="#252525" />
<rect x="1.7854999999999286" y="0.005" width="0.44012499999998217" height="0.44012499999998217" fill="#54D2EB" />
<rect x="2.2306249999999106" y="0.005" width="0.44012499999998217" height="0.44012499999998217" fill="#252525" />
<rect x="2.675749999999893" y="0.005" width="0.44012499999998217" height="0.44012499999998217" fill="#54D2EB" />
<rect x="3.120874999999875" y="0.005" width="0.44012499999998217" height="0.44012499999998217" fill="#252525" />
<rect x="0.005" y="0.4501249999999822" width="0.44012499999998217" height="0.44012499999998217" fill="#252525" />
<rect x="0.4501249999999822" y="0.4501249999999822" width="0.44012499999998217" height="0.44012499999998217" fill="#E6E6E6" />
<rect x="0.8952499999999644" y="0.4501249999999822" width="0.44012499999998217" height="0.44012499999998217" fill="#252525" />
<rect x="1.3403749999999464" y="0.4501249999999822" width="0.44012499999998217" height="0.44012499999998217" fill="#252525" />
<rect x="1.7854999999999286" y="0.4501249999999822" width="0.44012499999998217" height="0.44012499999998217" fill="#252525" />
<rect x="2.2306249999999106" y="0.4501249999999822" width="0.44012499999998217" height="0.44012499999998217" fill="#E6E6E6" />
<rect x="2.675749999999893" y="0.4501249999999822" width="0.44012499999998217" height="0.44012499999998217" fill="#252525" />
<rect x="3.120874999999875" y="0.4501249999999822" width="0.44012499999998217" height="0.44012499999998217" fill="#252525" />
<rect x="0.005" y="0.8952499999999644" width="0.44012499999998217" height="0.44012499999998217" fill="#54D2EB" />
<rect x="0.4501249999999822" y="0.8952499999999644" width="0.44012499999998217" height="0.44012499999998217" fill="#252525" />
<rect x="0.8952499999999644" y="0.8952499999999644" width="0.44012499999998217" height="0.44012499999998217" fill="#54D2EB" />
<rect x="1.3403749999999464" y="0.8952499999999644" width="0.44012499999998217" height="0.44012499999998217" fill="#252525" />
<rect x="1.7854999999999286" y="0.8952499999999644" width="0.44012499999998217" height="0.44012499999998217" fill="#54D2EB" />
<rect x="2.2306249999999106" y="0.8952499999999644" width="0.44012499999998217" height="0.44012499999998217" fill="#252525" />
<rect x="2.675749999999893" y="0.8952499999999644" width="0.44012499999998217" height="0.44012499999998217" fill="#54D2EB" />
<rect x="3.120874999999875" y="0.8952499999999644" width="0.44012499999998217" height="0.44012499999998217" fill="#252525" />
<rect x="0.005" y="1.3403749999999464" width="0.44012499999998217" height="0.44012499999998217" fill="#252525" />
<rect x="0.4501249999999822" y="1.3403749999999464" width="0.44012499999998217" height="0.44012499999998217" fill="#E6E6E6" />
<rect x="0.8952499999999644" y="1.3403749999999464" width="0.44012499999998217" height="0.44012499999998217" fill="#252525" />
<rect x="1.3403749999999464" y="1.3403749999999464" width="0.44012499999998217" height="0.44012499999998217" fill="#252525" />
<rect x="1.7854999999999286" y="1.3403749999999464" width="0.44012499999998217" height="0.44012499999998217" fill="#252525" />
<rect x="2.2306249999999106" y="1.3403749999999464" width="0.44012499999998217" height="0.44012499999998217" fill="#E6E6E6" />
<rect x="2.675749999999893" y="1.3403749999999464" width="0.44012499999998217" height="0.44012499999998217" fill="#252525" />
<rect x="3.120874999999875" y="1.3403749999999464" width="0.44012499999998217" height="0.44012499999998217" fill="#252525" />
<rect x="-0.02666666666666667" y="-0.02666666666666667" width="3.6143333333331906" height="1.833833333333262" fill="none" stroke="#111111ff" stroke-width="0.08" />
<text x="3.5609999999998574" y="2.249249999999929" font-size="0.375" fill="black" text-anchor="end" font-family="Anuphan">8x4</text>
<text x="-0.037500000000000006" y="2.249249999999929" font-size="0.375" fill="black" text-anchor="start" font-family="Anuphan" font-weight="600">Output 1</text>
</g>
<g id="d6">
<rect x="0.005" y="0.005" width="0.44012499999998217" height="0.44012499999998217" fill="#252525" />
<rect x="0.4501249999999822" y="0.005" width="0.44012499999998217" height="0.44012499999998217" fill="#252525" />
<rect x="0.8952499999999644" y="0.005" width="0.44012499999998217" height="0.44012499999998217" fill="#F012BE" />
<rect x="1.3403749999999464" y="0.005" width="0.44012499999998217" height="0.44012499999998217" fill="#252525" />
<rect x="1.7854999999999286" y="0.005" width="0.44012499999998217" height="0.44012499999998217" fill="#252525" />
<rect x="2.2306249999999106" y="0.005" width="0.44012499999998217" height="0.44012499999998217" fill="#252525" />
<rect x="2.675749999999893" y="0.005" width="0.44012499999998217" height="0.44012499999998217" fill="#F012BE" />
<rect x="3.120874999999875" y="0.005" width="0.44012499999998217" height="0.44012499999998217" fill="#252525" />
<rect x="0.005" y="0.4501249999999822" width="0.44012499999998217" height="0.44012499999998217" fill="#54D2EB" />
<rect x="0.4501249999999822" y="0.4501249999999822" width="0.44012499999998217" height="0.44012499999998217" fill="#54D2EB" />
<rect x="0.8952499999999644" y="0.4501249999999822" width="0.44012499999998217" height="0.44012499999998217" fill="#54D2EB" />
<rect x="1.3403749999999464" y="0.4501249999999822" width="0.44012499999998217" height="0.44012499999998217" fill="#54D2EB" />
<rect x="1.7854999999999286" y="0.4501249999999822" width="0.44012499999998217" height="0.44012499999998217" fill="#54D2EB" />
<rect x="2.2306249999999106" y="0.4501249999999822" width="0.44012499999998217" height="0.44012499999998217" fill="#54D2EB" />
<rect x="2.675749999999893" y="0.4501249999999822" width="0.44012499999998217" height="0.44012499999998217" fill="#54D2EB" />
<rect x="3.120874999999875" y="0.4501249999999822" width="0.44012499999998217" height="0.44012499999998217" fill="#54D2EB" />
<rect x="0.005" y="0.8952499999999644" width="0.44012499999998217" height="0.44012499999998217" fill="#252525" />
<rect x="0.4501249999999822" y="0.8952499999999644" width="0.44012499999998217" height="0.44012499999998217" fill="#F012BE" />
<rect x="0.8952499999999644" y="0.8952499999999644" width="0.44012499999998217" height="0.44012499999998217" fill="#252525" />
<rect x="1.3403749999999464" y="0.8952499999999644" width="0.44012499999998217" height="0.44012499999998217" fill="#54D2EB" />
<rect x="1.7854999999999286" y="0.8952499999999644" width="0.44012499999998217" height="0.44012499999998217" fill="#252525" />
<rect x="2.2306249999999106" y="0.8952499999999644" width="0.44012499999998217" height="0.44012499999998217" fill="#F012BE" />
<rect x="2.675749999999893" y="0.8952499999999644" width="0.44012499999998217" height="0.44012499999998217" fill="#252525" />
<rect x="3.120874999999875" y="0.8952499999999644" width="0.44012499999998217" height="0.44012499999998217" fill="#54D2EB" />
<rect x="0.005" y="1.3403749999999464" width="0.44012499999998217" height="0.44012499999998217" fill="#54D2EB" />
<rect x="0.4501249999999822" y="1.3403749999999464" width="0.44012499999998217" height="0.44012499999998217" fill="#252525" />
<rect x="0.8952499999999644" y="1.3403749999999464" width="0.44012499999998217" height="0.44012499999998217" fill="#F012BE" />
<rect x="1.3403749999999464" y="1.3403749999999464" width="0.44012499999998217" height="0.44012499999998217" fill="#252525" />
<rect x="1.7854999999999286" y="1.3403749999999464" width="0.44012499999998217" height="0.44012499999998217" fill="#54D2EB" />
<rect x="2.2306249999999106" y="1.3403749999999464" width="0.44012499999998217" height="0.44012499999998217" fill="#252525" />
<rect x="2.675749999999893" y="1.3403749999999464" width="0.44012499999998217" height="0.44012499999998217" fill="#F012BE" />
<rect x="3.120874999999875" y="1.3403749999999464" width="0.44012499999998217" height="0.44012499999998217" fill="#252525" />
<rect x="0.005" y="1.7854999999999286" width="0.44012499999998217" height="0.44012499999998217" fill="#54D2EB" />
<rect x="0.4501249999999822" y="1.7854999999999286" width="0.44012499999998217" height="0.44012499999998217" fill="#54D2EB" />
<rect x="0.8952499999999644" y="1.7854999999999286" width="0.44012499999998217" height="0.44012499999998217" fill="#54D2EB" />
<rect x="1.3403749999999464" y="1.7854999999999286" width="0.44012499999998217" height="0.44012499999998217" fill="#54D2EB" />
<rect x="1.7854999999999286" y="1.7854999999999286" width="0.44012499999998217" height="0.44012499999998217" fill="#54D2EB" />
<rect x="2.2306249999999106" y="1.7854999999999286" width="0.44012499999998217" height="0.44012499999998217" fill="#54D2EB" />
<rect x="2.675749999999893" y="1.7854999999999286" width="0.44012499999998217" height="0.44012499999998217" fill="#54D2EB" />
<rect x="3.120874999999875" y="1.7854999999999286" width="0.44012499999998217" height="0.44012499999998217" fill="#54D2EB" />
<rect x="0.005" y="2.2306249999999106" width="0.44012499999998217" height="0.44012499999998217" fill="#252525" />
<rect x="0.4501249999999822" y="2.2306249999999106" width="0.44012499999998217" height="0.44012499999998217" fill="#F012BE" />
<rect x="0.8952499999999644" y="2.2306249999999106" width="0.44012499999998217" height="0.44012499999998217" fill="#252525" />
<rect x="1.3403749999999464" y="2.2306249999999106" width="0.44012499999998217" height="0.44012499999998217" fill="#252525" />
<rect x="1.7854999999999286" y="2.2306249999999106" width="0.44012499999998217" height="0.44012499999998217" fill="#252525" />
<rect x="2.2306249999999106" y="2.2306249999999106" width="0.44012499999998217" height="0.44012499999998217" fill="#F012BE" />
<rect x="2.675749999999893" y="2.2306249999999106" width="0.44012499999998217" height="0.44012499999998217" fill="#252525" />
<rect x="3.120874999999875" y="2.2306249999999106" width="0.44012499999998217" height="0.44012499999998217" fill="#252525" />
<rect x="-0.02666666666666667" y="-0.02666666666666667" width="3.6143333333331906" height="2.724083333333226" fill="none" stroke="#111111ff" stroke-width="0.08" />
<text x="3.5609999999998574" y="3.139499999999893" font-size="0.375" fill="black" text-anchor="end" font-family="Anuphan">8x6</text>
<text x="-0.037500000000000006" y="3.139499999999893" font-size="0.375" fill="black" text-anchor="start" font-family="Anuphan" font-weight="600">Output 2</text>
</g>
<g id="d7">
<rect x="0.005" y="0.005" width="0.5359999999999774" height="0.5359999999999774" fill="#54D2EB" />
<rect x="0.5459999999999774" y="0.005" width="0.5359999999999774" height="0.5359999999999774" fill="#252525" />
<rect x="1.0869999999999547" y="0.005" width="0.5359999999999774" height="0.5359999999999774" fill="#54D2EB" />
<rect x="1.6279999999999322" y="0.005" width="0.5359999999999774" height="0.5359999999999774" fill="#54D2EB" />
<rect x="2.1689999999999094" y="0.005" width="0.5359999999999774" height="0.5359999999999774" fill="#252525" />
<rect x="2.7099999999998867" y="0.005" width="0.5359999999999774" height="0.5359999999999774" fill="#54D2EB" />
<rect x="0.005" y="0.5459999999999774" width="0.5359999999999774" height="0.5359999999999774" fill="#252525" />
<rect x="0.5459999999999774" y="0.5459999999999774" width="0.5359999999999774" height="0.5359999999999774" fill="#FFDC00" />
<rect x="1.0869999999999547" y="0.5459999999999774" width="0.5359999999999774" height="0.5359999999999774" fill="#252525" />
<rect x="1.6279999999999322" y="0.5459999999999774" width="0.5359999999999774" height="0.5359999999999774" fill="#252525" />
<rect x="2.1689999999999094" y="0.5459999999999774" width="0.5359999999999774" height="0.5359999999999774" fill="#FFDC00" />
<rect x="2.7099999999998867" y="0.5459999999999774" width="0.5359999999999774" height="0.5359999999999774" fill="#252525" />
<rect x="0.005" y="1.0869999999999547" width="0.5359999999999774" height="0.5359999999999774" fill="#54D2EB" />
<rect x="0.5459999999999774" y="1.0869999999999547" width="0.5359999999999774" height="0.5359999999999774" fill="#252525" />
<rect x="1.0869999999999547" y="1.0869999999999547" width="0.5359999999999774" height="0.5359999999999774" fill="#54D2EB" />
<rect x="1.6279999999999322" y="1.0869999999999547" width="0.5359999999999774" height="0.5359999999999774" fill="#54D2EB" />
<rect x="2.1689999999999094" y="1.0869999999999547" width="0.5359999999999774" height="0.5359999999999774" fill="#252525" />
<rect x="2.7099999999998867" y="1.0869999999999547" width="0.5359999999999774" height="0.5359999999999774" fill="#54D2EB" />
<rect x="0.005" y="1.6279999999999322" width="0.5359999999999774" height="0.5359999999999774" fill="#252525" />
<rect x="0.5459999999999774" y="1.6279999999999322" width="0.5359999999999774" height="0.5359999999999774" fill="#54D2EB" />
<rect x="1.0869999999999547" y="1.6279999999999322" width="0.5359999999999774" height="0.5359999999999774" fill="#54D2EB" />
<rect x="1.6279999999999322" y="1.6279999999999322" width="0.5359999999999774" height="0.5359999999999774" fill="#252525" />
<rect x="2.1689999999999094" y="1.6279999999999322" width="0.5359999999999774" height="0.5359999999999774" fill="#54D2EB" />
<rect x="2.7099999999998867" y="1.6279999999999322" width="0.5359999999999774" height="0.5359999999999774" fill="#252525" />
<rect x="0.005" y="2.1689999999999094" width="0.5359999999999774" height="0.5359999999999774" fill="#FFDC00" />
<rect x="0.5459999999999774" y="2.1689999999999094" width="0.5359999999999774" height="0.5359999999999774" fill="#252525" />
<rect x="1.0869999999999547" y="2.1689999999999094" width="0.5359999999999774" height="0.5359999999999774" fill="#252525" />
<rect x="1.6279999999999322" y="2.1689999999999094" width="0.5359999999999774" height="0.5359999999999774" fill="#FFDC00" />
<rect x="2.1689999999999094" y="2.1689999999999094" width="0.5359999999999774" height="0.5359999999999774" fill="#252525" />
<rect x="2.7099999999998867" y="2.1689999999999094" width="0.5359999999999774" height="0.5359999999999774" fill="#252525" />
<rect x="0.005" y="2.7099999999998867" width="0.5359999999999774" height="0.5359999999999774" fill="#54D2EB" />
<rect x="0.5459999999999774" y="2.7099999999998867" width="0.5359999999999774" height="0.5359999999999774" fill="#54D2EB" />
<rect x="1.0869999999999547" y="2.7099999999998867" width="0.5359999999999774" height="0.5359999999999774" fill="#54D2EB" />
<rect x="1.6279999999999322" y="2.7099999999998867" width="0.5359999999999774" height="0.5359999999999774" fill="#54D2EB" />
<rect x="2.1689999999999094" y="2.7099999999998867" width="0.5359999999999774" height="0.5359999999999774" fill="#54D2EB" />
<rect x="2.7099999999998867" y="2.7099999999998867" width="0.5359999999999774" height="0.5359999999999774" fill="#54D2EB" />
<rect x="0.005" y="3.2509999999998644" width="0.5359999999999774" height="0.5359999999999774" fill="#252525" />
<rect x="0.5459999999999774" y="3.2509999999998644" width="0.5359999999999774" height="0.5359999999999774" fill="#FFDC00" />
<rect x="1.0869999999999547" y="3.2509999999998644" width="0.5359999999999774" height="0.5359999999999774" fill="#252525" />
<rect x="1.6279999999999322" y="3.2509999999998644" width="0.5359999999999774" height="0.5359999999999774" fill="#252525" />
<rect x="2.1689999999999094" y="3.2509999999998644" width="0.5359999999999774" height="0.5359999999999774" fill="#FFDC00" />
<rect x="2.7099999999998867" y="3.2509999999998644" width="0.5359999999999774" height="0.5359999999999774" fill="#252525" />
<rect x="0.005" y="3.7919999999998417" width="0.5359999999999774" height="0.5359999999999774" fill="#54D2EB" />
<rect x="0.5459999999999774" y="3.7919999999998417" width="0.5359999999999774" height="0.5359999999999774" fill="#252525" />
<rect x="1.0869999999999547" y="3.7919999999998417" width="0.5359999999999774" height="0.5359999999999774" fill="#54D2EB" />
<rect x="1.6279999999999322" y="3.7919999999998417" width="0.5359999999999774" height="0.5359999999999774" fill="#54D2EB" />
<rect x="2.1689999999999094" y="3.7919999999998417" width="0.5359999999999774" height="0.5359999999999774" fill="#252525" />
<rect x="2.7099999999998867" y="3.7919999999998417" width="0.5359999999999774" height="0.5359999999999774" fill="#54D2EB" />
<rect x="0.005" y="4.332999999999819" width="0.5359999999999774" height="0.5359999999999774" fill="#252525" />
<rect x="0.5459999999999774" y="4.332999999999819" width="0.5359999999999774" height="0.5359999999999774" fill="#54D2EB" />
<rect x="1.0869999999999547" y="4.332999999999819" width="0.5359999999999774" height="0.5359999999999774" fill="#54D2EB" />
<rect x="1.6279999999999322" y="4.332999999999819" width="0.5359999999999774" height="0.5359999999999774" fill="#252525" />
<rect x="2.1689999999999094" y="4.332999999999819" width="0.5359999999999774" height="0.5359999999999774" fill="#54D2EB" />
<rect x="2.7099999999998867" y="4.332999999999819" width="0.5359999999999774" height="0.5359999999999774" fill="#252525" />
<rect x="0.005" y="4.873999999999796" width="0.5359999999999774" height="0.5359999999999774" fill="#FFDC00" />
<rect x="0.5459999999999774" y="4.873999999999796" width="0.5359999999999774" height="0.5359999999999774" fill="#252525" />
<rect x="1.0869999999999547" y="4.873999999999796" width="0.5359999999999774" height="0.5359999999999774" fill="#252525" />
<rect x="1.6279999999999322" y="4.873999999999796" width="0.5359999999999774" height="0.5359999999999774" fill="#FFDC00" />
<rect x="2.1689999999999094" y="4.873999999999796" width="0.5359999999999774" height="0.5359999999999774" fill="#252525" />
<rect x="2.7099999999998867" y="4.873999999999796" width="0.5359999999999774" height="0.5359999999999774" fill="#252525" />
<rect x="-0.02666666666666667" y="-0.02666666666666667" width="3.299333333333198" height="5.463333333333107" fill="none" stroke="#111111ff" stroke-width="0.08" />
<text x="3.2459999999998645" y="5.878749999999774" font-size="0.375" fill="black" text-anchor="end" font-family="Anuphan">6x10</text>
<text x="-0.037500000000000006" y="5.878749999999774" font-size="0.375" fill="black" text-anchor="start" font-family="Anuphan" font-weight="600">Output 3</text>
</g>
<g id="d8">
<rect x="0.005" y="0.005" width="0.44012499999998217" height="0.44012499999998217" fill="#54D2EB" />
<rect x="0.4501249999999822" y="0.005" width="0.44012499999998217" height="0.44012499999998217" fill="#252525" />
<rect x="0.8952499999999644" y="0.005" width="0.44012499999998217" height="0.44012499999998217" fill="#54D2EB" />
<rect x="1.3403749999999464" y="0.005" width="0.44012499999998217" height="0.44012499999998217" fill="#252525" />
<rect x="1.7854999999999286" y="0.005" width="0.44012499999998217" height="0.44012499999998217" fill="#54D2EB" />
<rect x="2.2306249999999106" y="0.005" width="0.44012499999998217" height="0.44012499999998217" fill="#252525" />
<rect x="2.675749999999893" y="0.005" width="0.44012499999998217" height="0.44012499999998217" fill="#54D2EB" />
<rect x="3.120874999999875" y="0.005" width="0.44012499999998217" height="0.44012499999998217" fill="#252525" />
<rect x="0.005" y="0.4501249999999822" width="0.44012499999998217" height="0.44012499999998217" fill="#252525" />
<rect x="0.4501249999999822" y="0.4501249999999822" width="0.44012499999998217" height="0.44012499999998217" fill="#FF4136" />
<rect x="0.8952499999999644" y="0.4501249999999822" width="0.44012499999998217" height="0.44012499999998217" fill="#252525" />
<rect x="1.3403749999999464" y="0.4501249999999822" width="0.44012499999998217" height="0.44012499999998217" fill="#252525" />
<rect x="1.7854999999999286" y="0.4501249999999822" width="0.44012499999998217" height="0.44012499999998217" fill="#252525" />
<rect x="2.2306249999999106" y="0.4501249999999822" width="0.44012499999998217" height="0.44012499999998217" fill="#FF4136" />
<rect x="2.675749999999893" y="0.4501249999999822" width="0.44012499999998217" height="0.44012499999998217" fill="#252525" />
<rect x="3.120874999999875" y="0.4501249999999822" width="0.44012499999998217" height="0.44012499999998217" fill="#252525" />
<rect x="0.005" y="0.8952499999999644" width="0.44012499999998217" height="0.44012499999998217" fill="#54D2EB" />
<rect x="0.4501249999999822" y="0.8952499999999644" width="0.44012499999998217" height="0.44012499999998217" fill="#252525" />
<rect x="0.8952499999999644" y="0.8952499999999644" width="0.44012499999998217" height="0.44012499999998217" fill="#54D2EB" />
<rect x="1.3403749999999464" y="0.8952499999999644" width="0.44012499999998217" height="0.44012499999998217" fill="#252525" />
<rect x="1.7854999999999286" y="0.8952499999999644" width="0.44012499999998217" height="0.44012499999998217" fill="#54D2EB" />
<rect x="2.2306249999999106" y="0.8952499999999644" width="0.44012499999998217" height="0.44012499999998217" fill="#252525" />
<rect x="2.675749999999893" y="0.8952499999999644" width="0.44012499999998217" height="0.44012499999998217" fill="#54D2EB" />
<rect x="3.120874999999875" y="0.8952499999999644" width="0.44012499999998217" height="0.44012499999998217" fill="#252525" />
<rect x="0.005" y="1.3403749999999464" width="0.44012499999998217" height="0.44012499999998217" fill="#252525" />
<rect x="0.4501249999999822" y="1.3403749999999464" width="0.44012499999998217" height="0.44012499999998217" fill="#252525" />
<rect x="0.8952499999999644" y="1.3403749999999464" width="0.44012499999998217" height="0.44012499999998217" fill="#252525" />
<rect x="1.3403749999999464" y="1.3403749999999464" width="0.44012499999998217" height="0.44012499999998217" fill="#252525" />
<rect x="1.7854999999999286" y="1.3403749999999464" width="0.44012499999998217" height="0.44012499999998217" fill="#252525" />
<rect x="2.2306249999999106" y="1.3403749999999464" width="0.44012499999998217" height="0.44012499999998217" fill="#252525" />
<rect x="2.675749999999893" y="1.3403749999999464" width="0.44012499999998217" height="0.44012499999998217" fill="#252525" />
<rect x="3.120874999999875" y="1.3403749999999464" width="0.44012499999998217" height="0.44012499999998217" fill="#252525" />
<rect x="0.005" y="1.7854999999999286" width="0.44012499999998217" height="0.44012499999998217" fill="#54D2EB" />
<rect x="0.4501249999999822" y="1.7854999999999286" width="0.44012499999998217" height="0.44012499999998217" fill="#252525" />
<rect x="0.8952499999999644" y="1.7854999999999286" width="0.44012499999998217" height="0.44012499999998217" fill="#54D2EB" />
<rect x="1.3403749999999464" y="1.7854999999999286" width="0.44012499999998217" height="0.44012499999998217" fill="#252525" />
<rect x="1.7854999999999286" y="1.7854999999999286" width="0.44012499999998217" height="0.44012499999998217" fill="#54D2EB" />
<rect x="2.2306249999999106" y="1.7854999999999286" width="0.44012499999998217" height="0.44012499999998217" fill="#252525" />
<rect x="2.675749999999893" y="1.7854999999999286" width="0.44012499999998217" height="0.44012499999998217" fill="#54D2EB" />
<rect x="3.120874999999875" y="1.7854999999999286" width="0.44012499999998217" height="0.44012499999998217" fill="#252525" />
<rect x="0.005" y="2.2306249999999106" width="0.44012499999998217" height="0.44012499999998217" fill="#252525" />
<rect x="0.4501249999999822" y="2.2306249999999106" width="0.44012499999998217" height="0.44012499999998217" fill="#FF4136" />
<rect x="0.8952499999999644" y="2.2306249999999106" width="0.44012499999998217" height="0.44012499999998217" fill="#252525" />
<rect x="1.3403749999999464" y="2.2306249999999106" width="0.44012499999998217" height="0.44012499999998217" fill="#252525" />
<rect x="1.7854999999999286" y="2.2306249999999106" width="0.44012499999998217" height="0.44012499999998217" fill="#252525" />
<rect x="2.2306249999999106" y="2.2306249999999106" width="0.44012499999998217" height="0.44012499999998217" fill="#FF4136" />
<rect x="2.675749999999893" y="2.2306249999999106" width="0.44012499999998217" height="0.44012499999998217" fill="#252525" />
<rect x="3.120874999999875" y="2.2306249999999106" width="0.44012499999998217" height="0.44012499999998217" fill="#252525" />
<rect x="0.005" y="2.675749999999893" width="0.44012499999998217" height="0.44012499999998217" fill="#54D2EB" />
<rect x="0.4501249999999822" y="2.675749999999893" width="0.44012499999998217" height="0.44012499999998217" fill="#252525" />
<rect x="0.8952499999999644" y="2.675749999999893" width="0.44012499999998217" height="0.44012499999998217" fill="#54D2EB" />
<rect x="1.3403749999999464" y="2.675749999999893" width="0.44012499999998217" height="0.44012499999998217" fill="#252525" />
<rect x="1.7854999999999286" y="2.675749999999893" width="0.44012499999998217" height="0.44012499999998217" fill="#54D2EB" />
<rect x="2.2306249999999106" y="2.675749999999893" width="0.44012499999998217" height="0.44012499999998217" fill="#252525" />
<rect x="2.675749999999893" y="2.675749999999893" width="0.44012499999998217" height="0.44012499999998217" fill="#54D2EB" />
<rect x="3.120874999999875" y="2.675749999999893" width="0.44012499999998217" height="0.44012499999998217" fill="#252525" />
<rect x="0.005" y="3.120874999999875" width="0.44012499999998217" height="0.44012499999998217" fill="#252525" />
<rect x="0.4501249999999822" y="3.120874999999875" width="0.44012499999998217" height="0.44012499999998217" fill="#252525" />
<rect x="0.8952499999999644" y="3.120874999999875" width="0.44012499999998217" height="0.44012499999998217" fill="#252525" />
<rect x="1.3403749999999464" y="3.120874999999875" width="0.44012499999998217" height="0.44012499999998217" fill="#252525" />
<rect x="1.7854999999999286" y="3.120874999999875" width="0.44012499999998217" height="0.44012499999998217" fill="#252525" />
<rect x="2.2306249999999106" y="3.120874999999875" width="0.44012499999998217" height="0.44012499999998217" fill="#252525" />
<rect x="2.675749999999893" y="3.120874999999875" width="0.44012499999998217" height="0.44012499999998217" fill="#252525" />
<rect x="3.120874999999875" y="3.120874999999875" width="0.44012499999998217" height="0.44012499999998217" fill="#252525" />
<rect x="-0.02666666666666667" y="-0.02666666666666667" width="3.6143333333331906" height="3.6143333333331906" fill="none" stroke="#111111ff" stroke-width="0.08" />
<text x="3.5609999999998574" y="4.029749999999858" font-size="0.375" fill="black" text-anchor="end" font-family="Anuphan">8x8</text>
<text x="-0.037500000000000006" y="4.029749999999858" font-size="0.375" fill="black" text-anchor="start" font-family="Anuphan" font-weight="600">Output 4</text>
</g>
</defs>
<rect x="0" y="0" width="100%" height="100%" fill="#eeeff6" />
<use xlink:href="#d0" x="0.25" y="0.25" />
<use xlink:href="#d1" x="4.310999999999858" y="0.25" />
<use xlink:href="#d2" x="8.371999999999716" y="0.25" />
<use xlink:href="#d3" x="12.11799999999958" y="0.25" />
<use xlink:href="#d4" x="16.178999999999437" y="0.25" />
<path d="M2.030499999999929,6.309999999999774 L2.030499999999929,6.709999999999774" stroke-width="0.05" stroke="#888888" />
<path d="M1.880499999999929,6.509999999999774 L2.030499999999929,6.709999999999774" stroke-width="0.05" stroke="#888888" />
<path d="M2.180499999999929,6.509999999999774 L2.030499999999929,6.709999999999774" stroke-width="0.05" stroke="#888888" />
<use xlink:href="#d5" x="0.25" y="7.059999999999774" />
<path d="M6.091499999999787,6.309999999999774 L6.091499999999787,6.709999999999774" stroke-width="0.05" stroke="#888888" />
<path d="M5.941499999999786,6.509999999999774 L6.091499999999787,6.709999999999774" stroke-width="0.05" stroke="#888888" />
<path d="M6.241499999999787,6.509999999999774 L6.091499999999787,6.709999999999774" stroke-width="0.05" stroke="#888888" />
<use xlink:href="#d6" x="4.310999999999858" y="7.059999999999774" />
<path d="M9.994999999999647,6.309999999999774 L9.994999999999647,6.709999999999774" stroke-width="0.05" stroke="#888888" />
<path d="M9.844999999999647,6.509999999999774 L9.994999999999647,6.709999999999774" stroke-width="0.05" stroke="#888888" />
<path d="M10.144999999999648,6.509999999999774 L9.994999999999647,6.709999999999774" stroke-width="0.05" stroke="#888888" />
<use xlink:href="#d7" x="8.371999999999716" y="7.059999999999774" />
<path d="M13.898499999999508,6.309999999999774 L13.898499999999508,6.709999999999774" stroke-width="0.05" stroke="#888888" />
<path d="M13.748499999999508,6.509999999999774 L13.898499999999508,6.709999999999774" stroke-width="0.05" stroke="#888888" />
<path d="M14.048499999999509,6.509999999999774 L13.898499999999508,6.709999999999774" stroke-width="0.05" stroke="#888888" />
<use xlink:href="#d8" x="12.11799999999958" y="7.059999999999774" />
<path d="M17.959499999999366,6.309999999999774 L17.959499999999366,6.709999999999774" stroke-width="0.05" stroke="#888888" />
<path d="M17.809499999999368,6.509999999999774 L17.959499999999366,6.709999999999774" stroke-width="0.05" stroke="#888888" />
<path d="M18.109499999999365,6.509999999999774 L17.959499999999366,6.709999999999774" stroke-width="0.05" stroke="#888888" />
<text x="17.959499999999366" y="9.296599999999689" font-size="1" font-family="Anuphan" font-weight="700" fill="#333333" text-anchor="middle" alignment-baseline="middle">?</text>
<text x="19.9" y="13.299999999999999" font-size="0.3" font-family="Anuphan" font-weight="600" fill="#666666" text-anchor="end" alignment-baseline="bottom">Task 10fcaaa3</text>
</svg>