<?xml version="1.0" encoding="UTF-8"?>
<svg xmlns="http://www.w3.org/2000/svg" xmlns:xlink="http://www.w3.org/1999/xlink"
     width="708.0" height="536.0" viewBox="0 0 17.7 13.399999999999999">
<defs>
<g id="d0">
<rect x="0.005" y="0.005" width="0.38190476190475536" height="0.38190476190475536" fill="#E6E6E6" />
<rect x="0.39190476190475537" y="0.005" width="0.38190476190475536" height="0.38190476190475536" fill="#E6E6E6" />
<rect x="0.7788095238095107" y="0.005" width="0.38190476190475536" height="0.38190476190475536" fill="#E6E6E6" />
<rect x="1.165714285714266" y="0.005" width="0.38190476190475536" height="0.38190476190475536" fill="#252525" />
<rect x="1.5526190476190214" y="0.005" width="0.38190476190475536" height="0.38190476190475536" fill="#252525" />
<rect x="1.9395238095237768" y="0.005" width="0.38190476190475536" height="0.38190476190475536" fill="#252525" />
<rect x="2.326428571428532" y="0.005" width="0.38190476190475536" height="0.38190476190475536" fill="#252525" />
<rect x="2.7133333333332876" y="0.005" width="0.38190476190475536" height="0.38190476190475536" fill="#252525" />
<rect x="3.100238095238043" y="0.005" width="0.38190476190475536" height="0.38190476190475536" fill="#252525" />
<rect x="3.487142857142798" y="0.005" width="0.38190476190475536" height="0.38190476190475536" fill="#252525" />
<rect x="3.8740476190475537" y="0.005" width="0.38190476190475536" height="0.38190476190475536" fill="#252525" />
<rect x="4.260952380952309" y="0.005" width="0.38190476190475536" height="0.38190476190475536" fill="#252525" />
<rect x="4.647857142857064" y="0.005" width="0.38190476190475536" height="0.38190476190475536" fill="#252525" />
<rect x="5.03476190476182" y="0.005" width="0.38190476190475536" height="0.38190476190475536" fill="#252525" />
<rect x="0.005" y="0.39190476190475537" width="0.38190476190475536" height="0.38190476190475536" fill="#54D2EB" />
<rect x="0.39190476190475537" y="0.39190476190475537" width="0.38190476190475536" height="0.38190476190475536" fill="#E6E6E6" />
<rect x="0.7788095238095107" y="0.39190476190475537" width="0.38190476190475536" height="0.38190476190475536" fill="#E6E6E6" />
<rect x="1.165714285714266" y="0.39190476190475537" width="0.38190476190475536" height="0.38190476190475536" fill="#252525" />
<rect x="1.5526190476190214" y="0.39190476190475537" width="0.38190476190475536" height="0.38190476190475536" fill="#252525" />
<rect x="1.9395238095237768" y="0.39190476190475537" width="0.38190476190475536" height="0.38190476190475536" fill="#252525" />
<rect x="2.326428571428532" y="0.39190476190475537" width="0.38190476190475536" height="0.38190476190475536" fill="#252525" />
<rect x="2.7133333333332876" y="0.39190476190475537" width="0.38190476190475536" height="0.38190476190475536" fill="#252525" />
<rect x="3.100238095238043" y="0.39190476190475537" width="0.38190476190475536" height="0.38190476190475536" fill="#FF4136" />
<rect x="3.487142857142798" y="0.39190476190475537" width="0.38190476190475536" height="0.38190476190475536" fill="#FF4136" />
<rect x="3.8740476190475537" y="0.39190476190475537" width="0.38190476190475536" height="0.38190476190475536" fill="#FF4136" />
<rect x="4.260952380952309" y="0.39190476190475537" width="0.38190476190475536" height="0.38190476190475536" fill="#252525" />
<rect x="4.647857142857064" y="0.39190476190475537" width="0.38190476190475536" height="0.38190476190475536" fill="#252525" />
<rect x="5.03476190476182" y="0.39190476190475537" width="0.38190476190475536" height="0.38190476190475536" fill="#252525" />
<rect x="0.005" y="0.7788095238095107" width="0.38190476190475536" height="0.38190476190475536" fill="#54D2EB" />
<rect x="0.39190476190475537" y="0.7788095238095107" width="0.38190476190475536" height="0.38190476190475536" fill="#54D2EB" />
<rect x="0.7788095238095107" y="0.7788095238095107" width="0.38190476190475536" height="0.38190476190475536" fill="#E6E6E6" />
<rect x="1.165714285714266" y="0.7788095238095107" width="0.38190476190475536" height="0.38190476190475536" fill="#252525" />
<rect x="1.5526190476190214" y="0.7788095238095107" width="0.38190476190475536" height="0.38190476190475536" fill="#252525" />
<rect x="1.9395238095237768" y="0.7788095238095107" width="0.38190476190475536" height="0.38190476190475536" fill="#252525" />
<rect x="2.326428571428532" y="0.7788095238095107" width="0.38190476190475536" height="0.38190476190475536" fill="#252525" />
<rect x="2.7133333333332876" y="0.7788095238095107" width="0.38190476190475536" height="0.38190476190475536" fill="#252525" />
<rect x="3.100238095238043" y="0.7788095238095107" width="0.38190476190475536" height="0.38190476190475536" fill="#E6E6E6" />
<rect x="3.487142857142798" y="0.7788095238095107" width="0.38190476190475536" height="0.38190476190475536" fill="#FF4136" />
<rect x="3.8740476190475537" y="0.7788095238095107" width="0.38190476190475536" height="0.38190476190475536" fill="#E6E6E6" />
<rect x="4.260952380952309" y="0.7788095238095107" width="0.38190476190475536" height="0.38190476190475536" fill="#252525" />
<rect x="4.647857142857064" y="0.7788095238095107" width="0.38190476190475536" height="0.38190476190475536" fill="#252525" />
<rect x="5.03476190476182" y="0.7788095238095107" width="0.38190476190475536" height="0.38190476190475536" fill="#252525" />
<rect x="0.005" y="1.165714285714266" width="0.38190476190475536" height="0.38190476190475536" fill="#252525" />
<rect x="0.39190476190475537" y="1.165714285714266" width="0.38190476190475536" height="0.38190476190475536" fill="#252525" />
<rect x="0.7788095238095107" y="1.165714285714266" width="0.38190476190475536" height="0.38190476190475536" fill="#FF4136" />
<rect x="1.165714285714266" y="1.165714285714266" width="0.38190476190475536" height="0.38190476190475536" fill="#E6E6E6" />
<rect x="1.5526190476190214" y="1.165714285714266" width="0.38190476190475536" height="0.38190476190475536" fill="#E6E6E6" />
<rect x="1.9395238095237768" y="1.165714285714266" width="0.38190476190475536" height="0.38190476190475536" fill="#252525" />
<rect x="2.326428571428532" y="1.165714285714266" width="0.38190476190475536" height="0.38190476190475536" fill="#252525" />
<rect x="2.7133333333332876" y="1.165714285714266" width="0.38190476190475536" height="0.38190476190475536" fill="#252525" />
<rect x="3.100238095238043" y="1.165714285714266" width="0.38190476190475536" height="0.38190476190475536" fill="#E6E6E6" />
<rect x="3.487142857142798" y="1.165714285714266" width="0.38190476190475536" height="0.38190476190475536" fill="#E6E6E6" />
<rect x="3.8740476190475537" y="1.165714285714266" width="0.38190476190475536" height="0.38190476190475536" fill="#E6E6E6" />
<rect x="4.260952380952309" y="1.165714285714266" width="0.38190476190475536" height="0.38190476190475536" fill="#252525" />
<rect x="4.647857142857064" y="1.165714285714266" width="0.38190476190475536" height="0.38190476190475536" fill="#252525" />
<rect x="5.03476190476182" y="1.165714285714266" width="0.38190476190475536" height="0.38190476190475536" fill="#252525" />
<rect x="0.005" y="1.5526190476190214" width="0.38190476190475536" height="0.38190476190475536" fill="#252525" />
<rect x="0.39190476190475537" y="1.5526190476190214" width="0.38190476190475536" height="0.38190476190475536" fill="#252525" />
<rect x="0.7788095238095107" y="1.5526190476190214" width="0.38190476190475536" height="0.38190476190475536" fill="#FF4136" />
<rect x="1.165714285714266" y="1.5526190476190214" width="0.38190476190475536" height="0.38190476190475536" fill="#FF4136" />
<rect x="1.5526190476190214" y="1.5526190476190214" width="0.38190476190475536" height="0.38190476190475536" fill="#E6E6E6" />
<rect x="1.9395238095237768" y="1.5526190476190214" width="0.38190476190475536" height="0.38190476190475536" fill="#252525" />
<rect x="2.326428571428532" y="1.5526190476190214" width="0.38190476190475536" height="0.38190476190475536" fill="#252525" />
<rect x="2.7133333333332876" y="1.5526190476190214" width="0.38190476190475536" height="0.38190476190475536" fill="#252525" />
<rect x="3.100238095238043" y="1.5526190476190214" width="0.38190476190475536" height="0.38190476190475536" fill="#252525" />
<rect x="3.487142857142798" y="1.5526190476190214" width="0.38190476190475536" height="0.38190476190475536" fill="#252525" />
<rect x="3.8740476190475537" y="1.5526190476190214" width="0.38190476190475536" height="0.38190476190475536" fill="#252525" />
<rect x="4.260952380952309" y="1.5526190476190214" width="0.38190476190475536" height="0.38190476190475536" fill="#252525" />
<rect x="4.647857142857064" y="1.5526190476190214" width="0.38190476190475536" height="0.38190476190475536" fill="#252525" />
<rect x="5.03476190476182" y="1.5526190476190214" width="0.38190476190475536" height="0.38190476190475536" fill="#252525" />
<rect x="0.005" y="1.9395238095237768" width="0.38190476190475536" height="0.38190476190475536" fill="#252525" />
<rect x="0.39190476190475537" y="1.9395238095237768" width="0.38190476190475536" height="0.38190476190475536" fill="#252525" />
<rect x="0.7788095238095107" y="1.9395238095237768" width="0.38190476190475536" height="0.38190476190475536" fill="#FF4136" />
<rect x="1.165714285714266" y="1.9395238095237768" width="0.38190476190475536" height="0.38190476190475536" fill="#E6E6E6" />
<rect x="1.5526190476190214" y="1.9395238095237768" width="0.38190476190475536" height="0.38190476190475536" fill="#E6E6E6" />
<rect x="1.9395238095237768" y="1.9395238095237768" width="0.38190476190475536" height="0.38190476190475536" fill="#252525" />
<rect x="2.326428571428532" y="1.9395238095237768" width="0.38190476190475536" height="0.38190476190475536" fill="#E6E6E6" />
<rect x="2.7133333333332876" y="1.9395238095237768" width="0.38190476190475536" height="0.38190476190475536" fill="#E6E6E6" />
<rect x="3.100238095238043" y="1.9395238095237768" width="0.38190476190475536" height="0.38190476190475536" fill="#E6E6E6" />
<rect x="3.487142857142798" y="1.9395238095237768" width="0.38190476190475536" height="0.38190476190475536" fill="#252525" />
<rect x="3.8740476190475537" y="1.9395238095237768" width="0.38190476190475536" height="0.38190476190475536" fill="#252525" />
<rect x="4.260952380952309" y="1.9395238095237768" width="0.38190476190475536" height="0.38190476190475536" fill="#252525" />
<rect x="4.647857142857064" y="1.9395238095237768" width="0.38190476190475536" height="0.38190476190475536" fill="#252525" />
<rect x="5.03476190476182" y="1.9395238095237768" width="0.38190476190475536" height="0.38190476190475536" fill="#252525" />
<rect x="0.005" y="2.326428571428532" width="0.38190476190475536" height="0.38190476190475536" fill="#252525" />
<rect x="0.39190476190475537" y="2.326428571428532" width="0.38190476190475536" height="0.38190476190475536" fill="#252525" />
<rect x="0.7788095238095107" y="2.326428571428532" width="0.38190476190475536" height="0.38190476190475536" fill="#252525" />
<rect x="1.165714285714266" y="2.326428571428532" width="0.38190476190475536" height="0.38190476190475536" fill="#252525" />
<rect x="1.5526190476190214" y="2.326428571428532" width="0.38190476190475536" height="0.38190476190475536" fill="#252525" />
<rect x="1.9395238095237768" y="2.326428571428532" width="0.38190476190475536" height="0.38190476190475536" fill="#252525" />
<rect x="2.326428571428532" y="2.326428571428532" width="0.38190476190475536" height="0.38190476190475536" fill="#E6E6E6" />
<rect x="2.7133333333332876" y="2.326428571428532" width="0.38190476190475536" height="0.38190476190475536" fill="#E6E6E6" />
<rect x="3.100238095238043" y="2.326428571428532" width="0.38190476190475536" height="0.38190476190475536" fill="#E6E6E6" />
<rect x="3.487142857142798" y="2.326428571428532" width="0.38190476190475536" height="0.38190476190475536" fill="#252525" />
<rect x="3.8740476190475537" y="2.326428571428532" width="0.38190476190475536" height="0.38190476190475536" fill="#E6E6E6" />
<rect x="4.260952380952309" y="2.326428571428532" width="0.38190476190475536" height="0.38190476190475536" fill="#E6E6E6" />
<rect x="4.647857142857064" y="2.326428571428532" width="0.38190476190475536" height="0.38190476190475536" fill="#E6E6E6" />
<rect x="5.03476190476182" y="2.326428571428532" width="0.38190476190475536" height="0.38190476190475536" fill="#252525" />
<rect x="0.005" y="2.7133333333332876" width="0.38190476190475536" height="0.38190476190475536" fill="#252525" />
<rect x="0.39190476190475537" y="2.7133333333332876" width="0.38190476190475536" height="0.38190476190475536" fill="#E6E6E6" />
<rect x="0.7788095238095107" y="2.7133333333332876" width="0.38190476190475536" height="0.38190476190475536" fill="#0074D9" />
<rect x="1.165714285714266" y="2.7133333333332876" width="0.38190476190475536" height="0.38190476190475536" fill="#0074D9" />
<rect x="1.5526190476190214" y="2.7133333333332876" width="0.38190476190475536" height="0.38190476190475536" fill="#252525" />
<rect x="1.9395238095237768" y="2.7133333333332876" width="0.38190476190475536" height="0.38190476190475536" fill="#252525" />
<rect x="2.326428571428532" y="2.7133333333332876" width="0.38190476190475536" height="0.38190476190475536" fill="#E6E6E6" />
<rect x="2.7133333333332876" y="2.7133333333332876" width="0.38190476190475536" height="0.38190476190475536" fill="#E6E6E6" />
<rect x="3.100238095238043" y="2.7133333333332876" width="0.38190476190475536" height="0.38190476190475536" fill="#E6E6E6" />
<rect x="3.487142857142798" y="2.7133333333332876" width="0.38190476190475536" height="0.38190476190475536" fill="#252525" />
<rect x="3.8740476190475537" y="2.7133333333332876" width="0.38190476190475536" height="0.38190476190475536" fill="#E6E6E6" />
<rect x="4.260952380952309" y="2.7133333333332876" width="0.38190476190475536" height="0.38190476190475536" fill="#FFDC00" />
<rect x="4.647857142857064" y="2.7133333333332876" width="0.38190476190475536" height="0.38190476190475536" fill="#E6E6E6" />
<rect x="5.03476190476182" y="2.7133333333332876" width="0.38190476190475536" height="0.38190476190475536" fill="#252525" />
<rect x="0.005" y="3.100238095238043" width="0.38190476190475536" height="0.38190476190475536" fill="#252525" />
<rect x="0.39190476190475537" y="3.100238095238043" width="0.38190476190475536" height="0.38190476190475536" fill="#E6E6E6" />
<rect x="0.7788095238095107" y="3.100238095238043" width="0.38190476190475536" height="0.38190476190475536" fill="#E6E6E6" />
<rect x="1.165714285714266" y="3.100238095238043" width="0.38190476190475536" height="0.38190476190475536" fill="#0074D9" />
<rect x="1.5526190476190214" y="3.100238095238043" width="0.38190476190475536" height="0.38190476190475536" fill="#252525" />
<rect x="1.9395238095237768" y="3.100238095238043" width="0.38190476190475536" height="0.38190476190475536" fill="#252525" />
<rect x="2.326428571428532" y="3.100238095238043" width="0.38190476190475536" height="0.38190476190475536" fill="#252525" />
<rect x="2.7133333333332876" y="3.100238095238043" width="0.38190476190475536" height="0.38190476190475536" fill="#252525" />
<rect x="3.100238095238043" y="3.100238095238043" width="0.38190476190475536" height="0.38190476190475536" fill="#252525" />
<rect x="3.487142857142798" y="3.100238095238043" width="0.38190476190475536" height="0.38190476190475536" fill="#252525" />
<rect x="3.8740476190475537" y="3.100238095238043" width="0.38190476190475536" height="0.38190476190475536" fill="#FFDC00" />
<rect x="4.260952380952309" y="3.100238095238043" width="0.38190476190475536" height="0.38190476190475536" fill="#FFDC00" />
<rect x="4.647857142857064" y="3.100238095238043" width="0.38190476190475536" height="0.38190476190475536" fill="#FFDC00" />
<rect x="5.03476190476182" y="3.100238095238043" width="0.38190476190475536" height="0.38190476190475536" fill="#252525" />
<rect x="0.005" y="3.487142857142798" width="0.38190476190475536" height="0.38190476190475536" fill="#252525" />
<rect x="0.39190476190475537" y="3.487142857142798" width="0.38190476190475536" height="0.38190476190475536" fill="#E6E6E6" />
<rect x="0.7788095238095107" y="3.487142857142798" width="0.38190476190475536" height="0.38190476190475536" fill="#E6E6E6" />
<rect x="1.165714285714266" y="3.487142857142798" width="0.38190476190475536" height="0.38190476190475536" fill="#E6E6E6" />
<rect x="1.5526190476190214" y="3.487142857142798" width="0.38190476190475536" height="0.38190476190475536" fill="#252525" />
<rect x="1.9395238095237768" y="3.487142857142798" width="0.38190476190475536" height="0.38190476190475536" fill="#252525" />
<rect x="2.326428571428532" y="3.487142857142798" width="0.38190476190475536" height="0.38190476190475536" fill="#E6E6E6" />
<rect x="2.7133333333332876" y="3.487142857142798" width="0.38190476190475536" height="0.38190476190475536" fill="#E6E6E6" />
<rect x="3.100238095238043" y="3.487142857142798" width="0.38190476190475536" height="0.38190476190475536" fill="#37D449" />
<rect x="3.487142857142798" y="3.487142857142798" width="0.38190476190475536" height="0.38190476190475536" fill="#252525" />
<rect x="3.8740476190475537" y="3.487142857142798" width="0.38190476190475536" height="0.38190476190475536" fill="#252525" />
<rect x="4.260952380952309" y="3.487142857142798" width="0.38190476190475536" height="0.38190476190475536" fill="#252525" />
<rect x="4.647857142857064" y="3.487142857142798" width="0.38190476190475536" height="0.38190476190475536" fill="#252525" />
<rect x="5.03476190476182" y="3.487142857142798" width="0.38190476190475536" height="0.38190476190475536" fill="#252525" />
<rect x="0.005" y="3.8740476190475537" width="0.38190476190475536" height="0.38190476190475536" fill="#252525" />
<rect x="0.39190476190475537" y="3.8740476190475537" width="0.38190476190475536" height="0.38190476190475536" fill="#252525" />
<rect x="0.7788095238095107" y="3.8740476190475537" width="0.38190476190475536" height="0.38190476190475536" fill="#252525" />
<rect x="1.165714285714266" y="3.8740476190475537" width="0.38190476190475536" height="0.38190476190475536" fill="#252525" />
<rect x="1.5526190476190214" y="3.8740476190475537" width="0.38190476190475536" height="0.38190476190475536" fill="#252525" />
<rect x="1.9395238095237768" y="3.8740476190475537" width="0.38190476190475536" height="0.38190476190475536" fill="#252525" />
<rect x="2.326428571428532" y="3.8740476190475537" width="0.38190476190475536" height="0.38190476190475536" fill="#E6E6E6" />
<rect x="2.7133333333332876" y="3.8740476190475537" width="0.38190476190475536" height="0.38190476190475536" fill="#37D449" />
<rect x="3.100238095238043" y="3.8740476190475537" width="0.38190476190475536" height="0.38190476190475536" fill="#37D449" />
<rect x="3.487142857142798" y="3.8740476190475537" width="0.38190476190475536" height="0.38190476190475536" fill="#252525" />
<rect x="3.8740476190475537" y="3.8740476190475537" width="0.38190476190475536" height="0.38190476190475536" fill="#252525" />
<rect x="4.260952380952309" y="3.8740476190475537" width="0.38190476190475536" height="0.38190476190475536" fill="#252525" />
<rect x="4.647857142857064" y="3.8740476190475537" width="0.38190476190475536" height="0.38190476190475536" fill="#252525" />
<rect x="5.03476190476182" y="3.8740476190475537" width="0.38190476190475536" height="0.38190476190475536" fill="#252525" />
<rect x="0.005" y="4.260952380952309" width="0.38190476190475536" height="0.38190476190475536" fill="#E6E6E6" />
<rect x="0.39190476190475537" y="4.260952380952309" width="0.38190476190475536" height="0.38190476190475536" fill="#E6E6E6" />
<rect x="0.7788095238095107" y="4.260952380952309" width="0.38190476190475536" height="0.38190476190475536" fill="#E6E6E6" />
<rect x="1.165714285714266" y="4.260952380952309" width="0.38190476190475536" height="0.38190476190475536" fill="#252525" />
<rect x="1.5526190476190214" y="4.260952380952309" width="0.38190476190475536" height="0.38190476190475536" fill="#252525" />
<rect x="1.9395238095237768" y="4.260952380952309" width="0.38190476190475536" height="0.38190476190475536" fill="#252525" />
<rect x="2.326428571428532" y="4.260952380952309" width="0.38190476190475536" height="0.38190476190475536" fill="#E6E6E6" />
<rect x="2.7133333333332876" y="4.260952380952309" width="0.38190476190475536" height="0.38190476190475536" fill="#E6E6E6" />
<rect x="3.100238095238043" y="4.260952380952309" width="0.38190476190475536" height="0.38190476190475536" fill="#37D449" />
<rect x="3.487142857142798" y="4.260952380952309" width="0.38190476190475536" height="0.38190476190475536" fill="#252525" />
<rect x="3.8740476190475537" y="4.260952380952309" width="0.38190476190475536" height="0.38190476190475536" fill="#F012BE" />
<rect x="4.260952380952309" y="4.260952380952309" width="0.38190476190475536" height="0.38190476190475536" fill="#F012BE" />
<rect x="4.647857142857064" y="4.260952380952309" width="0.38190476190475536" height="0.38190476190475536" fill="#E6E6E6" />
<rect x="5.03476190476182" y="4.260952380952309" width="0.38190476190475536" height="0.38190476190475536" fill="#252525" />
<rect x="0.005" y="4.647857142857064" width="0.38190476190475536" height="0.38190476190475536" fill="#E6E6E6" />
<rect x="0.39190476190475537" y="4.647857142857064" width="0.38190476190475536" height="0.38190476190475536" fill="#E6E6E6" />
<rect x="0.7788095238095107" y="4.647857142857064" width="0.38190476190475536" height="0.38190476190475536" fill="#8D1D2C" />
<rect x="1.165714285714266" y="4.647857142857064" width="0.38190476190475536" height="0.38190476190475536" fill="#252525" />
<rect x="1.5526190476190214" y="4.647857142857064" width="0.38190476190475536" height="0.38190476190475536" fill="#252525" />
<rect x="1.9395238095237768" y="4.647857142857064" width="0.38190476190475536" height="0.38190476190475536" fill="#252525" />
<rect x="2.326428571428532" y="4.647857142857064" width="0.38190476190475536" height="0.38190476190475536" fill="#252525" />
<rect x="2.7133333333332876" y="4.647857142857064" width="0.38190476190475536" height="0.38190476190475536" fill="#252525" />
<rect x="3.100238095238043" y="4.647857142857064" width="0.38190476190475536" height="0.38190476190475536" fill="#252525" />
<rect x="3.487142857142798" y="4.647857142857064" width="0.38190476190475536" height="0.38190476190475536" fill="#252525" />
<rect x="3.8740476190475537" y="4.647857142857064" width="0.38190476190475536" height="0.38190476190475536" fill="#F012BE" />
<rect x="4.260952380952309" y="4.647857142857064" width="0.38190476190475536" height="0.38190476190475536" fill="#E6E6E6" />
<rect x="4.647857142857064" y="4.647857142857064" width="0.38190476190475536" height="0.38190476190475536" fill="#E6E6E6" />
<rect x="5.03476190476182" y="4.647857142857064" width="0.38190476190475536" height="0.38190476190475536" fill="#252525" />
<rect x="0.005" y="5.03476190476182" width="0.38190476190475536" height="0.38190476190475536" fill="#E6E6E6" />
<rect x="0.39190476190475537" y="5.03476190476182" width="0.38190476190475536" height="0.38190476190475536" fill="#8D1D2C" />
<rect x="0.7788095238095107" y="5.03476190476182" width="0.38190476190475536" height="0.38190476190475536" fill="#8D1D2C" />
<rect x="1.165714285714266" y="5.03476190476182" width="0.38190476190475536" height="0.38190476190475536" fill="#252525" />
<rect x="1.5526190476190214" y="5.03476190476182" width="0.38190476190475536" height="0.38190476190475536" fill="#252525" />
<rect x="1.9395238095237768" y="5.03476190476182" width="0.38190476190475536" height="0.38190476190475536" fill="#252525" />
<rect x="2.326428571428532" y="5.03476190476182" width="0.38190476190475536" height="0.38190476190475536" fill="#252525" />
<rect x="2.7133333333332876" y="5.03476190476182" width="0.38190476190475536" height="0.38190476190475536" fill="#252525" />
<rect x="3.100238095238043" y="5.03476190476182" width="0.38190476190475536" height="0.38190476190475536" fill="#252525" />
<rect x="3.487142857142798" y="5.03476190476182" width="0.38190476190475536" height="0.38190476190475536" fill="#252525" />
<rect x="3.8740476190475537" y="5.03476190476182" width="0.38190476190475536" height="0.38190476190475536" fill="#E6E6E6" />
<rect x="4.260952380952309" y="5.03476190476182" width="0.38190476190475536" height="0.38190476190475536" fill="#E6E6E6" />
<rect x="4.647857142857064" y="5.03476190476182" width="0.38190476190475536" height="0.38190476190475536" fill="#E6E6E6" />
<rect x="5.03476190476182" y="5.03476190476182" width="0.38190476190475536" height="0.38190476190475536" fill="#252525" />
<rect x="-0.02666666666666667" y="-0.02666666666666667" width="5.469999999999909" height="5.469999999999909" fill="none" stroke="#111111ff" stroke-width="0.08" />
<text x="5.4166666666665755" y="5.8854166666665755" font-size="0.375" fill="black" text-anchor="end" font-family="Anuphan">14x14</text>
<text x="-0.037500000000000006" y="5.8854166666665755" font-size="0.375" fill="black" text-anchor="start" font-family="Anuphan" font-weight="600">Input 1</text>
</g>
<g id="d1">
<rect x="0.005" y="0.005" width="0.3340625" height="0.3340625" fill="#252525" />
<rect x="0.3440625" y="0.005" width="0.3340625" height="0.3340625" fill="#252525" />
<rect x="0.683125" y="0.005" width="0.3340625" height="0.3340625" fill="#252525" />
<rect x="1.0221874999999998" y="0.005" width="0.3340625" height="0.3340625" fill="#252525" />
<rect x="1.3612499999999998" y="0.005" width="0.3340625" height="0.3340625" fill="#252525" />
<rect x="1.7003125" y="0.005" width="0.3340625" height="0.3340625" fill="#252525" />
<rect x="2.0393749999999997" y="0.005" width="0.3340625" height="0.3340625" fill="#252525" />
<rect x="2.3784375" y="0.005" width="0.3340625" height="0.3340625" fill="#252525" />
<rect x="2.7175" y="0.005" width="0.3340625" height="0.3340625" fill="#252525" />
<rect x="3.0565624999999996" y="0.005" width="0.3340625" height="0.3340625" fill="#252525" />
<rect x="3.395625" y="0.005" width="0.3340625" height="0.3340625" fill="#252525" />
<rect x="3.7346874999999997" y="0.005" width="0.3340625" height="0.3340625" fill="#E6E6E6" />
<rect x="4.0737499999999995" y="0.005" width="0.3340625" height="0.3340625" fill="#E6E6E6" />
<rect x="4.412812499999999" y="0.005" width="0.3340625" height="0.3340625" fill="#FFDC00" />
<rect x="0.005" y="0.3440625" width="0.3340625" height="0.3340625" fill="#252525" />
<rect x="0.3440625" y="0.3440625" width="0.3340625" height="0.3340625" fill="#E6E6E6" />
<rect x="0.683125" y="0.3440625" width="0.3340625" height="0.3340625" fill="#E6E6E6" />
<rect x="1.0221874999999998" y="0.3440625" width="0.3340625" height="0.3340625" fill="#E6E6E6" />
<rect x="1.3612499999999998" y="0.3440625" width="0.3340625" height="0.3340625" fill="#252525" />
<rect x="1.7003125" y="0.3440625" width="0.3340625" height="0.3340625" fill="#252525" />
<rect x="2.0393749999999997" y="0.3440625" width="0.3340625" height="0.3340625" fill="#252525" />
<rect x="2.3784375" y="0.3440625" width="0.3340625" height="0.3340625" fill="#252525" />
<rect x="2.7175" y="0.3440625" width="0.3340625" height="0.3340625" fill="#252525" />
<rect x="3.0565624999999996" y="0.3440625" width="0.3340625" height="0.3340625" fill="#252525" />
<rect x="3.395625" y="0.3440625" width="0.3340625" height="0.3340625" fill="#252525" />
<rect x="3.7346874999999997" y="0.3440625" width="0.3340625" height="0.3340625" fill="#E6E6E6" />
<rect x="4.0737499999999995" y="0.3440625" width="0.3340625" height="0.3340625" fill="#FFDC00" />
<rect x="4.412812499999999" y="0.3440625" width="0.3340625" height="0.3340625" fill="#FFDC00" />
<rect x="0.005" y="0.683125" width="0.3340625" height="0.3340625" fill="#252525" />
<rect x="0.3440625" y="0.683125" width="0.3340625" height="0.3340625" fill="#37D449" />
<rect x="0.683125" y="0.683125" width="0.3340625" height="0.3340625" fill="#E6E6E6" />
<rect x="1.0221874999999998" y="0.683125" width="0.3340625" height="0.3340625" fill="#E6E6E6" />
<rect x="1.3612499999999998" y="0.683125" width="0.3340625" height="0.3340625" fill="#252525" />
<rect x="1.7003125" y="0.683125" width="0.3340625" height="0.3340625" fill="#E6E6E6" />
<rect x="2.0393749999999997" y="0.683125" width="0.3340625" height="0.3340625" fill="#54D2EB" />
<rect x="2.3784375" y="0.683125" width="0.3340625" height="0.3340625" fill="#54D2EB" />
<rect x="2.7175" y="0.683125" width="0.3340625" height="0.3340625" fill="#252525" />
<rect x="3.0565624999999996" y="0.683125" width="0.3340625" height="0.3340625" fill="#252525" />
<rect x="3.395625" y="0.683125" width="0.3340625" height="0.3340625" fill="#252525" />
<rect x="3.7346874999999997" y="0.683125" width="0.3340625" height="0.3340625" fill="#E6E6E6" />
<rect x="4.0737499999999995" y="0.683125" width="0.3340625" height="0.3340625" fill="#E6E6E6" />
<rect x="4.412812499999999" y="0.683125" width="0.3340625" height="0.3340625" fill="#FFDC00" />
<rect x="0.005" y="1.0221874999999998" width="0.3340625" height="0.3340625" fill="#252525" />
<rect x="0.3440625" y="1.0221874999999998" width="0.3340625" height="0.3340625" fill="#37D449" />
<rect x="0.683125" y="1.0221874999999998" width="0.3340625" height="0.3340625" fill="#37D449" />
<rect x="1.0221874999999998" y="1.0221874999999998" width="0.3340625" height="0.3340625" fill="#E6E6E6" />
<rect x="1.3612499999999998" y="1.0221874999999998" width="0.3340625" height="0.3340625" fill="#252525" />
<rect x="1.7003125" y="1.0221874999999998" width="0.3340625" height="0.3340625" fill="#E6E6E6" />
<rect x="2.0393749999999997" y="1.0221874999999998" width="0.3340625" height="0.3340625" fill="#E6E6E6" />
<rect x="2.3784375" y="1.0221874999999998" width="0.3340625" height="0.3340625" fill="#54D2EB" />
<rect x="2.7175" y="1.0221874999999998" width="0.3340625" height="0.3340625" fill="#252525" />
<rect x="3.0565624999999996" y="1.0221874999999998" width="0.3340625" height="0.3340625" fill="#252525" />
<rect x="3.395625" y="1.0221874999999998" width="0.3340625" height="0.3340625" fill="#252525" />
<rect x="3.7346874999999997" y="1.0221874999999998" width="0.3340625" height="0.3340625" fill="#252525" />
<rect x="4.0737499999999995" y="1.0221874999999998" width="0.3340625" height="0.3340625" fill="#252525" />
<rect x="4.412812499999999" y="1.0221874999999998" width="0.3340625" height="0.3340625" fill="#252525" />
<rect x="0.005" y="1.3612499999999998" width="0.3340625" height="0.3340625" fill="#252525" />
<rect x="0.3440625" y="1.3612499999999998" width="0.3340625" height="0.3340625" fill="#252525" />
<rect x="0.683125" y="1.3612499999999998" width="0.3340625" height="0.3340625" fill="#252525" />
<rect x="1.0221874999999998" y="1.3612499999999998" width="0.3340625" height="0.3340625" fill="#252525" />
<rect x="1.3612499999999998" y="1.3612499999999998" width="0.3340625" height="0.3340625" fill="#252525" />
<rect x="1.7003125" y="1.3612499999999998" width="0.3340625" height="0.3340625" fill="#E6E6E6" />
<rect x="2.0393749999999997" y="1.3612499999999998" width="0.3340625" height="0.3340625" fill="#E6E6E6" />
<rect x="2.3784375" y="1.3612499999999998" width="0.3340625" height="0.3340625" fill="#E6E6E6" />
<rect x="2.7175" y="1.3612499999999998" width="0.3340625" height="0.3340625" fill="#252525" />
<rect x="3.0565624999999996" y="1.3612499999999998" width="0.3340625" height="0.3340625" fill="#252525" />
<rect x="3.395625" y="1.3612499999999998" width="0.3340625" height="0.3340625" fill="#252525" />
<rect x="3.7346874999999997" y="1.3612499999999998" width="0.3340625" height="0.3340625" fill="#252525" />
<rect x="4.0737499999999995" y="1.3612499999999998" width="0.3340625" height="0.3340625" fill="#252525" />
<rect x="4.412812499999999" y="1.3612499999999998" width="0.3340625" height="0.3340625" fill="#252525" />
<rect x="0.005" y="1.7003125" width="0.3340625" height="0.3340625" fill="#252525" />
<rect x="0.3440625" y="1.7003125" width="0.3340625" height="0.3340625" fill="#252525" />
<rect x="0.683125" y="1.7003125" width="0.3340625" height="0.3340625" fill="#252525" />
<rect x="1.0221874999999998" y="1.7003125" width="0.3340625" height="0.3340625" fill="#252525" />
<rect x="1.3612499999999998" y="1.7003125" width="0.3340625" height="0.3340625" fill="#252525" />
<rect x="1.7003125" y="1.7003125" width="0.3340625" height="0.3340625" fill="#252525" />
<rect x="2.0393749999999997" y="1.7003125" width="0.3340625" height="0.3340625" fill="#252525" />
<rect x="2.3784375" y="1.7003125" width="0.3340625" height="0.3340625" fill="#252525" />
<rect x="2.7175" y="1.7003125" width="0.3340625" height="0.3340625" fill="#252525" />
<rect x="3.0565624999999996" y="1.7003125" width="0.3340625" height="0.3340625" fill="#252525" />
<rect x="3.395625" y="1.7003125" width="0.3340625" height="0.3340625" fill="#E6E6E6" />
<rect x="3.7346874999999997" y="1.7003125" width="0.3340625" height="0.3340625" fill="#E6E6E6" />
<rect x="4.0737499999999995" y="1.7003125" width="0.3340625" height="0.3340625" fill="#E6E6E6" />
<rect x="4.412812499999999" y="1.7003125" width="0.3340625" height="0.3340625" fill="#252525" />
<rect x="0.005" y="2.0393749999999997" width="0.3340625" height="0.3340625" fill="#252525" />
<rect x="0.3440625" y="2.0393749999999997" width="0.3340625" height="0.3340625" fill="#252525" />
<rect x="0.683125" y="2.0393749999999997" width="0.3340625" height="0.3340625" fill="#252525" />
<rect x="1.0221874999999998" y="2.0393749999999997" width="0.3340625" height="0.3340625" fill="#252525" />
<rect x="1.3612499999999998" y="2.0393749999999997" width="0.3340625" height="0.3340625" fill="#252525" />
<rect x="1.7003125" y="2.0393749999999997" width="0.3340625" height="0.3340625" fill="#252525" />
<rect x="2.0393749999999997" y="2.0393749999999997" width="0.3340625" height="0.3340625" fill="#252525" />
<rect x="2.3784375" y="2.0393749999999997" width="0.3340625" height="0.3340625" fill="#252525" />
<rect x="2.7175" y="2.0393749999999997" width="0.3340625" height="0.3340625" fill="#252525" />
<rect x="3.0565624999999996" y="2.0393749999999997" width="0.3340625" height="0.3340625" fill="#252525" />
<rect x="3.395625" y="2.0393749999999997" width="0.3340625" height="0.3340625" fill="#E6E6E6" />
<rect x="3.7346874999999997" y="2.0393749999999997" width="0.3340625" height="0.3340625" fill="#E6E6E6" />
<rect x="4.0737499999999995" y="2.0393749999999997" width="0.3340625" height="0.3340625" fill="#8D1D2C" />
<rect x="4.412812499999999" y="2.0393749999999997" width="0.3340625" height="0.3340625" fill="#252525" />
<rect x="0.005" y="2.3784375" width="0.3340625" height="0.3340625" fill="#252525" />
<rect x="0.3440625" y="2.3784375" width="0.3340625" height="0.3340625" fill="#252525" />
<rect x="0.683125" y="2.3784375" width="0.3340625" height="0.3340625" fill="#252525" />
<rect x="1.0221874999999998" y="2.3784375" width="0.3340625" height="0.3340625" fill="#252525" />
<rect x="1.3612499999999998" y="2.3784375" width="0.3340625" height="0.3340625" fill="#252525" />
<rect x="1.7003125" y="2.3784375" width="0.3340625" height="0.3340625" fill="#252525" />
<rect x="2.0393749999999997" y="2.3784375" width="0.3340625" height="0.3340625" fill="#252525" />
<rect x="2.3784375" y="2.3784375" width="0.3340625" height="0.3340625" fill="#252525" />
<rect x="2.7175" y="2.3784375" width="0.3340625" height="0.3340625" fill="#252525" />
<rect x="3.0565624999999996" y="2.3784375" width="0.3340625" height="0.3340625" fill="#252525" />
<rect x="3.395625" y="2.3784375" width="0.3340625" height="0.3340625" fill="#E6E6E6" />
<rect x="3.7346874999999997" y="2.3784375" width="0.3340625" height="0.3340625" fill="#8D1D2C" />
<rect x="4.0737499999999995" y="2.3784375" width="0.3340625" height="0.3340625" fill="#8D1D2C" />
<rect x="4.412812499999999" y="2.3784375" width="0.3340625" height="0.3340625" fill="#252525" />
<rect x="0.005" y="2.7175" width="0.3340625" height="0.3340625" fill="#252525" />
<rect x="0.3440625" y="2.7175" width="0.3340625" height="0.3340625" fill="#0074D9" />
<rect x="0.683125" y="2.7175" width="0.3340625" height="0.3340625" fill="#0074D9" />
<rect x="1.0221874999999998" y="2.7175" width="0.3340625" height="0.3340625" fill="#0074D9" />
<rect x="1.3612499999999998" y="2.7175" width="0.3340625" height="0.3340625" fill="#252525" />
<rect x="1.7003125" y="2.7175" width="0.3340625" height="0.3340625" fill="#252525" />
<rect x="2.0393749999999997" y="2.7175" width="0.3340625" height="0.3340625" fill="#E6E6E6" />
<rect x="2.3784375" y="2.7175" width="0.3340625" height="0.3340625" fill="#E6E6E6" />
<rect x="2.7175" y="2.7175" width="0.3340625" height="0.3340625" fill="#E6E6E6" />
<rect x="3.0565624999999996" y="2.7175" width="0.3340625" height="0.3340625" fill="#252525" />
<rect x="3.395625" y="2.7175" width="0.3340625" height="0.3340625" fill="#252525" />
<rect x="3.7346874999999997" y="2.7175" width="0.3340625" height="0.3340625" fill="#252525" />
<rect x="4.0737499999999995" y="2.7175" width="0.3340625" height="0.3340625" fill="#252525" />
<rect x="4.412812499999999" y="2.7175" width="0.3340625" height="0.3340625" fill="#252525" />
<rect x="0.005" y="3.0565624999999996" width="0.3340625" height="0.3340625" fill="#252525" />
<rect x="0.3440625" y="3.0565624999999996" width="0.3340625" height="0.3340625" fill="#E6E6E6" />
<rect x="0.683125" y="3.0565624999999996" width="0.3340625" height="0.3340625" fill="#0074D9" />
<rect x="1.0221874999999998" y="3.0565624999999996" width="0.3340625" height="0.3340625" fill="#E6E6E6" />
<rect x="1.3612499999999998" y="3.0565624999999996" width="0.3340625" height="0.3340625" fill="#252525" />
<rect x="1.7003125" y="3.0565624999999996" width="0.3340625" height="0.3340625" fill="#252525" />
<rect x="2.0393749999999997" y="3.0565624999999996" width="0.3340625" height="0.3340625" fill="#E6E6E6" />
<rect x="2.3784375" y="3.0565624999999996" width="0.3340625" height="0.3340625" fill="#E6E6E6" />
<rect x="2.7175" y="3.0565624999999996" width="0.3340625" height="0.3340625" fill="#E6E6E6" />
<rect x="3.0565624999999996" y="3.0565624999999996" width="0.3340625" height="0.3340625" fill="#252525" />
<rect x="3.395625" y="3.0565624999999996" width="0.3340625" height="0.3340625" fill="#F012BE" />
<rect x="3.7346874999999997" y="3.0565624999999996" width="0.3340625" height="0.3340625" fill="#E6E6E6" />
<rect x="4.0737499999999995" y="3.0565624999999996" width="0.3340625" height="0.3340625" fill="#E6E6E6" />
<rect x="4.412812499999999" y="3.0565624999999996" width="0.3340625" height="0.3340625" fill="#252525" />
<rect x="0.005" y="3.395625" width="0.3340625" height="0.3340625" fill="#252525" />
<rect x="0.3440625" y="3.395625" width="0.3340625" height="0.3340625" fill="#E6E6E6" />
<rect x="0.683125" y="3.395625" width="0.3340625" height="0.3340625" fill="#E6E6E6" />
<rect x="1.0221874999999998" y="3.395625" width="0.3340625" height="0.3340625" fill="#E6E6E6" />
<rect x="1.3612499999999998" y="3.395625" width="0.3340625" height="0.3340625" fill="#252525" />
<rect x="1.7003125" y="3.395625" width="0.3340625" height="0.3340625" fill="#252525" />
<rect x="2.0393749999999997" y="3.395625" width="0.3340625" height="0.3340625" fill="#E6E6E6" />
<rect x="2.3784375" y="3.395625" width="0.3340625" height="0.3340625" fill="#E6E6E6" />
<rect x="2.7175" y="3.395625" width="0.3340625" height="0.3340625" fill="#E6E6E6" />
<rect x="3.0565624999999996" y="3.395625" width="0.3340625" height="0.3340625" fill="#252525" />
<rect x="3.395625" y="3.395625" width="0.3340625" height="0.3340625" fill="#F012BE" />
<rect x="3.7346874999999997" y="3.395625" width="0.3340625" height="0.3340625" fill="#F012BE" />
<rect x="4.0737499999999995" y="3.395625" width="0.3340625" height="0.3340625" fill="#E6E6E6" />
<rect x="4.412812499999999" y="3.395625" width="0.3340625" height="0.3340625" fill="#252525" />
<rect x="0.005" y="3.7346874999999997" width="0.3340625" height="0.3340625" fill="#252525" />
<rect x="0.3440625" y="3.7346874999999997" width="0.3340625" height="0.3340625" fill="#252525" />
<rect x="0.683125" y="3.7346874999999997" width="0.3340625" height="0.3340625" fill="#252525" />
<rect x="1.0221874999999998" y="3.7346874999999997" width="0.3340625" height="0.3340625" fill="#252525" />
<rect x="1.3612499999999998" y="3.7346874999999997" width="0.3340625" height="0.3340625" fill="#252525" />
<rect x="1.7003125" y="3.7346874999999997" width="0.3340625" height="0.3340625" fill="#252525" />
<rect x="2.0393749999999997" y="3.7346874999999997" width="0.3340625" height="0.3340625" fill="#252525" />
<rect x="2.3784375" y="3.7346874999999997" width="0.3340625" height="0.3340625" fill="#252525" />
<rect x="2.7175" y="3.7346874999999997" width="0.3340625" height="0.3340625" fill="#252525" />
<rect x="3.0565624999999996" y="3.7346874999999997" width="0.3340625" height="0.3340625" fill="#252525" />
<rect x="3.395625" y="3.7346874999999997" width="0.3340625" height="0.3340625" fill="#F012BE" />
<rect x="3.7346874999999997" y="3.7346874999999997" width="0.3340625" height="0.3340625" fill="#E6E6E6" />
<rect x="4.0737499999999995" y="3.7346874999999997" width="0.3340625" height="0.3340625" fill="#E6E6E6" />
<rect x="4.412812499999999" y="3.7346874999999997" width="0.3340625" height="0.3340625" fill="#252525" />
<rect x="0.005" y="4.0737499999999995" width="0.3340625" height="0.3340625" fill="#252525" />
<rect x="0.3440625" y="4.0737499999999995" width="0.3340625" height="0.3340625" fill="#252525" />
<rect x="0.683125" y="4.0737499999999995" width="0.3340625" height="0.3340625" fill="#252525" />
<rect x="1.0221874999999998" y="4.0737499999999995" width="0.3340625" height="0.3340625" fill="#252525" />
<rect x="1.3612499999999998" y="4.0737499999999995" width="0.3340625" height="0.3340625" fill="#FF871E" />
<rect x="1.7003125" y="4.0737499999999995" width="0.3340625" height="0.3340625" fill="#FF871E" />
<rect x="2.0393749999999997" y="4.0737499999999995" width="0.3340625" height="0.3340625" fill="#E6E6E6" />
<rect x="2.3784375" y="4.0737499999999995" width="0.3340625" height="0.3340625" fill="#252525" />
<rect x="2.7175" y="4.0737499999999995" width="0.3340625" height="0.3340625" fill="#252525" />
<rect x="3.0565624999999996" y="4.0737499999999995" width="0.3340625" height="0.3340625" fill="#252525" />
<rect x="3.395625" y="4.0737499999999995" width="0.3340625" height="0.3340625" fill="#252525" />
<rect x="3.7346874999999997" y="4.0737499999999995" width="0.3340625" height="0.3340625" fill="#252525" />
<rect x="4.0737499999999995" y="4.0737499999999995" width="0.3340625" height="0.3340625" fill="#252525" />
<rect x="4.412812499999999" y="4.0737499999999995" width="0.3340625" height="0.3340625" fill="#252525" />
<rect x="0.005" y="4.412812499999999" width="0.3340625" height="0.3340625" fill="#252525" />
<rect x="0.3440625" y="4.412812499999999" width="0.3340625" height="0.3340625" fill="#252525" />
<rect x="0.683125" y="4.412812499999999" width="0.3340625" height="0.3340625" fill="#252525" />
<rect x="1.0221874999999998" y="4.412812499999999" width="0.3340625" height="0.3340625" fill="#252525" />
<rect x="1.3612499999999998" y="4.412812499999999" width="0.3340625" height="0.3340625" fill="#FF871E" />
<rect x="1.7003125" y="4.412812499999999" width="0.3340625" height="0.3340625" fill="#E6E6E6" />
<rect x="2.0393749999999997" y="4.412812499999999" width="0.3340625" height="0.3340625" fill="#E6E6E6" />
<rect x="2.3784375" y="4.412812499999999" width="0.3340625" height="0.3340625" fill="#252525" />
<rect x="2.7175" y="4.412812499999999" width="0.3340625" height="0.3340625" fill="#252525" />
<rect x="3.0565624999999996" y="4.412812499999999" width="0.3340625" height="0.3340625" fill="#E6E6E6" />
<rect x="3.395625" y="4.412812499999999" width="0.3340625" height="0.3340625" fill="#E6E6E6" />
<rect x="3.7346874999999997" y="4.412812499999999" width="0.3340625" height="0.3340625" fill="#E6E6E6" />
<rect x="4.0737499999999995" y="4.412812499999999" width="0.3340625" height="0.3340625" fill="#252525" />
<rect x="4.412812499999999" y="4.412812499999999" width="0.3340625" height="0.3340625" fill="#252525" />
<rect x="0.005" y="4.751875" width="0.3340625" height="0.3340625" fill="#252525" />
<rect x="0.3440625" y="4.751875" width="0.3340625" height="0.3340625" fill="#252525" />
<rect x="0.683125" y="4.751875" width="0.3340625" height="0.3340625" fill="#252525" />
<rect x="1.0221874999999998" y="4.751875" width="0.3340625" height="0.3340625" fill="#252525" />
<rect x="1.3612499999999998" y="4.751875" width="0.3340625" height="0.3340625" fill="#E6E6E6" />
<rect x="1.7003125" y="4.751875" width="0.3340625" height="0.3340625" fill="#E6E6E6" />
<rect x="2.0393749999999997" y="4.751875" width="0.3340625" height="0.3340625" fill="#E6E6E6" />
<rect x="2.3784375" y="4.751875" width="0.3340625" height="0.3340625" fill="#252525" />
<rect x="2.7175" y="4.751875" width="0.3340625" height="0.3340625" fill="#252525" />
<rect x="3.0565624999999996" y="4.751875" width="0.3340625" height="0.3340625" fill="#E6E6E6" />
<rect x="3.395625" y="4.751875" width="0.3340625" height="0.3340625" fill="#FF4136" />
<rect x="3.7346874999999997" y="4.751875" width="0.3340625" height="0.3340625" fill="#E6E6E6" />
<rect x="4.0737499999999995" y="4.751875" width="0.3340625" height="0.3340625" fill="#252525" />
<rect x="4.412812499999999" y="4.751875" width="0.3340625" height="0.3340625" fill="#252525" />
<rect x="0.005" y="5.0909375" width="0.3340625" height="0.3340625" fill="#252525" />
<rect x="0.3440625" y="5.0909375" width="0.3340625" height="0.3340625" fill="#252525" />
<rect x="0.683125" y="5.0909375" width="0.3340625" height="0.3340625" fill="#252525" />
<rect x="1.0221874999999998" y="5.0909375" width="0.3340625" height="0.3340625" fill="#252525" />
<rect x="1.3612499999999998" y="5.0909375" width="0.3340625" height="0.3340625" fill="#252525" />
<rect x="1.7003125" y="5.0909375" width="0.3340625" height="0.3340625" fill="#252525" />
<rect x="2.0393749999999997" y="5.0909375" width="0.3340625" height="0.3340625" fill="#252525" />
<rect x="2.3784375" y="5.0909375" width="0.3340625" height="0.3340625" fill="#252525" />
<rect x="2.7175" y="5.0909375" width="0.3340625" height="0.3340625" fill="#252525" />
<rect x="3.0565624999999996" y="5.0909375" width="0.3340625" height="0.3340625" fill="#FF4136" />
<rect x="3.395625" y="5.0909375" width="0.3340625" height="0.3340625" fill="#FF4136" />
<rect x="3.7346874999999997" y="5.0909375" width="0.3340625" height="0.3340625" fill="#FF4136" />
<rect x="4.0737499999999995" y="5.0909375" width="0.3340625" height="0.3340625" fill="#252525" />
<rect x="4.412812499999999" y="5.0909375" width="0.3340625" height="0.3340625" fill="#252525" />
<rect x="-0.02666666666666667" y="-0.02666666666666667" width="4.800208333333334" height="5.4783333333333335" fill="none" stroke="#111111ff" stroke-width="0.08" />
<text x="4.746875" y="5.89375" font-size="0.375" fill="black" text-anchor="end" font-family="Anuphan">14x16</text>
<text x="-0.037500000000000006" y="5.89375" font-size="0.375" fill="black" text-anchor="start" font-family="Anuphan" font-weight="600">Input 2</text>
</g>
<g id="d2">
<rect x="0.005" y="0.005" width="0.3340625" height="0.3340625" fill="#252525" />
<rect x="0.3440625" y="0.005" width="0.3340625" height="0.3340625" fill="#252525" />
<rect x="0.683125" y="0.005" width="0.3340625" height="0.3340625" fill="#252525" />
<rect x="1.0221874999999998" y="0.005" width="0.3340625" height="0.3340625" fill="#252525" />
<rect x="1.3612499999999998" y="0.005" width="0.3340625" height="0.3340625" fill="#252525" />
<rect x="1.7003125" y="0.005" width="0.3340625" height="0.3340625" fill="#252525" />
<rect x="2.0393749999999997" y="0.005" width="0.3340625" height="0.3340625" fill="#252525" />
<rect x="2.3784375" y="0.005" width="0.3340625" height="0.3340625" fill="#252525" />
<rect x="2.7175" y="0.005" width="0.3340625" height="0.3340625" fill="#252525" />
<rect x="3.0565624999999996" y="0.005" width="0.3340625" height="0.3340625" fill="#252525" />
<rect x="3.395625" y="0.005" width="0.3340625" height="0.3340625" fill="#E6E6E6" />
<rect x="3.7346874999999997" y="0.005" width="0.3340625" height="0.3340625" fill="#E6E6E6" />
<rect x="4.0737499999999995" y="0.005" width="0.3340625" height="0.3340625" fill="#E6E6E6" />
<rect x="4.412812499999999" y="0.005" width="0.3340625" height="0.3340625" fill="#252525" />
<rect x="4.751875" y="0.005" width="0.3340625" height="0.3340625" fill="#252525" />
<rect x="0.005" y="0.3440625" width="0.3340625" height="0.3340625" fill="#252525" />
<rect x="0.3440625" y="0.3440625" width="0.3340625" height="0.3340625" fill="#0074D9" />
<rect x="0.683125" y="0.3440625" width="0.3340625" height="0.3340625" fill="#E6E6E6" />
<rect x="1.0221874999999998" y="0.3440625" width="0.3340625" height="0.3340625" fill="#E6E6E6" />
<rect x="1.3612499999999998" y="0.3440625" width="0.3340625" height="0.3340625" fill="#252525" />
<rect x="1.7003125" y="0.3440625" width="0.3340625" height="0.3340625" fill="#252525" />
<rect x="2.0393749999999997" y="0.3440625" width="0.3340625" height="0.3340625" fill="#252525" />
<rect x="2.3784375" y="0.3440625" width="0.3340625" height="0.3340625" fill="#252525" />
<rect x="2.7175" y="0.3440625" width="0.3340625" height="0.3340625" fill="#252525" />
<rect x="3.0565624999999996" y="0.3440625" width="0.3340625" height="0.3340625" fill="#252525" />
<rect x="3.395625" y="0.3440625" width="0.3340625" height="0.3340625" fill="#F012BE" />
<rect x="3.7346874999999997" y="0.3440625" width="0.3340625" height="0.3340625" fill="#E6E6E6" />
<rect x="4.0737499999999995" y="0.3440625" width="0.3340625" height="0.3340625" fill="#E6E6E6" />
<rect x="4.412812499999999" y="0.3440625" width="0.3340625" height="0.3340625" fill="#252525" />
<rect x="4.751875" y="0.3440625" width="0.3340625" height="0.3340625" fill="#252525" />
<rect x="0.005" y="0.683125" width="0.3340625" height="0.3340625" fill="#252525" />
<rect x="0.3440625" y="0.683125" width="0.3340625" height="0.3340625" fill="#0074D9" />
<rect x="0.683125" y="0.683125" width="0.3340625" height="0.3340625" fill="#0074D9" />
<rect x="1.0221874999999998" y="0.683125" width="0.3340625" height="0.3340625" fill="#E6E6E6" />
<rect x="1.3612499999999998" y="0.683125" width="0.3340625" height="0.3340625" fill="#252525" />
<rect x="1.7003125" y="0.683125" width="0.3340625" height="0.3340625" fill="#FF4136" />
<rect x="2.0393749999999997" y="0.683125" width="0.3340625" height="0.3340625" fill="#FF4136" />
<rect x="2.3784375" y="0.683125" width="0.3340625" height="0.3340625" fill="#FF4136" />
<rect x="2.7175" y="0.683125" width="0.3340625" height="0.3340625" fill="#252525" />
<rect x="3.0565624999999996" y="0.683125" width="0.3340625" height="0.3340625" fill="#252525" />
<rect x="3.395625" y="0.683125" width="0.3340625" height="0.3340625" fill="#F012BE" />
<rect x="3.7346874999999997" y="0.683125" width="0.3340625" height="0.3340625" fill="#F012BE" />
<rect x="4.0737499999999995" y="0.683125" width="0.3340625" height="0.3340625" fill="#E6E6E6" />
<rect x="4.412812499999999" y="0.683125" width="0.3340625" height="0.3340625" fill="#252525" />
<rect x="4.751875" y="0.683125" width="0.3340625" height="0.3340625" fill="#252525" />
<rect x="0.005" y="1.0221874999999998" width="0.3340625" height="0.3340625" fill="#252525" />
<rect x="0.3440625" y="1.0221874999999998" width="0.3340625" height="0.3340625" fill="#0074D9" />
<rect x="0.683125" y="1.0221874999999998" width="0.3340625" height="0.3340625" fill="#E6E6E6" />
<rect x="1.0221874999999998" y="1.0221874999999998" width="0.3340625" height="0.3340625" fill="#E6E6E6" />
<rect x="1.3612499999999998" y="1.0221874999999998" width="0.3340625" height="0.3340625" fill="#252525" />
<rect x="1.7003125" y="1.0221874999999998" width="0.3340625" height="0.3340625" fill="#E6E6E6" />
<rect x="2.0393749999999997" y="1.0221874999999998" width="0.3340625" height="0.3340625" fill="#FF4136" />
<rect x="2.3784375" y="1.0221874999999998" width="0.3340625" height="0.3340625" fill="#E6E6E6" />
<rect x="2.7175" y="1.0221874999999998" width="0.3340625" height="0.3340625" fill="#252525" />
<rect x="3.0565624999999996" y="1.0221874999999998" width="0.3340625" height="0.3340625" fill="#252525" />
<rect x="3.395625" y="1.0221874999999998" width="0.3340625" height="0.3340625" fill="#252525" />
<rect x="3.7346874999999997" y="1.0221874999999998" width="0.3340625" height="0.3340625" fill="#252525" />
<rect x="4.0737499999999995" y="1.0221874999999998" width="0.3340625" height="0.3340625" fill="#252525" />
<rect x="4.412812499999999" y="1.0221874999999998" width="0.3340625" height="0.3340625" fill="#252525" />
<rect x="4.751875" y="1.0221874999999998" width="0.3340625" height="0.3340625" fill="#252525" />
<rect x="0.005" y="1.3612499999999998" width="0.3340625" height="0.3340625" fill="#252525" />
<rect x="0.3440625" y="1.3612499999999998" width="0.3340625" height="0.3340625" fill="#252525" />
<rect x="0.683125" y="1.3612499999999998" width="0.3340625" height="0.3340625" fill="#252525" />
<rect x="1.0221874999999998" y="1.3612499999999998" width="0.3340625" height="0.3340625" fill="#252525" />
<rect x="1.3612499999999998" y="1.3612499999999998" width="0.3340625" height="0.3340625" fill="#252525" />
<rect x="1.7003125" y="1.3612499999999998" width="0.3340625" height="0.3340625" fill="#E6E6E6" />
<rect x="2.0393749999999997" y="1.3612499999999998" width="0.3340625" height="0.3340625" fill="#E6E6E6" />
<rect x="2.3784375" y="1.3612499999999998" width="0.3340625" height="0.3340625" fill="#E6E6E6" />
<rect x="2.7175" y="1.3612499999999998" width="0.3340625" height="0.3340625" fill="#252525" />
<rect x="3.0565624999999996" y="1.3612499999999998" width="0.3340625" height="0.3340625" fill="#252525" />
<rect x="3.395625" y="1.3612499999999998" width="0.3340625" height="0.3340625" fill="#252525" />
<rect x="3.7346874999999997" y="1.3612499999999998" width="0.3340625" height="0.3340625" fill="#252525" />
<rect x="4.0737499999999995" y="1.3612499999999998" width="0.3340625" height="0.3340625" fill="#252525" />
<rect x="4.412812499999999" y="1.3612499999999998" width="0.3340625" height="0.3340625" fill="#252525" />
<rect x="4.751875" y="1.3612499999999998" width="0.3340625" height="0.3340625" fill="#252525" />
<rect x="0.005" y="1.7003125" width="0.3340625" height="0.3340625" fill="#252525" />
<rect x="0.3440625" y="1.7003125" width="0.3340625" height="0.3340625" fill="#252525" />
<rect x="0.683125" y="1.7003125" width="0.3340625" height="0.3340625" fill="#252525" />
<rect x="1.0221874999999998" y="1.7003125" width="0.3340625" height="0.3340625" fill="#252525" />
<rect x="1.3612499999999998" y="1.7003125" width="0.3340625" height="0.3340625" fill="#252525" />
<rect x="1.7003125" y="1.7003125" width="0.3340625" height="0.3340625" fill="#252525" />
<rect x="2.0393749999999997" y="1.7003125" width="0.3340625" height="0.3340625" fill="#252525" />
<rect x="2.3784375" y="1.7003125" width="0.3340625" height="0.3340625" fill="#252525" />
<rect x="2.7175" y="1.7003125" width="0.3340625" height="0.3340625" fill="#252525" />
<rect x="3.0565624999999996" y="1.7003125" width="0.3340625" height="0.3340625" fill="#252525" />
<rect x="3.395625" y="1.7003125" width="0.3340625" height="0.3340625" fill="#E6E6E6" />
<rect x="3.7346874999999997" y="1.7003125" width="0.3340625" height="0.3340625" fill="#E6E6E6" />
<rect x="4.0737499999999995" y="1.7003125" width="0.3340625" height="0.3340625" fill="#E6E6E6" />
<rect x="4.412812499999999" y="1.7003125" width="0.3340625" height="0.3340625" fill="#252525" />
<rect x="4.751875" y="1.7003125" width="0.3340625" height="0.3340625" fill="#252525" />
<rect x="0.005" y="2.0393749999999997" width="0.3340625" height="0.3340625" fill="#252525" />
<rect x="0.3440625" y="2.0393749999999997" width="0.3340625" height="0.3340625" fill="#252525" />
<rect x="0.683125" y="2.0393749999999997" width="0.3340625" height="0.3340625" fill="#E6E6E6" />
<rect x="1.0221874999999998" y="2.0393749999999997" width="0.3340625" height="0.3340625" fill="#E6E6E6" />
<rect x="1.3612499999999998" y="2.0393749999999997" width="0.3340625" height="0.3340625" fill="#E6E6E6" />
<rect x="1.7003125" y="2.0393749999999997" width="0.3340625" height="0.3340625" fill="#252525" />
<rect x="2.0393749999999997" y="2.0393749999999997" width="0.3340625" height="0.3340625" fill="#252525" />
<rect x="2.3784375" y="2.0393749999999997" width="0.3340625" height="0.3340625" fill="#252525" />
<rect x="2.7175" y="2.0393749999999997" width="0.3340625" height="0.3340625" fill="#252525" />
<rect x="3.0565624999999996" y="2.0393749999999997" width="0.3340625" height="0.3340625" fill="#252525" />
<rect x="3.395625" y="2.0393749999999997" width="0.3340625" height="0.3340625" fill="#E6E6E6" />
<rect x="3.7346874999999997" y="2.0393749999999997" width="0.3340625" height="0.3340625" fill="#E6E6E6" />
<rect x="4.0737499999999995" y="2.0393749999999997" width="0.3340625" height="0.3340625" fill="#E6E6E6" />
<rect x="4.412812499999999" y="2.0393749999999997" width="0.3340625" height="0.3340625" fill="#252525" />
<rect x="4.751875" y="2.0393749999999997" width="0.3340625" height="0.3340625" fill="#252525" />
<rect x="0.005" y="2.3784375" width="0.3340625" height="0.3340625" fill="#252525" />
<rect x="0.3440625" y="2.3784375" width="0.3340625" height="0.3340625" fill="#252525" />
<rect x="0.683125" y="2.3784375" width="0.3340625" height="0.3340625" fill="#E6E6E6" />
<rect x="1.0221874999999998" y="2.3784375" width="0.3340625" height="0.3340625" fill="#54D2EB" />
<rect x="1.3612499999999998" y="2.3784375" width="0.3340625" height="0.3340625" fill="#E6E6E6" />
<rect x="1.7003125" y="2.3784375" width="0.3340625" height="0.3340625" fill="#252525" />
<rect x="2.0393749999999997" y="2.3784375" width="0.3340625" height="0.3340625" fill="#E6E6E6" />
<rect x="2.3784375" y="2.3784375" width="0.3340625" height="0.3340625" fill="#E6E6E6" />
<rect x="2.7175" y="2.3784375" width="0.3340625" height="0.3340625" fill="#0074D9" />
<rect x="3.0565624999999996" y="2.3784375" width="0.3340625" height="0.3340625" fill="#252525" />
<rect x="3.395625" y="2.3784375" width="0.3340625" height="0.3340625" fill="#E6E6E6" />
<rect x="3.7346874999999997" y="2.3784375" width="0.3340625" height="0.3340625" fill="#E6E6E6" />
<rect x="4.0737499999999995" y="2.3784375" width="0.3340625" height="0.3340625" fill="#E6E6E6" />
<rect x="4.412812499999999" y="2.3784375" width="0.3340625" height="0.3340625" fill="#252525" />
<rect x="4.751875" y="2.3784375" width="0.3340625" height="0.3340625" fill="#252525" />
<rect x="0.005" y="2.7175" width="0.3340625" height="0.3340625" fill="#252525" />
<rect x="0.3440625" y="2.7175" width="0.3340625" height="0.3340625" fill="#252525" />
<rect x="0.683125" y="2.7175" width="0.3340625" height="0.3340625" fill="#54D2EB" />
<rect x="1.0221874999999998" y="2.7175" width="0.3340625" height="0.3340625" fill="#54D2EB" />
<rect x="1.3612499999999998" y="2.7175" width="0.3340625" height="0.3340625" fill="#54D2EB" />
<rect x="1.7003125" y="2.7175" width="0.3340625" height="0.3340625" fill="#252525" />
<rect x="2.0393749999999997" y="2.7175" width="0.3340625" height="0.3340625" fill="#E6E6E6" />
<rect x="2.3784375" y="2.7175" width="0.3340625" height="0.3340625" fill="#0074D9" />
<rect x="2.7175" y="2.7175" width="0.3340625" height="0.3340625" fill="#0074D9" />
<rect x="3.0565624999999996" y="2.7175" width="0.3340625" height="0.3340625" fill="#252525" />
<rect x="3.395625" y="2.7175" width="0.3340625" height="0.3340625" fill="#252525" />
<rect x="3.7346874999999997" y="2.7175" width="0.3340625" height="0.3340625" fill="#252525" />
<rect x="4.0737499999999995" y="2.7175" width="0.3340625" height="0.3340625" fill="#252525" />
<rect x="4.412812499999999" y="2.7175" width="0.3340625" height="0.3340625" fill="#252525" />
<rect x="4.751875" y="2.7175" width="0.3340625" height="0.3340625" fill="#252525" />
<rect x="0.005" y="3.0565624999999996" width="0.3340625" height="0.3340625" fill="#252525" />
<rect x="0.3440625" y="3.0565624999999996" width="0.3340625" height="0.3340625" fill="#252525" />
<rect x="0.683125" y="3.0565624999999996" width="0.3340625" height="0.3340625" fill="#252525" />
<rect x="1.0221874999999998" y="3.0565624999999996" width="0.3340625" height="0.3340625" fill="#252525" />
<rect x="1.3612499999999998" y="3.0565624999999996" width="0.3340625" height="0.3340625" fill="#252525" />
<rect x="1.7003125" y="3.0565624999999996" width="0.3340625" height="0.3340625" fill="#252525" />
<rect x="2.0393749999999997" y="3.0565624999999996" width="0.3340625" height="0.3340625" fill="#E6E6E6" />
<rect x="2.3784375" y="3.0565624999999996" width="0.3340625" height="0.3340625" fill="#E6E6E6" />
<rect x="2.7175" y="3.0565624999999996" width="0.3340625" height="0.3340625" fill="#0074D9" />
<rect x="3.0565624999999996" y="3.0565624999999996" width="0.3340625" height="0.3340625" fill="#252525" />
<rect x="3.395625" y="3.0565624999999996" width="0.3340625" height="0.3340625" fill="#252525" />
<rect x="3.7346874999999997" y="3.0565624999999996" width="0.3340625" height="0.3340625" fill="#252525" />
<rect x="4.0737499999999995" y="3.0565624999999996" width="0.3340625" height="0.3340625" fill="#252525" />
<rect x="4.412812499999999" y="3.0565624999999996" width="0.3340625" height="0.3340625" fill="#252525" />
<rect x="4.751875" y="3.0565624999999996" width="0.3340625" height="0.3340625" fill="#252525" />
<rect x="0.005" y="3.395625" width="0.3340625" height="0.3340625" fill="#252525" />
<rect x="0.3440625" y="3.395625" width="0.3340625" height="0.3340625" fill="#E6E6E6" />
<rect x="0.683125" y="3.395625" width="0.3340625" height="0.3340625" fill="#FFDC00" />
<rect x="1.0221874999999998" y="3.395625" width="0.3340625" height="0.3340625" fill="#FFDC00" />
<rect x="1.3612499999999998" y="3.395625" width="0.3340625" height="0.3340625" fill="#252525" />
<rect x="1.7003125" y="3.395625" width="0.3340625" height="0.3340625" fill="#252525" />
<rect x="2.0393749999999997" y="3.395625" width="0.3340625" height="0.3340625" fill="#252525" />
<rect x="2.3784375" y="3.395625" width="0.3340625" height="0.3340625" fill="#252525" />
<rect x="2.7175" y="3.395625" width="0.3340625" height="0.3340625" fill="#252525" />
<rect x="3.0565624999999996" y="3.395625" width="0.3340625" height="0.3340625" fill="#252525" />
<rect x="3.395625" y="3.395625" width="0.3340625" height="0.3340625" fill="#252525" />
<rect x="3.7346874999999997" y="3.395625" width="0.3340625" height="0.3340625" fill="#37D449" />
<rect x="4.0737499999999995" y="3.395625" width="0.3340625" height="0.3340625" fill="#37D449" />
<rect x="4.412812499999999" y="3.395625" width="0.3340625" height="0.3340625" fill="#E6E6E6" />
<rect x="4.751875" y="3.395625" width="0.3340625" height="0.3340625" fill="#252525" />
<rect x="0.005" y="3.7346874999999997" width="0.3340625" height="0.3340625" fill="#252525" />
<rect x="0.3440625" y="3.7346874999999997" width="0.3340625" height="0.3340625" fill="#E6E6E6" />
<rect x="0.683125" y="3.7346874999999997" width="0.3340625" height="0.3340625" fill="#E6E6E6" />
<rect x="1.0221874999999998" y="3.7346874999999997" width="0.3340625" height="0.3340625" fill="#FFDC00" />
<rect x="1.3612499999999998" y="3.7346874999999997" width="0.3340625" height="0.3340625" fill="#252525" />
<rect x="1.7003125" y="3.7346874999999997" width="0.3340625" height="0.3340625" fill="#252525" />
<rect x="2.0393749999999997" y="3.7346874999999997" width="0.3340625" height="0.3340625" fill="#252525" />
<rect x="2.3784375" y="3.7346874999999997" width="0.3340625" height="0.3340625" fill="#252525" />
<rect x="2.7175" y="3.7346874999999997" width="0.3340625" height="0.3340625" fill="#252525" />
<rect x="3.0565624999999996" y="3.7346874999999997" width="0.3340625" height="0.3340625" fill="#252525" />
<rect x="3.395625" y="3.7346874999999997" width="0.3340625" height="0.3340625" fill="#252525" />
<rect x="3.7346874999999997" y="3.7346874999999997" width="0.3340625" height="0.3340625" fill="#37D449" />
<rect x="4.0737499999999995" y="3.7346874999999997" width="0.3340625" height="0.3340625" fill="#E6E6E6" />
<rect x="4.412812499999999" y="3.7346874999999997" width="0.3340625" height="0.3340625" fill="#E6E6E6" />
<rect x="4.751875" y="3.7346874999999997" width="0.3340625" height="0.3340625" fill="#252525" />
<rect x="0.005" y="4.0737499999999995" width="0.3340625" height="0.3340625" fill="#252525" />
<rect x="0.3440625" y="4.0737499999999995" width="0.3340625" height="0.3340625" fill="#E6E6E6" />
<rect x="0.683125" y="4.0737499999999995" width="0.3340625" height="0.3340625" fill="#E6E6E6" />
<rect x="1.0221874999999998" y="4.0737499999999995" width="0.3340625" height="0.3340625" fill="#E6E6E6" />
<rect x="1.3612499999999998" y="4.0737499999999995" width="0.3340625" height="0.3340625" fill="#252525" />
<rect x="1.7003125" y="4.0737499999999995" width="0.3340625" height="0.3340625" fill="#252525" />
<rect x="2.0393749999999997" y="4.0737499999999995" width="0.3340625" height="0.3340625" fill="#E6E6E6" />
<rect x="2.3784375" y="4.0737499999999995" width="0.3340625" height="0.3340625" fill="#E6E6E6" />
<rect x="2.7175" y="4.0737499999999995" width="0.3340625" height="0.3340625" fill="#E6E6E6" />
<rect x="3.0565624999999996" y="4.0737499999999995" width="0.3340625" height="0.3340625" fill="#252525" />
<rect x="3.395625" y="4.0737499999999995" width="0.3340625" height="0.3340625" fill="#252525" />
<rect x="3.7346874999999997" y="4.0737499999999995" width="0.3340625" height="0.3340625" fill="#E6E6E6" />
<rect x="4.0737499999999995" y="4.0737499999999995" width="0.3340625" height="0.3340625" fill="#E6E6E6" />
<rect x="4.412812499999999" y="4.0737499999999995" width="0.3340625" height="0.3340625" fill="#E6E6E6" />
<rect x="4.751875" y="4.0737499999999995" width="0.3340625" height="0.3340625" fill="#252525" />
<rect x="0.005" y="4.412812499999999" width="0.3340625" height="0.3340625" fill="#252525" />
<rect x="0.3440625" y="4.412812499999999" width="0.3340625" height="0.3340625" fill="#252525" />
<rect x="0.683125" y="4.412812499999999" width="0.3340625" height="0.3340625" fill="#252525" />
<rect x="1.0221874999999998" y="4.412812499999999" width="0.3340625" height="0.3340625" fill="#252525" />
<rect x="1.3612499999999998" y="4.412812499999999" width="0.3340625" height="0.3340625" fill="#252525" />
<rect x="1.7003125" y="4.412812499999999" width="0.3340625" height="0.3340625" fill="#252525" />
<rect x="2.0393749999999997" y="4.412812499999999" width="0.3340625" height="0.3340625" fill="#E6E6E6" />
<rect x="2.3784375" y="4.412812499999999" width="0.3340625" height="0.3340625" fill="#E6E6E6" />
<rect x="2.7175" y="4.412812499999999" width="0.3340625" height="0.3340625" fill="#FF871E" />
<rect x="3.0565624999999996" y="4.412812499999999" width="0.3340625" height="0.3340625" fill="#252525" />
<rect x="3.395625" y="4.412812499999999" width="0.3340625" height="0.3340625" fill="#252525" />
<rect x="3.7346874999999997" y="4.412812499999999" width="0.3340625" height="0.3340625" fill="#252525" />
<rect x="4.0737499999999995" y="4.412812499999999" width="0.3340625" height="0.3340625" fill="#252525" />
<rect x="4.412812499999999" y="4.412812499999999" width="0.3340625" height="0.3340625" fill="#252525" />
<rect x="4.751875" y="4.412812499999999" width="0.3340625" height="0.3340625" fill="#252525" />
<rect x="0.005" y="4.751875" width="0.3340625" height="0.3340625" fill="#252525" />
<rect x="0.3440625" y="4.751875" width="0.3340625" height="0.3340625" fill="#252525" />
<rect x="0.683125" y="4.751875" width="0.3340625" height="0.3340625" fill="#252525" />
<rect x="1.0221874999999998" y="4.751875" width="0.3340625" height="0.3340625" fill="#252525" />
<rect x="1.3612499999999998" y="4.751875" width="0.3340625" height="0.3340625" fill="#252525" />
<rect x="1.7003125" y="4.751875" width="0.3340625" height="0.3340625" fill="#252525" />
<rect x="2.0393749999999997" y="4.751875" width="0.3340625" height="0.3340625" fill="#E6E6E6" />
<rect x="2.3784375" y="4.751875" width="0.3340625" height="0.3340625" fill="#FF871E" />
<rect x="2.7175" y="4.751875" width="0.3340625" height="0.3340625" fill="#FF871E" />
<rect x="3.0565624999999996" y="4.751875" width="0.3340625" height="0.3340625" fill="#252525" />
<rect x="3.395625" y="4.751875" width="0.3340625" height="0.3340625" fill="#252525" />
<rect x="3.7346874999999997" y="4.751875" width="0.3340625" height="0.3340625" fill="#252525" />
<rect x="4.0737499999999995" y="4.751875" width="0.3340625" height="0.3340625" fill="#252525" />
<rect x="4.412812499999999" y="4.751875" width="0.3340625" height="0.3340625" fill="#252525" />
<rect x="4.751875" y="4.751875" width="0.3340625" height="0.3340625" fill="#252525" />
<rect x="0.005" y="5.0909375" width="0.3340625" height="0.3340625" fill="#252525" />
<rect x="0.3440625" y="5.0909375" width="0.3340625" height="0.3340625" fill="#252525" />
<rect x="0.683125" y="5.0909375" width="0.3340625" height="0.3340625" fill="#252525" />
<rect x="1.0221874999999998" y="5.0909375" width="0.3340625" height="0.3340625" fill="#252525" />
<rect x="1.3612499999999998" y="5.0909375" width="0.3340625" height="0.3340625" fill="#252525" />
<rect x="1.7003125" y="5.0909375" width="0.3340625" height="0.3340625" fill="#252525" />
<rect x="2.0393749999999997" y="5.0909375" width="0.3340625" height="0.3340625" fill="#252525" />
<rect x="2.3784375" y="5.0909375" width="0.3340625" height="0.3340625" fill="#252525" />
<rect x="2.7175" y="5.0909375" width="0.3340625" height="0.3340625" fill="#252525" />
<rect x="3.0565624999999996" y="5.0909375" width="0.3340625" height="0.3340625" fill="#252525" />
<rect x="3.395625" y="5.0909375" width="0.3340625" height="0.3340625" fill="#252525" />
<rect x="3.7346874999999997" y="5.0909375" width="0.3340625" height="0.3340625" fill="#252525" />
<rect x="4.0737499999999995" y="5.0909375" width="0.3340625" height="0.3340625" fill="#252525" />
<rect x="4.412812499999999" y="5.0909375" width="0.3340625" height="0.3340625" fill="#252525" />
<rect x="4.751875" y="5.0909375" width="0.3340625" height="0.3340625" fill="#252525" />
<rect x="-0.02666666666666667" y="-0.02666666666666667" width="5.139270833333334" height="5.4783333333333335" fill="none" stroke="#111111ff" stroke-width="0.08" />
<text x="5.0859375" y="5.89375" font-size="0.375" fill="black" text-anchor="end" font-family="Anuphan">15x16</text>
<text x="-0.037500000000000006" y="5.89375" font-size="0.375" fill="black" text-anchor="start" font-family="Anuphan" font-weight="600">Test 1</text>
</g>
<g id="d3">
<rect x="0.005" y="0.005" width="0.5968518518518418" height="0.5968518518518418" fill="#F012BE" />
<rect x="0.6068518518518418" y="0.005" width="0.5968518518518418" height="0.5968518518518418" fill="#F012BE" />
<rect x="1.2087037037036834" y="0.005" width="0.5968518518518418" height="0.5968518518518418" fill="#E6E6E6" />
<rect x="1.810555555555525" y="0.005" width="0.5968518518518418" height="0.5968518518518418" fill="#FF4136" />
<rect x="2.412407407407367" y="0.005" width="0.5968518518518418" height="0.5968518518518418" fill="#FF4136" />
<rect x="3.014259259259209" y="0.005" width="0.5968518518518418" height="0.5968518518518418" fill="#FF4136" />
<rect x="3.61611111111105" y="0.005" width="0.5968518518518418" height="0.5968518518518418" fill="#E6E6E6" />
<rect x="4.2179629629628925" y="0.005" width="0.5968518518518418" height="0.5968518518518418" fill="#0074D9" />
<rect x="4.819814814814734" y="0.005" width="0.5968518518518418" height="0.5968518518518418" fill="#0074D9" />
<rect x="0.005" y="0.6068518518518418" width="0.5968518518518418" height="0.5968518518518418" fill="#F012BE" />
<rect x="0.6068518518518418" y="0.6068518518518418" width="0.5968518518518418" height="0.5968518518518418" fill="#E6E6E6" />
<rect x="1.2087037037036834" y="0.6068518518518418" width="0.5968518518518418" height="0.5968518518518418" fill="#E6E6E6" />
<rect x="1.810555555555525" y="0.6068518518518418" width="0.5968518518518418" height="0.5968518518518418" fill="#E6E6E6" />
<rect x="2.412407407407367" y="0.6068518518518418" width="0.5968518518518418" height="0.5968518518518418" fill="#FF4136" />
<rect x="3.014259259259209" y="0.6068518518518418" width="0.5968518518518418" height="0.5968518518518418" fill="#E6E6E6" />
<rect x="3.61611111111105" y="0.6068518518518418" width="0.5968518518518418" height="0.5968518518518418" fill="#E6E6E6" />
<rect x="4.2179629629628925" y="0.6068518518518418" width="0.5968518518518418" height="0.5968518518518418" fill="#E6E6E6" />
<rect x="4.819814814814734" y="0.6068518518518418" width="0.5968518518518418" height="0.5968518518518418" fill="#0074D9" />
<rect x="0.005" y="1.2087037037036834" width="0.5968518518518418" height="0.5968518518518418" fill="#E6E6E6" />
<rect x="0.6068518518518418" y="1.2087037037036834" width="0.5968518518518418" height="0.5968518518518418" fill="#E6E6E6" />
<rect x="1.2087037037036834" y="1.2087037037036834" width="0.5968518518518418" height="0.5968518518518418" fill="#E6E6E6" />
<rect x="1.810555555555525" y="1.2087037037036834" width="0.5968518518518418" height="0.5968518518518418" fill="#E6E6E6" />
<rect x="2.412407407407367" y="1.2087037037036834" width="0.5968518518518418" height="0.5968518518518418" fill="#E6E6E6" />
<rect x="3.014259259259209" y="1.2087037037036834" width="0.5968518518518418" height="0.5968518518518418" fill="#E6E6E6" />
<rect x="3.61611111111105" y="1.2087037037036834" width="0.5968518518518418" height="0.5968518518518418" fill="#E6E6E6" />
<rect x="4.2179629629628925" y="1.2087037037036834" width="0.5968518518518418" height="0.5968518518518418" fill="#E6E6E6" />
<rect x="4.819814814814734" y="1.2087037037036834" width="0.5968518518518418" height="0.5968518518518418" fill="#E6E6E6" />
<rect x="0.005" y="1.810555555555525" width="0.5968518518518418" height="0.5968518518518418" fill="#FF4136" />
<rect x="0.6068518518518418" y="1.810555555555525" width="0.5968518518518418" height="0.5968518518518418" fill="#E6E6E6" />
<rect x="1.2087037037036834" y="1.810555555555525" width="0.5968518518518418" height="0.5968518518518418" fill="#E6E6E6" />
<rect x="1.810555555555525" y="1.810555555555525" width="0.5968518518518418" height="0.5968518518518418" fill="#E6E6E6" />
<rect x="2.412407407407367" y="1.810555555555525" width="0.5968518518518418" height="0.5968518518518418" fill="#E6E6E6" />
<rect x="3.014259259259209" y="1.810555555555525" width="0.5968518518518418" height="0.5968518518518418" fill="#E6E6E6" />
<rect x="3.61611111111105" y="1.810555555555525" width="0.5968518518518418" height="0.5968518518518418" fill="#E6E6E6" />
<rect x="4.2179629629628925" y="1.810555555555525" width="0.5968518518518418" height="0.5968518518518418" fill="#E6E6E6" />
<rect x="4.819814814814734" y="1.810555555555525" width="0.5968518518518418" height="0.5968518518518418" fill="#37D449" />
<rect x="0.005" y="2.412407407407367" width="0.5968518518518418" height="0.5968518518518418" fill="#FF4136" />
<rect x="0.6068518518518418" y="2.412407407407367" width="0.5968518518518418" height="0.5968518518518418" fill="#FF4136" />
<rect x="1.2087037037036834" y="2.412407407407367" width="0.5968518518518418" height="0.5968518518518418" fill="#E6E6E6" />
<rect x="1.810555555555525" y="2.412407407407367" width="0.5968518518518418" height="0.5968518518518418" fill="#E6E6E6" />
<rect x="2.412407407407367" y="2.412407407407367" width="0.5968518518518418" height="0.5968518518518418" fill="#E6E6E6" />
<rect x="3.014259259259209" y="2.412407407407367" width="0.5968518518518418" height="0.5968518518518418" fill="#E6E6E6" />
<rect x="3.61611111111105" y="2.412407407407367" width="0.5968518518518418" height="0.5968518518518418" fill="#E6E6E6" />
<rect x="4.2179629629628925" y="2.412407407407367" width="0.5968518518518418" height="0.5968518518518418" fill="#37D449" />
<rect x="4.819814814814734" y="2.412407407407367" width="0.5968518518518418" height="0.5968518518518418" fill="#37D449" />
<rect x="0.005" y="3.014259259259209" width="0.5968518518518418" height="0.5968518518518418" fill="#FF4136" />
<rect x="0.6068518518518418" y="3.014259259259209" width="0.5968518518518418" height="0.5968518518518418" fill="#E6E6E6" />
<rect x="1.2087037037036834" y="3.014259259259209" width="0.5968518518518418" height="0.5968518518518418" fill="#E6E6E6" />
<rect x="1.810555555555525" y="3.014259259259209" width="0.5968518518518418" height="0.5968518518518418" fill="#E6E6E6" />
<rect x="2.412407407407367" y="3.014259259259209" width="0.5968518518518418" height="0.5968518518518418" fill="#E6E6E6" />
<rect x="3.014259259259209" y="3.014259259259209" width="0.5968518518518418" height="0.5968518518518418" fill="#E6E6E6" />
<rect x="3.61611111111105" y="3.014259259259209" width="0.5968518518518418" height="0.5968518518518418" fill="#E6E6E6" />
<rect x="4.2179629629628925" y="3.014259259259209" width="0.5968518518518418" height="0.5968518518518418" fill="#E6E6E6" />
<rect x="4.819814814814734" y="3.014259259259209" width="0.5968518518518418" height="0.5968518518518418" fill="#37D449" />
<rect x="0.005" y="3.61611111111105" width="0.5968518518518418" height="0.5968518518518418" fill="#E6E6E6" />
<rect x="0.6068518518518418" y="3.61611111111105" width="0.5968518518518418" height="0.5968518518518418" fill="#E6E6E6" />
<rect x="1.2087037037036834" y="3.61611111111105" width="0.5968518518518418" height="0.5968518518518418" fill="#E6E6E6" />
<rect x="1.810555555555525" y="3.61611111111105" width="0.5968518518518418" height="0.5968518518518418" fill="#E6E6E6" />
<rect x="2.412407407407367" y="3.61611111111105" width="0.5968518518518418" height="0.5968518518518418" fill="#E6E6E6" />
<rect x="3.014259259259209" y="3.61611111111105" width="0.5968518518518418" height="0.5968518518518418" fill="#E6E6E6" />
<rect x="3.61611111111105" y="3.61611111111105" width="0.5968518518518418" height="0.5968518518518418" fill="#E6E6E6" />
<rect x="4.2179629629628925" y="3.61611111111105" width="0.5968518518518418" height="0.5968518518518418" fill="#E6E6E6" />
<rect x="4.819814814814734" y="3.61611111111105" width="0.5968518518518418" height="0.5968518518518418" fill="#E6E6E6" />
<rect x="0.005" y="4.2179629629628925" width="0.5968518518518418" height="0.5968518518518418" fill="#54D2EB" />
<rect x="0.6068518518518418" y="4.2179629629628925" width="0.5968518518518418" height="0.5968518518518418" fill="#E6E6E6" />
<rect x="1.2087037037036834" y="4.2179629629628925" width="0.5968518518518418" height="0.5968518518518418" fill="#E6E6E6" />
<rect x="1.810555555555525" y="4.2179629629628925" width="0.5968518518518418" height="0.5968518518518418" fill="#E6E6E6" />
<rect x="2.412407407407367" y="4.2179629629628925" width="0.5968518518518418" height="0.5968518518518418" fill="#FFDC00" />
<rect x="3.014259259259209" y="4.2179629629628925" width="0.5968518518518418" height="0.5968518518518418" fill="#E6E6E6" />
<rect x="3.61611111111105" y="4.2179629629628925" width="0.5968518518518418" height="0.5968518518518418" fill="#E6E6E6" />
<rect x="4.2179629629628925" y="4.2179629629628925" width="0.5968518518518418" height="0.5968518518518418" fill="#E6E6E6" />
<rect x="4.819814814814734" y="4.2179629629628925" width="0.5968518518518418" height="0.5968518518518418" fill="#8D1D2C" />
<rect x="0.005" y="4.819814814814734" width="0.5968518518518418" height="0.5968518518518418" fill="#54D2EB" />
<rect x="0.6068518518518418" y="4.819814814814734" width="0.5968518518518418" height="0.5968518518518418" fill="#54D2EB" />
<rect x="1.2087037037036834" y="4.819814814814734" width="0.5968518518518418" height="0.5968518518518418" fill="#E6E6E6" />
<rect x="1.810555555555525" y="4.819814814814734" width="0.5968518518518418" height="0.5968518518518418" fill="#FFDC00" />
<rect x="2.412407407407367" y="4.819814814814734" width="0.5968518518518418" height="0.5968518518518418" fill="#FFDC00" />
<rect x="3.014259259259209" y="4.819814814814734" width="0.5968518518518418" height="0.5968518518518418" fill="#FFDC00" />
<rect x="3.61611111111105" y="4.819814814814734" width="0.5968518518518418" height="0.5968518518518418" fill="#E6E6E6" />
<rect x="4.2179629629628925" y="4.819814814814734" width="0.5968518518518418" height="0.5968518518518418" fill="#8D1D2C" />
<rect x="4.819814814814734" y="4.819814814814734" width="0.5968518518518418" height="0.5968518518518418" fill="#8D1D2C" />
<rect x="-0.02666666666666667" y="-0.02666666666666667" width="5.469999999999909" height="5.469999999999909" fill="none" stroke="#111111ff" stroke-width="0.08" />
<text x="5.4166666666665755" y="5.8854166666665755" font-size="0.375" fill="black" text-anchor="end" font-family="Anuphan">9x9</text>
<text x="-0.037500000000000006" y="5.8854166666665755" font-size="0.375" fill="black" text-anchor="start" font-family="Anuphan" font-weight="600">Output 1</text>
</g>
<g id="d4">
<rect x="0.005" y="0.005" width="0.5968518518518418" height="0.5968518518518418" fill="#FF871E" />
<rect x="0.6068518518518418" y="0.005" width="0.5968518518518418" height="0.5968518518518418" fill="#FF871E" />
<rect x="1.2087037037036834" y="0.005" width="0.5968518518518418" height="0.5968518518518418" fill="#E6E6E6" />
<rect x="1.810555555555525" y="0.005" width="0.5968518518518418" height="0.5968518518518418" fill="#0074D9" />
<rect x="2.412407407407367" y="0.005" width="0.5968518518518418" height="0.5968518518518418" fill="#0074D9" />
<rect x="3.014259259259209" y="0.005" width="0.5968518518518418" height="0.5968518518518418" fill="#0074D9" />
<rect x="3.61611111111105" y="0.005" width="0.5968518518518418" height="0.5968518518518418" fill="#E6E6E6" />
<rect x="4.2179629629628925" y="0.005" width="0.5968518518518418" height="0.5968518518518418" fill="#54D2EB" />
<rect x="4.819814814814734" y="0.005" width="0.5968518518518418" height="0.5968518518518418" fill="#54D2EB" />
<rect x="0.005" y="0.6068518518518418" width="0.5968518518518418" height="0.5968518518518418" fill="#FF871E" />
<rect x="0.6068518518518418" y="0.6068518518518418" width="0.5968518518518418" height="0.5968518518518418" fill="#E6E6E6" />
<rect x="1.2087037037036834" y="0.6068518518518418" width="0.5968518518518418" height="0.5968518518518418" fill="#E6E6E6" />
<rect x="1.810555555555525" y="0.6068518518518418" width="0.5968518518518418" height="0.5968518518518418" fill="#E6E6E6" />
<rect x="2.412407407407367" y="0.6068518518518418" width="0.5968518518518418" height="0.5968518518518418" fill="#0074D9" />
<rect x="3.014259259259209" y="0.6068518518518418" width="0.5968518518518418" height="0.5968518518518418" fill="#E6E6E6" />
<rect x="3.61611111111105" y="0.6068518518518418" width="0.5968518518518418" height="0.5968518518518418" fill="#E6E6E6" />
<rect x="4.2179629629628925" y="0.6068518518518418" width="0.5968518518518418" height="0.5968518518518418" fill="#E6E6E6" />
<rect x="4.819814814814734" y="0.6068518518518418" width="0.5968518518518418" height="0.5968518518518418" fill="#54D2EB" />
<rect x="0.005" y="1.2087037037036834" width="0.5968518518518418" height="0.5968518518518418" fill="#E6E6E6" />
<rect x="0.6068518518518418" y="1.2087037037036834" width="0.5968518518518418" height="0.5968518518518418" fill="#E6E6E6" />
<rect x="1.2087037037036834" y="1.2087037037036834" width="0.5968518518518418" height="0.5968518518518418" fill="#E6E6E6" />
<rect x="1.810555555555525" y="1.2087037037036834" width="0.5968518518518418" height="0.5968518518518418" fill="#E6E6E6" />
<rect x="2.412407407407367" y="1.2087037037036834" width="0.5968518518518418" height="0.5968518518518418" fill="#E6E6E6" />
<rect x="3.014259259259209" y="1.2087037037036834" width="0.5968518518518418" height="0.5968518518518418" fill="#E6E6E6" />
<rect x="3.61611111111105" y="1.2087037037036834" width="0.5968518518518418" height="0.5968518518518418" fill="#E6E6E6" />
<rect x="4.2179629629628925" y="1.2087037037036834" width="0.5968518518518418" height="0.5968518518518418" fill="#E6E6E6" />
<rect x="4.819814814814734" y="1.2087037037036834" width="0.5968518518518418" height="0.5968518518518418" fill="#E6E6E6" />
<rect x="0.005" y="1.810555555555525" width="0.5968518518518418" height="0.5968518518518418" fill="#F012BE" />
<rect x="0.6068518518518418" y="1.810555555555525" width="0.5968518518518418" height="0.5968518518518418" fill="#E6E6E6" />
<rect x="1.2087037037036834" y="1.810555555555525" width="0.5968518518518418" height="0.5968518518518418" fill="#E6E6E6" />
<rect x="1.810555555555525" y="1.810555555555525" width="0.5968518518518418" height="0.5968518518518418" fill="#E6E6E6" />
<rect x="2.412407407407367" y="1.810555555555525" width="0.5968518518518418" height="0.5968518518518418" fill="#E6E6E6" />
<rect x="3.014259259259209" y="1.810555555555525" width="0.5968518518518418" height="0.5968518518518418" fill="#E6E6E6" />
<rect x="3.61611111111105" y="1.810555555555525" width="0.5968518518518418" height="0.5968518518518418" fill="#E6E6E6" />
<rect x="4.2179629629628925" y="1.810555555555525" width="0.5968518518518418" height="0.5968518518518418" fill="#E6E6E6" />
<rect x="4.819814814814734" y="1.810555555555525" width="0.5968518518518418" height="0.5968518518518418" fill="#FFDC00" />
<rect x="0.005" y="2.412407407407367" width="0.5968518518518418" height="0.5968518518518418" fill="#F012BE" />
<rect x="0.6068518518518418" y="2.412407407407367" width="0.5968518518518418" height="0.5968518518518418" fill="#F012BE" />
<rect x="1.2087037037036834" y="2.412407407407367" width="0.5968518518518418" height="0.5968518518518418" fill="#E6E6E6" />
<rect x="1.810555555555525" y="2.412407407407367" width="0.5968518518518418" height="0.5968518518518418" fill="#E6E6E6" />
<rect x="2.412407407407367" y="2.412407407407367" width="0.5968518518518418" height="0.5968518518518418" fill="#E6E6E6" />
<rect x="3.014259259259209" y="2.412407407407367" width="0.5968518518518418" height="0.5968518518518418" fill="#E6E6E6" />
<rect x="3.61611111111105" y="2.412407407407367" width="0.5968518518518418" height="0.5968518518518418" fill="#E6E6E6" />
<rect x="4.2179629629628925" y="2.412407407407367" width="0.5968518518518418" height="0.5968518518518418" fill="#FFDC00" />
<rect x="4.819814814814734" y="2.412407407407367" width="0.5968518518518418" height="0.5968518518518418" fill="#FFDC00" />
<rect x="0.005" y="3.014259259259209" width="0.5968518518518418" height="0.5968518518518418" fill="#F012BE" />
<rect x="0.6068518518518418" y="3.014259259259209" width="0.5968518518518418" height="0.5968518518518418" fill="#E6E6E6" />
<rect x="1.2087037037036834" y="3.014259259259209" width="0.5968518518518418" height="0.5968518518518418" fill="#E6E6E6" />
<rect x="1.810555555555525" y="3.014259259259209" width="0.5968518518518418" height="0.5968518518518418" fill="#E6E6E6" />
<rect x="2.412407407407367" y="3.014259259259209" width="0.5968518518518418" height="0.5968518518518418" fill="#E6E6E6" />
<rect x="3.014259259259209" y="3.014259259259209" width="0.5968518518518418" height="0.5968518518518418" fill="#E6E6E6" />
<rect x="3.61611111111105" y="3.014259259259209" width="0.5968518518518418" height="0.5968518518518418" fill="#E6E6E6" />
<rect x="4.2179629629628925" y="3.014259259259209" width="0.5968518518518418" height="0.5968518518518418" fill="#E6E6E6" />
<rect x="4.819814814814734" y="3.014259259259209" width="0.5968518518518418" height="0.5968518518518418" fill="#FFDC00" />
<rect x="0.005" y="3.61611111111105" width="0.5968518518518418" height="0.5968518518518418" fill="#E6E6E6" />
<rect x="0.6068518518518418" y="3.61611111111105" width="0.5968518518518418" height="0.5968518518518418" fill="#E6E6E6" />
<rect x="1.2087037037036834" y="3.61611111111105" width="0.5968518518518418" height="0.5968518518518418" fill="#E6E6E6" />
<rect x="1.810555555555525" y="3.61611111111105" width="0.5968518518518418" height="0.5968518518518418" fill="#E6E6E6" />
<rect x="2.412407407407367" y="3.61611111111105" width="0.5968518518518418" height="0.5968518518518418" fill="#E6E6E6" />
<rect x="3.014259259259209" y="3.61611111111105" width="0.5968518518518418" height="0.5968518518518418" fill="#E6E6E6" />
<rect x="3.61611111111105" y="3.61611111111105" width="0.5968518518518418" height="0.5968518518518418" fill="#E6E6E6" />
<rect x="4.2179629629628925" y="3.61611111111105" width="0.5968518518518418" height="0.5968518518518418" fill="#E6E6E6" />
<rect x="4.819814814814734" y="3.61611111111105" width="0.5968518518518418" height="0.5968518518518418" fill="#E6E6E6" />
<rect x="0.005" y="4.2179629629628925" width="0.5968518518518418" height="0.5968518518518418" fill="#37D449" />
<rect x="0.6068518518518418" y="4.2179629629628925" width="0.5968518518518418" height="0.5968518518518418" fill="#E6E6E6" />
<rect x="1.2087037037036834" y="4.2179629629628925" width="0.5968518518518418" height="0.5968518518518418" fill="#E6E6E6" />
<rect x="1.810555555555525" y="4.2179629629628925" width="0.5968518518518418" height="0.5968518518518418" fill="#E6E6E6" />
<rect x="2.412407407407367" y="4.2179629629628925" width="0.5968518518518418" height="0.5968518518518418" fill="#FF4136" />
<rect x="3.014259259259209" y="4.2179629629628925" width="0.5968518518518418" height="0.5968518518518418" fill="#E6E6E6" />
<rect x="3.61611111111105" y="4.2179629629628925" width="0.5968518518518418" height="0.5968518518518418" fill="#E6E6E6" />
<rect x="4.2179629629628925" y="4.2179629629628925" width="0.5968518518518418" height="0.5968518518518418" fill="#E6E6E6" />
<rect x="4.819814814814734" y="4.2179629629628925" width="0.5968518518518418" height="0.5968518518518418" fill="#8D1D2C" />
<rect x="0.005" y="4.819814814814734" width="0.5968518518518418" height="0.5968518518518418" fill="#37D449" />
<rect x="0.6068518518518418" y="4.819814814814734" width="0.5968518518518418" height="0.5968518518518418" fill="#37D449" />
<rect x="1.2087037037036834" y="4.819814814814734" width="0.5968518518518418" height="0.5968518518518418" fill="#E6E6E6" />
<rect x="1.810555555555525" y="4.819814814814734" width="0.5968518518518418" height="0.5968518518518418" fill="#FF4136" />
<rect x="2.412407407407367" y="4.819814814814734" width="0.5968518518518418" height="0.5968518518518418" fill="#FF4136" />
<rect x="3.014259259259209" y="4.819814814814734" width="0.5968518518518418" height="0.5968518518518418" fill="#FF4136" />
<rect x="3.61611111111105" y="4.819814814814734" width="0.5968518518518418" height="0.5968518518518418" fill="#E6E6E6" />
<rect x="4.2179629629628925" y="4.819814814814734" width="0.5968518518518418" height="0.5968518518518418" fill="#8D1D2C" />
<rect x="4.819814814814734" y="4.819814814814734" width="0.5968518518518418" height="0.5968518518518418" fill="#8D1D2C" />
<rect x="-0.02666666666666667" y="-0.02666666666666667" width="5.469999999999909" height="5.469999999999909" fill="none" stroke="#111111ff" stroke-width="0.08" />
<text x="5.4166666666665755" y="5.8854166666665755" font-size="0.375" fill="black" text-anchor="end" font-family="Anuphan">9x9</text>
<text x="-0.037500000000000006" y="5.8854166666665755" font-size="0.375" fill="black" text-anchor="start" font-family="Anuphan" font-weight="600">Output 2</text>
</g>
</defs>
<rect x="0" y="0" width="100%" height="100%" fill="#eeeff6" />
<use xlink:href="#d0" x="0.25" y="0.25" />
<use xlink:href="#d1" x="6.501562499999864" y="0.25" />
<use xlink:href="#d2" x="12.248697916666439" y="0.25" />
<path d="M2.9583333333332877,6.325 L2.9583333333332877,6.7250000000000005" stroke-width="0.05" stroke="#888888" />
<path d="M2.808333333333288,6.525 L2.9583333333332877,6.7250000000000005" stroke-width="0.05" stroke="#888888" />
<path d="M3.1083333333332877,6.525 L2.9583333333332877,6.7250000000000005" stroke-width="0.05" stroke="#888888" />
<use xlink:href="#d3" x="0.25" y="7.075" />
<path d="M8.540104166666575,6.325 L8.540104166666575,6.7250000000000005" stroke-width="0.05" stroke="#888888" />
<path d="M8.390104166666575,6.525 L8.540104166666575,6.7250000000000005" stroke-width="0.05" stroke="#888888" />
<path d="M8.690104166666575,6.525 L8.540104166666575,6.7250000000000005" stroke-width="0.05" stroke="#888888" />
<use xlink:href="#d4" x="6.1666666666665755" y="7.075" />
<path d="M14.626302083333151,6.325 L14.626302083333151,6.7250000000000005" stroke-width="0.05" stroke="#888888" />
<path d="M14.47630208333315,6.525 L14.626302083333151,6.7250000000000005" stroke-width="0.05" stroke="#888888" />
<path d="M14.776302083333151,6.525 L14.626302083333151,6.7250000000000005" stroke-width="0.05" stroke="#888888" />
<text x="14.791666666666439" y="9.883333333333287" font-size="1" font-family="Anuphan" font-weight="700" fill="#333333" text-anchor="middle" alignment-baseline="middle">?</text>
<text x="17.599999999999998" y="13.299999999999999" font-size="0.3" font-family="Anuphan" font-weight="600" fill="#666666" text-anchor="end" alignment-baseline="bottom">Task a8c38be5</text>
</svg>