<?xml version="1.0" encoding="UTF-8"?>
<svg xmlns="http://www.w3.org/2000/svg" xmlns:xlink="http://www.w3.org/1999/xlink"
     width="800.0" height="500.0" viewBox="0 0 20.0 12.5">
<defs>
<g id="d0">
<rect x="0.005" y="0.005" width="0.3340625" height="0.3340625" fill="#252525" />
<rect x="0.3440625" y="0.005" width="0.3340625" height="0.3340625" fill="#252525" />
<rect x="0.683125" y="0.005" width="0.3340625" height="0.3340625" fill="#252525" />
<rect x="1.0221874999999998" y="0.005" width="0.3340625" height="0.3340625" fill="#252525" />
<rect x="1.3612499999999998" y="0.005" width="0.3340625" height="0.3340625" fill="#252525" />
<rect x="1.7003125" y="0.005" width="0.3340625" height="0.3340625" fill="#252525" />
<rect x="2.0393749999999997" y="0.005" width="0.3340625" height="0.3340625" fill="#252525" />
<rect x="2.3784375" y="0.005" width="0.3340625" height="0.3340625" fill="#252525" />
<rect x="2.7175" y="0.005" width="0.3340625" height="0.3340625" fill="#252525" />
<rect x="3.0565624999999996" y="0.005" width="0.3340625" height="0.3340625" fill="#252525" />
<rect x="0.005" y="0.3440625" width="0.3340625" height="0.3340625" fill="#252525" />
<rect x="0.3440625" y="0.3440625" width="0.3340625" height="0.3340625" fill="#252525" />
<rect x="0.683125" y="0.3440625" width="0.3340625" height="0.3340625" fill="#54D2EB" />
<rect x="1.0221874999999998" y="0.3440625" width="0.3340625" height="0.3340625" fill="#54D2EB" />
<rect x="1.3612499999999998" y="0.3440625" width="0.3340625" height="0.3340625" fill="#252525" />
<rect x="1.7003125" y="0.3440625" width="0.3340625" height="0.3340625" fill="#252525" />
<rect x="2.0393749999999997" y="0.3440625" width="0.3340625" height="0.3340625" fill="#252525" />
<rect x="2.3784375" y="0.3440625" width="0.3340625" height="0.3340625" fill="#252525" />
<rect x="2.7175" y="0.3440625" width="0.3340625" height="0.3340625" fill="#252525" />
<rect x="3.0565624999999996" y="0.3440625" width="0.3340625" height="0.3340625" fill="#252525" />
<rect x="0.005" y="0.683125" width="0.3340625" height="0.3340625" fill="#252525" />
<rect x="0.3440625" y="0.683125" width="0.3340625" height="0.3340625" fill="#252525" />
<rect x="0.683125" y="0.683125" width="0.3340625" height="0.3340625" fill="#54D2EB" />
<rect x="1.0221874999999998" y="0.683125" width="0.3340625" height="0.3340625" fill="#54D2EB" />
<rect x="1.3612499999999998" y="0.683125" width="0.3340625" height="0.3340625" fill="#252525" />
<rect x="1.7003125" y="0.683125" width="0.3340625" height="0.3340625" fill="#252525" />
<rect x="2.0393749999999997" y="0.683125" width="0.3340625" height="0.3340625" fill="#252525" />
<rect x="2.3784375" y="0.683125" width="0.3340625" height="0.3340625" fill="#252525" />
<rect x="2.7175" y="0.683125" width="0.3340625" height="0.3340625" fill="#252525" />
<rect x="3.0565624999999996" y="0.683125" width="0.3340625" height="0.3340625" fill="#252525" />
<rect x="0.005" y="1.0221874999999998" width="0.3340625" height="0.3340625" fill="#252525" />
<rect x="0.3440625" y="1.0221874999999998" width="0.3340625" height="0.3340625" fill="#54D2EB" />
<rect x="0.683125" y="1.0221874999999998" width="0.3340625" height="0.3340625" fill="#54D2EB" />
<rect x="1.0221874999999998" y="1.0221874999999998" width="0.3340625" height="0.3340625" fill="#54D2EB" />
<rect x="1.3612499999999998" y="1.0221874999999998" width="0.3340625" height="0.3340625" fill="#252525" />
<rect x="1.7003125" y="1.0221874999999998" width="0.3340625" height="0.3340625" fill="#252525" />
<rect x="2.0393749999999997" y="1.0221874999999998" width="0.3340625" height="0.3340625" fill="#252525" />
<rect x="2.3784375" y="1.0221874999999998" width="0.3340625" height="0.3340625" fill="#252525" />
<rect x="2.7175" y="1.0221874999999998" width="0.3340625" height="0.3340625" fill="#252525" />
<rect x="3.0565624999999996" y="1.0221874999999998" width="0.3340625" height="0.3340625" fill="#252525" />
<rect x="0.005" y="1.3612499999999998" width="0.3340625" height="0.3340625" fill="#252525" />
<rect x="0.3440625" y="1.3612499999999998" width="0.3340625" height="0.3340625" fill="#252525" />
<rect x="0.683125" y="1.3612499999999998" width="0.3340625" height="0.3340625" fill="#54D2EB" />
<rect x="1.0221874999999998" y="1.3612499999999998" width="0.3340625" height="0.3340625" fill="#252525" />
<rect x="1.3612499999999998" y="1.3612499999999998" width="0.3340625" height="0.3340625" fill="#252525" />
<rect x="1.7003125" y="1.3612499999999998" width="0.3340625" height="0.3340625" fill="#252525" />
<rect x="2.0393749999999997" y="1.3612499999999998" width="0.3340625" height="0.3340625" fill="#252525" />
<rect x="2.3784375" y="1.3612499999999998" width="0.3340625" height="0.3340625" fill="#252525" />
<rect x="2.7175" y="1.3612499999999998" width="0.3340625" height="0.3340625" fill="#252525" />
<rect x="3.0565624999999996" y="1.3612499999999998" width="0.3340625" height="0.3340625" fill="#252525" />
<rect x="0.005" y="1.7003125" width="0.3340625" height="0.3340625" fill="#252525" />
<rect x="0.3440625" y="1.7003125" width="0.3340625" height="0.3340625" fill="#252525" />
<rect x="0.683125" y="1.7003125" width="0.3340625" height="0.3340625" fill="#252525" />
<rect x="1.0221874999999998" y="1.7003125" width="0.3340625" height="0.3340625" fill="#252525" />
<rect x="1.3612499999999998" y="1.7003125" width="0.3340625" height="0.3340625" fill="#252525" />
<rect x="1.7003125" y="1.7003125" width="0.3340625" height="0.3340625" fill="#252525" />
<rect x="2.0393749999999997" y="1.7003125" width="0.3340625" height="0.3340625" fill="#252525" />
<rect x="2.3784375" y="1.7003125" width="0.3340625" height="0.3340625" fill="#252525" />
<rect x="2.7175" y="1.7003125" width="0.3340625" height="0.3340625" fill="#252525" />
<rect x="3.0565624999999996" y="1.7003125" width="0.3340625" height="0.3340625" fill="#252525" />
<rect x="0.005" y="2.0393749999999997" width="0.3340625" height="0.3340625" fill="#252525" />
<rect x="0.3440625" y="2.0393749999999997" width="0.3340625" height="0.3340625" fill="#252525" />
<rect x="0.683125" y="2.0393749999999997" width="0.3340625" height="0.3340625" fill="#252525" />
<rect x="1.0221874999999998" y="2.0393749999999997" width="0.3340625" height="0.3340625" fill="#252525" />
<rect x="1.3612499999999998" y="2.0393749999999997" width="0.3340625" height="0.3340625" fill="#252525" />
<rect x="1.7003125" y="2.0393749999999997" width="0.3340625" height="0.3340625" fill="#54D2EB" />
<rect x="2.0393749999999997" y="2.0393749999999997" width="0.3340625" height="0.3340625" fill="#54D2EB" />
<rect x="2.3784375" y="2.0393749999999997" width="0.3340625" height="0.3340625" fill="#252525" />
<rect x="2.7175" y="2.0393749999999997" width="0.3340625" height="0.3340625" fill="#252525" />
<rect x="3.0565624999999996" y="2.0393749999999997" width="0.3340625" height="0.3340625" fill="#252525" />
<rect x="0.005" y="2.3784375" width="0.3340625" height="0.3340625" fill="#252525" />
<rect x="0.3440625" y="2.3784375" width="0.3340625" height="0.3340625" fill="#252525" />
<rect x="0.683125" y="2.3784375" width="0.3340625" height="0.3340625" fill="#252525" />
<rect x="1.0221874999999998" y="2.3784375" width="0.3340625" height="0.3340625" fill="#252525" />
<rect x="1.3612499999999998" y="2.3784375" width="0.3340625" height="0.3340625" fill="#54D2EB" />
<rect x="1.7003125" y="2.3784375" width="0.3340625" height="0.3340625" fill="#54D2EB" />
<rect x="2.0393749999999997" y="2.3784375" width="0.3340625" height="0.3340625" fill="#54D2EB" />
<rect x="2.3784375" y="2.3784375" width="0.3340625" height="0.3340625" fill="#252525" />
<rect x="2.7175" y="2.3784375" width="0.3340625" height="0.3340625" fill="#252525" />
<rect x="3.0565624999999996" y="2.3784375" width="0.3340625" height="0.3340625" fill="#252525" />
<rect x="0.005" y="2.7175" width="0.3340625" height="0.3340625" fill="#252525" />
<rect x="0.3440625" y="2.7175" width="0.3340625" height="0.3340625" fill="#252525" />
<rect x="0.683125" y="2.7175" width="0.3340625" height="0.3340625" fill="#252525" />
<rect x="1.0221874999999998" y="2.7175" width="0.3340625" height="0.3340625" fill="#252525" />
<rect x="1.3612499999999998" y="2.7175" width="0.3340625" height="0.3340625" fill="#252525" />
<rect x="1.7003125" y="2.7175" width="0.3340625" height="0.3340625" fill="#252525" />
<rect x="2.0393749999999997" y="2.7175" width="0.3340625" height="0.3340625" fill="#54D2EB" />
<rect x="2.3784375" y="2.7175" width="0.3340625" height="0.3340625" fill="#252525" />
<rect x="2.7175" y="2.7175" width="0.3340625" height="0.3340625" fill="#252525" />
<rect x="3.0565624999999996" y="2.7175" width="0.3340625" height="0.3340625" fill="#252525" />
<rect x="0.005" y="3.0565624999999996" width="0.3340625" height="0.3340625" fill="#252525" />
<rect x="0.3440625" y="3.0565624999999996" width="0.3340625" height="0.3340625" fill="#252525" />
<rect x="0.683125" y="3.0565624999999996" width="0.3340625" height="0.3340625" fill="#252525" />
<rect x="1.0221874999999998" y="3.0565624999999996" width="0.3340625" height="0.3340625" fill="#252525" />
<rect x="1.3612499999999998" y="3.0565624999999996" width="0.3340625" height="0.3340625" fill="#252525" />
<rect x="1.7003125" y="3.0565624999999996" width="0.3340625" height="0.3340625" fill="#252525" />
<rect x="2.0393749999999997" y="3.0565624999999996" width="0.3340625" height="0.3340625" fill="#252525" />
<rect x="2.3784375" y="3.0565624999999996" width="0.3340625" height="0.3340625" fill="#252525" />
<rect x="2.7175" y="3.0565624999999996" width="0.3340625" height="0.3340625" fill="#252525" />
<rect x="3.0565624999999996" y="3.0565624999999996" width="0.3340625" height="0.3340625" fill="#252525" />
<rect x="0.005" y="3.395625" width="0.3340625" height="0.3340625" fill="#252525" />
<rect x="0.3440625" y="3.395625" width="0.3340625" height="0.3340625" fill="#252525" />
<rect x="0.683125" y="3.395625" width="0.3340625" height="0.3340625" fill="#252525" />
<rect x="1.0221874999999998" y="3.395625" width="0.3340625" height="0.3340625" fill="#54D2EB" />
<rect x="1.3612499999999998" y="3.395625" width="0.3340625" height="0.3340625" fill="#54D2EB" />
<rect x="1.7003125" y="3.395625" width="0.3340625" height="0.3340625" fill="#252525" />
<rect x="2.0393749999999997" y="3.395625" width="0.3340625" height="0.3340625" fill="#252525" />
<rect x="2.3784375" y="3.395625" width="0.3340625" height="0.3340625" fill="#252525" />
<rect x="2.7175" y="3.395625" width="0.3340625" height="0.3340625" fill="#252525" />
<rect x="3.0565624999999996" y="3.395625" width="0.3340625" height="0.3340625" fill="#252525" />
<rect x="0.005" y="3.7346874999999997" width="0.3340625" height="0.3340625" fill="#252525" />
<rect x="0.3440625" y="3.7346874999999997" width="0.3340625" height="0.3340625" fill="#54D2EB" />
<rect x="0.683125" y="3.7346874999999997" width="0.3340625" height="0.3340625" fill="#54D2EB" />
<rect x="1.0221874999999998" y="3.7346874999999997" width="0.3340625" height="0.3340625" fill="#54D2EB" />
<rect x="1.3612499999999998" y="3.7346874999999997" width="0.3340625" height="0.3340625" fill="#252525" />
<rect x="1.7003125" y="3.7346874999999997" width="0.3340625" height="0.3340625" fill="#252525" />
<rect x="2.0393749999999997" y="3.7346874999999997" width="0.3340625" height="0.3340625" fill="#252525" />
<rect x="2.3784375" y="3.7346874999999997" width="0.3340625" height="0.3340625" fill="#252525" />
<rect x="2.7175" y="3.7346874999999997" width="0.3340625" height="0.3340625" fill="#252525" />
<rect x="3.0565624999999996" y="3.7346874999999997" width="0.3340625" height="0.3340625" fill="#252525" />
<rect x="0.005" y="4.0737499999999995" width="0.3340625" height="0.3340625" fill="#252525" />
<rect x="0.3440625" y="4.0737499999999995" width="0.3340625" height="0.3340625" fill="#252525" />
<rect x="0.683125" y="4.0737499999999995" width="0.3340625" height="0.3340625" fill="#252525" />
<rect x="1.0221874999999998" y="4.0737499999999995" width="0.3340625" height="0.3340625" fill="#54D2EB" />
<rect x="1.3612499999999998" y="4.0737499999999995" width="0.3340625" height="0.3340625" fill="#252525" />
<rect x="1.7003125" y="4.0737499999999995" width="0.3340625" height="0.3340625" fill="#252525" />
<rect x="2.0393749999999997" y="4.0737499999999995" width="0.3340625" height="0.3340625" fill="#252525" />
<rect x="2.3784375" y="4.0737499999999995" width="0.3340625" height="0.3340625" fill="#54D2EB" />
<rect x="2.7175" y="4.0737499999999995" width="0.3340625" height="0.3340625" fill="#54D2EB" />
<rect x="3.0565624999999996" y="4.0737499999999995" width="0.3340625" height="0.3340625" fill="#252525" />
<rect x="0.005" y="4.412812499999999" width="0.3340625" height="0.3340625" fill="#252525" />
<rect x="0.3440625" y="4.412812499999999" width="0.3340625" height="0.3340625" fill="#252525" />
<rect x="0.683125" y="4.412812499999999" width="0.3340625" height="0.3340625" fill="#252525" />
<rect x="1.0221874999999998" y="4.412812499999999" width="0.3340625" height="0.3340625" fill="#252525" />
<rect x="1.3612499999999998" y="4.412812499999999" width="0.3340625" height="0.3340625" fill="#252525" />
<rect x="1.7003125" y="4.412812499999999" width="0.3340625" height="0.3340625" fill="#252525" />
<rect x="2.0393749999999997" y="4.412812499999999" width="0.3340625" height="0.3340625" fill="#252525" />
<rect x="2.3784375" y="4.412812499999999" width="0.3340625" height="0.3340625" fill="#54D2EB" />
<rect x="2.7175" y="4.412812499999999" width="0.3340625" height="0.3340625" fill="#54D2EB" />
<rect x="3.0565624999999996" y="4.412812499999999" width="0.3340625" height="0.3340625" fill="#252525" />
<rect x="0.005" y="4.751875" width="0.3340625" height="0.3340625" fill="#252525" />
<rect x="0.3440625" y="4.751875" width="0.3340625" height="0.3340625" fill="#252525" />
<rect x="0.683125" y="4.751875" width="0.3340625" height="0.3340625" fill="#252525" />
<rect x="1.0221874999999998" y="4.751875" width="0.3340625" height="0.3340625" fill="#252525" />
<rect x="1.3612499999999998" y="4.751875" width="0.3340625" height="0.3340625" fill="#252525" />
<rect x="1.7003125" y="4.751875" width="0.3340625" height="0.3340625" fill="#252525" />
<rect x="2.0393749999999997" y="4.751875" width="0.3340625" height="0.3340625" fill="#252525" />
<rect x="2.3784375" y="4.751875" width="0.3340625" height="0.3340625" fill="#252525" />
<rect x="2.7175" y="4.751875" width="0.3340625" height="0.3340625" fill="#252525" />
<rect x="3.0565624999999996" y="4.751875" width="0.3340625" height="0.3340625" fill="#252525" />
<rect x="0.005" y="5.0909375" width="0.3340625" height="0.3340625" fill="#252525" />
<rect x="0.3440625" y="5.0909375" width="0.3340625" height="0.3340625" fill="#252525" />
<rect x="0.683125" y="5.0909375" width="0.3340625" height="0.3340625" fill="#252525" />
<rect x="1.0221874999999998" y="5.0909375" width="0.3340625" height="0.3340625" fill="#252525" />
<rect x="1.3612499999999998" y="5.0909375" width="0.3340625" height="0.3340625" fill="#252525" />
<rect x="1.7003125" y="5.0909375" width="0.3340625" height="0.3340625" fill="#252525" />
<rect x="2.0393749999999997" y="5.0909375" width="0.3340625" height="0.3340625" fill="#252525" />
<rect x="2.3784375" y="5.0909375" width="0.3340625" height="0.3340625" fill="#252525" />
<rect x="2.7175" y="5.0909375" width="0.3340625" height="0.3340625" fill="#252525" />
<rect x="3.0565624999999996" y="5.0909375" width="0.3340625" height="0.3340625" fill="#252525" />
<rect x="-0.02666666666666667" y="-0.02666666666666667" width="3.4439583333333332" height="5.4783333333333335" fill="none" stroke="#111111ff" stroke-width="0.08" />
<text x="3.390625" y="5.89375" font-size="0.375" fill="black" text-anchor="end" font-family="Anuphan">10x16</text>
<text x="-0.037500000000000006" y="5.89375" font-size="0.375" fill="black" text-anchor="start" font-family="Anuphan" font-weight="600">Input 1</text>
</g>
<g id="d1">
<rect x="0.005" y="0.005" width="0.3697916666666669" height="0.3697916666666669" fill="#252525" />
<rect x="0.3797916666666669" y="0.005" width="0.3697916666666669" height="0.3697916666666669" fill="#252525" />
<rect x="0.7545833333333338" y="0.005" width="0.3697916666666669" height="0.3697916666666669" fill="#252525" />
<rect x="1.1293750000000007" y="0.005" width="0.3697916666666669" height="0.3697916666666669" fill="#252525" />
<rect x="1.5041666666666675" y="0.005" width="0.3697916666666669" height="0.3697916666666669" fill="#252525" />
<rect x="1.8789583333333344" y="0.005" width="0.3697916666666669" height="0.3697916666666669" fill="#252525" />
<rect x="2.2537500000000015" y="0.005" width="0.3697916666666669" height="0.3697916666666669" fill="#252525" />
<rect x="2.6285416666666683" y="0.005" width="0.3697916666666669" height="0.3697916666666669" fill="#252525" />
<rect x="3.003333333333335" y="0.005" width="0.3697916666666669" height="0.3697916666666669" fill="#252525" />
<rect x="3.378125000000002" y="0.005" width="0.3697916666666669" height="0.3697916666666669" fill="#252525" />
<rect x="3.752916666666669" y="0.005" width="0.3697916666666669" height="0.3697916666666669" fill="#252525" />
<rect x="4.127708333333336" y="0.005" width="0.3697916666666669" height="0.3697916666666669" fill="#252525" />
<rect x="0.005" y="0.3797916666666669" width="0.3697916666666669" height="0.3697916666666669" fill="#252525" />
<rect x="0.3797916666666669" y="0.3797916666666669" width="0.3697916666666669" height="0.3697916666666669" fill="#252525" />
<rect x="0.7545833333333338" y="0.3797916666666669" width="0.3697916666666669" height="0.3697916666666669" fill="#252525" />
<rect x="1.1293750000000007" y="0.3797916666666669" width="0.3697916666666669" height="0.3697916666666669" fill="#54D2EB" />
<rect x="1.5041666666666675" y="0.3797916666666669" width="0.3697916666666669" height="0.3697916666666669" fill="#252525" />
<rect x="1.8789583333333344" y="0.3797916666666669" width="0.3697916666666669" height="0.3697916666666669" fill="#252525" />
<rect x="2.2537500000000015" y="0.3797916666666669" width="0.3697916666666669" height="0.3697916666666669" fill="#252525" />
<rect x="2.6285416666666683" y="0.3797916666666669" width="0.3697916666666669" height="0.3697916666666669" fill="#252525" />
<rect x="3.003333333333335" y="0.3797916666666669" width="0.3697916666666669" height="0.3697916666666669" fill="#252525" />
<rect x="3.378125000000002" y="0.3797916666666669" width="0.3697916666666669" height="0.3697916666666669" fill="#252525" />
<rect x="3.752916666666669" y="0.3797916666666669" width="0.3697916666666669" height="0.3697916666666669" fill="#252525" />
<rect x="4.127708333333336" y="0.3797916666666669" width="0.3697916666666669" height="0.3697916666666669" fill="#252525" />
<rect x="0.005" y="0.7545833333333338" width="0.3697916666666669" height="0.3697916666666669" fill="#252525" />
<rect x="0.3797916666666669" y="0.7545833333333338" width="0.3697916666666669" height="0.3697916666666669" fill="#54D2EB" />
<rect x="0.7545833333333338" y="0.7545833333333338" width="0.3697916666666669" height="0.3697916666666669" fill="#54D2EB" />
<rect x="1.1293750000000007" y="0.7545833333333338" width="0.3697916666666669" height="0.3697916666666669" fill="#54D2EB" />
<rect x="1.5041666666666675" y="0.7545833333333338" width="0.3697916666666669" height="0.3697916666666669" fill="#252525" />
<rect x="1.8789583333333344" y="0.7545833333333338" width="0.3697916666666669" height="0.3697916666666669" fill="#252525" />
<rect x="2.2537500000000015" y="0.7545833333333338" width="0.3697916666666669" height="0.3697916666666669" fill="#252525" />
<rect x="2.6285416666666683" y="0.7545833333333338" width="0.3697916666666669" height="0.3697916666666669" fill="#252525" />
<rect x="3.003333333333335" y="0.7545833333333338" width="0.3697916666666669" height="0.3697916666666669" fill="#252525" />
<rect x="3.378125000000002" y="0.7545833333333338" width="0.3697916666666669" height="0.3697916666666669" fill="#252525" />
<rect x="3.752916666666669" y="0.7545833333333338" width="0.3697916666666669" height="0.3697916666666669" fill="#252525" />
<rect x="4.127708333333336" y="0.7545833333333338" width="0.3697916666666669" height="0.3697916666666669" fill="#252525" />
<rect x="0.005" y="1.1293750000000007" width="0.3697916666666669" height="0.3697916666666669" fill="#252525" />
<rect x="0.3797916666666669" y="1.1293750000000007" width="0.3697916666666669" height="0.3697916666666669" fill="#54D2EB" />
<rect x="0.7545833333333338" y="1.1293750000000007" width="0.3697916666666669" height="0.3697916666666669" fill="#54D2EB" />
<rect x="1.1293750000000007" y="1.1293750000000007" width="0.3697916666666669" height="0.3697916666666669" fill="#252525" />
<rect x="1.5041666666666675" y="1.1293750000000007" width="0.3697916666666669" height="0.3697916666666669" fill="#252525" />
<rect x="1.8789583333333344" y="1.1293750000000007" width="0.3697916666666669" height="0.3697916666666669" fill="#252525" />
<rect x="2.2537500000000015" y="1.1293750000000007" width="0.3697916666666669" height="0.3697916666666669" fill="#252525" />
<rect x="2.6285416666666683" y="1.1293750000000007" width="0.3697916666666669" height="0.3697916666666669" fill="#54D2EB" />
<rect x="3.003333333333335" y="1.1293750000000007" width="0.3697916666666669" height="0.3697916666666669" fill="#252525" />
<rect x="3.378125000000002" y="1.1293750000000007" width="0.3697916666666669" height="0.3697916666666669" fill="#252525" />
<rect x="3.752916666666669" y="1.1293750000000007" width="0.3697916666666669" height="0.3697916666666669" fill="#252525" />
<rect x="4.127708333333336" y="1.1293750000000007" width="0.3697916666666669" height="0.3697916666666669" fill="#252525" />
<rect x="0.005" y="1.5041666666666675" width="0.3697916666666669" height="0.3697916666666669" fill="#252525" />
<rect x="0.3797916666666669" y="1.5041666666666675" width="0.3697916666666669" height="0.3697916666666669" fill="#252525" />
<rect x="0.7545833333333338" y="1.5041666666666675" width="0.3697916666666669" height="0.3697916666666669" fill="#252525" />
<rect x="1.1293750000000007" y="1.5041666666666675" width="0.3697916666666669" height="0.3697916666666669" fill="#252525" />
<rect x="1.5041666666666675" y="1.5041666666666675" width="0.3697916666666669" height="0.3697916666666669" fill="#252525" />
<rect x="1.8789583333333344" y="1.5041666666666675" width="0.3697916666666669" height="0.3697916666666669" fill="#54D2EB" />
<rect x="2.2537500000000015" y="1.5041666666666675" width="0.3697916666666669" height="0.3697916666666669" fill="#54D2EB" />
<rect x="2.6285416666666683" y="1.5041666666666675" width="0.3697916666666669" height="0.3697916666666669" fill="#54D2EB" />
<rect x="3.003333333333335" y="1.5041666666666675" width="0.3697916666666669" height="0.3697916666666669" fill="#54D2EB" />
<rect x="3.378125000000002" y="1.5041666666666675" width="0.3697916666666669" height="0.3697916666666669" fill="#252525" />
<rect x="3.752916666666669" y="1.5041666666666675" width="0.3697916666666669" height="0.3697916666666669" fill="#252525" />
<rect x="4.127708333333336" y="1.5041666666666675" width="0.3697916666666669" height="0.3697916666666669" fill="#252525" />
<rect x="0.005" y="1.8789583333333344" width="0.3697916666666669" height="0.3697916666666669" fill="#252525" />
<rect x="0.3797916666666669" y="1.8789583333333344" width="0.3697916666666669" height="0.3697916666666669" fill="#252525" />
<rect x="0.7545833333333338" y="1.8789583333333344" width="0.3697916666666669" height="0.3697916666666669" fill="#252525" />
<rect x="1.1293750000000007" y="1.8789583333333344" width="0.3697916666666669" height="0.3697916666666669" fill="#252525" />
<rect x="1.5041666666666675" y="1.8789583333333344" width="0.3697916666666669" height="0.3697916666666669" fill="#252525" />
<rect x="1.8789583333333344" y="1.8789583333333344" width="0.3697916666666669" height="0.3697916666666669" fill="#54D2EB" />
<rect x="2.2537500000000015" y="1.8789583333333344" width="0.3697916666666669" height="0.3697916666666669" fill="#252525" />
<rect x="2.6285416666666683" y="1.8789583333333344" width="0.3697916666666669" height="0.3697916666666669" fill="#54D2EB" />
<rect x="3.003333333333335" y="1.8789583333333344" width="0.3697916666666669" height="0.3697916666666669" fill="#252525" />
<rect x="3.378125000000002" y="1.8789583333333344" width="0.3697916666666669" height="0.3697916666666669" fill="#252525" />
<rect x="3.752916666666669" y="1.8789583333333344" width="0.3697916666666669" height="0.3697916666666669" fill="#252525" />
<rect x="4.127708333333336" y="1.8789583333333344" width="0.3697916666666669" height="0.3697916666666669" fill="#252525" />
<rect x="0.005" y="2.2537500000000015" width="0.3697916666666669" height="0.3697916666666669" fill="#252525" />
<rect x="0.3797916666666669" y="2.2537500000000015" width="0.3697916666666669" height="0.3697916666666669" fill="#252525" />
<rect x="0.7545833333333338" y="2.2537500000000015" width="0.3697916666666669" height="0.3697916666666669" fill="#252525" />
<rect x="1.1293750000000007" y="2.2537500000000015" width="0.3697916666666669" height="0.3697916666666669" fill="#252525" />
<rect x="1.5041666666666675" y="2.2537500000000015" width="0.3697916666666669" height="0.3697916666666669" fill="#252525" />
<rect x="1.8789583333333344" y="2.2537500000000015" width="0.3697916666666669" height="0.3697916666666669" fill="#252525" />
<rect x="2.2537500000000015" y="2.2537500000000015" width="0.3697916666666669" height="0.3697916666666669" fill="#252525" />
<rect x="2.6285416666666683" y="2.2537500000000015" width="0.3697916666666669" height="0.3697916666666669" fill="#252525" />
<rect x="3.003333333333335" y="2.2537500000000015" width="0.3697916666666669" height="0.3697916666666669" fill="#252525" />
<rect x="3.378125000000002" y="2.2537500000000015" width="0.3697916666666669" height="0.3697916666666669" fill="#252525" />
<rect x="3.752916666666669" y="2.2537500000000015" width="0.3697916666666669" height="0.3697916666666669" fill="#252525" />
<rect x="4.127708333333336" y="2.2537500000000015" width="0.3697916666666669" height="0.3697916666666669" fill="#252525" />
<rect x="0.005" y="2.6285416666666683" width="0.3697916666666669" height="0.3697916666666669" fill="#252525" />
<rect x="0.3797916666666669" y="2.6285416666666683" width="0.3697916666666669" height="0.3697916666666669" fill="#252525" />
<rect x="0.7545833333333338" y="2.6285416666666683" width="0.3697916666666669" height="0.3697916666666669" fill="#252525" />
<rect x="1.1293750000000007" y="2.6285416666666683" width="0.3697916666666669" height="0.3697916666666669" fill="#252525" />
<rect x="1.5041666666666675" y="2.6285416666666683" width="0.3697916666666669" height="0.3697916666666669" fill="#252525" />
<rect x="1.8789583333333344" y="2.6285416666666683" width="0.3697916666666669" height="0.3697916666666669" fill="#252525" />
<rect x="2.2537500000000015" y="2.6285416666666683" width="0.3697916666666669" height="0.3697916666666669" fill="#252525" />
<rect x="2.6285416666666683" y="2.6285416666666683" width="0.3697916666666669" height="0.3697916666666669" fill="#252525" />
<rect x="3.003333333333335" y="2.6285416666666683" width="0.3697916666666669" height="0.3697916666666669" fill="#252525" />
<rect x="3.378125000000002" y="2.6285416666666683" width="0.3697916666666669" height="0.3697916666666669" fill="#252525" />
<rect x="3.752916666666669" y="2.6285416666666683" width="0.3697916666666669" height="0.3697916666666669" fill="#252525" />
<rect x="4.127708333333336" y="2.6285416666666683" width="0.3697916666666669" height="0.3697916666666669" fill="#252525" />
<rect x="0.005" y="3.003333333333335" width="0.3697916666666669" height="0.3697916666666669" fill="#252525" />
<rect x="0.3797916666666669" y="3.003333333333335" width="0.3697916666666669" height="0.3697916666666669" fill="#252525" />
<rect x="0.7545833333333338" y="3.003333333333335" width="0.3697916666666669" height="0.3697916666666669" fill="#252525" />
<rect x="1.1293750000000007" y="3.003333333333335" width="0.3697916666666669" height="0.3697916666666669" fill="#54D2EB" />
<rect x="1.5041666666666675" y="3.003333333333335" width="0.3697916666666669" height="0.3697916666666669" fill="#54D2EB" />
<rect x="1.8789583333333344" y="3.003333333333335" width="0.3697916666666669" height="0.3697916666666669" fill="#252525" />
<rect x="2.2537500000000015" y="3.003333333333335" width="0.3697916666666669" height="0.3697916666666669" fill="#252525" />
<rect x="2.6285416666666683" y="3.003333333333335" width="0.3697916666666669" height="0.3697916666666669" fill="#252525" />
<rect x="3.003333333333335" y="3.003333333333335" width="0.3697916666666669" height="0.3697916666666669" fill="#252525" />
<rect x="3.378125000000002" y="3.003333333333335" width="0.3697916666666669" height="0.3697916666666669" fill="#252525" />
<rect x="3.752916666666669" y="3.003333333333335" width="0.3697916666666669" height="0.3697916666666669" fill="#252525" />
<rect x="4.127708333333336" y="3.003333333333335" width="0.3697916666666669" height="0.3697916666666669" fill="#252525" />
<rect x="0.005" y="3.378125000000002" width="0.3697916666666669" height="0.3697916666666669" fill="#252525" />
<rect x="0.3797916666666669" y="3.378125000000002" width="0.3697916666666669" height="0.3697916666666669" fill="#252525" />
<rect x="0.7545833333333338" y="3.378125000000002" width="0.3697916666666669" height="0.3697916666666669" fill="#252525" />
<rect x="1.1293750000000007" y="3.378125000000002" width="0.3697916666666669" height="0.3697916666666669" fill="#54D2EB" />
<rect x="1.5041666666666675" y="3.378125000000002" width="0.3697916666666669" height="0.3697916666666669" fill="#54D2EB" />
<rect x="1.8789583333333344" y="3.378125000000002" width="0.3697916666666669" height="0.3697916666666669" fill="#252525" />
<rect x="2.2537500000000015" y="3.378125000000002" width="0.3697916666666669" height="0.3697916666666669" fill="#252525" />
<rect x="2.6285416666666683" y="3.378125000000002" width="0.3697916666666669" height="0.3697916666666669" fill="#252525" />
<rect x="3.003333333333335" y="3.378125000000002" width="0.3697916666666669" height="0.3697916666666669" fill="#252525" />
<rect x="3.378125000000002" y="3.378125000000002" width="0.3697916666666669" height="0.3697916666666669" fill="#252525" />
<rect x="3.752916666666669" y="3.378125000000002" width="0.3697916666666669" height="0.3697916666666669" fill="#252525" />
<rect x="4.127708333333336" y="3.378125000000002" width="0.3697916666666669" height="0.3697916666666669" fill="#252525" />
<rect x="0.005" y="3.752916666666669" width="0.3697916666666669" height="0.3697916666666669" fill="#252525" />
<rect x="0.3797916666666669" y="3.752916666666669" width="0.3697916666666669" height="0.3697916666666669" fill="#252525" />
<rect x="0.7545833333333338" y="3.752916666666669" width="0.3697916666666669" height="0.3697916666666669" fill="#252525" />
<rect x="1.1293750000000007" y="3.752916666666669" width="0.3697916666666669" height="0.3697916666666669" fill="#252525" />
<rect x="1.5041666666666675" y="3.752916666666669" width="0.3697916666666669" height="0.3697916666666669" fill="#252525" />
<rect x="1.8789583333333344" y="3.752916666666669" width="0.3697916666666669" height="0.3697916666666669" fill="#252525" />
<rect x="2.2537500000000015" y="3.752916666666669" width="0.3697916666666669" height="0.3697916666666669" fill="#252525" />
<rect x="2.6285416666666683" y="3.752916666666669" width="0.3697916666666669" height="0.3697916666666669" fill="#252525" />
<rect x="3.003333333333335" y="3.752916666666669" width="0.3697916666666669" height="0.3697916666666669" fill="#252525" />
<rect x="3.378125000000002" y="3.752916666666669" width="0.3697916666666669" height="0.3697916666666669" fill="#252525" />
<rect x="3.752916666666669" y="3.752916666666669" width="0.3697916666666669" height="0.3697916666666669" fill="#252525" />
<rect x="4.127708333333336" y="3.752916666666669" width="0.3697916666666669" height="0.3697916666666669" fill="#252525" />
<rect x="0.005" y="4.127708333333336" width="0.3697916666666669" height="0.3697916666666669" fill="#252525" />
<rect x="0.3797916666666669" y="4.127708333333336" width="0.3697916666666669" height="0.3697916666666669" fill="#252525" />
<rect x="0.7545833333333338" y="4.127708333333336" width="0.3697916666666669" height="0.3697916666666669" fill="#252525" />
<rect x="1.1293750000000007" y="4.127708333333336" width="0.3697916666666669" height="0.3697916666666669" fill="#252525" />
<rect x="1.5041666666666675" y="4.127708333333336" width="0.3697916666666669" height="0.3697916666666669" fill="#252525" />
<rect x="1.8789583333333344" y="4.127708333333336" width="0.3697916666666669" height="0.3697916666666669" fill="#252525" />
<rect x="2.2537500000000015" y="4.127708333333336" width="0.3697916666666669" height="0.3697916666666669" fill="#252525" />
<rect x="2.6285416666666683" y="4.127708333333336" width="0.3697916666666669" height="0.3697916666666669" fill="#252525" />
<rect x="3.003333333333335" y="4.127708333333336" width="0.3697916666666669" height="0.3697916666666669" fill="#252525" />
<rect x="3.378125000000002" y="4.127708333333336" width="0.3697916666666669" height="0.3697916666666669" fill="#252525" />
<rect x="3.752916666666669" y="4.127708333333336" width="0.3697916666666669" height="0.3697916666666669" fill="#252525" />
<rect x="4.127708333333336" y="4.127708333333336" width="0.3697916666666669" height="0.3697916666666669" fill="#252525" />
<rect x="-0.02666666666666667" y="-0.02666666666666667" width="4.550833333333337" height="4.550833333333337" fill="none" stroke="#111111ff" stroke-width="0.08" />
<text x="4.497500000000003" y="4.966250000000003" font-size="0.375" fill="black" text-anchor="end" font-family="Anuphan">12x12</text>
<text x="-0.037500000000000006" y="4.966250000000003" font-size="0.375" fill="black" text-anchor="start" font-family="Anuphan" font-weight="600">Input 2</text>
</g>
<g id="d2">
<rect x="0.005" y="0.005" width="0.3697916666666669" height="0.3697916666666669" fill="#252525" />
<rect x="0.3797916666666669" y="0.005" width="0.3697916666666669" height="0.3697916666666669" fill="#252525" />
<rect x="0.7545833333333338" y="0.005" width="0.3697916666666669" height="0.3697916666666669" fill="#252525" />
<rect x="1.1293750000000007" y="0.005" width="0.3697916666666669" height="0.3697916666666669" fill="#252525" />
<rect x="1.5041666666666675" y="0.005" width="0.3697916666666669" height="0.3697916666666669" fill="#252525" />
<rect x="1.8789583333333344" y="0.005" width="0.3697916666666669" height="0.3697916666666669" fill="#252525" />
<rect x="2.2537500000000015" y="0.005" width="0.3697916666666669" height="0.3697916666666669" fill="#252525" />
<rect x="2.6285416666666683" y="0.005" width="0.3697916666666669" height="0.3697916666666669" fill="#252525" />
<rect x="3.003333333333335" y="0.005" width="0.3697916666666669" height="0.3697916666666669" fill="#252525" />
<rect x="3.378125000000002" y="0.005" width="0.3697916666666669" height="0.3697916666666669" fill="#252525" />
<rect x="3.752916666666669" y="0.005" width="0.3697916666666669" height="0.3697916666666669" fill="#252525" />
<rect x="4.127708333333336" y="0.005" width="0.3697916666666669" height="0.3697916666666669" fill="#252525" />
<rect x="0.005" y="0.3797916666666669" width="0.3697916666666669" height="0.3697916666666669" fill="#252525" />
<rect x="0.3797916666666669" y="0.3797916666666669" width="0.3697916666666669" height="0.3697916666666669" fill="#252525" />
<rect x="0.7545833333333338" y="0.3797916666666669" width="0.3697916666666669" height="0.3697916666666669" fill="#252525" />
<rect x="1.1293750000000007" y="0.3797916666666669" width="0.3697916666666669" height="0.3697916666666669" fill="#252525" />
<rect x="1.5041666666666675" y="0.3797916666666669" width="0.3697916666666669" height="0.3697916666666669" fill="#252525" />
<rect x="1.8789583333333344" y="0.3797916666666669" width="0.3697916666666669" height="0.3697916666666669" fill="#252525" />
<rect x="2.2537500000000015" y="0.3797916666666669" width="0.3697916666666669" height="0.3697916666666669" fill="#252525" />
<rect x="2.6285416666666683" y="0.3797916666666669" width="0.3697916666666669" height="0.3697916666666669" fill="#252525" />
<rect x="3.003333333333335" y="0.3797916666666669" width="0.3697916666666669" height="0.3697916666666669" fill="#252525" />
<rect x="3.378125000000002" y="0.3797916666666669" width="0.3697916666666669" height="0.3697916666666669" fill="#252525" />
<rect x="3.752916666666669" y="0.3797916666666669" width="0.3697916666666669" height="0.3697916666666669" fill="#252525" />
<rect x="4.127708333333336" y="0.3797916666666669" width="0.3697916666666669" height="0.3697916666666669" fill="#252525" />
<rect x="0.005" y="0.7545833333333338" width="0.3697916666666669" height="0.3697916666666669" fill="#252525" />
<rect x="0.3797916666666669" y="0.7545833333333338" width="0.3697916666666669" height="0.3697916666666669" fill="#252525" />
<rect x="0.7545833333333338" y="0.7545833333333338" width="0.3697916666666669" height="0.3697916666666669" fill="#54D2EB" />
<rect x="1.1293750000000007" y="0.7545833333333338" width="0.3697916666666669" height="0.3697916666666669" fill="#54D2EB" />
<rect x="1.5041666666666675" y="0.7545833333333338" width="0.3697916666666669" height="0.3697916666666669" fill="#252525" />
<rect x="1.8789583333333344" y="0.7545833333333338" width="0.3697916666666669" height="0.3697916666666669" fill="#252525" />
<rect x="2.2537500000000015" y="0.7545833333333338" width="0.3697916666666669" height="0.3697916666666669" fill="#252525" />
<rect x="2.6285416666666683" y="0.7545833333333338" width="0.3697916666666669" height="0.3697916666666669" fill="#252525" />
<rect x="3.003333333333335" y="0.7545833333333338" width="0.3697916666666669" height="0.3697916666666669" fill="#252525" />
<rect x="3.378125000000002" y="0.7545833333333338" width="0.3697916666666669" height="0.3697916666666669" fill="#252525" />
<rect x="3.752916666666669" y="0.7545833333333338" width="0.3697916666666669" height="0.3697916666666669" fill="#252525" />
<rect x="4.127708333333336" y="0.7545833333333338" width="0.3697916666666669" height="0.3697916666666669" fill="#252525" />
<rect x="0.005" y="1.1293750000000007" width="0.3697916666666669" height="0.3697916666666669" fill="#252525" />
<rect x="0.3797916666666669" y="1.1293750000000007" width="0.3697916666666669" height="0.3697916666666669" fill="#252525" />
<rect x="0.7545833333333338" y="1.1293750000000007" width="0.3697916666666669" height="0.3697916666666669" fill="#54D2EB" />
<rect x="1.1293750000000007" y="1.1293750000000007" width="0.3697916666666669" height="0.3697916666666669" fill="#54D2EB" />
<rect x="1.5041666666666675" y="1.1293750000000007" width="0.3697916666666669" height="0.3697916666666669" fill="#54D2EB" />
<rect x="1.8789583333333344" y="1.1293750000000007" width="0.3697916666666669" height="0.3697916666666669" fill="#252525" />
<rect x="2.2537500000000015" y="1.1293750000000007" width="0.3697916666666669" height="0.3697916666666669" fill="#252525" />
<rect x="2.6285416666666683" y="1.1293750000000007" width="0.3697916666666669" height="0.3697916666666669" fill="#252525" />
<rect x="3.003333333333335" y="1.1293750000000007" width="0.3697916666666669" height="0.3697916666666669" fill="#54D2EB" />
<rect x="3.378125000000002" y="1.1293750000000007" width="0.3697916666666669" height="0.3697916666666669" fill="#252525" />
<rect x="3.752916666666669" y="1.1293750000000007" width="0.3697916666666669" height="0.3697916666666669" fill="#252525" />
<rect x="4.127708333333336" y="1.1293750000000007" width="0.3697916666666669" height="0.3697916666666669" fill="#252525" />
<rect x="0.005" y="1.5041666666666675" width="0.3697916666666669" height="0.3697916666666669" fill="#252525" />
<rect x="0.3797916666666669" y="1.5041666666666675" width="0.3697916666666669" height="0.3697916666666669" fill="#252525" />
<rect x="0.7545833333333338" y="1.5041666666666675" width="0.3697916666666669" height="0.3697916666666669" fill="#252525" />
<rect x="1.1293750000000007" y="1.5041666666666675" width="0.3697916666666669" height="0.3697916666666669" fill="#54D2EB" />
<rect x="1.5041666666666675" y="1.5041666666666675" width="0.3697916666666669" height="0.3697916666666669" fill="#54D2EB" />
<rect x="1.8789583333333344" y="1.5041666666666675" width="0.3697916666666669" height="0.3697916666666669" fill="#252525" />
<rect x="2.2537500000000015" y="1.5041666666666675" width="0.3697916666666669" height="0.3697916666666669" fill="#252525" />
<rect x="2.6285416666666683" y="1.5041666666666675" width="0.3697916666666669" height="0.3697916666666669" fill="#252525" />
<rect x="3.003333333333335" y="1.5041666666666675" width="0.3697916666666669" height="0.3697916666666669" fill="#54D2EB" />
<rect x="3.378125000000002" y="1.5041666666666675" width="0.3697916666666669" height="0.3697916666666669" fill="#54D2EB" />
<rect x="3.752916666666669" y="1.5041666666666675" width="0.3697916666666669" height="0.3697916666666669" fill="#252525" />
<rect x="4.127708333333336" y="1.5041666666666675" width="0.3697916666666669" height="0.3697916666666669" fill="#252525" />
<rect x="0.005" y="1.8789583333333344" width="0.3697916666666669" height="0.3697916666666669" fill="#252525" />
<rect x="0.3797916666666669" y="1.8789583333333344" width="0.3697916666666669" height="0.3697916666666669" fill="#252525" />
<rect x="0.7545833333333338" y="1.8789583333333344" width="0.3697916666666669" height="0.3697916666666669" fill="#252525" />
<rect x="1.1293750000000007" y="1.8789583333333344" width="0.3697916666666669" height="0.3697916666666669" fill="#252525" />
<rect x="1.5041666666666675" y="1.8789583333333344" width="0.3697916666666669" height="0.3697916666666669" fill="#252525" />
<rect x="1.8789583333333344" y="1.8789583333333344" width="0.3697916666666669" height="0.3697916666666669" fill="#252525" />
<rect x="2.2537500000000015" y="1.8789583333333344" width="0.3697916666666669" height="0.3697916666666669" fill="#252525" />
<rect x="2.6285416666666683" y="1.8789583333333344" width="0.3697916666666669" height="0.3697916666666669" fill="#252525" />
<rect x="3.003333333333335" y="1.8789583333333344" width="0.3697916666666669" height="0.3697916666666669" fill="#54D2EB" />
<rect x="3.378125000000002" y="1.8789583333333344" width="0.3697916666666669" height="0.3697916666666669" fill="#252525" />
<rect x="3.752916666666669" y="1.8789583333333344" width="0.3697916666666669" height="0.3697916666666669" fill="#252525" />
<rect x="4.127708333333336" y="1.8789583333333344" width="0.3697916666666669" height="0.3697916666666669" fill="#252525" />
<rect x="0.005" y="2.2537500000000015" width="0.3697916666666669" height="0.3697916666666669" fill="#252525" />
<rect x="0.3797916666666669" y="2.2537500000000015" width="0.3697916666666669" height="0.3697916666666669" fill="#252525" />
<rect x="0.7545833333333338" y="2.2537500000000015" width="0.3697916666666669" height="0.3697916666666669" fill="#252525" />
<rect x="1.1293750000000007" y="2.2537500000000015" width="0.3697916666666669" height="0.3697916666666669" fill="#252525" />
<rect x="1.5041666666666675" y="2.2537500000000015" width="0.3697916666666669" height="0.3697916666666669" fill="#252525" />
<rect x="1.8789583333333344" y="2.2537500000000015" width="0.3697916666666669" height="0.3697916666666669" fill="#252525" />
<rect x="2.2537500000000015" y="2.2537500000000015" width="0.3697916666666669" height="0.3697916666666669" fill="#252525" />
<rect x="2.6285416666666683" y="2.2537500000000015" width="0.3697916666666669" height="0.3697916666666669" fill="#252525" />
<rect x="3.003333333333335" y="2.2537500000000015" width="0.3697916666666669" height="0.3697916666666669" fill="#252525" />
<rect x="3.378125000000002" y="2.2537500000000015" width="0.3697916666666669" height="0.3697916666666669" fill="#252525" />
<rect x="3.752916666666669" y="2.2537500000000015" width="0.3697916666666669" height="0.3697916666666669" fill="#252525" />
<rect x="4.127708333333336" y="2.2537500000000015" width="0.3697916666666669" height="0.3697916666666669" fill="#252525" />
<rect x="0.005" y="2.6285416666666683" width="0.3697916666666669" height="0.3697916666666669" fill="#252525" />
<rect x="0.3797916666666669" y="2.6285416666666683" width="0.3697916666666669" height="0.3697916666666669" fill="#252525" />
<rect x="0.7545833333333338" y="2.6285416666666683" width="0.3697916666666669" height="0.3697916666666669" fill="#252525" />
<rect x="1.1293750000000007" y="2.6285416666666683" width="0.3697916666666669" height="0.3697916666666669" fill="#252525" />
<rect x="1.5041666666666675" y="2.6285416666666683" width="0.3697916666666669" height="0.3697916666666669" fill="#252525" />
<rect x="1.8789583333333344" y="2.6285416666666683" width="0.3697916666666669" height="0.3697916666666669" fill="#252525" />
<rect x="2.2537500000000015" y="2.6285416666666683" width="0.3697916666666669" height="0.3697916666666669" fill="#252525" />
<rect x="2.6285416666666683" y="2.6285416666666683" width="0.3697916666666669" height="0.3697916666666669" fill="#252525" />
<rect x="3.003333333333335" y="2.6285416666666683" width="0.3697916666666669" height="0.3697916666666669" fill="#252525" />
<rect x="3.378125000000002" y="2.6285416666666683" width="0.3697916666666669" height="0.3697916666666669" fill="#252525" />
<rect x="3.752916666666669" y="2.6285416666666683" width="0.3697916666666669" height="0.3697916666666669" fill="#252525" />
<rect x="4.127708333333336" y="2.6285416666666683" width="0.3697916666666669" height="0.3697916666666669" fill="#252525" />
<rect x="-0.02666666666666667" y="-0.02666666666666667" width="4.550833333333337" height="3.0516666666666685" fill="none" stroke="#111111ff" stroke-width="0.08" />
<text x="4.497500000000003" y="3.4670833333333353" font-size="0.375" fill="black" text-anchor="end" font-family="Anuphan">12x8</text>
<text x="-0.037500000000000006" y="3.4670833333333353" font-size="0.375" fill="black" text-anchor="start" font-family="Anuphan" font-weight="600">Input 3</text>
</g>
<g id="d3">
<rect x="0.005" y="0.005" width="0.35666666666666663" height="0.35666666666666663" fill="#252525" />
<rect x="0.36666666666666664" y="0.005" width="0.35666666666666663" height="0.35666666666666663" fill="#252525" />
<rect x="0.7283333333333333" y="0.005" width="0.35666666666666663" height="0.35666666666666663" fill="#252525" />
<rect x="1.0899999999999999" y="0.005" width="0.35666666666666663" height="0.35666666666666663" fill="#252525" />
<rect x="1.4516666666666664" y="0.005" width="0.35666666666666663" height="0.35666666666666663" fill="#252525" />
<rect x="1.813333333333333" y="0.005" width="0.35666666666666663" height="0.35666666666666663" fill="#252525" />
<rect x="2.175" y="0.005" width="0.35666666666666663" height="0.35666666666666663" fill="#252525" />
<rect x="2.536666666666666" y="0.005" width="0.35666666666666663" height="0.35666666666666663" fill="#252525" />
<rect x="2.898333333333333" y="0.005" width="0.35666666666666663" height="0.35666666666666663" fill="#252525" />
<rect x="3.26" y="0.005" width="0.35666666666666663" height="0.35666666666666663" fill="#252525" />
<rect x="3.621666666666666" y="0.005" width="0.35666666666666663" height="0.35666666666666663" fill="#252525" />
<rect x="3.983333333333333" y="0.005" width="0.35666666666666663" height="0.35666666666666663" fill="#252525" />
<rect x="0.005" y="0.36666666666666664" width="0.35666666666666663" height="0.35666666666666663" fill="#252525" />
<rect x="0.36666666666666664" y="0.36666666666666664" width="0.35666666666666663" height="0.35666666666666663" fill="#252525" />
<rect x="0.7283333333333333" y="0.36666666666666664" width="0.35666666666666663" height="0.35666666666666663" fill="#252525" />
<rect x="1.0899999999999999" y="0.36666666666666664" width="0.35666666666666663" height="0.35666666666666663" fill="#252525" />
<rect x="1.4516666666666664" y="0.36666666666666664" width="0.35666666666666663" height="0.35666666666666663" fill="#252525" />
<rect x="1.813333333333333" y="0.36666666666666664" width="0.35666666666666663" height="0.35666666666666663" fill="#252525" />
<rect x="2.175" y="0.36666666666666664" width="0.35666666666666663" height="0.35666666666666663" fill="#252525" />
<rect x="2.536666666666666" y="0.36666666666666664" width="0.35666666666666663" height="0.35666666666666663" fill="#252525" />
<rect x="2.898333333333333" y="0.36666666666666664" width="0.35666666666666663" height="0.35666666666666663" fill="#252525" />
<rect x="3.26" y="0.36666666666666664" width="0.35666666666666663" height="0.35666666666666663" fill="#54D2EB" />
<rect x="3.621666666666666" y="0.36666666666666664" width="0.35666666666666663" height="0.35666666666666663" fill="#252525" />
<rect x="3.983333333333333" y="0.36666666666666664" width="0.35666666666666663" height="0.35666666666666663" fill="#252525" />
<rect x="0.005" y="0.7283333333333333" width="0.35666666666666663" height="0.35666666666666663" fill="#252525" />
<rect x="0.36666666666666664" y="0.7283333333333333" width="0.35666666666666663" height="0.35666666666666663" fill="#252525" />
<rect x="0.7283333333333333" y="0.7283333333333333" width="0.35666666666666663" height="0.35666666666666663" fill="#252525" />
<rect x="1.0899999999999999" y="0.7283333333333333" width="0.35666666666666663" height="0.35666666666666663" fill="#252525" />
<rect x="1.4516666666666664" y="0.7283333333333333" width="0.35666666666666663" height="0.35666666666666663" fill="#252525" />
<rect x="1.813333333333333" y="0.7283333333333333" width="0.35666666666666663" height="0.35666666666666663" fill="#54D2EB" />
<rect x="2.175" y="0.7283333333333333" width="0.35666666666666663" height="0.35666666666666663" fill="#252525" />
<rect x="2.536666666666666" y="0.7283333333333333" width="0.35666666666666663" height="0.35666666666666663" fill="#252525" />
<rect x="2.898333333333333" y="0.7283333333333333" width="0.35666666666666663" height="0.35666666666666663" fill="#54D2EB" />
<rect x="3.26" y="0.7283333333333333" width="0.35666666666666663" height="0.35666666666666663" fill="#54D2EB" />
<rect x="3.621666666666666" y="0.7283333333333333" width="0.35666666666666663" height="0.35666666666666663" fill="#252525" />
<rect x="3.983333333333333" y="0.7283333333333333" width="0.35666666666666663" height="0.35666666666666663" fill="#252525" />
<rect x="0.005" y="1.0899999999999999" width="0.35666666666666663" height="0.35666666666666663" fill="#252525" />
<rect x="0.36666666666666664" y="1.0899999999999999" width="0.35666666666666663" height="0.35666666666666663" fill="#252525" />
<rect x="0.7283333333333333" y="1.0899999999999999" width="0.35666666666666663" height="0.35666666666666663" fill="#252525" />
<rect x="1.0899999999999999" y="1.0899999999999999" width="0.35666666666666663" height="0.35666666666666663" fill="#54D2EB" />
<rect x="1.4516666666666664" y="1.0899999999999999" width="0.35666666666666663" height="0.35666666666666663" fill="#54D2EB" />
<rect x="1.813333333333333" y="1.0899999999999999" width="0.35666666666666663" height="0.35666666666666663" fill="#54D2EB" />
<rect x="2.175" y="1.0899999999999999" width="0.35666666666666663" height="0.35666666666666663" fill="#252525" />
<rect x="2.536666666666666" y="1.0899999999999999" width="0.35666666666666663" height="0.35666666666666663" fill="#252525" />
<rect x="2.898333333333333" y="1.0899999999999999" width="0.35666666666666663" height="0.35666666666666663" fill="#54D2EB" />
<rect x="3.26" y="1.0899999999999999" width="0.35666666666666663" height="0.35666666666666663" fill="#54D2EB" />
<rect x="3.621666666666666" y="1.0899999999999999" width="0.35666666666666663" height="0.35666666666666663" fill="#252525" />
<rect x="3.983333333333333" y="1.0899999999999999" width="0.35666666666666663" height="0.35666666666666663" fill="#252525" />
<rect x="0.005" y="1.4516666666666664" width="0.35666666666666663" height="0.35666666666666663" fill="#252525" />
<rect x="0.36666666666666664" y="1.4516666666666664" width="0.35666666666666663" height="0.35666666666666663" fill="#252525" />
<rect x="0.7283333333333333" y="1.4516666666666664" width="0.35666666666666663" height="0.35666666666666663" fill="#252525" />
<rect x="1.0899999999999999" y="1.4516666666666664" width="0.35666666666666663" height="0.35666666666666663" fill="#252525" />
<rect x="1.4516666666666664" y="1.4516666666666664" width="0.35666666666666663" height="0.35666666666666663" fill="#54D2EB" />
<rect x="1.813333333333333" y="1.4516666666666664" width="0.35666666666666663" height="0.35666666666666663" fill="#54D2EB" />
<rect x="2.175" y="1.4516666666666664" width="0.35666666666666663" height="0.35666666666666663" fill="#252525" />
<rect x="2.536666666666666" y="1.4516666666666664" width="0.35666666666666663" height="0.35666666666666663" fill="#252525" />
<rect x="2.898333333333333" y="1.4516666666666664" width="0.35666666666666663" height="0.35666666666666663" fill="#252525" />
<rect x="3.26" y="1.4516666666666664" width="0.35666666666666663" height="0.35666666666666663" fill="#252525" />
<rect x="3.621666666666666" y="1.4516666666666664" width="0.35666666666666663" height="0.35666666666666663" fill="#252525" />
<rect x="3.983333333333333" y="1.4516666666666664" width="0.35666666666666663" height="0.35666666666666663" fill="#252525" />
<rect x="0.005" y="1.813333333333333" width="0.35666666666666663" height="0.35666666666666663" fill="#252525" />
<rect x="0.36666666666666664" y="1.813333333333333" width="0.35666666666666663" height="0.35666666666666663" fill="#252525" />
<rect x="0.7283333333333333" y="1.813333333333333" width="0.35666666666666663" height="0.35666666666666663" fill="#252525" />
<rect x="1.0899999999999999" y="1.813333333333333" width="0.35666666666666663" height="0.35666666666666663" fill="#252525" />
<rect x="1.4516666666666664" y="1.813333333333333" width="0.35666666666666663" height="0.35666666666666663" fill="#252525" />
<rect x="1.813333333333333" y="1.813333333333333" width="0.35666666666666663" height="0.35666666666666663" fill="#252525" />
<rect x="2.175" y="1.813333333333333" width="0.35666666666666663" height="0.35666666666666663" fill="#252525" />
<rect x="2.536666666666666" y="1.813333333333333" width="0.35666666666666663" height="0.35666666666666663" fill="#252525" />
<rect x="2.898333333333333" y="1.813333333333333" width="0.35666666666666663" height="0.35666666666666663" fill="#252525" />
<rect x="3.26" y="1.813333333333333" width="0.35666666666666663" height="0.35666666666666663" fill="#252525" />
<rect x="3.621666666666666" y="1.813333333333333" width="0.35666666666666663" height="0.35666666666666663" fill="#252525" />
<rect x="3.983333333333333" y="1.813333333333333" width="0.35666666666666663" height="0.35666666666666663" fill="#252525" />
<rect x="0.005" y="2.175" width="0.35666666666666663" height="0.35666666666666663" fill="#252525" />
<rect x="0.36666666666666664" y="2.175" width="0.35666666666666663" height="0.35666666666666663" fill="#252525" />
<rect x="0.7283333333333333" y="2.175" width="0.35666666666666663" height="0.35666666666666663" fill="#252525" />
<rect x="1.0899999999999999" y="2.175" width="0.35666666666666663" height="0.35666666666666663" fill="#252525" />
<rect x="1.4516666666666664" y="2.175" width="0.35666666666666663" height="0.35666666666666663" fill="#252525" />
<rect x="1.813333333333333" y="2.175" width="0.35666666666666663" height="0.35666666666666663" fill="#252525" />
<rect x="2.175" y="2.175" width="0.35666666666666663" height="0.35666666666666663" fill="#252525" />
<rect x="2.536666666666666" y="2.175" width="0.35666666666666663" height="0.35666666666666663" fill="#252525" />
<rect x="2.898333333333333" y="2.175" width="0.35666666666666663" height="0.35666666666666663" fill="#252525" />
<rect x="3.26" y="2.175" width="0.35666666666666663" height="0.35666666666666663" fill="#252525" />
<rect x="3.621666666666666" y="2.175" width="0.35666666666666663" height="0.35666666666666663" fill="#252525" />
<rect x="3.983333333333333" y="2.175" width="0.35666666666666663" height="0.35666666666666663" fill="#252525" />
<rect x="0.005" y="2.536666666666666" width="0.35666666666666663" height="0.35666666666666663" fill="#252525" />
<rect x="0.36666666666666664" y="2.536666666666666" width="0.35666666666666663" height="0.35666666666666663" fill="#252525" />
<rect x="0.7283333333333333" y="2.536666666666666" width="0.35666666666666663" height="0.35666666666666663" fill="#252525" />
<rect x="1.0899999999999999" y="2.536666666666666" width="0.35666666666666663" height="0.35666666666666663" fill="#252525" />
<rect x="1.4516666666666664" y="2.536666666666666" width="0.35666666666666663" height="0.35666666666666663" fill="#252525" />
<rect x="1.813333333333333" y="2.536666666666666" width="0.35666666666666663" height="0.35666666666666663" fill="#252525" />
<rect x="2.175" y="2.536666666666666" width="0.35666666666666663" height="0.35666666666666663" fill="#252525" />
<rect x="2.536666666666666" y="2.536666666666666" width="0.35666666666666663" height="0.35666666666666663" fill="#252525" />
<rect x="2.898333333333333" y="2.536666666666666" width="0.35666666666666663" height="0.35666666666666663" fill="#252525" />
<rect x="3.26" y="2.536666666666666" width="0.35666666666666663" height="0.35666666666666663" fill="#252525" />
<rect x="3.621666666666666" y="2.536666666666666" width="0.35666666666666663" height="0.35666666666666663" fill="#252525" />
<rect x="3.983333333333333" y="2.536666666666666" width="0.35666666666666663" height="0.35666666666666663" fill="#252525" />
<rect x="0.005" y="2.898333333333333" width="0.35666666666666663" height="0.35666666666666663" fill="#252525" />
<rect x="0.36666666666666664" y="2.898333333333333" width="0.35666666666666663" height="0.35666666666666663" fill="#252525" />
<rect x="0.7283333333333333" y="2.898333333333333" width="0.35666666666666663" height="0.35666666666666663" fill="#252525" />
<rect x="1.0899999999999999" y="2.898333333333333" width="0.35666666666666663" height="0.35666666666666663" fill="#252525" />
<rect x="1.4516666666666664" y="2.898333333333333" width="0.35666666666666663" height="0.35666666666666663" fill="#252525" />
<rect x="1.813333333333333" y="2.898333333333333" width="0.35666666666666663" height="0.35666666666666663" fill="#252525" />
<rect x="2.175" y="2.898333333333333" width="0.35666666666666663" height="0.35666666666666663" fill="#252525" />
<rect x="2.536666666666666" y="2.898333333333333" width="0.35666666666666663" height="0.35666666666666663" fill="#252525" />
<rect x="2.898333333333333" y="2.898333333333333" width="0.35666666666666663" height="0.35666666666666663" fill="#252525" />
<rect x="3.26" y="2.898333333333333" width="0.35666666666666663" height="0.35666666666666663" fill="#252525" />
<rect x="3.621666666666666" y="2.898333333333333" width="0.35666666666666663" height="0.35666666666666663" fill="#252525" />
<rect x="3.983333333333333" y="2.898333333333333" width="0.35666666666666663" height="0.35666666666666663" fill="#252525" />
<rect x="0.005" y="3.26" width="0.35666666666666663" height="0.35666666666666663" fill="#252525" />
<rect x="0.36666666666666664" y="3.26" width="0.35666666666666663" height="0.35666666666666663" fill="#54D2EB" />
<rect x="0.7283333333333333" y="3.26" width="0.35666666666666663" height="0.35666666666666663" fill="#54D2EB" />
<rect x="1.0899999999999999" y="3.26" width="0.35666666666666663" height="0.35666666666666663" fill="#252525" />
<rect x="1.4516666666666664" y="3.26" width="0.35666666666666663" height="0.35666666666666663" fill="#252525" />
<rect x="1.813333333333333" y="3.26" width="0.35666666666666663" height="0.35666666666666663" fill="#252525" />
<rect x="2.175" y="3.26" width="0.35666666666666663" height="0.35666666666666663" fill="#252525" />
<rect x="2.536666666666666" y="3.26" width="0.35666666666666663" height="0.35666666666666663" fill="#252525" />
<rect x="2.898333333333333" y="3.26" width="0.35666666666666663" height="0.35666666666666663" fill="#54D2EB" />
<rect x="3.26" y="3.26" width="0.35666666666666663" height="0.35666666666666663" fill="#54D2EB" />
<rect x="3.621666666666666" y="3.26" width="0.35666666666666663" height="0.35666666666666663" fill="#252525" />
<rect x="3.983333333333333" y="3.26" width="0.35666666666666663" height="0.35666666666666663" fill="#252525" />
<rect x="0.005" y="3.621666666666666" width="0.35666666666666663" height="0.35666666666666663" fill="#252525" />
<rect x="0.36666666666666664" y="3.621666666666666" width="0.35666666666666663" height="0.35666666666666663" fill="#252525" />
<rect x="0.7283333333333333" y="3.621666666666666" width="0.35666666666666663" height="0.35666666666666663" fill="#54D2EB" />
<rect x="1.0899999999999999" y="3.621666666666666" width="0.35666666666666663" height="0.35666666666666663" fill="#54D2EB" />
<rect x="1.4516666666666664" y="3.621666666666666" width="0.35666666666666663" height="0.35666666666666663" fill="#252525" />
<rect x="1.813333333333333" y="3.621666666666666" width="0.35666666666666663" height="0.35666666666666663" fill="#252525" />
<rect x="2.175" y="3.621666666666666" width="0.35666666666666663" height="0.35666666666666663" fill="#252525" />
<rect x="2.536666666666666" y="3.621666666666666" width="0.35666666666666663" height="0.35666666666666663" fill="#252525" />
<rect x="2.898333333333333" y="3.621666666666666" width="0.35666666666666663" height="0.35666666666666663" fill="#54D2EB" />
<rect x="3.26" y="3.621666666666666" width="0.35666666666666663" height="0.35666666666666663" fill="#54D2EB" />
<rect x="3.621666666666666" y="3.621666666666666" width="0.35666666666666663" height="0.35666666666666663" fill="#54D2EB" />
<rect x="3.983333333333333" y="3.621666666666666" width="0.35666666666666663" height="0.35666666666666663" fill="#252525" />
<rect x="0.005" y="3.983333333333333" width="0.35666666666666663" height="0.35666666666666663" fill="#252525" />
<rect x="0.36666666666666664" y="3.983333333333333" width="0.35666666666666663" height="0.35666666666666663" fill="#252525" />
<rect x="0.7283333333333333" y="3.983333333333333" width="0.35666666666666663" height="0.35666666666666663" fill="#252525" />
<rect x="1.0899999999999999" y="3.983333333333333" width="0.35666666666666663" height="0.35666666666666663" fill="#54D2EB" />
<rect x="1.4516666666666664" y="3.983333333333333" width="0.35666666666666663" height="0.35666666666666663" fill="#252525" />
<rect x="1.813333333333333" y="3.983333333333333" width="0.35666666666666663" height="0.35666666666666663" fill="#252525" />
<rect x="2.175" y="3.983333333333333" width="0.35666666666666663" height="0.35666666666666663" fill="#252525" />
<rect x="2.536666666666666" y="3.983333333333333" width="0.35666666666666663" height="0.35666666666666663" fill="#252525" />
<rect x="2.898333333333333" y="3.983333333333333" width="0.35666666666666663" height="0.35666666666666663" fill="#252525" />
<rect x="3.26" y="3.983333333333333" width="0.35666666666666663" height="0.35666666666666663" fill="#252525" />
<rect x="3.621666666666666" y="3.983333333333333" width="0.35666666666666663" height="0.35666666666666663" fill="#252525" />
<rect x="3.983333333333333" y="3.983333333333333" width="0.35666666666666663" height="0.35666666666666663" fill="#252525" />
<rect x="0.005" y="4.345" width="0.35666666666666663" height="0.35666666666666663" fill="#252525" />
<rect x="0.36666666666666664" y="4.345" width="0.35666666666666663" height="0.35666666666666663" fill="#252525" />
<rect x="0.7283333333333333" y="4.345" width="0.35666666666666663" height="0.35666666666666663" fill="#252525" />
<rect x="1.0899999999999999" y="4.345" width="0.35666666666666663" height="0.35666666666666663" fill="#252525" />
<rect x="1.4516666666666664" y="4.345" width="0.35666666666666663" height="0.35666666666666663" fill="#252525" />
<rect x="1.813333333333333" y="4.345" width="0.35666666666666663" height="0.35666666666666663" fill="#252525" />
<rect x="2.175" y="4.345" width="0.35666666666666663" height="0.35666666666666663" fill="#252525" />
<rect x="2.536666666666666" y="4.345" width="0.35666666666666663" height="0.35666666666666663" fill="#252525" />
<rect x="2.898333333333333" y="4.345" width="0.35666666666666663" height="0.35666666666666663" fill="#252525" />
<rect x="3.26" y="4.345" width="0.35666666666666663" height="0.35666666666666663" fill="#252525" />
<rect x="3.621666666666666" y="4.345" width="0.35666666666666663" height="0.35666666666666663" fill="#252525" />
<rect x="3.983333333333333" y="4.345" width="0.35666666666666663" height="0.35666666666666663" fill="#252525" />
<rect x="0.005" y="4.706666666666666" width="0.35666666666666663" height="0.35666666666666663" fill="#252525" />
<rect x="0.36666666666666664" y="4.706666666666666" width="0.35666666666666663" height="0.35666666666666663" fill="#252525" />
<rect x="0.7283333333333333" y="4.706666666666666" width="0.35666666666666663" height="0.35666666666666663" fill="#252525" />
<rect x="1.0899999999999999" y="4.706666666666666" width="0.35666666666666663" height="0.35666666666666663" fill="#252525" />
<rect x="1.4516666666666664" y="4.706666666666666" width="0.35666666666666663" height="0.35666666666666663" fill="#252525" />
<rect x="1.813333333333333" y="4.706666666666666" width="0.35666666666666663" height="0.35666666666666663" fill="#252525" />
<rect x="2.175" y="4.706666666666666" width="0.35666666666666663" height="0.35666666666666663" fill="#54D2EB" />
<rect x="2.536666666666666" y="4.706666666666666" width="0.35666666666666663" height="0.35666666666666663" fill="#54D2EB" />
<rect x="2.898333333333333" y="4.706666666666666" width="0.35666666666666663" height="0.35666666666666663" fill="#252525" />
<rect x="3.26" y="4.706666666666666" width="0.35666666666666663" height="0.35666666666666663" fill="#252525" />
<rect x="3.621666666666666" y="4.706666666666666" width="0.35666666666666663" height="0.35666666666666663" fill="#252525" />
<rect x="3.983333333333333" y="4.706666666666666" width="0.35666666666666663" height="0.35666666666666663" fill="#252525" />
<rect x="0.005" y="5.0683333333333325" width="0.35666666666666663" height="0.35666666666666663" fill="#252525" />
<rect x="0.36666666666666664" y="5.0683333333333325" width="0.35666666666666663" height="0.35666666666666663" fill="#252525" />
<rect x="0.7283333333333333" y="5.0683333333333325" width="0.35666666666666663" height="0.35666666666666663" fill="#252525" />
<rect x="1.0899999999999999" y="5.0683333333333325" width="0.35666666666666663" height="0.35666666666666663" fill="#252525" />
<rect x="1.4516666666666664" y="5.0683333333333325" width="0.35666666666666663" height="0.35666666666666663" fill="#252525" />
<rect x="1.813333333333333" y="5.0683333333333325" width="0.35666666666666663" height="0.35666666666666663" fill="#252525" />
<rect x="2.175" y="5.0683333333333325" width="0.35666666666666663" height="0.35666666666666663" fill="#252525" />
<rect x="2.536666666666666" y="5.0683333333333325" width="0.35666666666666663" height="0.35666666666666663" fill="#252525" />
<rect x="2.898333333333333" y="5.0683333333333325" width="0.35666666666666663" height="0.35666666666666663" fill="#252525" />
<rect x="3.26" y="5.0683333333333325" width="0.35666666666666663" height="0.35666666666666663" fill="#252525" />
<rect x="3.621666666666666" y="5.0683333333333325" width="0.35666666666666663" height="0.35666666666666663" fill="#252525" />
<rect x="3.983333333333333" y="5.0683333333333325" width="0.35666666666666663" height="0.35666666666666663" fill="#252525" />
<rect x="-0.02666666666666667" y="-0.02666666666666667" width="4.3933333333333335" height="5.4783333333333335" fill="none" stroke="#111111ff" stroke-width="0.08" />
<text x="4.34" y="5.89375" font-size="0.375" fill="black" text-anchor="end" font-family="Anuphan">12x15</text>
<text x="-0.037500000000000006" y="5.89375" font-size="0.375" fill="black" text-anchor="start" font-family="Anuphan" font-weight="600">Test 1</text>
</g>
<g id="d4">
<rect x="0.005" y="0.005" width="1.119375000000001" height="1.119375000000001" fill="#54D2EB" />
<rect x="1.1293750000000007" y="0.005" width="1.119375000000001" height="1.119375000000001" fill="#252525" />
<rect x="2.2537500000000015" y="0.005" width="1.119375000000001" height="1.119375000000001" fill="#252525" />
<rect x="3.3781250000000025" y="0.005" width="1.119375000000001" height="1.119375000000001" fill="#252525" />
<rect x="0.005" y="1.1293750000000007" width="1.119375000000001" height="1.119375000000001" fill="#252525" />
<rect x="1.1293750000000007" y="1.1293750000000007" width="1.119375000000001" height="1.119375000000001" fill="#54D2EB" />
<rect x="2.2537500000000015" y="1.1293750000000007" width="1.119375000000001" height="1.119375000000001" fill="#252525" />
<rect x="3.3781250000000025" y="1.1293750000000007" width="1.119375000000001" height="1.119375000000001" fill="#252525" />
<rect x="0.005" y="2.2537500000000015" width="1.119375000000001" height="1.119375000000001" fill="#252525" />
<rect x="1.1293750000000007" y="2.2537500000000015" width="1.119375000000001" height="1.119375000000001" fill="#252525" />
<rect x="2.2537500000000015" y="2.2537500000000015" width="1.119375000000001" height="1.119375000000001" fill="#54D2EB" />
<rect x="3.3781250000000025" y="2.2537500000000015" width="1.119375000000001" height="1.119375000000001" fill="#252525" />
<rect x="0.005" y="3.3781250000000025" width="1.119375000000001" height="1.119375000000001" fill="#252525" />
<rect x="1.1293750000000007" y="3.3781250000000025" width="1.119375000000001" height="1.119375000000001" fill="#252525" />
<rect x="2.2537500000000015" y="3.3781250000000025" width="1.119375000000001" height="1.119375000000001" fill="#252525" />
<rect x="3.3781250000000025" y="3.3781250000000025" width="1.119375000000001" height="1.119375000000001" fill="#54D2EB" />
<rect x="-0.02666666666666667" y="-0.02666666666666667" width="4.550833333333337" height="4.550833333333337" fill="none" stroke="#111111ff" stroke-width="0.08" />
<text x="4.497500000000003" y="4.966250000000003" font-size="0.375" fill="black" text-anchor="end" font-family="Anuphan">4x4</text>
<text x="-0.037500000000000006" y="4.966250000000003" font-size="0.375" fill="black" text-anchor="start" font-family="Anuphan" font-weight="600">Output 1</text>
</g>
<g id="d5">
<rect x="0.005" y="0.005" width="1.4941666666666678" height="1.4941666666666678" fill="#54D2EB" />
<rect x="1.5041666666666675" y="0.005" width="1.4941666666666678" height="1.4941666666666678" fill="#252525" />
<rect x="3.003333333333335" y="0.005" width="1.4941666666666678" height="1.4941666666666678" fill="#252525" />
<rect x="0.005" y="1.5041666666666675" width="1.4941666666666678" height="1.4941666666666678" fill="#252525" />
<rect x="1.5041666666666675" y="1.5041666666666675" width="1.4941666666666678" height="1.4941666666666678" fill="#54D2EB" />
<rect x="3.003333333333335" y="1.5041666666666675" width="1.4941666666666678" height="1.4941666666666678" fill="#252525" />
<rect x="0.005" y="3.003333333333335" width="1.4941666666666678" height="1.4941666666666678" fill="#252525" />
<rect x="1.5041666666666675" y="3.003333333333335" width="1.4941666666666678" height="1.4941666666666678" fill="#252525" />
<rect x="3.003333333333335" y="3.003333333333335" width="1.4941666666666678" height="1.4941666666666678" fill="#54D2EB" />
<rect x="-0.02666666666666667" y="-0.02666666666666667" width="4.550833333333337" height="4.550833333333337" fill="none" stroke="#111111ff" stroke-width="0.08" />
<text x="4.497500000000003" y="4.966250000000003" font-size="0.375" fill="black" text-anchor="end" font-family="Anuphan">3x3</text>
<text x="-0.037500000000000006" y="4.966250000000003" font-size="0.375" fill="black" text-anchor="start" font-family="Anuphan" font-weight="600">Output 2</text>
</g>
<g id="d6">
<rect x="0.005" y="0.005" width="2.2437500000000017" height="2.2437500000000017" fill="#54D2EB" />
<rect x="2.2537500000000015" y="0.005" width="2.2437500000000017" height="2.2437500000000017" fill="#252525" />
<rect x="0.005" y="2.2537500000000015" width="2.2437500000000017" height="2.2437500000000017" fill="#252525" />
<rect x="2.2537500000000015" y="2.2537500000000015" width="2.2437500000000017" height="2.2437500000000017" fill="#54D2EB" />
<rect x="-0.02666666666666667" y="-0.02666666666666667" width="4.550833333333337" height="4.550833333333337" fill="none" stroke="#111111ff" stroke-width="0.08" />
<text x="4.497500000000003" y="4.966250000000003" font-size="0.375" fill="black" text-anchor="end" font-family="Anuphan">2x2</text>
<text x="-0.037500000000000006" y="4.966250000000003" font-size="0.375" fill="black" text-anchor="start" font-family="Anuphan" font-weight="600">Output 3</text>
</g>
</defs>
<rect x="0" y="0" width="100%" height="100%" fill="#eeeff6" />
<use xlink:href="#d0" x="0.8034375000000016" y="0.25" />
<use xlink:href="#d1" x="5.247500000000003" y="0.25" />
<use xlink:href="#d2" x="10.245000000000006" y="0.25" />
<use xlink:href="#d3" x="15.321250000000012" y="0.25" />
<path d="M1.9453125,6.325 L1.9453125,6.7250000000000005" stroke-width="0.05" stroke="#888888" />
<path d="M1.7953125,6.525 L1.9453125,6.7250000000000005" stroke-width="0.05" stroke="#888888" />
<path d="M2.0953125,6.525 L1.9453125,6.7250000000000005" stroke-width="0.05" stroke="#888888" />
<use xlink:href="#d4" x="0.25" y="7.075" />
<path d="M7.496250000000005,6.325 L7.496250000000005,6.7250000000000005" stroke-width="0.05" stroke="#888888" />
<path d="M7.346250000000005,6.525 L7.496250000000005,6.7250000000000005" stroke-width="0.05" stroke="#888888" />
<path d="M7.6462500000000055,6.525 L7.496250000000005,6.7250000000000005" stroke-width="0.05" stroke="#888888" />
<use xlink:href="#d5" x="5.247500000000003" y="7.075" />
<path d="M12.493750000000007,6.325 L12.493750000000007,6.7250000000000005" stroke-width="0.05" stroke="#888888" />
<path d="M12.343750000000007,6.525 L12.493750000000007,6.7250000000000005" stroke-width="0.05" stroke="#888888" />
<path d="M12.643750000000008,6.525 L12.493750000000007,6.7250000000000005" stroke-width="0.05" stroke="#888888" />
<use xlink:href="#d6" x="10.245000000000006" y="7.075" />
<path d="M17.41250000000001,6.325 L17.41250000000001,6.7250000000000005" stroke-width="0.05" stroke="#888888" />
<path d="M17.26250000000001,6.525 L17.41250000000001,6.7250000000000005" stroke-width="0.05" stroke="#888888" />
<path d="M17.562500000000007,6.525 L17.41250000000001,6.7250000000000005" stroke-width="0.05" stroke="#888888" />
<text x="17.49125000000001" y="9.423750000000002" font-size="1" font-family="Anuphan" font-weight="700" fill="#333333" text-anchor="middle" alignment-baseline="middle">?</text>
<text x="19.9" y="12.4" font-size="0.3" font-family="Anuphan" font-weight="600" fill="#666666" text-anchor="end" alignment-baseline="bottom">Task d0f5fe59</text>
</svg>