<?xml version="1.0" encoding="UTF-8"?>
<svg xmlns="http://www.w3.org/2000/svg" xmlns:xlink="http://www.w3.org/1999/xlink"
     width="728.0" height="536.0" viewBox="0 0 18.2 13.399999999999999">
<defs>
<g id="d0">
<rect x="0.005" y="0.005" width="0.5363095238095182" height="0.5363095238095182" fill="#252525" />
<rect x="0.5463095238095182" y="0.005" width="0.5363095238095182" height="0.5363095238095182" fill="#FF4136" />
<rect x="1.0876190476190364" y="0.005" width="0.5363095238095182" height="0.5363095238095182" fill="#FF4136" />
<rect x="1.6289285714285546" y="0.005" width="0.5363095238095182" height="0.5363095238095182" fill="#252525" />
<rect x="2.170238095238073" y="0.005" width="0.5363095238095182" height="0.5363095238095182" fill="#252525" />
<rect x="2.7115476190475913" y="0.005" width="0.5363095238095182" height="0.5363095238095182" fill="#252525" />
<rect x="3.2528571428571094" y="0.005" width="0.5363095238095182" height="0.5363095238095182" fill="#252525" />
<rect x="0.005" y="0.5463095238095182" width="0.5363095238095182" height="0.5363095238095182" fill="#252525" />
<rect x="0.5463095238095182" y="0.5463095238095182" width="0.5363095238095182" height="0.5363095238095182" fill="#252525" />
<rect x="1.0876190476190364" y="0.5463095238095182" width="0.5363095238095182" height="0.5363095238095182" fill="#252525" />
<rect x="1.6289285714285546" y="0.5463095238095182" width="0.5363095238095182" height="0.5363095238095182" fill="#252525" />
<rect x="2.170238095238073" y="0.5463095238095182" width="0.5363095238095182" height="0.5363095238095182" fill="#37D449" />
<rect x="2.7115476190475913" y="0.5463095238095182" width="0.5363095238095182" height="0.5363095238095182" fill="#252525" />
<rect x="3.2528571428571094" y="0.5463095238095182" width="0.5363095238095182" height="0.5363095238095182" fill="#252525" />
<rect x="0.005" y="1.0876190476190364" width="0.5363095238095182" height="0.5363095238095182" fill="#0074D9" />
<rect x="0.5463095238095182" y="1.0876190476190364" width="0.5363095238095182" height="0.5363095238095182" fill="#0074D9" />
<rect x="1.0876190476190364" y="1.0876190476190364" width="0.5363095238095182" height="0.5363095238095182" fill="#0074D9" />
<rect x="1.6289285714285546" y="1.0876190476190364" width="0.5363095238095182" height="0.5363095238095182" fill="#252525" />
<rect x="2.170238095238073" y="1.0876190476190364" width="0.5363095238095182" height="0.5363095238095182" fill="#252525" />
<rect x="2.7115476190475913" y="1.0876190476190364" width="0.5363095238095182" height="0.5363095238095182" fill="#252525" />
<rect x="3.2528571428571094" y="1.0876190476190364" width="0.5363095238095182" height="0.5363095238095182" fill="#252525" />
<rect x="0.005" y="1.6289285714285546" width="0.5363095238095182" height="0.5363095238095182" fill="#252525" />
<rect x="0.5463095238095182" y="1.6289285714285546" width="0.5363095238095182" height="0.5363095238095182" fill="#252525" />
<rect x="1.0876190476190364" y="1.6289285714285546" width="0.5363095238095182" height="0.5363095238095182" fill="#252525" />
<rect x="1.6289285714285546" y="1.6289285714285546" width="0.5363095238095182" height="0.5363095238095182" fill="#252525" />
<rect x="2.170238095238073" y="1.6289285714285546" width="0.5363095238095182" height="0.5363095238095182" fill="#252525" />
<rect x="2.7115476190475913" y="1.6289285714285546" width="0.5363095238095182" height="0.5363095238095182" fill="#252525" />
<rect x="3.2528571428571094" y="1.6289285714285546" width="0.5363095238095182" height="0.5363095238095182" fill="#252525" />
<rect x="0.005" y="2.170238095238073" width="0.5363095238095182" height="0.5363095238095182" fill="#252525" />
<rect x="0.5463095238095182" y="2.170238095238073" width="0.5363095238095182" height="0.5363095238095182" fill="#E6E6E6" />
<rect x="1.0876190476190364" y="2.170238095238073" width="0.5363095238095182" height="0.5363095238095182" fill="#E6E6E6" />
<rect x="1.6289285714285546" y="2.170238095238073" width="0.5363095238095182" height="0.5363095238095182" fill="#E6E6E6" />
<rect x="2.170238095238073" y="2.170238095238073" width="0.5363095238095182" height="0.5363095238095182" fill="#E6E6E6" />
<rect x="2.7115476190475913" y="2.170238095238073" width="0.5363095238095182" height="0.5363095238095182" fill="#E6E6E6" />
<rect x="3.2528571428571094" y="2.170238095238073" width="0.5363095238095182" height="0.5363095238095182" fill="#E6E6E6" />
<rect x="0.005" y="2.7115476190475913" width="0.5363095238095182" height="0.5363095238095182" fill="#252525" />
<rect x="0.5463095238095182" y="2.7115476190475913" width="0.5363095238095182" height="0.5363095238095182" fill="#252525" />
<rect x="1.0876190476190364" y="2.7115476190475913" width="0.5363095238095182" height="0.5363095238095182" fill="#252525" />
<rect x="1.6289285714285546" y="2.7115476190475913" width="0.5363095238095182" height="0.5363095238095182" fill="#252525" />
<rect x="2.170238095238073" y="2.7115476190475913" width="0.5363095238095182" height="0.5363095238095182" fill="#252525" />
<rect x="2.7115476190475913" y="2.7115476190475913" width="0.5363095238095182" height="0.5363095238095182" fill="#252525" />
<rect x="3.2528571428571094" y="2.7115476190475913" width="0.5363095238095182" height="0.5363095238095182" fill="#252525" />
<rect x="0.005" y="3.2528571428571094" width="0.5363095238095182" height="0.5363095238095182" fill="#F012BE" />
<rect x="0.5463095238095182" y="3.2528571428571094" width="0.5363095238095182" height="0.5363095238095182" fill="#F012BE" />
<rect x="1.0876190476190364" y="3.2528571428571094" width="0.5363095238095182" height="0.5363095238095182" fill="#F012BE" />
<rect x="1.6289285714285546" y="3.2528571428571094" width="0.5363095238095182" height="0.5363095238095182" fill="#F012BE" />
<rect x="2.170238095238073" y="3.2528571428571094" width="0.5363095238095182" height="0.5363095238095182" fill="#F012BE" />
<rect x="2.7115476190475913" y="3.2528571428571094" width="0.5363095238095182" height="0.5363095238095182" fill="#252525" />
<rect x="3.2528571428571094" y="3.2528571428571094" width="0.5363095238095182" height="0.5363095238095182" fill="#252525" />
<rect x="0.005" y="3.7941666666666274" width="0.5363095238095182" height="0.5363095238095182" fill="#252525" />
<rect x="0.5463095238095182" y="3.7941666666666274" width="0.5363095238095182" height="0.5363095238095182" fill="#252525" />
<rect x="1.0876190476190364" y="3.7941666666666274" width="0.5363095238095182" height="0.5363095238095182" fill="#252525" />
<rect x="1.6289285714285546" y="3.7941666666666274" width="0.5363095238095182" height="0.5363095238095182" fill="#FFDC00" />
<rect x="2.170238095238073" y="3.7941666666666274" width="0.5363095238095182" height="0.5363095238095182" fill="#FFDC00" />
<rect x="2.7115476190475913" y="3.7941666666666274" width="0.5363095238095182" height="0.5363095238095182" fill="#FFDC00" />
<rect x="3.2528571428571094" y="3.7941666666666274" width="0.5363095238095182" height="0.5363095238095182" fill="#FFDC00" />
<rect x="0.005" y="4.335476190476146" width="0.5363095238095182" height="0.5363095238095182" fill="#252525" />
<rect x="0.5463095238095182" y="4.335476190476146" width="0.5363095238095182" height="0.5363095238095182" fill="#252525" />
<rect x="1.0876190476190364" y="4.335476190476146" width="0.5363095238095182" height="0.5363095238095182" fill="#252525" />
<rect x="1.6289285714285546" y="4.335476190476146" width="0.5363095238095182" height="0.5363095238095182" fill="#252525" />
<rect x="2.170238095238073" y="4.335476190476146" width="0.5363095238095182" height="0.5363095238095182" fill="#252525" />
<rect x="2.7115476190475913" y="4.335476190476146" width="0.5363095238095182" height="0.5363095238095182" fill="#252525" />
<rect x="3.2528571428571094" y="4.335476190476146" width="0.5363095238095182" height="0.5363095238095182" fill="#252525" />
<rect x="0.005" y="4.876785714285664" width="0.5363095238095182" height="0.5363095238095182" fill="#54D2EB" />
<rect x="0.5463095238095182" y="4.876785714285664" width="0.5363095238095182" height="0.5363095238095182" fill="#54D2EB" />
<rect x="1.0876190476190364" y="4.876785714285664" width="0.5363095238095182" height="0.5363095238095182" fill="#54D2EB" />
<rect x="1.6289285714285546" y="4.876785714285664" width="0.5363095238095182" height="0.5363095238095182" fill="#54D2EB" />
<rect x="2.170238095238073" y="4.876785714285664" width="0.5363095238095182" height="0.5363095238095182" fill="#54D2EB" />
<rect x="2.7115476190475913" y="4.876785714285664" width="0.5363095238095182" height="0.5363095238095182" fill="#54D2EB" />
<rect x="3.2528571428571094" y="4.876785714285664" width="0.5363095238095182" height="0.5363095238095182" fill="#54D2EB" />
<rect x="-0.02666666666666667" y="-0.02666666666666667" width="3.8424999999999607" height="5.466428571428517" fill="none" stroke="#111111ff" stroke-width="0.08" />
<text x="3.7891666666666275" y="5.881845238095183" font-size="0.375" fill="black" text-anchor="end" font-family="Anuphan">7x10</text>
<text x="-0.037500000000000006" y="5.881845238095183" font-size="0.375" fill="black" text-anchor="start" font-family="Anuphan" font-weight="600">Input 1</text>
</g>
<g id="d1">
<rect x="0.005" y="0.005" width="0.7681249999999863" height="0.7681249999999863" fill="#252525" />
<rect x="0.7781249999999863" y="0.005" width="0.7681249999999863" height="0.7681249999999863" fill="#252525" />
<rect x="1.5512499999999725" y="0.005" width="0.7681249999999863" height="0.7681249999999863" fill="#252525" />
<rect x="2.324374999999959" y="0.005" width="0.7681249999999863" height="0.7681249999999863" fill="#0074D9" />
<rect x="0.005" y="0.7781249999999863" width="0.7681249999999863" height="0.7681249999999863" fill="#252525" />
<rect x="0.7781249999999863" y="0.7781249999999863" width="0.7681249999999863" height="0.7681249999999863" fill="#252525" />
<rect x="1.5512499999999725" y="0.7781249999999863" width="0.7681249999999863" height="0.7681249999999863" fill="#252525" />
<rect x="2.324374999999959" y="0.7781249999999863" width="0.7681249999999863" height="0.7681249999999863" fill="#252525" />
<rect x="0.005" y="1.5512499999999725" width="0.7681249999999863" height="0.7681249999999863" fill="#FF4136" />
<rect x="0.7781249999999863" y="1.5512499999999725" width="0.7681249999999863" height="0.7681249999999863" fill="#FF4136" />
<rect x="1.5512499999999725" y="1.5512499999999725" width="0.7681249999999863" height="0.7681249999999863" fill="#FF4136" />
<rect x="2.324374999999959" y="1.5512499999999725" width="0.7681249999999863" height="0.7681249999999863" fill="#252525" />
<rect x="0.005" y="2.324374999999959" width="0.7681249999999863" height="0.7681249999999863" fill="#252525" />
<rect x="0.7781249999999863" y="2.324374999999959" width="0.7681249999999863" height="0.7681249999999863" fill="#252525" />
<rect x="1.5512499999999725" y="2.324374999999959" width="0.7681249999999863" height="0.7681249999999863" fill="#252525" />
<rect x="2.324374999999959" y="2.324374999999959" width="0.7681249999999863" height="0.7681249999999863" fill="#252525" />
<rect x="0.005" y="3.097499999999945" width="0.7681249999999863" height="0.7681249999999863" fill="#252525" />
<rect x="0.7781249999999863" y="3.097499999999945" width="0.7681249999999863" height="0.7681249999999863" fill="#37D449" />
<rect x="1.5512499999999725" y="3.097499999999945" width="0.7681249999999863" height="0.7681249999999863" fill="#37D449" />
<rect x="2.324374999999959" y="3.097499999999945" width="0.7681249999999863" height="0.7681249999999863" fill="#252525" />
<rect x="0.005" y="3.870624999999931" width="0.7681249999999863" height="0.7681249999999863" fill="#252525" />
<rect x="0.7781249999999863" y="3.870624999999931" width="0.7681249999999863" height="0.7681249999999863" fill="#252525" />
<rect x="1.5512499999999725" y="3.870624999999931" width="0.7681249999999863" height="0.7681249999999863" fill="#252525" />
<rect x="2.324374999999959" y="3.870624999999931" width="0.7681249999999863" height="0.7681249999999863" fill="#252525" />
<rect x="0.005" y="4.643749999999918" width="0.7681249999999863" height="0.7681249999999863" fill="#54D2EB" />
<rect x="0.7781249999999863" y="4.643749999999918" width="0.7681249999999863" height="0.7681249999999863" fill="#54D2EB" />
<rect x="1.5512499999999725" y="4.643749999999918" width="0.7681249999999863" height="0.7681249999999863" fill="#54D2EB" />
<rect x="2.324374999999959" y="4.643749999999918" width="0.7681249999999863" height="0.7681249999999863" fill="#54D2EB" />
<rect x="-0.02666666666666667" y="-0.02666666666666667" width="3.1458333333332784" height="5.465208333333238" fill="none" stroke="#111111ff" stroke-width="0.08" />
<text x="3.092499999999945" y="5.880624999999904" font-size="0.375" fill="black" text-anchor="end" font-family="Anuphan">4x7</text>
<text x="-0.037500000000000006" y="5.880624999999904" font-size="0.375" fill="black" text-anchor="start" font-family="Anuphan" font-weight="600">Input 2</text>
</g>
<g id="d2">
<rect x="0.005" y="0.005" width="1.8013888888888647" height="1.8013888888888647" fill="#FF4136" />
<rect x="1.8113888888888645" y="0.005" width="1.8013888888888647" height="1.8013888888888647" fill="#FF4136" />
<rect x="3.617777777777729" y="0.005" width="1.8013888888888647" height="1.8013888888888647" fill="#252525" />
<rect x="0.005" y="1.8113888888888645" width="1.8013888888888647" height="1.8013888888888647" fill="#252525" />
<rect x="1.8113888888888645" y="1.8113888888888645" width="1.8013888888888647" height="1.8013888888888647" fill="#FFDC00" />
<rect x="3.617777777777729" y="1.8113888888888645" width="1.8013888888888647" height="1.8013888888888647" fill="#252525" />
<rect x="0.005" y="3.617777777777729" width="1.8013888888888647" height="1.8013888888888647" fill="#54D2EB" />
<rect x="1.8113888888888645" y="3.617777777777729" width="1.8013888888888647" height="1.8013888888888647" fill="#54D2EB" />
<rect x="3.617777777777729" y="3.617777777777729" width="1.8013888888888647" height="1.8013888888888647" fill="#54D2EB" />
<rect x="-0.02666666666666667" y="-0.02666666666666667" width="5.472499999999927" height="5.472499999999927" fill="none" stroke="#111111ff" stroke-width="0.08" />
<text x="5.419166666666594" y="5.887916666666594" font-size="0.375" fill="black" text-anchor="end" font-family="Anuphan">3x3</text>
<text x="-0.037500000000000006" y="5.887916666666594" font-size="0.375" fill="black" text-anchor="start" font-family="Anuphan" font-weight="600">Input 3</text>
</g>
<g id="d3">
<rect x="0.005" y="0.005" width="0.4873958333333281" height="0.4873958333333281" fill="#F012BE" />
<rect x="0.4973958333333281" y="0.005" width="0.4873958333333281" height="0.4873958333333281" fill="#F012BE" />
<rect x="0.9897916666666562" y="0.005" width="0.4873958333333281" height="0.4873958333333281" fill="#F012BE" />
<rect x="1.4821874999999842" y="0.005" width="0.4873958333333281" height="0.4873958333333281" fill="#252525" />
<rect x="1.9745833333333123" y="0.005" width="0.4873958333333281" height="0.4873958333333281" fill="#252525" />
<rect x="2.4669791666666403" y="0.005" width="0.4873958333333281" height="0.4873958333333281" fill="#252525" />
<rect x="2.9593749999999686" y="0.005" width="0.4873958333333281" height="0.4873958333333281" fill="#252525" />
<rect x="3.4517708333332964" y="0.005" width="0.4873958333333281" height="0.4873958333333281" fill="#252525" />
<rect x="0.005" y="0.4973958333333281" width="0.4873958333333281" height="0.4873958333333281" fill="#252525" />
<rect x="0.4973958333333281" y="0.4973958333333281" width="0.4873958333333281" height="0.4873958333333281" fill="#252525" />
<rect x="0.9897916666666562" y="0.4973958333333281" width="0.4873958333333281" height="0.4873958333333281" fill="#252525" />
<rect x="1.4821874999999842" y="0.4973958333333281" width="0.4873958333333281" height="0.4873958333333281" fill="#252525" />
<rect x="1.9745833333333123" y="0.4973958333333281" width="0.4873958333333281" height="0.4873958333333281" fill="#0074D9" />
<rect x="2.4669791666666403" y="0.4973958333333281" width="0.4873958333333281" height="0.4873958333333281" fill="#0074D9" />
<rect x="2.9593749999999686" y="0.4973958333333281" width="0.4873958333333281" height="0.4873958333333281" fill="#0074D9" />
<rect x="3.4517708333332964" y="0.4973958333333281" width="0.4873958333333281" height="0.4873958333333281" fill="#0074D9" />
<rect x="0.005" y="0.9897916666666562" width="0.4873958333333281" height="0.4873958333333281" fill="#252525" />
<rect x="0.4973958333333281" y="0.9897916666666562" width="0.4873958333333281" height="0.4873958333333281" fill="#252525" />
<rect x="0.9897916666666562" y="0.9897916666666562" width="0.4873958333333281" height="0.4873958333333281" fill="#252525" />
<rect x="1.4821874999999842" y="0.9897916666666562" width="0.4873958333333281" height="0.4873958333333281" fill="#252525" />
<rect x="1.9745833333333123" y="0.9897916666666562" width="0.4873958333333281" height="0.4873958333333281" fill="#252525" />
<rect x="2.4669791666666403" y="0.9897916666666562" width="0.4873958333333281" height="0.4873958333333281" fill="#252525" />
<rect x="2.9593749999999686" y="0.9897916666666562" width="0.4873958333333281" height="0.4873958333333281" fill="#252525" />
<rect x="3.4517708333332964" y="0.9897916666666562" width="0.4873958333333281" height="0.4873958333333281" fill="#252525" />
<rect x="0.005" y="1.4821874999999842" width="0.4873958333333281" height="0.4873958333333281" fill="#252525" />
<rect x="0.4973958333333281" y="1.4821874999999842" width="0.4873958333333281" height="0.4873958333333281" fill="#FFDC00" />
<rect x="0.9897916666666562" y="1.4821874999999842" width="0.4873958333333281" height="0.4873958333333281" fill="#FFDC00" />
<rect x="1.4821874999999842" y="1.4821874999999842" width="0.4873958333333281" height="0.4873958333333281" fill="#FFDC00" />
<rect x="1.9745833333333123" y="1.4821874999999842" width="0.4873958333333281" height="0.4873958333333281" fill="#FFDC00" />
<rect x="2.4669791666666403" y="1.4821874999999842" width="0.4873958333333281" height="0.4873958333333281" fill="#FFDC00" />
<rect x="2.9593749999999686" y="1.4821874999999842" width="0.4873958333333281" height="0.4873958333333281" fill="#252525" />
<rect x="3.4517708333332964" y="1.4821874999999842" width="0.4873958333333281" height="0.4873958333333281" fill="#252525" />
<rect x="0.005" y="1.9745833333333123" width="0.4873958333333281" height="0.4873958333333281" fill="#252525" />
<rect x="0.4973958333333281" y="1.9745833333333123" width="0.4873958333333281" height="0.4873958333333281" fill="#252525" />
<rect x="0.9897916666666562" y="1.9745833333333123" width="0.4873958333333281" height="0.4873958333333281" fill="#252525" />
<rect x="1.4821874999999842" y="1.9745833333333123" width="0.4873958333333281" height="0.4873958333333281" fill="#252525" />
<rect x="1.9745833333333123" y="1.9745833333333123" width="0.4873958333333281" height="0.4873958333333281" fill="#252525" />
<rect x="2.4669791666666403" y="1.9745833333333123" width="0.4873958333333281" height="0.4873958333333281" fill="#FF871E" />
<rect x="2.9593749999999686" y="1.9745833333333123" width="0.4873958333333281" height="0.4873958333333281" fill="#FF871E" />
<rect x="3.4517708333332964" y="1.9745833333333123" width="0.4873958333333281" height="0.4873958333333281" fill="#252525" />
<rect x="0.005" y="2.4669791666666403" width="0.4873958333333281" height="0.4873958333333281" fill="#252525" />
<rect x="0.4973958333333281" y="2.4669791666666403" width="0.4873958333333281" height="0.4873958333333281" fill="#252525" />
<rect x="0.9897916666666562" y="2.4669791666666403" width="0.4873958333333281" height="0.4873958333333281" fill="#252525" />
<rect x="1.4821874999999842" y="2.4669791666666403" width="0.4873958333333281" height="0.4873958333333281" fill="#252525" />
<rect x="1.9745833333333123" y="2.4669791666666403" width="0.4873958333333281" height="0.4873958333333281" fill="#252525" />
<rect x="2.4669791666666403" y="2.4669791666666403" width="0.4873958333333281" height="0.4873958333333281" fill="#252525" />
<rect x="2.9593749999999686" y="2.4669791666666403" width="0.4873958333333281" height="0.4873958333333281" fill="#252525" />
<rect x="3.4517708333332964" y="2.4669791666666403" width="0.4873958333333281" height="0.4873958333333281" fill="#252525" />
<rect x="0.005" y="2.9593749999999686" width="0.4873958333333281" height="0.4873958333333281" fill="#FF4136" />
<rect x="0.4973958333333281" y="2.9593749999999686" width="0.4873958333333281" height="0.4873958333333281" fill="#FF4136" />
<rect x="0.9897916666666562" y="2.9593749999999686" width="0.4873958333333281" height="0.4873958333333281" fill="#FF4136" />
<rect x="1.4821874999999842" y="2.9593749999999686" width="0.4873958333333281" height="0.4873958333333281" fill="#FF4136" />
<rect x="1.9745833333333123" y="2.9593749999999686" width="0.4873958333333281" height="0.4873958333333281" fill="#FF4136" />
<rect x="2.4669791666666403" y="2.9593749999999686" width="0.4873958333333281" height="0.4873958333333281" fill="#FF4136" />
<rect x="2.9593749999999686" y="2.9593749999999686" width="0.4873958333333281" height="0.4873958333333281" fill="#FF4136" />
<rect x="3.4517708333332964" y="2.9593749999999686" width="0.4873958333333281" height="0.4873958333333281" fill="#252525" />
<rect x="0.005" y="3.4517708333332964" width="0.4873958333333281" height="0.4873958333333281" fill="#252525" />
<rect x="0.4973958333333281" y="3.4517708333332964" width="0.4873958333333281" height="0.4873958333333281" fill="#252525" />
<rect x="0.9897916666666562" y="3.4517708333332964" width="0.4873958333333281" height="0.4873958333333281" fill="#37D449" />
<rect x="1.4821874999999842" y="3.4517708333332964" width="0.4873958333333281" height="0.4873958333333281" fill="#37D449" />
<rect x="1.9745833333333123" y="3.4517708333332964" width="0.4873958333333281" height="0.4873958333333281" fill="#37D449" />
<rect x="2.4669791666666403" y="3.4517708333332964" width="0.4873958333333281" height="0.4873958333333281" fill="#37D449" />
<rect x="2.9593749999999686" y="3.4517708333332964" width="0.4873958333333281" height="0.4873958333333281" fill="#37D449" />
<rect x="3.4517708333332964" y="3.4517708333332964" width="0.4873958333333281" height="0.4873958333333281" fill="#37D449" />
<rect x="0.005" y="3.9441666666666246" width="0.4873958333333281" height="0.4873958333333281" fill="#252525" />
<rect x="0.4973958333333281" y="3.9441666666666246" width="0.4873958333333281" height="0.4873958333333281" fill="#8D1D2C" />
<rect x="0.9897916666666562" y="3.9441666666666246" width="0.4873958333333281" height="0.4873958333333281" fill="#252525" />
<rect x="1.4821874999999842" y="3.9441666666666246" width="0.4873958333333281" height="0.4873958333333281" fill="#252525" />
<rect x="1.9745833333333123" y="3.9441666666666246" width="0.4873958333333281" height="0.4873958333333281" fill="#252525" />
<rect x="2.4669791666666403" y="3.9441666666666246" width="0.4873958333333281" height="0.4873958333333281" fill="#252525" />
<rect x="2.9593749999999686" y="3.9441666666666246" width="0.4873958333333281" height="0.4873958333333281" fill="#252525" />
<rect x="3.4517708333332964" y="3.9441666666666246" width="0.4873958333333281" height="0.4873958333333281" fill="#252525" />
<rect x="0.005" y="4.436562499999953" width="0.4873958333333281" height="0.4873958333333281" fill="#252525" />
<rect x="0.4973958333333281" y="4.436562499999953" width="0.4873958333333281" height="0.4873958333333281" fill="#252525" />
<rect x="0.9897916666666562" y="4.436562499999953" width="0.4873958333333281" height="0.4873958333333281" fill="#252525" />
<rect x="1.4821874999999842" y="4.436562499999953" width="0.4873958333333281" height="0.4873958333333281" fill="#252525" />
<rect x="1.9745833333333123" y="4.436562499999953" width="0.4873958333333281" height="0.4873958333333281" fill="#252525" />
<rect x="2.4669791666666403" y="4.436562499999953" width="0.4873958333333281" height="0.4873958333333281" fill="#252525" />
<rect x="2.9593749999999686" y="4.436562499999953" width="0.4873958333333281" height="0.4873958333333281" fill="#252525" />
<rect x="3.4517708333332964" y="4.436562499999953" width="0.4873958333333281" height="0.4873958333333281" fill="#252525" />
<rect x="0.005" y="4.928958333333281" width="0.4873958333333281" height="0.4873958333333281" fill="#54D2EB" />
<rect x="0.4973958333333281" y="4.928958333333281" width="0.4873958333333281" height="0.4873958333333281" fill="#54D2EB" />
<rect x="0.9897916666666562" y="4.928958333333281" width="0.4873958333333281" height="0.4873958333333281" fill="#54D2EB" />
<rect x="1.4821874999999842" y="4.928958333333281" width="0.4873958333333281" height="0.4873958333333281" fill="#54D2EB" />
<rect x="1.9745833333333123" y="4.928958333333281" width="0.4873958333333281" height="0.4873958333333281" fill="#54D2EB" />
<rect x="2.4669791666666403" y="4.928958333333281" width="0.4873958333333281" height="0.4873958333333281" fill="#54D2EB" />
<rect x="2.9593749999999686" y="4.928958333333281" width="0.4873958333333281" height="0.4873958333333281" fill="#54D2EB" />
<rect x="3.4517708333332964" y="4.928958333333281" width="0.4873958333333281" height="0.4873958333333281" fill="#54D2EB" />
<rect x="-0.02666666666666667" y="-0.02666666666666667" width="3.992499999999958" height="5.469687499999942" fill="none" stroke="#111111ff" stroke-width="0.08" />
<text x="3.9391666666666247" y="5.885104166666609" font-size="0.375" fill="black" text-anchor="end" font-family="Anuphan">8x11</text>
<text x="-0.037500000000000006" y="5.885104166666609" font-size="0.375" fill="black" text-anchor="start" font-family="Anuphan" font-weight="600">Test 1</text>
</g>
<g id="d4">
<rect x="0.005" y="0.005" width="0.5363095238095182" height="0.5363095238095182" fill="#252525" />
<rect x="0.5463095238095182" y="0.005" width="0.5363095238095182" height="0.5363095238095182" fill="#252525" />
<rect x="1.0876190476190364" y="0.005" width="0.5363095238095182" height="0.5363095238095182" fill="#252525" />
<rect x="1.6289285714285546" y="0.005" width="0.5363095238095182" height="0.5363095238095182" fill="#252525" />
<rect x="2.170238095238073" y="0.005" width="0.5363095238095182" height="0.5363095238095182" fill="#252525" />
<rect x="2.7115476190475913" y="0.005" width="0.5363095238095182" height="0.5363095238095182" fill="#252525" />
<rect x="3.2528571428571094" y="0.005" width="0.5363095238095182" height="0.5363095238095182" fill="#252525" />
<rect x="0.005" y="0.5463095238095182" width="0.5363095238095182" height="0.5363095238095182" fill="#252525" />
<rect x="0.5463095238095182" y="0.5463095238095182" width="0.5363095238095182" height="0.5363095238095182" fill="#252525" />
<rect x="1.0876190476190364" y="0.5463095238095182" width="0.5363095238095182" height="0.5363095238095182" fill="#252525" />
<rect x="1.6289285714285546" y="0.5463095238095182" width="0.5363095238095182" height="0.5363095238095182" fill="#252525" />
<rect x="2.170238095238073" y="0.5463095238095182" width="0.5363095238095182" height="0.5363095238095182" fill="#252525" />
<rect x="2.7115476190475913" y="0.5463095238095182" width="0.5363095238095182" height="0.5363095238095182" fill="#252525" />
<rect x="3.2528571428571094" y="0.5463095238095182" width="0.5363095238095182" height="0.5363095238095182" fill="#252525" />
<rect x="0.005" y="1.0876190476190364" width="0.5363095238095182" height="0.5363095238095182" fill="#252525" />
<rect x="0.5463095238095182" y="1.0876190476190364" width="0.5363095238095182" height="0.5363095238095182" fill="#252525" />
<rect x="1.0876190476190364" y="1.0876190476190364" width="0.5363095238095182" height="0.5363095238095182" fill="#252525" />
<rect x="1.6289285714285546" y="1.0876190476190364" width="0.5363095238095182" height="0.5363095238095182" fill="#252525" />
<rect x="2.170238095238073" y="1.0876190476190364" width="0.5363095238095182" height="0.5363095238095182" fill="#252525" />
<rect x="2.7115476190475913" y="1.0876190476190364" width="0.5363095238095182" height="0.5363095238095182" fill="#252525" />
<rect x="3.2528571428571094" y="1.0876190476190364" width="0.5363095238095182" height="0.5363095238095182" fill="#252525" />
<rect x="0.005" y="1.6289285714285546" width="0.5363095238095182" height="0.5363095238095182" fill="#252525" />
<rect x="0.5463095238095182" y="1.6289285714285546" width="0.5363095238095182" height="0.5363095238095182" fill="#252525" />
<rect x="1.0876190476190364" y="1.6289285714285546" width="0.5363095238095182" height="0.5363095238095182" fill="#252525" />
<rect x="1.6289285714285546" y="1.6289285714285546" width="0.5363095238095182" height="0.5363095238095182" fill="#252525" />
<rect x="2.170238095238073" y="1.6289285714285546" width="0.5363095238095182" height="0.5363095238095182" fill="#252525" />
<rect x="2.7115476190475913" y="1.6289285714285546" width="0.5363095238095182" height="0.5363095238095182" fill="#252525" />
<rect x="3.2528571428571094" y="1.6289285714285546" width="0.5363095238095182" height="0.5363095238095182" fill="#37D449" />
<rect x="0.005" y="2.170238095238073" width="0.5363095238095182" height="0.5363095238095182" fill="#252525" />
<rect x="0.5463095238095182" y="2.170238095238073" width="0.5363095238095182" height="0.5363095238095182" fill="#252525" />
<rect x="1.0876190476190364" y="2.170238095238073" width="0.5363095238095182" height="0.5363095238095182" fill="#252525" />
<rect x="1.6289285714285546" y="2.170238095238073" width="0.5363095238095182" height="0.5363095238095182" fill="#252525" />
<rect x="2.170238095238073" y="2.170238095238073" width="0.5363095238095182" height="0.5363095238095182" fill="#252525" />
<rect x="2.7115476190475913" y="2.170238095238073" width="0.5363095238095182" height="0.5363095238095182" fill="#FF4136" />
<rect x="3.2528571428571094" y="2.170238095238073" width="0.5363095238095182" height="0.5363095238095182" fill="#FF4136" />
<rect x="0.005" y="2.7115476190475913" width="0.5363095238095182" height="0.5363095238095182" fill="#252525" />
<rect x="0.5463095238095182" y="2.7115476190475913" width="0.5363095238095182" height="0.5363095238095182" fill="#252525" />
<rect x="1.0876190476190364" y="2.7115476190475913" width="0.5363095238095182" height="0.5363095238095182" fill="#252525" />
<rect x="1.6289285714285546" y="2.7115476190475913" width="0.5363095238095182" height="0.5363095238095182" fill="#252525" />
<rect x="2.170238095238073" y="2.7115476190475913" width="0.5363095238095182" height="0.5363095238095182" fill="#0074D9" />
<rect x="2.7115476190475913" y="2.7115476190475913" width="0.5363095238095182" height="0.5363095238095182" fill="#0074D9" />
<rect x="3.2528571428571094" y="2.7115476190475913" width="0.5363095238095182" height="0.5363095238095182" fill="#0074D9" />
<rect x="0.005" y="3.2528571428571094" width="0.5363095238095182" height="0.5363095238095182" fill="#252525" />
<rect x="0.5463095238095182" y="3.2528571428571094" width="0.5363095238095182" height="0.5363095238095182" fill="#252525" />
<rect x="1.0876190476190364" y="3.2528571428571094" width="0.5363095238095182" height="0.5363095238095182" fill="#252525" />
<rect x="1.6289285714285546" y="3.2528571428571094" width="0.5363095238095182" height="0.5363095238095182" fill="#FFDC00" />
<rect x="2.170238095238073" y="3.2528571428571094" width="0.5363095238095182" height="0.5363095238095182" fill="#FFDC00" />
<rect x="2.7115476190475913" y="3.2528571428571094" width="0.5363095238095182" height="0.5363095238095182" fill="#FFDC00" />
<rect x="3.2528571428571094" y="3.2528571428571094" width="0.5363095238095182" height="0.5363095238095182" fill="#FFDC00" />
<rect x="0.005" y="3.7941666666666274" width="0.5363095238095182" height="0.5363095238095182" fill="#252525" />
<rect x="0.5463095238095182" y="3.7941666666666274" width="0.5363095238095182" height="0.5363095238095182" fill="#252525" />
<rect x="1.0876190476190364" y="3.7941666666666274" width="0.5363095238095182" height="0.5363095238095182" fill="#F012BE" />
<rect x="1.6289285714285546" y="3.7941666666666274" width="0.5363095238095182" height="0.5363095238095182" fill="#F012BE" />
<rect x="2.170238095238073" y="3.7941666666666274" width="0.5363095238095182" height="0.5363095238095182" fill="#F012BE" />
<rect x="2.7115476190475913" y="3.7941666666666274" width="0.5363095238095182" height="0.5363095238095182" fill="#F012BE" />
<rect x="3.2528571428571094" y="3.7941666666666274" width="0.5363095238095182" height="0.5363095238095182" fill="#F012BE" />
<rect x="0.005" y="4.335476190476146" width="0.5363095238095182" height="0.5363095238095182" fill="#252525" />
<rect x="0.5463095238095182" y="4.335476190476146" width="0.5363095238095182" height="0.5363095238095182" fill="#E6E6E6" />
<rect x="1.0876190476190364" y="4.335476190476146" width="0.5363095238095182" height="0.5363095238095182" fill="#E6E6E6" />
<rect x="1.6289285714285546" y="4.335476190476146" width="0.5363095238095182" height="0.5363095238095182" fill="#E6E6E6" />
<rect x="2.170238095238073" y="4.335476190476146" width="0.5363095238095182" height="0.5363095238095182" fill="#E6E6E6" />
<rect x="2.7115476190475913" y="4.335476190476146" width="0.5363095238095182" height="0.5363095238095182" fill="#E6E6E6" />
<rect x="3.2528571428571094" y="4.335476190476146" width="0.5363095238095182" height="0.5363095238095182" fill="#E6E6E6" />
<rect x="0.005" y="4.876785714285664" width="0.5363095238095182" height="0.5363095238095182" fill="#54D2EB" />
<rect x="0.5463095238095182" y="4.876785714285664" width="0.5363095238095182" height="0.5363095238095182" fill="#54D2EB" />
<rect x="1.0876190476190364" y="4.876785714285664" width="0.5363095238095182" height="0.5363095238095182" fill="#54D2EB" />
<rect x="1.6289285714285546" y="4.876785714285664" width="0.5363095238095182" height="0.5363095238095182" fill="#54D2EB" />
<rect x="2.170238095238073" y="4.876785714285664" width="0.5363095238095182" height="0.5363095238095182" fill="#54D2EB" />
<rect x="2.7115476190475913" y="4.876785714285664" width="0.5363095238095182" height="0.5363095238095182" fill="#54D2EB" />
<rect x="3.2528571428571094" y="4.876785714285664" width="0.5363095238095182" height="0.5363095238095182" fill="#54D2EB" />
<rect x="-0.02666666666666667" y="-0.02666666666666667" width="3.8424999999999607" height="5.466428571428517" fill="none" stroke="#111111ff" stroke-width="0.08" />
<text x="3.7891666666666275" y="5.881845238095183" font-size="0.375" fill="black" text-anchor="end" font-family="Anuphan">7x10</text>
<text x="-0.037500000000000006" y="5.881845238095183" font-size="0.375" fill="black" text-anchor="start" font-family="Anuphan" font-weight="600">Output 1</text>
</g>
<g id="d5">
<rect x="0.005" y="0.005" width="0.7681249999999863" height="0.7681249999999863" fill="#252525" />
<rect x="0.7781249999999863" y="0.005" width="0.7681249999999863" height="0.7681249999999863" fill="#252525" />
<rect x="1.5512499999999725" y="0.005" width="0.7681249999999863" height="0.7681249999999863" fill="#252525" />
<rect x="2.324374999999959" y="0.005" width="0.7681249999999863" height="0.7681249999999863" fill="#252525" />
<rect x="0.005" y="0.7781249999999863" width="0.7681249999999863" height="0.7681249999999863" fill="#252525" />
<rect x="0.7781249999999863" y="0.7781249999999863" width="0.7681249999999863" height="0.7681249999999863" fill="#252525" />
<rect x="1.5512499999999725" y="0.7781249999999863" width="0.7681249999999863" height="0.7681249999999863" fill="#252525" />
<rect x="2.324374999999959" y="0.7781249999999863" width="0.7681249999999863" height="0.7681249999999863" fill="#252525" />
<rect x="0.005" y="1.5512499999999725" width="0.7681249999999863" height="0.7681249999999863" fill="#252525" />
<rect x="0.7781249999999863" y="1.5512499999999725" width="0.7681249999999863" height="0.7681249999999863" fill="#252525" />
<rect x="1.5512499999999725" y="1.5512499999999725" width="0.7681249999999863" height="0.7681249999999863" fill="#252525" />
<rect x="2.324374999999959" y="1.5512499999999725" width="0.7681249999999863" height="0.7681249999999863" fill="#252525" />
<rect x="0.005" y="2.324374999999959" width="0.7681249999999863" height="0.7681249999999863" fill="#252525" />
<rect x="0.7781249999999863" y="2.324374999999959" width="0.7681249999999863" height="0.7681249999999863" fill="#252525" />
<rect x="1.5512499999999725" y="2.324374999999959" width="0.7681249999999863" height="0.7681249999999863" fill="#252525" />
<rect x="2.324374999999959" y="2.324374999999959" width="0.7681249999999863" height="0.7681249999999863" fill="#0074D9" />
<rect x="0.005" y="3.097499999999945" width="0.7681249999999863" height="0.7681249999999863" fill="#252525" />
<rect x="0.7781249999999863" y="3.097499999999945" width="0.7681249999999863" height="0.7681249999999863" fill="#252525" />
<rect x="1.5512499999999725" y="3.097499999999945" width="0.7681249999999863" height="0.7681249999999863" fill="#37D449" />
<rect x="2.324374999999959" y="3.097499999999945" width="0.7681249999999863" height="0.7681249999999863" fill="#37D449" />
<rect x="0.005" y="3.870624999999931" width="0.7681249999999863" height="0.7681249999999863" fill="#252525" />
<rect x="0.7781249999999863" y="3.870624999999931" width="0.7681249999999863" height="0.7681249999999863" fill="#FF4136" />
<rect x="1.5512499999999725" y="3.870624999999931" width="0.7681249999999863" height="0.7681249999999863" fill="#FF4136" />
<rect x="2.324374999999959" y="3.870624999999931" width="0.7681249999999863" height="0.7681249999999863" fill="#FF4136" />
<rect x="0.005" y="4.643749999999918" width="0.7681249999999863" height="0.7681249999999863" fill="#54D2EB" />
<rect x="0.7781249999999863" y="4.643749999999918" width="0.7681249999999863" height="0.7681249999999863" fill="#54D2EB" />
<rect x="1.5512499999999725" y="4.643749999999918" width="0.7681249999999863" height="0.7681249999999863" fill="#54D2EB" />
<rect x="2.324374999999959" y="4.643749999999918" width="0.7681249999999863" height="0.7681249999999863" fill="#54D2EB" />
<rect x="-0.02666666666666667" y="-0.02666666666666667" width="3.1458333333332784" height="5.465208333333238" fill="none" stroke="#111111ff" stroke-width="0.08" />
<text x="3.092499999999945" y="5.880624999999904" font-size="0.375" fill="black" text-anchor="end" font-family="Anuphan">4x7</text>
<text x="-0.037500000000000006" y="5.880624999999904" font-size="0.375" fill="black" text-anchor="start" font-family="Anuphan" font-weight="600">Output 2</text>
</g>
<g id="d6">
<rect x="0.005" y="0.005" width="1.8013888888888647" height="1.8013888888888647" fill="#252525" />
<rect x="1.8113888888888645" y="0.005" width="1.8013888888888647" height="1.8013888888888647" fill="#252525" />
<rect x="3.617777777777729" y="0.005" width="1.8013888888888647" height="1.8013888888888647" fill="#FFDC00" />
<rect x="0.005" y="1.8113888888888645" width="1.8013888888888647" height="1.8013888888888647" fill="#252525" />
<rect x="1.8113888888888645" y="1.8113888888888645" width="1.8013888888888647" height="1.8013888888888647" fill="#FF4136" />
<rect x="3.617777777777729" y="1.8113888888888645" width="1.8013888888888647" height="1.8013888888888647" fill="#FF4136" />
<rect x="0.005" y="3.617777777777729" width="1.8013888888888647" height="1.8013888888888647" fill="#54D2EB" />
<rect x="1.8113888888888645" y="3.617777777777729" width="1.8013888888888647" height="1.8013888888888647" fill="#54D2EB" />
<rect x="3.617777777777729" y="3.617777777777729" width="1.8013888888888647" height="1.8013888888888647" fill="#54D2EB" />
<rect x="-0.02666666666666667" y="-0.02666666666666667" width="5.472499999999927" height="5.472499999999927" fill="none" stroke="#111111ff" stroke-width="0.08" />
<text x="5.419166666666594" y="5.887916666666594" font-size="0.375" fill="black" text-anchor="end" font-family="Anuphan">3x3</text>
<text x="-0.037500000000000006" y="5.887916666666594" font-size="0.375" fill="black" text-anchor="start" font-family="Anuphan" font-weight="600">Output 3</text>
</g>
</defs>
<rect x="0" y="0" width="100%" height="100%" fill="#eeeff6" />
<use xlink:href="#d0" x="0.25" y="0.25" />
<use xlink:href="#d1" x="4.5391666666666275" y="0.25" />
<use xlink:href="#d2" x="8.131666666666572" y="0.25" />
<use xlink:href="#d3" x="14.050833333333166" y="0.25" />
<path d="M2.1445833333333137,6.319166666666594 L2.1445833333333137,6.719166666666594" stroke-width="0.05" stroke="#888888" />
<path d="M1.9945833333333138,6.519166666666594 L2.1445833333333137,6.719166666666594" stroke-width="0.05" stroke="#888888" />
<path d="M2.2945833333333137,6.519166666666594 L2.1445833333333137,6.719166666666594" stroke-width="0.05" stroke="#888888" />
<use xlink:href="#d4" x="0.25" y="7.069166666666594" />
<path d="M6.0854166666666,6.319166666666594 L6.0854166666666,6.719166666666594" stroke-width="0.05" stroke="#888888" />
<path d="M5.935416666666599,6.519166666666594 L6.0854166666666,6.719166666666594" stroke-width="0.05" stroke="#888888" />
<path d="M6.2354166666666,6.519166666666594 L6.0854166666666,6.719166666666594" stroke-width="0.05" stroke="#888888" />
<use xlink:href="#d5" x="4.5391666666666275" y="7.069166666666594" />
<path d="M10.841249999999869,6.319166666666594 L10.841249999999869,6.719166666666594" stroke-width="0.05" stroke="#888888" />
<path d="M10.691249999999869,6.519166666666594 L10.841249999999869,6.719166666666594" stroke-width="0.05" stroke="#888888" />
<path d="M10.99124999999987,6.519166666666594 L10.841249999999869,6.719166666666594" stroke-width="0.05" stroke="#888888" />
<use xlink:href="#d6" x="8.131666666666572" y="7.069166666666594" />
<path d="M16.020416666666478,6.319166666666594 L16.020416666666478,6.719166666666594" stroke-width="0.05" stroke="#888888" />
<path d="M15.870416666666477,6.519166666666594 L16.020416666666478,6.719166666666594" stroke-width="0.05" stroke="#888888" />
<path d="M16.170416666666476,6.519166666666594 L16.020416666666478,6.719166666666594" stroke-width="0.05" stroke="#888888" />
<text x="16.020416666666478" y="9.877343749999898" font-size="1" font-family="Anuphan" font-weight="700" fill="#333333" text-anchor="middle" alignment-baseline="middle">?</text>
<text x="18.099999999999998" y="13.299999999999999" font-size="0.3" font-family="Anuphan" font-weight="600" fill="#666666" text-anchor="end" alignment-baseline="bottom">Task beb8660c</text>
</svg>