<?xml version="1.0" encoding="UTF-8"?>
<svg xmlns="http://www.w3.org/2000/svg" xmlns:xlink="http://www.w3.org/1999/xlink"
     width="800.0" height="500.0" viewBox="0 0 20.0 12.5">
<defs>
<g id="d0">
<rect x="0.005" y="0.005" width="0.4447500000000003" height="0.4447500000000003" fill="#252525" />
<rect x="0.4547500000000003" y="0.005" width="0.4447500000000003" height="0.4447500000000003" fill="#252525" />
<rect x="0.9045000000000006" y="0.005" width="0.4447500000000003" height="0.4447500000000003" fill="#252525" />
<rect x="1.3542500000000008" y="0.005" width="0.4447500000000003" height="0.4447500000000003" fill="#252525" />
<rect x="1.8040000000000012" y="0.005" width="0.4447500000000003" height="0.4447500000000003" fill="#252525" />
<rect x="2.2537500000000015" y="0.005" width="0.4447500000000003" height="0.4447500000000003" fill="#252525" />
<rect x="2.703500000000002" y="0.005" width="0.4447500000000003" height="0.4447500000000003" fill="#54D2EB" />
<rect x="3.153250000000002" y="0.005" width="0.4447500000000003" height="0.4447500000000003" fill="#54D2EB" />
<rect x="3.6030000000000024" y="0.005" width="0.4447500000000003" height="0.4447500000000003" fill="#54D2EB" />
<rect x="4.052750000000002" y="0.005" width="0.4447500000000003" height="0.4447500000000003" fill="#54D2EB" />
<rect x="0.005" y="0.4547500000000003" width="0.4447500000000003" height="0.4447500000000003" fill="#252525" />
<rect x="0.4547500000000003" y="0.4547500000000003" width="0.4447500000000003" height="0.4447500000000003" fill="#54D2EB" />
<rect x="0.9045000000000006" y="0.4547500000000003" width="0.4447500000000003" height="0.4447500000000003" fill="#54D2EB" />
<rect x="1.3542500000000008" y="0.4547500000000003" width="0.4447500000000003" height="0.4447500000000003" fill="#54D2EB" />
<rect x="1.8040000000000012" y="0.4547500000000003" width="0.4447500000000003" height="0.4447500000000003" fill="#54D2EB" />
<rect x="2.2537500000000015" y="0.4547500000000003" width="0.4447500000000003" height="0.4447500000000003" fill="#252525" />
<rect x="2.703500000000002" y="0.4547500000000003" width="0.4447500000000003" height="0.4447500000000003" fill="#54D2EB" />
<rect x="3.153250000000002" y="0.4547500000000003" width="0.4447500000000003" height="0.4447500000000003" fill="#FF4136" />
<rect x="3.6030000000000024" y="0.4547500000000003" width="0.4447500000000003" height="0.4447500000000003" fill="#FF4136" />
<rect x="4.052750000000002" y="0.4547500000000003" width="0.4447500000000003" height="0.4447500000000003" fill="#54D2EB" />
<rect x="0.005" y="0.9045000000000006" width="0.4447500000000003" height="0.4447500000000003" fill="#252525" />
<rect x="0.4547500000000003" y="0.9045000000000006" width="0.4447500000000003" height="0.4447500000000003" fill="#54D2EB" />
<rect x="0.9045000000000006" y="0.9045000000000006" width="0.4447500000000003" height="0.4447500000000003" fill="#0074D9" />
<rect x="1.3542500000000008" y="0.9045000000000006" width="0.4447500000000003" height="0.4447500000000003" fill="#54D2EB" />
<rect x="1.8040000000000012" y="0.9045000000000006" width="0.4447500000000003" height="0.4447500000000003" fill="#54D2EB" />
<rect x="2.2537500000000015" y="0.9045000000000006" width="0.4447500000000003" height="0.4447500000000003" fill="#252525" />
<rect x="2.703500000000002" y="0.9045000000000006" width="0.4447500000000003" height="0.4447500000000003" fill="#54D2EB" />
<rect x="3.153250000000002" y="0.9045000000000006" width="0.4447500000000003" height="0.4447500000000003" fill="#54D2EB" />
<rect x="3.6030000000000024" y="0.9045000000000006" width="0.4447500000000003" height="0.4447500000000003" fill="#54D2EB" />
<rect x="4.052750000000002" y="0.9045000000000006" width="0.4447500000000003" height="0.4447500000000003" fill="#54D2EB" />
<rect x="0.005" y="1.3542500000000008" width="0.4447500000000003" height="0.4447500000000003" fill="#252525" />
<rect x="0.4547500000000003" y="1.3542500000000008" width="0.4447500000000003" height="0.4447500000000003" fill="#54D2EB" />
<rect x="0.9045000000000006" y="1.3542500000000008" width="0.4447500000000003" height="0.4447500000000003" fill="#54D2EB" />
<rect x="1.3542500000000008" y="1.3542500000000008" width="0.4447500000000003" height="0.4447500000000003" fill="#FF4136" />
<rect x="1.8040000000000012" y="1.3542500000000008" width="0.4447500000000003" height="0.4447500000000003" fill="#54D2EB" />
<rect x="2.2537500000000015" y="1.3542500000000008" width="0.4447500000000003" height="0.4447500000000003" fill="#252525" />
<rect x="2.703500000000002" y="1.3542500000000008" width="0.4447500000000003" height="0.4447500000000003" fill="#54D2EB" />
<rect x="3.153250000000002" y="1.3542500000000008" width="0.4447500000000003" height="0.4447500000000003" fill="#FF4136" />
<rect x="3.6030000000000024" y="1.3542500000000008" width="0.4447500000000003" height="0.4447500000000003" fill="#0074D9" />
<rect x="4.052750000000002" y="1.3542500000000008" width="0.4447500000000003" height="0.4447500000000003" fill="#54D2EB" />
<rect x="0.005" y="1.8040000000000012" width="0.4447500000000003" height="0.4447500000000003" fill="#252525" />
<rect x="0.4547500000000003" y="1.8040000000000012" width="0.4447500000000003" height="0.4447500000000003" fill="#54D2EB" />
<rect x="0.9045000000000006" y="1.8040000000000012" width="0.4447500000000003" height="0.4447500000000003" fill="#54D2EB" />
<rect x="1.3542500000000008" y="1.8040000000000012" width="0.4447500000000003" height="0.4447500000000003" fill="#54D2EB" />
<rect x="1.8040000000000012" y="1.8040000000000012" width="0.4447500000000003" height="0.4447500000000003" fill="#54D2EB" />
<rect x="2.2537500000000015" y="1.8040000000000012" width="0.4447500000000003" height="0.4447500000000003" fill="#252525" />
<rect x="2.703500000000002" y="1.8040000000000012" width="0.4447500000000003" height="0.4447500000000003" fill="#54D2EB" />
<rect x="3.153250000000002" y="1.8040000000000012" width="0.4447500000000003" height="0.4447500000000003" fill="#54D2EB" />
<rect x="3.6030000000000024" y="1.8040000000000012" width="0.4447500000000003" height="0.4447500000000003" fill="#54D2EB" />
<rect x="4.052750000000002" y="1.8040000000000012" width="0.4447500000000003" height="0.4447500000000003" fill="#54D2EB" />
<rect x="0.005" y="2.2537500000000015" width="0.4447500000000003" height="0.4447500000000003" fill="#252525" />
<rect x="0.4547500000000003" y="2.2537500000000015" width="0.4447500000000003" height="0.4447500000000003" fill="#252525" />
<rect x="0.9045000000000006" y="2.2537500000000015" width="0.4447500000000003" height="0.4447500000000003" fill="#252525" />
<rect x="1.3542500000000008" y="2.2537500000000015" width="0.4447500000000003" height="0.4447500000000003" fill="#252525" />
<rect x="1.8040000000000012" y="2.2537500000000015" width="0.4447500000000003" height="0.4447500000000003" fill="#252525" />
<rect x="2.2537500000000015" y="2.2537500000000015" width="0.4447500000000003" height="0.4447500000000003" fill="#252525" />
<rect x="2.703500000000002" y="2.2537500000000015" width="0.4447500000000003" height="0.4447500000000003" fill="#252525" />
<rect x="3.153250000000002" y="2.2537500000000015" width="0.4447500000000003" height="0.4447500000000003" fill="#252525" />
<rect x="3.6030000000000024" y="2.2537500000000015" width="0.4447500000000003" height="0.4447500000000003" fill="#252525" />
<rect x="4.052750000000002" y="2.2537500000000015" width="0.4447500000000003" height="0.4447500000000003" fill="#252525" />
<rect x="0.005" y="2.703500000000002" width="0.4447500000000003" height="0.4447500000000003" fill="#252525" />
<rect x="0.4547500000000003" y="2.703500000000002" width="0.4447500000000003" height="0.4447500000000003" fill="#252525" />
<rect x="0.9045000000000006" y="2.703500000000002" width="0.4447500000000003" height="0.4447500000000003" fill="#252525" />
<rect x="1.3542500000000008" y="2.703500000000002" width="0.4447500000000003" height="0.4447500000000003" fill="#54D2EB" />
<rect x="1.8040000000000012" y="2.703500000000002" width="0.4447500000000003" height="0.4447500000000003" fill="#54D2EB" />
<rect x="2.2537500000000015" y="2.703500000000002" width="0.4447500000000003" height="0.4447500000000003" fill="#54D2EB" />
<rect x="2.703500000000002" y="2.703500000000002" width="0.4447500000000003" height="0.4447500000000003" fill="#54D2EB" />
<rect x="3.153250000000002" y="2.703500000000002" width="0.4447500000000003" height="0.4447500000000003" fill="#54D2EB" />
<rect x="3.6030000000000024" y="2.703500000000002" width="0.4447500000000003" height="0.4447500000000003" fill="#54D2EB" />
<rect x="4.052750000000002" y="2.703500000000002" width="0.4447500000000003" height="0.4447500000000003" fill="#252525" />
<rect x="0.005" y="3.153250000000002" width="0.4447500000000003" height="0.4447500000000003" fill="#252525" />
<rect x="0.4547500000000003" y="3.153250000000002" width="0.4447500000000003" height="0.4447500000000003" fill="#252525" />
<rect x="0.9045000000000006" y="3.153250000000002" width="0.4447500000000003" height="0.4447500000000003" fill="#252525" />
<rect x="1.3542500000000008" y="3.153250000000002" width="0.4447500000000003" height="0.4447500000000003" fill="#54D2EB" />
<rect x="1.8040000000000012" y="3.153250000000002" width="0.4447500000000003" height="0.4447500000000003" fill="#54D2EB" />
<rect x="2.2537500000000015" y="3.153250000000002" width="0.4447500000000003" height="0.4447500000000003" fill="#54D2EB" />
<rect x="2.703500000000002" y="3.153250000000002" width="0.4447500000000003" height="0.4447500000000003" fill="#FF4136" />
<rect x="3.153250000000002" y="3.153250000000002" width="0.4447500000000003" height="0.4447500000000003" fill="#54D2EB" />
<rect x="3.6030000000000024" y="3.153250000000002" width="0.4447500000000003" height="0.4447500000000003" fill="#54D2EB" />
<rect x="4.052750000000002" y="3.153250000000002" width="0.4447500000000003" height="0.4447500000000003" fill="#252525" />
<rect x="0.005" y="3.6030000000000024" width="0.4447500000000003" height="0.4447500000000003" fill="#252525" />
<rect x="0.4547500000000003" y="3.6030000000000024" width="0.4447500000000003" height="0.4447500000000003" fill="#252525" />
<rect x="0.9045000000000006" y="3.6030000000000024" width="0.4447500000000003" height="0.4447500000000003" fill="#252525" />
<rect x="1.3542500000000008" y="3.6030000000000024" width="0.4447500000000003" height="0.4447500000000003" fill="#54D2EB" />
<rect x="1.8040000000000012" y="3.6030000000000024" width="0.4447500000000003" height="0.4447500000000003" fill="#FF4136" />
<rect x="2.2537500000000015" y="3.6030000000000024" width="0.4447500000000003" height="0.4447500000000003" fill="#54D2EB" />
<rect x="2.703500000000002" y="3.6030000000000024" width="0.4447500000000003" height="0.4447500000000003" fill="#0074D9" />
<rect x="3.153250000000002" y="3.6030000000000024" width="0.4447500000000003" height="0.4447500000000003" fill="#54D2EB" />
<rect x="3.6030000000000024" y="3.6030000000000024" width="0.4447500000000003" height="0.4447500000000003" fill="#54D2EB" />
<rect x="4.052750000000002" y="3.6030000000000024" width="0.4447500000000003" height="0.4447500000000003" fill="#252525" />
<rect x="0.005" y="4.052750000000002" width="0.4447500000000003" height="0.4447500000000003" fill="#252525" />
<rect x="0.4547500000000003" y="4.052750000000002" width="0.4447500000000003" height="0.4447500000000003" fill="#252525" />
<rect x="0.9045000000000006" y="4.052750000000002" width="0.4447500000000003" height="0.4447500000000003" fill="#252525" />
<rect x="1.3542500000000008" y="4.052750000000002" width="0.4447500000000003" height="0.4447500000000003" fill="#54D2EB" />
<rect x="1.8040000000000012" y="4.052750000000002" width="0.4447500000000003" height="0.4447500000000003" fill="#0074D9" />
<rect x="2.2537500000000015" y="4.052750000000002" width="0.4447500000000003" height="0.4447500000000003" fill="#54D2EB" />
<rect x="2.703500000000002" y="4.052750000000002" width="0.4447500000000003" height="0.4447500000000003" fill="#54D2EB" />
<rect x="3.153250000000002" y="4.052750000000002" width="0.4447500000000003" height="0.4447500000000003" fill="#54D2EB" />
<rect x="3.6030000000000024" y="4.052750000000002" width="0.4447500000000003" height="0.4447500000000003" fill="#54D2EB" />
<rect x="4.052750000000002" y="4.052750000000002" width="0.4447500000000003" height="0.4447500000000003" fill="#252525" />
<rect x="-0.02666666666666667" y="-0.02666666666666667" width="4.550833333333337" height="4.550833333333337" fill="none" stroke="#111111ff" stroke-width="0.08" />
<text x="4.497500000000003" y="4.966250000000003" font-size="0.375" fill="black" text-anchor="end" font-family="Anuphan">10x10</text>
<text x="-0.037500000000000006" y="4.966250000000003" font-size="0.375" fill="black" text-anchor="start" font-family="Anuphan" font-weight="600">Input 1</text>
</g>
<g id="d1">
<rect x="0.005" y="0.005" width="0.4447500000000003" height="0.4447500000000003" fill="#0074D9" />
<rect x="0.4547500000000003" y="0.005" width="0.4447500000000003" height="0.4447500000000003" fill="#0074D9" />
<rect x="0.9045000000000006" y="0.005" width="0.4447500000000003" height="0.4447500000000003" fill="#0074D9" />
<rect x="1.3542500000000008" y="0.005" width="0.4447500000000003" height="0.4447500000000003" fill="#54D2EB" />
<rect x="1.8040000000000012" y="0.005" width="0.4447500000000003" height="0.4447500000000003" fill="#252525" />
<rect x="2.2537500000000015" y="0.005" width="0.4447500000000003" height="0.4447500000000003" fill="#252525" />
<rect x="2.703500000000002" y="0.005" width="0.4447500000000003" height="0.4447500000000003" fill="#252525" />
<rect x="3.153250000000002" y="0.005" width="0.4447500000000003" height="0.4447500000000003" fill="#252525" />
<rect x="3.6030000000000024" y="0.005" width="0.4447500000000003" height="0.4447500000000003" fill="#252525" />
<rect x="4.052750000000002" y="0.005" width="0.4447500000000003" height="0.4447500000000003" fill="#252525" />
<rect x="0.005" y="0.4547500000000003" width="0.4447500000000003" height="0.4447500000000003" fill="#0074D9" />
<rect x="0.4547500000000003" y="0.4547500000000003" width="0.4447500000000003" height="0.4447500000000003" fill="#54D2EB" />
<rect x="0.9045000000000006" y="0.4547500000000003" width="0.4447500000000003" height="0.4447500000000003" fill="#0074D9" />
<rect x="1.3542500000000008" y="0.4547500000000003" width="0.4447500000000003" height="0.4447500000000003" fill="#0074D9" />
<rect x="1.8040000000000012" y="0.4547500000000003" width="0.4447500000000003" height="0.4447500000000003" fill="#252525" />
<rect x="2.2537500000000015" y="0.4547500000000003" width="0.4447500000000003" height="0.4447500000000003" fill="#0074D9" />
<rect x="2.703500000000002" y="0.4547500000000003" width="0.4447500000000003" height="0.4447500000000003" fill="#54D2EB" />
<rect x="3.153250000000002" y="0.4547500000000003" width="0.4447500000000003" height="0.4447500000000003" fill="#54D2EB" />
<rect x="3.6030000000000024" y="0.4547500000000003" width="0.4447500000000003" height="0.4447500000000003" fill="#0074D9" />
<rect x="4.052750000000002" y="0.4547500000000003" width="0.4447500000000003" height="0.4447500000000003" fill="#54D2EB" />
<rect x="0.005" y="0.9045000000000006" width="0.4447500000000003" height="0.4447500000000003" fill="#54D2EB" />
<rect x="0.4547500000000003" y="0.9045000000000006" width="0.4447500000000003" height="0.4447500000000003" fill="#FF4136" />
<rect x="0.9045000000000006" y="0.9045000000000006" width="0.4447500000000003" height="0.4447500000000003" fill="#54D2EB" />
<rect x="1.3542500000000008" y="0.9045000000000006" width="0.4447500000000003" height="0.4447500000000003" fill="#0074D9" />
<rect x="1.8040000000000012" y="0.9045000000000006" width="0.4447500000000003" height="0.4447500000000003" fill="#252525" />
<rect x="2.2537500000000015" y="0.9045000000000006" width="0.4447500000000003" height="0.4447500000000003" fill="#54D2EB" />
<rect x="2.703500000000002" y="0.9045000000000006" width="0.4447500000000003" height="0.4447500000000003" fill="#0074D9" />
<rect x="3.153250000000002" y="0.9045000000000006" width="0.4447500000000003" height="0.4447500000000003" fill="#54D2EB" />
<rect x="3.6030000000000024" y="0.9045000000000006" width="0.4447500000000003" height="0.4447500000000003" fill="#FF4136" />
<rect x="4.052750000000002" y="0.9045000000000006" width="0.4447500000000003" height="0.4447500000000003" fill="#54D2EB" />
<rect x="0.005" y="1.3542500000000008" width="0.4447500000000003" height="0.4447500000000003" fill="#0074D9" />
<rect x="0.4547500000000003" y="1.3542500000000008" width="0.4447500000000003" height="0.4447500000000003" fill="#0074D9" />
<rect x="0.9045000000000006" y="1.3542500000000008" width="0.4447500000000003" height="0.4447500000000003" fill="#0074D9" />
<rect x="1.3542500000000008" y="1.3542500000000008" width="0.4447500000000003" height="0.4447500000000003" fill="#54D2EB" />
<rect x="1.8040000000000012" y="1.3542500000000008" width="0.4447500000000003" height="0.4447500000000003" fill="#252525" />
<rect x="2.2537500000000015" y="1.3542500000000008" width="0.4447500000000003" height="0.4447500000000003" fill="#54D2EB" />
<rect x="2.703500000000002" y="1.3542500000000008" width="0.4447500000000003" height="0.4447500000000003" fill="#54D2EB" />
<rect x="3.153250000000002" y="1.3542500000000008" width="0.4447500000000003" height="0.4447500000000003" fill="#54D2EB" />
<rect x="3.6030000000000024" y="1.3542500000000008" width="0.4447500000000003" height="0.4447500000000003" fill="#54D2EB" />
<rect x="4.052750000000002" y="1.3542500000000008" width="0.4447500000000003" height="0.4447500000000003" fill="#0074D9" />
<rect x="0.005" y="1.8040000000000012" width="0.4447500000000003" height="0.4447500000000003" fill="#54D2EB" />
<rect x="0.4547500000000003" y="1.8040000000000012" width="0.4447500000000003" height="0.4447500000000003" fill="#0074D9" />
<rect x="0.9045000000000006" y="1.8040000000000012" width="0.4447500000000003" height="0.4447500000000003" fill="#54D2EB" />
<rect x="1.3542500000000008" y="1.8040000000000012" width="0.4447500000000003" height="0.4447500000000003" fill="#54D2EB" />
<rect x="1.8040000000000012" y="1.8040000000000012" width="0.4447500000000003" height="0.4447500000000003" fill="#252525" />
<rect x="2.2537500000000015" y="1.8040000000000012" width="0.4447500000000003" height="0.4447500000000003" fill="#54D2EB" />
<rect x="2.703500000000002" y="1.8040000000000012" width="0.4447500000000003" height="0.4447500000000003" fill="#0074D9" />
<rect x="3.153250000000002" y="1.8040000000000012" width="0.4447500000000003" height="0.4447500000000003" fill="#FF4136" />
<rect x="3.6030000000000024" y="1.8040000000000012" width="0.4447500000000003" height="0.4447500000000003" fill="#54D2EB" />
<rect x="4.052750000000002" y="1.8040000000000012" width="0.4447500000000003" height="0.4447500000000003" fill="#FF4136" />
<rect x="0.005" y="2.2537500000000015" width="0.4447500000000003" height="0.4447500000000003" fill="#252525" />
<rect x="0.4547500000000003" y="2.2537500000000015" width="0.4447500000000003" height="0.4447500000000003" fill="#252525" />
<rect x="0.9045000000000006" y="2.2537500000000015" width="0.4447500000000003" height="0.4447500000000003" fill="#252525" />
<rect x="1.3542500000000008" y="2.2537500000000015" width="0.4447500000000003" height="0.4447500000000003" fill="#252525" />
<rect x="1.8040000000000012" y="2.2537500000000015" width="0.4447500000000003" height="0.4447500000000003" fill="#252525" />
<rect x="2.2537500000000015" y="2.2537500000000015" width="0.4447500000000003" height="0.4447500000000003" fill="#54D2EB" />
<rect x="2.703500000000002" y="2.2537500000000015" width="0.4447500000000003" height="0.4447500000000003" fill="#54D2EB" />
<rect x="3.153250000000002" y="2.2537500000000015" width="0.4447500000000003" height="0.4447500000000003" fill="#54D2EB" />
<rect x="3.6030000000000024" y="2.2537500000000015" width="0.4447500000000003" height="0.4447500000000003" fill="#0074D9" />
<rect x="4.052750000000002" y="2.2537500000000015" width="0.4447500000000003" height="0.4447500000000003" fill="#54D2EB" />
<rect x="0.005" y="2.703500000000002" width="0.4447500000000003" height="0.4447500000000003" fill="#252525" />
<rect x="0.4547500000000003" y="2.703500000000002" width="0.4447500000000003" height="0.4447500000000003" fill="#252525" />
<rect x="0.9045000000000006" y="2.703500000000002" width="0.4447500000000003" height="0.4447500000000003" fill="#252525" />
<rect x="1.3542500000000008" y="2.703500000000002" width="0.4447500000000003" height="0.4447500000000003" fill="#252525" />
<rect x="1.8040000000000012" y="2.703500000000002" width="0.4447500000000003" height="0.4447500000000003" fill="#252525" />
<rect x="2.2537500000000015" y="2.703500000000002" width="0.4447500000000003" height="0.4447500000000003" fill="#0074D9" />
<rect x="2.703500000000002" y="2.703500000000002" width="0.4447500000000003" height="0.4447500000000003" fill="#0074D9" />
<rect x="3.153250000000002" y="2.703500000000002" width="0.4447500000000003" height="0.4447500000000003" fill="#54D2EB" />
<rect x="3.6030000000000024" y="2.703500000000002" width="0.4447500000000003" height="0.4447500000000003" fill="#0074D9" />
<rect x="4.052750000000002" y="2.703500000000002" width="0.4447500000000003" height="0.4447500000000003" fill="#54D2EB" />
<rect x="0.005" y="3.153250000000002" width="0.4447500000000003" height="0.4447500000000003" fill="#252525" />
<rect x="0.4547500000000003" y="3.153250000000002" width="0.4447500000000003" height="0.4447500000000003" fill="#54D2EB" />
<rect x="0.9045000000000006" y="3.153250000000002" width="0.4447500000000003" height="0.4447500000000003" fill="#FF4136" />
<rect x="1.3542500000000008" y="3.153250000000002" width="0.4447500000000003" height="0.4447500000000003" fill="#FF4136" />
<rect x="1.8040000000000012" y="3.153250000000002" width="0.4447500000000003" height="0.4447500000000003" fill="#252525" />
<rect x="2.2537500000000015" y="3.153250000000002" width="0.4447500000000003" height="0.4447500000000003" fill="#54D2EB" />
<rect x="2.703500000000002" y="3.153250000000002" width="0.4447500000000003" height="0.4447500000000003" fill="#0074D9" />
<rect x="3.153250000000002" y="3.153250000000002" width="0.4447500000000003" height="0.4447500000000003" fill="#0074D9" />
<rect x="3.6030000000000024" y="3.153250000000002" width="0.4447500000000003" height="0.4447500000000003" fill="#54D2EB" />
<rect x="4.052750000000002" y="3.153250000000002" width="0.4447500000000003" height="0.4447500000000003" fill="#FF4136" />
<rect x="0.005" y="3.6030000000000024" width="0.4447500000000003" height="0.4447500000000003" fill="#252525" />
<rect x="0.4547500000000003" y="3.6030000000000024" width="0.4447500000000003" height="0.4447500000000003" fill="#FF4136" />
<rect x="0.9045000000000006" y="3.6030000000000024" width="0.4447500000000003" height="0.4447500000000003" fill="#FF4136" />
<rect x="1.3542500000000008" y="3.6030000000000024" width="0.4447500000000003" height="0.4447500000000003" fill="#0074D9" />
<rect x="1.8040000000000012" y="3.6030000000000024" width="0.4447500000000003" height="0.4447500000000003" fill="#252525" />
<rect x="2.2537500000000015" y="3.6030000000000024" width="0.4447500000000003" height="0.4447500000000003" fill="#252525" />
<rect x="2.703500000000002" y="3.6030000000000024" width="0.4447500000000003" height="0.4447500000000003" fill="#252525" />
<rect x="3.153250000000002" y="3.6030000000000024" width="0.4447500000000003" height="0.4447500000000003" fill="#252525" />
<rect x="3.6030000000000024" y="3.6030000000000024" width="0.4447500000000003" height="0.4447500000000003" fill="#252525" />
<rect x="4.052750000000002" y="3.6030000000000024" width="0.4447500000000003" height="0.4447500000000003" fill="#252525" />
<rect x="0.005" y="4.052750000000002" width="0.4447500000000003" height="0.4447500000000003" fill="#252525" />
<rect x="0.4547500000000003" y="4.052750000000002" width="0.4447500000000003" height="0.4447500000000003" fill="#FF4136" />
<rect x="0.9045000000000006" y="4.052750000000002" width="0.4447500000000003" height="0.4447500000000003" fill="#0074D9" />
<rect x="1.3542500000000008" y="4.052750000000002" width="0.4447500000000003" height="0.4447500000000003" fill="#54D2EB" />
<rect x="1.8040000000000012" y="4.052750000000002" width="0.4447500000000003" height="0.4447500000000003" fill="#252525" />
<rect x="2.2537500000000015" y="4.052750000000002" width="0.4447500000000003" height="0.4447500000000003" fill="#252525" />
<rect x="2.703500000000002" y="4.052750000000002" width="0.4447500000000003" height="0.4447500000000003" fill="#252525" />
<rect x="3.153250000000002" y="4.052750000000002" width="0.4447500000000003" height="0.4447500000000003" fill="#252525" />
<rect x="3.6030000000000024" y="4.052750000000002" width="0.4447500000000003" height="0.4447500000000003" fill="#252525" />
<rect x="4.052750000000002" y="4.052750000000002" width="0.4447500000000003" height="0.4447500000000003" fill="#252525" />
<rect x="-0.02666666666666667" y="-0.02666666666666667" width="4.550833333333337" height="4.550833333333337" fill="none" stroke="#111111ff" stroke-width="0.08" />
<text x="4.497500000000003" y="4.966250000000003" font-size="0.375" fill="black" text-anchor="end" font-family="Anuphan">10x10</text>
<text x="-0.037500000000000006" y="4.966250000000003" font-size="0.375" fill="black" text-anchor="start" font-family="Anuphan" font-weight="600">Input 2</text>
</g>
<g id="d2">
<rect x="0.005" y="0.005" width="0.4447500000000003" height="0.4447500000000003" fill="#FF4136" />
<rect x="0.4547500000000003" y="0.005" width="0.4447500000000003" height="0.4447500000000003" fill="#54D2EB" />
<rect x="0.9045000000000006" y="0.005" width="0.4447500000000003" height="0.4447500000000003" fill="#54D2EB" />
<rect x="1.3542500000000008" y="0.005" width="0.4447500000000003" height="0.4447500000000003" fill="#54D2EB" />
<rect x="1.8040000000000012" y="0.005" width="0.4447500000000003" height="0.4447500000000003" fill="#252525" />
<rect x="2.2537500000000015" y="0.005" width="0.4447500000000003" height="0.4447500000000003" fill="#252525" />
<rect x="2.703500000000002" y="0.005" width="0.4447500000000003" height="0.4447500000000003" fill="#252525" />
<rect x="3.153250000000002" y="0.005" width="0.4447500000000003" height="0.4447500000000003" fill="#252525" />
<rect x="3.6030000000000024" y="0.005" width="0.4447500000000003" height="0.4447500000000003" fill="#252525" />
<rect x="4.052750000000002" y="0.005" width="0.4447500000000003" height="0.4447500000000003" fill="#252525" />
<rect x="0.005" y="0.4547500000000003" width="0.4447500000000003" height="0.4447500000000003" fill="#54D2EB" />
<rect x="0.4547500000000003" y="0.4547500000000003" width="0.4447500000000003" height="0.4447500000000003" fill="#54D2EB" />
<rect x="0.9045000000000006" y="0.4547500000000003" width="0.4447500000000003" height="0.4447500000000003" fill="#0074D9" />
<rect x="1.3542500000000008" y="0.4547500000000003" width="0.4447500000000003" height="0.4447500000000003" fill="#54D2EB" />
<rect x="1.8040000000000012" y="0.4547500000000003" width="0.4447500000000003" height="0.4447500000000003" fill="#252525" />
<rect x="2.2537500000000015" y="0.4547500000000003" width="0.4447500000000003" height="0.4447500000000003" fill="#252525" />
<rect x="2.703500000000002" y="0.4547500000000003" width="0.4447500000000003" height="0.4447500000000003" fill="#252525" />
<rect x="3.153250000000002" y="0.4547500000000003" width="0.4447500000000003" height="0.4447500000000003" fill="#252525" />
<rect x="3.6030000000000024" y="0.4547500000000003" width="0.4447500000000003" height="0.4447500000000003" fill="#252525" />
<rect x="4.052750000000002" y="0.4547500000000003" width="0.4447500000000003" height="0.4447500000000003" fill="#252525" />
<rect x="0.005" y="0.9045000000000006" width="0.4447500000000003" height="0.4447500000000003" fill="#0074D9" />
<rect x="0.4547500000000003" y="0.9045000000000006" width="0.4447500000000003" height="0.4447500000000003" fill="#54D2EB" />
<rect x="0.9045000000000006" y="0.9045000000000006" width="0.4447500000000003" height="0.4447500000000003" fill="#54D2EB" />
<rect x="1.3542500000000008" y="0.9045000000000006" width="0.4447500000000003" height="0.4447500000000003" fill="#54D2EB" />
<rect x="1.8040000000000012" y="0.9045000000000006" width="0.4447500000000003" height="0.4447500000000003" fill="#252525" />
<rect x="2.2537500000000015" y="0.9045000000000006" width="0.4447500000000003" height="0.4447500000000003" fill="#252525" />
<rect x="2.703500000000002" y="0.9045000000000006" width="0.4447500000000003" height="0.4447500000000003" fill="#252525" />
<rect x="3.153250000000002" y="0.9045000000000006" width="0.4447500000000003" height="0.4447500000000003" fill="#252525" />
<rect x="3.6030000000000024" y="0.9045000000000006" width="0.4447500000000003" height="0.4447500000000003" fill="#252525" />
<rect x="4.052750000000002" y="0.9045000000000006" width="0.4447500000000003" height="0.4447500000000003" fill="#252525" />
<rect x="0.005" y="1.3542500000000008" width="0.4447500000000003" height="0.4447500000000003" fill="#54D2EB" />
<rect x="0.4547500000000003" y="1.3542500000000008" width="0.4447500000000003" height="0.4447500000000003" fill="#54D2EB" />
<rect x="0.9045000000000006" y="1.3542500000000008" width="0.4447500000000003" height="0.4447500000000003" fill="#54D2EB" />
<rect x="1.3542500000000008" y="1.3542500000000008" width="0.4447500000000003" height="0.4447500000000003" fill="#FF4136" />
<rect x="1.8040000000000012" y="1.3542500000000008" width="0.4447500000000003" height="0.4447500000000003" fill="#252525" />
<rect x="2.2537500000000015" y="1.3542500000000008" width="0.4447500000000003" height="0.4447500000000003" fill="#252525" />
<rect x="2.703500000000002" y="1.3542500000000008" width="0.4447500000000003" height="0.4447500000000003" fill="#0074D9" />
<rect x="3.153250000000002" y="1.3542500000000008" width="0.4447500000000003" height="0.4447500000000003" fill="#54D2EB" />
<rect x="3.6030000000000024" y="1.3542500000000008" width="0.4447500000000003" height="0.4447500000000003" fill="#54D2EB" />
<rect x="4.052750000000002" y="1.3542500000000008" width="0.4447500000000003" height="0.4447500000000003" fill="#FF4136" />
<rect x="0.005" y="1.8040000000000012" width="0.4447500000000003" height="0.4447500000000003" fill="#54D2EB" />
<rect x="0.4547500000000003" y="1.8040000000000012" width="0.4447500000000003" height="0.4447500000000003" fill="#FF4136" />
<rect x="0.9045000000000006" y="1.8040000000000012" width="0.4447500000000003" height="0.4447500000000003" fill="#54D2EB" />
<rect x="1.3542500000000008" y="1.8040000000000012" width="0.4447500000000003" height="0.4447500000000003" fill="#0074D9" />
<rect x="1.8040000000000012" y="1.8040000000000012" width="0.4447500000000003" height="0.4447500000000003" fill="#252525" />
<rect x="2.2537500000000015" y="1.8040000000000012" width="0.4447500000000003" height="0.4447500000000003" fill="#252525" />
<rect x="2.703500000000002" y="1.8040000000000012" width="0.4447500000000003" height="0.4447500000000003" fill="#54D2EB" />
<rect x="3.153250000000002" y="1.8040000000000012" width="0.4447500000000003" height="0.4447500000000003" fill="#54D2EB" />
<rect x="3.6030000000000024" y="1.8040000000000012" width="0.4447500000000003" height="0.4447500000000003" fill="#0074D9" />
<rect x="4.052750000000002" y="1.8040000000000012" width="0.4447500000000003" height="0.4447500000000003" fill="#54D2EB" />
<rect x="0.005" y="2.2537500000000015" width="0.4447500000000003" height="0.4447500000000003" fill="#54D2EB" />
<rect x="0.4547500000000003" y="2.2537500000000015" width="0.4447500000000003" height="0.4447500000000003" fill="#0074D9" />
<rect x="0.9045000000000006" y="2.2537500000000015" width="0.4447500000000003" height="0.4447500000000003" fill="#54D2EB" />
<rect x="1.3542500000000008" y="2.2537500000000015" width="0.4447500000000003" height="0.4447500000000003" fill="#54D2EB" />
<rect x="1.8040000000000012" y="2.2537500000000015" width="0.4447500000000003" height="0.4447500000000003" fill="#252525" />
<rect x="2.2537500000000015" y="2.2537500000000015" width="0.4447500000000003" height="0.4447500000000003" fill="#252525" />
<rect x="2.703500000000002" y="2.2537500000000015" width="0.4447500000000003" height="0.4447500000000003" fill="#54D2EB" />
<rect x="3.153250000000002" y="2.2537500000000015" width="0.4447500000000003" height="0.4447500000000003" fill="#FF4136" />
<rect x="3.6030000000000024" y="2.2537500000000015" width="0.4447500000000003" height="0.4447500000000003" fill="#54D2EB" />
<rect x="4.052750000000002" y="2.2537500000000015" width="0.4447500000000003" height="0.4447500000000003" fill="#54D2EB" />
<rect x="0.005" y="2.703500000000002" width="0.4447500000000003" height="0.4447500000000003" fill="#252525" />
<rect x="0.4547500000000003" y="2.703500000000002" width="0.4447500000000003" height="0.4447500000000003" fill="#252525" />
<rect x="0.9045000000000006" y="2.703500000000002" width="0.4447500000000003" height="0.4447500000000003" fill="#252525" />
<rect x="1.3542500000000008" y="2.703500000000002" width="0.4447500000000003" height="0.4447500000000003" fill="#252525" />
<rect x="1.8040000000000012" y="2.703500000000002" width="0.4447500000000003" height="0.4447500000000003" fill="#252525" />
<rect x="2.2537500000000015" y="2.703500000000002" width="0.4447500000000003" height="0.4447500000000003" fill="#252525" />
<rect x="2.703500000000002" y="2.703500000000002" width="0.4447500000000003" height="0.4447500000000003" fill="#54D2EB" />
<rect x="3.153250000000002" y="2.703500000000002" width="0.4447500000000003" height="0.4447500000000003" fill="#54D2EB" />
<rect x="3.6030000000000024" y="2.703500000000002" width="0.4447500000000003" height="0.4447500000000003" fill="#54D2EB" />
<rect x="4.052750000000002" y="2.703500000000002" width="0.4447500000000003" height="0.4447500000000003" fill="#0074D9" />
<rect x="0.005" y="3.153250000000002" width="0.4447500000000003" height="0.4447500000000003" fill="#252525" />
<rect x="0.4547500000000003" y="3.153250000000002" width="0.4447500000000003" height="0.4447500000000003" fill="#252525" />
<rect x="0.9045000000000006" y="3.153250000000002" width="0.4447500000000003" height="0.4447500000000003" fill="#252525" />
<rect x="1.3542500000000008" y="3.153250000000002" width="0.4447500000000003" height="0.4447500000000003" fill="#252525" />
<rect x="1.8040000000000012" y="3.153250000000002" width="0.4447500000000003" height="0.4447500000000003" fill="#252525" />
<rect x="2.2537500000000015" y="3.153250000000002" width="0.4447500000000003" height="0.4447500000000003" fill="#252525" />
<rect x="2.703500000000002" y="3.153250000000002" width="0.4447500000000003" height="0.4447500000000003" fill="#0074D9" />
<rect x="3.153250000000002" y="3.153250000000002" width="0.4447500000000003" height="0.4447500000000003" fill="#54D2EB" />
<rect x="3.6030000000000024" y="3.153250000000002" width="0.4447500000000003" height="0.4447500000000003" fill="#54D2EB" />
<rect x="4.052750000000002" y="3.153250000000002" width="0.4447500000000003" height="0.4447500000000003" fill="#54D2EB" />
<rect x="0.005" y="3.6030000000000024" width="0.4447500000000003" height="0.4447500000000003" fill="#252525" />
<rect x="0.4547500000000003" y="3.6030000000000024" width="0.4447500000000003" height="0.4447500000000003" fill="#252525" />
<rect x="0.9045000000000006" y="3.6030000000000024" width="0.4447500000000003" height="0.4447500000000003" fill="#252525" />
<rect x="1.3542500000000008" y="3.6030000000000024" width="0.4447500000000003" height="0.4447500000000003" fill="#252525" />
<rect x="1.8040000000000012" y="3.6030000000000024" width="0.4447500000000003" height="0.4447500000000003" fill="#252525" />
<rect x="2.2537500000000015" y="3.6030000000000024" width="0.4447500000000003" height="0.4447500000000003" fill="#252525" />
<rect x="2.703500000000002" y="3.6030000000000024" width="0.4447500000000003" height="0.4447500000000003" fill="#54D2EB" />
<rect x="3.153250000000002" y="3.6030000000000024" width="0.4447500000000003" height="0.4447500000000003" fill="#54D2EB" />
<rect x="3.6030000000000024" y="3.6030000000000024" width="0.4447500000000003" height="0.4447500000000003" fill="#0074D9" />
<rect x="4.052750000000002" y="3.6030000000000024" width="0.4447500000000003" height="0.4447500000000003" fill="#54D2EB" />
<rect x="0.005" y="4.052750000000002" width="0.4447500000000003" height="0.4447500000000003" fill="#252525" />
<rect x="0.4547500000000003" y="4.052750000000002" width="0.4447500000000003" height="0.4447500000000003" fill="#252525" />
<rect x="0.9045000000000006" y="4.052750000000002" width="0.4447500000000003" height="0.4447500000000003" fill="#252525" />
<rect x="1.3542500000000008" y="4.052750000000002" width="0.4447500000000003" height="0.4447500000000003" fill="#252525" />
<rect x="1.8040000000000012" y="4.052750000000002" width="0.4447500000000003" height="0.4447500000000003" fill="#252525" />
<rect x="2.2537500000000015" y="4.052750000000002" width="0.4447500000000003" height="0.4447500000000003" fill="#252525" />
<rect x="2.703500000000002" y="4.052750000000002" width="0.4447500000000003" height="0.4447500000000003" fill="#252525" />
<rect x="3.153250000000002" y="4.052750000000002" width="0.4447500000000003" height="0.4447500000000003" fill="#252525" />
<rect x="3.6030000000000024" y="4.052750000000002" width="0.4447500000000003" height="0.4447500000000003" fill="#252525" />
<rect x="4.052750000000002" y="4.052750000000002" width="0.4447500000000003" height="0.4447500000000003" fill="#252525" />
<rect x="-0.02666666666666667" y="-0.02666666666666667" width="4.550833333333337" height="4.550833333333337" fill="none" stroke="#111111ff" stroke-width="0.08" />
<text x="4.497500000000003" y="4.966250000000003" font-size="0.375" fill="black" text-anchor="end" font-family="Anuphan">10x10</text>
<text x="-0.037500000000000006" y="4.966250000000003" font-size="0.375" fill="black" text-anchor="start" font-family="Anuphan" font-weight="600">Input 3</text>
</g>
<g id="d3">
<rect x="0.005" y="0.005" width="0.4447500000000003" height="0.4447500000000003" fill="#FF4136" />
<rect x="0.4547500000000003" y="0.005" width="0.4447500000000003" height="0.4447500000000003" fill="#54D2EB" />
<rect x="0.9045000000000006" y="0.005" width="0.4447500000000003" height="0.4447500000000003" fill="#54D2EB" />
<rect x="1.3542500000000008" y="0.005" width="0.4447500000000003" height="0.4447500000000003" fill="#54D2EB" />
<rect x="1.8040000000000012" y="0.005" width="0.4447500000000003" height="0.4447500000000003" fill="#252525" />
<rect x="2.2537500000000015" y="0.005" width="0.4447500000000003" height="0.4447500000000003" fill="#252525" />
<rect x="2.703500000000002" y="0.005" width="0.4447500000000003" height="0.4447500000000003" fill="#252525" />
<rect x="3.153250000000002" y="0.005" width="0.4447500000000003" height="0.4447500000000003" fill="#252525" />
<rect x="3.6030000000000024" y="0.005" width="0.4447500000000003" height="0.4447500000000003" fill="#252525" />
<rect x="4.052750000000002" y="0.005" width="0.4447500000000003" height="0.4447500000000003" fill="#252525" />
<rect x="0.005" y="0.4547500000000003" width="0.4447500000000003" height="0.4447500000000003" fill="#54D2EB" />
<rect x="0.4547500000000003" y="0.4547500000000003" width="0.4447500000000003" height="0.4447500000000003" fill="#54D2EB" />
<rect x="0.9045000000000006" y="0.4547500000000003" width="0.4447500000000003" height="0.4447500000000003" fill="#0074D9" />
<rect x="1.3542500000000008" y="0.4547500000000003" width="0.4447500000000003" height="0.4447500000000003" fill="#54D2EB" />
<rect x="1.8040000000000012" y="0.4547500000000003" width="0.4447500000000003" height="0.4447500000000003" fill="#252525" />
<rect x="2.2537500000000015" y="0.4547500000000003" width="0.4447500000000003" height="0.4447500000000003" fill="#252525" />
<rect x="2.703500000000002" y="0.4547500000000003" width="0.4447500000000003" height="0.4447500000000003" fill="#FF4136" />
<rect x="3.153250000000002" y="0.4547500000000003" width="0.4447500000000003" height="0.4447500000000003" fill="#54D2EB" />
<rect x="3.6030000000000024" y="0.4547500000000003" width="0.4447500000000003" height="0.4447500000000003" fill="#0074D9" />
<rect x="4.052750000000002" y="0.4547500000000003" width="0.4447500000000003" height="0.4447500000000003" fill="#252525" />
<rect x="0.005" y="0.9045000000000006" width="0.4447500000000003" height="0.4447500000000003" fill="#0074D9" />
<rect x="0.4547500000000003" y="0.9045000000000006" width="0.4447500000000003" height="0.4447500000000003" fill="#FF4136" />
<rect x="0.9045000000000006" y="0.9045000000000006" width="0.4447500000000003" height="0.4447500000000003" fill="#54D2EB" />
<rect x="1.3542500000000008" y="0.9045000000000006" width="0.4447500000000003" height="0.4447500000000003" fill="#0074D9" />
<rect x="1.8040000000000012" y="0.9045000000000006" width="0.4447500000000003" height="0.4447500000000003" fill="#252525" />
<rect x="2.2537500000000015" y="0.9045000000000006" width="0.4447500000000003" height="0.4447500000000003" fill="#252525" />
<rect x="2.703500000000002" y="0.9045000000000006" width="0.4447500000000003" height="0.4447500000000003" fill="#54D2EB" />
<rect x="3.153250000000002" y="0.9045000000000006" width="0.4447500000000003" height="0.4447500000000003" fill="#54D2EB" />
<rect x="3.6030000000000024" y="0.9045000000000006" width="0.4447500000000003" height="0.4447500000000003" fill="#54D2EB" />
<rect x="4.052750000000002" y="0.9045000000000006" width="0.4447500000000003" height="0.4447500000000003" fill="#252525" />
<rect x="0.005" y="1.3542500000000008" width="0.4447500000000003" height="0.4447500000000003" fill="#54D2EB" />
<rect x="0.4547500000000003" y="1.3542500000000008" width="0.4447500000000003" height="0.4447500000000003" fill="#54D2EB" />
<rect x="0.9045000000000006" y="1.3542500000000008" width="0.4447500000000003" height="0.4447500000000003" fill="#54D2EB" />
<rect x="1.3542500000000008" y="1.3542500000000008" width="0.4447500000000003" height="0.4447500000000003" fill="#54D2EB" />
<rect x="1.8040000000000012" y="1.3542500000000008" width="0.4447500000000003" height="0.4447500000000003" fill="#252525" />
<rect x="2.2537500000000015" y="1.3542500000000008" width="0.4447500000000003" height="0.4447500000000003" fill="#252525" />
<rect x="2.703500000000002" y="1.3542500000000008" width="0.4447500000000003" height="0.4447500000000003" fill="#FF4136" />
<rect x="3.153250000000002" y="1.3542500000000008" width="0.4447500000000003" height="0.4447500000000003" fill="#0074D9" />
<rect x="3.6030000000000024" y="1.3542500000000008" width="0.4447500000000003" height="0.4447500000000003" fill="#54D2EB" />
<rect x="4.052750000000002" y="1.3542500000000008" width="0.4447500000000003" height="0.4447500000000003" fill="#252525" />
<rect x="0.005" y="1.8040000000000012" width="0.4447500000000003" height="0.4447500000000003" fill="#252525" />
<rect x="0.4547500000000003" y="1.8040000000000012" width="0.4447500000000003" height="0.4447500000000003" fill="#252525" />
<rect x="0.9045000000000006" y="1.8040000000000012" width="0.4447500000000003" height="0.4447500000000003" fill="#252525" />
<rect x="1.3542500000000008" y="1.8040000000000012" width="0.4447500000000003" height="0.4447500000000003" fill="#252525" />
<rect x="1.8040000000000012" y="1.8040000000000012" width="0.4447500000000003" height="0.4447500000000003" fill="#252525" />
<rect x="2.2537500000000015" y="1.8040000000000012" width="0.4447500000000003" height="0.4447500000000003" fill="#252525" />
<rect x="2.703500000000002" y="1.8040000000000012" width="0.4447500000000003" height="0.4447500000000003" fill="#54D2EB" />
<rect x="3.153250000000002" y="1.8040000000000012" width="0.4447500000000003" height="0.4447500000000003" fill="#54D2EB" />
<rect x="3.6030000000000024" y="1.8040000000000012" width="0.4447500000000003" height="0.4447500000000003" fill="#FF4136" />
<rect x="4.052750000000002" y="1.8040000000000012" width="0.4447500000000003" height="0.4447500000000003" fill="#252525" />
<rect x="0.005" y="2.2537500000000015" width="0.4447500000000003" height="0.4447500000000003" fill="#252525" />
<rect x="0.4547500000000003" y="2.2537500000000015" width="0.4447500000000003" height="0.4447500000000003" fill="#252525" />
<rect x="0.9045000000000006" y="2.2537500000000015" width="0.4447500000000003" height="0.4447500000000003" fill="#252525" />
<rect x="1.3542500000000008" y="2.2537500000000015" width="0.4447500000000003" height="0.4447500000000003" fill="#252525" />
<rect x="1.8040000000000012" y="2.2537500000000015" width="0.4447500000000003" height="0.4447500000000003" fill="#252525" />
<rect x="2.2537500000000015" y="2.2537500000000015" width="0.4447500000000003" height="0.4447500000000003" fill="#252525" />
<rect x="2.703500000000002" y="2.2537500000000015" width="0.4447500000000003" height="0.4447500000000003" fill="#FF4136" />
<rect x="3.153250000000002" y="2.2537500000000015" width="0.4447500000000003" height="0.4447500000000003" fill="#54D2EB" />
<rect x="3.6030000000000024" y="2.2537500000000015" width="0.4447500000000003" height="0.4447500000000003" fill="#0074D9" />
<rect x="4.052750000000002" y="2.2537500000000015" width="0.4447500000000003" height="0.4447500000000003" fill="#252525" />
<rect x="0.005" y="2.703500000000002" width="0.4447500000000003" height="0.4447500000000003" fill="#252525" />
<rect x="0.4547500000000003" y="2.703500000000002" width="0.4447500000000003" height="0.4447500000000003" fill="#0074D9" />
<rect x="0.9045000000000006" y="2.703500000000002" width="0.4447500000000003" height="0.4447500000000003" fill="#FF4136" />
<rect x="1.3542500000000008" y="2.703500000000002" width="0.4447500000000003" height="0.4447500000000003" fill="#54D2EB" />
<rect x="1.8040000000000012" y="2.703500000000002" width="0.4447500000000003" height="0.4447500000000003" fill="#FF4136" />
<rect x="2.2537500000000015" y="2.703500000000002" width="0.4447500000000003" height="0.4447500000000003" fill="#252525" />
<rect x="2.703500000000002" y="2.703500000000002" width="0.4447500000000003" height="0.4447500000000003" fill="#0074D9" />
<rect x="3.153250000000002" y="2.703500000000002" width="0.4447500000000003" height="0.4447500000000003" fill="#54D2EB" />
<rect x="3.6030000000000024" y="2.703500000000002" width="0.4447500000000003" height="0.4447500000000003" fill="#54D2EB" />
<rect x="4.052750000000002" y="2.703500000000002" width="0.4447500000000003" height="0.4447500000000003" fill="#252525" />
<rect x="0.005" y="3.153250000000002" width="0.4447500000000003" height="0.4447500000000003" fill="#252525" />
<rect x="0.4547500000000003" y="3.153250000000002" width="0.4447500000000003" height="0.4447500000000003" fill="#54D2EB" />
<rect x="0.9045000000000006" y="3.153250000000002" width="0.4447500000000003" height="0.4447500000000003" fill="#54D2EB" />
<rect x="1.3542500000000008" y="3.153250000000002" width="0.4447500000000003" height="0.4447500000000003" fill="#0074D9" />
<rect x="1.8040000000000012" y="3.153250000000002" width="0.4447500000000003" height="0.4447500000000003" fill="#54D2EB" />
<rect x="2.2537500000000015" y="3.153250000000002" width="0.4447500000000003" height="0.4447500000000003" fill="#252525" />
<rect x="2.703500000000002" y="3.153250000000002" width="0.4447500000000003" height="0.4447500000000003" fill="#252525" />
<rect x="3.153250000000002" y="3.153250000000002" width="0.4447500000000003" height="0.4447500000000003" fill="#252525" />
<rect x="3.6030000000000024" y="3.153250000000002" width="0.4447500000000003" height="0.4447500000000003" fill="#252525" />
<rect x="4.052750000000002" y="3.153250000000002" width="0.4447500000000003" height="0.4447500000000003" fill="#252525" />
<rect x="0.005" y="3.6030000000000024" width="0.4447500000000003" height="0.4447500000000003" fill="#252525" />
<rect x="0.4547500000000003" y="3.6030000000000024" width="0.4447500000000003" height="0.4447500000000003" fill="#0074D9" />
<rect x="0.9045000000000006" y="3.6030000000000024" width="0.4447500000000003" height="0.4447500000000003" fill="#FF4136" />
<rect x="1.3542500000000008" y="3.6030000000000024" width="0.4447500000000003" height="0.4447500000000003" fill="#54D2EB" />
<rect x="1.8040000000000012" y="3.6030000000000024" width="0.4447500000000003" height="0.4447500000000003" fill="#0074D9" />
<rect x="2.2537500000000015" y="3.6030000000000024" width="0.4447500000000003" height="0.4447500000000003" fill="#252525" />
<rect x="2.703500000000002" y="3.6030000000000024" width="0.4447500000000003" height="0.4447500000000003" fill="#252525" />
<rect x="3.153250000000002" y="3.6030000000000024" width="0.4447500000000003" height="0.4447500000000003" fill="#252525" />
<rect x="3.6030000000000024" y="3.6030000000000024" width="0.4447500000000003" height="0.4447500000000003" fill="#252525" />
<rect x="4.052750000000002" y="3.6030000000000024" width="0.4447500000000003" height="0.4447500000000003" fill="#252525" />
<rect x="0.005" y="4.052750000000002" width="0.4447500000000003" height="0.4447500000000003" fill="#252525" />
<rect x="0.4547500000000003" y="4.052750000000002" width="0.4447500000000003" height="0.4447500000000003" fill="#252525" />
<rect x="0.9045000000000006" y="4.052750000000002" width="0.4447500000000003" height="0.4447500000000003" fill="#252525" />
<rect x="1.3542500000000008" y="4.052750000000002" width="0.4447500000000003" height="0.4447500000000003" fill="#252525" />
<rect x="1.8040000000000012" y="4.052750000000002" width="0.4447500000000003" height="0.4447500000000003" fill="#252525" />
<rect x="2.2537500000000015" y="4.052750000000002" width="0.4447500000000003" height="0.4447500000000003" fill="#252525" />
<rect x="2.703500000000002" y="4.052750000000002" width="0.4447500000000003" height="0.4447500000000003" fill="#252525" />
<rect x="3.153250000000002" y="4.052750000000002" width="0.4447500000000003" height="0.4447500000000003" fill="#252525" />
<rect x="3.6030000000000024" y="4.052750000000002" width="0.4447500000000003" height="0.4447500000000003" fill="#252525" />
<rect x="4.052750000000002" y="4.052750000000002" width="0.4447500000000003" height="0.4447500000000003" fill="#252525" />
<rect x="-0.02666666666666667" y="-0.02666666666666667" width="4.550833333333337" height="4.550833333333337" fill="none" stroke="#111111ff" stroke-width="0.08" />
<text x="4.497500000000003" y="4.966250000000003" font-size="0.375" fill="black" text-anchor="end" font-family="Anuphan">10x10</text>
<text x="-0.037500000000000006" y="4.966250000000003" font-size="0.375" fill="black" text-anchor="start" font-family="Anuphan" font-weight="600">Test 1</text>
</g>
<g id="d4">
<rect x="0.005" y="0.005" width="1.08" height="1.08" fill="#54D2EB" />
<rect x="1.0899999999999999" y="0.005" width="1.08" height="1.08" fill="#54D2EB" />
<rect x="2.175" y="0.005" width="1.08" height="1.08" fill="#54D2EB" />
<rect x="3.26" y="0.005" width="1.08" height="1.08" fill="#54D2EB" />
<rect x="0.005" y="1.0899999999999999" width="1.08" height="1.08" fill="#54D2EB" />
<rect x="1.0899999999999999" y="1.0899999999999999" width="1.08" height="1.08" fill="#FF4136" />
<rect x="2.175" y="1.0899999999999999" width="1.08" height="1.08" fill="#FF4136" />
<rect x="3.26" y="1.0899999999999999" width="1.08" height="1.08" fill="#54D2EB" />
<rect x="0.005" y="2.175" width="1.08" height="1.08" fill="#54D2EB" />
<rect x="1.0899999999999999" y="2.175" width="1.08" height="1.08" fill="#54D2EB" />
<rect x="2.175" y="2.175" width="1.08" height="1.08" fill="#54D2EB" />
<rect x="3.26" y="2.175" width="1.08" height="1.08" fill="#54D2EB" />
<rect x="0.005" y="3.26" width="1.08" height="1.08" fill="#54D2EB" />
<rect x="1.0899999999999999" y="3.26" width="1.08" height="1.08" fill="#FF4136" />
<rect x="2.175" y="3.26" width="1.08" height="1.08" fill="#0074D9" />
<rect x="3.26" y="3.26" width="1.08" height="1.08" fill="#54D2EB" />
<rect x="0.005" y="4.345" width="1.08" height="1.08" fill="#54D2EB" />
<rect x="1.0899999999999999" y="4.345" width="1.08" height="1.08" fill="#54D2EB" />
<rect x="2.175" y="4.345" width="1.08" height="1.08" fill="#54D2EB" />
<rect x="3.26" y="4.345" width="1.08" height="1.08" fill="#54D2EB" />
<rect x="-0.02666666666666667" y="-0.02666666666666667" width="4.3933333333333335" height="5.4783333333333335" fill="none" stroke="#111111ff" stroke-width="0.08" />
<text x="4.34" y="5.89375" font-size="0.375" fill="black" text-anchor="end" font-family="Anuphan">4x5</text>
<text x="-0.037500000000000006" y="5.89375" font-size="0.375" fill="black" text-anchor="start" font-family="Anuphan" font-weight="600">Output 1</text>
</g>
<g id="d5">
<rect x="0.005" y="0.005" width="1.4941666666666678" height="1.4941666666666678" fill="#54D2EB" />
<rect x="1.5041666666666675" y="0.005" width="1.4941666666666678" height="1.4941666666666678" fill="#FF4136" />
<rect x="3.003333333333335" y="0.005" width="1.4941666666666678" height="1.4941666666666678" fill="#FF4136" />
<rect x="0.005" y="1.5041666666666675" width="1.4941666666666678" height="1.4941666666666678" fill="#FF4136" />
<rect x="1.5041666666666675" y="1.5041666666666675" width="1.4941666666666678" height="1.4941666666666678" fill="#FF4136" />
<rect x="3.003333333333335" y="1.5041666666666675" width="1.4941666666666678" height="1.4941666666666678" fill="#0074D9" />
<rect x="0.005" y="3.003333333333335" width="1.4941666666666678" height="1.4941666666666678" fill="#FF4136" />
<rect x="1.5041666666666675" y="3.003333333333335" width="1.4941666666666678" height="1.4941666666666678" fill="#0074D9" />
<rect x="3.003333333333335" y="3.003333333333335" width="1.4941666666666678" height="1.4941666666666678" fill="#54D2EB" />
<rect x="-0.02666666666666667" y="-0.02666666666666667" width="4.550833333333337" height="4.550833333333337" fill="none" stroke="#111111ff" stroke-width="0.08" />
<text x="4.497500000000003" y="4.966250000000003" font-size="0.375" fill="black" text-anchor="end" font-family="Anuphan">3x3</text>
<text x="-0.037500000000000006" y="4.966250000000003" font-size="0.375" fill="black" text-anchor="start" font-family="Anuphan" font-weight="600">Output 2</text>
</g>
<g id="d6">
<rect x="0.005" y="0.005" width="0.8991666666666667" height="0.8991666666666667" fill="#FF4136" />
<rect x="0.9091666666666667" y="0.005" width="0.8991666666666667" height="0.8991666666666667" fill="#54D2EB" />
<rect x="1.8133333333333332" y="0.005" width="0.8991666666666667" height="0.8991666666666667" fill="#54D2EB" />
<rect x="2.7175" y="0.005" width="0.8991666666666667" height="0.8991666666666667" fill="#54D2EB" />
<rect x="0.005" y="0.9091666666666667" width="0.8991666666666667" height="0.8991666666666667" fill="#54D2EB" />
<rect x="0.9091666666666667" y="0.9091666666666667" width="0.8991666666666667" height="0.8991666666666667" fill="#54D2EB" />
<rect x="1.8133333333333332" y="0.9091666666666667" width="0.8991666666666667" height="0.8991666666666667" fill="#0074D9" />
<rect x="2.7175" y="0.9091666666666667" width="0.8991666666666667" height="0.8991666666666667" fill="#54D2EB" />
<rect x="0.005" y="1.8133333333333332" width="0.8991666666666667" height="0.8991666666666667" fill="#0074D9" />
<rect x="0.9091666666666667" y="1.8133333333333332" width="0.8991666666666667" height="0.8991666666666667" fill="#54D2EB" />
<rect x="1.8133333333333332" y="1.8133333333333332" width="0.8991666666666667" height="0.8991666666666667" fill="#54D2EB" />
<rect x="2.7175" y="1.8133333333333332" width="0.8991666666666667" height="0.8991666666666667" fill="#54D2EB" />
<rect x="0.005" y="2.7175" width="0.8991666666666667" height="0.8991666666666667" fill="#54D2EB" />
<rect x="0.9091666666666667" y="2.7175" width="0.8991666666666667" height="0.8991666666666667" fill="#54D2EB" />
<rect x="1.8133333333333332" y="2.7175" width="0.8991666666666667" height="0.8991666666666667" fill="#54D2EB" />
<rect x="2.7175" y="2.7175" width="0.8991666666666667" height="0.8991666666666667" fill="#FF4136" />
<rect x="0.005" y="3.6216666666666666" width="0.8991666666666667" height="0.8991666666666667" fill="#54D2EB" />
<rect x="0.9091666666666667" y="3.6216666666666666" width="0.8991666666666667" height="0.8991666666666667" fill="#FF4136" />
<rect x="1.8133333333333332" y="3.6216666666666666" width="0.8991666666666667" height="0.8991666666666667" fill="#54D2EB" />
<rect x="2.7175" y="3.6216666666666666" width="0.8991666666666667" height="0.8991666666666667" fill="#0074D9" />
<rect x="0.005" y="4.525833333333333" width="0.8991666666666667" height="0.8991666666666667" fill="#54D2EB" />
<rect x="0.9091666666666667" y="4.525833333333333" width="0.8991666666666667" height="0.8991666666666667" fill="#0074D9" />
<rect x="1.8133333333333332" y="4.525833333333333" width="0.8991666666666667" height="0.8991666666666667" fill="#54D2EB" />
<rect x="2.7175" y="4.525833333333333" width="0.8991666666666667" height="0.8991666666666667" fill="#54D2EB" />
<rect x="-0.02666666666666667" y="-0.02666666666666667" width="3.67" height="5.4783333333333335" fill="none" stroke="#111111ff" stroke-width="0.08" />
<text x="3.6166666666666667" y="5.89375" font-size="0.375" fill="black" text-anchor="end" font-family="Anuphan">4x6</text>
<text x="-0.037500000000000006" y="5.89375" font-size="0.375" fill="black" text-anchor="start" font-family="Anuphan" font-weight="600">Output 3</text>
</g>
</defs>
<rect x="0" y="0" width="100%" height="100%" fill="#eeeff6" />
<use xlink:href="#d0" x="0.25" y="0.25" />
<use xlink:href="#d1" x="5.247500000000003" y="0.25" />
<use xlink:href="#d2" x="10.245000000000006" y="0.25" />
<use xlink:href="#d3" x="15.24250000000001" y="0.25" />
<path d="M2.4987500000000016,5.3975000000000035 L2.4987500000000016,5.797500000000004" stroke-width="0.05" stroke="#888888" />
<path d="M2.3487500000000017,5.597500000000004 L2.4987500000000016,5.797500000000004" stroke-width="0.05" stroke="#888888" />
<path d="M2.6487500000000015,5.597500000000004 L2.4987500000000016,5.797500000000004" stroke-width="0.05" stroke="#888888" />
<use xlink:href="#d4" x="0.32875000000000165" y="6.1475000000000035" />
<path d="M7.496250000000005,5.3975000000000035 L7.496250000000005,5.797500000000004" stroke-width="0.05" stroke="#888888" />
<path d="M7.346250000000005,5.597500000000004 L7.496250000000005,5.797500000000004" stroke-width="0.05" stroke="#888888" />
<path d="M7.6462500000000055,5.597500000000004 L7.496250000000005,5.797500000000004" stroke-width="0.05" stroke="#888888" />
<use xlink:href="#d5" x="5.247500000000003" y="6.1475000000000035" />
<path d="M12.493750000000007,5.3975000000000035 L12.493750000000007,5.797500000000004" stroke-width="0.05" stroke="#888888" />
<path d="M12.343750000000007,5.597500000000004 L12.493750000000007,5.797500000000004" stroke-width="0.05" stroke="#888888" />
<path d="M12.643750000000008,5.597500000000004 L12.493750000000007,5.797500000000004" stroke-width="0.05" stroke="#888888" />
<use xlink:href="#d6" x="10.685416666666674" y="6.1475000000000035" />
<path d="M17.49125000000001,5.3975000000000035 L17.49125000000001,5.797500000000004" stroke-width="0.05" stroke="#888888" />
<path d="M17.341250000000013,5.597500000000004 L17.49125000000001,5.797500000000004" stroke-width="0.05" stroke="#888888" />
<path d="M17.64125000000001,5.597500000000004 L17.49125000000001,5.797500000000004" stroke-width="0.05" stroke="#888888" />
<text x="17.49125000000001" y="8.960000000000003" font-size="1" font-family="Anuphan" font-weight="700" fill="#333333" text-anchor="middle" alignment-baseline="middle">?</text>
<text x="19.9" y="12.4" font-size="0.3" font-family="Anuphan" font-weight="600" fill="#666666" text-anchor="end" alignment-baseline="bottom">Task e50d258f</text>
</svg>