<?xml version="1.0" encoding="UTF-8"?>
<svg xmlns="http://www.w3.org/2000/svg" xmlns:xlink="http://www.w3.org/1999/xlink"
     width="800.0" height="528.0" viewBox="0 0 20.0 13.2">
<defs>
<g id="d0">
<rect x="0.005" y="0.005" width="0.611333333333316" height="0.611333333333316" fill="#252525" />
<rect x="0.621333333333316" y="0.005" width="0.611333333333316" height="0.611333333333316" fill="#FF4136" />
<rect x="1.2376666666666318" y="0.005" width="0.611333333333316" height="0.611333333333316" fill="#252525" />
<rect x="1.8539999999999477" y="0.005" width="0.611333333333316" height="0.611333333333316" fill="#252525" />
<rect x="2.4703333333332638" y="0.005" width="0.611333333333316" height="0.611333333333316" fill="#252525" />
<rect x="3.08666666666658" y="0.005" width="0.611333333333316" height="0.611333333333316" fill="#54D2EB" />
<rect x="3.7029999999998955" y="0.005" width="0.611333333333316" height="0.611333333333316" fill="#252525" />
<rect x="4.319333333333212" y="0.005" width="0.611333333333316" height="0.611333333333316" fill="#252525" />
<rect x="4.935666666666528" y="0.005" width="0.611333333333316" height="0.611333333333316" fill="#252525" />
<rect x="5.551999999999843" y="0.005" width="0.611333333333316" height="0.611333333333316" fill="#252525" />
<rect x="0.005" y="0.621333333333316" width="0.611333333333316" height="0.611333333333316" fill="#252525" />
<rect x="0.621333333333316" y="0.621333333333316" width="0.611333333333316" height="0.611333333333316" fill="#252525" />
<rect x="1.2376666666666318" y="0.621333333333316" width="0.611333333333316" height="0.611333333333316" fill="#252525" />
<rect x="1.8539999999999477" y="0.621333333333316" width="0.611333333333316" height="0.611333333333316" fill="#252525" />
<rect x="2.4703333333332638" y="0.621333333333316" width="0.611333333333316" height="0.611333333333316" fill="#252525" />
<rect x="3.08666666666658" y="0.621333333333316" width="0.611333333333316" height="0.611333333333316" fill="#252525" />
<rect x="3.7029999999998955" y="0.621333333333316" width="0.611333333333316" height="0.611333333333316" fill="#252525" />
<rect x="4.319333333333212" y="0.621333333333316" width="0.611333333333316" height="0.611333333333316" fill="#252525" />
<rect x="4.935666666666528" y="0.621333333333316" width="0.611333333333316" height="0.611333333333316" fill="#252525" />
<rect x="5.551999999999843" y="0.621333333333316" width="0.611333333333316" height="0.611333333333316" fill="#252525" />
<rect x="0.005" y="1.2376666666666318" width="0.611333333333316" height="0.611333333333316" fill="#252525" />
<rect x="0.621333333333316" y="1.2376666666666318" width="0.611333333333316" height="0.611333333333316" fill="#252525" />
<rect x="1.2376666666666318" y="1.2376666666666318" width="0.611333333333316" height="0.611333333333316" fill="#252525" />
<rect x="1.8539999999999477" y="1.2376666666666318" width="0.611333333333316" height="0.611333333333316" fill="#252525" />
<rect x="2.4703333333332638" y="1.2376666666666318" width="0.611333333333316" height="0.611333333333316" fill="#252525" />
<rect x="3.08666666666658" y="1.2376666666666318" width="0.611333333333316" height="0.611333333333316" fill="#252525" />
<rect x="3.7029999999998955" y="1.2376666666666318" width="0.611333333333316" height="0.611333333333316" fill="#252525" />
<rect x="4.319333333333212" y="1.2376666666666318" width="0.611333333333316" height="0.611333333333316" fill="#252525" />
<rect x="4.935666666666528" y="1.2376666666666318" width="0.611333333333316" height="0.611333333333316" fill="#252525" />
<rect x="5.551999999999843" y="1.2376666666666318" width="0.611333333333316" height="0.611333333333316" fill="#252525" />
<rect x="0.005" y="1.8539999999999477" width="0.611333333333316" height="0.611333333333316" fill="#252525" />
<rect x="0.621333333333316" y="1.8539999999999477" width="0.611333333333316" height="0.611333333333316" fill="#252525" />
<rect x="1.2376666666666318" y="1.8539999999999477" width="0.611333333333316" height="0.611333333333316" fill="#252525" />
<rect x="1.8539999999999477" y="1.8539999999999477" width="0.611333333333316" height="0.611333333333316" fill="#252525" />
<rect x="2.4703333333332638" y="1.8539999999999477" width="0.611333333333316" height="0.611333333333316" fill="#252525" />
<rect x="3.08666666666658" y="1.8539999999999477" width="0.611333333333316" height="0.611333333333316" fill="#252525" />
<rect x="3.7029999999998955" y="1.8539999999999477" width="0.611333333333316" height="0.611333333333316" fill="#252525" />
<rect x="4.319333333333212" y="1.8539999999999477" width="0.611333333333316" height="0.611333333333316" fill="#252525" />
<rect x="4.935666666666528" y="1.8539999999999477" width="0.611333333333316" height="0.611333333333316" fill="#252525" />
<rect x="5.551999999999843" y="1.8539999999999477" width="0.611333333333316" height="0.611333333333316" fill="#252525" />
<rect x="0.005" y="2.4703333333332638" width="0.611333333333316" height="0.611333333333316" fill="#252525" />
<rect x="0.621333333333316" y="2.4703333333332638" width="0.611333333333316" height="0.611333333333316" fill="#252525" />
<rect x="1.2376666666666318" y="2.4703333333332638" width="0.611333333333316" height="0.611333333333316" fill="#252525" />
<rect x="1.8539999999999477" y="2.4703333333332638" width="0.611333333333316" height="0.611333333333316" fill="#252525" />
<rect x="2.4703333333332638" y="2.4703333333332638" width="0.611333333333316" height="0.611333333333316" fill="#252525" />
<rect x="3.08666666666658" y="2.4703333333332638" width="0.611333333333316" height="0.611333333333316" fill="#252525" />
<rect x="3.7029999999998955" y="2.4703333333332638" width="0.611333333333316" height="0.611333333333316" fill="#252525" />
<rect x="4.319333333333212" y="2.4703333333332638" width="0.611333333333316" height="0.611333333333316" fill="#252525" />
<rect x="4.935666666666528" y="2.4703333333332638" width="0.611333333333316" height="0.611333333333316" fill="#252525" />
<rect x="5.551999999999843" y="2.4703333333332638" width="0.611333333333316" height="0.611333333333316" fill="#252525" />
<rect x="0.005" y="3.08666666666658" width="0.611333333333316" height="0.611333333333316" fill="#252525" />
<rect x="0.621333333333316" y="3.08666666666658" width="0.611333333333316" height="0.611333333333316" fill="#252525" />
<rect x="1.2376666666666318" y="3.08666666666658" width="0.611333333333316" height="0.611333333333316" fill="#252525" />
<rect x="1.8539999999999477" y="3.08666666666658" width="0.611333333333316" height="0.611333333333316" fill="#252525" />
<rect x="2.4703333333332638" y="3.08666666666658" width="0.611333333333316" height="0.611333333333316" fill="#252525" />
<rect x="3.08666666666658" y="3.08666666666658" width="0.611333333333316" height="0.611333333333316" fill="#252525" />
<rect x="3.7029999999998955" y="3.08666666666658" width="0.611333333333316" height="0.611333333333316" fill="#252525" />
<rect x="4.319333333333212" y="3.08666666666658" width="0.611333333333316" height="0.611333333333316" fill="#252525" />
<rect x="4.935666666666528" y="3.08666666666658" width="0.611333333333316" height="0.611333333333316" fill="#252525" />
<rect x="5.551999999999843" y="3.08666666666658" width="0.611333333333316" height="0.611333333333316" fill="#252525" />
<rect x="-0.02666666666666667" y="-0.02666666666666667" width="6.216666666666494" height="3.751333333333229" fill="none" stroke="#111111ff" stroke-width="0.08" />
<text x="6.16333333333316" y="4.166749999999896" font-size="0.375" fill="black" text-anchor="end" font-family="Anuphan">10x6</text>
<text x="-0.037500000000000006" y="4.166749999999896" font-size="0.375" fill="black" text-anchor="start" font-family="Anuphan" font-weight="600">Input 1</text>
</g>
<g id="d1">
<rect x="0.005" y="0.005" width="0.8754761904761656" height="0.8754761904761656" fill="#252525" />
<rect x="0.8854761904761657" y="0.005" width="0.8754761904761656" height="0.8754761904761656" fill="#FFDC00" />
<rect x="1.7659523809523312" y="0.005" width="0.8754761904761656" height="0.8754761904761656" fill="#252525" />
<rect x="2.6464285714284967" y="0.005" width="0.8754761904761656" height="0.8754761904761656" fill="#252525" />
<rect x="3.5269047619046625" y="0.005" width="0.8754761904761656" height="0.8754761904761656" fill="#252525" />
<rect x="4.407380952380828" y="0.005" width="0.8754761904761656" height="0.8754761904761656" fill="#252525" />
<rect x="5.287857142856994" y="0.005" width="0.8754761904761656" height="0.8754761904761656" fill="#252525" />
<rect x="0.005" y="0.8854761904761657" width="0.8754761904761656" height="0.8754761904761656" fill="#252525" />
<rect x="0.8854761904761657" y="0.8854761904761657" width="0.8754761904761656" height="0.8754761904761656" fill="#252525" />
<rect x="1.7659523809523312" y="0.8854761904761657" width="0.8754761904761656" height="0.8754761904761656" fill="#252525" />
<rect x="2.6464285714284967" y="0.8854761904761657" width="0.8754761904761656" height="0.8754761904761656" fill="#252525" />
<rect x="3.5269047619046625" y="0.8854761904761657" width="0.8754761904761656" height="0.8754761904761656" fill="#252525" />
<rect x="4.407380952380828" y="0.8854761904761657" width="0.8754761904761656" height="0.8754761904761656" fill="#252525" />
<rect x="5.287857142856994" y="0.8854761904761657" width="0.8754761904761656" height="0.8754761904761656" fill="#252525" />
<rect x="0.005" y="1.7659523809523312" width="0.8754761904761656" height="0.8754761904761656" fill="#252525" />
<rect x="0.8854761904761657" y="1.7659523809523312" width="0.8754761904761656" height="0.8754761904761656" fill="#252525" />
<rect x="1.7659523809523312" y="1.7659523809523312" width="0.8754761904761656" height="0.8754761904761656" fill="#252525" />
<rect x="2.6464285714284967" y="1.7659523809523312" width="0.8754761904761656" height="0.8754761904761656" fill="#252525" />
<rect x="3.5269047619046625" y="1.7659523809523312" width="0.8754761904761656" height="0.8754761904761656" fill="#252525" />
<rect x="4.407380952380828" y="1.7659523809523312" width="0.8754761904761656" height="0.8754761904761656" fill="#252525" />
<rect x="5.287857142856994" y="1.7659523809523312" width="0.8754761904761656" height="0.8754761904761656" fill="#252525" />
<rect x="0.005" y="2.6464285714284967" width="0.8754761904761656" height="0.8754761904761656" fill="#252525" />
<rect x="0.8854761904761657" y="2.6464285714284967" width="0.8754761904761656" height="0.8754761904761656" fill="#252525" />
<rect x="1.7659523809523312" y="2.6464285714284967" width="0.8754761904761656" height="0.8754761904761656" fill="#252525" />
<rect x="2.6464285714284967" y="2.6464285714284967" width="0.8754761904761656" height="0.8754761904761656" fill="#252525" />
<rect x="3.5269047619046625" y="2.6464285714284967" width="0.8754761904761656" height="0.8754761904761656" fill="#252525" />
<rect x="4.407380952380828" y="2.6464285714284967" width="0.8754761904761656" height="0.8754761904761656" fill="#252525" />
<rect x="5.287857142856994" y="2.6464285714284967" width="0.8754761904761656" height="0.8754761904761656" fill="#252525" />
<rect x="0.005" y="3.5269047619046625" width="0.8754761904761656" height="0.8754761904761656" fill="#252525" />
<rect x="0.8854761904761657" y="3.5269047619046625" width="0.8754761904761656" height="0.8754761904761656" fill="#252525" />
<rect x="1.7659523809523312" y="3.5269047619046625" width="0.8754761904761656" height="0.8754761904761656" fill="#252525" />
<rect x="2.6464285714284967" y="3.5269047619046625" width="0.8754761904761656" height="0.8754761904761656" fill="#252525" />
<rect x="3.5269047619046625" y="3.5269047619046625" width="0.8754761904761656" height="0.8754761904761656" fill="#252525" />
<rect x="4.407380952380828" y="3.5269047619046625" width="0.8754761904761656" height="0.8754761904761656" fill="#252525" />
<rect x="5.287857142856994" y="3.5269047619046625" width="0.8754761904761656" height="0.8754761904761656" fill="#252525" />
<rect x="0.005" y="4.407380952380828" width="0.8754761904761656" height="0.8754761904761656" fill="#252525" />
<rect x="0.8854761904761657" y="4.407380952380828" width="0.8754761904761656" height="0.8754761904761656" fill="#252525" />
<rect x="1.7659523809523312" y="4.407380952380828" width="0.8754761904761656" height="0.8754761904761656" fill="#252525" />
<rect x="2.6464285714284967" y="4.407380952380828" width="0.8754761904761656" height="0.8754761904761656" fill="#252525" />
<rect x="3.5269047619046625" y="4.407380952380828" width="0.8754761904761656" height="0.8754761904761656" fill="#252525" />
<rect x="4.407380952380828" y="4.407380952380828" width="0.8754761904761656" height="0.8754761904761656" fill="#252525" />
<rect x="5.287857142856994" y="4.407380952380828" width="0.8754761904761656" height="0.8754761904761656" fill="#252525" />
<rect x="-0.02666666666666667" y="-0.02666666666666667" width="6.216666666666494" height="5.336190476190327" fill="none" stroke="#111111ff" stroke-width="0.08" />
<text x="6.16333333333316" y="5.751607142856994" font-size="0.375" fill="black" text-anchor="end" font-family="Anuphan">7x6</text>
<text x="-0.037500000000000006" y="5.751607142856994" font-size="0.375" fill="black" text-anchor="start" font-family="Anuphan" font-weight="600">Input 2</text>
</g>
<g id="d2">
<rect x="0.005" y="0.005" width="0.5086111111110967" height="0.5086111111110967" fill="#252525" />
<rect x="0.5186111111110967" y="0.005" width="0.5086111111110967" height="0.5086111111110967" fill="#252525" />
<rect x="1.0322222222221933" y="0.005" width="0.5086111111110967" height="0.5086111111110967" fill="#37D449" />
<rect x="1.5458333333332899" y="0.005" width="0.5086111111110967" height="0.5086111111110967" fill="#252525" />
<rect x="2.0594444444443867" y="0.005" width="0.5086111111110967" height="0.5086111111110967" fill="#252525" />
<rect x="2.5730555555554835" y="0.005" width="0.5086111111110967" height="0.5086111111110967" fill="#252525" />
<rect x="3.08666666666658" y="0.005" width="0.5086111111110967" height="0.5086111111110967" fill="#F012BE" />
<rect x="3.6002777777776767" y="0.005" width="0.5086111111110967" height="0.5086111111110967" fill="#252525" />
<rect x="4.1138888888887735" y="0.005" width="0.5086111111110967" height="0.5086111111110967" fill="#252525" />
<rect x="4.62749999999987" y="0.005" width="0.5086111111110967" height="0.5086111111110967" fill="#FF871E" />
<rect x="5.141111111110967" y="0.005" width="0.5086111111110967" height="0.5086111111110967" fill="#252525" />
<rect x="5.654722222222063" y="0.005" width="0.5086111111110967" height="0.5086111111110967" fill="#252525" />
<rect x="0.005" y="0.5186111111110967" width="0.5086111111110967" height="0.5086111111110967" fill="#252525" />
<rect x="0.5186111111110967" y="0.5186111111110967" width="0.5086111111110967" height="0.5086111111110967" fill="#252525" />
<rect x="1.0322222222221933" y="0.5186111111110967" width="0.5086111111110967" height="0.5086111111110967" fill="#252525" />
<rect x="1.5458333333332899" y="0.5186111111110967" width="0.5086111111110967" height="0.5086111111110967" fill="#252525" />
<rect x="2.0594444444443867" y="0.5186111111110967" width="0.5086111111110967" height="0.5086111111110967" fill="#252525" />
<rect x="2.5730555555554835" y="0.5186111111110967" width="0.5086111111110967" height="0.5086111111110967" fill="#252525" />
<rect x="3.08666666666658" y="0.5186111111110967" width="0.5086111111110967" height="0.5086111111110967" fill="#252525" />
<rect x="3.6002777777776767" y="0.5186111111110967" width="0.5086111111110967" height="0.5086111111110967" fill="#252525" />
<rect x="4.1138888888887735" y="0.5186111111110967" width="0.5086111111110967" height="0.5086111111110967" fill="#252525" />
<rect x="4.62749999999987" y="0.5186111111110967" width="0.5086111111110967" height="0.5086111111110967" fill="#252525" />
<rect x="5.141111111110967" y="0.5186111111110967" width="0.5086111111110967" height="0.5086111111110967" fill="#252525" />
<rect x="5.654722222222063" y="0.5186111111110967" width="0.5086111111110967" height="0.5086111111110967" fill="#252525" />
<rect x="0.005" y="1.0322222222221933" width="0.5086111111110967" height="0.5086111111110967" fill="#252525" />
<rect x="0.5186111111110967" y="1.0322222222221933" width="0.5086111111110967" height="0.5086111111110967" fill="#252525" />
<rect x="1.0322222222221933" y="1.0322222222221933" width="0.5086111111110967" height="0.5086111111110967" fill="#252525" />
<rect x="1.5458333333332899" y="1.0322222222221933" width="0.5086111111110967" height="0.5086111111110967" fill="#252525" />
<rect x="2.0594444444443867" y="1.0322222222221933" width="0.5086111111110967" height="0.5086111111110967" fill="#252525" />
<rect x="2.5730555555554835" y="1.0322222222221933" width="0.5086111111110967" height="0.5086111111110967" fill="#252525" />
<rect x="3.08666666666658" y="1.0322222222221933" width="0.5086111111110967" height="0.5086111111110967" fill="#252525" />
<rect x="3.6002777777776767" y="1.0322222222221933" width="0.5086111111110967" height="0.5086111111110967" fill="#252525" />
<rect x="4.1138888888887735" y="1.0322222222221933" width="0.5086111111110967" height="0.5086111111110967" fill="#252525" />
<rect x="4.62749999999987" y="1.0322222222221933" width="0.5086111111110967" height="0.5086111111110967" fill="#252525" />
<rect x="5.141111111110967" y="1.0322222222221933" width="0.5086111111110967" height="0.5086111111110967" fill="#252525" />
<rect x="5.654722222222063" y="1.0322222222221933" width="0.5086111111110967" height="0.5086111111110967" fill="#252525" />
<rect x="0.005" y="1.5458333333332899" width="0.5086111111110967" height="0.5086111111110967" fill="#252525" />
<rect x="0.5186111111110967" y="1.5458333333332899" width="0.5086111111110967" height="0.5086111111110967" fill="#252525" />
<rect x="1.0322222222221933" y="1.5458333333332899" width="0.5086111111110967" height="0.5086111111110967" fill="#252525" />
<rect x="1.5458333333332899" y="1.5458333333332899" width="0.5086111111110967" height="0.5086111111110967" fill="#252525" />
<rect x="2.0594444444443867" y="1.5458333333332899" width="0.5086111111110967" height="0.5086111111110967" fill="#252525" />
<rect x="2.5730555555554835" y="1.5458333333332899" width="0.5086111111110967" height="0.5086111111110967" fill="#252525" />
<rect x="3.08666666666658" y="1.5458333333332899" width="0.5086111111110967" height="0.5086111111110967" fill="#252525" />
<rect x="3.6002777777776767" y="1.5458333333332899" width="0.5086111111110967" height="0.5086111111110967" fill="#252525" />
<rect x="4.1138888888887735" y="1.5458333333332899" width="0.5086111111110967" height="0.5086111111110967" fill="#252525" />
<rect x="4.62749999999987" y="1.5458333333332899" width="0.5086111111110967" height="0.5086111111110967" fill="#252525" />
<rect x="5.141111111110967" y="1.5458333333332899" width="0.5086111111110967" height="0.5086111111110967" fill="#252525" />
<rect x="5.654722222222063" y="1.5458333333332899" width="0.5086111111110967" height="0.5086111111110967" fill="#252525" />
<rect x="0.005" y="2.0594444444443867" width="0.5086111111110967" height="0.5086111111110967" fill="#252525" />
<rect x="0.5186111111110967" y="2.0594444444443867" width="0.5086111111110967" height="0.5086111111110967" fill="#252525" />
<rect x="1.0322222222221933" y="2.0594444444443867" width="0.5086111111110967" height="0.5086111111110967" fill="#252525" />
<rect x="1.5458333333332899" y="2.0594444444443867" width="0.5086111111110967" height="0.5086111111110967" fill="#252525" />
<rect x="2.0594444444443867" y="2.0594444444443867" width="0.5086111111110967" height="0.5086111111110967" fill="#252525" />
<rect x="2.5730555555554835" y="2.0594444444443867" width="0.5086111111110967" height="0.5086111111110967" fill="#252525" />
<rect x="3.08666666666658" y="2.0594444444443867" width="0.5086111111110967" height="0.5086111111110967" fill="#252525" />
<rect x="3.6002777777776767" y="2.0594444444443867" width="0.5086111111110967" height="0.5086111111110967" fill="#252525" />
<rect x="4.1138888888887735" y="2.0594444444443867" width="0.5086111111110967" height="0.5086111111110967" fill="#252525" />
<rect x="4.62749999999987" y="2.0594444444443867" width="0.5086111111110967" height="0.5086111111110967" fill="#252525" />
<rect x="5.141111111110967" y="2.0594444444443867" width="0.5086111111110967" height="0.5086111111110967" fill="#252525" />
<rect x="5.654722222222063" y="2.0594444444443867" width="0.5086111111110967" height="0.5086111111110967" fill="#252525" />
<rect x="0.005" y="2.5730555555554835" width="0.5086111111110967" height="0.5086111111110967" fill="#252525" />
<rect x="0.5186111111110967" y="2.5730555555554835" width="0.5086111111110967" height="0.5086111111110967" fill="#252525" />
<rect x="1.0322222222221933" y="2.5730555555554835" width="0.5086111111110967" height="0.5086111111110967" fill="#252525" />
<rect x="1.5458333333332899" y="2.5730555555554835" width="0.5086111111110967" height="0.5086111111110967" fill="#252525" />
<rect x="2.0594444444443867" y="2.5730555555554835" width="0.5086111111110967" height="0.5086111111110967" fill="#252525" />
<rect x="2.5730555555554835" y="2.5730555555554835" width="0.5086111111110967" height="0.5086111111110967" fill="#252525" />
<rect x="3.08666666666658" y="2.5730555555554835" width="0.5086111111110967" height="0.5086111111110967" fill="#252525" />
<rect x="3.6002777777776767" y="2.5730555555554835" width="0.5086111111110967" height="0.5086111111110967" fill="#252525" />
<rect x="4.1138888888887735" y="2.5730555555554835" width="0.5086111111110967" height="0.5086111111110967" fill="#252525" />
<rect x="4.62749999999987" y="2.5730555555554835" width="0.5086111111110967" height="0.5086111111110967" fill="#252525" />
<rect x="5.141111111110967" y="2.5730555555554835" width="0.5086111111110967" height="0.5086111111110967" fill="#252525" />
<rect x="5.654722222222063" y="2.5730555555554835" width="0.5086111111110967" height="0.5086111111110967" fill="#252525" />
<rect x="-0.02666666666666667" y="-0.02666666666666667" width="6.216666666666494" height="3.134999999999913" fill="none" stroke="#111111ff" stroke-width="0.08" />
<text x="6.16333333333316" y="3.55041666666658" font-size="0.375" fill="black" text-anchor="end" font-family="Anuphan">12x6</text>
<text x="-0.037500000000000006" y="3.55041666666658" font-size="0.375" fill="black" text-anchor="start" font-family="Anuphan" font-weight="600">Test 1</text>
</g>
<g id="d3">
<rect x="0.005" y="0.005" width="0.611333333333316" height="0.611333333333316" fill="#252525" />
<rect x="0.621333333333316" y="0.005" width="0.611333333333316" height="0.611333333333316" fill="#FF4136" />
<rect x="1.2376666666666318" y="0.005" width="0.611333333333316" height="0.611333333333316" fill="#252525" />
<rect x="1.8539999999999477" y="0.005" width="0.611333333333316" height="0.611333333333316" fill="#252525" />
<rect x="2.4703333333332638" y="0.005" width="0.611333333333316" height="0.611333333333316" fill="#252525" />
<rect x="3.08666666666658" y="0.005" width="0.611333333333316" height="0.611333333333316" fill="#54D2EB" />
<rect x="3.7029999999998955" y="0.005" width="0.611333333333316" height="0.611333333333316" fill="#252525" />
<rect x="4.319333333333212" y="0.005" width="0.611333333333316" height="0.611333333333316" fill="#252525" />
<rect x="4.935666666666528" y="0.005" width="0.611333333333316" height="0.611333333333316" fill="#252525" />
<rect x="5.551999999999843" y="0.005" width="0.611333333333316" height="0.611333333333316" fill="#252525" />
<rect x="0.005" y="0.621333333333316" width="0.611333333333316" height="0.611333333333316" fill="#FF4136" />
<rect x="0.621333333333316" y="0.621333333333316" width="0.611333333333316" height="0.611333333333316" fill="#252525" />
<rect x="1.2376666666666318" y="0.621333333333316" width="0.611333333333316" height="0.611333333333316" fill="#FF4136" />
<rect x="1.8539999999999477" y="0.621333333333316" width="0.611333333333316" height="0.611333333333316" fill="#252525" />
<rect x="2.4703333333332638" y="0.621333333333316" width="0.611333333333316" height="0.611333333333316" fill="#54D2EB" />
<rect x="3.08666666666658" y="0.621333333333316" width="0.611333333333316" height="0.611333333333316" fill="#252525" />
<rect x="3.7029999999998955" y="0.621333333333316" width="0.611333333333316" height="0.611333333333316" fill="#54D2EB" />
<rect x="4.319333333333212" y="0.621333333333316" width="0.611333333333316" height="0.611333333333316" fill="#252525" />
<rect x="4.935666666666528" y="0.621333333333316" width="0.611333333333316" height="0.611333333333316" fill="#252525" />
<rect x="5.551999999999843" y="0.621333333333316" width="0.611333333333316" height="0.611333333333316" fill="#252525" />
<rect x="0.005" y="1.2376666666666318" width="0.611333333333316" height="0.611333333333316" fill="#252525" />
<rect x="0.621333333333316" y="1.2376666666666318" width="0.611333333333316" height="0.611333333333316" fill="#FF4136" />
<rect x="1.2376666666666318" y="1.2376666666666318" width="0.611333333333316" height="0.611333333333316" fill="#252525" />
<rect x="1.8539999999999477" y="1.2376666666666318" width="0.611333333333316" height="0.611333333333316" fill="#252525" />
<rect x="2.4703333333332638" y="1.2376666666666318" width="0.611333333333316" height="0.611333333333316" fill="#252525" />
<rect x="3.08666666666658" y="1.2376666666666318" width="0.611333333333316" height="0.611333333333316" fill="#54D2EB" />
<rect x="3.7029999999998955" y="1.2376666666666318" width="0.611333333333316" height="0.611333333333316" fill="#252525" />
<rect x="4.319333333333212" y="1.2376666666666318" width="0.611333333333316" height="0.611333333333316" fill="#252525" />
<rect x="4.935666666666528" y="1.2376666666666318" width="0.611333333333316" height="0.611333333333316" fill="#252525" />
<rect x="5.551999999999843" y="1.2376666666666318" width="0.611333333333316" height="0.611333333333316" fill="#252525" />
<rect x="0.005" y="1.8539999999999477" width="0.611333333333316" height="0.611333333333316" fill="#FF4136" />
<rect x="0.621333333333316" y="1.8539999999999477" width="0.611333333333316" height="0.611333333333316" fill="#252525" />
<rect x="1.2376666666666318" y="1.8539999999999477" width="0.611333333333316" height="0.611333333333316" fill="#FF4136" />
<rect x="1.8539999999999477" y="1.8539999999999477" width="0.611333333333316" height="0.611333333333316" fill="#252525" />
<rect x="2.4703333333332638" y="1.8539999999999477" width="0.611333333333316" height="0.611333333333316" fill="#54D2EB" />
<rect x="3.08666666666658" y="1.8539999999999477" width="0.611333333333316" height="0.611333333333316" fill="#252525" />
<rect x="3.7029999999998955" y="1.8539999999999477" width="0.611333333333316" height="0.611333333333316" fill="#54D2EB" />
<rect x="4.319333333333212" y="1.8539999999999477" width="0.611333333333316" height="0.611333333333316" fill="#252525" />
<rect x="4.935666666666528" y="1.8539999999999477" width="0.611333333333316" height="0.611333333333316" fill="#252525" />
<rect x="5.551999999999843" y="1.8539999999999477" width="0.611333333333316" height="0.611333333333316" fill="#252525" />
<rect x="0.005" y="2.4703333333332638" width="0.611333333333316" height="0.611333333333316" fill="#252525" />
<rect x="0.621333333333316" y="2.4703333333332638" width="0.611333333333316" height="0.611333333333316" fill="#FF4136" />
<rect x="1.2376666666666318" y="2.4703333333332638" width="0.611333333333316" height="0.611333333333316" fill="#252525" />
<rect x="1.8539999999999477" y="2.4703333333332638" width="0.611333333333316" height="0.611333333333316" fill="#252525" />
<rect x="2.4703333333332638" y="2.4703333333332638" width="0.611333333333316" height="0.611333333333316" fill="#252525" />
<rect x="3.08666666666658" y="2.4703333333332638" width="0.611333333333316" height="0.611333333333316" fill="#54D2EB" />
<rect x="3.7029999999998955" y="2.4703333333332638" width="0.611333333333316" height="0.611333333333316" fill="#252525" />
<rect x="4.319333333333212" y="2.4703333333332638" width="0.611333333333316" height="0.611333333333316" fill="#252525" />
<rect x="4.935666666666528" y="2.4703333333332638" width="0.611333333333316" height="0.611333333333316" fill="#252525" />
<rect x="5.551999999999843" y="2.4703333333332638" width="0.611333333333316" height="0.611333333333316" fill="#252525" />
<rect x="0.005" y="3.08666666666658" width="0.611333333333316" height="0.611333333333316" fill="#FF4136" />
<rect x="0.621333333333316" y="3.08666666666658" width="0.611333333333316" height="0.611333333333316" fill="#252525" />
<rect x="1.2376666666666318" y="3.08666666666658" width="0.611333333333316" height="0.611333333333316" fill="#FF4136" />
<rect x="1.8539999999999477" y="3.08666666666658" width="0.611333333333316" height="0.611333333333316" fill="#252525" />
<rect x="2.4703333333332638" y="3.08666666666658" width="0.611333333333316" height="0.611333333333316" fill="#54D2EB" />
<rect x="3.08666666666658" y="3.08666666666658" width="0.611333333333316" height="0.611333333333316" fill="#252525" />
<rect x="3.7029999999998955" y="3.08666666666658" width="0.611333333333316" height="0.611333333333316" fill="#54D2EB" />
<rect x="4.319333333333212" y="3.08666666666658" width="0.611333333333316" height="0.611333333333316" fill="#252525" />
<rect x="4.935666666666528" y="3.08666666666658" width="0.611333333333316" height="0.611333333333316" fill="#252525" />
<rect x="5.551999999999843" y="3.08666666666658" width="0.611333333333316" height="0.611333333333316" fill="#252525" />
<rect x="-0.02666666666666667" y="-0.02666666666666667" width="6.216666666666494" height="3.751333333333229" fill="none" stroke="#111111ff" stroke-width="0.08" />
<text x="6.16333333333316" y="4.166749999999896" font-size="0.375" fill="black" text-anchor="end" font-family="Anuphan">10x6</text>
<text x="-0.037500000000000006" y="4.166749999999896" font-size="0.375" fill="black" text-anchor="start" font-family="Anuphan" font-weight="600">Output 1</text>
</g>
<g id="d4">
<rect x="0.005" y="0.005" width="0.8754761904761656" height="0.8754761904761656" fill="#252525" />
<rect x="0.8854761904761657" y="0.005" width="0.8754761904761656" height="0.8754761904761656" fill="#FFDC00" />
<rect x="1.7659523809523312" y="0.005" width="0.8754761904761656" height="0.8754761904761656" fill="#252525" />
<rect x="2.6464285714284967" y="0.005" width="0.8754761904761656" height="0.8754761904761656" fill="#252525" />
<rect x="3.5269047619046625" y="0.005" width="0.8754761904761656" height="0.8754761904761656" fill="#252525" />
<rect x="4.407380952380828" y="0.005" width="0.8754761904761656" height="0.8754761904761656" fill="#252525" />
<rect x="5.287857142856994" y="0.005" width="0.8754761904761656" height="0.8754761904761656" fill="#252525" />
<rect x="0.005" y="0.8854761904761657" width="0.8754761904761656" height="0.8754761904761656" fill="#FFDC00" />
<rect x="0.8854761904761657" y="0.8854761904761657" width="0.8754761904761656" height="0.8754761904761656" fill="#252525" />
<rect x="1.7659523809523312" y="0.8854761904761657" width="0.8754761904761656" height="0.8754761904761656" fill="#FFDC00" />
<rect x="2.6464285714284967" y="0.8854761904761657" width="0.8754761904761656" height="0.8754761904761656" fill="#252525" />
<rect x="3.5269047619046625" y="0.8854761904761657" width="0.8754761904761656" height="0.8754761904761656" fill="#252525" />
<rect x="4.407380952380828" y="0.8854761904761657" width="0.8754761904761656" height="0.8754761904761656" fill="#252525" />
<rect x="5.287857142856994" y="0.8854761904761657" width="0.8754761904761656" height="0.8754761904761656" fill="#252525" />
<rect x="0.005" y="1.7659523809523312" width="0.8754761904761656" height="0.8754761904761656" fill="#252525" />
<rect x="0.8854761904761657" y="1.7659523809523312" width="0.8754761904761656" height="0.8754761904761656" fill="#FFDC00" />
<rect x="1.7659523809523312" y="1.7659523809523312" width="0.8754761904761656" height="0.8754761904761656" fill="#252525" />
<rect x="2.6464285714284967" y="1.7659523809523312" width="0.8754761904761656" height="0.8754761904761656" fill="#252525" />
<rect x="3.5269047619046625" y="1.7659523809523312" width="0.8754761904761656" height="0.8754761904761656" fill="#252525" />
<rect x="4.407380952380828" y="1.7659523809523312" width="0.8754761904761656" height="0.8754761904761656" fill="#252525" />
<rect x="5.287857142856994" y="1.7659523809523312" width="0.8754761904761656" height="0.8754761904761656" fill="#252525" />
<rect x="0.005" y="2.6464285714284967" width="0.8754761904761656" height="0.8754761904761656" fill="#FFDC00" />
<rect x="0.8854761904761657" y="2.6464285714284967" width="0.8754761904761656" height="0.8754761904761656" fill="#252525" />
<rect x="1.7659523809523312" y="2.6464285714284967" width="0.8754761904761656" height="0.8754761904761656" fill="#FFDC00" />
<rect x="2.6464285714284967" y="2.6464285714284967" width="0.8754761904761656" height="0.8754761904761656" fill="#252525" />
<rect x="3.5269047619046625" y="2.6464285714284967" width="0.8754761904761656" height="0.8754761904761656" fill="#252525" />
<rect x="4.407380952380828" y="2.6464285714284967" width="0.8754761904761656" height="0.8754761904761656" fill="#252525" />
<rect x="5.287857142856994" y="2.6464285714284967" width="0.8754761904761656" height="0.8754761904761656" fill="#252525" />
<rect x="0.005" y="3.5269047619046625" width="0.8754761904761656" height="0.8754761904761656" fill="#252525" />
<rect x="0.8854761904761657" y="3.5269047619046625" width="0.8754761904761656" height="0.8754761904761656" fill="#FFDC00" />
<rect x="1.7659523809523312" y="3.5269047619046625" width="0.8754761904761656" height="0.8754761904761656" fill="#252525" />
<rect x="2.6464285714284967" y="3.5269047619046625" width="0.8754761904761656" height="0.8754761904761656" fill="#252525" />
<rect x="3.5269047619046625" y="3.5269047619046625" width="0.8754761904761656" height="0.8754761904761656" fill="#252525" />
<rect x="4.407380952380828" y="3.5269047619046625" width="0.8754761904761656" height="0.8754761904761656" fill="#252525" />
<rect x="5.287857142856994" y="3.5269047619046625" width="0.8754761904761656" height="0.8754761904761656" fill="#252525" />
<rect x="0.005" y="4.407380952380828" width="0.8754761904761656" height="0.8754761904761656" fill="#FFDC00" />
<rect x="0.8854761904761657" y="4.407380952380828" width="0.8754761904761656" height="0.8754761904761656" fill="#252525" />
<rect x="1.7659523809523312" y="4.407380952380828" width="0.8754761904761656" height="0.8754761904761656" fill="#FFDC00" />
<rect x="2.6464285714284967" y="4.407380952380828" width="0.8754761904761656" height="0.8754761904761656" fill="#252525" />
<rect x="3.5269047619046625" y="4.407380952380828" width="0.8754761904761656" height="0.8754761904761656" fill="#252525" />
<rect x="4.407380952380828" y="4.407380952380828" width="0.8754761904761656" height="0.8754761904761656" fill="#252525" />
<rect x="5.287857142856994" y="4.407380952380828" width="0.8754761904761656" height="0.8754761904761656" fill="#252525" />
<rect x="-0.02666666666666667" y="-0.02666666666666667" width="6.216666666666494" height="5.336190476190327" fill="none" stroke="#111111ff" stroke-width="0.08" />
<text x="6.16333333333316" y="5.751607142856994" font-size="0.375" fill="black" text-anchor="end" font-family="Anuphan">7x6</text>
<text x="-0.037500000000000006" y="5.751607142856994" font-size="0.375" fill="black" text-anchor="start" font-family="Anuphan" font-weight="600">Output 2</text>
</g>
</defs>
<rect x="0" y="0" width="100%" height="100%" fill="#eeeff6" />
<use xlink:href="#d0" x="0.25" y="0.25" />
<use xlink:href="#d1" x="6.91333333333316" y="0.25" />
<use xlink:href="#d2" x="13.57666666666632" y="0.25" />
<path d="M3.33166666666658,6.182857142856994 L3.33166666666658,6.582857142856994" stroke-width="0.05" stroke="#888888" />
<path d="M3.18166666666658,6.382857142856994 L3.33166666666658,6.582857142856994" stroke-width="0.05" stroke="#888888" />
<path d="M3.48166666666658,6.382857142856994 L3.33166666666658,6.582857142856994" stroke-width="0.05" stroke="#888888" />
<use xlink:href="#d3" x="0.25" y="6.932857142856994" />
<path d="M9.99499999999974,6.182857142856994 L9.99499999999974,6.582857142856994" stroke-width="0.05" stroke="#888888" />
<path d="M9.84499999999974,6.382857142856994 L9.99499999999974,6.582857142856994" stroke-width="0.05" stroke="#888888" />
<path d="M10.14499999999974,6.382857142856994 L9.99499999999974,6.582857142856994" stroke-width="0.05" stroke="#888888" />
<use xlink:href="#d4" x="6.91333333333316" y="6.932857142856994" />
<path d="M16.658333333332898,6.182857142856994 L16.658333333332898,6.582857142856994" stroke-width="0.05" stroke="#888888" />
<path d="M16.5083333333329,6.382857142856994 L16.658333333332898,6.582857142856994" stroke-width="0.05" stroke="#888888" />
<path d="M16.808333333332897,6.382857142856994 L16.658333333332898,6.582857142856994" stroke-width="0.05" stroke="#888888" />
<text x="16.658333333332898" y="8.573690476190283" font-size="1" font-family="Anuphan" font-weight="700" fill="#333333" text-anchor="middle" alignment-baseline="middle">?</text>
<text x="19.9" y="13.1" font-size="0.3" font-family="Anuphan" font-weight="600" fill="#666666" text-anchor="end" alignment-baseline="bottom">Task 3ac3eb23</text>
</svg>