<?xml version="1.0" encoding="UTF-8"?>
<svg xmlns="http://www.w3.org/2000/svg" xmlns:xlink="http://www.w3.org/1999/xlink"
     width="800.0" height="360.0" viewBox="0 0 20.0 9.0">
<defs>
<g id="d0">
<rect x="0.005" y="0.005" width="0.6375000000000004" height="0.6375000000000004" fill="#0074D9" />
<rect x="0.6475000000000004" y="0.005" width="0.6375000000000004" height="0.6375000000000004" fill="#252525" />
<rect x="1.2900000000000007" y="0.005" width="0.6375000000000004" height="0.6375000000000004" fill="#252525" />
<rect x="1.932500000000001" y="0.005" width="0.6375000000000004" height="0.6375000000000004" fill="#E6E6E6" />
<rect x="2.5750000000000015" y="0.005" width="0.6375000000000004" height="0.6375000000000004" fill="#252525" />
<rect x="3.217500000000002" y="0.005" width="0.6375000000000004" height="0.6375000000000004" fill="#0074D9" />
<rect x="3.860000000000002" y="0.005" width="0.6375000000000004" height="0.6375000000000004" fill="#252525" />
<rect x="0.005" y="0.6475000000000004" width="0.6375000000000004" height="0.6375000000000004" fill="#252525" />
<rect x="0.6475000000000004" y="0.6475000000000004" width="0.6375000000000004" height="0.6375000000000004" fill="#0074D9" />
<rect x="1.2900000000000007" y="0.6475000000000004" width="0.6375000000000004" height="0.6375000000000004" fill="#252525" />
<rect x="1.932500000000001" y="0.6475000000000004" width="0.6375000000000004" height="0.6375000000000004" fill="#E6E6E6" />
<rect x="2.5750000000000015" y="0.6475000000000004" width="0.6375000000000004" height="0.6375000000000004" fill="#0074D9" />
<rect x="3.217500000000002" y="0.6475000000000004" width="0.6375000000000004" height="0.6375000000000004" fill="#0074D9" />
<rect x="3.860000000000002" y="0.6475000000000004" width="0.6375000000000004" height="0.6375000000000004" fill="#0074D9" />
<rect x="0.005" y="1.2900000000000007" width="0.6375000000000004" height="0.6375000000000004" fill="#0074D9" />
<rect x="0.6475000000000004" y="1.2900000000000007" width="0.6375000000000004" height="0.6375000000000004" fill="#252525" />
<rect x="1.2900000000000007" y="1.2900000000000007" width="0.6375000000000004" height="0.6375000000000004" fill="#252525" />
<rect x="1.932500000000001" y="1.2900000000000007" width="0.6375000000000004" height="0.6375000000000004" fill="#E6E6E6" />
<rect x="2.5750000000000015" y="1.2900000000000007" width="0.6375000000000004" height="0.6375000000000004" fill="#252525" />
<rect x="3.217500000000002" y="1.2900000000000007" width="0.6375000000000004" height="0.6375000000000004" fill="#252525" />
<rect x="3.860000000000002" y="1.2900000000000007" width="0.6375000000000004" height="0.6375000000000004" fill="#252525" />
<rect x="-0.02666666666666667" y="-0.02666666666666667" width="4.550833333333337" height="1.9808333333333343" fill="none" stroke="#111111ff" stroke-width="0.08" />
<text x="4.497500000000003" y="2.396250000000001" font-size="0.375" fill="black" text-anchor="end" font-family="Anuphan">7x3</text>
<text x="-0.037500000000000006" y="2.396250000000001" font-size="0.375" fill="black" text-anchor="start" font-family="Anuphan" font-weight="600">Input 1</text>
</g>
<g id="d1">
<rect x="0.005" y="0.005" width="0.6375000000000004" height="0.6375000000000004" fill="#0074D9" />
<rect x="0.6475000000000004" y="0.005" width="0.6375000000000004" height="0.6375000000000004" fill="#0074D9" />
<rect x="1.2900000000000007" y="0.005" width="0.6375000000000004" height="0.6375000000000004" fill="#252525" />
<rect x="1.932500000000001" y="0.005" width="0.6375000000000004" height="0.6375000000000004" fill="#E6E6E6" />
<rect x="2.5750000000000015" y="0.005" width="0.6375000000000004" height="0.6375000000000004" fill="#252525" />
<rect x="3.217500000000002" y="0.005" width="0.6375000000000004" height="0.6375000000000004" fill="#0074D9" />
<rect x="3.860000000000002" y="0.005" width="0.6375000000000004" height="0.6375000000000004" fill="#252525" />
<rect x="0.005" y="0.6475000000000004" width="0.6375000000000004" height="0.6375000000000004" fill="#252525" />
<rect x="0.6475000000000004" y="0.6475000000000004" width="0.6375000000000004" height="0.6375000000000004" fill="#252525" />
<rect x="1.2900000000000007" y="0.6475000000000004" width="0.6375000000000004" height="0.6375000000000004" fill="#0074D9" />
<rect x="1.932500000000001" y="0.6475000000000004" width="0.6375000000000004" height="0.6375000000000004" fill="#E6E6E6" />
<rect x="2.5750000000000015" y="0.6475000000000004" width="0.6375000000000004" height="0.6375000000000004" fill="#0074D9" />
<rect x="3.217500000000002" y="0.6475000000000004" width="0.6375000000000004" height="0.6375000000000004" fill="#0074D9" />
<rect x="3.860000000000002" y="0.6475000000000004" width="0.6375000000000004" height="0.6375000000000004" fill="#0074D9" />
<rect x="0.005" y="1.2900000000000007" width="0.6375000000000004" height="0.6375000000000004" fill="#0074D9" />
<rect x="0.6475000000000004" y="1.2900000000000007" width="0.6375000000000004" height="0.6375000000000004" fill="#0074D9" />
<rect x="1.2900000000000007" y="1.2900000000000007" width="0.6375000000000004" height="0.6375000000000004" fill="#252525" />
<rect x="1.932500000000001" y="1.2900000000000007" width="0.6375000000000004" height="0.6375000000000004" fill="#E6E6E6" />
<rect x="2.5750000000000015" y="1.2900000000000007" width="0.6375000000000004" height="0.6375000000000004" fill="#252525" />
<rect x="3.217500000000002" y="1.2900000000000007" width="0.6375000000000004" height="0.6375000000000004" fill="#0074D9" />
<rect x="3.860000000000002" y="1.2900000000000007" width="0.6375000000000004" height="0.6375000000000004" fill="#252525" />
<rect x="-0.02666666666666667" y="-0.02666666666666667" width="4.550833333333337" height="1.9808333333333343" fill="none" stroke="#111111ff" stroke-width="0.08" />
<text x="4.497500000000003" y="2.396250000000001" font-size="0.375" fill="black" text-anchor="end" font-family="Anuphan">7x3</text>
<text x="-0.037500000000000006" y="2.396250000000001" font-size="0.375" fill="black" text-anchor="start" font-family="Anuphan" font-weight="600">Input 2</text>
</g>
<g id="d2">
<rect x="0.005" y="0.005" width="0.6375000000000004" height="0.6375000000000004" fill="#252525" />
<rect x="0.6475000000000004" y="0.005" width="0.6375000000000004" height="0.6375000000000004" fill="#252525" />
<rect x="1.2900000000000007" y="0.005" width="0.6375000000000004" height="0.6375000000000004" fill="#0074D9" />
<rect x="1.932500000000001" y="0.005" width="0.6375000000000004" height="0.6375000000000004" fill="#E6E6E6" />
<rect x="2.5750000000000015" y="0.005" width="0.6375000000000004" height="0.6375000000000004" fill="#252525" />
<rect x="3.217500000000002" y="0.005" width="0.6375000000000004" height="0.6375000000000004" fill="#252525" />
<rect x="3.860000000000002" y="0.005" width="0.6375000000000004" height="0.6375000000000004" fill="#252525" />
<rect x="0.005" y="0.6475000000000004" width="0.6375000000000004" height="0.6375000000000004" fill="#0074D9" />
<rect x="0.6475000000000004" y="0.6475000000000004" width="0.6375000000000004" height="0.6375000000000004" fill="#0074D9" />
<rect x="1.2900000000000007" y="0.6475000000000004" width="0.6375000000000004" height="0.6375000000000004" fill="#252525" />
<rect x="1.932500000000001" y="0.6475000000000004" width="0.6375000000000004" height="0.6375000000000004" fill="#E6E6E6" />
<rect x="2.5750000000000015" y="0.6475000000000004" width="0.6375000000000004" height="0.6375000000000004" fill="#0074D9" />
<rect x="3.217500000000002" y="0.6475000000000004" width="0.6375000000000004" height="0.6375000000000004" fill="#252525" />
<rect x="3.860000000000002" y="0.6475000000000004" width="0.6375000000000004" height="0.6375000000000004" fill="#0074D9" />
<rect x="0.005" y="1.2900000000000007" width="0.6375000000000004" height="0.6375000000000004" fill="#252525" />
<rect x="0.6475000000000004" y="1.2900000000000007" width="0.6375000000000004" height="0.6375000000000004" fill="#0074D9" />
<rect x="1.2900000000000007" y="1.2900000000000007" width="0.6375000000000004" height="0.6375000000000004" fill="#0074D9" />
<rect x="1.932500000000001" y="1.2900000000000007" width="0.6375000000000004" height="0.6375000000000004" fill="#E6E6E6" />
<rect x="2.5750000000000015" y="1.2900000000000007" width="0.6375000000000004" height="0.6375000000000004" fill="#0074D9" />
<rect x="3.217500000000002" y="1.2900000000000007" width="0.6375000000000004" height="0.6375000000000004" fill="#252525" />
<rect x="3.860000000000002" y="1.2900000000000007" width="0.6375000000000004" height="0.6375000000000004" fill="#0074D9" />
<rect x="-0.02666666666666667" y="-0.02666666666666667" width="4.550833333333337" height="1.9808333333333343" fill="none" stroke="#111111ff" stroke-width="0.08" />
<text x="4.497500000000003" y="2.396250000000001" font-size="0.375" fill="black" text-anchor="end" font-family="Anuphan">7x3</text>
<text x="-0.037500000000000006" y="2.396250000000001" font-size="0.375" fill="black" text-anchor="start" font-family="Anuphan" font-weight="600">Input 3</text>
</g>
<g id="d3">
<rect x="0.005" y="0.005" width="0.6375000000000004" height="0.6375000000000004" fill="#0074D9" />
<rect x="0.6475000000000004" y="0.005" width="0.6375000000000004" height="0.6375000000000004" fill="#252525" />
<rect x="1.2900000000000007" y="0.005" width="0.6375000000000004" height="0.6375000000000004" fill="#0074D9" />
<rect x="1.932500000000001" y="0.005" width="0.6375000000000004" height="0.6375000000000004" fill="#E6E6E6" />
<rect x="2.5750000000000015" y="0.005" width="0.6375000000000004" height="0.6375000000000004" fill="#0074D9" />
<rect x="3.217500000000002" y="0.005" width="0.6375000000000004" height="0.6375000000000004" fill="#252525" />
<rect x="3.860000000000002" y="0.005" width="0.6375000000000004" height="0.6375000000000004" fill="#0074D9" />
<rect x="0.005" y="0.6475000000000004" width="0.6375000000000004" height="0.6375000000000004" fill="#252525" />
<rect x="0.6475000000000004" y="0.6475000000000004" width="0.6375000000000004" height="0.6375000000000004" fill="#0074D9" />
<rect x="1.2900000000000007" y="0.6475000000000004" width="0.6375000000000004" height="0.6375000000000004" fill="#252525" />
<rect x="1.932500000000001" y="0.6475000000000004" width="0.6375000000000004" height="0.6375000000000004" fill="#E6E6E6" />
<rect x="2.5750000000000015" y="0.6475000000000004" width="0.6375000000000004" height="0.6375000000000004" fill="#0074D9" />
<rect x="3.217500000000002" y="0.6475000000000004" width="0.6375000000000004" height="0.6375000000000004" fill="#252525" />
<rect x="3.860000000000002" y="0.6475000000000004" width="0.6375000000000004" height="0.6375000000000004" fill="#0074D9" />
<rect x="0.005" y="1.2900000000000007" width="0.6375000000000004" height="0.6375000000000004" fill="#0074D9" />
<rect x="0.6475000000000004" y="1.2900000000000007" width="0.6375000000000004" height="0.6375000000000004" fill="#252525" />
<rect x="1.2900000000000007" y="1.2900000000000007" width="0.6375000000000004" height="0.6375000000000004" fill="#0074D9" />
<rect x="1.932500000000001" y="1.2900000000000007" width="0.6375000000000004" height="0.6375000000000004" fill="#E6E6E6" />
<rect x="2.5750000000000015" y="1.2900000000000007" width="0.6375000000000004" height="0.6375000000000004" fill="#252525" />
<rect x="3.217500000000002" y="1.2900000000000007" width="0.6375000000000004" height="0.6375000000000004" fill="#0074D9" />
<rect x="3.860000000000002" y="1.2900000000000007" width="0.6375000000000004" height="0.6375000000000004" fill="#252525" />
<rect x="-0.02666666666666667" y="-0.02666666666666667" width="4.550833333333337" height="1.9808333333333343" fill="none" stroke="#111111ff" stroke-width="0.08" />
<text x="4.497500000000003" y="2.396250000000001" font-size="0.375" fill="black" text-anchor="end" font-family="Anuphan">7x3</text>
<text x="-0.037500000000000006" y="2.396250000000001" font-size="0.375" fill="black" text-anchor="start" font-family="Anuphan" font-weight="600">Test 1</text>
</g>
<g id="d4">
<rect x="0.005" y="0.005" width="1.4941666666666678" height="1.4941666666666678" fill="#252525" />
<rect x="1.5041666666666675" y="0.005" width="1.4941666666666678" height="1.4941666666666678" fill="#252525" />
<rect x="3.003333333333335" y="0.005" width="1.4941666666666678" height="1.4941666666666678" fill="#252525" />
<rect x="0.005" y="1.5041666666666675" width="1.4941666666666678" height="1.4941666666666678" fill="#252525" />
<rect x="1.5041666666666675" y="1.5041666666666675" width="1.4941666666666678" height="1.4941666666666678" fill="#FF4136" />
<rect x="3.003333333333335" y="1.5041666666666675" width="1.4941666666666678" height="1.4941666666666678" fill="#252525" />
<rect x="0.005" y="3.003333333333335" width="1.4941666666666678" height="1.4941666666666678" fill="#252525" />
<rect x="1.5041666666666675" y="3.003333333333335" width="1.4941666666666678" height="1.4941666666666678" fill="#252525" />
<rect x="3.003333333333335" y="3.003333333333335" width="1.4941666666666678" height="1.4941666666666678" fill="#252525" />
<rect x="-0.02666666666666667" y="-0.02666666666666667" width="4.550833333333337" height="4.550833333333337" fill="none" stroke="#111111ff" stroke-width="0.08" />
<text x="4.497500000000003" y="4.966250000000003" font-size="0.375" fill="black" text-anchor="end" font-family="Anuphan">3x3</text>
<text x="-0.037500000000000006" y="4.966250000000003" font-size="0.375" fill="black" text-anchor="start" font-family="Anuphan" font-weight="600">Output 1</text>
</g>
<g id="d5">
<rect x="0.005" y="0.005" width="1.4941666666666678" height="1.4941666666666678" fill="#252525" />
<rect x="1.5041666666666675" y="0.005" width="1.4941666666666678" height="1.4941666666666678" fill="#FF4136" />
<rect x="3.003333333333335" y="0.005" width="1.4941666666666678" height="1.4941666666666678" fill="#252525" />
<rect x="0.005" y="1.5041666666666675" width="1.4941666666666678" height="1.4941666666666678" fill="#252525" />
<rect x="1.5041666666666675" y="1.5041666666666675" width="1.4941666666666678" height="1.4941666666666678" fill="#252525" />
<rect x="3.003333333333335" y="1.5041666666666675" width="1.4941666666666678" height="1.4941666666666678" fill="#FF4136" />
<rect x="0.005" y="3.003333333333335" width="1.4941666666666678" height="1.4941666666666678" fill="#252525" />
<rect x="1.5041666666666675" y="3.003333333333335" width="1.4941666666666678" height="1.4941666666666678" fill="#FF4136" />
<rect x="3.003333333333335" y="3.003333333333335" width="1.4941666666666678" height="1.4941666666666678" fill="#252525" />
<rect x="-0.02666666666666667" y="-0.02666666666666667" width="4.550833333333337" height="4.550833333333337" fill="none" stroke="#111111ff" stroke-width="0.08" />
<text x="4.497500000000003" y="4.966250000000003" font-size="0.375" fill="black" text-anchor="end" font-family="Anuphan">3x3</text>
<text x="-0.037500000000000006" y="4.966250000000003" font-size="0.375" fill="black" text-anchor="start" font-family="Anuphan" font-weight="600">Output 2</text>
</g>
<g id="d6">
<rect x="0.005" y="0.005" width="1.4941666666666678" height="1.4941666666666678" fill="#252525" />
<rect x="1.5041666666666675" y="0.005" width="1.4941666666666678" height="1.4941666666666678" fill="#252525" />
<rect x="3.003333333333335" y="0.005" width="1.4941666666666678" height="1.4941666666666678" fill="#252525" />
<rect x="0.005" y="1.5041666666666675" width="1.4941666666666678" height="1.4941666666666678" fill="#FF4136" />
<rect x="1.5041666666666675" y="1.5041666666666675" width="1.4941666666666678" height="1.4941666666666678" fill="#252525" />
<rect x="3.003333333333335" y="1.5041666666666675" width="1.4941666666666678" height="1.4941666666666678" fill="#252525" />
<rect x="0.005" y="3.003333333333335" width="1.4941666666666678" height="1.4941666666666678" fill="#252525" />
<rect x="1.5041666666666675" y="3.003333333333335" width="1.4941666666666678" height="1.4941666666666678" fill="#252525" />
<rect x="3.003333333333335" y="3.003333333333335" width="1.4941666666666678" height="1.4941666666666678" fill="#FF4136" />
<rect x="-0.02666666666666667" y="-0.02666666666666667" width="4.550833333333337" height="4.550833333333337" fill="none" stroke="#111111ff" stroke-width="0.08" />
<text x="4.497500000000003" y="4.966250000000003" font-size="0.375" fill="black" text-anchor="end" font-family="Anuphan">3x3</text>
<text x="-0.037500000000000006" y="4.966250000000003" font-size="0.375" fill="black" text-anchor="start" font-family="Anuphan" font-weight="600">Output 3</text>
</g>
</defs>
<rect x="0" y="0" width="100%" height="100%" fill="#eeeff6" />
<use xlink:href="#d0" x="0.25" y="0.25" />
<use xlink:href="#d1" x="5.247500000000003" y="0.25" />
<use xlink:href="#d2" x="10.245000000000006" y="0.25" />
<use xlink:href="#d3" x="15.24250000000001" y="0.25" />
<path d="M2.4987500000000016,2.827500000000001 L2.4987500000000016,3.227500000000001" stroke-width="0.05" stroke="#888888" />
<path d="M2.3487500000000017,3.0275000000000007 L2.4987500000000016,3.227500000000001" stroke-width="0.05" stroke="#888888" />
<path d="M2.6487500000000015,3.0275000000000007 L2.4987500000000016,3.227500000000001" stroke-width="0.05" stroke="#888888" />
<use xlink:href="#d4" x="0.25" y="3.577500000000001" />
<path d="M7.496250000000005,2.827500000000001 L7.496250000000005,3.227500000000001" stroke-width="0.05" stroke="#888888" />
<path d="M7.346250000000005,3.0275000000000007 L7.496250000000005,3.227500000000001" stroke-width="0.05" stroke="#888888" />
<path d="M7.6462500000000055,3.0275000000000007 L7.496250000000005,3.227500000000001" stroke-width="0.05" stroke="#888888" />
<use xlink:href="#d5" x="5.247500000000003" y="3.577500000000001" />
<path d="M12.493750000000007,2.827500000000001 L12.493750000000007,3.227500000000001" stroke-width="0.05" stroke="#888888" />
<path d="M12.343750000000007,3.0275000000000007 L12.493750000000007,3.227500000000001" stroke-width="0.05" stroke="#888888" />
<path d="M12.643750000000008,3.0275000000000007 L12.493750000000007,3.227500000000001" stroke-width="0.05" stroke="#888888" />
<use xlink:href="#d6" x="10.245000000000006" y="3.577500000000001" />
<path d="M17.49125000000001,2.827500000000001 L17.49125000000001,3.227500000000001" stroke-width="0.05" stroke="#888888" />
<path d="M17.341250000000013,3.0275000000000007 L17.49125000000001,3.227500000000001" stroke-width="0.05" stroke="#888888" />
<path d="M17.64125000000001,3.0275000000000007 L17.49125000000001,3.227500000000001" stroke-width="0.05" stroke="#888888" />
<text x="17.49125000000001" y="5.926250000000003" font-size="1" font-family="Anuphan" font-weight="700" fill="#333333" text-anchor="middle" alignment-baseline="middle">?</text>
<text x="19.9" y="8.9" font-size="0.3" font-family="Anuphan" font-weight="600" fill="#666666" text-anchor="end" alignment-baseline="bottom">Task 0520fde7</text>
</svg>