<?xml version="1.0" encoding="UTF-8"?>
<svg xmlns="http://www.w3.org/2000/svg" xmlns:xlink="http://www.w3.org/1999/xlink"
     width="800.0" height="292.0" viewBox="0 0 20.0 7.3">
<defs>
<g id="d0">
<rect x="0.005" y="0.005" width="0.3947499999999926" height="0.3947499999999926" fill="#252525" />
<rect x="0.4047499999999926" y="0.005" width="0.3947499999999926" height="0.3947499999999926" fill="#252525" />
<rect x="0.8044999999999852" y="0.005" width="0.3947499999999926" height="0.3947499999999926" fill="#54D2EB" />
<rect x="1.2042499999999778" y="0.005" width="0.3947499999999926" height="0.3947499999999926" fill="#252525" />
<rect x="1.6039999999999703" y="0.005" width="0.3947499999999926" height="0.3947499999999926" fill="#54D2EB" />
<rect x="0.005" y="0.4047499999999926" width="0.3947499999999926" height="0.3947499999999926" fill="#FF4136" />
<rect x="0.4047499999999926" y="0.4047499999999926" width="0.3947499999999926" height="0.3947499999999926" fill="#FF4136" />
<rect x="0.8044999999999852" y="0.4047499999999926" width="0.3947499999999926" height="0.3947499999999926" fill="#54D2EB" />
<rect x="1.2042499999999778" y="0.4047499999999926" width="0.3947499999999926" height="0.3947499999999926" fill="#252525" />
<rect x="1.6039999999999703" y="0.4047499999999926" width="0.3947499999999926" height="0.3947499999999926" fill="#252525" />
<rect x="0.005" y="0.8044999999999852" width="0.3947499999999926" height="0.3947499999999926" fill="#FF4136" />
<rect x="0.4047499999999926" y="0.8044999999999852" width="0.3947499999999926" height="0.3947499999999926" fill="#FF4136" />
<rect x="0.8044999999999852" y="0.8044999999999852" width="0.3947499999999926" height="0.3947499999999926" fill="#252525" />
<rect x="1.2042499999999778" y="0.8044999999999852" width="0.3947499999999926" height="0.3947499999999926" fill="#252525" />
<rect x="1.6039999999999703" y="0.8044999999999852" width="0.3947499999999926" height="0.3947499999999926" fill="#54D2EB" />
<rect x="0.005" y="1.2042499999999778" width="0.3947499999999926" height="0.3947499999999926" fill="#252525" />
<rect x="0.4047499999999926" y="1.2042499999999778" width="0.3947499999999926" height="0.3947499999999926" fill="#252525" />
<rect x="0.8044999999999852" y="1.2042499999999778" width="0.3947499999999926" height="0.3947499999999926" fill="#252525" />
<rect x="1.2042499999999778" y="1.2042499999999778" width="0.3947499999999926" height="0.3947499999999926" fill="#FF4136" />
<rect x="1.6039999999999703" y="1.2042499999999778" width="0.3947499999999926" height="0.3947499999999926" fill="#FF4136" />
<rect x="0.005" y="1.6039999999999703" width="0.3947499999999926" height="0.3947499999999926" fill="#54D2EB" />
<rect x="0.4047499999999926" y="1.6039999999999703" width="0.3947499999999926" height="0.3947499999999926" fill="#54D2EB" />
<rect x="0.8044999999999852" y="1.6039999999999703" width="0.3947499999999926" height="0.3947499999999926" fill="#252525" />
<rect x="1.2042499999999778" y="1.6039999999999703" width="0.3947499999999926" height="0.3947499999999926" fill="#FF4136" />
<rect x="1.6039999999999703" y="1.6039999999999703" width="0.3947499999999926" height="0.3947499999999926" fill="#FF4136" />
<rect x="-0.02666666666666667" y="-0.02666666666666667" width="2.052083333333296" height="2.052083333333296" fill="none" stroke="#111111ff" stroke-width="0.08" />
<text x="1.998749999999963" y="2.467499999999963" font-size="0.375" fill="black" text-anchor="end" font-family="Anuphan">5x5</text>
<text x="-0.037500000000000006" y="2.467499999999963" font-size="0.375" fill="black" text-anchor="start" font-family="Anuphan" font-weight="600">Input 1</text>
</g>
<g id="d1">
<rect x="0.005" y="0.005" width="0.280535714285709" height="0.280535714285709" fill="#252525" />
<rect x="0.290535714285709" y="0.005" width="0.280535714285709" height="0.280535714285709" fill="#54D2EB" />
<rect x="0.576071428571418" y="0.005" width="0.280535714285709" height="0.280535714285709" fill="#252525" />
<rect x="0.861607142857127" y="0.005" width="0.280535714285709" height="0.280535714285709" fill="#252525" />
<rect x="1.147142857142836" y="0.005" width="0.280535714285709" height="0.280535714285709" fill="#252525" />
<rect x="1.432678571428545" y="0.005" width="0.280535714285709" height="0.280535714285709" fill="#252525" />
<rect x="1.718214285714254" y="0.005" width="0.280535714285709" height="0.280535714285709" fill="#252525" />
<rect x="0.005" y="0.290535714285709" width="0.280535714285709" height="0.280535714285709" fill="#FF4136" />
<rect x="0.290535714285709" y="0.290535714285709" width="0.280535714285709" height="0.280535714285709" fill="#FF4136" />
<rect x="0.576071428571418" y="0.290535714285709" width="0.280535714285709" height="0.280535714285709" fill="#252525" />
<rect x="0.861607142857127" y="0.290535714285709" width="0.280535714285709" height="0.280535714285709" fill="#54D2EB" />
<rect x="1.147142857142836" y="0.290535714285709" width="0.280535714285709" height="0.280535714285709" fill="#54D2EB" />
<rect x="1.432678571428545" y="0.290535714285709" width="0.280535714285709" height="0.280535714285709" fill="#54D2EB" />
<rect x="1.718214285714254" y="0.290535714285709" width="0.280535714285709" height="0.280535714285709" fill="#252525" />
<rect x="0.005" y="0.576071428571418" width="0.280535714285709" height="0.280535714285709" fill="#FF4136" />
<rect x="0.290535714285709" y="0.576071428571418" width="0.280535714285709" height="0.280535714285709" fill="#FF4136" />
<rect x="0.576071428571418" y="0.576071428571418" width="0.280535714285709" height="0.280535714285709" fill="#54D2EB" />
<rect x="0.861607142857127" y="0.576071428571418" width="0.280535714285709" height="0.280535714285709" fill="#54D2EB" />
<rect x="1.147142857142836" y="0.576071428571418" width="0.280535714285709" height="0.280535714285709" fill="#252525" />
<rect x="1.432678571428545" y="0.576071428571418" width="0.280535714285709" height="0.280535714285709" fill="#FF4136" />
<rect x="1.718214285714254" y="0.576071428571418" width="0.280535714285709" height="0.280535714285709" fill="#FF4136" />
<rect x="0.005" y="0.861607142857127" width="0.280535714285709" height="0.280535714285709" fill="#252525" />
<rect x="0.290535714285709" y="0.861607142857127" width="0.280535714285709" height="0.280535714285709" fill="#252525" />
<rect x="0.576071428571418" y="0.861607142857127" width="0.280535714285709" height="0.280535714285709" fill="#54D2EB" />
<rect x="0.861607142857127" y="0.861607142857127" width="0.280535714285709" height="0.280535714285709" fill="#252525" />
<rect x="1.147142857142836" y="0.861607142857127" width="0.280535714285709" height="0.280535714285709" fill="#252525" />
<rect x="1.432678571428545" y="0.861607142857127" width="0.280535714285709" height="0.280535714285709" fill="#FF4136" />
<rect x="1.718214285714254" y="0.861607142857127" width="0.280535714285709" height="0.280535714285709" fill="#FF4136" />
<rect x="0.005" y="1.147142857142836" width="0.280535714285709" height="0.280535714285709" fill="#252525" />
<rect x="0.290535714285709" y="1.147142857142836" width="0.280535714285709" height="0.280535714285709" fill="#54D2EB" />
<rect x="0.576071428571418" y="1.147142857142836" width="0.280535714285709" height="0.280535714285709" fill="#252525" />
<rect x="0.861607142857127" y="1.147142857142836" width="0.280535714285709" height="0.280535714285709" fill="#252525" />
<rect x="1.147142857142836" y="1.147142857142836" width="0.280535714285709" height="0.280535714285709" fill="#54D2EB" />
<rect x="1.432678571428545" y="1.147142857142836" width="0.280535714285709" height="0.280535714285709" fill="#252525" />
<rect x="1.718214285714254" y="1.147142857142836" width="0.280535714285709" height="0.280535714285709" fill="#252525" />
<rect x="-0.02666666666666667" y="-0.02666666666666667" width="2.052083333333296" height="1.4810119047618784" fill="none" stroke="#111111ff" stroke-width="0.08" />
<text x="1.998749999999963" y="1.8964285714285452" font-size="0.375" fill="black" text-anchor="end" font-family="Anuphan">7x5</text>
<text x="-0.037500000000000006" y="1.8964285714285452" font-size="0.375" fill="black" text-anchor="start" font-family="Anuphan" font-weight="600">Input 2</text>
</g>
<g id="d2">
<rect x="0.005" y="0.005" width="0.280535714285709" height="0.280535714285709" fill="#54D2EB" />
<rect x="0.290535714285709" y="0.005" width="0.280535714285709" height="0.280535714285709" fill="#FF4136" />
<rect x="0.576071428571418" y="0.005" width="0.280535714285709" height="0.280535714285709" fill="#FF4136" />
<rect x="0.861607142857127" y="0.005" width="0.280535714285709" height="0.280535714285709" fill="#54D2EB" />
<rect x="1.147142857142836" y="0.005" width="0.280535714285709" height="0.280535714285709" fill="#54D2EB" />
<rect x="1.432678571428545" y="0.005" width="0.280535714285709" height="0.280535714285709" fill="#252525" />
<rect x="1.718214285714254" y="0.005" width="0.280535714285709" height="0.280535714285709" fill="#252525" />
<rect x="0.005" y="0.290535714285709" width="0.280535714285709" height="0.280535714285709" fill="#252525" />
<rect x="0.290535714285709" y="0.290535714285709" width="0.280535714285709" height="0.280535714285709" fill="#FF4136" />
<rect x="0.576071428571418" y="0.290535714285709" width="0.280535714285709" height="0.280535714285709" fill="#FF4136" />
<rect x="0.861607142857127" y="0.290535714285709" width="0.280535714285709" height="0.280535714285709" fill="#252525" />
<rect x="1.147142857142836" y="0.290535714285709" width="0.280535714285709" height="0.280535714285709" fill="#252525" />
<rect x="1.432678571428545" y="0.290535714285709" width="0.280535714285709" height="0.280535714285709" fill="#252525" />
<rect x="1.718214285714254" y="0.290535714285709" width="0.280535714285709" height="0.280535714285709" fill="#54D2EB" />
<rect x="0.005" y="0.576071428571418" width="0.280535714285709" height="0.280535714285709" fill="#252525" />
<rect x="0.290535714285709" y="0.576071428571418" width="0.280535714285709" height="0.280535714285709" fill="#54D2EB" />
<rect x="0.576071428571418" y="0.576071428571418" width="0.280535714285709" height="0.280535714285709" fill="#54D2EB" />
<rect x="0.861607142857127" y="0.576071428571418" width="0.280535714285709" height="0.280535714285709" fill="#252525" />
<rect x="1.147142857142836" y="0.576071428571418" width="0.280535714285709" height="0.280535714285709" fill="#252525" />
<rect x="1.432678571428545" y="0.576071428571418" width="0.280535714285709" height="0.280535714285709" fill="#54D2EB" />
<rect x="1.718214285714254" y="0.576071428571418" width="0.280535714285709" height="0.280535714285709" fill="#252525" />
<rect x="0.005" y="0.861607142857127" width="0.280535714285709" height="0.280535714285709" fill="#252525" />
<rect x="0.290535714285709" y="0.861607142857127" width="0.280535714285709" height="0.280535714285709" fill="#252525" />
<rect x="0.576071428571418" y="0.861607142857127" width="0.280535714285709" height="0.280535714285709" fill="#54D2EB" />
<rect x="0.861607142857127" y="0.861607142857127" width="0.280535714285709" height="0.280535714285709" fill="#252525" />
<rect x="1.147142857142836" y="0.861607142857127" width="0.280535714285709" height="0.280535714285709" fill="#252525" />
<rect x="1.432678571428545" y="0.861607142857127" width="0.280535714285709" height="0.280535714285709" fill="#252525" />
<rect x="1.718214285714254" y="0.861607142857127" width="0.280535714285709" height="0.280535714285709" fill="#54D2EB" />
<rect x="0.005" y="1.147142857142836" width="0.280535714285709" height="0.280535714285709" fill="#54D2EB" />
<rect x="0.290535714285709" y="1.147142857142836" width="0.280535714285709" height="0.280535714285709" fill="#252525" />
<rect x="0.576071428571418" y="1.147142857142836" width="0.280535714285709" height="0.280535714285709" fill="#54D2EB" />
<rect x="0.861607142857127" y="1.147142857142836" width="0.280535714285709" height="0.280535714285709" fill="#54D2EB" />
<rect x="1.147142857142836" y="1.147142857142836" width="0.280535714285709" height="0.280535714285709" fill="#54D2EB" />
<rect x="1.432678571428545" y="1.147142857142836" width="0.280535714285709" height="0.280535714285709" fill="#FF4136" />
<rect x="1.718214285714254" y="1.147142857142836" width="0.280535714285709" height="0.280535714285709" fill="#FF4136" />
<rect x="0.005" y="1.432678571428545" width="0.280535714285709" height="0.280535714285709" fill="#54D2EB" />
<rect x="0.290535714285709" y="1.432678571428545" width="0.280535714285709" height="0.280535714285709" fill="#252525" />
<rect x="0.576071428571418" y="1.432678571428545" width="0.280535714285709" height="0.280535714285709" fill="#252525" />
<rect x="0.861607142857127" y="1.432678571428545" width="0.280535714285709" height="0.280535714285709" fill="#252525" />
<rect x="1.147142857142836" y="1.432678571428545" width="0.280535714285709" height="0.280535714285709" fill="#252525" />
<rect x="1.432678571428545" y="1.432678571428545" width="0.280535714285709" height="0.280535714285709" fill="#FF4136" />
<rect x="1.718214285714254" y="1.432678571428545" width="0.280535714285709" height="0.280535714285709" fill="#FF4136" />
<rect x="-0.02666666666666667" y="-0.02666666666666667" width="2.052083333333296" height="1.7665476190475873" fill="none" stroke="#111111ff" stroke-width="0.08" />
<text x="1.998749999999963" y="2.181964285714254" font-size="0.375" fill="black" text-anchor="end" font-family="Anuphan">7x6</text>
<text x="-0.037500000000000006" y="2.181964285714254" font-size="0.375" fill="black" text-anchor="start" font-family="Anuphan" font-weight="600">Input 3</text>
</g>
<g id="d3">
<rect x="0.005" y="0.005" width="0.280535714285709" height="0.280535714285709" fill="#54D2EB" />
<rect x="0.290535714285709" y="0.005" width="0.280535714285709" height="0.280535714285709" fill="#54D2EB" />
<rect x="0.576071428571418" y="0.005" width="0.280535714285709" height="0.280535714285709" fill="#252525" />
<rect x="0.861607142857127" y="0.005" width="0.280535714285709" height="0.280535714285709" fill="#252525" />
<rect x="1.147142857142836" y="0.005" width="0.280535714285709" height="0.280535714285709" fill="#FF4136" />
<rect x="1.432678571428545" y="0.005" width="0.280535714285709" height="0.280535714285709" fill="#FF4136" />
<rect x="1.718214285714254" y="0.005" width="0.280535714285709" height="0.280535714285709" fill="#252525" />
<rect x="0.005" y="0.290535714285709" width="0.280535714285709" height="0.280535714285709" fill="#252525" />
<rect x="0.290535714285709" y="0.290535714285709" width="0.280535714285709" height="0.280535714285709" fill="#54D2EB" />
<rect x="0.576071428571418" y="0.290535714285709" width="0.280535714285709" height="0.280535714285709" fill="#54D2EB" />
<rect x="0.861607142857127" y="0.290535714285709" width="0.280535714285709" height="0.280535714285709" fill="#252525" />
<rect x="1.147142857142836" y="0.290535714285709" width="0.280535714285709" height="0.280535714285709" fill="#FF4136" />
<rect x="1.432678571428545" y="0.290535714285709" width="0.280535714285709" height="0.280535714285709" fill="#FF4136" />
<rect x="1.718214285714254" y="0.290535714285709" width="0.280535714285709" height="0.280535714285709" fill="#54D2EB" />
<rect x="0.005" y="0.576071428571418" width="0.280535714285709" height="0.280535714285709" fill="#252525" />
<rect x="0.290535714285709" y="0.576071428571418" width="0.280535714285709" height="0.280535714285709" fill="#252525" />
<rect x="0.576071428571418" y="0.576071428571418" width="0.280535714285709" height="0.280535714285709" fill="#252525" />
<rect x="0.861607142857127" y="0.576071428571418" width="0.280535714285709" height="0.280535714285709" fill="#54D2EB" />
<rect x="1.147142857142836" y="0.576071428571418" width="0.280535714285709" height="0.280535714285709" fill="#252525" />
<rect x="1.432678571428545" y="0.576071428571418" width="0.280535714285709" height="0.280535714285709" fill="#54D2EB" />
<rect x="1.718214285714254" y="0.576071428571418" width="0.280535714285709" height="0.280535714285709" fill="#252525" />
<rect x="0.005" y="0.861607142857127" width="0.280535714285709" height="0.280535714285709" fill="#54D2EB" />
<rect x="0.290535714285709" y="0.861607142857127" width="0.280535714285709" height="0.280535714285709" fill="#252525" />
<rect x="0.576071428571418" y="0.861607142857127" width="0.280535714285709" height="0.280535714285709" fill="#252525" />
<rect x="0.861607142857127" y="0.861607142857127" width="0.280535714285709" height="0.280535714285709" fill="#252525" />
<rect x="1.147142857142836" y="0.861607142857127" width="0.280535714285709" height="0.280535714285709" fill="#252525" />
<rect x="1.432678571428545" y="0.861607142857127" width="0.280535714285709" height="0.280535714285709" fill="#252525" />
<rect x="1.718214285714254" y="0.861607142857127" width="0.280535714285709" height="0.280535714285709" fill="#252525" />
<rect x="0.005" y="1.147142857142836" width="0.280535714285709" height="0.280535714285709" fill="#252525" />
<rect x="0.290535714285709" y="1.147142857142836" width="0.280535714285709" height="0.280535714285709" fill="#FF4136" />
<rect x="0.576071428571418" y="1.147142857142836" width="0.280535714285709" height="0.280535714285709" fill="#FF4136" />
<rect x="0.861607142857127" y="1.147142857142836" width="0.280535714285709" height="0.280535714285709" fill="#252525" />
<rect x="1.147142857142836" y="1.147142857142836" width="0.280535714285709" height="0.280535714285709" fill="#54D2EB" />
<rect x="1.432678571428545" y="1.147142857142836" width="0.280535714285709" height="0.280535714285709" fill="#252525" />
<rect x="1.718214285714254" y="1.147142857142836" width="0.280535714285709" height="0.280535714285709" fill="#54D2EB" />
<rect x="0.005" y="1.432678571428545" width="0.280535714285709" height="0.280535714285709" fill="#252525" />
<rect x="0.290535714285709" y="1.432678571428545" width="0.280535714285709" height="0.280535714285709" fill="#FF4136" />
<rect x="0.576071428571418" y="1.432678571428545" width="0.280535714285709" height="0.280535714285709" fill="#FF4136" />
<rect x="0.861607142857127" y="1.432678571428545" width="0.280535714285709" height="0.280535714285709" fill="#54D2EB" />
<rect x="1.147142857142836" y="1.432678571428545" width="0.280535714285709" height="0.280535714285709" fill="#54D2EB" />
<rect x="1.432678571428545" y="1.432678571428545" width="0.280535714285709" height="0.280535714285709" fill="#252525" />
<rect x="1.718214285714254" y="1.432678571428545" width="0.280535714285709" height="0.280535714285709" fill="#54D2EB" />
<rect x="-0.02666666666666667" y="-0.02666666666666667" width="2.052083333333296" height="1.7665476190475873" fill="none" stroke="#111111ff" stroke-width="0.08" />
<text x="1.998749999999963" y="2.181964285714254" font-size="0.375" fill="black" text-anchor="end" font-family="Anuphan">7x6</text>
<text x="-0.037500000000000006" y="2.181964285714254" font-size="0.375" fill="black" text-anchor="start" font-family="Anuphan" font-weight="600">Input 4</text>
</g>
<g id="d4">
<rect x="0.005" y="0.005" width="0.280535714285709" height="0.280535714285709" fill="#54D2EB" />
<rect x="0.290535714285709" y="0.005" width="0.280535714285709" height="0.280535714285709" fill="#252525" />
<rect x="0.576071428571418" y="0.005" width="0.280535714285709" height="0.280535714285709" fill="#252525" />
<rect x="0.861607142857127" y="0.005" width="0.280535714285709" height="0.280535714285709" fill="#252525" />
<rect x="1.147142857142836" y="0.005" width="0.280535714285709" height="0.280535714285709" fill="#252525" />
<rect x="1.432678571428545" y="0.005" width="0.280535714285709" height="0.280535714285709" fill="#54D2EB" />
<rect x="1.718214285714254" y="0.005" width="0.280535714285709" height="0.280535714285709" fill="#252525" />
<rect x="0.005" y="0.290535714285709" width="0.280535714285709" height="0.280535714285709" fill="#252525" />
<rect x="0.290535714285709" y="0.290535714285709" width="0.280535714285709" height="0.280535714285709" fill="#252525" />
<rect x="0.576071428571418" y="0.290535714285709" width="0.280535714285709" height="0.280535714285709" fill="#FF4136" />
<rect x="0.861607142857127" y="0.290535714285709" width="0.280535714285709" height="0.280535714285709" fill="#FF4136" />
<rect x="1.147142857142836" y="0.290535714285709" width="0.280535714285709" height="0.280535714285709" fill="#252525" />
<rect x="1.432678571428545" y="0.290535714285709" width="0.280535714285709" height="0.280535714285709" fill="#54D2EB" />
<rect x="1.718214285714254" y="0.290535714285709" width="0.280535714285709" height="0.280535714285709" fill="#252525" />
<rect x="0.005" y="0.576071428571418" width="0.280535714285709" height="0.280535714285709" fill="#54D2EB" />
<rect x="0.290535714285709" y="0.576071428571418" width="0.280535714285709" height="0.280535714285709" fill="#252525" />
<rect x="0.576071428571418" y="0.576071428571418" width="0.280535714285709" height="0.280535714285709" fill="#FF4136" />
<rect x="0.861607142857127" y="0.576071428571418" width="0.280535714285709" height="0.280535714285709" fill="#FF4136" />
<rect x="1.147142857142836" y="0.576071428571418" width="0.280535714285709" height="0.280535714285709" fill="#252525" />
<rect x="1.432678571428545" y="0.576071428571418" width="0.280535714285709" height="0.280535714285709" fill="#252525" />
<rect x="1.718214285714254" y="0.576071428571418" width="0.280535714285709" height="0.280535714285709" fill="#252525" />
<rect x="0.005" y="0.861607142857127" width="0.280535714285709" height="0.280535714285709" fill="#252525" />
<rect x="0.290535714285709" y="0.861607142857127" width="0.280535714285709" height="0.280535714285709" fill="#252525" />
<rect x="0.576071428571418" y="0.861607142857127" width="0.280535714285709" height="0.280535714285709" fill="#54D2EB" />
<rect x="0.861607142857127" y="0.861607142857127" width="0.280535714285709" height="0.280535714285709" fill="#252525" />
<rect x="1.147142857142836" y="0.861607142857127" width="0.280535714285709" height="0.280535714285709" fill="#252525" />
<rect x="1.432678571428545" y="0.861607142857127" width="0.280535714285709" height="0.280535714285709" fill="#54D2EB" />
<rect x="1.718214285714254" y="0.861607142857127" width="0.280535714285709" height="0.280535714285709" fill="#252525" />
<rect x="0.005" y="1.147142857142836" width="0.280535714285709" height="0.280535714285709" fill="#252525" />
<rect x="0.290535714285709" y="1.147142857142836" width="0.280535714285709" height="0.280535714285709" fill="#252525" />
<rect x="0.576071428571418" y="1.147142857142836" width="0.280535714285709" height="0.280535714285709" fill="#54D2EB" />
<rect x="0.861607142857127" y="1.147142857142836" width="0.280535714285709" height="0.280535714285709" fill="#FF4136" />
<rect x="1.147142857142836" y="1.147142857142836" width="0.280535714285709" height="0.280535714285709" fill="#FF4136" />
<rect x="1.432678571428545" y="1.147142857142836" width="0.280535714285709" height="0.280535714285709" fill="#252525" />
<rect x="1.718214285714254" y="1.147142857142836" width="0.280535714285709" height="0.280535714285709" fill="#54D2EB" />
<rect x="0.005" y="1.432678571428545" width="0.280535714285709" height="0.280535714285709" fill="#54D2EB" />
<rect x="0.290535714285709" y="1.432678571428545" width="0.280535714285709" height="0.280535714285709" fill="#252525" />
<rect x="0.576071428571418" y="1.432678571428545" width="0.280535714285709" height="0.280535714285709" fill="#252525" />
<rect x="0.861607142857127" y="1.432678571428545" width="0.280535714285709" height="0.280535714285709" fill="#FF4136" />
<rect x="1.147142857142836" y="1.432678571428545" width="0.280535714285709" height="0.280535714285709" fill="#FF4136" />
<rect x="1.432678571428545" y="1.432678571428545" width="0.280535714285709" height="0.280535714285709" fill="#54D2EB" />
<rect x="1.718214285714254" y="1.432678571428545" width="0.280535714285709" height="0.280535714285709" fill="#252525" />
<rect x="-0.02666666666666667" y="-0.02666666666666667" width="2.052083333333296" height="1.7665476190475873" fill="none" stroke="#111111ff" stroke-width="0.08" />
<text x="1.998749999999963" y="2.181964285714254" font-size="0.375" fill="black" text-anchor="end" font-family="Anuphan">7x6</text>
<text x="-0.037500000000000006" y="2.181964285714254" font-size="0.375" fill="black" text-anchor="start" font-family="Anuphan" font-weight="600">Input 5</text>
</g>
<g id="d5">
<rect x="0.005" y="0.005" width="0.32812499999999384" height="0.32812499999999384" fill="#54D2EB" />
<rect x="0.33812499999999385" y="0.005" width="0.32812499999999384" height="0.32812499999999384" fill="#252525" />
<rect x="0.6712499999999877" y="0.005" width="0.32812499999999384" height="0.32812499999999384" fill="#252525" />
<rect x="1.0043749999999814" y="0.005" width="0.32812499999999384" height="0.32812499999999384" fill="#FF4136" />
<rect x="1.3374999999999753" y="0.005" width="0.32812499999999384" height="0.32812499999999384" fill="#FF4136" />
<rect x="1.6706249999999692" y="0.005" width="0.32812499999999384" height="0.32812499999999384" fill="#54D2EB" />
<rect x="0.005" y="0.33812499999999385" width="0.32812499999999384" height="0.32812499999999384" fill="#54D2EB" />
<rect x="0.33812499999999385" y="0.33812499999999385" width="0.32812499999999384" height="0.32812499999999384" fill="#252525" />
<rect x="0.6712499999999877" y="0.33812499999999385" width="0.32812499999999384" height="0.32812499999999384" fill="#54D2EB" />
<rect x="1.0043749999999814" y="0.33812499999999385" width="0.32812499999999384" height="0.32812499999999384" fill="#FF4136" />
<rect x="1.3374999999999753" y="0.33812499999999385" width="0.32812499999999384" height="0.32812499999999384" fill="#FF4136" />
<rect x="1.6706249999999692" y="0.33812499999999385" width="0.32812499999999384" height="0.32812499999999384" fill="#252525" />
<rect x="0.005" y="0.6712499999999877" width="0.32812499999999384" height="0.32812499999999384" fill="#252525" />
<rect x="0.33812499999999385" y="0.6712499999999877" width="0.32812499999999384" height="0.32812499999999384" fill="#252525" />
<rect x="0.6712499999999877" y="0.6712499999999877" width="0.32812499999999384" height="0.32812499999999384" fill="#252525" />
<rect x="1.0043749999999814" y="0.6712499999999877" width="0.32812499999999384" height="0.32812499999999384" fill="#252525" />
<rect x="1.3374999999999753" y="0.6712499999999877" width="0.32812499999999384" height="0.32812499999999384" fill="#54D2EB" />
<rect x="1.6706249999999692" y="0.6712499999999877" width="0.32812499999999384" height="0.32812499999999384" fill="#252525" />
<rect x="0.005" y="1.0043749999999814" width="0.32812499999999384" height="0.32812499999999384" fill="#FF4136" />
<rect x="0.33812499999999385" y="1.0043749999999814" width="0.32812499999999384" height="0.32812499999999384" fill="#FF4136" />
<rect x="0.6712499999999877" y="1.0043749999999814" width="0.32812499999999384" height="0.32812499999999384" fill="#54D2EB" />
<rect x="1.0043749999999814" y="1.0043749999999814" width="0.32812499999999384" height="0.32812499999999384" fill="#252525" />
<rect x="1.3374999999999753" y="1.0043749999999814" width="0.32812499999999384" height="0.32812499999999384" fill="#54D2EB" />
<rect x="1.6706249999999692" y="1.0043749999999814" width="0.32812499999999384" height="0.32812499999999384" fill="#252525" />
<rect x="0.005" y="1.3374999999999753" width="0.32812499999999384" height="0.32812499999999384" fill="#FF4136" />
<rect x="0.33812499999999385" y="1.3374999999999753" width="0.32812499999999384" height="0.32812499999999384" fill="#FF4136" />
<rect x="0.6712499999999877" y="1.3374999999999753" width="0.32812499999999384" height="0.32812499999999384" fill="#252525" />
<rect x="1.0043749999999814" y="1.3374999999999753" width="0.32812499999999384" height="0.32812499999999384" fill="#252525" />
<rect x="1.3374999999999753" y="1.3374999999999753" width="0.32812499999999384" height="0.32812499999999384" fill="#252525" />
<rect x="1.6706249999999692" y="1.3374999999999753" width="0.32812499999999384" height="0.32812499999999384" fill="#54D2EB" />
<rect x="0.005" y="1.6706249999999692" width="0.32812499999999384" height="0.32812499999999384" fill="#252525" />
<rect x="0.33812499999999385" y="1.6706249999999692" width="0.32812499999999384" height="0.32812499999999384" fill="#54D2EB" />
<rect x="0.6712499999999877" y="1.6706249999999692" width="0.32812499999999384" height="0.32812499999999384" fill="#54D2EB" />
<rect x="1.0043749999999814" y="1.6706249999999692" width="0.32812499999999384" height="0.32812499999999384" fill="#252525" />
<rect x="1.3374999999999753" y="1.6706249999999692" width="0.32812499999999384" height="0.32812499999999384" fill="#54D2EB" />
<rect x="1.6706249999999692" y="1.6706249999999692" width="0.32812499999999384" height="0.32812499999999384" fill="#252525" />
<rect x="-0.02666666666666667" y="-0.02666666666666667" width="2.052083333333296" height="2.052083333333296" fill="none" stroke="#111111ff" stroke-width="0.08" />
<text x="1.998749999999963" y="2.467499999999963" font-size="0.375" fill="black" text-anchor="end" font-family="Anuphan">6x6</text>
<text x="-0.037500000000000006" y="2.467499999999963" font-size="0.375" fill="black" text-anchor="start" font-family="Anuphan" font-weight="600">Input 6</text>
</g>
<g id="d6">
<rect x="0.005" y="0.005" width="0.32812499999999384" height="0.32812499999999384" fill="#FF4136" />
<rect x="0.33812499999999385" y="0.005" width="0.32812499999999384" height="0.32812499999999384" fill="#FF4136" />
<rect x="0.6712499999999877" y="0.005" width="0.32812499999999384" height="0.32812499999999384" fill="#54D2EB" />
<rect x="1.0043749999999814" y="0.005" width="0.32812499999999384" height="0.32812499999999384" fill="#54D2EB" />
<rect x="1.3374999999999753" y="0.005" width="0.32812499999999384" height="0.32812499999999384" fill="#252525" />
<rect x="1.6706249999999692" y="0.005" width="0.32812499999999384" height="0.32812499999999384" fill="#54D2EB" />
<rect x="0.005" y="0.33812499999999385" width="0.32812499999999384" height="0.32812499999999384" fill="#FF4136" />
<rect x="0.33812499999999385" y="0.33812499999999385" width="0.32812499999999384" height="0.32812499999999384" fill="#FF4136" />
<rect x="0.6712499999999877" y="0.33812499999999385" width="0.32812499999999384" height="0.32812499999999384" fill="#252525" />
<rect x="1.0043749999999814" y="0.33812499999999385" width="0.32812499999999384" height="0.32812499999999384" fill="#54D2EB" />
<rect x="1.3374999999999753" y="0.33812499999999385" width="0.32812499999999384" height="0.32812499999999384" fill="#252525" />
<rect x="1.6706249999999692" y="0.33812499999999385" width="0.32812499999999384" height="0.32812499999999384" fill="#252525" />
<rect x="0.005" y="0.6712499999999877" width="0.32812499999999384" height="0.32812499999999384" fill="#54D2EB" />
<rect x="0.33812499999999385" y="0.6712499999999877" width="0.32812499999999384" height="0.32812499999999384" fill="#54D2EB" />
<rect x="0.6712499999999877" y="0.6712499999999877" width="0.32812499999999384" height="0.32812499999999384" fill="#252525" />
<rect x="1.0043749999999814" y="0.6712499999999877" width="0.32812499999999384" height="0.32812499999999384" fill="#252525" />
<rect x="1.3374999999999753" y="0.6712499999999877" width="0.32812499999999384" height="0.32812499999999384" fill="#252525" />
<rect x="1.6706249999999692" y="0.6712499999999877" width="0.32812499999999384" height="0.32812499999999384" fill="#54D2EB" />
<rect x="0.005" y="1.0043749999999814" width="0.32812499999999384" height="0.32812499999999384" fill="#252525" />
<rect x="0.33812499999999385" y="1.0043749999999814" width="0.32812499999999384" height="0.32812499999999384" fill="#54D2EB" />
<rect x="0.6712499999999877" y="1.0043749999999814" width="0.32812499999999384" height="0.32812499999999384" fill="#54D2EB" />
<rect x="1.0043749999999814" y="1.0043749999999814" width="0.32812499999999384" height="0.32812499999999384" fill="#54D2EB" />
<rect x="1.3374999999999753" y="1.0043749999999814" width="0.32812499999999384" height="0.32812499999999384" fill="#252525" />
<rect x="1.6706249999999692" y="1.0043749999999814" width="0.32812499999999384" height="0.32812499999999384" fill="#252525" />
<rect x="0.005" y="1.3374999999999753" width="0.32812499999999384" height="0.32812499999999384" fill="#54D2EB" />
<rect x="0.33812499999999385" y="1.3374999999999753" width="0.32812499999999384" height="0.32812499999999384" fill="#252525" />
<rect x="0.6712499999999877" y="1.3374999999999753" width="0.32812499999999384" height="0.32812499999999384" fill="#54D2EB" />
<rect x="1.0043749999999814" y="1.3374999999999753" width="0.32812499999999384" height="0.32812499999999384" fill="#252525" />
<rect x="1.3374999999999753" y="1.3374999999999753" width="0.32812499999999384" height="0.32812499999999384" fill="#252525" />
<rect x="1.6706249999999692" y="1.3374999999999753" width="0.32812499999999384" height="0.32812499999999384" fill="#54D2EB" />
<rect x="0.005" y="1.6706249999999692" width="0.32812499999999384" height="0.32812499999999384" fill="#252525" />
<rect x="0.33812499999999385" y="1.6706249999999692" width="0.32812499999999384" height="0.32812499999999384" fill="#252525" />
<rect x="0.6712499999999877" y="1.6706249999999692" width="0.32812499999999384" height="0.32812499999999384" fill="#54D2EB" />
<rect x="1.0043749999999814" y="1.6706249999999692" width="0.32812499999999384" height="0.32812499999999384" fill="#FF4136" />
<rect x="1.3374999999999753" y="1.6706249999999692" width="0.32812499999999384" height="0.32812499999999384" fill="#FF4136" />
<rect x="1.6706249999999692" y="1.6706249999999692" width="0.32812499999999384" height="0.32812499999999384" fill="#252525" />
<rect x="0.005" y="2.003749999999963" width="0.32812499999999384" height="0.32812499999999384" fill="#54D2EB" />
<rect x="0.33812499999999385" y="2.003749999999963" width="0.32812499999999384" height="0.32812499999999384" fill="#252525" />
<rect x="0.6712499999999877" y="2.003749999999963" width="0.32812499999999384" height="0.32812499999999384" fill="#252525" />
<rect x="1.0043749999999814" y="2.003749999999963" width="0.32812499999999384" height="0.32812499999999384" fill="#FF4136" />
<rect x="1.3374999999999753" y="2.003749999999963" width="0.32812499999999384" height="0.32812499999999384" fill="#FF4136" />
<rect x="1.6706249999999692" y="2.003749999999963" width="0.32812499999999384" height="0.32812499999999384" fill="#252525" />
<rect x="0.005" y="2.336874999999957" width="0.32812499999999384" height="0.32812499999999384" fill="#252525" />
<rect x="0.33812499999999385" y="2.336874999999957" width="0.32812499999999384" height="0.32812499999999384" fill="#54D2EB" />
<rect x="0.6712499999999877" y="2.336874999999957" width="0.32812499999999384" height="0.32812499999999384" fill="#252525" />
<rect x="1.0043749999999814" y="2.336874999999957" width="0.32812499999999384" height="0.32812499999999384" fill="#252525" />
<rect x="1.3374999999999753" y="2.336874999999957" width="0.32812499999999384" height="0.32812499999999384" fill="#252525" />
<rect x="1.6706249999999692" y="2.336874999999957" width="0.32812499999999384" height="0.32812499999999384" fill="#54D2EB" />
<rect x="-0.02666666666666667" y="-0.02666666666666667" width="2.052083333333296" height="2.718333333333284" fill="none" stroke="#111111ff" stroke-width="0.08" />
<text x="1.998749999999963" y="3.1337499999999507" font-size="0.375" fill="black" text-anchor="end" font-family="Anuphan">6x8</text>
<text x="-0.037500000000000006" y="3.1337499999999507" font-size="0.375" fill="black" text-anchor="start" font-family="Anuphan" font-weight="600">Test 1</text>
</g>
<g id="d7">
<rect x="0.005" y="0.005" width="0.32812499999999384" height="0.32812499999999384" fill="#252525" />
<rect x="0.33812499999999385" y="0.005" width="0.32812499999999384" height="0.32812499999999384" fill="#54D2EB" />
<rect x="0.6712499999999877" y="0.005" width="0.32812499999999384" height="0.32812499999999384" fill="#252525" />
<rect x="1.0043749999999814" y="0.005" width="0.32812499999999384" height="0.32812499999999384" fill="#252525" />
<rect x="1.3374999999999753" y="0.005" width="0.32812499999999384" height="0.32812499999999384" fill="#252525" />
<rect x="1.6706249999999692" y="0.005" width="0.32812499999999384" height="0.32812499999999384" fill="#252525" />
<rect x="0.005" y="0.33812499999999385" width="0.32812499999999384" height="0.32812499999999384" fill="#252525" />
<rect x="0.33812499999999385" y="0.33812499999999385" width="0.32812499999999384" height="0.32812499999999384" fill="#252525" />
<rect x="0.6712499999999877" y="0.33812499999999385" width="0.32812499999999384" height="0.32812499999999384" fill="#252525" />
<rect x="1.0043749999999814" y="0.33812499999999385" width="0.32812499999999384" height="0.32812499999999384" fill="#54D2EB" />
<rect x="1.3374999999999753" y="0.33812499999999385" width="0.32812499999999384" height="0.32812499999999384" fill="#FF4136" />
<rect x="1.6706249999999692" y="0.33812499999999385" width="0.32812499999999384" height="0.32812499999999384" fill="#FF4136" />
<rect x="0.005" y="0.6712499999999877" width="0.32812499999999384" height="0.32812499999999384" fill="#252525" />
<rect x="0.33812499999999385" y="0.6712499999999877" width="0.32812499999999384" height="0.32812499999999384" fill="#54D2EB" />
<rect x="0.6712499999999877" y="0.6712499999999877" width="0.32812499999999384" height="0.32812499999999384" fill="#54D2EB" />
<rect x="1.0043749999999814" y="0.6712499999999877" width="0.32812499999999384" height="0.32812499999999384" fill="#54D2EB" />
<rect x="1.3374999999999753" y="0.6712499999999877" width="0.32812499999999384" height="0.32812499999999384" fill="#FF4136" />
<rect x="1.6706249999999692" y="0.6712499999999877" width="0.32812499999999384" height="0.32812499999999384" fill="#FF4136" />
<rect x="0.005" y="1.0043749999999814" width="0.32812499999999384" height="0.32812499999999384" fill="#252525" />
<rect x="0.33812499999999385" y="1.0043749999999814" width="0.32812499999999384" height="0.32812499999999384" fill="#54D2EB" />
<rect x="0.6712499999999877" y="1.0043749999999814" width="0.32812499999999384" height="0.32812499999999384" fill="#252525" />
<rect x="1.0043749999999814" y="1.0043749999999814" width="0.32812499999999384" height="0.32812499999999384" fill="#252525" />
<rect x="1.3374999999999753" y="1.0043749999999814" width="0.32812499999999384" height="0.32812499999999384" fill="#252525" />
<rect x="1.6706249999999692" y="1.0043749999999814" width="0.32812499999999384" height="0.32812499999999384" fill="#54D2EB" />
<rect x="0.005" y="1.3374999999999753" width="0.32812499999999384" height="0.32812499999999384" fill="#252525" />
<rect x="0.33812499999999385" y="1.3374999999999753" width="0.32812499999999384" height="0.32812499999999384" fill="#252525" />
<rect x="0.6712499999999877" y="1.3374999999999753" width="0.32812499999999384" height="0.32812499999999384" fill="#252525" />
<rect x="1.0043749999999814" y="1.3374999999999753" width="0.32812499999999384" height="0.32812499999999384" fill="#54D2EB" />
<rect x="1.3374999999999753" y="1.3374999999999753" width="0.32812499999999384" height="0.32812499999999384" fill="#252525" />
<rect x="1.6706249999999692" y="1.3374999999999753" width="0.32812499999999384" height="0.32812499999999384" fill="#252525" />
<rect x="0.005" y="1.6706249999999692" width="0.32812499999999384" height="0.32812499999999384" fill="#54D2EB" />
<rect x="0.33812499999999385" y="1.6706249999999692" width="0.32812499999999384" height="0.32812499999999384" fill="#FF4136" />
<rect x="0.6712499999999877" y="1.6706249999999692" width="0.32812499999999384" height="0.32812499999999384" fill="#FF4136" />
<rect x="1.0043749999999814" y="1.6706249999999692" width="0.32812499999999384" height="0.32812499999999384" fill="#252525" />
<rect x="1.3374999999999753" y="1.6706249999999692" width="0.32812499999999384" height="0.32812499999999384" fill="#252525" />
<rect x="1.6706249999999692" y="1.6706249999999692" width="0.32812499999999384" height="0.32812499999999384" fill="#54D2EB" />
<rect x="0.005" y="2.003749999999963" width="0.32812499999999384" height="0.32812499999999384" fill="#252525" />
<rect x="0.33812499999999385" y="2.003749999999963" width="0.32812499999999384" height="0.32812499999999384" fill="#FF4136" />
<rect x="0.6712499999999877" y="2.003749999999963" width="0.32812499999999384" height="0.32812499999999384" fill="#FF4136" />
<rect x="1.0043749999999814" y="2.003749999999963" width="0.32812499999999384" height="0.32812499999999384" fill="#252525" />
<rect x="1.3374999999999753" y="2.003749999999963" width="0.32812499999999384" height="0.32812499999999384" fill="#252525" />
<rect x="1.6706249999999692" y="2.003749999999963" width="0.32812499999999384" height="0.32812499999999384" fill="#252525" />
<rect x="0.005" y="2.336874999999957" width="0.32812499999999384" height="0.32812499999999384" fill="#252525" />
<rect x="0.33812499999999385" y="2.336874999999957" width="0.32812499999999384" height="0.32812499999999384" fill="#54D2EB" />
<rect x="0.6712499999999877" y="2.336874999999957" width="0.32812499999999384" height="0.32812499999999384" fill="#252525" />
<rect x="1.0043749999999814" y="2.336874999999957" width="0.32812499999999384" height="0.32812499999999384" fill="#54D2EB" />
<rect x="1.3374999999999753" y="2.336874999999957" width="0.32812499999999384" height="0.32812499999999384" fill="#54D2EB" />
<rect x="1.6706249999999692" y="2.336874999999957" width="0.32812499999999384" height="0.32812499999999384" fill="#252525" />
<rect x="-0.02666666666666667" y="-0.02666666666666667" width="2.052083333333296" height="2.718333333333284" fill="none" stroke="#111111ff" stroke-width="0.08" />
<text x="1.998749999999963" y="3.1337499999999507" font-size="0.375" fill="black" text-anchor="end" font-family="Anuphan">6x8</text>
<text x="-0.037500000000000006" y="3.1337499999999507" font-size="0.375" fill="black" text-anchor="start" font-family="Anuphan" font-weight="600">Test 2</text>
</g>
<g id="d8">
<rect x="0.005" y="0.005" width="1.993749999999963" height="1.993749999999963" fill="#252525" />
<rect x="-0.02666666666666667" y="-0.02666666666666667" width="2.052083333333296" height="2.052083333333296" fill="none" stroke="#111111ff" stroke-width="0.08" />
<text x="1.998749999999963" y="2.467499999999963" font-size="0.375" fill="black" text-anchor="end" font-family="Anuphan">1x1</text>
<text x="-0.037500000000000006" y="2.467499999999963" font-size="0.375" fill="black" text-anchor="start" font-family="Anuphan" font-weight="600">Output 1</text>
</g>
<g id="d9">
<rect x="0.005" y="0.005" width="1.993749999999963" height="1.993749999999963" fill="#54D2EB" />
<rect x="-0.02666666666666667" y="-0.02666666666666667" width="2.052083333333296" height="2.052083333333296" fill="none" stroke="#111111ff" stroke-width="0.08" />
<text x="1.998749999999963" y="2.467499999999963" font-size="0.375" fill="black" text-anchor="end" font-family="Anuphan">1x1</text>
<text x="-0.037500000000000006" y="2.467499999999963" font-size="0.375" fill="black" text-anchor="start" font-family="Anuphan" font-weight="600">Output 2</text>
</g>
<g id="d10">
<rect x="0.005" y="0.005" width="1.993749999999963" height="1.993749999999963" fill="#54D2EB" />
<rect x="-0.02666666666666667" y="-0.02666666666666667" width="2.052083333333296" height="2.052083333333296" fill="none" stroke="#111111ff" stroke-width="0.08" />
<text x="1.998749999999963" y="2.467499999999963" font-size="0.375" fill="black" text-anchor="end" font-family="Anuphan">1x1</text>
<text x="-0.037500000000000006" y="2.467499999999963" font-size="0.375" fill="black" text-anchor="start" font-family="Anuphan" font-weight="600">Output 3</text>
</g>
<g id="d11">
<rect x="0.005" y="0.005" width="1.993749999999963" height="1.993749999999963" fill="#252525" />
<rect x="-0.02666666666666667" y="-0.02666666666666667" width="2.052083333333296" height="2.052083333333296" fill="none" stroke="#111111ff" stroke-width="0.08" />
<text x="1.998749999999963" y="2.467499999999963" font-size="0.375" fill="black" text-anchor="end" font-family="Anuphan">1x1</text>
<text x="-0.037500000000000006" y="2.467499999999963" font-size="0.375" fill="black" text-anchor="start" font-family="Anuphan" font-weight="600">Output 4</text>
</g>
<g id="d12">
<rect x="0.005" y="0.005" width="1.993749999999963" height="1.993749999999963" fill="#54D2EB" />
<rect x="-0.02666666666666667" y="-0.02666666666666667" width="2.052083333333296" height="2.052083333333296" fill="none" stroke="#111111ff" stroke-width="0.08" />
<text x="1.998749999999963" y="2.467499999999963" font-size="0.375" fill="black" text-anchor="end" font-family="Anuphan">1x1</text>
<text x="-0.037500000000000006" y="2.467499999999963" font-size="0.375" fill="black" text-anchor="start" font-family="Anuphan" font-weight="600">Output 5</text>
</g>
<g id="d13">
<rect x="0.005" y="0.005" width="1.993749999999963" height="1.993749999999963" fill="#252525" />
<rect x="-0.02666666666666667" y="-0.02666666666666667" width="2.052083333333296" height="2.052083333333296" fill="none" stroke="#111111ff" stroke-width="0.08" />
<text x="1.998749999999963" y="2.467499999999963" font-size="0.375" fill="black" text-anchor="end" font-family="Anuphan">1x1</text>
<text x="-0.037500000000000006" y="2.467499999999963" font-size="0.375" fill="black" text-anchor="start" font-family="Anuphan" font-weight="600">Output 6</text>
</g>
</defs>
<rect x="0" y="0" width="100%" height="100%" fill="#eeeff6" />
<use xlink:href="#d0" x="0.25" y="0.25" />
<use xlink:href="#d1" x="2.748749999999963" y="0.25" />
<use xlink:href="#d2" x="5.247499999999926" y="0.25" />
<use xlink:href="#d3" x="7.746249999999889" y="0.25" />
<use xlink:href="#d4" x="10.244999999999852" y="0.25" />
<use xlink:href="#d5" x="12.743749999999814" y="0.25" />
<use xlink:href="#d6" x="15.242499999999776" y="0.25" />
<use xlink:href="#d7" x="17.741249999999738" y="0.25" />
<path d="M1.2493749999999815,3.564999999999951 L1.2493749999999815,3.9649999999999515" stroke-width="0.05" stroke="#888888" />
<path d="M1.0993749999999816,3.7649999999999517 L1.2493749999999815,3.9649999999999515" stroke-width="0.05" stroke="#888888" />
<path d="M1.3993749999999814,3.7649999999999517 L1.2493749999999815,3.9649999999999515" stroke-width="0.05" stroke="#888888" />
<use xlink:href="#d8" x="0.25" y="4.314999999999951" />
<path d="M3.7481249999999444,3.564999999999951 L3.7481249999999444,3.9649999999999515" stroke-width="0.05" stroke="#888888" />
<path d="M3.5981249999999445,3.7649999999999517 L3.7481249999999444,3.9649999999999515" stroke-width="0.05" stroke="#888888" />
<path d="M3.8981249999999443,3.7649999999999517 L3.7481249999999444,3.9649999999999515" stroke-width="0.05" stroke="#888888" />
<use xlink:href="#d9" x="2.748749999999963" y="4.314999999999951" />
<path d="M6.246874999999907,3.564999999999951 L6.246874999999907,3.9649999999999515" stroke-width="0.05" stroke="#888888" />
<path d="M6.096874999999907,3.7649999999999517 L6.246874999999907,3.9649999999999515" stroke-width="0.05" stroke="#888888" />
<path d="M6.396874999999907,3.7649999999999517 L6.246874999999907,3.9649999999999515" stroke-width="0.05" stroke="#888888" />
<use xlink:href="#d10" x="5.247499999999926" y="4.314999999999951" />
<path d="M8.74562499999987,3.564999999999951 L8.74562499999987,3.9649999999999515" stroke-width="0.05" stroke="#888888" />
<path d="M8.59562499999987,3.7649999999999517 L8.74562499999987,3.9649999999999515" stroke-width="0.05" stroke="#888888" />
<path d="M8.895624999999871,3.7649999999999517 L8.74562499999987,3.9649999999999515" stroke-width="0.05" stroke="#888888" />
<use xlink:href="#d11" x="7.746249999999889" y="4.314999999999951" />
<path d="M11.244374999999833,3.564999999999951 L11.244374999999833,3.9649999999999515" stroke-width="0.05" stroke="#888888" />
<path d="M11.094374999999832,3.7649999999999517 L11.244374999999833,3.9649999999999515" stroke-width="0.05" stroke="#888888" />
<path d="M11.394374999999833,3.7649999999999517 L11.244374999999833,3.9649999999999515" stroke-width="0.05" stroke="#888888" />
<use xlink:href="#d12" x="10.244999999999852" y="4.314999999999951" />
<path d="M13.743124999999795,3.564999999999951 L13.743124999999795,3.9649999999999515" stroke-width="0.05" stroke="#888888" />
<path d="M13.593124999999795,3.7649999999999517 L13.743124999999795,3.9649999999999515" stroke-width="0.05" stroke="#888888" />
<path d="M13.893124999999795,3.7649999999999517 L13.743124999999795,3.9649999999999515" stroke-width="0.05" stroke="#888888" />
<use xlink:href="#d13" x="12.743749999999814" y="4.314999999999951" />
<path d="M16.24187499999976,3.564999999999951 L16.24187499999976,3.9649999999999515" stroke-width="0.05" stroke="#888888" />
<path d="M16.09187499999976,3.7649999999999517 L16.24187499999976,3.9649999999999515" stroke-width="0.05" stroke="#888888" />
<path d="M16.391874999999757,3.7649999999999517 L16.24187499999976,3.9649999999999515" stroke-width="0.05" stroke="#888888" />
<text x="16.24187499999976" y="5.414374999999932" font-size="1" font-family="Anuphan" font-weight="700" fill="#333333" text-anchor="middle" alignment-baseline="middle">?</text>
<path d="M18.74062499999972,3.564999999999951 L18.74062499999972,3.9649999999999515" stroke-width="0.05" stroke="#888888" />
<path d="M18.590624999999722,3.7649999999999517 L18.74062499999972,3.9649999999999515" stroke-width="0.05" stroke="#888888" />
<path d="M18.89062499999972,3.7649999999999517 L18.74062499999972,3.9649999999999515" stroke-width="0.05" stroke="#888888" />
<text x="18.74062499999972" y="5.414374999999932" font-size="1" font-family="Anuphan" font-weight="700" fill="#333333" text-anchor="middle" alignment-baseline="middle">?</text>
<text x="19.9" y="7.199999999999999" font-size="0.3" font-family="Anuphan" font-weight="600" fill="#666666" text-anchor="end" alignment-baseline="bottom">Task 239be575</text>
</svg>