<?xml version="1.0" encoding="UTF-8"?>
<svg xmlns="http://www.w3.org/2000/svg" xmlns:xlink="http://www.w3.org/1999/xlink"
     width="800.0" height="460.0" viewBox="0 0 20.0 11.5">
<defs>
<g id="d0">
<rect x="0.005" y="0.005" width="0.673125" height="0.673125" fill="#252525" />
<rect x="0.683125" y="0.005" width="0.673125" height="0.673125" fill="#252525" />
<rect x="1.3612499999999998" y="0.005" width="0.673125" height="0.673125" fill="#252525" />
<rect x="2.0393749999999997" y="0.005" width="0.673125" height="0.673125" fill="#252525" />
<rect x="0.005" y="0.683125" width="0.673125" height="0.673125" fill="#252525" />
<rect x="0.683125" y="0.683125" width="0.673125" height="0.673125" fill="#37D449" />
<rect x="1.3612499999999998" y="0.683125" width="0.673125" height="0.673125" fill="#37D449" />
<rect x="2.0393749999999997" y="0.683125" width="0.673125" height="0.673125" fill="#252525" />
<rect x="0.005" y="1.3612499999999998" width="0.673125" height="0.673125" fill="#252525" />
<rect x="0.683125" y="1.3612499999999998" width="0.673125" height="0.673125" fill="#252525" />
<rect x="1.3612499999999998" y="1.3612499999999998" width="0.673125" height="0.673125" fill="#252525" />
<rect x="2.0393749999999997" y="1.3612499999999998" width="0.673125" height="0.673125" fill="#252525" />
<rect x="0.005" y="2.0393749999999997" width="0.673125" height="0.673125" fill="#37D449" />
<rect x="0.683125" y="2.0393749999999997" width="0.673125" height="0.673125" fill="#252525" />
<rect x="1.3612499999999998" y="2.0393749999999997" width="0.673125" height="0.673125" fill="#252525" />
<rect x="2.0393749999999997" y="2.0393749999999997" width="0.673125" height="0.673125" fill="#37D449" />
<rect x="0.005" y="2.7175" width="0.673125" height="0.673125" fill="#252525" />
<rect x="0.683125" y="2.7175" width="0.673125" height="0.673125" fill="#252525" />
<rect x="1.3612499999999998" y="2.7175" width="0.673125" height="0.673125" fill="#252525" />
<rect x="2.0393749999999997" y="2.7175" width="0.673125" height="0.673125" fill="#0074D9" />
<rect x="0.005" y="3.395625" width="0.673125" height="0.673125" fill="#0074D9" />
<rect x="0.683125" y="3.395625" width="0.673125" height="0.673125" fill="#252525" />
<rect x="1.3612499999999998" y="3.395625" width="0.673125" height="0.673125" fill="#0074D9" />
<rect x="2.0393749999999997" y="3.395625" width="0.673125" height="0.673125" fill="#0074D9" />
<rect x="0.005" y="4.0737499999999995" width="0.673125" height="0.673125" fill="#0074D9" />
<rect x="0.683125" y="4.0737499999999995" width="0.673125" height="0.673125" fill="#0074D9" />
<rect x="1.3612499999999998" y="4.0737499999999995" width="0.673125" height="0.673125" fill="#0074D9" />
<rect x="2.0393749999999997" y="4.0737499999999995" width="0.673125" height="0.673125" fill="#0074D9" />
<rect x="0.005" y="4.751875" width="0.673125" height="0.673125" fill="#252525" />
<rect x="0.683125" y="4.751875" width="0.673125" height="0.673125" fill="#0074D9" />
<rect x="1.3612499999999998" y="4.751875" width="0.673125" height="0.673125" fill="#252525" />
<rect x="2.0393749999999997" y="4.751875" width="0.673125" height="0.673125" fill="#0074D9" />
<rect x="-0.02666666666666667" y="-0.02666666666666667" width="2.765833333333333" height="5.4783333333333335" fill="none" stroke="#111111ff" stroke-width="0.08" />
<text x="2.7125" y="5.89375" font-size="0.375" fill="black" text-anchor="end" font-family="Anuphan">4x8</text>
<text x="-0.037500000000000006" y="5.89375" font-size="0.375" fill="black" text-anchor="start" font-family="Anuphan" font-weight="600">Input 1</text>
</g>
<g id="d1">
<rect x="0.005" y="0.005" width="0.673125" height="0.673125" fill="#37D449" />
<rect x="0.683125" y="0.005" width="0.673125" height="0.673125" fill="#37D449" />
<rect x="1.3612499999999998" y="0.005" width="0.673125" height="0.673125" fill="#37D449" />
<rect x="2.0393749999999997" y="0.005" width="0.673125" height="0.673125" fill="#37D449" />
<rect x="0.005" y="0.683125" width="0.673125" height="0.673125" fill="#252525" />
<rect x="0.683125" y="0.683125" width="0.673125" height="0.673125" fill="#37D449" />
<rect x="1.3612499999999998" y="0.683125" width="0.673125" height="0.673125" fill="#37D449" />
<rect x="2.0393749999999997" y="0.683125" width="0.673125" height="0.673125" fill="#252525" />
<rect x="0.005" y="1.3612499999999998" width="0.673125" height="0.673125" fill="#252525" />
<rect x="0.683125" y="1.3612499999999998" width="0.673125" height="0.673125" fill="#252525" />
<rect x="1.3612499999999998" y="1.3612499999999998" width="0.673125" height="0.673125" fill="#37D449" />
<rect x="2.0393749999999997" y="1.3612499999999998" width="0.673125" height="0.673125" fill="#37D449" />
<rect x="0.005" y="2.0393749999999997" width="0.673125" height="0.673125" fill="#37D449" />
<rect x="0.683125" y="2.0393749999999997" width="0.673125" height="0.673125" fill="#252525" />
<rect x="1.3612499999999998" y="2.0393749999999997" width="0.673125" height="0.673125" fill="#252525" />
<rect x="2.0393749999999997" y="2.0393749999999997" width="0.673125" height="0.673125" fill="#252525" />
<rect x="0.005" y="2.7175" width="0.673125" height="0.673125" fill="#252525" />
<rect x="0.683125" y="2.7175" width="0.673125" height="0.673125" fill="#252525" />
<rect x="1.3612499999999998" y="2.7175" width="0.673125" height="0.673125" fill="#252525" />
<rect x="2.0393749999999997" y="2.7175" width="0.673125" height="0.673125" fill="#0074D9" />
<rect x="0.005" y="3.395625" width="0.673125" height="0.673125" fill="#252525" />
<rect x="0.683125" y="3.395625" width="0.673125" height="0.673125" fill="#252525" />
<rect x="1.3612499999999998" y="3.395625" width="0.673125" height="0.673125" fill="#252525" />
<rect x="2.0393749999999997" y="3.395625" width="0.673125" height="0.673125" fill="#0074D9" />
<rect x="0.005" y="4.0737499999999995" width="0.673125" height="0.673125" fill="#252525" />
<rect x="0.683125" y="4.0737499999999995" width="0.673125" height="0.673125" fill="#0074D9" />
<rect x="1.3612499999999998" y="4.0737499999999995" width="0.673125" height="0.673125" fill="#252525" />
<rect x="2.0393749999999997" y="4.0737499999999995" width="0.673125" height="0.673125" fill="#252525" />
<rect x="0.005" y="4.751875" width="0.673125" height="0.673125" fill="#0074D9" />
<rect x="0.683125" y="4.751875" width="0.673125" height="0.673125" fill="#252525" />
<rect x="1.3612499999999998" y="4.751875" width="0.673125" height="0.673125" fill="#252525" />
<rect x="2.0393749999999997" y="4.751875" width="0.673125" height="0.673125" fill="#0074D9" />
<rect x="-0.02666666666666667" y="-0.02666666666666667" width="2.765833333333333" height="5.4783333333333335" fill="none" stroke="#111111ff" stroke-width="0.08" />
<text x="2.7125" y="5.89375" font-size="0.375" fill="black" text-anchor="end" font-family="Anuphan">4x8</text>
<text x="-0.037500000000000006" y="5.89375" font-size="0.375" fill="black" text-anchor="start" font-family="Anuphan" font-weight="600">Input 2</text>
</g>
<g id="d2">
<rect x="0.005" y="0.005" width="0.673125" height="0.673125" fill="#252525" />
<rect x="0.683125" y="0.005" width="0.673125" height="0.673125" fill="#37D449" />
<rect x="1.3612499999999998" y="0.005" width="0.673125" height="0.673125" fill="#37D449" />
<rect x="2.0393749999999997" y="0.005" width="0.673125" height="0.673125" fill="#252525" />
<rect x="0.005" y="0.683125" width="0.673125" height="0.673125" fill="#252525" />
<rect x="0.683125" y="0.683125" width="0.673125" height="0.673125" fill="#37D449" />
<rect x="1.3612499999999998" y="0.683125" width="0.673125" height="0.673125" fill="#252525" />
<rect x="2.0393749999999997" y="0.683125" width="0.673125" height="0.673125" fill="#37D449" />
<rect x="0.005" y="1.3612499999999998" width="0.673125" height="0.673125" fill="#252525" />
<rect x="0.683125" y="1.3612499999999998" width="0.673125" height="0.673125" fill="#252525" />
<rect x="1.3612499999999998" y="1.3612499999999998" width="0.673125" height="0.673125" fill="#37D449" />
<rect x="2.0393749999999997" y="1.3612499999999998" width="0.673125" height="0.673125" fill="#252525" />
<rect x="0.005" y="2.0393749999999997" width="0.673125" height="0.673125" fill="#37D449" />
<rect x="0.683125" y="2.0393749999999997" width="0.673125" height="0.673125" fill="#37D449" />
<rect x="1.3612499999999998" y="2.0393749999999997" width="0.673125" height="0.673125" fill="#37D449" />
<rect x="2.0393749999999997" y="2.0393749999999997" width="0.673125" height="0.673125" fill="#37D449" />
<rect x="0.005" y="2.7175" width="0.673125" height="0.673125" fill="#0074D9" />
<rect x="0.683125" y="2.7175" width="0.673125" height="0.673125" fill="#0074D9" />
<rect x="1.3612499999999998" y="2.7175" width="0.673125" height="0.673125" fill="#0074D9" />
<rect x="2.0393749999999997" y="2.7175" width="0.673125" height="0.673125" fill="#0074D9" />
<rect x="0.005" y="3.395625" width="0.673125" height="0.673125" fill="#0074D9" />
<rect x="0.683125" y="3.395625" width="0.673125" height="0.673125" fill="#0074D9" />
<rect x="1.3612499999999998" y="3.395625" width="0.673125" height="0.673125" fill="#252525" />
<rect x="2.0393749999999997" y="3.395625" width="0.673125" height="0.673125" fill="#252525" />
<rect x="0.005" y="4.0737499999999995" width="0.673125" height="0.673125" fill="#0074D9" />
<rect x="0.683125" y="4.0737499999999995" width="0.673125" height="0.673125" fill="#0074D9" />
<rect x="1.3612499999999998" y="4.0737499999999995" width="0.673125" height="0.673125" fill="#252525" />
<rect x="2.0393749999999997" y="4.0737499999999995" width="0.673125" height="0.673125" fill="#252525" />
<rect x="0.005" y="4.751875" width="0.673125" height="0.673125" fill="#252525" />
<rect x="0.683125" y="4.751875" width="0.673125" height="0.673125" fill="#0074D9" />
<rect x="1.3612499999999998" y="4.751875" width="0.673125" height="0.673125" fill="#0074D9" />
<rect x="2.0393749999999997" y="4.751875" width="0.673125" height="0.673125" fill="#252525" />
<rect x="-0.02666666666666667" y="-0.02666666666666667" width="2.765833333333333" height="5.4783333333333335" fill="none" stroke="#111111ff" stroke-width="0.08" />
<text x="2.7125" y="5.89375" font-size="0.375" fill="black" text-anchor="end" font-family="Anuphan">4x8</text>
<text x="-0.037500000000000006" y="5.89375" font-size="0.375" fill="black" text-anchor="start" font-family="Anuphan" font-weight="600">Input 3</text>
</g>
<g id="d3">
<rect x="0.005" y="0.005" width="0.673125" height="0.673125" fill="#37D449" />
<rect x="0.683125" y="0.005" width="0.673125" height="0.673125" fill="#37D449" />
<rect x="1.3612499999999998" y="0.005" width="0.673125" height="0.673125" fill="#37D449" />
<rect x="2.0393749999999997" y="0.005" width="0.673125" height="0.673125" fill="#37D449" />
<rect x="0.005" y="0.683125" width="0.673125" height="0.673125" fill="#37D449" />
<rect x="0.683125" y="0.683125" width="0.673125" height="0.673125" fill="#252525" />
<rect x="1.3612499999999998" y="0.683125" width="0.673125" height="0.673125" fill="#252525" />
<rect x="2.0393749999999997" y="0.683125" width="0.673125" height="0.673125" fill="#252525" />
<rect x="0.005" y="1.3612499999999998" width="0.673125" height="0.673125" fill="#37D449" />
<rect x="0.683125" y="1.3612499999999998" width="0.673125" height="0.673125" fill="#252525" />
<rect x="1.3612499999999998" y="1.3612499999999998" width="0.673125" height="0.673125" fill="#37D449" />
<rect x="2.0393749999999997" y="1.3612499999999998" width="0.673125" height="0.673125" fill="#37D449" />
<rect x="0.005" y="2.0393749999999997" width="0.673125" height="0.673125" fill="#37D449" />
<rect x="0.683125" y="2.0393749999999997" width="0.673125" height="0.673125" fill="#37D449" />
<rect x="1.3612499999999998" y="2.0393749999999997" width="0.673125" height="0.673125" fill="#252525" />
<rect x="2.0393749999999997" y="2.0393749999999997" width="0.673125" height="0.673125" fill="#37D449" />
<rect x="0.005" y="2.7175" width="0.673125" height="0.673125" fill="#0074D9" />
<rect x="0.683125" y="2.7175" width="0.673125" height="0.673125" fill="#0074D9" />
<rect x="1.3612499999999998" y="2.7175" width="0.673125" height="0.673125" fill="#0074D9" />
<rect x="2.0393749999999997" y="2.7175" width="0.673125" height="0.673125" fill="#252525" />
<rect x="0.005" y="3.395625" width="0.673125" height="0.673125" fill="#252525" />
<rect x="0.683125" y="3.395625" width="0.673125" height="0.673125" fill="#0074D9" />
<rect x="1.3612499999999998" y="3.395625" width="0.673125" height="0.673125" fill="#0074D9" />
<rect x="2.0393749999999997" y="3.395625" width="0.673125" height="0.673125" fill="#0074D9" />
<rect x="0.005" y="4.0737499999999995" width="0.673125" height="0.673125" fill="#0074D9" />
<rect x="0.683125" y="4.0737499999999995" width="0.673125" height="0.673125" fill="#252525" />
<rect x="1.3612499999999998" y="4.0737499999999995" width="0.673125" height="0.673125" fill="#0074D9" />
<rect x="2.0393749999999997" y="4.0737499999999995" width="0.673125" height="0.673125" fill="#0074D9" />
<rect x="0.005" y="4.751875" width="0.673125" height="0.673125" fill="#252525" />
<rect x="0.683125" y="4.751875" width="0.673125" height="0.673125" fill="#0074D9" />
<rect x="1.3612499999999998" y="4.751875" width="0.673125" height="0.673125" fill="#0074D9" />
<rect x="2.0393749999999997" y="4.751875" width="0.673125" height="0.673125" fill="#0074D9" />
<rect x="-0.02666666666666667" y="-0.02666666666666667" width="2.765833333333333" height="5.4783333333333335" fill="none" stroke="#111111ff" stroke-width="0.08" />
<text x="2.7125" y="5.89375" font-size="0.375" fill="black" text-anchor="end" font-family="Anuphan">4x8</text>
<text x="-0.037500000000000006" y="5.89375" font-size="0.375" fill="black" text-anchor="start" font-family="Anuphan" font-weight="600">Input 4</text>
</g>
<g id="d4">
<rect x="0.005" y="0.005" width="0.673125" height="0.673125" fill="#252525" />
<rect x="0.683125" y="0.005" width="0.673125" height="0.673125" fill="#37D449" />
<rect x="1.3612499999999998" y="0.005" width="0.673125" height="0.673125" fill="#252525" />
<rect x="2.0393749999999997" y="0.005" width="0.673125" height="0.673125" fill="#37D449" />
<rect x="0.005" y="0.683125" width="0.673125" height="0.673125" fill="#37D449" />
<rect x="0.683125" y="0.683125" width="0.673125" height="0.673125" fill="#37D449" />
<rect x="1.3612499999999998" y="0.683125" width="0.673125" height="0.673125" fill="#37D449" />
<rect x="2.0393749999999997" y="0.683125" width="0.673125" height="0.673125" fill="#252525" />
<rect x="0.005" y="1.3612499999999998" width="0.673125" height="0.673125" fill="#252525" />
<rect x="0.683125" y="1.3612499999999998" width="0.673125" height="0.673125" fill="#252525" />
<rect x="1.3612499999999998" y="1.3612499999999998" width="0.673125" height="0.673125" fill="#252525" />
<rect x="2.0393749999999997" y="1.3612499999999998" width="0.673125" height="0.673125" fill="#37D449" />
<rect x="0.005" y="2.0393749999999997" width="0.673125" height="0.673125" fill="#37D449" />
<rect x="0.683125" y="2.0393749999999997" width="0.673125" height="0.673125" fill="#37D449" />
<rect x="1.3612499999999998" y="2.0393749999999997" width="0.673125" height="0.673125" fill="#37D449" />
<rect x="2.0393749999999997" y="2.0393749999999997" width="0.673125" height="0.673125" fill="#252525" />
<rect x="0.005" y="2.7175" width="0.673125" height="0.673125" fill="#252525" />
<rect x="0.683125" y="2.7175" width="0.673125" height="0.673125" fill="#252525" />
<rect x="1.3612499999999998" y="2.7175" width="0.673125" height="0.673125" fill="#0074D9" />
<rect x="2.0393749999999997" y="2.7175" width="0.673125" height="0.673125" fill="#0074D9" />
<rect x="0.005" y="3.395625" width="0.673125" height="0.673125" fill="#252525" />
<rect x="0.683125" y="3.395625" width="0.673125" height="0.673125" fill="#252525" />
<rect x="1.3612499999999998" y="3.395625" width="0.673125" height="0.673125" fill="#0074D9" />
<rect x="2.0393749999999997" y="3.395625" width="0.673125" height="0.673125" fill="#0074D9" />
<rect x="0.005" y="4.0737499999999995" width="0.673125" height="0.673125" fill="#252525" />
<rect x="0.683125" y="4.0737499999999995" width="0.673125" height="0.673125" fill="#0074D9" />
<rect x="1.3612499999999998" y="4.0737499999999995" width="0.673125" height="0.673125" fill="#252525" />
<rect x="2.0393749999999997" y="4.0737499999999995" width="0.673125" height="0.673125" fill="#252525" />
<rect x="0.005" y="4.751875" width="0.673125" height="0.673125" fill="#0074D9" />
<rect x="0.683125" y="4.751875" width="0.673125" height="0.673125" fill="#0074D9" />
<rect x="1.3612499999999998" y="4.751875" width="0.673125" height="0.673125" fill="#252525" />
<rect x="2.0393749999999997" y="4.751875" width="0.673125" height="0.673125" fill="#252525" />
<rect x="-0.02666666666666667" y="-0.02666666666666667" width="2.765833333333333" height="5.4783333333333335" fill="none" stroke="#111111ff" stroke-width="0.08" />
<text x="2.7125" y="5.89375" font-size="0.375" fill="black" text-anchor="end" font-family="Anuphan">4x8</text>
<text x="-0.037500000000000006" y="5.89375" font-size="0.375" fill="black" text-anchor="start" font-family="Anuphan" font-weight="600">Test 1</text>
</g>
<g id="d5">
<rect x="0.005" y="0.005" width="0.8694999999999591" height="0.8694999999999591" fill="#FF4136" />
<rect x="0.8794999999999591" y="0.005" width="0.8694999999999591" height="0.8694999999999591" fill="#FF4136" />
<rect x="1.753999999999918" y="0.005" width="0.8694999999999591" height="0.8694999999999591" fill="#FF4136" />
<rect x="2.6284999999998773" y="0.005" width="0.8694999999999591" height="0.8694999999999591" fill="#252525" />
<rect x="0.005" y="0.8794999999999591" width="0.8694999999999591" height="0.8694999999999591" fill="#252525" />
<rect x="0.8794999999999591" y="0.8794999999999591" width="0.8694999999999591" height="0.8694999999999591" fill="#252525" />
<rect x="1.753999999999918" y="0.8794999999999591" width="0.8694999999999591" height="0.8694999999999591" fill="#252525" />
<rect x="2.6284999999998773" y="0.8794999999999591" width="0.8694999999999591" height="0.8694999999999591" fill="#252525" />
<rect x="0.005" y="1.753999999999918" width="0.8694999999999591" height="0.8694999999999591" fill="#252525" />
<rect x="0.8794999999999591" y="1.753999999999918" width="0.8694999999999591" height="0.8694999999999591" fill="#252525" />
<rect x="1.753999999999918" y="1.753999999999918" width="0.8694999999999591" height="0.8694999999999591" fill="#252525" />
<rect x="2.6284999999998773" y="1.753999999999918" width="0.8694999999999591" height="0.8694999999999591" fill="#252525" />
<rect x="0.005" y="2.6284999999998773" width="0.8694999999999591" height="0.8694999999999591" fill="#252525" />
<rect x="0.8794999999999591" y="2.6284999999998773" width="0.8694999999999591" height="0.8694999999999591" fill="#252525" />
<rect x="1.753999999999918" y="2.6284999999998773" width="0.8694999999999591" height="0.8694999999999591" fill="#FF4136" />
<rect x="2.6284999999998773" y="2.6284999999998773" width="0.8694999999999591" height="0.8694999999999591" fill="#252525" />
<rect x="-0.02666666666666667" y="-0.02666666666666667" width="3.5513333333331696" height="3.5513333333331696" fill="none" stroke="#111111ff" stroke-width="0.08" />
<text x="3.4979999999998364" y="3.9667499999998364" font-size="0.375" fill="black" text-anchor="end" font-family="Anuphan">4x4</text>
<text x="-0.037500000000000006" y="3.9667499999998364" font-size="0.375" fill="black" text-anchor="start" font-family="Anuphan" font-weight="600">Output 1</text>
</g>
<g id="d6">
<rect x="0.005" y="0.005" width="0.8694999999999591" height="0.8694999999999591" fill="#252525" />
<rect x="0.8794999999999591" y="0.005" width="0.8694999999999591" height="0.8694999999999591" fill="#252525" />
<rect x="1.753999999999918" y="0.005" width="0.8694999999999591" height="0.8694999999999591" fill="#252525" />
<rect x="2.6284999999998773" y="0.005" width="0.8694999999999591" height="0.8694999999999591" fill="#252525" />
<rect x="0.005" y="0.8794999999999591" width="0.8694999999999591" height="0.8694999999999591" fill="#FF4136" />
<rect x="0.8794999999999591" y="0.8794999999999591" width="0.8694999999999591" height="0.8694999999999591" fill="#252525" />
<rect x="1.753999999999918" y="0.8794999999999591" width="0.8694999999999591" height="0.8694999999999591" fill="#252525" />
<rect x="2.6284999999998773" y="0.8794999999999591" width="0.8694999999999591" height="0.8694999999999591" fill="#252525" />
<rect x="0.005" y="1.753999999999918" width="0.8694999999999591" height="0.8694999999999591" fill="#FF4136" />
<rect x="0.8794999999999591" y="1.753999999999918" width="0.8694999999999591" height="0.8694999999999591" fill="#252525" />
<rect x="1.753999999999918" y="1.753999999999918" width="0.8694999999999591" height="0.8694999999999591" fill="#252525" />
<rect x="2.6284999999998773" y="1.753999999999918" width="0.8694999999999591" height="0.8694999999999591" fill="#252525" />
<rect x="0.005" y="2.6284999999998773" width="0.8694999999999591" height="0.8694999999999591" fill="#252525" />
<rect x="0.8794999999999591" y="2.6284999999998773" width="0.8694999999999591" height="0.8694999999999591" fill="#FF4136" />
<rect x="1.753999999999918" y="2.6284999999998773" width="0.8694999999999591" height="0.8694999999999591" fill="#FF4136" />
<rect x="2.6284999999998773" y="2.6284999999998773" width="0.8694999999999591" height="0.8694999999999591" fill="#252525" />
<rect x="-0.02666666666666667" y="-0.02666666666666667" width="3.5513333333331696" height="3.5513333333331696" fill="none" stroke="#111111ff" stroke-width="0.08" />
<text x="3.4979999999998364" y="3.9667499999998364" font-size="0.375" fill="black" text-anchor="end" font-family="Anuphan">4x4</text>
<text x="-0.037500000000000006" y="3.9667499999998364" font-size="0.375" fill="black" text-anchor="start" font-family="Anuphan" font-weight="600">Output 2</text>
</g>
<g id="d7">
<rect x="0.005" y="0.005" width="0.8694999999999591" height="0.8694999999999591" fill="#252525" />
<rect x="0.8794999999999591" y="0.005" width="0.8694999999999591" height="0.8694999999999591" fill="#252525" />
<rect x="1.753999999999918" y="0.005" width="0.8694999999999591" height="0.8694999999999591" fill="#252525" />
<rect x="2.6284999999998773" y="0.005" width="0.8694999999999591" height="0.8694999999999591" fill="#252525" />
<rect x="0.005" y="0.8794999999999591" width="0.8694999999999591" height="0.8694999999999591" fill="#252525" />
<rect x="0.8794999999999591" y="0.8794999999999591" width="0.8694999999999591" height="0.8694999999999591" fill="#252525" />
<rect x="1.753999999999918" y="0.8794999999999591" width="0.8694999999999591" height="0.8694999999999591" fill="#FF4136" />
<rect x="2.6284999999998773" y="0.8794999999999591" width="0.8694999999999591" height="0.8694999999999591" fill="#252525" />
<rect x="0.005" y="1.753999999999918" width="0.8694999999999591" height="0.8694999999999591" fill="#252525" />
<rect x="0.8794999999999591" y="1.753999999999918" width="0.8694999999999591" height="0.8694999999999591" fill="#252525" />
<rect x="1.753999999999918" y="1.753999999999918" width="0.8694999999999591" height="0.8694999999999591" fill="#252525" />
<rect x="2.6284999999998773" y="1.753999999999918" width="0.8694999999999591" height="0.8694999999999591" fill="#FF4136" />
<rect x="0.005" y="2.6284999999998773" width="0.8694999999999591" height="0.8694999999999591" fill="#252525" />
<rect x="0.8794999999999591" y="2.6284999999998773" width="0.8694999999999591" height="0.8694999999999591" fill="#252525" />
<rect x="1.753999999999918" y="2.6284999999998773" width="0.8694999999999591" height="0.8694999999999591" fill="#252525" />
<rect x="2.6284999999998773" y="2.6284999999998773" width="0.8694999999999591" height="0.8694999999999591" fill="#252525" />
<rect x="-0.02666666666666667" y="-0.02666666666666667" width="3.5513333333331696" height="3.5513333333331696" fill="none" stroke="#111111ff" stroke-width="0.08" />
<text x="3.4979999999998364" y="3.9667499999998364" font-size="0.375" fill="black" text-anchor="end" font-family="Anuphan">4x4</text>
<text x="-0.037500000000000006" y="3.9667499999998364" font-size="0.375" fill="black" text-anchor="start" font-family="Anuphan" font-weight="600">Output 3</text>
</g>
<g id="d8">
<rect x="0.005" y="0.005" width="0.8694999999999591" height="0.8694999999999591" fill="#252525" />
<rect x="0.8794999999999591" y="0.005" width="0.8694999999999591" height="0.8694999999999591" fill="#252525" />
<rect x="1.753999999999918" y="0.005" width="0.8694999999999591" height="0.8694999999999591" fill="#252525" />
<rect x="2.6284999999998773" y="0.005" width="0.8694999999999591" height="0.8694999999999591" fill="#252525" />
<rect x="0.005" y="0.8794999999999591" width="0.8694999999999591" height="0.8694999999999591" fill="#252525" />
<rect x="0.8794999999999591" y="0.8794999999999591" width="0.8694999999999591" height="0.8694999999999591" fill="#252525" />
<rect x="1.753999999999918" y="0.8794999999999591" width="0.8694999999999591" height="0.8694999999999591" fill="#252525" />
<rect x="2.6284999999998773" y="0.8794999999999591" width="0.8694999999999591" height="0.8694999999999591" fill="#252525" />
<rect x="0.005" y="1.753999999999918" width="0.8694999999999591" height="0.8694999999999591" fill="#252525" />
<rect x="0.8794999999999591" y="1.753999999999918" width="0.8694999999999591" height="0.8694999999999591" fill="#FF4136" />
<rect x="1.753999999999918" y="1.753999999999918" width="0.8694999999999591" height="0.8694999999999591" fill="#252525" />
<rect x="2.6284999999998773" y="1.753999999999918" width="0.8694999999999591" height="0.8694999999999591" fill="#252525" />
<rect x="0.005" y="2.6284999999998773" width="0.8694999999999591" height="0.8694999999999591" fill="#252525" />
<rect x="0.8794999999999591" y="2.6284999999998773" width="0.8694999999999591" height="0.8694999999999591" fill="#252525" />
<rect x="1.753999999999918" y="2.6284999999998773" width="0.8694999999999591" height="0.8694999999999591" fill="#252525" />
<rect x="2.6284999999998773" y="2.6284999999998773" width="0.8694999999999591" height="0.8694999999999591" fill="#252525" />
<rect x="-0.02666666666666667" y="-0.02666666666666667" width="3.5513333333331696" height="3.5513333333331696" fill="none" stroke="#111111ff" stroke-width="0.08" />
<text x="3.4979999999998364" y="3.9667499999998364" font-size="0.375" fill="black" text-anchor="end" font-family="Anuphan">4x4</text>
<text x="-0.037500000000000006" y="3.9667499999998364" font-size="0.375" fill="black" text-anchor="start" font-family="Anuphan" font-weight="600">Output 4</text>
</g>
</defs>
<rect x="0" y="0" width="100%" height="100%" fill="#eeeff6" />
<use xlink:href="#d0" x="0.6427499999999182" y="0.25" />
<use xlink:href="#d1" x="4.640749999999755" y="0.25" />
<use xlink:href="#d2" x="8.638749999999591" y="0.25" />
<use xlink:href="#d3" x="12.636749999999427" y="0.25" />
<use xlink:href="#d4" x="16.634749999999265" y="0.25" />
<path d="M1.60625,6.325 L1.60625,6.7250000000000005" stroke-width="0.05" stroke="#888888" />
<path d="M1.45625,6.525 L1.60625,6.7250000000000005" stroke-width="0.05" stroke="#888888" />
<path d="M1.7562499999999999,6.525 L1.60625,6.7250000000000005" stroke-width="0.05" stroke="#888888" />
<use xlink:href="#d5" x="0.25" y="7.075" />
<path d="M5.604249999999836,6.325 L5.604249999999836,6.7250000000000005" stroke-width="0.05" stroke="#888888" />
<path d="M5.454249999999836,6.525 L5.604249999999836,6.7250000000000005" stroke-width="0.05" stroke="#888888" />
<path d="M5.754249999999836,6.525 L5.604249999999836,6.7250000000000005" stroke-width="0.05" stroke="#888888" />
<use xlink:href="#d6" x="4.247999999999836" y="7.075" />
<path d="M9.602249999999673,6.325 L9.602249999999673,6.7250000000000005" stroke-width="0.05" stroke="#888888" />
<path d="M9.452249999999673,6.525 L9.602249999999673,6.7250000000000005" stroke-width="0.05" stroke="#888888" />
<path d="M9.752249999999673,6.525 L9.602249999999673,6.7250000000000005" stroke-width="0.05" stroke="#888888" />
<use xlink:href="#d7" x="8.245999999999672" y="7.075" />
<path d="M13.600249999999509,6.325 L13.600249999999509,6.7250000000000005" stroke-width="0.05" stroke="#888888" />
<path d="M13.450249999999508,6.525 L13.600249999999509,6.7250000000000005" stroke-width="0.05" stroke="#888888" />
<path d="M13.75024999999951,6.525 L13.600249999999509,6.7250000000000005" stroke-width="0.05" stroke="#888888" />
<use xlink:href="#d8" x="12.24399999999951" y="7.075" />
<path d="M17.598249999999346,6.325 L17.598249999999346,6.7250000000000005" stroke-width="0.05" stroke="#888888" />
<path d="M17.448249999999348,6.525 L17.598249999999346,6.7250000000000005" stroke-width="0.05" stroke="#888888" />
<path d="M17.748249999999345,6.525 L17.598249999999346,6.7250000000000005" stroke-width="0.05" stroke="#888888" />
<text x="17.990999999999264" y="8.923999999999918" font-size="1" font-family="Anuphan" font-weight="700" fill="#333333" text-anchor="middle" alignment-baseline="middle">?</text>
<text x="19.9" y="11.4" font-size="0.3" font-family="Anuphan" font-weight="600" fill="#666666" text-anchor="end" alignment-baseline="bottom">Task 94f9d214</text>
</svg>