<?xml version="1.0" encoding="UTF-8"?>
<svg xmlns="http://www.w3.org/2000/svg" xmlns:xlink="http://www.w3.org/1999/xlink"
     width="708.0" height="536.0" viewBox="0 0 17.7 13.399999999999999">
<defs>
<g id="d0">
<rect x="0.005" y="0.005" width="0.5366666666666575" height="0.5366666666666575" fill="#252525" />
<rect x="0.5466666666666575" y="0.005" width="0.5366666666666575" height="0.5366666666666575" fill="#252525" />
<rect x="1.088333333333315" y="0.005" width="0.5366666666666575" height="0.5366666666666575" fill="#252525" />
<rect x="1.6299999999999724" y="0.005" width="0.5366666666666575" height="0.5366666666666575" fill="#252525" />
<rect x="2.17166666666663" y="0.005" width="0.5366666666666575" height="0.5366666666666575" fill="#252525" />
<rect x="2.7133333333332876" y="0.005" width="0.5366666666666575" height="0.5366666666666575" fill="#252525" />
<rect x="3.254999999999945" y="0.005" width="0.5366666666666575" height="0.5366666666666575" fill="#252525" />
<rect x="3.7966666666666025" y="0.005" width="0.5366666666666575" height="0.5366666666666575" fill="#252525" />
<rect x="4.33833333333326" y="0.005" width="0.5366666666666575" height="0.5366666666666575" fill="#252525" />
<rect x="4.879999999999917" y="0.005" width="0.5366666666666575" height="0.5366666666666575" fill="#252525" />
<rect x="0.005" y="0.5466666666666575" width="0.5366666666666575" height="0.5366666666666575" fill="#252525" />
<rect x="0.5466666666666575" y="0.5466666666666575" width="0.5366666666666575" height="0.5366666666666575" fill="#252525" />
<rect x="1.088333333333315" y="0.5466666666666575" width="0.5366666666666575" height="0.5366666666666575" fill="#252525" />
<rect x="1.6299999999999724" y="0.5466666666666575" width="0.5366666666666575" height="0.5366666666666575" fill="#252525" />
<rect x="2.17166666666663" y="0.5466666666666575" width="0.5366666666666575" height="0.5366666666666575" fill="#252525" />
<rect x="2.7133333333332876" y="0.5466666666666575" width="0.5366666666666575" height="0.5366666666666575" fill="#252525" />
<rect x="3.254999999999945" y="0.5466666666666575" width="0.5366666666666575" height="0.5366666666666575" fill="#252525" />
<rect x="3.7966666666666025" y="0.5466666666666575" width="0.5366666666666575" height="0.5366666666666575" fill="#252525" />
<rect x="4.33833333333326" y="0.5466666666666575" width="0.5366666666666575" height="0.5366666666666575" fill="#252525" />
<rect x="4.879999999999917" y="0.5466666666666575" width="0.5366666666666575" height="0.5366666666666575" fill="#252525" />
<rect x="0.005" y="1.088333333333315" width="0.5366666666666575" height="0.5366666666666575" fill="#252525" />
<rect x="0.5466666666666575" y="1.088333333333315" width="0.5366666666666575" height="0.5366666666666575" fill="#252525" />
<rect x="1.088333333333315" y="1.088333333333315" width="0.5366666666666575" height="0.5366666666666575" fill="#252525" />
<rect x="1.6299999999999724" y="1.088333333333315" width="0.5366666666666575" height="0.5366666666666575" fill="#252525" />
<rect x="2.17166666666663" y="1.088333333333315" width="0.5366666666666575" height="0.5366666666666575" fill="#252525" />
<rect x="2.7133333333332876" y="1.088333333333315" width="0.5366666666666575" height="0.5366666666666575" fill="#252525" />
<rect x="3.254999999999945" y="1.088333333333315" width="0.5366666666666575" height="0.5366666666666575" fill="#252525" />
<rect x="3.7966666666666025" y="1.088333333333315" width="0.5366666666666575" height="0.5366666666666575" fill="#252525" />
<rect x="4.33833333333326" y="1.088333333333315" width="0.5366666666666575" height="0.5366666666666575" fill="#252525" />
<rect x="4.879999999999917" y="1.088333333333315" width="0.5366666666666575" height="0.5366666666666575" fill="#252525" />
<rect x="0.005" y="1.6299999999999724" width="0.5366666666666575" height="0.5366666666666575" fill="#252525" />
<rect x="0.5466666666666575" y="1.6299999999999724" width="0.5366666666666575" height="0.5366666666666575" fill="#252525" />
<rect x="1.088333333333315" y="1.6299999999999724" width="0.5366666666666575" height="0.5366666666666575" fill="#252525" />
<rect x="1.6299999999999724" y="1.6299999999999724" width="0.5366666666666575" height="0.5366666666666575" fill="#252525" />
<rect x="2.17166666666663" y="1.6299999999999724" width="0.5366666666666575" height="0.5366666666666575" fill="#252525" />
<rect x="2.7133333333332876" y="1.6299999999999724" width="0.5366666666666575" height="0.5366666666666575" fill="#252525" />
<rect x="3.254999999999945" y="1.6299999999999724" width="0.5366666666666575" height="0.5366666666666575" fill="#E6E6E6" />
<rect x="3.7966666666666025" y="1.6299999999999724" width="0.5366666666666575" height="0.5366666666666575" fill="#252525" />
<rect x="4.33833333333326" y="1.6299999999999724" width="0.5366666666666575" height="0.5366666666666575" fill="#252525" />
<rect x="4.879999999999917" y="1.6299999999999724" width="0.5366666666666575" height="0.5366666666666575" fill="#252525" />
<rect x="0.005" y="2.17166666666663" width="0.5366666666666575" height="0.5366666666666575" fill="#252525" />
<rect x="0.5466666666666575" y="2.17166666666663" width="0.5366666666666575" height="0.5366666666666575" fill="#252525" />
<rect x="1.088333333333315" y="2.17166666666663" width="0.5366666666666575" height="0.5366666666666575" fill="#252525" />
<rect x="1.6299999999999724" y="2.17166666666663" width="0.5366666666666575" height="0.5366666666666575" fill="#252525" />
<rect x="2.17166666666663" y="2.17166666666663" width="0.5366666666666575" height="0.5366666666666575" fill="#252525" />
<rect x="2.7133333333332876" y="2.17166666666663" width="0.5366666666666575" height="0.5366666666666575" fill="#252525" />
<rect x="3.254999999999945" y="2.17166666666663" width="0.5366666666666575" height="0.5366666666666575" fill="#252525" />
<rect x="3.7966666666666025" y="2.17166666666663" width="0.5366666666666575" height="0.5366666666666575" fill="#252525" />
<rect x="4.33833333333326" y="2.17166666666663" width="0.5366666666666575" height="0.5366666666666575" fill="#252525" />
<rect x="4.879999999999917" y="2.17166666666663" width="0.5366666666666575" height="0.5366666666666575" fill="#252525" />
<rect x="0.005" y="2.7133333333332876" width="0.5366666666666575" height="0.5366666666666575" fill="#252525" />
<rect x="0.5466666666666575" y="2.7133333333332876" width="0.5366666666666575" height="0.5366666666666575" fill="#252525" />
<rect x="1.088333333333315" y="2.7133333333332876" width="0.5366666666666575" height="0.5366666666666575" fill="#E6E6E6" />
<rect x="1.6299999999999724" y="2.7133333333332876" width="0.5366666666666575" height="0.5366666666666575" fill="#252525" />
<rect x="2.17166666666663" y="2.7133333333332876" width="0.5366666666666575" height="0.5366666666666575" fill="#252525" />
<rect x="2.7133333333332876" y="2.7133333333332876" width="0.5366666666666575" height="0.5366666666666575" fill="#252525" />
<rect x="3.254999999999945" y="2.7133333333332876" width="0.5366666666666575" height="0.5366666666666575" fill="#252525" />
<rect x="3.7966666666666025" y="2.7133333333332876" width="0.5366666666666575" height="0.5366666666666575" fill="#252525" />
<rect x="4.33833333333326" y="2.7133333333332876" width="0.5366666666666575" height="0.5366666666666575" fill="#252525" />
<rect x="4.879999999999917" y="2.7133333333332876" width="0.5366666666666575" height="0.5366666666666575" fill="#252525" />
<rect x="0.005" y="3.254999999999945" width="0.5366666666666575" height="0.5366666666666575" fill="#252525" />
<rect x="0.5466666666666575" y="3.254999999999945" width="0.5366666666666575" height="0.5366666666666575" fill="#252525" />
<rect x="1.088333333333315" y="3.254999999999945" width="0.5366666666666575" height="0.5366666666666575" fill="#252525" />
<rect x="1.6299999999999724" y="3.254999999999945" width="0.5366666666666575" height="0.5366666666666575" fill="#252525" />
<rect x="2.17166666666663" y="3.254999999999945" width="0.5366666666666575" height="0.5366666666666575" fill="#252525" />
<rect x="2.7133333333332876" y="3.254999999999945" width="0.5366666666666575" height="0.5366666666666575" fill="#252525" />
<rect x="3.254999999999945" y="3.254999999999945" width="0.5366666666666575" height="0.5366666666666575" fill="#252525" />
<rect x="3.7966666666666025" y="3.254999999999945" width="0.5366666666666575" height="0.5366666666666575" fill="#252525" />
<rect x="4.33833333333326" y="3.254999999999945" width="0.5366666666666575" height="0.5366666666666575" fill="#252525" />
<rect x="4.879999999999917" y="3.254999999999945" width="0.5366666666666575" height="0.5366666666666575" fill="#252525" />
<rect x="0.005" y="3.7966666666666025" width="0.5366666666666575" height="0.5366666666666575" fill="#252525" />
<rect x="0.5466666666666575" y="3.7966666666666025" width="0.5366666666666575" height="0.5366666666666575" fill="#252525" />
<rect x="1.088333333333315" y="3.7966666666666025" width="0.5366666666666575" height="0.5366666666666575" fill="#252525" />
<rect x="1.6299999999999724" y="3.7966666666666025" width="0.5366666666666575" height="0.5366666666666575" fill="#252525" />
<rect x="2.17166666666663" y="3.7966666666666025" width="0.5366666666666575" height="0.5366666666666575" fill="#252525" />
<rect x="2.7133333333332876" y="3.7966666666666025" width="0.5366666666666575" height="0.5366666666666575" fill="#252525" />
<rect x="3.254999999999945" y="3.7966666666666025" width="0.5366666666666575" height="0.5366666666666575" fill="#252525" />
<rect x="3.7966666666666025" y="3.7966666666666025" width="0.5366666666666575" height="0.5366666666666575" fill="#252525" />
<rect x="4.33833333333326" y="3.7966666666666025" width="0.5366666666666575" height="0.5366666666666575" fill="#252525" />
<rect x="4.879999999999917" y="3.7966666666666025" width="0.5366666666666575" height="0.5366666666666575" fill="#252525" />
<rect x="0.005" y="4.33833333333326" width="0.5366666666666575" height="0.5366666666666575" fill="#252525" />
<rect x="0.5466666666666575" y="4.33833333333326" width="0.5366666666666575" height="0.5366666666666575" fill="#252525" />
<rect x="1.088333333333315" y="4.33833333333326" width="0.5366666666666575" height="0.5366666666666575" fill="#252525" />
<rect x="1.6299999999999724" y="4.33833333333326" width="0.5366666666666575" height="0.5366666666666575" fill="#252525" />
<rect x="2.17166666666663" y="4.33833333333326" width="0.5366666666666575" height="0.5366666666666575" fill="#252525" />
<rect x="2.7133333333332876" y="4.33833333333326" width="0.5366666666666575" height="0.5366666666666575" fill="#252525" />
<rect x="3.254999999999945" y="4.33833333333326" width="0.5366666666666575" height="0.5366666666666575" fill="#252525" />
<rect x="3.7966666666666025" y="4.33833333333326" width="0.5366666666666575" height="0.5366666666666575" fill="#252525" />
<rect x="4.33833333333326" y="4.33833333333326" width="0.5366666666666575" height="0.5366666666666575" fill="#252525" />
<rect x="4.879999999999917" y="4.33833333333326" width="0.5366666666666575" height="0.5366666666666575" fill="#252525" />
<rect x="0.005" y="4.879999999999917" width="0.5366666666666575" height="0.5366666666666575" fill="#252525" />
<rect x="0.5466666666666575" y="4.879999999999917" width="0.5366666666666575" height="0.5366666666666575" fill="#FF4136" />
<rect x="1.088333333333315" y="4.879999999999917" width="0.5366666666666575" height="0.5366666666666575" fill="#252525" />
<rect x="1.6299999999999724" y="4.879999999999917" width="0.5366666666666575" height="0.5366666666666575" fill="#252525" />
<rect x="2.17166666666663" y="4.879999999999917" width="0.5366666666666575" height="0.5366666666666575" fill="#FF4136" />
<rect x="2.7133333333332876" y="4.879999999999917" width="0.5366666666666575" height="0.5366666666666575" fill="#252525" />
<rect x="3.254999999999945" y="4.879999999999917" width="0.5366666666666575" height="0.5366666666666575" fill="#FF4136" />
<rect x="3.7966666666666025" y="4.879999999999917" width="0.5366666666666575" height="0.5366666666666575" fill="#252525" />
<rect x="4.33833333333326" y="4.879999999999917" width="0.5366666666666575" height="0.5366666666666575" fill="#252525" />
<rect x="4.879999999999917" y="4.879999999999917" width="0.5366666666666575" height="0.5366666666666575" fill="#252525" />
<rect x="-0.02666666666666667" y="-0.02666666666666667" width="5.469999999999909" height="5.469999999999909" fill="none" stroke="#111111ff" stroke-width="0.08" />
<text x="5.4166666666665755" y="5.8854166666665755" font-size="0.375" fill="black" text-anchor="end" font-family="Anuphan">10x10</text>
<text x="-0.037500000000000006" y="5.8854166666665755" font-size="0.375" fill="black" text-anchor="start" font-family="Anuphan" font-weight="600">Input 1</text>
</g>
<g id="d1">
<rect x="0.005" y="0.005" width="0.5366666666666575" height="0.5366666666666575" fill="#252525" />
<rect x="0.5466666666666575" y="0.005" width="0.5366666666666575" height="0.5366666666666575" fill="#252525" />
<rect x="1.088333333333315" y="0.005" width="0.5366666666666575" height="0.5366666666666575" fill="#252525" />
<rect x="1.6299999999999724" y="0.005" width="0.5366666666666575" height="0.5366666666666575" fill="#252525" />
<rect x="2.17166666666663" y="0.005" width="0.5366666666666575" height="0.5366666666666575" fill="#252525" />
<rect x="2.7133333333332876" y="0.005" width="0.5366666666666575" height="0.5366666666666575" fill="#252525" />
<rect x="3.254999999999945" y="0.005" width="0.5366666666666575" height="0.5366666666666575" fill="#252525" />
<rect x="3.7966666666666025" y="0.005" width="0.5366666666666575" height="0.5366666666666575" fill="#252525" />
<rect x="4.33833333333326" y="0.005" width="0.5366666666666575" height="0.5366666666666575" fill="#252525" />
<rect x="4.879999999999917" y="0.005" width="0.5366666666666575" height="0.5366666666666575" fill="#252525" />
<rect x="0.005" y="0.5466666666666575" width="0.5366666666666575" height="0.5366666666666575" fill="#252525" />
<rect x="0.5466666666666575" y="0.5466666666666575" width="0.5366666666666575" height="0.5366666666666575" fill="#252525" />
<rect x="1.088333333333315" y="0.5466666666666575" width="0.5366666666666575" height="0.5366666666666575" fill="#252525" />
<rect x="1.6299999999999724" y="0.5466666666666575" width="0.5366666666666575" height="0.5366666666666575" fill="#252525" />
<rect x="2.17166666666663" y="0.5466666666666575" width="0.5366666666666575" height="0.5366666666666575" fill="#252525" />
<rect x="2.7133333333332876" y="0.5466666666666575" width="0.5366666666666575" height="0.5366666666666575" fill="#252525" />
<rect x="3.254999999999945" y="0.5466666666666575" width="0.5366666666666575" height="0.5366666666666575" fill="#252525" />
<rect x="3.7966666666666025" y="0.5466666666666575" width="0.5366666666666575" height="0.5366666666666575" fill="#252525" />
<rect x="4.33833333333326" y="0.5466666666666575" width="0.5366666666666575" height="0.5366666666666575" fill="#252525" />
<rect x="4.879999999999917" y="0.5466666666666575" width="0.5366666666666575" height="0.5366666666666575" fill="#252525" />
<rect x="0.005" y="1.088333333333315" width="0.5366666666666575" height="0.5366666666666575" fill="#252525" />
<rect x="0.5466666666666575" y="1.088333333333315" width="0.5366666666666575" height="0.5366666666666575" fill="#252525" />
<rect x="1.088333333333315" y="1.088333333333315" width="0.5366666666666575" height="0.5366666666666575" fill="#252525" />
<rect x="1.6299999999999724" y="1.088333333333315" width="0.5366666666666575" height="0.5366666666666575" fill="#252525" />
<rect x="2.17166666666663" y="1.088333333333315" width="0.5366666666666575" height="0.5366666666666575" fill="#252525" />
<rect x="2.7133333333332876" y="1.088333333333315" width="0.5366666666666575" height="0.5366666666666575" fill="#252525" />
<rect x="3.254999999999945" y="1.088333333333315" width="0.5366666666666575" height="0.5366666666666575" fill="#252525" />
<rect x="3.7966666666666025" y="1.088333333333315" width="0.5366666666666575" height="0.5366666666666575" fill="#252525" />
<rect x="4.33833333333326" y="1.088333333333315" width="0.5366666666666575" height="0.5366666666666575" fill="#252525" />
<rect x="4.879999999999917" y="1.088333333333315" width="0.5366666666666575" height="0.5366666666666575" fill="#252525" />
<rect x="0.005" y="1.6299999999999724" width="0.5366666666666575" height="0.5366666666666575" fill="#252525" />
<rect x="0.5466666666666575" y="1.6299999999999724" width="0.5366666666666575" height="0.5366666666666575" fill="#252525" />
<rect x="1.088333333333315" y="1.6299999999999724" width="0.5366666666666575" height="0.5366666666666575" fill="#252525" />
<rect x="1.6299999999999724" y="1.6299999999999724" width="0.5366666666666575" height="0.5366666666666575" fill="#252525" />
<rect x="2.17166666666663" y="1.6299999999999724" width="0.5366666666666575" height="0.5366666666666575" fill="#252525" />
<rect x="2.7133333333332876" y="1.6299999999999724" width="0.5366666666666575" height="0.5366666666666575" fill="#E6E6E6" />
<rect x="3.254999999999945" y="1.6299999999999724" width="0.5366666666666575" height="0.5366666666666575" fill="#252525" />
<rect x="3.7966666666666025" y="1.6299999999999724" width="0.5366666666666575" height="0.5366666666666575" fill="#252525" />
<rect x="4.33833333333326" y="1.6299999999999724" width="0.5366666666666575" height="0.5366666666666575" fill="#252525" />
<rect x="4.879999999999917" y="1.6299999999999724" width="0.5366666666666575" height="0.5366666666666575" fill="#252525" />
<rect x="0.005" y="2.17166666666663" width="0.5366666666666575" height="0.5366666666666575" fill="#252525" />
<rect x="0.5466666666666575" y="2.17166666666663" width="0.5366666666666575" height="0.5366666666666575" fill="#252525" />
<rect x="1.088333333333315" y="2.17166666666663" width="0.5366666666666575" height="0.5366666666666575" fill="#252525" />
<rect x="1.6299999999999724" y="2.17166666666663" width="0.5366666666666575" height="0.5366666666666575" fill="#252525" />
<rect x="2.17166666666663" y="2.17166666666663" width="0.5366666666666575" height="0.5366666666666575" fill="#252525" />
<rect x="2.7133333333332876" y="2.17166666666663" width="0.5366666666666575" height="0.5366666666666575" fill="#252525" />
<rect x="3.254999999999945" y="2.17166666666663" width="0.5366666666666575" height="0.5366666666666575" fill="#252525" />
<rect x="3.7966666666666025" y="2.17166666666663" width="0.5366666666666575" height="0.5366666666666575" fill="#252525" />
<rect x="4.33833333333326" y="2.17166666666663" width="0.5366666666666575" height="0.5366666666666575" fill="#252525" />
<rect x="4.879999999999917" y="2.17166666666663" width="0.5366666666666575" height="0.5366666666666575" fill="#252525" />
<rect x="0.005" y="2.7133333333332876" width="0.5366666666666575" height="0.5366666666666575" fill="#252525" />
<rect x="0.5466666666666575" y="2.7133333333332876" width="0.5366666666666575" height="0.5366666666666575" fill="#E6E6E6" />
<rect x="1.088333333333315" y="2.7133333333332876" width="0.5366666666666575" height="0.5366666666666575" fill="#252525" />
<rect x="1.6299999999999724" y="2.7133333333332876" width="0.5366666666666575" height="0.5366666666666575" fill="#252525" />
<rect x="2.17166666666663" y="2.7133333333332876" width="0.5366666666666575" height="0.5366666666666575" fill="#252525" />
<rect x="2.7133333333332876" y="2.7133333333332876" width="0.5366666666666575" height="0.5366666666666575" fill="#252525" />
<rect x="3.254999999999945" y="2.7133333333332876" width="0.5366666666666575" height="0.5366666666666575" fill="#252525" />
<rect x="3.7966666666666025" y="2.7133333333332876" width="0.5366666666666575" height="0.5366666666666575" fill="#252525" />
<rect x="4.33833333333326" y="2.7133333333332876" width="0.5366666666666575" height="0.5366666666666575" fill="#252525" />
<rect x="4.879999999999917" y="2.7133333333332876" width="0.5366666666666575" height="0.5366666666666575" fill="#252525" />
<rect x="0.005" y="3.254999999999945" width="0.5366666666666575" height="0.5366666666666575" fill="#252525" />
<rect x="0.5466666666666575" y="3.254999999999945" width="0.5366666666666575" height="0.5366666666666575" fill="#252525" />
<rect x="1.088333333333315" y="3.254999999999945" width="0.5366666666666575" height="0.5366666666666575" fill="#252525" />
<rect x="1.6299999999999724" y="3.254999999999945" width="0.5366666666666575" height="0.5366666666666575" fill="#252525" />
<rect x="2.17166666666663" y="3.254999999999945" width="0.5366666666666575" height="0.5366666666666575" fill="#252525" />
<rect x="2.7133333333332876" y="3.254999999999945" width="0.5366666666666575" height="0.5366666666666575" fill="#252525" />
<rect x="3.254999999999945" y="3.254999999999945" width="0.5366666666666575" height="0.5366666666666575" fill="#252525" />
<rect x="3.7966666666666025" y="3.254999999999945" width="0.5366666666666575" height="0.5366666666666575" fill="#252525" />
<rect x="4.33833333333326" y="3.254999999999945" width="0.5366666666666575" height="0.5366666666666575" fill="#E6E6E6" />
<rect x="4.879999999999917" y="3.254999999999945" width="0.5366666666666575" height="0.5366666666666575" fill="#252525" />
<rect x="0.005" y="3.7966666666666025" width="0.5366666666666575" height="0.5366666666666575" fill="#252525" />
<rect x="0.5466666666666575" y="3.7966666666666025" width="0.5366666666666575" height="0.5366666666666575" fill="#252525" />
<rect x="1.088333333333315" y="3.7966666666666025" width="0.5366666666666575" height="0.5366666666666575" fill="#252525" />
<rect x="1.6299999999999724" y="3.7966666666666025" width="0.5366666666666575" height="0.5366666666666575" fill="#252525" />
<rect x="2.17166666666663" y="3.7966666666666025" width="0.5366666666666575" height="0.5366666666666575" fill="#252525" />
<rect x="2.7133333333332876" y="3.7966666666666025" width="0.5366666666666575" height="0.5366666666666575" fill="#252525" />
<rect x="3.254999999999945" y="3.7966666666666025" width="0.5366666666666575" height="0.5366666666666575" fill="#252525" />
<rect x="3.7966666666666025" y="3.7966666666666025" width="0.5366666666666575" height="0.5366666666666575" fill="#252525" />
<rect x="4.33833333333326" y="3.7966666666666025" width="0.5366666666666575" height="0.5366666666666575" fill="#252525" />
<rect x="4.879999999999917" y="3.7966666666666025" width="0.5366666666666575" height="0.5366666666666575" fill="#252525" />
<rect x="0.005" y="4.33833333333326" width="0.5366666666666575" height="0.5366666666666575" fill="#252525" />
<rect x="0.5466666666666575" y="4.33833333333326" width="0.5366666666666575" height="0.5366666666666575" fill="#252525" />
<rect x="1.088333333333315" y="4.33833333333326" width="0.5366666666666575" height="0.5366666666666575" fill="#252525" />
<rect x="1.6299999999999724" y="4.33833333333326" width="0.5366666666666575" height="0.5366666666666575" fill="#252525" />
<rect x="2.17166666666663" y="4.33833333333326" width="0.5366666666666575" height="0.5366666666666575" fill="#252525" />
<rect x="2.7133333333332876" y="4.33833333333326" width="0.5366666666666575" height="0.5366666666666575" fill="#252525" />
<rect x="3.254999999999945" y="4.33833333333326" width="0.5366666666666575" height="0.5366666666666575" fill="#252525" />
<rect x="3.7966666666666025" y="4.33833333333326" width="0.5366666666666575" height="0.5366666666666575" fill="#252525" />
<rect x="4.33833333333326" y="4.33833333333326" width="0.5366666666666575" height="0.5366666666666575" fill="#252525" />
<rect x="4.879999999999917" y="4.33833333333326" width="0.5366666666666575" height="0.5366666666666575" fill="#252525" />
<rect x="0.005" y="4.879999999999917" width="0.5366666666666575" height="0.5366666666666575" fill="#252525" />
<rect x="0.5466666666666575" y="4.879999999999917" width="0.5366666666666575" height="0.5366666666666575" fill="#FF4136" />
<rect x="1.088333333333315" y="4.879999999999917" width="0.5366666666666575" height="0.5366666666666575" fill="#252525" />
<rect x="1.6299999999999724" y="4.879999999999917" width="0.5366666666666575" height="0.5366666666666575" fill="#252525" />
<rect x="2.17166666666663" y="4.879999999999917" width="0.5366666666666575" height="0.5366666666666575" fill="#FF4136" />
<rect x="2.7133333333332876" y="4.879999999999917" width="0.5366666666666575" height="0.5366666666666575" fill="#252525" />
<rect x="3.254999999999945" y="4.879999999999917" width="0.5366666666666575" height="0.5366666666666575" fill="#252525" />
<rect x="3.7966666666666025" y="4.879999999999917" width="0.5366666666666575" height="0.5366666666666575" fill="#FF4136" />
<rect x="4.33833333333326" y="4.879999999999917" width="0.5366666666666575" height="0.5366666666666575" fill="#252525" />
<rect x="4.879999999999917" y="4.879999999999917" width="0.5366666666666575" height="0.5366666666666575" fill="#252525" />
<rect x="-0.02666666666666667" y="-0.02666666666666667" width="5.469999999999909" height="5.469999999999909" fill="none" stroke="#111111ff" stroke-width="0.08" />
<text x="5.4166666666665755" y="5.8854166666665755" font-size="0.375" fill="black" text-anchor="end" font-family="Anuphan">10x10</text>
<text x="-0.037500000000000006" y="5.8854166666665755" font-size="0.375" fill="black" text-anchor="start" font-family="Anuphan" font-weight="600">Input 2</text>
</g>
<g id="d2">
<rect x="0.005" y="0.005" width="0.5366666666666575" height="0.5366666666666575" fill="#252525" />
<rect x="0.5466666666666575" y="0.005" width="0.5366666666666575" height="0.5366666666666575" fill="#252525" />
<rect x="1.088333333333315" y="0.005" width="0.5366666666666575" height="0.5366666666666575" fill="#252525" />
<rect x="1.6299999999999724" y="0.005" width="0.5366666666666575" height="0.5366666666666575" fill="#252525" />
<rect x="2.17166666666663" y="0.005" width="0.5366666666666575" height="0.5366666666666575" fill="#252525" />
<rect x="2.7133333333332876" y="0.005" width="0.5366666666666575" height="0.5366666666666575" fill="#252525" />
<rect x="3.254999999999945" y="0.005" width="0.5366666666666575" height="0.5366666666666575" fill="#252525" />
<rect x="3.7966666666666025" y="0.005" width="0.5366666666666575" height="0.5366666666666575" fill="#252525" />
<rect x="4.33833333333326" y="0.005" width="0.5366666666666575" height="0.5366666666666575" fill="#252525" />
<rect x="4.879999999999917" y="0.005" width="0.5366666666666575" height="0.5366666666666575" fill="#252525" />
<rect x="0.005" y="0.5466666666666575" width="0.5366666666666575" height="0.5366666666666575" fill="#252525" />
<rect x="0.5466666666666575" y="0.5466666666666575" width="0.5366666666666575" height="0.5366666666666575" fill="#252525" />
<rect x="1.088333333333315" y="0.5466666666666575" width="0.5366666666666575" height="0.5366666666666575" fill="#252525" />
<rect x="1.6299999999999724" y="0.5466666666666575" width="0.5366666666666575" height="0.5366666666666575" fill="#252525" />
<rect x="2.17166666666663" y="0.5466666666666575" width="0.5366666666666575" height="0.5366666666666575" fill="#252525" />
<rect x="2.7133333333332876" y="0.5466666666666575" width="0.5366666666666575" height="0.5366666666666575" fill="#252525" />
<rect x="3.254999999999945" y="0.5466666666666575" width="0.5366666666666575" height="0.5366666666666575" fill="#252525" />
<rect x="3.7966666666666025" y="0.5466666666666575" width="0.5366666666666575" height="0.5366666666666575" fill="#252525" />
<rect x="4.33833333333326" y="0.5466666666666575" width="0.5366666666666575" height="0.5366666666666575" fill="#252525" />
<rect x="4.879999999999917" y="0.5466666666666575" width="0.5366666666666575" height="0.5366666666666575" fill="#252525" />
<rect x="0.005" y="1.088333333333315" width="0.5366666666666575" height="0.5366666666666575" fill="#252525" />
<rect x="0.5466666666666575" y="1.088333333333315" width="0.5366666666666575" height="0.5366666666666575" fill="#252525" />
<rect x="1.088333333333315" y="1.088333333333315" width="0.5366666666666575" height="0.5366666666666575" fill="#252525" />
<rect x="1.6299999999999724" y="1.088333333333315" width="0.5366666666666575" height="0.5366666666666575" fill="#252525" />
<rect x="2.17166666666663" y="1.088333333333315" width="0.5366666666666575" height="0.5366666666666575" fill="#252525" />
<rect x="2.7133333333332876" y="1.088333333333315" width="0.5366666666666575" height="0.5366666666666575" fill="#252525" />
<rect x="3.254999999999945" y="1.088333333333315" width="0.5366666666666575" height="0.5366666666666575" fill="#252525" />
<rect x="3.7966666666666025" y="1.088333333333315" width="0.5366666666666575" height="0.5366666666666575" fill="#E6E6E6" />
<rect x="4.33833333333326" y="1.088333333333315" width="0.5366666666666575" height="0.5366666666666575" fill="#252525" />
<rect x="4.879999999999917" y="1.088333333333315" width="0.5366666666666575" height="0.5366666666666575" fill="#252525" />
<rect x="0.005" y="1.6299999999999724" width="0.5366666666666575" height="0.5366666666666575" fill="#252525" />
<rect x="0.5466666666666575" y="1.6299999999999724" width="0.5366666666666575" height="0.5366666666666575" fill="#252525" />
<rect x="1.088333333333315" y="1.6299999999999724" width="0.5366666666666575" height="0.5366666666666575" fill="#252525" />
<rect x="1.6299999999999724" y="1.6299999999999724" width="0.5366666666666575" height="0.5366666666666575" fill="#252525" />
<rect x="2.17166666666663" y="1.6299999999999724" width="0.5366666666666575" height="0.5366666666666575" fill="#252525" />
<rect x="2.7133333333332876" y="1.6299999999999724" width="0.5366666666666575" height="0.5366666666666575" fill="#252525" />
<rect x="3.254999999999945" y="1.6299999999999724" width="0.5366666666666575" height="0.5366666666666575" fill="#252525" />
<rect x="3.7966666666666025" y="1.6299999999999724" width="0.5366666666666575" height="0.5366666666666575" fill="#252525" />
<rect x="4.33833333333326" y="1.6299999999999724" width="0.5366666666666575" height="0.5366666666666575" fill="#252525" />
<rect x="4.879999999999917" y="1.6299999999999724" width="0.5366666666666575" height="0.5366666666666575" fill="#252525" />
<rect x="0.005" y="2.17166666666663" width="0.5366666666666575" height="0.5366666666666575" fill="#252525" />
<rect x="0.5466666666666575" y="2.17166666666663" width="0.5366666666666575" height="0.5366666666666575" fill="#E6E6E6" />
<rect x="1.088333333333315" y="2.17166666666663" width="0.5366666666666575" height="0.5366666666666575" fill="#252525" />
<rect x="1.6299999999999724" y="2.17166666666663" width="0.5366666666666575" height="0.5366666666666575" fill="#252525" />
<rect x="2.17166666666663" y="2.17166666666663" width="0.5366666666666575" height="0.5366666666666575" fill="#252525" />
<rect x="2.7133333333332876" y="2.17166666666663" width="0.5366666666666575" height="0.5366666666666575" fill="#252525" />
<rect x="3.254999999999945" y="2.17166666666663" width="0.5366666666666575" height="0.5366666666666575" fill="#252525" />
<rect x="3.7966666666666025" y="2.17166666666663" width="0.5366666666666575" height="0.5366666666666575" fill="#252525" />
<rect x="4.33833333333326" y="2.17166666666663" width="0.5366666666666575" height="0.5366666666666575" fill="#252525" />
<rect x="4.879999999999917" y="2.17166666666663" width="0.5366666666666575" height="0.5366666666666575" fill="#252525" />
<rect x="0.005" y="2.7133333333332876" width="0.5366666666666575" height="0.5366666666666575" fill="#252525" />
<rect x="0.5466666666666575" y="2.7133333333332876" width="0.5366666666666575" height="0.5366666666666575" fill="#252525" />
<rect x="1.088333333333315" y="2.7133333333332876" width="0.5366666666666575" height="0.5366666666666575" fill="#252525" />
<rect x="1.6299999999999724" y="2.7133333333332876" width="0.5366666666666575" height="0.5366666666666575" fill="#252525" />
<rect x="2.17166666666663" y="2.7133333333332876" width="0.5366666666666575" height="0.5366666666666575" fill="#252525" />
<rect x="2.7133333333332876" y="2.7133333333332876" width="0.5366666666666575" height="0.5366666666666575" fill="#252525" />
<rect x="3.254999999999945" y="2.7133333333332876" width="0.5366666666666575" height="0.5366666666666575" fill="#252525" />
<rect x="3.7966666666666025" y="2.7133333333332876" width="0.5366666666666575" height="0.5366666666666575" fill="#252525" />
<rect x="4.33833333333326" y="2.7133333333332876" width="0.5366666666666575" height="0.5366666666666575" fill="#252525" />
<rect x="4.879999999999917" y="2.7133333333332876" width="0.5366666666666575" height="0.5366666666666575" fill="#252525" />
<rect x="0.005" y="3.254999999999945" width="0.5366666666666575" height="0.5366666666666575" fill="#252525" />
<rect x="0.5466666666666575" y="3.254999999999945" width="0.5366666666666575" height="0.5366666666666575" fill="#252525" />
<rect x="1.088333333333315" y="3.254999999999945" width="0.5366666666666575" height="0.5366666666666575" fill="#252525" />
<rect x="1.6299999999999724" y="3.254999999999945" width="0.5366666666666575" height="0.5366666666666575" fill="#252525" />
<rect x="2.17166666666663" y="3.254999999999945" width="0.5366666666666575" height="0.5366666666666575" fill="#E6E6E6" />
<rect x="2.7133333333332876" y="3.254999999999945" width="0.5366666666666575" height="0.5366666666666575" fill="#252525" />
<rect x="3.254999999999945" y="3.254999999999945" width="0.5366666666666575" height="0.5366666666666575" fill="#252525" />
<rect x="3.7966666666666025" y="3.254999999999945" width="0.5366666666666575" height="0.5366666666666575" fill="#252525" />
<rect x="4.33833333333326" y="3.254999999999945" width="0.5366666666666575" height="0.5366666666666575" fill="#252525" />
<rect x="4.879999999999917" y="3.254999999999945" width="0.5366666666666575" height="0.5366666666666575" fill="#252525" />
<rect x="0.005" y="3.7966666666666025" width="0.5366666666666575" height="0.5366666666666575" fill="#252525" />
<rect x="0.5466666666666575" y="3.7966666666666025" width="0.5366666666666575" height="0.5366666666666575" fill="#252525" />
<rect x="1.088333333333315" y="3.7966666666666025" width="0.5366666666666575" height="0.5366666666666575" fill="#252525" />
<rect x="1.6299999999999724" y="3.7966666666666025" width="0.5366666666666575" height="0.5366666666666575" fill="#252525" />
<rect x="2.17166666666663" y="3.7966666666666025" width="0.5366666666666575" height="0.5366666666666575" fill="#252525" />
<rect x="2.7133333333332876" y="3.7966666666666025" width="0.5366666666666575" height="0.5366666666666575" fill="#252525" />
<rect x="3.254999999999945" y="3.7966666666666025" width="0.5366666666666575" height="0.5366666666666575" fill="#252525" />
<rect x="3.7966666666666025" y="3.7966666666666025" width="0.5366666666666575" height="0.5366666666666575" fill="#252525" />
<rect x="4.33833333333326" y="3.7966666666666025" width="0.5366666666666575" height="0.5366666666666575" fill="#252525" />
<rect x="4.879999999999917" y="3.7966666666666025" width="0.5366666666666575" height="0.5366666666666575" fill="#252525" />
<rect x="0.005" y="4.33833333333326" width="0.5366666666666575" height="0.5366666666666575" fill="#252525" />
<rect x="0.5466666666666575" y="4.33833333333326" width="0.5366666666666575" height="0.5366666666666575" fill="#252525" />
<rect x="1.088333333333315" y="4.33833333333326" width="0.5366666666666575" height="0.5366666666666575" fill="#252525" />
<rect x="1.6299999999999724" y="4.33833333333326" width="0.5366666666666575" height="0.5366666666666575" fill="#252525" />
<rect x="2.17166666666663" y="4.33833333333326" width="0.5366666666666575" height="0.5366666666666575" fill="#252525" />
<rect x="2.7133333333332876" y="4.33833333333326" width="0.5366666666666575" height="0.5366666666666575" fill="#252525" />
<rect x="3.254999999999945" y="4.33833333333326" width="0.5366666666666575" height="0.5366666666666575" fill="#252525" />
<rect x="3.7966666666666025" y="4.33833333333326" width="0.5366666666666575" height="0.5366666666666575" fill="#252525" />
<rect x="4.33833333333326" y="4.33833333333326" width="0.5366666666666575" height="0.5366666666666575" fill="#252525" />
<rect x="4.879999999999917" y="4.33833333333326" width="0.5366666666666575" height="0.5366666666666575" fill="#252525" />
<rect x="0.005" y="4.879999999999917" width="0.5366666666666575" height="0.5366666666666575" fill="#252525" />
<rect x="0.5466666666666575" y="4.879999999999917" width="0.5366666666666575" height="0.5366666666666575" fill="#FF4136" />
<rect x="1.088333333333315" y="4.879999999999917" width="0.5366666666666575" height="0.5366666666666575" fill="#252525" />
<rect x="1.6299999999999724" y="4.879999999999917" width="0.5366666666666575" height="0.5366666666666575" fill="#252525" />
<rect x="2.17166666666663" y="4.879999999999917" width="0.5366666666666575" height="0.5366666666666575" fill="#FF4136" />
<rect x="2.7133333333332876" y="4.879999999999917" width="0.5366666666666575" height="0.5366666666666575" fill="#252525" />
<rect x="3.254999999999945" y="4.879999999999917" width="0.5366666666666575" height="0.5366666666666575" fill="#252525" />
<rect x="3.7966666666666025" y="4.879999999999917" width="0.5366666666666575" height="0.5366666666666575" fill="#252525" />
<rect x="4.33833333333326" y="4.879999999999917" width="0.5366666666666575" height="0.5366666666666575" fill="#FF4136" />
<rect x="4.879999999999917" y="4.879999999999917" width="0.5366666666666575" height="0.5366666666666575" fill="#252525" />
<rect x="-0.02666666666666667" y="-0.02666666666666667" width="5.469999999999909" height="5.469999999999909" fill="none" stroke="#111111ff" stroke-width="0.08" />
<text x="5.4166666666665755" y="5.8854166666665755" font-size="0.375" fill="black" text-anchor="end" font-family="Anuphan">10x10</text>
<text x="-0.037500000000000006" y="5.8854166666665755" font-size="0.375" fill="black" text-anchor="start" font-family="Anuphan" font-weight="600">Test 1</text>
</g>
<g id="d3">
<rect x="0.005" y="0.005" width="0.5366666666666575" height="0.5366666666666575" fill="#252525" />
<rect x="0.5466666666666575" y="0.005" width="0.5366666666666575" height="0.5366666666666575" fill="#FF4136" />
<rect x="1.088333333333315" y="0.005" width="0.5366666666666575" height="0.5366666666666575" fill="#252525" />
<rect x="1.6299999999999724" y="0.005" width="0.5366666666666575" height="0.5366666666666575" fill="#252525" />
<rect x="2.17166666666663" y="0.005" width="0.5366666666666575" height="0.5366666666666575" fill="#FF4136" />
<rect x="2.7133333333332876" y="0.005" width="0.5366666666666575" height="0.5366666666666575" fill="#252525" />
<rect x="3.254999999999945" y="0.005" width="0.5366666666666575" height="0.5366666666666575" fill="#252525" />
<rect x="3.7966666666666025" y="0.005" width="0.5366666666666575" height="0.5366666666666575" fill="#FF4136" />
<rect x="4.33833333333326" y="0.005" width="0.5366666666666575" height="0.5366666666666575" fill="#252525" />
<rect x="4.879999999999917" y="0.005" width="0.5366666666666575" height="0.5366666666666575" fill="#252525" />
<rect x="0.005" y="0.5466666666666575" width="0.5366666666666575" height="0.5366666666666575" fill="#252525" />
<rect x="0.5466666666666575" y="0.5466666666666575" width="0.5366666666666575" height="0.5366666666666575" fill="#FF4136" />
<rect x="1.088333333333315" y="0.5466666666666575" width="0.5366666666666575" height="0.5366666666666575" fill="#252525" />
<rect x="1.6299999999999724" y="0.5466666666666575" width="0.5366666666666575" height="0.5366666666666575" fill="#252525" />
<rect x="2.17166666666663" y="0.5466666666666575" width="0.5366666666666575" height="0.5366666666666575" fill="#FF4136" />
<rect x="2.7133333333332876" y="0.5466666666666575" width="0.5366666666666575" height="0.5366666666666575" fill="#252525" />
<rect x="3.254999999999945" y="0.5466666666666575" width="0.5366666666666575" height="0.5366666666666575" fill="#252525" />
<rect x="3.7966666666666025" y="0.5466666666666575" width="0.5366666666666575" height="0.5366666666666575" fill="#FF4136" />
<rect x="4.33833333333326" y="0.5466666666666575" width="0.5366666666666575" height="0.5366666666666575" fill="#252525" />
<rect x="4.879999999999917" y="0.5466666666666575" width="0.5366666666666575" height="0.5366666666666575" fill="#252525" />
<rect x="0.005" y="1.088333333333315" width="0.5366666666666575" height="0.5366666666666575" fill="#252525" />
<rect x="0.5466666666666575" y="1.088333333333315" width="0.5366666666666575" height="0.5366666666666575" fill="#FF4136" />
<rect x="1.088333333333315" y="1.088333333333315" width="0.5366666666666575" height="0.5366666666666575" fill="#252525" />
<rect x="1.6299999999999724" y="1.088333333333315" width="0.5366666666666575" height="0.5366666666666575" fill="#252525" />
<rect x="2.17166666666663" y="1.088333333333315" width="0.5366666666666575" height="0.5366666666666575" fill="#FF4136" />
<rect x="2.7133333333332876" y="1.088333333333315" width="0.5366666666666575" height="0.5366666666666575" fill="#252525" />
<rect x="3.254999999999945" y="1.088333333333315" width="0.5366666666666575" height="0.5366666666666575" fill="#252525" />
<rect x="3.7966666666666025" y="1.088333333333315" width="0.5366666666666575" height="0.5366666666666575" fill="#FF4136" />
<rect x="4.33833333333326" y="1.088333333333315" width="0.5366666666666575" height="0.5366666666666575" fill="#252525" />
<rect x="4.879999999999917" y="1.088333333333315" width="0.5366666666666575" height="0.5366666666666575" fill="#252525" />
<rect x="0.005" y="1.6299999999999724" width="0.5366666666666575" height="0.5366666666666575" fill="#252525" />
<rect x="0.5466666666666575" y="1.6299999999999724" width="0.5366666666666575" height="0.5366666666666575" fill="#FF4136" />
<rect x="1.088333333333315" y="1.6299999999999724" width="0.5366666666666575" height="0.5366666666666575" fill="#252525" />
<rect x="1.6299999999999724" y="1.6299999999999724" width="0.5366666666666575" height="0.5366666666666575" fill="#252525" />
<rect x="2.17166666666663" y="1.6299999999999724" width="0.5366666666666575" height="0.5366666666666575" fill="#FF4136" />
<rect x="2.7133333333332876" y="1.6299999999999724" width="0.5366666666666575" height="0.5366666666666575" fill="#252525" />
<rect x="3.254999999999945" y="1.6299999999999724" width="0.5366666666666575" height="0.5366666666666575" fill="#E6E6E6" />
<rect x="3.7966666666666025" y="1.6299999999999724" width="0.5366666666666575" height="0.5366666666666575" fill="#FF4136" />
<rect x="4.33833333333326" y="1.6299999999999724" width="0.5366666666666575" height="0.5366666666666575" fill="#252525" />
<rect x="4.879999999999917" y="1.6299999999999724" width="0.5366666666666575" height="0.5366666666666575" fill="#252525" />
<rect x="0.005" y="2.17166666666663" width="0.5366666666666575" height="0.5366666666666575" fill="#252525" />
<rect x="0.5466666666666575" y="2.17166666666663" width="0.5366666666666575" height="0.5366666666666575" fill="#FF4136" />
<rect x="1.088333333333315" y="2.17166666666663" width="0.5366666666666575" height="0.5366666666666575" fill="#252525" />
<rect x="1.6299999999999724" y="2.17166666666663" width="0.5366666666666575" height="0.5366666666666575" fill="#252525" />
<rect x="2.17166666666663" y="2.17166666666663" width="0.5366666666666575" height="0.5366666666666575" fill="#FF4136" />
<rect x="2.7133333333332876" y="2.17166666666663" width="0.5366666666666575" height="0.5366666666666575" fill="#252525" />
<rect x="3.254999999999945" y="2.17166666666663" width="0.5366666666666575" height="0.5366666666666575" fill="#FF4136" />
<rect x="3.7966666666666025" y="2.17166666666663" width="0.5366666666666575" height="0.5366666666666575" fill="#FF4136" />
<rect x="4.33833333333326" y="2.17166666666663" width="0.5366666666666575" height="0.5366666666666575" fill="#252525" />
<rect x="4.879999999999917" y="2.17166666666663" width="0.5366666666666575" height="0.5366666666666575" fill="#252525" />
<rect x="0.005" y="2.7133333333332876" width="0.5366666666666575" height="0.5366666666666575" fill="#252525" />
<rect x="0.5466666666666575" y="2.7133333333332876" width="0.5366666666666575" height="0.5366666666666575" fill="#FF4136" />
<rect x="1.088333333333315" y="2.7133333333332876" width="0.5366666666666575" height="0.5366666666666575" fill="#E6E6E6" />
<rect x="1.6299999999999724" y="2.7133333333332876" width="0.5366666666666575" height="0.5366666666666575" fill="#252525" />
<rect x="2.17166666666663" y="2.7133333333332876" width="0.5366666666666575" height="0.5366666666666575" fill="#FF4136" />
<rect x="2.7133333333332876" y="2.7133333333332876" width="0.5366666666666575" height="0.5366666666666575" fill="#252525" />
<rect x="3.254999999999945" y="2.7133333333332876" width="0.5366666666666575" height="0.5366666666666575" fill="#FF4136" />
<rect x="3.7966666666666025" y="2.7133333333332876" width="0.5366666666666575" height="0.5366666666666575" fill="#252525" />
<rect x="4.33833333333326" y="2.7133333333332876" width="0.5366666666666575" height="0.5366666666666575" fill="#252525" />
<rect x="4.879999999999917" y="2.7133333333332876" width="0.5366666666666575" height="0.5366666666666575" fill="#252525" />
<rect x="0.005" y="3.254999999999945" width="0.5366666666666575" height="0.5366666666666575" fill="#252525" />
<rect x="0.5466666666666575" y="3.254999999999945" width="0.5366666666666575" height="0.5366666666666575" fill="#FF4136" />
<rect x="1.088333333333315" y="3.254999999999945" width="0.5366666666666575" height="0.5366666666666575" fill="#252525" />
<rect x="1.6299999999999724" y="3.254999999999945" width="0.5366666666666575" height="0.5366666666666575" fill="#252525" />
<rect x="2.17166666666663" y="3.254999999999945" width="0.5366666666666575" height="0.5366666666666575" fill="#FF4136" />
<rect x="2.7133333333332876" y="3.254999999999945" width="0.5366666666666575" height="0.5366666666666575" fill="#252525" />
<rect x="3.254999999999945" y="3.254999999999945" width="0.5366666666666575" height="0.5366666666666575" fill="#FF4136" />
<rect x="3.7966666666666025" y="3.254999999999945" width="0.5366666666666575" height="0.5366666666666575" fill="#252525" />
<rect x="4.33833333333326" y="3.254999999999945" width="0.5366666666666575" height="0.5366666666666575" fill="#252525" />
<rect x="4.879999999999917" y="3.254999999999945" width="0.5366666666666575" height="0.5366666666666575" fill="#252525" />
<rect x="0.005" y="3.7966666666666025" width="0.5366666666666575" height="0.5366666666666575" fill="#252525" />
<rect x="0.5466666666666575" y="3.7966666666666025" width="0.5366666666666575" height="0.5366666666666575" fill="#FF4136" />
<rect x="1.088333333333315" y="3.7966666666666025" width="0.5366666666666575" height="0.5366666666666575" fill="#252525" />
<rect x="1.6299999999999724" y="3.7966666666666025" width="0.5366666666666575" height="0.5366666666666575" fill="#252525" />
<rect x="2.17166666666663" y="3.7966666666666025" width="0.5366666666666575" height="0.5366666666666575" fill="#FF4136" />
<rect x="2.7133333333332876" y="3.7966666666666025" width="0.5366666666666575" height="0.5366666666666575" fill="#252525" />
<rect x="3.254999999999945" y="3.7966666666666025" width="0.5366666666666575" height="0.5366666666666575" fill="#FF4136" />
<rect x="3.7966666666666025" y="3.7966666666666025" width="0.5366666666666575" height="0.5366666666666575" fill="#252525" />
<rect x="4.33833333333326" y="3.7966666666666025" width="0.5366666666666575" height="0.5366666666666575" fill="#252525" />
<rect x="4.879999999999917" y="3.7966666666666025" width="0.5366666666666575" height="0.5366666666666575" fill="#252525" />
<rect x="0.005" y="4.33833333333326" width="0.5366666666666575" height="0.5366666666666575" fill="#252525" />
<rect x="0.5466666666666575" y="4.33833333333326" width="0.5366666666666575" height="0.5366666666666575" fill="#FF4136" />
<rect x="1.088333333333315" y="4.33833333333326" width="0.5366666666666575" height="0.5366666666666575" fill="#252525" />
<rect x="1.6299999999999724" y="4.33833333333326" width="0.5366666666666575" height="0.5366666666666575" fill="#252525" />
<rect x="2.17166666666663" y="4.33833333333326" width="0.5366666666666575" height="0.5366666666666575" fill="#FF4136" />
<rect x="2.7133333333332876" y="4.33833333333326" width="0.5366666666666575" height="0.5366666666666575" fill="#252525" />
<rect x="3.254999999999945" y="4.33833333333326" width="0.5366666666666575" height="0.5366666666666575" fill="#FF4136" />
<rect x="3.7966666666666025" y="4.33833333333326" width="0.5366666666666575" height="0.5366666666666575" fill="#252525" />
<rect x="4.33833333333326" y="4.33833333333326" width="0.5366666666666575" height="0.5366666666666575" fill="#252525" />
<rect x="4.879999999999917" y="4.33833333333326" width="0.5366666666666575" height="0.5366666666666575" fill="#252525" />
<rect x="0.005" y="4.879999999999917" width="0.5366666666666575" height="0.5366666666666575" fill="#252525" />
<rect x="0.5466666666666575" y="4.879999999999917" width="0.5366666666666575" height="0.5366666666666575" fill="#FF4136" />
<rect x="1.088333333333315" y="4.879999999999917" width="0.5366666666666575" height="0.5366666666666575" fill="#252525" />
<rect x="1.6299999999999724" y="4.879999999999917" width="0.5366666666666575" height="0.5366666666666575" fill="#252525" />
<rect x="2.17166666666663" y="4.879999999999917" width="0.5366666666666575" height="0.5366666666666575" fill="#FF4136" />
<rect x="2.7133333333332876" y="4.879999999999917" width="0.5366666666666575" height="0.5366666666666575" fill="#252525" />
<rect x="3.254999999999945" y="4.879999999999917" width="0.5366666666666575" height="0.5366666666666575" fill="#FF4136" />
<rect x="3.7966666666666025" y="4.879999999999917" width="0.5366666666666575" height="0.5366666666666575" fill="#252525" />
<rect x="4.33833333333326" y="4.879999999999917" width="0.5366666666666575" height="0.5366666666666575" fill="#252525" />
<rect x="4.879999999999917" y="4.879999999999917" width="0.5366666666666575" height="0.5366666666666575" fill="#252525" />
<rect x="-0.02666666666666667" y="-0.02666666666666667" width="5.469999999999909" height="5.469999999999909" fill="none" stroke="#111111ff" stroke-width="0.08" />
<text x="5.4166666666665755" y="5.8854166666665755" font-size="0.375" fill="black" text-anchor="end" font-family="Anuphan">10x10</text>
<text x="-0.037500000000000006" y="5.8854166666665755" font-size="0.375" fill="black" text-anchor="start" font-family="Anuphan" font-weight="600">Output 1</text>
</g>
<g id="d4">
<rect x="0.005" y="0.005" width="0.5366666666666575" height="0.5366666666666575" fill="#252525" />
<rect x="0.5466666666666575" y="0.005" width="0.5366666666666575" height="0.5366666666666575" fill="#252525" />
<rect x="1.088333333333315" y="0.005" width="0.5366666666666575" height="0.5366666666666575" fill="#FF4136" />
<rect x="1.6299999999999724" y="0.005" width="0.5366666666666575" height="0.5366666666666575" fill="#252525" />
<rect x="2.17166666666663" y="0.005" width="0.5366666666666575" height="0.5366666666666575" fill="#FF4136" />
<rect x="2.7133333333332876" y="0.005" width="0.5366666666666575" height="0.5366666666666575" fill="#252525" />
<rect x="3.254999999999945" y="0.005" width="0.5366666666666575" height="0.5366666666666575" fill="#252525" />
<rect x="3.7966666666666025" y="0.005" width="0.5366666666666575" height="0.5366666666666575" fill="#FF4136" />
<rect x="4.33833333333326" y="0.005" width="0.5366666666666575" height="0.5366666666666575" fill="#252525" />
<rect x="4.879999999999917" y="0.005" width="0.5366666666666575" height="0.5366666666666575" fill="#252525" />
<rect x="0.005" y="0.5466666666666575" width="0.5366666666666575" height="0.5366666666666575" fill="#252525" />
<rect x="0.5466666666666575" y="0.5466666666666575" width="0.5366666666666575" height="0.5366666666666575" fill="#252525" />
<rect x="1.088333333333315" y="0.5466666666666575" width="0.5366666666666575" height="0.5366666666666575" fill="#FF4136" />
<rect x="1.6299999999999724" y="0.5466666666666575" width="0.5366666666666575" height="0.5366666666666575" fill="#252525" />
<rect x="2.17166666666663" y="0.5466666666666575" width="0.5366666666666575" height="0.5366666666666575" fill="#FF4136" />
<rect x="2.7133333333332876" y="0.5466666666666575" width="0.5366666666666575" height="0.5366666666666575" fill="#252525" />
<rect x="3.254999999999945" y="0.5466666666666575" width="0.5366666666666575" height="0.5366666666666575" fill="#252525" />
<rect x="3.7966666666666025" y="0.5466666666666575" width="0.5366666666666575" height="0.5366666666666575" fill="#FF4136" />
<rect x="4.33833333333326" y="0.5466666666666575" width="0.5366666666666575" height="0.5366666666666575" fill="#252525" />
<rect x="4.879999999999917" y="0.5466666666666575" width="0.5366666666666575" height="0.5366666666666575" fill="#252525" />
<rect x="0.005" y="1.088333333333315" width="0.5366666666666575" height="0.5366666666666575" fill="#252525" />
<rect x="0.5466666666666575" y="1.088333333333315" width="0.5366666666666575" height="0.5366666666666575" fill="#252525" />
<rect x="1.088333333333315" y="1.088333333333315" width="0.5366666666666575" height="0.5366666666666575" fill="#FF4136" />
<rect x="1.6299999999999724" y="1.088333333333315" width="0.5366666666666575" height="0.5366666666666575" fill="#252525" />
<rect x="2.17166666666663" y="1.088333333333315" width="0.5366666666666575" height="0.5366666666666575" fill="#FF4136" />
<rect x="2.7133333333332876" y="1.088333333333315" width="0.5366666666666575" height="0.5366666666666575" fill="#252525" />
<rect x="3.254999999999945" y="1.088333333333315" width="0.5366666666666575" height="0.5366666666666575" fill="#252525" />
<rect x="3.7966666666666025" y="1.088333333333315" width="0.5366666666666575" height="0.5366666666666575" fill="#FF4136" />
<rect x="4.33833333333326" y="1.088333333333315" width="0.5366666666666575" height="0.5366666666666575" fill="#252525" />
<rect x="4.879999999999917" y="1.088333333333315" width="0.5366666666666575" height="0.5366666666666575" fill="#252525" />
<rect x="0.005" y="1.6299999999999724" width="0.5366666666666575" height="0.5366666666666575" fill="#252525" />
<rect x="0.5466666666666575" y="1.6299999999999724" width="0.5366666666666575" height="0.5366666666666575" fill="#252525" />
<rect x="1.088333333333315" y="1.6299999999999724" width="0.5366666666666575" height="0.5366666666666575" fill="#FF4136" />
<rect x="1.6299999999999724" y="1.6299999999999724" width="0.5366666666666575" height="0.5366666666666575" fill="#252525" />
<rect x="2.17166666666663" y="1.6299999999999724" width="0.5366666666666575" height="0.5366666666666575" fill="#FF4136" />
<rect x="2.7133333333332876" y="1.6299999999999724" width="0.5366666666666575" height="0.5366666666666575" fill="#E6E6E6" />
<rect x="3.254999999999945" y="1.6299999999999724" width="0.5366666666666575" height="0.5366666666666575" fill="#252525" />
<rect x="3.7966666666666025" y="1.6299999999999724" width="0.5366666666666575" height="0.5366666666666575" fill="#FF4136" />
<rect x="4.33833333333326" y="1.6299999999999724" width="0.5366666666666575" height="0.5366666666666575" fill="#252525" />
<rect x="4.879999999999917" y="1.6299999999999724" width="0.5366666666666575" height="0.5366666666666575" fill="#252525" />
<rect x="0.005" y="2.17166666666663" width="0.5366666666666575" height="0.5366666666666575" fill="#252525" />
<rect x="0.5466666666666575" y="2.17166666666663" width="0.5366666666666575" height="0.5366666666666575" fill="#252525" />
<rect x="1.088333333333315" y="2.17166666666663" width="0.5366666666666575" height="0.5366666666666575" fill="#FF4136" />
<rect x="1.6299999999999724" y="2.17166666666663" width="0.5366666666666575" height="0.5366666666666575" fill="#252525" />
<rect x="2.17166666666663" y="2.17166666666663" width="0.5366666666666575" height="0.5366666666666575" fill="#FF4136" />
<rect x="2.7133333333332876" y="2.17166666666663" width="0.5366666666666575" height="0.5366666666666575" fill="#252525" />
<rect x="3.254999999999945" y="2.17166666666663" width="0.5366666666666575" height="0.5366666666666575" fill="#252525" />
<rect x="3.7966666666666025" y="2.17166666666663" width="0.5366666666666575" height="0.5366666666666575" fill="#FF4136" />
<rect x="4.33833333333326" y="2.17166666666663" width="0.5366666666666575" height="0.5366666666666575" fill="#252525" />
<rect x="4.879999999999917" y="2.17166666666663" width="0.5366666666666575" height="0.5366666666666575" fill="#252525" />
<rect x="0.005" y="2.7133333333332876" width="0.5366666666666575" height="0.5366666666666575" fill="#252525" />
<rect x="0.5466666666666575" y="2.7133333333332876" width="0.5366666666666575" height="0.5366666666666575" fill="#E6E6E6" />
<rect x="1.088333333333315" y="2.7133333333332876" width="0.5366666666666575" height="0.5366666666666575" fill="#FF4136" />
<rect x="1.6299999999999724" y="2.7133333333332876" width="0.5366666666666575" height="0.5366666666666575" fill="#252525" />
<rect x="2.17166666666663" y="2.7133333333332876" width="0.5366666666666575" height="0.5366666666666575" fill="#FF4136" />
<rect x="2.7133333333332876" y="2.7133333333332876" width="0.5366666666666575" height="0.5366666666666575" fill="#252525" />
<rect x="3.254999999999945" y="2.7133333333332876" width="0.5366666666666575" height="0.5366666666666575" fill="#252525" />
<rect x="3.7966666666666025" y="2.7133333333332876" width="0.5366666666666575" height="0.5366666666666575" fill="#FF4136" />
<rect x="4.33833333333326" y="2.7133333333332876" width="0.5366666666666575" height="0.5366666666666575" fill="#252525" />
<rect x="4.879999999999917" y="2.7133333333332876" width="0.5366666666666575" height="0.5366666666666575" fill="#252525" />
<rect x="0.005" y="3.254999999999945" width="0.5366666666666575" height="0.5366666666666575" fill="#252525" />
<rect x="0.5466666666666575" y="3.254999999999945" width="0.5366666666666575" height="0.5366666666666575" fill="#FF4136" />
<rect x="1.088333333333315" y="3.254999999999945" width="0.5366666666666575" height="0.5366666666666575" fill="#FF4136" />
<rect x="1.6299999999999724" y="3.254999999999945" width="0.5366666666666575" height="0.5366666666666575" fill="#252525" />
<rect x="2.17166666666663" y="3.254999999999945" width="0.5366666666666575" height="0.5366666666666575" fill="#FF4136" />
<rect x="2.7133333333332876" y="3.254999999999945" width="0.5366666666666575" height="0.5366666666666575" fill="#252525" />
<rect x="3.254999999999945" y="3.254999999999945" width="0.5366666666666575" height="0.5366666666666575" fill="#252525" />
<rect x="3.7966666666666025" y="3.254999999999945" width="0.5366666666666575" height="0.5366666666666575" fill="#FF4136" />
<rect x="4.33833333333326" y="3.254999999999945" width="0.5366666666666575" height="0.5366666666666575" fill="#E6E6E6" />
<rect x="4.879999999999917" y="3.254999999999945" width="0.5366666666666575" height="0.5366666666666575" fill="#252525" />
<rect x="0.005" y="3.7966666666666025" width="0.5366666666666575" height="0.5366666666666575" fill="#252525" />
<rect x="0.5466666666666575" y="3.7966666666666025" width="0.5366666666666575" height="0.5366666666666575" fill="#FF4136" />
<rect x="1.088333333333315" y="3.7966666666666025" width="0.5366666666666575" height="0.5366666666666575" fill="#252525" />
<rect x="1.6299999999999724" y="3.7966666666666025" width="0.5366666666666575" height="0.5366666666666575" fill="#252525" />
<rect x="2.17166666666663" y="3.7966666666666025" width="0.5366666666666575" height="0.5366666666666575" fill="#FF4136" />
<rect x="2.7133333333332876" y="3.7966666666666025" width="0.5366666666666575" height="0.5366666666666575" fill="#252525" />
<rect x="3.254999999999945" y="3.7966666666666025" width="0.5366666666666575" height="0.5366666666666575" fill="#252525" />
<rect x="3.7966666666666025" y="3.7966666666666025" width="0.5366666666666575" height="0.5366666666666575" fill="#FF4136" />
<rect x="4.33833333333326" y="3.7966666666666025" width="0.5366666666666575" height="0.5366666666666575" fill="#252525" />
<rect x="4.879999999999917" y="3.7966666666666025" width="0.5366666666666575" height="0.5366666666666575" fill="#252525" />
<rect x="0.005" y="4.33833333333326" width="0.5366666666666575" height="0.5366666666666575" fill="#252525" />
<rect x="0.5466666666666575" y="4.33833333333326" width="0.5366666666666575" height="0.5366666666666575" fill="#FF4136" />
<rect x="1.088333333333315" y="4.33833333333326" width="0.5366666666666575" height="0.5366666666666575" fill="#252525" />
<rect x="1.6299999999999724" y="4.33833333333326" width="0.5366666666666575" height="0.5366666666666575" fill="#252525" />
<rect x="2.17166666666663" y="4.33833333333326" width="0.5366666666666575" height="0.5366666666666575" fill="#FF4136" />
<rect x="2.7133333333332876" y="4.33833333333326" width="0.5366666666666575" height="0.5366666666666575" fill="#252525" />
<rect x="3.254999999999945" y="4.33833333333326" width="0.5366666666666575" height="0.5366666666666575" fill="#252525" />
<rect x="3.7966666666666025" y="4.33833333333326" width="0.5366666666666575" height="0.5366666666666575" fill="#FF4136" />
<rect x="4.33833333333326" y="4.33833333333326" width="0.5366666666666575" height="0.5366666666666575" fill="#252525" />
<rect x="4.879999999999917" y="4.33833333333326" width="0.5366666666666575" height="0.5366666666666575" fill="#252525" />
<rect x="0.005" y="4.879999999999917" width="0.5366666666666575" height="0.5366666666666575" fill="#252525" />
<rect x="0.5466666666666575" y="4.879999999999917" width="0.5366666666666575" height="0.5366666666666575" fill="#FF4136" />
<rect x="1.088333333333315" y="4.879999999999917" width="0.5366666666666575" height="0.5366666666666575" fill="#252525" />
<rect x="1.6299999999999724" y="4.879999999999917" width="0.5366666666666575" height="0.5366666666666575" fill="#252525" />
<rect x="2.17166666666663" y="4.879999999999917" width="0.5366666666666575" height="0.5366666666666575" fill="#FF4136" />
<rect x="2.7133333333332876" y="4.879999999999917" width="0.5366666666666575" height="0.5366666666666575" fill="#252525" />
<rect x="3.254999999999945" y="4.879999999999917" width="0.5366666666666575" height="0.5366666666666575" fill="#252525" />
<rect x="3.7966666666666025" y="4.879999999999917" width="0.5366666666666575" height="0.5366666666666575" fill="#FF4136" />
<rect x="4.33833333333326" y="4.879999999999917" width="0.5366666666666575" height="0.5366666666666575" fill="#252525" />
<rect x="4.879999999999917" y="4.879999999999917" width="0.5366666666666575" height="0.5366666666666575" fill="#252525" />
<rect x="-0.02666666666666667" y="-0.02666666666666667" width="5.469999999999909" height="5.469999999999909" fill="none" stroke="#111111ff" stroke-width="0.08" />
<text x="5.4166666666665755" y="5.8854166666665755" font-size="0.375" fill="black" text-anchor="end" font-family="Anuphan">10x10</text>
<text x="-0.037500000000000006" y="5.8854166666665755" font-size="0.375" fill="black" text-anchor="start" font-family="Anuphan" font-weight="600">Output 2</text>
</g>
</defs>
<rect x="0" y="0" width="100%" height="100%" fill="#eeeff6" />
<use xlink:href="#d0" x="0.25" y="0.25" />
<use xlink:href="#d1" x="6.1666666666665755" y="0.25" />
<use xlink:href="#d2" x="12.083333333333151" y="0.25" />
<path d="M2.9583333333332877,6.316666666666576 L2.9583333333332877,6.716666666666576" stroke-width="0.05" stroke="#888888" />
<path d="M2.808333333333288,6.516666666666576 L2.9583333333332877,6.716666666666576" stroke-width="0.05" stroke="#888888" />
<path d="M3.1083333333332877,6.516666666666576 L2.9583333333332877,6.716666666666576" stroke-width="0.05" stroke="#888888" />
<use xlink:href="#d3" x="0.25" y="7.066666666666576" />
<path d="M8.874999999999863,6.316666666666576 L8.874999999999863,6.716666666666576" stroke-width="0.05" stroke="#888888" />
<path d="M8.724999999999863,6.516666666666576 L8.874999999999863,6.716666666666576" stroke-width="0.05" stroke="#888888" />
<path d="M9.024999999999864,6.516666666666576 L8.874999999999863,6.716666666666576" stroke-width="0.05" stroke="#888888" />
<use xlink:href="#d4" x="6.1666666666665755" y="7.066666666666576" />
<path d="M14.791666666666439,6.316666666666576 L14.791666666666439,6.716666666666576" stroke-width="0.05" stroke="#888888" />
<path d="M14.641666666666438,6.516666666666576 L14.791666666666439,6.716666666666576" stroke-width="0.05" stroke="#888888" />
<path d="M14.941666666666439,6.516666666666576 L14.791666666666439,6.716666666666576" stroke-width="0.05" stroke="#888888" />
<text x="14.791666666666439" y="9.874999999999863" font-size="1" font-family="Anuphan" font-weight="700" fill="#333333" text-anchor="middle" alignment-baseline="middle">?</text>
<text x="17.599999999999998" y="13.299999999999999" font-size="0.3" font-family="Anuphan" font-weight="600" fill="#666666" text-anchor="end" alignment-baseline="bottom">Task d9f24cd1</text>
</svg>