<?xml version="1.0" encoding="UTF-8"?>
<svg xmlns="http://www.w3.org/2000/svg" xmlns:xlink="http://www.w3.org/1999/xlink"
     width="800.0" height="455.99999999999994" viewBox="0 0 20.0 11.399999999999999">
<defs>
<g id="d0">
<rect x="0.005" y="0.005" width="0.41230769230769226" height="0.41230769230769226" fill="#252525" />
<rect x="0.4223076923076923" y="0.005" width="0.41230769230769226" height="0.41230769230769226" fill="#252525" />
<rect x="0.8396153846153845" y="0.005" width="0.41230769230769226" height="0.41230769230769226" fill="#252525" />
<rect x="1.2569230769230768" y="0.005" width="0.41230769230769226" height="0.41230769230769226" fill="#FF4136" />
<rect x="1.674230769230769" y="0.005" width="0.41230769230769226" height="0.41230769230769226" fill="#FF4136" />
<rect x="0.005" y="0.4223076923076923" width="0.41230769230769226" height="0.41230769230769226" fill="#252525" />
<rect x="0.4223076923076923" y="0.4223076923076923" width="0.41230769230769226" height="0.41230769230769226" fill="#252525" />
<rect x="0.8396153846153845" y="0.4223076923076923" width="0.41230769230769226" height="0.41230769230769226" fill="#FF4136" />
<rect x="1.2569230769230768" y="0.4223076923076923" width="0.41230769230769226" height="0.41230769230769226" fill="#252525" />
<rect x="1.674230769230769" y="0.4223076923076923" width="0.41230769230769226" height="0.41230769230769226" fill="#FF4136" />
<rect x="0.005" y="0.8396153846153845" width="0.41230769230769226" height="0.41230769230769226" fill="#FF4136" />
<rect x="0.4223076923076923" y="0.8396153846153845" width="0.41230769230769226" height="0.41230769230769226" fill="#252525" />
<rect x="0.8396153846153845" y="0.8396153846153845" width="0.41230769230769226" height="0.41230769230769226" fill="#252525" />
<rect x="1.2569230769230768" y="0.8396153846153845" width="0.41230769230769226" height="0.41230769230769226" fill="#FF4136" />
<rect x="1.674230769230769" y="0.8396153846153845" width="0.41230769230769226" height="0.41230769230769226" fill="#FF4136" />
<rect x="0.005" y="1.2569230769230768" width="0.41230769230769226" height="0.41230769230769226" fill="#FF4136" />
<rect x="0.4223076923076923" y="1.2569230769230768" width="0.41230769230769226" height="0.41230769230769226" fill="#FF4136" />
<rect x="0.8396153846153845" y="1.2569230769230768" width="0.41230769230769226" height="0.41230769230769226" fill="#252525" />
<rect x="1.2569230769230768" y="1.2569230769230768" width="0.41230769230769226" height="0.41230769230769226" fill="#252525" />
<rect x="1.674230769230769" y="1.2569230769230768" width="0.41230769230769226" height="0.41230769230769226" fill="#FF4136" />
<rect x="0.005" y="1.674230769230769" width="0.41230769230769226" height="0.41230769230769226" fill="#252525" />
<rect x="0.4223076923076923" y="1.674230769230769" width="0.41230769230769226" height="0.41230769230769226" fill="#252525" />
<rect x="0.8396153846153845" y="1.674230769230769" width="0.41230769230769226" height="0.41230769230769226" fill="#252525" />
<rect x="1.2569230769230768" y="1.674230769230769" width="0.41230769230769226" height="0.41230769230769226" fill="#252525" />
<rect x="1.674230769230769" y="1.674230769230769" width="0.41230769230769226" height="0.41230769230769226" fill="#FF4136" />
<rect x="0.005" y="2.091538461538461" width="0.41230769230769226" height="0.41230769230769226" fill="#252525" />
<rect x="0.4223076923076923" y="2.091538461538461" width="0.41230769230769226" height="0.41230769230769226" fill="#FF4136" />
<rect x="0.8396153846153845" y="2.091538461538461" width="0.41230769230769226" height="0.41230769230769226" fill="#252525" />
<rect x="1.2569230769230768" y="2.091538461538461" width="0.41230769230769226" height="0.41230769230769226" fill="#252525" />
<rect x="1.674230769230769" y="2.091538461538461" width="0.41230769230769226" height="0.41230769230769226" fill="#252525" />
<rect x="0.005" y="2.5088461538461537" width="0.41230769230769226" height="0.41230769230769226" fill="#FFDC00" />
<rect x="0.4223076923076923" y="2.5088461538461537" width="0.41230769230769226" height="0.41230769230769226" fill="#FFDC00" />
<rect x="0.8396153846153845" y="2.5088461538461537" width="0.41230769230769226" height="0.41230769230769226" fill="#FFDC00" />
<rect x="1.2569230769230768" y="2.5088461538461537" width="0.41230769230769226" height="0.41230769230769226" fill="#FFDC00" />
<rect x="1.674230769230769" y="2.5088461538461537" width="0.41230769230769226" height="0.41230769230769226" fill="#FFDC00" />
<rect x="0.005" y="2.926153846153846" width="0.41230769230769226" height="0.41230769230769226" fill="#FF4136" />
<rect x="0.4223076923076923" y="2.926153846153846" width="0.41230769230769226" height="0.41230769230769226" fill="#252525" />
<rect x="0.8396153846153845" y="2.926153846153846" width="0.41230769230769226" height="0.41230769230769226" fill="#252525" />
<rect x="1.2569230769230768" y="2.926153846153846" width="0.41230769230769226" height="0.41230769230769226" fill="#252525" />
<rect x="1.674230769230769" y="2.926153846153846" width="0.41230769230769226" height="0.41230769230769226" fill="#252525" />
<rect x="0.005" y="3.343461538461538" width="0.41230769230769226" height="0.41230769230769226" fill="#FF4136" />
<rect x="0.4223076923076923" y="3.343461538461538" width="0.41230769230769226" height="0.41230769230769226" fill="#FF4136" />
<rect x="0.8396153846153845" y="3.343461538461538" width="0.41230769230769226" height="0.41230769230769226" fill="#252525" />
<rect x="1.2569230769230768" y="3.343461538461538" width="0.41230769230769226" height="0.41230769230769226" fill="#252525" />
<rect x="1.674230769230769" y="3.343461538461538" width="0.41230769230769226" height="0.41230769230769226" fill="#252525" />
<rect x="0.005" y="3.76076923076923" width="0.41230769230769226" height="0.41230769230769226" fill="#FF4136" />
<rect x="0.4223076923076923" y="3.76076923076923" width="0.41230769230769226" height="0.41230769230769226" fill="#252525" />
<rect x="0.8396153846153845" y="3.76076923076923" width="0.41230769230769226" height="0.41230769230769226" fill="#FF4136" />
<rect x="1.2569230769230768" y="3.76076923076923" width="0.41230769230769226" height="0.41230769230769226" fill="#252525" />
<rect x="1.674230769230769" y="3.76076923076923" width="0.41230769230769226" height="0.41230769230769226" fill="#252525" />
<rect x="0.005" y="4.178076923076922" width="0.41230769230769226" height="0.41230769230769226" fill="#252525" />
<rect x="0.4223076923076923" y="4.178076923076922" width="0.41230769230769226" height="0.41230769230769226" fill="#252525" />
<rect x="0.8396153846153845" y="4.178076923076922" width="0.41230769230769226" height="0.41230769230769226" fill="#FF4136" />
<rect x="1.2569230769230768" y="4.178076923076922" width="0.41230769230769226" height="0.41230769230769226" fill="#252525" />
<rect x="1.674230769230769" y="4.178076923076922" width="0.41230769230769226" height="0.41230769230769226" fill="#252525" />
<rect x="0.005" y="4.5953846153846145" width="0.41230769230769226" height="0.41230769230769226" fill="#252525" />
<rect x="0.4223076923076923" y="4.5953846153846145" width="0.41230769230769226" height="0.41230769230769226" fill="#252525" />
<rect x="0.8396153846153845" y="4.5953846153846145" width="0.41230769230769226" height="0.41230769230769226" fill="#252525" />
<rect x="1.2569230769230768" y="4.5953846153846145" width="0.41230769230769226" height="0.41230769230769226" fill="#FF4136" />
<rect x="1.674230769230769" y="4.5953846153846145" width="0.41230769230769226" height="0.41230769230769226" fill="#FF4136" />
<rect x="0.005" y="5.012692307692308" width="0.41230769230769226" height="0.41230769230769226" fill="#FF4136" />
<rect x="0.4223076923076923" y="5.012692307692308" width="0.41230769230769226" height="0.41230769230769226" fill="#252525" />
<rect x="0.8396153846153845" y="5.012692307692308" width="0.41230769230769226" height="0.41230769230769226" fill="#252525" />
<rect x="1.2569230769230768" y="5.012692307692308" width="0.41230769230769226" height="0.41230769230769226" fill="#FF4136" />
<rect x="1.674230769230769" y="5.012692307692308" width="0.41230769230769226" height="0.41230769230769226" fill="#252525" />
<rect x="-0.02666666666666667" y="-0.02666666666666667" width="2.1398717948717945" height="5.4783333333333335" fill="none" stroke="#111111ff" stroke-width="0.08" />
<text x="2.0865384615384612" y="5.89375" font-size="0.375" fill="black" text-anchor="end" font-family="Anuphan">5x13</text>
<text x="-0.037500000000000006" y="5.89375" font-size="0.375" fill="black" text-anchor="start" font-family="Anuphan" font-weight="600">Input 1</text>
</g>
<g id="d1">
<rect x="0.005" y="0.005" width="0.41230769230769226" height="0.41230769230769226" fill="#252525" />
<rect x="0.4223076923076923" y="0.005" width="0.41230769230769226" height="0.41230769230769226" fill="#FF4136" />
<rect x="0.8396153846153845" y="0.005" width="0.41230769230769226" height="0.41230769230769226" fill="#FF4136" />
<rect x="1.2569230769230768" y="0.005" width="0.41230769230769226" height="0.41230769230769226" fill="#FF4136" />
<rect x="1.674230769230769" y="0.005" width="0.41230769230769226" height="0.41230769230769226" fill="#FF4136" />
<rect x="0.005" y="0.4223076923076923" width="0.41230769230769226" height="0.41230769230769226" fill="#252525" />
<rect x="0.4223076923076923" y="0.4223076923076923" width="0.41230769230769226" height="0.41230769230769226" fill="#252525" />
<rect x="0.8396153846153845" y="0.4223076923076923" width="0.41230769230769226" height="0.41230769230769226" fill="#252525" />
<rect x="1.2569230769230768" y="0.4223076923076923" width="0.41230769230769226" height="0.41230769230769226" fill="#252525" />
<rect x="1.674230769230769" y="0.4223076923076923" width="0.41230769230769226" height="0.41230769230769226" fill="#FF4136" />
<rect x="0.005" y="0.8396153846153845" width="0.41230769230769226" height="0.41230769230769226" fill="#FF4136" />
<rect x="0.4223076923076923" y="0.8396153846153845" width="0.41230769230769226" height="0.41230769230769226" fill="#252525" />
<rect x="0.8396153846153845" y="0.8396153846153845" width="0.41230769230769226" height="0.41230769230769226" fill="#FF4136" />
<rect x="1.2569230769230768" y="0.8396153846153845" width="0.41230769230769226" height="0.41230769230769226" fill="#FF4136" />
<rect x="1.674230769230769" y="0.8396153846153845" width="0.41230769230769226" height="0.41230769230769226" fill="#FF4136" />
<rect x="0.005" y="1.2569230769230768" width="0.41230769230769226" height="0.41230769230769226" fill="#252525" />
<rect x="0.4223076923076923" y="1.2569230769230768" width="0.41230769230769226" height="0.41230769230769226" fill="#252525" />
<rect x="0.8396153846153845" y="1.2569230769230768" width="0.41230769230769226" height="0.41230769230769226" fill="#FF4136" />
<rect x="1.2569230769230768" y="1.2569230769230768" width="0.41230769230769226" height="0.41230769230769226" fill="#FF4136" />
<rect x="1.674230769230769" y="1.2569230769230768" width="0.41230769230769226" height="0.41230769230769226" fill="#252525" />
<rect x="0.005" y="1.674230769230769" width="0.41230769230769226" height="0.41230769230769226" fill="#FF4136" />
<rect x="0.4223076923076923" y="1.674230769230769" width="0.41230769230769226" height="0.41230769230769226" fill="#FF4136" />
<rect x="0.8396153846153845" y="1.674230769230769" width="0.41230769230769226" height="0.41230769230769226" fill="#FF4136" />
<rect x="1.2569230769230768" y="1.674230769230769" width="0.41230769230769226" height="0.41230769230769226" fill="#FF4136" />
<rect x="1.674230769230769" y="1.674230769230769" width="0.41230769230769226" height="0.41230769230769226" fill="#252525" />
<rect x="0.005" y="2.091538461538461" width="0.41230769230769226" height="0.41230769230769226" fill="#FF4136" />
<rect x="0.4223076923076923" y="2.091538461538461" width="0.41230769230769226" height="0.41230769230769226" fill="#FF4136" />
<rect x="0.8396153846153845" y="2.091538461538461" width="0.41230769230769226" height="0.41230769230769226" fill="#252525" />
<rect x="1.2569230769230768" y="2.091538461538461" width="0.41230769230769226" height="0.41230769230769226" fill="#252525" />
<rect x="1.674230769230769" y="2.091538461538461" width="0.41230769230769226" height="0.41230769230769226" fill="#FF4136" />
<rect x="0.005" y="2.5088461538461537" width="0.41230769230769226" height="0.41230769230769226" fill="#FFDC00" />
<rect x="0.4223076923076923" y="2.5088461538461537" width="0.41230769230769226" height="0.41230769230769226" fill="#FFDC00" />
<rect x="0.8396153846153845" y="2.5088461538461537" width="0.41230769230769226" height="0.41230769230769226" fill="#FFDC00" />
<rect x="1.2569230769230768" y="2.5088461538461537" width="0.41230769230769226" height="0.41230769230769226" fill="#FFDC00" />
<rect x="1.674230769230769" y="2.5088461538461537" width="0.41230769230769226" height="0.41230769230769226" fill="#FFDC00" />
<rect x="0.005" y="2.926153846153846" width="0.41230769230769226" height="0.41230769230769226" fill="#252525" />
<rect x="0.4223076923076923" y="2.926153846153846" width="0.41230769230769226" height="0.41230769230769226" fill="#252525" />
<rect x="0.8396153846153845" y="2.926153846153846" width="0.41230769230769226" height="0.41230769230769226" fill="#252525" />
<rect x="1.2569230769230768" y="2.926153846153846" width="0.41230769230769226" height="0.41230769230769226" fill="#252525" />
<rect x="1.674230769230769" y="2.926153846153846" width="0.41230769230769226" height="0.41230769230769226" fill="#252525" />
<rect x="0.005" y="3.343461538461538" width="0.41230769230769226" height="0.41230769230769226" fill="#252525" />
<rect x="0.4223076923076923" y="3.343461538461538" width="0.41230769230769226" height="0.41230769230769226" fill="#252525" />
<rect x="0.8396153846153845" y="3.343461538461538" width="0.41230769230769226" height="0.41230769230769226" fill="#FF4136" />
<rect x="1.2569230769230768" y="3.343461538461538" width="0.41230769230769226" height="0.41230769230769226" fill="#252525" />
<rect x="1.674230769230769" y="3.343461538461538" width="0.41230769230769226" height="0.41230769230769226" fill="#252525" />
<rect x="0.005" y="3.76076923076923" width="0.41230769230769226" height="0.41230769230769226" fill="#FF4136" />
<rect x="0.4223076923076923" y="3.76076923076923" width="0.41230769230769226" height="0.41230769230769226" fill="#252525" />
<rect x="0.8396153846153845" y="3.76076923076923" width="0.41230769230769226" height="0.41230769230769226" fill="#252525" />
<rect x="1.2569230769230768" y="3.76076923076923" width="0.41230769230769226" height="0.41230769230769226" fill="#252525" />
<rect x="1.674230769230769" y="3.76076923076923" width="0.41230769230769226" height="0.41230769230769226" fill="#FF4136" />
<rect x="0.005" y="4.178076923076922" width="0.41230769230769226" height="0.41230769230769226" fill="#252525" />
<rect x="0.4223076923076923" y="4.178076923076922" width="0.41230769230769226" height="0.41230769230769226" fill="#252525" />
<rect x="0.8396153846153845" y="4.178076923076922" width="0.41230769230769226" height="0.41230769230769226" fill="#252525" />
<rect x="1.2569230769230768" y="4.178076923076922" width="0.41230769230769226" height="0.41230769230769226" fill="#FF4136" />
<rect x="1.674230769230769" y="4.178076923076922" width="0.41230769230769226" height="0.41230769230769226" fill="#252525" />
<rect x="0.005" y="4.5953846153846145" width="0.41230769230769226" height="0.41230769230769226" fill="#252525" />
<rect x="0.4223076923076923" y="4.5953846153846145" width="0.41230769230769226" height="0.41230769230769226" fill="#FF4136" />
<rect x="0.8396153846153845" y="4.5953846153846145" width="0.41230769230769226" height="0.41230769230769226" fill="#252525" />
<rect x="1.2569230769230768" y="4.5953846153846145" width="0.41230769230769226" height="0.41230769230769226" fill="#FF4136" />
<rect x="1.674230769230769" y="4.5953846153846145" width="0.41230769230769226" height="0.41230769230769226" fill="#252525" />
<rect x="0.005" y="5.012692307692308" width="0.41230769230769226" height="0.41230769230769226" fill="#252525" />
<rect x="0.4223076923076923" y="5.012692307692308" width="0.41230769230769226" height="0.41230769230769226" fill="#FF4136" />
<rect x="0.8396153846153845" y="5.012692307692308" width="0.41230769230769226" height="0.41230769230769226" fill="#FF4136" />
<rect x="1.2569230769230768" y="5.012692307692308" width="0.41230769230769226" height="0.41230769230769226" fill="#FF4136" />
<rect x="1.674230769230769" y="5.012692307692308" width="0.41230769230769226" height="0.41230769230769226" fill="#252525" />
<rect x="-0.02666666666666667" y="-0.02666666666666667" width="2.1398717948717945" height="5.4783333333333335" fill="none" stroke="#111111ff" stroke-width="0.08" />
<text x="2.0865384615384612" y="5.89375" font-size="0.375" fill="black" text-anchor="end" font-family="Anuphan">5x13</text>
<text x="-0.037500000000000006" y="5.89375" font-size="0.375" fill="black" text-anchor="start" font-family="Anuphan" font-weight="600">Input 2</text>
</g>
<g id="d2">
<rect x="0.005" y="0.005" width="0.41230769230769226" height="0.41230769230769226" fill="#FF4136" />
<rect x="0.4223076923076923" y="0.005" width="0.41230769230769226" height="0.41230769230769226" fill="#FF4136" />
<rect x="0.8396153846153845" y="0.005" width="0.41230769230769226" height="0.41230769230769226" fill="#252525" />
<rect x="1.2569230769230768" y="0.005" width="0.41230769230769226" height="0.41230769230769226" fill="#FF4136" />
<rect x="1.674230769230769" y="0.005" width="0.41230769230769226" height="0.41230769230769226" fill="#FF4136" />
<rect x="0.005" y="0.4223076923076923" width="0.41230769230769226" height="0.41230769230769226" fill="#FF4136" />
<rect x="0.4223076923076923" y="0.4223076923076923" width="0.41230769230769226" height="0.41230769230769226" fill="#252525" />
<rect x="0.8396153846153845" y="0.4223076923076923" width="0.41230769230769226" height="0.41230769230769226" fill="#FF4136" />
<rect x="1.2569230769230768" y="0.4223076923076923" width="0.41230769230769226" height="0.41230769230769226" fill="#FF4136" />
<rect x="1.674230769230769" y="0.4223076923076923" width="0.41230769230769226" height="0.41230769230769226" fill="#FF4136" />
<rect x="0.005" y="0.8396153846153845" width="0.41230769230769226" height="0.41230769230769226" fill="#FF4136" />
<rect x="0.4223076923076923" y="0.8396153846153845" width="0.41230769230769226" height="0.41230769230769226" fill="#252525" />
<rect x="0.8396153846153845" y="0.8396153846153845" width="0.41230769230769226" height="0.41230769230769226" fill="#252525" />
<rect x="1.2569230769230768" y="0.8396153846153845" width="0.41230769230769226" height="0.41230769230769226" fill="#252525" />
<rect x="1.674230769230769" y="0.8396153846153845" width="0.41230769230769226" height="0.41230769230769226" fill="#252525" />
<rect x="0.005" y="1.2569230769230768" width="0.41230769230769226" height="0.41230769230769226" fill="#252525" />
<rect x="0.4223076923076923" y="1.2569230769230768" width="0.41230769230769226" height="0.41230769230769226" fill="#FF4136" />
<rect x="0.8396153846153845" y="1.2569230769230768" width="0.41230769230769226" height="0.41230769230769226" fill="#252525" />
<rect x="1.2569230769230768" y="1.2569230769230768" width="0.41230769230769226" height="0.41230769230769226" fill="#FF4136" />
<rect x="1.674230769230769" y="1.2569230769230768" width="0.41230769230769226" height="0.41230769230769226" fill="#252525" />
<rect x="0.005" y="1.674230769230769" width="0.41230769230769226" height="0.41230769230769226" fill="#FF4136" />
<rect x="0.4223076923076923" y="1.674230769230769" width="0.41230769230769226" height="0.41230769230769226" fill="#FF4136" />
<rect x="0.8396153846153845" y="1.674230769230769" width="0.41230769230769226" height="0.41230769230769226" fill="#FF4136" />
<rect x="1.2569230769230768" y="1.674230769230769" width="0.41230769230769226" height="0.41230769230769226" fill="#252525" />
<rect x="1.674230769230769" y="1.674230769230769" width="0.41230769230769226" height="0.41230769230769226" fill="#FF4136" />
<rect x="0.005" y="2.091538461538461" width="0.41230769230769226" height="0.41230769230769226" fill="#FF4136" />
<rect x="0.4223076923076923" y="2.091538461538461" width="0.41230769230769226" height="0.41230769230769226" fill="#252525" />
<rect x="0.8396153846153845" y="2.091538461538461" width="0.41230769230769226" height="0.41230769230769226" fill="#FF4136" />
<rect x="1.2569230769230768" y="2.091538461538461" width="0.41230769230769226" height="0.41230769230769226" fill="#252525" />
<rect x="1.674230769230769" y="2.091538461538461" width="0.41230769230769226" height="0.41230769230769226" fill="#252525" />
<rect x="0.005" y="2.5088461538461537" width="0.41230769230769226" height="0.41230769230769226" fill="#FFDC00" />
<rect x="0.4223076923076923" y="2.5088461538461537" width="0.41230769230769226" height="0.41230769230769226" fill="#FFDC00" />
<rect x="0.8396153846153845" y="2.5088461538461537" width="0.41230769230769226" height="0.41230769230769226" fill="#FFDC00" />
<rect x="1.2569230769230768" y="2.5088461538461537" width="0.41230769230769226" height="0.41230769230769226" fill="#FFDC00" />
<rect x="1.674230769230769" y="2.5088461538461537" width="0.41230769230769226" height="0.41230769230769226" fill="#FFDC00" />
<rect x="0.005" y="2.926153846153846" width="0.41230769230769226" height="0.41230769230769226" fill="#FF4136" />
<rect x="0.4223076923076923" y="2.926153846153846" width="0.41230769230769226" height="0.41230769230769226" fill="#252525" />
<rect x="0.8396153846153845" y="2.926153846153846" width="0.41230769230769226" height="0.41230769230769226" fill="#252525" />
<rect x="1.2569230769230768" y="2.926153846153846" width="0.41230769230769226" height="0.41230769230769226" fill="#FF4136" />
<rect x="1.674230769230769" y="2.926153846153846" width="0.41230769230769226" height="0.41230769230769226" fill="#FF4136" />
<rect x="0.005" y="3.343461538461538" width="0.41230769230769226" height="0.41230769230769226" fill="#252525" />
<rect x="0.4223076923076923" y="3.343461538461538" width="0.41230769230769226" height="0.41230769230769226" fill="#252525" />
<rect x="0.8396153846153845" y="3.343461538461538" width="0.41230769230769226" height="0.41230769230769226" fill="#FF4136" />
<rect x="1.2569230769230768" y="3.343461538461538" width="0.41230769230769226" height="0.41230769230769226" fill="#252525" />
<rect x="1.674230769230769" y="3.343461538461538" width="0.41230769230769226" height="0.41230769230769226" fill="#FF4136" />
<rect x="0.005" y="3.76076923076923" width="0.41230769230769226" height="0.41230769230769226" fill="#FF4136" />
<rect x="0.4223076923076923" y="3.76076923076923" width="0.41230769230769226" height="0.41230769230769226" fill="#FF4136" />
<rect x="0.8396153846153845" y="3.76076923076923" width="0.41230769230769226" height="0.41230769230769226" fill="#252525" />
<rect x="1.2569230769230768" y="3.76076923076923" width="0.41230769230769226" height="0.41230769230769226" fill="#252525" />
<rect x="1.674230769230769" y="3.76076923076923" width="0.41230769230769226" height="0.41230769230769226" fill="#252525" />
<rect x="0.005" y="4.178076923076922" width="0.41230769230769226" height="0.41230769230769226" fill="#252525" />
<rect x="0.4223076923076923" y="4.178076923076922" width="0.41230769230769226" height="0.41230769230769226" fill="#252525" />
<rect x="0.8396153846153845" y="4.178076923076922" width="0.41230769230769226" height="0.41230769230769226" fill="#FF4136" />
<rect x="1.2569230769230768" y="4.178076923076922" width="0.41230769230769226" height="0.41230769230769226" fill="#252525" />
<rect x="1.674230769230769" y="4.178076923076922" width="0.41230769230769226" height="0.41230769230769226" fill="#FF4136" />
<rect x="0.005" y="4.5953846153846145" width="0.41230769230769226" height="0.41230769230769226" fill="#252525" />
<rect x="0.4223076923076923" y="4.5953846153846145" width="0.41230769230769226" height="0.41230769230769226" fill="#FF4136" />
<rect x="0.8396153846153845" y="4.5953846153846145" width="0.41230769230769226" height="0.41230769230769226" fill="#252525" />
<rect x="1.2569230769230768" y="4.5953846153846145" width="0.41230769230769226" height="0.41230769230769226" fill="#FF4136" />
<rect x="1.674230769230769" y="4.5953846153846145" width="0.41230769230769226" height="0.41230769230769226" fill="#FF4136" />
<rect x="0.005" y="5.012692307692308" width="0.41230769230769226" height="0.41230769230769226" fill="#252525" />
<rect x="0.4223076923076923" y="5.012692307692308" width="0.41230769230769226" height="0.41230769230769226" fill="#FF4136" />
<rect x="0.8396153846153845" y="5.012692307692308" width="0.41230769230769226" height="0.41230769230769226" fill="#FF4136" />
<rect x="1.2569230769230768" y="5.012692307692308" width="0.41230769230769226" height="0.41230769230769226" fill="#252525" />
<rect x="1.674230769230769" y="5.012692307692308" width="0.41230769230769226" height="0.41230769230769226" fill="#FF4136" />
<rect x="-0.02666666666666667" y="-0.02666666666666667" width="2.1398717948717945" height="5.4783333333333335" fill="none" stroke="#111111ff" stroke-width="0.08" />
<text x="2.0865384615384612" y="5.89375" font-size="0.375" fill="black" text-anchor="end" font-family="Anuphan">5x13</text>
<text x="-0.037500000000000006" y="5.89375" font-size="0.375" fill="black" text-anchor="start" font-family="Anuphan" font-weight="600">Input 3</text>
</g>
<g id="d3">
<rect x="0.005" y="0.005" width="0.41230769230769226" height="0.41230769230769226" fill="#252525" />
<rect x="0.4223076923076923" y="0.005" width="0.41230769230769226" height="0.41230769230769226" fill="#FF4136" />
<rect x="0.8396153846153845" y="0.005" width="0.41230769230769226" height="0.41230769230769226" fill="#252525" />
<rect x="1.2569230769230768" y="0.005" width="0.41230769230769226" height="0.41230769230769226" fill="#FF4136" />
<rect x="1.674230769230769" y="0.005" width="0.41230769230769226" height="0.41230769230769226" fill="#252525" />
<rect x="0.005" y="0.4223076923076923" width="0.41230769230769226" height="0.41230769230769226" fill="#FF4136" />
<rect x="0.4223076923076923" y="0.4223076923076923" width="0.41230769230769226" height="0.41230769230769226" fill="#FF4136" />
<rect x="0.8396153846153845" y="0.4223076923076923" width="0.41230769230769226" height="0.41230769230769226" fill="#252525" />
<rect x="1.2569230769230768" y="0.4223076923076923" width="0.41230769230769226" height="0.41230769230769226" fill="#FF4136" />
<rect x="1.674230769230769" y="0.4223076923076923" width="0.41230769230769226" height="0.41230769230769226" fill="#FF4136" />
<rect x="0.005" y="0.8396153846153845" width="0.41230769230769226" height="0.41230769230769226" fill="#252525" />
<rect x="0.4223076923076923" y="0.8396153846153845" width="0.41230769230769226" height="0.41230769230769226" fill="#FF4136" />
<rect x="0.8396153846153845" y="0.8396153846153845" width="0.41230769230769226" height="0.41230769230769226" fill="#FF4136" />
<rect x="1.2569230769230768" y="0.8396153846153845" width="0.41230769230769226" height="0.41230769230769226" fill="#FF4136" />
<rect x="1.674230769230769" y="0.8396153846153845" width="0.41230769230769226" height="0.41230769230769226" fill="#252525" />
<rect x="0.005" y="1.2569230769230768" width="0.41230769230769226" height="0.41230769230769226" fill="#252525" />
<rect x="0.4223076923076923" y="1.2569230769230768" width="0.41230769230769226" height="0.41230769230769226" fill="#FF4136" />
<rect x="0.8396153846153845" y="1.2569230769230768" width="0.41230769230769226" height="0.41230769230769226" fill="#FF4136" />
<rect x="1.2569230769230768" y="1.2569230769230768" width="0.41230769230769226" height="0.41230769230769226" fill="#252525" />
<rect x="1.674230769230769" y="1.2569230769230768" width="0.41230769230769226" height="0.41230769230769226" fill="#252525" />
<rect x="0.005" y="1.674230769230769" width="0.41230769230769226" height="0.41230769230769226" fill="#252525" />
<rect x="0.4223076923076923" y="1.674230769230769" width="0.41230769230769226" height="0.41230769230769226" fill="#FF4136" />
<rect x="0.8396153846153845" y="1.674230769230769" width="0.41230769230769226" height="0.41230769230769226" fill="#FF4136" />
<rect x="1.2569230769230768" y="1.674230769230769" width="0.41230769230769226" height="0.41230769230769226" fill="#FF4136" />
<rect x="1.674230769230769" y="1.674230769230769" width="0.41230769230769226" height="0.41230769230769226" fill="#FF4136" />
<rect x="0.005" y="2.091538461538461" width="0.41230769230769226" height="0.41230769230769226" fill="#FF4136" />
<rect x="0.4223076923076923" y="2.091538461538461" width="0.41230769230769226" height="0.41230769230769226" fill="#252525" />
<rect x="0.8396153846153845" y="2.091538461538461" width="0.41230769230769226" height="0.41230769230769226" fill="#FF4136" />
<rect x="1.2569230769230768" y="2.091538461538461" width="0.41230769230769226" height="0.41230769230769226" fill="#252525" />
<rect x="1.674230769230769" y="2.091538461538461" width="0.41230769230769226" height="0.41230769230769226" fill="#FF4136" />
<rect x="0.005" y="2.5088461538461537" width="0.41230769230769226" height="0.41230769230769226" fill="#FFDC00" />
<rect x="0.4223076923076923" y="2.5088461538461537" width="0.41230769230769226" height="0.41230769230769226" fill="#FFDC00" />
<rect x="0.8396153846153845" y="2.5088461538461537" width="0.41230769230769226" height="0.41230769230769226" fill="#FFDC00" />
<rect x="1.2569230769230768" y="2.5088461538461537" width="0.41230769230769226" height="0.41230769230769226" fill="#FFDC00" />
<rect x="1.674230769230769" y="2.5088461538461537" width="0.41230769230769226" height="0.41230769230769226" fill="#FFDC00" />
<rect x="0.005" y="2.926153846153846" width="0.41230769230769226" height="0.41230769230769226" fill="#FF4136" />
<rect x="0.4223076923076923" y="2.926153846153846" width="0.41230769230769226" height="0.41230769230769226" fill="#252525" />
<rect x="0.8396153846153845" y="2.926153846153846" width="0.41230769230769226" height="0.41230769230769226" fill="#FF4136" />
<rect x="1.2569230769230768" y="2.926153846153846" width="0.41230769230769226" height="0.41230769230769226" fill="#FF4136" />
<rect x="1.674230769230769" y="2.926153846153846" width="0.41230769230769226" height="0.41230769230769226" fill="#FF4136" />
<rect x="0.005" y="3.343461538461538" width="0.41230769230769226" height="0.41230769230769226" fill="#252525" />
<rect x="0.4223076923076923" y="3.343461538461538" width="0.41230769230769226" height="0.41230769230769226" fill="#FF4136" />
<rect x="0.8396153846153845" y="3.343461538461538" width="0.41230769230769226" height="0.41230769230769226" fill="#FF4136" />
<rect x="1.2569230769230768" y="3.343461538461538" width="0.41230769230769226" height="0.41230769230769226" fill="#252525" />
<rect x="1.674230769230769" y="3.343461538461538" width="0.41230769230769226" height="0.41230769230769226" fill="#252525" />
<rect x="0.005" y="3.76076923076923" width="0.41230769230769226" height="0.41230769230769226" fill="#FF4136" />
<rect x="0.4223076923076923" y="3.76076923076923" width="0.41230769230769226" height="0.41230769230769226" fill="#252525" />
<rect x="0.8396153846153845" y="3.76076923076923" width="0.41230769230769226" height="0.41230769230769226" fill="#FF4136" />
<rect x="1.2569230769230768" y="3.76076923076923" width="0.41230769230769226" height="0.41230769230769226" fill="#252525" />
<rect x="1.674230769230769" y="3.76076923076923" width="0.41230769230769226" height="0.41230769230769226" fill="#FF4136" />
<rect x="0.005" y="4.178076923076922" width="0.41230769230769226" height="0.41230769230769226" fill="#FF4136" />
<rect x="0.4223076923076923" y="4.178076923076922" width="0.41230769230769226" height="0.41230769230769226" fill="#252525" />
<rect x="0.8396153846153845" y="4.178076923076922" width="0.41230769230769226" height="0.41230769230769226" fill="#252525" />
<rect x="1.2569230769230768" y="4.178076923076922" width="0.41230769230769226" height="0.41230769230769226" fill="#252525" />
<rect x="1.674230769230769" y="4.178076923076922" width="0.41230769230769226" height="0.41230769230769226" fill="#FF4136" />
<rect x="0.005" y="4.5953846153846145" width="0.41230769230769226" height="0.41230769230769226" fill="#FF4136" />
<rect x="0.4223076923076923" y="4.5953846153846145" width="0.41230769230769226" height="0.41230769230769226" fill="#FF4136" />
<rect x="0.8396153846153845" y="4.5953846153846145" width="0.41230769230769226" height="0.41230769230769226" fill="#252525" />
<rect x="1.2569230769230768" y="4.5953846153846145" width="0.41230769230769226" height="0.41230769230769226" fill="#FF4136" />
<rect x="1.674230769230769" y="4.5953846153846145" width="0.41230769230769226" height="0.41230769230769226" fill="#252525" />
<rect x="0.005" y="5.012692307692308" width="0.41230769230769226" height="0.41230769230769226" fill="#FF4136" />
<rect x="0.4223076923076923" y="5.012692307692308" width="0.41230769230769226" height="0.41230769230769226" fill="#252525" />
<rect x="0.8396153846153845" y="5.012692307692308" width="0.41230769230769226" height="0.41230769230769226" fill="#FF4136" />
<rect x="1.2569230769230768" y="5.012692307692308" width="0.41230769230769226" height="0.41230769230769226" fill="#FF4136" />
<rect x="1.674230769230769" y="5.012692307692308" width="0.41230769230769226" height="0.41230769230769226" fill="#252525" />
<rect x="-0.02666666666666667" y="-0.02666666666666667" width="2.1398717948717945" height="5.4783333333333335" fill="none" stroke="#111111ff" stroke-width="0.08" />
<text x="2.0865384615384612" y="5.89375" font-size="0.375" fill="black" text-anchor="end" font-family="Anuphan">5x13</text>
<text x="-0.037500000000000006" y="5.89375" font-size="0.375" fill="black" text-anchor="start" font-family="Anuphan" font-weight="600">Input 4</text>
</g>
<g id="d4">
<rect x="0.005" y="0.005" width="0.41230769230769226" height="0.41230769230769226" fill="#FF4136" />
<rect x="0.4223076923076923" y="0.005" width="0.41230769230769226" height="0.41230769230769226" fill="#252525" />
<rect x="0.8396153846153845" y="0.005" width="0.41230769230769226" height="0.41230769230769226" fill="#FF4136" />
<rect x="1.2569230769230768" y="0.005" width="0.41230769230769226" height="0.41230769230769226" fill="#FF4136" />
<rect x="1.674230769230769" y="0.005" width="0.41230769230769226" height="0.41230769230769226" fill="#252525" />
<rect x="0.005" y="0.4223076923076923" width="0.41230769230769226" height="0.41230769230769226" fill="#FF4136" />
<rect x="0.4223076923076923" y="0.4223076923076923" width="0.41230769230769226" height="0.41230769230769226" fill="#252525" />
<rect x="0.8396153846153845" y="0.4223076923076923" width="0.41230769230769226" height="0.41230769230769226" fill="#252525" />
<rect x="1.2569230769230768" y="0.4223076923076923" width="0.41230769230769226" height="0.41230769230769226" fill="#FF4136" />
<rect x="1.674230769230769" y="0.4223076923076923" width="0.41230769230769226" height="0.41230769230769226" fill="#FF4136" />
<rect x="0.005" y="0.8396153846153845" width="0.41230769230769226" height="0.41230769230769226" fill="#FF4136" />
<rect x="0.4223076923076923" y="0.8396153846153845" width="0.41230769230769226" height="0.41230769230769226" fill="#FF4136" />
<rect x="0.8396153846153845" y="0.8396153846153845" width="0.41230769230769226" height="0.41230769230769226" fill="#FF4136" />
<rect x="1.2569230769230768" y="0.8396153846153845" width="0.41230769230769226" height="0.41230769230769226" fill="#252525" />
<rect x="1.674230769230769" y="0.8396153846153845" width="0.41230769230769226" height="0.41230769230769226" fill="#252525" />
<rect x="0.005" y="1.2569230769230768" width="0.41230769230769226" height="0.41230769230769226" fill="#FF4136" />
<rect x="0.4223076923076923" y="1.2569230769230768" width="0.41230769230769226" height="0.41230769230769226" fill="#FF4136" />
<rect x="0.8396153846153845" y="1.2569230769230768" width="0.41230769230769226" height="0.41230769230769226" fill="#FF4136" />
<rect x="1.2569230769230768" y="1.2569230769230768" width="0.41230769230769226" height="0.41230769230769226" fill="#FF4136" />
<rect x="1.674230769230769" y="1.2569230769230768" width="0.41230769230769226" height="0.41230769230769226" fill="#FF4136" />
<rect x="0.005" y="1.674230769230769" width="0.41230769230769226" height="0.41230769230769226" fill="#252525" />
<rect x="0.4223076923076923" y="1.674230769230769" width="0.41230769230769226" height="0.41230769230769226" fill="#FF4136" />
<rect x="0.8396153846153845" y="1.674230769230769" width="0.41230769230769226" height="0.41230769230769226" fill="#FF4136" />
<rect x="1.2569230769230768" y="1.674230769230769" width="0.41230769230769226" height="0.41230769230769226" fill="#252525" />
<rect x="1.674230769230769" y="1.674230769230769" width="0.41230769230769226" height="0.41230769230769226" fill="#252525" />
<rect x="0.005" y="2.091538461538461" width="0.41230769230769226" height="0.41230769230769226" fill="#FF4136" />
<rect x="0.4223076923076923" y="2.091538461538461" width="0.41230769230769226" height="0.41230769230769226" fill="#FF4136" />
<rect x="0.8396153846153845" y="2.091538461538461" width="0.41230769230769226" height="0.41230769230769226" fill="#FF4136" />
<rect x="1.2569230769230768" y="2.091538461538461" width="0.41230769230769226" height="0.41230769230769226" fill="#FF4136" />
<rect x="1.674230769230769" y="2.091538461538461" width="0.41230769230769226" height="0.41230769230769226" fill="#FF4136" />
<rect x="0.005" y="2.5088461538461537" width="0.41230769230769226" height="0.41230769230769226" fill="#FFDC00" />
<rect x="0.4223076923076923" y="2.5088461538461537" width="0.41230769230769226" height="0.41230769230769226" fill="#FFDC00" />
<rect x="0.8396153846153845" y="2.5088461538461537" width="0.41230769230769226" height="0.41230769230769226" fill="#FFDC00" />
<rect x="1.2569230769230768" y="2.5088461538461537" width="0.41230769230769226" height="0.41230769230769226" fill="#FFDC00" />
<rect x="1.674230769230769" y="2.5088461538461537" width="0.41230769230769226" height="0.41230769230769226" fill="#FFDC00" />
<rect x="0.005" y="2.926153846153846" width="0.41230769230769226" height="0.41230769230769226" fill="#252525" />
<rect x="0.4223076923076923" y="2.926153846153846" width="0.41230769230769226" height="0.41230769230769226" fill="#252525" />
<rect x="0.8396153846153845" y="2.926153846153846" width="0.41230769230769226" height="0.41230769230769226" fill="#252525" />
<rect x="1.2569230769230768" y="2.926153846153846" width="0.41230769230769226" height="0.41230769230769226" fill="#FF4136" />
<rect x="1.674230769230769" y="2.926153846153846" width="0.41230769230769226" height="0.41230769230769226" fill="#FF4136" />
<rect x="0.005" y="3.343461538461538" width="0.41230769230769226" height="0.41230769230769226" fill="#FF4136" />
<rect x="0.4223076923076923" y="3.343461538461538" width="0.41230769230769226" height="0.41230769230769226" fill="#252525" />
<rect x="0.8396153846153845" y="3.343461538461538" width="0.41230769230769226" height="0.41230769230769226" fill="#252525" />
<rect x="1.2569230769230768" y="3.343461538461538" width="0.41230769230769226" height="0.41230769230769226" fill="#252525" />
<rect x="1.674230769230769" y="3.343461538461538" width="0.41230769230769226" height="0.41230769230769226" fill="#FF4136" />
<rect x="0.005" y="3.76076923076923" width="0.41230769230769226" height="0.41230769230769226" fill="#FF4136" />
<rect x="0.4223076923076923" y="3.76076923076923" width="0.41230769230769226" height="0.41230769230769226" fill="#FF4136" />
<rect x="0.8396153846153845" y="3.76076923076923" width="0.41230769230769226" height="0.41230769230769226" fill="#FF4136" />
<rect x="1.2569230769230768" y="3.76076923076923" width="0.41230769230769226" height="0.41230769230769226" fill="#252525" />
<rect x="1.674230769230769" y="3.76076923076923" width="0.41230769230769226" height="0.41230769230769226" fill="#FF4136" />
<rect x="0.005" y="4.178076923076922" width="0.41230769230769226" height="0.41230769230769226" fill="#252525" />
<rect x="0.4223076923076923" y="4.178076923076922" width="0.41230769230769226" height="0.41230769230769226" fill="#FF4136" />
<rect x="0.8396153846153845" y="4.178076923076922" width="0.41230769230769226" height="0.41230769230769226" fill="#FF4136" />
<rect x="1.2569230769230768" y="4.178076923076922" width="0.41230769230769226" height="0.41230769230769226" fill="#252525" />
<rect x="1.674230769230769" y="4.178076923076922" width="0.41230769230769226" height="0.41230769230769226" fill="#252525" />
<rect x="0.005" y="4.5953846153846145" width="0.41230769230769226" height="0.41230769230769226" fill="#FF4136" />
<rect x="0.4223076923076923" y="4.5953846153846145" width="0.41230769230769226" height="0.41230769230769226" fill="#252525" />
<rect x="0.8396153846153845" y="4.5953846153846145" width="0.41230769230769226" height="0.41230769230769226" fill="#FF4136" />
<rect x="1.2569230769230768" y="4.5953846153846145" width="0.41230769230769226" height="0.41230769230769226" fill="#FF4136" />
<rect x="1.674230769230769" y="4.5953846153846145" width="0.41230769230769226" height="0.41230769230769226" fill="#252525" />
<rect x="0.005" y="5.012692307692308" width="0.41230769230769226" height="0.41230769230769226" fill="#FF4136" />
<rect x="0.4223076923076923" y="5.012692307692308" width="0.41230769230769226" height="0.41230769230769226" fill="#252525" />
<rect x="0.8396153846153845" y="5.012692307692308" width="0.41230769230769226" height="0.41230769230769226" fill="#FF4136" />
<rect x="1.2569230769230768" y="5.012692307692308" width="0.41230769230769226" height="0.41230769230769226" fill="#FF4136" />
<rect x="1.674230769230769" y="5.012692307692308" width="0.41230769230769226" height="0.41230769230769226" fill="#FF4136" />
<rect x="-0.02666666666666667" y="-0.02666666666666667" width="2.1398717948717945" height="5.4783333333333335" fill="none" stroke="#111111ff" stroke-width="0.08" />
<text x="2.0865384615384612" y="5.89375" font-size="0.375" fill="black" text-anchor="end" font-family="Anuphan">5x13</text>
<text x="-0.037500000000000006" y="5.89375" font-size="0.375" fill="black" text-anchor="start" font-family="Anuphan" font-weight="600">Test 1</text>
</g>
<g id="d5">
<rect x="0.005" y="0.005" width="0.41230769230769226" height="0.41230769230769226" fill="#FF4136" />
<rect x="0.4223076923076923" y="0.005" width="0.41230769230769226" height="0.41230769230769226" fill="#252525" />
<rect x="0.8396153846153845" y="0.005" width="0.41230769230769226" height="0.41230769230769226" fill="#FF4136" />
<rect x="1.2569230769230768" y="0.005" width="0.41230769230769226" height="0.41230769230769226" fill="#252525" />
<rect x="1.674230769230769" y="0.005" width="0.41230769230769226" height="0.41230769230769226" fill="#FF4136" />
<rect x="0.005" y="0.4223076923076923" width="0.41230769230769226" height="0.41230769230769226" fill="#FF4136" />
<rect x="0.4223076923076923" y="0.4223076923076923" width="0.41230769230769226" height="0.41230769230769226" fill="#252525" />
<rect x="0.8396153846153845" y="0.4223076923076923" width="0.41230769230769226" height="0.41230769230769226" fill="#FF4136" />
<rect x="1.2569230769230768" y="0.4223076923076923" width="0.41230769230769226" height="0.41230769230769226" fill="#252525" />
<rect x="1.674230769230769" y="0.4223076923076923" width="0.41230769230769226" height="0.41230769230769226" fill="#FF4136" />
<rect x="0.005" y="0.8396153846153845" width="0.41230769230769226" height="0.41230769230769226" fill="#252525" />
<rect x="0.4223076923076923" y="0.8396153846153845" width="0.41230769230769226" height="0.41230769230769226" fill="#252525" />
<rect x="0.8396153846153845" y="0.8396153846153845" width="0.41230769230769226" height="0.41230769230769226" fill="#252525" />
<rect x="1.2569230769230768" y="0.8396153846153845" width="0.41230769230769226" height="0.41230769230769226" fill="#FF4136" />
<rect x="1.674230769230769" y="0.8396153846153845" width="0.41230769230769226" height="0.41230769230769226" fill="#252525" />
<rect x="0.005" y="1.2569230769230768" width="0.41230769230769226" height="0.41230769230769226" fill="#252525" />
<rect x="0.4223076923076923" y="1.2569230769230768" width="0.41230769230769226" height="0.41230769230769226" fill="#FF4136" />
<rect x="0.8396153846153845" y="1.2569230769230768" width="0.41230769230769226" height="0.41230769230769226" fill="#FF4136" />
<rect x="1.2569230769230768" y="1.2569230769230768" width="0.41230769230769226" height="0.41230769230769226" fill="#FF4136" />
<rect x="1.674230769230769" y="1.2569230769230768" width="0.41230769230769226" height="0.41230769230769226" fill="#252525" />
<rect x="0.005" y="1.674230769230769" width="0.41230769230769226" height="0.41230769230769226" fill="#FF4136" />
<rect x="0.4223076923076923" y="1.674230769230769" width="0.41230769230769226" height="0.41230769230769226" fill="#252525" />
<rect x="0.8396153846153845" y="1.674230769230769" width="0.41230769230769226" height="0.41230769230769226" fill="#FF4136" />
<rect x="1.2569230769230768" y="1.674230769230769" width="0.41230769230769226" height="0.41230769230769226" fill="#FF4136" />
<rect x="1.674230769230769" y="1.674230769230769" width="0.41230769230769226" height="0.41230769230769226" fill="#252525" />
<rect x="0.005" y="2.091538461538461" width="0.41230769230769226" height="0.41230769230769226" fill="#FF4136" />
<rect x="0.4223076923076923" y="2.091538461538461" width="0.41230769230769226" height="0.41230769230769226" fill="#FF4136" />
<rect x="0.8396153846153845" y="2.091538461538461" width="0.41230769230769226" height="0.41230769230769226" fill="#FF4136" />
<rect x="1.2569230769230768" y="2.091538461538461" width="0.41230769230769226" height="0.41230769230769226" fill="#252525" />
<rect x="1.674230769230769" y="2.091538461538461" width="0.41230769230769226" height="0.41230769230769226" fill="#FF4136" />
<rect x="0.005" y="2.5088461538461537" width="0.41230769230769226" height="0.41230769230769226" fill="#FFDC00" />
<rect x="0.4223076923076923" y="2.5088461538461537" width="0.41230769230769226" height="0.41230769230769226" fill="#FFDC00" />
<rect x="0.8396153846153845" y="2.5088461538461537" width="0.41230769230769226" height="0.41230769230769226" fill="#FFDC00" />
<rect x="1.2569230769230768" y="2.5088461538461537" width="0.41230769230769226" height="0.41230769230769226" fill="#FFDC00" />
<rect x="1.674230769230769" y="2.5088461538461537" width="0.41230769230769226" height="0.41230769230769226" fill="#FFDC00" />
<rect x="0.005" y="2.926153846153846" width="0.41230769230769226" height="0.41230769230769226" fill="#FF4136" />
<rect x="0.4223076923076923" y="2.926153846153846" width="0.41230769230769226" height="0.41230769230769226" fill="#FF4136" />
<rect x="0.8396153846153845" y="2.926153846153846" width="0.41230769230769226" height="0.41230769230769226" fill="#252525" />
<rect x="1.2569230769230768" y="2.926153846153846" width="0.41230769230769226" height="0.41230769230769226" fill="#252525" />
<rect x="1.674230769230769" y="2.926153846153846" width="0.41230769230769226" height="0.41230769230769226" fill="#252525" />
<rect x="0.005" y="3.343461538461538" width="0.41230769230769226" height="0.41230769230769226" fill="#252525" />
<rect x="0.4223076923076923" y="3.343461538461538" width="0.41230769230769226" height="0.41230769230769226" fill="#FF4136" />
<rect x="0.8396153846153845" y="3.343461538461538" width="0.41230769230769226" height="0.41230769230769226" fill="#FF4136" />
<rect x="1.2569230769230768" y="3.343461538461538" width="0.41230769230769226" height="0.41230769230769226" fill="#FF4136" />
<rect x="1.674230769230769" y="3.343461538461538" width="0.41230769230769226" height="0.41230769230769226" fill="#FF4136" />
<rect x="0.005" y="3.76076923076923" width="0.41230769230769226" height="0.41230769230769226" fill="#252525" />
<rect x="0.4223076923076923" y="3.76076923076923" width="0.41230769230769226" height="0.41230769230769226" fill="#252525" />
<rect x="0.8396153846153845" y="3.76076923076923" width="0.41230769230769226" height="0.41230769230769226" fill="#FF4136" />
<rect x="1.2569230769230768" y="3.76076923076923" width="0.41230769230769226" height="0.41230769230769226" fill="#FF4136" />
<rect x="1.674230769230769" y="3.76076923076923" width="0.41230769230769226" height="0.41230769230769226" fill="#252525" />
<rect x="0.005" y="4.178076923076922" width="0.41230769230769226" height="0.41230769230769226" fill="#252525" />
<rect x="0.4223076923076923" y="4.178076923076922" width="0.41230769230769226" height="0.41230769230769226" fill="#FF4136" />
<rect x="0.8396153846153845" y="4.178076923076922" width="0.41230769230769226" height="0.41230769230769226" fill="#252525" />
<rect x="1.2569230769230768" y="4.178076923076922" width="0.41230769230769226" height="0.41230769230769226" fill="#252525" />
<rect x="1.674230769230769" y="4.178076923076922" width="0.41230769230769226" height="0.41230769230769226" fill="#252525" />
<rect x="0.005" y="4.5953846153846145" width="0.41230769230769226" height="0.41230769230769226" fill="#252525" />
<rect x="0.4223076923076923" y="4.5953846153846145" width="0.41230769230769226" height="0.41230769230769226" fill="#FF4136" />
<rect x="0.8396153846153845" y="4.5953846153846145" width="0.41230769230769226" height="0.41230769230769226" fill="#FF4136" />
<rect x="1.2569230769230768" y="4.5953846153846145" width="0.41230769230769226" height="0.41230769230769226" fill="#252525" />
<rect x="1.674230769230769" y="4.5953846153846145" width="0.41230769230769226" height="0.41230769230769226" fill="#FF4136" />
<rect x="0.005" y="5.012692307692308" width="0.41230769230769226" height="0.41230769230769226" fill="#FF4136" />
<rect x="0.4223076923076923" y="5.012692307692308" width="0.41230769230769226" height="0.41230769230769226" fill="#252525" />
<rect x="0.8396153846153845" y="5.012692307692308" width="0.41230769230769226" height="0.41230769230769226" fill="#252525" />
<rect x="1.2569230769230768" y="5.012692307692308" width="0.41230769230769226" height="0.41230769230769226" fill="#252525" />
<rect x="1.674230769230769" y="5.012692307692308" width="0.41230769230769226" height="0.41230769230769226" fill="#252525" />
<rect x="-0.02666666666666667" y="-0.02666666666666667" width="2.1398717948717945" height="5.4783333333333335" fill="none" stroke="#111111ff" stroke-width="0.08" />
<text x="2.0865384615384612" y="5.89375" font-size="0.375" fill="black" text-anchor="end" font-family="Anuphan">5x13</text>
<text x="-0.037500000000000006" y="5.89375" font-size="0.375" fill="black" text-anchor="start" font-family="Anuphan" font-weight="600">Test 2</text>
</g>
<g id="d6">
<rect x="0.005" y="0.005" width="0.5613333333333215" height="0.5613333333333215" fill="#37D449" />
<rect x="0.5713333333333215" y="0.005" width="0.5613333333333215" height="0.5613333333333215" fill="#252525" />
<rect x="1.1376666666666428" y="0.005" width="0.5613333333333215" height="0.5613333333333215" fill="#252525" />
<rect x="1.7039999999999642" y="0.005" width="0.5613333333333215" height="0.5613333333333215" fill="#37D449" />
<rect x="2.270333333333286" y="0.005" width="0.5613333333333215" height="0.5613333333333215" fill="#37D449" />
<rect x="0.005" y="0.5713333333333215" width="0.5613333333333215" height="0.5613333333333215" fill="#37D449" />
<rect x="0.5713333333333215" y="0.5713333333333215" width="0.5613333333333215" height="0.5613333333333215" fill="#37D449" />
<rect x="1.1376666666666428" y="0.5713333333333215" width="0.5613333333333215" height="0.5613333333333215" fill="#37D449" />
<rect x="1.7039999999999642" y="0.5713333333333215" width="0.5613333333333215" height="0.5613333333333215" fill="#252525" />
<rect x="2.270333333333286" y="0.5713333333333215" width="0.5613333333333215" height="0.5613333333333215" fill="#37D449" />
<rect x="0.005" y="1.1376666666666428" width="0.5613333333333215" height="0.5613333333333215" fill="#252525" />
<rect x="0.5713333333333215" y="1.1376666666666428" width="0.5613333333333215" height="0.5613333333333215" fill="#252525" />
<rect x="1.1376666666666428" y="1.1376666666666428" width="0.5613333333333215" height="0.5613333333333215" fill="#37D449" />
<rect x="1.7039999999999642" y="1.1376666666666428" width="0.5613333333333215" height="0.5613333333333215" fill="#37D449" />
<rect x="2.270333333333286" y="1.1376666666666428" width="0.5613333333333215" height="0.5613333333333215" fill="#37D449" />
<rect x="0.005" y="1.7039999999999642" width="0.5613333333333215" height="0.5613333333333215" fill="#37D449" />
<rect x="0.5713333333333215" y="1.7039999999999642" width="0.5613333333333215" height="0.5613333333333215" fill="#37D449" />
<rect x="1.1376666666666428" y="1.7039999999999642" width="0.5613333333333215" height="0.5613333333333215" fill="#37D449" />
<rect x="1.7039999999999642" y="1.7039999999999642" width="0.5613333333333215" height="0.5613333333333215" fill="#252525" />
<rect x="2.270333333333286" y="1.7039999999999642" width="0.5613333333333215" height="0.5613333333333215" fill="#37D449" />
<rect x="0.005" y="2.270333333333286" width="0.5613333333333215" height="0.5613333333333215" fill="#252525" />
<rect x="0.5713333333333215" y="2.270333333333286" width="0.5613333333333215" height="0.5613333333333215" fill="#252525" />
<rect x="1.1376666666666428" y="2.270333333333286" width="0.5613333333333215" height="0.5613333333333215" fill="#252525" />
<rect x="1.7039999999999642" y="2.270333333333286" width="0.5613333333333215" height="0.5613333333333215" fill="#37D449" />
<rect x="2.270333333333286" y="2.270333333333286" width="0.5613333333333215" height="0.5613333333333215" fill="#252525" />
<rect x="0.005" y="2.8366666666666074" width="0.5613333333333215" height="0.5613333333333215" fill="#37D449" />
<rect x="0.5713333333333215" y="2.8366666666666074" width="0.5613333333333215" height="0.5613333333333215" fill="#37D449" />
<rect x="1.1376666666666428" y="2.8366666666666074" width="0.5613333333333215" height="0.5613333333333215" fill="#252525" />
<rect x="1.7039999999999642" y="2.8366666666666074" width="0.5613333333333215" height="0.5613333333333215" fill="#37D449" />
<rect x="2.270333333333286" y="2.8366666666666074" width="0.5613333333333215" height="0.5613333333333215" fill="#252525" />
<rect x="-0.02666666666666667" y="-0.02666666666666667" width="2.8849999999999407" height="3.451333333333262" fill="none" stroke="#111111ff" stroke-width="0.08" />
<text x="2.8316666666666075" y="3.8667499999999286" font-size="0.375" fill="black" text-anchor="end" font-family="Anuphan">5x6</text>
<text x="-0.037500000000000006" y="3.8667499999999286" font-size="0.375" fill="black" text-anchor="start" font-family="Anuphan" font-weight="600">Output 1</text>
</g>
<g id="d7">
<rect x="0.005" y="0.005" width="0.5613333333333215" height="0.5613333333333215" fill="#252525" />
<rect x="0.5713333333333215" y="0.005" width="0.5613333333333215" height="0.5613333333333215" fill="#37D449" />
<rect x="1.1376666666666428" y="0.005" width="0.5613333333333215" height="0.5613333333333215" fill="#37D449" />
<rect x="1.7039999999999642" y="0.005" width="0.5613333333333215" height="0.5613333333333215" fill="#37D449" />
<rect x="2.270333333333286" y="0.005" width="0.5613333333333215" height="0.5613333333333215" fill="#37D449" />
<rect x="0.005" y="0.5713333333333215" width="0.5613333333333215" height="0.5613333333333215" fill="#252525" />
<rect x="0.5713333333333215" y="0.5713333333333215" width="0.5613333333333215" height="0.5613333333333215" fill="#252525" />
<rect x="1.1376666666666428" y="0.5713333333333215" width="0.5613333333333215" height="0.5613333333333215" fill="#37D449" />
<rect x="1.7039999999999642" y="0.5713333333333215" width="0.5613333333333215" height="0.5613333333333215" fill="#252525" />
<rect x="2.270333333333286" y="0.5713333333333215" width="0.5613333333333215" height="0.5613333333333215" fill="#37D449" />
<rect x="0.005" y="1.1376666666666428" width="0.5613333333333215" height="0.5613333333333215" fill="#252525" />
<rect x="0.5713333333333215" y="1.1376666666666428" width="0.5613333333333215" height="0.5613333333333215" fill="#252525" />
<rect x="1.1376666666666428" y="1.1376666666666428" width="0.5613333333333215" height="0.5613333333333215" fill="#37D449" />
<rect x="1.7039999999999642" y="1.1376666666666428" width="0.5613333333333215" height="0.5613333333333215" fill="#37D449" />
<rect x="2.270333333333286" y="1.1376666666666428" width="0.5613333333333215" height="0.5613333333333215" fill="#252525" />
<rect x="0.005" y="1.7039999999999642" width="0.5613333333333215" height="0.5613333333333215" fill="#252525" />
<rect x="0.5713333333333215" y="1.7039999999999642" width="0.5613333333333215" height="0.5613333333333215" fill="#252525" />
<rect x="1.1376666666666428" y="1.7039999999999642" width="0.5613333333333215" height="0.5613333333333215" fill="#37D449" />
<rect x="1.7039999999999642" y="1.7039999999999642" width="0.5613333333333215" height="0.5613333333333215" fill="#252525" />
<rect x="2.270333333333286" y="1.7039999999999642" width="0.5613333333333215" height="0.5613333333333215" fill="#252525" />
<rect x="0.005" y="2.270333333333286" width="0.5613333333333215" height="0.5613333333333215" fill="#37D449" />
<rect x="0.5713333333333215" y="2.270333333333286" width="0.5613333333333215" height="0.5613333333333215" fill="#252525" />
<rect x="1.1376666666666428" y="2.270333333333286" width="0.5613333333333215" height="0.5613333333333215" fill="#37D449" />
<rect x="1.7039999999999642" y="2.270333333333286" width="0.5613333333333215" height="0.5613333333333215" fill="#252525" />
<rect x="2.270333333333286" y="2.270333333333286" width="0.5613333333333215" height="0.5613333333333215" fill="#252525" />
<rect x="0.005" y="2.8366666666666074" width="0.5613333333333215" height="0.5613333333333215" fill="#37D449" />
<rect x="0.5713333333333215" y="2.8366666666666074" width="0.5613333333333215" height="0.5613333333333215" fill="#252525" />
<rect x="1.1376666666666428" y="2.8366666666666074" width="0.5613333333333215" height="0.5613333333333215" fill="#37D449" />
<rect x="1.7039999999999642" y="2.8366666666666074" width="0.5613333333333215" height="0.5613333333333215" fill="#37D449" />
<rect x="2.270333333333286" y="2.8366666666666074" width="0.5613333333333215" height="0.5613333333333215" fill="#37D449" />
<rect x="-0.02666666666666667" y="-0.02666666666666667" width="2.8849999999999407" height="3.451333333333262" fill="none" stroke="#111111ff" stroke-width="0.08" />
<text x="2.8316666666666075" y="3.8667499999999286" font-size="0.375" fill="black" text-anchor="end" font-family="Anuphan">5x6</text>
<text x="-0.037500000000000006" y="3.8667499999999286" font-size="0.375" fill="black" text-anchor="start" font-family="Anuphan" font-weight="600">Output 2</text>
</g>
<g id="d8">
<rect x="0.005" y="0.005" width="0.5613333333333215" height="0.5613333333333215" fill="#252525" />
<rect x="0.5713333333333215" y="0.005" width="0.5613333333333215" height="0.5613333333333215" fill="#37D449" />
<rect x="1.1376666666666428" y="0.005" width="0.5613333333333215" height="0.5613333333333215" fill="#252525" />
<rect x="1.7039999999999642" y="0.005" width="0.5613333333333215" height="0.5613333333333215" fill="#252525" />
<rect x="2.270333333333286" y="0.005" width="0.5613333333333215" height="0.5613333333333215" fill="#252525" />
<rect x="0.005" y="0.5713333333333215" width="0.5613333333333215" height="0.5613333333333215" fill="#37D449" />
<rect x="0.5713333333333215" y="0.5713333333333215" width="0.5613333333333215" height="0.5613333333333215" fill="#252525" />
<rect x="1.1376666666666428" y="0.5713333333333215" width="0.5613333333333215" height="0.5613333333333215" fill="#252525" />
<rect x="1.7039999999999642" y="0.5713333333333215" width="0.5613333333333215" height="0.5613333333333215" fill="#37D449" />
<rect x="2.270333333333286" y="0.5713333333333215" width="0.5613333333333215" height="0.5613333333333215" fill="#252525" />
<rect x="0.005" y="1.1376666666666428" width="0.5613333333333215" height="0.5613333333333215" fill="#252525" />
<rect x="0.5713333333333215" y="1.1376666666666428" width="0.5613333333333215" height="0.5613333333333215" fill="#37D449" />
<rect x="1.1376666666666428" y="1.1376666666666428" width="0.5613333333333215" height="0.5613333333333215" fill="#252525" />
<rect x="1.7039999999999642" y="1.1376666666666428" width="0.5613333333333215" height="0.5613333333333215" fill="#252525" />
<rect x="2.270333333333286" y="1.1376666666666428" width="0.5613333333333215" height="0.5613333333333215" fill="#252525" />
<rect x="0.005" y="1.7039999999999642" width="0.5613333333333215" height="0.5613333333333215" fill="#252525" />
<rect x="0.5713333333333215" y="1.7039999999999642" width="0.5613333333333215" height="0.5613333333333215" fill="#37D449" />
<rect x="1.1376666666666428" y="1.7039999999999642" width="0.5613333333333215" height="0.5613333333333215" fill="#37D449" />
<rect x="1.7039999999999642" y="1.7039999999999642" width="0.5613333333333215" height="0.5613333333333215" fill="#37D449" />
<rect x="2.270333333333286" y="1.7039999999999642" width="0.5613333333333215" height="0.5613333333333215" fill="#37D449" />
<rect x="0.005" y="2.270333333333286" width="0.5613333333333215" height="0.5613333333333215" fill="#37D449" />
<rect x="0.5713333333333215" y="2.270333333333286" width="0.5613333333333215" height="0.5613333333333215" fill="#252525" />
<rect x="1.1376666666666428" y="2.270333333333286" width="0.5613333333333215" height="0.5613333333333215" fill="#37D449" />
<rect x="1.7039999999999642" y="2.270333333333286" width="0.5613333333333215" height="0.5613333333333215" fill="#37D449" />
<rect x="2.270333333333286" y="2.270333333333286" width="0.5613333333333215" height="0.5613333333333215" fill="#252525" />
<rect x="0.005" y="2.8366666666666074" width="0.5613333333333215" height="0.5613333333333215" fill="#37D449" />
<rect x="0.5713333333333215" y="2.8366666666666074" width="0.5613333333333215" height="0.5613333333333215" fill="#37D449" />
<rect x="1.1376666666666428" y="2.8366666666666074" width="0.5613333333333215" height="0.5613333333333215" fill="#252525" />
<rect x="1.7039999999999642" y="2.8366666666666074" width="0.5613333333333215" height="0.5613333333333215" fill="#252525" />
<rect x="2.270333333333286" y="2.8366666666666074" width="0.5613333333333215" height="0.5613333333333215" fill="#37D449" />
<rect x="-0.02666666666666667" y="-0.02666666666666667" width="2.8849999999999407" height="3.451333333333262" fill="none" stroke="#111111ff" stroke-width="0.08" />
<text x="2.8316666666666075" y="3.8667499999999286" font-size="0.375" fill="black" text-anchor="end" font-family="Anuphan">5x6</text>
<text x="-0.037500000000000006" y="3.8667499999999286" font-size="0.375" fill="black" text-anchor="start" font-family="Anuphan" font-weight="600">Output 3</text>
</g>
<g id="d9">
<rect x="0.005" y="0.005" width="0.5613333333333215" height="0.5613333333333215" fill="#37D449" />
<rect x="0.5713333333333215" y="0.005" width="0.5613333333333215" height="0.5613333333333215" fill="#37D449" />
<rect x="1.1376666666666428" y="0.005" width="0.5613333333333215" height="0.5613333333333215" fill="#37D449" />
<rect x="1.7039999999999642" y="0.005" width="0.5613333333333215" height="0.5613333333333215" fill="#252525" />
<rect x="2.270333333333286" y="0.005" width="0.5613333333333215" height="0.5613333333333215" fill="#37D449" />
<rect x="0.005" y="0.5713333333333215" width="0.5613333333333215" height="0.5613333333333215" fill="#37D449" />
<rect x="0.5713333333333215" y="0.5713333333333215" width="0.5613333333333215" height="0.5613333333333215" fill="#252525" />
<rect x="1.1376666666666428" y="0.5713333333333215" width="0.5613333333333215" height="0.5613333333333215" fill="#37D449" />
<rect x="1.7039999999999642" y="0.5713333333333215" width="0.5613333333333215" height="0.5613333333333215" fill="#37D449" />
<rect x="2.270333333333286" y="0.5713333333333215" width="0.5613333333333215" height="0.5613333333333215" fill="#37D449" />
<rect x="0.005" y="1.1376666666666428" width="0.5613333333333215" height="0.5613333333333215" fill="#37D449" />
<rect x="0.5713333333333215" y="1.1376666666666428" width="0.5613333333333215" height="0.5613333333333215" fill="#37D449" />
<rect x="1.1376666666666428" y="1.1376666666666428" width="0.5613333333333215" height="0.5613333333333215" fill="#252525" />
<rect x="1.7039999999999642" y="1.1376666666666428" width="0.5613333333333215" height="0.5613333333333215" fill="#37D449" />
<rect x="2.270333333333286" y="1.1376666666666428" width="0.5613333333333215" height="0.5613333333333215" fill="#37D449" />
<rect x="0.005" y="1.7039999999999642" width="0.5613333333333215" height="0.5613333333333215" fill="#37D449" />
<rect x="0.5713333333333215" y="1.7039999999999642" width="0.5613333333333215" height="0.5613333333333215" fill="#37D449" />
<rect x="1.1376666666666428" y="1.7039999999999642" width="0.5613333333333215" height="0.5613333333333215" fill="#37D449" />
<rect x="1.7039999999999642" y="1.7039999999999642" width="0.5613333333333215" height="0.5613333333333215" fill="#252525" />
<rect x="2.270333333333286" y="1.7039999999999642" width="0.5613333333333215" height="0.5613333333333215" fill="#37D449" />
<rect x="0.005" y="2.270333333333286" width="0.5613333333333215" height="0.5613333333333215" fill="#37D449" />
<rect x="0.5713333333333215" y="2.270333333333286" width="0.5613333333333215" height="0.5613333333333215" fill="#252525" />
<rect x="1.1376666666666428" y="2.270333333333286" width="0.5613333333333215" height="0.5613333333333215" fill="#37D449" />
<rect x="1.7039999999999642" y="2.270333333333286" width="0.5613333333333215" height="0.5613333333333215" fill="#252525" />
<rect x="2.270333333333286" y="2.270333333333286" width="0.5613333333333215" height="0.5613333333333215" fill="#37D449" />
<rect x="0.005" y="2.8366666666666074" width="0.5613333333333215" height="0.5613333333333215" fill="#252525" />
<rect x="0.5713333333333215" y="2.8366666666666074" width="0.5613333333333215" height="0.5613333333333215" fill="#252525" />
<rect x="1.1376666666666428" y="2.8366666666666074" width="0.5613333333333215" height="0.5613333333333215" fill="#252525" />
<rect x="1.7039999999999642" y="2.8366666666666074" width="0.5613333333333215" height="0.5613333333333215" fill="#37D449" />
<rect x="2.270333333333286" y="2.8366666666666074" width="0.5613333333333215" height="0.5613333333333215" fill="#37D449" />
<rect x="-0.02666666666666667" y="-0.02666666666666667" width="2.8849999999999407" height="3.451333333333262" fill="none" stroke="#111111ff" stroke-width="0.08" />
<text x="2.8316666666666075" y="3.8667499999999286" font-size="0.375" fill="black" text-anchor="end" font-family="Anuphan">5x6</text>
<text x="-0.037500000000000006" y="3.8667499999999286" font-size="0.375" fill="black" text-anchor="start" font-family="Anuphan" font-weight="600">Output 4</text>
</g>
</defs>
<rect x="0" y="0" width="100%" height="100%" fill="#eeeff6" />
<use xlink:href="#d0" x="0.6225641025640731" y="0.25" />
<use xlink:href="#d1" x="3.954230769230681" y="0.25" />
<use xlink:href="#d2" x="7.285897435897288" y="0.25" />
<use xlink:href="#d3" x="10.617564102563897" y="0.25" />
<use xlink:href="#d4" x="13.949230769230503" y="0.25" />
<use xlink:href="#d5" x="17.28089743589711" y="0.25" />
<path d="M1.2932692307692306,6.325 L1.2932692307692306,6.7250000000000005" stroke-width="0.05" stroke="#888888" />
<path d="M1.1432692307692307,6.525 L1.2932692307692306,6.7250000000000005" stroke-width="0.05" stroke="#888888" />
<path d="M1.4432692307692305,6.525 L1.2932692307692306,6.7250000000000005" stroke-width="0.05" stroke="#888888" />
<use xlink:href="#d6" x="0.25" y="7.075" />
<path d="M4.624935897435838,6.325 L4.624935897435838,6.7250000000000005" stroke-width="0.05" stroke="#888888" />
<path d="M4.474935897435838,6.525 L4.624935897435838,6.7250000000000005" stroke-width="0.05" stroke="#888888" />
<path d="M4.774935897435839,6.525 L4.624935897435838,6.7250000000000005" stroke-width="0.05" stroke="#888888" />
<use xlink:href="#d7" x="3.5816666666666075" y="7.075" />
<path d="M7.956602564102446,6.325 L7.956602564102446,6.7250000000000005" stroke-width="0.05" stroke="#888888" />
<path d="M7.8066025641024455,6.525 L7.956602564102446,6.7250000000000005" stroke-width="0.05" stroke="#888888" />
<path d="M8.106602564102445,6.525 L7.956602564102446,6.7250000000000005" stroke-width="0.05" stroke="#888888" />
<use xlink:href="#d8" x="6.913333333333215" y="7.075" />
<path d="M11.288269230769053,6.325 L11.288269230769053,6.7250000000000005" stroke-width="0.05" stroke="#888888" />
<path d="M11.138269230769053,6.525 L11.288269230769053,6.7250000000000005" stroke-width="0.05" stroke="#888888" />
<path d="M11.438269230769054,6.525 L11.288269230769053,6.7250000000000005" stroke-width="0.05" stroke="#888888" />
<use xlink:href="#d9" x="10.244999999999823" y="7.075" />
<path d="M14.61993589743566,6.325 L14.61993589743566,6.7250000000000005" stroke-width="0.05" stroke="#888888" />
<path d="M14.46993589743566,6.525 L14.61993589743566,6.7250000000000005" stroke-width="0.05" stroke="#888888" />
<path d="M14.76993589743566,6.525 L14.61993589743566,6.7250000000000005" stroke-width="0.05" stroke="#888888" />
<text x="14.992499999999733" y="8.873999999999963" font-size="1" font-family="Anuphan" font-weight="700" fill="#333333" text-anchor="middle" alignment-baseline="middle">?</text>
<path d="M17.951602564102267,6.325 L17.951602564102267,6.7250000000000005" stroke-width="0.05" stroke="#888888" />
<path d="M17.801602564102268,6.525 L17.951602564102267,6.7250000000000005" stroke-width="0.05" stroke="#888888" />
<path d="M18.101602564102265,6.525 L17.951602564102267,6.7250000000000005" stroke-width="0.05" stroke="#888888" />
<text x="18.32416666666634" y="8.873999999999963" font-size="1" font-family="Anuphan" font-weight="700" fill="#333333" text-anchor="middle" alignment-baseline="middle">?</text>
<text x="19.9" y="11.299999999999999" font-size="0.3" font-family="Anuphan" font-weight="600" fill="#666666" text-anchor="end" alignment-baseline="bottom">Task 3428a4f5</text>
</svg>