<?xml version="1.0" encoding="UTF-8"?>
<svg xmlns="http://www.w3.org/2000/svg" xmlns:xlink="http://www.w3.org/1999/xlink"
     width="800.0" height="536.0" viewBox="0 0 20.0 13.399999999999999">
<defs>
<g id="d0">
<rect x="0.005" y="0.005" width="1.1935416666666308" height="1.1935416666666308" fill="#F012BE" />
<rect x="1.2035416666666305" y="0.005" width="1.1935416666666308" height="1.1935416666666308" fill="#F012BE" />
<rect x="2.402083333333261" y="0.005" width="1.1935416666666308" height="1.1935416666666308" fill="#FF871E" />
<rect x="3.6006249999998916" y="0.005" width="1.1935416666666308" height="1.1935416666666308" fill="#F012BE" />
<rect x="0.005" y="1.2035416666666305" width="1.1935416666666308" height="1.1935416666666308" fill="#F012BE" />
<rect x="1.2035416666666305" y="1.2035416666666305" width="1.1935416666666308" height="1.1935416666666308" fill="#F012BE" />
<rect x="2.402083333333261" y="1.2035416666666305" width="1.1935416666666308" height="1.1935416666666308" fill="#FF871E" />
<rect x="3.6006249999998916" y="1.2035416666666305" width="1.1935416666666308" height="1.1935416666666308" fill="#FF871E" />
<rect x="0.005" y="2.402083333333261" width="1.1935416666666308" height="1.1935416666666308" fill="#FF871E" />
<rect x="1.2035416666666305" y="2.402083333333261" width="1.1935416666666308" height="1.1935416666666308" fill="#FF871E" />
<rect x="2.402083333333261" y="2.402083333333261" width="1.1935416666666308" height="1.1935416666666308" fill="#F012BE" />
<rect x="3.6006249999998916" y="2.402083333333261" width="1.1935416666666308" height="1.1935416666666308" fill="#FF871E" />
<rect x="-0.02666666666666667" y="-0.02666666666666667" width="4.847499999999856" height="3.648958333333225" fill="none" stroke="#111111ff" stroke-width="0.08" />
<text x="4.794166666666523" y="4.064374999999892" font-size="0.375" fill="black" text-anchor="end" font-family="Anuphan">4x3</text>
<text x="-0.037500000000000006" y="4.064374999999892" font-size="0.375" fill="black" text-anchor="start" font-family="Anuphan" font-weight="600">Input 1</text>
</g>
<g id="d1">
<rect x="0.005" y="0.005" width="0.8968749999999835" height="0.8968749999999835" fill="#FF871E" />
<rect x="0.9068749999999836" y="0.005" width="0.8968749999999835" height="0.8968749999999835" fill="#FF871E" />
<rect x="1.808749999999967" y="0.005" width="0.8968749999999835" height="0.8968749999999835" fill="#FF871E" />
<rect x="2.7106249999999505" y="0.005" width="0.8968749999999835" height="0.8968749999999835" fill="#F012BE" />
<rect x="0.005" y="0.9068749999999836" width="0.8968749999999835" height="0.8968749999999835" fill="#F012BE" />
<rect x="0.9068749999999836" y="0.9068749999999836" width="0.8968749999999835" height="0.8968749999999835" fill="#F012BE" />
<rect x="1.808749999999967" y="0.9068749999999836" width="0.8968749999999835" height="0.8968749999999835" fill="#FF871E" />
<rect x="2.7106249999999505" y="0.9068749999999836" width="0.8968749999999835" height="0.8968749999999835" fill="#F012BE" />
<rect x="0.005" y="1.808749999999967" width="0.8968749999999835" height="0.8968749999999835" fill="#FF871E" />
<rect x="0.9068749999999836" y="1.808749999999967" width="0.8968749999999835" height="0.8968749999999835" fill="#FF871E" />
<rect x="1.808749999999967" y="1.808749999999967" width="0.8968749999999835" height="0.8968749999999835" fill="#F012BE" />
<rect x="2.7106249999999505" y="1.808749999999967" width="0.8968749999999835" height="0.8968749999999835" fill="#FF871E" />
<rect x="0.005" y="2.7106249999999505" width="0.8968749999999835" height="0.8968749999999835" fill="#FF871E" />
<rect x="0.9068749999999836" y="2.7106249999999505" width="0.8968749999999835" height="0.8968749999999835" fill="#F012BE" />
<rect x="1.808749999999967" y="2.7106249999999505" width="0.8968749999999835" height="0.8968749999999835" fill="#FF871E" />
<rect x="2.7106249999999505" y="2.7106249999999505" width="0.8968749999999835" height="0.8968749999999835" fill="#FF871E" />
<rect x="0.005" y="3.612499999999934" width="0.8968749999999835" height="0.8968749999999835" fill="#FF871E" />
<rect x="0.9068749999999836" y="3.612499999999934" width="0.8968749999999835" height="0.8968749999999835" fill="#F012BE" />
<rect x="1.808749999999967" y="3.612499999999934" width="0.8968749999999835" height="0.8968749999999835" fill="#FF871E" />
<rect x="2.7106249999999505" y="3.612499999999934" width="0.8968749999999835" height="0.8968749999999835" fill="#F012BE" />
<rect x="0.005" y="4.514374999999918" width="0.8968749999999835" height="0.8968749999999835" fill="#F012BE" />
<rect x="0.9068749999999836" y="4.514374999999918" width="0.8968749999999835" height="0.8968749999999835" fill="#F012BE" />
<rect x="1.808749999999967" y="4.514374999999918" width="0.8968749999999835" height="0.8968749999999835" fill="#F012BE" />
<rect x="2.7106249999999505" y="4.514374999999918" width="0.8968749999999835" height="0.8968749999999835" fill="#FF871E" />
<rect x="-0.02666666666666667" y="-0.02666666666666667" width="3.6608333333332674" height="5.464583333333235" fill="none" stroke="#111111ff" stroke-width="0.08" />
<text x="3.607499999999934" y="5.879999999999901" font-size="0.375" fill="black" text-anchor="end" font-family="Anuphan">4x6</text>
<text x="-0.037500000000000006" y="5.879999999999901" font-size="0.375" fill="black" text-anchor="start" font-family="Anuphan" font-weight="600">Input 2</text>
</g>
<g id="d2">
<rect x="0.005" y="0.005" width="0.7940277777777538" height="0.7940277777777538" fill="#FF871E" />
<rect x="0.8040277777777538" y="0.005" width="0.7940277777777538" height="0.7940277777777538" fill="#FF871E" />
<rect x="1.6030555555555075" y="0.005" width="0.7940277777777538" height="0.7940277777777538" fill="#F012BE" />
<rect x="2.402083333333261" y="0.005" width="0.7940277777777538" height="0.7940277777777538" fill="#F012BE" />
<rect x="3.201111111111015" y="0.005" width="0.7940277777777538" height="0.7940277777777538" fill="#F012BE" />
<rect x="4.0001388888887695" y="0.005" width="0.7940277777777538" height="0.7940277777777538" fill="#F012BE" />
<rect x="0.005" y="0.8040277777777538" width="0.7940277777777538" height="0.7940277777777538" fill="#F012BE" />
<rect x="0.8040277777777538" y="0.8040277777777538" width="0.7940277777777538" height="0.7940277777777538" fill="#FF871E" />
<rect x="1.6030555555555075" y="0.8040277777777538" width="0.7940277777777538" height="0.7940277777777538" fill="#F012BE" />
<rect x="2.402083333333261" y="0.8040277777777538" width="0.7940277777777538" height="0.7940277777777538" fill="#FF871E" />
<rect x="3.201111111111015" y="0.8040277777777538" width="0.7940277777777538" height="0.7940277777777538" fill="#FF871E" />
<rect x="4.0001388888887695" y="0.8040277777777538" width="0.7940277777777538" height="0.7940277777777538" fill="#FF871E" />
<rect x="0.005" y="1.6030555555555075" width="0.7940277777777538" height="0.7940277777777538" fill="#FF871E" />
<rect x="0.8040277777777538" y="1.6030555555555075" width="0.7940277777777538" height="0.7940277777777538" fill="#F012BE" />
<rect x="1.6030555555555075" y="1.6030555555555075" width="0.7940277777777538" height="0.7940277777777538" fill="#FF871E" />
<rect x="2.402083333333261" y="1.6030555555555075" width="0.7940277777777538" height="0.7940277777777538" fill="#FF871E" />
<rect x="3.201111111111015" y="1.6030555555555075" width="0.7940277777777538" height="0.7940277777777538" fill="#F012BE" />
<rect x="4.0001388888887695" y="1.6030555555555075" width="0.7940277777777538" height="0.7940277777777538" fill="#FF871E" />
<rect x="-0.02666666666666667" y="-0.02666666666666667" width="4.847499999999856" height="2.4504166666665945" fill="none" stroke="#111111ff" stroke-width="0.08" />
<text x="4.794166666666523" y="2.8658333333332613" font-size="0.375" fill="black" text-anchor="end" font-family="Anuphan">6x3</text>
<text x="-0.037500000000000006" y="2.8658333333332613" font-size="0.375" fill="black" text-anchor="start" font-family="Anuphan" font-weight="600">Input 3</text>
</g>
<g id="d3">
<rect x="0.005" y="0.005" width="1.1935416666666308" height="1.1935416666666308" fill="#F012BE" />
<rect x="1.2035416666666305" y="0.005" width="1.1935416666666308" height="1.1935416666666308" fill="#FF871E" />
<rect x="2.402083333333261" y="0.005" width="1.1935416666666308" height="1.1935416666666308" fill="#FF871E" />
<rect x="3.6006249999998916" y="0.005" width="1.1935416666666308" height="1.1935416666666308" fill="#F012BE" />
<rect x="0.005" y="1.2035416666666305" width="1.1935416666666308" height="1.1935416666666308" fill="#F012BE" />
<rect x="1.2035416666666305" y="1.2035416666666305" width="1.1935416666666308" height="1.1935416666666308" fill="#FF871E" />
<rect x="2.402083333333261" y="1.2035416666666305" width="1.1935416666666308" height="1.1935416666666308" fill="#F012BE" />
<rect x="3.6006249999998916" y="1.2035416666666305" width="1.1935416666666308" height="1.1935416666666308" fill="#FF871E" />
<rect x="0.005" y="2.402083333333261" width="1.1935416666666308" height="1.1935416666666308" fill="#FF871E" />
<rect x="1.2035416666666305" y="2.402083333333261" width="1.1935416666666308" height="1.1935416666666308" fill="#FF871E" />
<rect x="2.402083333333261" y="2.402083333333261" width="1.1935416666666308" height="1.1935416666666308" fill="#FF871E" />
<rect x="3.6006249999998916" y="2.402083333333261" width="1.1935416666666308" height="1.1935416666666308" fill="#F012BE" />
<rect x="0.005" y="3.6006249999998916" width="1.1935416666666308" height="1.1935416666666308" fill="#FF871E" />
<rect x="1.2035416666666305" y="3.6006249999998916" width="1.1935416666666308" height="1.1935416666666308" fill="#F012BE" />
<rect x="2.402083333333261" y="3.6006249999998916" width="1.1935416666666308" height="1.1935416666666308" fill="#FF871E" />
<rect x="3.6006249999998916" y="3.6006249999998916" width="1.1935416666666308" height="1.1935416666666308" fill="#F012BE" />
<rect x="-0.02666666666666667" y="-0.02666666666666667" width="4.847499999999856" height="4.847499999999856" fill="none" stroke="#111111ff" stroke-width="0.08" />
<text x="4.794166666666523" y="5.262916666666523" font-size="0.375" fill="black" text-anchor="end" font-family="Anuphan">4x4</text>
<text x="-0.037500000000000006" y="5.262916666666523" font-size="0.375" fill="black" text-anchor="start" font-family="Anuphan" font-weight="600">Test 1</text>
</g>
<g id="d4">
<rect x="0.005" y="0.005" width="1.1935416666666308" height="1.1935416666666308" fill="#FF4136" />
<rect x="1.2035416666666305" y="0.005" width="1.1935416666666308" height="1.1935416666666308" fill="#FF4136" />
<rect x="2.402083333333261" y="0.005" width="1.1935416666666308" height="1.1935416666666308" fill="#FF871E" />
<rect x="3.6006249999998916" y="0.005" width="1.1935416666666308" height="1.1935416666666308" fill="#FF4136" />
<rect x="0.005" y="1.2035416666666305" width="1.1935416666666308" height="1.1935416666666308" fill="#FF4136" />
<rect x="1.2035416666666305" y="1.2035416666666305" width="1.1935416666666308" height="1.1935416666666308" fill="#FF4136" />
<rect x="2.402083333333261" y="1.2035416666666305" width="1.1935416666666308" height="1.1935416666666308" fill="#FF871E" />
<rect x="3.6006249999998916" y="1.2035416666666305" width="1.1935416666666308" height="1.1935416666666308" fill="#FF871E" />
<rect x="0.005" y="2.402083333333261" width="1.1935416666666308" height="1.1935416666666308" fill="#FF871E" />
<rect x="1.2035416666666305" y="2.402083333333261" width="1.1935416666666308" height="1.1935416666666308" fill="#FF871E" />
<rect x="2.402083333333261" y="2.402083333333261" width="1.1935416666666308" height="1.1935416666666308" fill="#FF4136" />
<rect x="3.6006249999998916" y="2.402083333333261" width="1.1935416666666308" height="1.1935416666666308" fill="#FF871E" />
<rect x="-0.02666666666666667" y="-0.02666666666666667" width="4.847499999999856" height="3.648958333333225" fill="none" stroke="#111111ff" stroke-width="0.08" />
<text x="4.794166666666523" y="4.064374999999892" font-size="0.375" fill="black" text-anchor="end" font-family="Anuphan">4x3</text>
<text x="-0.037500000000000006" y="4.064374999999892" font-size="0.375" fill="black" text-anchor="start" font-family="Anuphan" font-weight="600">Output 1</text>
</g>
<g id="d5">
<rect x="0.005" y="0.005" width="0.8968749999999835" height="0.8968749999999835" fill="#FF871E" />
<rect x="0.9068749999999836" y="0.005" width="0.8968749999999835" height="0.8968749999999835" fill="#FF871E" />
<rect x="1.808749999999967" y="0.005" width="0.8968749999999835" height="0.8968749999999835" fill="#FF871E" />
<rect x="2.7106249999999505" y="0.005" width="0.8968749999999835" height="0.8968749999999835" fill="#FF4136" />
<rect x="0.005" y="0.9068749999999836" width="0.8968749999999835" height="0.8968749999999835" fill="#FF4136" />
<rect x="0.9068749999999836" y="0.9068749999999836" width="0.8968749999999835" height="0.8968749999999835" fill="#FF4136" />
<rect x="1.808749999999967" y="0.9068749999999836" width="0.8968749999999835" height="0.8968749999999835" fill="#FF871E" />
<rect x="2.7106249999999505" y="0.9068749999999836" width="0.8968749999999835" height="0.8968749999999835" fill="#FF4136" />
<rect x="0.005" y="1.808749999999967" width="0.8968749999999835" height="0.8968749999999835" fill="#FF871E" />
<rect x="0.9068749999999836" y="1.808749999999967" width="0.8968749999999835" height="0.8968749999999835" fill="#FF871E" />
<rect x="1.808749999999967" y="1.808749999999967" width="0.8968749999999835" height="0.8968749999999835" fill="#FF4136" />
<rect x="2.7106249999999505" y="1.808749999999967" width="0.8968749999999835" height="0.8968749999999835" fill="#FF871E" />
<rect x="0.005" y="2.7106249999999505" width="0.8968749999999835" height="0.8968749999999835" fill="#FF871E" />
<rect x="0.9068749999999836" y="2.7106249999999505" width="0.8968749999999835" height="0.8968749999999835" fill="#FF4136" />
<rect x="1.808749999999967" y="2.7106249999999505" width="0.8968749999999835" height="0.8968749999999835" fill="#FF871E" />
<rect x="2.7106249999999505" y="2.7106249999999505" width="0.8968749999999835" height="0.8968749999999835" fill="#FF871E" />
<rect x="0.005" y="3.612499999999934" width="0.8968749999999835" height="0.8968749999999835" fill="#FF871E" />
<rect x="0.9068749999999836" y="3.612499999999934" width="0.8968749999999835" height="0.8968749999999835" fill="#FF4136" />
<rect x="1.808749999999967" y="3.612499999999934" width="0.8968749999999835" height="0.8968749999999835" fill="#FF871E" />
<rect x="2.7106249999999505" y="3.612499999999934" width="0.8968749999999835" height="0.8968749999999835" fill="#FF4136" />
<rect x="0.005" y="4.514374999999918" width="0.8968749999999835" height="0.8968749999999835" fill="#FF4136" />
<rect x="0.9068749999999836" y="4.514374999999918" width="0.8968749999999835" height="0.8968749999999835" fill="#FF4136" />
<rect x="1.808749999999967" y="4.514374999999918" width="0.8968749999999835" height="0.8968749999999835" fill="#FF4136" />
<rect x="2.7106249999999505" y="4.514374999999918" width="0.8968749999999835" height="0.8968749999999835" fill="#FF871E" />
<rect x="-0.02666666666666667" y="-0.02666666666666667" width="3.6608333333332674" height="5.464583333333235" fill="none" stroke="#111111ff" stroke-width="0.08" />
<text x="3.607499999999934" y="5.879999999999901" font-size="0.375" fill="black" text-anchor="end" font-family="Anuphan">4x6</text>
<text x="-0.037500000000000006" y="5.879999999999901" font-size="0.375" fill="black" text-anchor="start" font-family="Anuphan" font-weight="600">Output 2</text>
</g>
<g id="d6">
<rect x="0.005" y="0.005" width="0.7940277777777538" height="0.7940277777777538" fill="#FF871E" />
<rect x="0.8040277777777538" y="0.005" width="0.7940277777777538" height="0.7940277777777538" fill="#FF871E" />
<rect x="1.6030555555555075" y="0.005" width="0.7940277777777538" height="0.7940277777777538" fill="#FF4136" />
<rect x="2.402083333333261" y="0.005" width="0.7940277777777538" height="0.7940277777777538" fill="#FF4136" />
<rect x="3.201111111111015" y="0.005" width="0.7940277777777538" height="0.7940277777777538" fill="#FF4136" />
<rect x="4.0001388888887695" y="0.005" width="0.7940277777777538" height="0.7940277777777538" fill="#FF4136" />
<rect x="0.005" y="0.8040277777777538" width="0.7940277777777538" height="0.7940277777777538" fill="#FF4136" />
<rect x="0.8040277777777538" y="0.8040277777777538" width="0.7940277777777538" height="0.7940277777777538" fill="#FF871E" />
<rect x="1.6030555555555075" y="0.8040277777777538" width="0.7940277777777538" height="0.7940277777777538" fill="#FF4136" />
<rect x="2.402083333333261" y="0.8040277777777538" width="0.7940277777777538" height="0.7940277777777538" fill="#FF871E" />
<rect x="3.201111111111015" y="0.8040277777777538" width="0.7940277777777538" height="0.7940277777777538" fill="#FF871E" />
<rect x="4.0001388888887695" y="0.8040277777777538" width="0.7940277777777538" height="0.7940277777777538" fill="#FF871E" />
<rect x="0.005" y="1.6030555555555075" width="0.7940277777777538" height="0.7940277777777538" fill="#FF871E" />
<rect x="0.8040277777777538" y="1.6030555555555075" width="0.7940277777777538" height="0.7940277777777538" fill="#FF4136" />
<rect x="1.6030555555555075" y="1.6030555555555075" width="0.7940277777777538" height="0.7940277777777538" fill="#FF871E" />
<rect x="2.402083333333261" y="1.6030555555555075" width="0.7940277777777538" height="0.7940277777777538" fill="#FF871E" />
<rect x="3.201111111111015" y="1.6030555555555075" width="0.7940277777777538" height="0.7940277777777538" fill="#FF4136" />
<rect x="4.0001388888887695" y="1.6030555555555075" width="0.7940277777777538" height="0.7940277777777538" fill="#FF871E" />
<rect x="-0.02666666666666667" y="-0.02666666666666667" width="4.847499999999856" height="2.4504166666665945" fill="none" stroke="#111111ff" stroke-width="0.08" />
<text x="4.794166666666523" y="2.8658333333332613" font-size="0.375" fill="black" text-anchor="end" font-family="Anuphan">6x3</text>
<text x="-0.037500000000000006" y="2.8658333333332613" font-size="0.375" fill="black" text-anchor="start" font-family="Anuphan" font-weight="600">Output 3</text>
</g>
</defs>
<rect x="0" y="0" width="100%" height="100%" fill="#eeeff6" />
<use xlink:href="#d0" x="0.25" y="0.25" />
<use xlink:href="#d1" x="5.544166666666523" y="0.25" />
<use xlink:href="#d2" x="9.651666666666458" y="0.25" />
<use xlink:href="#d3" x="14.945833333332981" y="0.25" />
<path d="M2.6470833333332613,6.311249999999902 L2.6470833333332613,6.711249999999902" stroke-width="0.05" stroke="#888888" />
<path d="M2.4970833333332614,6.511249999999902 L2.6470833333332613,6.711249999999902" stroke-width="0.05" stroke="#888888" />
<path d="M2.797083333333261,6.511249999999902 L2.6470833333332613,6.711249999999902" stroke-width="0.05" stroke="#888888" />
<use xlink:href="#d4" x="0.25" y="7.061249999999902" />
<path d="M7.34791666666649,6.311249999999902 L7.34791666666649,6.711249999999902" stroke-width="0.05" stroke="#888888" />
<path d="M7.197916666666489,6.511249999999902 L7.34791666666649,6.711249999999902" stroke-width="0.05" stroke="#888888" />
<path d="M7.49791666666649,6.511249999999902 L7.34791666666649,6.711249999999902" stroke-width="0.05" stroke="#888888" />
<use xlink:href="#d5" x="5.544166666666523" y="7.061249999999902" />
<path d="M12.04874999999972,6.311249999999902 L12.04874999999972,6.711249999999902" stroke-width="0.05" stroke="#888888" />
<path d="M11.898749999999719,6.511249999999902 L12.04874999999972,6.711249999999902" stroke-width="0.05" stroke="#888888" />
<path d="M12.19874999999972,6.511249999999902 L12.04874999999972,6.711249999999902" stroke-width="0.05" stroke="#888888" />
<use xlink:href="#d6" x="9.651666666666458" y="7.061249999999902" />
<path d="M17.34291666666624,6.311249999999902 L17.34291666666624,6.711249999999902" stroke-width="0.05" stroke="#888888" />
<path d="M17.192916666666243,6.511249999999902 L17.34291666666624,6.711249999999902" stroke-width="0.05" stroke="#888888" />
<path d="M17.49291666666624,6.511249999999902 L17.34291666666624,6.711249999999902" stroke-width="0.05" stroke="#888888" />
<text x="17.34291666666624" y="9.558333333333163" font-size="1" font-family="Anuphan" font-weight="700" fill="#333333" text-anchor="middle" alignment-baseline="middle">?</text>
<text x="19.9" y="13.299999999999999" font-size="0.3" font-family="Anuphan" font-weight="600" fill="#666666" text-anchor="end" alignment-baseline="bottom">Task b1948b0a</text>
</svg>