<?xml version="1.0" encoding="UTF-8"?>
<svg xmlns="http://www.w3.org/2000/svg" xmlns:xlink="http://www.w3.org/1999/xlink"
     width="800.0" height="520.0" viewBox="0 0 20.0 13.0">
<defs>
<g id="d0">
<rect x="0.005" y="0.005" width="0.49472222222222256" height="0.49472222222222256" fill="#252525" />
<rect x="0.5047222222222225" y="0.005" width="0.49472222222222256" height="0.49472222222222256" fill="#252525" />
<rect x="1.0044444444444451" y="0.005" width="0.49472222222222256" height="0.49472222222222256" fill="#252525" />
<rect x="1.5041666666666675" y="0.005" width="0.49472222222222256" height="0.49472222222222256" fill="#252525" />
<rect x="2.0038888888888904" y="0.005" width="0.49472222222222256" height="0.49472222222222256" fill="#E6E6E6" />
<rect x="2.5036111111111126" y="0.005" width="0.49472222222222256" height="0.49472222222222256" fill="#252525" />
<rect x="3.003333333333335" y="0.005" width="0.49472222222222256" height="0.49472222222222256" fill="#252525" />
<rect x="3.503055555555558" y="0.005" width="0.49472222222222256" height="0.49472222222222256" fill="#252525" />
<rect x="4.002777777777781" y="0.005" width="0.49472222222222256" height="0.49472222222222256" fill="#252525" />
<rect x="0.005" y="0.5047222222222225" width="0.49472222222222256" height="0.49472222222222256" fill="#252525" />
<rect x="0.5047222222222225" y="0.5047222222222225" width="0.49472222222222256" height="0.49472222222222256" fill="#252525" />
<rect x="1.0044444444444451" y="0.5047222222222225" width="0.49472222222222256" height="0.49472222222222256" fill="#252525" />
<rect x="1.5041666666666675" y="0.5047222222222225" width="0.49472222222222256" height="0.49472222222222256" fill="#252525" />
<rect x="2.0038888888888904" y="0.5047222222222225" width="0.49472222222222256" height="0.49472222222222256" fill="#E6E6E6" />
<rect x="2.5036111111111126" y="0.5047222222222225" width="0.49472222222222256" height="0.49472222222222256" fill="#252525" />
<rect x="3.003333333333335" y="0.5047222222222225" width="0.49472222222222256" height="0.49472222222222256" fill="#252525" />
<rect x="3.503055555555558" y="0.5047222222222225" width="0.49472222222222256" height="0.49472222222222256" fill="#252525" />
<rect x="4.002777777777781" y="0.5047222222222225" width="0.49472222222222256" height="0.49472222222222256" fill="#252525" />
<rect x="0.005" y="1.0044444444444451" width="0.49472222222222256" height="0.49472222222222256" fill="#252525" />
<rect x="0.5047222222222225" y="1.0044444444444451" width="0.49472222222222256" height="0.49472222222222256" fill="#252525" />
<rect x="1.0044444444444451" y="1.0044444444444451" width="0.49472222222222256" height="0.49472222222222256" fill="#252525" />
<rect x="1.5041666666666675" y="1.0044444444444451" width="0.49472222222222256" height="0.49472222222222256" fill="#FFDC00" />
<rect x="2.0038888888888904" y="1.0044444444444451" width="0.49472222222222256" height="0.49472222222222256" fill="#E6E6E6" />
<rect x="2.5036111111111126" y="1.0044444444444451" width="0.49472222222222256" height="0.49472222222222256" fill="#252525" />
<rect x="3.003333333333335" y="1.0044444444444451" width="0.49472222222222256" height="0.49472222222222256" fill="#252525" />
<rect x="3.503055555555558" y="1.0044444444444451" width="0.49472222222222256" height="0.49472222222222256" fill="#252525" />
<rect x="4.002777777777781" y="1.0044444444444451" width="0.49472222222222256" height="0.49472222222222256" fill="#252525" />
<rect x="0.005" y="1.5041666666666675" width="0.49472222222222256" height="0.49472222222222256" fill="#252525" />
<rect x="0.5047222222222225" y="1.5041666666666675" width="0.49472222222222256" height="0.49472222222222256" fill="#252525" />
<rect x="1.0044444444444451" y="1.5041666666666675" width="0.49472222222222256" height="0.49472222222222256" fill="#252525" />
<rect x="1.5041666666666675" y="1.5041666666666675" width="0.49472222222222256" height="0.49472222222222256" fill="#FFDC00" />
<rect x="2.0038888888888904" y="1.5041666666666675" width="0.49472222222222256" height="0.49472222222222256" fill="#E6E6E6" />
<rect x="2.5036111111111126" y="1.5041666666666675" width="0.49472222222222256" height="0.49472222222222256" fill="#FFDC00" />
<rect x="3.003333333333335" y="1.5041666666666675" width="0.49472222222222256" height="0.49472222222222256" fill="#FFDC00" />
<rect x="3.503055555555558" y="1.5041666666666675" width="0.49472222222222256" height="0.49472222222222256" fill="#252525" />
<rect x="4.002777777777781" y="1.5041666666666675" width="0.49472222222222256" height="0.49472222222222256" fill="#252525" />
<rect x="0.005" y="2.0038888888888904" width="0.49472222222222256" height="0.49472222222222256" fill="#252525" />
<rect x="0.5047222222222225" y="2.0038888888888904" width="0.49472222222222256" height="0.49472222222222256" fill="#252525" />
<rect x="1.0044444444444451" y="2.0038888888888904" width="0.49472222222222256" height="0.49472222222222256" fill="#37D449" />
<rect x="1.5041666666666675" y="2.0038888888888904" width="0.49472222222222256" height="0.49472222222222256" fill="#37D449" />
<rect x="2.0038888888888904" y="2.0038888888888904" width="0.49472222222222256" height="0.49472222222222256" fill="#E6E6E6" />
<rect x="2.5036111111111126" y="2.0038888888888904" width="0.49472222222222256" height="0.49472222222222256" fill="#252525" />
<rect x="3.003333333333335" y="2.0038888888888904" width="0.49472222222222256" height="0.49472222222222256" fill="#252525" />
<rect x="3.503055555555558" y="2.0038888888888904" width="0.49472222222222256" height="0.49472222222222256" fill="#252525" />
<rect x="4.002777777777781" y="2.0038888888888904" width="0.49472222222222256" height="0.49472222222222256" fill="#252525" />
<rect x="0.005" y="2.5036111111111126" width="0.49472222222222256" height="0.49472222222222256" fill="#252525" />
<rect x="0.5047222222222225" y="2.5036111111111126" width="0.49472222222222256" height="0.49472222222222256" fill="#252525" />
<rect x="1.0044444444444451" y="2.5036111111111126" width="0.49472222222222256" height="0.49472222222222256" fill="#252525" />
<rect x="1.5041666666666675" y="2.5036111111111126" width="0.49472222222222256" height="0.49472222222222256" fill="#37D449" />
<rect x="2.0038888888888904" y="2.5036111111111126" width="0.49472222222222256" height="0.49472222222222256" fill="#E6E6E6" />
<rect x="2.5036111111111126" y="2.5036111111111126" width="0.49472222222222256" height="0.49472222222222256" fill="#252525" />
<rect x="3.003333333333335" y="2.5036111111111126" width="0.49472222222222256" height="0.49472222222222256" fill="#252525" />
<rect x="3.503055555555558" y="2.5036111111111126" width="0.49472222222222256" height="0.49472222222222256" fill="#252525" />
<rect x="4.002777777777781" y="2.5036111111111126" width="0.49472222222222256" height="0.49472222222222256" fill="#252525" />
<rect x="0.005" y="3.003333333333335" width="0.49472222222222256" height="0.49472222222222256" fill="#252525" />
<rect x="0.5047222222222225" y="3.003333333333335" width="0.49472222222222256" height="0.49472222222222256" fill="#252525" />
<rect x="1.0044444444444451" y="3.003333333333335" width="0.49472222222222256" height="0.49472222222222256" fill="#252525" />
<rect x="1.5041666666666675" y="3.003333333333335" width="0.49472222222222256" height="0.49472222222222256" fill="#37D449" />
<rect x="2.0038888888888904" y="3.003333333333335" width="0.49472222222222256" height="0.49472222222222256" fill="#E6E6E6" />
<rect x="2.5036111111111126" y="3.003333333333335" width="0.49472222222222256" height="0.49472222222222256" fill="#37D449" />
<rect x="3.003333333333335" y="3.003333333333335" width="0.49472222222222256" height="0.49472222222222256" fill="#37D449" />
<rect x="3.503055555555558" y="3.003333333333335" width="0.49472222222222256" height="0.49472222222222256" fill="#37D449" />
<rect x="4.002777777777781" y="3.003333333333335" width="0.49472222222222256" height="0.49472222222222256" fill="#252525" />
<rect x="0.005" y="3.503055555555558" width="0.49472222222222256" height="0.49472222222222256" fill="#252525" />
<rect x="0.5047222222222225" y="3.503055555555558" width="0.49472222222222256" height="0.49472222222222256" fill="#252525" />
<rect x="1.0044444444444451" y="3.503055555555558" width="0.49472222222222256" height="0.49472222222222256" fill="#252525" />
<rect x="1.5041666666666675" y="3.503055555555558" width="0.49472222222222256" height="0.49472222222222256" fill="#37D449" />
<rect x="2.0038888888888904" y="3.503055555555558" width="0.49472222222222256" height="0.49472222222222256" fill="#E6E6E6" />
<rect x="2.5036111111111126" y="3.503055555555558" width="0.49472222222222256" height="0.49472222222222256" fill="#252525" />
<rect x="3.003333333333335" y="3.503055555555558" width="0.49472222222222256" height="0.49472222222222256" fill="#252525" />
<rect x="3.503055555555558" y="3.503055555555558" width="0.49472222222222256" height="0.49472222222222256" fill="#252525" />
<rect x="4.002777777777781" y="3.503055555555558" width="0.49472222222222256" height="0.49472222222222256" fill="#252525" />
<rect x="0.005" y="4.002777777777781" width="0.49472222222222256" height="0.49472222222222256" fill="#252525" />
<rect x="0.5047222222222225" y="4.002777777777781" width="0.49472222222222256" height="0.49472222222222256" fill="#252525" />
<rect x="1.0044444444444451" y="4.002777777777781" width="0.49472222222222256" height="0.49472222222222256" fill="#252525" />
<rect x="1.5041666666666675" y="4.002777777777781" width="0.49472222222222256" height="0.49472222222222256" fill="#252525" />
<rect x="2.0038888888888904" y="4.002777777777781" width="0.49472222222222256" height="0.49472222222222256" fill="#E6E6E6" />
<rect x="2.5036111111111126" y="4.002777777777781" width="0.49472222222222256" height="0.49472222222222256" fill="#252525" />
<rect x="3.003333333333335" y="4.002777777777781" width="0.49472222222222256" height="0.49472222222222256" fill="#252525" />
<rect x="3.503055555555558" y="4.002777777777781" width="0.49472222222222256" height="0.49472222222222256" fill="#252525" />
<rect x="4.002777777777781" y="4.002777777777781" width="0.49472222222222256" height="0.49472222222222256" fill="#252525" />
<rect x="0.005" y="4.502500000000003" width="0.49472222222222256" height="0.49472222222222256" fill="#252525" />
<rect x="0.5047222222222225" y="4.502500000000003" width="0.49472222222222256" height="0.49472222222222256" fill="#252525" />
<rect x="1.0044444444444451" y="4.502500000000003" width="0.49472222222222256" height="0.49472222222222256" fill="#252525" />
<rect x="1.5041666666666675" y="4.502500000000003" width="0.49472222222222256" height="0.49472222222222256" fill="#252525" />
<rect x="2.0038888888888904" y="4.502500000000003" width="0.49472222222222256" height="0.49472222222222256" fill="#E6E6E6" />
<rect x="2.5036111111111126" y="4.502500000000003" width="0.49472222222222256" height="0.49472222222222256" fill="#252525" />
<rect x="3.003333333333335" y="4.502500000000003" width="0.49472222222222256" height="0.49472222222222256" fill="#252525" />
<rect x="3.503055555555558" y="4.502500000000003" width="0.49472222222222256" height="0.49472222222222256" fill="#252525" />
<rect x="4.002777777777781" y="4.502500000000003" width="0.49472222222222256" height="0.49472222222222256" fill="#252525" />
<rect x="-0.02666666666666667" y="-0.02666666666666667" width="4.550833333333337" height="5.050555555555559" fill="none" stroke="#111111ff" stroke-width="0.08" />
<text x="4.497500000000003" y="5.465972222222225" font-size="0.375" fill="black" text-anchor="end" font-family="Anuphan">9x10</text>
<text x="-0.037500000000000006" y="5.465972222222225" font-size="0.375" fill="black" text-anchor="start" font-family="Anuphan" font-weight="600">Input 1</text>
</g>
<g id="d1">
<rect x="0.005" y="0.005" width="0.49472222222222256" height="0.49472222222222256" fill="#252525" />
<rect x="0.5047222222222225" y="0.005" width="0.49472222222222256" height="0.49472222222222256" fill="#252525" />
<rect x="1.0044444444444451" y="0.005" width="0.49472222222222256" height="0.49472222222222256" fill="#252525" />
<rect x="1.5041666666666675" y="0.005" width="0.49472222222222256" height="0.49472222222222256" fill="#252525" />
<rect x="2.0038888888888904" y="0.005" width="0.49472222222222256" height="0.49472222222222256" fill="#E6E6E6" />
<rect x="2.5036111111111126" y="0.005" width="0.49472222222222256" height="0.49472222222222256" fill="#252525" />
<rect x="3.003333333333335" y="0.005" width="0.49472222222222256" height="0.49472222222222256" fill="#252525" />
<rect x="3.503055555555558" y="0.005" width="0.49472222222222256" height="0.49472222222222256" fill="#252525" />
<rect x="4.002777777777781" y="0.005" width="0.49472222222222256" height="0.49472222222222256" fill="#252525" />
<rect x="0.005" y="0.5047222222222225" width="0.49472222222222256" height="0.49472222222222256" fill="#252525" />
<rect x="0.5047222222222225" y="0.5047222222222225" width="0.49472222222222256" height="0.49472222222222256" fill="#252525" />
<rect x="1.0044444444444451" y="0.5047222222222225" width="0.49472222222222256" height="0.49472222222222256" fill="#252525" />
<rect x="1.5041666666666675" y="0.5047222222222225" width="0.49472222222222256" height="0.49472222222222256" fill="#FF4136" />
<rect x="2.0038888888888904" y="0.5047222222222225" width="0.49472222222222256" height="0.49472222222222256" fill="#E6E6E6" />
<rect x="2.5036111111111126" y="0.5047222222222225" width="0.49472222222222256" height="0.49472222222222256" fill="#252525" />
<rect x="3.003333333333335" y="0.5047222222222225" width="0.49472222222222256" height="0.49472222222222256" fill="#252525" />
<rect x="3.503055555555558" y="0.5047222222222225" width="0.49472222222222256" height="0.49472222222222256" fill="#252525" />
<rect x="4.002777777777781" y="0.5047222222222225" width="0.49472222222222256" height="0.49472222222222256" fill="#252525" />
<rect x="0.005" y="1.0044444444444451" width="0.49472222222222256" height="0.49472222222222256" fill="#252525" />
<rect x="0.5047222222222225" y="1.0044444444444451" width="0.49472222222222256" height="0.49472222222222256" fill="#252525" />
<rect x="1.0044444444444451" y="1.0044444444444451" width="0.49472222222222256" height="0.49472222222222256" fill="#252525" />
<rect x="1.5041666666666675" y="1.0044444444444451" width="0.49472222222222256" height="0.49472222222222256" fill="#FF4136" />
<rect x="2.0038888888888904" y="1.0044444444444451" width="0.49472222222222256" height="0.49472222222222256" fill="#E6E6E6" />
<rect x="2.5036111111111126" y="1.0044444444444451" width="0.49472222222222256" height="0.49472222222222256" fill="#FF4136" />
<rect x="3.003333333333335" y="1.0044444444444451" width="0.49472222222222256" height="0.49472222222222256" fill="#F012BE" />
<rect x="3.503055555555558" y="1.0044444444444451" width="0.49472222222222256" height="0.49472222222222256" fill="#252525" />
<rect x="4.002777777777781" y="1.0044444444444451" width="0.49472222222222256" height="0.49472222222222256" fill="#252525" />
<rect x="0.005" y="1.5041666666666675" width="0.49472222222222256" height="0.49472222222222256" fill="#252525" />
<rect x="0.5047222222222225" y="1.5041666666666675" width="0.49472222222222256" height="0.49472222222222256" fill="#252525" />
<rect x="1.0044444444444451" y="1.5041666666666675" width="0.49472222222222256" height="0.49472222222222256" fill="#252525" />
<rect x="1.5041666666666675" y="1.5041666666666675" width="0.49472222222222256" height="0.49472222222222256" fill="#FF4136" />
<rect x="2.0038888888888904" y="1.5041666666666675" width="0.49472222222222256" height="0.49472222222222256" fill="#E6E6E6" />
<rect x="2.5036111111111126" y="1.5041666666666675" width="0.49472222222222256" height="0.49472222222222256" fill="#252525" />
<rect x="3.003333333333335" y="1.5041666666666675" width="0.49472222222222256" height="0.49472222222222256" fill="#252525" />
<rect x="3.503055555555558" y="1.5041666666666675" width="0.49472222222222256" height="0.49472222222222256" fill="#252525" />
<rect x="4.002777777777781" y="1.5041666666666675" width="0.49472222222222256" height="0.49472222222222256" fill="#252525" />
<rect x="0.005" y="2.0038888888888904" width="0.49472222222222256" height="0.49472222222222256" fill="#252525" />
<rect x="0.5047222222222225" y="2.0038888888888904" width="0.49472222222222256" height="0.49472222222222256" fill="#252525" />
<rect x="1.0044444444444451" y="2.0038888888888904" width="0.49472222222222256" height="0.49472222222222256" fill="#252525" />
<rect x="1.5041666666666675" y="2.0038888888888904" width="0.49472222222222256" height="0.49472222222222256" fill="#FF4136" />
<rect x="2.0038888888888904" y="2.0038888888888904" width="0.49472222222222256" height="0.49472222222222256" fill="#E6E6E6" />
<rect x="2.5036111111111126" y="2.0038888888888904" width="0.49472222222222256" height="0.49472222222222256" fill="#FF4136" />
<rect x="3.003333333333335" y="2.0038888888888904" width="0.49472222222222256" height="0.49472222222222256" fill="#FF4136" />
<rect x="3.503055555555558" y="2.0038888888888904" width="0.49472222222222256" height="0.49472222222222256" fill="#FF4136" />
<rect x="4.002777777777781" y="2.0038888888888904" width="0.49472222222222256" height="0.49472222222222256" fill="#252525" />
<rect x="0.005" y="2.5036111111111126" width="0.49472222222222256" height="0.49472222222222256" fill="#252525" />
<rect x="0.5047222222222225" y="2.5036111111111126" width="0.49472222222222256" height="0.49472222222222256" fill="#252525" />
<rect x="1.0044444444444451" y="2.5036111111111126" width="0.49472222222222256" height="0.49472222222222256" fill="#F012BE" />
<rect x="1.5041666666666675" y="2.5036111111111126" width="0.49472222222222256" height="0.49472222222222256" fill="#F012BE" />
<rect x="2.0038888888888904" y="2.5036111111111126" width="0.49472222222222256" height="0.49472222222222256" fill="#E6E6E6" />
<rect x="2.5036111111111126" y="2.5036111111111126" width="0.49472222222222256" height="0.49472222222222256" fill="#F012BE" />
<rect x="3.003333333333335" y="2.5036111111111126" width="0.49472222222222256" height="0.49472222222222256" fill="#252525" />
<rect x="3.503055555555558" y="2.5036111111111126" width="0.49472222222222256" height="0.49472222222222256" fill="#252525" />
<rect x="4.002777777777781" y="2.5036111111111126" width="0.49472222222222256" height="0.49472222222222256" fill="#252525" />
<rect x="0.005" y="3.003333333333335" width="0.49472222222222256" height="0.49472222222222256" fill="#252525" />
<rect x="0.5047222222222225" y="3.003333333333335" width="0.49472222222222256" height="0.49472222222222256" fill="#252525" />
<rect x="1.0044444444444451" y="3.003333333333335" width="0.49472222222222256" height="0.49472222222222256" fill="#252525" />
<rect x="1.5041666666666675" y="3.003333333333335" width="0.49472222222222256" height="0.49472222222222256" fill="#FF4136" />
<rect x="2.0038888888888904" y="3.003333333333335" width="0.49472222222222256" height="0.49472222222222256" fill="#E6E6E6" />
<rect x="2.5036111111111126" y="3.003333333333335" width="0.49472222222222256" height="0.49472222222222256" fill="#252525" />
<rect x="3.003333333333335" y="3.003333333333335" width="0.49472222222222256" height="0.49472222222222256" fill="#252525" />
<rect x="3.503055555555558" y="3.003333333333335" width="0.49472222222222256" height="0.49472222222222256" fill="#252525" />
<rect x="4.002777777777781" y="3.003333333333335" width="0.49472222222222256" height="0.49472222222222256" fill="#252525" />
<rect x="0.005" y="3.503055555555558" width="0.49472222222222256" height="0.49472222222222256" fill="#252525" />
<rect x="0.5047222222222225" y="3.503055555555558" width="0.49472222222222256" height="0.49472222222222256" fill="#FF4136" />
<rect x="1.0044444444444451" y="3.503055555555558" width="0.49472222222222256" height="0.49472222222222256" fill="#FF4136" />
<rect x="1.5041666666666675" y="3.503055555555558" width="0.49472222222222256" height="0.49472222222222256" fill="#252525" />
<rect x="2.0038888888888904" y="3.503055555555558" width="0.49472222222222256" height="0.49472222222222256" fill="#E6E6E6" />
<rect x="2.5036111111111126" y="3.503055555555558" width="0.49472222222222256" height="0.49472222222222256" fill="#FF4136" />
<rect x="3.003333333333335" y="3.503055555555558" width="0.49472222222222256" height="0.49472222222222256" fill="#252525" />
<rect x="3.503055555555558" y="3.503055555555558" width="0.49472222222222256" height="0.49472222222222256" fill="#252525" />
<rect x="4.002777777777781" y="3.503055555555558" width="0.49472222222222256" height="0.49472222222222256" fill="#252525" />
<rect x="0.005" y="4.002777777777781" width="0.49472222222222256" height="0.49472222222222256" fill="#252525" />
<rect x="0.5047222222222225" y="4.002777777777781" width="0.49472222222222256" height="0.49472222222222256" fill="#252525" />
<rect x="1.0044444444444451" y="4.002777777777781" width="0.49472222222222256" height="0.49472222222222256" fill="#252525" />
<rect x="1.5041666666666675" y="4.002777777777781" width="0.49472222222222256" height="0.49472222222222256" fill="#FF4136" />
<rect x="2.0038888888888904" y="4.002777777777781" width="0.49472222222222256" height="0.49472222222222256" fill="#E6E6E6" />
<rect x="2.5036111111111126" y="4.002777777777781" width="0.49472222222222256" height="0.49472222222222256" fill="#252525" />
<rect x="3.003333333333335" y="4.002777777777781" width="0.49472222222222256" height="0.49472222222222256" fill="#252525" />
<rect x="3.503055555555558" y="4.002777777777781" width="0.49472222222222256" height="0.49472222222222256" fill="#252525" />
<rect x="4.002777777777781" y="4.002777777777781" width="0.49472222222222256" height="0.49472222222222256" fill="#252525" />
<rect x="0.005" y="4.502500000000003" width="0.49472222222222256" height="0.49472222222222256" fill="#252525" />
<rect x="0.5047222222222225" y="4.502500000000003" width="0.49472222222222256" height="0.49472222222222256" fill="#252525" />
<rect x="1.0044444444444451" y="4.502500000000003" width="0.49472222222222256" height="0.49472222222222256" fill="#252525" />
<rect x="1.5041666666666675" y="4.502500000000003" width="0.49472222222222256" height="0.49472222222222256" fill="#252525" />
<rect x="2.0038888888888904" y="4.502500000000003" width="0.49472222222222256" height="0.49472222222222256" fill="#E6E6E6" />
<rect x="2.5036111111111126" y="4.502500000000003" width="0.49472222222222256" height="0.49472222222222256" fill="#252525" />
<rect x="3.003333333333335" y="4.502500000000003" width="0.49472222222222256" height="0.49472222222222256" fill="#252525" />
<rect x="3.503055555555558" y="4.502500000000003" width="0.49472222222222256" height="0.49472222222222256" fill="#252525" />
<rect x="4.002777777777781" y="4.502500000000003" width="0.49472222222222256" height="0.49472222222222256" fill="#252525" />
<rect x="-0.02666666666666667" y="-0.02666666666666667" width="4.550833333333337" height="5.050555555555559" fill="none" stroke="#111111ff" stroke-width="0.08" />
<text x="4.497500000000003" y="5.465972222222225" font-size="0.375" fill="black" text-anchor="end" font-family="Anuphan">9x10</text>
<text x="-0.037500000000000006" y="5.465972222222225" font-size="0.375" fill="black" text-anchor="start" font-family="Anuphan" font-weight="600">Input 2</text>
</g>
<g id="d2">
<rect x="0.005" y="0.005" width="0.49472222222222256" height="0.49472222222222256" fill="#252525" />
<rect x="0.5047222222222225" y="0.005" width="0.49472222222222256" height="0.49472222222222256" fill="#252525" />
<rect x="1.0044444444444451" y="0.005" width="0.49472222222222256" height="0.49472222222222256" fill="#252525" />
<rect x="1.5041666666666675" y="0.005" width="0.49472222222222256" height="0.49472222222222256" fill="#252525" />
<rect x="2.0038888888888904" y="0.005" width="0.49472222222222256" height="0.49472222222222256" fill="#E6E6E6" />
<rect x="2.5036111111111126" y="0.005" width="0.49472222222222256" height="0.49472222222222256" fill="#252525" />
<rect x="3.003333333333335" y="0.005" width="0.49472222222222256" height="0.49472222222222256" fill="#252525" />
<rect x="3.503055555555558" y="0.005" width="0.49472222222222256" height="0.49472222222222256" fill="#252525" />
<rect x="4.002777777777781" y="0.005" width="0.49472222222222256" height="0.49472222222222256" fill="#252525" />
<rect x="0.005" y="0.5047222222222225" width="0.49472222222222256" height="0.49472222222222256" fill="#252525" />
<rect x="0.5047222222222225" y="0.5047222222222225" width="0.49472222222222256" height="0.49472222222222256" fill="#252525" />
<rect x="1.0044444444444451" y="0.5047222222222225" width="0.49472222222222256" height="0.49472222222222256" fill="#252525" />
<rect x="1.5041666666666675" y="0.5047222222222225" width="0.49472222222222256" height="0.49472222222222256" fill="#252525" />
<rect x="2.0038888888888904" y="0.5047222222222225" width="0.49472222222222256" height="0.49472222222222256" fill="#E6E6E6" />
<rect x="2.5036111111111126" y="0.5047222222222225" width="0.49472222222222256" height="0.49472222222222256" fill="#FF871E" />
<rect x="3.003333333333335" y="0.5047222222222225" width="0.49472222222222256" height="0.49472222222222256" fill="#252525" />
<rect x="3.503055555555558" y="0.5047222222222225" width="0.49472222222222256" height="0.49472222222222256" fill="#252525" />
<rect x="4.002777777777781" y="0.5047222222222225" width="0.49472222222222256" height="0.49472222222222256" fill="#252525" />
<rect x="0.005" y="1.0044444444444451" width="0.49472222222222256" height="0.49472222222222256" fill="#252525" />
<rect x="0.5047222222222225" y="1.0044444444444451" width="0.49472222222222256" height="0.49472222222222256" fill="#252525" />
<rect x="1.0044444444444451" y="1.0044444444444451" width="0.49472222222222256" height="0.49472222222222256" fill="#252525" />
<rect x="1.5041666666666675" y="1.0044444444444451" width="0.49472222222222256" height="0.49472222222222256" fill="#54D2EB" />
<rect x="2.0038888888888904" y="1.0044444444444451" width="0.49472222222222256" height="0.49472222222222256" fill="#E6E6E6" />
<rect x="2.5036111111111126" y="1.0044444444444451" width="0.49472222222222256" height="0.49472222222222256" fill="#252525" />
<rect x="3.003333333333335" y="1.0044444444444451" width="0.49472222222222256" height="0.49472222222222256" fill="#252525" />
<rect x="3.503055555555558" y="1.0044444444444451" width="0.49472222222222256" height="0.49472222222222256" fill="#252525" />
<rect x="4.002777777777781" y="1.0044444444444451" width="0.49472222222222256" height="0.49472222222222256" fill="#252525" />
<rect x="0.005" y="1.5041666666666675" width="0.49472222222222256" height="0.49472222222222256" fill="#252525" />
<rect x="0.5047222222222225" y="1.5041666666666675" width="0.49472222222222256" height="0.49472222222222256" fill="#252525" />
<rect x="1.0044444444444451" y="1.5041666666666675" width="0.49472222222222256" height="0.49472222222222256" fill="#252525" />
<rect x="1.5041666666666675" y="1.5041666666666675" width="0.49472222222222256" height="0.49472222222222256" fill="#54D2EB" />
<rect x="2.0038888888888904" y="1.5041666666666675" width="0.49472222222222256" height="0.49472222222222256" fill="#E6E6E6" />
<rect x="2.5036111111111126" y="1.5041666666666675" width="0.49472222222222256" height="0.49472222222222256" fill="#252525" />
<rect x="3.003333333333335" y="1.5041666666666675" width="0.49472222222222256" height="0.49472222222222256" fill="#252525" />
<rect x="3.503055555555558" y="1.5041666666666675" width="0.49472222222222256" height="0.49472222222222256" fill="#252525" />
<rect x="4.002777777777781" y="1.5041666666666675" width="0.49472222222222256" height="0.49472222222222256" fill="#252525" />
<rect x="0.005" y="2.0038888888888904" width="0.49472222222222256" height="0.49472222222222256" fill="#252525" />
<rect x="0.5047222222222225" y="2.0038888888888904" width="0.49472222222222256" height="0.49472222222222256" fill="#FF871E" />
<rect x="1.0044444444444451" y="2.0038888888888904" width="0.49472222222222256" height="0.49472222222222256" fill="#54D2EB" />
<rect x="1.5041666666666675" y="2.0038888888888904" width="0.49472222222222256" height="0.49472222222222256" fill="#54D2EB" />
<rect x="2.0038888888888904" y="2.0038888888888904" width="0.49472222222222256" height="0.49472222222222256" fill="#E6E6E6" />
<rect x="2.5036111111111126" y="2.0038888888888904" width="0.49472222222222256" height="0.49472222222222256" fill="#252525" />
<rect x="3.003333333333335" y="2.0038888888888904" width="0.49472222222222256" height="0.49472222222222256" fill="#252525" />
<rect x="3.503055555555558" y="2.0038888888888904" width="0.49472222222222256" height="0.49472222222222256" fill="#252525" />
<rect x="4.002777777777781" y="2.0038888888888904" width="0.49472222222222256" height="0.49472222222222256" fill="#252525" />
<rect x="0.005" y="2.5036111111111126" width="0.49472222222222256" height="0.49472222222222256" fill="#252525" />
<rect x="0.5047222222222225" y="2.5036111111111126" width="0.49472222222222256" height="0.49472222222222256" fill="#252525" />
<rect x="1.0044444444444451" y="2.5036111111111126" width="0.49472222222222256" height="0.49472222222222256" fill="#252525" />
<rect x="1.5041666666666675" y="2.5036111111111126" width="0.49472222222222256" height="0.49472222222222256" fill="#252525" />
<rect x="2.0038888888888904" y="2.5036111111111126" width="0.49472222222222256" height="0.49472222222222256" fill="#E6E6E6" />
<rect x="2.5036111111111126" y="2.5036111111111126" width="0.49472222222222256" height="0.49472222222222256" fill="#54D2EB" />
<rect x="3.003333333333335" y="2.5036111111111126" width="0.49472222222222256" height="0.49472222222222256" fill="#54D2EB" />
<rect x="3.503055555555558" y="2.5036111111111126" width="0.49472222222222256" height="0.49472222222222256" fill="#252525" />
<rect x="4.002777777777781" y="2.5036111111111126" width="0.49472222222222256" height="0.49472222222222256" fill="#252525" />
<rect x="0.005" y="3.003333333333335" width="0.49472222222222256" height="0.49472222222222256" fill="#252525" />
<rect x="0.5047222222222225" y="3.003333333333335" width="0.49472222222222256" height="0.49472222222222256" fill="#252525" />
<rect x="1.0044444444444451" y="3.003333333333335" width="0.49472222222222256" height="0.49472222222222256" fill="#252525" />
<rect x="1.5041666666666675" y="3.003333333333335" width="0.49472222222222256" height="0.49472222222222256" fill="#54D2EB" />
<rect x="2.0038888888888904" y="3.003333333333335" width="0.49472222222222256" height="0.49472222222222256" fill="#E6E6E6" />
<rect x="2.5036111111111126" y="3.003333333333335" width="0.49472222222222256" height="0.49472222222222256" fill="#252525" />
<rect x="3.003333333333335" y="3.003333333333335" width="0.49472222222222256" height="0.49472222222222256" fill="#252525" />
<rect x="3.503055555555558" y="3.003333333333335" width="0.49472222222222256" height="0.49472222222222256" fill="#252525" />
<rect x="4.002777777777781" y="3.003333333333335" width="0.49472222222222256" height="0.49472222222222256" fill="#252525" />
<rect x="0.005" y="3.503055555555558" width="0.49472222222222256" height="0.49472222222222256" fill="#252525" />
<rect x="0.5047222222222225" y="3.503055555555558" width="0.49472222222222256" height="0.49472222222222256" fill="#252525" />
<rect x="1.0044444444444451" y="3.503055555555558" width="0.49472222222222256" height="0.49472222222222256" fill="#252525" />
<rect x="1.5041666666666675" y="3.503055555555558" width="0.49472222222222256" height="0.49472222222222256" fill="#54D2EB" />
<rect x="2.0038888888888904" y="3.503055555555558" width="0.49472222222222256" height="0.49472222222222256" fill="#E6E6E6" />
<rect x="2.5036111111111126" y="3.503055555555558" width="0.49472222222222256" height="0.49472222222222256" fill="#252525" />
<rect x="3.003333333333335" y="3.503055555555558" width="0.49472222222222256" height="0.49472222222222256" fill="#252525" />
<rect x="3.503055555555558" y="3.503055555555558" width="0.49472222222222256" height="0.49472222222222256" fill="#252525" />
<rect x="4.002777777777781" y="3.503055555555558" width="0.49472222222222256" height="0.49472222222222256" fill="#252525" />
<rect x="0.005" y="4.002777777777781" width="0.49472222222222256" height="0.49472222222222256" fill="#252525" />
<rect x="0.5047222222222225" y="4.002777777777781" width="0.49472222222222256" height="0.49472222222222256" fill="#252525" />
<rect x="1.0044444444444451" y="4.002777777777781" width="0.49472222222222256" height="0.49472222222222256" fill="#252525" />
<rect x="1.5041666666666675" y="4.002777777777781" width="0.49472222222222256" height="0.49472222222222256" fill="#252525" />
<rect x="2.0038888888888904" y="4.002777777777781" width="0.49472222222222256" height="0.49472222222222256" fill="#E6E6E6" />
<rect x="2.5036111111111126" y="4.002777777777781" width="0.49472222222222256" height="0.49472222222222256" fill="#54D2EB" />
<rect x="3.003333333333335" y="4.002777777777781" width="0.49472222222222256" height="0.49472222222222256" fill="#FF871E" />
<rect x="3.503055555555558" y="4.002777777777781" width="0.49472222222222256" height="0.49472222222222256" fill="#252525" />
<rect x="4.002777777777781" y="4.002777777777781" width="0.49472222222222256" height="0.49472222222222256" fill="#252525" />
<rect x="0.005" y="4.502500000000003" width="0.49472222222222256" height="0.49472222222222256" fill="#252525" />
<rect x="0.5047222222222225" y="4.502500000000003" width="0.49472222222222256" height="0.49472222222222256" fill="#252525" />
<rect x="1.0044444444444451" y="4.502500000000003" width="0.49472222222222256" height="0.49472222222222256" fill="#252525" />
<rect x="1.5041666666666675" y="4.502500000000003" width="0.49472222222222256" height="0.49472222222222256" fill="#252525" />
<rect x="2.0038888888888904" y="4.502500000000003" width="0.49472222222222256" height="0.49472222222222256" fill="#E6E6E6" />
<rect x="2.5036111111111126" y="4.502500000000003" width="0.49472222222222256" height="0.49472222222222256" fill="#252525" />
<rect x="3.003333333333335" y="4.502500000000003" width="0.49472222222222256" height="0.49472222222222256" fill="#252525" />
<rect x="3.503055555555558" y="4.502500000000003" width="0.49472222222222256" height="0.49472222222222256" fill="#252525" />
<rect x="4.002777777777781" y="4.502500000000003" width="0.49472222222222256" height="0.49472222222222256" fill="#252525" />
<rect x="-0.02666666666666667" y="-0.02666666666666667" width="4.550833333333337" height="5.050555555555559" fill="none" stroke="#111111ff" stroke-width="0.08" />
<text x="4.497500000000003" y="5.465972222222225" font-size="0.375" fill="black" text-anchor="end" font-family="Anuphan">9x10</text>
<text x="-0.037500000000000006" y="5.465972222222225" font-size="0.375" fill="black" text-anchor="start" font-family="Anuphan" font-weight="600">Input 3</text>
</g>
<g id="d3">
<rect x="0.005" y="0.005" width="0.49472222222222256" height="0.49472222222222256" fill="#252525" />
<rect x="0.5047222222222225" y="0.005" width="0.49472222222222256" height="0.49472222222222256" fill="#252525" />
<rect x="1.0044444444444451" y="0.005" width="0.49472222222222256" height="0.49472222222222256" fill="#252525" />
<rect x="1.5041666666666675" y="0.005" width="0.49472222222222256" height="0.49472222222222256" fill="#252525" />
<rect x="2.0038888888888904" y="0.005" width="0.49472222222222256" height="0.49472222222222256" fill="#E6E6E6" />
<rect x="2.5036111111111126" y="0.005" width="0.49472222222222256" height="0.49472222222222256" fill="#252525" />
<rect x="3.003333333333335" y="0.005" width="0.49472222222222256" height="0.49472222222222256" fill="#252525" />
<rect x="3.503055555555558" y="0.005" width="0.49472222222222256" height="0.49472222222222256" fill="#252525" />
<rect x="4.002777777777781" y="0.005" width="0.49472222222222256" height="0.49472222222222256" fill="#252525" />
<rect x="0.005" y="0.5047222222222225" width="0.49472222222222256" height="0.49472222222222256" fill="#252525" />
<rect x="0.5047222222222225" y="0.5047222222222225" width="0.49472222222222256" height="0.49472222222222256" fill="#252525" />
<rect x="1.0044444444444451" y="0.5047222222222225" width="0.49472222222222256" height="0.49472222222222256" fill="#252525" />
<rect x="1.5041666666666675" y="0.5047222222222225" width="0.49472222222222256" height="0.49472222222222256" fill="#0074D9" />
<rect x="2.0038888888888904" y="0.5047222222222225" width="0.49472222222222256" height="0.49472222222222256" fill="#E6E6E6" />
<rect x="2.5036111111111126" y="0.5047222222222225" width="0.49472222222222256" height="0.49472222222222256" fill="#252525" />
<rect x="3.003333333333335" y="0.5047222222222225" width="0.49472222222222256" height="0.49472222222222256" fill="#252525" />
<rect x="3.503055555555558" y="0.5047222222222225" width="0.49472222222222256" height="0.49472222222222256" fill="#252525" />
<rect x="4.002777777777781" y="0.5047222222222225" width="0.49472222222222256" height="0.49472222222222256" fill="#252525" />
<rect x="0.005" y="1.0044444444444451" width="0.49472222222222256" height="0.49472222222222256" fill="#252525" />
<rect x="0.5047222222222225" y="1.0044444444444451" width="0.49472222222222256" height="0.49472222222222256" fill="#252525" />
<rect x="1.0044444444444451" y="1.0044444444444451" width="0.49472222222222256" height="0.49472222222222256" fill="#252525" />
<rect x="1.5041666666666675" y="1.0044444444444451" width="0.49472222222222256" height="0.49472222222222256" fill="#0074D9" />
<rect x="2.0038888888888904" y="1.0044444444444451" width="0.49472222222222256" height="0.49472222222222256" fill="#E6E6E6" />
<rect x="2.5036111111111126" y="1.0044444444444451" width="0.49472222222222256" height="0.49472222222222256" fill="#0074D9" />
<rect x="3.003333333333335" y="1.0044444444444451" width="0.49472222222222256" height="0.49472222222222256" fill="#252525" />
<rect x="3.503055555555558" y="1.0044444444444451" width="0.49472222222222256" height="0.49472222222222256" fill="#252525" />
<rect x="4.002777777777781" y="1.0044444444444451" width="0.49472222222222256" height="0.49472222222222256" fill="#252525" />
<rect x="0.005" y="1.5041666666666675" width="0.49472222222222256" height="0.49472222222222256" fill="#252525" />
<rect x="0.5047222222222225" y="1.5041666666666675" width="0.49472222222222256" height="0.49472222222222256" fill="#0074D9" />
<rect x="1.0044444444444451" y="1.5041666666666675" width="0.49472222222222256" height="0.49472222222222256" fill="#0074D9" />
<rect x="1.5041666666666675" y="1.5041666666666675" width="0.49472222222222256" height="0.49472222222222256" fill="#0074D9" />
<rect x="2.0038888888888904" y="1.5041666666666675" width="0.49472222222222256" height="0.49472222222222256" fill="#E6E6E6" />
<rect x="2.5036111111111126" y="1.5041666666666675" width="0.49472222222222256" height="0.49472222222222256" fill="#0074D9" />
<rect x="3.003333333333335" y="1.5041666666666675" width="0.49472222222222256" height="0.49472222222222256" fill="#0074D9" />
<rect x="3.503055555555558" y="1.5041666666666675" width="0.49472222222222256" height="0.49472222222222256" fill="#0074D9" />
<rect x="4.002777777777781" y="1.5041666666666675" width="0.49472222222222256" height="0.49472222222222256" fill="#F012BE" />
<rect x="0.005" y="2.0038888888888904" width="0.49472222222222256" height="0.49472222222222256" fill="#252525" />
<rect x="0.5047222222222225" y="2.0038888888888904" width="0.49472222222222256" height="0.49472222222222256" fill="#252525" />
<rect x="1.0044444444444451" y="2.0038888888888904" width="0.49472222222222256" height="0.49472222222222256" fill="#252525" />
<rect x="1.5041666666666675" y="2.0038888888888904" width="0.49472222222222256" height="0.49472222222222256" fill="#F012BE" />
<rect x="2.0038888888888904" y="2.0038888888888904" width="0.49472222222222256" height="0.49472222222222256" fill="#E6E6E6" />
<rect x="2.5036111111111126" y="2.0038888888888904" width="0.49472222222222256" height="0.49472222222222256" fill="#F012BE" />
<rect x="3.003333333333335" y="2.0038888888888904" width="0.49472222222222256" height="0.49472222222222256" fill="#F012BE" />
<rect x="3.503055555555558" y="2.0038888888888904" width="0.49472222222222256" height="0.49472222222222256" fill="#252525" />
<rect x="4.002777777777781" y="2.0038888888888904" width="0.49472222222222256" height="0.49472222222222256" fill="#252525" />
<rect x="0.005" y="2.5036111111111126" width="0.49472222222222256" height="0.49472222222222256" fill="#252525" />
<rect x="0.5047222222222225" y="2.5036111111111126" width="0.49472222222222256" height="0.49472222222222256" fill="#252525" />
<rect x="1.0044444444444451" y="2.5036111111111126" width="0.49472222222222256" height="0.49472222222222256" fill="#252525" />
<rect x="1.5041666666666675" y="2.5036111111111126" width="0.49472222222222256" height="0.49472222222222256" fill="#252525" />
<rect x="2.0038888888888904" y="2.5036111111111126" width="0.49472222222222256" height="0.49472222222222256" fill="#E6E6E6" />
<rect x="2.5036111111111126" y="2.5036111111111126" width="0.49472222222222256" height="0.49472222222222256" fill="#0074D9" />
<rect x="3.003333333333335" y="2.5036111111111126" width="0.49472222222222256" height="0.49472222222222256" fill="#0074D9" />
<rect x="3.503055555555558" y="2.5036111111111126" width="0.49472222222222256" height="0.49472222222222256" fill="#0074D9" />
<rect x="4.002777777777781" y="2.5036111111111126" width="0.49472222222222256" height="0.49472222222222256" fill="#252525" />
<rect x="0.005" y="3.003333333333335" width="0.49472222222222256" height="0.49472222222222256" fill="#252525" />
<rect x="0.5047222222222225" y="3.003333333333335" width="0.49472222222222256" height="0.49472222222222256" fill="#252525" />
<rect x="1.0044444444444451" y="3.003333333333335" width="0.49472222222222256" height="0.49472222222222256" fill="#252525" />
<rect x="1.5041666666666675" y="3.003333333333335" width="0.49472222222222256" height="0.49472222222222256" fill="#0074D9" />
<rect x="2.0038888888888904" y="3.003333333333335" width="0.49472222222222256" height="0.49472222222222256" fill="#E6E6E6" />
<rect x="2.5036111111111126" y="3.003333333333335" width="0.49472222222222256" height="0.49472222222222256" fill="#252525" />
<rect x="3.003333333333335" y="3.003333333333335" width="0.49472222222222256" height="0.49472222222222256" fill="#252525" />
<rect x="3.503055555555558" y="3.003333333333335" width="0.49472222222222256" height="0.49472222222222256" fill="#252525" />
<rect x="4.002777777777781" y="3.003333333333335" width="0.49472222222222256" height="0.49472222222222256" fill="#252525" />
<rect x="0.005" y="3.503055555555558" width="0.49472222222222256" height="0.49472222222222256" fill="#252525" />
<rect x="0.5047222222222225" y="3.503055555555558" width="0.49472222222222256" height="0.49472222222222256" fill="#252525" />
<rect x="1.0044444444444451" y="3.503055555555558" width="0.49472222222222256" height="0.49472222222222256" fill="#252525" />
<rect x="1.5041666666666675" y="3.503055555555558" width="0.49472222222222256" height="0.49472222222222256" fill="#0074D9" />
<rect x="2.0038888888888904" y="3.503055555555558" width="0.49472222222222256" height="0.49472222222222256" fill="#E6E6E6" />
<rect x="2.5036111111111126" y="3.503055555555558" width="0.49472222222222256" height="0.49472222222222256" fill="#0074D9" />
<rect x="3.003333333333335" y="3.503055555555558" width="0.49472222222222256" height="0.49472222222222256" fill="#F012BE" />
<rect x="3.503055555555558" y="3.503055555555558" width="0.49472222222222256" height="0.49472222222222256" fill="#252525" />
<rect x="4.002777777777781" y="3.503055555555558" width="0.49472222222222256" height="0.49472222222222256" fill="#252525" />
<rect x="0.005" y="4.002777777777781" width="0.49472222222222256" height="0.49472222222222256" fill="#252525" />
<rect x="0.5047222222222225" y="4.002777777777781" width="0.49472222222222256" height="0.49472222222222256" fill="#252525" />
<rect x="1.0044444444444451" y="4.002777777777781" width="0.49472222222222256" height="0.49472222222222256" fill="#252525" />
<rect x="1.5041666666666675" y="4.002777777777781" width="0.49472222222222256" height="0.49472222222222256" fill="#252525" />
<rect x="2.0038888888888904" y="4.002777777777781" width="0.49472222222222256" height="0.49472222222222256" fill="#E6E6E6" />
<rect x="2.5036111111111126" y="4.002777777777781" width="0.49472222222222256" height="0.49472222222222256" fill="#F012BE" />
<rect x="3.003333333333335" y="4.002777777777781" width="0.49472222222222256" height="0.49472222222222256" fill="#252525" />
<rect x="3.503055555555558" y="4.002777777777781" width="0.49472222222222256" height="0.49472222222222256" fill="#252525" />
<rect x="4.002777777777781" y="4.002777777777781" width="0.49472222222222256" height="0.49472222222222256" fill="#252525" />
<rect x="0.005" y="4.502500000000003" width="0.49472222222222256" height="0.49472222222222256" fill="#252525" />
<rect x="0.5047222222222225" y="4.502500000000003" width="0.49472222222222256" height="0.49472222222222256" fill="#252525" />
<rect x="1.0044444444444451" y="4.502500000000003" width="0.49472222222222256" height="0.49472222222222256" fill="#252525" />
<rect x="1.5041666666666675" y="4.502500000000003" width="0.49472222222222256" height="0.49472222222222256" fill="#252525" />
<rect x="2.0038888888888904" y="4.502500000000003" width="0.49472222222222256" height="0.49472222222222256" fill="#E6E6E6" />
<rect x="2.5036111111111126" y="4.502500000000003" width="0.49472222222222256" height="0.49472222222222256" fill="#252525" />
<rect x="3.003333333333335" y="4.502500000000003" width="0.49472222222222256" height="0.49472222222222256" fill="#252525" />
<rect x="3.503055555555558" y="4.502500000000003" width="0.49472222222222256" height="0.49472222222222256" fill="#252525" />
<rect x="4.002777777777781" y="4.502500000000003" width="0.49472222222222256" height="0.49472222222222256" fill="#252525" />
<rect x="-0.02666666666666667" y="-0.02666666666666667" width="4.550833333333337" height="5.050555555555559" fill="none" stroke="#111111ff" stroke-width="0.08" />
<text x="4.497500000000003" y="5.465972222222225" font-size="0.375" fill="black" text-anchor="end" font-family="Anuphan">9x10</text>
<text x="-0.037500000000000006" y="5.465972222222225" font-size="0.375" fill="black" text-anchor="start" font-family="Anuphan" font-weight="600">Test 1</text>
</g>
<g id="d4">
<rect x="0.005" y="0.005" width="0.5375" height="0.5375" fill="#252525" />
<rect x="0.5475" y="0.005" width="0.5375" height="0.5375" fill="#252525" />
<rect x="1.0899999999999999" y="0.005" width="0.5375" height="0.5375" fill="#252525" />
<rect x="1.6324999999999998" y="0.005" width="0.5375" height="0.5375" fill="#252525" />
<rect x="0.005" y="0.5475" width="0.5375" height="0.5375" fill="#252525" />
<rect x="0.5475" y="0.5475" width="0.5375" height="0.5375" fill="#252525" />
<rect x="1.0899999999999999" y="0.5475" width="0.5375" height="0.5375" fill="#252525" />
<rect x="1.6324999999999998" y="0.5475" width="0.5375" height="0.5375" fill="#252525" />
<rect x="0.005" y="1.0899999999999999" width="0.5375" height="0.5375" fill="#252525" />
<rect x="0.5475" y="1.0899999999999999" width="0.5375" height="0.5375" fill="#252525" />
<rect x="1.0899999999999999" y="1.0899999999999999" width="0.5375" height="0.5375" fill="#252525" />
<rect x="1.6324999999999998" y="1.0899999999999999" width="0.5375" height="0.5375" fill="#FFDC00" />
<rect x="0.005" y="1.6324999999999998" width="0.5375" height="0.5375" fill="#252525" />
<rect x="0.5475" y="1.6324999999999998" width="0.5375" height="0.5375" fill="#252525" />
<rect x="1.0899999999999999" y="1.6324999999999998" width="0.5375" height="0.5375" fill="#FFDC00" />
<rect x="1.6324999999999998" y="1.6324999999999998" width="0.5375" height="0.5375" fill="#FFDC00" />
<rect x="0.005" y="2.175" width="0.5375" height="0.5375" fill="#252525" />
<rect x="0.5475" y="2.175" width="0.5375" height="0.5375" fill="#252525" />
<rect x="1.0899999999999999" y="2.175" width="0.5375" height="0.5375" fill="#37D449" />
<rect x="1.6324999999999998" y="2.175" width="0.5375" height="0.5375" fill="#37D449" />
<rect x="0.005" y="2.7175" width="0.5375" height="0.5375" fill="#252525" />
<rect x="0.5475" y="2.7175" width="0.5375" height="0.5375" fill="#252525" />
<rect x="1.0899999999999999" y="2.7175" width="0.5375" height="0.5375" fill="#252525" />
<rect x="1.6324999999999998" y="2.7175" width="0.5375" height="0.5375" fill="#37D449" />
<rect x="0.005" y="3.26" width="0.5375" height="0.5375" fill="#252525" />
<rect x="0.5475" y="3.26" width="0.5375" height="0.5375" fill="#37D449" />
<rect x="1.0899999999999999" y="3.26" width="0.5375" height="0.5375" fill="#37D449" />
<rect x="1.6324999999999998" y="3.26" width="0.5375" height="0.5375" fill="#37D449" />
<rect x="0.005" y="3.8024999999999998" width="0.5375" height="0.5375" fill="#252525" />
<rect x="0.5475" y="3.8024999999999998" width="0.5375" height="0.5375" fill="#252525" />
<rect x="1.0899999999999999" y="3.8024999999999998" width="0.5375" height="0.5375" fill="#252525" />
<rect x="1.6324999999999998" y="3.8024999999999998" width="0.5375" height="0.5375" fill="#37D449" />
<rect x="0.005" y="4.345" width="0.5375" height="0.5375" fill="#252525" />
<rect x="0.5475" y="4.345" width="0.5375" height="0.5375" fill="#252525" />
<rect x="1.0899999999999999" y="4.345" width="0.5375" height="0.5375" fill="#252525" />
<rect x="1.6324999999999998" y="4.345" width="0.5375" height="0.5375" fill="#252525" />
<rect x="0.005" y="4.8875" width="0.5375" height="0.5375" fill="#252525" />
<rect x="0.5475" y="4.8875" width="0.5375" height="0.5375" fill="#252525" />
<rect x="1.0899999999999999" y="4.8875" width="0.5375" height="0.5375" fill="#252525" />
<rect x="1.6324999999999998" y="4.8875" width="0.5375" height="0.5375" fill="#252525" />
<rect x="-0.02666666666666667" y="-0.02666666666666667" width="2.223333333333333" height="5.4783333333333335" fill="none" stroke="#111111ff" stroke-width="0.08" />
<text x="2.17" y="5.89375" font-size="0.375" fill="black" text-anchor="end" font-family="Anuphan">4x10</text>
<text x="-0.037500000000000006" y="5.89375" font-size="0.375" fill="black" text-anchor="start" font-family="Anuphan" font-weight="600">Output 1</text>
</g>
<g id="d5">
<rect x="0.005" y="0.005" width="0.5375" height="0.5375" fill="#252525" />
<rect x="0.5475" y="0.005" width="0.5375" height="0.5375" fill="#252525" />
<rect x="1.0899999999999999" y="0.005" width="0.5375" height="0.5375" fill="#252525" />
<rect x="1.6324999999999998" y="0.005" width="0.5375" height="0.5375" fill="#252525" />
<rect x="0.005" y="0.5475" width="0.5375" height="0.5375" fill="#252525" />
<rect x="0.5475" y="0.5475" width="0.5375" height="0.5375" fill="#252525" />
<rect x="1.0899999999999999" y="0.5475" width="0.5375" height="0.5375" fill="#252525" />
<rect x="1.6324999999999998" y="0.5475" width="0.5375" height="0.5375" fill="#FF4136" />
<rect x="0.005" y="1.0899999999999999" width="0.5375" height="0.5375" fill="#252525" />
<rect x="0.5475" y="1.0899999999999999" width="0.5375" height="0.5375" fill="#252525" />
<rect x="1.0899999999999999" y="1.0899999999999999" width="0.5375" height="0.5375" fill="#F012BE" />
<rect x="1.6324999999999998" y="1.0899999999999999" width="0.5375" height="0.5375" fill="#FF4136" />
<rect x="0.005" y="1.6324999999999998" width="0.5375" height="0.5375" fill="#252525" />
<rect x="0.5475" y="1.6324999999999998" width="0.5375" height="0.5375" fill="#252525" />
<rect x="1.0899999999999999" y="1.6324999999999998" width="0.5375" height="0.5375" fill="#252525" />
<rect x="1.6324999999999998" y="1.6324999999999998" width="0.5375" height="0.5375" fill="#FF4136" />
<rect x="0.005" y="2.175" width="0.5375" height="0.5375" fill="#252525" />
<rect x="0.5475" y="2.175" width="0.5375" height="0.5375" fill="#FF4136" />
<rect x="1.0899999999999999" y="2.175" width="0.5375" height="0.5375" fill="#FF4136" />
<rect x="1.6324999999999998" y="2.175" width="0.5375" height="0.5375" fill="#FF4136" />
<rect x="0.005" y="2.7175" width="0.5375" height="0.5375" fill="#252525" />
<rect x="0.5475" y="2.7175" width="0.5375" height="0.5375" fill="#252525" />
<rect x="1.0899999999999999" y="2.7175" width="0.5375" height="0.5375" fill="#F012BE" />
<rect x="1.6324999999999998" y="2.7175" width="0.5375" height="0.5375" fill="#F012BE" />
<rect x="0.005" y="3.26" width="0.5375" height="0.5375" fill="#252525" />
<rect x="0.5475" y="3.26" width="0.5375" height="0.5375" fill="#252525" />
<rect x="1.0899999999999999" y="3.26" width="0.5375" height="0.5375" fill="#252525" />
<rect x="1.6324999999999998" y="3.26" width="0.5375" height="0.5375" fill="#FF4136" />
<rect x="0.005" y="3.8024999999999998" width="0.5375" height="0.5375" fill="#252525" />
<rect x="0.5475" y="3.8024999999999998" width="0.5375" height="0.5375" fill="#FF4136" />
<rect x="1.0899999999999999" y="3.8024999999999998" width="0.5375" height="0.5375" fill="#FF4136" />
<rect x="1.6324999999999998" y="3.8024999999999998" width="0.5375" height="0.5375" fill="#FF4136" />
<rect x="0.005" y="4.345" width="0.5375" height="0.5375" fill="#252525" />
<rect x="0.5475" y="4.345" width="0.5375" height="0.5375" fill="#252525" />
<rect x="1.0899999999999999" y="4.345" width="0.5375" height="0.5375" fill="#252525" />
<rect x="1.6324999999999998" y="4.345" width="0.5375" height="0.5375" fill="#FF4136" />
<rect x="0.005" y="4.8875" width="0.5375" height="0.5375" fill="#252525" />
<rect x="0.5475" y="4.8875" width="0.5375" height="0.5375" fill="#252525" />
<rect x="1.0899999999999999" y="4.8875" width="0.5375" height="0.5375" fill="#252525" />
<rect x="1.6324999999999998" y="4.8875" width="0.5375" height="0.5375" fill="#252525" />
<rect x="-0.02666666666666667" y="-0.02666666666666667" width="2.223333333333333" height="5.4783333333333335" fill="none" stroke="#111111ff" stroke-width="0.08" />
<text x="2.17" y="5.89375" font-size="0.375" fill="black" text-anchor="end" font-family="Anuphan">4x10</text>
<text x="-0.037500000000000006" y="5.89375" font-size="0.375" fill="black" text-anchor="start" font-family="Anuphan" font-weight="600">Output 2</text>
</g>
<g id="d6">
<rect x="0.005" y="0.005" width="0.5375" height="0.5375" fill="#252525" />
<rect x="0.5475" y="0.005" width="0.5375" height="0.5375" fill="#252525" />
<rect x="1.0899999999999999" y="0.005" width="0.5375" height="0.5375" fill="#252525" />
<rect x="1.6324999999999998" y="0.005" width="0.5375" height="0.5375" fill="#252525" />
<rect x="0.005" y="0.5475" width="0.5375" height="0.5375" fill="#252525" />
<rect x="0.5475" y="0.5475" width="0.5375" height="0.5375" fill="#252525" />
<rect x="1.0899999999999999" y="0.5475" width="0.5375" height="0.5375" fill="#252525" />
<rect x="1.6324999999999998" y="0.5475" width="0.5375" height="0.5375" fill="#FF871E" />
<rect x="0.005" y="1.0899999999999999" width="0.5375" height="0.5375" fill="#252525" />
<rect x="0.5475" y="1.0899999999999999" width="0.5375" height="0.5375" fill="#252525" />
<rect x="1.0899999999999999" y="1.0899999999999999" width="0.5375" height="0.5375" fill="#252525" />
<rect x="1.6324999999999998" y="1.0899999999999999" width="0.5375" height="0.5375" fill="#54D2EB" />
<rect x="0.005" y="1.6324999999999998" width="0.5375" height="0.5375" fill="#252525" />
<rect x="0.5475" y="1.6324999999999998" width="0.5375" height="0.5375" fill="#252525" />
<rect x="1.0899999999999999" y="1.6324999999999998" width="0.5375" height="0.5375" fill="#252525" />
<rect x="1.6324999999999998" y="1.6324999999999998" width="0.5375" height="0.5375" fill="#54D2EB" />
<rect x="0.005" y="2.175" width="0.5375" height="0.5375" fill="#252525" />
<rect x="0.5475" y="2.175" width="0.5375" height="0.5375" fill="#FF871E" />
<rect x="1.0899999999999999" y="2.175" width="0.5375" height="0.5375" fill="#54D2EB" />
<rect x="1.6324999999999998" y="2.175" width="0.5375" height="0.5375" fill="#54D2EB" />
<rect x="0.005" y="2.7175" width="0.5375" height="0.5375" fill="#252525" />
<rect x="0.5475" y="2.7175" width="0.5375" height="0.5375" fill="#252525" />
<rect x="1.0899999999999999" y="2.7175" width="0.5375" height="0.5375" fill="#54D2EB" />
<rect x="1.6324999999999998" y="2.7175" width="0.5375" height="0.5375" fill="#54D2EB" />
<rect x="0.005" y="3.26" width="0.5375" height="0.5375" fill="#252525" />
<rect x="0.5475" y="3.26" width="0.5375" height="0.5375" fill="#252525" />
<rect x="1.0899999999999999" y="3.26" width="0.5375" height="0.5375" fill="#252525" />
<rect x="1.6324999999999998" y="3.26" width="0.5375" height="0.5375" fill="#54D2EB" />
<rect x="0.005" y="3.8024999999999998" width="0.5375" height="0.5375" fill="#252525" />
<rect x="0.5475" y="3.8024999999999998" width="0.5375" height="0.5375" fill="#252525" />
<rect x="1.0899999999999999" y="3.8024999999999998" width="0.5375" height="0.5375" fill="#252525" />
<rect x="1.6324999999999998" y="3.8024999999999998" width="0.5375" height="0.5375" fill="#54D2EB" />
<rect x="0.005" y="4.345" width="0.5375" height="0.5375" fill="#252525" />
<rect x="0.5475" y="4.345" width="0.5375" height="0.5375" fill="#252525" />
<rect x="1.0899999999999999" y="4.345" width="0.5375" height="0.5375" fill="#FF871E" />
<rect x="1.6324999999999998" y="4.345" width="0.5375" height="0.5375" fill="#54D2EB" />
<rect x="0.005" y="4.8875" width="0.5375" height="0.5375" fill="#252525" />
<rect x="0.5475" y="4.8875" width="0.5375" height="0.5375" fill="#252525" />
<rect x="1.0899999999999999" y="4.8875" width="0.5375" height="0.5375" fill="#252525" />
<rect x="1.6324999999999998" y="4.8875" width="0.5375" height="0.5375" fill="#252525" />
<rect x="-0.02666666666666667" y="-0.02666666666666667" width="2.223333333333333" height="5.4783333333333335" fill="none" stroke="#111111ff" stroke-width="0.08" />
<text x="2.17" y="5.89375" font-size="0.375" fill="black" text-anchor="end" font-family="Anuphan">4x10</text>
<text x="-0.037500000000000006" y="5.89375" font-size="0.375" fill="black" text-anchor="start" font-family="Anuphan" font-weight="600">Output 3</text>
</g>
</defs>
<rect x="0" y="0" width="100%" height="100%" fill="#eeeff6" />
<use xlink:href="#d0" x="0.25" y="0.25" />
<use xlink:href="#d1" x="5.247500000000003" y="0.25" />
<use xlink:href="#d2" x="10.245000000000006" y="0.25" />
<use xlink:href="#d3" x="15.24250000000001" y="0.25" />
<path d="M2.4987500000000016,5.897222222222226 L2.4987500000000016,6.297222222222226" stroke-width="0.05" stroke="#888888" />
<path d="M2.3487500000000017,6.097222222222226 L2.4987500000000016,6.297222222222226" stroke-width="0.05" stroke="#888888" />
<path d="M2.6487500000000015,6.097222222222226 L2.4987500000000016,6.297222222222226" stroke-width="0.05" stroke="#888888" />
<use xlink:href="#d4" x="1.4137500000000016" y="6.647222222222226" />
<path d="M7.496250000000005,5.897222222222226 L7.496250000000005,6.297222222222226" stroke-width="0.05" stroke="#888888" />
<path d="M7.346250000000005,6.097222222222226 L7.496250000000005,6.297222222222226" stroke-width="0.05" stroke="#888888" />
<path d="M7.6462500000000055,6.097222222222226 L7.496250000000005,6.297222222222226" stroke-width="0.05" stroke="#888888" />
<use xlink:href="#d5" x="6.411250000000004" y="6.647222222222226" />
<path d="M12.493750000000007,5.897222222222226 L12.493750000000007,6.297222222222226" stroke-width="0.05" stroke="#888888" />
<path d="M12.343750000000007,6.097222222222226 L12.493750000000007,6.297222222222226" stroke-width="0.05" stroke="#888888" />
<path d="M12.643750000000008,6.097222222222226 L12.493750000000007,6.297222222222226" stroke-width="0.05" stroke="#888888" />
<use xlink:href="#d6" x="11.408750000000008" y="6.647222222222226" />
<path d="M17.49125000000001,5.897222222222226 L17.49125000000001,6.297222222222226" stroke-width="0.05" stroke="#888888" />
<path d="M17.341250000000013,6.097222222222226 L17.49125000000001,6.297222222222226" stroke-width="0.05" stroke="#888888" />
<path d="M17.64125000000001,6.097222222222226 L17.49125000000001,6.297222222222226" stroke-width="0.05" stroke="#888888" />
<text x="17.49125000000001" y="9.459722222222226" font-size="1" font-family="Anuphan" font-weight="700" fill="#333333" text-anchor="middle" alignment-baseline="middle">?</text>
<text x="19.9" y="12.9" font-size="0.3" font-family="Anuphan" font-weight="600" fill="#666666" text-anchor="end" alignment-baseline="bottom">Task e3497940</text>
</svg>