<?xml version="1.0" encoding="UTF-8"?>
<svg xmlns="http://www.w3.org/2000/svg" xmlns:xlink="http://www.w3.org/1999/xlink"
     width="800.0" height="328.0" viewBox="0 0 20.0 8.2">
<defs>
<g id="d0">
<rect x="0.005" y="0.005" width="0.5553030303030145" height="0.5553030303030145" fill="#252525" />
<rect x="0.5653030303030145" y="0.005" width="0.5553030303030145" height="0.5553030303030145" fill="#252525" />
<rect x="1.125606060606029" y="0.005" width="0.5553030303030145" height="0.5553030303030145" fill="#252525" />
<rect x="1.6859090909090435" y="0.005" width="0.5553030303030145" height="0.5553030303030145" fill="#252525" />
<rect x="2.246212121212058" y="0.005" width="0.5553030303030145" height="0.5553030303030145" fill="#252525" />
<rect x="2.8065151515150726" y="0.005" width="0.5553030303030145" height="0.5553030303030145" fill="#252525" />
<rect x="3.366818181818087" y="0.005" width="0.5553030303030145" height="0.5553030303030145" fill="#252525" />
<rect x="3.9271212121211017" y="0.005" width="0.5553030303030145" height="0.5553030303030145" fill="#252525" />
<rect x="4.487424242424116" y="0.005" width="0.5553030303030145" height="0.5553030303030145" fill="#252525" />
<rect x="5.047727272727131" y="0.005" width="0.5553030303030145" height="0.5553030303030145" fill="#252525" />
<rect x="5.608030303030145" y="0.005" width="0.5553030303030145" height="0.5553030303030145" fill="#252525" />
<rect x="0.005" y="0.5653030303030145" width="0.5553030303030145" height="0.5553030303030145" fill="#0074D9" />
<rect x="0.5653030303030145" y="0.5653030303030145" width="0.5553030303030145" height="0.5553030303030145" fill="#252525" />
<rect x="1.125606060606029" y="0.5653030303030145" width="0.5553030303030145" height="0.5553030303030145" fill="#252525" />
<rect x="1.6859090909090435" y="0.5653030303030145" width="0.5553030303030145" height="0.5553030303030145" fill="#252525" />
<rect x="2.246212121212058" y="0.5653030303030145" width="0.5553030303030145" height="0.5553030303030145" fill="#252525" />
<rect x="2.8065151515150726" y="0.5653030303030145" width="0.5553030303030145" height="0.5553030303030145" fill="#252525" />
<rect x="3.366818181818087" y="0.5653030303030145" width="0.5553030303030145" height="0.5553030303030145" fill="#252525" />
<rect x="3.9271212121211017" y="0.5653030303030145" width="0.5553030303030145" height="0.5553030303030145" fill="#252525" />
<rect x="4.487424242424116" y="0.5653030303030145" width="0.5553030303030145" height="0.5553030303030145" fill="#252525" />
<rect x="5.047727272727131" y="0.5653030303030145" width="0.5553030303030145" height="0.5553030303030145" fill="#252525" />
<rect x="5.608030303030145" y="0.5653030303030145" width="0.5553030303030145" height="0.5553030303030145" fill="#FF4136" />
<rect x="0.005" y="1.125606060606029" width="0.5553030303030145" height="0.5553030303030145" fill="#252525" />
<rect x="0.5653030303030145" y="1.125606060606029" width="0.5553030303030145" height="0.5553030303030145" fill="#252525" />
<rect x="1.125606060606029" y="1.125606060606029" width="0.5553030303030145" height="0.5553030303030145" fill="#252525" />
<rect x="1.6859090909090435" y="1.125606060606029" width="0.5553030303030145" height="0.5553030303030145" fill="#252525" />
<rect x="2.246212121212058" y="1.125606060606029" width="0.5553030303030145" height="0.5553030303030145" fill="#252525" />
<rect x="2.8065151515150726" y="1.125606060606029" width="0.5553030303030145" height="0.5553030303030145" fill="#252525" />
<rect x="3.366818181818087" y="1.125606060606029" width="0.5553030303030145" height="0.5553030303030145" fill="#252525" />
<rect x="3.9271212121211017" y="1.125606060606029" width="0.5553030303030145" height="0.5553030303030145" fill="#252525" />
<rect x="4.487424242424116" y="1.125606060606029" width="0.5553030303030145" height="0.5553030303030145" fill="#252525" />
<rect x="5.047727272727131" y="1.125606060606029" width="0.5553030303030145" height="0.5553030303030145" fill="#252525" />
<rect x="5.608030303030145" y="1.125606060606029" width="0.5553030303030145" height="0.5553030303030145" fill="#252525" />
<rect x="0.005" y="1.6859090909090435" width="0.5553030303030145" height="0.5553030303030145" fill="#252525" />
<rect x="0.5653030303030145" y="1.6859090909090435" width="0.5553030303030145" height="0.5553030303030145" fill="#252525" />
<rect x="1.125606060606029" y="1.6859090909090435" width="0.5553030303030145" height="0.5553030303030145" fill="#252525" />
<rect x="1.6859090909090435" y="1.6859090909090435" width="0.5553030303030145" height="0.5553030303030145" fill="#252525" />
<rect x="2.246212121212058" y="1.6859090909090435" width="0.5553030303030145" height="0.5553030303030145" fill="#252525" />
<rect x="2.8065151515150726" y="1.6859090909090435" width="0.5553030303030145" height="0.5553030303030145" fill="#252525" />
<rect x="3.366818181818087" y="1.6859090909090435" width="0.5553030303030145" height="0.5553030303030145" fill="#252525" />
<rect x="3.9271212121211017" y="1.6859090909090435" width="0.5553030303030145" height="0.5553030303030145" fill="#252525" />
<rect x="4.487424242424116" y="1.6859090909090435" width="0.5553030303030145" height="0.5553030303030145" fill="#252525" />
<rect x="5.047727272727131" y="1.6859090909090435" width="0.5553030303030145" height="0.5553030303030145" fill="#252525" />
<rect x="5.608030303030145" y="1.6859090909090435" width="0.5553030303030145" height="0.5553030303030145" fill="#252525" />
<rect x="0.005" y="2.246212121212058" width="0.5553030303030145" height="0.5553030303030145" fill="#252525" />
<rect x="0.5653030303030145" y="2.246212121212058" width="0.5553030303030145" height="0.5553030303030145" fill="#252525" />
<rect x="1.125606060606029" y="2.246212121212058" width="0.5553030303030145" height="0.5553030303030145" fill="#252525" />
<rect x="1.6859090909090435" y="2.246212121212058" width="0.5553030303030145" height="0.5553030303030145" fill="#252525" />
<rect x="2.246212121212058" y="2.246212121212058" width="0.5553030303030145" height="0.5553030303030145" fill="#252525" />
<rect x="2.8065151515150726" y="2.246212121212058" width="0.5553030303030145" height="0.5553030303030145" fill="#252525" />
<rect x="3.366818181818087" y="2.246212121212058" width="0.5553030303030145" height="0.5553030303030145" fill="#252525" />
<rect x="3.9271212121211017" y="2.246212121212058" width="0.5553030303030145" height="0.5553030303030145" fill="#252525" />
<rect x="4.487424242424116" y="2.246212121212058" width="0.5553030303030145" height="0.5553030303030145" fill="#252525" />
<rect x="5.047727272727131" y="2.246212121212058" width="0.5553030303030145" height="0.5553030303030145" fill="#252525" />
<rect x="5.608030303030145" y="2.246212121212058" width="0.5553030303030145" height="0.5553030303030145" fill="#252525" />
<rect x="-0.02666666666666667" y="-0.02666666666666667" width="6.216666666666494" height="2.854848484848406" fill="none" stroke="#111111ff" stroke-width="0.08" />
<text x="6.16333333333316" y="3.2702651515150727" font-size="0.375" fill="black" text-anchor="end" font-family="Anuphan">11x5</text>
<text x="-0.037500000000000006" y="3.2702651515150727" font-size="0.375" fill="black" text-anchor="start" font-family="Anuphan" font-weight="600">Input 1</text>
</g>
<g id="d1">
<rect x="0.005" y="0.005" width="0.5553030303030145" height="0.5553030303030145" fill="#252525" />
<rect x="0.5653030303030145" y="0.005" width="0.5553030303030145" height="0.5553030303030145" fill="#252525" />
<rect x="1.125606060606029" y="0.005" width="0.5553030303030145" height="0.5553030303030145" fill="#252525" />
<rect x="1.6859090909090435" y="0.005" width="0.5553030303030145" height="0.5553030303030145" fill="#252525" />
<rect x="2.246212121212058" y="0.005" width="0.5553030303030145" height="0.5553030303030145" fill="#252525" />
<rect x="2.8065151515150726" y="0.005" width="0.5553030303030145" height="0.5553030303030145" fill="#252525" />
<rect x="3.366818181818087" y="0.005" width="0.5553030303030145" height="0.5553030303030145" fill="#252525" />
<rect x="3.9271212121211017" y="0.005" width="0.5553030303030145" height="0.5553030303030145" fill="#252525" />
<rect x="4.487424242424116" y="0.005" width="0.5553030303030145" height="0.5553030303030145" fill="#252525" />
<rect x="5.047727272727131" y="0.005" width="0.5553030303030145" height="0.5553030303030145" fill="#252525" />
<rect x="5.608030303030145" y="0.005" width="0.5553030303030145" height="0.5553030303030145" fill="#252525" />
<rect x="0.005" y="0.5653030303030145" width="0.5553030303030145" height="0.5553030303030145" fill="#252525" />
<rect x="0.5653030303030145" y="0.5653030303030145" width="0.5553030303030145" height="0.5553030303030145" fill="#252525" />
<rect x="1.125606060606029" y="0.5653030303030145" width="0.5553030303030145" height="0.5553030303030145" fill="#252525" />
<rect x="1.6859090909090435" y="0.5653030303030145" width="0.5553030303030145" height="0.5553030303030145" fill="#252525" />
<rect x="2.246212121212058" y="0.5653030303030145" width="0.5553030303030145" height="0.5553030303030145" fill="#252525" />
<rect x="2.8065151515150726" y="0.5653030303030145" width="0.5553030303030145" height="0.5553030303030145" fill="#252525" />
<rect x="3.366818181818087" y="0.5653030303030145" width="0.5553030303030145" height="0.5553030303030145" fill="#252525" />
<rect x="3.9271212121211017" y="0.5653030303030145" width="0.5553030303030145" height="0.5553030303030145" fill="#252525" />
<rect x="4.487424242424116" y="0.5653030303030145" width="0.5553030303030145" height="0.5553030303030145" fill="#252525" />
<rect x="5.047727272727131" y="0.5653030303030145" width="0.5553030303030145" height="0.5553030303030145" fill="#252525" />
<rect x="5.608030303030145" y="0.5653030303030145" width="0.5553030303030145" height="0.5553030303030145" fill="#252525" />
<rect x="0.005" y="1.125606060606029" width="0.5553030303030145" height="0.5553030303030145" fill="#252525" />
<rect x="0.5653030303030145" y="1.125606060606029" width="0.5553030303030145" height="0.5553030303030145" fill="#252525" />
<rect x="1.125606060606029" y="1.125606060606029" width="0.5553030303030145" height="0.5553030303030145" fill="#252525" />
<rect x="1.6859090909090435" y="1.125606060606029" width="0.5553030303030145" height="0.5553030303030145" fill="#252525" />
<rect x="2.246212121212058" y="1.125606060606029" width="0.5553030303030145" height="0.5553030303030145" fill="#252525" />
<rect x="2.8065151515150726" y="1.125606060606029" width="0.5553030303030145" height="0.5553030303030145" fill="#252525" />
<rect x="3.366818181818087" y="1.125606060606029" width="0.5553030303030145" height="0.5553030303030145" fill="#252525" />
<rect x="3.9271212121211017" y="1.125606060606029" width="0.5553030303030145" height="0.5553030303030145" fill="#252525" />
<rect x="4.487424242424116" y="1.125606060606029" width="0.5553030303030145" height="0.5553030303030145" fill="#252525" />
<rect x="5.047727272727131" y="1.125606060606029" width="0.5553030303030145" height="0.5553030303030145" fill="#252525" />
<rect x="5.608030303030145" y="1.125606060606029" width="0.5553030303030145" height="0.5553030303030145" fill="#252525" />
<rect x="0.005" y="1.6859090909090435" width="0.5553030303030145" height="0.5553030303030145" fill="#37D449" />
<rect x="0.5653030303030145" y="1.6859090909090435" width="0.5553030303030145" height="0.5553030303030145" fill="#252525" />
<rect x="1.125606060606029" y="1.6859090909090435" width="0.5553030303030145" height="0.5553030303030145" fill="#252525" />
<rect x="1.6859090909090435" y="1.6859090909090435" width="0.5553030303030145" height="0.5553030303030145" fill="#252525" />
<rect x="2.246212121212058" y="1.6859090909090435" width="0.5553030303030145" height="0.5553030303030145" fill="#252525" />
<rect x="2.8065151515150726" y="1.6859090909090435" width="0.5553030303030145" height="0.5553030303030145" fill="#252525" />
<rect x="3.366818181818087" y="1.6859090909090435" width="0.5553030303030145" height="0.5553030303030145" fill="#252525" />
<rect x="3.9271212121211017" y="1.6859090909090435" width="0.5553030303030145" height="0.5553030303030145" fill="#252525" />
<rect x="4.487424242424116" y="1.6859090909090435" width="0.5553030303030145" height="0.5553030303030145" fill="#252525" />
<rect x="5.047727272727131" y="1.6859090909090435" width="0.5553030303030145" height="0.5553030303030145" fill="#252525" />
<rect x="5.608030303030145" y="1.6859090909090435" width="0.5553030303030145" height="0.5553030303030145" fill="#FF871E" />
<rect x="0.005" y="2.246212121212058" width="0.5553030303030145" height="0.5553030303030145" fill="#252525" />
<rect x="0.5653030303030145" y="2.246212121212058" width="0.5553030303030145" height="0.5553030303030145" fill="#252525" />
<rect x="1.125606060606029" y="2.246212121212058" width="0.5553030303030145" height="0.5553030303030145" fill="#252525" />
<rect x="1.6859090909090435" y="2.246212121212058" width="0.5553030303030145" height="0.5553030303030145" fill="#252525" />
<rect x="2.246212121212058" y="2.246212121212058" width="0.5553030303030145" height="0.5553030303030145" fill="#252525" />
<rect x="2.8065151515150726" y="2.246212121212058" width="0.5553030303030145" height="0.5553030303030145" fill="#252525" />
<rect x="3.366818181818087" y="2.246212121212058" width="0.5553030303030145" height="0.5553030303030145" fill="#252525" />
<rect x="3.9271212121211017" y="2.246212121212058" width="0.5553030303030145" height="0.5553030303030145" fill="#252525" />
<rect x="4.487424242424116" y="2.246212121212058" width="0.5553030303030145" height="0.5553030303030145" fill="#252525" />
<rect x="5.047727272727131" y="2.246212121212058" width="0.5553030303030145" height="0.5553030303030145" fill="#252525" />
<rect x="5.608030303030145" y="2.246212121212058" width="0.5553030303030145" height="0.5553030303030145" fill="#252525" />
<rect x="-0.02666666666666667" y="-0.02666666666666667" width="6.216666666666494" height="2.854848484848406" fill="none" stroke="#111111ff" stroke-width="0.08" />
<text x="6.16333333333316" y="3.2702651515150727" font-size="0.375" fill="black" text-anchor="end" font-family="Anuphan">11x5</text>
<text x="-0.037500000000000006" y="3.2702651515150727" font-size="0.375" fill="black" text-anchor="start" font-family="Anuphan" font-weight="600">Input 2</text>
</g>
<g id="d2">
<rect x="0.005" y="0.005" width="0.5553030303030145" height="0.5553030303030145" fill="#252525" />
<rect x="0.5653030303030145" y="0.005" width="0.5553030303030145" height="0.5553030303030145" fill="#252525" />
<rect x="1.125606060606029" y="0.005" width="0.5553030303030145" height="0.5553030303030145" fill="#252525" />
<rect x="1.6859090909090435" y="0.005" width="0.5553030303030145" height="0.5553030303030145" fill="#252525" />
<rect x="2.246212121212058" y="0.005" width="0.5553030303030145" height="0.5553030303030145" fill="#252525" />
<rect x="2.8065151515150726" y="0.005" width="0.5553030303030145" height="0.5553030303030145" fill="#252525" />
<rect x="3.366818181818087" y="0.005" width="0.5553030303030145" height="0.5553030303030145" fill="#252525" />
<rect x="3.9271212121211017" y="0.005" width="0.5553030303030145" height="0.5553030303030145" fill="#252525" />
<rect x="4.487424242424116" y="0.005" width="0.5553030303030145" height="0.5553030303030145" fill="#252525" />
<rect x="5.047727272727131" y="0.005" width="0.5553030303030145" height="0.5553030303030145" fill="#252525" />
<rect x="5.608030303030145" y="0.005" width="0.5553030303030145" height="0.5553030303030145" fill="#252525" />
<rect x="0.005" y="0.5653030303030145" width="0.5553030303030145" height="0.5553030303030145" fill="#FFDC00" />
<rect x="0.5653030303030145" y="0.5653030303030145" width="0.5553030303030145" height="0.5553030303030145" fill="#252525" />
<rect x="1.125606060606029" y="0.5653030303030145" width="0.5553030303030145" height="0.5553030303030145" fill="#252525" />
<rect x="1.6859090909090435" y="0.5653030303030145" width="0.5553030303030145" height="0.5553030303030145" fill="#252525" />
<rect x="2.246212121212058" y="0.5653030303030145" width="0.5553030303030145" height="0.5553030303030145" fill="#252525" />
<rect x="2.8065151515150726" y="0.5653030303030145" width="0.5553030303030145" height="0.5553030303030145" fill="#252525" />
<rect x="3.366818181818087" y="0.5653030303030145" width="0.5553030303030145" height="0.5553030303030145" fill="#252525" />
<rect x="3.9271212121211017" y="0.5653030303030145" width="0.5553030303030145" height="0.5553030303030145" fill="#252525" />
<rect x="4.487424242424116" y="0.5653030303030145" width="0.5553030303030145" height="0.5553030303030145" fill="#252525" />
<rect x="5.047727272727131" y="0.5653030303030145" width="0.5553030303030145" height="0.5553030303030145" fill="#252525" />
<rect x="5.608030303030145" y="0.5653030303030145" width="0.5553030303030145" height="0.5553030303030145" fill="#54D2EB" />
<rect x="0.005" y="1.125606060606029" width="0.5553030303030145" height="0.5553030303030145" fill="#252525" />
<rect x="0.5653030303030145" y="1.125606060606029" width="0.5553030303030145" height="0.5553030303030145" fill="#252525" />
<rect x="1.125606060606029" y="1.125606060606029" width="0.5553030303030145" height="0.5553030303030145" fill="#252525" />
<rect x="1.6859090909090435" y="1.125606060606029" width="0.5553030303030145" height="0.5553030303030145" fill="#252525" />
<rect x="2.246212121212058" y="1.125606060606029" width="0.5553030303030145" height="0.5553030303030145" fill="#252525" />
<rect x="2.8065151515150726" y="1.125606060606029" width="0.5553030303030145" height="0.5553030303030145" fill="#252525" />
<rect x="3.366818181818087" y="1.125606060606029" width="0.5553030303030145" height="0.5553030303030145" fill="#252525" />
<rect x="3.9271212121211017" y="1.125606060606029" width="0.5553030303030145" height="0.5553030303030145" fill="#252525" />
<rect x="4.487424242424116" y="1.125606060606029" width="0.5553030303030145" height="0.5553030303030145" fill="#252525" />
<rect x="5.047727272727131" y="1.125606060606029" width="0.5553030303030145" height="0.5553030303030145" fill="#252525" />
<rect x="5.608030303030145" y="1.125606060606029" width="0.5553030303030145" height="0.5553030303030145" fill="#252525" />
<rect x="0.005" y="1.6859090909090435" width="0.5553030303030145" height="0.5553030303030145" fill="#252525" />
<rect x="0.5653030303030145" y="1.6859090909090435" width="0.5553030303030145" height="0.5553030303030145" fill="#252525" />
<rect x="1.125606060606029" y="1.6859090909090435" width="0.5553030303030145" height="0.5553030303030145" fill="#252525" />
<rect x="1.6859090909090435" y="1.6859090909090435" width="0.5553030303030145" height="0.5553030303030145" fill="#252525" />
<rect x="2.246212121212058" y="1.6859090909090435" width="0.5553030303030145" height="0.5553030303030145" fill="#252525" />
<rect x="2.8065151515150726" y="1.6859090909090435" width="0.5553030303030145" height="0.5553030303030145" fill="#252525" />
<rect x="3.366818181818087" y="1.6859090909090435" width="0.5553030303030145" height="0.5553030303030145" fill="#252525" />
<rect x="3.9271212121211017" y="1.6859090909090435" width="0.5553030303030145" height="0.5553030303030145" fill="#252525" />
<rect x="4.487424242424116" y="1.6859090909090435" width="0.5553030303030145" height="0.5553030303030145" fill="#252525" />
<rect x="5.047727272727131" y="1.6859090909090435" width="0.5553030303030145" height="0.5553030303030145" fill="#252525" />
<rect x="5.608030303030145" y="1.6859090909090435" width="0.5553030303030145" height="0.5553030303030145" fill="#252525" />
<rect x="0.005" y="2.246212121212058" width="0.5553030303030145" height="0.5553030303030145" fill="#F012BE" />
<rect x="0.5653030303030145" y="2.246212121212058" width="0.5553030303030145" height="0.5553030303030145" fill="#252525" />
<rect x="1.125606060606029" y="2.246212121212058" width="0.5553030303030145" height="0.5553030303030145" fill="#252525" />
<rect x="1.6859090909090435" y="2.246212121212058" width="0.5553030303030145" height="0.5553030303030145" fill="#252525" />
<rect x="2.246212121212058" y="2.246212121212058" width="0.5553030303030145" height="0.5553030303030145" fill="#252525" />
<rect x="2.8065151515150726" y="2.246212121212058" width="0.5553030303030145" height="0.5553030303030145" fill="#252525" />
<rect x="3.366818181818087" y="2.246212121212058" width="0.5553030303030145" height="0.5553030303030145" fill="#252525" />
<rect x="3.9271212121211017" y="2.246212121212058" width="0.5553030303030145" height="0.5553030303030145" fill="#252525" />
<rect x="4.487424242424116" y="2.246212121212058" width="0.5553030303030145" height="0.5553030303030145" fill="#252525" />
<rect x="5.047727272727131" y="2.246212121212058" width="0.5553030303030145" height="0.5553030303030145" fill="#252525" />
<rect x="5.608030303030145" y="2.246212121212058" width="0.5553030303030145" height="0.5553030303030145" fill="#8D1D2C" />
<rect x="-0.02666666666666667" y="-0.02666666666666667" width="6.216666666666494" height="2.854848484848406" fill="none" stroke="#111111ff" stroke-width="0.08" />
<text x="6.16333333333316" y="3.2702651515150727" font-size="0.375" fill="black" text-anchor="end" font-family="Anuphan">11x5</text>
<text x="-0.037500000000000006" y="3.2702651515150727" font-size="0.375" fill="black" text-anchor="start" font-family="Anuphan" font-weight="600">Test 1</text>
</g>
<g id="d3">
<rect x="0.005" y="0.005" width="0.5553030303030145" height="0.5553030303030145" fill="#252525" />
<rect x="0.5653030303030145" y="0.005" width="0.5553030303030145" height="0.5553030303030145" fill="#252525" />
<rect x="1.125606060606029" y="0.005" width="0.5553030303030145" height="0.5553030303030145" fill="#252525" />
<rect x="1.6859090909090435" y="0.005" width="0.5553030303030145" height="0.5553030303030145" fill="#252525" />
<rect x="2.246212121212058" y="0.005" width="0.5553030303030145" height="0.5553030303030145" fill="#252525" />
<rect x="2.8065151515150726" y="0.005" width="0.5553030303030145" height="0.5553030303030145" fill="#252525" />
<rect x="3.366818181818087" y="0.005" width="0.5553030303030145" height="0.5553030303030145" fill="#252525" />
<rect x="3.9271212121211017" y="0.005" width="0.5553030303030145" height="0.5553030303030145" fill="#252525" />
<rect x="4.487424242424116" y="0.005" width="0.5553030303030145" height="0.5553030303030145" fill="#252525" />
<rect x="5.047727272727131" y="0.005" width="0.5553030303030145" height="0.5553030303030145" fill="#252525" />
<rect x="5.608030303030145" y="0.005" width="0.5553030303030145" height="0.5553030303030145" fill="#252525" />
<rect x="0.005" y="0.5653030303030145" width="0.5553030303030145" height="0.5553030303030145" fill="#0074D9" />
<rect x="0.5653030303030145" y="0.5653030303030145" width="0.5553030303030145" height="0.5553030303030145" fill="#0074D9" />
<rect x="1.125606060606029" y="0.5653030303030145" width="0.5553030303030145" height="0.5553030303030145" fill="#0074D9" />
<rect x="1.6859090909090435" y="0.5653030303030145" width="0.5553030303030145" height="0.5553030303030145" fill="#0074D9" />
<rect x="2.246212121212058" y="0.5653030303030145" width="0.5553030303030145" height="0.5553030303030145" fill="#0074D9" />
<rect x="2.8065151515150726" y="0.5653030303030145" width="0.5553030303030145" height="0.5553030303030145" fill="#E6E6E6" />
<rect x="3.366818181818087" y="0.5653030303030145" width="0.5553030303030145" height="0.5553030303030145" fill="#FF4136" />
<rect x="3.9271212121211017" y="0.5653030303030145" width="0.5553030303030145" height="0.5553030303030145" fill="#FF4136" />
<rect x="4.487424242424116" y="0.5653030303030145" width="0.5553030303030145" height="0.5553030303030145" fill="#FF4136" />
<rect x="5.047727272727131" y="0.5653030303030145" width="0.5553030303030145" height="0.5553030303030145" fill="#FF4136" />
<rect x="5.608030303030145" y="0.5653030303030145" width="0.5553030303030145" height="0.5553030303030145" fill="#FF4136" />
<rect x="0.005" y="1.125606060606029" width="0.5553030303030145" height="0.5553030303030145" fill="#252525" />
<rect x="0.5653030303030145" y="1.125606060606029" width="0.5553030303030145" height="0.5553030303030145" fill="#252525" />
<rect x="1.125606060606029" y="1.125606060606029" width="0.5553030303030145" height="0.5553030303030145" fill="#252525" />
<rect x="1.6859090909090435" y="1.125606060606029" width="0.5553030303030145" height="0.5553030303030145" fill="#252525" />
<rect x="2.246212121212058" y="1.125606060606029" width="0.5553030303030145" height="0.5553030303030145" fill="#252525" />
<rect x="2.8065151515150726" y="1.125606060606029" width="0.5553030303030145" height="0.5553030303030145" fill="#252525" />
<rect x="3.366818181818087" y="1.125606060606029" width="0.5553030303030145" height="0.5553030303030145" fill="#252525" />
<rect x="3.9271212121211017" y="1.125606060606029" width="0.5553030303030145" height="0.5553030303030145" fill="#252525" />
<rect x="4.487424242424116" y="1.125606060606029" width="0.5553030303030145" height="0.5553030303030145" fill="#252525" />
<rect x="5.047727272727131" y="1.125606060606029" width="0.5553030303030145" height="0.5553030303030145" fill="#252525" />
<rect x="5.608030303030145" y="1.125606060606029" width="0.5553030303030145" height="0.5553030303030145" fill="#252525" />
<rect x="0.005" y="1.6859090909090435" width="0.5553030303030145" height="0.5553030303030145" fill="#252525" />
<rect x="0.5653030303030145" y="1.6859090909090435" width="0.5553030303030145" height="0.5553030303030145" fill="#252525" />
<rect x="1.125606060606029" y="1.6859090909090435" width="0.5553030303030145" height="0.5553030303030145" fill="#252525" />
<rect x="1.6859090909090435" y="1.6859090909090435" width="0.5553030303030145" height="0.5553030303030145" fill="#252525" />
<rect x="2.246212121212058" y="1.6859090909090435" width="0.5553030303030145" height="0.5553030303030145" fill="#252525" />
<rect x="2.8065151515150726" y="1.6859090909090435" width="0.5553030303030145" height="0.5553030303030145" fill="#252525" />
<rect x="3.366818181818087" y="1.6859090909090435" width="0.5553030303030145" height="0.5553030303030145" fill="#252525" />
<rect x="3.9271212121211017" y="1.6859090909090435" width="0.5553030303030145" height="0.5553030303030145" fill="#252525" />
<rect x="4.487424242424116" y="1.6859090909090435" width="0.5553030303030145" height="0.5553030303030145" fill="#252525" />
<rect x="5.047727272727131" y="1.6859090909090435" width="0.5553030303030145" height="0.5553030303030145" fill="#252525" />
<rect x="5.608030303030145" y="1.6859090909090435" width="0.5553030303030145" height="0.5553030303030145" fill="#252525" />
<rect x="0.005" y="2.246212121212058" width="0.5553030303030145" height="0.5553030303030145" fill="#252525" />
<rect x="0.5653030303030145" y="2.246212121212058" width="0.5553030303030145" height="0.5553030303030145" fill="#252525" />
<rect x="1.125606060606029" y="2.246212121212058" width="0.5553030303030145" height="0.5553030303030145" fill="#252525" />
<rect x="1.6859090909090435" y="2.246212121212058" width="0.5553030303030145" height="0.5553030303030145" fill="#252525" />
<rect x="2.246212121212058" y="2.246212121212058" width="0.5553030303030145" height="0.5553030303030145" fill="#252525" />
<rect x="2.8065151515150726" y="2.246212121212058" width="0.5553030303030145" height="0.5553030303030145" fill="#252525" />
<rect x="3.366818181818087" y="2.246212121212058" width="0.5553030303030145" height="0.5553030303030145" fill="#252525" />
<rect x="3.9271212121211017" y="2.246212121212058" width="0.5553030303030145" height="0.5553030303030145" fill="#252525" />
<rect x="4.487424242424116" y="2.246212121212058" width="0.5553030303030145" height="0.5553030303030145" fill="#252525" />
<rect x="5.047727272727131" y="2.246212121212058" width="0.5553030303030145" height="0.5553030303030145" fill="#252525" />
<rect x="5.608030303030145" y="2.246212121212058" width="0.5553030303030145" height="0.5553030303030145" fill="#252525" />
<rect x="-0.02666666666666667" y="-0.02666666666666667" width="6.216666666666494" height="2.854848484848406" fill="none" stroke="#111111ff" stroke-width="0.08" />
<text x="6.16333333333316" y="3.2702651515150727" font-size="0.375" fill="black" text-anchor="end" font-family="Anuphan">11x5</text>
<text x="-0.037500000000000006" y="3.2702651515150727" font-size="0.375" fill="black" text-anchor="start" font-family="Anuphan" font-weight="600">Output 1</text>
</g>
<g id="d4">
<rect x="0.005" y="0.005" width="0.5553030303030145" height="0.5553030303030145" fill="#252525" />
<rect x="0.5653030303030145" y="0.005" width="0.5553030303030145" height="0.5553030303030145" fill="#252525" />
<rect x="1.125606060606029" y="0.005" width="0.5553030303030145" height="0.5553030303030145" fill="#252525" />
<rect x="1.6859090909090435" y="0.005" width="0.5553030303030145" height="0.5553030303030145" fill="#252525" />
<rect x="2.246212121212058" y="0.005" width="0.5553030303030145" height="0.5553030303030145" fill="#252525" />
<rect x="2.8065151515150726" y="0.005" width="0.5553030303030145" height="0.5553030303030145" fill="#252525" />
<rect x="3.366818181818087" y="0.005" width="0.5553030303030145" height="0.5553030303030145" fill="#252525" />
<rect x="3.9271212121211017" y="0.005" width="0.5553030303030145" height="0.5553030303030145" fill="#252525" />
<rect x="4.487424242424116" y="0.005" width="0.5553030303030145" height="0.5553030303030145" fill="#252525" />
<rect x="5.047727272727131" y="0.005" width="0.5553030303030145" height="0.5553030303030145" fill="#252525" />
<rect x="5.608030303030145" y="0.005" width="0.5553030303030145" height="0.5553030303030145" fill="#252525" />
<rect x="0.005" y="0.5653030303030145" width="0.5553030303030145" height="0.5553030303030145" fill="#252525" />
<rect x="0.5653030303030145" y="0.5653030303030145" width="0.5553030303030145" height="0.5553030303030145" fill="#252525" />
<rect x="1.125606060606029" y="0.5653030303030145" width="0.5553030303030145" height="0.5553030303030145" fill="#252525" />
<rect x="1.6859090909090435" y="0.5653030303030145" width="0.5553030303030145" height="0.5553030303030145" fill="#252525" />
<rect x="2.246212121212058" y="0.5653030303030145" width="0.5553030303030145" height="0.5553030303030145" fill="#252525" />
<rect x="2.8065151515150726" y="0.5653030303030145" width="0.5553030303030145" height="0.5553030303030145" fill="#252525" />
<rect x="3.366818181818087" y="0.5653030303030145" width="0.5553030303030145" height="0.5553030303030145" fill="#252525" />
<rect x="3.9271212121211017" y="0.5653030303030145" width="0.5553030303030145" height="0.5553030303030145" fill="#252525" />
<rect x="4.487424242424116" y="0.5653030303030145" width="0.5553030303030145" height="0.5553030303030145" fill="#252525" />
<rect x="5.047727272727131" y="0.5653030303030145" width="0.5553030303030145" height="0.5553030303030145" fill="#252525" />
<rect x="5.608030303030145" y="0.5653030303030145" width="0.5553030303030145" height="0.5553030303030145" fill="#252525" />
<rect x="0.005" y="1.125606060606029" width="0.5553030303030145" height="0.5553030303030145" fill="#252525" />
<rect x="0.5653030303030145" y="1.125606060606029" width="0.5553030303030145" height="0.5553030303030145" fill="#252525" />
<rect x="1.125606060606029" y="1.125606060606029" width="0.5553030303030145" height="0.5553030303030145" fill="#252525" />
<rect x="1.6859090909090435" y="1.125606060606029" width="0.5553030303030145" height="0.5553030303030145" fill="#252525" />
<rect x="2.246212121212058" y="1.125606060606029" width="0.5553030303030145" height="0.5553030303030145" fill="#252525" />
<rect x="2.8065151515150726" y="1.125606060606029" width="0.5553030303030145" height="0.5553030303030145" fill="#252525" />
<rect x="3.366818181818087" y="1.125606060606029" width="0.5553030303030145" height="0.5553030303030145" fill="#252525" />
<rect x="3.9271212121211017" y="1.125606060606029" width="0.5553030303030145" height="0.5553030303030145" fill="#252525" />
<rect x="4.487424242424116" y="1.125606060606029" width="0.5553030303030145" height="0.5553030303030145" fill="#252525" />
<rect x="5.047727272727131" y="1.125606060606029" width="0.5553030303030145" height="0.5553030303030145" fill="#252525" />
<rect x="5.608030303030145" y="1.125606060606029" width="0.5553030303030145" height="0.5553030303030145" fill="#252525" />
<rect x="0.005" y="1.6859090909090435" width="0.5553030303030145" height="0.5553030303030145" fill="#37D449" />
<rect x="0.5653030303030145" y="1.6859090909090435" width="0.5553030303030145" height="0.5553030303030145" fill="#37D449" />
<rect x="1.125606060606029" y="1.6859090909090435" width="0.5553030303030145" height="0.5553030303030145" fill="#37D449" />
<rect x="1.6859090909090435" y="1.6859090909090435" width="0.5553030303030145" height="0.5553030303030145" fill="#37D449" />
<rect x="2.246212121212058" y="1.6859090909090435" width="0.5553030303030145" height="0.5553030303030145" fill="#37D449" />
<rect x="2.8065151515150726" y="1.6859090909090435" width="0.5553030303030145" height="0.5553030303030145" fill="#E6E6E6" />
<rect x="3.366818181818087" y="1.6859090909090435" width="0.5553030303030145" height="0.5553030303030145" fill="#FF871E" />
<rect x="3.9271212121211017" y="1.6859090909090435" width="0.5553030303030145" height="0.5553030303030145" fill="#FF871E" />
<rect x="4.487424242424116" y="1.6859090909090435" width="0.5553030303030145" height="0.5553030303030145" fill="#FF871E" />
<rect x="5.047727272727131" y="1.6859090909090435" width="0.5553030303030145" height="0.5553030303030145" fill="#FF871E" />
<rect x="5.608030303030145" y="1.6859090909090435" width="0.5553030303030145" height="0.5553030303030145" fill="#FF871E" />
<rect x="0.005" y="2.246212121212058" width="0.5553030303030145" height="0.5553030303030145" fill="#252525" />
<rect x="0.5653030303030145" y="2.246212121212058" width="0.5553030303030145" height="0.5553030303030145" fill="#252525" />
<rect x="1.125606060606029" y="2.246212121212058" width="0.5553030303030145" height="0.5553030303030145" fill="#252525" />
<rect x="1.6859090909090435" y="2.246212121212058" width="0.5553030303030145" height="0.5553030303030145" fill="#252525" />
<rect x="2.246212121212058" y="2.246212121212058" width="0.5553030303030145" height="0.5553030303030145" fill="#252525" />
<rect x="2.8065151515150726" y="2.246212121212058" width="0.5553030303030145" height="0.5553030303030145" fill="#252525" />
<rect x="3.366818181818087" y="2.246212121212058" width="0.5553030303030145" height="0.5553030303030145" fill="#252525" />
<rect x="3.9271212121211017" y="2.246212121212058" width="0.5553030303030145" height="0.5553030303030145" fill="#252525" />
<rect x="4.487424242424116" y="2.246212121212058" width="0.5553030303030145" height="0.5553030303030145" fill="#252525" />
<rect x="5.047727272727131" y="2.246212121212058" width="0.5553030303030145" height="0.5553030303030145" fill="#252525" />
<rect x="5.608030303030145" y="2.246212121212058" width="0.5553030303030145" height="0.5553030303030145" fill="#252525" />
<rect x="-0.02666666666666667" y="-0.02666666666666667" width="6.216666666666494" height="2.854848484848406" fill="none" stroke="#111111ff" stroke-width="0.08" />
<text x="6.16333333333316" y="3.2702651515150727" font-size="0.375" fill="black" text-anchor="end" font-family="Anuphan">11x5</text>
<text x="-0.037500000000000006" y="3.2702651515150727" font-size="0.375" fill="black" text-anchor="start" font-family="Anuphan" font-weight="600">Output 2</text>
</g>
</defs>
<rect x="0" y="0" width="100%" height="100%" fill="#eeeff6" />
<use xlink:href="#d0" x="0.25" y="0.25" />
<use xlink:href="#d1" x="6.91333333333316" y="0.25" />
<use xlink:href="#d2" x="13.57666666666632" y="0.25" />
<path d="M3.33166666666658,3.7015151515150726 L3.33166666666658,4.101515151515073" stroke-width="0.05" stroke="#888888" />
<path d="M3.18166666666658,3.901515151515073 L3.33166666666658,4.101515151515073" stroke-width="0.05" stroke="#888888" />
<path d="M3.48166666666658,3.901515151515073 L3.33166666666658,4.101515151515073" stroke-width="0.05" stroke="#888888" />
<use xlink:href="#d3" x="0.25" y="4.451515151515073" />
<path d="M9.99499999999974,3.7015151515150726 L9.99499999999974,4.101515151515073" stroke-width="0.05" stroke="#888888" />
<path d="M9.84499999999974,3.901515151515073 L9.99499999999974,4.101515151515073" stroke-width="0.05" stroke="#888888" />
<path d="M10.14499999999974,3.901515151515073 L9.99499999999974,4.101515151515073" stroke-width="0.05" stroke="#888888" />
<use xlink:href="#d4" x="6.91333333333316" y="4.451515151515073" />
<path d="M16.658333333332898,3.7015151515150726 L16.658333333332898,4.101515151515073" stroke-width="0.05" stroke="#888888" />
<path d="M16.5083333333329,3.901515151515073 L16.658333333332898,4.101515151515073" stroke-width="0.05" stroke="#888888" />
<path d="M16.808333333332897,3.901515151515073 L16.658333333332898,4.101515151515073" stroke-width="0.05" stroke="#888888" />
<text x="16.658333333332898" y="5.952272727272609" font-size="1" font-family="Anuphan" font-weight="700" fill="#333333" text-anchor="middle" alignment-baseline="middle">?</text>
<text x="19.9" y="8.1" font-size="0.3" font-family="Anuphan" font-weight="600" fill="#666666" text-anchor="end" alignment-baseline="bottom">Task 29c11459</text>
</svg>