<?xml version="1.0" encoding="UTF-8"?>
<svg xmlns="http://www.w3.org/2000/svg" xmlns:xlink="http://www.w3.org/1999/xlink"
     width="800.0" height="460.0" viewBox="0 0 20.0 11.5">
<defs>
<g id="d0">
<rect x="0.005" y="0.005" width="0.5977777777777777" height="0.5977777777777777" fill="#54D2EB" />
<rect x="0.6077777777777778" y="0.005" width="0.5977777777777777" height="0.5977777777777777" fill="#8D1D2C" />
<rect x="1.2105555555555554" y="0.005" width="0.5977777777777777" height="0.5977777777777777" fill="#54D2EB" />
<rect x="0.005" y="0.6077777777777778" width="0.5977777777777777" height="0.5977777777777777" fill="#8D1D2C" />
<rect x="0.6077777777777778" y="0.6077777777777778" width="0.5977777777777777" height="0.5977777777777777" fill="#54D2EB" />
<rect x="1.2105555555555554" y="0.6077777777777778" width="0.5977777777777777" height="0.5977777777777777" fill="#54D2EB" />
<rect x="0.005" y="1.2105555555555554" width="0.5977777777777777" height="0.5977777777777777" fill="#54D2EB" />
<rect x="0.6077777777777778" y="1.2105555555555554" width="0.5977777777777777" height="0.5977777777777777" fill="#54D2EB" />
<rect x="1.2105555555555554" y="1.2105555555555554" width="0.5977777777777777" height="0.5977777777777777" fill="#54D2EB" />
<rect x="0.005" y="1.813333333333333" width="0.5977777777777777" height="0.5977777777777777" fill="#FF4136" />
<rect x="0.6077777777777778" y="1.813333333333333" width="0.5977777777777777" height="0.5977777777777777" fill="#FF4136" />
<rect x="1.2105555555555554" y="1.813333333333333" width="0.5977777777777777" height="0.5977777777777777" fill="#0074D9" />
<rect x="0.005" y="2.416111111111111" width="0.5977777777777777" height="0.5977777777777777" fill="#FF4136" />
<rect x="0.6077777777777778" y="2.416111111111111" width="0.5977777777777777" height="0.5977777777777777" fill="#FF4136" />
<rect x="1.2105555555555554" y="2.416111111111111" width="0.5977777777777777" height="0.5977777777777777" fill="#0074D9" />
<rect x="0.005" y="3.0188888888888887" width="0.5977777777777777" height="0.5977777777777777" fill="#0074D9" />
<rect x="0.6077777777777778" y="3.0188888888888887" width="0.5977777777777777" height="0.5977777777777777" fill="#0074D9" />
<rect x="1.2105555555555554" y="3.0188888888888887" width="0.5977777777777777" height="0.5977777777777777" fill="#FF4136" />
<rect x="0.005" y="3.621666666666666" width="0.5977777777777777" height="0.5977777777777777" fill="#FFDC00" />
<rect x="0.6077777777777778" y="3.621666666666666" width="0.5977777777777777" height="0.5977777777777777" fill="#FFDC00" />
<rect x="1.2105555555555554" y="3.621666666666666" width="0.5977777777777777" height="0.5977777777777777" fill="#FFDC00" />
<rect x="0.005" y="4.224444444444444" width="0.5977777777777777" height="0.5977777777777777" fill="#FFDC00" />
<rect x="0.6077777777777778" y="4.224444444444444" width="0.5977777777777777" height="0.5977777777777777" fill="#FFDC00" />
<rect x="1.2105555555555554" y="4.224444444444444" width="0.5977777777777777" height="0.5977777777777777" fill="#37D449" />
<rect x="0.005" y="4.827222222222222" width="0.5977777777777777" height="0.5977777777777777" fill="#37D449" />
<rect x="0.6077777777777778" y="4.827222222222222" width="0.5977777777777777" height="0.5977777777777777" fill="#37D449" />
<rect x="1.2105555555555554" y="4.827222222222222" width="0.5977777777777777" height="0.5977777777777777" fill="#37D449" />
<rect x="-0.02666666666666667" y="-0.02666666666666667" width="1.8616666666666664" height="5.4783333333333335" fill="none" stroke="#111111ff" stroke-width="0.08" />
<text x="1.8083333333333331" y="5.89375" font-size="0.375" fill="black" text-anchor="end" font-family="Anuphan">3x9</text>
<text x="-0.037500000000000006" y="5.89375" font-size="0.375" fill="black" text-anchor="start" font-family="Anuphan" font-weight="600">Input 1</text>
</g>
<g id="d1">
<rect x="0.005" y="0.005" width="0.5977777777777777" height="0.5977777777777777" fill="#0074D9" />
<rect x="0.6077777777777778" y="0.005" width="0.5977777777777777" height="0.5977777777777777" fill="#E6E6E6" />
<rect x="1.2105555555555554" y="0.005" width="0.5977777777777777" height="0.5977777777777777" fill="#E6E6E6" />
<rect x="0.005" y="0.6077777777777778" width="0.5977777777777777" height="0.5977777777777777" fill="#E6E6E6" />
<rect x="0.6077777777777778" y="0.6077777777777778" width="0.5977777777777777" height="0.5977777777777777" fill="#0074D9" />
<rect x="1.2105555555555554" y="0.6077777777777778" width="0.5977777777777777" height="0.5977777777777777" fill="#0074D9" />
<rect x="0.005" y="1.2105555555555554" width="0.5977777777777777" height="0.5977777777777777" fill="#E6E6E6" />
<rect x="0.6077777777777778" y="1.2105555555555554" width="0.5977777777777777" height="0.5977777777777777" fill="#0074D9" />
<rect x="1.2105555555555554" y="1.2105555555555554" width="0.5977777777777777" height="0.5977777777777777" fill="#0074D9" />
<rect x="0.005" y="1.813333333333333" width="0.5977777777777777" height="0.5977777777777777" fill="#37D449" />
<rect x="0.6077777777777778" y="1.813333333333333" width="0.5977777777777777" height="0.5977777777777777" fill="#37D449" />
<rect x="1.2105555555555554" y="1.813333333333333" width="0.5977777777777777" height="0.5977777777777777" fill="#37D449" />
<rect x="0.005" y="2.416111111111111" width="0.5977777777777777" height="0.5977777777777777" fill="#37D449" />
<rect x="0.6077777777777778" y="2.416111111111111" width="0.5977777777777777" height="0.5977777777777777" fill="#F012BE" />
<rect x="1.2105555555555554" y="2.416111111111111" width="0.5977777777777777" height="0.5977777777777777" fill="#37D449" />
<rect x="0.005" y="3.0188888888888887" width="0.5977777777777777" height="0.5977777777777777" fill="#37D449" />
<rect x="0.6077777777777778" y="3.0188888888888887" width="0.5977777777777777" height="0.5977777777777777" fill="#F012BE" />
<rect x="1.2105555555555554" y="3.0188888888888887" width="0.5977777777777777" height="0.5977777777777777" fill="#F012BE" />
<rect x="0.005" y="3.621666666666666" width="0.5977777777777777" height="0.5977777777777777" fill="#FF871E" />
<rect x="0.6077777777777778" y="3.621666666666666" width="0.5977777777777777" height="0.5977777777777777" fill="#FF871E" />
<rect x="1.2105555555555554" y="3.621666666666666" width="0.5977777777777777" height="0.5977777777777777" fill="#FF871E" />
<rect x="0.005" y="4.224444444444444" width="0.5977777777777777" height="0.5977777777777777" fill="#FF871E" />
<rect x="0.6077777777777778" y="4.224444444444444" width="0.5977777777777777" height="0.5977777777777777" fill="#FF4136" />
<rect x="1.2105555555555554" y="4.224444444444444" width="0.5977777777777777" height="0.5977777777777777" fill="#FF4136" />
<rect x="0.005" y="4.827222222222222" width="0.5977777777777777" height="0.5977777777777777" fill="#FF871E" />
<rect x="0.6077777777777778" y="4.827222222222222" width="0.5977777777777777" height="0.5977777777777777" fill="#FF4136" />
<rect x="1.2105555555555554" y="4.827222222222222" width="0.5977777777777777" height="0.5977777777777777" fill="#FF4136" />
<rect x="-0.02666666666666667" y="-0.02666666666666667" width="1.8616666666666664" height="5.4783333333333335" fill="none" stroke="#111111ff" stroke-width="0.08" />
<text x="1.8083333333333331" y="5.89375" font-size="0.375" fill="black" text-anchor="end" font-family="Anuphan">3x9</text>
<text x="-0.037500000000000006" y="5.89375" font-size="0.375" fill="black" text-anchor="start" font-family="Anuphan" font-weight="600">Input 2</text>
</g>
<g id="d2">
<rect x="0.005" y="0.005" width="0.5977777777777777" height="0.5977777777777777" fill="#FF4136" />
<rect x="0.6077777777777778" y="0.005" width="0.5977777777777777" height="0.5977777777777777" fill="#FF4136" />
<rect x="1.2105555555555554" y="0.005" width="0.5977777777777777" height="0.5977777777777777" fill="#FF4136" />
<rect x="0.005" y="0.6077777777777778" width="0.5977777777777777" height="0.5977777777777777" fill="#FF4136" />
<rect x="0.6077777777777778" y="0.6077777777777778" width="0.5977777777777777" height="0.5977777777777777" fill="#FF4136" />
<rect x="1.2105555555555554" y="0.6077777777777778" width="0.5977777777777777" height="0.5977777777777777" fill="#37D449" />
<rect x="0.005" y="1.2105555555555554" width="0.5977777777777777" height="0.5977777777777777" fill="#FF4136" />
<rect x="0.6077777777777778" y="1.2105555555555554" width="0.5977777777777777" height="0.5977777777777777" fill="#37D449" />
<rect x="1.2105555555555554" y="1.2105555555555554" width="0.5977777777777777" height="0.5977777777777777" fill="#37D449" />
<rect x="0.005" y="1.813333333333333" width="0.5977777777777777" height="0.5977777777777777" fill="#E6E6E6" />
<rect x="0.6077777777777778" y="1.813333333333333" width="0.5977777777777777" height="0.5977777777777777" fill="#FF871E" />
<rect x="1.2105555555555554" y="1.813333333333333" width="0.5977777777777777" height="0.5977777777777777" fill="#FF871E" />
<rect x="0.005" y="2.416111111111111" width="0.5977777777777777" height="0.5977777777777777" fill="#FF871E" />
<rect x="0.6077777777777778" y="2.416111111111111" width="0.5977777777777777" height="0.5977777777777777" fill="#E6E6E6" />
<rect x="1.2105555555555554" y="2.416111111111111" width="0.5977777777777777" height="0.5977777777777777" fill="#E6E6E6" />
<rect x="0.005" y="3.0188888888888887" width="0.5977777777777777" height="0.5977777777777777" fill="#FF871E" />
<rect x="0.6077777777777778" y="3.0188888888888887" width="0.5977777777777777" height="0.5977777777777777" fill="#E6E6E6" />
<rect x="1.2105555555555554" y="3.0188888888888887" width="0.5977777777777777" height="0.5977777777777777" fill="#E6E6E6" />
<rect x="0.005" y="3.621666666666666" width="0.5977777777777777" height="0.5977777777777777" fill="#54D2EB" />
<rect x="0.6077777777777778" y="3.621666666666666" width="0.5977777777777777" height="0.5977777777777777" fill="#54D2EB" />
<rect x="1.2105555555555554" y="3.621666666666666" width="0.5977777777777777" height="0.5977777777777777" fill="#0074D9" />
<rect x="0.005" y="4.224444444444444" width="0.5977777777777777" height="0.5977777777777777" fill="#0074D9" />
<rect x="0.6077777777777778" y="4.224444444444444" width="0.5977777777777777" height="0.5977777777777777" fill="#54D2EB" />
<rect x="1.2105555555555554" y="4.224444444444444" width="0.5977777777777777" height="0.5977777777777777" fill="#0074D9" />
<rect x="0.005" y="4.827222222222222" width="0.5977777777777777" height="0.5977777777777777" fill="#0074D9" />
<rect x="0.6077777777777778" y="4.827222222222222" width="0.5977777777777777" height="0.5977777777777777" fill="#54D2EB" />
<rect x="1.2105555555555554" y="4.827222222222222" width="0.5977777777777777" height="0.5977777777777777" fill="#0074D9" />
<rect x="-0.02666666666666667" y="-0.02666666666666667" width="1.8616666666666664" height="5.4783333333333335" fill="none" stroke="#111111ff" stroke-width="0.08" />
<text x="1.8083333333333331" y="5.89375" font-size="0.375" fill="black" text-anchor="end" font-family="Anuphan">3x9</text>
<text x="-0.037500000000000006" y="5.89375" font-size="0.375" fill="black" text-anchor="start" font-family="Anuphan" font-weight="600">Input 3</text>
</g>
<g id="d3">
<rect x="0.005" y="0.005" width="0.5977777777777777" height="0.5977777777777777" fill="#54D2EB" />
<rect x="0.6077777777777778" y="0.005" width="0.5977777777777777" height="0.5977777777777777" fill="#54D2EB" />
<rect x="1.2105555555555554" y="0.005" width="0.5977777777777777" height="0.5977777777777777" fill="#FFDC00" />
<rect x="0.005" y="0.6077777777777778" width="0.5977777777777777" height="0.5977777777777777" fill="#FFDC00" />
<rect x="0.6077777777777778" y="0.6077777777777778" width="0.5977777777777777" height="0.5977777777777777" fill="#FFDC00" />
<rect x="1.2105555555555554" y="0.6077777777777778" width="0.5977777777777777" height="0.5977777777777777" fill="#FFDC00" />
<rect x="0.005" y="1.2105555555555554" width="0.5977777777777777" height="0.5977777777777777" fill="#FFDC00" />
<rect x="0.6077777777777778" y="1.2105555555555554" width="0.5977777777777777" height="0.5977777777777777" fill="#FFDC00" />
<rect x="1.2105555555555554" y="1.2105555555555554" width="0.5977777777777777" height="0.5977777777777777" fill="#54D2EB" />
<rect x="0.005" y="1.813333333333333" width="0.5977777777777777" height="0.5977777777777777" fill="#0074D9" />
<rect x="0.6077777777777778" y="1.813333333333333" width="0.5977777777777777" height="0.5977777777777777" fill="#0074D9" />
<rect x="1.2105555555555554" y="1.813333333333333" width="0.5977777777777777" height="0.5977777777777777" fill="#37D449" />
<rect x="0.005" y="2.416111111111111" width="0.5977777777777777" height="0.5977777777777777" fill="#0074D9" />
<rect x="0.6077777777777778" y="2.416111111111111" width="0.5977777777777777" height="0.5977777777777777" fill="#37D449" />
<rect x="1.2105555555555554" y="2.416111111111111" width="0.5977777777777777" height="0.5977777777777777" fill="#37D449" />
<rect x="0.005" y="3.0188888888888887" width="0.5977777777777777" height="0.5977777777777777" fill="#37D449" />
<rect x="0.6077777777777778" y="3.0188888888888887" width="0.5977777777777777" height="0.5977777777777777" fill="#37D449" />
<rect x="1.2105555555555554" y="3.0188888888888887" width="0.5977777777777777" height="0.5977777777777777" fill="#0074D9" />
<rect x="0.005" y="3.621666666666666" width="0.5977777777777777" height="0.5977777777777777" fill="#F012BE" />
<rect x="0.6077777777777778" y="3.621666666666666" width="0.5977777777777777" height="0.5977777777777777" fill="#FF4136" />
<rect x="1.2105555555555554" y="3.621666666666666" width="0.5977777777777777" height="0.5977777777777777" fill="#FF4136" />
<rect x="0.005" y="4.224444444444444" width="0.5977777777777777" height="0.5977777777777777" fill="#FF4136" />
<rect x="0.6077777777777778" y="4.224444444444444" width="0.5977777777777777" height="0.5977777777777777" fill="#FF4136" />
<rect x="1.2105555555555554" y="4.224444444444444" width="0.5977777777777777" height="0.5977777777777777" fill="#FF4136" />
<rect x="0.005" y="4.827222222222222" width="0.5977777777777777" height="0.5977777777777777" fill="#FF4136" />
<rect x="0.6077777777777778" y="4.827222222222222" width="0.5977777777777777" height="0.5977777777777777" fill="#FF4136" />
<rect x="1.2105555555555554" y="4.827222222222222" width="0.5977777777777777" height="0.5977777777777777" fill="#F012BE" />
<rect x="-0.02666666666666667" y="-0.02666666666666667" width="1.8616666666666664" height="5.4783333333333335" fill="none" stroke="#111111ff" stroke-width="0.08" />
<text x="1.8083333333333331" y="5.89375" font-size="0.375" fill="black" text-anchor="end" font-family="Anuphan">3x9</text>
<text x="-0.037500000000000006" y="5.89375" font-size="0.375" fill="black" text-anchor="start" font-family="Anuphan" font-weight="600">Input 4</text>
</g>
<g id="d4">
<rect x="0.005" y="0.005" width="0.5977777777777777" height="0.5977777777777777" fill="#E6E6E6" />
<rect x="0.6077777777777778" y="0.005" width="0.5977777777777777" height="0.5977777777777777" fill="#FFDC00" />
<rect x="1.2105555555555554" y="0.005" width="0.5977777777777777" height="0.5977777777777777" fill="#FFDC00" />
<rect x="0.005" y="0.6077777777777778" width="0.5977777777777777" height="0.5977777777777777" fill="#FFDC00" />
<rect x="0.6077777777777778" y="0.6077777777777778" width="0.5977777777777777" height="0.5977777777777777" fill="#E6E6E6" />
<rect x="1.2105555555555554" y="0.6077777777777778" width="0.5977777777777777" height="0.5977777777777777" fill="#FFDC00" />
<rect x="0.005" y="1.2105555555555554" width="0.5977777777777777" height="0.5977777777777777" fill="#FFDC00" />
<rect x="0.6077777777777778" y="1.2105555555555554" width="0.5977777777777777" height="0.5977777777777777" fill="#E6E6E6" />
<rect x="1.2105555555555554" y="1.2105555555555554" width="0.5977777777777777" height="0.5977777777777777" fill="#FFDC00" />
<rect x="0.005" y="1.813333333333333" width="0.5977777777777777" height="0.5977777777777777" fill="#37D449" />
<rect x="0.6077777777777778" y="1.813333333333333" width="0.5977777777777777" height="0.5977777777777777" fill="#37D449" />
<rect x="1.2105555555555554" y="1.813333333333333" width="0.5977777777777777" height="0.5977777777777777" fill="#FF4136" />
<rect x="0.005" y="2.416111111111111" width="0.5977777777777777" height="0.5977777777777777" fill="#37D449" />
<rect x="0.6077777777777778" y="2.416111111111111" width="0.5977777777777777" height="0.5977777777777777" fill="#37D449" />
<rect x="1.2105555555555554" y="2.416111111111111" width="0.5977777777777777" height="0.5977777777777777" fill="#FF4136" />
<rect x="0.005" y="3.0188888888888887" width="0.5977777777777777" height="0.5977777777777777" fill="#FF4136" />
<rect x="0.6077777777777778" y="3.0188888888888887" width="0.5977777777777777" height="0.5977777777777777" fill="#FF4136" />
<rect x="1.2105555555555554" y="3.0188888888888887" width="0.5977777777777777" height="0.5977777777777777" fill="#37D449" />
<rect x="0.005" y="3.621666666666666" width="0.5977777777777777" height="0.5977777777777777" fill="#0074D9" />
<rect x="0.6077777777777778" y="3.621666666666666" width="0.5977777777777777" height="0.5977777777777777" fill="#0074D9" />
<rect x="1.2105555555555554" y="3.621666666666666" width="0.5977777777777777" height="0.5977777777777777" fill="#0074D9" />
<rect x="0.005" y="4.224444444444444" width="0.5977777777777777" height="0.5977777777777777" fill="#0074D9" />
<rect x="0.6077777777777778" y="4.224444444444444" width="0.5977777777777777" height="0.5977777777777777" fill="#54D2EB" />
<rect x="1.2105555555555554" y="4.224444444444444" width="0.5977777777777777" height="0.5977777777777777" fill="#54D2EB" />
<rect x="0.005" y="4.827222222222222" width="0.5977777777777777" height="0.5977777777777777" fill="#0074D9" />
<rect x="0.6077777777777778" y="4.827222222222222" width="0.5977777777777777" height="0.5977777777777777" fill="#54D2EB" />
<rect x="1.2105555555555554" y="4.827222222222222" width="0.5977777777777777" height="0.5977777777777777" fill="#54D2EB" />
<rect x="-0.02666666666666667" y="-0.02666666666666667" width="1.8616666666666664" height="5.4783333333333335" fill="none" stroke="#111111ff" stroke-width="0.08" />
<text x="1.8083333333333331" y="5.89375" font-size="0.375" fill="black" text-anchor="end" font-family="Anuphan">3x9</text>
<text x="-0.037500000000000006" y="5.89375" font-size="0.375" fill="black" text-anchor="start" font-family="Anuphan" font-weight="600">Test 1</text>
</g>
<g id="d5">
<rect x="0.005" y="0.005" width="1.1609999999999456" height="1.1609999999999456" fill="#FFDC00" />
<rect x="1.1709999999999454" y="0.005" width="1.1609999999999456" height="1.1609999999999456" fill="#FFDC00" />
<rect x="2.336999999999891" y="0.005" width="1.1609999999999456" height="1.1609999999999456" fill="#FFDC00" />
<rect x="0.005" y="1.1709999999999454" width="1.1609999999999456" height="1.1609999999999456" fill="#FFDC00" />
<rect x="1.1709999999999454" y="1.1709999999999454" width="1.1609999999999456" height="1.1609999999999456" fill="#FFDC00" />
<rect x="2.336999999999891" y="1.1709999999999454" width="1.1609999999999456" height="1.1609999999999456" fill="#37D449" />
<rect x="0.005" y="2.336999999999891" width="1.1609999999999456" height="1.1609999999999456" fill="#37D449" />
<rect x="1.1709999999999454" y="2.336999999999891" width="1.1609999999999456" height="1.1609999999999456" fill="#37D449" />
<rect x="2.336999999999891" y="2.336999999999891" width="1.1609999999999456" height="1.1609999999999456" fill="#37D449" />
<rect x="-0.02666666666666667" y="-0.02666666666666667" width="3.55133333333317" height="3.55133333333317" fill="none" stroke="#111111ff" stroke-width="0.08" />
<text x="3.497999999999837" y="3.966749999999837" font-size="0.375" fill="black" text-anchor="end" font-family="Anuphan">3x3</text>
<text x="-0.037500000000000006" y="3.966749999999837" font-size="0.375" fill="black" text-anchor="start" font-family="Anuphan" font-weight="600">Output 1</text>
</g>
<g id="d6">
<rect x="0.005" y="0.005" width="1.1609999999999456" height="1.1609999999999456" fill="#37D449" />
<rect x="1.1709999999999454" y="0.005" width="1.1609999999999456" height="1.1609999999999456" fill="#37D449" />
<rect x="2.336999999999891" y="0.005" width="1.1609999999999456" height="1.1609999999999456" fill="#37D449" />
<rect x="0.005" y="1.1709999999999454" width="1.1609999999999456" height="1.1609999999999456" fill="#37D449" />
<rect x="1.1709999999999454" y="1.1709999999999454" width="1.1609999999999456" height="1.1609999999999456" fill="#F012BE" />
<rect x="2.336999999999891" y="1.1709999999999454" width="1.1609999999999456" height="1.1609999999999456" fill="#37D449" />
<rect x="0.005" y="2.336999999999891" width="1.1609999999999456" height="1.1609999999999456" fill="#37D449" />
<rect x="1.1709999999999454" y="2.336999999999891" width="1.1609999999999456" height="1.1609999999999456" fill="#F012BE" />
<rect x="2.336999999999891" y="2.336999999999891" width="1.1609999999999456" height="1.1609999999999456" fill="#F012BE" />
<rect x="-0.02666666666666667" y="-0.02666666666666667" width="3.55133333333317" height="3.55133333333317" fill="none" stroke="#111111ff" stroke-width="0.08" />
<text x="3.497999999999837" y="3.966749999999837" font-size="0.375" fill="black" text-anchor="end" font-family="Anuphan">3x3</text>
<text x="-0.037500000000000006" y="3.966749999999837" font-size="0.375" fill="black" text-anchor="start" font-family="Anuphan" font-weight="600">Output 2</text>
</g>
<g id="d7">
<rect x="0.005" y="0.005" width="1.1609999999999456" height="1.1609999999999456" fill="#54D2EB" />
<rect x="1.1709999999999454" y="0.005" width="1.1609999999999456" height="1.1609999999999456" fill="#54D2EB" />
<rect x="2.336999999999891" y="0.005" width="1.1609999999999456" height="1.1609999999999456" fill="#0074D9" />
<rect x="0.005" y="1.1709999999999454" width="1.1609999999999456" height="1.1609999999999456" fill="#0074D9" />
<rect x="1.1709999999999454" y="1.1709999999999454" width="1.1609999999999456" height="1.1609999999999456" fill="#54D2EB" />
<rect x="2.336999999999891" y="1.1709999999999454" width="1.1609999999999456" height="1.1609999999999456" fill="#0074D9" />
<rect x="0.005" y="2.336999999999891" width="1.1609999999999456" height="1.1609999999999456" fill="#0074D9" />
<rect x="1.1709999999999454" y="2.336999999999891" width="1.1609999999999456" height="1.1609999999999456" fill="#54D2EB" />
<rect x="2.336999999999891" y="2.336999999999891" width="1.1609999999999456" height="1.1609999999999456" fill="#0074D9" />
<rect x="-0.02666666666666667" y="-0.02666666666666667" width="3.55133333333317" height="3.55133333333317" fill="none" stroke="#111111ff" stroke-width="0.08" />
<text x="3.497999999999837" y="3.966749999999837" font-size="0.375" fill="black" text-anchor="end" font-family="Anuphan">3x3</text>
<text x="-0.037500000000000006" y="3.966749999999837" font-size="0.375" fill="black" text-anchor="start" font-family="Anuphan" font-weight="600">Output 3</text>
</g>
<g id="d8">
<rect x="0.005" y="0.005" width="1.1609999999999456" height="1.1609999999999456" fill="#54D2EB" />
<rect x="1.1709999999999454" y="0.005" width="1.1609999999999456" height="1.1609999999999456" fill="#54D2EB" />
<rect x="2.336999999999891" y="0.005" width="1.1609999999999456" height="1.1609999999999456" fill="#FFDC00" />
<rect x="0.005" y="1.1709999999999454" width="1.1609999999999456" height="1.1609999999999456" fill="#FFDC00" />
<rect x="1.1709999999999454" y="1.1709999999999454" width="1.1609999999999456" height="1.1609999999999456" fill="#FFDC00" />
<rect x="2.336999999999891" y="1.1709999999999454" width="1.1609999999999456" height="1.1609999999999456" fill="#FFDC00" />
<rect x="0.005" y="2.336999999999891" width="1.1609999999999456" height="1.1609999999999456" fill="#FFDC00" />
<rect x="1.1709999999999454" y="2.336999999999891" width="1.1609999999999456" height="1.1609999999999456" fill="#FFDC00" />
<rect x="2.336999999999891" y="2.336999999999891" width="1.1609999999999456" height="1.1609999999999456" fill="#54D2EB" />
<rect x="-0.02666666666666667" y="-0.02666666666666667" width="3.55133333333317" height="3.55133333333317" fill="none" stroke="#111111ff" stroke-width="0.08" />
<text x="3.497999999999837" y="3.966749999999837" font-size="0.375" fill="black" text-anchor="end" font-family="Anuphan">3x3</text>
<text x="-0.037500000000000006" y="3.966749999999837" font-size="0.375" fill="black" text-anchor="start" font-family="Anuphan" font-weight="600">Output 4</text>
</g>
</defs>
<rect x="0" y="0" width="100%" height="100%" fill="#eeeff6" />
<use xlink:href="#d0" x="1.0948333333332516" y="0.25" />
<use xlink:href="#d1" x="5.092833333333088" y="0.25" />
<use xlink:href="#d2" x="9.090833333332926" y="0.25" />
<use xlink:href="#d3" x="13.088833333332762" y="0.25" />
<use xlink:href="#d4" x="17.0868333333326" y="0.25" />
<path d="M1.1541666666666666,6.325 L1.1541666666666666,6.7250000000000005" stroke-width="0.05" stroke="#888888" />
<path d="M1.0041666666666667,6.525 L1.1541666666666666,6.7250000000000005" stroke-width="0.05" stroke="#888888" />
<path d="M1.3041666666666665,6.525 L1.1541666666666666,6.7250000000000005" stroke-width="0.05" stroke="#888888" />
<use xlink:href="#d5" x="0.24999999999999978" y="7.075" />
<path d="M5.152166666666504,6.325 L5.152166666666504,6.7250000000000005" stroke-width="0.05" stroke="#888888" />
<path d="M5.002166666666503,6.525 L5.152166666666504,6.7250000000000005" stroke-width="0.05" stroke="#888888" />
<path d="M5.302166666666504,6.525 L5.152166666666504,6.7250000000000005" stroke-width="0.05" stroke="#888888" />
<use xlink:href="#d6" x="4.247999999999837" y="7.075" />
<path d="M9.15016666666634,6.325 L9.15016666666634,6.7250000000000005" stroke-width="0.05" stroke="#888888" />
<path d="M9.00016666666634,6.525 L9.15016666666634,6.7250000000000005" stroke-width="0.05" stroke="#888888" />
<path d="M9.30016666666634,6.525 L9.15016666666634,6.7250000000000005" stroke-width="0.05" stroke="#888888" />
<use xlink:href="#d7" x="8.245999999999674" y="7.075" />
<path d="M13.148166666666176,6.325 L13.148166666666176,6.7250000000000005" stroke-width="0.05" stroke="#888888" />
<path d="M12.998166666666176,6.525 L13.148166666666176,6.7250000000000005" stroke-width="0.05" stroke="#888888" />
<path d="M13.298166666666177,6.525 L13.148166666666176,6.7250000000000005" stroke-width="0.05" stroke="#888888" />
<use xlink:href="#d8" x="12.24399999999951" y="7.075" />
<path d="M17.146166666666012,6.325 L17.146166666666012,6.7250000000000005" stroke-width="0.05" stroke="#888888" />
<path d="M16.996166666666014,6.525 L17.146166666666012,6.7250000000000005" stroke-width="0.05" stroke="#888888" />
<path d="M17.29616666666601,6.525 L17.146166666666012,6.7250000000000005" stroke-width="0.05" stroke="#888888" />
<text x="17.990999999999264" y="8.923999999999918" font-size="1" font-family="Anuphan" font-weight="700" fill="#333333" text-anchor="middle" alignment-baseline="middle">?</text>
<text x="19.9" y="11.4" font-size="0.3" font-family="Anuphan" font-weight="600" fill="#666666" text-anchor="end" alignment-baseline="bottom">Task 662c240a</text>
</svg>