<?xml version="1.0" encoding="UTF-8"?>
<svg xmlns="http://www.w3.org/2000/svg" xmlns:xlink="http://www.w3.org/1999/xlink"
     width="800.0" height="204.00000000000003" viewBox="0 0 20.0 5.1000000000000005">
<defs>
<g id="d0">
<rect x="0.005" y="0.005" width="0.40386363636363665" height="0.40386363636363665" fill="#0074D9" />
<rect x="0.41386363636363666" y="0.005" width="0.40386363636363665" height="0.40386363636363665" fill="#0074D9" />
<rect x="0.8227272727272733" y="0.005" width="0.40386363636363665" height="0.40386363636363665" fill="#FF4136" />
<rect x="1.2315909090909098" y="0.005" width="0.40386363636363665" height="0.40386363636363665" fill="#E6E6E6" />
<rect x="1.6404545454545465" y="0.005" width="0.40386363636363665" height="0.40386363636363665" fill="#252525" />
<rect x="2.049318181818183" y="0.005" width="0.40386363636363665" height="0.40386363636363665" fill="#252525" />
<rect x="2.45818181818182" y="0.005" width="0.40386363636363665" height="0.40386363636363665" fill="#252525" />
<rect x="2.8670454545454565" y="0.005" width="0.40386363636363665" height="0.40386363636363665" fill="#E6E6E6" />
<rect x="3.275909090909093" y="0.005" width="0.40386363636363665" height="0.40386363636363665" fill="#252525" />
<rect x="3.6847727272727298" y="0.005" width="0.40386363636363665" height="0.40386363636363665" fill="#252525" />
<rect x="4.093636363636366" y="0.005" width="0.40386363636363665" height="0.40386363636363665" fill="#252525" />
<rect x="0.005" y="0.41386363636363666" width="0.40386363636363665" height="0.40386363636363665" fill="#FFDC00" />
<rect x="0.41386363636363666" y="0.41386363636363666" width="0.40386363636363665" height="0.40386363636363665" fill="#0074D9" />
<rect x="0.8227272727272733" y="0.41386363636363666" width="0.40386363636363665" height="0.40386363636363665" fill="#0074D9" />
<rect x="1.2315909090909098" y="0.41386363636363666" width="0.40386363636363665" height="0.40386363636363665" fill="#E6E6E6" />
<rect x="1.6404545454545465" y="0.41386363636363666" width="0.40386363636363665" height="0.40386363636363665" fill="#252525" />
<rect x="2.049318181818183" y="0.41386363636363666" width="0.40386363636363665" height="0.40386363636363665" fill="#252525" />
<rect x="2.45818181818182" y="0.41386363636363666" width="0.40386363636363665" height="0.40386363636363665" fill="#252525" />
<rect x="2.8670454545454565" y="0.41386363636363666" width="0.40386363636363665" height="0.40386363636363665" fill="#E6E6E6" />
<rect x="3.275909090909093" y="0.41386363636363666" width="0.40386363636363665" height="0.40386363636363665" fill="#252525" />
<rect x="3.6847727272727298" y="0.41386363636363666" width="0.40386363636363665" height="0.40386363636363665" fill="#252525" />
<rect x="4.093636363636366" y="0.41386363636363666" width="0.40386363636363665" height="0.40386363636363665" fill="#252525" />
<rect x="0.005" y="0.8227272727272733" width="0.40386363636363665" height="0.40386363636363665" fill="#FFDC00" />
<rect x="0.41386363636363666" y="0.8227272727272733" width="0.40386363636363665" height="0.40386363636363665" fill="#FFDC00" />
<rect x="0.8227272727272733" y="0.8227272727272733" width="0.40386363636363665" height="0.40386363636363665" fill="#0074D9" />
<rect x="1.2315909090909098" y="0.8227272727272733" width="0.40386363636363665" height="0.40386363636363665" fill="#E6E6E6" />
<rect x="1.6404545454545465" y="0.8227272727272733" width="0.40386363636363665" height="0.40386363636363665" fill="#252525" />
<rect x="2.049318181818183" y="0.8227272727272733" width="0.40386363636363665" height="0.40386363636363665" fill="#252525" />
<rect x="2.45818181818182" y="0.8227272727272733" width="0.40386363636363665" height="0.40386363636363665" fill="#252525" />
<rect x="2.8670454545454565" y="0.8227272727272733" width="0.40386363636363665" height="0.40386363636363665" fill="#E6E6E6" />
<rect x="3.275909090909093" y="0.8227272727272733" width="0.40386363636363665" height="0.40386363636363665" fill="#252525" />
<rect x="3.6847727272727298" y="0.8227272727272733" width="0.40386363636363665" height="0.40386363636363665" fill="#252525" />
<rect x="4.093636363636366" y="0.8227272727272733" width="0.40386363636363665" height="0.40386363636363665" fill="#252525" />
<rect x="-0.02666666666666667" y="-0.02666666666666667" width="4.550833333333337" height="1.2799242424242432" fill="none" stroke="#111111ff" stroke-width="0.08" />
<text x="4.497500000000003" y="1.69534090909091" font-size="0.375" fill="black" text-anchor="end" font-family="Anuphan">11x3</text>
<text x="-0.037500000000000006" y="1.69534090909091" font-size="0.375" fill="black" text-anchor="start" font-family="Anuphan" font-weight="600">Input 1</text>
</g>
<g id="d1">
<rect x="0.005" y="0.005" width="0.40386363636363665" height="0.40386363636363665" fill="#F012BE" />
<rect x="0.41386363636363666" y="0.005" width="0.40386363636363665" height="0.40386363636363665" fill="#37D449" />
<rect x="0.8227272727272733" y="0.005" width="0.40386363636363665" height="0.40386363636363665" fill="#37D449" />
<rect x="1.2315909090909098" y="0.005" width="0.40386363636363665" height="0.40386363636363665" fill="#E6E6E6" />
<rect x="1.6404545454545465" y="0.005" width="0.40386363636363665" height="0.40386363636363665" fill="#252525" />
<rect x="2.049318181818183" y="0.005" width="0.40386363636363665" height="0.40386363636363665" fill="#252525" />
<rect x="2.45818181818182" y="0.005" width="0.40386363636363665" height="0.40386363636363665" fill="#252525" />
<rect x="2.8670454545454565" y="0.005" width="0.40386363636363665" height="0.40386363636363665" fill="#E6E6E6" />
<rect x="3.275909090909093" y="0.005" width="0.40386363636363665" height="0.40386363636363665" fill="#252525" />
<rect x="3.6847727272727298" y="0.005" width="0.40386363636363665" height="0.40386363636363665" fill="#252525" />
<rect x="4.093636363636366" y="0.005" width="0.40386363636363665" height="0.40386363636363665" fill="#252525" />
<rect x="0.005" y="0.41386363636363666" width="0.40386363636363665" height="0.40386363636363665" fill="#F012BE" />
<rect x="0.41386363636363666" y="0.41386363636363666" width="0.40386363636363665" height="0.40386363636363665" fill="#37D449" />
<rect x="0.8227272727272733" y="0.41386363636363666" width="0.40386363636363665" height="0.40386363636363665" fill="#37D449" />
<rect x="1.2315909090909098" y="0.41386363636363666" width="0.40386363636363665" height="0.40386363636363665" fill="#E6E6E6" />
<rect x="1.6404545454545465" y="0.41386363636363666" width="0.40386363636363665" height="0.40386363636363665" fill="#252525" />
<rect x="2.049318181818183" y="0.41386363636363666" width="0.40386363636363665" height="0.40386363636363665" fill="#252525" />
<rect x="2.45818181818182" y="0.41386363636363666" width="0.40386363636363665" height="0.40386363636363665" fill="#252525" />
<rect x="2.8670454545454565" y="0.41386363636363666" width="0.40386363636363665" height="0.40386363636363665" fill="#E6E6E6" />
<rect x="3.275909090909093" y="0.41386363636363666" width="0.40386363636363665" height="0.40386363636363665" fill="#252525" />
<rect x="3.6847727272727298" y="0.41386363636363666" width="0.40386363636363665" height="0.40386363636363665" fill="#252525" />
<rect x="4.093636363636366" y="0.41386363636363666" width="0.40386363636363665" height="0.40386363636363665" fill="#252525" />
<rect x="0.005" y="0.8227272727272733" width="0.40386363636363665" height="0.40386363636363665" fill="#F012BE" />
<rect x="0.41386363636363666" y="0.8227272727272733" width="0.40386363636363665" height="0.40386363636363665" fill="#37D449" />
<rect x="0.8227272727272733" y="0.8227272727272733" width="0.40386363636363665" height="0.40386363636363665" fill="#FF4136" />
<rect x="1.2315909090909098" y="0.8227272727272733" width="0.40386363636363665" height="0.40386363636363665" fill="#E6E6E6" />
<rect x="1.6404545454545465" y="0.8227272727272733" width="0.40386363636363665" height="0.40386363636363665" fill="#252525" />
<rect x="2.049318181818183" y="0.8227272727272733" width="0.40386363636363665" height="0.40386363636363665" fill="#252525" />
<rect x="2.45818181818182" y="0.8227272727272733" width="0.40386363636363665" height="0.40386363636363665" fill="#252525" />
<rect x="2.8670454545454565" y="0.8227272727272733" width="0.40386363636363665" height="0.40386363636363665" fill="#E6E6E6" />
<rect x="3.275909090909093" y="0.8227272727272733" width="0.40386363636363665" height="0.40386363636363665" fill="#252525" />
<rect x="3.6847727272727298" y="0.8227272727272733" width="0.40386363636363665" height="0.40386363636363665" fill="#252525" />
<rect x="4.093636363636366" y="0.8227272727272733" width="0.40386363636363665" height="0.40386363636363665" fill="#252525" />
<rect x="-0.02666666666666667" y="-0.02666666666666667" width="4.550833333333337" height="1.2799242424242432" fill="none" stroke="#111111ff" stroke-width="0.08" />
<text x="4.497500000000003" y="1.69534090909091" font-size="0.375" fill="black" text-anchor="end" font-family="Anuphan">11x3</text>
<text x="-0.037500000000000006" y="1.69534090909091" font-size="0.375" fill="black" text-anchor="start" font-family="Anuphan" font-weight="600">Input 2</text>
</g>
<g id="d2">
<rect x="0.005" y="0.005" width="0.40386363636363665" height="0.40386363636363665" fill="#FF4136" />
<rect x="0.41386363636363666" y="0.005" width="0.40386363636363665" height="0.40386363636363665" fill="#FF871E" />
<rect x="0.8227272727272733" y="0.005" width="0.40386363636363665" height="0.40386363636363665" fill="#54D2EB" />
<rect x="1.2315909090909098" y="0.005" width="0.40386363636363665" height="0.40386363636363665" fill="#E6E6E6" />
<rect x="1.6404545454545465" y="0.005" width="0.40386363636363665" height="0.40386363636363665" fill="#252525" />
<rect x="2.049318181818183" y="0.005" width="0.40386363636363665" height="0.40386363636363665" fill="#252525" />
<rect x="2.45818181818182" y="0.005" width="0.40386363636363665" height="0.40386363636363665" fill="#252525" />
<rect x="2.8670454545454565" y="0.005" width="0.40386363636363665" height="0.40386363636363665" fill="#E6E6E6" />
<rect x="3.275909090909093" y="0.005" width="0.40386363636363665" height="0.40386363636363665" fill="#252525" />
<rect x="3.6847727272727298" y="0.005" width="0.40386363636363665" height="0.40386363636363665" fill="#252525" />
<rect x="4.093636363636366" y="0.005" width="0.40386363636363665" height="0.40386363636363665" fill="#252525" />
<rect x="0.005" y="0.41386363636363666" width="0.40386363636363665" height="0.40386363636363665" fill="#FF871E" />
<rect x="0.41386363636363666" y="0.41386363636363666" width="0.40386363636363665" height="0.40386363636363665" fill="#FF871E" />
<rect x="0.8227272727272733" y="0.41386363636363666" width="0.40386363636363665" height="0.40386363636363665" fill="#54D2EB" />
<rect x="1.2315909090909098" y="0.41386363636363666" width="0.40386363636363665" height="0.40386363636363665" fill="#E6E6E6" />
<rect x="1.6404545454545465" y="0.41386363636363666" width="0.40386363636363665" height="0.40386363636363665" fill="#252525" />
<rect x="2.049318181818183" y="0.41386363636363666" width="0.40386363636363665" height="0.40386363636363665" fill="#252525" />
<rect x="2.45818181818182" y="0.41386363636363666" width="0.40386363636363665" height="0.40386363636363665" fill="#252525" />
<rect x="2.8670454545454565" y="0.41386363636363666" width="0.40386363636363665" height="0.40386363636363665" fill="#E6E6E6" />
<rect x="3.275909090909093" y="0.41386363636363666" width="0.40386363636363665" height="0.40386363636363665" fill="#252525" />
<rect x="3.6847727272727298" y="0.41386363636363666" width="0.40386363636363665" height="0.40386363636363665" fill="#252525" />
<rect x="4.093636363636366" y="0.41386363636363666" width="0.40386363636363665" height="0.40386363636363665" fill="#252525" />
<rect x="0.005" y="0.8227272727272733" width="0.40386363636363665" height="0.40386363636363665" fill="#54D2EB" />
<rect x="0.41386363636363666" y="0.8227272727272733" width="0.40386363636363665" height="0.40386363636363665" fill="#54D2EB" />
<rect x="0.8227272727272733" y="0.8227272727272733" width="0.40386363636363665" height="0.40386363636363665" fill="#54D2EB" />
<rect x="1.2315909090909098" y="0.8227272727272733" width="0.40386363636363665" height="0.40386363636363665" fill="#E6E6E6" />
<rect x="1.6404545454545465" y="0.8227272727272733" width="0.40386363636363665" height="0.40386363636363665" fill="#252525" />
<rect x="2.049318181818183" y="0.8227272727272733" width="0.40386363636363665" height="0.40386363636363665" fill="#252525" />
<rect x="2.45818181818182" y="0.8227272727272733" width="0.40386363636363665" height="0.40386363636363665" fill="#252525" />
<rect x="2.8670454545454565" y="0.8227272727272733" width="0.40386363636363665" height="0.40386363636363665" fill="#E6E6E6" />
<rect x="3.275909090909093" y="0.8227272727272733" width="0.40386363636363665" height="0.40386363636363665" fill="#252525" />
<rect x="3.6847727272727298" y="0.8227272727272733" width="0.40386363636363665" height="0.40386363636363665" fill="#252525" />
<rect x="4.093636363636366" y="0.8227272727272733" width="0.40386363636363665" height="0.40386363636363665" fill="#252525" />
<rect x="-0.02666666666666667" y="-0.02666666666666667" width="4.550833333333337" height="1.2799242424242432" fill="none" stroke="#111111ff" stroke-width="0.08" />
<text x="4.497500000000003" y="1.69534090909091" font-size="0.375" fill="black" text-anchor="end" font-family="Anuphan">11x3</text>
<text x="-0.037500000000000006" y="1.69534090909091" font-size="0.375" fill="black" text-anchor="start" font-family="Anuphan" font-weight="600">Input 3</text>
</g>
<g id="d3">
<rect x="0.005" y="0.005" width="0.40386363636363665" height="0.40386363636363665" fill="#37D449" />
<rect x="0.41386363636363666" y="0.005" width="0.40386363636363665" height="0.40386363636363665" fill="#37D449" />
<rect x="0.8227272727272733" y="0.005" width="0.40386363636363665" height="0.40386363636363665" fill="#8D1D2C" />
<rect x="1.2315909090909098" y="0.005" width="0.40386363636363665" height="0.40386363636363665" fill="#E6E6E6" />
<rect x="1.6404545454545465" y="0.005" width="0.40386363636363665" height="0.40386363636363665" fill="#252525" />
<rect x="2.049318181818183" y="0.005" width="0.40386363636363665" height="0.40386363636363665" fill="#252525" />
<rect x="2.45818181818182" y="0.005" width="0.40386363636363665" height="0.40386363636363665" fill="#252525" />
<rect x="2.8670454545454565" y="0.005" width="0.40386363636363665" height="0.40386363636363665" fill="#E6E6E6" />
<rect x="3.275909090909093" y="0.005" width="0.40386363636363665" height="0.40386363636363665" fill="#252525" />
<rect x="3.6847727272727298" y="0.005" width="0.40386363636363665" height="0.40386363636363665" fill="#252525" />
<rect x="4.093636363636366" y="0.005" width="0.40386363636363665" height="0.40386363636363665" fill="#252525" />
<rect x="0.005" y="0.41386363636363666" width="0.40386363636363665" height="0.40386363636363665" fill="#8D1D2C" />
<rect x="0.41386363636363666" y="0.41386363636363666" width="0.40386363636363665" height="0.40386363636363665" fill="#8D1D2C" />
<rect x="0.8227272727272733" y="0.41386363636363666" width="0.40386363636363665" height="0.40386363636363665" fill="#8D1D2C" />
<rect x="1.2315909090909098" y="0.41386363636363666" width="0.40386363636363665" height="0.40386363636363665" fill="#E6E6E6" />
<rect x="1.6404545454545465" y="0.41386363636363666" width="0.40386363636363665" height="0.40386363636363665" fill="#252525" />
<rect x="2.049318181818183" y="0.41386363636363666" width="0.40386363636363665" height="0.40386363636363665" fill="#252525" />
<rect x="2.45818181818182" y="0.41386363636363666" width="0.40386363636363665" height="0.40386363636363665" fill="#252525" />
<rect x="2.8670454545454565" y="0.41386363636363666" width="0.40386363636363665" height="0.40386363636363665" fill="#E6E6E6" />
<rect x="3.275909090909093" y="0.41386363636363666" width="0.40386363636363665" height="0.40386363636363665" fill="#252525" />
<rect x="3.6847727272727298" y="0.41386363636363666" width="0.40386363636363665" height="0.40386363636363665" fill="#252525" />
<rect x="4.093636363636366" y="0.41386363636363666" width="0.40386363636363665" height="0.40386363636363665" fill="#252525" />
<rect x="0.005" y="0.8227272727272733" width="0.40386363636363665" height="0.40386363636363665" fill="#FF4136" />
<rect x="0.41386363636363666" y="0.8227272727272733" width="0.40386363636363665" height="0.40386363636363665" fill="#8D1D2C" />
<rect x="0.8227272727272733" y="0.8227272727272733" width="0.40386363636363665" height="0.40386363636363665" fill="#8D1D2C" />
<rect x="1.2315909090909098" y="0.8227272727272733" width="0.40386363636363665" height="0.40386363636363665" fill="#E6E6E6" />
<rect x="1.6404545454545465" y="0.8227272727272733" width="0.40386363636363665" height="0.40386363636363665" fill="#252525" />
<rect x="2.049318181818183" y="0.8227272727272733" width="0.40386363636363665" height="0.40386363636363665" fill="#252525" />
<rect x="2.45818181818182" y="0.8227272727272733" width="0.40386363636363665" height="0.40386363636363665" fill="#252525" />
<rect x="2.8670454545454565" y="0.8227272727272733" width="0.40386363636363665" height="0.40386363636363665" fill="#E6E6E6" />
<rect x="3.275909090909093" y="0.8227272727272733" width="0.40386363636363665" height="0.40386363636363665" fill="#252525" />
<rect x="3.6847727272727298" y="0.8227272727272733" width="0.40386363636363665" height="0.40386363636363665" fill="#252525" />
<rect x="4.093636363636366" y="0.8227272727272733" width="0.40386363636363665" height="0.40386363636363665" fill="#252525" />
<rect x="-0.02666666666666667" y="-0.02666666666666667" width="4.550833333333337" height="1.2799242424242432" fill="none" stroke="#111111ff" stroke-width="0.08" />
<text x="4.497500000000003" y="1.69534090909091" font-size="0.375" fill="black" text-anchor="end" font-family="Anuphan">11x3</text>
<text x="-0.037500000000000006" y="1.69534090909091" font-size="0.375" fill="black" text-anchor="start" font-family="Anuphan" font-weight="600">Test 1</text>
</g>
<g id="d4">
<rect x="0.005" y="0.005" width="0.40386363636363665" height="0.40386363636363665" fill="#0074D9" />
<rect x="0.41386363636363666" y="0.005" width="0.40386363636363665" height="0.40386363636363665" fill="#0074D9" />
<rect x="0.8227272727272733" y="0.005" width="0.40386363636363665" height="0.40386363636363665" fill="#FF4136" />
<rect x="1.2315909090909098" y="0.005" width="0.40386363636363665" height="0.40386363636363665" fill="#E6E6E6" />
<rect x="1.6404545454545465" y="0.005" width="0.40386363636363665" height="0.40386363636363665" fill="#FFDC00" />
<rect x="2.049318181818183" y="0.005" width="0.40386363636363665" height="0.40386363636363665" fill="#FFDC00" />
<rect x="2.45818181818182" y="0.005" width="0.40386363636363665" height="0.40386363636363665" fill="#0074D9" />
<rect x="2.8670454545454565" y="0.005" width="0.40386363636363665" height="0.40386363636363665" fill="#E6E6E6" />
<rect x="3.275909090909093" y="0.005" width="0.40386363636363665" height="0.40386363636363665" fill="#0074D9" />
<rect x="3.6847727272727298" y="0.005" width="0.40386363636363665" height="0.40386363636363665" fill="#FFDC00" />
<rect x="4.093636363636366" y="0.005" width="0.40386363636363665" height="0.40386363636363665" fill="#FFDC00" />
<rect x="0.005" y="0.41386363636363666" width="0.40386363636363665" height="0.40386363636363665" fill="#FFDC00" />
<rect x="0.41386363636363666" y="0.41386363636363666" width="0.40386363636363665" height="0.40386363636363665" fill="#0074D9" />
<rect x="0.8227272727272733" y="0.41386363636363666" width="0.40386363636363665" height="0.40386363636363665" fill="#0074D9" />
<rect x="1.2315909090909098" y="0.41386363636363666" width="0.40386363636363665" height="0.40386363636363665" fill="#E6E6E6" />
<rect x="1.6404545454545465" y="0.41386363636363666" width="0.40386363636363665" height="0.40386363636363665" fill="#FFDC00" />
<rect x="2.049318181818183" y="0.41386363636363666" width="0.40386363636363665" height="0.40386363636363665" fill="#0074D9" />
<rect x="2.45818181818182" y="0.41386363636363666" width="0.40386363636363665" height="0.40386363636363665" fill="#0074D9" />
<rect x="2.8670454545454565" y="0.41386363636363666" width="0.40386363636363665" height="0.40386363636363665" fill="#E6E6E6" />
<rect x="3.275909090909093" y="0.41386363636363666" width="0.40386363636363665" height="0.40386363636363665" fill="#0074D9" />
<rect x="3.6847727272727298" y="0.41386363636363666" width="0.40386363636363665" height="0.40386363636363665" fill="#0074D9" />
<rect x="4.093636363636366" y="0.41386363636363666" width="0.40386363636363665" height="0.40386363636363665" fill="#FFDC00" />
<rect x="0.005" y="0.8227272727272733" width="0.40386363636363665" height="0.40386363636363665" fill="#FFDC00" />
<rect x="0.41386363636363666" y="0.8227272727272733" width="0.40386363636363665" height="0.40386363636363665" fill="#FFDC00" />
<rect x="0.8227272727272733" y="0.8227272727272733" width="0.40386363636363665" height="0.40386363636363665" fill="#0074D9" />
<rect x="1.2315909090909098" y="0.8227272727272733" width="0.40386363636363665" height="0.40386363636363665" fill="#E6E6E6" />
<rect x="1.6404545454545465" y="0.8227272727272733" width="0.40386363636363665" height="0.40386363636363665" fill="#0074D9" />
<rect x="2.049318181818183" y="0.8227272727272733" width="0.40386363636363665" height="0.40386363636363665" fill="#0074D9" />
<rect x="2.45818181818182" y="0.8227272727272733" width="0.40386363636363665" height="0.40386363636363665" fill="#FF4136" />
<rect x="2.8670454545454565" y="0.8227272727272733" width="0.40386363636363665" height="0.40386363636363665" fill="#E6E6E6" />
<rect x="3.275909090909093" y="0.8227272727272733" width="0.40386363636363665" height="0.40386363636363665" fill="#FF4136" />
<rect x="3.6847727272727298" y="0.8227272727272733" width="0.40386363636363665" height="0.40386363636363665" fill="#0074D9" />
<rect x="4.093636363636366" y="0.8227272727272733" width="0.40386363636363665" height="0.40386363636363665" fill="#0074D9" />
<rect x="-0.02666666666666667" y="-0.02666666666666667" width="4.550833333333337" height="1.2799242424242432" fill="none" stroke="#111111ff" stroke-width="0.08" />
<text x="4.497500000000003" y="1.69534090909091" font-size="0.375" fill="black" text-anchor="end" font-family="Anuphan">11x3</text>
<text x="-0.037500000000000006" y="1.69534090909091" font-size="0.375" fill="black" text-anchor="start" font-family="Anuphan" font-weight="600">Output 1</text>
</g>
<g id="d5">
<rect x="0.005" y="0.005" width="0.40386363636363665" height="0.40386363636363665" fill="#F012BE" />
<rect x="0.41386363636363666" y="0.005" width="0.40386363636363665" height="0.40386363636363665" fill="#37D449" />
<rect x="0.8227272727272733" y="0.005" width="0.40386363636363665" height="0.40386363636363665" fill="#37D449" />
<rect x="1.2315909090909098" y="0.005" width="0.40386363636363665" height="0.40386363636363665" fill="#E6E6E6" />
<rect x="1.6404545454545465" y="0.005" width="0.40386363636363665" height="0.40386363636363665" fill="#F012BE" />
<rect x="2.049318181818183" y="0.005" width="0.40386363636363665" height="0.40386363636363665" fill="#F012BE" />
<rect x="2.45818181818182" y="0.005" width="0.40386363636363665" height="0.40386363636363665" fill="#F012BE" />
<rect x="2.8670454545454565" y="0.005" width="0.40386363636363665" height="0.40386363636363665" fill="#E6E6E6" />
<rect x="3.275909090909093" y="0.005" width="0.40386363636363665" height="0.40386363636363665" fill="#FF4136" />
<rect x="3.6847727272727298" y="0.005" width="0.40386363636363665" height="0.40386363636363665" fill="#37D449" />
<rect x="4.093636363636366" y="0.005" width="0.40386363636363665" height="0.40386363636363665" fill="#F012BE" />
<rect x="0.005" y="0.41386363636363666" width="0.40386363636363665" height="0.40386363636363665" fill="#F012BE" />
<rect x="0.41386363636363666" y="0.41386363636363666" width="0.40386363636363665" height="0.40386363636363665" fill="#37D449" />
<rect x="0.8227272727272733" y="0.41386363636363666" width="0.40386363636363665" height="0.40386363636363665" fill="#37D449" />
<rect x="1.2315909090909098" y="0.41386363636363666" width="0.40386363636363665" height="0.40386363636363665" fill="#E6E6E6" />
<rect x="1.6404545454545465" y="0.41386363636363666" width="0.40386363636363665" height="0.40386363636363665" fill="#37D449" />
<rect x="2.049318181818183" y="0.41386363636363666" width="0.40386363636363665" height="0.40386363636363665" fill="#37D449" />
<rect x="2.45818181818182" y="0.41386363636363666" width="0.40386363636363665" height="0.40386363636363665" fill="#37D449" />
<rect x="2.8670454545454565" y="0.41386363636363666" width="0.40386363636363665" height="0.40386363636363665" fill="#E6E6E6" />
<rect x="3.275909090909093" y="0.41386363636363666" width="0.40386363636363665" height="0.40386363636363665" fill="#37D449" />
<rect x="3.6847727272727298" y="0.41386363636363666" width="0.40386363636363665" height="0.40386363636363665" fill="#37D449" />
<rect x="4.093636363636366" y="0.41386363636363666" width="0.40386363636363665" height="0.40386363636363665" fill="#F012BE" />
<rect x="0.005" y="0.8227272727272733" width="0.40386363636363665" height="0.40386363636363665" fill="#F012BE" />
<rect x="0.41386363636363666" y="0.8227272727272733" width="0.40386363636363665" height="0.40386363636363665" fill="#37D449" />
<rect x="0.8227272727272733" y="0.8227272727272733" width="0.40386363636363665" height="0.40386363636363665" fill="#FF4136" />
<rect x="1.2315909090909098" y="0.8227272727272733" width="0.40386363636363665" height="0.40386363636363665" fill="#E6E6E6" />
<rect x="1.6404545454545465" y="0.8227272727272733" width="0.40386363636363665" height="0.40386363636363665" fill="#FF4136" />
<rect x="2.049318181818183" y="0.8227272727272733" width="0.40386363636363665" height="0.40386363636363665" fill="#37D449" />
<rect x="2.45818181818182" y="0.8227272727272733" width="0.40386363636363665" height="0.40386363636363665" fill="#37D449" />
<rect x="2.8670454545454565" y="0.8227272727272733" width="0.40386363636363665" height="0.40386363636363665" fill="#E6E6E6" />
<rect x="3.275909090909093" y="0.8227272727272733" width="0.40386363636363665" height="0.40386363636363665" fill="#37D449" />
<rect x="3.6847727272727298" y="0.8227272727272733" width="0.40386363636363665" height="0.40386363636363665" fill="#37D449" />
<rect x="4.093636363636366" y="0.8227272727272733" width="0.40386363636363665" height="0.40386363636363665" fill="#F012BE" />
<rect x="-0.02666666666666667" y="-0.02666666666666667" width="4.550833333333337" height="1.2799242424242432" fill="none" stroke="#111111ff" stroke-width="0.08" />
<text x="4.497500000000003" y="1.69534090909091" font-size="0.375" fill="black" text-anchor="end" font-family="Anuphan">11x3</text>
<text x="-0.037500000000000006" y="1.69534090909091" font-size="0.375" fill="black" text-anchor="start" font-family="Anuphan" font-weight="600">Output 2</text>
</g>
<g id="d6">
<rect x="0.005" y="0.005" width="0.40386363636363665" height="0.40386363636363665" fill="#FF4136" />
<rect x="0.41386363636363666" y="0.005" width="0.40386363636363665" height="0.40386363636363665" fill="#FF871E" />
<rect x="0.8227272727272733" y="0.005" width="0.40386363636363665" height="0.40386363636363665" fill="#54D2EB" />
<rect x="1.2315909090909098" y="0.005" width="0.40386363636363665" height="0.40386363636363665" fill="#E6E6E6" />
<rect x="1.6404545454545465" y="0.005" width="0.40386363636363665" height="0.40386363636363665" fill="#54D2EB" />
<rect x="2.049318181818183" y="0.005" width="0.40386363636363665" height="0.40386363636363665" fill="#FF871E" />
<rect x="2.45818181818182" y="0.005" width="0.40386363636363665" height="0.40386363636363665" fill="#FF4136" />
<rect x="2.8670454545454565" y="0.005" width="0.40386363636363665" height="0.40386363636363665" fill="#E6E6E6" />
<rect x="3.275909090909093" y="0.005" width="0.40386363636363665" height="0.40386363636363665" fill="#54D2EB" />
<rect x="3.6847727272727298" y="0.005" width="0.40386363636363665" height="0.40386363636363665" fill="#54D2EB" />
<rect x="4.093636363636366" y="0.005" width="0.40386363636363665" height="0.40386363636363665" fill="#54D2EB" />
<rect x="0.005" y="0.41386363636363666" width="0.40386363636363665" height="0.40386363636363665" fill="#FF871E" />
<rect x="0.41386363636363666" y="0.41386363636363666" width="0.40386363636363665" height="0.40386363636363665" fill="#FF871E" />
<rect x="0.8227272727272733" y="0.41386363636363666" width="0.40386363636363665" height="0.40386363636363665" fill="#54D2EB" />
<rect x="1.2315909090909098" y="0.41386363636363666" width="0.40386363636363665" height="0.40386363636363665" fill="#E6E6E6" />
<rect x="1.6404545454545465" y="0.41386363636363666" width="0.40386363636363665" height="0.40386363636363665" fill="#54D2EB" />
<rect x="2.049318181818183" y="0.41386363636363666" width="0.40386363636363665" height="0.40386363636363665" fill="#FF871E" />
<rect x="2.45818181818182" y="0.41386363636363666" width="0.40386363636363665" height="0.40386363636363665" fill="#FF871E" />
<rect x="2.8670454545454565" y="0.41386363636363666" width="0.40386363636363665" height="0.40386363636363665" fill="#E6E6E6" />
<rect x="3.275909090909093" y="0.41386363636363666" width="0.40386363636363665" height="0.40386363636363665" fill="#54D2EB" />
<rect x="3.6847727272727298" y="0.41386363636363666" width="0.40386363636363665" height="0.40386363636363665" fill="#FF871E" />
<rect x="4.093636363636366" y="0.41386363636363666" width="0.40386363636363665" height="0.40386363636363665" fill="#FF871E" />
<rect x="0.005" y="0.8227272727272733" width="0.40386363636363665" height="0.40386363636363665" fill="#54D2EB" />
<rect x="0.41386363636363666" y="0.8227272727272733" width="0.40386363636363665" height="0.40386363636363665" fill="#54D2EB" />
<rect x="0.8227272727272733" y="0.8227272727272733" width="0.40386363636363665" height="0.40386363636363665" fill="#54D2EB" />
<rect x="1.2315909090909098" y="0.8227272727272733" width="0.40386363636363665" height="0.40386363636363665" fill="#E6E6E6" />
<rect x="1.6404545454545465" y="0.8227272727272733" width="0.40386363636363665" height="0.40386363636363665" fill="#54D2EB" />
<rect x="2.049318181818183" y="0.8227272727272733" width="0.40386363636363665" height="0.40386363636363665" fill="#54D2EB" />
<rect x="2.45818181818182" y="0.8227272727272733" width="0.40386363636363665" height="0.40386363636363665" fill="#54D2EB" />
<rect x="2.8670454545454565" y="0.8227272727272733" width="0.40386363636363665" height="0.40386363636363665" fill="#E6E6E6" />
<rect x="3.275909090909093" y="0.8227272727272733" width="0.40386363636363665" height="0.40386363636363665" fill="#54D2EB" />
<rect x="3.6847727272727298" y="0.8227272727272733" width="0.40386363636363665" height="0.40386363636363665" fill="#FF871E" />
<rect x="4.093636363636366" y="0.8227272727272733" width="0.40386363636363665" height="0.40386363636363665" fill="#FF4136" />
<rect x="-0.02666666666666667" y="-0.02666666666666667" width="4.550833333333337" height="1.2799242424242432" fill="none" stroke="#111111ff" stroke-width="0.08" />
<text x="4.497500000000003" y="1.69534090909091" font-size="0.375" fill="black" text-anchor="end" font-family="Anuphan">11x3</text>
<text x="-0.037500000000000006" y="1.69534090909091" font-size="0.375" fill="black" text-anchor="start" font-family="Anuphan" font-weight="600">Output 3</text>
</g>
</defs>
<rect x="0" y="0" width="100%" height="100%" fill="#eeeff6" />
<use xlink:href="#d0" x="0.25" y="0.25" />
<use xlink:href="#d1" x="5.247500000000003" y="0.25" />
<use xlink:href="#d2" x="10.245000000000006" y="0.25" />
<use xlink:href="#d3" x="15.24250000000001" y="0.25" />
<path d="M2.4987500000000016,2.12659090909091 L2.4987500000000016,2.5265909090909098" stroke-width="0.05" stroke="#888888" />
<path d="M2.3487500000000017,2.3265909090909096 L2.4987500000000016,2.5265909090909098" stroke-width="0.05" stroke="#888888" />
<path d="M2.6487500000000015,2.3265909090909096 L2.4987500000000016,2.5265909090909098" stroke-width="0.05" stroke="#888888" />
<use xlink:href="#d4" x="0.25" y="2.87659090909091" />
<path d="M7.496250000000005,2.12659090909091 L7.496250000000005,2.5265909090909098" stroke-width="0.05" stroke="#888888" />
<path d="M7.346250000000005,2.3265909090909096 L7.496250000000005,2.5265909090909098" stroke-width="0.05" stroke="#888888" />
<path d="M7.6462500000000055,2.3265909090909096 L7.496250000000005,2.5265909090909098" stroke-width="0.05" stroke="#888888" />
<use xlink:href="#d5" x="5.247500000000003" y="2.87659090909091" />
<path d="M12.493750000000007,2.12659090909091 L12.493750000000007,2.5265909090909098" stroke-width="0.05" stroke="#888888" />
<path d="M12.343750000000007,2.3265909090909096 L12.493750000000007,2.5265909090909098" stroke-width="0.05" stroke="#888888" />
<path d="M12.643750000000008,2.3265909090909096 L12.493750000000007,2.5265909090909098" stroke-width="0.05" stroke="#888888" />
<use xlink:href="#d6" x="10.245000000000006" y="2.87659090909091" />
<path d="M17.49125000000001,2.12659090909091 L17.49125000000001,2.5265909090909098" stroke-width="0.05" stroke="#888888" />
<path d="M17.341250000000013,2.3265909090909096 L17.49125000000001,2.5265909090909098" stroke-width="0.05" stroke="#888888" />
<path d="M17.64125000000001,2.3265909090909096 L17.49125000000001,2.5265909090909098" stroke-width="0.05" stroke="#888888" />
<text x="17.49125000000001" y="3.589886363636365" font-size="1" font-family="Anuphan" font-weight="700" fill="#333333" text-anchor="middle" alignment-baseline="middle">?</text>
<text x="19.9" y="5.0" font-size="0.3" font-family="Anuphan" font-weight="600" fill="#666666" text-anchor="end" alignment-baseline="bottom">Task 8e5a5113</text>
</svg>