<?xml version="1.0" encoding="UTF-8"?>
<svg xmlns="http://www.w3.org/2000/svg" xmlns:xlink="http://www.w3.org/1999/xlink"
     width="800.0" height="284.0" viewBox="0 0 20.0 7.1000000000000005">
<defs>
<g id="d0">
<rect x="0.005" y="0.005" width="0.24485714285713117" height="0.24485714285713117" fill="#E6E6E6" />
<rect x="0.2548571428571312" y="0.005" width="0.24485714285713117" height="0.24485714285713117" fill="#E6E6E6" />
<rect x="0.5047142857142624" y="0.005" width="0.24485714285713117" height="0.24485714285713117" fill="#E6E6E6" />
<rect x="0.7545714285713935" y="0.005" width="0.24485714285713117" height="0.24485714285713117" fill="#E6E6E6" />
<rect x="1.0044285714285246" y="0.005" width="0.24485714285713117" height="0.24485714285713117" fill="#252525" />
<rect x="1.2542857142856558" y="0.005" width="0.24485714285713117" height="0.24485714285713117" fill="#E6E6E6" />
<rect x="1.5041428571427868" y="0.005" width="0.24485714285713117" height="0.24485714285713117" fill="#E6E6E6" />
<rect x="1.753999999999918" y="0.005" width="0.24485714285713117" height="0.24485714285713117" fill="#E6E6E6" />
<rect x="2.0038571428570493" y="0.005" width="0.24485714285713117" height="0.24485714285713117" fill="#E6E6E6" />
<rect x="2.2537142857141803" y="0.005" width="0.24485714285713117" height="0.24485714285713117" fill="#252525" />
<rect x="2.5035714285713118" y="0.005" width="0.24485714285713117" height="0.24485714285713117" fill="#E6E6E6" />
<rect x="2.7534285714284428" y="0.005" width="0.24485714285713117" height="0.24485714285713117" fill="#E6E6E6" />
<rect x="3.003285714285574" y="0.005" width="0.24485714285713117" height="0.24485714285713117" fill="#E6E6E6" />
<rect x="3.2531428571427052" y="0.005" width="0.24485714285713117" height="0.24485714285713117" fill="#E6E6E6" />
<rect x="0.005" y="0.2548571428571312" width="0.24485714285713117" height="0.24485714285713117" fill="#E6E6E6" />
<rect x="0.2548571428571312" y="0.2548571428571312" width="0.24485714285713117" height="0.24485714285713117" fill="#E6E6E6" />
<rect x="0.5047142857142624" y="0.2548571428571312" width="0.24485714285713117" height="0.24485714285713117" fill="#E6E6E6" />
<rect x="0.7545714285713935" y="0.2548571428571312" width="0.24485714285713117" height="0.24485714285713117" fill="#E6E6E6" />
<rect x="1.0044285714285246" y="0.2548571428571312" width="0.24485714285713117" height="0.24485714285713117" fill="#252525" />
<rect x="1.2542857142856558" y="0.2548571428571312" width="0.24485714285713117" height="0.24485714285713117" fill="#E6E6E6" />
<rect x="1.5041428571427868" y="0.2548571428571312" width="0.24485714285713117" height="0.24485714285713117" fill="#252525" />
<rect x="1.753999999999918" y="0.2548571428571312" width="0.24485714285713117" height="0.24485714285713117" fill="#252525" />
<rect x="2.0038571428570493" y="0.2548571428571312" width="0.24485714285713117" height="0.24485714285713117" fill="#E6E6E6" />
<rect x="2.2537142857141803" y="0.2548571428571312" width="0.24485714285713117" height="0.24485714285713117" fill="#252525" />
<rect x="2.5035714285713118" y="0.2548571428571312" width="0.24485714285713117" height="0.24485714285713117" fill="#252525" />
<rect x="2.7534285714284428" y="0.2548571428571312" width="0.24485714285713117" height="0.24485714285713117" fill="#E6E6E6" />
<rect x="3.003285714285574" y="0.2548571428571312" width="0.24485714285713117" height="0.24485714285713117" fill="#E6E6E6" />
<rect x="3.2531428571427052" y="0.2548571428571312" width="0.24485714285713117" height="0.24485714285713117" fill="#252525" />
<rect x="0.005" y="0.5047142857142624" width="0.24485714285713117" height="0.24485714285713117" fill="#E6E6E6" />
<rect x="0.2548571428571312" y="0.5047142857142624" width="0.24485714285713117" height="0.24485714285713117" fill="#E6E6E6" />
<rect x="0.5047142857142624" y="0.5047142857142624" width="0.24485714285713117" height="0.24485714285713117" fill="#E6E6E6" />
<rect x="0.7545714285713935" y="0.5047142857142624" width="0.24485714285713117" height="0.24485714285713117" fill="#E6E6E6" />
<rect x="1.0044285714285246" y="0.5047142857142624" width="0.24485714285713117" height="0.24485714285713117" fill="#252525" />
<rect x="1.2542857142856558" y="0.5047142857142624" width="0.24485714285713117" height="0.24485714285713117" fill="#E6E6E6" />
<rect x="1.5041428571427868" y="0.5047142857142624" width="0.24485714285713117" height="0.24485714285713117" fill="#252525" />
<rect x="1.753999999999918" y="0.5047142857142624" width="0.24485714285713117" height="0.24485714285713117" fill="#252525" />
<rect x="2.0038571428570493" y="0.5047142857142624" width="0.24485714285713117" height="0.24485714285713117" fill="#E6E6E6" />
<rect x="2.2537142857141803" y="0.5047142857142624" width="0.24485714285713117" height="0.24485714285713117" fill="#252525" />
<rect x="2.5035714285713118" y="0.5047142857142624" width="0.24485714285713117" height="0.24485714285713117" fill="#252525" />
<rect x="2.7534285714284428" y="0.5047142857142624" width="0.24485714285713117" height="0.24485714285713117" fill="#E6E6E6" />
<rect x="3.003285714285574" y="0.5047142857142624" width="0.24485714285713117" height="0.24485714285713117" fill="#E6E6E6" />
<rect x="3.2531428571427052" y="0.5047142857142624" width="0.24485714285713117" height="0.24485714285713117" fill="#252525" />
<rect x="0.005" y="0.7545714285713935" width="0.24485714285713117" height="0.24485714285713117" fill="#E6E6E6" />
<rect x="0.2548571428571312" y="0.7545714285713935" width="0.24485714285713117" height="0.24485714285713117" fill="#E6E6E6" />
<rect x="0.5047142857142624" y="0.7545714285713935" width="0.24485714285713117" height="0.24485714285713117" fill="#E6E6E6" />
<rect x="0.7545714285713935" y="0.7545714285713935" width="0.24485714285713117" height="0.24485714285713117" fill="#E6E6E6" />
<rect x="1.0044285714285246" y="0.7545714285713935" width="0.24485714285713117" height="0.24485714285713117" fill="#252525" />
<rect x="1.2542857142856558" y="0.7545714285713935" width="0.24485714285713117" height="0.24485714285713117" fill="#E6E6E6" />
<rect x="1.5041428571427868" y="0.7545714285713935" width="0.24485714285713117" height="0.24485714285713117" fill="#E6E6E6" />
<rect x="1.753999999999918" y="0.7545714285713935" width="0.24485714285713117" height="0.24485714285713117" fill="#E6E6E6" />
<rect x="2.0038571428570493" y="0.7545714285713935" width="0.24485714285713117" height="0.24485714285713117" fill="#E6E6E6" />
<rect x="2.2537142857141803" y="0.7545714285713935" width="0.24485714285713117" height="0.24485714285713117" fill="#252525" />
<rect x="2.5035714285713118" y="0.7545714285713935" width="0.24485714285713117" height="0.24485714285713117" fill="#E6E6E6" />
<rect x="2.7534285714284428" y="0.7545714285713935" width="0.24485714285713117" height="0.24485714285713117" fill="#E6E6E6" />
<rect x="3.003285714285574" y="0.7545714285713935" width="0.24485714285713117" height="0.24485714285713117" fill="#E6E6E6" />
<rect x="3.2531428571427052" y="0.7545714285713935" width="0.24485714285713117" height="0.24485714285713117" fill="#E6E6E6" />
<rect x="-0.02666666666666667" y="-0.02666666666666667" width="3.5513333333331696" height="1.052761904761858" fill="none" stroke="#111111ff" stroke-width="0.08" />
<text x="3.4979999999998364" y="1.4681785714285247" font-size="0.375" fill="black" text-anchor="end" font-family="Anuphan">14x4</text>
<text x="-0.037500000000000006" y="1.4681785714285247" font-size="0.375" fill="black" text-anchor="start" font-family="Anuphan" font-weight="600">Input 1</text>
</g>
<g id="d1">
<rect x="0.005" y="0.005" width="0.24485714285713117" height="0.24485714285713117" fill="#E6E6E6" />
<rect x="0.2548571428571312" y="0.005" width="0.24485714285713117" height="0.24485714285713117" fill="#E6E6E6" />
<rect x="0.5047142857142624" y="0.005" width="0.24485714285713117" height="0.24485714285713117" fill="#E6E6E6" />
<rect x="0.7545714285713935" y="0.005" width="0.24485714285713117" height="0.24485714285713117" fill="#E6E6E6" />
<rect x="1.0044285714285246" y="0.005" width="0.24485714285713117" height="0.24485714285713117" fill="#252525" />
<rect x="1.2542857142856558" y="0.005" width="0.24485714285713117" height="0.24485714285713117" fill="#E6E6E6" />
<rect x="1.5041428571427868" y="0.005" width="0.24485714285713117" height="0.24485714285713117" fill="#E6E6E6" />
<rect x="1.753999999999918" y="0.005" width="0.24485714285713117" height="0.24485714285713117" fill="#E6E6E6" />
<rect x="2.0038571428570493" y="0.005" width="0.24485714285713117" height="0.24485714285713117" fill="#E6E6E6" />
<rect x="2.2537142857141803" y="0.005" width="0.24485714285713117" height="0.24485714285713117" fill="#252525" />
<rect x="2.5035714285713118" y="0.005" width="0.24485714285713117" height="0.24485714285713117" fill="#E6E6E6" />
<rect x="2.7534285714284428" y="0.005" width="0.24485714285713117" height="0.24485714285713117" fill="#E6E6E6" />
<rect x="3.003285714285574" y="0.005" width="0.24485714285713117" height="0.24485714285713117" fill="#E6E6E6" />
<rect x="3.2531428571427052" y="0.005" width="0.24485714285713117" height="0.24485714285713117" fill="#E6E6E6" />
<rect x="0.005" y="0.2548571428571312" width="0.24485714285713117" height="0.24485714285713117" fill="#252525" />
<rect x="0.2548571428571312" y="0.2548571428571312" width="0.24485714285713117" height="0.24485714285713117" fill="#E6E6E6" />
<rect x="0.5047142857142624" y="0.2548571428571312" width="0.24485714285713117" height="0.24485714285713117" fill="#E6E6E6" />
<rect x="0.7545714285713935" y="0.2548571428571312" width="0.24485714285713117" height="0.24485714285713117" fill="#252525" />
<rect x="1.0044285714285246" y="0.2548571428571312" width="0.24485714285713117" height="0.24485714285713117" fill="#252525" />
<rect x="1.2542857142856558" y="0.2548571428571312" width="0.24485714285713117" height="0.24485714285713117" fill="#E6E6E6" />
<rect x="1.5041428571427868" y="0.2548571428571312" width="0.24485714285713117" height="0.24485714285713117" fill="#E6E6E6" />
<rect x="1.753999999999918" y="0.2548571428571312" width="0.24485714285713117" height="0.24485714285713117" fill="#E6E6E6" />
<rect x="2.0038571428570493" y="0.2548571428571312" width="0.24485714285713117" height="0.24485714285713117" fill="#E6E6E6" />
<rect x="2.2537142857141803" y="0.2548571428571312" width="0.24485714285713117" height="0.24485714285713117" fill="#252525" />
<rect x="2.5035714285713118" y="0.2548571428571312" width="0.24485714285713117" height="0.24485714285713117" fill="#E6E6E6" />
<rect x="2.7534285714284428" y="0.2548571428571312" width="0.24485714285713117" height="0.24485714285713117" fill="#E6E6E6" />
<rect x="3.003285714285574" y="0.2548571428571312" width="0.24485714285713117" height="0.24485714285713117" fill="#E6E6E6" />
<rect x="3.2531428571427052" y="0.2548571428571312" width="0.24485714285713117" height="0.24485714285713117" fill="#E6E6E6" />
<rect x="0.005" y="0.5047142857142624" width="0.24485714285713117" height="0.24485714285713117" fill="#252525" />
<rect x="0.2548571428571312" y="0.5047142857142624" width="0.24485714285713117" height="0.24485714285713117" fill="#E6E6E6" />
<rect x="0.5047142857142624" y="0.5047142857142624" width="0.24485714285713117" height="0.24485714285713117" fill="#E6E6E6" />
<rect x="0.7545714285713935" y="0.5047142857142624" width="0.24485714285713117" height="0.24485714285713117" fill="#252525" />
<rect x="1.0044285714285246" y="0.5047142857142624" width="0.24485714285713117" height="0.24485714285713117" fill="#252525" />
<rect x="1.2542857142856558" y="0.5047142857142624" width="0.24485714285713117" height="0.24485714285713117" fill="#E6E6E6" />
<rect x="1.5041428571427868" y="0.5047142857142624" width="0.24485714285713117" height="0.24485714285713117" fill="#252525" />
<rect x="1.753999999999918" y="0.5047142857142624" width="0.24485714285713117" height="0.24485714285713117" fill="#252525" />
<rect x="2.0038571428570493" y="0.5047142857142624" width="0.24485714285713117" height="0.24485714285713117" fill="#E6E6E6" />
<rect x="2.2537142857141803" y="0.5047142857142624" width="0.24485714285713117" height="0.24485714285713117" fill="#252525" />
<rect x="2.5035714285713118" y="0.5047142857142624" width="0.24485714285713117" height="0.24485714285713117" fill="#E6E6E6" />
<rect x="2.7534285714284428" y="0.5047142857142624" width="0.24485714285713117" height="0.24485714285713117" fill="#E6E6E6" />
<rect x="3.003285714285574" y="0.5047142857142624" width="0.24485714285713117" height="0.24485714285713117" fill="#E6E6E6" />
<rect x="3.2531428571427052" y="0.5047142857142624" width="0.24485714285713117" height="0.24485714285713117" fill="#E6E6E6" />
<rect x="0.005" y="0.7545714285713935" width="0.24485714285713117" height="0.24485714285713117" fill="#E6E6E6" />
<rect x="0.2548571428571312" y="0.7545714285713935" width="0.24485714285713117" height="0.24485714285713117" fill="#E6E6E6" />
<rect x="0.5047142857142624" y="0.7545714285713935" width="0.24485714285713117" height="0.24485714285713117" fill="#E6E6E6" />
<rect x="0.7545714285713935" y="0.7545714285713935" width="0.24485714285713117" height="0.24485714285713117" fill="#E6E6E6" />
<rect x="1.0044285714285246" y="0.7545714285713935" width="0.24485714285713117" height="0.24485714285713117" fill="#252525" />
<rect x="1.2542857142856558" y="0.7545714285713935" width="0.24485714285713117" height="0.24485714285713117" fill="#E6E6E6" />
<rect x="1.5041428571427868" y="0.7545714285713935" width="0.24485714285713117" height="0.24485714285713117" fill="#252525" />
<rect x="1.753999999999918" y="0.7545714285713935" width="0.24485714285713117" height="0.24485714285713117" fill="#252525" />
<rect x="2.0038571428570493" y="0.7545714285713935" width="0.24485714285713117" height="0.24485714285713117" fill="#E6E6E6" />
<rect x="2.2537142857141803" y="0.7545714285713935" width="0.24485714285713117" height="0.24485714285713117" fill="#252525" />
<rect x="2.5035714285713118" y="0.7545714285713935" width="0.24485714285713117" height="0.24485714285713117" fill="#E6E6E6" />
<rect x="2.7534285714284428" y="0.7545714285713935" width="0.24485714285713117" height="0.24485714285713117" fill="#E6E6E6" />
<rect x="3.003285714285574" y="0.7545714285713935" width="0.24485714285713117" height="0.24485714285713117" fill="#E6E6E6" />
<rect x="3.2531428571427052" y="0.7545714285713935" width="0.24485714285713117" height="0.24485714285713117" fill="#E6E6E6" />
<rect x="-0.02666666666666667" y="-0.02666666666666667" width="3.5513333333331696" height="1.052761904761858" fill="none" stroke="#111111ff" stroke-width="0.08" />
<text x="3.4979999999998364" y="1.4681785714285247" font-size="0.375" fill="black" text-anchor="end" font-family="Anuphan">14x4</text>
<text x="-0.037500000000000006" y="1.4681785714285247" font-size="0.375" fill="black" text-anchor="start" font-family="Anuphan" font-weight="600">Input 2</text>
</g>
<g id="d2">
<rect x="0.005" y="0.005" width="0.24485714285713117" height="0.24485714285713117" fill="#E6E6E6" />
<rect x="0.2548571428571312" y="0.005" width="0.24485714285713117" height="0.24485714285713117" fill="#E6E6E6" />
<rect x="0.5047142857142624" y="0.005" width="0.24485714285713117" height="0.24485714285713117" fill="#E6E6E6" />
<rect x="0.7545714285713935" y="0.005" width="0.24485714285713117" height="0.24485714285713117" fill="#E6E6E6" />
<rect x="1.0044285714285246" y="0.005" width="0.24485714285713117" height="0.24485714285713117" fill="#252525" />
<rect x="1.2542857142856558" y="0.005" width="0.24485714285713117" height="0.24485714285713117" fill="#E6E6E6" />
<rect x="1.5041428571427868" y="0.005" width="0.24485714285713117" height="0.24485714285713117" fill="#E6E6E6" />
<rect x="1.753999999999918" y="0.005" width="0.24485714285713117" height="0.24485714285713117" fill="#E6E6E6" />
<rect x="2.0038571428570493" y="0.005" width="0.24485714285713117" height="0.24485714285713117" fill="#E6E6E6" />
<rect x="2.2537142857141803" y="0.005" width="0.24485714285713117" height="0.24485714285713117" fill="#252525" />
<rect x="2.5035714285713118" y="0.005" width="0.24485714285713117" height="0.24485714285713117" fill="#E6E6E6" />
<rect x="2.7534285714284428" y="0.005" width="0.24485714285713117" height="0.24485714285713117" fill="#E6E6E6" />
<rect x="3.003285714285574" y="0.005" width="0.24485714285713117" height="0.24485714285713117" fill="#E6E6E6" />
<rect x="3.2531428571427052" y="0.005" width="0.24485714285713117" height="0.24485714285713117" fill="#E6E6E6" />
<rect x="0.005" y="0.2548571428571312" width="0.24485714285713117" height="0.24485714285713117" fill="#E6E6E6" />
<rect x="0.2548571428571312" y="0.2548571428571312" width="0.24485714285713117" height="0.24485714285713117" fill="#252525" />
<rect x="0.5047142857142624" y="0.2548571428571312" width="0.24485714285713117" height="0.24485714285713117" fill="#252525" />
<rect x="0.7545714285713935" y="0.2548571428571312" width="0.24485714285713117" height="0.24485714285713117" fill="#E6E6E6" />
<rect x="1.0044285714285246" y="0.2548571428571312" width="0.24485714285713117" height="0.24485714285713117" fill="#252525" />
<rect x="1.2542857142856558" y="0.2548571428571312" width="0.24485714285713117" height="0.24485714285713117" fill="#E6E6E6" />
<rect x="1.5041428571427868" y="0.2548571428571312" width="0.24485714285713117" height="0.24485714285713117" fill="#E6E6E6" />
<rect x="1.753999999999918" y="0.2548571428571312" width="0.24485714285713117" height="0.24485714285713117" fill="#E6E6E6" />
<rect x="2.0038571428570493" y="0.2548571428571312" width="0.24485714285713117" height="0.24485714285713117" fill="#E6E6E6" />
<rect x="2.2537142857141803" y="0.2548571428571312" width="0.24485714285713117" height="0.24485714285713117" fill="#252525" />
<rect x="2.5035714285713118" y="0.2548571428571312" width="0.24485714285713117" height="0.24485714285713117" fill="#E6E6E6" />
<rect x="2.7534285714284428" y="0.2548571428571312" width="0.24485714285713117" height="0.24485714285713117" fill="#E6E6E6" />
<rect x="3.003285714285574" y="0.2548571428571312" width="0.24485714285713117" height="0.24485714285713117" fill="#E6E6E6" />
<rect x="3.2531428571427052" y="0.2548571428571312" width="0.24485714285713117" height="0.24485714285713117" fill="#E6E6E6" />
<rect x="0.005" y="0.5047142857142624" width="0.24485714285713117" height="0.24485714285713117" fill="#E6E6E6" />
<rect x="0.2548571428571312" y="0.5047142857142624" width="0.24485714285713117" height="0.24485714285713117" fill="#252525" />
<rect x="0.5047142857142624" y="0.5047142857142624" width="0.24485714285713117" height="0.24485714285713117" fill="#252525" />
<rect x="0.7545714285713935" y="0.5047142857142624" width="0.24485714285713117" height="0.24485714285713117" fill="#E6E6E6" />
<rect x="1.0044285714285246" y="0.5047142857142624" width="0.24485714285713117" height="0.24485714285713117" fill="#252525" />
<rect x="1.2542857142856558" y="0.5047142857142624" width="0.24485714285713117" height="0.24485714285713117" fill="#E6E6E6" />
<rect x="1.5041428571427868" y="0.5047142857142624" width="0.24485714285713117" height="0.24485714285713117" fill="#E6E6E6" />
<rect x="1.753999999999918" y="0.5047142857142624" width="0.24485714285713117" height="0.24485714285713117" fill="#E6E6E6" />
<rect x="2.0038571428570493" y="0.5047142857142624" width="0.24485714285713117" height="0.24485714285713117" fill="#E6E6E6" />
<rect x="2.2537142857141803" y="0.5047142857142624" width="0.24485714285713117" height="0.24485714285713117" fill="#252525" />
<rect x="2.5035714285713118" y="0.5047142857142624" width="0.24485714285713117" height="0.24485714285713117" fill="#E6E6E6" />
<rect x="2.7534285714284428" y="0.5047142857142624" width="0.24485714285713117" height="0.24485714285713117" fill="#252525" />
<rect x="3.003285714285574" y="0.5047142857142624" width="0.24485714285713117" height="0.24485714285713117" fill="#252525" />
<rect x="3.2531428571427052" y="0.5047142857142624" width="0.24485714285713117" height="0.24485714285713117" fill="#E6E6E6" />
<rect x="0.005" y="0.7545714285713935" width="0.24485714285713117" height="0.24485714285713117" fill="#E6E6E6" />
<rect x="0.2548571428571312" y="0.7545714285713935" width="0.24485714285713117" height="0.24485714285713117" fill="#E6E6E6" />
<rect x="0.5047142857142624" y="0.7545714285713935" width="0.24485714285713117" height="0.24485714285713117" fill="#E6E6E6" />
<rect x="0.7545714285713935" y="0.7545714285713935" width="0.24485714285713117" height="0.24485714285713117" fill="#E6E6E6" />
<rect x="1.0044285714285246" y="0.7545714285713935" width="0.24485714285713117" height="0.24485714285713117" fill="#252525" />
<rect x="1.2542857142856558" y="0.7545714285713935" width="0.24485714285713117" height="0.24485714285713117" fill="#E6E6E6" />
<rect x="1.5041428571427868" y="0.7545714285713935" width="0.24485714285713117" height="0.24485714285713117" fill="#E6E6E6" />
<rect x="1.753999999999918" y="0.7545714285713935" width="0.24485714285713117" height="0.24485714285713117" fill="#E6E6E6" />
<rect x="2.0038571428570493" y="0.7545714285713935" width="0.24485714285713117" height="0.24485714285713117" fill="#E6E6E6" />
<rect x="2.2537142857141803" y="0.7545714285713935" width="0.24485714285713117" height="0.24485714285713117" fill="#252525" />
<rect x="2.5035714285713118" y="0.7545714285713935" width="0.24485714285713117" height="0.24485714285713117" fill="#E6E6E6" />
<rect x="2.7534285714284428" y="0.7545714285713935" width="0.24485714285713117" height="0.24485714285713117" fill="#252525" />
<rect x="3.003285714285574" y="0.7545714285713935" width="0.24485714285713117" height="0.24485714285713117" fill="#252525" />
<rect x="3.2531428571427052" y="0.7545714285713935" width="0.24485714285713117" height="0.24485714285713117" fill="#E6E6E6" />
<rect x="-0.02666666666666667" y="-0.02666666666666667" width="3.5513333333331696" height="1.052761904761858" fill="none" stroke="#111111ff" stroke-width="0.08" />
<text x="3.4979999999998364" y="1.4681785714285247" font-size="0.375" fill="black" text-anchor="end" font-family="Anuphan">14x4</text>
<text x="-0.037500000000000006" y="1.4681785714285247" font-size="0.375" fill="black" text-anchor="start" font-family="Anuphan" font-weight="600">Input 3</text>
</g>
<g id="d3">
<rect x="0.005" y="0.005" width="0.24485714285713117" height="0.24485714285713117" fill="#E6E6E6" />
<rect x="0.2548571428571312" y="0.005" width="0.24485714285713117" height="0.24485714285713117" fill="#E6E6E6" />
<rect x="0.5047142857142624" y="0.005" width="0.24485714285713117" height="0.24485714285713117" fill="#E6E6E6" />
<rect x="0.7545714285713935" y="0.005" width="0.24485714285713117" height="0.24485714285713117" fill="#E6E6E6" />
<rect x="1.0044285714285246" y="0.005" width="0.24485714285713117" height="0.24485714285713117" fill="#252525" />
<rect x="1.2542857142856558" y="0.005" width="0.24485714285713117" height="0.24485714285713117" fill="#E6E6E6" />
<rect x="1.5041428571427868" y="0.005" width="0.24485714285713117" height="0.24485714285713117" fill="#E6E6E6" />
<rect x="1.753999999999918" y="0.005" width="0.24485714285713117" height="0.24485714285713117" fill="#E6E6E6" />
<rect x="2.0038571428570493" y="0.005" width="0.24485714285713117" height="0.24485714285713117" fill="#E6E6E6" />
<rect x="2.2537142857141803" y="0.005" width="0.24485714285713117" height="0.24485714285713117" fill="#252525" />
<rect x="2.5035714285713118" y="0.005" width="0.24485714285713117" height="0.24485714285713117" fill="#E6E6E6" />
<rect x="2.7534285714284428" y="0.005" width="0.24485714285713117" height="0.24485714285713117" fill="#E6E6E6" />
<rect x="3.003285714285574" y="0.005" width="0.24485714285713117" height="0.24485714285713117" fill="#E6E6E6" />
<rect x="3.2531428571427052" y="0.005" width="0.24485714285713117" height="0.24485714285713117" fill="#E6E6E6" />
<rect x="0.005" y="0.2548571428571312" width="0.24485714285713117" height="0.24485714285713117" fill="#E6E6E6" />
<rect x="0.2548571428571312" y="0.2548571428571312" width="0.24485714285713117" height="0.24485714285713117" fill="#E6E6E6" />
<rect x="0.5047142857142624" y="0.2548571428571312" width="0.24485714285713117" height="0.24485714285713117" fill="#E6E6E6" />
<rect x="0.7545714285713935" y="0.2548571428571312" width="0.24485714285713117" height="0.24485714285713117" fill="#E6E6E6" />
<rect x="1.0044285714285246" y="0.2548571428571312" width="0.24485714285713117" height="0.24485714285713117" fill="#252525" />
<rect x="1.2542857142856558" y="0.2548571428571312" width="0.24485714285713117" height="0.24485714285713117" fill="#E6E6E6" />
<rect x="1.5041428571427868" y="0.2548571428571312" width="0.24485714285713117" height="0.24485714285713117" fill="#E6E6E6" />
<rect x="1.753999999999918" y="0.2548571428571312" width="0.24485714285713117" height="0.24485714285713117" fill="#E6E6E6" />
<rect x="2.0038571428570493" y="0.2548571428571312" width="0.24485714285713117" height="0.24485714285713117" fill="#E6E6E6" />
<rect x="2.2537142857141803" y="0.2548571428571312" width="0.24485714285713117" height="0.24485714285713117" fill="#252525" />
<rect x="2.5035714285713118" y="0.2548571428571312" width="0.24485714285713117" height="0.24485714285713117" fill="#E6E6E6" />
<rect x="2.7534285714284428" y="0.2548571428571312" width="0.24485714285713117" height="0.24485714285713117" fill="#E6E6E6" />
<rect x="3.003285714285574" y="0.2548571428571312" width="0.24485714285713117" height="0.24485714285713117" fill="#E6E6E6" />
<rect x="3.2531428571427052" y="0.2548571428571312" width="0.24485714285713117" height="0.24485714285713117" fill="#E6E6E6" />
<rect x="0.005" y="0.5047142857142624" width="0.24485714285713117" height="0.24485714285713117" fill="#E6E6E6" />
<rect x="0.2548571428571312" y="0.5047142857142624" width="0.24485714285713117" height="0.24485714285713117" fill="#E6E6E6" />
<rect x="0.5047142857142624" y="0.5047142857142624" width="0.24485714285713117" height="0.24485714285713117" fill="#E6E6E6" />
<rect x="0.7545714285713935" y="0.5047142857142624" width="0.24485714285713117" height="0.24485714285713117" fill="#E6E6E6" />
<rect x="1.0044285714285246" y="0.5047142857142624" width="0.24485714285713117" height="0.24485714285713117" fill="#252525" />
<rect x="1.2542857142856558" y="0.5047142857142624" width="0.24485714285713117" height="0.24485714285713117" fill="#E6E6E6" />
<rect x="1.5041428571427868" y="0.5047142857142624" width="0.24485714285713117" height="0.24485714285713117" fill="#252525" />
<rect x="1.753999999999918" y="0.5047142857142624" width="0.24485714285713117" height="0.24485714285713117" fill="#252525" />
<rect x="2.0038571428570493" y="0.5047142857142624" width="0.24485714285713117" height="0.24485714285713117" fill="#E6E6E6" />
<rect x="2.2537142857141803" y="0.5047142857142624" width="0.24485714285713117" height="0.24485714285713117" fill="#252525" />
<rect x="2.5035714285713118" y="0.5047142857142624" width="0.24485714285713117" height="0.24485714285713117" fill="#E6E6E6" />
<rect x="2.7534285714284428" y="0.5047142857142624" width="0.24485714285713117" height="0.24485714285713117" fill="#E6E6E6" />
<rect x="3.003285714285574" y="0.5047142857142624" width="0.24485714285713117" height="0.24485714285713117" fill="#E6E6E6" />
<rect x="3.2531428571427052" y="0.5047142857142624" width="0.24485714285713117" height="0.24485714285713117" fill="#E6E6E6" />
<rect x="0.005" y="0.7545714285713935" width="0.24485714285713117" height="0.24485714285713117" fill="#E6E6E6" />
<rect x="0.2548571428571312" y="0.7545714285713935" width="0.24485714285713117" height="0.24485714285713117" fill="#E6E6E6" />
<rect x="0.5047142857142624" y="0.7545714285713935" width="0.24485714285713117" height="0.24485714285713117" fill="#E6E6E6" />
<rect x="0.7545714285713935" y="0.7545714285713935" width="0.24485714285713117" height="0.24485714285713117" fill="#E6E6E6" />
<rect x="1.0044285714285246" y="0.7545714285713935" width="0.24485714285713117" height="0.24485714285713117" fill="#252525" />
<rect x="1.2542857142856558" y="0.7545714285713935" width="0.24485714285713117" height="0.24485714285713117" fill="#E6E6E6" />
<rect x="1.5041428571427868" y="0.7545714285713935" width="0.24485714285713117" height="0.24485714285713117" fill="#252525" />
<rect x="1.753999999999918" y="0.7545714285713935" width="0.24485714285713117" height="0.24485714285713117" fill="#252525" />
<rect x="2.0038571428570493" y="0.7545714285713935" width="0.24485714285713117" height="0.24485714285713117" fill="#E6E6E6" />
<rect x="2.2537142857141803" y="0.7545714285713935" width="0.24485714285713117" height="0.24485714285713117" fill="#252525" />
<rect x="2.5035714285713118" y="0.7545714285713935" width="0.24485714285713117" height="0.24485714285713117" fill="#E6E6E6" />
<rect x="2.7534285714284428" y="0.7545714285713935" width="0.24485714285713117" height="0.24485714285713117" fill="#E6E6E6" />
<rect x="3.003285714285574" y="0.7545714285713935" width="0.24485714285713117" height="0.24485714285713117" fill="#E6E6E6" />
<rect x="3.2531428571427052" y="0.7545714285713935" width="0.24485714285713117" height="0.24485714285713117" fill="#E6E6E6" />
<rect x="-0.02666666666666667" y="-0.02666666666666667" width="3.5513333333331696" height="1.052761904761858" fill="none" stroke="#111111ff" stroke-width="0.08" />
<text x="3.4979999999998364" y="1.4681785714285247" font-size="0.375" fill="black" text-anchor="end" font-family="Anuphan">14x4</text>
<text x="-0.037500000000000006" y="1.4681785714285247" font-size="0.375" fill="black" text-anchor="start" font-family="Anuphan" font-weight="600">Input 4</text>
</g>
<g id="d4">
<rect x="0.005" y="0.005" width="0.24485714285713117" height="0.24485714285713117" fill="#E6E6E6" />
<rect x="0.2548571428571312" y="0.005" width="0.24485714285713117" height="0.24485714285713117" fill="#E6E6E6" />
<rect x="0.5047142857142624" y="0.005" width="0.24485714285713117" height="0.24485714285713117" fill="#E6E6E6" />
<rect x="0.7545714285713935" y="0.005" width="0.24485714285713117" height="0.24485714285713117" fill="#E6E6E6" />
<rect x="1.0044285714285246" y="0.005" width="0.24485714285713117" height="0.24485714285713117" fill="#252525" />
<rect x="1.2542857142856558" y="0.005" width="0.24485714285713117" height="0.24485714285713117" fill="#E6E6E6" />
<rect x="1.5041428571427868" y="0.005" width="0.24485714285713117" height="0.24485714285713117" fill="#E6E6E6" />
<rect x="1.753999999999918" y="0.005" width="0.24485714285713117" height="0.24485714285713117" fill="#E6E6E6" />
<rect x="2.0038571428570493" y="0.005" width="0.24485714285713117" height="0.24485714285713117" fill="#E6E6E6" />
<rect x="2.2537142857141803" y="0.005" width="0.24485714285713117" height="0.24485714285713117" fill="#252525" />
<rect x="2.5035714285713118" y="0.005" width="0.24485714285713117" height="0.24485714285713117" fill="#E6E6E6" />
<rect x="2.7534285714284428" y="0.005" width="0.24485714285713117" height="0.24485714285713117" fill="#E6E6E6" />
<rect x="3.003285714285574" y="0.005" width="0.24485714285713117" height="0.24485714285713117" fill="#E6E6E6" />
<rect x="3.2531428571427052" y="0.005" width="0.24485714285713117" height="0.24485714285713117" fill="#E6E6E6" />
<rect x="0.005" y="0.2548571428571312" width="0.24485714285713117" height="0.24485714285713117" fill="#E6E6E6" />
<rect x="0.2548571428571312" y="0.2548571428571312" width="0.24485714285713117" height="0.24485714285713117" fill="#E6E6E6" />
<rect x="0.5047142857142624" y="0.2548571428571312" width="0.24485714285713117" height="0.24485714285713117" fill="#E6E6E6" />
<rect x="0.7545714285713935" y="0.2548571428571312" width="0.24485714285713117" height="0.24485714285713117" fill="#E6E6E6" />
<rect x="1.0044285714285246" y="0.2548571428571312" width="0.24485714285713117" height="0.24485714285713117" fill="#252525" />
<rect x="1.2542857142856558" y="0.2548571428571312" width="0.24485714285713117" height="0.24485714285713117" fill="#252525" />
<rect x="1.5041428571427868" y="0.2548571428571312" width="0.24485714285713117" height="0.24485714285713117" fill="#E6E6E6" />
<rect x="1.753999999999918" y="0.2548571428571312" width="0.24485714285713117" height="0.24485714285713117" fill="#E6E6E6" />
<rect x="2.0038571428570493" y="0.2548571428571312" width="0.24485714285713117" height="0.24485714285713117" fill="#252525" />
<rect x="2.2537142857141803" y="0.2548571428571312" width="0.24485714285713117" height="0.24485714285713117" fill="#252525" />
<rect x="2.5035714285713118" y="0.2548571428571312" width="0.24485714285713117" height="0.24485714285713117" fill="#E6E6E6" />
<rect x="2.7534285714284428" y="0.2548571428571312" width="0.24485714285713117" height="0.24485714285713117" fill="#252525" />
<rect x="3.003285714285574" y="0.2548571428571312" width="0.24485714285713117" height="0.24485714285713117" fill="#252525" />
<rect x="3.2531428571427052" y="0.2548571428571312" width="0.24485714285713117" height="0.24485714285713117" fill="#E6E6E6" />
<rect x="0.005" y="0.5047142857142624" width="0.24485714285713117" height="0.24485714285713117" fill="#E6E6E6" />
<rect x="0.2548571428571312" y="0.5047142857142624" width="0.24485714285713117" height="0.24485714285713117" fill="#252525" />
<rect x="0.5047142857142624" y="0.5047142857142624" width="0.24485714285713117" height="0.24485714285713117" fill="#252525" />
<rect x="0.7545714285713935" y="0.5047142857142624" width="0.24485714285713117" height="0.24485714285713117" fill="#E6E6E6" />
<rect x="1.0044285714285246" y="0.5047142857142624" width="0.24485714285713117" height="0.24485714285713117" fill="#252525" />
<rect x="1.2542857142856558" y="0.5047142857142624" width="0.24485714285713117" height="0.24485714285713117" fill="#252525" />
<rect x="1.5041428571427868" y="0.5047142857142624" width="0.24485714285713117" height="0.24485714285713117" fill="#E6E6E6" />
<rect x="1.753999999999918" y="0.5047142857142624" width="0.24485714285713117" height="0.24485714285713117" fill="#E6E6E6" />
<rect x="2.0038571428570493" y="0.5047142857142624" width="0.24485714285713117" height="0.24485714285713117" fill="#252525" />
<rect x="2.2537142857141803" y="0.5047142857142624" width="0.24485714285713117" height="0.24485714285713117" fill="#252525" />
<rect x="2.5035714285713118" y="0.5047142857142624" width="0.24485714285713117" height="0.24485714285713117" fill="#E6E6E6" />
<rect x="2.7534285714284428" y="0.5047142857142624" width="0.24485714285713117" height="0.24485714285713117" fill="#252525" />
<rect x="3.003285714285574" y="0.5047142857142624" width="0.24485714285713117" height="0.24485714285713117" fill="#252525" />
<rect x="3.2531428571427052" y="0.5047142857142624" width="0.24485714285713117" height="0.24485714285713117" fill="#E6E6E6" />
<rect x="0.005" y="0.7545714285713935" width="0.24485714285713117" height="0.24485714285713117" fill="#E6E6E6" />
<rect x="0.2548571428571312" y="0.7545714285713935" width="0.24485714285713117" height="0.24485714285713117" fill="#252525" />
<rect x="0.5047142857142624" y="0.7545714285713935" width="0.24485714285713117" height="0.24485714285713117" fill="#252525" />
<rect x="0.7545714285713935" y="0.7545714285713935" width="0.24485714285713117" height="0.24485714285713117" fill="#E6E6E6" />
<rect x="1.0044285714285246" y="0.7545714285713935" width="0.24485714285713117" height="0.24485714285713117" fill="#252525" />
<rect x="1.2542857142856558" y="0.7545714285713935" width="0.24485714285713117" height="0.24485714285713117" fill="#E6E6E6" />
<rect x="1.5041428571427868" y="0.7545714285713935" width="0.24485714285713117" height="0.24485714285713117" fill="#E6E6E6" />
<rect x="1.753999999999918" y="0.7545714285713935" width="0.24485714285713117" height="0.24485714285713117" fill="#E6E6E6" />
<rect x="2.0038571428570493" y="0.7545714285713935" width="0.24485714285713117" height="0.24485714285713117" fill="#E6E6E6" />
<rect x="2.2537142857141803" y="0.7545714285713935" width="0.24485714285713117" height="0.24485714285713117" fill="#252525" />
<rect x="2.5035714285713118" y="0.7545714285713935" width="0.24485714285713117" height="0.24485714285713117" fill="#E6E6E6" />
<rect x="2.7534285714284428" y="0.7545714285713935" width="0.24485714285713117" height="0.24485714285713117" fill="#E6E6E6" />
<rect x="3.003285714285574" y="0.7545714285713935" width="0.24485714285713117" height="0.24485714285713117" fill="#E6E6E6" />
<rect x="3.2531428571427052" y="0.7545714285713935" width="0.24485714285713117" height="0.24485714285713117" fill="#E6E6E6" />
<rect x="-0.02666666666666667" y="-0.02666666666666667" width="3.5513333333331696" height="1.052761904761858" fill="none" stroke="#111111ff" stroke-width="0.08" />
<text x="3.4979999999998364" y="1.4681785714285247" font-size="0.375" fill="black" text-anchor="end" font-family="Anuphan">14x4</text>
<text x="-0.037500000000000006" y="1.4681785714285247" font-size="0.375" fill="black" text-anchor="start" font-family="Anuphan" font-weight="600">Test 1</text>
</g>
<g id="d5">
<rect x="0.005" y="0.005" width="1.1609999999999456" height="1.1609999999999456" fill="#FF4136" />
<rect x="1.1709999999999454" y="0.005" width="1.1609999999999456" height="1.1609999999999456" fill="#FF4136" />
<rect x="2.336999999999891" y="0.005" width="1.1609999999999456" height="1.1609999999999456" fill="#FF4136" />
<rect x="0.005" y="1.1709999999999454" width="1.1609999999999456" height="1.1609999999999456" fill="#54D2EB" />
<rect x="1.1709999999999454" y="1.1709999999999454" width="1.1609999999999456" height="1.1609999999999456" fill="#54D2EB" />
<rect x="2.336999999999891" y="1.1709999999999454" width="1.1609999999999456" height="1.1609999999999456" fill="#54D2EB" />
<rect x="0.005" y="2.336999999999891" width="1.1609999999999456" height="1.1609999999999456" fill="#37D449" />
<rect x="1.1709999999999454" y="2.336999999999891" width="1.1609999999999456" height="1.1609999999999456" fill="#37D449" />
<rect x="2.336999999999891" y="2.336999999999891" width="1.1609999999999456" height="1.1609999999999456" fill="#37D449" />
<rect x="-0.02666666666666667" y="-0.02666666666666667" width="3.55133333333317" height="3.55133333333317" fill="none" stroke="#111111ff" stroke-width="0.08" />
<text x="3.497999999999837" y="3.966749999999837" font-size="0.375" fill="black" text-anchor="end" font-family="Anuphan">3x3</text>
<text x="-0.037500000000000006" y="3.966749999999837" font-size="0.375" fill="black" text-anchor="start" font-family="Anuphan" font-weight="600">Output 1</text>
</g>
<g id="d6">
<rect x="0.005" y="0.005" width="1.1609999999999456" height="1.1609999999999456" fill="#37D449" />
<rect x="1.1709999999999454" y="0.005" width="1.1609999999999456" height="1.1609999999999456" fill="#37D449" />
<rect x="2.336999999999891" y="0.005" width="1.1609999999999456" height="1.1609999999999456" fill="#37D449" />
<rect x="0.005" y="1.1709999999999454" width="1.1609999999999456" height="1.1609999999999456" fill="#FFDC00" />
<rect x="1.1709999999999454" y="1.1709999999999454" width="1.1609999999999456" height="1.1609999999999456" fill="#FFDC00" />
<rect x="2.336999999999891" y="1.1709999999999454" width="1.1609999999999456" height="1.1609999999999456" fill="#FFDC00" />
<rect x="0.005" y="2.336999999999891" width="1.1609999999999456" height="1.1609999999999456" fill="#FF4136" />
<rect x="1.1709999999999454" y="2.336999999999891" width="1.1609999999999456" height="1.1609999999999456" fill="#FF4136" />
<rect x="2.336999999999891" y="2.336999999999891" width="1.1609999999999456" height="1.1609999999999456" fill="#FF4136" />
<rect x="-0.02666666666666667" y="-0.02666666666666667" width="3.55133333333317" height="3.55133333333317" fill="none" stroke="#111111ff" stroke-width="0.08" />
<text x="3.497999999999837" y="3.966749999999837" font-size="0.375" fill="black" text-anchor="end" font-family="Anuphan">3x3</text>
<text x="-0.037500000000000006" y="3.966749999999837" font-size="0.375" fill="black" text-anchor="start" font-family="Anuphan" font-weight="600">Output 2</text>
</g>
<g id="d7">
<rect x="0.005" y="0.005" width="1.1609999999999456" height="1.1609999999999456" fill="#54D2EB" />
<rect x="1.1709999999999454" y="0.005" width="1.1609999999999456" height="1.1609999999999456" fill="#54D2EB" />
<rect x="2.336999999999891" y="0.005" width="1.1609999999999456" height="1.1609999999999456" fill="#54D2EB" />
<rect x="0.005" y="1.1709999999999454" width="1.1609999999999456" height="1.1609999999999456" fill="#FF4136" />
<rect x="1.1709999999999454" y="1.1709999999999454" width="1.1609999999999456" height="1.1609999999999456" fill="#FF4136" />
<rect x="2.336999999999891" y="1.1709999999999454" width="1.1609999999999456" height="1.1609999999999456" fill="#FF4136" />
<rect x="0.005" y="2.336999999999891" width="1.1609999999999456" height="1.1609999999999456" fill="#FFDC00" />
<rect x="1.1709999999999454" y="2.336999999999891" width="1.1609999999999456" height="1.1609999999999456" fill="#FFDC00" />
<rect x="2.336999999999891" y="2.336999999999891" width="1.1609999999999456" height="1.1609999999999456" fill="#FFDC00" />
<rect x="-0.02666666666666667" y="-0.02666666666666667" width="3.55133333333317" height="3.55133333333317" fill="none" stroke="#111111ff" stroke-width="0.08" />
<text x="3.497999999999837" y="3.966749999999837" font-size="0.375" fill="black" text-anchor="end" font-family="Anuphan">3x3</text>
<text x="-0.037500000000000006" y="3.966749999999837" font-size="0.375" fill="black" text-anchor="start" font-family="Anuphan" font-weight="600">Output 3</text>
</g>
<g id="d8">
<rect x="0.005" y="0.005" width="1.1609999999999456" height="1.1609999999999456" fill="#FF4136" />
<rect x="1.1709999999999454" y="0.005" width="1.1609999999999456" height="1.1609999999999456" fill="#FF4136" />
<rect x="2.336999999999891" y="0.005" width="1.1609999999999456" height="1.1609999999999456" fill="#FF4136" />
<rect x="0.005" y="1.1709999999999454" width="1.1609999999999456" height="1.1609999999999456" fill="#FFDC00" />
<rect x="1.1709999999999454" y="1.1709999999999454" width="1.1609999999999456" height="1.1609999999999456" fill="#FFDC00" />
<rect x="2.336999999999891" y="1.1709999999999454" width="1.1609999999999456" height="1.1609999999999456" fill="#FFDC00" />
<rect x="0.005" y="2.336999999999891" width="1.1609999999999456" height="1.1609999999999456" fill="#FF4136" />
<rect x="1.1709999999999454" y="2.336999999999891" width="1.1609999999999456" height="1.1609999999999456" fill="#FF4136" />
<rect x="2.336999999999891" y="2.336999999999891" width="1.1609999999999456" height="1.1609999999999456" fill="#FF4136" />
<rect x="-0.02666666666666667" y="-0.02666666666666667" width="3.55133333333317" height="3.55133333333317" fill="none" stroke="#111111ff" stroke-width="0.08" />
<text x="3.497999999999837" y="3.966749999999837" font-size="0.375" fill="black" text-anchor="end" font-family="Anuphan">3x3</text>
<text x="-0.037500000000000006" y="3.966749999999837" font-size="0.375" fill="black" text-anchor="start" font-family="Anuphan" font-weight="600">Output 4</text>
</g>
</defs>
<rect x="0" y="0" width="100%" height="100%" fill="#eeeff6" />
<use xlink:href="#d0" x="0.25" y="0.25" />
<use xlink:href="#d1" x="4.247999999999837" y="0.25" />
<use xlink:href="#d2" x="8.245999999999674" y="0.25" />
<use xlink:href="#d3" x="12.24399999999951" y="0.25" />
<use xlink:href="#d4" x="16.241999999999347" y="0.25" />
<path d="M1.9989999999999182,1.8994285714285248 L1.9989999999999182,2.2994285714285247" stroke-width="0.05" stroke="#888888" />
<path d="M1.8489999999999183,2.0994285714285246 L1.9989999999999182,2.2994285714285247" stroke-width="0.05" stroke="#888888" />
<path d="M2.1489999999999183,2.0994285714285246 L1.9989999999999182,2.2994285714285247" stroke-width="0.05" stroke="#888888" />
<use xlink:href="#d5" x="0.24999999999999978" y="2.649428571428525" />
<path d="M5.996999999999755,1.8994285714285248 L5.996999999999755,2.2994285714285247" stroke-width="0.05" stroke="#888888" />
<path d="M5.846999999999754,2.0994285714285246 L5.996999999999755,2.2994285714285247" stroke-width="0.05" stroke="#888888" />
<path d="M6.146999999999755,2.0994285714285246 L5.996999999999755,2.2994285714285247" stroke-width="0.05" stroke="#888888" />
<use xlink:href="#d6" x="4.247999999999837" y="2.649428571428525" />
<path d="M9.994999999999592,1.8994285714285248 L9.994999999999592,2.2994285714285247" stroke-width="0.05" stroke="#888888" />
<path d="M9.844999999999592,2.0994285714285246 L9.994999999999592,2.2994285714285247" stroke-width="0.05" stroke="#888888" />
<path d="M10.144999999999593,2.0994285714285246 L9.994999999999592,2.2994285714285247" stroke-width="0.05" stroke="#888888" />
<use xlink:href="#d7" x="8.245999999999674" y="2.649428571428525" />
<path d="M13.992999999999428,1.8994285714285248 L13.992999999999428,2.2994285714285247" stroke-width="0.05" stroke="#888888" />
<path d="M13.842999999999428,2.0994285714285246 L13.992999999999428,2.2994285714285247" stroke-width="0.05" stroke="#888888" />
<path d="M14.142999999999429,2.0994285714285246 L13.992999999999428,2.2994285714285247" stroke-width="0.05" stroke="#888888" />
<use xlink:href="#d8" x="12.24399999999951" y="2.649428571428525" />
<path d="M17.990999999999264,1.8994285714285248 L17.990999999999264,2.2994285714285247" stroke-width="0.05" stroke="#888888" />
<path d="M17.840999999999266,2.0994285714285246 L17.990999999999264,2.2994285714285247" stroke-width="0.05" stroke="#888888" />
<path d="M18.140999999999263,2.0994285714285246 L17.990999999999264,2.2994285714285247" stroke-width="0.05" stroke="#888888" />
<text x="17.990999999999264" y="4.498428571428443" font-size="1" font-family="Anuphan" font-weight="700" fill="#333333" text-anchor="middle" alignment-baseline="middle">?</text>
<text x="19.9" y="7.0" font-size="0.3" font-family="Anuphan" font-weight="600" fill="#666666" text-anchor="end" alignment-baseline="bottom">Task 995c5fa3</text>
</svg>