<?xml version="1.0" encoding="UTF-8"?>
<svg xmlns="http://www.w3.org/2000/svg" xmlns:xlink="http://www.w3.org/1999/xlink"
     width="660.0" height="536.0" viewBox="0 0 16.5 13.399999999999999">
<defs>
<g id="d0">
<rect x="0.005" y="0.005" width="0.3816666666666726" height="0.3816666666666726" fill="#252525" />
<rect x="0.3916666666666726" y="0.005" width="0.3816666666666726" height="0.3816666666666726" fill="#252525" />
<rect x="0.7783333333333452" y="0.005" width="0.3816666666666726" height="0.3816666666666726" fill="#252525" />
<rect x="1.1650000000000178" y="0.005" width="0.3816666666666726" height="0.3816666666666726" fill="#252525" />
<rect x="1.5516666666666903" y="0.005" width="0.3816666666666726" height="0.3816666666666726" fill="#252525" />
<rect x="1.9383333333333628" y="0.005" width="0.3816666666666726" height="0.3816666666666726" fill="#252525" />
<rect x="2.3250000000000357" y="0.005" width="0.3816666666666726" height="0.3816666666666726" fill="#252525" />
<rect x="2.711666666666708" y="0.005" width="0.3816666666666726" height="0.3816666666666726" fill="#252525" />
<rect x="3.0983333333333807" y="0.005" width="0.3816666666666726" height="0.3816666666666726" fill="#252525" />
<rect x="0.005" y="0.3916666666666726" width="0.3816666666666726" height="0.3816666666666726" fill="#252525" />
<rect x="0.3916666666666726" y="0.3916666666666726" width="0.3816666666666726" height="0.3816666666666726" fill="#F012BE" />
<rect x="0.7783333333333452" y="0.3916666666666726" width="0.3816666666666726" height="0.3816666666666726" fill="#F012BE" />
<rect x="1.1650000000000178" y="0.3916666666666726" width="0.3816666666666726" height="0.3816666666666726" fill="#F012BE" />
<rect x="1.5516666666666903" y="0.3916666666666726" width="0.3816666666666726" height="0.3816666666666726" fill="#252525" />
<rect x="1.9383333333333628" y="0.3916666666666726" width="0.3816666666666726" height="0.3816666666666726" fill="#252525" />
<rect x="2.3250000000000357" y="0.3916666666666726" width="0.3816666666666726" height="0.3816666666666726" fill="#252525" />
<rect x="2.711666666666708" y="0.3916666666666726" width="0.3816666666666726" height="0.3816666666666726" fill="#252525" />
<rect x="3.0983333333333807" y="0.3916666666666726" width="0.3816666666666726" height="0.3816666666666726" fill="#252525" />
<rect x="0.005" y="0.7783333333333452" width="0.3816666666666726" height="0.3816666666666726" fill="#252525" />
<rect x="0.3916666666666726" y="0.7783333333333452" width="0.3816666666666726" height="0.3816666666666726" fill="#F012BE" />
<rect x="0.7783333333333452" y="0.7783333333333452" width="0.3816666666666726" height="0.3816666666666726" fill="#252525" />
<rect x="1.1650000000000178" y="0.7783333333333452" width="0.3816666666666726" height="0.3816666666666726" fill="#252525" />
<rect x="1.5516666666666903" y="0.7783333333333452" width="0.3816666666666726" height="0.3816666666666726" fill="#F012BE" />
<rect x="1.9383333333333628" y="0.7783333333333452" width="0.3816666666666726" height="0.3816666666666726" fill="#252525" />
<rect x="2.3250000000000357" y="0.7783333333333452" width="0.3816666666666726" height="0.3816666666666726" fill="#252525" />
<rect x="2.711666666666708" y="0.7783333333333452" width="0.3816666666666726" height="0.3816666666666726" fill="#252525" />
<rect x="3.0983333333333807" y="0.7783333333333452" width="0.3816666666666726" height="0.3816666666666726" fill="#252525" />
<rect x="0.005" y="1.1650000000000178" width="0.3816666666666726" height="0.3816666666666726" fill="#252525" />
<rect x="0.3916666666666726" y="1.1650000000000178" width="0.3816666666666726" height="0.3816666666666726" fill="#252525" />
<rect x="0.7783333333333452" y="1.1650000000000178" width="0.3816666666666726" height="0.3816666666666726" fill="#F012BE" />
<rect x="1.1650000000000178" y="1.1650000000000178" width="0.3816666666666726" height="0.3816666666666726" fill="#252525" />
<rect x="1.5516666666666903" y="1.1650000000000178" width="0.3816666666666726" height="0.3816666666666726" fill="#252525" />
<rect x="1.9383333333333628" y="1.1650000000000178" width="0.3816666666666726" height="0.3816666666666726" fill="#F012BE" />
<rect x="2.3250000000000357" y="1.1650000000000178" width="0.3816666666666726" height="0.3816666666666726" fill="#252525" />
<rect x="2.711666666666708" y="1.1650000000000178" width="0.3816666666666726" height="0.3816666666666726" fill="#252525" />
<rect x="3.0983333333333807" y="1.1650000000000178" width="0.3816666666666726" height="0.3816666666666726" fill="#252525" />
<rect x="0.005" y="1.5516666666666903" width="0.3816666666666726" height="0.3816666666666726" fill="#252525" />
<rect x="0.3916666666666726" y="1.5516666666666903" width="0.3816666666666726" height="0.3816666666666726" fill="#252525" />
<rect x="0.7783333333333452" y="1.5516666666666903" width="0.3816666666666726" height="0.3816666666666726" fill="#252525" />
<rect x="1.1650000000000178" y="1.5516666666666903" width="0.3816666666666726" height="0.3816666666666726" fill="#F012BE" />
<rect x="1.5516666666666903" y="1.5516666666666903" width="0.3816666666666726" height="0.3816666666666726" fill="#252525" />
<rect x="1.9383333333333628" y="1.5516666666666903" width="0.3816666666666726" height="0.3816666666666726" fill="#252525" />
<rect x="2.3250000000000357" y="1.5516666666666903" width="0.3816666666666726" height="0.3816666666666726" fill="#F012BE" />
<rect x="2.711666666666708" y="1.5516666666666903" width="0.3816666666666726" height="0.3816666666666726" fill="#252525" />
<rect x="3.0983333333333807" y="1.5516666666666903" width="0.3816666666666726" height="0.3816666666666726" fill="#252525" />
<rect x="0.005" y="1.9383333333333628" width="0.3816666666666726" height="0.3816666666666726" fill="#252525" />
<rect x="0.3916666666666726" y="1.9383333333333628" width="0.3816666666666726" height="0.3816666666666726" fill="#252525" />
<rect x="0.7783333333333452" y="1.9383333333333628" width="0.3816666666666726" height="0.3816666666666726" fill="#252525" />
<rect x="1.1650000000000178" y="1.9383333333333628" width="0.3816666666666726" height="0.3816666666666726" fill="#252525" />
<rect x="1.5516666666666903" y="1.9383333333333628" width="0.3816666666666726" height="0.3816666666666726" fill="#F012BE" />
<rect x="1.9383333333333628" y="1.9383333333333628" width="0.3816666666666726" height="0.3816666666666726" fill="#F012BE" />
<rect x="2.3250000000000357" y="1.9383333333333628" width="0.3816666666666726" height="0.3816666666666726" fill="#F012BE" />
<rect x="2.711666666666708" y="1.9383333333333628" width="0.3816666666666726" height="0.3816666666666726" fill="#252525" />
<rect x="3.0983333333333807" y="1.9383333333333628" width="0.3816666666666726" height="0.3816666666666726" fill="#252525" />
<rect x="0.005" y="2.3250000000000357" width="0.3816666666666726" height="0.3816666666666726" fill="#252525" />
<rect x="0.3916666666666726" y="2.3250000000000357" width="0.3816666666666726" height="0.3816666666666726" fill="#252525" />
<rect x="0.7783333333333452" y="2.3250000000000357" width="0.3816666666666726" height="0.3816666666666726" fill="#252525" />
<rect x="1.1650000000000178" y="2.3250000000000357" width="0.3816666666666726" height="0.3816666666666726" fill="#252525" />
<rect x="1.5516666666666903" y="2.3250000000000357" width="0.3816666666666726" height="0.3816666666666726" fill="#252525" />
<rect x="1.9383333333333628" y="2.3250000000000357" width="0.3816666666666726" height="0.3816666666666726" fill="#252525" />
<rect x="2.3250000000000357" y="2.3250000000000357" width="0.3816666666666726" height="0.3816666666666726" fill="#252525" />
<rect x="2.711666666666708" y="2.3250000000000357" width="0.3816666666666726" height="0.3816666666666726" fill="#252525" />
<rect x="3.0983333333333807" y="2.3250000000000357" width="0.3816666666666726" height="0.3816666666666726" fill="#252525" />
<rect x="0.005" y="2.711666666666708" width="0.3816666666666726" height="0.3816666666666726" fill="#252525" />
<rect x="0.3916666666666726" y="2.711666666666708" width="0.3816666666666726" height="0.3816666666666726" fill="#252525" />
<rect x="0.7783333333333452" y="2.711666666666708" width="0.3816666666666726" height="0.3816666666666726" fill="#FF4136" />
<rect x="1.1650000000000178" y="2.711666666666708" width="0.3816666666666726" height="0.3816666666666726" fill="#FF4136" />
<rect x="1.5516666666666903" y="2.711666666666708" width="0.3816666666666726" height="0.3816666666666726" fill="#FF4136" />
<rect x="1.9383333333333628" y="2.711666666666708" width="0.3816666666666726" height="0.3816666666666726" fill="#252525" />
<rect x="2.3250000000000357" y="2.711666666666708" width="0.3816666666666726" height="0.3816666666666726" fill="#252525" />
<rect x="2.711666666666708" y="2.711666666666708" width="0.3816666666666726" height="0.3816666666666726" fill="#252525" />
<rect x="3.0983333333333807" y="2.711666666666708" width="0.3816666666666726" height="0.3816666666666726" fill="#252525" />
<rect x="0.005" y="3.0983333333333807" width="0.3816666666666726" height="0.3816666666666726" fill="#252525" />
<rect x="0.3916666666666726" y="3.0983333333333807" width="0.3816666666666726" height="0.3816666666666726" fill="#252525" />
<rect x="0.7783333333333452" y="3.0983333333333807" width="0.3816666666666726" height="0.3816666666666726" fill="#FF4136" />
<rect x="1.1650000000000178" y="3.0983333333333807" width="0.3816666666666726" height="0.3816666666666726" fill="#252525" />
<rect x="1.5516666666666903" y="3.0983333333333807" width="0.3816666666666726" height="0.3816666666666726" fill="#252525" />
<rect x="1.9383333333333628" y="3.0983333333333807" width="0.3816666666666726" height="0.3816666666666726" fill="#FF4136" />
<rect x="2.3250000000000357" y="3.0983333333333807" width="0.3816666666666726" height="0.3816666666666726" fill="#252525" />
<rect x="2.711666666666708" y="3.0983333333333807" width="0.3816666666666726" height="0.3816666666666726" fill="#252525" />
<rect x="3.0983333333333807" y="3.0983333333333807" width="0.3816666666666726" height="0.3816666666666726" fill="#252525" />
<rect x="0.005" y="3.485000000000053" width="0.3816666666666726" height="0.3816666666666726" fill="#252525" />
<rect x="0.3916666666666726" y="3.485000000000053" width="0.3816666666666726" height="0.3816666666666726" fill="#252525" />
<rect x="0.7783333333333452" y="3.485000000000053" width="0.3816666666666726" height="0.3816666666666726" fill="#252525" />
<rect x="1.1650000000000178" y="3.485000000000053" width="0.3816666666666726" height="0.3816666666666726" fill="#FF4136" />
<rect x="1.5516666666666903" y="3.485000000000053" width="0.3816666666666726" height="0.3816666666666726" fill="#FF4136" />
<rect x="1.9383333333333628" y="3.485000000000053" width="0.3816666666666726" height="0.3816666666666726" fill="#FF4136" />
<rect x="2.3250000000000357" y="3.485000000000053" width="0.3816666666666726" height="0.3816666666666726" fill="#252525" />
<rect x="2.711666666666708" y="3.485000000000053" width="0.3816666666666726" height="0.3816666666666726" fill="#252525" />
<rect x="3.0983333333333807" y="3.485000000000053" width="0.3816666666666726" height="0.3816666666666726" fill="#252525" />
<rect x="0.005" y="3.8716666666667257" width="0.3816666666666726" height="0.3816666666666726" fill="#252525" />
<rect x="0.3916666666666726" y="3.8716666666667257" width="0.3816666666666726" height="0.3816666666666726" fill="#252525" />
<rect x="0.7783333333333452" y="3.8716666666667257" width="0.3816666666666726" height="0.3816666666666726" fill="#252525" />
<rect x="1.1650000000000178" y="3.8716666666667257" width="0.3816666666666726" height="0.3816666666666726" fill="#252525" />
<rect x="1.5516666666666903" y="3.8716666666667257" width="0.3816666666666726" height="0.3816666666666726" fill="#252525" />
<rect x="1.9383333333333628" y="3.8716666666667257" width="0.3816666666666726" height="0.3816666666666726" fill="#252525" />
<rect x="2.3250000000000357" y="3.8716666666667257" width="0.3816666666666726" height="0.3816666666666726" fill="#252525" />
<rect x="2.711666666666708" y="3.8716666666667257" width="0.3816666666666726" height="0.3816666666666726" fill="#252525" />
<rect x="3.0983333333333807" y="3.8716666666667257" width="0.3816666666666726" height="0.3816666666666726" fill="#252525" />
<rect x="0.005" y="4.258333333333399" width="0.3816666666666726" height="0.3816666666666726" fill="#252525" />
<rect x="0.3916666666666726" y="4.258333333333399" width="0.3816666666666726" height="0.3816666666666726" fill="#252525" />
<rect x="0.7783333333333452" y="4.258333333333399" width="0.3816666666666726" height="0.3816666666666726" fill="#252525" />
<rect x="1.1650000000000178" y="4.258333333333399" width="0.3816666666666726" height="0.3816666666666726" fill="#252525" />
<rect x="1.5516666666666903" y="4.258333333333399" width="0.3816666666666726" height="0.3816666666666726" fill="#252525" />
<rect x="1.9383333333333628" y="4.258333333333399" width="0.3816666666666726" height="0.3816666666666726" fill="#252525" />
<rect x="2.3250000000000357" y="4.258333333333399" width="0.3816666666666726" height="0.3816666666666726" fill="#252525" />
<rect x="2.711666666666708" y="4.258333333333399" width="0.3816666666666726" height="0.3816666666666726" fill="#252525" />
<rect x="3.0983333333333807" y="4.258333333333399" width="0.3816666666666726" height="0.3816666666666726" fill="#252525" />
<rect x="0.005" y="4.6450000000000715" width="0.3816666666666726" height="0.3816666666666726" fill="#252525" />
<rect x="0.3916666666666726" y="4.6450000000000715" width="0.3816666666666726" height="0.3816666666666726" fill="#252525" />
<rect x="0.7783333333333452" y="4.6450000000000715" width="0.3816666666666726" height="0.3816666666666726" fill="#252525" />
<rect x="1.1650000000000178" y="4.6450000000000715" width="0.3816666666666726" height="0.3816666666666726" fill="#252525" />
<rect x="1.5516666666666903" y="4.6450000000000715" width="0.3816666666666726" height="0.3816666666666726" fill="#252525" />
<rect x="1.9383333333333628" y="4.6450000000000715" width="0.3816666666666726" height="0.3816666666666726" fill="#252525" />
<rect x="2.3250000000000357" y="4.6450000000000715" width="0.3816666666666726" height="0.3816666666666726" fill="#252525" />
<rect x="2.711666666666708" y="4.6450000000000715" width="0.3816666666666726" height="0.3816666666666726" fill="#252525" />
<rect x="3.0983333333333807" y="4.6450000000000715" width="0.3816666666666726" height="0.3816666666666726" fill="#252525" />
<rect x="0.005" y="5.031666666666744" width="0.3816666666666726" height="0.3816666666666726" fill="#252525" />
<rect x="0.3916666666666726" y="5.031666666666744" width="0.3816666666666726" height="0.3816666666666726" fill="#252525" />
<rect x="0.7783333333333452" y="5.031666666666744" width="0.3816666666666726" height="0.3816666666666726" fill="#252525" />
<rect x="1.1650000000000178" y="5.031666666666744" width="0.3816666666666726" height="0.3816666666666726" fill="#252525" />
<rect x="1.5516666666666903" y="5.031666666666744" width="0.3816666666666726" height="0.3816666666666726" fill="#252525" />
<rect x="1.9383333333333628" y="5.031666666666744" width="0.3816666666666726" height="0.3816666666666726" fill="#252525" />
<rect x="2.3250000000000357" y="5.031666666666744" width="0.3816666666666726" height="0.3816666666666726" fill="#252525" />
<rect x="2.711666666666708" y="5.031666666666744" width="0.3816666666666726" height="0.3816666666666726" fill="#252525" />
<rect x="3.0983333333333807" y="5.031666666666744" width="0.3816666666666726" height="0.3816666666666726" fill="#252525" />
<rect x="-0.02666666666666667" y="-0.02666666666666667" width="3.5333333333333865" height="5.46666666666675" fill="none" stroke="#111111ff" stroke-width="0.08" />
<text x="3.4800000000000533" y="5.882083333333417" font-size="0.375" fill="black" text-anchor="end" font-family="Anuphan">9x14</text>
<text x="-0.037500000000000006" y="5.882083333333417" font-size="0.375" fill="black" text-anchor="start" font-family="Anuphan" font-weight="600">Input 1</text>
</g>
<g id="d1">
<rect x="0.005" y="0.005" width="0.6722222222222219" height="0.6722222222222219" fill="#252525" />
<rect x="0.682222222222222" y="0.005" width="0.6722222222222219" height="0.6722222222222219" fill="#252525" />
<rect x="1.3594444444444438" y="0.005" width="0.6722222222222219" height="0.6722222222222219" fill="#252525" />
<rect x="2.0366666666666657" y="0.005" width="0.6722222222222219" height="0.6722222222222219" fill="#252525" />
<rect x="2.7138888888888877" y="0.005" width="0.6722222222222219" height="0.6722222222222219" fill="#252525" />
<rect x="3.3911111111111096" y="0.005" width="0.6722222222222219" height="0.6722222222222219" fill="#252525" />
<rect x="4.068333333333332" y="0.005" width="0.6722222222222219" height="0.6722222222222219" fill="#252525" />
<rect x="4.745555555555554" y="0.005" width="0.6722222222222219" height="0.6722222222222219" fill="#252525" />
<rect x="5.4227777777777755" y="0.005" width="0.6722222222222219" height="0.6722222222222219" fill="#252525" />
<rect x="0.005" y="0.682222222222222" width="0.6722222222222219" height="0.6722222222222219" fill="#252525" />
<rect x="0.682222222222222" y="0.682222222222222" width="0.6722222222222219" height="0.6722222222222219" fill="#54D2EB" />
<rect x="1.3594444444444438" y="0.682222222222222" width="0.6722222222222219" height="0.6722222222222219" fill="#54D2EB" />
<rect x="2.0366666666666657" y="0.682222222222222" width="0.6722222222222219" height="0.6722222222222219" fill="#54D2EB" />
<rect x="2.7138888888888877" y="0.682222222222222" width="0.6722222222222219" height="0.6722222222222219" fill="#54D2EB" />
<rect x="3.3911111111111096" y="0.682222222222222" width="0.6722222222222219" height="0.6722222222222219" fill="#54D2EB" />
<rect x="4.068333333333332" y="0.682222222222222" width="0.6722222222222219" height="0.6722222222222219" fill="#252525" />
<rect x="4.745555555555554" y="0.682222222222222" width="0.6722222222222219" height="0.6722222222222219" fill="#252525" />
<rect x="5.4227777777777755" y="0.682222222222222" width="0.6722222222222219" height="0.6722222222222219" fill="#252525" />
<rect x="0.005" y="1.3594444444444438" width="0.6722222222222219" height="0.6722222222222219" fill="#252525" />
<rect x="0.682222222222222" y="1.3594444444444438" width="0.6722222222222219" height="0.6722222222222219" fill="#54D2EB" />
<rect x="1.3594444444444438" y="1.3594444444444438" width="0.6722222222222219" height="0.6722222222222219" fill="#252525" />
<rect x="2.0366666666666657" y="1.3594444444444438" width="0.6722222222222219" height="0.6722222222222219" fill="#252525" />
<rect x="2.7138888888888877" y="1.3594444444444438" width="0.6722222222222219" height="0.6722222222222219" fill="#252525" />
<rect x="3.3911111111111096" y="1.3594444444444438" width="0.6722222222222219" height="0.6722222222222219" fill="#252525" />
<rect x="4.068333333333332" y="1.3594444444444438" width="0.6722222222222219" height="0.6722222222222219" fill="#54D2EB" />
<rect x="4.745555555555554" y="1.3594444444444438" width="0.6722222222222219" height="0.6722222222222219" fill="#252525" />
<rect x="5.4227777777777755" y="1.3594444444444438" width="0.6722222222222219" height="0.6722222222222219" fill="#252525" />
<rect x="0.005" y="2.0366666666666657" width="0.6722222222222219" height="0.6722222222222219" fill="#252525" />
<rect x="0.682222222222222" y="2.0366666666666657" width="0.6722222222222219" height="0.6722222222222219" fill="#252525" />
<rect x="1.3594444444444438" y="2.0366666666666657" width="0.6722222222222219" height="0.6722222222222219" fill="#54D2EB" />
<rect x="2.0366666666666657" y="2.0366666666666657" width="0.6722222222222219" height="0.6722222222222219" fill="#252525" />
<rect x="2.7138888888888877" y="2.0366666666666657" width="0.6722222222222219" height="0.6722222222222219" fill="#252525" />
<rect x="3.3911111111111096" y="2.0366666666666657" width="0.6722222222222219" height="0.6722222222222219" fill="#252525" />
<rect x="4.068333333333332" y="2.0366666666666657" width="0.6722222222222219" height="0.6722222222222219" fill="#252525" />
<rect x="4.745555555555554" y="2.0366666666666657" width="0.6722222222222219" height="0.6722222222222219" fill="#54D2EB" />
<rect x="5.4227777777777755" y="2.0366666666666657" width="0.6722222222222219" height="0.6722222222222219" fill="#252525" />
<rect x="0.005" y="2.7138888888888877" width="0.6722222222222219" height="0.6722222222222219" fill="#252525" />
<rect x="0.682222222222222" y="2.7138888888888877" width="0.6722222222222219" height="0.6722222222222219" fill="#252525" />
<rect x="1.3594444444444438" y="2.7138888888888877" width="0.6722222222222219" height="0.6722222222222219" fill="#252525" />
<rect x="2.0366666666666657" y="2.7138888888888877" width="0.6722222222222219" height="0.6722222222222219" fill="#54D2EB" />
<rect x="2.7138888888888877" y="2.7138888888888877" width="0.6722222222222219" height="0.6722222222222219" fill="#252525" />
<rect x="3.3911111111111096" y="2.7138888888888877" width="0.6722222222222219" height="0.6722222222222219" fill="#252525" />
<rect x="4.068333333333332" y="2.7138888888888877" width="0.6722222222222219" height="0.6722222222222219" fill="#252525" />
<rect x="4.745555555555554" y="2.7138888888888877" width="0.6722222222222219" height="0.6722222222222219" fill="#252525" />
<rect x="5.4227777777777755" y="2.7138888888888877" width="0.6722222222222219" height="0.6722222222222219" fill="#54D2EB" />
<rect x="0.005" y="3.3911111111111096" width="0.6722222222222219" height="0.6722222222222219" fill="#252525" />
<rect x="0.682222222222222" y="3.3911111111111096" width="0.6722222222222219" height="0.6722222222222219" fill="#252525" />
<rect x="1.3594444444444438" y="3.3911111111111096" width="0.6722222222222219" height="0.6722222222222219" fill="#252525" />
<rect x="2.0366666666666657" y="3.3911111111111096" width="0.6722222222222219" height="0.6722222222222219" fill="#252525" />
<rect x="2.7138888888888877" y="3.3911111111111096" width="0.6722222222222219" height="0.6722222222222219" fill="#54D2EB" />
<rect x="3.3911111111111096" y="3.3911111111111096" width="0.6722222222222219" height="0.6722222222222219" fill="#54D2EB" />
<rect x="4.068333333333332" y="3.3911111111111096" width="0.6722222222222219" height="0.6722222222222219" fill="#54D2EB" />
<rect x="4.745555555555554" y="3.3911111111111096" width="0.6722222222222219" height="0.6722222222222219" fill="#54D2EB" />
<rect x="5.4227777777777755" y="3.3911111111111096" width="0.6722222222222219" height="0.6722222222222219" fill="#54D2EB" />
<rect x="0.005" y="4.068333333333332" width="0.6722222222222219" height="0.6722222222222219" fill="#252525" />
<rect x="0.682222222222222" y="4.068333333333332" width="0.6722222222222219" height="0.6722222222222219" fill="#252525" />
<rect x="1.3594444444444438" y="4.068333333333332" width="0.6722222222222219" height="0.6722222222222219" fill="#252525" />
<rect x="2.0366666666666657" y="4.068333333333332" width="0.6722222222222219" height="0.6722222222222219" fill="#252525" />
<rect x="2.7138888888888877" y="4.068333333333332" width="0.6722222222222219" height="0.6722222222222219" fill="#252525" />
<rect x="3.3911111111111096" y="4.068333333333332" width="0.6722222222222219" height="0.6722222222222219" fill="#252525" />
<rect x="4.068333333333332" y="4.068333333333332" width="0.6722222222222219" height="0.6722222222222219" fill="#252525" />
<rect x="4.745555555555554" y="4.068333333333332" width="0.6722222222222219" height="0.6722222222222219" fill="#252525" />
<rect x="5.4227777777777755" y="4.068333333333332" width="0.6722222222222219" height="0.6722222222222219" fill="#252525" />
<rect x="0.005" y="4.745555555555554" width="0.6722222222222219" height="0.6722222222222219" fill="#252525" />
<rect x="0.682222222222222" y="4.745555555555554" width="0.6722222222222219" height="0.6722222222222219" fill="#252525" />
<rect x="1.3594444444444438" y="4.745555555555554" width="0.6722222222222219" height="0.6722222222222219" fill="#252525" />
<rect x="2.0366666666666657" y="4.745555555555554" width="0.6722222222222219" height="0.6722222222222219" fill="#252525" />
<rect x="2.7138888888888877" y="4.745555555555554" width="0.6722222222222219" height="0.6722222222222219" fill="#252525" />
<rect x="3.3911111111111096" y="4.745555555555554" width="0.6722222222222219" height="0.6722222222222219" fill="#252525" />
<rect x="4.068333333333332" y="4.745555555555554" width="0.6722222222222219" height="0.6722222222222219" fill="#252525" />
<rect x="4.745555555555554" y="4.745555555555554" width="0.6722222222222219" height="0.6722222222222219" fill="#252525" />
<rect x="5.4227777777777755" y="4.745555555555554" width="0.6722222222222219" height="0.6722222222222219" fill="#252525" />
<rect x="-0.02666666666666667" y="-0.02666666666666667" width="6.148333333333331" height="5.471111111111109" fill="none" stroke="#111111ff" stroke-width="0.08" />
<text x="6.094999999999997" y="5.886527777777776" font-size="0.375" fill="black" text-anchor="end" font-family="Anuphan">9x8</text>
<text x="-0.037500000000000006" y="5.886527777777776" font-size="0.375" fill="black" text-anchor="start" font-family="Anuphan" font-weight="600">Input 2</text>
</g>
<g id="d2">
<rect x="0.005" y="0.005" width="0.5365000000000012" height="0.5365000000000012" fill="#252525" />
<rect x="0.5465000000000012" y="0.005" width="0.5365000000000012" height="0.5365000000000012" fill="#252525" />
<rect x="1.0880000000000023" y="0.005" width="0.5365000000000012" height="0.5365000000000012" fill="#252525" />
<rect x="1.6295000000000035" y="0.005" width="0.5365000000000012" height="0.5365000000000012" fill="#252525" />
<rect x="2.1710000000000047" y="0.005" width="0.5365000000000012" height="0.5365000000000012" fill="#252525" />
<rect x="2.7125000000000057" y="0.005" width="0.5365000000000012" height="0.5365000000000012" fill="#252525" />
<rect x="3.254000000000007" y="0.005" width="0.5365000000000012" height="0.5365000000000012" fill="#252525" />
<rect x="3.7955000000000085" y="0.005" width="0.5365000000000012" height="0.5365000000000012" fill="#252525" />
<rect x="4.3370000000000095" y="0.005" width="0.5365000000000012" height="0.5365000000000012" fill="#252525" />
<rect x="4.8785000000000105" y="0.005" width="0.5365000000000012" height="0.5365000000000012" fill="#252525" />
<rect x="0.005" y="0.5465000000000012" width="0.5365000000000012" height="0.5365000000000012" fill="#252525" />
<rect x="0.5465000000000012" y="0.5465000000000012" width="0.5365000000000012" height="0.5365000000000012" fill="#FFDC00" />
<rect x="1.0880000000000023" y="0.5465000000000012" width="0.5365000000000012" height="0.5365000000000012" fill="#FFDC00" />
<rect x="1.6295000000000035" y="0.5465000000000012" width="0.5365000000000012" height="0.5365000000000012" fill="#FFDC00" />
<rect x="2.1710000000000047" y="0.5465000000000012" width="0.5365000000000012" height="0.5365000000000012" fill="#FFDC00" />
<rect x="2.7125000000000057" y="0.5465000000000012" width="0.5365000000000012" height="0.5365000000000012" fill="#FFDC00" />
<rect x="3.254000000000007" y="0.5465000000000012" width="0.5365000000000012" height="0.5365000000000012" fill="#FFDC00" />
<rect x="3.7955000000000085" y="0.5465000000000012" width="0.5365000000000012" height="0.5365000000000012" fill="#252525" />
<rect x="4.3370000000000095" y="0.5465000000000012" width="0.5365000000000012" height="0.5365000000000012" fill="#252525" />
<rect x="4.8785000000000105" y="0.5465000000000012" width="0.5365000000000012" height="0.5365000000000012" fill="#252525" />
<rect x="0.005" y="1.0880000000000023" width="0.5365000000000012" height="0.5365000000000012" fill="#252525" />
<rect x="0.5465000000000012" y="1.0880000000000023" width="0.5365000000000012" height="0.5365000000000012" fill="#FFDC00" />
<rect x="1.0880000000000023" y="1.0880000000000023" width="0.5365000000000012" height="0.5365000000000012" fill="#252525" />
<rect x="1.6295000000000035" y="1.0880000000000023" width="0.5365000000000012" height="0.5365000000000012" fill="#252525" />
<rect x="2.1710000000000047" y="1.0880000000000023" width="0.5365000000000012" height="0.5365000000000012" fill="#252525" />
<rect x="2.7125000000000057" y="1.0880000000000023" width="0.5365000000000012" height="0.5365000000000012" fill="#252525" />
<rect x="3.254000000000007" y="1.0880000000000023" width="0.5365000000000012" height="0.5365000000000012" fill="#252525" />
<rect x="3.7955000000000085" y="1.0880000000000023" width="0.5365000000000012" height="0.5365000000000012" fill="#FFDC00" />
<rect x="4.3370000000000095" y="1.0880000000000023" width="0.5365000000000012" height="0.5365000000000012" fill="#252525" />
<rect x="4.8785000000000105" y="1.0880000000000023" width="0.5365000000000012" height="0.5365000000000012" fill="#252525" />
<rect x="0.005" y="1.6295000000000035" width="0.5365000000000012" height="0.5365000000000012" fill="#252525" />
<rect x="0.5465000000000012" y="1.6295000000000035" width="0.5365000000000012" height="0.5365000000000012" fill="#252525" />
<rect x="1.0880000000000023" y="1.6295000000000035" width="0.5365000000000012" height="0.5365000000000012" fill="#FFDC00" />
<rect x="1.6295000000000035" y="1.6295000000000035" width="0.5365000000000012" height="0.5365000000000012" fill="#252525" />
<rect x="2.1710000000000047" y="1.6295000000000035" width="0.5365000000000012" height="0.5365000000000012" fill="#252525" />
<rect x="2.7125000000000057" y="1.6295000000000035" width="0.5365000000000012" height="0.5365000000000012" fill="#252525" />
<rect x="3.254000000000007" y="1.6295000000000035" width="0.5365000000000012" height="0.5365000000000012" fill="#252525" />
<rect x="3.7955000000000085" y="1.6295000000000035" width="0.5365000000000012" height="0.5365000000000012" fill="#252525" />
<rect x="4.3370000000000095" y="1.6295000000000035" width="0.5365000000000012" height="0.5365000000000012" fill="#FFDC00" />
<rect x="4.8785000000000105" y="1.6295000000000035" width="0.5365000000000012" height="0.5365000000000012" fill="#252525" />
<rect x="0.005" y="2.1710000000000047" width="0.5365000000000012" height="0.5365000000000012" fill="#252525" />
<rect x="0.5465000000000012" y="2.1710000000000047" width="0.5365000000000012" height="0.5365000000000012" fill="#252525" />
<rect x="1.0880000000000023" y="2.1710000000000047" width="0.5365000000000012" height="0.5365000000000012" fill="#252525" />
<rect x="1.6295000000000035" y="2.1710000000000047" width="0.5365000000000012" height="0.5365000000000012" fill="#FFDC00" />
<rect x="2.1710000000000047" y="2.1710000000000047" width="0.5365000000000012" height="0.5365000000000012" fill="#252525" />
<rect x="2.7125000000000057" y="2.1710000000000047" width="0.5365000000000012" height="0.5365000000000012" fill="#252525" />
<rect x="3.254000000000007" y="2.1710000000000047" width="0.5365000000000012" height="0.5365000000000012" fill="#252525" />
<rect x="3.7955000000000085" y="2.1710000000000047" width="0.5365000000000012" height="0.5365000000000012" fill="#252525" />
<rect x="4.3370000000000095" y="2.1710000000000047" width="0.5365000000000012" height="0.5365000000000012" fill="#252525" />
<rect x="4.8785000000000105" y="2.1710000000000047" width="0.5365000000000012" height="0.5365000000000012" fill="#FFDC00" />
<rect x="0.005" y="2.7125000000000057" width="0.5365000000000012" height="0.5365000000000012" fill="#252525" />
<rect x="0.5465000000000012" y="2.7125000000000057" width="0.5365000000000012" height="0.5365000000000012" fill="#252525" />
<rect x="1.0880000000000023" y="2.7125000000000057" width="0.5365000000000012" height="0.5365000000000012" fill="#252525" />
<rect x="1.6295000000000035" y="2.7125000000000057" width="0.5365000000000012" height="0.5365000000000012" fill="#252525" />
<rect x="2.1710000000000047" y="2.7125000000000057" width="0.5365000000000012" height="0.5365000000000012" fill="#FFDC00" />
<rect x="2.7125000000000057" y="2.7125000000000057" width="0.5365000000000012" height="0.5365000000000012" fill="#FFDC00" />
<rect x="3.254000000000007" y="2.7125000000000057" width="0.5365000000000012" height="0.5365000000000012" fill="#FFDC00" />
<rect x="3.7955000000000085" y="2.7125000000000057" width="0.5365000000000012" height="0.5365000000000012" fill="#FFDC00" />
<rect x="4.3370000000000095" y="2.7125000000000057" width="0.5365000000000012" height="0.5365000000000012" fill="#FFDC00" />
<rect x="4.8785000000000105" y="2.7125000000000057" width="0.5365000000000012" height="0.5365000000000012" fill="#FFDC00" />
<rect x="0.005" y="3.254000000000007" width="0.5365000000000012" height="0.5365000000000012" fill="#252525" />
<rect x="0.5465000000000012" y="3.254000000000007" width="0.5365000000000012" height="0.5365000000000012" fill="#252525" />
<rect x="1.0880000000000023" y="3.254000000000007" width="0.5365000000000012" height="0.5365000000000012" fill="#252525" />
<rect x="1.6295000000000035" y="3.254000000000007" width="0.5365000000000012" height="0.5365000000000012" fill="#252525" />
<rect x="2.1710000000000047" y="3.254000000000007" width="0.5365000000000012" height="0.5365000000000012" fill="#252525" />
<rect x="2.7125000000000057" y="3.254000000000007" width="0.5365000000000012" height="0.5365000000000012" fill="#252525" />
<rect x="3.254000000000007" y="3.254000000000007" width="0.5365000000000012" height="0.5365000000000012" fill="#252525" />
<rect x="3.7955000000000085" y="3.254000000000007" width="0.5365000000000012" height="0.5365000000000012" fill="#252525" />
<rect x="4.3370000000000095" y="3.254000000000007" width="0.5365000000000012" height="0.5365000000000012" fill="#252525" />
<rect x="4.8785000000000105" y="3.254000000000007" width="0.5365000000000012" height="0.5365000000000012" fill="#252525" />
<rect x="0.005" y="3.7955000000000085" width="0.5365000000000012" height="0.5365000000000012" fill="#252525" />
<rect x="0.5465000000000012" y="3.7955000000000085" width="0.5365000000000012" height="0.5365000000000012" fill="#252525" />
<rect x="1.0880000000000023" y="3.7955000000000085" width="0.5365000000000012" height="0.5365000000000012" fill="#252525" />
<rect x="1.6295000000000035" y="3.7955000000000085" width="0.5365000000000012" height="0.5365000000000012" fill="#252525" />
<rect x="2.1710000000000047" y="3.7955000000000085" width="0.5365000000000012" height="0.5365000000000012" fill="#252525" />
<rect x="2.7125000000000057" y="3.7955000000000085" width="0.5365000000000012" height="0.5365000000000012" fill="#252525" />
<rect x="3.254000000000007" y="3.7955000000000085" width="0.5365000000000012" height="0.5365000000000012" fill="#252525" />
<rect x="3.7955000000000085" y="3.7955000000000085" width="0.5365000000000012" height="0.5365000000000012" fill="#252525" />
<rect x="4.3370000000000095" y="3.7955000000000085" width="0.5365000000000012" height="0.5365000000000012" fill="#252525" />
<rect x="4.8785000000000105" y="3.7955000000000085" width="0.5365000000000012" height="0.5365000000000012" fill="#252525" />
<rect x="0.005" y="4.3370000000000095" width="0.5365000000000012" height="0.5365000000000012" fill="#252525" />
<rect x="0.5465000000000012" y="4.3370000000000095" width="0.5365000000000012" height="0.5365000000000012" fill="#252525" />
<rect x="1.0880000000000023" y="4.3370000000000095" width="0.5365000000000012" height="0.5365000000000012" fill="#252525" />
<rect x="1.6295000000000035" y="4.3370000000000095" width="0.5365000000000012" height="0.5365000000000012" fill="#252525" />
<rect x="2.1710000000000047" y="4.3370000000000095" width="0.5365000000000012" height="0.5365000000000012" fill="#252525" />
<rect x="2.7125000000000057" y="4.3370000000000095" width="0.5365000000000012" height="0.5365000000000012" fill="#252525" />
<rect x="3.254000000000007" y="4.3370000000000095" width="0.5365000000000012" height="0.5365000000000012" fill="#252525" />
<rect x="3.7955000000000085" y="4.3370000000000095" width="0.5365000000000012" height="0.5365000000000012" fill="#252525" />
<rect x="4.3370000000000095" y="4.3370000000000095" width="0.5365000000000012" height="0.5365000000000012" fill="#252525" />
<rect x="4.8785000000000105" y="4.3370000000000095" width="0.5365000000000012" height="0.5365000000000012" fill="#252525" />
<rect x="0.005" y="4.8785000000000105" width="0.5365000000000012" height="0.5365000000000012" fill="#252525" />
<rect x="0.5465000000000012" y="4.8785000000000105" width="0.5365000000000012" height="0.5365000000000012" fill="#252525" />
<rect x="1.0880000000000023" y="4.8785000000000105" width="0.5365000000000012" height="0.5365000000000012" fill="#252525" />
<rect x="1.6295000000000035" y="4.8785000000000105" width="0.5365000000000012" height="0.5365000000000012" fill="#252525" />
<rect x="2.1710000000000047" y="4.8785000000000105" width="0.5365000000000012" height="0.5365000000000012" fill="#252525" />
<rect x="2.7125000000000057" y="4.8785000000000105" width="0.5365000000000012" height="0.5365000000000012" fill="#252525" />
<rect x="3.254000000000007" y="4.8785000000000105" width="0.5365000000000012" height="0.5365000000000012" fill="#252525" />
<rect x="3.7955000000000085" y="4.8785000000000105" width="0.5365000000000012" height="0.5365000000000012" fill="#252525" />
<rect x="4.3370000000000095" y="4.8785000000000105" width="0.5365000000000012" height="0.5365000000000012" fill="#252525" />
<rect x="4.8785000000000105" y="4.8785000000000105" width="0.5365000000000012" height="0.5365000000000012" fill="#252525" />
<rect x="-0.02666666666666667" y="-0.02666666666666667" width="5.468333333333345" height="5.468333333333345" fill="none" stroke="#111111ff" stroke-width="0.08" />
<text x="5.415000000000012" y="5.883750000000012" font-size="0.375" fill="black" text-anchor="end" font-family="Anuphan">10x10</text>
<text x="-0.037500000000000006" y="5.883750000000012" font-size="0.375" fill="black" text-anchor="start" font-family="Anuphan" font-weight="600">Test 1</text>
</g>
<g id="d3">
<rect x="0.005" y="0.005" width="0.3816666666666726" height="0.3816666666666726" fill="#252525" />
<rect x="0.3916666666666726" y="0.005" width="0.3816666666666726" height="0.3816666666666726" fill="#252525" />
<rect x="0.7783333333333452" y="0.005" width="0.3816666666666726" height="0.3816666666666726" fill="#252525" />
<rect x="1.1650000000000178" y="0.005" width="0.3816666666666726" height="0.3816666666666726" fill="#252525" />
<rect x="1.5516666666666903" y="0.005" width="0.3816666666666726" height="0.3816666666666726" fill="#252525" />
<rect x="1.9383333333333628" y="0.005" width="0.3816666666666726" height="0.3816666666666726" fill="#252525" />
<rect x="2.3250000000000357" y="0.005" width="0.3816666666666726" height="0.3816666666666726" fill="#252525" />
<rect x="2.711666666666708" y="0.005" width="0.3816666666666726" height="0.3816666666666726" fill="#252525" />
<rect x="3.0983333333333807" y="0.005" width="0.3816666666666726" height="0.3816666666666726" fill="#252525" />
<rect x="0.005" y="0.3916666666666726" width="0.3816666666666726" height="0.3816666666666726" fill="#252525" />
<rect x="0.3916666666666726" y="0.3916666666666726" width="0.3816666666666726" height="0.3816666666666726" fill="#252525" />
<rect x="0.7783333333333452" y="0.3916666666666726" width="0.3816666666666726" height="0.3816666666666726" fill="#F012BE" />
<rect x="1.1650000000000178" y="0.3916666666666726" width="0.3816666666666726" height="0.3816666666666726" fill="#F012BE" />
<rect x="1.5516666666666903" y="0.3916666666666726" width="0.3816666666666726" height="0.3816666666666726" fill="#F012BE" />
<rect x="1.9383333333333628" y="0.3916666666666726" width="0.3816666666666726" height="0.3816666666666726" fill="#252525" />
<rect x="2.3250000000000357" y="0.3916666666666726" width="0.3816666666666726" height="0.3816666666666726" fill="#252525" />
<rect x="2.711666666666708" y="0.3916666666666726" width="0.3816666666666726" height="0.3816666666666726" fill="#252525" />
<rect x="3.0983333333333807" y="0.3916666666666726" width="0.3816666666666726" height="0.3816666666666726" fill="#252525" />
<rect x="0.005" y="0.7783333333333452" width="0.3816666666666726" height="0.3816666666666726" fill="#252525" />
<rect x="0.3916666666666726" y="0.7783333333333452" width="0.3816666666666726" height="0.3816666666666726" fill="#252525" />
<rect x="0.7783333333333452" y="0.7783333333333452" width="0.3816666666666726" height="0.3816666666666726" fill="#F012BE" />
<rect x="1.1650000000000178" y="0.7783333333333452" width="0.3816666666666726" height="0.3816666666666726" fill="#252525" />
<rect x="1.5516666666666903" y="0.7783333333333452" width="0.3816666666666726" height="0.3816666666666726" fill="#252525" />
<rect x="1.9383333333333628" y="0.7783333333333452" width="0.3816666666666726" height="0.3816666666666726" fill="#F012BE" />
<rect x="2.3250000000000357" y="0.7783333333333452" width="0.3816666666666726" height="0.3816666666666726" fill="#252525" />
<rect x="2.711666666666708" y="0.7783333333333452" width="0.3816666666666726" height="0.3816666666666726" fill="#252525" />
<rect x="3.0983333333333807" y="0.7783333333333452" width="0.3816666666666726" height="0.3816666666666726" fill="#252525" />
<rect x="0.005" y="1.1650000000000178" width="0.3816666666666726" height="0.3816666666666726" fill="#252525" />
<rect x="0.3916666666666726" y="1.1650000000000178" width="0.3816666666666726" height="0.3816666666666726" fill="#252525" />
<rect x="0.7783333333333452" y="1.1650000000000178" width="0.3816666666666726" height="0.3816666666666726" fill="#252525" />
<rect x="1.1650000000000178" y="1.1650000000000178" width="0.3816666666666726" height="0.3816666666666726" fill="#F012BE" />
<rect x="1.5516666666666903" y="1.1650000000000178" width="0.3816666666666726" height="0.3816666666666726" fill="#252525" />
<rect x="1.9383333333333628" y="1.1650000000000178" width="0.3816666666666726" height="0.3816666666666726" fill="#252525" />
<rect x="2.3250000000000357" y="1.1650000000000178" width="0.3816666666666726" height="0.3816666666666726" fill="#F012BE" />
<rect x="2.711666666666708" y="1.1650000000000178" width="0.3816666666666726" height="0.3816666666666726" fill="#252525" />
<rect x="3.0983333333333807" y="1.1650000000000178" width="0.3816666666666726" height="0.3816666666666726" fill="#252525" />
<rect x="0.005" y="1.5516666666666903" width="0.3816666666666726" height="0.3816666666666726" fill="#252525" />
<rect x="0.3916666666666726" y="1.5516666666666903" width="0.3816666666666726" height="0.3816666666666726" fill="#252525" />
<rect x="0.7783333333333452" y="1.5516666666666903" width="0.3816666666666726" height="0.3816666666666726" fill="#252525" />
<rect x="1.1650000000000178" y="1.5516666666666903" width="0.3816666666666726" height="0.3816666666666726" fill="#252525" />
<rect x="1.5516666666666903" y="1.5516666666666903" width="0.3816666666666726" height="0.3816666666666726" fill="#F012BE" />
<rect x="1.9383333333333628" y="1.5516666666666903" width="0.3816666666666726" height="0.3816666666666726" fill="#252525" />
<rect x="2.3250000000000357" y="1.5516666666666903" width="0.3816666666666726" height="0.3816666666666726" fill="#F012BE" />
<rect x="2.711666666666708" y="1.5516666666666903" width="0.3816666666666726" height="0.3816666666666726" fill="#252525" />
<rect x="3.0983333333333807" y="1.5516666666666903" width="0.3816666666666726" height="0.3816666666666726" fill="#252525" />
<rect x="0.005" y="1.9383333333333628" width="0.3816666666666726" height="0.3816666666666726" fill="#252525" />
<rect x="0.3916666666666726" y="1.9383333333333628" width="0.3816666666666726" height="0.3816666666666726" fill="#252525" />
<rect x="0.7783333333333452" y="1.9383333333333628" width="0.3816666666666726" height="0.3816666666666726" fill="#252525" />
<rect x="1.1650000000000178" y="1.9383333333333628" width="0.3816666666666726" height="0.3816666666666726" fill="#252525" />
<rect x="1.5516666666666903" y="1.9383333333333628" width="0.3816666666666726" height="0.3816666666666726" fill="#F012BE" />
<rect x="1.9383333333333628" y="1.9383333333333628" width="0.3816666666666726" height="0.3816666666666726" fill="#F012BE" />
<rect x="2.3250000000000357" y="1.9383333333333628" width="0.3816666666666726" height="0.3816666666666726" fill="#F012BE" />
<rect x="2.711666666666708" y="1.9383333333333628" width="0.3816666666666726" height="0.3816666666666726" fill="#252525" />
<rect x="3.0983333333333807" y="1.9383333333333628" width="0.3816666666666726" height="0.3816666666666726" fill="#252525" />
<rect x="0.005" y="2.3250000000000357" width="0.3816666666666726" height="0.3816666666666726" fill="#252525" />
<rect x="0.3916666666666726" y="2.3250000000000357" width="0.3816666666666726" height="0.3816666666666726" fill="#252525" />
<rect x="0.7783333333333452" y="2.3250000000000357" width="0.3816666666666726" height="0.3816666666666726" fill="#252525" />
<rect x="1.1650000000000178" y="2.3250000000000357" width="0.3816666666666726" height="0.3816666666666726" fill="#252525" />
<rect x="1.5516666666666903" y="2.3250000000000357" width="0.3816666666666726" height="0.3816666666666726" fill="#252525" />
<rect x="1.9383333333333628" y="2.3250000000000357" width="0.3816666666666726" height="0.3816666666666726" fill="#252525" />
<rect x="2.3250000000000357" y="2.3250000000000357" width="0.3816666666666726" height="0.3816666666666726" fill="#252525" />
<rect x="2.711666666666708" y="2.3250000000000357" width="0.3816666666666726" height="0.3816666666666726" fill="#252525" />
<rect x="3.0983333333333807" y="2.3250000000000357" width="0.3816666666666726" height="0.3816666666666726" fill="#252525" />
<rect x="0.005" y="2.711666666666708" width="0.3816666666666726" height="0.3816666666666726" fill="#252525" />
<rect x="0.3916666666666726" y="2.711666666666708" width="0.3816666666666726" height="0.3816666666666726" fill="#252525" />
<rect x="0.7783333333333452" y="2.711666666666708" width="0.3816666666666726" height="0.3816666666666726" fill="#252525" />
<rect x="1.1650000000000178" y="2.711666666666708" width="0.3816666666666726" height="0.3816666666666726" fill="#FF4136" />
<rect x="1.5516666666666903" y="2.711666666666708" width="0.3816666666666726" height="0.3816666666666726" fill="#FF4136" />
<rect x="1.9383333333333628" y="2.711666666666708" width="0.3816666666666726" height="0.3816666666666726" fill="#FF4136" />
<rect x="2.3250000000000357" y="2.711666666666708" width="0.3816666666666726" height="0.3816666666666726" fill="#252525" />
<rect x="2.711666666666708" y="2.711666666666708" width="0.3816666666666726" height="0.3816666666666726" fill="#252525" />
<rect x="3.0983333333333807" y="2.711666666666708" width="0.3816666666666726" height="0.3816666666666726" fill="#252525" />
<rect x="0.005" y="3.0983333333333807" width="0.3816666666666726" height="0.3816666666666726" fill="#252525" />
<rect x="0.3916666666666726" y="3.0983333333333807" width="0.3816666666666726" height="0.3816666666666726" fill="#252525" />
<rect x="0.7783333333333452" y="3.0983333333333807" width="0.3816666666666726" height="0.3816666666666726" fill="#252525" />
<rect x="1.1650000000000178" y="3.0983333333333807" width="0.3816666666666726" height="0.3816666666666726" fill="#FF4136" />
<rect x="1.5516666666666903" y="3.0983333333333807" width="0.3816666666666726" height="0.3816666666666726" fill="#252525" />
<rect x="1.9383333333333628" y="3.0983333333333807" width="0.3816666666666726" height="0.3816666666666726" fill="#FF4136" />
<rect x="2.3250000000000357" y="3.0983333333333807" width="0.3816666666666726" height="0.3816666666666726" fill="#252525" />
<rect x="2.711666666666708" y="3.0983333333333807" width="0.3816666666666726" height="0.3816666666666726" fill="#252525" />
<rect x="3.0983333333333807" y="3.0983333333333807" width="0.3816666666666726" height="0.3816666666666726" fill="#252525" />
<rect x="0.005" y="3.485000000000053" width="0.3816666666666726" height="0.3816666666666726" fill="#252525" />
<rect x="0.3916666666666726" y="3.485000000000053" width="0.3816666666666726" height="0.3816666666666726" fill="#252525" />
<rect x="0.7783333333333452" y="3.485000000000053" width="0.3816666666666726" height="0.3816666666666726" fill="#252525" />
<rect x="1.1650000000000178" y="3.485000000000053" width="0.3816666666666726" height="0.3816666666666726" fill="#FF4136" />
<rect x="1.5516666666666903" y="3.485000000000053" width="0.3816666666666726" height="0.3816666666666726" fill="#FF4136" />
<rect x="1.9383333333333628" y="3.485000000000053" width="0.3816666666666726" height="0.3816666666666726" fill="#FF4136" />
<rect x="2.3250000000000357" y="3.485000000000053" width="0.3816666666666726" height="0.3816666666666726" fill="#252525" />
<rect x="2.711666666666708" y="3.485000000000053" width="0.3816666666666726" height="0.3816666666666726" fill="#252525" />
<rect x="3.0983333333333807" y="3.485000000000053" width="0.3816666666666726" height="0.3816666666666726" fill="#252525" />
<rect x="0.005" y="3.8716666666667257" width="0.3816666666666726" height="0.3816666666666726" fill="#252525" />
<rect x="0.3916666666666726" y="3.8716666666667257" width="0.3816666666666726" height="0.3816666666666726" fill="#252525" />
<rect x="0.7783333333333452" y="3.8716666666667257" width="0.3816666666666726" height="0.3816666666666726" fill="#252525" />
<rect x="1.1650000000000178" y="3.8716666666667257" width="0.3816666666666726" height="0.3816666666666726" fill="#252525" />
<rect x="1.5516666666666903" y="3.8716666666667257" width="0.3816666666666726" height="0.3816666666666726" fill="#252525" />
<rect x="1.9383333333333628" y="3.8716666666667257" width="0.3816666666666726" height="0.3816666666666726" fill="#252525" />
<rect x="2.3250000000000357" y="3.8716666666667257" width="0.3816666666666726" height="0.3816666666666726" fill="#252525" />
<rect x="2.711666666666708" y="3.8716666666667257" width="0.3816666666666726" height="0.3816666666666726" fill="#252525" />
<rect x="3.0983333333333807" y="3.8716666666667257" width="0.3816666666666726" height="0.3816666666666726" fill="#252525" />
<rect x="0.005" y="4.258333333333399" width="0.3816666666666726" height="0.3816666666666726" fill="#252525" />
<rect x="0.3916666666666726" y="4.258333333333399" width="0.3816666666666726" height="0.3816666666666726" fill="#252525" />
<rect x="0.7783333333333452" y="4.258333333333399" width="0.3816666666666726" height="0.3816666666666726" fill="#252525" />
<rect x="1.1650000000000178" y="4.258333333333399" width="0.3816666666666726" height="0.3816666666666726" fill="#252525" />
<rect x="1.5516666666666903" y="4.258333333333399" width="0.3816666666666726" height="0.3816666666666726" fill="#252525" />
<rect x="1.9383333333333628" y="4.258333333333399" width="0.3816666666666726" height="0.3816666666666726" fill="#252525" />
<rect x="2.3250000000000357" y="4.258333333333399" width="0.3816666666666726" height="0.3816666666666726" fill="#252525" />
<rect x="2.711666666666708" y="4.258333333333399" width="0.3816666666666726" height="0.3816666666666726" fill="#252525" />
<rect x="3.0983333333333807" y="4.258333333333399" width="0.3816666666666726" height="0.3816666666666726" fill="#252525" />
<rect x="0.005" y="4.6450000000000715" width="0.3816666666666726" height="0.3816666666666726" fill="#252525" />
<rect x="0.3916666666666726" y="4.6450000000000715" width="0.3816666666666726" height="0.3816666666666726" fill="#252525" />
<rect x="0.7783333333333452" y="4.6450000000000715" width="0.3816666666666726" height="0.3816666666666726" fill="#252525" />
<rect x="1.1650000000000178" y="4.6450000000000715" width="0.3816666666666726" height="0.3816666666666726" fill="#252525" />
<rect x="1.5516666666666903" y="4.6450000000000715" width="0.3816666666666726" height="0.3816666666666726" fill="#252525" />
<rect x="1.9383333333333628" y="4.6450000000000715" width="0.3816666666666726" height="0.3816666666666726" fill="#252525" />
<rect x="2.3250000000000357" y="4.6450000000000715" width="0.3816666666666726" height="0.3816666666666726" fill="#252525" />
<rect x="2.711666666666708" y="4.6450000000000715" width="0.3816666666666726" height="0.3816666666666726" fill="#252525" />
<rect x="3.0983333333333807" y="4.6450000000000715" width="0.3816666666666726" height="0.3816666666666726" fill="#252525" />
<rect x="0.005" y="5.031666666666744" width="0.3816666666666726" height="0.3816666666666726" fill="#252525" />
<rect x="0.3916666666666726" y="5.031666666666744" width="0.3816666666666726" height="0.3816666666666726" fill="#252525" />
<rect x="0.7783333333333452" y="5.031666666666744" width="0.3816666666666726" height="0.3816666666666726" fill="#252525" />
<rect x="1.1650000000000178" y="5.031666666666744" width="0.3816666666666726" height="0.3816666666666726" fill="#252525" />
<rect x="1.5516666666666903" y="5.031666666666744" width="0.3816666666666726" height="0.3816666666666726" fill="#252525" />
<rect x="1.9383333333333628" y="5.031666666666744" width="0.3816666666666726" height="0.3816666666666726" fill="#252525" />
<rect x="2.3250000000000357" y="5.031666666666744" width="0.3816666666666726" height="0.3816666666666726" fill="#252525" />
<rect x="2.711666666666708" y="5.031666666666744" width="0.3816666666666726" height="0.3816666666666726" fill="#252525" />
<rect x="3.0983333333333807" y="5.031666666666744" width="0.3816666666666726" height="0.3816666666666726" fill="#252525" />
<rect x="-0.02666666666666667" y="-0.02666666666666667" width="3.5333333333333865" height="5.46666666666675" fill="none" stroke="#111111ff" stroke-width="0.08" />
<text x="3.4800000000000533" y="5.882083333333417" font-size="0.375" fill="black" text-anchor="end" font-family="Anuphan">9x14</text>
<text x="-0.037500000000000006" y="5.882083333333417" font-size="0.375" fill="black" text-anchor="start" font-family="Anuphan" font-weight="600">Output 1</text>
</g>
<g id="d4">
<rect x="0.005" y="0.005" width="0.6722222222222219" height="0.6722222222222219" fill="#252525" />
<rect x="0.682222222222222" y="0.005" width="0.6722222222222219" height="0.6722222222222219" fill="#252525" />
<rect x="1.3594444444444438" y="0.005" width="0.6722222222222219" height="0.6722222222222219" fill="#252525" />
<rect x="2.0366666666666657" y="0.005" width="0.6722222222222219" height="0.6722222222222219" fill="#252525" />
<rect x="2.7138888888888877" y="0.005" width="0.6722222222222219" height="0.6722222222222219" fill="#252525" />
<rect x="3.3911111111111096" y="0.005" width="0.6722222222222219" height="0.6722222222222219" fill="#252525" />
<rect x="4.068333333333332" y="0.005" width="0.6722222222222219" height="0.6722222222222219" fill="#252525" />
<rect x="4.745555555555554" y="0.005" width="0.6722222222222219" height="0.6722222222222219" fill="#252525" />
<rect x="5.4227777777777755" y="0.005" width="0.6722222222222219" height="0.6722222222222219" fill="#252525" />
<rect x="0.005" y="0.682222222222222" width="0.6722222222222219" height="0.6722222222222219" fill="#252525" />
<rect x="0.682222222222222" y="0.682222222222222" width="0.6722222222222219" height="0.6722222222222219" fill="#252525" />
<rect x="1.3594444444444438" y="0.682222222222222" width="0.6722222222222219" height="0.6722222222222219" fill="#54D2EB" />
<rect x="2.0366666666666657" y="0.682222222222222" width="0.6722222222222219" height="0.6722222222222219" fill="#54D2EB" />
<rect x="2.7138888888888877" y="0.682222222222222" width="0.6722222222222219" height="0.6722222222222219" fill="#54D2EB" />
<rect x="3.3911111111111096" y="0.682222222222222" width="0.6722222222222219" height="0.6722222222222219" fill="#54D2EB" />
<rect x="4.068333333333332" y="0.682222222222222" width="0.6722222222222219" height="0.6722222222222219" fill="#54D2EB" />
<rect x="4.745555555555554" y="0.682222222222222" width="0.6722222222222219" height="0.6722222222222219" fill="#252525" />
<rect x="5.4227777777777755" y="0.682222222222222" width="0.6722222222222219" height="0.6722222222222219" fill="#252525" />
<rect x="0.005" y="1.3594444444444438" width="0.6722222222222219" height="0.6722222222222219" fill="#252525" />
<rect x="0.682222222222222" y="1.3594444444444438" width="0.6722222222222219" height="0.6722222222222219" fill="#252525" />
<rect x="1.3594444444444438" y="1.3594444444444438" width="0.6722222222222219" height="0.6722222222222219" fill="#54D2EB" />
<rect x="2.0366666666666657" y="1.3594444444444438" width="0.6722222222222219" height="0.6722222222222219" fill="#252525" />
<rect x="2.7138888888888877" y="1.3594444444444438" width="0.6722222222222219" height="0.6722222222222219" fill="#252525" />
<rect x="3.3911111111111096" y="1.3594444444444438" width="0.6722222222222219" height="0.6722222222222219" fill="#252525" />
<rect x="4.068333333333332" y="1.3594444444444438" width="0.6722222222222219" height="0.6722222222222219" fill="#252525" />
<rect x="4.745555555555554" y="1.3594444444444438" width="0.6722222222222219" height="0.6722222222222219" fill="#54D2EB" />
<rect x="5.4227777777777755" y="1.3594444444444438" width="0.6722222222222219" height="0.6722222222222219" fill="#252525" />
<rect x="0.005" y="2.0366666666666657" width="0.6722222222222219" height="0.6722222222222219" fill="#252525" />
<rect x="0.682222222222222" y="2.0366666666666657" width="0.6722222222222219" height="0.6722222222222219" fill="#252525" />
<rect x="1.3594444444444438" y="2.0366666666666657" width="0.6722222222222219" height="0.6722222222222219" fill="#252525" />
<rect x="2.0366666666666657" y="2.0366666666666657" width="0.6722222222222219" height="0.6722222222222219" fill="#54D2EB" />
<rect x="2.7138888888888877" y="2.0366666666666657" width="0.6722222222222219" height="0.6722222222222219" fill="#252525" />
<rect x="3.3911111111111096" y="2.0366666666666657" width="0.6722222222222219" height="0.6722222222222219" fill="#252525" />
<rect x="4.068333333333332" y="2.0366666666666657" width="0.6722222222222219" height="0.6722222222222219" fill="#252525" />
<rect x="4.745555555555554" y="2.0366666666666657" width="0.6722222222222219" height="0.6722222222222219" fill="#252525" />
<rect x="5.4227777777777755" y="2.0366666666666657" width="0.6722222222222219" height="0.6722222222222219" fill="#54D2EB" />
<rect x="0.005" y="2.7138888888888877" width="0.6722222222222219" height="0.6722222222222219" fill="#252525" />
<rect x="0.682222222222222" y="2.7138888888888877" width="0.6722222222222219" height="0.6722222222222219" fill="#252525" />
<rect x="1.3594444444444438" y="2.7138888888888877" width="0.6722222222222219" height="0.6722222222222219" fill="#252525" />
<rect x="2.0366666666666657" y="2.7138888888888877" width="0.6722222222222219" height="0.6722222222222219" fill="#252525" />
<rect x="2.7138888888888877" y="2.7138888888888877" width="0.6722222222222219" height="0.6722222222222219" fill="#54D2EB" />
<rect x="3.3911111111111096" y="2.7138888888888877" width="0.6722222222222219" height="0.6722222222222219" fill="#252525" />
<rect x="4.068333333333332" y="2.7138888888888877" width="0.6722222222222219" height="0.6722222222222219" fill="#252525" />
<rect x="4.745555555555554" y="2.7138888888888877" width="0.6722222222222219" height="0.6722222222222219" fill="#252525" />
<rect x="5.4227777777777755" y="2.7138888888888877" width="0.6722222222222219" height="0.6722222222222219" fill="#54D2EB" />
<rect x="0.005" y="3.3911111111111096" width="0.6722222222222219" height="0.6722222222222219" fill="#252525" />
<rect x="0.682222222222222" y="3.3911111111111096" width="0.6722222222222219" height="0.6722222222222219" fill="#252525" />
<rect x="1.3594444444444438" y="3.3911111111111096" width="0.6722222222222219" height="0.6722222222222219" fill="#252525" />
<rect x="2.0366666666666657" y="3.3911111111111096" width="0.6722222222222219" height="0.6722222222222219" fill="#252525" />
<rect x="2.7138888888888877" y="3.3911111111111096" width="0.6722222222222219" height="0.6722222222222219" fill="#54D2EB" />
<rect x="3.3911111111111096" y="3.3911111111111096" width="0.6722222222222219" height="0.6722222222222219" fill="#54D2EB" />
<rect x="4.068333333333332" y="3.3911111111111096" width="0.6722222222222219" height="0.6722222222222219" fill="#54D2EB" />
<rect x="4.745555555555554" y="3.3911111111111096" width="0.6722222222222219" height="0.6722222222222219" fill="#54D2EB" />
<rect x="5.4227777777777755" y="3.3911111111111096" width="0.6722222222222219" height="0.6722222222222219" fill="#54D2EB" />
<rect x="0.005" y="4.068333333333332" width="0.6722222222222219" height="0.6722222222222219" fill="#252525" />
<rect x="0.682222222222222" y="4.068333333333332" width="0.6722222222222219" height="0.6722222222222219" fill="#252525" />
<rect x="1.3594444444444438" y="4.068333333333332" width="0.6722222222222219" height="0.6722222222222219" fill="#252525" />
<rect x="2.0366666666666657" y="4.068333333333332" width="0.6722222222222219" height="0.6722222222222219" fill="#252525" />
<rect x="2.7138888888888877" y="4.068333333333332" width="0.6722222222222219" height="0.6722222222222219" fill="#252525" />
<rect x="3.3911111111111096" y="4.068333333333332" width="0.6722222222222219" height="0.6722222222222219" fill="#252525" />
<rect x="4.068333333333332" y="4.068333333333332" width="0.6722222222222219" height="0.6722222222222219" fill="#252525" />
<rect x="4.745555555555554" y="4.068333333333332" width="0.6722222222222219" height="0.6722222222222219" fill="#252525" />
<rect x="5.4227777777777755" y="4.068333333333332" width="0.6722222222222219" height="0.6722222222222219" fill="#252525" />
<rect x="0.005" y="4.745555555555554" width="0.6722222222222219" height="0.6722222222222219" fill="#252525" />
<rect x="0.682222222222222" y="4.745555555555554" width="0.6722222222222219" height="0.6722222222222219" fill="#252525" />
<rect x="1.3594444444444438" y="4.745555555555554" width="0.6722222222222219" height="0.6722222222222219" fill="#252525" />
<rect x="2.0366666666666657" y="4.745555555555554" width="0.6722222222222219" height="0.6722222222222219" fill="#252525" />
<rect x="2.7138888888888877" y="4.745555555555554" width="0.6722222222222219" height="0.6722222222222219" fill="#252525" />
<rect x="3.3911111111111096" y="4.745555555555554" width="0.6722222222222219" height="0.6722222222222219" fill="#252525" />
<rect x="4.068333333333332" y="4.745555555555554" width="0.6722222222222219" height="0.6722222222222219" fill="#252525" />
<rect x="4.745555555555554" y="4.745555555555554" width="0.6722222222222219" height="0.6722222222222219" fill="#252525" />
<rect x="5.4227777777777755" y="4.745555555555554" width="0.6722222222222219" height="0.6722222222222219" fill="#252525" />
<rect x="-0.02666666666666667" y="-0.02666666666666667" width="6.148333333333331" height="5.471111111111109" fill="none" stroke="#111111ff" stroke-width="0.08" />
<text x="6.094999999999997" y="5.886527777777776" font-size="0.375" fill="black" text-anchor="end" font-family="Anuphan">9x8</text>
<text x="-0.037500000000000006" y="5.886527777777776" font-size="0.375" fill="black" text-anchor="start" font-family="Anuphan" font-weight="600">Output 2</text>
</g>
</defs>
<rect x="0" y="0" width="100%" height="100%" fill="#eeeff6" />
<use xlink:href="#d0" x="0.25" y="0.25" />
<use xlink:href="#d1" x="4.230000000000054" y="0.25" />
<use xlink:href="#d2" x="10.82500000000005" y="0.25" />
<path d="M1.9900000000000266,6.317777777777776 L1.9900000000000266,6.717777777777776" stroke-width="0.05" stroke="#888888" />
<path d="M1.8400000000000267,6.517777777777776 L1.9900000000000266,6.717777777777776" stroke-width="0.05" stroke="#888888" />
<path d="M2.1400000000000268,6.517777777777776 L1.9900000000000266,6.717777777777776" stroke-width="0.05" stroke="#888888" />
<use xlink:href="#d3" x="0.25" y="7.067777777777776" />
<path d="M7.277500000000051,6.317777777777776 L7.277500000000051,6.717777777777776" stroke-width="0.05" stroke="#888888" />
<path d="M7.127500000000051,6.517777777777776 L7.277500000000051,6.717777777777776" stroke-width="0.05" stroke="#888888" />
<path d="M7.427500000000052,6.517777777777776 L7.277500000000051,6.717777777777776" stroke-width="0.05" stroke="#888888" />
<use xlink:href="#d4" x="4.230000000000054" y="7.067777777777776" />
<path d="M13.532500000000056,6.317777777777776 L13.532500000000056,6.717777777777776" stroke-width="0.05" stroke="#888888" />
<path d="M13.382500000000055,6.517777777777776 L13.532500000000056,6.717777777777776" stroke-width="0.05" stroke="#888888" />
<path d="M13.682500000000056,6.517777777777776 L13.532500000000056,6.717777777777776" stroke-width="0.05" stroke="#888888" />
<text x="13.532500000000057" y="9.875277777777782" font-size="1" font-family="Anuphan" font-weight="700" fill="#333333" text-anchor="middle" alignment-baseline="middle">?</text>
<text x="16.4" y="13.299999999999999" font-size="0.3" font-family="Anuphan" font-weight="600" fill="#666666" text-anchor="end" alignment-baseline="bottom">Task 025d127b</text>
</svg>