<?xml version="1.0" encoding="UTF-8"?>
<svg xmlns="http://www.w3.org/2000/svg" xmlns:xlink="http://www.w3.org/1999/xlink"
     width="800.0" height="248.0" viewBox="0 0 20.0 6.2">
<defs>
<g id="d0">
<rect x="0.005" y="0.005" width="0.19726190476190053" height="0.19726190476190053" fill="#252525" />
<rect x="0.20726190476190054" y="0.005" width="0.19726190476190053" height="0.19726190476190053" fill="#FFDC00" />
<rect x="0.4095238095238011" y="0.005" width="0.19726190476190053" height="0.19726190476190053" fill="#252525" />
<rect x="0.6117857142857016" y="0.005" width="0.19726190476190053" height="0.19726190476190053" fill="#FFDC00" />
<rect x="0.8140476190476021" y="0.005" width="0.19726190476190053" height="0.19726190476190053" fill="#FF4136" />
<rect x="1.0163095238095026" y="0.005" width="0.19726190476190053" height="0.19726190476190053" fill="#8D1D2C" />
<rect x="1.218571428571403" y="0.005" width="0.19726190476190053" height="0.19726190476190053" fill="#8D1D2C" />
<rect x="1.4208333333333036" y="0.005" width="0.19726190476190053" height="0.19726190476190053" fill="#252525" />
<rect x="1.6230952380952042" y="0.005" width="0.19726190476190053" height="0.19726190476190053" fill="#252525" />
<rect x="1.8253571428571047" y="0.005" width="0.19726190476190053" height="0.19726190476190053" fill="#FF4136" />
<rect x="2.0276190476190052" y="0.005" width="0.19726190476190053" height="0.19726190476190053" fill="#252525" />
<rect x="2.229880952380906" y="0.005" width="0.19726190476190053" height="0.19726190476190053" fill="#252525" />
<rect x="2.4321428571428063" y="0.005" width="0.19726190476190053" height="0.19726190476190053" fill="#252525" />
<rect x="2.634404761904707" y="0.005" width="0.19726190476190053" height="0.19726190476190053" fill="#252525" />
<rect x="0.005" y="0.20726190476190054" width="0.19726190476190053" height="0.19726190476190053" fill="#252525" />
<rect x="0.20726190476190054" y="0.20726190476190054" width="0.19726190476190053" height="0.19726190476190053" fill="#FFDC00" />
<rect x="0.4095238095238011" y="0.20726190476190054" width="0.19726190476190053" height="0.19726190476190053" fill="#252525" />
<rect x="0.6117857142857016" y="0.20726190476190054" width="0.19726190476190053" height="0.19726190476190053" fill="#252525" />
<rect x="0.8140476190476021" y="0.20726190476190054" width="0.19726190476190053" height="0.19726190476190053" fill="#FF4136" />
<rect x="1.0163095238095026" y="0.20726190476190054" width="0.19726190476190053" height="0.19726190476190053" fill="#252525" />
<rect x="1.218571428571403" y="0.20726190476190054" width="0.19726190476190053" height="0.19726190476190053" fill="#252525" />
<rect x="1.4208333333333036" y="0.20726190476190054" width="0.19726190476190053" height="0.19726190476190053" fill="#8D1D2C" />
<rect x="1.6230952380952042" y="0.20726190476190054" width="0.19726190476190053" height="0.19726190476190053" fill="#8D1D2C" />
<rect x="1.8253571428571047" y="0.20726190476190054" width="0.19726190476190053" height="0.19726190476190053" fill="#FF4136" />
<rect x="2.0276190476190052" y="0.20726190476190054" width="0.19726190476190053" height="0.19726190476190053" fill="#252525" />
<rect x="2.229880952380906" y="0.20726190476190054" width="0.19726190476190053" height="0.19726190476190053" fill="#0074D9" />
<rect x="2.4321428571428063" y="0.20726190476190054" width="0.19726190476190053" height="0.19726190476190053" fill="#252525" />
<rect x="2.634404761904707" y="0.20726190476190054" width="0.19726190476190053" height="0.19726190476190053" fill="#252525" />
<rect x="0.005" y="0.4095238095238011" width="0.19726190476190053" height="0.19726190476190053" fill="#FFDC00" />
<rect x="0.20726190476190054" y="0.4095238095238011" width="0.19726190476190053" height="0.19726190476190053" fill="#252525" />
<rect x="0.4095238095238011" y="0.4095238095238011" width="0.19726190476190053" height="0.19726190476190053" fill="#252525" />
<rect x="0.6117857142857016" y="0.4095238095238011" width="0.19726190476190053" height="0.19726190476190053" fill="#252525" />
<rect x="0.8140476190476021" y="0.4095238095238011" width="0.19726190476190053" height="0.19726190476190053" fill="#FF4136" />
<rect x="1.0163095238095026" y="0.4095238095238011" width="0.19726190476190053" height="0.19726190476190053" fill="#252525" />
<rect x="1.218571428571403" y="0.4095238095238011" width="0.19726190476190053" height="0.19726190476190053" fill="#252525" />
<rect x="1.4208333333333036" y="0.4095238095238011" width="0.19726190476190053" height="0.19726190476190053" fill="#252525" />
<rect x="1.6230952380952042" y="0.4095238095238011" width="0.19726190476190053" height="0.19726190476190053" fill="#252525" />
<rect x="1.8253571428571047" y="0.4095238095238011" width="0.19726190476190053" height="0.19726190476190053" fill="#FF4136" />
<rect x="2.0276190476190052" y="0.4095238095238011" width="0.19726190476190053" height="0.19726190476190053" fill="#0074D9" />
<rect x="2.229880952380906" y="0.4095238095238011" width="0.19726190476190053" height="0.19726190476190053" fill="#0074D9" />
<rect x="2.4321428571428063" y="0.4095238095238011" width="0.19726190476190053" height="0.19726190476190053" fill="#0074D9" />
<rect x="2.634404761904707" y="0.4095238095238011" width="0.19726190476190053" height="0.19726190476190053" fill="#252525" />
<rect x="0.005" y="0.6117857142857016" width="0.19726190476190053" height="0.19726190476190053" fill="#FFDC00" />
<rect x="0.20726190476190054" y="0.6117857142857016" width="0.19726190476190053" height="0.19726190476190053" fill="#FFDC00" />
<rect x="0.4095238095238011" y="0.6117857142857016" width="0.19726190476190053" height="0.19726190476190053" fill="#FFDC00" />
<rect x="0.6117857142857016" y="0.6117857142857016" width="0.19726190476190053" height="0.19726190476190053" fill="#FFDC00" />
<rect x="0.8140476190476021" y="0.6117857142857016" width="0.19726190476190053" height="0.19726190476190053" fill="#FF4136" />
<rect x="1.0163095238095026" y="0.6117857142857016" width="0.19726190476190053" height="0.19726190476190053" fill="#8D1D2C" />
<rect x="1.218571428571403" y="0.6117857142857016" width="0.19726190476190053" height="0.19726190476190053" fill="#252525" />
<rect x="1.4208333333333036" y="0.6117857142857016" width="0.19726190476190053" height="0.19726190476190053" fill="#8D1D2C" />
<rect x="1.6230952380952042" y="0.6117857142857016" width="0.19726190476190053" height="0.19726190476190053" fill="#252525" />
<rect x="1.8253571428571047" y="0.6117857142857016" width="0.19726190476190053" height="0.19726190476190053" fill="#FF4136" />
<rect x="2.0276190476190052" y="0.6117857142857016" width="0.19726190476190053" height="0.19726190476190053" fill="#0074D9" />
<rect x="2.229880952380906" y="0.6117857142857016" width="0.19726190476190053" height="0.19726190476190053" fill="#0074D9" />
<rect x="2.4321428571428063" y="0.6117857142857016" width="0.19726190476190053" height="0.19726190476190053" fill="#252525" />
<rect x="2.634404761904707" y="0.6117857142857016" width="0.19726190476190053" height="0.19726190476190053" fill="#0074D9" />
<rect x="-0.02666666666666667" y="-0.02666666666666667" width="2.8849999999999407" height="0.8623809523809355" fill="none" stroke="#111111ff" stroke-width="0.08" />
<text x="2.8316666666666075" y="1.2777976190476021" font-size="0.375" fill="black" text-anchor="end" font-family="Anuphan">14x4</text>
<text x="-0.037500000000000006" y="1.2777976190476021" font-size="0.375" fill="black" text-anchor="start" font-family="Anuphan" font-weight="600">Input 1</text>
</g>
<g id="d1">
<rect x="0.005" y="0.005" width="0.19726190476190053" height="0.19726190476190053" fill="#FFDC00" />
<rect x="0.20726190476190054" y="0.005" width="0.19726190476190053" height="0.19726190476190053" fill="#FFDC00" />
<rect x="0.4095238095238011" y="0.005" width="0.19726190476190053" height="0.19726190476190053" fill="#FFDC00" />
<rect x="0.6117857142857016" y="0.005" width="0.19726190476190053" height="0.19726190476190053" fill="#FFDC00" />
<rect x="0.8140476190476021" y="0.005" width="0.19726190476190053" height="0.19726190476190053" fill="#FF4136" />
<rect x="1.0163095238095026" y="0.005" width="0.19726190476190053" height="0.19726190476190053" fill="#8D1D2C" />
<rect x="1.218571428571403" y="0.005" width="0.19726190476190053" height="0.19726190476190053" fill="#252525" />
<rect x="1.4208333333333036" y="0.005" width="0.19726190476190053" height="0.19726190476190053" fill="#8D1D2C" />
<rect x="1.6230952380952042" y="0.005" width="0.19726190476190053" height="0.19726190476190053" fill="#252525" />
<rect x="1.8253571428571047" y="0.005" width="0.19726190476190053" height="0.19726190476190053" fill="#FF4136" />
<rect x="2.0276190476190052" y="0.005" width="0.19726190476190053" height="0.19726190476190053" fill="#252525" />
<rect x="2.229880952380906" y="0.005" width="0.19726190476190053" height="0.19726190476190053" fill="#252525" />
<rect x="2.4321428571428063" y="0.005" width="0.19726190476190053" height="0.19726190476190053" fill="#252525" />
<rect x="2.634404761904707" y="0.005" width="0.19726190476190053" height="0.19726190476190053" fill="#0074D9" />
<rect x="0.005" y="0.20726190476190054" width="0.19726190476190053" height="0.19726190476190053" fill="#FFDC00" />
<rect x="0.20726190476190054" y="0.20726190476190054" width="0.19726190476190053" height="0.19726190476190053" fill="#FFDC00" />
<rect x="0.4095238095238011" y="0.20726190476190054" width="0.19726190476190053" height="0.19726190476190053" fill="#252525" />
<rect x="0.6117857142857016" y="0.20726190476190054" width="0.19726190476190053" height="0.19726190476190053" fill="#252525" />
<rect x="0.8140476190476021" y="0.20726190476190054" width="0.19726190476190053" height="0.19726190476190053" fill="#FF4136" />
<rect x="1.0163095238095026" y="0.20726190476190054" width="0.19726190476190053" height="0.19726190476190053" fill="#8D1D2C" />
<rect x="1.218571428571403" y="0.20726190476190054" width="0.19726190476190053" height="0.19726190476190053" fill="#8D1D2C" />
<rect x="1.4208333333333036" y="0.20726190476190054" width="0.19726190476190053" height="0.19726190476190053" fill="#252525" />
<rect x="1.6230952380952042" y="0.20726190476190054" width="0.19726190476190053" height="0.19726190476190053" fill="#252525" />
<rect x="1.8253571428571047" y="0.20726190476190054" width="0.19726190476190053" height="0.19726190476190053" fill="#FF4136" />
<rect x="2.0276190476190052" y="0.20726190476190054" width="0.19726190476190053" height="0.19726190476190053" fill="#0074D9" />
<rect x="2.229880952380906" y="0.20726190476190054" width="0.19726190476190053" height="0.19726190476190053" fill="#252525" />
<rect x="2.4321428571428063" y="0.20726190476190054" width="0.19726190476190053" height="0.19726190476190053" fill="#252525" />
<rect x="2.634404761904707" y="0.20726190476190054" width="0.19726190476190053" height="0.19726190476190053" fill="#252525" />
<rect x="0.005" y="0.4095238095238011" width="0.19726190476190053" height="0.19726190476190053" fill="#FFDC00" />
<rect x="0.20726190476190054" y="0.4095238095238011" width="0.19726190476190053" height="0.19726190476190053" fill="#252525" />
<rect x="0.4095238095238011" y="0.4095238095238011" width="0.19726190476190053" height="0.19726190476190053" fill="#FFDC00" />
<rect x="0.6117857142857016" y="0.4095238095238011" width="0.19726190476190053" height="0.19726190476190053" fill="#FFDC00" />
<rect x="0.8140476190476021" y="0.4095238095238011" width="0.19726190476190053" height="0.19726190476190053" fill="#FF4136" />
<rect x="1.0163095238095026" y="0.4095238095238011" width="0.19726190476190053" height="0.19726190476190053" fill="#252525" />
<rect x="1.218571428571403" y="0.4095238095238011" width="0.19726190476190053" height="0.19726190476190053" fill="#252525" />
<rect x="1.4208333333333036" y="0.4095238095238011" width="0.19726190476190053" height="0.19726190476190053" fill="#252525" />
<rect x="1.6230952380952042" y="0.4095238095238011" width="0.19726190476190053" height="0.19726190476190053" fill="#8D1D2C" />
<rect x="1.8253571428571047" y="0.4095238095238011" width="0.19726190476190053" height="0.19726190476190053" fill="#FF4136" />
<rect x="2.0276190476190052" y="0.4095238095238011" width="0.19726190476190053" height="0.19726190476190053" fill="#252525" />
<rect x="2.229880952380906" y="0.4095238095238011" width="0.19726190476190053" height="0.19726190476190053" fill="#0074D9" />
<rect x="2.4321428571428063" y="0.4095238095238011" width="0.19726190476190053" height="0.19726190476190053" fill="#252525" />
<rect x="2.634404761904707" y="0.4095238095238011" width="0.19726190476190053" height="0.19726190476190053" fill="#0074D9" />
<rect x="0.005" y="0.6117857142857016" width="0.19726190476190053" height="0.19726190476190053" fill="#252525" />
<rect x="0.20726190476190054" y="0.6117857142857016" width="0.19726190476190053" height="0.19726190476190053" fill="#252525" />
<rect x="0.4095238095238011" y="0.6117857142857016" width="0.19726190476190053" height="0.19726190476190053" fill="#252525" />
<rect x="0.6117857142857016" y="0.6117857142857016" width="0.19726190476190053" height="0.19726190476190053" fill="#252525" />
<rect x="0.8140476190476021" y="0.6117857142857016" width="0.19726190476190053" height="0.19726190476190053" fill="#FF4136" />
<rect x="1.0163095238095026" y="0.6117857142857016" width="0.19726190476190053" height="0.19726190476190053" fill="#252525" />
<rect x="1.218571428571403" y="0.6117857142857016" width="0.19726190476190053" height="0.19726190476190053" fill="#252525" />
<rect x="1.4208333333333036" y="0.6117857142857016" width="0.19726190476190053" height="0.19726190476190053" fill="#8D1D2C" />
<rect x="1.6230952380952042" y="0.6117857142857016" width="0.19726190476190053" height="0.19726190476190053" fill="#252525" />
<rect x="1.8253571428571047" y="0.6117857142857016" width="0.19726190476190053" height="0.19726190476190053" fill="#FF4136" />
<rect x="2.0276190476190052" y="0.6117857142857016" width="0.19726190476190053" height="0.19726190476190053" fill="#0074D9" />
<rect x="2.229880952380906" y="0.6117857142857016" width="0.19726190476190053" height="0.19726190476190053" fill="#252525" />
<rect x="2.4321428571428063" y="0.6117857142857016" width="0.19726190476190053" height="0.19726190476190053" fill="#0074D9" />
<rect x="2.634404761904707" y="0.6117857142857016" width="0.19726190476190053" height="0.19726190476190053" fill="#252525" />
<rect x="-0.02666666666666667" y="-0.02666666666666667" width="2.8849999999999407" height="0.8623809523809355" fill="none" stroke="#111111ff" stroke-width="0.08" />
<text x="2.8316666666666075" y="1.2777976190476021" font-size="0.375" fill="black" text-anchor="end" font-family="Anuphan">14x4</text>
<text x="-0.037500000000000006" y="1.2777976190476021" font-size="0.375" fill="black" text-anchor="start" font-family="Anuphan" font-weight="600">Input 2</text>
</g>
<g id="d2">
<rect x="0.005" y="0.005" width="0.19726190476190053" height="0.19726190476190053" fill="#FFDC00" />
<rect x="0.20726190476190054" y="0.005" width="0.19726190476190053" height="0.19726190476190053" fill="#FFDC00" />
<rect x="0.4095238095238011" y="0.005" width="0.19726190476190053" height="0.19726190476190053" fill="#FFDC00" />
<rect x="0.6117857142857016" y="0.005" width="0.19726190476190053" height="0.19726190476190053" fill="#252525" />
<rect x="0.8140476190476021" y="0.005" width="0.19726190476190053" height="0.19726190476190053" fill="#FF4136" />
<rect x="1.0163095238095026" y="0.005" width="0.19726190476190053" height="0.19726190476190053" fill="#8D1D2C" />
<rect x="1.218571428571403" y="0.005" width="0.19726190476190053" height="0.19726190476190053" fill="#8D1D2C" />
<rect x="1.4208333333333036" y="0.005" width="0.19726190476190053" height="0.19726190476190053" fill="#252525" />
<rect x="1.6230952380952042" y="0.005" width="0.19726190476190053" height="0.19726190476190053" fill="#8D1D2C" />
<rect x="1.8253571428571047" y="0.005" width="0.19726190476190053" height="0.19726190476190053" fill="#FF4136" />
<rect x="2.0276190476190052" y="0.005" width="0.19726190476190053" height="0.19726190476190053" fill="#252525" />
<rect x="2.229880952380906" y="0.005" width="0.19726190476190053" height="0.19726190476190053" fill="#0074D9" />
<rect x="2.4321428571428063" y="0.005" width="0.19726190476190053" height="0.19726190476190053" fill="#252525" />
<rect x="2.634404761904707" y="0.005" width="0.19726190476190053" height="0.19726190476190053" fill="#0074D9" />
<rect x="0.005" y="0.20726190476190054" width="0.19726190476190053" height="0.19726190476190053" fill="#252525" />
<rect x="0.20726190476190054" y="0.20726190476190054" width="0.19726190476190053" height="0.19726190476190053" fill="#FFDC00" />
<rect x="0.4095238095238011" y="0.20726190476190054" width="0.19726190476190053" height="0.19726190476190053" fill="#252525" />
<rect x="0.6117857142857016" y="0.20726190476190054" width="0.19726190476190053" height="0.19726190476190053" fill="#FFDC00" />
<rect x="0.8140476190476021" y="0.20726190476190054" width="0.19726190476190053" height="0.19726190476190053" fill="#FF4136" />
<rect x="1.0163095238095026" y="0.20726190476190054" width="0.19726190476190053" height="0.19726190476190053" fill="#252525" />
<rect x="1.218571428571403" y="0.20726190476190054" width="0.19726190476190053" height="0.19726190476190053" fill="#252525" />
<rect x="1.4208333333333036" y="0.20726190476190054" width="0.19726190476190053" height="0.19726190476190053" fill="#8D1D2C" />
<rect x="1.6230952380952042" y="0.20726190476190054" width="0.19726190476190053" height="0.19726190476190053" fill="#252525" />
<rect x="1.8253571428571047" y="0.20726190476190054" width="0.19726190476190053" height="0.19726190476190053" fill="#FF4136" />
<rect x="2.0276190476190052" y="0.20726190476190054" width="0.19726190476190053" height="0.19726190476190053" fill="#252525" />
<rect x="2.229880952380906" y="0.20726190476190054" width="0.19726190476190053" height="0.19726190476190053" fill="#0074D9" />
<rect x="2.4321428571428063" y="0.20726190476190054" width="0.19726190476190053" height="0.19726190476190053" fill="#252525" />
<rect x="2.634404761904707" y="0.20726190476190054" width="0.19726190476190053" height="0.19726190476190053" fill="#252525" />
<rect x="0.005" y="0.4095238095238011" width="0.19726190476190053" height="0.19726190476190053" fill="#252525" />
<rect x="0.20726190476190054" y="0.4095238095238011" width="0.19726190476190053" height="0.19726190476190053" fill="#FFDC00" />
<rect x="0.4095238095238011" y="0.4095238095238011" width="0.19726190476190053" height="0.19726190476190053" fill="#252525" />
<rect x="0.6117857142857016" y="0.4095238095238011" width="0.19726190476190053" height="0.19726190476190053" fill="#FFDC00" />
<rect x="0.8140476190476021" y="0.4095238095238011" width="0.19726190476190053" height="0.19726190476190053" fill="#FF4136" />
<rect x="1.0163095238095026" y="0.4095238095238011" width="0.19726190476190053" height="0.19726190476190053" fill="#252525" />
<rect x="1.218571428571403" y="0.4095238095238011" width="0.19726190476190053" height="0.19726190476190053" fill="#252525" />
<rect x="1.4208333333333036" y="0.4095238095238011" width="0.19726190476190053" height="0.19726190476190053" fill="#8D1D2C" />
<rect x="1.6230952380952042" y="0.4095238095238011" width="0.19726190476190053" height="0.19726190476190053" fill="#8D1D2C" />
<rect x="1.8253571428571047" y="0.4095238095238011" width="0.19726190476190053" height="0.19726190476190053" fill="#FF4136" />
<rect x="2.0276190476190052" y="0.4095238095238011" width="0.19726190476190053" height="0.19726190476190053" fill="#0074D9" />
<rect x="2.229880952380906" y="0.4095238095238011" width="0.19726190476190053" height="0.19726190476190053" fill="#252525" />
<rect x="2.4321428571428063" y="0.4095238095238011" width="0.19726190476190053" height="0.19726190476190053" fill="#252525" />
<rect x="2.634404761904707" y="0.4095238095238011" width="0.19726190476190053" height="0.19726190476190053" fill="#0074D9" />
<rect x="0.005" y="0.6117857142857016" width="0.19726190476190053" height="0.19726190476190053" fill="#FFDC00" />
<rect x="0.20726190476190054" y="0.6117857142857016" width="0.19726190476190053" height="0.19726190476190053" fill="#252525" />
<rect x="0.4095238095238011" y="0.6117857142857016" width="0.19726190476190053" height="0.19726190476190053" fill="#FFDC00" />
<rect x="0.6117857142857016" y="0.6117857142857016" width="0.19726190476190053" height="0.19726190476190053" fill="#FFDC00" />
<rect x="0.8140476190476021" y="0.6117857142857016" width="0.19726190476190053" height="0.19726190476190053" fill="#FF4136" />
<rect x="1.0163095238095026" y="0.6117857142857016" width="0.19726190476190053" height="0.19726190476190053" fill="#8D1D2C" />
<rect x="1.218571428571403" y="0.6117857142857016" width="0.19726190476190053" height="0.19726190476190053" fill="#8D1D2C" />
<rect x="1.4208333333333036" y="0.6117857142857016" width="0.19726190476190053" height="0.19726190476190053" fill="#8D1D2C" />
<rect x="1.6230952380952042" y="0.6117857142857016" width="0.19726190476190053" height="0.19726190476190053" fill="#252525" />
<rect x="1.8253571428571047" y="0.6117857142857016" width="0.19726190476190053" height="0.19726190476190053" fill="#FF4136" />
<rect x="2.0276190476190052" y="0.6117857142857016" width="0.19726190476190053" height="0.19726190476190053" fill="#252525" />
<rect x="2.229880952380906" y="0.6117857142857016" width="0.19726190476190053" height="0.19726190476190053" fill="#252525" />
<rect x="2.4321428571428063" y="0.6117857142857016" width="0.19726190476190053" height="0.19726190476190053" fill="#252525" />
<rect x="2.634404761904707" y="0.6117857142857016" width="0.19726190476190053" height="0.19726190476190053" fill="#0074D9" />
<rect x="-0.02666666666666667" y="-0.02666666666666667" width="2.8849999999999407" height="0.8623809523809355" fill="none" stroke="#111111ff" stroke-width="0.08" />
<text x="2.8316666666666075" y="1.2777976190476021" font-size="0.375" fill="black" text-anchor="end" font-family="Anuphan">14x4</text>
<text x="-0.037500000000000006" y="1.2777976190476021" font-size="0.375" fill="black" text-anchor="start" font-family="Anuphan" font-weight="600">Input 3</text>
</g>
<g id="d3">
<rect x="0.005" y="0.005" width="0.19726190476190053" height="0.19726190476190053" fill="#252525" />
<rect x="0.20726190476190054" y="0.005" width="0.19726190476190053" height="0.19726190476190053" fill="#252525" />
<rect x="0.4095238095238011" y="0.005" width="0.19726190476190053" height="0.19726190476190053" fill="#252525" />
<rect x="0.6117857142857016" y="0.005" width="0.19726190476190053" height="0.19726190476190053" fill="#FFDC00" />
<rect x="0.8140476190476021" y="0.005" width="0.19726190476190053" height="0.19726190476190053" fill="#FF4136" />
<rect x="1.0163095238095026" y="0.005" width="0.19726190476190053" height="0.19726190476190053" fill="#252525" />
<rect x="1.218571428571403" y="0.005" width="0.19726190476190053" height="0.19726190476190053" fill="#252525" />
<rect x="1.4208333333333036" y="0.005" width="0.19726190476190053" height="0.19726190476190053" fill="#252525" />
<rect x="1.6230952380952042" y="0.005" width="0.19726190476190053" height="0.19726190476190053" fill="#8D1D2C" />
<rect x="1.8253571428571047" y="0.005" width="0.19726190476190053" height="0.19726190476190053" fill="#FF4136" />
<rect x="2.0276190476190052" y="0.005" width="0.19726190476190053" height="0.19726190476190053" fill="#252525" />
<rect x="2.229880952380906" y="0.005" width="0.19726190476190053" height="0.19726190476190053" fill="#252525" />
<rect x="2.4321428571428063" y="0.005" width="0.19726190476190053" height="0.19726190476190053" fill="#252525" />
<rect x="2.634404761904707" y="0.005" width="0.19726190476190053" height="0.19726190476190053" fill="#252525" />
<rect x="0.005" y="0.20726190476190054" width="0.19726190476190053" height="0.19726190476190053" fill="#FFDC00" />
<rect x="0.20726190476190054" y="0.20726190476190054" width="0.19726190476190053" height="0.19726190476190053" fill="#FFDC00" />
<rect x="0.4095238095238011" y="0.20726190476190054" width="0.19726190476190053" height="0.19726190476190053" fill="#252525" />
<rect x="0.6117857142857016" y="0.20726190476190054" width="0.19726190476190053" height="0.19726190476190053" fill="#FFDC00" />
<rect x="0.8140476190476021" y="0.20726190476190054" width="0.19726190476190053" height="0.19726190476190053" fill="#FF4136" />
<rect x="1.0163095238095026" y="0.20726190476190054" width="0.19726190476190053" height="0.19726190476190053" fill="#8D1D2C" />
<rect x="1.218571428571403" y="0.20726190476190054" width="0.19726190476190053" height="0.19726190476190053" fill="#252525" />
<rect x="1.4208333333333036" y="0.20726190476190054" width="0.19726190476190053" height="0.19726190476190053" fill="#8D1D2C" />
<rect x="1.6230952380952042" y="0.20726190476190054" width="0.19726190476190053" height="0.19726190476190053" fill="#252525" />
<rect x="1.8253571428571047" y="0.20726190476190054" width="0.19726190476190053" height="0.19726190476190053" fill="#FF4136" />
<rect x="2.0276190476190052" y="0.20726190476190054" width="0.19726190476190053" height="0.19726190476190053" fill="#252525" />
<rect x="2.229880952380906" y="0.20726190476190054" width="0.19726190476190053" height="0.19726190476190053" fill="#252525" />
<rect x="2.4321428571428063" y="0.20726190476190054" width="0.19726190476190053" height="0.19726190476190053" fill="#252525" />
<rect x="2.634404761904707" y="0.20726190476190054" width="0.19726190476190053" height="0.19726190476190053" fill="#252525" />
<rect x="0.005" y="0.4095238095238011" width="0.19726190476190053" height="0.19726190476190053" fill="#FFDC00" />
<rect x="0.20726190476190054" y="0.4095238095238011" width="0.19726190476190053" height="0.19726190476190053" fill="#252525" />
<rect x="0.4095238095238011" y="0.4095238095238011" width="0.19726190476190053" height="0.19726190476190053" fill="#FFDC00" />
<rect x="0.6117857142857016" y="0.4095238095238011" width="0.19726190476190053" height="0.19726190476190053" fill="#FFDC00" />
<rect x="0.8140476190476021" y="0.4095238095238011" width="0.19726190476190053" height="0.19726190476190053" fill="#FF4136" />
<rect x="1.0163095238095026" y="0.4095238095238011" width="0.19726190476190053" height="0.19726190476190053" fill="#252525" />
<rect x="1.218571428571403" y="0.4095238095238011" width="0.19726190476190053" height="0.19726190476190053" fill="#8D1D2C" />
<rect x="1.4208333333333036" y="0.4095238095238011" width="0.19726190476190053" height="0.19726190476190053" fill="#8D1D2C" />
<rect x="1.6230952380952042" y="0.4095238095238011" width="0.19726190476190053" height="0.19726190476190053" fill="#252525" />
<rect x="1.8253571428571047" y="0.4095238095238011" width="0.19726190476190053" height="0.19726190476190053" fill="#FF4136" />
<rect x="2.0276190476190052" y="0.4095238095238011" width="0.19726190476190053" height="0.19726190476190053" fill="#0074D9" />
<rect x="2.229880952380906" y="0.4095238095238011" width="0.19726190476190053" height="0.19726190476190053" fill="#0074D9" />
<rect x="2.4321428571428063" y="0.4095238095238011" width="0.19726190476190053" height="0.19726190476190053" fill="#252525" />
<rect x="2.634404761904707" y="0.4095238095238011" width="0.19726190476190053" height="0.19726190476190053" fill="#0074D9" />
<rect x="0.005" y="0.6117857142857016" width="0.19726190476190053" height="0.19726190476190053" fill="#252525" />
<rect x="0.20726190476190054" y="0.6117857142857016" width="0.19726190476190053" height="0.19726190476190053" fill="#FFDC00" />
<rect x="0.4095238095238011" y="0.6117857142857016" width="0.19726190476190053" height="0.19726190476190053" fill="#FFDC00" />
<rect x="0.6117857142857016" y="0.6117857142857016" width="0.19726190476190053" height="0.19726190476190053" fill="#FFDC00" />
<rect x="0.8140476190476021" y="0.6117857142857016" width="0.19726190476190053" height="0.19726190476190053" fill="#FF4136" />
<rect x="1.0163095238095026" y="0.6117857142857016" width="0.19726190476190053" height="0.19726190476190053" fill="#252525" />
<rect x="1.218571428571403" y="0.6117857142857016" width="0.19726190476190053" height="0.19726190476190053" fill="#8D1D2C" />
<rect x="1.4208333333333036" y="0.6117857142857016" width="0.19726190476190053" height="0.19726190476190053" fill="#252525" />
<rect x="1.6230952380952042" y="0.6117857142857016" width="0.19726190476190053" height="0.19726190476190053" fill="#252525" />
<rect x="1.8253571428571047" y="0.6117857142857016" width="0.19726190476190053" height="0.19726190476190053" fill="#FF4136" />
<rect x="2.0276190476190052" y="0.6117857142857016" width="0.19726190476190053" height="0.19726190476190053" fill="#0074D9" />
<rect x="2.229880952380906" y="0.6117857142857016" width="0.19726190476190053" height="0.19726190476190053" fill="#0074D9" />
<rect x="2.4321428571428063" y="0.6117857142857016" width="0.19726190476190053" height="0.19726190476190053" fill="#0074D9" />
<rect x="2.634404761904707" y="0.6117857142857016" width="0.19726190476190053" height="0.19726190476190053" fill="#0074D9" />
<rect x="-0.02666666666666667" y="-0.02666666666666667" width="2.8849999999999407" height="0.8623809523809355" fill="none" stroke="#111111ff" stroke-width="0.08" />
<text x="2.8316666666666075" y="1.2777976190476021" font-size="0.375" fill="black" text-anchor="end" font-family="Anuphan">14x4</text>
<text x="-0.037500000000000006" y="1.2777976190476021" font-size="0.375" fill="black" text-anchor="start" font-family="Anuphan" font-weight="600">Input 4</text>
</g>
<g id="d4">
<rect x="0.005" y="0.005" width="0.19726190476190053" height="0.19726190476190053" fill="#FFDC00" />
<rect x="0.20726190476190054" y="0.005" width="0.19726190476190053" height="0.19726190476190053" fill="#252525" />
<rect x="0.4095238095238011" y="0.005" width="0.19726190476190053" height="0.19726190476190053" fill="#FFDC00" />
<rect x="0.6117857142857016" y="0.005" width="0.19726190476190053" height="0.19726190476190053" fill="#252525" />
<rect x="0.8140476190476021" y="0.005" width="0.19726190476190053" height="0.19726190476190053" fill="#FF4136" />
<rect x="1.0163095238095026" y="0.005" width="0.19726190476190053" height="0.19726190476190053" fill="#252525" />
<rect x="1.218571428571403" y="0.005" width="0.19726190476190053" height="0.19726190476190053" fill="#252525" />
<rect x="1.4208333333333036" y="0.005" width="0.19726190476190053" height="0.19726190476190053" fill="#252525" />
<rect x="1.6230952380952042" y="0.005" width="0.19726190476190053" height="0.19726190476190053" fill="#252525" />
<rect x="1.8253571428571047" y="0.005" width="0.19726190476190053" height="0.19726190476190053" fill="#FF4136" />
<rect x="2.0276190476190052" y="0.005" width="0.19726190476190053" height="0.19726190476190053" fill="#252525" />
<rect x="2.229880952380906" y="0.005" width="0.19726190476190053" height="0.19726190476190053" fill="#252525" />
<rect x="2.4321428571428063" y="0.005" width="0.19726190476190053" height="0.19726190476190053" fill="#252525" />
<rect x="2.634404761904707" y="0.005" width="0.19726190476190053" height="0.19726190476190053" fill="#0074D9" />
<rect x="0.005" y="0.20726190476190054" width="0.19726190476190053" height="0.19726190476190053" fill="#FFDC00" />
<rect x="0.20726190476190054" y="0.20726190476190054" width="0.19726190476190053" height="0.19726190476190053" fill="#FFDC00" />
<rect x="0.4095238095238011" y="0.20726190476190054" width="0.19726190476190053" height="0.19726190476190053" fill="#FFDC00" />
<rect x="0.6117857142857016" y="0.20726190476190054" width="0.19726190476190053" height="0.19726190476190053" fill="#FFDC00" />
<rect x="0.8140476190476021" y="0.20726190476190054" width="0.19726190476190053" height="0.19726190476190053" fill="#FF4136" />
<rect x="1.0163095238095026" y="0.20726190476190054" width="0.19726190476190053" height="0.19726190476190053" fill="#252525" />
<rect x="1.218571428571403" y="0.20726190476190054" width="0.19726190476190053" height="0.19726190476190053" fill="#252525" />
<rect x="1.4208333333333036" y="0.20726190476190054" width="0.19726190476190053" height="0.19726190476190053" fill="#252525" />
<rect x="1.6230952380952042" y="0.20726190476190054" width="0.19726190476190053" height="0.19726190476190053" fill="#8D1D2C" />
<rect x="1.8253571428571047" y="0.20726190476190054" width="0.19726190476190053" height="0.19726190476190053" fill="#FF4136" />
<rect x="2.0276190476190052" y="0.20726190476190054" width="0.19726190476190053" height="0.19726190476190053" fill="#0074D9" />
<rect x="2.229880952380906" y="0.20726190476190054" width="0.19726190476190053" height="0.19726190476190053" fill="#0074D9" />
<rect x="2.4321428571428063" y="0.20726190476190054" width="0.19726190476190053" height="0.19726190476190053" fill="#252525" />
<rect x="2.634404761904707" y="0.20726190476190054" width="0.19726190476190053" height="0.19726190476190053" fill="#252525" />
<rect x="0.005" y="0.4095238095238011" width="0.19726190476190053" height="0.19726190476190053" fill="#252525" />
<rect x="0.20726190476190054" y="0.4095238095238011" width="0.19726190476190053" height="0.19726190476190053" fill="#FFDC00" />
<rect x="0.4095238095238011" y="0.4095238095238011" width="0.19726190476190053" height="0.19726190476190053" fill="#FFDC00" />
<rect x="0.6117857142857016" y="0.4095238095238011" width="0.19726190476190053" height="0.19726190476190053" fill="#FFDC00" />
<rect x="0.8140476190476021" y="0.4095238095238011" width="0.19726190476190053" height="0.19726190476190053" fill="#FF4136" />
<rect x="1.0163095238095026" y="0.4095238095238011" width="0.19726190476190053" height="0.19726190476190053" fill="#252525" />
<rect x="1.218571428571403" y="0.4095238095238011" width="0.19726190476190053" height="0.19726190476190053" fill="#8D1D2C" />
<rect x="1.4208333333333036" y="0.4095238095238011" width="0.19726190476190053" height="0.19726190476190053" fill="#8D1D2C" />
<rect x="1.6230952380952042" y="0.4095238095238011" width="0.19726190476190053" height="0.19726190476190053" fill="#252525" />
<rect x="1.8253571428571047" y="0.4095238095238011" width="0.19726190476190053" height="0.19726190476190053" fill="#FF4136" />
<rect x="2.0276190476190052" y="0.4095238095238011" width="0.19726190476190053" height="0.19726190476190053" fill="#0074D9" />
<rect x="2.229880952380906" y="0.4095238095238011" width="0.19726190476190053" height="0.19726190476190053" fill="#0074D9" />
<rect x="2.4321428571428063" y="0.4095238095238011" width="0.19726190476190053" height="0.19726190476190053" fill="#252525" />
<rect x="2.634404761904707" y="0.4095238095238011" width="0.19726190476190053" height="0.19726190476190053" fill="#0074D9" />
<rect x="0.005" y="0.6117857142857016" width="0.19726190476190053" height="0.19726190476190053" fill="#252525" />
<rect x="0.20726190476190054" y="0.6117857142857016" width="0.19726190476190053" height="0.19726190476190053" fill="#FFDC00" />
<rect x="0.4095238095238011" y="0.6117857142857016" width="0.19726190476190053" height="0.19726190476190053" fill="#FFDC00" />
<rect x="0.6117857142857016" y="0.6117857142857016" width="0.19726190476190053" height="0.19726190476190053" fill="#252525" />
<rect x="0.8140476190476021" y="0.6117857142857016" width="0.19726190476190053" height="0.19726190476190053" fill="#FF4136" />
<rect x="1.0163095238095026" y="0.6117857142857016" width="0.19726190476190053" height="0.19726190476190053" fill="#252525" />
<rect x="1.218571428571403" y="0.6117857142857016" width="0.19726190476190053" height="0.19726190476190053" fill="#252525" />
<rect x="1.4208333333333036" y="0.6117857142857016" width="0.19726190476190053" height="0.19726190476190053" fill="#8D1D2C" />
<rect x="1.6230952380952042" y="0.6117857142857016" width="0.19726190476190053" height="0.19726190476190053" fill="#252525" />
<rect x="1.8253571428571047" y="0.6117857142857016" width="0.19726190476190053" height="0.19726190476190053" fill="#FF4136" />
<rect x="2.0276190476190052" y="0.6117857142857016" width="0.19726190476190053" height="0.19726190476190053" fill="#252525" />
<rect x="2.229880952380906" y="0.6117857142857016" width="0.19726190476190053" height="0.19726190476190053" fill="#0074D9" />
<rect x="2.4321428571428063" y="0.6117857142857016" width="0.19726190476190053" height="0.19726190476190053" fill="#252525" />
<rect x="2.634404761904707" y="0.6117857142857016" width="0.19726190476190053" height="0.19726190476190053" fill="#0074D9" />
<rect x="-0.02666666666666667" y="-0.02666666666666667" width="2.8849999999999407" height="0.8623809523809355" fill="none" stroke="#111111ff" stroke-width="0.08" />
<text x="2.8316666666666075" y="1.2777976190476021" font-size="0.375" fill="black" text-anchor="end" font-family="Anuphan">14x4</text>
<text x="-0.037500000000000006" y="1.2777976190476021" font-size="0.375" fill="black" text-anchor="start" font-family="Anuphan" font-weight="600">Input 5</text>
</g>
<g id="d5">
<rect x="0.005" y="0.005" width="0.19726190476190053" height="0.19726190476190053" fill="#252525" />
<rect x="0.20726190476190054" y="0.005" width="0.19726190476190053" height="0.19726190476190053" fill="#252525" />
<rect x="0.4095238095238011" y="0.005" width="0.19726190476190053" height="0.19726190476190053" fill="#FFDC00" />
<rect x="0.6117857142857016" y="0.005" width="0.19726190476190053" height="0.19726190476190053" fill="#252525" />
<rect x="0.8140476190476021" y="0.005" width="0.19726190476190053" height="0.19726190476190053" fill="#FF4136" />
<rect x="1.0163095238095026" y="0.005" width="0.19726190476190053" height="0.19726190476190053" fill="#8D1D2C" />
<rect x="1.218571428571403" y="0.005" width="0.19726190476190053" height="0.19726190476190053" fill="#252525" />
<rect x="1.4208333333333036" y="0.005" width="0.19726190476190053" height="0.19726190476190053" fill="#8D1D2C" />
<rect x="1.6230952380952042" y="0.005" width="0.19726190476190053" height="0.19726190476190053" fill="#252525" />
<rect x="1.8253571428571047" y="0.005" width="0.19726190476190053" height="0.19726190476190053" fill="#FF4136" />
<rect x="2.0276190476190052" y="0.005" width="0.19726190476190053" height="0.19726190476190053" fill="#0074D9" />
<rect x="2.229880952380906" y="0.005" width="0.19726190476190053" height="0.19726190476190053" fill="#0074D9" />
<rect x="2.4321428571428063" y="0.005" width="0.19726190476190053" height="0.19726190476190053" fill="#252525" />
<rect x="2.634404761904707" y="0.005" width="0.19726190476190053" height="0.19726190476190053" fill="#252525" />
<rect x="0.005" y="0.20726190476190054" width="0.19726190476190053" height="0.19726190476190053" fill="#FFDC00" />
<rect x="0.20726190476190054" y="0.20726190476190054" width="0.19726190476190053" height="0.19726190476190053" fill="#FFDC00" />
<rect x="0.4095238095238011" y="0.20726190476190054" width="0.19726190476190053" height="0.19726190476190053" fill="#252525" />
<rect x="0.6117857142857016" y="0.20726190476190054" width="0.19726190476190053" height="0.19726190476190053" fill="#FFDC00" />
<rect x="0.8140476190476021" y="0.20726190476190054" width="0.19726190476190053" height="0.19726190476190053" fill="#FF4136" />
<rect x="1.0163095238095026" y="0.20726190476190054" width="0.19726190476190053" height="0.19726190476190053" fill="#8D1D2C" />
<rect x="1.218571428571403" y="0.20726190476190054" width="0.19726190476190053" height="0.19726190476190053" fill="#8D1D2C" />
<rect x="1.4208333333333036" y="0.20726190476190054" width="0.19726190476190053" height="0.19726190476190053" fill="#8D1D2C" />
<rect x="1.6230952380952042" y="0.20726190476190054" width="0.19726190476190053" height="0.19726190476190053" fill="#252525" />
<rect x="1.8253571428571047" y="0.20726190476190054" width="0.19726190476190053" height="0.19726190476190053" fill="#FF4136" />
<rect x="2.0276190476190052" y="0.20726190476190054" width="0.19726190476190053" height="0.19726190476190053" fill="#0074D9" />
<rect x="2.229880952380906" y="0.20726190476190054" width="0.19726190476190053" height="0.19726190476190053" fill="#0074D9" />
<rect x="2.4321428571428063" y="0.20726190476190054" width="0.19726190476190053" height="0.19726190476190053" fill="#0074D9" />
<rect x="2.634404761904707" y="0.20726190476190054" width="0.19726190476190053" height="0.19726190476190053" fill="#252525" />
<rect x="0.005" y="0.4095238095238011" width="0.19726190476190053" height="0.19726190476190053" fill="#252525" />
<rect x="0.20726190476190054" y="0.4095238095238011" width="0.19726190476190053" height="0.19726190476190053" fill="#252525" />
<rect x="0.4095238095238011" y="0.4095238095238011" width="0.19726190476190053" height="0.19726190476190053" fill="#252525" />
<rect x="0.6117857142857016" y="0.4095238095238011" width="0.19726190476190053" height="0.19726190476190053" fill="#252525" />
<rect x="0.8140476190476021" y="0.4095238095238011" width="0.19726190476190053" height="0.19726190476190053" fill="#FF4136" />
<rect x="1.0163095238095026" y="0.4095238095238011" width="0.19726190476190053" height="0.19726190476190053" fill="#252525" />
<rect x="1.218571428571403" y="0.4095238095238011" width="0.19726190476190053" height="0.19726190476190053" fill="#8D1D2C" />
<rect x="1.4208333333333036" y="0.4095238095238011" width="0.19726190476190053" height="0.19726190476190053" fill="#8D1D2C" />
<rect x="1.6230952380952042" y="0.4095238095238011" width="0.19726190476190053" height="0.19726190476190053" fill="#8D1D2C" />
<rect x="1.8253571428571047" y="0.4095238095238011" width="0.19726190476190053" height="0.19726190476190053" fill="#FF4136" />
<rect x="2.0276190476190052" y="0.4095238095238011" width="0.19726190476190053" height="0.19726190476190053" fill="#0074D9" />
<rect x="2.229880952380906" y="0.4095238095238011" width="0.19726190476190053" height="0.19726190476190053" fill="#0074D9" />
<rect x="2.4321428571428063" y="0.4095238095238011" width="0.19726190476190053" height="0.19726190476190053" fill="#252525" />
<rect x="2.634404761904707" y="0.4095238095238011" width="0.19726190476190053" height="0.19726190476190053" fill="#0074D9" />
<rect x="0.005" y="0.6117857142857016" width="0.19726190476190053" height="0.19726190476190053" fill="#252525" />
<rect x="0.20726190476190054" y="0.6117857142857016" width="0.19726190476190053" height="0.19726190476190053" fill="#FFDC00" />
<rect x="0.4095238095238011" y="0.6117857142857016" width="0.19726190476190053" height="0.19726190476190053" fill="#FFDC00" />
<rect x="0.6117857142857016" y="0.6117857142857016" width="0.19726190476190053" height="0.19726190476190053" fill="#252525" />
<rect x="0.8140476190476021" y="0.6117857142857016" width="0.19726190476190053" height="0.19726190476190053" fill="#FF4136" />
<rect x="1.0163095238095026" y="0.6117857142857016" width="0.19726190476190053" height="0.19726190476190053" fill="#8D1D2C" />
<rect x="1.218571428571403" y="0.6117857142857016" width="0.19726190476190053" height="0.19726190476190053" fill="#252525" />
<rect x="1.4208333333333036" y="0.6117857142857016" width="0.19726190476190053" height="0.19726190476190053" fill="#8D1D2C" />
<rect x="1.6230952380952042" y="0.6117857142857016" width="0.19726190476190053" height="0.19726190476190053" fill="#8D1D2C" />
<rect x="1.8253571428571047" y="0.6117857142857016" width="0.19726190476190053" height="0.19726190476190053" fill="#FF4136" />
<rect x="2.0276190476190052" y="0.6117857142857016" width="0.19726190476190053" height="0.19726190476190053" fill="#0074D9" />
<rect x="2.229880952380906" y="0.6117857142857016" width="0.19726190476190053" height="0.19726190476190053" fill="#252525" />
<rect x="2.4321428571428063" y="0.6117857142857016" width="0.19726190476190053" height="0.19726190476190053" fill="#252525" />
<rect x="2.634404761904707" y="0.6117857142857016" width="0.19726190476190053" height="0.19726190476190053" fill="#252525" />
<rect x="-0.02666666666666667" y="-0.02666666666666667" width="2.8849999999999407" height="0.8623809523809355" fill="none" stroke="#111111ff" stroke-width="0.08" />
<text x="2.8316666666666075" y="1.2777976190476021" font-size="0.375" fill="black" text-anchor="end" font-family="Anuphan">14x4</text>
<text x="-0.037500000000000006" y="1.2777976190476021" font-size="0.375" fill="black" text-anchor="start" font-family="Anuphan" font-weight="600">Test 1</text>
</g>
<g id="d6">
<rect x="0.005" y="0.005" width="0.7029166666666519" height="0.7029166666666519" fill="#8D1D2C" />
<rect x="0.7129166666666519" y="0.005" width="0.7029166666666519" height="0.7029166666666519" fill="#FFDC00" />
<rect x="1.4208333333333036" y="0.005" width="0.7029166666666519" height="0.7029166666666519" fill="#252525" />
<rect x="2.1287499999999557" y="0.005" width="0.7029166666666519" height="0.7029166666666519" fill="#FFDC00" />
<rect x="0.005" y="0.7129166666666519" width="0.7029166666666519" height="0.7029166666666519" fill="#252525" />
<rect x="0.7129166666666519" y="0.7129166666666519" width="0.7029166666666519" height="0.7029166666666519" fill="#FFDC00" />
<rect x="1.4208333333333036" y="0.7129166666666519" width="0.7029166666666519" height="0.7029166666666519" fill="#8D1D2C" />
<rect x="2.1287499999999557" y="0.7129166666666519" width="0.7029166666666519" height="0.7029166666666519" fill="#8D1D2C" />
<rect x="0.005" y="1.4208333333333036" width="0.7029166666666519" height="0.7029166666666519" fill="#FFDC00" />
<rect x="0.7129166666666519" y="1.4208333333333036" width="0.7029166666666519" height="0.7029166666666519" fill="#0074D9" />
<rect x="1.4208333333333036" y="1.4208333333333036" width="0.7029166666666519" height="0.7029166666666519" fill="#0074D9" />
<rect x="2.1287499999999557" y="1.4208333333333036" width="0.7029166666666519" height="0.7029166666666519" fill="#252525" />
<rect x="0.005" y="2.1287499999999557" width="0.7029166666666519" height="0.7029166666666519" fill="#FFDC00" />
<rect x="0.7129166666666519" y="2.1287499999999557" width="0.7029166666666519" height="0.7029166666666519" fill="#FFDC00" />
<rect x="1.4208333333333036" y="2.1287499999999557" width="0.7029166666666519" height="0.7029166666666519" fill="#FFDC00" />
<rect x="2.1287499999999557" y="2.1287499999999557" width="0.7029166666666519" height="0.7029166666666519" fill="#FFDC00" />
<rect x="-0.02666666666666667" y="-0.02666666666666667" width="2.8849999999999407" height="2.8849999999999407" fill="none" stroke="#111111ff" stroke-width="0.08" />
<text x="2.8316666666666075" y="3.3004166666666075" font-size="0.375" fill="black" text-anchor="end" font-family="Anuphan">4x4</text>
<text x="-0.037500000000000006" y="3.3004166666666075" font-size="0.375" fill="black" text-anchor="start" font-family="Anuphan" font-weight="600">Output 1</text>
</g>
<g id="d7">
<rect x="0.005" y="0.005" width="0.7029166666666519" height="0.7029166666666519" fill="#FFDC00" />
<rect x="0.7129166666666519" y="0.005" width="0.7029166666666519" height="0.7029166666666519" fill="#FFDC00" />
<rect x="1.4208333333333036" y="0.005" width="0.7029166666666519" height="0.7029166666666519" fill="#FFDC00" />
<rect x="2.1287499999999557" y="0.005" width="0.7029166666666519" height="0.7029166666666519" fill="#FFDC00" />
<rect x="0.005" y="0.7129166666666519" width="0.7029166666666519" height="0.7029166666666519" fill="#FFDC00" />
<rect x="0.7129166666666519" y="0.7129166666666519" width="0.7029166666666519" height="0.7029166666666519" fill="#FFDC00" />
<rect x="1.4208333333333036" y="0.7129166666666519" width="0.7029166666666519" height="0.7029166666666519" fill="#252525" />
<rect x="2.1287499999999557" y="0.7129166666666519" width="0.7029166666666519" height="0.7029166666666519" fill="#252525" />
<rect x="0.005" y="1.4208333333333036" width="0.7029166666666519" height="0.7029166666666519" fill="#FFDC00" />
<rect x="0.7129166666666519" y="1.4208333333333036" width="0.7029166666666519" height="0.7029166666666519" fill="#0074D9" />
<rect x="1.4208333333333036" y="1.4208333333333036" width="0.7029166666666519" height="0.7029166666666519" fill="#FFDC00" />
<rect x="2.1287499999999557" y="1.4208333333333036" width="0.7029166666666519" height="0.7029166666666519" fill="#FFDC00" />
<rect x="0.005" y="2.1287499999999557" width="0.7029166666666519" height="0.7029166666666519" fill="#0074D9" />
<rect x="0.7129166666666519" y="2.1287499999999557" width="0.7029166666666519" height="0.7029166666666519" fill="#252525" />
<rect x="1.4208333333333036" y="2.1287499999999557" width="0.7029166666666519" height="0.7029166666666519" fill="#8D1D2C" />
<rect x="2.1287499999999557" y="2.1287499999999557" width="0.7029166666666519" height="0.7029166666666519" fill="#252525" />
<rect x="-0.02666666666666667" y="-0.02666666666666667" width="2.8849999999999407" height="2.8849999999999407" fill="none" stroke="#111111ff" stroke-width="0.08" />
<text x="2.8316666666666075" y="3.3004166666666075" font-size="0.375" fill="black" text-anchor="end" font-family="Anuphan">4x4</text>
<text x="-0.037500000000000006" y="3.3004166666666075" font-size="0.375" fill="black" text-anchor="start" font-family="Anuphan" font-weight="600">Output 2</text>
</g>
<g id="d8">
<rect x="0.005" y="0.005" width="0.7029166666666519" height="0.7029166666666519" fill="#FFDC00" />
<rect x="0.7129166666666519" y="0.005" width="0.7029166666666519" height="0.7029166666666519" fill="#FFDC00" />
<rect x="1.4208333333333036" y="0.005" width="0.7029166666666519" height="0.7029166666666519" fill="#FFDC00" />
<rect x="2.1287499999999557" y="0.005" width="0.7029166666666519" height="0.7029166666666519" fill="#8D1D2C" />
<rect x="0.005" y="0.7129166666666519" width="0.7029166666666519" height="0.7029166666666519" fill="#252525" />
<rect x="0.7129166666666519" y="0.7129166666666519" width="0.7029166666666519" height="0.7029166666666519" fill="#FFDC00" />
<rect x="1.4208333333333036" y="0.7129166666666519" width="0.7029166666666519" height="0.7029166666666519" fill="#8D1D2C" />
<rect x="2.1287499999999557" y="0.7129166666666519" width="0.7029166666666519" height="0.7029166666666519" fill="#FFDC00" />
<rect x="0.005" y="1.4208333333333036" width="0.7029166666666519" height="0.7029166666666519" fill="#0074D9" />
<rect x="0.7129166666666519" y="1.4208333333333036" width="0.7029166666666519" height="0.7029166666666519" fill="#FFDC00" />
<rect x="1.4208333333333036" y="1.4208333333333036" width="0.7029166666666519" height="0.7029166666666519" fill="#8D1D2C" />
<rect x="2.1287499999999557" y="1.4208333333333036" width="0.7029166666666519" height="0.7029166666666519" fill="#FFDC00" />
<rect x="0.005" y="2.1287499999999557" width="0.7029166666666519" height="0.7029166666666519" fill="#FFDC00" />
<rect x="0.7129166666666519" y="2.1287499999999557" width="0.7029166666666519" height="0.7029166666666519" fill="#8D1D2C" />
<rect x="1.4208333333333036" y="2.1287499999999557" width="0.7029166666666519" height="0.7029166666666519" fill="#FFDC00" />
<rect x="2.1287499999999557" y="2.1287499999999557" width="0.7029166666666519" height="0.7029166666666519" fill="#FFDC00" />
<rect x="-0.02666666666666667" y="-0.02666666666666667" width="2.8849999999999407" height="2.8849999999999407" fill="none" stroke="#111111ff" stroke-width="0.08" />
<text x="2.8316666666666075" y="3.3004166666666075" font-size="0.375" fill="black" text-anchor="end" font-family="Anuphan">4x4</text>
<text x="-0.037500000000000006" y="3.3004166666666075" font-size="0.375" fill="black" text-anchor="start" font-family="Anuphan" font-weight="600">Output 3</text>
</g>
<g id="d9">
<rect x="0.005" y="0.005" width="0.7029166666666519" height="0.7029166666666519" fill="#252525" />
<rect x="0.7129166666666519" y="0.005" width="0.7029166666666519" height="0.7029166666666519" fill="#252525" />
<rect x="1.4208333333333036" y="0.005" width="0.7029166666666519" height="0.7029166666666519" fill="#252525" />
<rect x="2.1287499999999557" y="0.005" width="0.7029166666666519" height="0.7029166666666519" fill="#FFDC00" />
<rect x="0.005" y="0.7129166666666519" width="0.7029166666666519" height="0.7029166666666519" fill="#FFDC00" />
<rect x="0.7129166666666519" y="0.7129166666666519" width="0.7029166666666519" height="0.7029166666666519" fill="#FFDC00" />
<rect x="1.4208333333333036" y="0.7129166666666519" width="0.7029166666666519" height="0.7029166666666519" fill="#8D1D2C" />
<rect x="2.1287499999999557" y="0.7129166666666519" width="0.7029166666666519" height="0.7029166666666519" fill="#FFDC00" />
<rect x="0.005" y="1.4208333333333036" width="0.7029166666666519" height="0.7029166666666519" fill="#FFDC00" />
<rect x="0.7129166666666519" y="1.4208333333333036" width="0.7029166666666519" height="0.7029166666666519" fill="#8D1D2C" />
<rect x="1.4208333333333036" y="1.4208333333333036" width="0.7029166666666519" height="0.7029166666666519" fill="#FFDC00" />
<rect x="2.1287499999999557" y="1.4208333333333036" width="0.7029166666666519" height="0.7029166666666519" fill="#FFDC00" />
<rect x="0.005" y="2.1287499999999557" width="0.7029166666666519" height="0.7029166666666519" fill="#0074D9" />
<rect x="0.7129166666666519" y="2.1287499999999557" width="0.7029166666666519" height="0.7029166666666519" fill="#FFDC00" />
<rect x="1.4208333333333036" y="2.1287499999999557" width="0.7029166666666519" height="0.7029166666666519" fill="#FFDC00" />
<rect x="2.1287499999999557" y="2.1287499999999557" width="0.7029166666666519" height="0.7029166666666519" fill="#FFDC00" />
<rect x="-0.02666666666666667" y="-0.02666666666666667" width="2.8849999999999407" height="2.8849999999999407" fill="none" stroke="#111111ff" stroke-width="0.08" />
<text x="2.8316666666666075" y="3.3004166666666075" font-size="0.375" fill="black" text-anchor="end" font-family="Anuphan">4x4</text>
<text x="-0.037500000000000006" y="3.3004166666666075" font-size="0.375" fill="black" text-anchor="start" font-family="Anuphan" font-weight="600">Output 4</text>
</g>
<g id="d10">
<rect x="0.005" y="0.005" width="0.7029166666666519" height="0.7029166666666519" fill="#FFDC00" />
<rect x="0.7129166666666519" y="0.005" width="0.7029166666666519" height="0.7029166666666519" fill="#252525" />
<rect x="1.4208333333333036" y="0.005" width="0.7029166666666519" height="0.7029166666666519" fill="#FFDC00" />
<rect x="2.1287499999999557" y="0.005" width="0.7029166666666519" height="0.7029166666666519" fill="#0074D9" />
<rect x="0.005" y="0.7129166666666519" width="0.7029166666666519" height="0.7029166666666519" fill="#FFDC00" />
<rect x="0.7129166666666519" y="0.7129166666666519" width="0.7029166666666519" height="0.7029166666666519" fill="#FFDC00" />
<rect x="1.4208333333333036" y="0.7129166666666519" width="0.7029166666666519" height="0.7029166666666519" fill="#FFDC00" />
<rect x="2.1287499999999557" y="0.7129166666666519" width="0.7029166666666519" height="0.7029166666666519" fill="#FFDC00" />
<rect x="0.005" y="1.4208333333333036" width="0.7029166666666519" height="0.7029166666666519" fill="#0074D9" />
<rect x="0.7129166666666519" y="1.4208333333333036" width="0.7029166666666519" height="0.7029166666666519" fill="#FFDC00" />
<rect x="1.4208333333333036" y="1.4208333333333036" width="0.7029166666666519" height="0.7029166666666519" fill="#FFDC00" />
<rect x="2.1287499999999557" y="1.4208333333333036" width="0.7029166666666519" height="0.7029166666666519" fill="#FFDC00" />
<rect x="0.005" y="2.1287499999999557" width="0.7029166666666519" height="0.7029166666666519" fill="#252525" />
<rect x="0.7129166666666519" y="2.1287499999999557" width="0.7029166666666519" height="0.7029166666666519" fill="#FFDC00" />
<rect x="1.4208333333333036" y="2.1287499999999557" width="0.7029166666666519" height="0.7029166666666519" fill="#FFDC00" />
<rect x="2.1287499999999557" y="2.1287499999999557" width="0.7029166666666519" height="0.7029166666666519" fill="#0074D9" />
<rect x="-0.02666666666666667" y="-0.02666666666666667" width="2.8849999999999407" height="2.8849999999999407" fill="none" stroke="#111111ff" stroke-width="0.08" />
<text x="2.8316666666666075" y="3.3004166666666075" font-size="0.375" fill="black" text-anchor="end" font-family="Anuphan">4x4</text>
<text x="-0.037500000000000006" y="3.3004166666666075" font-size="0.375" fill="black" text-anchor="start" font-family="Anuphan" font-weight="600">Output 5</text>
</g>
</defs>
<rect x="0" y="0" width="100%" height="100%" fill="#eeeff6" />
<use xlink:href="#d0" x="0.25" y="0.25" />
<use xlink:href="#d1" x="3.5816666666666075" y="0.25" />
<use xlink:href="#d2" x="6.913333333333215" y="0.25" />
<use xlink:href="#d3" x="10.244999999999823" y="0.25" />
<use xlink:href="#d4" x="13.57666666666643" y="0.25" />
<use xlink:href="#d5" x="16.908333333333037" y="0.25" />
<path d="M1.6658333333333037,1.709047619047602 L1.6658333333333037,2.109047619047602" stroke-width="0.05" stroke="#888888" />
<path d="M1.5158333333333038,1.909047619047602 L1.6658333333333037,2.109047619047602" stroke-width="0.05" stroke="#888888" />
<path d="M1.8158333333333037,1.909047619047602 L1.6658333333333037,2.109047619047602" stroke-width="0.05" stroke="#888888" />
<use xlink:href="#d6" x="0.25" y="2.459047619047602" />
<path d="M4.997499999999912,1.709047619047602 L4.997499999999912,2.109047619047602" stroke-width="0.05" stroke="#888888" />
<path d="M4.847499999999911,1.909047619047602 L4.997499999999912,2.109047619047602" stroke-width="0.05" stroke="#888888" />
<path d="M5.147499999999912,1.909047619047602 L4.997499999999912,2.109047619047602" stroke-width="0.05" stroke="#888888" />
<use xlink:href="#d7" x="3.5816666666666075" y="2.459047619047602" />
<path d="M8.329166666666518,1.709047619047602 L8.329166666666518,2.109047619047602" stroke-width="0.05" stroke="#888888" />
<path d="M8.179166666666518,1.909047619047602 L8.329166666666518,2.109047619047602" stroke-width="0.05" stroke="#888888" />
<path d="M8.479166666666519,1.909047619047602 L8.329166666666518,2.109047619047602" stroke-width="0.05" stroke="#888888" />
<use xlink:href="#d8" x="6.913333333333215" y="2.459047619047602" />
<path d="M11.660833333333127,1.709047619047602 L11.660833333333127,2.109047619047602" stroke-width="0.05" stroke="#888888" />
<path d="M11.510833333333126,1.909047619047602 L11.660833333333127,2.109047619047602" stroke-width="0.05" stroke="#888888" />
<path d="M11.810833333333127,1.909047619047602 L11.660833333333127,2.109047619047602" stroke-width="0.05" stroke="#888888" />
<use xlink:href="#d9" x="10.244999999999823" y="2.459047619047602" />
<path d="M14.992499999999733,1.709047619047602 L14.992499999999733,2.109047619047602" stroke-width="0.05" stroke="#888888" />
<path d="M14.842499999999733,1.909047619047602 L14.992499999999733,2.109047619047602" stroke-width="0.05" stroke="#888888" />
<path d="M15.142499999999734,1.909047619047602 L14.992499999999733,2.109047619047602" stroke-width="0.05" stroke="#888888" />
<use xlink:href="#d10" x="13.57666666666643" y="2.459047619047602" />
<path d="M18.32416666666634,1.709047619047602 L18.32416666666634,2.109047619047602" stroke-width="0.05" stroke="#888888" />
<path d="M18.17416666666634,1.909047619047602 L18.32416666666634,2.109047619047602" stroke-width="0.05" stroke="#888888" />
<path d="M18.47416666666634,1.909047619047602 L18.32416666666634,2.109047619047602" stroke-width="0.05" stroke="#888888" />
<text x="18.32416666666634" y="3.974880952380906" font-size="1" font-family="Anuphan" font-weight="700" fill="#333333" text-anchor="middle" alignment-baseline="middle">?</text>
<text x="19.9" y="6.1" font-size="0.3" font-family="Anuphan" font-weight="600" fill="#666666" text-anchor="end" alignment-baseline="bottom">Task cf98881b</text>
</svg>