<?xml version="1.0" encoding="UTF-8"?>
<svg xmlns="http://www.w3.org/2000/svg" xmlns:xlink="http://www.w3.org/1999/xlink"
     width="800.0" height="196.0" viewBox="0 0 20.0 4.9">
<defs>
<g id="d0">
<rect x="0.005" y="0.005" width="0.3836111111111104" height="0.3836111111111104" fill="#252525" />
<rect x="0.3936111111111104" y="0.005" width="0.3836111111111104" height="0.3836111111111104" fill="#252525" />
<rect x="0.7822222222222208" y="0.005" width="0.3836111111111104" height="0.3836111111111104" fill="#252525" />
<rect x="0.005" y="0.3936111111111104" width="0.3836111111111104" height="0.3836111111111104" fill="#0074D9" />
<rect x="0.3936111111111104" y="0.3936111111111104" width="0.3836111111111104" height="0.3836111111111104" fill="#252525" />
<rect x="0.7822222222222208" y="0.3936111111111104" width="0.3836111111111104" height="0.3836111111111104" fill="#252525" />
<rect x="0.005" y="0.7822222222222208" width="0.3836111111111104" height="0.3836111111111104" fill="#252525" />
<rect x="0.3936111111111104" y="0.7822222222222208" width="0.3836111111111104" height="0.3836111111111104" fill="#252525" />
<rect x="0.7822222222222208" y="0.7822222222222208" width="0.3836111111111104" height="0.3836111111111104" fill="#252525" />
<rect x="-0.02666666666666667" y="-0.02666666666666667" width="1.2191666666666645" height="1.2191666666666645" fill="none" stroke="#111111ff" stroke-width="0.08" />
<text x="1.1658333333333313" y="1.6345833333333313" font-size="0.375" fill="black" text-anchor="end" font-family="Anuphan">3x3</text>
<text x="-0.037500000000000006" y="1.6345833333333313" font-size="0.375" fill="black" text-anchor="start" font-family="Anuphan" font-weight="600">Input 1</text>
</g>
<g id="d1">
<rect x="0.005" y="0.005" width="0.3836111111111104" height="0.3836111111111104" fill="#252525" />
<rect x="0.3936111111111104" y="0.005" width="0.3836111111111104" height="0.3836111111111104" fill="#0074D9" />
<rect x="0.7822222222222208" y="0.005" width="0.3836111111111104" height="0.3836111111111104" fill="#252525" />
<rect x="0.005" y="0.3936111111111104" width="0.3836111111111104" height="0.3836111111111104" fill="#0074D9" />
<rect x="0.3936111111111104" y="0.3936111111111104" width="0.3836111111111104" height="0.3836111111111104" fill="#252525" />
<rect x="0.7822222222222208" y="0.3936111111111104" width="0.3836111111111104" height="0.3836111111111104" fill="#252525" />
<rect x="0.005" y="0.7822222222222208" width="0.3836111111111104" height="0.3836111111111104" fill="#252525" />
<rect x="0.3936111111111104" y="0.7822222222222208" width="0.3836111111111104" height="0.3836111111111104" fill="#252525" />
<rect x="0.7822222222222208" y="0.7822222222222208" width="0.3836111111111104" height="0.3836111111111104" fill="#252525" />
<rect x="-0.02666666666666667" y="-0.02666666666666667" width="1.2191666666666645" height="1.2191666666666645" fill="none" stroke="#111111ff" stroke-width="0.08" />
<text x="1.1658333333333313" y="1.6345833333333313" font-size="0.375" fill="black" text-anchor="end" font-family="Anuphan">3x3</text>
<text x="-0.037500000000000006" y="1.6345833333333313" font-size="0.375" fill="black" text-anchor="start" font-family="Anuphan" font-weight="600">Input 2</text>
</g>
<g id="d2">
<rect x="0.005" y="0.005" width="0.3836111111111104" height="0.3836111111111104" fill="#252525" />
<rect x="0.3936111111111104" y="0.005" width="0.3836111111111104" height="0.3836111111111104" fill="#252525" />
<rect x="0.7822222222222208" y="0.005" width="0.3836111111111104" height="0.3836111111111104" fill="#0074D9" />
<rect x="0.005" y="0.3936111111111104" width="0.3836111111111104" height="0.3836111111111104" fill="#252525" />
<rect x="0.3936111111111104" y="0.3936111111111104" width="0.3836111111111104" height="0.3836111111111104" fill="#252525" />
<rect x="0.7822222222222208" y="0.3936111111111104" width="0.3836111111111104" height="0.3836111111111104" fill="#252525" />
<rect x="0.005" y="0.7822222222222208" width="0.3836111111111104" height="0.3836111111111104" fill="#0074D9" />
<rect x="0.3936111111111104" y="0.7822222222222208" width="0.3836111111111104" height="0.3836111111111104" fill="#252525" />
<rect x="0.7822222222222208" y="0.7822222222222208" width="0.3836111111111104" height="0.3836111111111104" fill="#252525" />
<rect x="-0.02666666666666667" y="-0.02666666666666667" width="1.2191666666666645" height="1.2191666666666645" fill="none" stroke="#111111ff" stroke-width="0.08" />
<text x="1.1658333333333313" y="1.6345833333333313" font-size="0.375" fill="black" text-anchor="end" font-family="Anuphan">3x3</text>
<text x="-0.037500000000000006" y="1.6345833333333313" font-size="0.375" fill="black" text-anchor="start" font-family="Anuphan" font-weight="600">Input 3</text>
</g>
<g id="d3">
<rect x="0.005" y="0.005" width="0.3836111111111104" height="0.3836111111111104" fill="#252525" />
<rect x="0.3936111111111104" y="0.005" width="0.3836111111111104" height="0.3836111111111104" fill="#0074D9" />
<rect x="0.7822222222222208" y="0.005" width="0.3836111111111104" height="0.3836111111111104" fill="#252525" />
<rect x="0.005" y="0.3936111111111104" width="0.3836111111111104" height="0.3836111111111104" fill="#252525" />
<rect x="0.3936111111111104" y="0.3936111111111104" width="0.3836111111111104" height="0.3836111111111104" fill="#252525" />
<rect x="0.7822222222222208" y="0.3936111111111104" width="0.3836111111111104" height="0.3836111111111104" fill="#0074D9" />
<rect x="0.005" y="0.7822222222222208" width="0.3836111111111104" height="0.3836111111111104" fill="#252525" />
<rect x="0.3936111111111104" y="0.7822222222222208" width="0.3836111111111104" height="0.3836111111111104" fill="#252525" />
<rect x="0.7822222222222208" y="0.7822222222222208" width="0.3836111111111104" height="0.3836111111111104" fill="#252525" />
<rect x="-0.02666666666666667" y="-0.02666666666666667" width="1.2191666666666645" height="1.2191666666666645" fill="none" stroke="#111111ff" stroke-width="0.08" />
<text x="1.1658333333333313" y="1.6345833333333313" font-size="0.375" fill="black" text-anchor="end" font-family="Anuphan">3x3</text>
<text x="-0.037500000000000006" y="1.6345833333333313" font-size="0.375" fill="black" text-anchor="start" font-family="Anuphan" font-weight="600">Input 4</text>
</g>
<g id="d4">
<rect x="0.005" y="0.005" width="0.3836111111111104" height="0.3836111111111104" fill="#252525" />
<rect x="0.3936111111111104" y="0.005" width="0.3836111111111104" height="0.3836111111111104" fill="#252525" />
<rect x="0.7822222222222208" y="0.005" width="0.3836111111111104" height="0.3836111111111104" fill="#0074D9" />
<rect x="0.005" y="0.3936111111111104" width="0.3836111111111104" height="0.3836111111111104" fill="#252525" />
<rect x="0.3936111111111104" y="0.3936111111111104" width="0.3836111111111104" height="0.3836111111111104" fill="#252525" />
<rect x="0.7822222222222208" y="0.3936111111111104" width="0.3836111111111104" height="0.3836111111111104" fill="#252525" />
<rect x="0.005" y="0.7822222222222208" width="0.3836111111111104" height="0.3836111111111104" fill="#252525" />
<rect x="0.3936111111111104" y="0.7822222222222208" width="0.3836111111111104" height="0.3836111111111104" fill="#252525" />
<rect x="0.7822222222222208" y="0.7822222222222208" width="0.3836111111111104" height="0.3836111111111104" fill="#252525" />
<rect x="-0.02666666666666667" y="-0.02666666666666667" width="1.2191666666666645" height="1.2191666666666645" fill="none" stroke="#111111ff" stroke-width="0.08" />
<text x="1.1658333333333313" y="1.6345833333333313" font-size="0.375" fill="black" text-anchor="end" font-family="Anuphan">3x3</text>
<text x="-0.037500000000000006" y="1.6345833333333313" font-size="0.375" fill="black" text-anchor="start" font-family="Anuphan" font-weight="600">Input 5</text>
</g>
<g id="d5">
<rect x="0.005" y="0.005" width="0.3836111111111104" height="0.3836111111111104" fill="#0074D9" />
<rect x="0.3936111111111104" y="0.005" width="0.3836111111111104" height="0.3836111111111104" fill="#0074D9" />
<rect x="0.7822222222222208" y="0.005" width="0.3836111111111104" height="0.3836111111111104" fill="#252525" />
<rect x="0.005" y="0.3936111111111104" width="0.3836111111111104" height="0.3836111111111104" fill="#252525" />
<rect x="0.3936111111111104" y="0.3936111111111104" width="0.3836111111111104" height="0.3836111111111104" fill="#252525" />
<rect x="0.7822222222222208" y="0.3936111111111104" width="0.3836111111111104" height="0.3836111111111104" fill="#252525" />
<rect x="0.005" y="0.7822222222222208" width="0.3836111111111104" height="0.3836111111111104" fill="#0074D9" />
<rect x="0.3936111111111104" y="0.7822222222222208" width="0.3836111111111104" height="0.3836111111111104" fill="#252525" />
<rect x="0.7822222222222208" y="0.7822222222222208" width="0.3836111111111104" height="0.3836111111111104" fill="#252525" />
<rect x="-0.02666666666666667" y="-0.02666666666666667" width="1.2191666666666645" height="1.2191666666666645" fill="none" stroke="#111111ff" stroke-width="0.08" />
<text x="1.1658333333333313" y="1.6345833333333313" font-size="0.375" fill="black" text-anchor="end" font-family="Anuphan">3x3</text>
<text x="-0.037500000000000006" y="1.6345833333333313" font-size="0.375" fill="black" text-anchor="start" font-family="Anuphan" font-weight="600">Input 6</text>
</g>
<g id="d6">
<rect x="0.005" y="0.005" width="0.3836111111111104" height="0.3836111111111104" fill="#252525" />
<rect x="0.3936111111111104" y="0.005" width="0.3836111111111104" height="0.3836111111111104" fill="#0074D9" />
<rect x="0.7822222222222208" y="0.005" width="0.3836111111111104" height="0.3836111111111104" fill="#252525" />
<rect x="0.005" y="0.3936111111111104" width="0.3836111111111104" height="0.3836111111111104" fill="#0074D9" />
<rect x="0.3936111111111104" y="0.3936111111111104" width="0.3836111111111104" height="0.3836111111111104" fill="#0074D9" />
<rect x="0.7822222222222208" y="0.3936111111111104" width="0.3836111111111104" height="0.3836111111111104" fill="#252525" />
<rect x="0.005" y="0.7822222222222208" width="0.3836111111111104" height="0.3836111111111104" fill="#252525" />
<rect x="0.3936111111111104" y="0.7822222222222208" width="0.3836111111111104" height="0.3836111111111104" fill="#252525" />
<rect x="0.7822222222222208" y="0.7822222222222208" width="0.3836111111111104" height="0.3836111111111104" fill="#252525" />
<rect x="-0.02666666666666667" y="-0.02666666666666667" width="1.2191666666666645" height="1.2191666666666645" fill="none" stroke="#111111ff" stroke-width="0.08" />
<text x="1.1658333333333313" y="1.6345833333333313" font-size="0.375" fill="black" text-anchor="end" font-family="Anuphan">3x3</text>
<text x="-0.037500000000000006" y="1.6345833333333313" font-size="0.375" fill="black" text-anchor="start" font-family="Anuphan" font-weight="600">Input 7</text>
</g>
<g id="d7">
<rect x="0.005" y="0.005" width="0.3836111111111104" height="0.3836111111111104" fill="#0074D9" />
<rect x="0.3936111111111104" y="0.005" width="0.3836111111111104" height="0.3836111111111104" fill="#0074D9" />
<rect x="0.7822222222222208" y="0.005" width="0.3836111111111104" height="0.3836111111111104" fill="#252525" />
<rect x="0.005" y="0.3936111111111104" width="0.3836111111111104" height="0.3836111111111104" fill="#252525" />
<rect x="0.3936111111111104" y="0.3936111111111104" width="0.3836111111111104" height="0.3836111111111104" fill="#252525" />
<rect x="0.7822222222222208" y="0.3936111111111104" width="0.3836111111111104" height="0.3836111111111104" fill="#252525" />
<rect x="0.005" y="0.7822222222222208" width="0.3836111111111104" height="0.3836111111111104" fill="#0074D9" />
<rect x="0.3936111111111104" y="0.7822222222222208" width="0.3836111111111104" height="0.3836111111111104" fill="#252525" />
<rect x="0.7822222222222208" y="0.7822222222222208" width="0.3836111111111104" height="0.3836111111111104" fill="#0074D9" />
<rect x="-0.02666666666666667" y="-0.02666666666666667" width="1.2191666666666645" height="1.2191666666666645" fill="none" stroke="#111111ff" stroke-width="0.08" />
<text x="1.1658333333333313" y="1.6345833333333313" font-size="0.375" fill="black" text-anchor="end" font-family="Anuphan">3x3</text>
<text x="-0.037500000000000006" y="1.6345833333333313" font-size="0.375" fill="black" text-anchor="start" font-family="Anuphan" font-weight="600">Input 8</text>
</g>
<g id="d8">
<rect x="0.005" y="0.005" width="0.3836111111111104" height="0.3836111111111104" fill="#252525" />
<rect x="0.3936111111111104" y="0.005" width="0.3836111111111104" height="0.3836111111111104" fill="#0074D9" />
<rect x="0.7822222222222208" y="0.005" width="0.3836111111111104" height="0.3836111111111104" fill="#252525" />
<rect x="0.005" y="0.3936111111111104" width="0.3836111111111104" height="0.3836111111111104" fill="#0074D9" />
<rect x="0.3936111111111104" y="0.3936111111111104" width="0.3836111111111104" height="0.3836111111111104" fill="#0074D9" />
<rect x="0.7822222222222208" y="0.3936111111111104" width="0.3836111111111104" height="0.3836111111111104" fill="#252525" />
<rect x="0.005" y="0.7822222222222208" width="0.3836111111111104" height="0.3836111111111104" fill="#0074D9" />
<rect x="0.3936111111111104" y="0.7822222222222208" width="0.3836111111111104" height="0.3836111111111104" fill="#252525" />
<rect x="0.7822222222222208" y="0.7822222222222208" width="0.3836111111111104" height="0.3836111111111104" fill="#252525" />
<rect x="-0.02666666666666667" y="-0.02666666666666667" width="1.2191666666666645" height="1.2191666666666645" fill="none" stroke="#111111ff" stroke-width="0.08" />
<text x="1.1658333333333313" y="1.6345833333333313" font-size="0.375" fill="black" text-anchor="end" font-family="Anuphan">3x3</text>
<text x="-0.037500000000000006" y="1.6345833333333313" font-size="0.375" fill="black" text-anchor="start" font-family="Anuphan" font-weight="600">Input 9</text>
</g>
<g id="d9">
<rect x="0.005" y="0.005" width="0.3836111111111104" height="0.3836111111111104" fill="#0074D9" />
<rect x="0.3936111111111104" y="0.005" width="0.3836111111111104" height="0.3836111111111104" fill="#252525" />
<rect x="0.7822222222222208" y="0.005" width="0.3836111111111104" height="0.3836111111111104" fill="#252525" />
<rect x="0.005" y="0.3936111111111104" width="0.3836111111111104" height="0.3836111111111104" fill="#252525" />
<rect x="0.3936111111111104" y="0.3936111111111104" width="0.3836111111111104" height="0.3836111111111104" fill="#252525" />
<rect x="0.7822222222222208" y="0.3936111111111104" width="0.3836111111111104" height="0.3836111111111104" fill="#0074D9" />
<rect x="0.005" y="0.7822222222222208" width="0.3836111111111104" height="0.3836111111111104" fill="#252525" />
<rect x="0.3936111111111104" y="0.7822222222222208" width="0.3836111111111104" height="0.3836111111111104" fill="#0074D9" />
<rect x="0.7822222222222208" y="0.7822222222222208" width="0.3836111111111104" height="0.3836111111111104" fill="#0074D9" />
<rect x="-0.02666666666666667" y="-0.02666666666666667" width="1.2191666666666645" height="1.2191666666666645" fill="none" stroke="#111111ff" stroke-width="0.08" />
<text x="1.1658333333333313" y="1.6345833333333313" font-size="0.375" fill="black" text-anchor="end" font-family="Anuphan">3x3</text>
<text x="-0.037500000000000006" y="1.6345833333333313" font-size="0.375" fill="black" text-anchor="start" font-family="Anuphan" font-weight="600">Input 10</text>
</g>
<g id="d10">
<rect x="0.005" y="0.005" width="0.3836111111111104" height="0.3836111111111104" fill="#252525" />
<rect x="0.3936111111111104" y="0.005" width="0.3836111111111104" height="0.3836111111111104" fill="#0074D9" />
<rect x="0.7822222222222208" y="0.005" width="0.3836111111111104" height="0.3836111111111104" fill="#252525" />
<rect x="0.005" y="0.3936111111111104" width="0.3836111111111104" height="0.3836111111111104" fill="#252525" />
<rect x="0.3936111111111104" y="0.3936111111111104" width="0.3836111111111104" height="0.3836111111111104" fill="#252525" />
<rect x="0.7822222222222208" y="0.3936111111111104" width="0.3836111111111104" height="0.3836111111111104" fill="#252525" />
<rect x="0.005" y="0.7822222222222208" width="0.3836111111111104" height="0.3836111111111104" fill="#252525" />
<rect x="0.3936111111111104" y="0.7822222222222208" width="0.3836111111111104" height="0.3836111111111104" fill="#0074D9" />
<rect x="0.7822222222222208" y="0.7822222222222208" width="0.3836111111111104" height="0.3836111111111104" fill="#252525" />
<rect x="-0.02666666666666667" y="-0.02666666666666667" width="1.2191666666666645" height="1.2191666666666645" fill="none" stroke="#111111ff" stroke-width="0.08" />
<text x="1.1658333333333313" y="1.6345833333333313" font-size="0.375" fill="black" text-anchor="end" font-family="Anuphan">3x3</text>
<text x="-0.037500000000000006" y="1.6345833333333313" font-size="0.375" fill="black" text-anchor="start" font-family="Anuphan" font-weight="600">Test 1</text>
</g>
<g id="d11">
<rect x="0.005" y="0.005" width="0.3836111111111104" height="0.3836111111111104" fill="#252525" />
<rect x="0.3936111111111104" y="0.005" width="0.3836111111111104" height="0.3836111111111104" fill="#0074D9" />
<rect x="0.7822222222222208" y="0.005" width="0.3836111111111104" height="0.3836111111111104" fill="#252525" />
<rect x="0.005" y="0.3936111111111104" width="0.3836111111111104" height="0.3836111111111104" fill="#252525" />
<rect x="0.3936111111111104" y="0.3936111111111104" width="0.3836111111111104" height="0.3836111111111104" fill="#0074D9" />
<rect x="0.7822222222222208" y="0.3936111111111104" width="0.3836111111111104" height="0.3836111111111104" fill="#0074D9" />
<rect x="0.005" y="0.7822222222222208" width="0.3836111111111104" height="0.3836111111111104" fill="#0074D9" />
<rect x="0.3936111111111104" y="0.7822222222222208" width="0.3836111111111104" height="0.3836111111111104" fill="#252525" />
<rect x="0.7822222222222208" y="0.7822222222222208" width="0.3836111111111104" height="0.3836111111111104" fill="#252525" />
<rect x="-0.02666666666666667" y="-0.02666666666666667" width="1.2191666666666645" height="1.2191666666666645" fill="none" stroke="#111111ff" stroke-width="0.08" />
<text x="1.1658333333333313" y="1.6345833333333313" font-size="0.375" fill="black" text-anchor="end" font-family="Anuphan">3x3</text>
<text x="-0.037500000000000006" y="1.6345833333333313" font-size="0.375" fill="black" text-anchor="start" font-family="Anuphan" font-weight="600">Test 2</text>
</g>
<g id="d12">
<rect x="0.005" y="0.005" width="0.3836111111111104" height="0.3836111111111104" fill="#FF4136" />
<rect x="0.3936111111111104" y="0.005" width="0.3836111111111104" height="0.3836111111111104" fill="#252525" />
<rect x="0.7822222222222208" y="0.005" width="0.3836111111111104" height="0.3836111111111104" fill="#252525" />
<rect x="0.005" y="0.3936111111111104" width="0.3836111111111104" height="0.3836111111111104" fill="#252525" />
<rect x="0.3936111111111104" y="0.3936111111111104" width="0.3836111111111104" height="0.3836111111111104" fill="#252525" />
<rect x="0.7822222222222208" y="0.3936111111111104" width="0.3836111111111104" height="0.3836111111111104" fill="#252525" />
<rect x="0.005" y="0.7822222222222208" width="0.3836111111111104" height="0.3836111111111104" fill="#252525" />
<rect x="0.3936111111111104" y="0.7822222222222208" width="0.3836111111111104" height="0.3836111111111104" fill="#252525" />
<rect x="0.7822222222222208" y="0.7822222222222208" width="0.3836111111111104" height="0.3836111111111104" fill="#252525" />
<rect x="-0.02666666666666667" y="-0.02666666666666667" width="1.2191666666666645" height="1.2191666666666645" fill="none" stroke="#111111ff" stroke-width="0.08" />
<text x="1.1658333333333313" y="1.6345833333333313" font-size="0.375" fill="black" text-anchor="end" font-family="Anuphan">3x3</text>
<text x="-0.037500000000000006" y="1.6345833333333313" font-size="0.375" fill="black" text-anchor="start" font-family="Anuphan" font-weight="600">Output 1</text>
</g>
<g id="d13">
<rect x="0.005" y="0.005" width="0.3836111111111104" height="0.3836111111111104" fill="#FF4136" />
<rect x="0.3936111111111104" y="0.005" width="0.3836111111111104" height="0.3836111111111104" fill="#FF4136" />
<rect x="0.7822222222222208" y="0.005" width="0.3836111111111104" height="0.3836111111111104" fill="#252525" />
<rect x="0.005" y="0.3936111111111104" width="0.3836111111111104" height="0.3836111111111104" fill="#252525" />
<rect x="0.3936111111111104" y="0.3936111111111104" width="0.3836111111111104" height="0.3836111111111104" fill="#252525" />
<rect x="0.7822222222222208" y="0.3936111111111104" width="0.3836111111111104" height="0.3836111111111104" fill="#252525" />
<rect x="0.005" y="0.7822222222222208" width="0.3836111111111104" height="0.3836111111111104" fill="#252525" />
<rect x="0.3936111111111104" y="0.7822222222222208" width="0.3836111111111104" height="0.3836111111111104" fill="#252525" />
<rect x="0.7822222222222208" y="0.7822222222222208" width="0.3836111111111104" height="0.3836111111111104" fill="#252525" />
<rect x="-0.02666666666666667" y="-0.02666666666666667" width="1.2191666666666645" height="1.2191666666666645" fill="none" stroke="#111111ff" stroke-width="0.08" />
<text x="1.1658333333333313" y="1.6345833333333313" font-size="0.375" fill="black" text-anchor="end" font-family="Anuphan">3x3</text>
<text x="-0.037500000000000006" y="1.6345833333333313" font-size="0.375" fill="black" text-anchor="start" font-family="Anuphan" font-weight="600">Output 2</text>
</g>
<g id="d14">
<rect x="0.005" y="0.005" width="0.3836111111111104" height="0.3836111111111104" fill="#FF4136" />
<rect x="0.3936111111111104" y="0.005" width="0.3836111111111104" height="0.3836111111111104" fill="#FF4136" />
<rect x="0.7822222222222208" y="0.005" width="0.3836111111111104" height="0.3836111111111104" fill="#252525" />
<rect x="0.005" y="0.3936111111111104" width="0.3836111111111104" height="0.3836111111111104" fill="#252525" />
<rect x="0.3936111111111104" y="0.3936111111111104" width="0.3836111111111104" height="0.3836111111111104" fill="#252525" />
<rect x="0.7822222222222208" y="0.3936111111111104" width="0.3836111111111104" height="0.3836111111111104" fill="#252525" />
<rect x="0.005" y="0.7822222222222208" width="0.3836111111111104" height="0.3836111111111104" fill="#252525" />
<rect x="0.3936111111111104" y="0.7822222222222208" width="0.3836111111111104" height="0.3836111111111104" fill="#252525" />
<rect x="0.7822222222222208" y="0.7822222222222208" width="0.3836111111111104" height="0.3836111111111104" fill="#252525" />
<rect x="-0.02666666666666667" y="-0.02666666666666667" width="1.2191666666666645" height="1.2191666666666645" fill="none" stroke="#111111ff" stroke-width="0.08" />
<text x="1.1658333333333313" y="1.6345833333333313" font-size="0.375" fill="black" text-anchor="end" font-family="Anuphan">3x3</text>
<text x="-0.037500000000000006" y="1.6345833333333313" font-size="0.375" fill="black" text-anchor="start" font-family="Anuphan" font-weight="600">Output 3</text>
</g>
<g id="d15">
<rect x="0.005" y="0.005" width="0.3836111111111104" height="0.3836111111111104" fill="#FF4136" />
<rect x="0.3936111111111104" y="0.005" width="0.3836111111111104" height="0.3836111111111104" fill="#FF4136" />
<rect x="0.7822222222222208" y="0.005" width="0.3836111111111104" height="0.3836111111111104" fill="#252525" />
<rect x="0.005" y="0.3936111111111104" width="0.3836111111111104" height="0.3836111111111104" fill="#252525" />
<rect x="0.3936111111111104" y="0.3936111111111104" width="0.3836111111111104" height="0.3836111111111104" fill="#252525" />
<rect x="0.7822222222222208" y="0.3936111111111104" width="0.3836111111111104" height="0.3836111111111104" fill="#252525" />
<rect x="0.005" y="0.7822222222222208" width="0.3836111111111104" height="0.3836111111111104" fill="#252525" />
<rect x="0.3936111111111104" y="0.7822222222222208" width="0.3836111111111104" height="0.3836111111111104" fill="#252525" />
<rect x="0.7822222222222208" y="0.7822222222222208" width="0.3836111111111104" height="0.3836111111111104" fill="#252525" />
<rect x="-0.02666666666666667" y="-0.02666666666666667" width="1.2191666666666645" height="1.2191666666666645" fill="none" stroke="#111111ff" stroke-width="0.08" />
<text x="1.1658333333333313" y="1.6345833333333313" font-size="0.375" fill="black" text-anchor="end" font-family="Anuphan">3x3</text>
<text x="-0.037500000000000006" y="1.6345833333333313" font-size="0.375" fill="black" text-anchor="start" font-family="Anuphan" font-weight="600">Output 4</text>
</g>
<g id="d16">
<rect x="0.005" y="0.005" width="0.3836111111111104" height="0.3836111111111104" fill="#FF4136" />
<rect x="0.3936111111111104" y="0.005" width="0.3836111111111104" height="0.3836111111111104" fill="#252525" />
<rect x="0.7822222222222208" y="0.005" width="0.3836111111111104" height="0.3836111111111104" fill="#252525" />
<rect x="0.005" y="0.3936111111111104" width="0.3836111111111104" height="0.3836111111111104" fill="#252525" />
<rect x="0.3936111111111104" y="0.3936111111111104" width="0.3836111111111104" height="0.3836111111111104" fill="#252525" />
<rect x="0.7822222222222208" y="0.3936111111111104" width="0.3836111111111104" height="0.3836111111111104" fill="#252525" />
<rect x="0.005" y="0.7822222222222208" width="0.3836111111111104" height="0.3836111111111104" fill="#252525" />
<rect x="0.3936111111111104" y="0.7822222222222208" width="0.3836111111111104" height="0.3836111111111104" fill="#252525" />
<rect x="0.7822222222222208" y="0.7822222222222208" width="0.3836111111111104" height="0.3836111111111104" fill="#252525" />
<rect x="-0.02666666666666667" y="-0.02666666666666667" width="1.2191666666666645" height="1.2191666666666645" fill="none" stroke="#111111ff" stroke-width="0.08" />
<text x="1.1658333333333313" y="1.6345833333333313" font-size="0.375" fill="black" text-anchor="end" font-family="Anuphan">3x3</text>
<text x="-0.037500000000000006" y="1.6345833333333313" font-size="0.375" fill="black" text-anchor="start" font-family="Anuphan" font-weight="600">Output 5</text>
</g>
<g id="d17">
<rect x="0.005" y="0.005" width="0.3836111111111104" height="0.3836111111111104" fill="#FF4136" />
<rect x="0.3936111111111104" y="0.005" width="0.3836111111111104" height="0.3836111111111104" fill="#FF4136" />
<rect x="0.7822222222222208" y="0.005" width="0.3836111111111104" height="0.3836111111111104" fill="#FF4136" />
<rect x="0.005" y="0.3936111111111104" width="0.3836111111111104" height="0.3836111111111104" fill="#252525" />
<rect x="0.3936111111111104" y="0.3936111111111104" width="0.3836111111111104" height="0.3836111111111104" fill="#252525" />
<rect x="0.7822222222222208" y="0.3936111111111104" width="0.3836111111111104" height="0.3836111111111104" fill="#252525" />
<rect x="0.005" y="0.7822222222222208" width="0.3836111111111104" height="0.3836111111111104" fill="#252525" />
<rect x="0.3936111111111104" y="0.7822222222222208" width="0.3836111111111104" height="0.3836111111111104" fill="#252525" />
<rect x="0.7822222222222208" y="0.7822222222222208" width="0.3836111111111104" height="0.3836111111111104" fill="#252525" />
<rect x="-0.02666666666666667" y="-0.02666666666666667" width="1.2191666666666645" height="1.2191666666666645" fill="none" stroke="#111111ff" stroke-width="0.08" />
<text x="1.1658333333333313" y="1.6345833333333313" font-size="0.375" fill="black" text-anchor="end" font-family="Anuphan">3x3</text>
<text x="-0.037500000000000006" y="1.6345833333333313" font-size="0.375" fill="black" text-anchor="start" font-family="Anuphan" font-weight="600">Output 6</text>
</g>
<g id="d18">
<rect x="0.005" y="0.005" width="0.3836111111111104" height="0.3836111111111104" fill="#FF4136" />
<rect x="0.3936111111111104" y="0.005" width="0.3836111111111104" height="0.3836111111111104" fill="#FF4136" />
<rect x="0.7822222222222208" y="0.005" width="0.3836111111111104" height="0.3836111111111104" fill="#FF4136" />
<rect x="0.005" y="0.3936111111111104" width="0.3836111111111104" height="0.3836111111111104" fill="#252525" />
<rect x="0.3936111111111104" y="0.3936111111111104" width="0.3836111111111104" height="0.3836111111111104" fill="#252525" />
<rect x="0.7822222222222208" y="0.3936111111111104" width="0.3836111111111104" height="0.3836111111111104" fill="#252525" />
<rect x="0.005" y="0.7822222222222208" width="0.3836111111111104" height="0.3836111111111104" fill="#252525" />
<rect x="0.3936111111111104" y="0.7822222222222208" width="0.3836111111111104" height="0.3836111111111104" fill="#252525" />
<rect x="0.7822222222222208" y="0.7822222222222208" width="0.3836111111111104" height="0.3836111111111104" fill="#252525" />
<rect x="-0.02666666666666667" y="-0.02666666666666667" width="1.2191666666666645" height="1.2191666666666645" fill="none" stroke="#111111ff" stroke-width="0.08" />
<text x="1.1658333333333313" y="1.6345833333333313" font-size="0.375" fill="black" text-anchor="end" font-family="Anuphan">3x3</text>
<text x="-0.037500000000000006" y="1.6345833333333313" font-size="0.375" fill="black" text-anchor="start" font-family="Anuphan" font-weight="600">Output 7</text>
</g>
<g id="d19">
<rect x="0.005" y="0.005" width="0.3836111111111104" height="0.3836111111111104" fill="#FF4136" />
<rect x="0.3936111111111104" y="0.005" width="0.3836111111111104" height="0.3836111111111104" fill="#FF4136" />
<rect x="0.7822222222222208" y="0.005" width="0.3836111111111104" height="0.3836111111111104" fill="#FF4136" />
<rect x="0.005" y="0.3936111111111104" width="0.3836111111111104" height="0.3836111111111104" fill="#252525" />
<rect x="0.3936111111111104" y="0.3936111111111104" width="0.3836111111111104" height="0.3836111111111104" fill="#FF4136" />
<rect x="0.7822222222222208" y="0.3936111111111104" width="0.3836111111111104" height="0.3836111111111104" fill="#252525" />
<rect x="0.005" y="0.7822222222222208" width="0.3836111111111104" height="0.3836111111111104" fill="#252525" />
<rect x="0.3936111111111104" y="0.7822222222222208" width="0.3836111111111104" height="0.3836111111111104" fill="#252525" />
<rect x="0.7822222222222208" y="0.7822222222222208" width="0.3836111111111104" height="0.3836111111111104" fill="#252525" />
<rect x="-0.02666666666666667" y="-0.02666666666666667" width="1.2191666666666645" height="1.2191666666666645" fill="none" stroke="#111111ff" stroke-width="0.08" />
<text x="1.1658333333333313" y="1.6345833333333313" font-size="0.375" fill="black" text-anchor="end" font-family="Anuphan">3x3</text>
<text x="-0.037500000000000006" y="1.6345833333333313" font-size="0.375" fill="black" text-anchor="start" font-family="Anuphan" font-weight="600">Output 8</text>
</g>
<g id="d20">
<rect x="0.005" y="0.005" width="0.3836111111111104" height="0.3836111111111104" fill="#FF4136" />
<rect x="0.3936111111111104" y="0.005" width="0.3836111111111104" height="0.3836111111111104" fill="#FF4136" />
<rect x="0.7822222222222208" y="0.005" width="0.3836111111111104" height="0.3836111111111104" fill="#FF4136" />
<rect x="0.005" y="0.3936111111111104" width="0.3836111111111104" height="0.3836111111111104" fill="#252525" />
<rect x="0.3936111111111104" y="0.3936111111111104" width="0.3836111111111104" height="0.3836111111111104" fill="#FF4136" />
<rect x="0.7822222222222208" y="0.3936111111111104" width="0.3836111111111104" height="0.3836111111111104" fill="#252525" />
<rect x="0.005" y="0.7822222222222208" width="0.3836111111111104" height="0.3836111111111104" fill="#252525" />
<rect x="0.3936111111111104" y="0.7822222222222208" width="0.3836111111111104" height="0.3836111111111104" fill="#252525" />
<rect x="0.7822222222222208" y="0.7822222222222208" width="0.3836111111111104" height="0.3836111111111104" fill="#252525" />
<rect x="-0.02666666666666667" y="-0.02666666666666667" width="1.2191666666666645" height="1.2191666666666645" fill="none" stroke="#111111ff" stroke-width="0.08" />
<text x="1.1658333333333313" y="1.6345833333333313" font-size="0.375" fill="black" text-anchor="end" font-family="Anuphan">3x3</text>
<text x="-0.037500000000000006" y="1.6345833333333313" font-size="0.375" fill="black" text-anchor="start" font-family="Anuphan" font-weight="600">Output 9</text>
</g>
<g id="d21">
<rect x="0.005" y="0.005" width="0.3836111111111104" height="0.3836111111111104" fill="#FF4136" />
<rect x="0.3936111111111104" y="0.005" width="0.3836111111111104" height="0.3836111111111104" fill="#FF4136" />
<rect x="0.7822222222222208" y="0.005" width="0.3836111111111104" height="0.3836111111111104" fill="#FF4136" />
<rect x="0.005" y="0.3936111111111104" width="0.3836111111111104" height="0.3836111111111104" fill="#252525" />
<rect x="0.3936111111111104" y="0.3936111111111104" width="0.3836111111111104" height="0.3836111111111104" fill="#FF4136" />
<rect x="0.7822222222222208" y="0.3936111111111104" width="0.3836111111111104" height="0.3836111111111104" fill="#252525" />
<rect x="0.005" y="0.7822222222222208" width="0.3836111111111104" height="0.3836111111111104" fill="#252525" />
<rect x="0.3936111111111104" y="0.7822222222222208" width="0.3836111111111104" height="0.3836111111111104" fill="#252525" />
<rect x="0.7822222222222208" y="0.7822222222222208" width="0.3836111111111104" height="0.3836111111111104" fill="#252525" />
<rect x="-0.02666666666666667" y="-0.02666666666666667" width="1.2191666666666645" height="1.2191666666666645" fill="none" stroke="#111111ff" stroke-width="0.08" />
<text x="1.1658333333333313" y="1.6345833333333313" font-size="0.375" fill="black" text-anchor="end" font-family="Anuphan">3x3</text>
<text x="-0.037500000000000006" y="1.6345833333333313" font-size="0.375" fill="black" text-anchor="start" font-family="Anuphan" font-weight="600">Output 10</text>
</g>
</defs>
<rect x="0" y="0" width="100%" height="100%" fill="#eeeff6" />
<use xlink:href="#d0" x="0.25" y="0.25" />
<use xlink:href="#d1" x="1.9158333333333313" y="0.25" />
<use xlink:href="#d2" x="3.5816666666666626" y="0.25" />
<use xlink:href="#d3" x="5.247499999999993" y="0.25" />
<use xlink:href="#d4" x="6.913333333333325" y="0.25" />
<use xlink:href="#d5" x="8.579166666666657" y="0.25" />
<use xlink:href="#d6" x="10.244999999999989" y="0.25" />
<use xlink:href="#d7" x="11.91083333333332" y="0.25" />
<use xlink:href="#d8" x="13.576666666666652" y="0.25" />
<use xlink:href="#d9" x="15.242499999999984" y="0.25" />
<use xlink:href="#d10" x="16.908333333333314" y="0.25" />
<use xlink:href="#d11" x="18.574166666666645" y="0.25" />
<path d="M0.8329166666666656,2.065833333333331 L0.8329166666666656,2.465833333333331" stroke-width="0.05" stroke="#888888" />
<path d="M0.6829166666666656,2.2658333333333314 L0.8329166666666656,2.465833333333331" stroke-width="0.05" stroke="#888888" />
<path d="M0.9829166666666657,2.2658333333333314 L0.8329166666666656,2.465833333333331" stroke-width="0.05" stroke="#888888" />
<use xlink:href="#d12" x="0.25" y="2.815833333333331" />
<path d="M2.4987499999999967,2.065833333333331 L2.4987499999999967,2.465833333333331" stroke-width="0.05" stroke="#888888" />
<path d="M2.348749999999997,2.2658333333333314 L2.4987499999999967,2.465833333333331" stroke-width="0.05" stroke="#888888" />
<path d="M2.6487499999999966,2.2658333333333314 L2.4987499999999967,2.465833333333331" stroke-width="0.05" stroke="#888888" />
<use xlink:href="#d13" x="1.9158333333333313" y="2.815833333333331" />
<path d="M4.164583333333328,2.065833333333331 L4.164583333333328,2.465833333333331" stroke-width="0.05" stroke="#888888" />
<path d="M4.014583333333328,2.2658333333333314 L4.164583333333328,2.465833333333331" stroke-width="0.05" stroke="#888888" />
<path d="M4.314583333333329,2.2658333333333314 L4.164583333333328,2.465833333333331" stroke-width="0.05" stroke="#888888" />
<use xlink:href="#d14" x="3.5816666666666626" y="2.815833333333331" />
<path d="M5.830416666666659,2.065833333333331 L5.830416666666659,2.465833333333331" stroke-width="0.05" stroke="#888888" />
<path d="M5.680416666666659,2.2658333333333314 L5.830416666666659,2.465833333333331" stroke-width="0.05" stroke="#888888" />
<path d="M5.98041666666666,2.2658333333333314 L5.830416666666659,2.465833333333331" stroke-width="0.05" stroke="#888888" />
<use xlink:href="#d15" x="5.247499999999993" y="2.815833333333331" />
<path d="M7.496249999999991,2.065833333333331 L7.496249999999991,2.465833333333331" stroke-width="0.05" stroke="#888888" />
<path d="M7.346249999999991,2.2658333333333314 L7.496249999999991,2.465833333333331" stroke-width="0.05" stroke="#888888" />
<path d="M7.646249999999991,2.2658333333333314 L7.496249999999991,2.465833333333331" stroke-width="0.05" stroke="#888888" />
<use xlink:href="#d16" x="6.913333333333325" y="2.815833333333331" />
<path d="M9.162083333333323,2.065833333333331 L9.162083333333323,2.465833333333331" stroke-width="0.05" stroke="#888888" />
<path d="M9.012083333333322,2.2658333333333314 L9.162083333333323,2.465833333333331" stroke-width="0.05" stroke="#888888" />
<path d="M9.312083333333323,2.2658333333333314 L9.162083333333323,2.465833333333331" stroke-width="0.05" stroke="#888888" />
<use xlink:href="#d17" x="8.579166666666657" y="2.815833333333331" />
<path d="M10.827916666666654,2.065833333333331 L10.827916666666654,2.465833333333331" stroke-width="0.05" stroke="#888888" />
<path d="M10.677916666666654,2.2658333333333314 L10.827916666666654,2.465833333333331" stroke-width="0.05" stroke="#888888" />
<path d="M10.977916666666655,2.2658333333333314 L10.827916666666654,2.465833333333331" stroke-width="0.05" stroke="#888888" />
<use xlink:href="#d18" x="10.244999999999989" y="2.815833333333331" />
<path d="M12.493749999999986,2.065833333333331 L12.493749999999986,2.465833333333331" stroke-width="0.05" stroke="#888888" />
<path d="M12.343749999999986,2.2658333333333314 L12.493749999999986,2.465833333333331" stroke-width="0.05" stroke="#888888" />
<path d="M12.643749999999986,2.2658333333333314 L12.493749999999986,2.465833333333331" stroke-width="0.05" stroke="#888888" />
<use xlink:href="#d19" x="11.91083333333332" y="2.815833333333331" />
<path d="M14.159583333333318,2.065833333333331 L14.159583333333318,2.465833333333331" stroke-width="0.05" stroke="#888888" />
<path d="M14.009583333333318,2.2658333333333314 L14.159583333333318,2.465833333333331" stroke-width="0.05" stroke="#888888" />
<path d="M14.309583333333318,2.2658333333333314 L14.159583333333318,2.465833333333331" stroke-width="0.05" stroke="#888888" />
<use xlink:href="#d20" x="13.576666666666652" y="2.815833333333331" />
<path d="M15.82541666666665,2.065833333333331 L15.82541666666665,2.465833333333331" stroke-width="0.05" stroke="#888888" />
<path d="M15.67541666666665,2.2658333333333314 L15.82541666666665,2.465833333333331" stroke-width="0.05" stroke="#888888" />
<path d="M15.97541666666665,2.2658333333333314 L15.82541666666665,2.465833333333331" stroke-width="0.05" stroke="#888888" />
<use xlink:href="#d21" x="15.242499999999984" y="2.815833333333331" />
<path d="M17.49124999999998,2.065833333333331 L17.49124999999998,2.465833333333331" stroke-width="0.05" stroke="#888888" />
<path d="M17.34124999999998,2.2658333333333314 L17.49124999999998,2.465833333333331" stroke-width="0.05" stroke="#888888" />
<path d="M17.641249999999978,2.2658333333333314 L17.49124999999998,2.465833333333331" stroke-width="0.05" stroke="#888888" />
<text x="17.49124999999998" y="3.4987499999999967" font-size="1" font-family="Anuphan" font-weight="700" fill="#333333" text-anchor="middle" alignment-baseline="middle">?</text>
<path d="M19.15708333333331,2.065833333333331 L19.15708333333331,2.465833333333331" stroke-width="0.05" stroke="#888888" />
<path d="M19.007083333333313,2.2658333333333314 L19.15708333333331,2.465833333333331" stroke-width="0.05" stroke="#888888" />
<path d="M19.30708333333331,2.2658333333333314 L19.15708333333331,2.465833333333331" stroke-width="0.05" stroke="#888888" />
<text x="19.15708333333331" y="3.4987499999999967" font-size="1" font-family="Anuphan" font-weight="700" fill="#333333" text-anchor="middle" alignment-baseline="middle">?</text>
<text x="19.9" y="4.8" font-size="0.3" font-family="Anuphan" font-weight="600" fill="#666666" text-anchor="end" alignment-baseline="bottom">Task 794b24be</text>
</svg>