<?xml version="1.0" encoding="UTF-8"?>
<svg xmlns="http://www.w3.org/2000/svg" xmlns:xlink="http://www.w3.org/1999/xlink"
     width="800.0" height="516.0" viewBox="0 0 20.0 12.899999999999999">
<defs>
<g id="d0">
<rect x="0.005" y="0.005" width="0.49472222222222256" height="0.49472222222222256" fill="#252525" />
<rect x="0.5047222222222225" y="0.005" width="0.49472222222222256" height="0.49472222222222256" fill="#252525" />
<rect x="1.0044444444444451" y="0.005" width="0.49472222222222256" height="0.49472222222222256" fill="#252525" />
<rect x="1.5041666666666675" y="0.005" width="0.49472222222222256" height="0.49472222222222256" fill="#252525" />
<rect x="2.0038888888888904" y="0.005" width="0.49472222222222256" height="0.49472222222222256" fill="#252525" />
<rect x="2.5036111111111126" y="0.005" width="0.49472222222222256" height="0.49472222222222256" fill="#252525" />
<rect x="3.003333333333335" y="0.005" width="0.49472222222222256" height="0.49472222222222256" fill="#252525" />
<rect x="3.503055555555558" y="0.005" width="0.49472222222222256" height="0.49472222222222256" fill="#252525" />
<rect x="4.002777777777781" y="0.005" width="0.49472222222222256" height="0.49472222222222256" fill="#252525" />
<rect x="0.005" y="0.5047222222222225" width="0.49472222222222256" height="0.49472222222222256" fill="#252525" />
<rect x="0.5047222222222225" y="0.5047222222222225" width="0.49472222222222256" height="0.49472222222222256" fill="#54D2EB" />
<rect x="1.0044444444444451" y="0.5047222222222225" width="0.49472222222222256" height="0.49472222222222256" fill="#252525" />
<rect x="1.5041666666666675" y="0.5047222222222225" width="0.49472222222222256" height="0.49472222222222256" fill="#252525" />
<rect x="2.0038888888888904" y="0.5047222222222225" width="0.49472222222222256" height="0.49472222222222256" fill="#252525" />
<rect x="2.5036111111111126" y="0.5047222222222225" width="0.49472222222222256" height="0.49472222222222256" fill="#54D2EB" />
<rect x="3.003333333333335" y="0.5047222222222225" width="0.49472222222222256" height="0.49472222222222256" fill="#252525" />
<rect x="3.503055555555558" y="0.5047222222222225" width="0.49472222222222256" height="0.49472222222222256" fill="#252525" />
<rect x="4.002777777777781" y="0.5047222222222225" width="0.49472222222222256" height="0.49472222222222256" fill="#54D2EB" />
<rect x="0.005" y="1.0044444444444451" width="0.49472222222222256" height="0.49472222222222256" fill="#252525" />
<rect x="0.5047222222222225" y="1.0044444444444451" width="0.49472222222222256" height="0.49472222222222256" fill="#E6E6E6" />
<rect x="1.0044444444444451" y="1.0044444444444451" width="0.49472222222222256" height="0.49472222222222256" fill="#252525" />
<rect x="1.5041666666666675" y="1.0044444444444451" width="0.49472222222222256" height="0.49472222222222256" fill="#252525" />
<rect x="2.0038888888888904" y="1.0044444444444451" width="0.49472222222222256" height="0.49472222222222256" fill="#252525" />
<rect x="2.5036111111111126" y="1.0044444444444451" width="0.49472222222222256" height="0.49472222222222256" fill="#E6E6E6" />
<rect x="3.003333333333335" y="1.0044444444444451" width="0.49472222222222256" height="0.49472222222222256" fill="#252525" />
<rect x="3.503055555555558" y="1.0044444444444451" width="0.49472222222222256" height="0.49472222222222256" fill="#252525" />
<rect x="4.002777777777781" y="1.0044444444444451" width="0.49472222222222256" height="0.49472222222222256" fill="#252525" />
<rect x="0.005" y="1.5041666666666675" width="0.49472222222222256" height="0.49472222222222256" fill="#252525" />
<rect x="0.5047222222222225" y="1.5041666666666675" width="0.49472222222222256" height="0.49472222222222256" fill="#E6E6E6" />
<rect x="1.0044444444444451" y="1.5041666666666675" width="0.49472222222222256" height="0.49472222222222256" fill="#252525" />
<rect x="1.5041666666666675" y="1.5041666666666675" width="0.49472222222222256" height="0.49472222222222256" fill="#54D2EB" />
<rect x="2.0038888888888904" y="1.5041666666666675" width="0.49472222222222256" height="0.49472222222222256" fill="#252525" />
<rect x="2.5036111111111126" y="1.5041666666666675" width="0.49472222222222256" height="0.49472222222222256" fill="#E6E6E6" />
<rect x="3.003333333333335" y="1.5041666666666675" width="0.49472222222222256" height="0.49472222222222256" fill="#252525" />
<rect x="3.503055555555558" y="1.5041666666666675" width="0.49472222222222256" height="0.49472222222222256" fill="#54D2EB" />
<rect x="4.002777777777781" y="1.5041666666666675" width="0.49472222222222256" height="0.49472222222222256" fill="#252525" />
<rect x="0.005" y="2.0038888888888904" width="0.49472222222222256" height="0.49472222222222256" fill="#252525" />
<rect x="0.5047222222222225" y="2.0038888888888904" width="0.49472222222222256" height="0.49472222222222256" fill="#E6E6E6" />
<rect x="1.0044444444444451" y="2.0038888888888904" width="0.49472222222222256" height="0.49472222222222256" fill="#252525" />
<rect x="1.5041666666666675" y="2.0038888888888904" width="0.49472222222222256" height="0.49472222222222256" fill="#252525" />
<rect x="2.0038888888888904" y="2.0038888888888904" width="0.49472222222222256" height="0.49472222222222256" fill="#252525" />
<rect x="2.5036111111111126" y="2.0038888888888904" width="0.49472222222222256" height="0.49472222222222256" fill="#E6E6E6" />
<rect x="3.003333333333335" y="2.0038888888888904" width="0.49472222222222256" height="0.49472222222222256" fill="#252525" />
<rect x="3.503055555555558" y="2.0038888888888904" width="0.49472222222222256" height="0.49472222222222256" fill="#252525" />
<rect x="4.002777777777781" y="2.0038888888888904" width="0.49472222222222256" height="0.49472222222222256" fill="#252525" />
<rect x="0.005" y="2.5036111111111126" width="0.49472222222222256" height="0.49472222222222256" fill="#252525" />
<rect x="0.5047222222222225" y="2.5036111111111126" width="0.49472222222222256" height="0.49472222222222256" fill="#54D2EB" />
<rect x="1.0044444444444451" y="2.5036111111111126" width="0.49472222222222256" height="0.49472222222222256" fill="#252525" />
<rect x="1.5041666666666675" y="2.5036111111111126" width="0.49472222222222256" height="0.49472222222222256" fill="#252525" />
<rect x="2.0038888888888904" y="2.5036111111111126" width="0.49472222222222256" height="0.49472222222222256" fill="#252525" />
<rect x="2.5036111111111126" y="2.5036111111111126" width="0.49472222222222256" height="0.49472222222222256" fill="#54D2EB" />
<rect x="3.003333333333335" y="2.5036111111111126" width="0.49472222222222256" height="0.49472222222222256" fill="#252525" />
<rect x="3.503055555555558" y="2.5036111111111126" width="0.49472222222222256" height="0.49472222222222256" fill="#252525" />
<rect x="4.002777777777781" y="2.5036111111111126" width="0.49472222222222256" height="0.49472222222222256" fill="#252525" />
<rect x="0.005" y="3.003333333333335" width="0.49472222222222256" height="0.49472222222222256" fill="#252525" />
<rect x="0.5047222222222225" y="3.003333333333335" width="0.49472222222222256" height="0.49472222222222256" fill="#252525" />
<rect x="1.0044444444444451" y="3.003333333333335" width="0.49472222222222256" height="0.49472222222222256" fill="#252525" />
<rect x="1.5041666666666675" y="3.003333333333335" width="0.49472222222222256" height="0.49472222222222256" fill="#252525" />
<rect x="2.0038888888888904" y="3.003333333333335" width="0.49472222222222256" height="0.49472222222222256" fill="#252525" />
<rect x="2.5036111111111126" y="3.003333333333335" width="0.49472222222222256" height="0.49472222222222256" fill="#252525" />
<rect x="3.003333333333335" y="3.003333333333335" width="0.49472222222222256" height="0.49472222222222256" fill="#252525" />
<rect x="3.503055555555558" y="3.003333333333335" width="0.49472222222222256" height="0.49472222222222256" fill="#252525" />
<rect x="4.002777777777781" y="3.003333333333335" width="0.49472222222222256" height="0.49472222222222256" fill="#252525" />
<rect x="0.005" y="3.503055555555558" width="0.49472222222222256" height="0.49472222222222256" fill="#252525" />
<rect x="0.5047222222222225" y="3.503055555555558" width="0.49472222222222256" height="0.49472222222222256" fill="#252525" />
<rect x="1.0044444444444451" y="3.503055555555558" width="0.49472222222222256" height="0.49472222222222256" fill="#252525" />
<rect x="1.5041666666666675" y="3.503055555555558" width="0.49472222222222256" height="0.49472222222222256" fill="#54D2EB" />
<rect x="2.0038888888888904" y="3.503055555555558" width="0.49472222222222256" height="0.49472222222222256" fill="#252525" />
<rect x="2.5036111111111126" y="3.503055555555558" width="0.49472222222222256" height="0.49472222222222256" fill="#252525" />
<rect x="3.003333333333335" y="3.503055555555558" width="0.49472222222222256" height="0.49472222222222256" fill="#252525" />
<rect x="3.503055555555558" y="3.503055555555558" width="0.49472222222222256" height="0.49472222222222256" fill="#54D2EB" />
<rect x="4.002777777777781" y="3.503055555555558" width="0.49472222222222256" height="0.49472222222222256" fill="#252525" />
<rect x="0.005" y="4.002777777777781" width="0.49472222222222256" height="0.49472222222222256" fill="#252525" />
<rect x="0.5047222222222225" y="4.002777777777781" width="0.49472222222222256" height="0.49472222222222256" fill="#54D2EB" />
<rect x="1.0044444444444451" y="4.002777777777781" width="0.49472222222222256" height="0.49472222222222256" fill="#252525" />
<rect x="1.5041666666666675" y="4.002777777777781" width="0.49472222222222256" height="0.49472222222222256" fill="#252525" />
<rect x="2.0038888888888904" y="4.002777777777781" width="0.49472222222222256" height="0.49472222222222256" fill="#252525" />
<rect x="2.5036111111111126" y="4.002777777777781" width="0.49472222222222256" height="0.49472222222222256" fill="#252525" />
<rect x="3.003333333333335" y="4.002777777777781" width="0.49472222222222256" height="0.49472222222222256" fill="#252525" />
<rect x="3.503055555555558" y="4.002777777777781" width="0.49472222222222256" height="0.49472222222222256" fill="#252525" />
<rect x="4.002777777777781" y="4.002777777777781" width="0.49472222222222256" height="0.49472222222222256" fill="#252525" />
<rect x="-0.02666666666666667" y="-0.02666666666666667" width="4.550833333333337" height="4.550833333333337" fill="none" stroke="#111111ff" stroke-width="0.08" />
<text x="4.497500000000003" y="4.966250000000003" font-size="0.375" fill="black" text-anchor="end" font-family="Anuphan">9x9</text>
<text x="-0.037500000000000006" y="4.966250000000003" font-size="0.375" fill="black" text-anchor="start" font-family="Anuphan" font-weight="600">Input 1</text>
</g>
<g id="d1">
<rect x="0.005" y="0.005" width="0.40386363636363665" height="0.40386363636363665" fill="#252525" />
<rect x="0.41386363636363666" y="0.005" width="0.40386363636363665" height="0.40386363636363665" fill="#54D2EB" />
<rect x="0.8227272727272733" y="0.005" width="0.40386363636363665" height="0.40386363636363665" fill="#252525" />
<rect x="1.2315909090909098" y="0.005" width="0.40386363636363665" height="0.40386363636363665" fill="#252525" />
<rect x="1.6404545454545465" y="0.005" width="0.40386363636363665" height="0.40386363636363665" fill="#252525" />
<rect x="2.049318181818183" y="0.005" width="0.40386363636363665" height="0.40386363636363665" fill="#252525" />
<rect x="2.45818181818182" y="0.005" width="0.40386363636363665" height="0.40386363636363665" fill="#252525" />
<rect x="2.8670454545454565" y="0.005" width="0.40386363636363665" height="0.40386363636363665" fill="#252525" />
<rect x="3.275909090909093" y="0.005" width="0.40386363636363665" height="0.40386363636363665" fill="#252525" />
<rect x="3.6847727272727298" y="0.005" width="0.40386363636363665" height="0.40386363636363665" fill="#252525" />
<rect x="4.093636363636366" y="0.005" width="0.40386363636363665" height="0.40386363636363665" fill="#252525" />
<rect x="0.005" y="0.41386363636363666" width="0.40386363636363665" height="0.40386363636363665" fill="#252525" />
<rect x="0.41386363636363666" y="0.41386363636363666" width="0.40386363636363665" height="0.40386363636363665" fill="#252525" />
<rect x="0.8227272727272733" y="0.41386363636363666" width="0.40386363636363665" height="0.40386363636363665" fill="#54D2EB" />
<rect x="1.2315909090909098" y="0.41386363636363666" width="0.40386363636363665" height="0.40386363636363665" fill="#252525" />
<rect x="1.6404545454545465" y="0.41386363636363666" width="0.40386363636363665" height="0.40386363636363665" fill="#252525" />
<rect x="2.049318181818183" y="0.41386363636363666" width="0.40386363636363665" height="0.40386363636363665" fill="#252525" />
<rect x="2.45818181818182" y="0.41386363636363666" width="0.40386363636363665" height="0.40386363636363665" fill="#54D2EB" />
<rect x="2.8670454545454565" y="0.41386363636363666" width="0.40386363636363665" height="0.40386363636363665" fill="#252525" />
<rect x="3.275909090909093" y="0.41386363636363666" width="0.40386363636363665" height="0.40386363636363665" fill="#252525" />
<rect x="3.6847727272727298" y="0.41386363636363666" width="0.40386363636363665" height="0.40386363636363665" fill="#252525" />
<rect x="4.093636363636366" y="0.41386363636363666" width="0.40386363636363665" height="0.40386363636363665" fill="#54D2EB" />
<rect x="0.005" y="0.8227272727272733" width="0.40386363636363665" height="0.40386363636363665" fill="#252525" />
<rect x="0.41386363636363666" y="0.8227272727272733" width="0.40386363636363665" height="0.40386363636363665" fill="#252525" />
<rect x="0.8227272727272733" y="0.8227272727272733" width="0.40386363636363665" height="0.40386363636363665" fill="#252525" />
<rect x="1.2315909090909098" y="0.8227272727272733" width="0.40386363636363665" height="0.40386363636363665" fill="#252525" />
<rect x="1.6404545454545465" y="0.8227272727272733" width="0.40386363636363665" height="0.40386363636363665" fill="#252525" />
<rect x="2.049318181818183" y="0.8227272727272733" width="0.40386363636363665" height="0.40386363636363665" fill="#252525" />
<rect x="2.45818181818182" y="0.8227272727272733" width="0.40386363636363665" height="0.40386363636363665" fill="#252525" />
<rect x="2.8670454545454565" y="0.8227272727272733" width="0.40386363636363665" height="0.40386363636363665" fill="#252525" />
<rect x="3.275909090909093" y="0.8227272727272733" width="0.40386363636363665" height="0.40386363636363665" fill="#252525" />
<rect x="3.6847727272727298" y="0.8227272727272733" width="0.40386363636363665" height="0.40386363636363665" fill="#54D2EB" />
<rect x="4.093636363636366" y="0.8227272727272733" width="0.40386363636363665" height="0.40386363636363665" fill="#54D2EB" />
<rect x="0.005" y="1.2315909090909098" width="0.40386363636363665" height="0.40386363636363665" fill="#252525" />
<rect x="0.41386363636363666" y="1.2315909090909098" width="0.40386363636363665" height="0.40386363636363665" fill="#252525" />
<rect x="0.8227272727272733" y="1.2315909090909098" width="0.40386363636363665" height="0.40386363636363665" fill="#54D2EB" />
<rect x="1.2315909090909098" y="1.2315909090909098" width="0.40386363636363665" height="0.40386363636363665" fill="#252525" />
<rect x="1.6404545454545465" y="1.2315909090909098" width="0.40386363636363665" height="0.40386363636363665" fill="#252525" />
<rect x="2.049318181818183" y="1.2315909090909098" width="0.40386363636363665" height="0.40386363636363665" fill="#252525" />
<rect x="2.45818181818182" y="1.2315909090909098" width="0.40386363636363665" height="0.40386363636363665" fill="#252525" />
<rect x="2.8670454545454565" y="1.2315909090909098" width="0.40386363636363665" height="0.40386363636363665" fill="#252525" />
<rect x="3.275909090909093" y="1.2315909090909098" width="0.40386363636363665" height="0.40386363636363665" fill="#54D2EB" />
<rect x="3.6847727272727298" y="1.2315909090909098" width="0.40386363636363665" height="0.40386363636363665" fill="#252525" />
<rect x="4.093636363636366" y="1.2315909090909098" width="0.40386363636363665" height="0.40386363636363665" fill="#252525" />
<rect x="0.005" y="1.6404545454545465" width="0.40386363636363665" height="0.40386363636363665" fill="#54D2EB" />
<rect x="0.41386363636363666" y="1.6404545454545465" width="0.40386363636363665" height="0.40386363636363665" fill="#252525" />
<rect x="0.8227272727272733" y="1.6404545454545465" width="0.40386363636363665" height="0.40386363636363665" fill="#E6E6E6" />
<rect x="1.2315909090909098" y="1.6404545454545465" width="0.40386363636363665" height="0.40386363636363665" fill="#252525" />
<rect x="1.6404545454545465" y="1.6404545454545465" width="0.40386363636363665" height="0.40386363636363665" fill="#252525" />
<rect x="2.049318181818183" y="1.6404545454545465" width="0.40386363636363665" height="0.40386363636363665" fill="#252525" />
<rect x="2.45818181818182" y="1.6404545454545465" width="0.40386363636363665" height="0.40386363636363665" fill="#252525" />
<rect x="2.8670454545454565" y="1.6404545454545465" width="0.40386363636363665" height="0.40386363636363665" fill="#252525" />
<rect x="3.275909090909093" y="1.6404545454545465" width="0.40386363636363665" height="0.40386363636363665" fill="#E6E6E6" />
<rect x="3.6847727272727298" y="1.6404545454545465" width="0.40386363636363665" height="0.40386363636363665" fill="#252525" />
<rect x="4.093636363636366" y="1.6404545454545465" width="0.40386363636363665" height="0.40386363636363665" fill="#252525" />
<rect x="0.005" y="2.049318181818183" width="0.40386363636363665" height="0.40386363636363665" fill="#252525" />
<rect x="0.41386363636363666" y="2.049318181818183" width="0.40386363636363665" height="0.40386363636363665" fill="#252525" />
<rect x="0.8227272727272733" y="2.049318181818183" width="0.40386363636363665" height="0.40386363636363665" fill="#E6E6E6" />
<rect x="1.2315909090909098" y="2.049318181818183" width="0.40386363636363665" height="0.40386363636363665" fill="#252525" />
<rect x="1.6404545454545465" y="2.049318181818183" width="0.40386363636363665" height="0.40386363636363665" fill="#252525" />
<rect x="2.049318181818183" y="2.049318181818183" width="0.40386363636363665" height="0.40386363636363665" fill="#54D2EB" />
<rect x="2.45818181818182" y="2.049318181818183" width="0.40386363636363665" height="0.40386363636363665" fill="#54D2EB" />
<rect x="2.8670454545454565" y="2.049318181818183" width="0.40386363636363665" height="0.40386363636363665" fill="#252525" />
<rect x="3.275909090909093" y="2.049318181818183" width="0.40386363636363665" height="0.40386363636363665" fill="#E6E6E6" />
<rect x="3.6847727272727298" y="2.049318181818183" width="0.40386363636363665" height="0.40386363636363665" fill="#252525" />
<rect x="4.093636363636366" y="2.049318181818183" width="0.40386363636363665" height="0.40386363636363665" fill="#252525" />
<rect x="0.005" y="2.45818181818182" width="0.40386363636363665" height="0.40386363636363665" fill="#252525" />
<rect x="0.41386363636363666" y="2.45818181818182" width="0.40386363636363665" height="0.40386363636363665" fill="#252525" />
<rect x="0.8227272727272733" y="2.45818181818182" width="0.40386363636363665" height="0.40386363636363665" fill="#E6E6E6" />
<rect x="1.2315909090909098" y="2.45818181818182" width="0.40386363636363665" height="0.40386363636363665" fill="#252525" />
<rect x="1.6404545454545465" y="2.45818181818182" width="0.40386363636363665" height="0.40386363636363665" fill="#252525" />
<rect x="2.049318181818183" y="2.45818181818182" width="0.40386363636363665" height="0.40386363636363665" fill="#252525" />
<rect x="2.45818181818182" y="2.45818181818182" width="0.40386363636363665" height="0.40386363636363665" fill="#252525" />
<rect x="2.8670454545454565" y="2.45818181818182" width="0.40386363636363665" height="0.40386363636363665" fill="#252525" />
<rect x="3.275909090909093" y="2.45818181818182" width="0.40386363636363665" height="0.40386363636363665" fill="#E6E6E6" />
<rect x="3.6847727272727298" y="2.45818181818182" width="0.40386363636363665" height="0.40386363636363665" fill="#252525" />
<rect x="4.093636363636366" y="2.45818181818182" width="0.40386363636363665" height="0.40386363636363665" fill="#252525" />
<rect x="0.005" y="2.8670454545454565" width="0.40386363636363665" height="0.40386363636363665" fill="#252525" />
<rect x="0.41386363636363666" y="2.8670454545454565" width="0.40386363636363665" height="0.40386363636363665" fill="#252525" />
<rect x="0.8227272727272733" y="2.8670454545454565" width="0.40386363636363665" height="0.40386363636363665" fill="#54D2EB" />
<rect x="1.2315909090909098" y="2.8670454545454565" width="0.40386363636363665" height="0.40386363636363665" fill="#252525" />
<rect x="1.6404545454545465" y="2.8670454545454565" width="0.40386363636363665" height="0.40386363636363665" fill="#54D2EB" />
<rect x="2.049318181818183" y="2.8670454545454565" width="0.40386363636363665" height="0.40386363636363665" fill="#252525" />
<rect x="2.45818181818182" y="2.8670454545454565" width="0.40386363636363665" height="0.40386363636363665" fill="#252525" />
<rect x="2.8670454545454565" y="2.8670454545454565" width="0.40386363636363665" height="0.40386363636363665" fill="#252525" />
<rect x="3.275909090909093" y="2.8670454545454565" width="0.40386363636363665" height="0.40386363636363665" fill="#54D2EB" />
<rect x="3.6847727272727298" y="2.8670454545454565" width="0.40386363636363665" height="0.40386363636363665" fill="#252525" />
<rect x="4.093636363636366" y="2.8670454545454565" width="0.40386363636363665" height="0.40386363636363665" fill="#252525" />
<rect x="0.005" y="3.275909090909093" width="0.40386363636363665" height="0.40386363636363665" fill="#252525" />
<rect x="0.41386363636363666" y="3.275909090909093" width="0.40386363636363665" height="0.40386363636363665" fill="#54D2EB" />
<rect x="0.8227272727272733" y="3.275909090909093" width="0.40386363636363665" height="0.40386363636363665" fill="#252525" />
<rect x="1.2315909090909098" y="3.275909090909093" width="0.40386363636363665" height="0.40386363636363665" fill="#252525" />
<rect x="1.6404545454545465" y="3.275909090909093" width="0.40386363636363665" height="0.40386363636363665" fill="#252525" />
<rect x="2.049318181818183" y="3.275909090909093" width="0.40386363636363665" height="0.40386363636363665" fill="#252525" />
<rect x="2.45818181818182" y="3.275909090909093" width="0.40386363636363665" height="0.40386363636363665" fill="#252525" />
<rect x="2.8670454545454565" y="3.275909090909093" width="0.40386363636363665" height="0.40386363636363665" fill="#252525" />
<rect x="3.275909090909093" y="3.275909090909093" width="0.40386363636363665" height="0.40386363636363665" fill="#54D2EB" />
<rect x="3.6847727272727298" y="3.275909090909093" width="0.40386363636363665" height="0.40386363636363665" fill="#54D2EB" />
<rect x="4.093636363636366" y="3.275909090909093" width="0.40386363636363665" height="0.40386363636363665" fill="#252525" />
<rect x="-0.02666666666666667" y="-0.02666666666666667" width="4.550833333333337" height="3.733106060606063" fill="none" stroke="#111111ff" stroke-width="0.08" />
<text x="4.497500000000003" y="4.14852272727273" font-size="0.375" fill="black" text-anchor="end" font-family="Anuphan">11x9</text>
<text x="-0.037500000000000006" y="4.14852272727273" font-size="0.375" fill="black" text-anchor="start" font-family="Anuphan" font-weight="600">Input 2</text>
</g>
<g id="d2">
<rect x="0.005" y="0.005" width="0.3409615384615387" height="0.3409615384615387" fill="#252525" />
<rect x="0.3509615384615387" y="0.005" width="0.3409615384615387" height="0.3409615384615387" fill="#252525" />
<rect x="0.6969230769230774" y="0.005" width="0.3409615384615387" height="0.3409615384615387" fill="#252525" />
<rect x="1.042884615384616" y="0.005" width="0.3409615384615387" height="0.3409615384615387" fill="#252525" />
<rect x="1.3888461538461547" y="0.005" width="0.3409615384615387" height="0.3409615384615387" fill="#252525" />
<rect x="1.7348076923076934" y="0.005" width="0.3409615384615387" height="0.3409615384615387" fill="#252525" />
<rect x="2.0807692307692323" y="0.005" width="0.3409615384615387" height="0.3409615384615387" fill="#252525" />
<rect x="2.4267307692307707" y="0.005" width="0.3409615384615387" height="0.3409615384615387" fill="#252525" />
<rect x="2.7726923076923096" y="0.005" width="0.3409615384615387" height="0.3409615384615387" fill="#252525" />
<rect x="3.1186538461538484" y="0.005" width="0.3409615384615387" height="0.3409615384615387" fill="#54D2EB" />
<rect x="3.464615384615387" y="0.005" width="0.3409615384615387" height="0.3409615384615387" fill="#54D2EB" />
<rect x="3.8105769230769257" y="0.005" width="0.3409615384615387" height="0.3409615384615387" fill="#252525" />
<rect x="4.156538461538465" y="0.005" width="0.3409615384615387" height="0.3409615384615387" fill="#252525" />
<rect x="0.005" y="0.3509615384615387" width="0.3409615384615387" height="0.3409615384615387" fill="#252525" />
<rect x="0.3509615384615387" y="0.3509615384615387" width="0.3409615384615387" height="0.3409615384615387" fill="#252525" />
<rect x="0.6969230769230774" y="0.3509615384615387" width="0.3409615384615387" height="0.3409615384615387" fill="#252525" />
<rect x="1.042884615384616" y="0.3509615384615387" width="0.3409615384615387" height="0.3409615384615387" fill="#252525" />
<rect x="1.3888461538461547" y="0.3509615384615387" width="0.3409615384615387" height="0.3409615384615387" fill="#252525" />
<rect x="1.7348076923076934" y="0.3509615384615387" width="0.3409615384615387" height="0.3409615384615387" fill="#252525" />
<rect x="2.0807692307692323" y="0.3509615384615387" width="0.3409615384615387" height="0.3409615384615387" fill="#252525" />
<rect x="2.4267307692307707" y="0.3509615384615387" width="0.3409615384615387" height="0.3409615384615387" fill="#252525" />
<rect x="2.7726923076923096" y="0.3509615384615387" width="0.3409615384615387" height="0.3409615384615387" fill="#252525" />
<rect x="3.1186538461538484" y="0.3509615384615387" width="0.3409615384615387" height="0.3409615384615387" fill="#252525" />
<rect x="3.464615384615387" y="0.3509615384615387" width="0.3409615384615387" height="0.3409615384615387" fill="#252525" />
<rect x="3.8105769230769257" y="0.3509615384615387" width="0.3409615384615387" height="0.3409615384615387" fill="#252525" />
<rect x="4.156538461538465" y="0.3509615384615387" width="0.3409615384615387" height="0.3409615384615387" fill="#252525" />
<rect x="0.005" y="0.6969230769230774" width="0.3409615384615387" height="0.3409615384615387" fill="#252525" />
<rect x="0.3509615384615387" y="0.6969230769230774" width="0.3409615384615387" height="0.3409615384615387" fill="#252525" />
<rect x="0.6969230769230774" y="0.6969230769230774" width="0.3409615384615387" height="0.3409615384615387" fill="#252525" />
<rect x="1.042884615384616" y="0.6969230769230774" width="0.3409615384615387" height="0.3409615384615387" fill="#54D2EB" />
<rect x="1.3888461538461547" y="0.6969230769230774" width="0.3409615384615387" height="0.3409615384615387" fill="#252525" />
<rect x="1.7348076923076934" y="0.6969230769230774" width="0.3409615384615387" height="0.3409615384615387" fill="#252525" />
<rect x="2.0807692307692323" y="0.6969230769230774" width="0.3409615384615387" height="0.3409615384615387" fill="#252525" />
<rect x="2.4267307692307707" y="0.6969230769230774" width="0.3409615384615387" height="0.3409615384615387" fill="#54D2EB" />
<rect x="2.7726923076923096" y="0.6969230769230774" width="0.3409615384615387" height="0.3409615384615387" fill="#252525" />
<rect x="3.1186538461538484" y="0.6969230769230774" width="0.3409615384615387" height="0.3409615384615387" fill="#252525" />
<rect x="3.464615384615387" y="0.6969230769230774" width="0.3409615384615387" height="0.3409615384615387" fill="#252525" />
<rect x="3.8105769230769257" y="0.6969230769230774" width="0.3409615384615387" height="0.3409615384615387" fill="#252525" />
<rect x="4.156538461538465" y="0.6969230769230774" width="0.3409615384615387" height="0.3409615384615387" fill="#252525" />
<rect x="0.005" y="1.042884615384616" width="0.3409615384615387" height="0.3409615384615387" fill="#252525" />
<rect x="0.3509615384615387" y="1.042884615384616" width="0.3409615384615387" height="0.3409615384615387" fill="#252525" />
<rect x="0.6969230769230774" y="1.042884615384616" width="0.3409615384615387" height="0.3409615384615387" fill="#252525" />
<rect x="1.042884615384616" y="1.042884615384616" width="0.3409615384615387" height="0.3409615384615387" fill="#E6E6E6" />
<rect x="1.3888461538461547" y="1.042884615384616" width="0.3409615384615387" height="0.3409615384615387" fill="#252525" />
<rect x="1.7348076923076934" y="1.042884615384616" width="0.3409615384615387" height="0.3409615384615387" fill="#252525" />
<rect x="2.0807692307692323" y="1.042884615384616" width="0.3409615384615387" height="0.3409615384615387" fill="#252525" />
<rect x="2.4267307692307707" y="1.042884615384616" width="0.3409615384615387" height="0.3409615384615387" fill="#E6E6E6" />
<rect x="2.7726923076923096" y="1.042884615384616" width="0.3409615384615387" height="0.3409615384615387" fill="#252525" />
<rect x="3.1186538461538484" y="1.042884615384616" width="0.3409615384615387" height="0.3409615384615387" fill="#54D2EB" />
<rect x="3.464615384615387" y="1.042884615384616" width="0.3409615384615387" height="0.3409615384615387" fill="#252525" />
<rect x="3.8105769230769257" y="1.042884615384616" width="0.3409615384615387" height="0.3409615384615387" fill="#252525" />
<rect x="4.156538461538465" y="1.042884615384616" width="0.3409615384615387" height="0.3409615384615387" fill="#252525" />
<rect x="0.005" y="1.3888461538461547" width="0.3409615384615387" height="0.3409615384615387" fill="#252525" />
<rect x="0.3509615384615387" y="1.3888461538461547" width="0.3409615384615387" height="0.3409615384615387" fill="#252525" />
<rect x="0.6969230769230774" y="1.3888461538461547" width="0.3409615384615387" height="0.3409615384615387" fill="#54D2EB" />
<rect x="1.042884615384616" y="1.3888461538461547" width="0.3409615384615387" height="0.3409615384615387" fill="#E6E6E6" />
<rect x="1.3888461538461547" y="1.3888461538461547" width="0.3409615384615387" height="0.3409615384615387" fill="#252525" />
<rect x="1.7348076923076934" y="1.3888461538461547" width="0.3409615384615387" height="0.3409615384615387" fill="#54D2EB" />
<rect x="2.0807692307692323" y="1.3888461538461547" width="0.3409615384615387" height="0.3409615384615387" fill="#252525" />
<rect x="2.4267307692307707" y="1.3888461538461547" width="0.3409615384615387" height="0.3409615384615387" fill="#E6E6E6" />
<rect x="2.7726923076923096" y="1.3888461538461547" width="0.3409615384615387" height="0.3409615384615387" fill="#252525" />
<rect x="3.1186538461538484" y="1.3888461538461547" width="0.3409615384615387" height="0.3409615384615387" fill="#252525" />
<rect x="3.464615384615387" y="1.3888461538461547" width="0.3409615384615387" height="0.3409615384615387" fill="#252525" />
<rect x="3.8105769230769257" y="1.3888461538461547" width="0.3409615384615387" height="0.3409615384615387" fill="#252525" />
<rect x="4.156538461538465" y="1.3888461538461547" width="0.3409615384615387" height="0.3409615384615387" fill="#252525" />
<rect x="0.005" y="1.7348076923076934" width="0.3409615384615387" height="0.3409615384615387" fill="#252525" />
<rect x="0.3509615384615387" y="1.7348076923076934" width="0.3409615384615387" height="0.3409615384615387" fill="#252525" />
<rect x="0.6969230769230774" y="1.7348076923076934" width="0.3409615384615387" height="0.3409615384615387" fill="#252525" />
<rect x="1.042884615384616" y="1.7348076923076934" width="0.3409615384615387" height="0.3409615384615387" fill="#E6E6E6" />
<rect x="1.3888461538461547" y="1.7348076923076934" width="0.3409615384615387" height="0.3409615384615387" fill="#252525" />
<rect x="1.7348076923076934" y="1.7348076923076934" width="0.3409615384615387" height="0.3409615384615387" fill="#252525" />
<rect x="2.0807692307692323" y="1.7348076923076934" width="0.3409615384615387" height="0.3409615384615387" fill="#252525" />
<rect x="2.4267307692307707" y="1.7348076923076934" width="0.3409615384615387" height="0.3409615384615387" fill="#E6E6E6" />
<rect x="2.7726923076923096" y="1.7348076923076934" width="0.3409615384615387" height="0.3409615384615387" fill="#54D2EB" />
<rect x="3.1186538461538484" y="1.7348076923076934" width="0.3409615384615387" height="0.3409615384615387" fill="#252525" />
<rect x="3.464615384615387" y="1.7348076923076934" width="0.3409615384615387" height="0.3409615384615387" fill="#252525" />
<rect x="3.8105769230769257" y="1.7348076923076934" width="0.3409615384615387" height="0.3409615384615387" fill="#252525" />
<rect x="4.156538461538465" y="1.7348076923076934" width="0.3409615384615387" height="0.3409615384615387" fill="#252525" />
<rect x="0.005" y="2.0807692307692323" width="0.3409615384615387" height="0.3409615384615387" fill="#252525" />
<rect x="0.3509615384615387" y="2.0807692307692323" width="0.3409615384615387" height="0.3409615384615387" fill="#252525" />
<rect x="0.6969230769230774" y="2.0807692307692323" width="0.3409615384615387" height="0.3409615384615387" fill="#54D2EB" />
<rect x="1.042884615384616" y="2.0807692307692323" width="0.3409615384615387" height="0.3409615384615387" fill="#E6E6E6" />
<rect x="1.3888461538461547" y="2.0807692307692323" width="0.3409615384615387" height="0.3409615384615387" fill="#252525" />
<rect x="1.7348076923076934" y="2.0807692307692323" width="0.3409615384615387" height="0.3409615384615387" fill="#54D2EB" />
<rect x="2.0807692307692323" y="2.0807692307692323" width="0.3409615384615387" height="0.3409615384615387" fill="#252525" />
<rect x="2.4267307692307707" y="2.0807692307692323" width="0.3409615384615387" height="0.3409615384615387" fill="#E6E6E6" />
<rect x="2.7726923076923096" y="2.0807692307692323" width="0.3409615384615387" height="0.3409615384615387" fill="#252525" />
<rect x="3.1186538461538484" y="2.0807692307692323" width="0.3409615384615387" height="0.3409615384615387" fill="#252525" />
<rect x="3.464615384615387" y="2.0807692307692323" width="0.3409615384615387" height="0.3409615384615387" fill="#252525" />
<rect x="3.8105769230769257" y="2.0807692307692323" width="0.3409615384615387" height="0.3409615384615387" fill="#252525" />
<rect x="4.156538461538465" y="2.0807692307692323" width="0.3409615384615387" height="0.3409615384615387" fill="#252525" />
<rect x="0.005" y="2.4267307692307707" width="0.3409615384615387" height="0.3409615384615387" fill="#252525" />
<rect x="0.3509615384615387" y="2.4267307692307707" width="0.3409615384615387" height="0.3409615384615387" fill="#252525" />
<rect x="0.6969230769230774" y="2.4267307692307707" width="0.3409615384615387" height="0.3409615384615387" fill="#252525" />
<rect x="1.042884615384616" y="2.4267307692307707" width="0.3409615384615387" height="0.3409615384615387" fill="#54D2EB" />
<rect x="1.3888461538461547" y="2.4267307692307707" width="0.3409615384615387" height="0.3409615384615387" fill="#252525" />
<rect x="1.7348076923076934" y="2.4267307692307707" width="0.3409615384615387" height="0.3409615384615387" fill="#252525" />
<rect x="2.0807692307692323" y="2.4267307692307707" width="0.3409615384615387" height="0.3409615384615387" fill="#252525" />
<rect x="2.4267307692307707" y="2.4267307692307707" width="0.3409615384615387" height="0.3409615384615387" fill="#54D2EB" />
<rect x="2.7726923076923096" y="2.4267307692307707" width="0.3409615384615387" height="0.3409615384615387" fill="#252525" />
<rect x="3.1186538461538484" y="2.4267307692307707" width="0.3409615384615387" height="0.3409615384615387" fill="#252525" />
<rect x="3.464615384615387" y="2.4267307692307707" width="0.3409615384615387" height="0.3409615384615387" fill="#54D2EB" />
<rect x="3.8105769230769257" y="2.4267307692307707" width="0.3409615384615387" height="0.3409615384615387" fill="#252525" />
<rect x="4.156538461538465" y="2.4267307692307707" width="0.3409615384615387" height="0.3409615384615387" fill="#252525" />
<rect x="0.005" y="2.7726923076923096" width="0.3409615384615387" height="0.3409615384615387" fill="#252525" />
<rect x="0.3509615384615387" y="2.7726923076923096" width="0.3409615384615387" height="0.3409615384615387" fill="#252525" />
<rect x="0.6969230769230774" y="2.7726923076923096" width="0.3409615384615387" height="0.3409615384615387" fill="#252525" />
<rect x="1.042884615384616" y="2.7726923076923096" width="0.3409615384615387" height="0.3409615384615387" fill="#252525" />
<rect x="1.3888461538461547" y="2.7726923076923096" width="0.3409615384615387" height="0.3409615384615387" fill="#252525" />
<rect x="1.7348076923076934" y="2.7726923076923096" width="0.3409615384615387" height="0.3409615384615387" fill="#252525" />
<rect x="2.0807692307692323" y="2.7726923076923096" width="0.3409615384615387" height="0.3409615384615387" fill="#252525" />
<rect x="2.4267307692307707" y="2.7726923076923096" width="0.3409615384615387" height="0.3409615384615387" fill="#252525" />
<rect x="2.7726923076923096" y="2.7726923076923096" width="0.3409615384615387" height="0.3409615384615387" fill="#252525" />
<rect x="3.1186538461538484" y="2.7726923076923096" width="0.3409615384615387" height="0.3409615384615387" fill="#252525" />
<rect x="3.464615384615387" y="2.7726923076923096" width="0.3409615384615387" height="0.3409615384615387" fill="#54D2EB" />
<rect x="3.8105769230769257" y="2.7726923076923096" width="0.3409615384615387" height="0.3409615384615387" fill="#252525" />
<rect x="4.156538461538465" y="2.7726923076923096" width="0.3409615384615387" height="0.3409615384615387" fill="#252525" />
<rect x="0.005" y="3.1186538461538484" width="0.3409615384615387" height="0.3409615384615387" fill="#252525" />
<rect x="0.3509615384615387" y="3.1186538461538484" width="0.3409615384615387" height="0.3409615384615387" fill="#252525" />
<rect x="0.6969230769230774" y="3.1186538461538484" width="0.3409615384615387" height="0.3409615384615387" fill="#54D2EB" />
<rect x="1.042884615384616" y="3.1186538461538484" width="0.3409615384615387" height="0.3409615384615387" fill="#54D2EB" />
<rect x="1.3888461538461547" y="3.1186538461538484" width="0.3409615384615387" height="0.3409615384615387" fill="#252525" />
<rect x="1.7348076923076934" y="3.1186538461538484" width="0.3409615384615387" height="0.3409615384615387" fill="#252525" />
<rect x="2.0807692307692323" y="3.1186538461538484" width="0.3409615384615387" height="0.3409615384615387" fill="#252525" />
<rect x="2.4267307692307707" y="3.1186538461538484" width="0.3409615384615387" height="0.3409615384615387" fill="#54D2EB" />
<rect x="2.7726923076923096" y="3.1186538461538484" width="0.3409615384615387" height="0.3409615384615387" fill="#252525" />
<rect x="3.1186538461538484" y="3.1186538461538484" width="0.3409615384615387" height="0.3409615384615387" fill="#252525" />
<rect x="3.464615384615387" y="3.1186538461538484" width="0.3409615384615387" height="0.3409615384615387" fill="#252525" />
<rect x="3.8105769230769257" y="3.1186538461538484" width="0.3409615384615387" height="0.3409615384615387" fill="#252525" />
<rect x="4.156538461538465" y="3.1186538461538484" width="0.3409615384615387" height="0.3409615384615387" fill="#252525" />
<rect x="0.005" y="3.464615384615387" width="0.3409615384615387" height="0.3409615384615387" fill="#252525" />
<rect x="0.3509615384615387" y="3.464615384615387" width="0.3409615384615387" height="0.3409615384615387" fill="#252525" />
<rect x="0.6969230769230774" y="3.464615384615387" width="0.3409615384615387" height="0.3409615384615387" fill="#252525" />
<rect x="1.042884615384616" y="3.464615384615387" width="0.3409615384615387" height="0.3409615384615387" fill="#252525" />
<rect x="1.3888461538461547" y="3.464615384615387" width="0.3409615384615387" height="0.3409615384615387" fill="#252525" />
<rect x="1.7348076923076934" y="3.464615384615387" width="0.3409615384615387" height="0.3409615384615387" fill="#252525" />
<rect x="2.0807692307692323" y="3.464615384615387" width="0.3409615384615387" height="0.3409615384615387" fill="#252525" />
<rect x="2.4267307692307707" y="3.464615384615387" width="0.3409615384615387" height="0.3409615384615387" fill="#252525" />
<rect x="2.7726923076923096" y="3.464615384615387" width="0.3409615384615387" height="0.3409615384615387" fill="#54D2EB" />
<rect x="3.1186538461538484" y="3.464615384615387" width="0.3409615384615387" height="0.3409615384615387" fill="#252525" />
<rect x="3.464615384615387" y="3.464615384615387" width="0.3409615384615387" height="0.3409615384615387" fill="#252525" />
<rect x="3.8105769230769257" y="3.464615384615387" width="0.3409615384615387" height="0.3409615384615387" fill="#252525" />
<rect x="4.156538461538465" y="3.464615384615387" width="0.3409615384615387" height="0.3409615384615387" fill="#252525" />
<rect x="-0.02666666666666667" y="-0.02666666666666667" width="4.550833333333337" height="3.858910256410259" fill="none" stroke="#111111ff" stroke-width="0.08" />
<text x="4.497500000000003" y="4.274326923076925" font-size="0.375" fill="black" text-anchor="end" font-family="Anuphan">13x11</text>
<text x="-0.037500000000000006" y="4.274326923076925" font-size="0.375" fill="black" text-anchor="start" font-family="Anuphan" font-weight="600">Input 3</text>
</g>
<g id="d3">
<rect x="0.005" y="0.005" width="0.3409615384615387" height="0.3409615384615387" fill="#54D2EB" />
<rect x="0.3509615384615387" y="0.005" width="0.3409615384615387" height="0.3409615384615387" fill="#252525" />
<rect x="0.6969230769230774" y="0.005" width="0.3409615384615387" height="0.3409615384615387" fill="#252525" />
<rect x="1.042884615384616" y="0.005" width="0.3409615384615387" height="0.3409615384615387" fill="#252525" />
<rect x="1.3888461538461547" y="0.005" width="0.3409615384615387" height="0.3409615384615387" fill="#252525" />
<rect x="1.7348076923076934" y="0.005" width="0.3409615384615387" height="0.3409615384615387" fill="#252525" />
<rect x="2.0807692307692323" y="0.005" width="0.3409615384615387" height="0.3409615384615387" fill="#252525" />
<rect x="2.4267307692307707" y="0.005" width="0.3409615384615387" height="0.3409615384615387" fill="#252525" />
<rect x="2.7726923076923096" y="0.005" width="0.3409615384615387" height="0.3409615384615387" fill="#252525" />
<rect x="3.1186538461538484" y="0.005" width="0.3409615384615387" height="0.3409615384615387" fill="#252525" />
<rect x="3.464615384615387" y="0.005" width="0.3409615384615387" height="0.3409615384615387" fill="#252525" />
<rect x="3.8105769230769257" y="0.005" width="0.3409615384615387" height="0.3409615384615387" fill="#252525" />
<rect x="4.156538461538465" y="0.005" width="0.3409615384615387" height="0.3409615384615387" fill="#252525" />
<rect x="0.005" y="0.3509615384615387" width="0.3409615384615387" height="0.3409615384615387" fill="#252525" />
<rect x="0.3509615384615387" y="0.3509615384615387" width="0.3409615384615387" height="0.3409615384615387" fill="#252525" />
<rect x="0.6969230769230774" y="0.3509615384615387" width="0.3409615384615387" height="0.3409615384615387" fill="#252525" />
<rect x="1.042884615384616" y="0.3509615384615387" width="0.3409615384615387" height="0.3409615384615387" fill="#252525" />
<rect x="1.3888461538461547" y="0.3509615384615387" width="0.3409615384615387" height="0.3409615384615387" fill="#252525" />
<rect x="1.7348076923076934" y="0.3509615384615387" width="0.3409615384615387" height="0.3409615384615387" fill="#252525" />
<rect x="2.0807692307692323" y="0.3509615384615387" width="0.3409615384615387" height="0.3409615384615387" fill="#252525" />
<rect x="2.4267307692307707" y="0.3509615384615387" width="0.3409615384615387" height="0.3409615384615387" fill="#252525" />
<rect x="2.7726923076923096" y="0.3509615384615387" width="0.3409615384615387" height="0.3409615384615387" fill="#252525" />
<rect x="3.1186538461538484" y="0.3509615384615387" width="0.3409615384615387" height="0.3409615384615387" fill="#252525" />
<rect x="3.464615384615387" y="0.3509615384615387" width="0.3409615384615387" height="0.3409615384615387" fill="#252525" />
<rect x="3.8105769230769257" y="0.3509615384615387" width="0.3409615384615387" height="0.3409615384615387" fill="#252525" />
<rect x="4.156538461538465" y="0.3509615384615387" width="0.3409615384615387" height="0.3409615384615387" fill="#252525" />
<rect x="0.005" y="0.6969230769230774" width="0.3409615384615387" height="0.3409615384615387" fill="#252525" />
<rect x="0.3509615384615387" y="0.6969230769230774" width="0.3409615384615387" height="0.3409615384615387" fill="#252525" />
<rect x="0.6969230769230774" y="0.6969230769230774" width="0.3409615384615387" height="0.3409615384615387" fill="#252525" />
<rect x="1.042884615384616" y="0.6969230769230774" width="0.3409615384615387" height="0.3409615384615387" fill="#252525" />
<rect x="1.3888461538461547" y="0.6969230769230774" width="0.3409615384615387" height="0.3409615384615387" fill="#252525" />
<rect x="1.7348076923076934" y="0.6969230769230774" width="0.3409615384615387" height="0.3409615384615387" fill="#252525" />
<rect x="2.0807692307692323" y="0.6969230769230774" width="0.3409615384615387" height="0.3409615384615387" fill="#252525" />
<rect x="2.4267307692307707" y="0.6969230769230774" width="0.3409615384615387" height="0.3409615384615387" fill="#252525" />
<rect x="2.7726923076923096" y="0.6969230769230774" width="0.3409615384615387" height="0.3409615384615387" fill="#54D2EB" />
<rect x="3.1186538461538484" y="0.6969230769230774" width="0.3409615384615387" height="0.3409615384615387" fill="#252525" />
<rect x="3.464615384615387" y="0.6969230769230774" width="0.3409615384615387" height="0.3409615384615387" fill="#252525" />
<rect x="3.8105769230769257" y="0.6969230769230774" width="0.3409615384615387" height="0.3409615384615387" fill="#252525" />
<rect x="4.156538461538465" y="0.6969230769230774" width="0.3409615384615387" height="0.3409615384615387" fill="#252525" />
<rect x="0.005" y="1.042884615384616" width="0.3409615384615387" height="0.3409615384615387" fill="#54D2EB" />
<rect x="0.3509615384615387" y="1.042884615384616" width="0.3409615384615387" height="0.3409615384615387" fill="#252525" />
<rect x="0.6969230769230774" y="1.042884615384616" width="0.3409615384615387" height="0.3409615384615387" fill="#252525" />
<rect x="1.042884615384616" y="1.042884615384616" width="0.3409615384615387" height="0.3409615384615387" fill="#54D2EB" />
<rect x="1.3888461538461547" y="1.042884615384616" width="0.3409615384615387" height="0.3409615384615387" fill="#252525" />
<rect x="1.7348076923076934" y="1.042884615384616" width="0.3409615384615387" height="0.3409615384615387" fill="#252525" />
<rect x="2.0807692307692323" y="1.042884615384616" width="0.3409615384615387" height="0.3409615384615387" fill="#252525" />
<rect x="2.4267307692307707" y="1.042884615384616" width="0.3409615384615387" height="0.3409615384615387" fill="#252525" />
<rect x="2.7726923076923096" y="1.042884615384616" width="0.3409615384615387" height="0.3409615384615387" fill="#252525" />
<rect x="3.1186538461538484" y="1.042884615384616" width="0.3409615384615387" height="0.3409615384615387" fill="#252525" />
<rect x="3.464615384615387" y="1.042884615384616" width="0.3409615384615387" height="0.3409615384615387" fill="#252525" />
<rect x="3.8105769230769257" y="1.042884615384616" width="0.3409615384615387" height="0.3409615384615387" fill="#252525" />
<rect x="4.156538461538465" y="1.042884615384616" width="0.3409615384615387" height="0.3409615384615387" fill="#252525" />
<rect x="0.005" y="1.3888461538461547" width="0.3409615384615387" height="0.3409615384615387" fill="#E6E6E6" />
<rect x="0.3509615384615387" y="1.3888461538461547" width="0.3409615384615387" height="0.3409615384615387" fill="#54D2EB" />
<rect x="0.6969230769230774" y="1.3888461538461547" width="0.3409615384615387" height="0.3409615384615387" fill="#252525" />
<rect x="1.042884615384616" y="1.3888461538461547" width="0.3409615384615387" height="0.3409615384615387" fill="#E6E6E6" />
<rect x="1.3888461538461547" y="1.3888461538461547" width="0.3409615384615387" height="0.3409615384615387" fill="#252525" />
<rect x="1.7348076923076934" y="1.3888461538461547" width="0.3409615384615387" height="0.3409615384615387" fill="#252525" />
<rect x="2.0807692307692323" y="1.3888461538461547" width="0.3409615384615387" height="0.3409615384615387" fill="#252525" />
<rect x="2.4267307692307707" y="1.3888461538461547" width="0.3409615384615387" height="0.3409615384615387" fill="#252525" />
<rect x="2.7726923076923096" y="1.3888461538461547" width="0.3409615384615387" height="0.3409615384615387" fill="#252525" />
<rect x="3.1186538461538484" y="1.3888461538461547" width="0.3409615384615387" height="0.3409615384615387" fill="#252525" />
<rect x="3.464615384615387" y="1.3888461538461547" width="0.3409615384615387" height="0.3409615384615387" fill="#252525" />
<rect x="3.8105769230769257" y="1.3888461538461547" width="0.3409615384615387" height="0.3409615384615387" fill="#252525" />
<rect x="4.156538461538465" y="1.3888461538461547" width="0.3409615384615387" height="0.3409615384615387" fill="#54D2EB" />
<rect x="0.005" y="1.7348076923076934" width="0.3409615384615387" height="0.3409615384615387" fill="#E6E6E6" />
<rect x="0.3509615384615387" y="1.7348076923076934" width="0.3409615384615387" height="0.3409615384615387" fill="#252525" />
<rect x="0.6969230769230774" y="1.7348076923076934" width="0.3409615384615387" height="0.3409615384615387" fill="#252525" />
<rect x="1.042884615384616" y="1.7348076923076934" width="0.3409615384615387" height="0.3409615384615387" fill="#E6E6E6" />
<rect x="1.3888461538461547" y="1.7348076923076934" width="0.3409615384615387" height="0.3409615384615387" fill="#252525" />
<rect x="1.7348076923076934" y="1.7348076923076934" width="0.3409615384615387" height="0.3409615384615387" fill="#252525" />
<rect x="2.0807692307692323" y="1.7348076923076934" width="0.3409615384615387" height="0.3409615384615387" fill="#252525" />
<rect x="2.4267307692307707" y="1.7348076923076934" width="0.3409615384615387" height="0.3409615384615387" fill="#252525" />
<rect x="2.7726923076923096" y="1.7348076923076934" width="0.3409615384615387" height="0.3409615384615387" fill="#252525" />
<rect x="3.1186538461538484" y="1.7348076923076934" width="0.3409615384615387" height="0.3409615384615387" fill="#252525" />
<rect x="3.464615384615387" y="1.7348076923076934" width="0.3409615384615387" height="0.3409615384615387" fill="#252525" />
<rect x="3.8105769230769257" y="1.7348076923076934" width="0.3409615384615387" height="0.3409615384615387" fill="#252525" />
<rect x="4.156538461538465" y="1.7348076923076934" width="0.3409615384615387" height="0.3409615384615387" fill="#252525" />
<rect x="0.005" y="2.0807692307692323" width="0.3409615384615387" height="0.3409615384615387" fill="#E6E6E6" />
<rect x="0.3509615384615387" y="2.0807692307692323" width="0.3409615384615387" height="0.3409615384615387" fill="#252525" />
<rect x="0.6969230769230774" y="2.0807692307692323" width="0.3409615384615387" height="0.3409615384615387" fill="#252525" />
<rect x="1.042884615384616" y="2.0807692307692323" width="0.3409615384615387" height="0.3409615384615387" fill="#E6E6E6" />
<rect x="1.3888461538461547" y="2.0807692307692323" width="0.3409615384615387" height="0.3409615384615387" fill="#252525" />
<rect x="1.7348076923076934" y="2.0807692307692323" width="0.3409615384615387" height="0.3409615384615387" fill="#252525" />
<rect x="2.0807692307692323" y="2.0807692307692323" width="0.3409615384615387" height="0.3409615384615387" fill="#252525" />
<rect x="2.4267307692307707" y="2.0807692307692323" width="0.3409615384615387" height="0.3409615384615387" fill="#252525" />
<rect x="2.7726923076923096" y="2.0807692307692323" width="0.3409615384615387" height="0.3409615384615387" fill="#252525" />
<rect x="3.1186538461538484" y="2.0807692307692323" width="0.3409615384615387" height="0.3409615384615387" fill="#252525" />
<rect x="3.464615384615387" y="2.0807692307692323" width="0.3409615384615387" height="0.3409615384615387" fill="#252525" />
<rect x="3.8105769230769257" y="2.0807692307692323" width="0.3409615384615387" height="0.3409615384615387" fill="#252525" />
<rect x="4.156538461538465" y="2.0807692307692323" width="0.3409615384615387" height="0.3409615384615387" fill="#252525" />
<rect x="0.005" y="2.4267307692307707" width="0.3409615384615387" height="0.3409615384615387" fill="#E6E6E6" />
<rect x="0.3509615384615387" y="2.4267307692307707" width="0.3409615384615387" height="0.3409615384615387" fill="#252525" />
<rect x="0.6969230769230774" y="2.4267307692307707" width="0.3409615384615387" height="0.3409615384615387" fill="#252525" />
<rect x="1.042884615384616" y="2.4267307692307707" width="0.3409615384615387" height="0.3409615384615387" fill="#E6E6E6" />
<rect x="1.3888461538461547" y="2.4267307692307707" width="0.3409615384615387" height="0.3409615384615387" fill="#252525" />
<rect x="1.7348076923076934" y="2.4267307692307707" width="0.3409615384615387" height="0.3409615384615387" fill="#252525" />
<rect x="2.0807692307692323" y="2.4267307692307707" width="0.3409615384615387" height="0.3409615384615387" fill="#54D2EB" />
<rect x="2.4267307692307707" y="2.4267307692307707" width="0.3409615384615387" height="0.3409615384615387" fill="#252525" />
<rect x="2.7726923076923096" y="2.4267307692307707" width="0.3409615384615387" height="0.3409615384615387" fill="#252525" />
<rect x="3.1186538461538484" y="2.4267307692307707" width="0.3409615384615387" height="0.3409615384615387" fill="#54D2EB" />
<rect x="3.464615384615387" y="2.4267307692307707" width="0.3409615384615387" height="0.3409615384615387" fill="#252525" />
<rect x="3.8105769230769257" y="2.4267307692307707" width="0.3409615384615387" height="0.3409615384615387" fill="#252525" />
<rect x="4.156538461538465" y="2.4267307692307707" width="0.3409615384615387" height="0.3409615384615387" fill="#252525" />
<rect x="0.005" y="2.7726923076923096" width="0.3409615384615387" height="0.3409615384615387" fill="#E6E6E6" />
<rect x="0.3509615384615387" y="2.7726923076923096" width="0.3409615384615387" height="0.3409615384615387" fill="#252525" />
<rect x="0.6969230769230774" y="2.7726923076923096" width="0.3409615384615387" height="0.3409615384615387" fill="#54D2EB" />
<rect x="1.042884615384616" y="2.7726923076923096" width="0.3409615384615387" height="0.3409615384615387" fill="#E6E6E6" />
<rect x="1.3888461538461547" y="2.7726923076923096" width="0.3409615384615387" height="0.3409615384615387" fill="#54D2EB" />
<rect x="1.7348076923076934" y="2.7726923076923096" width="0.3409615384615387" height="0.3409615384615387" fill="#252525" />
<rect x="2.0807692307692323" y="2.7726923076923096" width="0.3409615384615387" height="0.3409615384615387" fill="#252525" />
<rect x="2.4267307692307707" y="2.7726923076923096" width="0.3409615384615387" height="0.3409615384615387" fill="#252525" />
<rect x="2.7726923076923096" y="2.7726923076923096" width="0.3409615384615387" height="0.3409615384615387" fill="#252525" />
<rect x="3.1186538461538484" y="2.7726923076923096" width="0.3409615384615387" height="0.3409615384615387" fill="#252525" />
<rect x="3.464615384615387" y="2.7726923076923096" width="0.3409615384615387" height="0.3409615384615387" fill="#252525" />
<rect x="3.8105769230769257" y="2.7726923076923096" width="0.3409615384615387" height="0.3409615384615387" fill="#252525" />
<rect x="4.156538461538465" y="2.7726923076923096" width="0.3409615384615387" height="0.3409615384615387" fill="#54D2EB" />
<rect x="0.005" y="3.1186538461538484" width="0.3409615384615387" height="0.3409615384615387" fill="#E6E6E6" />
<rect x="0.3509615384615387" y="3.1186538461538484" width="0.3409615384615387" height="0.3409615384615387" fill="#252525" />
<rect x="0.6969230769230774" y="3.1186538461538484" width="0.3409615384615387" height="0.3409615384615387" fill="#252525" />
<rect x="1.042884615384616" y="3.1186538461538484" width="0.3409615384615387" height="0.3409615384615387" fill="#E6E6E6" />
<rect x="1.3888461538461547" y="3.1186538461538484" width="0.3409615384615387" height="0.3409615384615387" fill="#252525" />
<rect x="1.7348076923076934" y="3.1186538461538484" width="0.3409615384615387" height="0.3409615384615387" fill="#54D2EB" />
<rect x="2.0807692307692323" y="3.1186538461538484" width="0.3409615384615387" height="0.3409615384615387" fill="#252525" />
<rect x="2.4267307692307707" y="3.1186538461538484" width="0.3409615384615387" height="0.3409615384615387" fill="#252525" />
<rect x="2.7726923076923096" y="3.1186538461538484" width="0.3409615384615387" height="0.3409615384615387" fill="#252525" />
<rect x="3.1186538461538484" y="3.1186538461538484" width="0.3409615384615387" height="0.3409615384615387" fill="#252525" />
<rect x="3.464615384615387" y="3.1186538461538484" width="0.3409615384615387" height="0.3409615384615387" fill="#252525" />
<rect x="3.8105769230769257" y="3.1186538461538484" width="0.3409615384615387" height="0.3409615384615387" fill="#252525" />
<rect x="4.156538461538465" y="3.1186538461538484" width="0.3409615384615387" height="0.3409615384615387" fill="#252525" />
<rect x="0.005" y="3.464615384615387" width="0.3409615384615387" height="0.3409615384615387" fill="#E6E6E6" />
<rect x="0.3509615384615387" y="3.464615384615387" width="0.3409615384615387" height="0.3409615384615387" fill="#54D2EB" />
<rect x="0.6969230769230774" y="3.464615384615387" width="0.3409615384615387" height="0.3409615384615387" fill="#252525" />
<rect x="1.042884615384616" y="3.464615384615387" width="0.3409615384615387" height="0.3409615384615387" fill="#E6E6E6" />
<rect x="1.3888461538461547" y="3.464615384615387" width="0.3409615384615387" height="0.3409615384615387" fill="#252525" />
<rect x="1.7348076923076934" y="3.464615384615387" width="0.3409615384615387" height="0.3409615384615387" fill="#252525" />
<rect x="2.0807692307692323" y="3.464615384615387" width="0.3409615384615387" height="0.3409615384615387" fill="#252525" />
<rect x="2.4267307692307707" y="3.464615384615387" width="0.3409615384615387" height="0.3409615384615387" fill="#252525" />
<rect x="2.7726923076923096" y="3.464615384615387" width="0.3409615384615387" height="0.3409615384615387" fill="#252525" />
<rect x="3.1186538461538484" y="3.464615384615387" width="0.3409615384615387" height="0.3409615384615387" fill="#252525" />
<rect x="3.464615384615387" y="3.464615384615387" width="0.3409615384615387" height="0.3409615384615387" fill="#54D2EB" />
<rect x="3.8105769230769257" y="3.464615384615387" width="0.3409615384615387" height="0.3409615384615387" fill="#252525" />
<rect x="4.156538461538465" y="3.464615384615387" width="0.3409615384615387" height="0.3409615384615387" fill="#54D2EB" />
<rect x="0.005" y="3.8105769230769257" width="0.3409615384615387" height="0.3409615384615387" fill="#E6E6E6" />
<rect x="0.3509615384615387" y="3.8105769230769257" width="0.3409615384615387" height="0.3409615384615387" fill="#252525" />
<rect x="0.6969230769230774" y="3.8105769230769257" width="0.3409615384615387" height="0.3409615384615387" fill="#252525" />
<rect x="1.042884615384616" y="3.8105769230769257" width="0.3409615384615387" height="0.3409615384615387" fill="#E6E6E6" />
<rect x="1.3888461538461547" y="3.8105769230769257" width="0.3409615384615387" height="0.3409615384615387" fill="#252525" />
<rect x="1.7348076923076934" y="3.8105769230769257" width="0.3409615384615387" height="0.3409615384615387" fill="#252525" />
<rect x="2.0807692307692323" y="3.8105769230769257" width="0.3409615384615387" height="0.3409615384615387" fill="#252525" />
<rect x="2.4267307692307707" y="3.8105769230769257" width="0.3409615384615387" height="0.3409615384615387" fill="#54D2EB" />
<rect x="2.7726923076923096" y="3.8105769230769257" width="0.3409615384615387" height="0.3409615384615387" fill="#252525" />
<rect x="3.1186538461538484" y="3.8105769230769257" width="0.3409615384615387" height="0.3409615384615387" fill="#252525" />
<rect x="3.464615384615387" y="3.8105769230769257" width="0.3409615384615387" height="0.3409615384615387" fill="#252525" />
<rect x="3.8105769230769257" y="3.8105769230769257" width="0.3409615384615387" height="0.3409615384615387" fill="#252525" />
<rect x="4.156538461538465" y="3.8105769230769257" width="0.3409615384615387" height="0.3409615384615387" fill="#252525" />
<rect x="0.005" y="4.156538461538465" width="0.3409615384615387" height="0.3409615384615387" fill="#54D2EB" />
<rect x="0.3509615384615387" y="4.156538461538465" width="0.3409615384615387" height="0.3409615384615387" fill="#252525" />
<rect x="0.6969230769230774" y="4.156538461538465" width="0.3409615384615387" height="0.3409615384615387" fill="#252525" />
<rect x="1.042884615384616" y="4.156538461538465" width="0.3409615384615387" height="0.3409615384615387" fill="#54D2EB" />
<rect x="1.3888461538461547" y="4.156538461538465" width="0.3409615384615387" height="0.3409615384615387" fill="#252525" />
<rect x="1.7348076923076934" y="4.156538461538465" width="0.3409615384615387" height="0.3409615384615387" fill="#252525" />
<rect x="2.0807692307692323" y="4.156538461538465" width="0.3409615384615387" height="0.3409615384615387" fill="#252525" />
<rect x="2.4267307692307707" y="4.156538461538465" width="0.3409615384615387" height="0.3409615384615387" fill="#252525" />
<rect x="2.7726923076923096" y="4.156538461538465" width="0.3409615384615387" height="0.3409615384615387" fill="#252525" />
<rect x="3.1186538461538484" y="4.156538461538465" width="0.3409615384615387" height="0.3409615384615387" fill="#252525" />
<rect x="3.464615384615387" y="4.156538461538465" width="0.3409615384615387" height="0.3409615384615387" fill="#252525" />
<rect x="3.8105769230769257" y="4.156538461538465" width="0.3409615384615387" height="0.3409615384615387" fill="#252525" />
<rect x="4.156538461538465" y="4.156538461538465" width="0.3409615384615387" height="0.3409615384615387" fill="#252525" />
<rect x="0.005" y="4.502500000000003" width="0.3409615384615387" height="0.3409615384615387" fill="#252525" />
<rect x="0.3509615384615387" y="4.502500000000003" width="0.3409615384615387" height="0.3409615384615387" fill="#252525" />
<rect x="0.6969230769230774" y="4.502500000000003" width="0.3409615384615387" height="0.3409615384615387" fill="#252525" />
<rect x="1.042884615384616" y="4.502500000000003" width="0.3409615384615387" height="0.3409615384615387" fill="#252525" />
<rect x="1.3888461538461547" y="4.502500000000003" width="0.3409615384615387" height="0.3409615384615387" fill="#252525" />
<rect x="1.7348076923076934" y="4.502500000000003" width="0.3409615384615387" height="0.3409615384615387" fill="#252525" />
<rect x="2.0807692307692323" y="4.502500000000003" width="0.3409615384615387" height="0.3409615384615387" fill="#252525" />
<rect x="2.4267307692307707" y="4.502500000000003" width="0.3409615384615387" height="0.3409615384615387" fill="#252525" />
<rect x="2.7726923076923096" y="4.502500000000003" width="0.3409615384615387" height="0.3409615384615387" fill="#252525" />
<rect x="3.1186538461538484" y="4.502500000000003" width="0.3409615384615387" height="0.3409615384615387" fill="#252525" />
<rect x="3.464615384615387" y="4.502500000000003" width="0.3409615384615387" height="0.3409615384615387" fill="#252525" />
<rect x="3.8105769230769257" y="4.502500000000003" width="0.3409615384615387" height="0.3409615384615387" fill="#252525" />
<rect x="4.156538461538465" y="4.502500000000003" width="0.3409615384615387" height="0.3409615384615387" fill="#54D2EB" />
<rect x="-0.02666666666666667" y="-0.02666666666666667" width="4.550833333333337" height="4.896794871794875" fill="none" stroke="#111111ff" stroke-width="0.08" />
<text x="4.497500000000003" y="5.312211538461542" font-size="0.375" fill="black" text-anchor="end" font-family="Anuphan">13x14</text>
<text x="-0.037500000000000006" y="5.312211538461542" font-size="0.375" fill="black" text-anchor="start" font-family="Anuphan" font-weight="600">Test 1</text>
</g>
<g id="d4">
<rect x="0.005" y="0.005" width="0.8945000000000006" height="0.8945000000000006" fill="#54D2EB" />
<rect x="0.9045000000000006" y="0.005" width="0.8945000000000006" height="0.8945000000000006" fill="#252525" />
<rect x="1.8040000000000012" y="0.005" width="0.8945000000000006" height="0.8945000000000006" fill="#252525" />
<rect x="2.703500000000002" y="0.005" width="0.8945000000000006" height="0.8945000000000006" fill="#252525" />
<rect x="3.6030000000000024" y="0.005" width="0.8945000000000006" height="0.8945000000000006" fill="#54D2EB" />
<rect x="0.005" y="0.9045000000000006" width="0.8945000000000006" height="0.8945000000000006" fill="#E6E6E6" />
<rect x="0.9045000000000006" y="0.9045000000000006" width="0.8945000000000006" height="0.8945000000000006" fill="#252525" />
<rect x="1.8040000000000012" y="0.9045000000000006" width="0.8945000000000006" height="0.8945000000000006" fill="#252525" />
<rect x="2.703500000000002" y="0.9045000000000006" width="0.8945000000000006" height="0.8945000000000006" fill="#252525" />
<rect x="3.6030000000000024" y="0.9045000000000006" width="0.8945000000000006" height="0.8945000000000006" fill="#E6E6E6" />
<rect x="0.005" y="1.8040000000000012" width="0.8945000000000006" height="0.8945000000000006" fill="#E6E6E6" />
<rect x="0.9045000000000006" y="1.8040000000000012" width="0.8945000000000006" height="0.8945000000000006" fill="#252525" />
<rect x="1.8040000000000012" y="1.8040000000000012" width="0.8945000000000006" height="0.8945000000000006" fill="#54D2EB" />
<rect x="2.703500000000002" y="1.8040000000000012" width="0.8945000000000006" height="0.8945000000000006" fill="#252525" />
<rect x="3.6030000000000024" y="1.8040000000000012" width="0.8945000000000006" height="0.8945000000000006" fill="#E6E6E6" />
<rect x="0.005" y="2.703500000000002" width="0.8945000000000006" height="0.8945000000000006" fill="#E6E6E6" />
<rect x="0.9045000000000006" y="2.703500000000002" width="0.8945000000000006" height="0.8945000000000006" fill="#252525" />
<rect x="1.8040000000000012" y="2.703500000000002" width="0.8945000000000006" height="0.8945000000000006" fill="#252525" />
<rect x="2.703500000000002" y="2.703500000000002" width="0.8945000000000006" height="0.8945000000000006" fill="#252525" />
<rect x="3.6030000000000024" y="2.703500000000002" width="0.8945000000000006" height="0.8945000000000006" fill="#E6E6E6" />
<rect x="0.005" y="3.6030000000000024" width="0.8945000000000006" height="0.8945000000000006" fill="#54D2EB" />
<rect x="0.9045000000000006" y="3.6030000000000024" width="0.8945000000000006" height="0.8945000000000006" fill="#252525" />
<rect x="1.8040000000000012" y="3.6030000000000024" width="0.8945000000000006" height="0.8945000000000006" fill="#252525" />
<rect x="2.703500000000002" y="3.6030000000000024" width="0.8945000000000006" height="0.8945000000000006" fill="#252525" />
<rect x="3.6030000000000024" y="3.6030000000000024" width="0.8945000000000006" height="0.8945000000000006" fill="#54D2EB" />
<rect x="-0.02666666666666667" y="-0.02666666666666667" width="4.550833333333337" height="4.550833333333337" fill="none" stroke="#111111ff" stroke-width="0.08" />
<text x="4.497500000000003" y="4.966250000000003" font-size="0.375" fill="black" text-anchor="end" font-family="Anuphan">5x5</text>
<text x="-0.037500000000000006" y="4.966250000000003" font-size="0.375" fill="black" text-anchor="start" font-family="Anuphan" font-weight="600">Output 1</text>
</g>
<g id="d5">
<rect x="0.005" y="0.005" width="0.6375000000000004" height="0.6375000000000004" fill="#54D2EB" />
<rect x="0.6475000000000004" y="0.005" width="0.6375000000000004" height="0.6375000000000004" fill="#252525" />
<rect x="1.2900000000000007" y="0.005" width="0.6375000000000004" height="0.6375000000000004" fill="#252525" />
<rect x="1.932500000000001" y="0.005" width="0.6375000000000004" height="0.6375000000000004" fill="#252525" />
<rect x="2.5750000000000015" y="0.005" width="0.6375000000000004" height="0.6375000000000004" fill="#252525" />
<rect x="3.217500000000002" y="0.005" width="0.6375000000000004" height="0.6375000000000004" fill="#252525" />
<rect x="3.860000000000002" y="0.005" width="0.6375000000000004" height="0.6375000000000004" fill="#54D2EB" />
<rect x="0.005" y="0.6475000000000004" width="0.6375000000000004" height="0.6375000000000004" fill="#E6E6E6" />
<rect x="0.6475000000000004" y="0.6475000000000004" width="0.6375000000000004" height="0.6375000000000004" fill="#252525" />
<rect x="1.2900000000000007" y="0.6475000000000004" width="0.6375000000000004" height="0.6375000000000004" fill="#252525" />
<rect x="1.932500000000001" y="0.6475000000000004" width="0.6375000000000004" height="0.6375000000000004" fill="#252525" />
<rect x="2.5750000000000015" y="0.6475000000000004" width="0.6375000000000004" height="0.6375000000000004" fill="#252525" />
<rect x="3.217500000000002" y="0.6475000000000004" width="0.6375000000000004" height="0.6375000000000004" fill="#252525" />
<rect x="3.860000000000002" y="0.6475000000000004" width="0.6375000000000004" height="0.6375000000000004" fill="#E6E6E6" />
<rect x="0.005" y="1.2900000000000007" width="0.6375000000000004" height="0.6375000000000004" fill="#E6E6E6" />
<rect x="0.6475000000000004" y="1.2900000000000007" width="0.6375000000000004" height="0.6375000000000004" fill="#252525" />
<rect x="1.2900000000000007" y="1.2900000000000007" width="0.6375000000000004" height="0.6375000000000004" fill="#252525" />
<rect x="1.932500000000001" y="1.2900000000000007" width="0.6375000000000004" height="0.6375000000000004" fill="#54D2EB" />
<rect x="2.5750000000000015" y="1.2900000000000007" width="0.6375000000000004" height="0.6375000000000004" fill="#54D2EB" />
<rect x="3.217500000000002" y="1.2900000000000007" width="0.6375000000000004" height="0.6375000000000004" fill="#252525" />
<rect x="3.860000000000002" y="1.2900000000000007" width="0.6375000000000004" height="0.6375000000000004" fill="#E6E6E6" />
<rect x="0.005" y="1.932500000000001" width="0.6375000000000004" height="0.6375000000000004" fill="#E6E6E6" />
<rect x="0.6475000000000004" y="1.932500000000001" width="0.6375000000000004" height="0.6375000000000004" fill="#252525" />
<rect x="1.2900000000000007" y="1.932500000000001" width="0.6375000000000004" height="0.6375000000000004" fill="#252525" />
<rect x="1.932500000000001" y="1.932500000000001" width="0.6375000000000004" height="0.6375000000000004" fill="#252525" />
<rect x="2.5750000000000015" y="1.932500000000001" width="0.6375000000000004" height="0.6375000000000004" fill="#252525" />
<rect x="3.217500000000002" y="1.932500000000001" width="0.6375000000000004" height="0.6375000000000004" fill="#252525" />
<rect x="3.860000000000002" y="1.932500000000001" width="0.6375000000000004" height="0.6375000000000004" fill="#E6E6E6" />
<rect x="0.005" y="2.5750000000000015" width="0.6375000000000004" height="0.6375000000000004" fill="#54D2EB" />
<rect x="0.6475000000000004" y="2.5750000000000015" width="0.6375000000000004" height="0.6375000000000004" fill="#252525" />
<rect x="1.2900000000000007" y="2.5750000000000015" width="0.6375000000000004" height="0.6375000000000004" fill="#54D2EB" />
<rect x="1.932500000000001" y="2.5750000000000015" width="0.6375000000000004" height="0.6375000000000004" fill="#252525" />
<rect x="2.5750000000000015" y="2.5750000000000015" width="0.6375000000000004" height="0.6375000000000004" fill="#252525" />
<rect x="3.217500000000002" y="2.5750000000000015" width="0.6375000000000004" height="0.6375000000000004" fill="#252525" />
<rect x="3.860000000000002" y="2.5750000000000015" width="0.6375000000000004" height="0.6375000000000004" fill="#54D2EB" />
<rect x="-0.02666666666666667" y="-0.02666666666666667" width="4.550833333333337" height="3.2658333333333354" fill="none" stroke="#111111ff" stroke-width="0.08" />
<text x="4.497500000000003" y="3.681250000000002" font-size="0.375" fill="black" text-anchor="end" font-family="Anuphan">7x5</text>
<text x="-0.037500000000000006" y="3.681250000000002" font-size="0.375" fill="black" text-anchor="start" font-family="Anuphan" font-weight="600">Output 2</text>
</g>
<g id="d6">
<rect x="0.005" y="0.005" width="0.8945000000000006" height="0.8945000000000006" fill="#54D2EB" />
<rect x="0.9045000000000006" y="0.005" width="0.8945000000000006" height="0.8945000000000006" fill="#252525" />
<rect x="1.8040000000000012" y="0.005" width="0.8945000000000006" height="0.8945000000000006" fill="#252525" />
<rect x="2.703500000000002" y="0.005" width="0.8945000000000006" height="0.8945000000000006" fill="#252525" />
<rect x="3.6030000000000024" y="0.005" width="0.8945000000000006" height="0.8945000000000006" fill="#54D2EB" />
<rect x="0.005" y="0.9045000000000006" width="0.8945000000000006" height="0.8945000000000006" fill="#E6E6E6" />
<rect x="0.9045000000000006" y="0.9045000000000006" width="0.8945000000000006" height="0.8945000000000006" fill="#252525" />
<rect x="1.8040000000000012" y="0.9045000000000006" width="0.8945000000000006" height="0.8945000000000006" fill="#252525" />
<rect x="2.703500000000002" y="0.9045000000000006" width="0.8945000000000006" height="0.8945000000000006" fill="#252525" />
<rect x="3.6030000000000024" y="0.9045000000000006" width="0.8945000000000006" height="0.8945000000000006" fill="#E6E6E6" />
<rect x="0.005" y="1.8040000000000012" width="0.8945000000000006" height="0.8945000000000006" fill="#E6E6E6" />
<rect x="0.9045000000000006" y="1.8040000000000012" width="0.8945000000000006" height="0.8945000000000006" fill="#252525" />
<rect x="1.8040000000000012" y="1.8040000000000012" width="0.8945000000000006" height="0.8945000000000006" fill="#54D2EB" />
<rect x="2.703500000000002" y="1.8040000000000012" width="0.8945000000000006" height="0.8945000000000006" fill="#252525" />
<rect x="3.6030000000000024" y="1.8040000000000012" width="0.8945000000000006" height="0.8945000000000006" fill="#E6E6E6" />
<rect x="0.005" y="2.703500000000002" width="0.8945000000000006" height="0.8945000000000006" fill="#E6E6E6" />
<rect x="0.9045000000000006" y="2.703500000000002" width="0.8945000000000006" height="0.8945000000000006" fill="#252525" />
<rect x="1.8040000000000012" y="2.703500000000002" width="0.8945000000000006" height="0.8945000000000006" fill="#252525" />
<rect x="2.703500000000002" y="2.703500000000002" width="0.8945000000000006" height="0.8945000000000006" fill="#252525" />
<rect x="3.6030000000000024" y="2.703500000000002" width="0.8945000000000006" height="0.8945000000000006" fill="#E6E6E6" />
<rect x="0.005" y="3.6030000000000024" width="0.8945000000000006" height="0.8945000000000006" fill="#E6E6E6" />
<rect x="0.9045000000000006" y="3.6030000000000024" width="0.8945000000000006" height="0.8945000000000006" fill="#252525" />
<rect x="1.8040000000000012" y="3.6030000000000024" width="0.8945000000000006" height="0.8945000000000006" fill="#54D2EB" />
<rect x="2.703500000000002" y="3.6030000000000024" width="0.8945000000000006" height="0.8945000000000006" fill="#252525" />
<rect x="3.6030000000000024" y="3.6030000000000024" width="0.8945000000000006" height="0.8945000000000006" fill="#E6E6E6" />
<rect x="0.005" y="4.502500000000003" width="0.8945000000000006" height="0.8945000000000006" fill="#54D2EB" />
<rect x="0.9045000000000006" y="4.502500000000003" width="0.8945000000000006" height="0.8945000000000006" fill="#252525" />
<rect x="1.8040000000000012" y="4.502500000000003" width="0.8945000000000006" height="0.8945000000000006" fill="#252525" />
<rect x="2.703500000000002" y="4.502500000000003" width="0.8945000000000006" height="0.8945000000000006" fill="#252525" />
<rect x="3.6030000000000024" y="4.502500000000003" width="0.8945000000000006" height="0.8945000000000006" fill="#54D2EB" />
<rect x="-0.02666666666666667" y="-0.02666666666666667" width="4.550833333333337" height="5.4503333333333375" fill="none" stroke="#111111ff" stroke-width="0.08" />
<text x="4.497500000000003" y="5.865750000000004" font-size="0.375" fill="black" text-anchor="end" font-family="Anuphan">5x6</text>
<text x="-0.037500000000000006" y="5.865750000000004" font-size="0.375" fill="black" text-anchor="start" font-family="Anuphan" font-weight="600">Output 3</text>
</g>
</defs>
<rect x="0" y="0" width="100%" height="100%" fill="#eeeff6" />
<use xlink:href="#d0" x="0.25" y="0.25" />
<use xlink:href="#d1" x="5.247500000000003" y="0.25" />
<use xlink:href="#d2" x="10.245000000000006" y="0.25" />
<use xlink:href="#d3" x="15.24250000000001" y="0.25" />
<path d="M2.4987500000000016,5.743461538461542 L2.4987500000000016,6.143461538461542" stroke-width="0.05" stroke="#888888" />
<path d="M2.3487500000000017,5.943461538461542 L2.4987500000000016,6.143461538461542" stroke-width="0.05" stroke="#888888" />
<path d="M2.6487500000000015,5.943461538461542 L2.4987500000000016,6.143461538461542" stroke-width="0.05" stroke="#888888" />
<use xlink:href="#d4" x="0.25" y="6.493461538461542" />
<path d="M7.496250000000005,5.743461538461542 L7.496250000000005,6.143461538461542" stroke-width="0.05" stroke="#888888" />
<path d="M7.346250000000005,5.943461538461542 L7.496250000000005,6.143461538461542" stroke-width="0.05" stroke="#888888" />
<path d="M7.6462500000000055,5.943461538461542 L7.496250000000005,6.143461538461542" stroke-width="0.05" stroke="#888888" />
<use xlink:href="#d5" x="5.247500000000003" y="6.493461538461542" />
<path d="M12.493750000000007,5.743461538461542 L12.493750000000007,6.143461538461542" stroke-width="0.05" stroke="#888888" />
<path d="M12.343750000000007,5.943461538461542 L12.493750000000007,6.143461538461542" stroke-width="0.05" stroke="#888888" />
<path d="M12.643750000000008,5.943461538461542 L12.493750000000007,6.143461538461542" stroke-width="0.05" stroke="#888888" />
<use xlink:href="#d6" x="10.245000000000006" y="6.493461538461542" />
<path d="M17.49125000000001,5.743461538461542 L17.49125000000001,6.143461538461542" stroke-width="0.05" stroke="#888888" />
<path d="M17.341250000000013,5.943461538461542 L17.49125000000001,6.143461538461542" stroke-width="0.05" stroke="#888888" />
<path d="M17.64125000000001,5.943461538461542 L17.49125000000001,6.143461538461542" stroke-width="0.05" stroke="#888888" />
<text x="17.49125000000001" y="9.305961538461542" font-size="1" font-family="Anuphan" font-weight="700" fill="#333333" text-anchor="middle" alignment-baseline="middle">?</text>
<text x="19.9" y="12.799999999999999" font-size="0.3" font-family="Anuphan" font-weight="600" fill="#666666" text-anchor="end" alignment-baseline="bottom">Task 3f7978a0</text>
</svg>