<?xml version="1.0" encoding="UTF-8"?>
<svg xmlns="http://www.w3.org/2000/svg" xmlns:xlink="http://www.w3.org/1999/xlink"
     width="384.0" height="536.0" viewBox="0 0 9.6 13.399999999999999">
<defs>
<g id="d0">
<rect x="0.005" y="0.005" width="0.5337499999999941" height="0.5337499999999941" fill="#252525" />
<rect x="0.5437499999999941" y="0.005" width="0.5337499999999941" height="0.5337499999999941" fill="#252525" />
<rect x="0.005" y="0.5437499999999941" width="0.5337499999999941" height="0.5337499999999941" fill="#252525" />
<rect x="0.5437499999999941" y="0.5437499999999941" width="0.5337499999999941" height="0.5337499999999941" fill="#252525" />
<rect x="0.005" y="1.082499999999988" width="0.5337499999999941" height="0.5337499999999941" fill="#252525" />
<rect x="0.5437499999999941" y="1.082499999999988" width="0.5337499999999941" height="0.5337499999999941" fill="#252525" />
<rect x="0.005" y="1.621249999999982" width="0.5337499999999941" height="0.5337499999999941" fill="#252525" />
<rect x="0.5437499999999941" y="1.621249999999982" width="0.5337499999999941" height="0.5337499999999941" fill="#252525" />
<rect x="0.005" y="2.159999999999976" width="0.5337499999999941" height="0.5337499999999941" fill="#252525" />
<rect x="0.5437499999999941" y="2.159999999999976" width="0.5337499999999941" height="0.5337499999999941" fill="#252525" />
<rect x="0.005" y="2.6987499999999702" width="0.5337499999999941" height="0.5337499999999941" fill="#252525" />
<rect x="0.5437499999999941" y="2.6987499999999702" width="0.5337499999999941" height="0.5337499999999941" fill="#252525" />
<rect x="0.005" y="3.2374999999999643" width="0.5337499999999941" height="0.5337499999999941" fill="#252525" />
<rect x="0.5437499999999941" y="3.2374999999999643" width="0.5337499999999941" height="0.5337499999999941" fill="#252525" />
<rect x="0.005" y="3.7762499999999584" width="0.5337499999999941" height="0.5337499999999941" fill="#252525" />
<rect x="0.5437499999999941" y="3.7762499999999584" width="0.5337499999999941" height="0.5337499999999941" fill="#252525" />
<rect x="0.005" y="4.314999999999952" width="0.5337499999999941" height="0.5337499999999941" fill="#252525" />
<rect x="0.5437499999999941" y="4.314999999999952" width="0.5337499999999941" height="0.5337499999999941" fill="#252525" />
<rect x="0.005" y="4.8537499999999465" width="0.5337499999999941" height="0.5337499999999941" fill="#0074D9" />
<rect x="0.5437499999999941" y="4.8537499999999465" width="0.5337499999999941" height="0.5337499999999941" fill="#252525" />
<rect x="-0.02666666666666667" y="-0.02666666666666667" width="1.1308333333333214" height="5.440833333333274" fill="none" stroke="#111111ff" stroke-width="0.08" />
<text x="1.0774999999999881" y="5.856249999999941" font-size="0.375" fill="black" text-anchor="end" font-family="Anuphan">2x10</text>
<text x="-0.037500000000000006" y="5.856249999999941" font-size="0.375" fill="black" text-anchor="start" font-family="Anuphan" font-weight="600">Input 1</text>
</g>
<g id="d1">
<rect x="0.005" y="0.005" width="0.5341666666666669" height="0.5341666666666669" fill="#252525" />
<rect x="0.5441666666666669" y="0.005" width="0.5341666666666669" height="0.5341666666666669" fill="#252525" />
<rect x="1.0833333333333337" y="0.005" width="0.5341666666666669" height="0.5341666666666669" fill="#252525" />
<rect x="0.005" y="0.5441666666666669" width="0.5341666666666669" height="0.5341666666666669" fill="#252525" />
<rect x="0.5441666666666669" y="0.5441666666666669" width="0.5341666666666669" height="0.5341666666666669" fill="#252525" />
<rect x="1.0833333333333337" y="0.5441666666666669" width="0.5341666666666669" height="0.5341666666666669" fill="#252525" />
<rect x="0.005" y="1.0833333333333337" width="0.5341666666666669" height="0.5341666666666669" fill="#252525" />
<rect x="0.5441666666666669" y="1.0833333333333337" width="0.5341666666666669" height="0.5341666666666669" fill="#252525" />
<rect x="1.0833333333333337" y="1.0833333333333337" width="0.5341666666666669" height="0.5341666666666669" fill="#252525" />
<rect x="0.005" y="1.6225000000000005" width="0.5341666666666669" height="0.5341666666666669" fill="#252525" />
<rect x="0.5441666666666669" y="1.6225000000000005" width="0.5341666666666669" height="0.5341666666666669" fill="#252525" />
<rect x="1.0833333333333337" y="1.6225000000000005" width="0.5341666666666669" height="0.5341666666666669" fill="#252525" />
<rect x="0.005" y="2.1616666666666675" width="0.5341666666666669" height="0.5341666666666669" fill="#252525" />
<rect x="0.5441666666666669" y="2.1616666666666675" width="0.5341666666666669" height="0.5341666666666669" fill="#252525" />
<rect x="1.0833333333333337" y="2.1616666666666675" width="0.5341666666666669" height="0.5341666666666669" fill="#252525" />
<rect x="0.005" y="2.7008333333333345" width="0.5341666666666669" height="0.5341666666666669" fill="#252525" />
<rect x="0.5441666666666669" y="2.7008333333333345" width="0.5341666666666669" height="0.5341666666666669" fill="#252525" />
<rect x="1.0833333333333337" y="2.7008333333333345" width="0.5341666666666669" height="0.5341666666666669" fill="#252525" />
<rect x="0.005" y="3.240000000000001" width="0.5341666666666669" height="0.5341666666666669" fill="#252525" />
<rect x="0.5441666666666669" y="3.240000000000001" width="0.5341666666666669" height="0.5341666666666669" fill="#252525" />
<rect x="1.0833333333333337" y="3.240000000000001" width="0.5341666666666669" height="0.5341666666666669" fill="#252525" />
<rect x="0.005" y="3.779166666666668" width="0.5341666666666669" height="0.5341666666666669" fill="#252525" />
<rect x="0.5441666666666669" y="3.779166666666668" width="0.5341666666666669" height="0.5341666666666669" fill="#252525" />
<rect x="1.0833333333333337" y="3.779166666666668" width="0.5341666666666669" height="0.5341666666666669" fill="#252525" />
<rect x="0.005" y="4.318333333333335" width="0.5341666666666669" height="0.5341666666666669" fill="#252525" />
<rect x="0.5441666666666669" y="4.318333333333335" width="0.5341666666666669" height="0.5341666666666669" fill="#252525" />
<rect x="1.0833333333333337" y="4.318333333333335" width="0.5341666666666669" height="0.5341666666666669" fill="#252525" />
<rect x="0.005" y="4.857500000000002" width="0.5341666666666669" height="0.5341666666666669" fill="#0074D9" />
<rect x="0.5441666666666669" y="4.857500000000002" width="0.5341666666666669" height="0.5341666666666669" fill="#252525" />
<rect x="1.0833333333333337" y="4.857500000000002" width="0.5341666666666669" height="0.5341666666666669" fill="#252525" />
<rect x="-0.02666666666666667" y="-0.02666666666666667" width="1.6708333333333338" height="5.445000000000003" fill="none" stroke="#111111ff" stroke-width="0.08" />
<text x="1.6175000000000006" y="5.860416666666669" font-size="0.375" fill="black" text-anchor="end" font-family="Anuphan">3x10</text>
<text x="-0.037500000000000006" y="5.860416666666669" font-size="0.375" fill="black" text-anchor="start" font-family="Anuphan" font-weight="600">Input 2</text>
</g>
<g id="d2">
<rect x="0.005" y="0.005" width="0.5356249999999972" height="0.5356249999999972" fill="#252525" />
<rect x="0.5456249999999973" y="0.005" width="0.5356249999999972" height="0.5356249999999972" fill="#252525" />
<rect x="1.0862499999999944" y="0.005" width="0.5356249999999972" height="0.5356249999999972" fill="#252525" />
<rect x="1.6268749999999916" y="0.005" width="0.5356249999999972" height="0.5356249999999972" fill="#252525" />
<rect x="0.005" y="0.5456249999999973" width="0.5356249999999972" height="0.5356249999999972" fill="#252525" />
<rect x="0.5456249999999973" y="0.5456249999999973" width="0.5356249999999972" height="0.5356249999999972" fill="#252525" />
<rect x="1.0862499999999944" y="0.5456249999999973" width="0.5356249999999972" height="0.5356249999999972" fill="#252525" />
<rect x="1.6268749999999916" y="0.5456249999999973" width="0.5356249999999972" height="0.5356249999999972" fill="#252525" />
<rect x="0.005" y="1.0862499999999944" width="0.5356249999999972" height="0.5356249999999972" fill="#252525" />
<rect x="0.5456249999999973" y="1.0862499999999944" width="0.5356249999999972" height="0.5356249999999972" fill="#252525" />
<rect x="1.0862499999999944" y="1.0862499999999944" width="0.5356249999999972" height="0.5356249999999972" fill="#252525" />
<rect x="1.6268749999999916" y="1.0862499999999944" width="0.5356249999999972" height="0.5356249999999972" fill="#252525" />
<rect x="0.005" y="1.6268749999999916" width="0.5356249999999972" height="0.5356249999999972" fill="#252525" />
<rect x="0.5456249999999973" y="1.6268749999999916" width="0.5356249999999972" height="0.5356249999999972" fill="#252525" />
<rect x="1.0862499999999944" y="1.6268749999999916" width="0.5356249999999972" height="0.5356249999999972" fill="#252525" />
<rect x="1.6268749999999916" y="1.6268749999999916" width="0.5356249999999972" height="0.5356249999999972" fill="#252525" />
<rect x="0.005" y="2.167499999999989" width="0.5356249999999972" height="0.5356249999999972" fill="#252525" />
<rect x="0.5456249999999973" y="2.167499999999989" width="0.5356249999999972" height="0.5356249999999972" fill="#252525" />
<rect x="1.0862499999999944" y="2.167499999999989" width="0.5356249999999972" height="0.5356249999999972" fill="#252525" />
<rect x="1.6268749999999916" y="2.167499999999989" width="0.5356249999999972" height="0.5356249999999972" fill="#252525" />
<rect x="0.005" y="2.708124999999986" width="0.5356249999999972" height="0.5356249999999972" fill="#252525" />
<rect x="0.5456249999999973" y="2.708124999999986" width="0.5356249999999972" height="0.5356249999999972" fill="#252525" />
<rect x="1.0862499999999944" y="2.708124999999986" width="0.5356249999999972" height="0.5356249999999972" fill="#252525" />
<rect x="1.6268749999999916" y="2.708124999999986" width="0.5356249999999972" height="0.5356249999999972" fill="#252525" />
<rect x="0.005" y="3.2487499999999834" width="0.5356249999999972" height="0.5356249999999972" fill="#252525" />
<rect x="0.5456249999999973" y="3.2487499999999834" width="0.5356249999999972" height="0.5356249999999972" fill="#252525" />
<rect x="1.0862499999999944" y="3.2487499999999834" width="0.5356249999999972" height="0.5356249999999972" fill="#252525" />
<rect x="1.6268749999999916" y="3.2487499999999834" width="0.5356249999999972" height="0.5356249999999972" fill="#252525" />
<rect x="0.005" y="3.7893749999999806" width="0.5356249999999972" height="0.5356249999999972" fill="#252525" />
<rect x="0.5456249999999973" y="3.7893749999999806" width="0.5356249999999972" height="0.5356249999999972" fill="#252525" />
<rect x="1.0862499999999944" y="3.7893749999999806" width="0.5356249999999972" height="0.5356249999999972" fill="#252525" />
<rect x="1.6268749999999916" y="3.7893749999999806" width="0.5356249999999972" height="0.5356249999999972" fill="#252525" />
<rect x="0.005" y="4.329999999999978" width="0.5356249999999972" height="0.5356249999999972" fill="#252525" />
<rect x="0.5456249999999973" y="4.329999999999978" width="0.5356249999999972" height="0.5356249999999972" fill="#252525" />
<rect x="1.0862499999999944" y="4.329999999999978" width="0.5356249999999972" height="0.5356249999999972" fill="#252525" />
<rect x="1.6268749999999916" y="4.329999999999978" width="0.5356249999999972" height="0.5356249999999972" fill="#252525" />
<rect x="0.005" y="4.870624999999975" width="0.5356249999999972" height="0.5356249999999972" fill="#0074D9" />
<rect x="0.5456249999999973" y="4.870624999999975" width="0.5356249999999972" height="0.5356249999999972" fill="#252525" />
<rect x="1.0862499999999944" y="4.870624999999975" width="0.5356249999999972" height="0.5356249999999972" fill="#252525" />
<rect x="1.6268749999999916" y="4.870624999999975" width="0.5356249999999972" height="0.5356249999999972" fill="#252525" />
<rect x="-0.02666666666666667" y="-0.02666666666666667" width="2.215833333333322" height="5.459583333333306" fill="none" stroke="#111111ff" stroke-width="0.08" />
<text x="2.162499999999989" y="5.8749999999999725" font-size="0.375" fill="black" text-anchor="end" font-family="Anuphan">4x10</text>
<text x="-0.037500000000000006" y="5.8749999999999725" font-size="0.375" fill="black" text-anchor="start" font-family="Anuphan" font-weight="600">Input 3</text>
</g>
<g id="d3">
<rect x="0.005" y="0.005" width="0.5374999999999954" height="0.5374999999999954" fill="#252525" />
<rect x="0.5474999999999954" y="0.005" width="0.5374999999999954" height="0.5374999999999954" fill="#252525" />
<rect x="1.0899999999999908" y="0.005" width="0.5374999999999954" height="0.5374999999999954" fill="#252525" />
<rect x="1.632499999999986" y="0.005" width="0.5374999999999954" height="0.5374999999999954" fill="#252525" />
<rect x="2.1749999999999816" y="0.005" width="0.5374999999999954" height="0.5374999999999954" fill="#252525" />
<rect x="0.005" y="0.5474999999999954" width="0.5374999999999954" height="0.5374999999999954" fill="#252525" />
<rect x="0.5474999999999954" y="0.5474999999999954" width="0.5374999999999954" height="0.5374999999999954" fill="#252525" />
<rect x="1.0899999999999908" y="0.5474999999999954" width="0.5374999999999954" height="0.5374999999999954" fill="#252525" />
<rect x="1.632499999999986" y="0.5474999999999954" width="0.5374999999999954" height="0.5374999999999954" fill="#252525" />
<rect x="2.1749999999999816" y="0.5474999999999954" width="0.5374999999999954" height="0.5374999999999954" fill="#252525" />
<rect x="0.005" y="1.0899999999999908" width="0.5374999999999954" height="0.5374999999999954" fill="#252525" />
<rect x="0.5474999999999954" y="1.0899999999999908" width="0.5374999999999954" height="0.5374999999999954" fill="#252525" />
<rect x="1.0899999999999908" y="1.0899999999999908" width="0.5374999999999954" height="0.5374999999999954" fill="#252525" />
<rect x="1.632499999999986" y="1.0899999999999908" width="0.5374999999999954" height="0.5374999999999954" fill="#252525" />
<rect x="2.1749999999999816" y="1.0899999999999908" width="0.5374999999999954" height="0.5374999999999954" fill="#252525" />
<rect x="0.005" y="1.632499999999986" width="0.5374999999999954" height="0.5374999999999954" fill="#252525" />
<rect x="0.5474999999999954" y="1.632499999999986" width="0.5374999999999954" height="0.5374999999999954" fill="#252525" />
<rect x="1.0899999999999908" y="1.632499999999986" width="0.5374999999999954" height="0.5374999999999954" fill="#252525" />
<rect x="1.632499999999986" y="1.632499999999986" width="0.5374999999999954" height="0.5374999999999954" fill="#252525" />
<rect x="2.1749999999999816" y="1.632499999999986" width="0.5374999999999954" height="0.5374999999999954" fill="#252525" />
<rect x="0.005" y="2.1749999999999816" width="0.5374999999999954" height="0.5374999999999954" fill="#252525" />
<rect x="0.5474999999999954" y="2.1749999999999816" width="0.5374999999999954" height="0.5374999999999954" fill="#252525" />
<rect x="1.0899999999999908" y="2.1749999999999816" width="0.5374999999999954" height="0.5374999999999954" fill="#252525" />
<rect x="1.632499999999986" y="2.1749999999999816" width="0.5374999999999954" height="0.5374999999999954" fill="#252525" />
<rect x="2.1749999999999816" y="2.1749999999999816" width="0.5374999999999954" height="0.5374999999999954" fill="#252525" />
<rect x="0.005" y="2.717499999999977" width="0.5374999999999954" height="0.5374999999999954" fill="#252525" />
<rect x="0.5474999999999954" y="2.717499999999977" width="0.5374999999999954" height="0.5374999999999954" fill="#252525" />
<rect x="1.0899999999999908" y="2.717499999999977" width="0.5374999999999954" height="0.5374999999999954" fill="#252525" />
<rect x="1.632499999999986" y="2.717499999999977" width="0.5374999999999954" height="0.5374999999999954" fill="#252525" />
<rect x="2.1749999999999816" y="2.717499999999977" width="0.5374999999999954" height="0.5374999999999954" fill="#252525" />
<rect x="0.005" y="3.2599999999999723" width="0.5374999999999954" height="0.5374999999999954" fill="#252525" />
<rect x="0.5474999999999954" y="3.2599999999999723" width="0.5374999999999954" height="0.5374999999999954" fill="#252525" />
<rect x="1.0899999999999908" y="3.2599999999999723" width="0.5374999999999954" height="0.5374999999999954" fill="#252525" />
<rect x="1.632499999999986" y="3.2599999999999723" width="0.5374999999999954" height="0.5374999999999954" fill="#252525" />
<rect x="2.1749999999999816" y="3.2599999999999723" width="0.5374999999999954" height="0.5374999999999954" fill="#252525" />
<rect x="0.005" y="3.802499999999968" width="0.5374999999999954" height="0.5374999999999954" fill="#252525" />
<rect x="0.5474999999999954" y="3.802499999999968" width="0.5374999999999954" height="0.5374999999999954" fill="#252525" />
<rect x="1.0899999999999908" y="3.802499999999968" width="0.5374999999999954" height="0.5374999999999954" fill="#252525" />
<rect x="1.632499999999986" y="3.802499999999968" width="0.5374999999999954" height="0.5374999999999954" fill="#252525" />
<rect x="2.1749999999999816" y="3.802499999999968" width="0.5374999999999954" height="0.5374999999999954" fill="#252525" />
<rect x="0.005" y="4.344999999999963" width="0.5374999999999954" height="0.5374999999999954" fill="#252525" />
<rect x="0.5474999999999954" y="4.344999999999963" width="0.5374999999999954" height="0.5374999999999954" fill="#252525" />
<rect x="1.0899999999999908" y="4.344999999999963" width="0.5374999999999954" height="0.5374999999999954" fill="#252525" />
<rect x="1.632499999999986" y="4.344999999999963" width="0.5374999999999954" height="0.5374999999999954" fill="#252525" />
<rect x="2.1749999999999816" y="4.344999999999963" width="0.5374999999999954" height="0.5374999999999954" fill="#252525" />
<rect x="0.005" y="4.887499999999958" width="0.5374999999999954" height="0.5374999999999954" fill="#0074D9" />
<rect x="0.5474999999999954" y="4.887499999999958" width="0.5374999999999954" height="0.5374999999999954" fill="#252525" />
<rect x="1.0899999999999908" y="4.887499999999958" width="0.5374999999999954" height="0.5374999999999954" fill="#252525" />
<rect x="1.632499999999986" y="4.887499999999958" width="0.5374999999999954" height="0.5374999999999954" fill="#252525" />
<rect x="2.1749999999999816" y="4.887499999999958" width="0.5374999999999954" height="0.5374999999999954" fill="#252525" />
<rect x="-0.02666666666666667" y="-0.02666666666666667" width="2.7658333333333105" height="5.478333333333288" fill="none" stroke="#111111ff" stroke-width="0.08" />
<text x="2.7124999999999773" y="5.8937499999999545" font-size="0.375" fill="black" text-anchor="end" font-family="Anuphan">5x10</text>
<text x="-0.037500000000000006" y="5.8937499999999545" font-size="0.375" fill="black" text-anchor="start" font-family="Anuphan" font-weight="600">Test 1</text>
</g>
<g id="d4">
<rect x="0.005" y="0.005" width="0.5337499999999941" height="0.5337499999999941" fill="#252525" />
<rect x="0.5437499999999941" y="0.005" width="0.5337499999999941" height="0.5337499999999941" fill="#0074D9" />
<rect x="0.005" y="0.5437499999999941" width="0.5337499999999941" height="0.5337499999999941" fill="#0074D9" />
<rect x="0.5437499999999941" y="0.5437499999999941" width="0.5337499999999941" height="0.5337499999999941" fill="#252525" />
<rect x="0.005" y="1.082499999999988" width="0.5337499999999941" height="0.5337499999999941" fill="#252525" />
<rect x="0.5437499999999941" y="1.082499999999988" width="0.5337499999999941" height="0.5337499999999941" fill="#0074D9" />
<rect x="0.005" y="1.621249999999982" width="0.5337499999999941" height="0.5337499999999941" fill="#0074D9" />
<rect x="0.5437499999999941" y="1.621249999999982" width="0.5337499999999941" height="0.5337499999999941" fill="#252525" />
<rect x="0.005" y="2.159999999999976" width="0.5337499999999941" height="0.5337499999999941" fill="#252525" />
<rect x="0.5437499999999941" y="2.159999999999976" width="0.5337499999999941" height="0.5337499999999941" fill="#0074D9" />
<rect x="0.005" y="2.6987499999999702" width="0.5337499999999941" height="0.5337499999999941" fill="#0074D9" />
<rect x="0.5437499999999941" y="2.6987499999999702" width="0.5337499999999941" height="0.5337499999999941" fill="#252525" />
<rect x="0.005" y="3.2374999999999643" width="0.5337499999999941" height="0.5337499999999941" fill="#252525" />
<rect x="0.5437499999999941" y="3.2374999999999643" width="0.5337499999999941" height="0.5337499999999941" fill="#0074D9" />
<rect x="0.005" y="3.7762499999999584" width="0.5337499999999941" height="0.5337499999999941" fill="#0074D9" />
<rect x="0.5437499999999941" y="3.7762499999999584" width="0.5337499999999941" height="0.5337499999999941" fill="#252525" />
<rect x="0.005" y="4.314999999999952" width="0.5337499999999941" height="0.5337499999999941" fill="#252525" />
<rect x="0.5437499999999941" y="4.314999999999952" width="0.5337499999999941" height="0.5337499999999941" fill="#0074D9" />
<rect x="0.005" y="4.8537499999999465" width="0.5337499999999941" height="0.5337499999999941" fill="#0074D9" />
<rect x="0.5437499999999941" y="4.8537499999999465" width="0.5337499999999941" height="0.5337499999999941" fill="#252525" />
<rect x="-0.02666666666666667" y="-0.02666666666666667" width="1.1308333333333214" height="5.440833333333274" fill="none" stroke="#111111ff" stroke-width="0.08" />
<text x="1.0774999999999881" y="5.856249999999941" font-size="0.375" fill="black" text-anchor="end" font-family="Anuphan">2x10</text>
<text x="-0.037500000000000006" y="5.856249999999941" font-size="0.375" fill="black" text-anchor="start" font-family="Anuphan" font-weight="600">Output 1</text>
</g>
<g id="d5">
<rect x="0.005" y="0.005" width="0.5341666666666669" height="0.5341666666666669" fill="#252525" />
<rect x="0.5441666666666669" y="0.005" width="0.5341666666666669" height="0.5341666666666669" fill="#0074D9" />
<rect x="1.0833333333333337" y="0.005" width="0.5341666666666669" height="0.5341666666666669" fill="#252525" />
<rect x="0.005" y="0.5441666666666669" width="0.5341666666666669" height="0.5341666666666669" fill="#0074D9" />
<rect x="0.5441666666666669" y="0.5441666666666669" width="0.5341666666666669" height="0.5341666666666669" fill="#252525" />
<rect x="1.0833333333333337" y="0.5441666666666669" width="0.5341666666666669" height="0.5341666666666669" fill="#252525" />
<rect x="0.005" y="1.0833333333333337" width="0.5341666666666669" height="0.5341666666666669" fill="#252525" />
<rect x="0.5441666666666669" y="1.0833333333333337" width="0.5341666666666669" height="0.5341666666666669" fill="#0074D9" />
<rect x="1.0833333333333337" y="1.0833333333333337" width="0.5341666666666669" height="0.5341666666666669" fill="#252525" />
<rect x="0.005" y="1.6225000000000005" width="0.5341666666666669" height="0.5341666666666669" fill="#252525" />
<rect x="0.5441666666666669" y="1.6225000000000005" width="0.5341666666666669" height="0.5341666666666669" fill="#252525" />
<rect x="1.0833333333333337" y="1.6225000000000005" width="0.5341666666666669" height="0.5341666666666669" fill="#0074D9" />
<rect x="0.005" y="2.1616666666666675" width="0.5341666666666669" height="0.5341666666666669" fill="#252525" />
<rect x="0.5441666666666669" y="2.1616666666666675" width="0.5341666666666669" height="0.5341666666666669" fill="#0074D9" />
<rect x="1.0833333333333337" y="2.1616666666666675" width="0.5341666666666669" height="0.5341666666666669" fill="#252525" />
<rect x="0.005" y="2.7008333333333345" width="0.5341666666666669" height="0.5341666666666669" fill="#0074D9" />
<rect x="0.5441666666666669" y="2.7008333333333345" width="0.5341666666666669" height="0.5341666666666669" fill="#252525" />
<rect x="1.0833333333333337" y="2.7008333333333345" width="0.5341666666666669" height="0.5341666666666669" fill="#252525" />
<rect x="0.005" y="3.240000000000001" width="0.5341666666666669" height="0.5341666666666669" fill="#252525" />
<rect x="0.5441666666666669" y="3.240000000000001" width="0.5341666666666669" height="0.5341666666666669" fill="#0074D9" />
<rect x="1.0833333333333337" y="3.240000000000001" width="0.5341666666666669" height="0.5341666666666669" fill="#252525" />
<rect x="0.005" y="3.779166666666668" width="0.5341666666666669" height="0.5341666666666669" fill="#252525" />
<rect x="0.5441666666666669" y="3.779166666666668" width="0.5341666666666669" height="0.5341666666666669" fill="#252525" />
<rect x="1.0833333333333337" y="3.779166666666668" width="0.5341666666666669" height="0.5341666666666669" fill="#0074D9" />
<rect x="0.005" y="4.318333333333335" width="0.5341666666666669" height="0.5341666666666669" fill="#252525" />
<rect x="0.5441666666666669" y="4.318333333333335" width="0.5341666666666669" height="0.5341666666666669" fill="#0074D9" />
<rect x="1.0833333333333337" y="4.318333333333335" width="0.5341666666666669" height="0.5341666666666669" fill="#252525" />
<rect x="0.005" y="4.857500000000002" width="0.5341666666666669" height="0.5341666666666669" fill="#0074D9" />
<rect x="0.5441666666666669" y="4.857500000000002" width="0.5341666666666669" height="0.5341666666666669" fill="#252525" />
<rect x="1.0833333333333337" y="4.857500000000002" width="0.5341666666666669" height="0.5341666666666669" fill="#252525" />
<rect x="-0.02666666666666667" y="-0.02666666666666667" width="1.6708333333333338" height="5.445000000000003" fill="none" stroke="#111111ff" stroke-width="0.08" />
<text x="1.6175000000000006" y="5.860416666666669" font-size="0.375" fill="black" text-anchor="end" font-family="Anuphan">3x10</text>
<text x="-0.037500000000000006" y="5.860416666666669" font-size="0.375" fill="black" text-anchor="start" font-family="Anuphan" font-weight="600">Output 2</text>
</g>
<g id="d6">
<rect x="0.005" y="0.005" width="0.5356249999999972" height="0.5356249999999972" fill="#252525" />
<rect x="0.5456249999999973" y="0.005" width="0.5356249999999972" height="0.5356249999999972" fill="#252525" />
<rect x="1.0862499999999944" y="0.005" width="0.5356249999999972" height="0.5356249999999972" fill="#252525" />
<rect x="1.6268749999999916" y="0.005" width="0.5356249999999972" height="0.5356249999999972" fill="#0074D9" />
<rect x="0.005" y="0.5456249999999973" width="0.5356249999999972" height="0.5356249999999972" fill="#252525" />
<rect x="0.5456249999999973" y="0.5456249999999973" width="0.5356249999999972" height="0.5356249999999972" fill="#252525" />
<rect x="1.0862499999999944" y="0.5456249999999973" width="0.5356249999999972" height="0.5356249999999972" fill="#0074D9" />
<rect x="1.6268749999999916" y="0.5456249999999973" width="0.5356249999999972" height="0.5356249999999972" fill="#252525" />
<rect x="0.005" y="1.0862499999999944" width="0.5356249999999972" height="0.5356249999999972" fill="#252525" />
<rect x="0.5456249999999973" y="1.0862499999999944" width="0.5356249999999972" height="0.5356249999999972" fill="#0074D9" />
<rect x="1.0862499999999944" y="1.0862499999999944" width="0.5356249999999972" height="0.5356249999999972" fill="#252525" />
<rect x="1.6268749999999916" y="1.0862499999999944" width="0.5356249999999972" height="0.5356249999999972" fill="#252525" />
<rect x="0.005" y="1.6268749999999916" width="0.5356249999999972" height="0.5356249999999972" fill="#0074D9" />
<rect x="0.5456249999999973" y="1.6268749999999916" width="0.5356249999999972" height="0.5356249999999972" fill="#252525" />
<rect x="1.0862499999999944" y="1.6268749999999916" width="0.5356249999999972" height="0.5356249999999972" fill="#252525" />
<rect x="1.6268749999999916" y="1.6268749999999916" width="0.5356249999999972" height="0.5356249999999972" fill="#252525" />
<rect x="0.005" y="2.167499999999989" width="0.5356249999999972" height="0.5356249999999972" fill="#252525" />
<rect x="0.5456249999999973" y="2.167499999999989" width="0.5356249999999972" height="0.5356249999999972" fill="#0074D9" />
<rect x="1.0862499999999944" y="2.167499999999989" width="0.5356249999999972" height="0.5356249999999972" fill="#252525" />
<rect x="1.6268749999999916" y="2.167499999999989" width="0.5356249999999972" height="0.5356249999999972" fill="#252525" />
<rect x="0.005" y="2.708124999999986" width="0.5356249999999972" height="0.5356249999999972" fill="#252525" />
<rect x="0.5456249999999973" y="2.708124999999986" width="0.5356249999999972" height="0.5356249999999972" fill="#252525" />
<rect x="1.0862499999999944" y="2.708124999999986" width="0.5356249999999972" height="0.5356249999999972" fill="#0074D9" />
<rect x="1.6268749999999916" y="2.708124999999986" width="0.5356249999999972" height="0.5356249999999972" fill="#252525" />
<rect x="0.005" y="3.2487499999999834" width="0.5356249999999972" height="0.5356249999999972" fill="#252525" />
<rect x="0.5456249999999973" y="3.2487499999999834" width="0.5356249999999972" height="0.5356249999999972" fill="#252525" />
<rect x="1.0862499999999944" y="3.2487499999999834" width="0.5356249999999972" height="0.5356249999999972" fill="#252525" />
<rect x="1.6268749999999916" y="3.2487499999999834" width="0.5356249999999972" height="0.5356249999999972" fill="#0074D9" />
<rect x="0.005" y="3.7893749999999806" width="0.5356249999999972" height="0.5356249999999972" fill="#252525" />
<rect x="0.5456249999999973" y="3.7893749999999806" width="0.5356249999999972" height="0.5356249999999972" fill="#252525" />
<rect x="1.0862499999999944" y="3.7893749999999806" width="0.5356249999999972" height="0.5356249999999972" fill="#0074D9" />
<rect x="1.6268749999999916" y="3.7893749999999806" width="0.5356249999999972" height="0.5356249999999972" fill="#252525" />
<rect x="0.005" y="4.329999999999978" width="0.5356249999999972" height="0.5356249999999972" fill="#252525" />
<rect x="0.5456249999999973" y="4.329999999999978" width="0.5356249999999972" height="0.5356249999999972" fill="#0074D9" />
<rect x="1.0862499999999944" y="4.329999999999978" width="0.5356249999999972" height="0.5356249999999972" fill="#252525" />
<rect x="1.6268749999999916" y="4.329999999999978" width="0.5356249999999972" height="0.5356249999999972" fill="#252525" />
<rect x="0.005" y="4.870624999999975" width="0.5356249999999972" height="0.5356249999999972" fill="#0074D9" />
<rect x="0.5456249999999973" y="4.870624999999975" width="0.5356249999999972" height="0.5356249999999972" fill="#252525" />
<rect x="1.0862499999999944" y="4.870624999999975" width="0.5356249999999972" height="0.5356249999999972" fill="#252525" />
<rect x="1.6268749999999916" y="4.870624999999975" width="0.5356249999999972" height="0.5356249999999972" fill="#252525" />
<rect x="-0.02666666666666667" y="-0.02666666666666667" width="2.215833333333322" height="5.459583333333306" fill="none" stroke="#111111ff" stroke-width="0.08" />
<text x="2.162499999999989" y="5.8749999999999725" font-size="0.375" fill="black" text-anchor="end" font-family="Anuphan">4x10</text>
<text x="-0.037500000000000006" y="5.8749999999999725" font-size="0.375" fill="black" text-anchor="start" font-family="Anuphan" font-weight="600">Output 3</text>
</g>
</defs>
<rect x="0" y="0" width="100%" height="100%" fill="#eeeff6" />
<use xlink:href="#d0" x="0.25" y="0.25" />
<use xlink:href="#d1" x="1.8274999999999881" y="0.25" />
<use xlink:href="#d2" x="3.9449999999999887" y="0.25" />
<use xlink:href="#d3" x="6.607499999999978" y="0.25" />
<path d="M0.7887499999999941,6.324999999999955 L0.7887499999999941,6.724999999999955" stroke-width="0.05" stroke="#888888" />
<path d="M0.638749999999994,6.524999999999955 L0.7887499999999941,6.724999999999955" stroke-width="0.05" stroke="#888888" />
<path d="M0.9387499999999941,6.524999999999955 L0.7887499999999941,6.724999999999955" stroke-width="0.05" stroke="#888888" />
<use xlink:href="#d4" x="0.25" y="7.074999999999955" />
<path d="M2.6362499999999884,6.324999999999955 L2.6362499999999884,6.724999999999955" stroke-width="0.05" stroke="#888888" />
<path d="M2.4862499999999885,6.524999999999955 L2.6362499999999884,6.724999999999955" stroke-width="0.05" stroke="#888888" />
<path d="M2.7862499999999883,6.524999999999955 L2.6362499999999884,6.724999999999955" stroke-width="0.05" stroke="#888888" />
<use xlink:href="#d5" x="1.8274999999999881" y="7.074999999999955" />
<path d="M5.026249999999983,6.324999999999955 L5.026249999999983,6.724999999999955" stroke-width="0.05" stroke="#888888" />
<path d="M4.876249999999983,6.524999999999955 L5.026249999999983,6.724999999999955" stroke-width="0.05" stroke="#888888" />
<path d="M5.176249999999984,6.524999999999955 L5.026249999999983,6.724999999999955" stroke-width="0.05" stroke="#888888" />
<use xlink:href="#d6" x="3.9449999999999887" y="7.074999999999955" />
<path d="M7.963749999999966,6.324999999999955 L7.963749999999966,6.724999999999955" stroke-width="0.05" stroke="#888888" />
<path d="M7.813749999999966,6.524999999999955 L7.963749999999966,6.724999999999955" stroke-width="0.05" stroke="#888888" />
<path d="M8.113749999999966,6.524999999999955 L7.963749999999966,6.724999999999955" stroke-width="0.05" stroke="#888888" />
<text x="7.963749999999966" y="9.887499999999932" font-size="1" font-family="Anuphan" font-weight="700" fill="#333333" text-anchor="middle" alignment-baseline="middle">?</text>
<text x="9.5" y="13.299999999999999" font-size="0.3" font-family="Anuphan" font-weight="600" fill="#666666" text-anchor="end" alignment-baseline="bottom">Task a3df8b1e</text>
</svg>