<?xml version="1.0" encoding="UTF-8"?>
<svg xmlns="http://www.w3.org/2000/svg" xmlns:xlink="http://www.w3.org/1999/xlink"
     width="800.0" height="208.0" viewBox="0 0 20.0 5.2">
<defs>
<g id="d0">
<rect x="0.005" y="0.005" width="0.2584545454545448" height="0.2584545454545448" fill="#FF4136" />
<rect x="0.26845454545454484" y="0.005" width="0.2584545454545448" height="0.2584545454545448" fill="#FF4136" />
<rect x="0.5319090909090897" y="0.005" width="0.2584545454545448" height="0.2584545454545448" fill="#252525" />
<rect x="0.7953636363636345" y="0.005" width="0.2584545454545448" height="0.2584545454545448" fill="#252525" />
<rect x="1.0588181818181792" y="0.005" width="0.2584545454545448" height="0.2584545454545448" fill="#252525" />
<rect x="0.005" y="0.26845454545454484" width="0.2584545454545448" height="0.2584545454545448" fill="#FF4136" />
<rect x="0.26845454545454484" y="0.26845454545454484" width="0.2584545454545448" height="0.2584545454545448" fill="#FF4136" />
<rect x="0.5319090909090897" y="0.26845454545454484" width="0.2584545454545448" height="0.2584545454545448" fill="#252525" />
<rect x="0.7953636363636345" y="0.26845454545454484" width="0.2584545454545448" height="0.2584545454545448" fill="#252525" />
<rect x="1.0588181818181792" y="0.26845454545454484" width="0.2584545454545448" height="0.2584545454545448" fill="#252525" />
<rect x="0.005" y="0.5319090909090897" width="0.2584545454545448" height="0.2584545454545448" fill="#252525" />
<rect x="0.26845454545454484" y="0.5319090909090897" width="0.2584545454545448" height="0.2584545454545448" fill="#252525" />
<rect x="0.5319090909090897" y="0.5319090909090897" width="0.2584545454545448" height="0.2584545454545448" fill="#252525" />
<rect x="0.7953636363636345" y="0.5319090909090897" width="0.2584545454545448" height="0.2584545454545448" fill="#252525" />
<rect x="1.0588181818181792" y="0.5319090909090897" width="0.2584545454545448" height="0.2584545454545448" fill="#252525" />
<rect x="0.005" y="0.7953636363636345" width="0.2584545454545448" height="0.2584545454545448" fill="#252525" />
<rect x="0.26845454545454484" y="0.7953636363636345" width="0.2584545454545448" height="0.2584545454545448" fill="#252525" />
<rect x="0.5319090909090897" y="0.7953636363636345" width="0.2584545454545448" height="0.2584545454545448" fill="#252525" />
<rect x="0.7953636363636345" y="0.7953636363636345" width="0.2584545454545448" height="0.2584545454545448" fill="#252525" />
<rect x="1.0588181818181792" y="0.7953636363636345" width="0.2584545454545448" height="0.2584545454545448" fill="#252525" />
<rect x="0.005" y="1.0588181818181792" width="0.2584545454545448" height="0.2584545454545448" fill="#252525" />
<rect x="0.26845454545454484" y="1.0588181818181792" width="0.2584545454545448" height="0.2584545454545448" fill="#252525" />
<rect x="0.5319090909090897" y="1.0588181818181792" width="0.2584545454545448" height="0.2584545454545448" fill="#252525" />
<rect x="0.7953636363636345" y="1.0588181818181792" width="0.2584545454545448" height="0.2584545454545448" fill="#252525" />
<rect x="1.0588181818181792" y="1.0588181818181792" width="0.2584545454545448" height="0.2584545454545448" fill="#252525" />
<rect x="-0.02666666666666667" y="-0.02666666666666667" width="1.3706060606060575" height="1.3706060606060575" fill="none" stroke="#111111ff" stroke-width="0.08" />
<text x="1.3172727272727243" y="1.7860227272727243" font-size="0.375" fill="black" text-anchor="end" font-family="Anuphan">5x5</text>
<text x="-0.037500000000000006" y="1.7860227272727243" font-size="0.375" fill="black" text-anchor="start" font-family="Anuphan" font-weight="600">Input 1</text>
</g>
<g id="d1">
<rect x="0.005" y="0.005" width="0.2584545454545448" height="0.2584545454545448" fill="#252525" />
<rect x="0.26845454545454484" y="0.005" width="0.2584545454545448" height="0.2584545454545448" fill="#252525" />
<rect x="0.5319090909090897" y="0.005" width="0.2584545454545448" height="0.2584545454545448" fill="#252525" />
<rect x="0.7953636363636345" y="0.005" width="0.2584545454545448" height="0.2584545454545448" fill="#252525" />
<rect x="1.0588181818181792" y="0.005" width="0.2584545454545448" height="0.2584545454545448" fill="#252525" />
<rect x="0.005" y="0.26845454545454484" width="0.2584545454545448" height="0.2584545454545448" fill="#252525" />
<rect x="0.26845454545454484" y="0.26845454545454484" width="0.2584545454545448" height="0.2584545454545448" fill="#FF4136" />
<rect x="0.5319090909090897" y="0.26845454545454484" width="0.2584545454545448" height="0.2584545454545448" fill="#FF4136" />
<rect x="0.7953636363636345" y="0.26845454545454484" width="0.2584545454545448" height="0.2584545454545448" fill="#252525" />
<rect x="1.0588181818181792" y="0.26845454545454484" width="0.2584545454545448" height="0.2584545454545448" fill="#252525" />
<rect x="0.005" y="0.5319090909090897" width="0.2584545454545448" height="0.2584545454545448" fill="#252525" />
<rect x="0.26845454545454484" y="0.5319090909090897" width="0.2584545454545448" height="0.2584545454545448" fill="#FF4136" />
<rect x="0.5319090909090897" y="0.5319090909090897" width="0.2584545454545448" height="0.2584545454545448" fill="#FF4136" />
<rect x="0.7953636363636345" y="0.5319090909090897" width="0.2584545454545448" height="0.2584545454545448" fill="#252525" />
<rect x="1.0588181818181792" y="0.5319090909090897" width="0.2584545454545448" height="0.2584545454545448" fill="#252525" />
<rect x="0.005" y="0.7953636363636345" width="0.2584545454545448" height="0.2584545454545448" fill="#252525" />
<rect x="0.26845454545454484" y="0.7953636363636345" width="0.2584545454545448" height="0.2584545454545448" fill="#252525" />
<rect x="0.5319090909090897" y="0.7953636363636345" width="0.2584545454545448" height="0.2584545454545448" fill="#252525" />
<rect x="0.7953636363636345" y="0.7953636363636345" width="0.2584545454545448" height="0.2584545454545448" fill="#FF4136" />
<rect x="1.0588181818181792" y="0.7953636363636345" width="0.2584545454545448" height="0.2584545454545448" fill="#FF4136" />
<rect x="0.005" y="1.0588181818181792" width="0.2584545454545448" height="0.2584545454545448" fill="#252525" />
<rect x="0.26845454545454484" y="1.0588181818181792" width="0.2584545454545448" height="0.2584545454545448" fill="#252525" />
<rect x="0.5319090909090897" y="1.0588181818181792" width="0.2584545454545448" height="0.2584545454545448" fill="#252525" />
<rect x="0.7953636363636345" y="1.0588181818181792" width="0.2584545454545448" height="0.2584545454545448" fill="#FF4136" />
<rect x="1.0588181818181792" y="1.0588181818181792" width="0.2584545454545448" height="0.2584545454545448" fill="#FF4136" />
<rect x="-0.02666666666666667" y="-0.02666666666666667" width="1.3706060606060575" height="1.3706060606060575" fill="none" stroke="#111111ff" stroke-width="0.08" />
<text x="1.3172727272727243" y="1.7860227272727243" font-size="0.375" fill="black" text-anchor="end" font-family="Anuphan">5x5</text>
<text x="-0.037500000000000006" y="1.7860227272727243" font-size="0.375" fill="black" text-anchor="start" font-family="Anuphan" font-weight="600">Input 2</text>
</g>
<g id="d2">
<rect x="0.005" y="0.005" width="0.18318181818181772" height="0.18318181818181772" fill="#252525" />
<rect x="0.19318181818181773" y="0.005" width="0.18318181818181772" height="0.18318181818181772" fill="#252525" />
<rect x="0.38136363636363546" y="0.005" width="0.18318181818181772" height="0.18318181818181772" fill="#252525" />
<rect x="0.5695454545454531" y="0.005" width="0.18318181818181772" height="0.18318181818181772" fill="#252525" />
<rect x="0.7577272727272709" y="0.005" width="0.18318181818181772" height="0.18318181818181772" fill="#252525" />
<rect x="0.9459090909090887" y="0.005" width="0.18318181818181772" height="0.18318181818181772" fill="#252525" />
<rect x="1.1340909090909062" y="0.005" width="0.18318181818181772" height="0.18318181818181772" fill="#252525" />
<rect x="0.005" y="0.19318181818181773" width="0.18318181818181772" height="0.18318181818181772" fill="#252525" />
<rect x="0.19318181818181773" y="0.19318181818181773" width="0.18318181818181772" height="0.18318181818181772" fill="#FF4136" />
<rect x="0.38136363636363546" y="0.19318181818181773" width="0.18318181818181772" height="0.18318181818181772" fill="#FF4136" />
<rect x="0.5695454545454531" y="0.19318181818181773" width="0.18318181818181772" height="0.18318181818181772" fill="#252525" />
<rect x="0.7577272727272709" y="0.19318181818181773" width="0.18318181818181772" height="0.18318181818181772" fill="#252525" />
<rect x="0.9459090909090887" y="0.19318181818181773" width="0.18318181818181772" height="0.18318181818181772" fill="#252525" />
<rect x="1.1340909090909062" y="0.19318181818181773" width="0.18318181818181772" height="0.18318181818181772" fill="#252525" />
<rect x="0.005" y="0.38136363636363546" width="0.18318181818181772" height="0.18318181818181772" fill="#252525" />
<rect x="0.19318181818181773" y="0.38136363636363546" width="0.18318181818181772" height="0.18318181818181772" fill="#FF4136" />
<rect x="0.38136363636363546" y="0.38136363636363546" width="0.18318181818181772" height="0.18318181818181772" fill="#FF4136" />
<rect x="0.5695454545454531" y="0.38136363636363546" width="0.18318181818181772" height="0.18318181818181772" fill="#252525" />
<rect x="0.7577272727272709" y="0.38136363636363546" width="0.18318181818181772" height="0.18318181818181772" fill="#FF4136" />
<rect x="0.9459090909090887" y="0.38136363636363546" width="0.18318181818181772" height="0.18318181818181772" fill="#FF4136" />
<rect x="1.1340909090909062" y="0.38136363636363546" width="0.18318181818181772" height="0.18318181818181772" fill="#252525" />
<rect x="0.005" y="0.5695454545454531" width="0.18318181818181772" height="0.18318181818181772" fill="#252525" />
<rect x="0.19318181818181773" y="0.5695454545454531" width="0.18318181818181772" height="0.18318181818181772" fill="#252525" />
<rect x="0.38136363636363546" y="0.5695454545454531" width="0.18318181818181772" height="0.18318181818181772" fill="#252525" />
<rect x="0.5695454545454531" y="0.5695454545454531" width="0.18318181818181772" height="0.18318181818181772" fill="#252525" />
<rect x="0.7577272727272709" y="0.5695454545454531" width="0.18318181818181772" height="0.18318181818181772" fill="#FF4136" />
<rect x="0.9459090909090887" y="0.5695454545454531" width="0.18318181818181772" height="0.18318181818181772" fill="#FF4136" />
<rect x="1.1340909090909062" y="0.5695454545454531" width="0.18318181818181772" height="0.18318181818181772" fill="#252525" />
<rect x="0.005" y="0.7577272727272709" width="0.18318181818181772" height="0.18318181818181772" fill="#252525" />
<rect x="0.19318181818181773" y="0.7577272727272709" width="0.18318181818181772" height="0.18318181818181772" fill="#252525" />
<rect x="0.38136363636363546" y="0.7577272727272709" width="0.18318181818181772" height="0.18318181818181772" fill="#FF4136" />
<rect x="0.5695454545454531" y="0.7577272727272709" width="0.18318181818181772" height="0.18318181818181772" fill="#FF4136" />
<rect x="0.7577272727272709" y="0.7577272727272709" width="0.18318181818181772" height="0.18318181818181772" fill="#252525" />
<rect x="0.9459090909090887" y="0.7577272727272709" width="0.18318181818181772" height="0.18318181818181772" fill="#252525" />
<rect x="1.1340909090909062" y="0.7577272727272709" width="0.18318181818181772" height="0.18318181818181772" fill="#252525" />
<rect x="0.005" y="0.9459090909090887" width="0.18318181818181772" height="0.18318181818181772" fill="#252525" />
<rect x="0.19318181818181773" y="0.9459090909090887" width="0.18318181818181772" height="0.18318181818181772" fill="#252525" />
<rect x="0.38136363636363546" y="0.9459090909090887" width="0.18318181818181772" height="0.18318181818181772" fill="#FF4136" />
<rect x="0.5695454545454531" y="0.9459090909090887" width="0.18318181818181772" height="0.18318181818181772" fill="#FF4136" />
<rect x="0.7577272727272709" y="0.9459090909090887" width="0.18318181818181772" height="0.18318181818181772" fill="#252525" />
<rect x="0.9459090909090887" y="0.9459090909090887" width="0.18318181818181772" height="0.18318181818181772" fill="#252525" />
<rect x="1.1340909090909062" y="0.9459090909090887" width="0.18318181818181772" height="0.18318181818181772" fill="#252525" />
<rect x="0.005" y="1.1340909090909062" width="0.18318181818181772" height="0.18318181818181772" fill="#252525" />
<rect x="0.19318181818181773" y="1.1340909090909062" width="0.18318181818181772" height="0.18318181818181772" fill="#252525" />
<rect x="0.38136363636363546" y="1.1340909090909062" width="0.18318181818181772" height="0.18318181818181772" fill="#252525" />
<rect x="0.5695454545454531" y="1.1340909090909062" width="0.18318181818181772" height="0.18318181818181772" fill="#252525" />
<rect x="0.7577272727272709" y="1.1340909090909062" width="0.18318181818181772" height="0.18318181818181772" fill="#252525" />
<rect x="0.9459090909090887" y="1.1340909090909062" width="0.18318181818181772" height="0.18318181818181772" fill="#252525" />
<rect x="1.1340909090909062" y="1.1340909090909062" width="0.18318181818181772" height="0.18318181818181772" fill="#252525" />
<rect x="-0.02666666666666667" y="-0.02666666666666667" width="1.3706060606060573" height="1.3706060606060573" fill="none" stroke="#111111ff" stroke-width="0.08" />
<text x="1.317272727272724" y="1.786022727272724" font-size="0.375" fill="black" text-anchor="end" font-family="Anuphan">7x7</text>
<text x="-0.037500000000000006" y="1.786022727272724" font-size="0.375" fill="black" text-anchor="start" font-family="Anuphan" font-weight="600">Input 3</text>
</g>
<g id="d3">
<rect x="0.005" y="0.005" width="0.214545454545454" height="0.214545454545454" fill="#252525" />
<rect x="0.22454545454545402" y="0.005" width="0.214545454545454" height="0.214545454545454" fill="#252525" />
<rect x="0.44409090909090804" y="0.005" width="0.214545454545454" height="0.214545454545454" fill="#252525" />
<rect x="0.663636363636362" y="0.005" width="0.214545454545454" height="0.214545454545454" fill="#252525" />
<rect x="0.8831818181818161" y="0.005" width="0.214545454545454" height="0.214545454545454" fill="#252525" />
<rect x="1.10272727272727" y="0.005" width="0.214545454545454" height="0.214545454545454" fill="#252525" />
<rect x="0.005" y="0.22454545454545402" width="0.214545454545454" height="0.214545454545454" fill="#252525" />
<rect x="0.22454545454545402" y="0.22454545454545402" width="0.214545454545454" height="0.214545454545454" fill="#FF4136" />
<rect x="0.44409090909090804" y="0.22454545454545402" width="0.214545454545454" height="0.214545454545454" fill="#FF4136" />
<rect x="0.663636363636362" y="0.22454545454545402" width="0.214545454545454" height="0.214545454545454" fill="#252525" />
<rect x="0.8831818181818161" y="0.22454545454545402" width="0.214545454545454" height="0.214545454545454" fill="#252525" />
<rect x="1.10272727272727" y="0.22454545454545402" width="0.214545454545454" height="0.214545454545454" fill="#252525" />
<rect x="0.005" y="0.44409090909090804" width="0.214545454545454" height="0.214545454545454" fill="#252525" />
<rect x="0.22454545454545402" y="0.44409090909090804" width="0.214545454545454" height="0.214545454545454" fill="#FF4136" />
<rect x="0.44409090909090804" y="0.44409090909090804" width="0.214545454545454" height="0.214545454545454" fill="#FF4136" />
<rect x="0.663636363636362" y="0.44409090909090804" width="0.214545454545454" height="0.214545454545454" fill="#252525" />
<rect x="0.8831818181818161" y="0.44409090909090804" width="0.214545454545454" height="0.214545454545454" fill="#252525" />
<rect x="1.10272727272727" y="0.44409090909090804" width="0.214545454545454" height="0.214545454545454" fill="#252525" />
<rect x="0.005" y="0.663636363636362" width="0.214545454545454" height="0.214545454545454" fill="#252525" />
<rect x="0.22454545454545402" y="0.663636363636362" width="0.214545454545454" height="0.214545454545454" fill="#252525" />
<rect x="0.44409090909090804" y="0.663636363636362" width="0.214545454545454" height="0.214545454545454" fill="#252525" />
<rect x="0.663636363636362" y="0.663636363636362" width="0.214545454545454" height="0.214545454545454" fill="#252525" />
<rect x="0.8831818181818161" y="0.663636363636362" width="0.214545454545454" height="0.214545454545454" fill="#252525" />
<rect x="1.10272727272727" y="0.663636363636362" width="0.214545454545454" height="0.214545454545454" fill="#252525" />
<rect x="0.005" y="0.8831818181818161" width="0.214545454545454" height="0.214545454545454" fill="#252525" />
<rect x="0.22454545454545402" y="0.8831818181818161" width="0.214545454545454" height="0.214545454545454" fill="#252525" />
<rect x="0.44409090909090804" y="0.8831818181818161" width="0.214545454545454" height="0.214545454545454" fill="#FF4136" />
<rect x="0.663636363636362" y="0.8831818181818161" width="0.214545454545454" height="0.214545454545454" fill="#FF4136" />
<rect x="0.8831818181818161" y="0.8831818181818161" width="0.214545454545454" height="0.214545454545454" fill="#252525" />
<rect x="1.10272727272727" y="0.8831818181818161" width="0.214545454545454" height="0.214545454545454" fill="#252525" />
<rect x="0.005" y="1.10272727272727" width="0.214545454545454" height="0.214545454545454" fill="#252525" />
<rect x="0.22454545454545402" y="1.10272727272727" width="0.214545454545454" height="0.214545454545454" fill="#252525" />
<rect x="0.44409090909090804" y="1.10272727272727" width="0.214545454545454" height="0.214545454545454" fill="#FF4136" />
<rect x="0.663636363636362" y="1.10272727272727" width="0.214545454545454" height="0.214545454545454" fill="#FF4136" />
<rect x="0.8831818181818161" y="1.10272727272727" width="0.214545454545454" height="0.214545454545454" fill="#252525" />
<rect x="1.10272727272727" y="1.10272727272727" width="0.214545454545454" height="0.214545454545454" fill="#252525" />
<rect x="-0.02666666666666667" y="-0.02666666666666667" width="1.3706060606060573" height="1.3706060606060573" fill="none" stroke="#111111ff" stroke-width="0.08" />
<text x="1.317272727272724" y="1.786022727272724" font-size="0.375" fill="black" text-anchor="end" font-family="Anuphan">6x6</text>
<text x="-0.037500000000000006" y="1.786022727272724" font-size="0.375" fill="black" text-anchor="start" font-family="Anuphan" font-weight="600">Input 4</text>
</g>
<g id="d4">
<rect x="0.005" y="0.005" width="0.43409090909090803" height="0.43409090909090803" fill="#252525" />
<rect x="0.44409090909090804" y="0.005" width="0.43409090909090803" height="0.43409090909090803" fill="#252525" />
<rect x="0.8831818181818161" y="0.005" width="0.43409090909090803" height="0.43409090909090803" fill="#252525" />
<rect x="0.005" y="0.44409090909090804" width="0.43409090909090803" height="0.43409090909090803" fill="#252525" />
<rect x="0.44409090909090804" y="0.44409090909090804" width="0.43409090909090803" height="0.43409090909090803" fill="#FF4136" />
<rect x="0.8831818181818161" y="0.44409090909090804" width="0.43409090909090803" height="0.43409090909090803" fill="#FF4136" />
<rect x="0.005" y="0.8831818181818161" width="0.43409090909090803" height="0.43409090909090803" fill="#252525" />
<rect x="0.44409090909090804" y="0.8831818181818161" width="0.43409090909090803" height="0.43409090909090803" fill="#FF4136" />
<rect x="0.8831818181818161" y="0.8831818181818161" width="0.43409090909090803" height="0.43409090909090803" fill="#FF4136" />
<rect x="-0.02666666666666667" y="-0.02666666666666667" width="1.3706060606060573" height="1.3706060606060573" fill="none" stroke="#111111ff" stroke-width="0.08" />
<text x="1.317272727272724" y="1.786022727272724" font-size="0.375" fill="black" text-anchor="end" font-family="Anuphan">3x3</text>
<text x="-0.037500000000000006" y="1.786022727272724" font-size="0.375" fill="black" text-anchor="start" font-family="Anuphan" font-weight="600">Input 5</text>
</g>
<g id="d5">
<rect x="0.005" y="0.005" width="0.18318181818181772" height="0.18318181818181772" fill="#252525" />
<rect x="0.19318181818181773" y="0.005" width="0.18318181818181772" height="0.18318181818181772" fill="#252525" />
<rect x="0.38136363636363546" y="0.005" width="0.18318181818181772" height="0.18318181818181772" fill="#252525" />
<rect x="0.5695454545454531" y="0.005" width="0.18318181818181772" height="0.18318181818181772" fill="#252525" />
<rect x="0.7577272727272709" y="0.005" width="0.18318181818181772" height="0.18318181818181772" fill="#FF4136" />
<rect x="0.9459090909090887" y="0.005" width="0.18318181818181772" height="0.18318181818181772" fill="#FF4136" />
<rect x="1.1340909090909062" y="0.005" width="0.18318181818181772" height="0.18318181818181772" fill="#252525" />
<rect x="0.005" y="0.19318181818181773" width="0.18318181818181772" height="0.18318181818181772" fill="#252525" />
<rect x="0.19318181818181773" y="0.19318181818181773" width="0.18318181818181772" height="0.18318181818181772" fill="#252525" />
<rect x="0.38136363636363546" y="0.19318181818181773" width="0.18318181818181772" height="0.18318181818181772" fill="#252525" />
<rect x="0.5695454545454531" y="0.19318181818181773" width="0.18318181818181772" height="0.18318181818181772" fill="#252525" />
<rect x="0.7577272727272709" y="0.19318181818181773" width="0.18318181818181772" height="0.18318181818181772" fill="#FF4136" />
<rect x="0.9459090909090887" y="0.19318181818181773" width="0.18318181818181772" height="0.18318181818181772" fill="#FF4136" />
<rect x="1.1340909090909062" y="0.19318181818181773" width="0.18318181818181772" height="0.18318181818181772" fill="#252525" />
<rect x="0.005" y="0.38136363636363546" width="0.18318181818181772" height="0.18318181818181772" fill="#252525" />
<rect x="0.19318181818181773" y="0.38136363636363546" width="0.18318181818181772" height="0.18318181818181772" fill="#FF4136" />
<rect x="0.38136363636363546" y="0.38136363636363546" width="0.18318181818181772" height="0.18318181818181772" fill="#FF4136" />
<rect x="0.5695454545454531" y="0.38136363636363546" width="0.18318181818181772" height="0.18318181818181772" fill="#252525" />
<rect x="0.7577272727272709" y="0.38136363636363546" width="0.18318181818181772" height="0.18318181818181772" fill="#252525" />
<rect x="0.9459090909090887" y="0.38136363636363546" width="0.18318181818181772" height="0.18318181818181772" fill="#252525" />
<rect x="1.1340909090909062" y="0.38136363636363546" width="0.18318181818181772" height="0.18318181818181772" fill="#252525" />
<rect x="0.005" y="0.5695454545454531" width="0.18318181818181772" height="0.18318181818181772" fill="#252525" />
<rect x="0.19318181818181773" y="0.5695454545454531" width="0.18318181818181772" height="0.18318181818181772" fill="#FF4136" />
<rect x="0.38136363636363546" y="0.5695454545454531" width="0.18318181818181772" height="0.18318181818181772" fill="#FF4136" />
<rect x="0.5695454545454531" y="0.5695454545454531" width="0.18318181818181772" height="0.18318181818181772" fill="#252525" />
<rect x="0.7577272727272709" y="0.5695454545454531" width="0.18318181818181772" height="0.18318181818181772" fill="#FF4136" />
<rect x="0.9459090909090887" y="0.5695454545454531" width="0.18318181818181772" height="0.18318181818181772" fill="#FF4136" />
<rect x="1.1340909090909062" y="0.5695454545454531" width="0.18318181818181772" height="0.18318181818181772" fill="#252525" />
<rect x="0.005" y="0.7577272727272709" width="0.18318181818181772" height="0.18318181818181772" fill="#252525" />
<rect x="0.19318181818181773" y="0.7577272727272709" width="0.18318181818181772" height="0.18318181818181772" fill="#252525" />
<rect x="0.38136363636363546" y="0.7577272727272709" width="0.18318181818181772" height="0.18318181818181772" fill="#252525" />
<rect x="0.5695454545454531" y="0.7577272727272709" width="0.18318181818181772" height="0.18318181818181772" fill="#252525" />
<rect x="0.7577272727272709" y="0.7577272727272709" width="0.18318181818181772" height="0.18318181818181772" fill="#FF4136" />
<rect x="0.9459090909090887" y="0.7577272727272709" width="0.18318181818181772" height="0.18318181818181772" fill="#FF4136" />
<rect x="1.1340909090909062" y="0.7577272727272709" width="0.18318181818181772" height="0.18318181818181772" fill="#252525" />
<rect x="0.005" y="0.9459090909090887" width="0.18318181818181772" height="0.18318181818181772" fill="#252525" />
<rect x="0.19318181818181773" y="0.9459090909090887" width="0.18318181818181772" height="0.18318181818181772" fill="#FF4136" />
<rect x="0.38136363636363546" y="0.9459090909090887" width="0.18318181818181772" height="0.18318181818181772" fill="#FF4136" />
<rect x="0.5695454545454531" y="0.9459090909090887" width="0.18318181818181772" height="0.18318181818181772" fill="#252525" />
<rect x="0.7577272727272709" y="0.9459090909090887" width="0.18318181818181772" height="0.18318181818181772" fill="#252525" />
<rect x="0.9459090909090887" y="0.9459090909090887" width="0.18318181818181772" height="0.18318181818181772" fill="#252525" />
<rect x="1.1340909090909062" y="0.9459090909090887" width="0.18318181818181772" height="0.18318181818181772" fill="#252525" />
<rect x="0.005" y="1.1340909090909062" width="0.18318181818181772" height="0.18318181818181772" fill="#252525" />
<rect x="0.19318181818181773" y="1.1340909090909062" width="0.18318181818181772" height="0.18318181818181772" fill="#FF4136" />
<rect x="0.38136363636363546" y="1.1340909090909062" width="0.18318181818181772" height="0.18318181818181772" fill="#FF4136" />
<rect x="0.5695454545454531" y="1.1340909090909062" width="0.18318181818181772" height="0.18318181818181772" fill="#252525" />
<rect x="0.7577272727272709" y="1.1340909090909062" width="0.18318181818181772" height="0.18318181818181772" fill="#252525" />
<rect x="0.9459090909090887" y="1.1340909090909062" width="0.18318181818181772" height="0.18318181818181772" fill="#252525" />
<rect x="1.1340909090909062" y="1.1340909090909062" width="0.18318181818181772" height="0.18318181818181772" fill="#252525" />
<rect x="-0.02666666666666667" y="-0.02666666666666667" width="1.3706060606060573" height="1.3706060606060573" fill="none" stroke="#111111ff" stroke-width="0.08" />
<text x="1.317272727272724" y="1.786022727272724" font-size="0.375" fill="black" text-anchor="end" font-family="Anuphan">7x7</text>
<text x="-0.037500000000000006" y="1.786022727272724" font-size="0.375" fill="black" text-anchor="start" font-family="Anuphan" font-weight="600">Input 6</text>
</g>
<g id="d6">
<rect x="0.005" y="0.005" width="0.18318181818181772" height="0.18318181818181772" fill="#252525" />
<rect x="0.19318181818181773" y="0.005" width="0.18318181818181772" height="0.18318181818181772" fill="#252525" />
<rect x="0.38136363636363546" y="0.005" width="0.18318181818181772" height="0.18318181818181772" fill="#252525" />
<rect x="0.5695454545454531" y="0.005" width="0.18318181818181772" height="0.18318181818181772" fill="#252525" />
<rect x="0.7577272727272709" y="0.005" width="0.18318181818181772" height="0.18318181818181772" fill="#FF4136" />
<rect x="0.9459090909090887" y="0.005" width="0.18318181818181772" height="0.18318181818181772" fill="#FF4136" />
<rect x="1.1340909090909062" y="0.005" width="0.18318181818181772" height="0.18318181818181772" fill="#252525" />
<rect x="0.005" y="0.19318181818181773" width="0.18318181818181772" height="0.18318181818181772" fill="#252525" />
<rect x="0.19318181818181773" y="0.19318181818181773" width="0.18318181818181772" height="0.18318181818181772" fill="#FF4136" />
<rect x="0.38136363636363546" y="0.19318181818181773" width="0.18318181818181772" height="0.18318181818181772" fill="#FF4136" />
<rect x="0.5695454545454531" y="0.19318181818181773" width="0.18318181818181772" height="0.18318181818181772" fill="#252525" />
<rect x="0.7577272727272709" y="0.19318181818181773" width="0.18318181818181772" height="0.18318181818181772" fill="#FF4136" />
<rect x="0.9459090909090887" y="0.19318181818181773" width="0.18318181818181772" height="0.18318181818181772" fill="#FF4136" />
<rect x="1.1340909090909062" y="0.19318181818181773" width="0.18318181818181772" height="0.18318181818181772" fill="#252525" />
<rect x="0.005" y="0.38136363636363546" width="0.18318181818181772" height="0.18318181818181772" fill="#252525" />
<rect x="0.19318181818181773" y="0.38136363636363546" width="0.18318181818181772" height="0.18318181818181772" fill="#FF4136" />
<rect x="0.38136363636363546" y="0.38136363636363546" width="0.18318181818181772" height="0.18318181818181772" fill="#FF4136" />
<rect x="0.5695454545454531" y="0.38136363636363546" width="0.18318181818181772" height="0.18318181818181772" fill="#252525" />
<rect x="0.7577272727272709" y="0.38136363636363546" width="0.18318181818181772" height="0.18318181818181772" fill="#252525" />
<rect x="0.9459090909090887" y="0.38136363636363546" width="0.18318181818181772" height="0.18318181818181772" fill="#252525" />
<rect x="1.1340909090909062" y="0.38136363636363546" width="0.18318181818181772" height="0.18318181818181772" fill="#252525" />
<rect x="0.005" y="0.5695454545454531" width="0.18318181818181772" height="0.18318181818181772" fill="#252525" />
<rect x="0.19318181818181773" y="0.5695454545454531" width="0.18318181818181772" height="0.18318181818181772" fill="#252525" />
<rect x="0.38136363636363546" y="0.5695454545454531" width="0.18318181818181772" height="0.18318181818181772" fill="#252525" />
<rect x="0.5695454545454531" y="0.5695454545454531" width="0.18318181818181772" height="0.18318181818181772" fill="#252525" />
<rect x="0.7577272727272709" y="0.5695454545454531" width="0.18318181818181772" height="0.18318181818181772" fill="#252525" />
<rect x="0.9459090909090887" y="0.5695454545454531" width="0.18318181818181772" height="0.18318181818181772" fill="#FF4136" />
<rect x="1.1340909090909062" y="0.5695454545454531" width="0.18318181818181772" height="0.18318181818181772" fill="#FF4136" />
<rect x="0.005" y="0.7577272727272709" width="0.18318181818181772" height="0.18318181818181772" fill="#FF4136" />
<rect x="0.19318181818181773" y="0.7577272727272709" width="0.18318181818181772" height="0.18318181818181772" fill="#FF4136" />
<rect x="0.38136363636363546" y="0.7577272727272709" width="0.18318181818181772" height="0.18318181818181772" fill="#252525" />
<rect x="0.5695454545454531" y="0.7577272727272709" width="0.18318181818181772" height="0.18318181818181772" fill="#252525" />
<rect x="0.7577272727272709" y="0.7577272727272709" width="0.18318181818181772" height="0.18318181818181772" fill="#252525" />
<rect x="0.9459090909090887" y="0.7577272727272709" width="0.18318181818181772" height="0.18318181818181772" fill="#FF4136" />
<rect x="1.1340909090909062" y="0.7577272727272709" width="0.18318181818181772" height="0.18318181818181772" fill="#FF4136" />
<rect x="0.005" y="0.9459090909090887" width="0.18318181818181772" height="0.18318181818181772" fill="#FF4136" />
<rect x="0.19318181818181773" y="0.9459090909090887" width="0.18318181818181772" height="0.18318181818181772" fill="#FF4136" />
<rect x="0.38136363636363546" y="0.9459090909090887" width="0.18318181818181772" height="0.18318181818181772" fill="#252525" />
<rect x="0.5695454545454531" y="0.9459090909090887" width="0.18318181818181772" height="0.18318181818181772" fill="#FF4136" />
<rect x="0.7577272727272709" y="0.9459090909090887" width="0.18318181818181772" height="0.18318181818181772" fill="#FF4136" />
<rect x="0.9459090909090887" y="0.9459090909090887" width="0.18318181818181772" height="0.18318181818181772" fill="#252525" />
<rect x="1.1340909090909062" y="0.9459090909090887" width="0.18318181818181772" height="0.18318181818181772" fill="#252525" />
<rect x="0.005" y="1.1340909090909062" width="0.18318181818181772" height="0.18318181818181772" fill="#252525" />
<rect x="0.19318181818181773" y="1.1340909090909062" width="0.18318181818181772" height="0.18318181818181772" fill="#252525" />
<rect x="0.38136363636363546" y="1.1340909090909062" width="0.18318181818181772" height="0.18318181818181772" fill="#252525" />
<rect x="0.5695454545454531" y="1.1340909090909062" width="0.18318181818181772" height="0.18318181818181772" fill="#FF4136" />
<rect x="0.7577272727272709" y="1.1340909090909062" width="0.18318181818181772" height="0.18318181818181772" fill="#FF4136" />
<rect x="0.9459090909090887" y="1.1340909090909062" width="0.18318181818181772" height="0.18318181818181772" fill="#252525" />
<rect x="1.1340909090909062" y="1.1340909090909062" width="0.18318181818181772" height="0.18318181818181772" fill="#252525" />
<rect x="-0.02666666666666667" y="-0.02666666666666667" width="1.3706060606060573" height="1.3706060606060573" fill="none" stroke="#111111ff" stroke-width="0.08" />
<text x="1.317272727272724" y="1.786022727272724" font-size="0.375" fill="black" text-anchor="end" font-family="Anuphan">7x7</text>
<text x="-0.037500000000000006" y="1.786022727272724" font-size="0.375" fill="black" text-anchor="start" font-family="Anuphan" font-weight="600">Input 7</text>
</g>
<g id="d7">
<rect x="0.005" y="0.005" width="0.18318181818181772" height="0.18318181818181772" fill="#252525" />
<rect x="0.19318181818181773" y="0.005" width="0.18318181818181772" height="0.18318181818181772" fill="#252525" />
<rect x="0.38136363636363546" y="0.005" width="0.18318181818181772" height="0.18318181818181772" fill="#FF4136" />
<rect x="0.5695454545454531" y="0.005" width="0.18318181818181772" height="0.18318181818181772" fill="#FF4136" />
<rect x="0.7577272727272709" y="0.005" width="0.18318181818181772" height="0.18318181818181772" fill="#252525" />
<rect x="0.9459090909090887" y="0.005" width="0.18318181818181772" height="0.18318181818181772" fill="#FF4136" />
<rect x="1.1340909090909062" y="0.005" width="0.18318181818181772" height="0.18318181818181772" fill="#FF4136" />
<rect x="0.005" y="0.19318181818181773" width="0.18318181818181772" height="0.18318181818181772" fill="#252525" />
<rect x="0.19318181818181773" y="0.19318181818181773" width="0.18318181818181772" height="0.18318181818181772" fill="#252525" />
<rect x="0.38136363636363546" y="0.19318181818181773" width="0.18318181818181772" height="0.18318181818181772" fill="#FF4136" />
<rect x="0.5695454545454531" y="0.19318181818181773" width="0.18318181818181772" height="0.18318181818181772" fill="#FF4136" />
<rect x="0.7577272727272709" y="0.19318181818181773" width="0.18318181818181772" height="0.18318181818181772" fill="#252525" />
<rect x="0.9459090909090887" y="0.19318181818181773" width="0.18318181818181772" height="0.18318181818181772" fill="#FF4136" />
<rect x="1.1340909090909062" y="0.19318181818181773" width="0.18318181818181772" height="0.18318181818181772" fill="#FF4136" />
<rect x="0.005" y="0.38136363636363546" width="0.18318181818181772" height="0.18318181818181772" fill="#FF4136" />
<rect x="0.19318181818181773" y="0.38136363636363546" width="0.18318181818181772" height="0.18318181818181772" fill="#FF4136" />
<rect x="0.38136363636363546" y="0.38136363636363546" width="0.18318181818181772" height="0.18318181818181772" fill="#252525" />
<rect x="0.5695454545454531" y="0.38136363636363546" width="0.18318181818181772" height="0.18318181818181772" fill="#252525" />
<rect x="0.7577272727272709" y="0.38136363636363546" width="0.18318181818181772" height="0.18318181818181772" fill="#252525" />
<rect x="0.9459090909090887" y="0.38136363636363546" width="0.18318181818181772" height="0.18318181818181772" fill="#252525" />
<rect x="1.1340909090909062" y="0.38136363636363546" width="0.18318181818181772" height="0.18318181818181772" fill="#252525" />
<rect x="0.005" y="0.5695454545454531" width="0.18318181818181772" height="0.18318181818181772" fill="#FF4136" />
<rect x="0.19318181818181773" y="0.5695454545454531" width="0.18318181818181772" height="0.18318181818181772" fill="#FF4136" />
<rect x="0.38136363636363546" y="0.5695454545454531" width="0.18318181818181772" height="0.18318181818181772" fill="#252525" />
<rect x="0.5695454545454531" y="0.5695454545454531" width="0.18318181818181772" height="0.18318181818181772" fill="#FF4136" />
<rect x="0.7577272727272709" y="0.5695454545454531" width="0.18318181818181772" height="0.18318181818181772" fill="#FF4136" />
<rect x="0.9459090909090887" y="0.5695454545454531" width="0.18318181818181772" height="0.18318181818181772" fill="#252525" />
<rect x="1.1340909090909062" y="0.5695454545454531" width="0.18318181818181772" height="0.18318181818181772" fill="#252525" />
<rect x="0.005" y="0.7577272727272709" width="0.18318181818181772" height="0.18318181818181772" fill="#252525" />
<rect x="0.19318181818181773" y="0.7577272727272709" width="0.18318181818181772" height="0.18318181818181772" fill="#252525" />
<rect x="0.38136363636363546" y="0.7577272727272709" width="0.18318181818181772" height="0.18318181818181772" fill="#252525" />
<rect x="0.5695454545454531" y="0.7577272727272709" width="0.18318181818181772" height="0.18318181818181772" fill="#FF4136" />
<rect x="0.7577272727272709" y="0.7577272727272709" width="0.18318181818181772" height="0.18318181818181772" fill="#FF4136" />
<rect x="0.9459090909090887" y="0.7577272727272709" width="0.18318181818181772" height="0.18318181818181772" fill="#252525" />
<rect x="1.1340909090909062" y="0.7577272727272709" width="0.18318181818181772" height="0.18318181818181772" fill="#252525" />
<rect x="0.005" y="0.9459090909090887" width="0.18318181818181772" height="0.18318181818181772" fill="#252525" />
<rect x="0.19318181818181773" y="0.9459090909090887" width="0.18318181818181772" height="0.18318181818181772" fill="#252525" />
<rect x="0.38136363636363546" y="0.9459090909090887" width="0.18318181818181772" height="0.18318181818181772" fill="#252525" />
<rect x="0.5695454545454531" y="0.9459090909090887" width="0.18318181818181772" height="0.18318181818181772" fill="#252525" />
<rect x="0.7577272727272709" y="0.9459090909090887" width="0.18318181818181772" height="0.18318181818181772" fill="#252525" />
<rect x="0.9459090909090887" y="0.9459090909090887" width="0.18318181818181772" height="0.18318181818181772" fill="#252525" />
<rect x="1.1340909090909062" y="0.9459090909090887" width="0.18318181818181772" height="0.18318181818181772" fill="#252525" />
<rect x="0.005" y="1.1340909090909062" width="0.18318181818181772" height="0.18318181818181772" fill="#252525" />
<rect x="0.19318181818181773" y="1.1340909090909062" width="0.18318181818181772" height="0.18318181818181772" fill="#252525" />
<rect x="0.38136363636363546" y="1.1340909090909062" width="0.18318181818181772" height="0.18318181818181772" fill="#252525" />
<rect x="0.5695454545454531" y="1.1340909090909062" width="0.18318181818181772" height="0.18318181818181772" fill="#252525" />
<rect x="0.7577272727272709" y="1.1340909090909062" width="0.18318181818181772" height="0.18318181818181772" fill="#252525" />
<rect x="0.9459090909090887" y="1.1340909090909062" width="0.18318181818181772" height="0.18318181818181772" fill="#252525" />
<rect x="1.1340909090909062" y="1.1340909090909062" width="0.18318181818181772" height="0.18318181818181772" fill="#252525" />
<rect x="-0.02666666666666667" y="-0.02666666666666667" width="1.3706060606060573" height="1.3706060606060573" fill="none" stroke="#111111ff" stroke-width="0.08" />
<text x="1.317272727272724" y="1.786022727272724" font-size="0.375" fill="black" text-anchor="end" font-family="Anuphan">7x7</text>
<text x="-0.037500000000000006" y="1.786022727272724" font-size="0.375" fill="black" text-anchor="start" font-family="Anuphan" font-weight="600">Input 8</text>
</g>
<g id="d8">
<rect x="0.005" y="0.005" width="0.214545454545454" height="0.214545454545454" fill="#252525" />
<rect x="0.22454545454545402" y="0.005" width="0.214545454545454" height="0.214545454545454" fill="#252525" />
<rect x="0.44409090909090804" y="0.005" width="0.214545454545454" height="0.214545454545454" fill="#252525" />
<rect x="0.663636363636362" y="0.005" width="0.214545454545454" height="0.214545454545454" fill="#FF4136" />
<rect x="0.8831818181818161" y="0.005" width="0.214545454545454" height="0.214545454545454" fill="#FF4136" />
<rect x="1.10272727272727" y="0.005" width="0.214545454545454" height="0.214545454545454" fill="#252525" />
<rect x="0.005" y="0.22454545454545402" width="0.214545454545454" height="0.214545454545454" fill="#FF4136" />
<rect x="0.22454545454545402" y="0.22454545454545402" width="0.214545454545454" height="0.214545454545454" fill="#FF4136" />
<rect x="0.44409090909090804" y="0.22454545454545402" width="0.214545454545454" height="0.214545454545454" fill="#252525" />
<rect x="0.663636363636362" y="0.22454545454545402" width="0.214545454545454" height="0.214545454545454" fill="#FF4136" />
<rect x="0.8831818181818161" y="0.22454545454545402" width="0.214545454545454" height="0.214545454545454" fill="#FF4136" />
<rect x="1.10272727272727" y="0.22454545454545402" width="0.214545454545454" height="0.214545454545454" fill="#252525" />
<rect x="0.005" y="0.44409090909090804" width="0.214545454545454" height="0.214545454545454" fill="#FF4136" />
<rect x="0.22454545454545402" y="0.44409090909090804" width="0.214545454545454" height="0.214545454545454" fill="#FF4136" />
<rect x="0.44409090909090804" y="0.44409090909090804" width="0.214545454545454" height="0.214545454545454" fill="#252525" />
<rect x="0.663636363636362" y="0.44409090909090804" width="0.214545454545454" height="0.214545454545454" fill="#252525" />
<rect x="0.8831818181818161" y="0.44409090909090804" width="0.214545454545454" height="0.214545454545454" fill="#252525" />
<rect x="1.10272727272727" y="0.44409090909090804" width="0.214545454545454" height="0.214545454545454" fill="#252525" />
<rect x="0.005" y="0.663636363636362" width="0.214545454545454" height="0.214545454545454" fill="#252525" />
<rect x="0.22454545454545402" y="0.663636363636362" width="0.214545454545454" height="0.214545454545454" fill="#252525" />
<rect x="0.44409090909090804" y="0.663636363636362" width="0.214545454545454" height="0.214545454545454" fill="#FF4136" />
<rect x="0.663636363636362" y="0.663636363636362" width="0.214545454545454" height="0.214545454545454" fill="#FF4136" />
<rect x="0.8831818181818161" y="0.663636363636362" width="0.214545454545454" height="0.214545454545454" fill="#252525" />
<rect x="1.10272727272727" y="0.663636363636362" width="0.214545454545454" height="0.214545454545454" fill="#252525" />
<rect x="0.005" y="0.8831818181818161" width="0.214545454545454" height="0.214545454545454" fill="#252525" />
<rect x="0.22454545454545402" y="0.8831818181818161" width="0.214545454545454" height="0.214545454545454" fill="#252525" />
<rect x="0.44409090909090804" y="0.8831818181818161" width="0.214545454545454" height="0.214545454545454" fill="#FF4136" />
<rect x="0.663636363636362" y="0.8831818181818161" width="0.214545454545454" height="0.214545454545454" fill="#FF4136" />
<rect x="0.8831818181818161" y="0.8831818181818161" width="0.214545454545454" height="0.214545454545454" fill="#252525" />
<rect x="1.10272727272727" y="0.8831818181818161" width="0.214545454545454" height="0.214545454545454" fill="#252525" />
<rect x="0.005" y="1.10272727272727" width="0.214545454545454" height="0.214545454545454" fill="#252525" />
<rect x="0.22454545454545402" y="1.10272727272727" width="0.214545454545454" height="0.214545454545454" fill="#252525" />
<rect x="0.44409090909090804" y="1.10272727272727" width="0.214545454545454" height="0.214545454545454" fill="#252525" />
<rect x="0.663636363636362" y="1.10272727272727" width="0.214545454545454" height="0.214545454545454" fill="#252525" />
<rect x="0.8831818181818161" y="1.10272727272727" width="0.214545454545454" height="0.214545454545454" fill="#252525" />
<rect x="1.10272727272727" y="1.10272727272727" width="0.214545454545454" height="0.214545454545454" fill="#252525" />
<rect x="-0.02666666666666667" y="-0.02666666666666667" width="1.3706060606060573" height="1.3706060606060573" fill="none" stroke="#111111ff" stroke-width="0.08" />
<text x="1.317272727272724" y="1.786022727272724" font-size="0.375" fill="black" text-anchor="end" font-family="Anuphan">6x6</text>
<text x="-0.037500000000000006" y="1.786022727272724" font-size="0.375" fill="black" text-anchor="start" font-family="Anuphan" font-weight="600">Test 1</text>
</g>
<g id="d9">
<rect x="0.005" y="0.005" width="0.18318181818181772" height="0.18318181818181772" fill="#252525" />
<rect x="0.19318181818181773" y="0.005" width="0.18318181818181772" height="0.18318181818181772" fill="#252525" />
<rect x="0.38136363636363546" y="0.005" width="0.18318181818181772" height="0.18318181818181772" fill="#252525" />
<rect x="0.5695454545454531" y="0.005" width="0.18318181818181772" height="0.18318181818181772" fill="#252525" />
<rect x="0.7577272727272709" y="0.005" width="0.18318181818181772" height="0.18318181818181772" fill="#252525" />
<rect x="0.9459090909090887" y="0.005" width="0.18318181818181772" height="0.18318181818181772" fill="#252525" />
<rect x="1.1340909090909062" y="0.005" width="0.18318181818181772" height="0.18318181818181772" fill="#252525" />
<rect x="0.005" y="0.19318181818181773" width="0.18318181818181772" height="0.18318181818181772" fill="#FF4136" />
<rect x="0.19318181818181773" y="0.19318181818181773" width="0.18318181818181772" height="0.18318181818181772" fill="#FF4136" />
<rect x="0.38136363636363546" y="0.19318181818181773" width="0.18318181818181772" height="0.18318181818181772" fill="#252525" />
<rect x="0.5695454545454531" y="0.19318181818181773" width="0.18318181818181772" height="0.18318181818181772" fill="#FF4136" />
<rect x="0.7577272727272709" y="0.19318181818181773" width="0.18318181818181772" height="0.18318181818181772" fill="#FF4136" />
<rect x="0.9459090909090887" y="0.19318181818181773" width="0.18318181818181772" height="0.18318181818181772" fill="#252525" />
<rect x="1.1340909090909062" y="0.19318181818181773" width="0.18318181818181772" height="0.18318181818181772" fill="#252525" />
<rect x="0.005" y="0.38136363636363546" width="0.18318181818181772" height="0.18318181818181772" fill="#FF4136" />
<rect x="0.19318181818181773" y="0.38136363636363546" width="0.18318181818181772" height="0.18318181818181772" fill="#FF4136" />
<rect x="0.38136363636363546" y="0.38136363636363546" width="0.18318181818181772" height="0.18318181818181772" fill="#252525" />
<rect x="0.5695454545454531" y="0.38136363636363546" width="0.18318181818181772" height="0.18318181818181772" fill="#FF4136" />
<rect x="0.7577272727272709" y="0.38136363636363546" width="0.18318181818181772" height="0.18318181818181772" fill="#FF4136" />
<rect x="0.9459090909090887" y="0.38136363636363546" width="0.18318181818181772" height="0.18318181818181772" fill="#252525" />
<rect x="1.1340909090909062" y="0.38136363636363546" width="0.18318181818181772" height="0.18318181818181772" fill="#252525" />
<rect x="0.005" y="0.5695454545454531" width="0.18318181818181772" height="0.18318181818181772" fill="#252525" />
<rect x="0.19318181818181773" y="0.5695454545454531" width="0.18318181818181772" height="0.18318181818181772" fill="#252525" />
<rect x="0.38136363636363546" y="0.5695454545454531" width="0.18318181818181772" height="0.18318181818181772" fill="#252525" />
<rect x="0.5695454545454531" y="0.5695454545454531" width="0.18318181818181772" height="0.18318181818181772" fill="#252525" />
<rect x="0.7577272727272709" y="0.5695454545454531" width="0.18318181818181772" height="0.18318181818181772" fill="#252525" />
<rect x="0.9459090909090887" y="0.5695454545454531" width="0.18318181818181772" height="0.18318181818181772" fill="#FF4136" />
<rect x="1.1340909090909062" y="0.5695454545454531" width="0.18318181818181772" height="0.18318181818181772" fill="#FF4136" />
<rect x="0.005" y="0.7577272727272709" width="0.18318181818181772" height="0.18318181818181772" fill="#252525" />
<rect x="0.19318181818181773" y="0.7577272727272709" width="0.18318181818181772" height="0.18318181818181772" fill="#252525" />
<rect x="0.38136363636363546" y="0.7577272727272709" width="0.18318181818181772" height="0.18318181818181772" fill="#FF4136" />
<rect x="0.5695454545454531" y="0.7577272727272709" width="0.18318181818181772" height="0.18318181818181772" fill="#FF4136" />
<rect x="0.7577272727272709" y="0.7577272727272709" width="0.18318181818181772" height="0.18318181818181772" fill="#252525" />
<rect x="0.9459090909090887" y="0.7577272727272709" width="0.18318181818181772" height="0.18318181818181772" fill="#FF4136" />
<rect x="1.1340909090909062" y="0.7577272727272709" width="0.18318181818181772" height="0.18318181818181772" fill="#FF4136" />
<rect x="0.005" y="0.9459090909090887" width="0.18318181818181772" height="0.18318181818181772" fill="#252525" />
<rect x="0.19318181818181773" y="0.9459090909090887" width="0.18318181818181772" height="0.18318181818181772" fill="#252525" />
<rect x="0.38136363636363546" y="0.9459090909090887" width="0.18318181818181772" height="0.18318181818181772" fill="#FF4136" />
<rect x="0.5695454545454531" y="0.9459090909090887" width="0.18318181818181772" height="0.18318181818181772" fill="#FF4136" />
<rect x="0.7577272727272709" y="0.9459090909090887" width="0.18318181818181772" height="0.18318181818181772" fill="#252525" />
<rect x="0.9459090909090887" y="0.9459090909090887" width="0.18318181818181772" height="0.18318181818181772" fill="#252525" />
<rect x="1.1340909090909062" y="0.9459090909090887" width="0.18318181818181772" height="0.18318181818181772" fill="#252525" />
<rect x="0.005" y="1.1340909090909062" width="0.18318181818181772" height="0.18318181818181772" fill="#252525" />
<rect x="0.19318181818181773" y="1.1340909090909062" width="0.18318181818181772" height="0.18318181818181772" fill="#252525" />
<rect x="0.38136363636363546" y="1.1340909090909062" width="0.18318181818181772" height="0.18318181818181772" fill="#252525" />
<rect x="0.5695454545454531" y="1.1340909090909062" width="0.18318181818181772" height="0.18318181818181772" fill="#252525" />
<rect x="0.7577272727272709" y="1.1340909090909062" width="0.18318181818181772" height="0.18318181818181772" fill="#252525" />
<rect x="0.9459090909090887" y="1.1340909090909062" width="0.18318181818181772" height="0.18318181818181772" fill="#252525" />
<rect x="1.1340909090909062" y="1.1340909090909062" width="0.18318181818181772" height="0.18318181818181772" fill="#252525" />
<rect x="-0.02666666666666667" y="-0.02666666666666667" width="1.3706060606060573" height="1.3706060606060573" fill="none" stroke="#111111ff" stroke-width="0.08" />
<text x="1.317272727272724" y="1.786022727272724" font-size="0.375" fill="black" text-anchor="end" font-family="Anuphan">7x7</text>
<text x="-0.037500000000000006" y="1.786022727272724" font-size="0.375" fill="black" text-anchor="start" font-family="Anuphan" font-weight="600">Test 2</text>
</g>
<g id="d10">
<rect x="0.005" y="0.005" width="0.18318181818181772" height="0.18318181818181772" fill="#FF4136" />
<rect x="0.19318181818181773" y="0.005" width="0.18318181818181772" height="0.18318181818181772" fill="#FF4136" />
<rect x="0.38136363636363546" y="0.005" width="0.18318181818181772" height="0.18318181818181772" fill="#252525" />
<rect x="0.5695454545454531" y="0.005" width="0.18318181818181772" height="0.18318181818181772" fill="#FF4136" />
<rect x="0.7577272727272709" y="0.005" width="0.18318181818181772" height="0.18318181818181772" fill="#FF4136" />
<rect x="0.9459090909090887" y="0.005" width="0.18318181818181772" height="0.18318181818181772" fill="#252525" />
<rect x="1.1340909090909062" y="0.005" width="0.18318181818181772" height="0.18318181818181772" fill="#252525" />
<rect x="0.005" y="0.19318181818181773" width="0.18318181818181772" height="0.18318181818181772" fill="#FF4136" />
<rect x="0.19318181818181773" y="0.19318181818181773" width="0.18318181818181772" height="0.18318181818181772" fill="#FF4136" />
<rect x="0.38136363636363546" y="0.19318181818181773" width="0.18318181818181772" height="0.18318181818181772" fill="#252525" />
<rect x="0.5695454545454531" y="0.19318181818181773" width="0.18318181818181772" height="0.18318181818181772" fill="#FF4136" />
<rect x="0.7577272727272709" y="0.19318181818181773" width="0.18318181818181772" height="0.18318181818181772" fill="#FF4136" />
<rect x="0.9459090909090887" y="0.19318181818181773" width="0.18318181818181772" height="0.18318181818181772" fill="#252525" />
<rect x="1.1340909090909062" y="0.19318181818181773" width="0.18318181818181772" height="0.18318181818181772" fill="#252525" />
<rect x="0.005" y="0.38136363636363546" width="0.18318181818181772" height="0.18318181818181772" fill="#252525" />
<rect x="0.19318181818181773" y="0.38136363636363546" width="0.18318181818181772" height="0.18318181818181772" fill="#252525" />
<rect x="0.38136363636363546" y="0.38136363636363546" width="0.18318181818181772" height="0.18318181818181772" fill="#252525" />
<rect x="0.5695454545454531" y="0.38136363636363546" width="0.18318181818181772" height="0.18318181818181772" fill="#252525" />
<rect x="0.7577272727272709" y="0.38136363636363546" width="0.18318181818181772" height="0.18318181818181772" fill="#252525" />
<rect x="0.9459090909090887" y="0.38136363636363546" width="0.18318181818181772" height="0.18318181818181772" fill="#FF4136" />
<rect x="1.1340909090909062" y="0.38136363636363546" width="0.18318181818181772" height="0.18318181818181772" fill="#FF4136" />
<rect x="0.005" y="0.5695454545454531" width="0.18318181818181772" height="0.18318181818181772" fill="#252525" />
<rect x="0.19318181818181773" y="0.5695454545454531" width="0.18318181818181772" height="0.18318181818181772" fill="#FF4136" />
<rect x="0.38136363636363546" y="0.5695454545454531" width="0.18318181818181772" height="0.18318181818181772" fill="#FF4136" />
<rect x="0.5695454545454531" y="0.5695454545454531" width="0.18318181818181772" height="0.18318181818181772" fill="#252525" />
<rect x="0.7577272727272709" y="0.5695454545454531" width="0.18318181818181772" height="0.18318181818181772" fill="#252525" />
<rect x="0.9459090909090887" y="0.5695454545454531" width="0.18318181818181772" height="0.18318181818181772" fill="#FF4136" />
<rect x="1.1340909090909062" y="0.5695454545454531" width="0.18318181818181772" height="0.18318181818181772" fill="#FF4136" />
<rect x="0.005" y="0.7577272727272709" width="0.18318181818181772" height="0.18318181818181772" fill="#252525" />
<rect x="0.19318181818181773" y="0.7577272727272709" width="0.18318181818181772" height="0.18318181818181772" fill="#FF4136" />
<rect x="0.38136363636363546" y="0.7577272727272709" width="0.18318181818181772" height="0.18318181818181772" fill="#FF4136" />
<rect x="0.5695454545454531" y="0.7577272727272709" width="0.18318181818181772" height="0.18318181818181772" fill="#252525" />
<rect x="0.7577272727272709" y="0.7577272727272709" width="0.18318181818181772" height="0.18318181818181772" fill="#252525" />
<rect x="0.9459090909090887" y="0.7577272727272709" width="0.18318181818181772" height="0.18318181818181772" fill="#252525" />
<rect x="1.1340909090909062" y="0.7577272727272709" width="0.18318181818181772" height="0.18318181818181772" fill="#252525" />
<rect x="0.005" y="0.9459090909090887" width="0.18318181818181772" height="0.18318181818181772" fill="#252525" />
<rect x="0.19318181818181773" y="0.9459090909090887" width="0.18318181818181772" height="0.18318181818181772" fill="#252525" />
<rect x="0.38136363636363546" y="0.9459090909090887" width="0.18318181818181772" height="0.18318181818181772" fill="#252525" />
<rect x="0.5695454545454531" y="0.9459090909090887" width="0.18318181818181772" height="0.18318181818181772" fill="#252525" />
<rect x="0.7577272727272709" y="0.9459090909090887" width="0.18318181818181772" height="0.18318181818181772" fill="#FF4136" />
<rect x="0.9459090909090887" y="0.9459090909090887" width="0.18318181818181772" height="0.18318181818181772" fill="#FF4136" />
<rect x="1.1340909090909062" y="0.9459090909090887" width="0.18318181818181772" height="0.18318181818181772" fill="#252525" />
<rect x="0.005" y="1.1340909090909062" width="0.18318181818181772" height="0.18318181818181772" fill="#252525" />
<rect x="0.19318181818181773" y="1.1340909090909062" width="0.18318181818181772" height="0.18318181818181772" fill="#252525" />
<rect x="0.38136363636363546" y="1.1340909090909062" width="0.18318181818181772" height="0.18318181818181772" fill="#252525" />
<rect x="0.5695454545454531" y="1.1340909090909062" width="0.18318181818181772" height="0.18318181818181772" fill="#252525" />
<rect x="0.7577272727272709" y="1.1340909090909062" width="0.18318181818181772" height="0.18318181818181772" fill="#FF4136" />
<rect x="0.9459090909090887" y="1.1340909090909062" width="0.18318181818181772" height="0.18318181818181772" fill="#FF4136" />
<rect x="1.1340909090909062" y="1.1340909090909062" width="0.18318181818181772" height="0.18318181818181772" fill="#252525" />
<rect x="-0.02666666666666667" y="-0.02666666666666667" width="1.3706060606060573" height="1.3706060606060573" fill="none" stroke="#111111ff" stroke-width="0.08" />
<text x="1.317272727272724" y="1.786022727272724" font-size="0.375" fill="black" text-anchor="end" font-family="Anuphan">7x7</text>
<text x="-0.037500000000000006" y="1.786022727272724" font-size="0.375" fill="black" text-anchor="start" font-family="Anuphan" font-weight="600">Test 3</text>
</g>
<g id="d11">
<rect x="0.005" y="0.005" width="0.43409090909090803" height="0.43409090909090803" fill="#0074D9" />
<rect x="0.44409090909090804" y="0.005" width="0.43409090909090803" height="0.43409090909090803" fill="#252525" />
<rect x="0.8831818181818161" y="0.005" width="0.43409090909090803" height="0.43409090909090803" fill="#252525" />
<rect x="0.005" y="0.44409090909090804" width="0.43409090909090803" height="0.43409090909090803" fill="#252525" />
<rect x="0.44409090909090804" y="0.44409090909090804" width="0.43409090909090803" height="0.43409090909090803" fill="#252525" />
<rect x="0.8831818181818161" y="0.44409090909090804" width="0.43409090909090803" height="0.43409090909090803" fill="#252525" />
<rect x="0.005" y="0.8831818181818161" width="0.43409090909090803" height="0.43409090909090803" fill="#252525" />
<rect x="0.44409090909090804" y="0.8831818181818161" width="0.43409090909090803" height="0.43409090909090803" fill="#252525" />
<rect x="0.8831818181818161" y="0.8831818181818161" width="0.43409090909090803" height="0.43409090909090803" fill="#252525" />
<rect x="-0.02666666666666667" y="-0.02666666666666667" width="1.3706060606060573" height="1.3706060606060573" fill="none" stroke="#111111ff" stroke-width="0.08" />
<text x="1.317272727272724" y="1.786022727272724" font-size="0.375" fill="black" text-anchor="end" font-family="Anuphan">3x3</text>
<text x="-0.037500000000000006" y="1.786022727272724" font-size="0.375" fill="black" text-anchor="start" font-family="Anuphan" font-weight="600">Output 1</text>
</g>
<g id="d12">
<rect x="0.005" y="0.005" width="0.43409090909090803" height="0.43409090909090803" fill="#0074D9" />
<rect x="0.44409090909090804" y="0.005" width="0.43409090909090803" height="0.43409090909090803" fill="#252525" />
<rect x="0.8831818181818161" y="0.005" width="0.43409090909090803" height="0.43409090909090803" fill="#0074D9" />
<rect x="0.005" y="0.44409090909090804" width="0.43409090909090803" height="0.43409090909090803" fill="#252525" />
<rect x="0.44409090909090804" y="0.44409090909090804" width="0.43409090909090803" height="0.43409090909090803" fill="#252525" />
<rect x="0.8831818181818161" y="0.44409090909090804" width="0.43409090909090803" height="0.43409090909090803" fill="#252525" />
<rect x="0.005" y="0.8831818181818161" width="0.43409090909090803" height="0.43409090909090803" fill="#252525" />
<rect x="0.44409090909090804" y="0.8831818181818161" width="0.43409090909090803" height="0.43409090909090803" fill="#252525" />
<rect x="0.8831818181818161" y="0.8831818181818161" width="0.43409090909090803" height="0.43409090909090803" fill="#252525" />
<rect x="-0.02666666666666667" y="-0.02666666666666667" width="1.3706060606060573" height="1.3706060606060573" fill="none" stroke="#111111ff" stroke-width="0.08" />
<text x="1.317272727272724" y="1.786022727272724" font-size="0.375" fill="black" text-anchor="end" font-family="Anuphan">3x3</text>
<text x="-0.037500000000000006" y="1.786022727272724" font-size="0.375" fill="black" text-anchor="start" font-family="Anuphan" font-weight="600">Output 2</text>
</g>
<g id="d13">
<rect x="0.005" y="0.005" width="0.43409090909090803" height="0.43409090909090803" fill="#0074D9" />
<rect x="0.44409090909090804" y="0.005" width="0.43409090909090803" height="0.43409090909090803" fill="#252525" />
<rect x="0.8831818181818161" y="0.005" width="0.43409090909090803" height="0.43409090909090803" fill="#0074D9" />
<rect x="0.005" y="0.44409090909090804" width="0.43409090909090803" height="0.43409090909090803" fill="#252525" />
<rect x="0.44409090909090804" y="0.44409090909090804" width="0.43409090909090803" height="0.43409090909090803" fill="#0074D9" />
<rect x="0.8831818181818161" y="0.44409090909090804" width="0.43409090909090803" height="0.43409090909090803" fill="#252525" />
<rect x="0.005" y="0.8831818181818161" width="0.43409090909090803" height="0.43409090909090803" fill="#252525" />
<rect x="0.44409090909090804" y="0.8831818181818161" width="0.43409090909090803" height="0.43409090909090803" fill="#252525" />
<rect x="0.8831818181818161" y="0.8831818181818161" width="0.43409090909090803" height="0.43409090909090803" fill="#252525" />
<rect x="-0.02666666666666667" y="-0.02666666666666667" width="1.3706060606060573" height="1.3706060606060573" fill="none" stroke="#111111ff" stroke-width="0.08" />
<text x="1.317272727272724" y="1.786022727272724" font-size="0.375" fill="black" text-anchor="end" font-family="Anuphan">3x3</text>
<text x="-0.037500000000000006" y="1.786022727272724" font-size="0.375" fill="black" text-anchor="start" font-family="Anuphan" font-weight="600">Output 3</text>
</g>
<g id="d14">
<rect x="0.005" y="0.005" width="0.43409090909090803" height="0.43409090909090803" fill="#0074D9" />
<rect x="0.44409090909090804" y="0.005" width="0.43409090909090803" height="0.43409090909090803" fill="#252525" />
<rect x="0.8831818181818161" y="0.005" width="0.43409090909090803" height="0.43409090909090803" fill="#0074D9" />
<rect x="0.005" y="0.44409090909090804" width="0.43409090909090803" height="0.43409090909090803" fill="#252525" />
<rect x="0.44409090909090804" y="0.44409090909090804" width="0.43409090909090803" height="0.43409090909090803" fill="#252525" />
<rect x="0.8831818181818161" y="0.44409090909090804" width="0.43409090909090803" height="0.43409090909090803" fill="#252525" />
<rect x="0.005" y="0.8831818181818161" width="0.43409090909090803" height="0.43409090909090803" fill="#252525" />
<rect x="0.44409090909090804" y="0.8831818181818161" width="0.43409090909090803" height="0.43409090909090803" fill="#252525" />
<rect x="0.8831818181818161" y="0.8831818181818161" width="0.43409090909090803" height="0.43409090909090803" fill="#252525" />
<rect x="-0.02666666666666667" y="-0.02666666666666667" width="1.3706060606060573" height="1.3706060606060573" fill="none" stroke="#111111ff" stroke-width="0.08" />
<text x="1.317272727272724" y="1.786022727272724" font-size="0.375" fill="black" text-anchor="end" font-family="Anuphan">3x3</text>
<text x="-0.037500000000000006" y="1.786022727272724" font-size="0.375" fill="black" text-anchor="start" font-family="Anuphan" font-weight="600">Output 4</text>
</g>
<g id="d15">
<rect x="0.005" y="0.005" width="0.43409090909090803" height="0.43409090909090803" fill="#0074D9" />
<rect x="0.44409090909090804" y="0.005" width="0.43409090909090803" height="0.43409090909090803" fill="#252525" />
<rect x="0.8831818181818161" y="0.005" width="0.43409090909090803" height="0.43409090909090803" fill="#252525" />
<rect x="0.005" y="0.44409090909090804" width="0.43409090909090803" height="0.43409090909090803" fill="#252525" />
<rect x="0.44409090909090804" y="0.44409090909090804" width="0.43409090909090803" height="0.43409090909090803" fill="#252525" />
<rect x="0.8831818181818161" y="0.44409090909090804" width="0.43409090909090803" height="0.43409090909090803" fill="#252525" />
<rect x="0.005" y="0.8831818181818161" width="0.43409090909090803" height="0.43409090909090803" fill="#252525" />
<rect x="0.44409090909090804" y="0.8831818181818161" width="0.43409090909090803" height="0.43409090909090803" fill="#252525" />
<rect x="0.8831818181818161" y="0.8831818181818161" width="0.43409090909090803" height="0.43409090909090803" fill="#252525" />
<rect x="-0.02666666666666667" y="-0.02666666666666667" width="1.3706060606060573" height="1.3706060606060573" fill="none" stroke="#111111ff" stroke-width="0.08" />
<text x="1.317272727272724" y="1.786022727272724" font-size="0.375" fill="black" text-anchor="end" font-family="Anuphan">3x3</text>
<text x="-0.037500000000000006" y="1.786022727272724" font-size="0.375" fill="black" text-anchor="start" font-family="Anuphan" font-weight="600">Output 5</text>
</g>
<g id="d16">
<rect x="0.005" y="0.005" width="0.43409090909090803" height="0.43409090909090803" fill="#0074D9" />
<rect x="0.44409090909090804" y="0.005" width="0.43409090909090803" height="0.43409090909090803" fill="#252525" />
<rect x="0.8831818181818161" y="0.005" width="0.43409090909090803" height="0.43409090909090803" fill="#0074D9" />
<rect x="0.005" y="0.44409090909090804" width="0.43409090909090803" height="0.43409090909090803" fill="#252525" />
<rect x="0.44409090909090804" y="0.44409090909090804" width="0.43409090909090803" height="0.43409090909090803" fill="#0074D9" />
<rect x="0.8831818181818161" y="0.44409090909090804" width="0.43409090909090803" height="0.43409090909090803" fill="#252525" />
<rect x="0.005" y="0.8831818181818161" width="0.43409090909090803" height="0.43409090909090803" fill="#0074D9" />
<rect x="0.44409090909090804" y="0.8831818181818161" width="0.43409090909090803" height="0.43409090909090803" fill="#252525" />
<rect x="0.8831818181818161" y="0.8831818181818161" width="0.43409090909090803" height="0.43409090909090803" fill="#252525" />
<rect x="-0.02666666666666667" y="-0.02666666666666667" width="1.3706060606060573" height="1.3706060606060573" fill="none" stroke="#111111ff" stroke-width="0.08" />
<text x="1.317272727272724" y="1.786022727272724" font-size="0.375" fill="black" text-anchor="end" font-family="Anuphan">3x3</text>
<text x="-0.037500000000000006" y="1.786022727272724" font-size="0.375" fill="black" text-anchor="start" font-family="Anuphan" font-weight="600">Output 6</text>
</g>
<g id="d17">
<rect x="0.005" y="0.005" width="0.43409090909090803" height="0.43409090909090803" fill="#0074D9" />
<rect x="0.44409090909090804" y="0.005" width="0.43409090909090803" height="0.43409090909090803" fill="#252525" />
<rect x="0.8831818181818161" y="0.005" width="0.43409090909090803" height="0.43409090909090803" fill="#0074D9" />
<rect x="0.005" y="0.44409090909090804" width="0.43409090909090803" height="0.43409090909090803" fill="#252525" />
<rect x="0.44409090909090804" y="0.44409090909090804" width="0.43409090909090803" height="0.43409090909090803" fill="#0074D9" />
<rect x="0.8831818181818161" y="0.44409090909090804" width="0.43409090909090803" height="0.43409090909090803" fill="#252525" />
<rect x="0.005" y="0.8831818181818161" width="0.43409090909090803" height="0.43409090909090803" fill="#0074D9" />
<rect x="0.44409090909090804" y="0.8831818181818161" width="0.43409090909090803" height="0.43409090909090803" fill="#252525" />
<rect x="0.8831818181818161" y="0.8831818181818161" width="0.43409090909090803" height="0.43409090909090803" fill="#0074D9" />
<rect x="-0.02666666666666667" y="-0.02666666666666667" width="1.3706060606060573" height="1.3706060606060573" fill="none" stroke="#111111ff" stroke-width="0.08" />
<text x="1.317272727272724" y="1.786022727272724" font-size="0.375" fill="black" text-anchor="end" font-family="Anuphan">3x3</text>
<text x="-0.037500000000000006" y="1.786022727272724" font-size="0.375" fill="black" text-anchor="start" font-family="Anuphan" font-weight="600">Output 7</text>
</g>
<g id="d18">
<rect x="0.005" y="0.005" width="0.43409090909090803" height="0.43409090909090803" fill="#0074D9" />
<rect x="0.44409090909090804" y="0.005" width="0.43409090909090803" height="0.43409090909090803" fill="#252525" />
<rect x="0.8831818181818161" y="0.005" width="0.43409090909090803" height="0.43409090909090803" fill="#0074D9" />
<rect x="0.005" y="0.44409090909090804" width="0.43409090909090803" height="0.43409090909090803" fill="#252525" />
<rect x="0.44409090909090804" y="0.44409090909090804" width="0.43409090909090803" height="0.43409090909090803" fill="#0074D9" />
<rect x="0.8831818181818161" y="0.44409090909090804" width="0.43409090909090803" height="0.43409090909090803" fill="#252525" />
<rect x="0.005" y="0.8831818181818161" width="0.43409090909090803" height="0.43409090909090803" fill="#0074D9" />
<rect x="0.44409090909090804" y="0.8831818181818161" width="0.43409090909090803" height="0.43409090909090803" fill="#252525" />
<rect x="0.8831818181818161" y="0.8831818181818161" width="0.43409090909090803" height="0.43409090909090803" fill="#252525" />
<rect x="-0.02666666666666667" y="-0.02666666666666667" width="1.3706060606060573" height="1.3706060606060573" fill="none" stroke="#111111ff" stroke-width="0.08" />
<text x="1.317272727272724" y="1.786022727272724" font-size="0.375" fill="black" text-anchor="end" font-family="Anuphan">3x3</text>
<text x="-0.037500000000000006" y="1.786022727272724" font-size="0.375" fill="black" text-anchor="start" font-family="Anuphan" font-weight="600">Output 8</text>
</g>
</defs>
<rect x="0" y="0" width="100%" height="100%" fill="#eeeff6" />
<use xlink:href="#d0" x="0.2499999999999999" y="0.25" />
<use xlink:href="#d1" x="2.0672727272727243" y="0.25" />
<use xlink:href="#d2" x="3.8845454545454485" y="0.25" />
<use xlink:href="#d3" x="5.701818181818172" y="0.25" />
<use xlink:href="#d4" x="7.519090909090896" y="0.25" />
<use xlink:href="#d5" x="9.33636363636362" y="0.25" />
<use xlink:href="#d6" x="11.153636363636345" y="0.25" />
<use xlink:href="#d7" x="12.97090909090907" y="0.25" />
<use xlink:href="#d8" x="14.788181818181794" y="0.25" />
<use xlink:href="#d9" x="16.605454545454517" y="0.25" />
<use xlink:href="#d10" x="18.42272727272724" y="0.25" />
<path d="M0.9086363636363621,2.217272727272724 L0.9086363636363621,2.617272727272724" stroke-width="0.05" stroke="#888888" />
<path d="M0.7586363636363621,2.4172727272727244 L0.9086363636363621,2.617272727272724" stroke-width="0.05" stroke="#888888" />
<path d="M1.058636363636362,2.4172727272727244 L0.9086363636363621,2.617272727272724" stroke-width="0.05" stroke="#888888" />
<use xlink:href="#d11" x="0.25" y="2.967272727272724" />
<path d="M2.725909090909086,2.217272727272724 L2.725909090909086,2.617272727272724" stroke-width="0.05" stroke="#888888" />
<path d="M2.5759090909090863,2.4172727272727244 L2.725909090909086,2.617272727272724" stroke-width="0.05" stroke="#888888" />
<path d="M2.875909090909086,2.4172727272727244 L2.725909090909086,2.617272727272724" stroke-width="0.05" stroke="#888888" />
<use xlink:href="#d12" x="2.0672727272727243" y="2.967272727272724" />
<path d="M4.543181818181811,2.217272727272724 L4.543181818181811,2.617272727272724" stroke-width="0.05" stroke="#888888" />
<path d="M4.3931818181818105,2.4172727272727244 L4.543181818181811,2.617272727272724" stroke-width="0.05" stroke="#888888" />
<path d="M4.693181818181811,2.4172727272727244 L4.543181818181811,2.617272727272724" stroke-width="0.05" stroke="#888888" />
<use xlink:href="#d13" x="3.8845454545454485" y="2.967272727272724" />
<path d="M6.360454545454535,2.217272727272724 L6.360454545454535,2.617272727272724" stroke-width="0.05" stroke="#888888" />
<path d="M6.210454545454534,2.4172727272727244 L6.360454545454535,2.617272727272724" stroke-width="0.05" stroke="#888888" />
<path d="M6.510454545454535,2.4172727272727244 L6.360454545454535,2.617272727272724" stroke-width="0.05" stroke="#888888" />
<use xlink:href="#d14" x="5.701818181818172" y="2.967272727272724" />
<path d="M8.177727272727259,2.217272727272724 L8.177727272727259,2.617272727272724" stroke-width="0.05" stroke="#888888" />
<path d="M8.027727272727258,2.4172727272727244 L8.177727272727259,2.617272727272724" stroke-width="0.05" stroke="#888888" />
<path d="M8.327727272727259,2.4172727272727244 L8.177727272727259,2.617272727272724" stroke-width="0.05" stroke="#888888" />
<use xlink:href="#d15" x="7.519090909090896" y="2.967272727272724" />
<path d="M9.994999999999981,2.217272727272724 L9.994999999999981,2.617272727272724" stroke-width="0.05" stroke="#888888" />
<path d="M9.844999999999981,2.4172727272727244 L9.994999999999981,2.617272727272724" stroke-width="0.05" stroke="#888888" />
<path d="M10.144999999999982,2.4172727272727244 L9.994999999999981,2.617272727272724" stroke-width="0.05" stroke="#888888" />
<use xlink:href="#d16" x="9.33636363636362" y="2.967272727272724" />
<path d="M11.812272727272706,2.217272727272724 L11.812272727272706,2.617272727272724" stroke-width="0.05" stroke="#888888" />
<path d="M11.662272727272706,2.4172727272727244 L11.812272727272706,2.617272727272724" stroke-width="0.05" stroke="#888888" />
<path d="M11.962272727272707,2.4172727272727244 L11.812272727272706,2.617272727272724" stroke-width="0.05" stroke="#888888" />
<use xlink:href="#d17" x="11.153636363636345" y="2.967272727272724" />
<path d="M13.62954545454543,2.217272727272724 L13.62954545454543,2.617272727272724" stroke-width="0.05" stroke="#888888" />
<path d="M13.47954545454543,2.4172727272727244 L13.62954545454543,2.617272727272724" stroke-width="0.05" stroke="#888888" />
<path d="M13.779545454545431,2.4172727272727244 L13.62954545454543,2.617272727272724" stroke-width="0.05" stroke="#888888" />
<use xlink:href="#d18" x="12.97090909090907" y="2.967272727272724" />
<path d="M15.446818181818156,2.217272727272724 L15.446818181818156,2.617272727272724" stroke-width="0.05" stroke="#888888" />
<path d="M15.296818181818155,2.4172727272727244 L15.446818181818156,2.617272727272724" stroke-width="0.05" stroke="#888888" />
<path d="M15.596818181818156,2.4172727272727244 L15.446818181818156,2.617272727272724" stroke-width="0.05" stroke="#888888" />
<text x="15.446818181818156" y="3.725909090909086" font-size="1" font-family="Anuphan" font-weight="700" fill="#333333" text-anchor="middle" alignment-baseline="middle">?</text>
<path d="M17.26409090909088,2.217272727272724 L17.26409090909088,2.617272727272724" stroke-width="0.05" stroke="#888888" />
<path d="M17.11409090909088,2.4172727272727244 L17.26409090909088,2.617272727272724" stroke-width="0.05" stroke="#888888" />
<path d="M17.414090909090877,2.4172727272727244 L17.26409090909088,2.617272727272724" stroke-width="0.05" stroke="#888888" />
<text x="17.26409090909088" y="3.725909090909086" font-size="1" font-family="Anuphan" font-weight="700" fill="#333333" text-anchor="middle" alignment-baseline="middle">?</text>
<path d="M19.0813636363636,2.217272727272724 L19.0813636363636,2.617272727272724" stroke-width="0.05" stroke="#888888" />
<path d="M18.931363636363603,2.4172727272727244 L19.0813636363636,2.617272727272724" stroke-width="0.05" stroke="#888888" />
<path d="M19.2313636363636,2.4172727272727244 L19.0813636363636,2.617272727272724" stroke-width="0.05" stroke="#888888" />
<text x="19.0813636363636" y="3.725909090909086" font-size="1" font-family="Anuphan" font-weight="700" fill="#333333" text-anchor="middle" alignment-baseline="middle">?</text>
<text x="19.9" y="5.1" font-size="0.3" font-family="Anuphan" font-weight="600" fill="#666666" text-anchor="end" alignment-baseline="bottom">Task ff28f65a</text>
</svg>