<?xml version="1.0" encoding="UTF-8"?>
<svg xmlns="http://www.w3.org/2000/svg" xmlns:xlink="http://www.w3.org/1999/xlink"
     width="800.0" height="435.99999999999994" viewBox="0 0 20.0 10.899999999999999">
<defs>
<g id="d0">
<rect x="0.005" y="0.005" width="0.8991666666666667" height="0.8991666666666667" fill="#252525" />
<rect x="0.9091666666666667" y="0.005" width="0.8991666666666667" height="0.8991666666666667" fill="#8D1D2C" />
<rect x="1.8133333333333332" y="0.005" width="0.8991666666666667" height="0.8991666666666667" fill="#8D1D2C" />
<rect x="0.005" y="0.9091666666666667" width="0.8991666666666667" height="0.8991666666666667" fill="#252525" />
<rect x="0.9091666666666667" y="0.9091666666666667" width="0.8991666666666667" height="0.8991666666666667" fill="#8D1D2C" />
<rect x="1.8133333333333332" y="0.9091666666666667" width="0.8991666666666667" height="0.8991666666666667" fill="#8D1D2C" />
<rect x="0.005" y="1.8133333333333332" width="0.8991666666666667" height="0.8991666666666667" fill="#8D1D2C" />
<rect x="0.9091666666666667" y="1.8133333333333332" width="0.8991666666666667" height="0.8991666666666667" fill="#8D1D2C" />
<rect x="1.8133333333333332" y="1.8133333333333332" width="0.8991666666666667" height="0.8991666666666667" fill="#8D1D2C" />
<rect x="0.005" y="2.7175" width="0.8991666666666667" height="0.8991666666666667" fill="#252525" />
<rect x="0.9091666666666667" y="2.7175" width="0.8991666666666667" height="0.8991666666666667" fill="#0074D9" />
<rect x="1.8133333333333332" y="2.7175" width="0.8991666666666667" height="0.8991666666666667" fill="#252525" />
<rect x="0.005" y="3.6216666666666666" width="0.8991666666666667" height="0.8991666666666667" fill="#252525" />
<rect x="0.9091666666666667" y="3.6216666666666666" width="0.8991666666666667" height="0.8991666666666667" fill="#252525" />
<rect x="1.8133333333333332" y="3.6216666666666666" width="0.8991666666666667" height="0.8991666666666667" fill="#0074D9" />
<rect x="0.005" y="4.525833333333333" width="0.8991666666666667" height="0.8991666666666667" fill="#0074D9" />
<rect x="0.9091666666666667" y="4.525833333333333" width="0.8991666666666667" height="0.8991666666666667" fill="#0074D9" />
<rect x="1.8133333333333332" y="4.525833333333333" width="0.8991666666666667" height="0.8991666666666667" fill="#0074D9" />
<rect x="-0.02666666666666667" y="-0.02666666666666667" width="2.765833333333333" height="5.4783333333333335" fill="none" stroke="#111111ff" stroke-width="0.08" />
<text x="2.7125" y="5.89375" font-size="0.375" fill="black" text-anchor="end" font-family="Anuphan">3x6</text>
<text x="-0.037500000000000006" y="5.89375" font-size="0.375" fill="black" text-anchor="start" font-family="Anuphan" font-weight="600">Input 1</text>
</g>
<g id="d1">
<rect x="0.005" y="0.005" width="0.8991666666666667" height="0.8991666666666667" fill="#8D1D2C" />
<rect x="0.9091666666666667" y="0.005" width="0.8991666666666667" height="0.8991666666666667" fill="#252525" />
<rect x="1.8133333333333332" y="0.005" width="0.8991666666666667" height="0.8991666666666667" fill="#8D1D2C" />
<rect x="0.005" y="0.9091666666666667" width="0.8991666666666667" height="0.8991666666666667" fill="#252525" />
<rect x="0.9091666666666667" y="0.9091666666666667" width="0.8991666666666667" height="0.8991666666666667" fill="#8D1D2C" />
<rect x="1.8133333333333332" y="0.9091666666666667" width="0.8991666666666667" height="0.8991666666666667" fill="#8D1D2C" />
<rect x="0.005" y="1.8133333333333332" width="0.8991666666666667" height="0.8991666666666667" fill="#252525" />
<rect x="0.9091666666666667" y="1.8133333333333332" width="0.8991666666666667" height="0.8991666666666667" fill="#252525" />
<rect x="1.8133333333333332" y="1.8133333333333332" width="0.8991666666666667" height="0.8991666666666667" fill="#8D1D2C" />
<rect x="0.005" y="2.7175" width="0.8991666666666667" height="0.8991666666666667" fill="#0074D9" />
<rect x="0.9091666666666667" y="2.7175" width="0.8991666666666667" height="0.8991666666666667" fill="#252525" />
<rect x="1.8133333333333332" y="2.7175" width="0.8991666666666667" height="0.8991666666666667" fill="#0074D9" />
<rect x="0.005" y="3.6216666666666666" width="0.8991666666666667" height="0.8991666666666667" fill="#0074D9" />
<rect x="0.9091666666666667" y="3.6216666666666666" width="0.8991666666666667" height="0.8991666666666667" fill="#252525" />
<rect x="1.8133333333333332" y="3.6216666666666666" width="0.8991666666666667" height="0.8991666666666667" fill="#252525" />
<rect x="0.005" y="4.525833333333333" width="0.8991666666666667" height="0.8991666666666667" fill="#0074D9" />
<rect x="0.9091666666666667" y="4.525833333333333" width="0.8991666666666667" height="0.8991666666666667" fill="#252525" />
<rect x="1.8133333333333332" y="4.525833333333333" width="0.8991666666666667" height="0.8991666666666667" fill="#252525" />
<rect x="-0.02666666666666667" y="-0.02666666666666667" width="2.765833333333333" height="5.4783333333333335" fill="none" stroke="#111111ff" stroke-width="0.08" />
<text x="2.7125" y="5.89375" font-size="0.375" fill="black" text-anchor="end" font-family="Anuphan">3x6</text>
<text x="-0.037500000000000006" y="5.89375" font-size="0.375" fill="black" text-anchor="start" font-family="Anuphan" font-weight="600">Input 2</text>
</g>
<g id="d2">
<rect x="0.005" y="0.005" width="0.8991666666666667" height="0.8991666666666667" fill="#252525" />
<rect x="0.9091666666666667" y="0.005" width="0.8991666666666667" height="0.8991666666666667" fill="#8D1D2C" />
<rect x="1.8133333333333332" y="0.005" width="0.8991666666666667" height="0.8991666666666667" fill="#252525" />
<rect x="0.005" y="0.9091666666666667" width="0.8991666666666667" height="0.8991666666666667" fill="#8D1D2C" />
<rect x="0.9091666666666667" y="0.9091666666666667" width="0.8991666666666667" height="0.8991666666666667" fill="#252525" />
<rect x="1.8133333333333332" y="0.9091666666666667" width="0.8991666666666667" height="0.8991666666666667" fill="#8D1D2C" />
<rect x="0.005" y="1.8133333333333332" width="0.8991666666666667" height="0.8991666666666667" fill="#8D1D2C" />
<rect x="0.9091666666666667" y="1.8133333333333332" width="0.8991666666666667" height="0.8991666666666667" fill="#252525" />
<rect x="1.8133333333333332" y="1.8133333333333332" width="0.8991666666666667" height="0.8991666666666667" fill="#252525" />
<rect x="0.005" y="2.7175" width="0.8991666666666667" height="0.8991666666666667" fill="#252525" />
<rect x="0.9091666666666667" y="2.7175" width="0.8991666666666667" height="0.8991666666666667" fill="#252525" />
<rect x="1.8133333333333332" y="2.7175" width="0.8991666666666667" height="0.8991666666666667" fill="#252525" />
<rect x="0.005" y="3.6216666666666666" width="0.8991666666666667" height="0.8991666666666667" fill="#252525" />
<rect x="0.9091666666666667" y="3.6216666666666666" width="0.8991666666666667" height="0.8991666666666667" fill="#252525" />
<rect x="1.8133333333333332" y="3.6216666666666666" width="0.8991666666666667" height="0.8991666666666667" fill="#0074D9" />
<rect x="0.005" y="4.525833333333333" width="0.8991666666666667" height="0.8991666666666667" fill="#0074D9" />
<rect x="0.9091666666666667" y="4.525833333333333" width="0.8991666666666667" height="0.8991666666666667" fill="#252525" />
<rect x="1.8133333333333332" y="4.525833333333333" width="0.8991666666666667" height="0.8991666666666667" fill="#252525" />
<rect x="-0.02666666666666667" y="-0.02666666666666667" width="2.765833333333333" height="5.4783333333333335" fill="none" stroke="#111111ff" stroke-width="0.08" />
<text x="2.7125" y="5.89375" font-size="0.375" fill="black" text-anchor="end" font-family="Anuphan">3x6</text>
<text x="-0.037500000000000006" y="5.89375" font-size="0.375" fill="black" text-anchor="start" font-family="Anuphan" font-weight="600">Input 3</text>
</g>
<g id="d3">
<rect x="0.005" y="0.005" width="0.8991666666666667" height="0.8991666666666667" fill="#252525" />
<rect x="0.9091666666666667" y="0.005" width="0.8991666666666667" height="0.8991666666666667" fill="#252525" />
<rect x="1.8133333333333332" y="0.005" width="0.8991666666666667" height="0.8991666666666667" fill="#8D1D2C" />
<rect x="0.005" y="0.9091666666666667" width="0.8991666666666667" height="0.8991666666666667" fill="#8D1D2C" />
<rect x="0.9091666666666667" y="0.9091666666666667" width="0.8991666666666667" height="0.8991666666666667" fill="#8D1D2C" />
<rect x="1.8133333333333332" y="0.9091666666666667" width="0.8991666666666667" height="0.8991666666666667" fill="#8D1D2C" />
<rect x="0.005" y="1.8133333333333332" width="0.8991666666666667" height="0.8991666666666667" fill="#252525" />
<rect x="0.9091666666666667" y="1.8133333333333332" width="0.8991666666666667" height="0.8991666666666667" fill="#8D1D2C" />
<rect x="1.8133333333333332" y="1.8133333333333332" width="0.8991666666666667" height="0.8991666666666667" fill="#252525" />
<rect x="0.005" y="2.7175" width="0.8991666666666667" height="0.8991666666666667" fill="#0074D9" />
<rect x="0.9091666666666667" y="2.7175" width="0.8991666666666667" height="0.8991666666666667" fill="#252525" />
<rect x="1.8133333333333332" y="2.7175" width="0.8991666666666667" height="0.8991666666666667" fill="#252525" />
<rect x="0.005" y="3.6216666666666666" width="0.8991666666666667" height="0.8991666666666667" fill="#252525" />
<rect x="0.9091666666666667" y="3.6216666666666666" width="0.8991666666666667" height="0.8991666666666667" fill="#0074D9" />
<rect x="1.8133333333333332" y="3.6216666666666666" width="0.8991666666666667" height="0.8991666666666667" fill="#0074D9" />
<rect x="0.005" y="4.525833333333333" width="0.8991666666666667" height="0.8991666666666667" fill="#252525" />
<rect x="0.9091666666666667" y="4.525833333333333" width="0.8991666666666667" height="0.8991666666666667" fill="#252525" />
<rect x="1.8133333333333332" y="4.525833333333333" width="0.8991666666666667" height="0.8991666666666667" fill="#0074D9" />
<rect x="-0.02666666666666667" y="-0.02666666666666667" width="2.765833333333333" height="5.4783333333333335" fill="none" stroke="#111111ff" stroke-width="0.08" />
<text x="2.7125" y="5.89375" font-size="0.375" fill="black" text-anchor="end" font-family="Anuphan">3x6</text>
<text x="-0.037500000000000006" y="5.89375" font-size="0.375" fill="black" text-anchor="start" font-family="Anuphan" font-weight="600">Input 4</text>
</g>
<g id="d4">
<rect x="0.005" y="0.005" width="0.8991666666666667" height="0.8991666666666667" fill="#252525" />
<rect x="0.9091666666666667" y="0.005" width="0.8991666666666667" height="0.8991666666666667" fill="#8D1D2C" />
<rect x="1.8133333333333332" y="0.005" width="0.8991666666666667" height="0.8991666666666667" fill="#252525" />
<rect x="0.005" y="0.9091666666666667" width="0.8991666666666667" height="0.8991666666666667" fill="#252525" />
<rect x="0.9091666666666667" y="0.9091666666666667" width="0.8991666666666667" height="0.8991666666666667" fill="#8D1D2C" />
<rect x="1.8133333333333332" y="0.9091666666666667" width="0.8991666666666667" height="0.8991666666666667" fill="#8D1D2C" />
<rect x="0.005" y="1.8133333333333332" width="0.8991666666666667" height="0.8991666666666667" fill="#252525" />
<rect x="0.9091666666666667" y="1.8133333333333332" width="0.8991666666666667" height="0.8991666666666667" fill="#8D1D2C" />
<rect x="1.8133333333333332" y="1.8133333333333332" width="0.8991666666666667" height="0.8991666666666667" fill="#8D1D2C" />
<rect x="0.005" y="2.7175" width="0.8991666666666667" height="0.8991666666666667" fill="#252525" />
<rect x="0.9091666666666667" y="2.7175" width="0.8991666666666667" height="0.8991666666666667" fill="#252525" />
<rect x="1.8133333333333332" y="2.7175" width="0.8991666666666667" height="0.8991666666666667" fill="#252525" />
<rect x="0.005" y="3.6216666666666666" width="0.8991666666666667" height="0.8991666666666667" fill="#0074D9" />
<rect x="0.9091666666666667" y="3.6216666666666666" width="0.8991666666666667" height="0.8991666666666667" fill="#0074D9" />
<rect x="1.8133333333333332" y="3.6216666666666666" width="0.8991666666666667" height="0.8991666666666667" fill="#0074D9" />
<rect x="0.005" y="4.525833333333333" width="0.8991666666666667" height="0.8991666666666667" fill="#0074D9" />
<rect x="0.9091666666666667" y="4.525833333333333" width="0.8991666666666667" height="0.8991666666666667" fill="#252525" />
<rect x="1.8133333333333332" y="4.525833333333333" width="0.8991666666666667" height="0.8991666666666667" fill="#0074D9" />
<rect x="-0.02666666666666667" y="-0.02666666666666667" width="2.765833333333333" height="5.4783333333333335" fill="none" stroke="#111111ff" stroke-width="0.08" />
<text x="2.7125" y="5.89375" font-size="0.375" fill="black" text-anchor="end" font-family="Anuphan">3x6</text>
<text x="-0.037500000000000006" y="5.89375" font-size="0.375" fill="black" text-anchor="start" font-family="Anuphan" font-weight="600">Input 5</text>
</g>
<g id="d5">
<rect x="0.005" y="0.005" width="0.8991666666666667" height="0.8991666666666667" fill="#8D1D2C" />
<rect x="0.9091666666666667" y="0.005" width="0.8991666666666667" height="0.8991666666666667" fill="#252525" />
<rect x="1.8133333333333332" y="0.005" width="0.8991666666666667" height="0.8991666666666667" fill="#8D1D2C" />
<rect x="0.005" y="0.9091666666666667" width="0.8991666666666667" height="0.8991666666666667" fill="#252525" />
<rect x="0.9091666666666667" y="0.9091666666666667" width="0.8991666666666667" height="0.8991666666666667" fill="#252525" />
<rect x="1.8133333333333332" y="0.9091666666666667" width="0.8991666666666667" height="0.8991666666666667" fill="#8D1D2C" />
<rect x="0.005" y="1.8133333333333332" width="0.8991666666666667" height="0.8991666666666667" fill="#8D1D2C" />
<rect x="0.9091666666666667" y="1.8133333333333332" width="0.8991666666666667" height="0.8991666666666667" fill="#252525" />
<rect x="1.8133333333333332" y="1.8133333333333332" width="0.8991666666666667" height="0.8991666666666667" fill="#8D1D2C" />
<rect x="0.005" y="2.7175" width="0.8991666666666667" height="0.8991666666666667" fill="#252525" />
<rect x="0.9091666666666667" y="2.7175" width="0.8991666666666667" height="0.8991666666666667" fill="#0074D9" />
<rect x="1.8133333333333332" y="2.7175" width="0.8991666666666667" height="0.8991666666666667" fill="#0074D9" />
<rect x="0.005" y="3.6216666666666666" width="0.8991666666666667" height="0.8991666666666667" fill="#252525" />
<rect x="0.9091666666666667" y="3.6216666666666666" width="0.8991666666666667" height="0.8991666666666667" fill="#0074D9" />
<rect x="1.8133333333333332" y="3.6216666666666666" width="0.8991666666666667" height="0.8991666666666667" fill="#252525" />
<rect x="0.005" y="4.525833333333333" width="0.8991666666666667" height="0.8991666666666667" fill="#0074D9" />
<rect x="0.9091666666666667" y="4.525833333333333" width="0.8991666666666667" height="0.8991666666666667" fill="#252525" />
<rect x="1.8133333333333332" y="4.525833333333333" width="0.8991666666666667" height="0.8991666666666667" fill="#252525" />
<rect x="-0.02666666666666667" y="-0.02666666666666667" width="2.765833333333333" height="5.4783333333333335" fill="none" stroke="#111111ff" stroke-width="0.08" />
<text x="2.7125" y="5.89375" font-size="0.375" fill="black" text-anchor="end" font-family="Anuphan">3x6</text>
<text x="-0.037500000000000006" y="5.89375" font-size="0.375" fill="black" text-anchor="start" font-family="Anuphan" font-weight="600">Test 1</text>
</g>
<g id="d6">
<rect x="0.005" y="0.005" width="0.9388888888888691" height="0.9388888888888691" fill="#FF4136" />
<rect x="0.9488888888888691" y="0.005" width="0.9388888888888691" height="0.9388888888888691" fill="#252525" />
<rect x="1.8927777777777381" y="0.005" width="0.9388888888888691" height="0.9388888888888691" fill="#252525" />
<rect x="0.005" y="0.9488888888888691" width="0.9388888888888691" height="0.9388888888888691" fill="#FF4136" />
<rect x="0.9488888888888691" y="0.9488888888888691" width="0.9388888888888691" height="0.9388888888888691" fill="#252525" />
<rect x="1.8927777777777381" y="0.9488888888888691" width="0.9388888888888691" height="0.9388888888888691" fill="#252525" />
<rect x="0.005" y="1.8927777777777381" width="0.9388888888888691" height="0.9388888888888691" fill="#252525" />
<rect x="0.9488888888888691" y="1.8927777777777381" width="0.9388888888888691" height="0.9388888888888691" fill="#252525" />
<rect x="1.8927777777777381" y="1.8927777777777381" width="0.9388888888888691" height="0.9388888888888691" fill="#252525" />
<rect x="-0.02666666666666667" y="-0.02666666666666667" width="2.8849999999999407" height="2.8849999999999407" fill="none" stroke="#111111ff" stroke-width="0.08" />
<text x="2.8316666666666075" y="3.3004166666666075" font-size="0.375" fill="black" text-anchor="end" font-family="Anuphan">3x3</text>
<text x="-0.037500000000000006" y="3.3004166666666075" font-size="0.375" fill="black" text-anchor="start" font-family="Anuphan" font-weight="600">Output 1</text>
</g>
<g id="d7">
<rect x="0.005" y="0.005" width="0.9388888888888691" height="0.9388888888888691" fill="#252525" />
<rect x="0.9488888888888691" y="0.005" width="0.9388888888888691" height="0.9388888888888691" fill="#FF4136" />
<rect x="1.8927777777777381" y="0.005" width="0.9388888888888691" height="0.9388888888888691" fill="#252525" />
<rect x="0.005" y="0.9488888888888691" width="0.9388888888888691" height="0.9388888888888691" fill="#252525" />
<rect x="0.9488888888888691" y="0.9488888888888691" width="0.9388888888888691" height="0.9388888888888691" fill="#252525" />
<rect x="1.8927777777777381" y="0.9488888888888691" width="0.9388888888888691" height="0.9388888888888691" fill="#252525" />
<rect x="0.005" y="1.8927777777777381" width="0.9388888888888691" height="0.9388888888888691" fill="#252525" />
<rect x="0.9488888888888691" y="1.8927777777777381" width="0.9388888888888691" height="0.9388888888888691" fill="#FF4136" />
<rect x="1.8927777777777381" y="1.8927777777777381" width="0.9388888888888691" height="0.9388888888888691" fill="#252525" />
<rect x="-0.02666666666666667" y="-0.02666666666666667" width="2.8849999999999407" height="2.8849999999999407" fill="none" stroke="#111111ff" stroke-width="0.08" />
<text x="2.8316666666666075" y="3.3004166666666075" font-size="0.375" fill="black" text-anchor="end" font-family="Anuphan">3x3</text>
<text x="-0.037500000000000006" y="3.3004166666666075" font-size="0.375" fill="black" text-anchor="start" font-family="Anuphan" font-weight="600">Output 2</text>
</g>
<g id="d8">
<rect x="0.005" y="0.005" width="0.9388888888888691" height="0.9388888888888691" fill="#FF4136" />
<rect x="0.9488888888888691" y="0.005" width="0.9388888888888691" height="0.9388888888888691" fill="#252525" />
<rect x="1.8927777777777381" y="0.005" width="0.9388888888888691" height="0.9388888888888691" fill="#FF4136" />
<rect x="0.005" y="0.9488888888888691" width="0.9388888888888691" height="0.9388888888888691" fill="#252525" />
<rect x="0.9488888888888691" y="0.9488888888888691" width="0.9388888888888691" height="0.9388888888888691" fill="#FF4136" />
<rect x="1.8927777777777381" y="0.9488888888888691" width="0.9388888888888691" height="0.9388888888888691" fill="#252525" />
<rect x="0.005" y="1.8927777777777381" width="0.9388888888888691" height="0.9388888888888691" fill="#252525" />
<rect x="0.9488888888888691" y="1.8927777777777381" width="0.9388888888888691" height="0.9388888888888691" fill="#FF4136" />
<rect x="1.8927777777777381" y="1.8927777777777381" width="0.9388888888888691" height="0.9388888888888691" fill="#FF4136" />
<rect x="-0.02666666666666667" y="-0.02666666666666667" width="2.8849999999999407" height="2.8849999999999407" fill="none" stroke="#111111ff" stroke-width="0.08" />
<text x="2.8316666666666075" y="3.3004166666666075" font-size="0.375" fill="black" text-anchor="end" font-family="Anuphan">3x3</text>
<text x="-0.037500000000000006" y="3.3004166666666075" font-size="0.375" fill="black" text-anchor="start" font-family="Anuphan" font-weight="600">Output 3</text>
</g>
<g id="d9">
<rect x="0.005" y="0.005" width="0.9388888888888691" height="0.9388888888888691" fill="#252525" />
<rect x="0.9488888888888691" y="0.005" width="0.9388888888888691" height="0.9388888888888691" fill="#FF4136" />
<rect x="1.8927777777777381" y="0.005" width="0.9388888888888691" height="0.9388888888888691" fill="#252525" />
<rect x="0.005" y="0.9488888888888691" width="0.9388888888888691" height="0.9388888888888691" fill="#252525" />
<rect x="0.9488888888888691" y="0.9488888888888691" width="0.9388888888888691" height="0.9388888888888691" fill="#252525" />
<rect x="1.8927777777777381" y="0.9488888888888691" width="0.9388888888888691" height="0.9388888888888691" fill="#252525" />
<rect x="0.005" y="1.8927777777777381" width="0.9388888888888691" height="0.9388888888888691" fill="#FF4136" />
<rect x="0.9488888888888691" y="1.8927777777777381" width="0.9388888888888691" height="0.9388888888888691" fill="#252525" />
<rect x="1.8927777777777381" y="1.8927777777777381" width="0.9388888888888691" height="0.9388888888888691" fill="#252525" />
<rect x="-0.02666666666666667" y="-0.02666666666666667" width="2.8849999999999407" height="2.8849999999999407" fill="none" stroke="#111111ff" stroke-width="0.08" />
<text x="2.8316666666666075" y="3.3004166666666075" font-size="0.375" fill="black" text-anchor="end" font-family="Anuphan">3x3</text>
<text x="-0.037500000000000006" y="3.3004166666666075" font-size="0.375" fill="black" text-anchor="start" font-family="Anuphan" font-weight="600">Output 4</text>
</g>
<g id="d10">
<rect x="0.005" y="0.005" width="0.9388888888888691" height="0.9388888888888691" fill="#FF4136" />
<rect x="0.9488888888888691" y="0.005" width="0.9388888888888691" height="0.9388888888888691" fill="#252525" />
<rect x="1.8927777777777381" y="0.005" width="0.9388888888888691" height="0.9388888888888691" fill="#FF4136" />
<rect x="0.005" y="0.9488888888888691" width="0.9388888888888691" height="0.9388888888888691" fill="#252525" />
<rect x="0.9488888888888691" y="0.9488888888888691" width="0.9388888888888691" height="0.9388888888888691" fill="#252525" />
<rect x="1.8927777777777381" y="0.9488888888888691" width="0.9388888888888691" height="0.9388888888888691" fill="#252525" />
<rect x="0.005" y="1.8927777777777381" width="0.9388888888888691" height="0.9388888888888691" fill="#252525" />
<rect x="0.9488888888888691" y="1.8927777777777381" width="0.9388888888888691" height="0.9388888888888691" fill="#252525" />
<rect x="1.8927777777777381" y="1.8927777777777381" width="0.9388888888888691" height="0.9388888888888691" fill="#252525" />
<rect x="-0.02666666666666667" y="-0.02666666666666667" width="2.8849999999999407" height="2.8849999999999407" fill="none" stroke="#111111ff" stroke-width="0.08" />
<text x="2.8316666666666075" y="3.3004166666666075" font-size="0.375" fill="black" text-anchor="end" font-family="Anuphan">3x3</text>
<text x="-0.037500000000000006" y="3.3004166666666075" font-size="0.375" fill="black" text-anchor="start" font-family="Anuphan" font-weight="600">Output 5</text>
</g>
</defs>
<rect x="0" y="0" width="100%" height="100%" fill="#eeeff6" />
<use xlink:href="#d0" x="0.3095833333333038" y="0.25" />
<use xlink:href="#d1" x="3.6412499999999115" y="0.25" />
<use xlink:href="#d2" x="6.972916666666519" y="0.25" />
<use xlink:href="#d3" x="10.304583333333127" y="0.25" />
<use xlink:href="#d4" x="13.636249999999734" y="0.25" />
<use xlink:href="#d5" x="16.96791666666634" y="0.25" />
<path d="M1.60625,6.325 L1.60625,6.7250000000000005" stroke-width="0.05" stroke="#888888" />
<path d="M1.45625,6.525 L1.60625,6.7250000000000005" stroke-width="0.05" stroke="#888888" />
<path d="M1.7562499999999999,6.525 L1.60625,6.7250000000000005" stroke-width="0.05" stroke="#888888" />
<use xlink:href="#d6" x="0.25" y="7.075" />
<path d="M4.937916666666608,6.325 L4.937916666666608,6.7250000000000005" stroke-width="0.05" stroke="#888888" />
<path d="M4.787916666666607,6.525 L4.937916666666608,6.7250000000000005" stroke-width="0.05" stroke="#888888" />
<path d="M5.087916666666608,6.525 L4.937916666666608,6.7250000000000005" stroke-width="0.05" stroke="#888888" />
<use xlink:href="#d7" x="3.5816666666666075" y="7.075" />
<path d="M8.269583333333214,6.325 L8.269583333333214,6.7250000000000005" stroke-width="0.05" stroke="#888888" />
<path d="M8.119583333333214,6.525 L8.269583333333214,6.7250000000000005" stroke-width="0.05" stroke="#888888" />
<path d="M8.419583333333215,6.525 L8.269583333333214,6.7250000000000005" stroke-width="0.05" stroke="#888888" />
<use xlink:href="#d8" x="6.913333333333215" y="7.075" />
<path d="M11.601249999999823,6.325 L11.601249999999823,6.7250000000000005" stroke-width="0.05" stroke="#888888" />
<path d="M11.451249999999822,6.525 L11.601249999999823,6.7250000000000005" stroke-width="0.05" stroke="#888888" />
<path d="M11.751249999999823,6.525 L11.601249999999823,6.7250000000000005" stroke-width="0.05" stroke="#888888" />
<use xlink:href="#d9" x="10.244999999999823" y="7.075" />
<path d="M14.93291666666643,6.325 L14.93291666666643,6.7250000000000005" stroke-width="0.05" stroke="#888888" />
<path d="M14.782916666666429,6.525 L14.93291666666643,6.7250000000000005" stroke-width="0.05" stroke="#888888" />
<path d="M15.08291666666643,6.525 L14.93291666666643,6.7250000000000005" stroke-width="0.05" stroke="#888888" />
<use xlink:href="#d10" x="13.57666666666643" y="7.075" />
<path d="M18.264583333333036,6.325 L18.264583333333036,6.7250000000000005" stroke-width="0.05" stroke="#888888" />
<path d="M18.114583333333037,6.525 L18.264583333333036,6.7250000000000005" stroke-width="0.05" stroke="#888888" />
<path d="M18.414583333333034,6.525 L18.264583333333036,6.7250000000000005" stroke-width="0.05" stroke="#888888" />
<text x="18.32416666666634" y="8.590833333333304" font-size="1" font-family="Anuphan" font-weight="700" fill="#333333" text-anchor="middle" alignment-baseline="middle">?</text>
<text x="19.9" y="10.799999999999999" font-size="0.3" font-family="Anuphan" font-weight="600" fill="#666666" text-anchor="end" alignment-baseline="bottom">Task fafffa47</text>
</svg>