<?xml version="1.0" encoding="UTF-8"?>
<svg xmlns="http://www.w3.org/2000/svg" xmlns:xlink="http://www.w3.org/1999/xlink"
     width="800.0" height="536.0" viewBox="0 0 20.0 13.399999999999999">
<defs>
<g id="d0">
<rect x="0.005" y="0.005" width="0.6401041666666558" height="0.6401041666666558" fill="#0074D9" />
<rect x="0.6501041666666558" y="0.005" width="0.6401041666666558" height="0.6401041666666558" fill="#0074D9" />
<rect x="1.2952083333333115" y="0.005" width="0.6401041666666558" height="0.6401041666666558" fill="#37D449" />
<rect x="1.9403124999999672" y="0.005" width="0.6401041666666558" height="0.6401041666666558" fill="#FF4136" />
<rect x="2.585416666666623" y="0.005" width="0.6401041666666558" height="0.6401041666666558" fill="#0074D9" />
<rect x="3.230520833333279" y="0.005" width="0.6401041666666558" height="0.6401041666666558" fill="#0074D9" />
<rect x="3.8756249999999346" y="0.005" width="0.6401041666666558" height="0.6401041666666558" fill="#37D449" />
<rect x="4.520729166666591" y="0.005" width="0.6401041666666558" height="0.6401041666666558" fill="#FF4136" />
<rect x="0.005" y="0.6501041666666558" width="0.6401041666666558" height="0.6401041666666558" fill="#0074D9" />
<rect x="0.6501041666666558" y="0.6501041666666558" width="0.6401041666666558" height="0.6401041666666558" fill="#0074D9" />
<rect x="1.2952083333333115" y="0.6501041666666558" width="0.6401041666666558" height="0.6401041666666558" fill="#37D449" />
<rect x="1.9403124999999672" y="0.6501041666666558" width="0.6401041666666558" height="0.6401041666666558" fill="#37D449" />
<rect x="2.585416666666623" y="0.6501041666666558" width="0.6401041666666558" height="0.6401041666666558" fill="#0074D9" />
<rect x="3.230520833333279" y="0.6501041666666558" width="0.6401041666666558" height="0.6401041666666558" fill="#0074D9" />
<rect x="3.8756249999999346" y="0.6501041666666558" width="0.6401041666666558" height="0.6401041666666558" fill="#37D449" />
<rect x="4.520729166666591" y="0.6501041666666558" width="0.6401041666666558" height="0.6401041666666558" fill="#37D449" />
<rect x="0.005" y="1.2952083333333115" width="0.6401041666666558" height="0.6401041666666558" fill="#37D449" />
<rect x="0.6501041666666558" y="1.2952083333333115" width="0.6401041666666558" height="0.6401041666666558" fill="#37D449" />
<rect x="1.2952083333333115" y="1.2952083333333115" width="0.6401041666666558" height="0.6401041666666558" fill="#0074D9" />
<rect x="1.9403124999999672" y="1.2952083333333115" width="0.6401041666666558" height="0.6401041666666558" fill="#0074D9" />
<rect x="2.585416666666623" y="1.2952083333333115" width="0.6401041666666558" height="0.6401041666666558" fill="#37D449" />
<rect x="3.230520833333279" y="1.2952083333333115" width="0.6401041666666558" height="0.6401041666666558" fill="#37D449" />
<rect x="3.8756249999999346" y="1.2952083333333115" width="0.6401041666666558" height="0.6401041666666558" fill="#0074D9" />
<rect x="4.520729166666591" y="1.2952083333333115" width="0.6401041666666558" height="0.6401041666666558" fill="#0074D9" />
<rect x="0.005" y="1.9403124999999672" width="0.6401041666666558" height="0.6401041666666558" fill="#FF4136" />
<rect x="0.6501041666666558" y="1.9403124999999672" width="0.6401041666666558" height="0.6401041666666558" fill="#37D449" />
<rect x="1.2952083333333115" y="1.9403124999999672" width="0.6401041666666558" height="0.6401041666666558" fill="#0074D9" />
<rect x="1.9403124999999672" y="1.9403124999999672" width="0.6401041666666558" height="0.6401041666666558" fill="#0074D9" />
<rect x="2.585416666666623" y="1.9403124999999672" width="0.6401041666666558" height="0.6401041666666558" fill="#FF4136" />
<rect x="3.230520833333279" y="1.9403124999999672" width="0.6401041666666558" height="0.6401041666666558" fill="#37D449" />
<rect x="3.8756249999999346" y="1.9403124999999672" width="0.6401041666666558" height="0.6401041666666558" fill="#0074D9" />
<rect x="4.520729166666591" y="1.9403124999999672" width="0.6401041666666558" height="0.6401041666666558" fill="#0074D9" />
<rect x="-0.02666666666666667" y="-0.02666666666666667" width="5.21416666666658" height="2.6337499999999565" fill="none" stroke="#111111ff" stroke-width="0.08" />
<text x="5.160833333333247" y="3.0491666666666233" font-size="0.375" fill="black" text-anchor="end" font-family="Anuphan">8x4</text>
<text x="-0.037500000000000006" y="3.0491666666666233" font-size="0.375" fill="black" text-anchor="start" font-family="Anuphan" font-weight="600">Input 1</text>
</g>
<g id="d1">
<rect x="0.005" y="0.005" width="0.8551388888888745" height="0.8551388888888745" fill="#FFDC00" />
<rect x="0.8651388888888745" y="0.005" width="0.8551388888888745" height="0.8551388888888745" fill="#FFDC00" />
<rect x="1.7252777777777488" y="0.005" width="0.8551388888888745" height="0.8551388888888745" fill="#FFDC00" />
<rect x="2.585416666666623" y="0.005" width="0.8551388888888745" height="0.8551388888888745" fill="#FFDC00" />
<rect x="3.4455555555554978" y="0.005" width="0.8551388888888745" height="0.8551388888888745" fill="#FFDC00" />
<rect x="4.305694444444372" y="0.005" width="0.8551388888888745" height="0.8551388888888745" fill="#FFDC00" />
<rect x="0.005" y="0.8651388888888745" width="0.8551388888888745" height="0.8551388888888745" fill="#F012BE" />
<rect x="0.8651388888888745" y="0.8651388888888745" width="0.8551388888888745" height="0.8551388888888745" fill="#FFDC00" />
<rect x="1.7252777777777488" y="0.8651388888888745" width="0.8551388888888745" height="0.8551388888888745" fill="#54D2EB" />
<rect x="2.585416666666623" y="0.8651388888888745" width="0.8551388888888745" height="0.8551388888888745" fill="#F012BE" />
<rect x="3.4455555555554978" y="0.8651388888888745" width="0.8551388888888745" height="0.8551388888888745" fill="#FFDC00" />
<rect x="4.305694444444372" y="0.8651388888888745" width="0.8551388888888745" height="0.8551388888888745" fill="#54D2EB" />
<rect x="0.005" y="1.7252777777777488" width="0.8551388888888745" height="0.8551388888888745" fill="#F012BE" />
<rect x="0.8651388888888745" y="1.7252777777777488" width="0.8551388888888745" height="0.8551388888888745" fill="#F012BE" />
<rect x="1.7252777777777488" y="1.7252777777777488" width="0.8551388888888745" height="0.8551388888888745" fill="#54D2EB" />
<rect x="2.585416666666623" y="1.7252777777777488" width="0.8551388888888745" height="0.8551388888888745" fill="#F012BE" />
<rect x="3.4455555555554978" y="1.7252777777777488" width="0.8551388888888745" height="0.8551388888888745" fill="#F012BE" />
<rect x="4.305694444444372" y="1.7252777777777488" width="0.8551388888888745" height="0.8551388888888745" fill="#54D2EB" />
<rect x="-0.02666666666666667" y="-0.02666666666666667" width="5.21416666666658" height="2.6337499999999565" fill="none" stroke="#111111ff" stroke-width="0.08" />
<text x="5.160833333333247" y="3.0491666666666233" font-size="0.375" fill="black" text-anchor="end" font-family="Anuphan">6x3</text>
<text x="-0.037500000000000006" y="3.0491666666666233" font-size="0.375" fill="black" text-anchor="start" font-family="Anuphan" font-weight="600">Input 2</text>
</g>
<g id="d2">
<rect x="0.005" y="0.005" width="0.8991666666666667" height="0.8991666666666667" fill="#FF4136" />
<rect x="0.9091666666666667" y="0.005" width="0.8991666666666667" height="0.8991666666666667" fill="#37D449" />
<rect x="0.005" y="0.9091666666666667" width="0.8991666666666667" height="0.8991666666666667" fill="#37D449" />
<rect x="0.9091666666666667" y="0.9091666666666667" width="0.8991666666666667" height="0.8991666666666667" fill="#FF4136" />
<rect x="0.005" y="1.8133333333333332" width="0.8991666666666667" height="0.8991666666666667" fill="#FFDC00" />
<rect x="0.9091666666666667" y="1.8133333333333332" width="0.8991666666666667" height="0.8991666666666667" fill="#FFDC00" />
<rect x="0.005" y="2.7175" width="0.8991666666666667" height="0.8991666666666667" fill="#FF4136" />
<rect x="0.9091666666666667" y="2.7175" width="0.8991666666666667" height="0.8991666666666667" fill="#37D449" />
<rect x="0.005" y="3.6216666666666666" width="0.8991666666666667" height="0.8991666666666667" fill="#37D449" />
<rect x="0.9091666666666667" y="3.6216666666666666" width="0.8991666666666667" height="0.8991666666666667" fill="#FF4136" />
<rect x="0.005" y="4.525833333333333" width="0.8991666666666667" height="0.8991666666666667" fill="#FFDC00" />
<rect x="0.9091666666666667" y="4.525833333333333" width="0.8991666666666667" height="0.8991666666666667" fill="#FFDC00" />
<rect x="-0.02666666666666667" y="-0.02666666666666667" width="1.8616666666666666" height="5.4783333333333335" fill="none" stroke="#111111ff" stroke-width="0.08" />
<text x="1.8083333333333333" y="5.89375" font-size="0.375" fill="black" text-anchor="end" font-family="Anuphan">2x6</text>
<text x="-0.037500000000000006" y="5.89375" font-size="0.375" fill="black" text-anchor="start" font-family="Anuphan" font-weight="600">Input 3</text>
</g>
<g id="d3">
<rect x="0.005" y="0.005" width="0.673125" height="0.673125" fill="#E6E6E6" />
<rect x="0.683125" y="0.005" width="0.673125" height="0.673125" fill="#FFDC00" />
<rect x="1.3612499999999998" y="0.005" width="0.673125" height="0.673125" fill="#E6E6E6" />
<rect x="0.005" y="0.683125" width="0.673125" height="0.673125" fill="#FFDC00" />
<rect x="0.683125" y="0.683125" width="0.673125" height="0.673125" fill="#E6E6E6" />
<rect x="1.3612499999999998" y="0.683125" width="0.673125" height="0.673125" fill="#FFDC00" />
<rect x="0.005" y="1.3612499999999998" width="0.673125" height="0.673125" fill="#F012BE" />
<rect x="0.683125" y="1.3612499999999998" width="0.673125" height="0.673125" fill="#F012BE" />
<rect x="1.3612499999999998" y="1.3612499999999998" width="0.673125" height="0.673125" fill="#FFDC00" />
<rect x="0.005" y="2.0393749999999997" width="0.673125" height="0.673125" fill="#FF4136" />
<rect x="0.683125" y="2.0393749999999997" width="0.673125" height="0.673125" fill="#F012BE" />
<rect x="1.3612499999999998" y="2.0393749999999997" width="0.673125" height="0.673125" fill="#FF4136" />
<rect x="0.005" y="2.7175" width="0.673125" height="0.673125" fill="#E6E6E6" />
<rect x="0.683125" y="2.7175" width="0.673125" height="0.673125" fill="#FFDC00" />
<rect x="1.3612499999999998" y="2.7175" width="0.673125" height="0.673125" fill="#E6E6E6" />
<rect x="0.005" y="3.395625" width="0.673125" height="0.673125" fill="#FFDC00" />
<rect x="0.683125" y="3.395625" width="0.673125" height="0.673125" fill="#E6E6E6" />
<rect x="1.3612499999999998" y="3.395625" width="0.673125" height="0.673125" fill="#FFDC00" />
<rect x="0.005" y="4.0737499999999995" width="0.673125" height="0.673125" fill="#F012BE" />
<rect x="0.683125" y="4.0737499999999995" width="0.673125" height="0.673125" fill="#F012BE" />
<rect x="1.3612499999999998" y="4.0737499999999995" width="0.673125" height="0.673125" fill="#FFDC00" />
<rect x="0.005" y="4.751875" width="0.673125" height="0.673125" fill="#FF4136" />
<rect x="0.683125" y="4.751875" width="0.673125" height="0.673125" fill="#F012BE" />
<rect x="1.3612499999999998" y="4.751875" width="0.673125" height="0.673125" fill="#FF4136" />
<rect x="-0.02666666666666667" y="-0.02666666666666667" width="2.087708333333333" height="5.4783333333333335" fill="none" stroke="#111111ff" stroke-width="0.08" />
<text x="2.034375" y="5.89375" font-size="0.375" fill="black" text-anchor="end" font-family="Anuphan">3x8</text>
<text x="-0.037500000000000006" y="5.89375" font-size="0.375" fill="black" text-anchor="start" font-family="Anuphan" font-weight="600">Test 1</text>
</g>
<g id="d4">
<rect x="0.005" y="0.005" width="1.2852083333333117" height="1.2852083333333117" fill="#0074D9" />
<rect x="1.2952083333333115" y="0.005" width="1.2852083333333117" height="1.2852083333333117" fill="#0074D9" />
<rect x="2.585416666666623" y="0.005" width="1.2852083333333117" height="1.2852083333333117" fill="#37D449" />
<rect x="3.8756249999999346" y="0.005" width="1.2852083333333117" height="1.2852083333333117" fill="#FF4136" />
<rect x="0.005" y="1.2952083333333115" width="1.2852083333333117" height="1.2852083333333117" fill="#0074D9" />
<rect x="1.2952083333333115" y="1.2952083333333115" width="1.2852083333333117" height="1.2852083333333117" fill="#0074D9" />
<rect x="2.585416666666623" y="1.2952083333333115" width="1.2852083333333117" height="1.2852083333333117" fill="#37D449" />
<rect x="3.8756249999999346" y="1.2952083333333115" width="1.2852083333333117" height="1.2852083333333117" fill="#37D449" />
<rect x="0.005" y="2.585416666666623" width="1.2852083333333117" height="1.2852083333333117" fill="#37D449" />
<rect x="1.2952083333333115" y="2.585416666666623" width="1.2852083333333117" height="1.2852083333333117" fill="#37D449" />
<rect x="2.585416666666623" y="2.585416666666623" width="1.2852083333333117" height="1.2852083333333117" fill="#0074D9" />
<rect x="3.8756249999999346" y="2.585416666666623" width="1.2852083333333117" height="1.2852083333333117" fill="#0074D9" />
<rect x="0.005" y="3.8756249999999346" width="1.2852083333333117" height="1.2852083333333117" fill="#FF4136" />
<rect x="1.2952083333333115" y="3.8756249999999346" width="1.2852083333333117" height="1.2852083333333117" fill="#37D449" />
<rect x="2.585416666666623" y="3.8756249999999346" width="1.2852083333333117" height="1.2852083333333117" fill="#0074D9" />
<rect x="3.8756249999999346" y="3.8756249999999346" width="1.2852083333333117" height="1.2852083333333117" fill="#0074D9" />
<rect x="-0.02666666666666667" y="-0.02666666666666667" width="5.21416666666658" height="5.21416666666658" fill="none" stroke="#111111ff" stroke-width="0.08" />
<text x="5.160833333333247" y="5.629583333333247" font-size="0.375" fill="black" text-anchor="end" font-family="Anuphan">4x4</text>
<text x="-0.037500000000000006" y="5.629583333333247" font-size="0.375" fill="black" text-anchor="start" font-family="Anuphan" font-weight="600">Output 1</text>
</g>
<g id="d5">
<rect x="0.005" y="0.005" width="1.715277777777749" height="1.715277777777749" fill="#FFDC00" />
<rect x="1.7252777777777488" y="0.005" width="1.715277777777749" height="1.715277777777749" fill="#FFDC00" />
<rect x="3.4455555555554978" y="0.005" width="1.715277777777749" height="1.715277777777749" fill="#FFDC00" />
<rect x="0.005" y="1.7252777777777488" width="1.715277777777749" height="1.715277777777749" fill="#F012BE" />
<rect x="1.7252777777777488" y="1.7252777777777488" width="1.715277777777749" height="1.715277777777749" fill="#FFDC00" />
<rect x="3.4455555555554978" y="1.7252777777777488" width="1.715277777777749" height="1.715277777777749" fill="#54D2EB" />
<rect x="0.005" y="3.4455555555554978" width="1.715277777777749" height="1.715277777777749" fill="#F012BE" />
<rect x="1.7252777777777488" y="3.4455555555554978" width="1.715277777777749" height="1.715277777777749" fill="#F012BE" />
<rect x="3.4455555555554978" y="3.4455555555554978" width="1.715277777777749" height="1.715277777777749" fill="#54D2EB" />
<rect x="-0.02666666666666667" y="-0.02666666666666667" width="5.21416666666658" height="5.21416666666658" fill="none" stroke="#111111ff" stroke-width="0.08" />
<text x="5.160833333333247" y="5.629583333333247" font-size="0.375" fill="black" text-anchor="end" font-family="Anuphan">3x3</text>
<text x="-0.037500000000000006" y="5.629583333333247" font-size="0.375" fill="black" text-anchor="start" font-family="Anuphan" font-weight="600">Output 2</text>
</g>
<g id="d6">
<rect x="0.005" y="0.005" width="1.7987499999999672" height="1.7987499999999672" fill="#FF4136" />
<rect x="1.808749999999967" y="0.005" width="1.7987499999999672" height="1.7987499999999672" fill="#37D449" />
<rect x="0.005" y="1.808749999999967" width="1.7987499999999672" height="1.7987499999999672" fill="#37D449" />
<rect x="1.808749999999967" y="1.808749999999967" width="1.7987499999999672" height="1.7987499999999672" fill="#FF4136" />
<rect x="0.005" y="3.612499999999934" width="1.7987499999999672" height="1.7987499999999672" fill="#FFDC00" />
<rect x="1.808749999999967" y="3.612499999999934" width="1.7987499999999672" height="1.7987499999999672" fill="#FFDC00" />
<rect x="-0.02666666666666667" y="-0.02666666666666667" width="3.6608333333332674" height="5.464583333333235" fill="none" stroke="#111111ff" stroke-width="0.08" />
<text x="3.607499999999934" y="5.879999999999901" font-size="0.375" fill="black" text-anchor="end" font-family="Anuphan">2x3</text>
<text x="-0.037500000000000006" y="5.879999999999901" font-size="0.375" fill="black" text-anchor="start" font-family="Anuphan" font-weight="600">Output 3</text>
</g>
</defs>
<rect x="0" y="0" width="100%" height="100%" fill="#eeeff6" />
<use xlink:href="#d0" x="0.25" y="0.25" />
<use xlink:href="#d1" x="5.910833333333247" y="0.25" />
<use xlink:href="#d2" x="12.471249999999793" y="0.25" />
<use xlink:href="#d3" x="16.692395833333062" y="0.25" />
<path d="M2.8304166666666233,6.325 L2.8304166666666233,6.7250000000000005" stroke-width="0.05" stroke="#888888" />
<path d="M2.6804166666666234,6.525 L2.8304166666666233,6.7250000000000005" stroke-width="0.05" stroke="#888888" />
<path d="M2.980416666666623,6.525 L2.8304166666666233,6.7250000000000005" stroke-width="0.05" stroke="#888888" />
<use xlink:href="#d4" x="0.25" y="7.075" />
<path d="M8.49124999999987,6.325 L8.49124999999987,6.7250000000000005" stroke-width="0.05" stroke="#888888" />
<path d="M8.341249999999869,6.525 L8.49124999999987,6.7250000000000005" stroke-width="0.05" stroke="#888888" />
<path d="M8.64124999999987,6.525 L8.49124999999987,6.7250000000000005" stroke-width="0.05" stroke="#888888" />
<use xlink:href="#d5" x="5.910833333333247" y="7.075" />
<path d="M12.47583333333316,6.325 L12.47583333333316,6.7250000000000005" stroke-width="0.05" stroke="#888888" />
<path d="M12.32583333333316,6.525 L12.47583333333316,6.7250000000000005" stroke-width="0.05" stroke="#888888" />
<path d="M12.62583333333316,6.525 L12.47583333333316,6.7250000000000005" stroke-width="0.05" stroke="#888888" />
<use xlink:href="#d6" x="11.571666666666493" y="7.075" />
<path d="M16.696354166666428,6.325 L16.696354166666428,6.7250000000000005" stroke-width="0.05" stroke="#888888" />
<path d="M16.54635416666643,6.525 L16.696354166666428,6.7250000000000005" stroke-width="0.05" stroke="#888888" />
<path d="M16.846354166666426,6.525 L16.696354166666428,6.7250000000000005" stroke-width="0.05" stroke="#888888" />
<text x="17.70958333333306" y="9.882222222222179" font-size="1" font-family="Anuphan" font-weight="700" fill="#333333" text-anchor="middle" alignment-baseline="middle">?</text>
<text x="19.9" y="13.299999999999999" font-size="0.3" font-family="Anuphan" font-weight="600" fill="#666666" text-anchor="end" alignment-baseline="bottom">Task 7b7f7511</text>
</svg>