<?xml version="1.0" encoding="UTF-8"?>
<svg xmlns="http://www.w3.org/2000/svg" xmlns:xlink="http://www.w3.org/1999/xlink"
     width="800.0" height="268.0" viewBox="0 0 20.0 6.7">
<defs>
<g id="d0">
<rect x="0.005" y="0.005" width="1.0222222222221935" height="1.0222222222221935" fill="#37D449" />
<rect x="1.0322222222221933" y="0.005" width="1.0222222222221935" height="1.0222222222221935" fill="#37D449" />
<rect x="2.0594444444443867" y="0.005" width="1.0222222222221935" height="1.0222222222221935" fill="#37D449" />
<rect x="3.08666666666658" y="0.005" width="1.0222222222221935" height="1.0222222222221935" fill="#37D449" />
<rect x="4.1138888888887735" y="0.005" width="1.0222222222221935" height="1.0222222222221935" fill="#37D449" />
<rect x="5.141111111110967" y="0.005" width="1.0222222222221935" height="1.0222222222221935" fill="#37D449" />
<rect x="0.005" y="1.0322222222221933" width="1.0222222222221935" height="1.0222222222221935" fill="#8D1D2C" />
<rect x="1.0322222222221933" y="1.0322222222221933" width="1.0222222222221935" height="1.0222222222221935" fill="#8D1D2C" />
<rect x="2.0594444444443867" y="1.0322222222221933" width="1.0222222222221935" height="1.0222222222221935" fill="#8D1D2C" />
<rect x="3.08666666666658" y="1.0322222222221933" width="1.0222222222221935" height="1.0222222222221935" fill="#8D1D2C" />
<rect x="4.1138888888887735" y="1.0322222222221933" width="1.0222222222221935" height="1.0222222222221935" fill="#8D1D2C" />
<rect x="5.141111111110967" y="1.0322222222221933" width="1.0222222222221935" height="1.0222222222221935" fill="#8D1D2C" />
<rect x="-0.02666666666666667" y="-0.02666666666666667" width="6.216666666666494" height="2.10777777777772" fill="none" stroke="#111111ff" stroke-width="0.08" />
<text x="6.16333333333316" y="2.523194444444387" font-size="0.375" fill="black" text-anchor="end" font-family="Anuphan">6x2</text>
<text x="-0.037500000000000006" y="2.523194444444387" font-size="0.375" fill="black" text-anchor="start" font-family="Anuphan" font-weight="600">Input 1</text>
</g>
<g id="d1">
<rect x="0.005" y="0.005" width="1.0222222222221935" height="1.0222222222221935" fill="#FFDC00" />
<rect x="1.0322222222221933" y="0.005" width="1.0222222222221935" height="1.0222222222221935" fill="#FFDC00" />
<rect x="2.0594444444443867" y="0.005" width="1.0222222222221935" height="1.0222222222221935" fill="#FFDC00" />
<rect x="3.08666666666658" y="0.005" width="1.0222222222221935" height="1.0222222222221935" fill="#FFDC00" />
<rect x="4.1138888888887735" y="0.005" width="1.0222222222221935" height="1.0222222222221935" fill="#FFDC00" />
<rect x="5.141111111110967" y="0.005" width="1.0222222222221935" height="1.0222222222221935" fill="#FFDC00" />
<rect x="0.005" y="1.0322222222221933" width="1.0222222222221935" height="1.0222222222221935" fill="#54D2EB" />
<rect x="1.0322222222221933" y="1.0322222222221933" width="1.0222222222221935" height="1.0222222222221935" fill="#54D2EB" />
<rect x="2.0594444444443867" y="1.0322222222221933" width="1.0222222222221935" height="1.0222222222221935" fill="#54D2EB" />
<rect x="3.08666666666658" y="1.0322222222221933" width="1.0222222222221935" height="1.0222222222221935" fill="#54D2EB" />
<rect x="4.1138888888887735" y="1.0322222222221933" width="1.0222222222221935" height="1.0222222222221935" fill="#54D2EB" />
<rect x="5.141111111110967" y="1.0322222222221933" width="1.0222222222221935" height="1.0222222222221935" fill="#54D2EB" />
<rect x="-0.02666666666666667" y="-0.02666666666666667" width="6.216666666666494" height="2.10777777777772" fill="none" stroke="#111111ff" stroke-width="0.08" />
<text x="6.16333333333316" y="2.523194444444387" font-size="0.375" fill="black" text-anchor="end" font-family="Anuphan">6x2</text>
<text x="-0.037500000000000006" y="2.523194444444387" font-size="0.375" fill="black" text-anchor="start" font-family="Anuphan" font-weight="600">Input 2</text>
</g>
<g id="d2">
<rect x="0.005" y="0.005" width="1.0222222222221935" height="1.0222222222221935" fill="#F012BE" />
<rect x="1.0322222222221933" y="0.005" width="1.0222222222221935" height="1.0222222222221935" fill="#F012BE" />
<rect x="2.0594444444443867" y="0.005" width="1.0222222222221935" height="1.0222222222221935" fill="#F012BE" />
<rect x="3.08666666666658" y="0.005" width="1.0222222222221935" height="1.0222222222221935" fill="#F012BE" />
<rect x="4.1138888888887735" y="0.005" width="1.0222222222221935" height="1.0222222222221935" fill="#F012BE" />
<rect x="5.141111111110967" y="0.005" width="1.0222222222221935" height="1.0222222222221935" fill="#F012BE" />
<rect x="0.005" y="1.0322222222221933" width="1.0222222222221935" height="1.0222222222221935" fill="#FF4136" />
<rect x="1.0322222222221933" y="1.0322222222221933" width="1.0222222222221935" height="1.0222222222221935" fill="#FF4136" />
<rect x="2.0594444444443867" y="1.0322222222221933" width="1.0222222222221935" height="1.0222222222221935" fill="#FF4136" />
<rect x="3.08666666666658" y="1.0322222222221933" width="1.0222222222221935" height="1.0222222222221935" fill="#FF4136" />
<rect x="4.1138888888887735" y="1.0322222222221933" width="1.0222222222221935" height="1.0222222222221935" fill="#FF4136" />
<rect x="5.141111111110967" y="1.0322222222221933" width="1.0222222222221935" height="1.0222222222221935" fill="#FF4136" />
<rect x="-0.02666666666666667" y="-0.02666666666666667" width="6.216666666666494" height="2.10777777777772" fill="none" stroke="#111111ff" stroke-width="0.08" />
<text x="6.16333333333316" y="2.523194444444387" font-size="0.375" fill="black" text-anchor="end" font-family="Anuphan">6x2</text>
<text x="-0.037500000000000006" y="2.523194444444387" font-size="0.375" fill="black" text-anchor="start" font-family="Anuphan" font-weight="600">Test 1</text>
</g>
<g id="d3">
<rect x="0.005" y="0.005" width="1.0222222222221935" height="1.0222222222221935" fill="#37D449" />
<rect x="1.0322222222221933" y="0.005" width="1.0222222222221935" height="1.0222222222221935" fill="#8D1D2C" />
<rect x="2.0594444444443867" y="0.005" width="1.0222222222221935" height="1.0222222222221935" fill="#37D449" />
<rect x="3.08666666666658" y="0.005" width="1.0222222222221935" height="1.0222222222221935" fill="#8D1D2C" />
<rect x="4.1138888888887735" y="0.005" width="1.0222222222221935" height="1.0222222222221935" fill="#37D449" />
<rect x="5.141111111110967" y="0.005" width="1.0222222222221935" height="1.0222222222221935" fill="#8D1D2C" />
<rect x="0.005" y="1.0322222222221933" width="1.0222222222221935" height="1.0222222222221935" fill="#8D1D2C" />
<rect x="1.0322222222221933" y="1.0322222222221933" width="1.0222222222221935" height="1.0222222222221935" fill="#37D449" />
<rect x="2.0594444444443867" y="1.0322222222221933" width="1.0222222222221935" height="1.0222222222221935" fill="#8D1D2C" />
<rect x="3.08666666666658" y="1.0322222222221933" width="1.0222222222221935" height="1.0222222222221935" fill="#37D449" />
<rect x="4.1138888888887735" y="1.0322222222221933" width="1.0222222222221935" height="1.0222222222221935" fill="#8D1D2C" />
<rect x="5.141111111110967" y="1.0322222222221933" width="1.0222222222221935" height="1.0222222222221935" fill="#37D449" />
<rect x="-0.02666666666666667" y="-0.02666666666666667" width="6.216666666666494" height="2.10777777777772" fill="none" stroke="#111111ff" stroke-width="0.08" />
<text x="6.16333333333316" y="2.523194444444387" font-size="0.375" fill="black" text-anchor="end" font-family="Anuphan">6x2</text>
<text x="-0.037500000000000006" y="2.523194444444387" font-size="0.375" fill="black" text-anchor="start" font-family="Anuphan" font-weight="600">Output 1</text>
</g>
<g id="d4">
<rect x="0.005" y="0.005" width="1.0222222222221935" height="1.0222222222221935" fill="#FFDC00" />
<rect x="1.0322222222221933" y="0.005" width="1.0222222222221935" height="1.0222222222221935" fill="#54D2EB" />
<rect x="2.0594444444443867" y="0.005" width="1.0222222222221935" height="1.0222222222221935" fill="#FFDC00" />
<rect x="3.08666666666658" y="0.005" width="1.0222222222221935" height="1.0222222222221935" fill="#54D2EB" />
<rect x="4.1138888888887735" y="0.005" width="1.0222222222221935" height="1.0222222222221935" fill="#FFDC00" />
<rect x="5.141111111110967" y="0.005" width="1.0222222222221935" height="1.0222222222221935" fill="#54D2EB" />
<rect x="0.005" y="1.0322222222221933" width="1.0222222222221935" height="1.0222222222221935" fill="#54D2EB" />
<rect x="1.0322222222221933" y="1.0322222222221933" width="1.0222222222221935" height="1.0222222222221935" fill="#FFDC00" />
<rect x="2.0594444444443867" y="1.0322222222221933" width="1.0222222222221935" height="1.0222222222221935" fill="#54D2EB" />
<rect x="3.08666666666658" y="1.0322222222221933" width="1.0222222222221935" height="1.0222222222221935" fill="#FFDC00" />
<rect x="4.1138888888887735" y="1.0322222222221933" width="1.0222222222221935" height="1.0222222222221935" fill="#54D2EB" />
<rect x="5.141111111110967" y="1.0322222222221933" width="1.0222222222221935" height="1.0222222222221935" fill="#FFDC00" />
<rect x="-0.02666666666666667" y="-0.02666666666666667" width="6.216666666666494" height="2.10777777777772" fill="none" stroke="#111111ff" stroke-width="0.08" />
<text x="6.16333333333316" y="2.523194444444387" font-size="0.375" fill="black" text-anchor="end" font-family="Anuphan">6x2</text>
<text x="-0.037500000000000006" y="2.523194444444387" font-size="0.375" fill="black" text-anchor="start" font-family="Anuphan" font-weight="600">Output 2</text>
</g>
</defs>
<rect x="0" y="0" width="100%" height="100%" fill="#eeeff6" />
<use xlink:href="#d0" x="0.25" y="0.25" />
<use xlink:href="#d1" x="6.91333333333316" y="0.25" />
<use xlink:href="#d2" x="13.57666666666632" y="0.25" />
<path d="M3.33166666666658,2.9544444444443867 L3.33166666666658,3.3544444444443866" stroke-width="0.05" stroke="#888888" />
<path d="M3.18166666666658,3.154444444444387 L3.33166666666658,3.3544444444443866" stroke-width="0.05" stroke="#888888" />
<path d="M3.48166666666658,3.154444444444387 L3.33166666666658,3.3544444444443866" stroke-width="0.05" stroke="#888888" />
<use xlink:href="#d3" x="0.25" y="3.7044444444443867" />
<path d="M9.99499999999974,2.9544444444443867 L9.99499999999974,3.3544444444443866" stroke-width="0.05" stroke="#888888" />
<path d="M9.84499999999974,3.154444444444387 L9.99499999999974,3.3544444444443866" stroke-width="0.05" stroke="#888888" />
<path d="M10.14499999999974,3.154444444444387 L9.99499999999974,3.3544444444443866" stroke-width="0.05" stroke="#888888" />
<use xlink:href="#d4" x="6.91333333333316" y="3.7044444444443867" />
<path d="M16.658333333332898,2.9544444444443867 L16.658333333332898,3.3544444444443866" stroke-width="0.05" stroke="#888888" />
<path d="M16.5083333333329,3.154444444444387 L16.658333333332898,3.3544444444443866" stroke-width="0.05" stroke="#888888" />
<path d="M16.808333333332897,3.154444444444387 L16.658333333332898,3.3544444444443866" stroke-width="0.05" stroke="#888888" />
<text x="16.658333333332898" y="4.83166666666658" font-size="1" font-family="Anuphan" font-weight="700" fill="#333333" text-anchor="middle" alignment-baseline="middle">?</text>
<text x="19.9" y="6.6" font-size="0.3" font-family="Anuphan" font-weight="600" fill="#666666" text-anchor="end" alignment-baseline="bottom">Task e9afcf9a</text>
</svg>