<?xml version="1.0" encoding="UTF-8"?>
<svg xmlns="http://www.w3.org/2000/svg" xmlns:xlink="http://www.w3.org/1999/xlink"
     width="800.0" height="536.0" viewBox="0 0 20.0 13.399999999999999">
<defs>
<g id="d0">
<rect x="0.005" y="0.005" width="0.4579687499999908" height="0.4579687499999908" fill="#252525" />
<rect x="0.46796874999999083" y="0.005" width="0.4579687499999908" height="0.4579687499999908" fill="#37D449" />
<rect x="0.9309374999999817" y="0.005" width="0.4579687499999908" height="0.4579687499999908" fill="#252525" />
<rect x="1.3939062499999724" y="0.005" width="0.4579687499999908" height="0.4579687499999908" fill="#252525" />
<rect x="1.8568749999999632" y="0.005" width="0.4579687499999908" height="0.4579687499999908" fill="#252525" />
<rect x="2.3198437499999542" y="0.005" width="0.4579687499999908" height="0.4579687499999908" fill="#252525" />
<rect x="2.782812499999945" y="0.005" width="0.4579687499999908" height="0.4579687499999908" fill="#252525" />
<rect x="3.2457812499999354" y="0.005" width="0.4579687499999908" height="0.4579687499999908" fill="#252525" />
<rect x="3.7087499999999265" y="0.005" width="0.4579687499999908" height="0.4579687499999908" fill="#252525" />
<rect x="4.1717187499999175" y="0.005" width="0.4579687499999908" height="0.4579687499999908" fill="#252525" />
<rect x="4.634687499999909" y="0.005" width="0.4579687499999908" height="0.4579687499999908" fill="#FF4136" />
<rect x="5.097656249999899" y="0.005" width="0.4579687499999908" height="0.4579687499999908" fill="#252525" />
<rect x="5.56062499999989" y="0.005" width="0.4579687499999908" height="0.4579687499999908" fill="#252525" />
<rect x="6.023593749999881" y="0.005" width="0.4579687499999908" height="0.4579687499999908" fill="#252525" />
<rect x="6.486562499999871" y="0.005" width="0.4579687499999908" height="0.4579687499999908" fill="#252525" />
<rect x="6.949531249999862" y="0.005" width="0.4579687499999908" height="0.4579687499999908" fill="#252525" />
<rect x="0.005" y="0.46796874999999083" width="0.4579687499999908" height="0.4579687499999908" fill="#252525" />
<rect x="0.46796874999999083" y="0.46796874999999083" width="0.4579687499999908" height="0.4579687499999908" fill="#37D449" />
<rect x="0.9309374999999817" y="0.46796874999999083" width="0.4579687499999908" height="0.4579687499999908" fill="#37D449" />
<rect x="1.3939062499999724" y="0.46796874999999083" width="0.4579687499999908" height="0.4579687499999908" fill="#37D449" />
<rect x="1.8568749999999632" y="0.46796874999999083" width="0.4579687499999908" height="0.4579687499999908" fill="#252525" />
<rect x="2.3198437499999542" y="0.46796874999999083" width="0.4579687499999908" height="0.4579687499999908" fill="#252525" />
<rect x="2.782812499999945" y="0.46796874999999083" width="0.4579687499999908" height="0.4579687499999908" fill="#252525" />
<rect x="3.2457812499999354" y="0.46796874999999083" width="0.4579687499999908" height="0.4579687499999908" fill="#252525" />
<rect x="3.7087499999999265" y="0.46796874999999083" width="0.4579687499999908" height="0.4579687499999908" fill="#252525" />
<rect x="4.1717187499999175" y="0.46796874999999083" width="0.4579687499999908" height="0.4579687499999908" fill="#252525" />
<rect x="4.634687499999909" y="0.46796874999999083" width="0.4579687499999908" height="0.4579687499999908" fill="#FF4136" />
<rect x="5.097656249999899" y="0.46796874999999083" width="0.4579687499999908" height="0.4579687499999908" fill="#252525" />
<rect x="5.56062499999989" y="0.46796874999999083" width="0.4579687499999908" height="0.4579687499999908" fill="#252525" />
<rect x="6.023593749999881" y="0.46796874999999083" width="0.4579687499999908" height="0.4579687499999908" fill="#252525" />
<rect x="6.486562499999871" y="0.46796874999999083" width="0.4579687499999908" height="0.4579687499999908" fill="#252525" />
<rect x="6.949531249999862" y="0.46796874999999083" width="0.4579687499999908" height="0.4579687499999908" fill="#252525" />
<rect x="0.005" y="0.9309374999999817" width="0.4579687499999908" height="0.4579687499999908" fill="#37D449" />
<rect x="0.46796874999999083" y="0.9309374999999817" width="0.4579687499999908" height="0.4579687499999908" fill="#37D449" />
<rect x="0.9309374999999817" y="0.9309374999999817" width="0.4579687499999908" height="0.4579687499999908" fill="#252525" />
<rect x="1.3939062499999724" y="0.9309374999999817" width="0.4579687499999908" height="0.4579687499999908" fill="#252525" />
<rect x="1.8568749999999632" y="0.9309374999999817" width="0.4579687499999908" height="0.4579687499999908" fill="#252525" />
<rect x="2.3198437499999542" y="0.9309374999999817" width="0.4579687499999908" height="0.4579687499999908" fill="#252525" />
<rect x="2.782812499999945" y="0.9309374999999817" width="0.4579687499999908" height="0.4579687499999908" fill="#252525" />
<rect x="3.2457812499999354" y="0.9309374999999817" width="0.4579687499999908" height="0.4579687499999908" fill="#252525" />
<rect x="3.7087499999999265" y="0.9309374999999817" width="0.4579687499999908" height="0.4579687499999908" fill="#252525" />
<rect x="4.1717187499999175" y="0.9309374999999817" width="0.4579687499999908" height="0.4579687499999908" fill="#252525" />
<rect x="4.634687499999909" y="0.9309374999999817" width="0.4579687499999908" height="0.4579687499999908" fill="#FF4136" />
<rect x="5.097656249999899" y="0.9309374999999817" width="0.4579687499999908" height="0.4579687499999908" fill="#252525" />
<rect x="5.56062499999989" y="0.9309374999999817" width="0.4579687499999908" height="0.4579687499999908" fill="#252525" />
<rect x="6.023593749999881" y="0.9309374999999817" width="0.4579687499999908" height="0.4579687499999908" fill="#252525" />
<rect x="6.486562499999871" y="0.9309374999999817" width="0.4579687499999908" height="0.4579687499999908" fill="#252525" />
<rect x="6.949531249999862" y="0.9309374999999817" width="0.4579687499999908" height="0.4579687499999908" fill="#252525" />
<rect x="0.005" y="1.3939062499999724" width="0.4579687499999908" height="0.4579687499999908" fill="#252525" />
<rect x="0.46796874999999083" y="1.3939062499999724" width="0.4579687499999908" height="0.4579687499999908" fill="#37D449" />
<rect x="0.9309374999999817" y="1.3939062499999724" width="0.4579687499999908" height="0.4579687499999908" fill="#37D449" />
<rect x="1.3939062499999724" y="1.3939062499999724" width="0.4579687499999908" height="0.4579687499999908" fill="#37D449" />
<rect x="1.8568749999999632" y="1.3939062499999724" width="0.4579687499999908" height="0.4579687499999908" fill="#252525" />
<rect x="2.3198437499999542" y="1.3939062499999724" width="0.4579687499999908" height="0.4579687499999908" fill="#252525" />
<rect x="2.782812499999945" y="1.3939062499999724" width="0.4579687499999908" height="0.4579687499999908" fill="#252525" />
<rect x="3.2457812499999354" y="1.3939062499999724" width="0.4579687499999908" height="0.4579687499999908" fill="#252525" />
<rect x="3.7087499999999265" y="1.3939062499999724" width="0.4579687499999908" height="0.4579687499999908" fill="#252525" />
<rect x="4.1717187499999175" y="1.3939062499999724" width="0.4579687499999908" height="0.4579687499999908" fill="#252525" />
<rect x="4.634687499999909" y="1.3939062499999724" width="0.4579687499999908" height="0.4579687499999908" fill="#FF4136" />
<rect x="5.097656249999899" y="1.3939062499999724" width="0.4579687499999908" height="0.4579687499999908" fill="#252525" />
<rect x="5.56062499999989" y="1.3939062499999724" width="0.4579687499999908" height="0.4579687499999908" fill="#252525" />
<rect x="6.023593749999881" y="1.3939062499999724" width="0.4579687499999908" height="0.4579687499999908" fill="#252525" />
<rect x="6.486562499999871" y="1.3939062499999724" width="0.4579687499999908" height="0.4579687499999908" fill="#252525" />
<rect x="6.949531249999862" y="1.3939062499999724" width="0.4579687499999908" height="0.4579687499999908" fill="#252525" />
<rect x="-0.02666666666666667" y="-0.02666666666666667" width="7.460833333333187" height="1.9052083333332965" fill="none" stroke="#111111ff" stroke-width="0.08" />
<text x="7.407499999999853" y="2.3206249999999633" font-size="0.375" fill="black" text-anchor="end" font-family="Anuphan">16x4</text>
<text x="-0.037500000000000006" y="2.3206249999999633" font-size="0.375" fill="black" text-anchor="start" font-family="Anuphan" font-weight="600">Input 1</text>
</g>
<g id="d1">
<rect x="0.005" y="0.005" width="0.31249999999999545" height="0.31249999999999545" fill="#252525" />
<rect x="0.32249999999999546" y="0.005" width="0.31249999999999545" height="0.31249999999999545" fill="#252525" />
<rect x="0.6399999999999909" y="0.005" width="0.31249999999999545" height="0.31249999999999545" fill="#252525" />
<rect x="0.9574999999999864" y="0.005" width="0.31249999999999545" height="0.31249999999999545" fill="#252525" />
<rect x="1.2749999999999817" y="0.005" width="0.31249999999999545" height="0.31249999999999545" fill="#252525" />
<rect x="0.005" y="0.32249999999999546" width="0.31249999999999545" height="0.31249999999999545" fill="#37D449" />
<rect x="0.32249999999999546" y="0.32249999999999546" width="0.31249999999999545" height="0.31249999999999545" fill="#37D449" />
<rect x="0.6399999999999909" y="0.32249999999999546" width="0.31249999999999545" height="0.31249999999999545" fill="#252525" />
<rect x="0.9574999999999864" y="0.32249999999999546" width="0.31249999999999545" height="0.31249999999999545" fill="#252525" />
<rect x="1.2749999999999817" y="0.32249999999999546" width="0.31249999999999545" height="0.31249999999999545" fill="#252525" />
<rect x="0.005" y="0.6399999999999909" width="0.31249999999999545" height="0.31249999999999545" fill="#37D449" />
<rect x="0.32249999999999546" y="0.6399999999999909" width="0.31249999999999545" height="0.31249999999999545" fill="#252525" />
<rect x="0.6399999999999909" y="0.6399999999999909" width="0.31249999999999545" height="0.31249999999999545" fill="#252525" />
<rect x="0.9574999999999864" y="0.6399999999999909" width="0.31249999999999545" height="0.31249999999999545" fill="#252525" />
<rect x="1.2749999999999817" y="0.6399999999999909" width="0.31249999999999545" height="0.31249999999999545" fill="#252525" />
<rect x="0.005" y="0.9574999999999864" width="0.31249999999999545" height="0.31249999999999545" fill="#37D449" />
<rect x="0.32249999999999546" y="0.9574999999999864" width="0.31249999999999545" height="0.31249999999999545" fill="#37D449" />
<rect x="0.6399999999999909" y="0.9574999999999864" width="0.31249999999999545" height="0.31249999999999545" fill="#252525" />
<rect x="0.9574999999999864" y="0.9574999999999864" width="0.31249999999999545" height="0.31249999999999545" fill="#37D449" />
<rect x="1.2749999999999817" y="0.9574999999999864" width="0.31249999999999545" height="0.31249999999999545" fill="#37D449" />
<rect x="0.005" y="1.2749999999999817" width="0.31249999999999545" height="0.31249999999999545" fill="#252525" />
<rect x="0.32249999999999546" y="1.2749999999999817" width="0.31249999999999545" height="0.31249999999999545" fill="#37D449" />
<rect x="0.6399999999999909" y="1.2749999999999817" width="0.31249999999999545" height="0.31249999999999545" fill="#37D449" />
<rect x="0.9574999999999864" y="1.2749999999999817" width="0.31249999999999545" height="0.31249999999999545" fill="#37D449" />
<rect x="1.2749999999999817" y="1.2749999999999817" width="0.31249999999999545" height="0.31249999999999545" fill="#252525" />
<rect x="0.005" y="1.5924999999999772" width="0.31249999999999545" height="0.31249999999999545" fill="#252525" />
<rect x="0.32249999999999546" y="1.5924999999999772" width="0.31249999999999545" height="0.31249999999999545" fill="#252525" />
<rect x="0.6399999999999909" y="1.5924999999999772" width="0.31249999999999545" height="0.31249999999999545" fill="#252525" />
<rect x="0.9574999999999864" y="1.5924999999999772" width="0.31249999999999545" height="0.31249999999999545" fill="#252525" />
<rect x="1.2749999999999817" y="1.5924999999999772" width="0.31249999999999545" height="0.31249999999999545" fill="#252525" />
<rect x="0.005" y="1.9099999999999726" width="0.31249999999999545" height="0.31249999999999545" fill="#252525" />
<rect x="0.32249999999999546" y="1.9099999999999726" width="0.31249999999999545" height="0.31249999999999545" fill="#252525" />
<rect x="0.6399999999999909" y="1.9099999999999726" width="0.31249999999999545" height="0.31249999999999545" fill="#252525" />
<rect x="0.9574999999999864" y="1.9099999999999726" width="0.31249999999999545" height="0.31249999999999545" fill="#252525" />
<rect x="1.2749999999999817" y="1.9099999999999726" width="0.31249999999999545" height="0.31249999999999545" fill="#252525" />
<rect x="0.005" y="2.227499999999968" width="0.31249999999999545" height="0.31249999999999545" fill="#252525" />
<rect x="0.32249999999999546" y="2.227499999999968" width="0.31249999999999545" height="0.31249999999999545" fill="#252525" />
<rect x="0.6399999999999909" y="2.227499999999968" width="0.31249999999999545" height="0.31249999999999545" fill="#252525" />
<rect x="0.9574999999999864" y="2.227499999999968" width="0.31249999999999545" height="0.31249999999999545" fill="#252525" />
<rect x="1.2749999999999817" y="2.227499999999968" width="0.31249999999999545" height="0.31249999999999545" fill="#252525" />
<rect x="0.005" y="2.5449999999999635" width="0.31249999999999545" height="0.31249999999999545" fill="#252525" />
<rect x="0.32249999999999546" y="2.5449999999999635" width="0.31249999999999545" height="0.31249999999999545" fill="#252525" />
<rect x="0.6399999999999909" y="2.5449999999999635" width="0.31249999999999545" height="0.31249999999999545" fill="#252525" />
<rect x="0.9574999999999864" y="2.5449999999999635" width="0.31249999999999545" height="0.31249999999999545" fill="#252525" />
<rect x="1.2749999999999817" y="2.5449999999999635" width="0.31249999999999545" height="0.31249999999999545" fill="#252525" />
<rect x="0.005" y="2.862499999999959" width="0.31249999999999545" height="0.31249999999999545" fill="#252525" />
<rect x="0.32249999999999546" y="2.862499999999959" width="0.31249999999999545" height="0.31249999999999545" fill="#252525" />
<rect x="0.6399999999999909" y="2.862499999999959" width="0.31249999999999545" height="0.31249999999999545" fill="#252525" />
<rect x="0.9574999999999864" y="2.862499999999959" width="0.31249999999999545" height="0.31249999999999545" fill="#252525" />
<rect x="1.2749999999999817" y="2.862499999999959" width="0.31249999999999545" height="0.31249999999999545" fill="#252525" />
<rect x="0.005" y="3.1799999999999544" width="0.31249999999999545" height="0.31249999999999545" fill="#252525" />
<rect x="0.32249999999999546" y="3.1799999999999544" width="0.31249999999999545" height="0.31249999999999545" fill="#252525" />
<rect x="0.6399999999999909" y="3.1799999999999544" width="0.31249999999999545" height="0.31249999999999545" fill="#252525" />
<rect x="0.9574999999999864" y="3.1799999999999544" width="0.31249999999999545" height="0.31249999999999545" fill="#252525" />
<rect x="1.2749999999999817" y="3.1799999999999544" width="0.31249999999999545" height="0.31249999999999545" fill="#252525" />
<rect x="0.005" y="3.49749999999995" width="0.31249999999999545" height="0.31249999999999545" fill="#252525" />
<rect x="0.32249999999999546" y="3.49749999999995" width="0.31249999999999545" height="0.31249999999999545" fill="#252525" />
<rect x="0.6399999999999909" y="3.49749999999995" width="0.31249999999999545" height="0.31249999999999545" fill="#252525" />
<rect x="0.9574999999999864" y="3.49749999999995" width="0.31249999999999545" height="0.31249999999999545" fill="#252525" />
<rect x="1.2749999999999817" y="3.49749999999995" width="0.31249999999999545" height="0.31249999999999545" fill="#252525" />
<rect x="0.005" y="3.8149999999999453" width="0.31249999999999545" height="0.31249999999999545" fill="#252525" />
<rect x="0.32249999999999546" y="3.8149999999999453" width="0.31249999999999545" height="0.31249999999999545" fill="#252525" />
<rect x="0.6399999999999909" y="3.8149999999999453" width="0.31249999999999545" height="0.31249999999999545" fill="#252525" />
<rect x="0.9574999999999864" y="3.8149999999999453" width="0.31249999999999545" height="0.31249999999999545" fill="#252525" />
<rect x="1.2749999999999817" y="3.8149999999999453" width="0.31249999999999545" height="0.31249999999999545" fill="#252525" />
<rect x="0.005" y="4.132499999999941" width="0.31249999999999545" height="0.31249999999999545" fill="#252525" />
<rect x="0.32249999999999546" y="4.132499999999941" width="0.31249999999999545" height="0.31249999999999545" fill="#252525" />
<rect x="0.6399999999999909" y="4.132499999999941" width="0.31249999999999545" height="0.31249999999999545" fill="#252525" />
<rect x="0.9574999999999864" y="4.132499999999941" width="0.31249999999999545" height="0.31249999999999545" fill="#252525" />
<rect x="1.2749999999999817" y="4.132499999999941" width="0.31249999999999545" height="0.31249999999999545" fill="#252525" />
<rect x="0.005" y="4.449999999999936" width="0.31249999999999545" height="0.31249999999999545" fill="#252525" />
<rect x="0.32249999999999546" y="4.449999999999936" width="0.31249999999999545" height="0.31249999999999545" fill="#252525" />
<rect x="0.6399999999999909" y="4.449999999999936" width="0.31249999999999545" height="0.31249999999999545" fill="#252525" />
<rect x="0.9574999999999864" y="4.449999999999936" width="0.31249999999999545" height="0.31249999999999545" fill="#252525" />
<rect x="1.2749999999999817" y="4.449999999999936" width="0.31249999999999545" height="0.31249999999999545" fill="#252525" />
<rect x="0.005" y="4.767499999999932" width="0.31249999999999545" height="0.31249999999999545" fill="#FF4136" />
<rect x="0.32249999999999546" y="4.767499999999932" width="0.31249999999999545" height="0.31249999999999545" fill="#FF4136" />
<rect x="0.6399999999999909" y="4.767499999999932" width="0.31249999999999545" height="0.31249999999999545" fill="#FF4136" />
<rect x="0.9574999999999864" y="4.767499999999932" width="0.31249999999999545" height="0.31249999999999545" fill="#FF4136" />
<rect x="1.2749999999999817" y="4.767499999999932" width="0.31249999999999545" height="0.31249999999999545" fill="#FF4136" />
<rect x="0.005" y="5.084999999999927" width="0.31249999999999545" height="0.31249999999999545" fill="#252525" />
<rect x="0.32249999999999546" y="5.084999999999927" width="0.31249999999999545" height="0.31249999999999545" fill="#252525" />
<rect x="0.6399999999999909" y="5.084999999999927" width="0.31249999999999545" height="0.31249999999999545" fill="#252525" />
<rect x="0.9574999999999864" y="5.084999999999927" width="0.31249999999999545" height="0.31249999999999545" fill="#252525" />
<rect x="1.2749999999999817" y="5.084999999999927" width="0.31249999999999545" height="0.31249999999999545" fill="#252525" />
<rect x="-0.02666666666666667" y="-0.02666666666666667" width="1.6408333333333105" height="5.450833333333256" fill="none" stroke="#111111ff" stroke-width="0.08" />
<text x="1.5874999999999773" y="5.866249999999923" font-size="0.375" fill="black" text-anchor="end" font-family="Anuphan">5x17</text>
<text x="-0.037500000000000006" y="5.866249999999923" font-size="0.375" fill="black" text-anchor="start" font-family="Anuphan" font-weight="600">Input 2</text>
</g>
<g id="d2">
<rect x="0.005" y="0.005" width="0.31249999999999545" height="0.31249999999999545" fill="#252525" />
<rect x="0.32249999999999546" y="0.005" width="0.31249999999999545" height="0.31249999999999545" fill="#252525" />
<rect x="0.6399999999999909" y="0.005" width="0.31249999999999545" height="0.31249999999999545" fill="#252525" />
<rect x="0.9574999999999864" y="0.005" width="0.31249999999999545" height="0.31249999999999545" fill="#252525" />
<rect x="1.2749999999999817" y="0.005" width="0.31249999999999545" height="0.31249999999999545" fill="#252525" />
<rect x="0.005" y="0.32249999999999546" width="0.31249999999999545" height="0.31249999999999545" fill="#252525" />
<rect x="0.32249999999999546" y="0.32249999999999546" width="0.31249999999999545" height="0.31249999999999545" fill="#252525" />
<rect x="0.6399999999999909" y="0.32249999999999546" width="0.31249999999999545" height="0.31249999999999545" fill="#252525" />
<rect x="0.9574999999999864" y="0.32249999999999546" width="0.31249999999999545" height="0.31249999999999545" fill="#252525" />
<rect x="1.2749999999999817" y="0.32249999999999546" width="0.31249999999999545" height="0.31249999999999545" fill="#252525" />
<rect x="0.005" y="0.6399999999999909" width="0.31249999999999545" height="0.31249999999999545" fill="#252525" />
<rect x="0.32249999999999546" y="0.6399999999999909" width="0.31249999999999545" height="0.31249999999999545" fill="#252525" />
<rect x="0.6399999999999909" y="0.6399999999999909" width="0.31249999999999545" height="0.31249999999999545" fill="#252525" />
<rect x="0.9574999999999864" y="0.6399999999999909" width="0.31249999999999545" height="0.31249999999999545" fill="#252525" />
<rect x="1.2749999999999817" y="0.6399999999999909" width="0.31249999999999545" height="0.31249999999999545" fill="#252525" />
<rect x="0.005" y="0.9574999999999864" width="0.31249999999999545" height="0.31249999999999545" fill="#FF4136" />
<rect x="0.32249999999999546" y="0.9574999999999864" width="0.31249999999999545" height="0.31249999999999545" fill="#FF4136" />
<rect x="0.6399999999999909" y="0.9574999999999864" width="0.31249999999999545" height="0.31249999999999545" fill="#FF4136" />
<rect x="0.9574999999999864" y="0.9574999999999864" width="0.31249999999999545" height="0.31249999999999545" fill="#FF4136" />
<rect x="1.2749999999999817" y="0.9574999999999864" width="0.31249999999999545" height="0.31249999999999545" fill="#FF4136" />
<rect x="0.005" y="1.2749999999999817" width="0.31249999999999545" height="0.31249999999999545" fill="#252525" />
<rect x="0.32249999999999546" y="1.2749999999999817" width="0.31249999999999545" height="0.31249999999999545" fill="#252525" />
<rect x="0.6399999999999909" y="1.2749999999999817" width="0.31249999999999545" height="0.31249999999999545" fill="#252525" />
<rect x="0.9574999999999864" y="1.2749999999999817" width="0.31249999999999545" height="0.31249999999999545" fill="#252525" />
<rect x="1.2749999999999817" y="1.2749999999999817" width="0.31249999999999545" height="0.31249999999999545" fill="#252525" />
<rect x="0.005" y="1.5924999999999772" width="0.31249999999999545" height="0.31249999999999545" fill="#252525" />
<rect x="0.32249999999999546" y="1.5924999999999772" width="0.31249999999999545" height="0.31249999999999545" fill="#252525" />
<rect x="0.6399999999999909" y="1.5924999999999772" width="0.31249999999999545" height="0.31249999999999545" fill="#252525" />
<rect x="0.9574999999999864" y="1.5924999999999772" width="0.31249999999999545" height="0.31249999999999545" fill="#252525" />
<rect x="1.2749999999999817" y="1.5924999999999772" width="0.31249999999999545" height="0.31249999999999545" fill="#252525" />
<rect x="0.005" y="1.9099999999999726" width="0.31249999999999545" height="0.31249999999999545" fill="#252525" />
<rect x="0.32249999999999546" y="1.9099999999999726" width="0.31249999999999545" height="0.31249999999999545" fill="#252525" />
<rect x="0.6399999999999909" y="1.9099999999999726" width="0.31249999999999545" height="0.31249999999999545" fill="#252525" />
<rect x="0.9574999999999864" y="1.9099999999999726" width="0.31249999999999545" height="0.31249999999999545" fill="#252525" />
<rect x="1.2749999999999817" y="1.9099999999999726" width="0.31249999999999545" height="0.31249999999999545" fill="#252525" />
<rect x="0.005" y="2.227499999999968" width="0.31249999999999545" height="0.31249999999999545" fill="#252525" />
<rect x="0.32249999999999546" y="2.227499999999968" width="0.31249999999999545" height="0.31249999999999545" fill="#252525" />
<rect x="0.6399999999999909" y="2.227499999999968" width="0.31249999999999545" height="0.31249999999999545" fill="#252525" />
<rect x="0.9574999999999864" y="2.227499999999968" width="0.31249999999999545" height="0.31249999999999545" fill="#252525" />
<rect x="1.2749999999999817" y="2.227499999999968" width="0.31249999999999545" height="0.31249999999999545" fill="#252525" />
<rect x="0.005" y="2.5449999999999635" width="0.31249999999999545" height="0.31249999999999545" fill="#252525" />
<rect x="0.32249999999999546" y="2.5449999999999635" width="0.31249999999999545" height="0.31249999999999545" fill="#252525" />
<rect x="0.6399999999999909" y="2.5449999999999635" width="0.31249999999999545" height="0.31249999999999545" fill="#252525" />
<rect x="0.9574999999999864" y="2.5449999999999635" width="0.31249999999999545" height="0.31249999999999545" fill="#252525" />
<rect x="1.2749999999999817" y="2.5449999999999635" width="0.31249999999999545" height="0.31249999999999545" fill="#252525" />
<rect x="0.005" y="2.862499999999959" width="0.31249999999999545" height="0.31249999999999545" fill="#252525" />
<rect x="0.32249999999999546" y="2.862499999999959" width="0.31249999999999545" height="0.31249999999999545" fill="#252525" />
<rect x="0.6399999999999909" y="2.862499999999959" width="0.31249999999999545" height="0.31249999999999545" fill="#252525" />
<rect x="0.9574999999999864" y="2.862499999999959" width="0.31249999999999545" height="0.31249999999999545" fill="#252525" />
<rect x="1.2749999999999817" y="2.862499999999959" width="0.31249999999999545" height="0.31249999999999545" fill="#252525" />
<rect x="0.005" y="3.1799999999999544" width="0.31249999999999545" height="0.31249999999999545" fill="#252525" />
<rect x="0.32249999999999546" y="3.1799999999999544" width="0.31249999999999545" height="0.31249999999999545" fill="#252525" />
<rect x="0.6399999999999909" y="3.1799999999999544" width="0.31249999999999545" height="0.31249999999999545" fill="#252525" />
<rect x="0.9574999999999864" y="3.1799999999999544" width="0.31249999999999545" height="0.31249999999999545" fill="#252525" />
<rect x="1.2749999999999817" y="3.1799999999999544" width="0.31249999999999545" height="0.31249999999999545" fill="#252525" />
<rect x="0.005" y="3.49749999999995" width="0.31249999999999545" height="0.31249999999999545" fill="#37D449" />
<rect x="0.32249999999999546" y="3.49749999999995" width="0.31249999999999545" height="0.31249999999999545" fill="#37D449" />
<rect x="0.6399999999999909" y="3.49749999999995" width="0.31249999999999545" height="0.31249999999999545" fill="#37D449" />
<rect x="0.9574999999999864" y="3.49749999999995" width="0.31249999999999545" height="0.31249999999999545" fill="#37D449" />
<rect x="1.2749999999999817" y="3.49749999999995" width="0.31249999999999545" height="0.31249999999999545" fill="#252525" />
<rect x="0.005" y="3.8149999999999453" width="0.31249999999999545" height="0.31249999999999545" fill="#37D449" />
<rect x="0.32249999999999546" y="3.8149999999999453" width="0.31249999999999545" height="0.31249999999999545" fill="#252525" />
<rect x="0.6399999999999909" y="3.8149999999999453" width="0.31249999999999545" height="0.31249999999999545" fill="#252525" />
<rect x="0.9574999999999864" y="3.8149999999999453" width="0.31249999999999545" height="0.31249999999999545" fill="#37D449" />
<rect x="1.2749999999999817" y="3.8149999999999453" width="0.31249999999999545" height="0.31249999999999545" fill="#252525" />
<rect x="0.005" y="4.132499999999941" width="0.31249999999999545" height="0.31249999999999545" fill="#37D449" />
<rect x="0.32249999999999546" y="4.132499999999941" width="0.31249999999999545" height="0.31249999999999545" fill="#37D449" />
<rect x="0.6399999999999909" y="4.132499999999941" width="0.31249999999999545" height="0.31249999999999545" fill="#252525" />
<rect x="0.9574999999999864" y="4.132499999999941" width="0.31249999999999545" height="0.31249999999999545" fill="#37D449" />
<rect x="1.2749999999999817" y="4.132499999999941" width="0.31249999999999545" height="0.31249999999999545" fill="#252525" />
<rect x="0.005" y="4.449999999999936" width="0.31249999999999545" height="0.31249999999999545" fill="#252525" />
<rect x="0.32249999999999546" y="4.449999999999936" width="0.31249999999999545" height="0.31249999999999545" fill="#252525" />
<rect x="0.6399999999999909" y="4.449999999999936" width="0.31249999999999545" height="0.31249999999999545" fill="#252525" />
<rect x="0.9574999999999864" y="4.449999999999936" width="0.31249999999999545" height="0.31249999999999545" fill="#252525" />
<rect x="1.2749999999999817" y="4.449999999999936" width="0.31249999999999545" height="0.31249999999999545" fill="#252525" />
<rect x="0.005" y="4.767499999999932" width="0.31249999999999545" height="0.31249999999999545" fill="#252525" />
<rect x="0.32249999999999546" y="4.767499999999932" width="0.31249999999999545" height="0.31249999999999545" fill="#252525" />
<rect x="0.6399999999999909" y="4.767499999999932" width="0.31249999999999545" height="0.31249999999999545" fill="#252525" />
<rect x="0.9574999999999864" y="4.767499999999932" width="0.31249999999999545" height="0.31249999999999545" fill="#252525" />
<rect x="1.2749999999999817" y="4.767499999999932" width="0.31249999999999545" height="0.31249999999999545" fill="#252525" />
<rect x="0.005" y="5.084999999999927" width="0.31249999999999545" height="0.31249999999999545" fill="#252525" />
<rect x="0.32249999999999546" y="5.084999999999927" width="0.31249999999999545" height="0.31249999999999545" fill="#252525" />
<rect x="0.6399999999999909" y="5.084999999999927" width="0.31249999999999545" height="0.31249999999999545" fill="#252525" />
<rect x="0.9574999999999864" y="5.084999999999927" width="0.31249999999999545" height="0.31249999999999545" fill="#252525" />
<rect x="1.2749999999999817" y="5.084999999999927" width="0.31249999999999545" height="0.31249999999999545" fill="#252525" />
<rect x="-0.02666666666666667" y="-0.02666666666666667" width="1.6408333333333105" height="5.450833333333256" fill="none" stroke="#111111ff" stroke-width="0.08" />
<text x="1.5874999999999773" y="5.866249999999923" font-size="0.375" fill="black" text-anchor="end" font-family="Anuphan">5x17</text>
<text x="-0.037500000000000006" y="5.866249999999923" font-size="0.375" fill="black" text-anchor="start" font-family="Anuphan" font-weight="600">Input 3</text>
</g>
<g id="d3">
<rect x="0.005" y="0.005" width="0.4065277777777696" height="0.4065277777777696" fill="#252525" />
<rect x="0.4165277777777696" y="0.005" width="0.4065277777777696" height="0.4065277777777696" fill="#252525" />
<rect x="0.8280555555555392" y="0.005" width="0.4065277777777696" height="0.4065277777777696" fill="#252525" />
<rect x="1.2395833333333086" y="0.005" width="0.4065277777777696" height="0.4065277777777696" fill="#252525" />
<rect x="1.6511111111110783" y="0.005" width="0.4065277777777696" height="0.4065277777777696" fill="#FF4136" />
<rect x="2.062638888888848" y="0.005" width="0.4065277777777696" height="0.4065277777777696" fill="#252525" />
<rect x="2.4741666666666173" y="0.005" width="0.4065277777777696" height="0.4065277777777696" fill="#252525" />
<rect x="2.885694444444387" y="0.005" width="0.4065277777777696" height="0.4065277777777696" fill="#252525" />
<rect x="3.2972222222221568" y="0.005" width="0.4065277777777696" height="0.4065277777777696" fill="#252525" />
<rect x="3.7087499999999265" y="0.005" width="0.4065277777777696" height="0.4065277777777696" fill="#252525" />
<rect x="4.120277777777696" y="0.005" width="0.4065277777777696" height="0.4065277777777696" fill="#252525" />
<rect x="4.531805555555466" y="0.005" width="0.4065277777777696" height="0.4065277777777696" fill="#252525" />
<rect x="4.943333333333235" y="0.005" width="0.4065277777777696" height="0.4065277777777696" fill="#37D449" />
<rect x="5.3548611111110045" y="0.005" width="0.4065277777777696" height="0.4065277777777696" fill="#37D449" />
<rect x="5.766388888888774" y="0.005" width="0.4065277777777696" height="0.4065277777777696" fill="#252525" />
<rect x="6.177916666666544" y="0.005" width="0.4065277777777696" height="0.4065277777777696" fill="#252525" />
<rect x="6.589444444444314" y="0.005" width="0.4065277777777696" height="0.4065277777777696" fill="#252525" />
<rect x="7.000972222222083" y="0.005" width="0.4065277777777696" height="0.4065277777777696" fill="#252525" />
<rect x="0.005" y="0.4165277777777696" width="0.4065277777777696" height="0.4065277777777696" fill="#252525" />
<rect x="0.4165277777777696" y="0.4165277777777696" width="0.4065277777777696" height="0.4065277777777696" fill="#252525" />
<rect x="0.8280555555555392" y="0.4165277777777696" width="0.4065277777777696" height="0.4065277777777696" fill="#252525" />
<rect x="1.2395833333333086" y="0.4165277777777696" width="0.4065277777777696" height="0.4065277777777696" fill="#252525" />
<rect x="1.6511111111110783" y="0.4165277777777696" width="0.4065277777777696" height="0.4065277777777696" fill="#FF4136" />
<rect x="2.062638888888848" y="0.4165277777777696" width="0.4065277777777696" height="0.4065277777777696" fill="#252525" />
<rect x="2.4741666666666173" y="0.4165277777777696" width="0.4065277777777696" height="0.4065277777777696" fill="#252525" />
<rect x="2.885694444444387" y="0.4165277777777696" width="0.4065277777777696" height="0.4065277777777696" fill="#252525" />
<rect x="3.2972222222221568" y="0.4165277777777696" width="0.4065277777777696" height="0.4065277777777696" fill="#252525" />
<rect x="3.7087499999999265" y="0.4165277777777696" width="0.4065277777777696" height="0.4065277777777696" fill="#252525" />
<rect x="4.120277777777696" y="0.4165277777777696" width="0.4065277777777696" height="0.4065277777777696" fill="#252525" />
<rect x="4.531805555555466" y="0.4165277777777696" width="0.4065277777777696" height="0.4065277777777696" fill="#37D449" />
<rect x="4.943333333333235" y="0.4165277777777696" width="0.4065277777777696" height="0.4065277777777696" fill="#252525" />
<rect x="5.3548611111110045" y="0.4165277777777696" width="0.4065277777777696" height="0.4065277777777696" fill="#37D449" />
<rect x="5.766388888888774" y="0.4165277777777696" width="0.4065277777777696" height="0.4065277777777696" fill="#252525" />
<rect x="6.177916666666544" y="0.4165277777777696" width="0.4065277777777696" height="0.4065277777777696" fill="#252525" />
<rect x="6.589444444444314" y="0.4165277777777696" width="0.4065277777777696" height="0.4065277777777696" fill="#252525" />
<rect x="7.000972222222083" y="0.4165277777777696" width="0.4065277777777696" height="0.4065277777777696" fill="#252525" />
<rect x="0.005" y="0.8280555555555392" width="0.4065277777777696" height="0.4065277777777696" fill="#252525" />
<rect x="0.4165277777777696" y="0.8280555555555392" width="0.4065277777777696" height="0.4065277777777696" fill="#252525" />
<rect x="0.8280555555555392" y="0.8280555555555392" width="0.4065277777777696" height="0.4065277777777696" fill="#252525" />
<rect x="1.2395833333333086" y="0.8280555555555392" width="0.4065277777777696" height="0.4065277777777696" fill="#252525" />
<rect x="1.6511111111110783" y="0.8280555555555392" width="0.4065277777777696" height="0.4065277777777696" fill="#FF4136" />
<rect x="2.062638888888848" y="0.8280555555555392" width="0.4065277777777696" height="0.4065277777777696" fill="#252525" />
<rect x="2.4741666666666173" y="0.8280555555555392" width="0.4065277777777696" height="0.4065277777777696" fill="#252525" />
<rect x="2.885694444444387" y="0.8280555555555392" width="0.4065277777777696" height="0.4065277777777696" fill="#252525" />
<rect x="3.2972222222221568" y="0.8280555555555392" width="0.4065277777777696" height="0.4065277777777696" fill="#252525" />
<rect x="3.7087499999999265" y="0.8280555555555392" width="0.4065277777777696" height="0.4065277777777696" fill="#252525" />
<rect x="4.120277777777696" y="0.8280555555555392" width="0.4065277777777696" height="0.4065277777777696" fill="#252525" />
<rect x="4.531805555555466" y="0.8280555555555392" width="0.4065277777777696" height="0.4065277777777696" fill="#37D449" />
<rect x="4.943333333333235" y="0.8280555555555392" width="0.4065277777777696" height="0.4065277777777696" fill="#37D449" />
<rect x="5.3548611111110045" y="0.8280555555555392" width="0.4065277777777696" height="0.4065277777777696" fill="#37D449" />
<rect x="5.766388888888774" y="0.8280555555555392" width="0.4065277777777696" height="0.4065277777777696" fill="#252525" />
<rect x="6.177916666666544" y="0.8280555555555392" width="0.4065277777777696" height="0.4065277777777696" fill="#252525" />
<rect x="6.589444444444314" y="0.8280555555555392" width="0.4065277777777696" height="0.4065277777777696" fill="#252525" />
<rect x="7.000972222222083" y="0.8280555555555392" width="0.4065277777777696" height="0.4065277777777696" fill="#252525" />
<rect x="0.005" y="1.2395833333333086" width="0.4065277777777696" height="0.4065277777777696" fill="#252525" />
<rect x="0.4165277777777696" y="1.2395833333333086" width="0.4065277777777696" height="0.4065277777777696" fill="#252525" />
<rect x="0.8280555555555392" y="1.2395833333333086" width="0.4065277777777696" height="0.4065277777777696" fill="#252525" />
<rect x="1.2395833333333086" y="1.2395833333333086" width="0.4065277777777696" height="0.4065277777777696" fill="#252525" />
<rect x="1.6511111111110783" y="1.2395833333333086" width="0.4065277777777696" height="0.4065277777777696" fill="#FF4136" />
<rect x="2.062638888888848" y="1.2395833333333086" width="0.4065277777777696" height="0.4065277777777696" fill="#252525" />
<rect x="2.4741666666666173" y="1.2395833333333086" width="0.4065277777777696" height="0.4065277777777696" fill="#252525" />
<rect x="2.885694444444387" y="1.2395833333333086" width="0.4065277777777696" height="0.4065277777777696" fill="#252525" />
<rect x="3.2972222222221568" y="1.2395833333333086" width="0.4065277777777696" height="0.4065277777777696" fill="#252525" />
<rect x="3.7087499999999265" y="1.2395833333333086" width="0.4065277777777696" height="0.4065277777777696" fill="#252525" />
<rect x="4.120277777777696" y="1.2395833333333086" width="0.4065277777777696" height="0.4065277777777696" fill="#252525" />
<rect x="4.531805555555466" y="1.2395833333333086" width="0.4065277777777696" height="0.4065277777777696" fill="#37D449" />
<rect x="4.943333333333235" y="1.2395833333333086" width="0.4065277777777696" height="0.4065277777777696" fill="#252525" />
<rect x="5.3548611111110045" y="1.2395833333333086" width="0.4065277777777696" height="0.4065277777777696" fill="#252525" />
<rect x="5.766388888888774" y="1.2395833333333086" width="0.4065277777777696" height="0.4065277777777696" fill="#252525" />
<rect x="6.177916666666544" y="1.2395833333333086" width="0.4065277777777696" height="0.4065277777777696" fill="#252525" />
<rect x="6.589444444444314" y="1.2395833333333086" width="0.4065277777777696" height="0.4065277777777696" fill="#252525" />
<rect x="7.000972222222083" y="1.2395833333333086" width="0.4065277777777696" height="0.4065277777777696" fill="#252525" />
<rect x="-0.02666666666666667" y="-0.02666666666666667" width="7.460833333333187" height="1.6994444444444117" fill="none" stroke="#111111ff" stroke-width="0.08" />
<text x="7.407499999999853" y="2.1148611111110784" font-size="0.375" fill="black" text-anchor="end" font-family="Anuphan">18x4</text>
<text x="-0.037500000000000006" y="2.1148611111110784" font-size="0.375" fill="black" text-anchor="start" font-family="Anuphan" font-weight="600">Test 1</text>
</g>
<g id="d4">
<rect x="0.005" y="0.005" width="0.4579687499999908" height="0.4579687499999908" fill="#252525" />
<rect x="0.46796874999999083" y="0.005" width="0.4579687499999908" height="0.4579687499999908" fill="#252525" />
<rect x="0.9309374999999817" y="0.005" width="0.4579687499999908" height="0.4579687499999908" fill="#252525" />
<rect x="1.3939062499999724" y="0.005" width="0.4579687499999908" height="0.4579687499999908" fill="#252525" />
<rect x="1.8568749999999632" y="0.005" width="0.4579687499999908" height="0.4579687499999908" fill="#252525" />
<rect x="2.3198437499999542" y="0.005" width="0.4579687499999908" height="0.4579687499999908" fill="#54D2EB" />
<rect x="2.782812499999945" y="0.005" width="0.4579687499999908" height="0.4579687499999908" fill="#252525" />
<rect x="3.2457812499999354" y="0.005" width="0.4579687499999908" height="0.4579687499999908" fill="#37D449" />
<rect x="3.7087499999999265" y="0.005" width="0.4579687499999908" height="0.4579687499999908" fill="#252525" />
<rect x="4.1717187499999175" y="0.005" width="0.4579687499999908" height="0.4579687499999908" fill="#252525" />
<rect x="4.634687499999909" y="0.005" width="0.4579687499999908" height="0.4579687499999908" fill="#FF4136" />
<rect x="5.097656249999899" y="0.005" width="0.4579687499999908" height="0.4579687499999908" fill="#252525" />
<rect x="5.56062499999989" y="0.005" width="0.4579687499999908" height="0.4579687499999908" fill="#252525" />
<rect x="6.023593749999881" y="0.005" width="0.4579687499999908" height="0.4579687499999908" fill="#252525" />
<rect x="6.486562499999871" y="0.005" width="0.4579687499999908" height="0.4579687499999908" fill="#252525" />
<rect x="6.949531249999862" y="0.005" width="0.4579687499999908" height="0.4579687499999908" fill="#252525" />
<rect x="0.005" y="0.46796874999999083" width="0.4579687499999908" height="0.4579687499999908" fill="#252525" />
<rect x="0.46796874999999083" y="0.46796874999999083" width="0.4579687499999908" height="0.4579687499999908" fill="#252525" />
<rect x="0.9309374999999817" y="0.46796874999999083" width="0.4579687499999908" height="0.4579687499999908" fill="#252525" />
<rect x="1.3939062499999724" y="0.46796874999999083" width="0.4579687499999908" height="0.4579687499999908" fill="#252525" />
<rect x="1.8568749999999632" y="0.46796874999999083" width="0.4579687499999908" height="0.4579687499999908" fill="#252525" />
<rect x="2.3198437499999542" y="0.46796874999999083" width="0.4579687499999908" height="0.4579687499999908" fill="#54D2EB" />
<rect x="2.782812499999945" y="0.46796874999999083" width="0.4579687499999908" height="0.4579687499999908" fill="#252525" />
<rect x="3.2457812499999354" y="0.46796874999999083" width="0.4579687499999908" height="0.4579687499999908" fill="#37D449" />
<rect x="3.7087499999999265" y="0.46796874999999083" width="0.4579687499999908" height="0.4579687499999908" fill="#37D449" />
<rect x="4.1717187499999175" y="0.46796874999999083" width="0.4579687499999908" height="0.4579687499999908" fill="#37D449" />
<rect x="4.634687499999909" y="0.46796874999999083" width="0.4579687499999908" height="0.4579687499999908" fill="#FF4136" />
<rect x="5.097656249999899" y="0.46796874999999083" width="0.4579687499999908" height="0.4579687499999908" fill="#252525" />
<rect x="5.56062499999989" y="0.46796874999999083" width="0.4579687499999908" height="0.4579687499999908" fill="#252525" />
<rect x="6.023593749999881" y="0.46796874999999083" width="0.4579687499999908" height="0.4579687499999908" fill="#252525" />
<rect x="6.486562499999871" y="0.46796874999999083" width="0.4579687499999908" height="0.4579687499999908" fill="#252525" />
<rect x="6.949531249999862" y="0.46796874999999083" width="0.4579687499999908" height="0.4579687499999908" fill="#252525" />
<rect x="0.005" y="0.9309374999999817" width="0.4579687499999908" height="0.4579687499999908" fill="#252525" />
<rect x="0.46796874999999083" y="0.9309374999999817" width="0.4579687499999908" height="0.4579687499999908" fill="#252525" />
<rect x="0.9309374999999817" y="0.9309374999999817" width="0.4579687499999908" height="0.4579687499999908" fill="#252525" />
<rect x="1.3939062499999724" y="0.9309374999999817" width="0.4579687499999908" height="0.4579687499999908" fill="#252525" />
<rect x="1.8568749999999632" y="0.9309374999999817" width="0.4579687499999908" height="0.4579687499999908" fill="#252525" />
<rect x="2.3198437499999542" y="0.9309374999999817" width="0.4579687499999908" height="0.4579687499999908" fill="#54D2EB" />
<rect x="2.782812499999945" y="0.9309374999999817" width="0.4579687499999908" height="0.4579687499999908" fill="#37D449" />
<rect x="3.2457812499999354" y="0.9309374999999817" width="0.4579687499999908" height="0.4579687499999908" fill="#37D449" />
<rect x="3.7087499999999265" y="0.9309374999999817" width="0.4579687499999908" height="0.4579687499999908" fill="#252525" />
<rect x="4.1717187499999175" y="0.9309374999999817" width="0.4579687499999908" height="0.4579687499999908" fill="#252525" />
<rect x="4.634687499999909" y="0.9309374999999817" width="0.4579687499999908" height="0.4579687499999908" fill="#FF4136" />
<rect x="5.097656249999899" y="0.9309374999999817" width="0.4579687499999908" height="0.4579687499999908" fill="#252525" />
<rect x="5.56062499999989" y="0.9309374999999817" width="0.4579687499999908" height="0.4579687499999908" fill="#252525" />
<rect x="6.023593749999881" y="0.9309374999999817" width="0.4579687499999908" height="0.4579687499999908" fill="#252525" />
<rect x="6.486562499999871" y="0.9309374999999817" width="0.4579687499999908" height="0.4579687499999908" fill="#252525" />
<rect x="6.949531249999862" y="0.9309374999999817" width="0.4579687499999908" height="0.4579687499999908" fill="#252525" />
<rect x="0.005" y="1.3939062499999724" width="0.4579687499999908" height="0.4579687499999908" fill="#252525" />
<rect x="0.46796874999999083" y="1.3939062499999724" width="0.4579687499999908" height="0.4579687499999908" fill="#252525" />
<rect x="0.9309374999999817" y="1.3939062499999724" width="0.4579687499999908" height="0.4579687499999908" fill="#252525" />
<rect x="1.3939062499999724" y="1.3939062499999724" width="0.4579687499999908" height="0.4579687499999908" fill="#252525" />
<rect x="1.8568749999999632" y="1.3939062499999724" width="0.4579687499999908" height="0.4579687499999908" fill="#252525" />
<rect x="2.3198437499999542" y="1.3939062499999724" width="0.4579687499999908" height="0.4579687499999908" fill="#54D2EB" />
<rect x="2.782812499999945" y="1.3939062499999724" width="0.4579687499999908" height="0.4579687499999908" fill="#252525" />
<rect x="3.2457812499999354" y="1.3939062499999724" width="0.4579687499999908" height="0.4579687499999908" fill="#37D449" />
<rect x="3.7087499999999265" y="1.3939062499999724" width="0.4579687499999908" height="0.4579687499999908" fill="#37D449" />
<rect x="4.1717187499999175" y="1.3939062499999724" width="0.4579687499999908" height="0.4579687499999908" fill="#37D449" />
<rect x="4.634687499999909" y="1.3939062499999724" width="0.4579687499999908" height="0.4579687499999908" fill="#FF4136" />
<rect x="5.097656249999899" y="1.3939062499999724" width="0.4579687499999908" height="0.4579687499999908" fill="#252525" />
<rect x="5.56062499999989" y="1.3939062499999724" width="0.4579687499999908" height="0.4579687499999908" fill="#252525" />
<rect x="6.023593749999881" y="1.3939062499999724" width="0.4579687499999908" height="0.4579687499999908" fill="#252525" />
<rect x="6.486562499999871" y="1.3939062499999724" width="0.4579687499999908" height="0.4579687499999908" fill="#252525" />
<rect x="6.949531249999862" y="1.3939062499999724" width="0.4579687499999908" height="0.4579687499999908" fill="#252525" />
<rect x="-0.02666666666666667" y="-0.02666666666666667" width="7.460833333333187" height="1.9052083333332965" fill="none" stroke="#111111ff" stroke-width="0.08" />
<text x="7.407499999999853" y="2.3206249999999633" font-size="0.375" fill="black" text-anchor="end" font-family="Anuphan">16x4</text>
<text x="-0.037500000000000006" y="2.3206249999999633" font-size="0.375" fill="black" text-anchor="start" font-family="Anuphan" font-weight="600">Output 1</text>
</g>
<g id="d5">
<rect x="0.005" y="0.005" width="0.31249999999999545" height="0.31249999999999545" fill="#252525" />
<rect x="0.32249999999999546" y="0.005" width="0.31249999999999545" height="0.31249999999999545" fill="#252525" />
<rect x="0.6399999999999909" y="0.005" width="0.31249999999999545" height="0.31249999999999545" fill="#252525" />
<rect x="0.9574999999999864" y="0.005" width="0.31249999999999545" height="0.31249999999999545" fill="#252525" />
<rect x="1.2749999999999817" y="0.005" width="0.31249999999999545" height="0.31249999999999545" fill="#252525" />
<rect x="0.005" y="0.32249999999999546" width="0.31249999999999545" height="0.31249999999999545" fill="#252525" />
<rect x="0.32249999999999546" y="0.32249999999999546" width="0.31249999999999545" height="0.31249999999999545" fill="#252525" />
<rect x="0.6399999999999909" y="0.32249999999999546" width="0.31249999999999545" height="0.31249999999999545" fill="#252525" />
<rect x="0.9574999999999864" y="0.32249999999999546" width="0.31249999999999545" height="0.31249999999999545" fill="#252525" />
<rect x="1.2749999999999817" y="0.32249999999999546" width="0.31249999999999545" height="0.31249999999999545" fill="#252525" />
<rect x="0.005" y="0.6399999999999909" width="0.31249999999999545" height="0.31249999999999545" fill="#252525" />
<rect x="0.32249999999999546" y="0.6399999999999909" width="0.31249999999999545" height="0.31249999999999545" fill="#252525" />
<rect x="0.6399999999999909" y="0.6399999999999909" width="0.31249999999999545" height="0.31249999999999545" fill="#252525" />
<rect x="0.9574999999999864" y="0.6399999999999909" width="0.31249999999999545" height="0.31249999999999545" fill="#252525" />
<rect x="1.2749999999999817" y="0.6399999999999909" width="0.31249999999999545" height="0.31249999999999545" fill="#252525" />
<rect x="0.005" y="0.9574999999999864" width="0.31249999999999545" height="0.31249999999999545" fill="#252525" />
<rect x="0.32249999999999546" y="0.9574999999999864" width="0.31249999999999545" height="0.31249999999999545" fill="#252525" />
<rect x="0.6399999999999909" y="0.9574999999999864" width="0.31249999999999545" height="0.31249999999999545" fill="#252525" />
<rect x="0.9574999999999864" y="0.9574999999999864" width="0.31249999999999545" height="0.31249999999999545" fill="#252525" />
<rect x="1.2749999999999817" y="0.9574999999999864" width="0.31249999999999545" height="0.31249999999999545" fill="#252525" />
<rect x="0.005" y="1.2749999999999817" width="0.31249999999999545" height="0.31249999999999545" fill="#252525" />
<rect x="0.32249999999999546" y="1.2749999999999817" width="0.31249999999999545" height="0.31249999999999545" fill="#252525" />
<rect x="0.6399999999999909" y="1.2749999999999817" width="0.31249999999999545" height="0.31249999999999545" fill="#252525" />
<rect x="0.9574999999999864" y="1.2749999999999817" width="0.31249999999999545" height="0.31249999999999545" fill="#252525" />
<rect x="1.2749999999999817" y="1.2749999999999817" width="0.31249999999999545" height="0.31249999999999545" fill="#252525" />
<rect x="0.005" y="1.5924999999999772" width="0.31249999999999545" height="0.31249999999999545" fill="#252525" />
<rect x="0.32249999999999546" y="1.5924999999999772" width="0.31249999999999545" height="0.31249999999999545" fill="#252525" />
<rect x="0.6399999999999909" y="1.5924999999999772" width="0.31249999999999545" height="0.31249999999999545" fill="#252525" />
<rect x="0.9574999999999864" y="1.5924999999999772" width="0.31249999999999545" height="0.31249999999999545" fill="#252525" />
<rect x="1.2749999999999817" y="1.5924999999999772" width="0.31249999999999545" height="0.31249999999999545" fill="#252525" />
<rect x="0.005" y="1.9099999999999726" width="0.31249999999999545" height="0.31249999999999545" fill="#252525" />
<rect x="0.32249999999999546" y="1.9099999999999726" width="0.31249999999999545" height="0.31249999999999545" fill="#252525" />
<rect x="0.6399999999999909" y="1.9099999999999726" width="0.31249999999999545" height="0.31249999999999545" fill="#252525" />
<rect x="0.9574999999999864" y="1.9099999999999726" width="0.31249999999999545" height="0.31249999999999545" fill="#252525" />
<rect x="1.2749999999999817" y="1.9099999999999726" width="0.31249999999999545" height="0.31249999999999545" fill="#252525" />
<rect x="0.005" y="2.227499999999968" width="0.31249999999999545" height="0.31249999999999545" fill="#252525" />
<rect x="0.32249999999999546" y="2.227499999999968" width="0.31249999999999545" height="0.31249999999999545" fill="#252525" />
<rect x="0.6399999999999909" y="2.227499999999968" width="0.31249999999999545" height="0.31249999999999545" fill="#252525" />
<rect x="0.9574999999999864" y="2.227499999999968" width="0.31249999999999545" height="0.31249999999999545" fill="#252525" />
<rect x="1.2749999999999817" y="2.227499999999968" width="0.31249999999999545" height="0.31249999999999545" fill="#252525" />
<rect x="0.005" y="2.5449999999999635" width="0.31249999999999545" height="0.31249999999999545" fill="#252525" />
<rect x="0.32249999999999546" y="2.5449999999999635" width="0.31249999999999545" height="0.31249999999999545" fill="#252525" />
<rect x="0.6399999999999909" y="2.5449999999999635" width="0.31249999999999545" height="0.31249999999999545" fill="#252525" />
<rect x="0.9574999999999864" y="2.5449999999999635" width="0.31249999999999545" height="0.31249999999999545" fill="#252525" />
<rect x="1.2749999999999817" y="2.5449999999999635" width="0.31249999999999545" height="0.31249999999999545" fill="#252525" />
<rect x="0.005" y="2.862499999999959" width="0.31249999999999545" height="0.31249999999999545" fill="#252525" />
<rect x="0.32249999999999546" y="2.862499999999959" width="0.31249999999999545" height="0.31249999999999545" fill="#252525" />
<rect x="0.6399999999999909" y="2.862499999999959" width="0.31249999999999545" height="0.31249999999999545" fill="#252525" />
<rect x="0.9574999999999864" y="2.862499999999959" width="0.31249999999999545" height="0.31249999999999545" fill="#252525" />
<rect x="1.2749999999999817" y="2.862499999999959" width="0.31249999999999545" height="0.31249999999999545" fill="#252525" />
<rect x="0.005" y="3.1799999999999544" width="0.31249999999999545" height="0.31249999999999545" fill="#54D2EB" />
<rect x="0.32249999999999546" y="3.1799999999999544" width="0.31249999999999545" height="0.31249999999999545" fill="#54D2EB" />
<rect x="0.6399999999999909" y="3.1799999999999544" width="0.31249999999999545" height="0.31249999999999545" fill="#54D2EB" />
<rect x="0.9574999999999864" y="3.1799999999999544" width="0.31249999999999545" height="0.31249999999999545" fill="#54D2EB" />
<rect x="1.2749999999999817" y="3.1799999999999544" width="0.31249999999999545" height="0.31249999999999545" fill="#54D2EB" />
<rect x="0.005" y="3.49749999999995" width="0.31249999999999545" height="0.31249999999999545" fill="#37D449" />
<rect x="0.32249999999999546" y="3.49749999999995" width="0.31249999999999545" height="0.31249999999999545" fill="#37D449" />
<rect x="0.6399999999999909" y="3.49749999999995" width="0.31249999999999545" height="0.31249999999999545" fill="#252525" />
<rect x="0.9574999999999864" y="3.49749999999995" width="0.31249999999999545" height="0.31249999999999545" fill="#252525" />
<rect x="1.2749999999999817" y="3.49749999999995" width="0.31249999999999545" height="0.31249999999999545" fill="#252525" />
<rect x="0.005" y="3.8149999999999453" width="0.31249999999999545" height="0.31249999999999545" fill="#37D449" />
<rect x="0.32249999999999546" y="3.8149999999999453" width="0.31249999999999545" height="0.31249999999999545" fill="#252525" />
<rect x="0.6399999999999909" y="3.8149999999999453" width="0.31249999999999545" height="0.31249999999999545" fill="#252525" />
<rect x="0.9574999999999864" y="3.8149999999999453" width="0.31249999999999545" height="0.31249999999999545" fill="#252525" />
<rect x="1.2749999999999817" y="3.8149999999999453" width="0.31249999999999545" height="0.31249999999999545" fill="#252525" />
<rect x="0.005" y="4.132499999999941" width="0.31249999999999545" height="0.31249999999999545" fill="#37D449" />
<rect x="0.32249999999999546" y="4.132499999999941" width="0.31249999999999545" height="0.31249999999999545" fill="#37D449" />
<rect x="0.6399999999999909" y="4.132499999999941" width="0.31249999999999545" height="0.31249999999999545" fill="#252525" />
<rect x="0.9574999999999864" y="4.132499999999941" width="0.31249999999999545" height="0.31249999999999545" fill="#37D449" />
<rect x="1.2749999999999817" y="4.132499999999941" width="0.31249999999999545" height="0.31249999999999545" fill="#37D449" />
<rect x="0.005" y="4.449999999999936" width="0.31249999999999545" height="0.31249999999999545" fill="#252525" />
<rect x="0.32249999999999546" y="4.449999999999936" width="0.31249999999999545" height="0.31249999999999545" fill="#37D449" />
<rect x="0.6399999999999909" y="4.449999999999936" width="0.31249999999999545" height="0.31249999999999545" fill="#37D449" />
<rect x="0.9574999999999864" y="4.449999999999936" width="0.31249999999999545" height="0.31249999999999545" fill="#37D449" />
<rect x="1.2749999999999817" y="4.449999999999936" width="0.31249999999999545" height="0.31249999999999545" fill="#252525" />
<rect x="0.005" y="4.767499999999932" width="0.31249999999999545" height="0.31249999999999545" fill="#FF4136" />
<rect x="0.32249999999999546" y="4.767499999999932" width="0.31249999999999545" height="0.31249999999999545" fill="#FF4136" />
<rect x="0.6399999999999909" y="4.767499999999932" width="0.31249999999999545" height="0.31249999999999545" fill="#FF4136" />
<rect x="0.9574999999999864" y="4.767499999999932" width="0.31249999999999545" height="0.31249999999999545" fill="#FF4136" />
<rect x="1.2749999999999817" y="4.767499999999932" width="0.31249999999999545" height="0.31249999999999545" fill="#FF4136" />
<rect x="0.005" y="5.084999999999927" width="0.31249999999999545" height="0.31249999999999545" fill="#252525" />
<rect x="0.32249999999999546" y="5.084999999999927" width="0.31249999999999545" height="0.31249999999999545" fill="#252525" />
<rect x="0.6399999999999909" y="5.084999999999927" width="0.31249999999999545" height="0.31249999999999545" fill="#252525" />
<rect x="0.9574999999999864" y="5.084999999999927" width="0.31249999999999545" height="0.31249999999999545" fill="#252525" />
<rect x="1.2749999999999817" y="5.084999999999927" width="0.31249999999999545" height="0.31249999999999545" fill="#252525" />
<rect x="-0.02666666666666667" y="-0.02666666666666667" width="1.6408333333333105" height="5.450833333333256" fill="none" stroke="#111111ff" stroke-width="0.08" />
<text x="1.5874999999999773" y="5.866249999999923" font-size="0.375" fill="black" text-anchor="end" font-family="Anuphan">5x17</text>
<text x="-0.037500000000000006" y="5.866249999999923" font-size="0.375" fill="black" text-anchor="start" font-family="Anuphan" font-weight="600">Output 2</text>
</g>
<g id="d6">
<rect x="0.005" y="0.005" width="0.31249999999999545" height="0.31249999999999545" fill="#252525" />
<rect x="0.32249999999999546" y="0.005" width="0.31249999999999545" height="0.31249999999999545" fill="#252525" />
<rect x="0.6399999999999909" y="0.005" width="0.31249999999999545" height="0.31249999999999545" fill="#252525" />
<rect x="0.9574999999999864" y="0.005" width="0.31249999999999545" height="0.31249999999999545" fill="#252525" />
<rect x="1.2749999999999817" y="0.005" width="0.31249999999999545" height="0.31249999999999545" fill="#252525" />
<rect x="0.005" y="0.32249999999999546" width="0.31249999999999545" height="0.31249999999999545" fill="#252525" />
<rect x="0.32249999999999546" y="0.32249999999999546" width="0.31249999999999545" height="0.31249999999999545" fill="#252525" />
<rect x="0.6399999999999909" y="0.32249999999999546" width="0.31249999999999545" height="0.31249999999999545" fill="#252525" />
<rect x="0.9574999999999864" y="0.32249999999999546" width="0.31249999999999545" height="0.31249999999999545" fill="#252525" />
<rect x="1.2749999999999817" y="0.32249999999999546" width="0.31249999999999545" height="0.31249999999999545" fill="#252525" />
<rect x="0.005" y="0.6399999999999909" width="0.31249999999999545" height="0.31249999999999545" fill="#252525" />
<rect x="0.32249999999999546" y="0.6399999999999909" width="0.31249999999999545" height="0.31249999999999545" fill="#252525" />
<rect x="0.6399999999999909" y="0.6399999999999909" width="0.31249999999999545" height="0.31249999999999545" fill="#252525" />
<rect x="0.9574999999999864" y="0.6399999999999909" width="0.31249999999999545" height="0.31249999999999545" fill="#252525" />
<rect x="1.2749999999999817" y="0.6399999999999909" width="0.31249999999999545" height="0.31249999999999545" fill="#252525" />
<rect x="0.005" y="0.9574999999999864" width="0.31249999999999545" height="0.31249999999999545" fill="#FF4136" />
<rect x="0.32249999999999546" y="0.9574999999999864" width="0.31249999999999545" height="0.31249999999999545" fill="#FF4136" />
<rect x="0.6399999999999909" y="0.9574999999999864" width="0.31249999999999545" height="0.31249999999999545" fill="#FF4136" />
<rect x="0.9574999999999864" y="0.9574999999999864" width="0.31249999999999545" height="0.31249999999999545" fill="#FF4136" />
<rect x="1.2749999999999817" y="0.9574999999999864" width="0.31249999999999545" height="0.31249999999999545" fill="#FF4136" />
<rect x="0.005" y="1.2749999999999817" width="0.31249999999999545" height="0.31249999999999545" fill="#37D449" />
<rect x="0.32249999999999546" y="1.2749999999999817" width="0.31249999999999545" height="0.31249999999999545" fill="#37D449" />
<rect x="0.6399999999999909" y="1.2749999999999817" width="0.31249999999999545" height="0.31249999999999545" fill="#37D449" />
<rect x="0.9574999999999864" y="1.2749999999999817" width="0.31249999999999545" height="0.31249999999999545" fill="#37D449" />
<rect x="1.2749999999999817" y="1.2749999999999817" width="0.31249999999999545" height="0.31249999999999545" fill="#252525" />
<rect x="0.005" y="1.5924999999999772" width="0.31249999999999545" height="0.31249999999999545" fill="#37D449" />
<rect x="0.32249999999999546" y="1.5924999999999772" width="0.31249999999999545" height="0.31249999999999545" fill="#252525" />
<rect x="0.6399999999999909" y="1.5924999999999772" width="0.31249999999999545" height="0.31249999999999545" fill="#252525" />
<rect x="0.9574999999999864" y="1.5924999999999772" width="0.31249999999999545" height="0.31249999999999545" fill="#37D449" />
<rect x="1.2749999999999817" y="1.5924999999999772" width="0.31249999999999545" height="0.31249999999999545" fill="#252525" />
<rect x="0.005" y="1.9099999999999726" width="0.31249999999999545" height="0.31249999999999545" fill="#37D449" />
<rect x="0.32249999999999546" y="1.9099999999999726" width="0.31249999999999545" height="0.31249999999999545" fill="#37D449" />
<rect x="0.6399999999999909" y="1.9099999999999726" width="0.31249999999999545" height="0.31249999999999545" fill="#252525" />
<rect x="0.9574999999999864" y="1.9099999999999726" width="0.31249999999999545" height="0.31249999999999545" fill="#37D449" />
<rect x="1.2749999999999817" y="1.9099999999999726" width="0.31249999999999545" height="0.31249999999999545" fill="#252525" />
<rect x="0.005" y="2.227499999999968" width="0.31249999999999545" height="0.31249999999999545" fill="#54D2EB" />
<rect x="0.32249999999999546" y="2.227499999999968" width="0.31249999999999545" height="0.31249999999999545" fill="#54D2EB" />
<rect x="0.6399999999999909" y="2.227499999999968" width="0.31249999999999545" height="0.31249999999999545" fill="#54D2EB" />
<rect x="0.9574999999999864" y="2.227499999999968" width="0.31249999999999545" height="0.31249999999999545" fill="#54D2EB" />
<rect x="1.2749999999999817" y="2.227499999999968" width="0.31249999999999545" height="0.31249999999999545" fill="#54D2EB" />
<rect x="0.005" y="2.5449999999999635" width="0.31249999999999545" height="0.31249999999999545" fill="#252525" />
<rect x="0.32249999999999546" y="2.5449999999999635" width="0.31249999999999545" height="0.31249999999999545" fill="#252525" />
<rect x="0.6399999999999909" y="2.5449999999999635" width="0.31249999999999545" height="0.31249999999999545" fill="#252525" />
<rect x="0.9574999999999864" y="2.5449999999999635" width="0.31249999999999545" height="0.31249999999999545" fill="#252525" />
<rect x="1.2749999999999817" y="2.5449999999999635" width="0.31249999999999545" height="0.31249999999999545" fill="#252525" />
<rect x="0.005" y="2.862499999999959" width="0.31249999999999545" height="0.31249999999999545" fill="#252525" />
<rect x="0.32249999999999546" y="2.862499999999959" width="0.31249999999999545" height="0.31249999999999545" fill="#252525" />
<rect x="0.6399999999999909" y="2.862499999999959" width="0.31249999999999545" height="0.31249999999999545" fill="#252525" />
<rect x="0.9574999999999864" y="2.862499999999959" width="0.31249999999999545" height="0.31249999999999545" fill="#252525" />
<rect x="1.2749999999999817" y="2.862499999999959" width="0.31249999999999545" height="0.31249999999999545" fill="#252525" />
<rect x="0.005" y="3.1799999999999544" width="0.31249999999999545" height="0.31249999999999545" fill="#252525" />
<rect x="0.32249999999999546" y="3.1799999999999544" width="0.31249999999999545" height="0.31249999999999545" fill="#252525" />
<rect x="0.6399999999999909" y="3.1799999999999544" width="0.31249999999999545" height="0.31249999999999545" fill="#252525" />
<rect x="0.9574999999999864" y="3.1799999999999544" width="0.31249999999999545" height="0.31249999999999545" fill="#252525" />
<rect x="1.2749999999999817" y="3.1799999999999544" width="0.31249999999999545" height="0.31249999999999545" fill="#252525" />
<rect x="0.005" y="3.49749999999995" width="0.31249999999999545" height="0.31249999999999545" fill="#252525" />
<rect x="0.32249999999999546" y="3.49749999999995" width="0.31249999999999545" height="0.31249999999999545" fill="#252525" />
<rect x="0.6399999999999909" y="3.49749999999995" width="0.31249999999999545" height="0.31249999999999545" fill="#252525" />
<rect x="0.9574999999999864" y="3.49749999999995" width="0.31249999999999545" height="0.31249999999999545" fill="#252525" />
<rect x="1.2749999999999817" y="3.49749999999995" width="0.31249999999999545" height="0.31249999999999545" fill="#252525" />
<rect x="0.005" y="3.8149999999999453" width="0.31249999999999545" height="0.31249999999999545" fill="#252525" />
<rect x="0.32249999999999546" y="3.8149999999999453" width="0.31249999999999545" height="0.31249999999999545" fill="#252525" />
<rect x="0.6399999999999909" y="3.8149999999999453" width="0.31249999999999545" height="0.31249999999999545" fill="#252525" />
<rect x="0.9574999999999864" y="3.8149999999999453" width="0.31249999999999545" height="0.31249999999999545" fill="#252525" />
<rect x="1.2749999999999817" y="3.8149999999999453" width="0.31249999999999545" height="0.31249999999999545" fill="#252525" />
<rect x="0.005" y="4.132499999999941" width="0.31249999999999545" height="0.31249999999999545" fill="#252525" />
<rect x="0.32249999999999546" y="4.132499999999941" width="0.31249999999999545" height="0.31249999999999545" fill="#252525" />
<rect x="0.6399999999999909" y="4.132499999999941" width="0.31249999999999545" height="0.31249999999999545" fill="#252525" />
<rect x="0.9574999999999864" y="4.132499999999941" width="0.31249999999999545" height="0.31249999999999545" fill="#252525" />
<rect x="1.2749999999999817" y="4.132499999999941" width="0.31249999999999545" height="0.31249999999999545" fill="#252525" />
<rect x="0.005" y="4.449999999999936" width="0.31249999999999545" height="0.31249999999999545" fill="#252525" />
<rect x="0.32249999999999546" y="4.449999999999936" width="0.31249999999999545" height="0.31249999999999545" fill="#252525" />
<rect x="0.6399999999999909" y="4.449999999999936" width="0.31249999999999545" height="0.31249999999999545" fill="#252525" />
<rect x="0.9574999999999864" y="4.449999999999936" width="0.31249999999999545" height="0.31249999999999545" fill="#252525" />
<rect x="1.2749999999999817" y="4.449999999999936" width="0.31249999999999545" height="0.31249999999999545" fill="#252525" />
<rect x="0.005" y="4.767499999999932" width="0.31249999999999545" height="0.31249999999999545" fill="#252525" />
<rect x="0.32249999999999546" y="4.767499999999932" width="0.31249999999999545" height="0.31249999999999545" fill="#252525" />
<rect x="0.6399999999999909" y="4.767499999999932" width="0.31249999999999545" height="0.31249999999999545" fill="#252525" />
<rect x="0.9574999999999864" y="4.767499999999932" width="0.31249999999999545" height="0.31249999999999545" fill="#252525" />
<rect x="1.2749999999999817" y="4.767499999999932" width="0.31249999999999545" height="0.31249999999999545" fill="#252525" />
<rect x="0.005" y="5.084999999999927" width="0.31249999999999545" height="0.31249999999999545" fill="#252525" />
<rect x="0.32249999999999546" y="5.084999999999927" width="0.31249999999999545" height="0.31249999999999545" fill="#252525" />
<rect x="0.6399999999999909" y="5.084999999999927" width="0.31249999999999545" height="0.31249999999999545" fill="#252525" />
<rect x="0.9574999999999864" y="5.084999999999927" width="0.31249999999999545" height="0.31249999999999545" fill="#252525" />
<rect x="1.2749999999999817" y="5.084999999999927" width="0.31249999999999545" height="0.31249999999999545" fill="#252525" />
<rect x="-0.02666666666666667" y="-0.02666666666666667" width="1.6408333333333105" height="5.450833333333256" fill="none" stroke="#111111ff" stroke-width="0.08" />
<text x="1.5874999999999773" y="5.866249999999923" font-size="0.375" fill="black" text-anchor="end" font-family="Anuphan">5x17</text>
<text x="-0.037500000000000006" y="5.866249999999923" font-size="0.375" fill="black" text-anchor="start" font-family="Anuphan" font-weight="600">Output 3</text>
</g>
</defs>
<rect x="0" y="0" width="100%" height="100%" fill="#eeeff6" />
<use xlink:href="#d0" x="0.25" y="0.25" />
<use xlink:href="#d1" x="8.157499999999853" y="0.25" />
<use xlink:href="#d2" x="10.24499999999983" y="0.25" />
<use xlink:href="#d3" x="12.332499999999808" y="0.25" />
<path d="M3.9537499999999266,6.297499999999923 L3.9537499999999266,6.697499999999923" stroke-width="0.05" stroke="#888888" />
<path d="M3.8037499999999267,6.497499999999923 L3.9537499999999266,6.697499999999923" stroke-width="0.05" stroke="#888888" />
<path d="M4.103749999999927,6.497499999999923 L3.9537499999999266,6.697499999999923" stroke-width="0.05" stroke="#888888" />
<use xlink:href="#d4" x="0.25" y="7.047499999999923" />
<path d="M8.951249999999842,6.297499999999923 L8.951249999999842,6.697499999999923" stroke-width="0.05" stroke="#888888" />
<path d="M8.801249999999841,6.497499999999923 L8.951249999999842,6.697499999999923" stroke-width="0.05" stroke="#888888" />
<path d="M9.101249999999842,6.497499999999923 L8.951249999999842,6.697499999999923" stroke-width="0.05" stroke="#888888" />
<use xlink:href="#d5" x="8.157499999999853" y="7.047499999999923" />
<path d="M11.038749999999819,6.297499999999923 L11.038749999999819,6.697499999999923" stroke-width="0.05" stroke="#888888" />
<path d="M10.888749999999819,6.497499999999923 L11.038749999999819,6.697499999999923" stroke-width="0.05" stroke="#888888" />
<path d="M11.18874999999982,6.497499999999923 L11.038749999999819,6.697499999999923" stroke-width="0.05" stroke="#888888" />
<use xlink:href="#d6" x="10.24499999999983" y="7.047499999999923" />
<path d="M16.036249999999733,6.297499999999923 L16.036249999999733,6.697499999999923" stroke-width="0.05" stroke="#888888" />
<path d="M15.886249999999732,6.497499999999923 L16.036249999999733,6.697499999999923" stroke-width="0.05" stroke="#888888" />
<path d="M16.18624999999973,6.497499999999923 L16.036249999999733,6.697499999999923" stroke-width="0.05" stroke="#888888" />
<text x="16.036249999999733" y="7.970555555555462" font-size="1" font-family="Anuphan" font-weight="700" fill="#333333" text-anchor="middle" alignment-baseline="middle">?</text>
<text x="19.9" y="13.299999999999999" font-size="0.3" font-family="Anuphan" font-weight="600" fill="#666666" text-anchor="end" alignment-baseline="bottom">Task 56dc2b01</text>
</svg>