<?xml version="1.0" encoding="UTF-8"?>
<svg xmlns="http://www.w3.org/2000/svg" xmlns:xlink="http://www.w3.org/1999/xlink"
     width="800.0" height="536.0" viewBox="0 0 20.0 13.399999999999999">
<defs>
<g id="d0">
<rect x="0.005" y="0.005" width="0.3816025641025534" height="0.3816025641025534" fill="#252525" />
<rect x="0.3916025641025534" y="0.005" width="0.3816025641025534" height="0.3816025641025534" fill="#252525" />
<rect x="0.7782051282051068" y="0.005" width="0.3816025641025534" height="0.3816025641025534" fill="#252525" />
<rect x="1.16480769230766" y="0.005" width="0.3816025641025534" height="0.3816025641025534" fill="#252525" />
<rect x="1.5514102564102135" y="0.005" width="0.3816025641025534" height="0.3816025641025534" fill="#252525" />
<rect x="1.938012820512767" y="0.005" width="0.3816025641025534" height="0.3816025641025534" fill="#252525" />
<rect x="2.32461538461532" y="0.005" width="0.3816025641025534" height="0.3816025641025534" fill="#252525" />
<rect x="2.7112179487178736" y="0.005" width="0.3816025641025534" height="0.3816025641025534" fill="#252525" />
<rect x="3.097820512820427" y="0.005" width="0.3816025641025534" height="0.3816025641025534" fill="#252525" />
<rect x="3.4844230769229805" y="0.005" width="0.3816025641025534" height="0.3816025641025534" fill="#252525" />
<rect x="3.871025641025534" y="0.005" width="0.3816025641025534" height="0.3816025641025534" fill="#252525" />
<rect x="4.257628205128087" y="0.005" width="0.3816025641025534" height="0.3816025641025534" fill="#252525" />
<rect x="4.64423076923064" y="0.005" width="0.3816025641025534" height="0.3816025641025534" fill="#252525" />
<rect x="0.005" y="0.3916025641025534" width="0.3816025641025534" height="0.3816025641025534" fill="#252525" />
<rect x="0.3916025641025534" y="0.3916025641025534" width="0.3816025641025534" height="0.3816025641025534" fill="#252525" />
<rect x="0.7782051282051068" y="0.3916025641025534" width="0.3816025641025534" height="0.3816025641025534" fill="#252525" />
<rect x="1.16480769230766" y="0.3916025641025534" width="0.3816025641025534" height="0.3816025641025534" fill="#252525" />
<rect x="1.5514102564102135" y="0.3916025641025534" width="0.3816025641025534" height="0.3816025641025534" fill="#252525" />
<rect x="1.938012820512767" y="0.3916025641025534" width="0.3816025641025534" height="0.3816025641025534" fill="#252525" />
<rect x="2.32461538461532" y="0.3916025641025534" width="0.3816025641025534" height="0.3816025641025534" fill="#252525" />
<rect x="2.7112179487178736" y="0.3916025641025534" width="0.3816025641025534" height="0.3816025641025534" fill="#252525" />
<rect x="3.097820512820427" y="0.3916025641025534" width="0.3816025641025534" height="0.3816025641025534" fill="#252525" />
<rect x="3.4844230769229805" y="0.3916025641025534" width="0.3816025641025534" height="0.3816025641025534" fill="#252525" />
<rect x="3.871025641025534" y="0.3916025641025534" width="0.3816025641025534" height="0.3816025641025534" fill="#252525" />
<rect x="4.257628205128087" y="0.3916025641025534" width="0.3816025641025534" height="0.3816025641025534" fill="#252525" />
<rect x="4.64423076923064" y="0.3916025641025534" width="0.3816025641025534" height="0.3816025641025534" fill="#252525" />
<rect x="0.005" y="0.7782051282051068" width="0.3816025641025534" height="0.3816025641025534" fill="#FF4136" />
<rect x="0.3916025641025534" y="0.7782051282051068" width="0.3816025641025534" height="0.3816025641025534" fill="#FF4136" />
<rect x="0.7782051282051068" y="0.7782051282051068" width="0.3816025641025534" height="0.3816025641025534" fill="#FF4136" />
<rect x="1.16480769230766" y="0.7782051282051068" width="0.3816025641025534" height="0.3816025641025534" fill="#252525" />
<rect x="1.5514102564102135" y="0.7782051282051068" width="0.3816025641025534" height="0.3816025641025534" fill="#252525" />
<rect x="1.938012820512767" y="0.7782051282051068" width="0.3816025641025534" height="0.3816025641025534" fill="#252525" />
<rect x="2.32461538461532" y="0.7782051282051068" width="0.3816025641025534" height="0.3816025641025534" fill="#252525" />
<rect x="2.7112179487178736" y="0.7782051282051068" width="0.3816025641025534" height="0.3816025641025534" fill="#252525" />
<rect x="3.097820512820427" y="0.7782051282051068" width="0.3816025641025534" height="0.3816025641025534" fill="#252525" />
<rect x="3.4844230769229805" y="0.7782051282051068" width="0.3816025641025534" height="0.3816025641025534" fill="#252525" />
<rect x="3.871025641025534" y="0.7782051282051068" width="0.3816025641025534" height="0.3816025641025534" fill="#252525" />
<rect x="4.257628205128087" y="0.7782051282051068" width="0.3816025641025534" height="0.3816025641025534" fill="#252525" />
<rect x="4.64423076923064" y="0.7782051282051068" width="0.3816025641025534" height="0.3816025641025534" fill="#252525" />
<rect x="0.005" y="1.16480769230766" width="0.3816025641025534" height="0.3816025641025534" fill="#FF4136" />
<rect x="0.3916025641025534" y="1.16480769230766" width="0.3816025641025534" height="0.3816025641025534" fill="#37D449" />
<rect x="0.7782051282051068" y="1.16480769230766" width="0.3816025641025534" height="0.3816025641025534" fill="#FF4136" />
<rect x="1.16480769230766" y="1.16480769230766" width="0.3816025641025534" height="0.3816025641025534" fill="#37D449" />
<rect x="1.5514102564102135" y="1.16480769230766" width="0.3816025641025534" height="0.3816025641025534" fill="#252525" />
<rect x="1.938012820512767" y="1.16480769230766" width="0.3816025641025534" height="0.3816025641025534" fill="#37D449" />
<rect x="2.32461538461532" y="1.16480769230766" width="0.3816025641025534" height="0.3816025641025534" fill="#252525" />
<rect x="2.7112179487178736" y="1.16480769230766" width="0.3816025641025534" height="0.3816025641025534" fill="#37D449" />
<rect x="3.097820512820427" y="1.16480769230766" width="0.3816025641025534" height="0.3816025641025534" fill="#252525" />
<rect x="3.4844230769229805" y="1.16480769230766" width="0.3816025641025534" height="0.3816025641025534" fill="#37D449" />
<rect x="3.871025641025534" y="1.16480769230766" width="0.3816025641025534" height="0.3816025641025534" fill="#252525" />
<rect x="4.257628205128087" y="1.16480769230766" width="0.3816025641025534" height="0.3816025641025534" fill="#37D449" />
<rect x="4.64423076923064" y="1.16480769230766" width="0.3816025641025534" height="0.3816025641025534" fill="#252525" />
<rect x="0.005" y="1.5514102564102135" width="0.3816025641025534" height="0.3816025641025534" fill="#FF4136" />
<rect x="0.3916025641025534" y="1.5514102564102135" width="0.3816025641025534" height="0.3816025641025534" fill="#FF4136" />
<rect x="0.7782051282051068" y="1.5514102564102135" width="0.3816025641025534" height="0.3816025641025534" fill="#FF4136" />
<rect x="1.16480769230766" y="1.5514102564102135" width="0.3816025641025534" height="0.3816025641025534" fill="#252525" />
<rect x="1.5514102564102135" y="1.5514102564102135" width="0.3816025641025534" height="0.3816025641025534" fill="#252525" />
<rect x="1.938012820512767" y="1.5514102564102135" width="0.3816025641025534" height="0.3816025641025534" fill="#252525" />
<rect x="2.32461538461532" y="1.5514102564102135" width="0.3816025641025534" height="0.3816025641025534" fill="#252525" />
<rect x="2.7112179487178736" y="1.5514102564102135" width="0.3816025641025534" height="0.3816025641025534" fill="#252525" />
<rect x="3.097820512820427" y="1.5514102564102135" width="0.3816025641025534" height="0.3816025641025534" fill="#252525" />
<rect x="3.4844230769229805" y="1.5514102564102135" width="0.3816025641025534" height="0.3816025641025534" fill="#252525" />
<rect x="3.871025641025534" y="1.5514102564102135" width="0.3816025641025534" height="0.3816025641025534" fill="#252525" />
<rect x="4.257628205128087" y="1.5514102564102135" width="0.3816025641025534" height="0.3816025641025534" fill="#252525" />
<rect x="4.64423076923064" y="1.5514102564102135" width="0.3816025641025534" height="0.3816025641025534" fill="#252525" />
<rect x="0.005" y="1.938012820512767" width="0.3816025641025534" height="0.3816025641025534" fill="#252525" />
<rect x="0.3916025641025534" y="1.938012820512767" width="0.3816025641025534" height="0.3816025641025534" fill="#252525" />
<rect x="0.7782051282051068" y="1.938012820512767" width="0.3816025641025534" height="0.3816025641025534" fill="#252525" />
<rect x="1.16480769230766" y="1.938012820512767" width="0.3816025641025534" height="0.3816025641025534" fill="#252525" />
<rect x="1.5514102564102135" y="1.938012820512767" width="0.3816025641025534" height="0.3816025641025534" fill="#252525" />
<rect x="1.938012820512767" y="1.938012820512767" width="0.3816025641025534" height="0.3816025641025534" fill="#252525" />
<rect x="2.32461538461532" y="1.938012820512767" width="0.3816025641025534" height="0.3816025641025534" fill="#252525" />
<rect x="2.7112179487178736" y="1.938012820512767" width="0.3816025641025534" height="0.3816025641025534" fill="#252525" />
<rect x="3.097820512820427" y="1.938012820512767" width="0.3816025641025534" height="0.3816025641025534" fill="#252525" />
<rect x="3.4844230769229805" y="1.938012820512767" width="0.3816025641025534" height="0.3816025641025534" fill="#252525" />
<rect x="3.871025641025534" y="1.938012820512767" width="0.3816025641025534" height="0.3816025641025534" fill="#252525" />
<rect x="4.257628205128087" y="1.938012820512767" width="0.3816025641025534" height="0.3816025641025534" fill="#252525" />
<rect x="4.64423076923064" y="1.938012820512767" width="0.3816025641025534" height="0.3816025641025534" fill="#252525" />
<rect x="0.005" y="2.32461538461532" width="0.3816025641025534" height="0.3816025641025534" fill="#252525" />
<rect x="0.3916025641025534" y="2.32461538461532" width="0.3816025641025534" height="0.3816025641025534" fill="#252525" />
<rect x="0.7782051282051068" y="2.32461538461532" width="0.3816025641025534" height="0.3816025641025534" fill="#252525" />
<rect x="1.16480769230766" y="2.32461538461532" width="0.3816025641025534" height="0.3816025641025534" fill="#252525" />
<rect x="1.5514102564102135" y="2.32461538461532" width="0.3816025641025534" height="0.3816025641025534" fill="#252525" />
<rect x="1.938012820512767" y="2.32461538461532" width="0.3816025641025534" height="0.3816025641025534" fill="#252525" />
<rect x="2.32461538461532" y="2.32461538461532" width="0.3816025641025534" height="0.3816025641025534" fill="#252525" />
<rect x="2.7112179487178736" y="2.32461538461532" width="0.3816025641025534" height="0.3816025641025534" fill="#252525" />
<rect x="3.097820512820427" y="2.32461538461532" width="0.3816025641025534" height="0.3816025641025534" fill="#252525" />
<rect x="3.4844230769229805" y="2.32461538461532" width="0.3816025641025534" height="0.3816025641025534" fill="#252525" />
<rect x="3.871025641025534" y="2.32461538461532" width="0.3816025641025534" height="0.3816025641025534" fill="#252525" />
<rect x="4.257628205128087" y="2.32461538461532" width="0.3816025641025534" height="0.3816025641025534" fill="#252525" />
<rect x="4.64423076923064" y="2.32461538461532" width="0.3816025641025534" height="0.3816025641025534" fill="#252525" />
<rect x="-0.02666666666666667" y="-0.02666666666666667" width="5.079166666666528" height="2.759551282051207" fill="none" stroke="#111111ff" stroke-width="0.08" />
<text x="5.025833333333194" y="3.1749679487178737" font-size="0.375" fill="black" text-anchor="end" font-family="Anuphan">13x7</text>
<text x="-0.037500000000000006" y="3.1749679487178737" font-size="0.375" fill="black" text-anchor="start" font-family="Anuphan" font-weight="600">Input 1</text>
</g>
<g id="d1">
<rect x="0.005" y="0.005" width="0.41107142857142126" height="0.41107142857142126" fill="#252525" />
<rect x="0.42107142857142127" y="0.005" width="0.41107142857142126" height="0.41107142857142126" fill="#252525" />
<rect x="0.8371428571428425" y="0.005" width="0.41107142857142126" height="0.41107142857142126" fill="#252525" />
<rect x="1.2532142857142636" y="0.005" width="0.41107142857142126" height="0.41107142857142126" fill="#252525" />
<rect x="1.669285714285685" y="0.005" width="0.41107142857142126" height="0.41107142857142126" fill="#37D449" />
<rect x="2.0853571428571063" y="0.005" width="0.41107142857142126" height="0.41107142857142126" fill="#252525" />
<rect x="2.5014285714285274" y="0.005" width="0.41107142857142126" height="0.41107142857142126" fill="#252525" />
<rect x="0.005" y="0.42107142857142127" width="0.41107142857142126" height="0.41107142857142126" fill="#252525" />
<rect x="0.42107142857142127" y="0.42107142857142127" width="0.41107142857142126" height="0.41107142857142126" fill="#252525" />
<rect x="0.8371428571428425" y="0.42107142857142127" width="0.41107142857142126" height="0.41107142857142126" fill="#252525" />
<rect x="1.2532142857142636" y="0.42107142857142127" width="0.41107142857142126" height="0.41107142857142126" fill="#252525" />
<rect x="1.669285714285685" y="0.42107142857142127" width="0.41107142857142126" height="0.41107142857142126" fill="#252525" />
<rect x="2.0853571428571063" y="0.42107142857142127" width="0.41107142857142126" height="0.41107142857142126" fill="#252525" />
<rect x="2.5014285714285274" y="0.42107142857142127" width="0.41107142857142126" height="0.41107142857142126" fill="#252525" />
<rect x="0.005" y="0.8371428571428425" width="0.41107142857142126" height="0.41107142857142126" fill="#252525" />
<rect x="0.42107142857142127" y="0.8371428571428425" width="0.41107142857142126" height="0.41107142857142126" fill="#252525" />
<rect x="0.8371428571428425" y="0.8371428571428425" width="0.41107142857142126" height="0.41107142857142126" fill="#252525" />
<rect x="1.2532142857142636" y="0.8371428571428425" width="0.41107142857142126" height="0.41107142857142126" fill="#252525" />
<rect x="1.669285714285685" y="0.8371428571428425" width="0.41107142857142126" height="0.41107142857142126" fill="#37D449" />
<rect x="2.0853571428571063" y="0.8371428571428425" width="0.41107142857142126" height="0.41107142857142126" fill="#252525" />
<rect x="2.5014285714285274" y="0.8371428571428425" width="0.41107142857142126" height="0.41107142857142126" fill="#252525" />
<rect x="0.005" y="1.2532142857142636" width="0.41107142857142126" height="0.41107142857142126" fill="#252525" />
<rect x="0.42107142857142127" y="1.2532142857142636" width="0.41107142857142126" height="0.41107142857142126" fill="#252525" />
<rect x="0.8371428571428425" y="1.2532142857142636" width="0.41107142857142126" height="0.41107142857142126" fill="#252525" />
<rect x="1.2532142857142636" y="1.2532142857142636" width="0.41107142857142126" height="0.41107142857142126" fill="#FF4136" />
<rect x="1.669285714285685" y="1.2532142857142636" width="0.41107142857142126" height="0.41107142857142126" fill="#FF4136" />
<rect x="2.0853571428571063" y="1.2532142857142636" width="0.41107142857142126" height="0.41107142857142126" fill="#FF4136" />
<rect x="2.5014285714285274" y="1.2532142857142636" width="0.41107142857142126" height="0.41107142857142126" fill="#252525" />
<rect x="0.005" y="1.669285714285685" width="0.41107142857142126" height="0.41107142857142126" fill="#252525" />
<rect x="0.42107142857142127" y="1.669285714285685" width="0.41107142857142126" height="0.41107142857142126" fill="#252525" />
<rect x="0.8371428571428425" y="1.669285714285685" width="0.41107142857142126" height="0.41107142857142126" fill="#252525" />
<rect x="1.2532142857142636" y="1.669285714285685" width="0.41107142857142126" height="0.41107142857142126" fill="#FF4136" />
<rect x="1.669285714285685" y="1.669285714285685" width="0.41107142857142126" height="0.41107142857142126" fill="#37D449" />
<rect x="2.0853571428571063" y="1.669285714285685" width="0.41107142857142126" height="0.41107142857142126" fill="#FF4136" />
<rect x="2.5014285714285274" y="1.669285714285685" width="0.41107142857142126" height="0.41107142857142126" fill="#252525" />
<rect x="0.005" y="2.0853571428571063" width="0.41107142857142126" height="0.41107142857142126" fill="#252525" />
<rect x="0.42107142857142127" y="2.0853571428571063" width="0.41107142857142126" height="0.41107142857142126" fill="#252525" />
<rect x="0.8371428571428425" y="2.0853571428571063" width="0.41107142857142126" height="0.41107142857142126" fill="#252525" />
<rect x="1.2532142857142636" y="2.0853571428571063" width="0.41107142857142126" height="0.41107142857142126" fill="#FF4136" />
<rect x="1.669285714285685" y="2.0853571428571063" width="0.41107142857142126" height="0.41107142857142126" fill="#FF4136" />
<rect x="2.0853571428571063" y="2.0853571428571063" width="0.41107142857142126" height="0.41107142857142126" fill="#FF4136" />
<rect x="2.5014285714285274" y="2.0853571428571063" width="0.41107142857142126" height="0.41107142857142126" fill="#252525" />
<rect x="0.005" y="2.5014285714285274" width="0.41107142857142126" height="0.41107142857142126" fill="#252525" />
<rect x="0.42107142857142127" y="2.5014285714285274" width="0.41107142857142126" height="0.41107142857142126" fill="#252525" />
<rect x="0.8371428571428425" y="2.5014285714285274" width="0.41107142857142126" height="0.41107142857142126" fill="#252525" />
<rect x="1.2532142857142636" y="2.5014285714285274" width="0.41107142857142126" height="0.41107142857142126" fill="#252525" />
<rect x="1.669285714285685" y="2.5014285714285274" width="0.41107142857142126" height="0.41107142857142126" fill="#37D449" />
<rect x="2.0853571428571063" y="2.5014285714285274" width="0.41107142857142126" height="0.41107142857142126" fill="#252525" />
<rect x="2.5014285714285274" y="2.5014285714285274" width="0.41107142857142126" height="0.41107142857142126" fill="#252525" />
<rect x="0.005" y="2.917499999999949" width="0.41107142857142126" height="0.41107142857142126" fill="#252525" />
<rect x="0.42107142857142127" y="2.917499999999949" width="0.41107142857142126" height="0.41107142857142126" fill="#252525" />
<rect x="0.8371428571428425" y="2.917499999999949" width="0.41107142857142126" height="0.41107142857142126" fill="#252525" />
<rect x="1.2532142857142636" y="2.917499999999949" width="0.41107142857142126" height="0.41107142857142126" fill="#252525" />
<rect x="1.669285714285685" y="2.917499999999949" width="0.41107142857142126" height="0.41107142857142126" fill="#252525" />
<rect x="2.0853571428571063" y="2.917499999999949" width="0.41107142857142126" height="0.41107142857142126" fill="#252525" />
<rect x="2.5014285714285274" y="2.917499999999949" width="0.41107142857142126" height="0.41107142857142126" fill="#252525" />
<rect x="0.005" y="3.33357142857137" width="0.41107142857142126" height="0.41107142857142126" fill="#252525" />
<rect x="0.42107142857142127" y="3.33357142857137" width="0.41107142857142126" height="0.41107142857142126" fill="#252525" />
<rect x="0.8371428571428425" y="3.33357142857137" width="0.41107142857142126" height="0.41107142857142126" fill="#252525" />
<rect x="1.2532142857142636" y="3.33357142857137" width="0.41107142857142126" height="0.41107142857142126" fill="#252525" />
<rect x="1.669285714285685" y="3.33357142857137" width="0.41107142857142126" height="0.41107142857142126" fill="#37D449" />
<rect x="2.0853571428571063" y="3.33357142857137" width="0.41107142857142126" height="0.41107142857142126" fill="#252525" />
<rect x="2.5014285714285274" y="3.33357142857137" width="0.41107142857142126" height="0.41107142857142126" fill="#252525" />
<rect x="0.005" y="3.749642857142791" width="0.41107142857142126" height="0.41107142857142126" fill="#252525" />
<rect x="0.42107142857142127" y="3.749642857142791" width="0.41107142857142126" height="0.41107142857142126" fill="#252525" />
<rect x="0.8371428571428425" y="3.749642857142791" width="0.41107142857142126" height="0.41107142857142126" fill="#252525" />
<rect x="1.2532142857142636" y="3.749642857142791" width="0.41107142857142126" height="0.41107142857142126" fill="#252525" />
<rect x="1.669285714285685" y="3.749642857142791" width="0.41107142857142126" height="0.41107142857142126" fill="#252525" />
<rect x="2.0853571428571063" y="3.749642857142791" width="0.41107142857142126" height="0.41107142857142126" fill="#252525" />
<rect x="2.5014285714285274" y="3.749642857142791" width="0.41107142857142126" height="0.41107142857142126" fill="#252525" />
<rect x="0.005" y="4.165714285714213" width="0.41107142857142126" height="0.41107142857142126" fill="#252525" />
<rect x="0.42107142857142127" y="4.165714285714213" width="0.41107142857142126" height="0.41107142857142126" fill="#252525" />
<rect x="0.8371428571428425" y="4.165714285714213" width="0.41107142857142126" height="0.41107142857142126" fill="#252525" />
<rect x="1.2532142857142636" y="4.165714285714213" width="0.41107142857142126" height="0.41107142857142126" fill="#252525" />
<rect x="1.669285714285685" y="4.165714285714213" width="0.41107142857142126" height="0.41107142857142126" fill="#37D449" />
<rect x="2.0853571428571063" y="4.165714285714213" width="0.41107142857142126" height="0.41107142857142126" fill="#252525" />
<rect x="2.5014285714285274" y="4.165714285714213" width="0.41107142857142126" height="0.41107142857142126" fill="#252525" />
<rect x="0.005" y="4.581785714285634" width="0.41107142857142126" height="0.41107142857142126" fill="#252525" />
<rect x="0.42107142857142127" y="4.581785714285634" width="0.41107142857142126" height="0.41107142857142126" fill="#252525" />
<rect x="0.8371428571428425" y="4.581785714285634" width="0.41107142857142126" height="0.41107142857142126" fill="#252525" />
<rect x="1.2532142857142636" y="4.581785714285634" width="0.41107142857142126" height="0.41107142857142126" fill="#252525" />
<rect x="1.669285714285685" y="4.581785714285634" width="0.41107142857142126" height="0.41107142857142126" fill="#252525" />
<rect x="2.0853571428571063" y="4.581785714285634" width="0.41107142857142126" height="0.41107142857142126" fill="#252525" />
<rect x="2.5014285714285274" y="4.581785714285634" width="0.41107142857142126" height="0.41107142857142126" fill="#252525" />
<rect x="0.005" y="4.997857142857055" width="0.41107142857142126" height="0.41107142857142126" fill="#252525" />
<rect x="0.42107142857142127" y="4.997857142857055" width="0.41107142857142126" height="0.41107142857142126" fill="#252525" />
<rect x="0.8371428571428425" y="4.997857142857055" width="0.41107142857142126" height="0.41107142857142126" fill="#252525" />
<rect x="1.2532142857142636" y="4.997857142857055" width="0.41107142857142126" height="0.41107142857142126" fill="#252525" />
<rect x="1.669285714285685" y="4.997857142857055" width="0.41107142857142126" height="0.41107142857142126" fill="#37D449" />
<rect x="2.0853571428571063" y="4.997857142857055" width="0.41107142857142126" height="0.41107142857142126" fill="#252525" />
<rect x="2.5014285714285274" y="4.997857142857055" width="0.41107142857142126" height="0.41107142857142126" fill="#252525" />
<rect x="-0.02666666666666667" y="-0.02666666666666667" width="2.9658333333332823" height="5.46226190476181" fill="none" stroke="#111111ff" stroke-width="0.08" />
<text x="2.912499999999949" y="5.8776785714284765" font-size="0.375" fill="black" text-anchor="end" font-family="Anuphan">7x13</text>
<text x="-0.037500000000000006" y="5.8776785714284765" font-size="0.375" fill="black" text-anchor="start" font-family="Anuphan" font-weight="600">Input 2</text>
</g>
<g id="d2">
<rect x="0.005" y="0.005" width="0.7129761904761707" height="0.7129761904761707" fill="#252525" />
<rect x="0.7229761904761707" y="0.005" width="0.7129761904761707" height="0.7129761904761707" fill="#252525" />
<rect x="1.4409523809523412" y="0.005" width="0.7129761904761707" height="0.7129761904761707" fill="#37D449" />
<rect x="2.158928571428512" y="0.005" width="0.7129761904761707" height="0.7129761904761707" fill="#252525" />
<rect x="2.8769047619046826" y="0.005" width="0.7129761904761707" height="0.7129761904761707" fill="#252525" />
<rect x="3.594880952380853" y="0.005" width="0.7129761904761707" height="0.7129761904761707" fill="#252525" />
<rect x="4.312857142857024" y="0.005" width="0.7129761904761707" height="0.7129761904761707" fill="#252525" />
<rect x="0.005" y="0.7229761904761707" width="0.7129761904761707" height="0.7129761904761707" fill="#252525" />
<rect x="0.7229761904761707" y="0.7229761904761707" width="0.7129761904761707" height="0.7129761904761707" fill="#FF4136" />
<rect x="1.4409523809523412" y="0.7229761904761707" width="0.7129761904761707" height="0.7129761904761707" fill="#FF4136" />
<rect x="2.158928571428512" y="0.7229761904761707" width="0.7129761904761707" height="0.7129761904761707" fill="#FF4136" />
<rect x="2.8769047619046826" y="0.7229761904761707" width="0.7129761904761707" height="0.7129761904761707" fill="#252525" />
<rect x="3.594880952380853" y="0.7229761904761707" width="0.7129761904761707" height="0.7129761904761707" fill="#252525" />
<rect x="4.312857142857024" y="0.7229761904761707" width="0.7129761904761707" height="0.7129761904761707" fill="#252525" />
<rect x="0.005" y="1.4409523809523412" width="0.7129761904761707" height="0.7129761904761707" fill="#252525" />
<rect x="0.7229761904761707" y="1.4409523809523412" width="0.7129761904761707" height="0.7129761904761707" fill="#FF4136" />
<rect x="1.4409523809523412" y="1.4409523809523412" width="0.7129761904761707" height="0.7129761904761707" fill="#37D449" />
<rect x="2.158928571428512" y="1.4409523809523412" width="0.7129761904761707" height="0.7129761904761707" fill="#FF4136" />
<rect x="2.8769047619046826" y="1.4409523809523412" width="0.7129761904761707" height="0.7129761904761707" fill="#252525" />
<rect x="3.594880952380853" y="1.4409523809523412" width="0.7129761904761707" height="0.7129761904761707" fill="#252525" />
<rect x="4.312857142857024" y="1.4409523809523412" width="0.7129761904761707" height="0.7129761904761707" fill="#252525" />
<rect x="0.005" y="2.158928571428512" width="0.7129761904761707" height="0.7129761904761707" fill="#252525" />
<rect x="0.7229761904761707" y="2.158928571428512" width="0.7129761904761707" height="0.7129761904761707" fill="#FF4136" />
<rect x="1.4409523809523412" y="2.158928571428512" width="0.7129761904761707" height="0.7129761904761707" fill="#FF4136" />
<rect x="2.158928571428512" y="2.158928571428512" width="0.7129761904761707" height="0.7129761904761707" fill="#FF4136" />
<rect x="2.8769047619046826" y="2.158928571428512" width="0.7129761904761707" height="0.7129761904761707" fill="#252525" />
<rect x="3.594880952380853" y="2.158928571428512" width="0.7129761904761707" height="0.7129761904761707" fill="#252525" />
<rect x="4.312857142857024" y="2.158928571428512" width="0.7129761904761707" height="0.7129761904761707" fill="#252525" />
<rect x="0.005" y="2.8769047619046826" width="0.7129761904761707" height="0.7129761904761707" fill="#252525" />
<rect x="0.7229761904761707" y="2.8769047619046826" width="0.7129761904761707" height="0.7129761904761707" fill="#252525" />
<rect x="1.4409523809523412" y="2.8769047619046826" width="0.7129761904761707" height="0.7129761904761707" fill="#37D449" />
<rect x="2.158928571428512" y="2.8769047619046826" width="0.7129761904761707" height="0.7129761904761707" fill="#252525" />
<rect x="2.8769047619046826" y="2.8769047619046826" width="0.7129761904761707" height="0.7129761904761707" fill="#252525" />
<rect x="3.594880952380853" y="2.8769047619046826" width="0.7129761904761707" height="0.7129761904761707" fill="#252525" />
<rect x="4.312857142857024" y="2.8769047619046826" width="0.7129761904761707" height="0.7129761904761707" fill="#252525" />
<rect x="0.005" y="3.594880952380853" width="0.7129761904761707" height="0.7129761904761707" fill="#252525" />
<rect x="0.7229761904761707" y="3.594880952380853" width="0.7129761904761707" height="0.7129761904761707" fill="#252525" />
<rect x="1.4409523809523412" y="3.594880952380853" width="0.7129761904761707" height="0.7129761904761707" fill="#252525" />
<rect x="2.158928571428512" y="3.594880952380853" width="0.7129761904761707" height="0.7129761904761707" fill="#252525" />
<rect x="2.8769047619046826" y="3.594880952380853" width="0.7129761904761707" height="0.7129761904761707" fill="#252525" />
<rect x="3.594880952380853" y="3.594880952380853" width="0.7129761904761707" height="0.7129761904761707" fill="#252525" />
<rect x="4.312857142857024" y="3.594880952380853" width="0.7129761904761707" height="0.7129761904761707" fill="#252525" />
<rect x="0.005" y="4.312857142857024" width="0.7129761904761707" height="0.7129761904761707" fill="#252525" />
<rect x="0.7229761904761707" y="4.312857142857024" width="0.7129761904761707" height="0.7129761904761707" fill="#252525" />
<rect x="1.4409523809523412" y="4.312857142857024" width="0.7129761904761707" height="0.7129761904761707" fill="#37D449" />
<rect x="2.158928571428512" y="4.312857142857024" width="0.7129761904761707" height="0.7129761904761707" fill="#252525" />
<rect x="2.8769047619046826" y="4.312857142857024" width="0.7129761904761707" height="0.7129761904761707" fill="#252525" />
<rect x="3.594880952380853" y="4.312857142857024" width="0.7129761904761707" height="0.7129761904761707" fill="#252525" />
<rect x="4.312857142857024" y="4.312857142857024" width="0.7129761904761707" height="0.7129761904761707" fill="#252525" />
<rect x="-0.02666666666666667" y="-0.02666666666666667" width="5.079166666666528" height="5.079166666666528" fill="none" stroke="#111111ff" stroke-width="0.08" />
<text x="5.025833333333194" y="5.494583333333194" font-size="0.375" fill="black" text-anchor="end" font-family="Anuphan">7x7</text>
<text x="-0.037500000000000006" y="5.494583333333194" font-size="0.375" fill="black" text-anchor="start" font-family="Anuphan" font-weight="600">Input 3</text>
</g>
<g id="d3">
<rect x="0.005" y="0.005" width="0.2906372549019526" height="0.2906372549019526" fill="#252525" />
<rect x="0.3006372549019526" y="0.005" width="0.2906372549019526" height="0.2906372549019526" fill="#252525" />
<rect x="0.5962745098039052" y="0.005" width="0.2906372549019526" height="0.2906372549019526" fill="#252525" />
<rect x="0.8919117647058578" y="0.005" width="0.2906372549019526" height="0.2906372549019526" fill="#252525" />
<rect x="1.1875490196078102" y="0.005" width="0.2906372549019526" height="0.2906372549019526" fill="#252525" />
<rect x="1.4831862745097628" y="0.005" width="0.2906372549019526" height="0.2906372549019526" fill="#252525" />
<rect x="1.7788235294117154" y="0.005" width="0.2906372549019526" height="0.2906372549019526" fill="#252525" />
<rect x="2.074460784313668" y="0.005" width="0.2906372549019526" height="0.2906372549019526" fill="#252525" />
<rect x="2.3700980392156206" y="0.005" width="0.2906372549019526" height="0.2906372549019526" fill="#252525" />
<rect x="2.665735294117573" y="0.005" width="0.2906372549019526" height="0.2906372549019526" fill="#252525" />
<rect x="2.9613725490195257" y="0.005" width="0.2906372549019526" height="0.2906372549019526" fill="#252525" />
<rect x="3.2570098039214783" y="0.005" width="0.2906372549019526" height="0.2906372549019526" fill="#252525" />
<rect x="3.552647058823431" y="0.005" width="0.2906372549019526" height="0.2906372549019526" fill="#252525" />
<rect x="3.8482843137253835" y="0.005" width="0.2906372549019526" height="0.2906372549019526" fill="#252525" />
<rect x="4.143921568627336" y="0.005" width="0.2906372549019526" height="0.2906372549019526" fill="#252525" />
<rect x="4.439558823529288" y="0.005" width="0.2906372549019526" height="0.2906372549019526" fill="#252525" />
<rect x="4.735196078431241" y="0.005" width="0.2906372549019526" height="0.2906372549019526" fill="#252525" />
<rect x="0.005" y="0.3006372549019526" width="0.2906372549019526" height="0.2906372549019526" fill="#252525" />
<rect x="0.3006372549019526" y="0.3006372549019526" width="0.2906372549019526" height="0.2906372549019526" fill="#252525" />
<rect x="0.5962745098039052" y="0.3006372549019526" width="0.2906372549019526" height="0.2906372549019526" fill="#252525" />
<rect x="0.8919117647058578" y="0.3006372549019526" width="0.2906372549019526" height="0.2906372549019526" fill="#252525" />
<rect x="1.1875490196078102" y="0.3006372549019526" width="0.2906372549019526" height="0.2906372549019526" fill="#252525" />
<rect x="1.4831862745097628" y="0.3006372549019526" width="0.2906372549019526" height="0.2906372549019526" fill="#252525" />
<rect x="1.7788235294117154" y="0.3006372549019526" width="0.2906372549019526" height="0.2906372549019526" fill="#252525" />
<rect x="2.074460784313668" y="0.3006372549019526" width="0.2906372549019526" height="0.2906372549019526" fill="#252525" />
<rect x="2.3700980392156206" y="0.3006372549019526" width="0.2906372549019526" height="0.2906372549019526" fill="#252525" />
<rect x="2.665735294117573" y="0.3006372549019526" width="0.2906372549019526" height="0.2906372549019526" fill="#252525" />
<rect x="2.9613725490195257" y="0.3006372549019526" width="0.2906372549019526" height="0.2906372549019526" fill="#252525" />
<rect x="3.2570098039214783" y="0.3006372549019526" width="0.2906372549019526" height="0.2906372549019526" fill="#252525" />
<rect x="3.552647058823431" y="0.3006372549019526" width="0.2906372549019526" height="0.2906372549019526" fill="#252525" />
<rect x="3.8482843137253835" y="0.3006372549019526" width="0.2906372549019526" height="0.2906372549019526" fill="#252525" />
<rect x="4.143921568627336" y="0.3006372549019526" width="0.2906372549019526" height="0.2906372549019526" fill="#252525" />
<rect x="4.439558823529288" y="0.3006372549019526" width="0.2906372549019526" height="0.2906372549019526" fill="#252525" />
<rect x="4.735196078431241" y="0.3006372549019526" width="0.2906372549019526" height="0.2906372549019526" fill="#252525" />
<rect x="0.005" y="0.5962745098039052" width="0.2906372549019526" height="0.2906372549019526" fill="#252525" />
<rect x="0.3006372549019526" y="0.5962745098039052" width="0.2906372549019526" height="0.2906372549019526" fill="#252525" />
<rect x="0.5962745098039052" y="0.5962745098039052" width="0.2906372549019526" height="0.2906372549019526" fill="#252525" />
<rect x="0.8919117647058578" y="0.5962745098039052" width="0.2906372549019526" height="0.2906372549019526" fill="#252525" />
<rect x="1.1875490196078102" y="0.5962745098039052" width="0.2906372549019526" height="0.2906372549019526" fill="#252525" />
<rect x="1.4831862745097628" y="0.5962745098039052" width="0.2906372549019526" height="0.2906372549019526" fill="#252525" />
<rect x="1.7788235294117154" y="0.5962745098039052" width="0.2906372549019526" height="0.2906372549019526" fill="#252525" />
<rect x="2.074460784313668" y="0.5962745098039052" width="0.2906372549019526" height="0.2906372549019526" fill="#252525" />
<rect x="2.3700980392156206" y="0.5962745098039052" width="0.2906372549019526" height="0.2906372549019526" fill="#252525" />
<rect x="2.665735294117573" y="0.5962745098039052" width="0.2906372549019526" height="0.2906372549019526" fill="#252525" />
<rect x="2.9613725490195257" y="0.5962745098039052" width="0.2906372549019526" height="0.2906372549019526" fill="#252525" />
<rect x="3.2570098039214783" y="0.5962745098039052" width="0.2906372549019526" height="0.2906372549019526" fill="#252525" />
<rect x="3.552647058823431" y="0.5962745098039052" width="0.2906372549019526" height="0.2906372549019526" fill="#252525" />
<rect x="3.8482843137253835" y="0.5962745098039052" width="0.2906372549019526" height="0.2906372549019526" fill="#252525" />
<rect x="4.143921568627336" y="0.5962745098039052" width="0.2906372549019526" height="0.2906372549019526" fill="#252525" />
<rect x="4.439558823529288" y="0.5962745098039052" width="0.2906372549019526" height="0.2906372549019526" fill="#252525" />
<rect x="4.735196078431241" y="0.5962745098039052" width="0.2906372549019526" height="0.2906372549019526" fill="#252525" />
<rect x="0.005" y="0.8919117647058578" width="0.2906372549019526" height="0.2906372549019526" fill="#252525" />
<rect x="0.3006372549019526" y="0.8919117647058578" width="0.2906372549019526" height="0.2906372549019526" fill="#252525" />
<rect x="0.5962745098039052" y="0.8919117647058578" width="0.2906372549019526" height="0.2906372549019526" fill="#252525" />
<rect x="0.8919117647058578" y="0.8919117647058578" width="0.2906372549019526" height="0.2906372549019526" fill="#252525" />
<rect x="1.1875490196078102" y="0.8919117647058578" width="0.2906372549019526" height="0.2906372549019526" fill="#252525" />
<rect x="1.4831862745097628" y="0.8919117647058578" width="0.2906372549019526" height="0.2906372549019526" fill="#252525" />
<rect x="1.7788235294117154" y="0.8919117647058578" width="0.2906372549019526" height="0.2906372549019526" fill="#252525" />
<rect x="2.074460784313668" y="0.8919117647058578" width="0.2906372549019526" height="0.2906372549019526" fill="#FF4136" />
<rect x="2.3700980392156206" y="0.8919117647058578" width="0.2906372549019526" height="0.2906372549019526" fill="#FF4136" />
<rect x="2.665735294117573" y="0.8919117647058578" width="0.2906372549019526" height="0.2906372549019526" fill="#FF4136" />
<rect x="2.9613725490195257" y="0.8919117647058578" width="0.2906372549019526" height="0.2906372549019526" fill="#252525" />
<rect x="3.2570098039214783" y="0.8919117647058578" width="0.2906372549019526" height="0.2906372549019526" fill="#252525" />
<rect x="3.552647058823431" y="0.8919117647058578" width="0.2906372549019526" height="0.2906372549019526" fill="#252525" />
<rect x="3.8482843137253835" y="0.8919117647058578" width="0.2906372549019526" height="0.2906372549019526" fill="#252525" />
<rect x="4.143921568627336" y="0.8919117647058578" width="0.2906372549019526" height="0.2906372549019526" fill="#252525" />
<rect x="4.439558823529288" y="0.8919117647058578" width="0.2906372549019526" height="0.2906372549019526" fill="#252525" />
<rect x="4.735196078431241" y="0.8919117647058578" width="0.2906372549019526" height="0.2906372549019526" fill="#252525" />
<rect x="0.005" y="1.1875490196078102" width="0.2906372549019526" height="0.2906372549019526" fill="#37D449" />
<rect x="0.3006372549019526" y="1.1875490196078102" width="0.2906372549019526" height="0.2906372549019526" fill="#252525" />
<rect x="0.5962745098039052" y="1.1875490196078102" width="0.2906372549019526" height="0.2906372549019526" fill="#37D449" />
<rect x="0.8919117647058578" y="1.1875490196078102" width="0.2906372549019526" height="0.2906372549019526" fill="#252525" />
<rect x="1.1875490196078102" y="1.1875490196078102" width="0.2906372549019526" height="0.2906372549019526" fill="#37D449" />
<rect x="1.4831862745097628" y="1.1875490196078102" width="0.2906372549019526" height="0.2906372549019526" fill="#252525" />
<rect x="1.7788235294117154" y="1.1875490196078102" width="0.2906372549019526" height="0.2906372549019526" fill="#37D449" />
<rect x="2.074460784313668" y="1.1875490196078102" width="0.2906372549019526" height="0.2906372549019526" fill="#FF4136" />
<rect x="2.3700980392156206" y="1.1875490196078102" width="0.2906372549019526" height="0.2906372549019526" fill="#37D449" />
<rect x="2.665735294117573" y="1.1875490196078102" width="0.2906372549019526" height="0.2906372549019526" fill="#FF4136" />
<rect x="2.9613725490195257" y="1.1875490196078102" width="0.2906372549019526" height="0.2906372549019526" fill="#37D449" />
<rect x="3.2570098039214783" y="1.1875490196078102" width="0.2906372549019526" height="0.2906372549019526" fill="#252525" />
<rect x="3.552647058823431" y="1.1875490196078102" width="0.2906372549019526" height="0.2906372549019526" fill="#37D449" />
<rect x="3.8482843137253835" y="1.1875490196078102" width="0.2906372549019526" height="0.2906372549019526" fill="#252525" />
<rect x="4.143921568627336" y="1.1875490196078102" width="0.2906372549019526" height="0.2906372549019526" fill="#37D449" />
<rect x="4.439558823529288" y="1.1875490196078102" width="0.2906372549019526" height="0.2906372549019526" fill="#252525" />
<rect x="4.735196078431241" y="1.1875490196078102" width="0.2906372549019526" height="0.2906372549019526" fill="#37D449" />
<rect x="0.005" y="1.4831862745097628" width="0.2906372549019526" height="0.2906372549019526" fill="#252525" />
<rect x="0.3006372549019526" y="1.4831862745097628" width="0.2906372549019526" height="0.2906372549019526" fill="#252525" />
<rect x="0.5962745098039052" y="1.4831862745097628" width="0.2906372549019526" height="0.2906372549019526" fill="#252525" />
<rect x="0.8919117647058578" y="1.4831862745097628" width="0.2906372549019526" height="0.2906372549019526" fill="#252525" />
<rect x="1.1875490196078102" y="1.4831862745097628" width="0.2906372549019526" height="0.2906372549019526" fill="#252525" />
<rect x="1.4831862745097628" y="1.4831862745097628" width="0.2906372549019526" height="0.2906372549019526" fill="#252525" />
<rect x="1.7788235294117154" y="1.4831862745097628" width="0.2906372549019526" height="0.2906372549019526" fill="#252525" />
<rect x="2.074460784313668" y="1.4831862745097628" width="0.2906372549019526" height="0.2906372549019526" fill="#FF4136" />
<rect x="2.3700980392156206" y="1.4831862745097628" width="0.2906372549019526" height="0.2906372549019526" fill="#FF4136" />
<rect x="2.665735294117573" y="1.4831862745097628" width="0.2906372549019526" height="0.2906372549019526" fill="#FF4136" />
<rect x="2.9613725490195257" y="1.4831862745097628" width="0.2906372549019526" height="0.2906372549019526" fill="#252525" />
<rect x="3.2570098039214783" y="1.4831862745097628" width="0.2906372549019526" height="0.2906372549019526" fill="#252525" />
<rect x="3.552647058823431" y="1.4831862745097628" width="0.2906372549019526" height="0.2906372549019526" fill="#252525" />
<rect x="3.8482843137253835" y="1.4831862745097628" width="0.2906372549019526" height="0.2906372549019526" fill="#252525" />
<rect x="4.143921568627336" y="1.4831862745097628" width="0.2906372549019526" height="0.2906372549019526" fill="#252525" />
<rect x="4.439558823529288" y="1.4831862745097628" width="0.2906372549019526" height="0.2906372549019526" fill="#252525" />
<rect x="4.735196078431241" y="1.4831862745097628" width="0.2906372549019526" height="0.2906372549019526" fill="#252525" />
<rect x="0.005" y="1.7788235294117154" width="0.2906372549019526" height="0.2906372549019526" fill="#252525" />
<rect x="0.3006372549019526" y="1.7788235294117154" width="0.2906372549019526" height="0.2906372549019526" fill="#252525" />
<rect x="0.5962745098039052" y="1.7788235294117154" width="0.2906372549019526" height="0.2906372549019526" fill="#252525" />
<rect x="0.8919117647058578" y="1.7788235294117154" width="0.2906372549019526" height="0.2906372549019526" fill="#252525" />
<rect x="1.1875490196078102" y="1.7788235294117154" width="0.2906372549019526" height="0.2906372549019526" fill="#252525" />
<rect x="1.4831862745097628" y="1.7788235294117154" width="0.2906372549019526" height="0.2906372549019526" fill="#252525" />
<rect x="1.7788235294117154" y="1.7788235294117154" width="0.2906372549019526" height="0.2906372549019526" fill="#252525" />
<rect x="2.074460784313668" y="1.7788235294117154" width="0.2906372549019526" height="0.2906372549019526" fill="#252525" />
<rect x="2.3700980392156206" y="1.7788235294117154" width="0.2906372549019526" height="0.2906372549019526" fill="#252525" />
<rect x="2.665735294117573" y="1.7788235294117154" width="0.2906372549019526" height="0.2906372549019526" fill="#252525" />
<rect x="2.9613725490195257" y="1.7788235294117154" width="0.2906372549019526" height="0.2906372549019526" fill="#252525" />
<rect x="3.2570098039214783" y="1.7788235294117154" width="0.2906372549019526" height="0.2906372549019526" fill="#252525" />
<rect x="3.552647058823431" y="1.7788235294117154" width="0.2906372549019526" height="0.2906372549019526" fill="#252525" />
<rect x="3.8482843137253835" y="1.7788235294117154" width="0.2906372549019526" height="0.2906372549019526" fill="#252525" />
<rect x="4.143921568627336" y="1.7788235294117154" width="0.2906372549019526" height="0.2906372549019526" fill="#252525" />
<rect x="4.439558823529288" y="1.7788235294117154" width="0.2906372549019526" height="0.2906372549019526" fill="#252525" />
<rect x="4.735196078431241" y="1.7788235294117154" width="0.2906372549019526" height="0.2906372549019526" fill="#252525" />
<rect x="-0.02666666666666667" y="-0.02666666666666667" width="5.079166666666528" height="2.1227941176470013" fill="none" stroke="#111111ff" stroke-width="0.08" />
<text x="5.025833333333194" y="2.538210784313668" font-size="0.375" fill="black" text-anchor="end" font-family="Anuphan">17x7</text>
<text x="-0.037500000000000006" y="2.538210784313668" font-size="0.375" fill="black" text-anchor="start" font-family="Anuphan" font-weight="600">Test 1</text>
</g>
<g id="d4">
<rect x="0.005" y="0.005" width="0.3816025641025534" height="0.3816025641025534" fill="#252525" />
<rect x="0.3916025641025534" y="0.005" width="0.3816025641025534" height="0.3816025641025534" fill="#252525" />
<rect x="0.7782051282051068" y="0.005" width="0.3816025641025534" height="0.3816025641025534" fill="#252525" />
<rect x="1.16480769230766" y="0.005" width="0.3816025641025534" height="0.3816025641025534" fill="#252525" />
<rect x="1.5514102564102135" y="0.005" width="0.3816025641025534" height="0.3816025641025534" fill="#252525" />
<rect x="1.938012820512767" y="0.005" width="0.3816025641025534" height="0.3816025641025534" fill="#252525" />
<rect x="2.32461538461532" y="0.005" width="0.3816025641025534" height="0.3816025641025534" fill="#252525" />
<rect x="2.7112179487178736" y="0.005" width="0.3816025641025534" height="0.3816025641025534" fill="#252525" />
<rect x="3.097820512820427" y="0.005" width="0.3816025641025534" height="0.3816025641025534" fill="#252525" />
<rect x="3.4844230769229805" y="0.005" width="0.3816025641025534" height="0.3816025641025534" fill="#252525" />
<rect x="3.871025641025534" y="0.005" width="0.3816025641025534" height="0.3816025641025534" fill="#252525" />
<rect x="4.257628205128087" y="0.005" width="0.3816025641025534" height="0.3816025641025534" fill="#252525" />
<rect x="4.64423076923064" y="0.005" width="0.3816025641025534" height="0.3816025641025534" fill="#252525" />
<rect x="0.005" y="0.3916025641025534" width="0.3816025641025534" height="0.3816025641025534" fill="#252525" />
<rect x="0.3916025641025534" y="0.3916025641025534" width="0.3816025641025534" height="0.3816025641025534" fill="#252525" />
<rect x="0.7782051282051068" y="0.3916025641025534" width="0.3816025641025534" height="0.3816025641025534" fill="#252525" />
<rect x="1.16480769230766" y="0.3916025641025534" width="0.3816025641025534" height="0.3816025641025534" fill="#252525" />
<rect x="1.5514102564102135" y="0.3916025641025534" width="0.3816025641025534" height="0.3816025641025534" fill="#252525" />
<rect x="1.938012820512767" y="0.3916025641025534" width="0.3816025641025534" height="0.3816025641025534" fill="#252525" />
<rect x="2.32461538461532" y="0.3916025641025534" width="0.3816025641025534" height="0.3816025641025534" fill="#252525" />
<rect x="2.7112179487178736" y="0.3916025641025534" width="0.3816025641025534" height="0.3816025641025534" fill="#252525" />
<rect x="3.097820512820427" y="0.3916025641025534" width="0.3816025641025534" height="0.3816025641025534" fill="#252525" />
<rect x="3.4844230769229805" y="0.3916025641025534" width="0.3816025641025534" height="0.3816025641025534" fill="#252525" />
<rect x="3.871025641025534" y="0.3916025641025534" width="0.3816025641025534" height="0.3816025641025534" fill="#252525" />
<rect x="4.257628205128087" y="0.3916025641025534" width="0.3816025641025534" height="0.3816025641025534" fill="#252525" />
<rect x="4.64423076923064" y="0.3916025641025534" width="0.3816025641025534" height="0.3816025641025534" fill="#252525" />
<rect x="0.005" y="0.7782051282051068" width="0.3816025641025534" height="0.3816025641025534" fill="#252525" />
<rect x="0.3916025641025534" y="0.7782051282051068" width="0.3816025641025534" height="0.3816025641025534" fill="#252525" />
<rect x="0.7782051282051068" y="0.7782051282051068" width="0.3816025641025534" height="0.3816025641025534" fill="#FF4136" />
<rect x="1.16480769230766" y="0.7782051282051068" width="0.3816025641025534" height="0.3816025641025534" fill="#FF4136" />
<rect x="1.5514102564102135" y="0.7782051282051068" width="0.3816025641025534" height="0.3816025641025534" fill="#FF4136" />
<rect x="1.938012820512767" y="0.7782051282051068" width="0.3816025641025534" height="0.3816025641025534" fill="#252525" />
<rect x="2.32461538461532" y="0.7782051282051068" width="0.3816025641025534" height="0.3816025641025534" fill="#252525" />
<rect x="2.7112179487178736" y="0.7782051282051068" width="0.3816025641025534" height="0.3816025641025534" fill="#252525" />
<rect x="3.097820512820427" y="0.7782051282051068" width="0.3816025641025534" height="0.3816025641025534" fill="#252525" />
<rect x="3.4844230769229805" y="0.7782051282051068" width="0.3816025641025534" height="0.3816025641025534" fill="#252525" />
<rect x="3.871025641025534" y="0.7782051282051068" width="0.3816025641025534" height="0.3816025641025534" fill="#252525" />
<rect x="4.257628205128087" y="0.7782051282051068" width="0.3816025641025534" height="0.3816025641025534" fill="#252525" />
<rect x="4.64423076923064" y="0.7782051282051068" width="0.3816025641025534" height="0.3816025641025534" fill="#252525" />
<rect x="0.005" y="1.16480769230766" width="0.3816025641025534" height="0.3816025641025534" fill="#252525" />
<rect x="0.3916025641025534" y="1.16480769230766" width="0.3816025641025534" height="0.3816025641025534" fill="#37D449" />
<rect x="0.7782051282051068" y="1.16480769230766" width="0.3816025641025534" height="0.3816025641025534" fill="#FF4136" />
<rect x="1.16480769230766" y="1.16480769230766" width="0.3816025641025534" height="0.3816025641025534" fill="#37D449" />
<rect x="1.5514102564102135" y="1.16480769230766" width="0.3816025641025534" height="0.3816025641025534" fill="#FF4136" />
<rect x="1.938012820512767" y="1.16480769230766" width="0.3816025641025534" height="0.3816025641025534" fill="#37D449" />
<rect x="2.32461538461532" y="1.16480769230766" width="0.3816025641025534" height="0.3816025641025534" fill="#252525" />
<rect x="2.7112179487178736" y="1.16480769230766" width="0.3816025641025534" height="0.3816025641025534" fill="#37D449" />
<rect x="3.097820512820427" y="1.16480769230766" width="0.3816025641025534" height="0.3816025641025534" fill="#252525" />
<rect x="3.4844230769229805" y="1.16480769230766" width="0.3816025641025534" height="0.3816025641025534" fill="#37D449" />
<rect x="3.871025641025534" y="1.16480769230766" width="0.3816025641025534" height="0.3816025641025534" fill="#252525" />
<rect x="4.257628205128087" y="1.16480769230766" width="0.3816025641025534" height="0.3816025641025534" fill="#37D449" />
<rect x="4.64423076923064" y="1.16480769230766" width="0.3816025641025534" height="0.3816025641025534" fill="#252525" />
<rect x="0.005" y="1.5514102564102135" width="0.3816025641025534" height="0.3816025641025534" fill="#252525" />
<rect x="0.3916025641025534" y="1.5514102564102135" width="0.3816025641025534" height="0.3816025641025534" fill="#252525" />
<rect x="0.7782051282051068" y="1.5514102564102135" width="0.3816025641025534" height="0.3816025641025534" fill="#FF4136" />
<rect x="1.16480769230766" y="1.5514102564102135" width="0.3816025641025534" height="0.3816025641025534" fill="#FF4136" />
<rect x="1.5514102564102135" y="1.5514102564102135" width="0.3816025641025534" height="0.3816025641025534" fill="#FF4136" />
<rect x="1.938012820512767" y="1.5514102564102135" width="0.3816025641025534" height="0.3816025641025534" fill="#252525" />
<rect x="2.32461538461532" y="1.5514102564102135" width="0.3816025641025534" height="0.3816025641025534" fill="#252525" />
<rect x="2.7112179487178736" y="1.5514102564102135" width="0.3816025641025534" height="0.3816025641025534" fill="#252525" />
<rect x="3.097820512820427" y="1.5514102564102135" width="0.3816025641025534" height="0.3816025641025534" fill="#252525" />
<rect x="3.4844230769229805" y="1.5514102564102135" width="0.3816025641025534" height="0.3816025641025534" fill="#252525" />
<rect x="3.871025641025534" y="1.5514102564102135" width="0.3816025641025534" height="0.3816025641025534" fill="#252525" />
<rect x="4.257628205128087" y="1.5514102564102135" width="0.3816025641025534" height="0.3816025641025534" fill="#252525" />
<rect x="4.64423076923064" y="1.5514102564102135" width="0.3816025641025534" height="0.3816025641025534" fill="#252525" />
<rect x="0.005" y="1.938012820512767" width="0.3816025641025534" height="0.3816025641025534" fill="#252525" />
<rect x="0.3916025641025534" y="1.938012820512767" width="0.3816025641025534" height="0.3816025641025534" fill="#252525" />
<rect x="0.7782051282051068" y="1.938012820512767" width="0.3816025641025534" height="0.3816025641025534" fill="#252525" />
<rect x="1.16480769230766" y="1.938012820512767" width="0.3816025641025534" height="0.3816025641025534" fill="#252525" />
<rect x="1.5514102564102135" y="1.938012820512767" width="0.3816025641025534" height="0.3816025641025534" fill="#252525" />
<rect x="1.938012820512767" y="1.938012820512767" width="0.3816025641025534" height="0.3816025641025534" fill="#252525" />
<rect x="2.32461538461532" y="1.938012820512767" width="0.3816025641025534" height="0.3816025641025534" fill="#252525" />
<rect x="2.7112179487178736" y="1.938012820512767" width="0.3816025641025534" height="0.3816025641025534" fill="#252525" />
<rect x="3.097820512820427" y="1.938012820512767" width="0.3816025641025534" height="0.3816025641025534" fill="#252525" />
<rect x="3.4844230769229805" y="1.938012820512767" width="0.3816025641025534" height="0.3816025641025534" fill="#252525" />
<rect x="3.871025641025534" y="1.938012820512767" width="0.3816025641025534" height="0.3816025641025534" fill="#252525" />
<rect x="4.257628205128087" y="1.938012820512767" width="0.3816025641025534" height="0.3816025641025534" fill="#252525" />
<rect x="4.64423076923064" y="1.938012820512767" width="0.3816025641025534" height="0.3816025641025534" fill="#252525" />
<rect x="0.005" y="2.32461538461532" width="0.3816025641025534" height="0.3816025641025534" fill="#252525" />
<rect x="0.3916025641025534" y="2.32461538461532" width="0.3816025641025534" height="0.3816025641025534" fill="#252525" />
<rect x="0.7782051282051068" y="2.32461538461532" width="0.3816025641025534" height="0.3816025641025534" fill="#252525" />
<rect x="1.16480769230766" y="2.32461538461532" width="0.3816025641025534" height="0.3816025641025534" fill="#252525" />
<rect x="1.5514102564102135" y="2.32461538461532" width="0.3816025641025534" height="0.3816025641025534" fill="#252525" />
<rect x="1.938012820512767" y="2.32461538461532" width="0.3816025641025534" height="0.3816025641025534" fill="#252525" />
<rect x="2.32461538461532" y="2.32461538461532" width="0.3816025641025534" height="0.3816025641025534" fill="#252525" />
<rect x="2.7112179487178736" y="2.32461538461532" width="0.3816025641025534" height="0.3816025641025534" fill="#252525" />
<rect x="3.097820512820427" y="2.32461538461532" width="0.3816025641025534" height="0.3816025641025534" fill="#252525" />
<rect x="3.4844230769229805" y="2.32461538461532" width="0.3816025641025534" height="0.3816025641025534" fill="#252525" />
<rect x="3.871025641025534" y="2.32461538461532" width="0.3816025641025534" height="0.3816025641025534" fill="#252525" />
<rect x="4.257628205128087" y="2.32461538461532" width="0.3816025641025534" height="0.3816025641025534" fill="#252525" />
<rect x="4.64423076923064" y="2.32461538461532" width="0.3816025641025534" height="0.3816025641025534" fill="#252525" />
<rect x="-0.02666666666666667" y="-0.02666666666666667" width="5.079166666666528" height="2.759551282051207" fill="none" stroke="#111111ff" stroke-width="0.08" />
<text x="5.025833333333194" y="3.1749679487178737" font-size="0.375" fill="black" text-anchor="end" font-family="Anuphan">13x7</text>
<text x="-0.037500000000000006" y="3.1749679487178737" font-size="0.375" fill="black" text-anchor="start" font-family="Anuphan" font-weight="600">Output 1</text>
</g>
<g id="d5">
<rect x="0.005" y="0.005" width="0.41107142857142126" height="0.41107142857142126" fill="#252525" />
<rect x="0.42107142857142127" y="0.005" width="0.41107142857142126" height="0.41107142857142126" fill="#252525" />
<rect x="0.8371428571428425" y="0.005" width="0.41107142857142126" height="0.41107142857142126" fill="#252525" />
<rect x="1.2532142857142636" y="0.005" width="0.41107142857142126" height="0.41107142857142126" fill="#252525" />
<rect x="1.669285714285685" y="0.005" width="0.41107142857142126" height="0.41107142857142126" fill="#37D449" />
<rect x="2.0853571428571063" y="0.005" width="0.41107142857142126" height="0.41107142857142126" fill="#252525" />
<rect x="2.5014285714285274" y="0.005" width="0.41107142857142126" height="0.41107142857142126" fill="#252525" />
<rect x="0.005" y="0.42107142857142127" width="0.41107142857142126" height="0.41107142857142126" fill="#252525" />
<rect x="0.42107142857142127" y="0.42107142857142127" width="0.41107142857142126" height="0.41107142857142126" fill="#252525" />
<rect x="0.8371428571428425" y="0.42107142857142127" width="0.41107142857142126" height="0.41107142857142126" fill="#252525" />
<rect x="1.2532142857142636" y="0.42107142857142127" width="0.41107142857142126" height="0.41107142857142126" fill="#252525" />
<rect x="1.669285714285685" y="0.42107142857142127" width="0.41107142857142126" height="0.41107142857142126" fill="#252525" />
<rect x="2.0853571428571063" y="0.42107142857142127" width="0.41107142857142126" height="0.41107142857142126" fill="#252525" />
<rect x="2.5014285714285274" y="0.42107142857142127" width="0.41107142857142126" height="0.41107142857142126" fill="#252525" />
<rect x="0.005" y="0.8371428571428425" width="0.41107142857142126" height="0.41107142857142126" fill="#252525" />
<rect x="0.42107142857142127" y="0.8371428571428425" width="0.41107142857142126" height="0.41107142857142126" fill="#252525" />
<rect x="0.8371428571428425" y="0.8371428571428425" width="0.41107142857142126" height="0.41107142857142126" fill="#252525" />
<rect x="1.2532142857142636" y="0.8371428571428425" width="0.41107142857142126" height="0.41107142857142126" fill="#252525" />
<rect x="1.669285714285685" y="0.8371428571428425" width="0.41107142857142126" height="0.41107142857142126" fill="#37D449" />
<rect x="2.0853571428571063" y="0.8371428571428425" width="0.41107142857142126" height="0.41107142857142126" fill="#252525" />
<rect x="2.5014285714285274" y="0.8371428571428425" width="0.41107142857142126" height="0.41107142857142126" fill="#252525" />
<rect x="0.005" y="1.2532142857142636" width="0.41107142857142126" height="0.41107142857142126" fill="#252525" />
<rect x="0.42107142857142127" y="1.2532142857142636" width="0.41107142857142126" height="0.41107142857142126" fill="#252525" />
<rect x="0.8371428571428425" y="1.2532142857142636" width="0.41107142857142126" height="0.41107142857142126" fill="#252525" />
<rect x="1.2532142857142636" y="1.2532142857142636" width="0.41107142857142126" height="0.41107142857142126" fill="#252525" />
<rect x="1.669285714285685" y="1.2532142857142636" width="0.41107142857142126" height="0.41107142857142126" fill="#252525" />
<rect x="2.0853571428571063" y="1.2532142857142636" width="0.41107142857142126" height="0.41107142857142126" fill="#252525" />
<rect x="2.5014285714285274" y="1.2532142857142636" width="0.41107142857142126" height="0.41107142857142126" fill="#252525" />
<rect x="0.005" y="1.669285714285685" width="0.41107142857142126" height="0.41107142857142126" fill="#252525" />
<rect x="0.42107142857142127" y="1.669285714285685" width="0.41107142857142126" height="0.41107142857142126" fill="#252525" />
<rect x="0.8371428571428425" y="1.669285714285685" width="0.41107142857142126" height="0.41107142857142126" fill="#252525" />
<rect x="1.2532142857142636" y="1.669285714285685" width="0.41107142857142126" height="0.41107142857142126" fill="#252525" />
<rect x="1.669285714285685" y="1.669285714285685" width="0.41107142857142126" height="0.41107142857142126" fill="#37D449" />
<rect x="2.0853571428571063" y="1.669285714285685" width="0.41107142857142126" height="0.41107142857142126" fill="#252525" />
<rect x="2.5014285714285274" y="1.669285714285685" width="0.41107142857142126" height="0.41107142857142126" fill="#252525" />
<rect x="0.005" y="2.0853571428571063" width="0.41107142857142126" height="0.41107142857142126" fill="#252525" />
<rect x="0.42107142857142127" y="2.0853571428571063" width="0.41107142857142126" height="0.41107142857142126" fill="#252525" />
<rect x="0.8371428571428425" y="2.0853571428571063" width="0.41107142857142126" height="0.41107142857142126" fill="#252525" />
<rect x="1.2532142857142636" y="2.0853571428571063" width="0.41107142857142126" height="0.41107142857142126" fill="#FF4136" />
<rect x="1.669285714285685" y="2.0853571428571063" width="0.41107142857142126" height="0.41107142857142126" fill="#FF4136" />
<rect x="2.0853571428571063" y="2.0853571428571063" width="0.41107142857142126" height="0.41107142857142126" fill="#FF4136" />
<rect x="2.5014285714285274" y="2.0853571428571063" width="0.41107142857142126" height="0.41107142857142126" fill="#252525" />
<rect x="0.005" y="2.5014285714285274" width="0.41107142857142126" height="0.41107142857142126" fill="#252525" />
<rect x="0.42107142857142127" y="2.5014285714285274" width="0.41107142857142126" height="0.41107142857142126" fill="#252525" />
<rect x="0.8371428571428425" y="2.5014285714285274" width="0.41107142857142126" height="0.41107142857142126" fill="#252525" />
<rect x="1.2532142857142636" y="2.5014285714285274" width="0.41107142857142126" height="0.41107142857142126" fill="#FF4136" />
<rect x="1.669285714285685" y="2.5014285714285274" width="0.41107142857142126" height="0.41107142857142126" fill="#37D449" />
<rect x="2.0853571428571063" y="2.5014285714285274" width="0.41107142857142126" height="0.41107142857142126" fill="#FF4136" />
<rect x="2.5014285714285274" y="2.5014285714285274" width="0.41107142857142126" height="0.41107142857142126" fill="#252525" />
<rect x="0.005" y="2.917499999999949" width="0.41107142857142126" height="0.41107142857142126" fill="#252525" />
<rect x="0.42107142857142127" y="2.917499999999949" width="0.41107142857142126" height="0.41107142857142126" fill="#252525" />
<rect x="0.8371428571428425" y="2.917499999999949" width="0.41107142857142126" height="0.41107142857142126" fill="#252525" />
<rect x="1.2532142857142636" y="2.917499999999949" width="0.41107142857142126" height="0.41107142857142126" fill="#FF4136" />
<rect x="1.669285714285685" y="2.917499999999949" width="0.41107142857142126" height="0.41107142857142126" fill="#FF4136" />
<rect x="2.0853571428571063" y="2.917499999999949" width="0.41107142857142126" height="0.41107142857142126" fill="#FF4136" />
<rect x="2.5014285714285274" y="2.917499999999949" width="0.41107142857142126" height="0.41107142857142126" fill="#252525" />
<rect x="0.005" y="3.33357142857137" width="0.41107142857142126" height="0.41107142857142126" fill="#252525" />
<rect x="0.42107142857142127" y="3.33357142857137" width="0.41107142857142126" height="0.41107142857142126" fill="#252525" />
<rect x="0.8371428571428425" y="3.33357142857137" width="0.41107142857142126" height="0.41107142857142126" fill="#252525" />
<rect x="1.2532142857142636" y="3.33357142857137" width="0.41107142857142126" height="0.41107142857142126" fill="#252525" />
<rect x="1.669285714285685" y="3.33357142857137" width="0.41107142857142126" height="0.41107142857142126" fill="#37D449" />
<rect x="2.0853571428571063" y="3.33357142857137" width="0.41107142857142126" height="0.41107142857142126" fill="#252525" />
<rect x="2.5014285714285274" y="3.33357142857137" width="0.41107142857142126" height="0.41107142857142126" fill="#252525" />
<rect x="0.005" y="3.749642857142791" width="0.41107142857142126" height="0.41107142857142126" fill="#252525" />
<rect x="0.42107142857142127" y="3.749642857142791" width="0.41107142857142126" height="0.41107142857142126" fill="#252525" />
<rect x="0.8371428571428425" y="3.749642857142791" width="0.41107142857142126" height="0.41107142857142126" fill="#252525" />
<rect x="1.2532142857142636" y="3.749642857142791" width="0.41107142857142126" height="0.41107142857142126" fill="#252525" />
<rect x="1.669285714285685" y="3.749642857142791" width="0.41107142857142126" height="0.41107142857142126" fill="#252525" />
<rect x="2.0853571428571063" y="3.749642857142791" width="0.41107142857142126" height="0.41107142857142126" fill="#252525" />
<rect x="2.5014285714285274" y="3.749642857142791" width="0.41107142857142126" height="0.41107142857142126" fill="#252525" />
<rect x="0.005" y="4.165714285714213" width="0.41107142857142126" height="0.41107142857142126" fill="#252525" />
<rect x="0.42107142857142127" y="4.165714285714213" width="0.41107142857142126" height="0.41107142857142126" fill="#252525" />
<rect x="0.8371428571428425" y="4.165714285714213" width="0.41107142857142126" height="0.41107142857142126" fill="#252525" />
<rect x="1.2532142857142636" y="4.165714285714213" width="0.41107142857142126" height="0.41107142857142126" fill="#252525" />
<rect x="1.669285714285685" y="4.165714285714213" width="0.41107142857142126" height="0.41107142857142126" fill="#37D449" />
<rect x="2.0853571428571063" y="4.165714285714213" width="0.41107142857142126" height="0.41107142857142126" fill="#252525" />
<rect x="2.5014285714285274" y="4.165714285714213" width="0.41107142857142126" height="0.41107142857142126" fill="#252525" />
<rect x="0.005" y="4.581785714285634" width="0.41107142857142126" height="0.41107142857142126" fill="#252525" />
<rect x="0.42107142857142127" y="4.581785714285634" width="0.41107142857142126" height="0.41107142857142126" fill="#252525" />
<rect x="0.8371428571428425" y="4.581785714285634" width="0.41107142857142126" height="0.41107142857142126" fill="#252525" />
<rect x="1.2532142857142636" y="4.581785714285634" width="0.41107142857142126" height="0.41107142857142126" fill="#252525" />
<rect x="1.669285714285685" y="4.581785714285634" width="0.41107142857142126" height="0.41107142857142126" fill="#252525" />
<rect x="2.0853571428571063" y="4.581785714285634" width="0.41107142857142126" height="0.41107142857142126" fill="#252525" />
<rect x="2.5014285714285274" y="4.581785714285634" width="0.41107142857142126" height="0.41107142857142126" fill="#252525" />
<rect x="0.005" y="4.997857142857055" width="0.41107142857142126" height="0.41107142857142126" fill="#252525" />
<rect x="0.42107142857142127" y="4.997857142857055" width="0.41107142857142126" height="0.41107142857142126" fill="#252525" />
<rect x="0.8371428571428425" y="4.997857142857055" width="0.41107142857142126" height="0.41107142857142126" fill="#252525" />
<rect x="1.2532142857142636" y="4.997857142857055" width="0.41107142857142126" height="0.41107142857142126" fill="#252525" />
<rect x="1.669285714285685" y="4.997857142857055" width="0.41107142857142126" height="0.41107142857142126" fill="#37D449" />
<rect x="2.0853571428571063" y="4.997857142857055" width="0.41107142857142126" height="0.41107142857142126" fill="#252525" />
<rect x="2.5014285714285274" y="4.997857142857055" width="0.41107142857142126" height="0.41107142857142126" fill="#252525" />
<rect x="-0.02666666666666667" y="-0.02666666666666667" width="2.9658333333332823" height="5.46226190476181" fill="none" stroke="#111111ff" stroke-width="0.08" />
<text x="2.912499999999949" y="5.8776785714284765" font-size="0.375" fill="black" text-anchor="end" font-family="Anuphan">7x13</text>
<text x="-0.037500000000000006" y="5.8776785714284765" font-size="0.375" fill="black" text-anchor="start" font-family="Anuphan" font-weight="600">Output 2</text>
</g>
<g id="d6">
<rect x="0.005" y="0.005" width="0.7129761904761707" height="0.7129761904761707" fill="#252525" />
<rect x="0.7229761904761707" y="0.005" width="0.7129761904761707" height="0.7129761904761707" fill="#252525" />
<rect x="1.4409523809523412" y="0.005" width="0.7129761904761707" height="0.7129761904761707" fill="#37D449" />
<rect x="2.158928571428512" y="0.005" width="0.7129761904761707" height="0.7129761904761707" fill="#252525" />
<rect x="2.8769047619046826" y="0.005" width="0.7129761904761707" height="0.7129761904761707" fill="#252525" />
<rect x="3.594880952380853" y="0.005" width="0.7129761904761707" height="0.7129761904761707" fill="#252525" />
<rect x="4.312857142857024" y="0.005" width="0.7129761904761707" height="0.7129761904761707" fill="#252525" />
<rect x="0.005" y="0.7229761904761707" width="0.7129761904761707" height="0.7129761904761707" fill="#252525" />
<rect x="0.7229761904761707" y="0.7229761904761707" width="0.7129761904761707" height="0.7129761904761707" fill="#252525" />
<rect x="1.4409523809523412" y="0.7229761904761707" width="0.7129761904761707" height="0.7129761904761707" fill="#252525" />
<rect x="2.158928571428512" y="0.7229761904761707" width="0.7129761904761707" height="0.7129761904761707" fill="#252525" />
<rect x="2.8769047619046826" y="0.7229761904761707" width="0.7129761904761707" height="0.7129761904761707" fill="#252525" />
<rect x="3.594880952380853" y="0.7229761904761707" width="0.7129761904761707" height="0.7129761904761707" fill="#252525" />
<rect x="4.312857142857024" y="0.7229761904761707" width="0.7129761904761707" height="0.7129761904761707" fill="#252525" />
<rect x="0.005" y="1.4409523809523412" width="0.7129761904761707" height="0.7129761904761707" fill="#252525" />
<rect x="0.7229761904761707" y="1.4409523809523412" width="0.7129761904761707" height="0.7129761904761707" fill="#252525" />
<rect x="1.4409523809523412" y="1.4409523809523412" width="0.7129761904761707" height="0.7129761904761707" fill="#37D449" />
<rect x="2.158928571428512" y="1.4409523809523412" width="0.7129761904761707" height="0.7129761904761707" fill="#252525" />
<rect x="2.8769047619046826" y="1.4409523809523412" width="0.7129761904761707" height="0.7129761904761707" fill="#252525" />
<rect x="3.594880952380853" y="1.4409523809523412" width="0.7129761904761707" height="0.7129761904761707" fill="#252525" />
<rect x="4.312857142857024" y="1.4409523809523412" width="0.7129761904761707" height="0.7129761904761707" fill="#252525" />
<rect x="0.005" y="2.158928571428512" width="0.7129761904761707" height="0.7129761904761707" fill="#252525" />
<rect x="0.7229761904761707" y="2.158928571428512" width="0.7129761904761707" height="0.7129761904761707" fill="#FF4136" />
<rect x="1.4409523809523412" y="2.158928571428512" width="0.7129761904761707" height="0.7129761904761707" fill="#FF4136" />
<rect x="2.158928571428512" y="2.158928571428512" width="0.7129761904761707" height="0.7129761904761707" fill="#FF4136" />
<rect x="2.8769047619046826" y="2.158928571428512" width="0.7129761904761707" height="0.7129761904761707" fill="#252525" />
<rect x="3.594880952380853" y="2.158928571428512" width="0.7129761904761707" height="0.7129761904761707" fill="#252525" />
<rect x="4.312857142857024" y="2.158928571428512" width="0.7129761904761707" height="0.7129761904761707" fill="#252525" />
<rect x="0.005" y="2.8769047619046826" width="0.7129761904761707" height="0.7129761904761707" fill="#252525" />
<rect x="0.7229761904761707" y="2.8769047619046826" width="0.7129761904761707" height="0.7129761904761707" fill="#FF4136" />
<rect x="1.4409523809523412" y="2.8769047619046826" width="0.7129761904761707" height="0.7129761904761707" fill="#37D449" />
<rect x="2.158928571428512" y="2.8769047619046826" width="0.7129761904761707" height="0.7129761904761707" fill="#FF4136" />
<rect x="2.8769047619046826" y="2.8769047619046826" width="0.7129761904761707" height="0.7129761904761707" fill="#252525" />
<rect x="3.594880952380853" y="2.8769047619046826" width="0.7129761904761707" height="0.7129761904761707" fill="#252525" />
<rect x="4.312857142857024" y="2.8769047619046826" width="0.7129761904761707" height="0.7129761904761707" fill="#252525" />
<rect x="0.005" y="3.594880952380853" width="0.7129761904761707" height="0.7129761904761707" fill="#252525" />
<rect x="0.7229761904761707" y="3.594880952380853" width="0.7129761904761707" height="0.7129761904761707" fill="#FF4136" />
<rect x="1.4409523809523412" y="3.594880952380853" width="0.7129761904761707" height="0.7129761904761707" fill="#FF4136" />
<rect x="2.158928571428512" y="3.594880952380853" width="0.7129761904761707" height="0.7129761904761707" fill="#FF4136" />
<rect x="2.8769047619046826" y="3.594880952380853" width="0.7129761904761707" height="0.7129761904761707" fill="#252525" />
<rect x="3.594880952380853" y="3.594880952380853" width="0.7129761904761707" height="0.7129761904761707" fill="#252525" />
<rect x="4.312857142857024" y="3.594880952380853" width="0.7129761904761707" height="0.7129761904761707" fill="#252525" />
<rect x="0.005" y="4.312857142857024" width="0.7129761904761707" height="0.7129761904761707" fill="#252525" />
<rect x="0.7229761904761707" y="4.312857142857024" width="0.7129761904761707" height="0.7129761904761707" fill="#252525" />
<rect x="1.4409523809523412" y="4.312857142857024" width="0.7129761904761707" height="0.7129761904761707" fill="#37D449" />
<rect x="2.158928571428512" y="4.312857142857024" width="0.7129761904761707" height="0.7129761904761707" fill="#252525" />
<rect x="2.8769047619046826" y="4.312857142857024" width="0.7129761904761707" height="0.7129761904761707" fill="#252525" />
<rect x="3.594880952380853" y="4.312857142857024" width="0.7129761904761707" height="0.7129761904761707" fill="#252525" />
<rect x="4.312857142857024" y="4.312857142857024" width="0.7129761904761707" height="0.7129761904761707" fill="#252525" />
<rect x="-0.02666666666666667" y="-0.02666666666666667" width="5.079166666666528" height="5.079166666666528" fill="none" stroke="#111111ff" stroke-width="0.08" />
<text x="5.025833333333194" y="5.494583333333194" font-size="0.375" fill="black" text-anchor="end" font-family="Anuphan">7x7</text>
<text x="-0.037500000000000006" y="5.494583333333194" font-size="0.375" fill="black" text-anchor="start" font-family="Anuphan" font-weight="600">Output 3</text>
</g>
</defs>
<rect x="0" y="0" width="100%" height="100%" fill="#eeeff6" />
<use xlink:href="#d0" x="0.25" y="0.25" />
<use xlink:href="#d1" x="5.775833333333194" y="0.25" />
<use xlink:href="#d2" x="9.188333333333144" y="0.25" />
<use xlink:href="#d3" x="14.714166666666339" y="0.25" />
<path d="M2.762916666666597,6.308928571428477 L2.762916666666597,6.708928571428477" stroke-width="0.05" stroke="#888888" />
<path d="M2.6129166666665973,6.508928571428477 L2.762916666666597,6.708928571428477" stroke-width="0.05" stroke="#888888" />
<path d="M2.912916666666597,6.508928571428477 L2.762916666666597,6.708928571428477" stroke-width="0.05" stroke="#888888" />
<use xlink:href="#d4" x="0.25" y="7.058928571428477" />
<path d="M7.232083333333168,6.308928571428477 L7.232083333333168,6.708928571428477" stroke-width="0.05" stroke="#888888" />
<path d="M7.082083333333168,6.508928571428477 L7.232083333333168,6.708928571428477" stroke-width="0.05" stroke="#888888" />
<path d="M7.382083333333169,6.508928571428477 L7.232083333333168,6.708928571428477" stroke-width="0.05" stroke="#888888" />
<use xlink:href="#d5" x="5.775833333333194" y="7.058928571428477" />
<path d="M11.701249999999742,6.308928571428477 L11.701249999999742,6.708928571428477" stroke-width="0.05" stroke="#888888" />
<path d="M11.551249999999742,6.508928571428477 L11.701249999999742,6.708928571428477" stroke-width="0.05" stroke="#888888" />
<path d="M11.851249999999743,6.508928571428477 L11.701249999999742,6.708928571428477" stroke-width="0.05" stroke="#888888" />
<use xlink:href="#d6" x="9.188333333333144" y="7.058928571428477" />
<path d="M17.227083333332935,6.308928571428477 L17.227083333332935,6.708928571428477" stroke-width="0.05" stroke="#888888" />
<path d="M17.077083333332936,6.508928571428477 L17.227083333332935,6.708928571428477" stroke-width="0.05" stroke="#888888" />
<path d="M17.377083333332934,6.508928571428477 L17.227083333332935,6.708928571428477" stroke-width="0.05" stroke="#888888" />
<text x="17.227083333332935" y="8.19365896358531" font-size="1" font-family="Anuphan" font-weight="700" fill="#333333" text-anchor="middle" alignment-baseline="middle">?</text>
<text x="19.9" y="13.299999999999999" font-size="0.3" font-family="Anuphan" font-weight="600" fill="#666666" text-anchor="end" alignment-baseline="bottom">Task 5168d44c</text>
</svg>