<?xml version="1.0" encoding="UTF-8"?>
<svg xmlns="http://www.w3.org/2000/svg" xmlns:xlink="http://www.w3.org/1999/xlink"
     width="800.0" height="495.99999999999994" viewBox="0 0 20.0 12.399999999999999">
<defs>
<g id="d0">
<rect x="0.005" y="0.005" width="0.5779999999999728" height="0.5779999999999728" fill="#252525" />
<rect x="0.5879999999999728" y="0.005" width="0.5779999999999728" height="0.5779999999999728" fill="#252525" />
<rect x="1.1709999999999454" y="0.005" width="0.5779999999999728" height="0.5779999999999728" fill="#252525" />
<rect x="1.7539999999999183" y="0.005" width="0.5779999999999728" height="0.5779999999999728" fill="#252525" />
<rect x="2.336999999999891" y="0.005" width="0.5779999999999728" height="0.5779999999999728" fill="#252525" />
<rect x="2.9199999999998636" y="0.005" width="0.5779999999999728" height="0.5779999999999728" fill="#252525" />
<rect x="0.005" y="0.5879999999999728" width="0.5779999999999728" height="0.5779999999999728" fill="#252525" />
<rect x="0.5879999999999728" y="0.5879999999999728" width="0.5779999999999728" height="0.5779999999999728" fill="#252525" />
<rect x="1.1709999999999454" y="0.5879999999999728" width="0.5779999999999728" height="0.5779999999999728" fill="#FF4136" />
<rect x="1.7539999999999183" y="0.5879999999999728" width="0.5779999999999728" height="0.5779999999999728" fill="#252525" />
<rect x="2.336999999999891" y="0.5879999999999728" width="0.5779999999999728" height="0.5779999999999728" fill="#252525" />
<rect x="2.9199999999998636" y="0.5879999999999728" width="0.5779999999999728" height="0.5779999999999728" fill="#252525" />
<rect x="0.005" y="1.1709999999999454" width="0.5779999999999728" height="0.5779999999999728" fill="#252525" />
<rect x="0.5879999999999728" y="1.1709999999999454" width="0.5779999999999728" height="0.5779999999999728" fill="#252525" />
<rect x="1.1709999999999454" y="1.1709999999999454" width="0.5779999999999728" height="0.5779999999999728" fill="#252525" />
<rect x="1.7539999999999183" y="1.1709999999999454" width="0.5779999999999728" height="0.5779999999999728" fill="#252525" />
<rect x="2.336999999999891" y="1.1709999999999454" width="0.5779999999999728" height="0.5779999999999728" fill="#252525" />
<rect x="2.9199999999998636" y="1.1709999999999454" width="0.5779999999999728" height="0.5779999999999728" fill="#252525" />
<rect x="0.005" y="1.7539999999999183" width="0.5779999999999728" height="0.5779999999999728" fill="#252525" />
<rect x="0.5879999999999728" y="1.7539999999999183" width="0.5779999999999728" height="0.5779999999999728" fill="#37D449" />
<rect x="1.1709999999999454" y="1.7539999999999183" width="0.5779999999999728" height="0.5779999999999728" fill="#252525" />
<rect x="1.7539999999999183" y="1.7539999999999183" width="0.5779999999999728" height="0.5779999999999728" fill="#252525" />
<rect x="2.336999999999891" y="1.7539999999999183" width="0.5779999999999728" height="0.5779999999999728" fill="#252525" />
<rect x="2.9199999999998636" y="1.7539999999999183" width="0.5779999999999728" height="0.5779999999999728" fill="#252525" />
<rect x="0.005" y="2.336999999999891" width="0.5779999999999728" height="0.5779999999999728" fill="#252525" />
<rect x="0.5879999999999728" y="2.336999999999891" width="0.5779999999999728" height="0.5779999999999728" fill="#252525" />
<rect x="1.1709999999999454" y="2.336999999999891" width="0.5779999999999728" height="0.5779999999999728" fill="#252525" />
<rect x="1.7539999999999183" y="2.336999999999891" width="0.5779999999999728" height="0.5779999999999728" fill="#252525" />
<rect x="2.336999999999891" y="2.336999999999891" width="0.5779999999999728" height="0.5779999999999728" fill="#252525" />
<rect x="2.9199999999998636" y="2.336999999999891" width="0.5779999999999728" height="0.5779999999999728" fill="#252525" />
<rect x="0.005" y="2.9199999999998636" width="0.5779999999999728" height="0.5779999999999728" fill="#252525" />
<rect x="0.5879999999999728" y="2.9199999999998636" width="0.5779999999999728" height="0.5779999999999728" fill="#252525" />
<rect x="1.1709999999999454" y="2.9199999999998636" width="0.5779999999999728" height="0.5779999999999728" fill="#252525" />
<rect x="1.7539999999999183" y="2.9199999999998636" width="0.5779999999999728" height="0.5779999999999728" fill="#252525" />
<rect x="2.336999999999891" y="2.9199999999998636" width="0.5779999999999728" height="0.5779999999999728" fill="#252525" />
<rect x="2.9199999999998636" y="2.9199999999998636" width="0.5779999999999728" height="0.5779999999999728" fill="#252525" />
<rect x="-0.02666666666666667" y="-0.02666666666666667" width="3.55133333333317" height="3.55133333333317" fill="none" stroke="#111111ff" stroke-width="0.08" />
<text x="3.497999999999837" y="3.966749999999837" font-size="0.375" fill="black" text-anchor="end" font-family="Anuphan">6x6</text>
<text x="-0.037500000000000006" y="3.966749999999837" font-size="0.375" fill="black" text-anchor="start" font-family="Anuphan" font-weight="600">Input 1</text>
</g>
<g id="d1">
<rect x="0.005" y="0.005" width="1.1609999999999456" height="1.1609999999999456" fill="#252525" />
<rect x="1.1709999999999454" y="0.005" width="1.1609999999999456" height="1.1609999999999456" fill="#252525" />
<rect x="2.336999999999891" y="0.005" width="1.1609999999999456" height="1.1609999999999456" fill="#252525" />
<rect x="0.005" y="1.1709999999999454" width="1.1609999999999456" height="1.1609999999999456" fill="#252525" />
<rect x="1.1709999999999454" y="1.1709999999999454" width="1.1609999999999456" height="1.1609999999999456" fill="#F012BE" />
<rect x="2.336999999999891" y="1.1709999999999454" width="1.1609999999999456" height="1.1609999999999456" fill="#252525" />
<rect x="0.005" y="2.336999999999891" width="1.1609999999999456" height="1.1609999999999456" fill="#252525" />
<rect x="1.1709999999999454" y="2.336999999999891" width="1.1609999999999456" height="1.1609999999999456" fill="#252525" />
<rect x="2.336999999999891" y="2.336999999999891" width="1.1609999999999456" height="1.1609999999999456" fill="#252525" />
<rect x="-0.02666666666666667" y="-0.02666666666666667" width="3.55133333333317" height="3.55133333333317" fill="none" stroke="#111111ff" stroke-width="0.08" />
<text x="3.497999999999837" y="3.966749999999837" font-size="0.375" fill="black" text-anchor="end" font-family="Anuphan">3x3</text>
<text x="-0.037500000000000006" y="3.966749999999837" font-size="0.375" fill="black" text-anchor="start" font-family="Anuphan" font-weight="600">Input 2</text>
</g>
<g id="d2">
<rect x="0.005" y="0.005" width="0.5779999999999728" height="0.5779999999999728" fill="#252525" />
<rect x="0.5879999999999728" y="0.005" width="0.5779999999999728" height="0.5779999999999728" fill="#252525" />
<rect x="1.1709999999999454" y="0.005" width="0.5779999999999728" height="0.5779999999999728" fill="#252525" />
<rect x="1.7539999999999183" y="0.005" width="0.5779999999999728" height="0.5779999999999728" fill="#252525" />
<rect x="2.336999999999891" y="0.005" width="0.5779999999999728" height="0.5779999999999728" fill="#252525" />
<rect x="2.9199999999998636" y="0.005" width="0.5779999999999728" height="0.5779999999999728" fill="#252525" />
<rect x="0.005" y="0.5879999999999728" width="0.5779999999999728" height="0.5779999999999728" fill="#252525" />
<rect x="0.5879999999999728" y="0.5879999999999728" width="0.5779999999999728" height="0.5779999999999728" fill="#54D2EB" />
<rect x="1.1709999999999454" y="0.5879999999999728" width="0.5779999999999728" height="0.5779999999999728" fill="#252525" />
<rect x="1.7539999999999183" y="0.5879999999999728" width="0.5779999999999728" height="0.5779999999999728" fill="#252525" />
<rect x="2.336999999999891" y="0.5879999999999728" width="0.5779999999999728" height="0.5779999999999728" fill="#252525" />
<rect x="2.9199999999998636" y="0.5879999999999728" width="0.5779999999999728" height="0.5779999999999728" fill="#252525" />
<rect x="0.005" y="1.1709999999999454" width="0.5779999999999728" height="0.5779999999999728" fill="#252525" />
<rect x="0.5879999999999728" y="1.1709999999999454" width="0.5779999999999728" height="0.5779999999999728" fill="#252525" />
<rect x="1.1709999999999454" y="1.1709999999999454" width="0.5779999999999728" height="0.5779999999999728" fill="#252525" />
<rect x="1.7539999999999183" y="1.1709999999999454" width="0.5779999999999728" height="0.5779999999999728" fill="#252525" />
<rect x="2.336999999999891" y="1.1709999999999454" width="0.5779999999999728" height="0.5779999999999728" fill="#252525" />
<rect x="2.9199999999998636" y="1.1709999999999454" width="0.5779999999999728" height="0.5779999999999728" fill="#252525" />
<rect x="0.005" y="1.7539999999999183" width="0.5779999999999728" height="0.5779999999999728" fill="#252525" />
<rect x="0.5879999999999728" y="1.7539999999999183" width="0.5779999999999728" height="0.5779999999999728" fill="#252525" />
<rect x="1.1709999999999454" y="1.7539999999999183" width="0.5779999999999728" height="0.5779999999999728" fill="#252525" />
<rect x="1.7539999999999183" y="1.7539999999999183" width="0.5779999999999728" height="0.5779999999999728" fill="#252525" />
<rect x="2.336999999999891" y="1.7539999999999183" width="0.5779999999999728" height="0.5779999999999728" fill="#252525" />
<rect x="2.9199999999998636" y="1.7539999999999183" width="0.5779999999999728" height="0.5779999999999728" fill="#252525" />
<rect x="0.005" y="2.336999999999891" width="0.5779999999999728" height="0.5779999999999728" fill="#252525" />
<rect x="0.5879999999999728" y="2.336999999999891" width="0.5779999999999728" height="0.5779999999999728" fill="#252525" />
<rect x="1.1709999999999454" y="2.336999999999891" width="0.5779999999999728" height="0.5779999999999728" fill="#252525" />
<rect x="1.7539999999999183" y="2.336999999999891" width="0.5779999999999728" height="0.5779999999999728" fill="#E6E6E6" />
<rect x="2.336999999999891" y="2.336999999999891" width="0.5779999999999728" height="0.5779999999999728" fill="#252525" />
<rect x="2.9199999999998636" y="2.336999999999891" width="0.5779999999999728" height="0.5779999999999728" fill="#252525" />
<rect x="0.005" y="2.9199999999998636" width="0.5779999999999728" height="0.5779999999999728" fill="#252525" />
<rect x="0.5879999999999728" y="2.9199999999998636" width="0.5779999999999728" height="0.5779999999999728" fill="#252525" />
<rect x="1.1709999999999454" y="2.9199999999998636" width="0.5779999999999728" height="0.5779999999999728" fill="#252525" />
<rect x="1.7539999999999183" y="2.9199999999998636" width="0.5779999999999728" height="0.5779999999999728" fill="#252525" />
<rect x="2.336999999999891" y="2.9199999999998636" width="0.5779999999999728" height="0.5779999999999728" fill="#252525" />
<rect x="2.9199999999998636" y="2.9199999999998636" width="0.5779999999999728" height="0.5779999999999728" fill="#252525" />
<rect x="-0.02666666666666667" y="-0.02666666666666667" width="3.55133333333317" height="3.55133333333317" fill="none" stroke="#111111ff" stroke-width="0.08" />
<text x="3.497999999999837" y="3.966749999999837" font-size="0.375" fill="black" text-anchor="end" font-family="Anuphan">6x6</text>
<text x="-0.037500000000000006" y="3.966749999999837" font-size="0.375" fill="black" text-anchor="start" font-family="Anuphan" font-weight="600">Input 3</text>
</g>
<g id="d3">
<rect x="0.005" y="0.005" width="0.6945999999999672" height="0.6945999999999672" fill="#252525" />
<rect x="0.7045999999999673" y="0.005" width="0.6945999999999672" height="0.6945999999999672" fill="#252525" />
<rect x="1.4041999999999344" y="0.005" width="0.6945999999999672" height="0.6945999999999672" fill="#252525" />
<rect x="2.1037999999999015" y="0.005" width="0.6945999999999672" height="0.6945999999999672" fill="#252525" />
<rect x="2.803399999999869" y="0.005" width="0.6945999999999672" height="0.6945999999999672" fill="#252525" />
<rect x="0.005" y="0.7045999999999673" width="0.6945999999999672" height="0.6945999999999672" fill="#252525" />
<rect x="0.7045999999999673" y="0.7045999999999673" width="0.6945999999999672" height="0.6945999999999672" fill="#252525" />
<rect x="1.4041999999999344" y="0.7045999999999673" width="0.6945999999999672" height="0.6945999999999672" fill="#54D2EB" />
<rect x="2.1037999999999015" y="0.7045999999999673" width="0.6945999999999672" height="0.6945999999999672" fill="#252525" />
<rect x="2.803399999999869" y="0.7045999999999673" width="0.6945999999999672" height="0.6945999999999672" fill="#252525" />
<rect x="0.005" y="1.4041999999999344" width="0.6945999999999672" height="0.6945999999999672" fill="#252525" />
<rect x="0.7045999999999673" y="1.4041999999999344" width="0.6945999999999672" height="0.6945999999999672" fill="#252525" />
<rect x="1.4041999999999344" y="1.4041999999999344" width="0.6945999999999672" height="0.6945999999999672" fill="#252525" />
<rect x="2.1037999999999015" y="1.4041999999999344" width="0.6945999999999672" height="0.6945999999999672" fill="#252525" />
<rect x="2.803399999999869" y="1.4041999999999344" width="0.6945999999999672" height="0.6945999999999672" fill="#252525" />
<rect x="0.005" y="2.1037999999999015" width="0.6945999999999672" height="0.6945999999999672" fill="#252525" />
<rect x="0.7045999999999673" y="2.1037999999999015" width="0.6945999999999672" height="0.6945999999999672" fill="#FF871E" />
<rect x="1.4041999999999344" y="2.1037999999999015" width="0.6945999999999672" height="0.6945999999999672" fill="#252525" />
<rect x="2.1037999999999015" y="2.1037999999999015" width="0.6945999999999672" height="0.6945999999999672" fill="#252525" />
<rect x="2.803399999999869" y="2.1037999999999015" width="0.6945999999999672" height="0.6945999999999672" fill="#252525" />
<rect x="0.005" y="2.803399999999869" width="0.6945999999999672" height="0.6945999999999672" fill="#252525" />
<rect x="0.7045999999999673" y="2.803399999999869" width="0.6945999999999672" height="0.6945999999999672" fill="#252525" />
<rect x="1.4041999999999344" y="2.803399999999869" width="0.6945999999999672" height="0.6945999999999672" fill="#252525" />
<rect x="2.1037999999999015" y="2.803399999999869" width="0.6945999999999672" height="0.6945999999999672" fill="#252525" />
<rect x="2.803399999999869" y="2.803399999999869" width="0.6945999999999672" height="0.6945999999999672" fill="#252525" />
<rect x="0.005" y="3.5029999999998362" width="0.6945999999999672" height="0.6945999999999672" fill="#252525" />
<rect x="0.7045999999999673" y="3.5029999999998362" width="0.6945999999999672" height="0.6945999999999672" fill="#252525" />
<rect x="1.4041999999999344" y="3.5029999999998362" width="0.6945999999999672" height="0.6945999999999672" fill="#F012BE" />
<rect x="2.1037999999999015" y="3.5029999999998362" width="0.6945999999999672" height="0.6945999999999672" fill="#252525" />
<rect x="2.803399999999869" y="3.5029999999998362" width="0.6945999999999672" height="0.6945999999999672" fill="#252525" />
<rect x="0.005" y="4.202599999999803" width="0.6945999999999672" height="0.6945999999999672" fill="#252525" />
<rect x="0.7045999999999673" y="4.202599999999803" width="0.6945999999999672" height="0.6945999999999672" fill="#252525" />
<rect x="1.4041999999999344" y="4.202599999999803" width="0.6945999999999672" height="0.6945999999999672" fill="#252525" />
<rect x="2.1037999999999015" y="4.202599999999803" width="0.6945999999999672" height="0.6945999999999672" fill="#252525" />
<rect x="2.803399999999869" y="4.202599999999803" width="0.6945999999999672" height="0.6945999999999672" fill="#252525" />
<rect x="-0.02666666666666667" y="-0.02666666666666667" width="3.5513333333331696" height="4.950533333333104" fill="none" stroke="#111111ff" stroke-width="0.08" />
<text x="3.4979999999998364" y="5.365949999999771" font-size="0.375" fill="black" text-anchor="end" font-family="Anuphan">5x7</text>
<text x="-0.037500000000000006" y="5.365949999999771" font-size="0.375" fill="black" text-anchor="start" font-family="Anuphan" font-weight="600">Input 4</text>
</g>
<g id="d4">
<rect x="0.005" y="0.005" width="0.43224999999997954" height="0.43224999999997954" fill="#252525" />
<rect x="0.44224999999997955" y="0.005" width="0.43224999999997954" height="0.43224999999997954" fill="#252525" />
<rect x="0.8794999999999591" y="0.005" width="0.43224999999997954" height="0.43224999999997954" fill="#252525" />
<rect x="1.3167499999999386" y="0.005" width="0.43224999999997954" height="0.43224999999997954" fill="#54D2EB" />
<rect x="1.753999999999918" y="0.005" width="0.43224999999997954" height="0.43224999999997954" fill="#252525" />
<rect x="2.1912499999998976" y="0.005" width="0.43224999999997954" height="0.43224999999997954" fill="#252525" />
<rect x="2.6284999999998773" y="0.005" width="0.43224999999997954" height="0.43224999999997954" fill="#252525" />
<rect x="3.0657499999998565" y="0.005" width="0.43224999999997954" height="0.43224999999997954" fill="#252525" />
<rect x="0.005" y="0.44224999999997955" width="0.43224999999997954" height="0.43224999999997954" fill="#252525" />
<rect x="0.44224999999997955" y="0.44224999999997955" width="0.43224999999997954" height="0.43224999999997954" fill="#252525" />
<rect x="0.8794999999999591" y="0.44224999999997955" width="0.43224999999997954" height="0.43224999999997954" fill="#252525" />
<rect x="1.3167499999999386" y="0.44224999999997955" width="0.43224999999997954" height="0.43224999999997954" fill="#252525" />
<rect x="1.753999999999918" y="0.44224999999997955" width="0.43224999999997954" height="0.43224999999997954" fill="#252525" />
<rect x="2.1912499999998976" y="0.44224999999997955" width="0.43224999999997954" height="0.43224999999997954" fill="#252525" />
<rect x="2.6284999999998773" y="0.44224999999997955" width="0.43224999999997954" height="0.43224999999997954" fill="#252525" />
<rect x="3.0657499999998565" y="0.44224999999997955" width="0.43224999999997954" height="0.43224999999997954" fill="#252525" />
<rect x="0.005" y="0.8794999999999591" width="0.43224999999997954" height="0.43224999999997954" fill="#252525" />
<rect x="0.44224999999997955" y="0.8794999999999591" width="0.43224999999997954" height="0.43224999999997954" fill="#252525" />
<rect x="0.8794999999999591" y="0.8794999999999591" width="0.43224999999997954" height="0.43224999999997954" fill="#FF871E" />
<rect x="1.3167499999999386" y="0.8794999999999591" width="0.43224999999997954" height="0.43224999999997954" fill="#252525" />
<rect x="1.753999999999918" y="0.8794999999999591" width="0.43224999999997954" height="0.43224999999997954" fill="#252525" />
<rect x="2.1912499999998976" y="0.8794999999999591" width="0.43224999999997954" height="0.43224999999997954" fill="#252525" />
<rect x="2.6284999999998773" y="0.8794999999999591" width="0.43224999999997954" height="0.43224999999997954" fill="#252525" />
<rect x="3.0657499999998565" y="0.8794999999999591" width="0.43224999999997954" height="0.43224999999997954" fill="#252525" />
<rect x="0.005" y="1.3167499999999386" width="0.43224999999997954" height="0.43224999999997954" fill="#252525" />
<rect x="0.44224999999997955" y="1.3167499999999386" width="0.43224999999997954" height="0.43224999999997954" fill="#252525" />
<rect x="0.8794999999999591" y="1.3167499999999386" width="0.43224999999997954" height="0.43224999999997954" fill="#252525" />
<rect x="1.3167499999999386" y="1.3167499999999386" width="0.43224999999997954" height="0.43224999999997954" fill="#252525" />
<rect x="1.753999999999918" y="1.3167499999999386" width="0.43224999999997954" height="0.43224999999997954" fill="#252525" />
<rect x="2.1912499999998976" y="1.3167499999999386" width="0.43224999999997954" height="0.43224999999997954" fill="#252525" />
<rect x="2.6284999999998773" y="1.3167499999999386" width="0.43224999999997954" height="0.43224999999997954" fill="#252525" />
<rect x="3.0657499999998565" y="1.3167499999999386" width="0.43224999999997954" height="0.43224999999997954" fill="#252525" />
<rect x="0.005" y="1.753999999999918" width="0.43224999999997954" height="0.43224999999997954" fill="#252525" />
<rect x="0.44224999999997955" y="1.753999999999918" width="0.43224999999997954" height="0.43224999999997954" fill="#252525" />
<rect x="0.8794999999999591" y="1.753999999999918" width="0.43224999999997954" height="0.43224999999997954" fill="#252525" />
<rect x="1.3167499999999386" y="1.753999999999918" width="0.43224999999997954" height="0.43224999999997954" fill="#252525" />
<rect x="1.753999999999918" y="1.753999999999918" width="0.43224999999997954" height="0.43224999999997954" fill="#252525" />
<rect x="2.1912499999998976" y="1.753999999999918" width="0.43224999999997954" height="0.43224999999997954" fill="#FF4136" />
<rect x="2.6284999999998773" y="1.753999999999918" width="0.43224999999997954" height="0.43224999999997954" fill="#252525" />
<rect x="3.0657499999998565" y="1.753999999999918" width="0.43224999999997954" height="0.43224999999997954" fill="#252525" />
<rect x="0.005" y="2.1912499999998976" width="0.43224999999997954" height="0.43224999999997954" fill="#252525" />
<rect x="0.44224999999997955" y="2.1912499999998976" width="0.43224999999997954" height="0.43224999999997954" fill="#252525" />
<rect x="0.8794999999999591" y="2.1912499999998976" width="0.43224999999997954" height="0.43224999999997954" fill="#252525" />
<rect x="1.3167499999999386" y="2.1912499999998976" width="0.43224999999997954" height="0.43224999999997954" fill="#252525" />
<rect x="1.753999999999918" y="2.1912499999998976" width="0.43224999999997954" height="0.43224999999997954" fill="#252525" />
<rect x="2.1912499999998976" y="2.1912499999998976" width="0.43224999999997954" height="0.43224999999997954" fill="#252525" />
<rect x="2.6284999999998773" y="2.1912499999998976" width="0.43224999999997954" height="0.43224999999997954" fill="#252525" />
<rect x="3.0657499999998565" y="2.1912499999998976" width="0.43224999999997954" height="0.43224999999997954" fill="#252525" />
<rect x="0.005" y="2.6284999999998773" width="0.43224999999997954" height="0.43224999999997954" fill="#252525" />
<rect x="0.44224999999997955" y="2.6284999999998773" width="0.43224999999997954" height="0.43224999999997954" fill="#252525" />
<rect x="0.8794999999999591" y="2.6284999999998773" width="0.43224999999997954" height="0.43224999999997954" fill="#252525" />
<rect x="1.3167499999999386" y="2.6284999999998773" width="0.43224999999997954" height="0.43224999999997954" fill="#252525" />
<rect x="1.753999999999918" y="2.6284999999998773" width="0.43224999999997954" height="0.43224999999997954" fill="#252525" />
<rect x="2.1912499999998976" y="2.6284999999998773" width="0.43224999999997954" height="0.43224999999997954" fill="#252525" />
<rect x="2.6284999999998773" y="2.6284999999998773" width="0.43224999999997954" height="0.43224999999997954" fill="#252525" />
<rect x="3.0657499999998565" y="2.6284999999998773" width="0.43224999999997954" height="0.43224999999997954" fill="#252525" />
<rect x="-0.02666666666666667" y="-0.02666666666666667" width="3.5513333333331696" height="3.11408333333319" fill="none" stroke="#111111ff" stroke-width="0.08" />
<text x="3.4979999999998364" y="3.5294999999998566" font-size="0.375" fill="black" text-anchor="end" font-family="Anuphan">8x7</text>
<text x="-0.037500000000000006" y="3.5294999999998566" font-size="0.375" fill="black" text-anchor="start" font-family="Anuphan" font-weight="600">Test 1</text>
</g>
<g id="d5">
<rect x="0.005" y="0.005" width="0.5779999999999728" height="0.5779999999999728" fill="#252525" />
<rect x="0.5879999999999728" y="0.005" width="0.5779999999999728" height="0.5779999999999728" fill="#252525" />
<rect x="1.1709999999999454" y="0.005" width="0.5779999999999728" height="0.5779999999999728" fill="#252525" />
<rect x="1.7539999999999183" y="0.005" width="0.5779999999999728" height="0.5779999999999728" fill="#252525" />
<rect x="2.336999999999891" y="0.005" width="0.5779999999999728" height="0.5779999999999728" fill="#252525" />
<rect x="2.9199999999998636" y="0.005" width="0.5779999999999728" height="0.5779999999999728" fill="#252525" />
<rect x="0.005" y="0.5879999999999728" width="0.5779999999999728" height="0.5779999999999728" fill="#252525" />
<rect x="0.5879999999999728" y="0.5879999999999728" width="0.5779999999999728" height="0.5779999999999728" fill="#252525" />
<rect x="1.1709999999999454" y="0.5879999999999728" width="0.5779999999999728" height="0.5779999999999728" fill="#FF4136" />
<rect x="1.7539999999999183" y="0.5879999999999728" width="0.5779999999999728" height="0.5779999999999728" fill="#FF4136" />
<rect x="2.336999999999891" y="0.5879999999999728" width="0.5779999999999728" height="0.5779999999999728" fill="#FF4136" />
<rect x="2.9199999999998636" y="0.5879999999999728" width="0.5779999999999728" height="0.5779999999999728" fill="#FF4136" />
<rect x="0.005" y="1.1709999999999454" width="0.5779999999999728" height="0.5779999999999728" fill="#252525" />
<rect x="0.5879999999999728" y="1.1709999999999454" width="0.5779999999999728" height="0.5779999999999728" fill="#252525" />
<rect x="1.1709999999999454" y="1.1709999999999454" width="0.5779999999999728" height="0.5779999999999728" fill="#252525" />
<rect x="1.7539999999999183" y="1.1709999999999454" width="0.5779999999999728" height="0.5779999999999728" fill="#252525" />
<rect x="2.336999999999891" y="1.1709999999999454" width="0.5779999999999728" height="0.5779999999999728" fill="#252525" />
<rect x="2.9199999999998636" y="1.1709999999999454" width="0.5779999999999728" height="0.5779999999999728" fill="#FF4136" />
<rect x="0.005" y="1.7539999999999183" width="0.5779999999999728" height="0.5779999999999728" fill="#252525" />
<rect x="0.5879999999999728" y="1.7539999999999183" width="0.5779999999999728" height="0.5779999999999728" fill="#37D449" />
<rect x="1.1709999999999454" y="1.7539999999999183" width="0.5779999999999728" height="0.5779999999999728" fill="#37D449" />
<rect x="1.7539999999999183" y="1.7539999999999183" width="0.5779999999999728" height="0.5779999999999728" fill="#37D449" />
<rect x="2.336999999999891" y="1.7539999999999183" width="0.5779999999999728" height="0.5779999999999728" fill="#37D449" />
<rect x="2.9199999999998636" y="1.7539999999999183" width="0.5779999999999728" height="0.5779999999999728" fill="#37D449" />
<rect x="0.005" y="2.336999999999891" width="0.5779999999999728" height="0.5779999999999728" fill="#252525" />
<rect x="0.5879999999999728" y="2.336999999999891" width="0.5779999999999728" height="0.5779999999999728" fill="#252525" />
<rect x="1.1709999999999454" y="2.336999999999891" width="0.5779999999999728" height="0.5779999999999728" fill="#252525" />
<rect x="1.7539999999999183" y="2.336999999999891" width="0.5779999999999728" height="0.5779999999999728" fill="#252525" />
<rect x="2.336999999999891" y="2.336999999999891" width="0.5779999999999728" height="0.5779999999999728" fill="#252525" />
<rect x="2.9199999999998636" y="2.336999999999891" width="0.5779999999999728" height="0.5779999999999728" fill="#37D449" />
<rect x="0.005" y="2.9199999999998636" width="0.5779999999999728" height="0.5779999999999728" fill="#252525" />
<rect x="0.5879999999999728" y="2.9199999999998636" width="0.5779999999999728" height="0.5779999999999728" fill="#252525" />
<rect x="1.1709999999999454" y="2.9199999999998636" width="0.5779999999999728" height="0.5779999999999728" fill="#252525" />
<rect x="1.7539999999999183" y="2.9199999999998636" width="0.5779999999999728" height="0.5779999999999728" fill="#252525" />
<rect x="2.336999999999891" y="2.9199999999998636" width="0.5779999999999728" height="0.5779999999999728" fill="#252525" />
<rect x="2.9199999999998636" y="2.9199999999998636" width="0.5779999999999728" height="0.5779999999999728" fill="#37D449" />
<rect x="-0.02666666666666667" y="-0.02666666666666667" width="3.55133333333317" height="3.55133333333317" fill="none" stroke="#111111ff" stroke-width="0.08" />
<text x="3.497999999999837" y="3.966749999999837" font-size="0.375" fill="black" text-anchor="end" font-family="Anuphan">6x6</text>
<text x="-0.037500000000000006" y="3.966749999999837" font-size="0.375" fill="black" text-anchor="start" font-family="Anuphan" font-weight="600">Output 1</text>
</g>
<g id="d6">
<rect x="0.005" y="0.005" width="1.1609999999999456" height="1.1609999999999456" fill="#252525" />
<rect x="1.1709999999999454" y="0.005" width="1.1609999999999456" height="1.1609999999999456" fill="#252525" />
<rect x="2.336999999999891" y="0.005" width="1.1609999999999456" height="1.1609999999999456" fill="#252525" />
<rect x="0.005" y="1.1709999999999454" width="1.1609999999999456" height="1.1609999999999456" fill="#252525" />
<rect x="1.1709999999999454" y="1.1709999999999454" width="1.1609999999999456" height="1.1609999999999456" fill="#F012BE" />
<rect x="2.336999999999891" y="1.1709999999999454" width="1.1609999999999456" height="1.1609999999999456" fill="#F012BE" />
<rect x="0.005" y="2.336999999999891" width="1.1609999999999456" height="1.1609999999999456" fill="#252525" />
<rect x="1.1709999999999454" y="2.336999999999891" width="1.1609999999999456" height="1.1609999999999456" fill="#252525" />
<rect x="2.336999999999891" y="2.336999999999891" width="1.1609999999999456" height="1.1609999999999456" fill="#F012BE" />
<rect x="-0.02666666666666667" y="-0.02666666666666667" width="3.55133333333317" height="3.55133333333317" fill="none" stroke="#111111ff" stroke-width="0.08" />
<text x="3.497999999999837" y="3.966749999999837" font-size="0.375" fill="black" text-anchor="end" font-family="Anuphan">3x3</text>
<text x="-0.037500000000000006" y="3.966749999999837" font-size="0.375" fill="black" text-anchor="start" font-family="Anuphan" font-weight="600">Output 2</text>
</g>
<g id="d7">
<rect x="0.005" y="0.005" width="0.5779999999999728" height="0.5779999999999728" fill="#252525" />
<rect x="0.5879999999999728" y="0.005" width="0.5779999999999728" height="0.5779999999999728" fill="#252525" />
<rect x="1.1709999999999454" y="0.005" width="0.5779999999999728" height="0.5779999999999728" fill="#252525" />
<rect x="1.7539999999999183" y="0.005" width="0.5779999999999728" height="0.5779999999999728" fill="#252525" />
<rect x="2.336999999999891" y="0.005" width="0.5779999999999728" height="0.5779999999999728" fill="#252525" />
<rect x="2.9199999999998636" y="0.005" width="0.5779999999999728" height="0.5779999999999728" fill="#252525" />
<rect x="0.005" y="0.5879999999999728" width="0.5779999999999728" height="0.5779999999999728" fill="#252525" />
<rect x="0.5879999999999728" y="0.5879999999999728" width="0.5779999999999728" height="0.5779999999999728" fill="#54D2EB" />
<rect x="1.1709999999999454" y="0.5879999999999728" width="0.5779999999999728" height="0.5779999999999728" fill="#54D2EB" />
<rect x="1.7539999999999183" y="0.5879999999999728" width="0.5779999999999728" height="0.5779999999999728" fill="#54D2EB" />
<rect x="2.336999999999891" y="0.5879999999999728" width="0.5779999999999728" height="0.5779999999999728" fill="#54D2EB" />
<rect x="2.9199999999998636" y="0.5879999999999728" width="0.5779999999999728" height="0.5779999999999728" fill="#54D2EB" />
<rect x="0.005" y="1.1709999999999454" width="0.5779999999999728" height="0.5779999999999728" fill="#252525" />
<rect x="0.5879999999999728" y="1.1709999999999454" width="0.5779999999999728" height="0.5779999999999728" fill="#252525" />
<rect x="1.1709999999999454" y="1.1709999999999454" width="0.5779999999999728" height="0.5779999999999728" fill="#252525" />
<rect x="1.7539999999999183" y="1.1709999999999454" width="0.5779999999999728" height="0.5779999999999728" fill="#252525" />
<rect x="2.336999999999891" y="1.1709999999999454" width="0.5779999999999728" height="0.5779999999999728" fill="#252525" />
<rect x="2.9199999999998636" y="1.1709999999999454" width="0.5779999999999728" height="0.5779999999999728" fill="#54D2EB" />
<rect x="0.005" y="1.7539999999999183" width="0.5779999999999728" height="0.5779999999999728" fill="#252525" />
<rect x="0.5879999999999728" y="1.7539999999999183" width="0.5779999999999728" height="0.5779999999999728" fill="#252525" />
<rect x="1.1709999999999454" y="1.7539999999999183" width="0.5779999999999728" height="0.5779999999999728" fill="#252525" />
<rect x="1.7539999999999183" y="1.7539999999999183" width="0.5779999999999728" height="0.5779999999999728" fill="#252525" />
<rect x="2.336999999999891" y="1.7539999999999183" width="0.5779999999999728" height="0.5779999999999728" fill="#252525" />
<rect x="2.9199999999998636" y="1.7539999999999183" width="0.5779999999999728" height="0.5779999999999728" fill="#54D2EB" />
<rect x="0.005" y="2.336999999999891" width="0.5779999999999728" height="0.5779999999999728" fill="#252525" />
<rect x="0.5879999999999728" y="2.336999999999891" width="0.5779999999999728" height="0.5779999999999728" fill="#252525" />
<rect x="1.1709999999999454" y="2.336999999999891" width="0.5779999999999728" height="0.5779999999999728" fill="#252525" />
<rect x="1.7539999999999183" y="2.336999999999891" width="0.5779999999999728" height="0.5779999999999728" fill="#E6E6E6" />
<rect x="2.336999999999891" y="2.336999999999891" width="0.5779999999999728" height="0.5779999999999728" fill="#E6E6E6" />
<rect x="2.9199999999998636" y="2.336999999999891" width="0.5779999999999728" height="0.5779999999999728" fill="#E6E6E6" />
<rect x="0.005" y="2.9199999999998636" width="0.5779999999999728" height="0.5779999999999728" fill="#252525" />
<rect x="0.5879999999999728" y="2.9199999999998636" width="0.5779999999999728" height="0.5779999999999728" fill="#252525" />
<rect x="1.1709999999999454" y="2.9199999999998636" width="0.5779999999999728" height="0.5779999999999728" fill="#252525" />
<rect x="1.7539999999999183" y="2.9199999999998636" width="0.5779999999999728" height="0.5779999999999728" fill="#252525" />
<rect x="2.336999999999891" y="2.9199999999998636" width="0.5779999999999728" height="0.5779999999999728" fill="#252525" />
<rect x="2.9199999999998636" y="2.9199999999998636" width="0.5779999999999728" height="0.5779999999999728" fill="#E6E6E6" />
<rect x="-0.02666666666666667" y="-0.02666666666666667" width="3.55133333333317" height="3.55133333333317" fill="none" stroke="#111111ff" stroke-width="0.08" />
<text x="3.497999999999837" y="3.966749999999837" font-size="0.375" fill="black" text-anchor="end" font-family="Anuphan">6x6</text>
<text x="-0.037500000000000006" y="3.966749999999837" font-size="0.375" fill="black" text-anchor="start" font-family="Anuphan" font-weight="600">Output 3</text>
</g>
<g id="d8">
<rect x="0.005" y="0.005" width="0.6945999999999672" height="0.6945999999999672" fill="#252525" />
<rect x="0.7045999999999673" y="0.005" width="0.6945999999999672" height="0.6945999999999672" fill="#252525" />
<rect x="1.4041999999999344" y="0.005" width="0.6945999999999672" height="0.6945999999999672" fill="#252525" />
<rect x="2.1037999999999015" y="0.005" width="0.6945999999999672" height="0.6945999999999672" fill="#252525" />
<rect x="2.803399999999869" y="0.005" width="0.6945999999999672" height="0.6945999999999672" fill="#252525" />
<rect x="0.005" y="0.7045999999999673" width="0.6945999999999672" height="0.6945999999999672" fill="#252525" />
<rect x="0.7045999999999673" y="0.7045999999999673" width="0.6945999999999672" height="0.6945999999999672" fill="#252525" />
<rect x="1.4041999999999344" y="0.7045999999999673" width="0.6945999999999672" height="0.6945999999999672" fill="#54D2EB" />
<rect x="2.1037999999999015" y="0.7045999999999673" width="0.6945999999999672" height="0.6945999999999672" fill="#54D2EB" />
<rect x="2.803399999999869" y="0.7045999999999673" width="0.6945999999999672" height="0.6945999999999672" fill="#54D2EB" />
<rect x="0.005" y="1.4041999999999344" width="0.6945999999999672" height="0.6945999999999672" fill="#252525" />
<rect x="0.7045999999999673" y="1.4041999999999344" width="0.6945999999999672" height="0.6945999999999672" fill="#252525" />
<rect x="1.4041999999999344" y="1.4041999999999344" width="0.6945999999999672" height="0.6945999999999672" fill="#252525" />
<rect x="2.1037999999999015" y="1.4041999999999344" width="0.6945999999999672" height="0.6945999999999672" fill="#252525" />
<rect x="2.803399999999869" y="1.4041999999999344" width="0.6945999999999672" height="0.6945999999999672" fill="#54D2EB" />
<rect x="0.005" y="2.1037999999999015" width="0.6945999999999672" height="0.6945999999999672" fill="#252525" />
<rect x="0.7045999999999673" y="2.1037999999999015" width="0.6945999999999672" height="0.6945999999999672" fill="#FF871E" />
<rect x="1.4041999999999344" y="2.1037999999999015" width="0.6945999999999672" height="0.6945999999999672" fill="#FF871E" />
<rect x="2.1037999999999015" y="2.1037999999999015" width="0.6945999999999672" height="0.6945999999999672" fill="#FF871E" />
<rect x="2.803399999999869" y="2.1037999999999015" width="0.6945999999999672" height="0.6945999999999672" fill="#FF871E" />
<rect x="0.005" y="2.803399999999869" width="0.6945999999999672" height="0.6945999999999672" fill="#252525" />
<rect x="0.7045999999999673" y="2.803399999999869" width="0.6945999999999672" height="0.6945999999999672" fill="#252525" />
<rect x="1.4041999999999344" y="2.803399999999869" width="0.6945999999999672" height="0.6945999999999672" fill="#252525" />
<rect x="2.1037999999999015" y="2.803399999999869" width="0.6945999999999672" height="0.6945999999999672" fill="#252525" />
<rect x="2.803399999999869" y="2.803399999999869" width="0.6945999999999672" height="0.6945999999999672" fill="#FF871E" />
<rect x="0.005" y="3.5029999999998362" width="0.6945999999999672" height="0.6945999999999672" fill="#252525" />
<rect x="0.7045999999999673" y="3.5029999999998362" width="0.6945999999999672" height="0.6945999999999672" fill="#252525" />
<rect x="1.4041999999999344" y="3.5029999999998362" width="0.6945999999999672" height="0.6945999999999672" fill="#F012BE" />
<rect x="2.1037999999999015" y="3.5029999999998362" width="0.6945999999999672" height="0.6945999999999672" fill="#F012BE" />
<rect x="2.803399999999869" y="3.5029999999998362" width="0.6945999999999672" height="0.6945999999999672" fill="#F012BE" />
<rect x="0.005" y="4.202599999999803" width="0.6945999999999672" height="0.6945999999999672" fill="#252525" />
<rect x="0.7045999999999673" y="4.202599999999803" width="0.6945999999999672" height="0.6945999999999672" fill="#252525" />
<rect x="1.4041999999999344" y="4.202599999999803" width="0.6945999999999672" height="0.6945999999999672" fill="#252525" />
<rect x="2.1037999999999015" y="4.202599999999803" width="0.6945999999999672" height="0.6945999999999672" fill="#252525" />
<rect x="2.803399999999869" y="4.202599999999803" width="0.6945999999999672" height="0.6945999999999672" fill="#F012BE" />
<rect x="-0.02666666666666667" y="-0.02666666666666667" width="3.5513333333331696" height="4.950533333333104" fill="none" stroke="#111111ff" stroke-width="0.08" />
<text x="3.4979999999998364" y="5.365949999999771" font-size="0.375" fill="black" text-anchor="end" font-family="Anuphan">5x7</text>
<text x="-0.037500000000000006" y="5.365949999999771" font-size="0.375" fill="black" text-anchor="start" font-family="Anuphan" font-weight="600">Output 4</text>
</g>
</defs>
<rect x="0" y="0" width="100%" height="100%" fill="#eeeff6" />
<use xlink:href="#d0" x="0.24999999999999978" y="0.25" />
<use xlink:href="#d1" x="4.247999999999837" y="0.25" />
<use xlink:href="#d2" x="8.245999999999674" y="0.25" />
<use xlink:href="#d3" x="12.24399999999951" y="0.25" />
<use xlink:href="#d4" x="16.241999999999344" y="0.25" />
<path d="M1.9989999999999184,5.797199999999771 L1.9989999999999184,6.197199999999771" stroke-width="0.05" stroke="#888888" />
<path d="M1.8489999999999185,5.997199999999771 L1.9989999999999184,6.197199999999771" stroke-width="0.05" stroke="#888888" />
<path d="M2.1489999999999183,5.997199999999771 L1.9989999999999184,6.197199999999771" stroke-width="0.05" stroke="#888888" />
<use xlink:href="#d5" x="0.24999999999999978" y="6.547199999999771" />
<path d="M5.996999999999755,5.797199999999771 L5.996999999999755,6.197199999999771" stroke-width="0.05" stroke="#888888" />
<path d="M5.846999999999754,5.997199999999771 L5.996999999999755,6.197199999999771" stroke-width="0.05" stroke="#888888" />
<path d="M6.146999999999755,5.997199999999771 L5.996999999999755,6.197199999999771" stroke-width="0.05" stroke="#888888" />
<use xlink:href="#d6" x="4.247999999999837" y="6.547199999999771" />
<path d="M9.994999999999592,5.797199999999771 L9.994999999999592,6.197199999999771" stroke-width="0.05" stroke="#888888" />
<path d="M9.844999999999592,5.997199999999771 L9.994999999999592,6.197199999999771" stroke-width="0.05" stroke="#888888" />
<path d="M10.144999999999593,5.997199999999771 L9.994999999999592,6.197199999999771" stroke-width="0.05" stroke="#888888" />
<use xlink:href="#d7" x="8.245999999999674" y="6.547199999999771" />
<path d="M13.992999999999428,5.797199999999771 L13.992999999999428,6.197199999999771" stroke-width="0.05" stroke="#888888" />
<path d="M13.842999999999428,5.997199999999771 L13.992999999999428,6.197199999999771" stroke-width="0.05" stroke="#888888" />
<path d="M14.142999999999429,5.997199999999771 L13.992999999999428,6.197199999999771" stroke-width="0.05" stroke="#888888" />
<use xlink:href="#d8" x="12.24399999999951" y="6.547199999999771" />
<path d="M17.990999999999264,5.797199999999771 L17.990999999999264,6.197199999999771" stroke-width="0.05" stroke="#888888" />
<path d="M17.840999999999266,5.997199999999771 L17.990999999999264,6.197199999999771" stroke-width="0.05" stroke="#888888" />
<path d="M18.140999999999263,5.997199999999771 L17.990999999999264,6.197199999999771" stroke-width="0.05" stroke="#888888" />
<text x="17.990999999999264" y="8.177574999999699" font-size="1" font-family="Anuphan" font-weight="700" fill="#333333" text-anchor="middle" alignment-baseline="middle">?</text>
<text x="19.9" y="12.299999999999999" font-size="0.3" font-family="Anuphan" font-weight="600" fill="#666666" text-anchor="end" alignment-baseline="bottom">Task 99fa7670</text>
</svg>