<?xml version="1.0" encoding="UTF-8"?>
<svg xmlns="http://www.w3.org/2000/svg" xmlns:xlink="http://www.w3.org/1999/xlink"
     width="800.0" height="172.0" viewBox="0 0 20.0 4.3">
<defs>
<g id="d0">
<rect x="0.005" y="0.005" width="0.27816666666666073" height="0.27816666666666073" fill="#FFDC00" />
<rect x="0.28816666666666074" y="0.005" width="0.27816666666666073" height="0.27816666666666073" fill="#252525" />
<rect x="0.5713333333333215" y="0.005" width="0.27816666666666073" height="0.27816666666666073" fill="#FFDC00" />
<rect x="0.8544999999999822" y="0.005" width="0.27816666666666073" height="0.27816666666666073" fill="#252525" />
<rect x="1.1376666666666428" y="0.005" width="0.27816666666666073" height="0.27816666666666073" fill="#FFDC00" />
<rect x="1.4208333333333036" y="0.005" width="0.27816666666666073" height="0.27816666666666073" fill="#252525" />
<rect x="1.7039999999999642" y="0.005" width="0.27816666666666073" height="0.27816666666666073" fill="#FFDC00" />
<rect x="1.987166666666625" y="0.005" width="0.27816666666666073" height="0.27816666666666073" fill="#252525" />
<rect x="2.270333333333286" y="0.005" width="0.27816666666666073" height="0.27816666666666073" fill="#FFDC00" />
<rect x="2.5534999999999464" y="0.005" width="0.27816666666666073" height="0.27816666666666073" fill="#252525" />
<rect x="0.005" y="0.28816666666666074" width="0.27816666666666073" height="0.27816666666666073" fill="#FFDC00" />
<rect x="0.28816666666666074" y="0.28816666666666074" width="0.27816666666666073" height="0.27816666666666073" fill="#FFDC00" />
<rect x="0.5713333333333215" y="0.28816666666666074" width="0.27816666666666073" height="0.27816666666666073" fill="#FFDC00" />
<rect x="0.8544999999999822" y="0.28816666666666074" width="0.27816666666666073" height="0.27816666666666073" fill="#FFDC00" />
<rect x="1.1376666666666428" y="0.28816666666666074" width="0.27816666666666073" height="0.27816666666666073" fill="#FFDC00" />
<rect x="1.4208333333333036" y="0.28816666666666074" width="0.27816666666666073" height="0.27816666666666073" fill="#FFDC00" />
<rect x="1.7039999999999642" y="0.28816666666666074" width="0.27816666666666073" height="0.27816666666666073" fill="#FFDC00" />
<rect x="1.987166666666625" y="0.28816666666666074" width="0.27816666666666073" height="0.27816666666666073" fill="#FFDC00" />
<rect x="2.270333333333286" y="0.28816666666666074" width="0.27816666666666073" height="0.27816666666666073" fill="#FFDC00" />
<rect x="2.5534999999999464" y="0.28816666666666074" width="0.27816666666666073" height="0.27816666666666073" fill="#FFDC00" />
<rect x="0.005" y="0.5713333333333215" width="0.27816666666666073" height="0.27816666666666073" fill="#252525" />
<rect x="0.28816666666666074" y="0.5713333333333215" width="0.27816666666666073" height="0.27816666666666073" fill="#FFDC00" />
<rect x="0.5713333333333215" y="0.5713333333333215" width="0.27816666666666073" height="0.27816666666666073" fill="#252525" />
<rect x="0.8544999999999822" y="0.5713333333333215" width="0.27816666666666073" height="0.27816666666666073" fill="#FFDC00" />
<rect x="1.1376666666666428" y="0.5713333333333215" width="0.27816666666666073" height="0.27816666666666073" fill="#252525" />
<rect x="1.4208333333333036" y="0.5713333333333215" width="0.27816666666666073" height="0.27816666666666073" fill="#FFDC00" />
<rect x="1.7039999999999642" y="0.5713333333333215" width="0.27816666666666073" height="0.27816666666666073" fill="#252525" />
<rect x="1.987166666666625" y="0.5713333333333215" width="0.27816666666666073" height="0.27816666666666073" fill="#FFDC00" />
<rect x="2.270333333333286" y="0.5713333333333215" width="0.27816666666666073" height="0.27816666666666073" fill="#252525" />
<rect x="2.5534999999999464" y="0.5713333333333215" width="0.27816666666666073" height="0.27816666666666073" fill="#FFDC00" />
<rect x="-0.02666666666666667" y="-0.02666666666666667" width="2.8849999999999407" height="0.9028333333333155" fill="none" stroke="#111111ff" stroke-width="0.08" />
<text x="2.8316666666666075" y="1.3182499999999822" font-size="0.375" fill="black" text-anchor="end" font-family="Anuphan">10x3</text>
<text x="-0.037500000000000006" y="1.3182499999999822" font-size="0.375" fill="black" text-anchor="start" font-family="Anuphan" font-weight="600">Input 1</text>
</g>
<g id="d1">
<rect x="0.005" y="0.005" width="0.25242424242423706" height="0.25242424242423706" fill="#252525" />
<rect x="0.26242424242423706" y="0.005" width="0.25242424242423706" height="0.25242424242423706" fill="#FFDC00" />
<rect x="0.5198484848484741" y="0.005" width="0.25242424242423706" height="0.25242424242423706" fill="#252525" />
<rect x="0.7772727272727112" y="0.005" width="0.25242424242423706" height="0.25242424242423706" fill="#FFDC00" />
<rect x="1.0346969696969481" y="0.005" width="0.25242424242423706" height="0.25242424242423706" fill="#252525" />
<rect x="1.2921212121211851" y="0.005" width="0.25242424242423706" height="0.25242424242423706" fill="#FFDC00" />
<rect x="1.5495454545454224" y="0.005" width="0.25242424242423706" height="0.25242424242423706" fill="#252525" />
<rect x="1.8069696969696594" y="0.005" width="0.25242424242423706" height="0.25242424242423706" fill="#FFDC00" />
<rect x="2.0643939393938964" y="0.005" width="0.25242424242423706" height="0.25242424242423706" fill="#252525" />
<rect x="2.3218181818181334" y="0.005" width="0.25242424242423706" height="0.25242424242423706" fill="#FFDC00" />
<rect x="2.5792424242423704" y="0.005" width="0.25242424242423706" height="0.25242424242423706" fill="#252525" />
<rect x="0.005" y="0.26242424242423706" width="0.25242424242423706" height="0.25242424242423706" fill="#FFDC00" />
<rect x="0.26242424242423706" y="0.26242424242423706" width="0.25242424242423706" height="0.25242424242423706" fill="#FFDC00" />
<rect x="0.5198484848484741" y="0.26242424242423706" width="0.25242424242423706" height="0.25242424242423706" fill="#FFDC00" />
<rect x="0.7772727272727112" y="0.26242424242423706" width="0.25242424242423706" height="0.25242424242423706" fill="#FFDC00" />
<rect x="1.0346969696969481" y="0.26242424242423706" width="0.25242424242423706" height="0.25242424242423706" fill="#FFDC00" />
<rect x="1.2921212121211851" y="0.26242424242423706" width="0.25242424242423706" height="0.25242424242423706" fill="#FFDC00" />
<rect x="1.5495454545454224" y="0.26242424242423706" width="0.25242424242423706" height="0.25242424242423706" fill="#FFDC00" />
<rect x="1.8069696969696594" y="0.26242424242423706" width="0.25242424242423706" height="0.25242424242423706" fill="#FFDC00" />
<rect x="2.0643939393938964" y="0.26242424242423706" width="0.25242424242423706" height="0.25242424242423706" fill="#FFDC00" />
<rect x="2.3218181818181334" y="0.26242424242423706" width="0.25242424242423706" height="0.25242424242423706" fill="#FFDC00" />
<rect x="2.5792424242423704" y="0.26242424242423706" width="0.25242424242423706" height="0.25242424242423706" fill="#FFDC00" />
<rect x="0.005" y="0.5198484848484741" width="0.25242424242423706" height="0.25242424242423706" fill="#FFDC00" />
<rect x="0.26242424242423706" y="0.5198484848484741" width="0.25242424242423706" height="0.25242424242423706" fill="#252525" />
<rect x="0.5198484848484741" y="0.5198484848484741" width="0.25242424242423706" height="0.25242424242423706" fill="#FFDC00" />
<rect x="0.7772727272727112" y="0.5198484848484741" width="0.25242424242423706" height="0.25242424242423706" fill="#252525" />
<rect x="1.0346969696969481" y="0.5198484848484741" width="0.25242424242423706" height="0.25242424242423706" fill="#FFDC00" />
<rect x="1.2921212121211851" y="0.5198484848484741" width="0.25242424242423706" height="0.25242424242423706" fill="#252525" />
<rect x="1.5495454545454224" y="0.5198484848484741" width="0.25242424242423706" height="0.25242424242423706" fill="#FFDC00" />
<rect x="1.8069696969696594" y="0.5198484848484741" width="0.25242424242423706" height="0.25242424242423706" fill="#252525" />
<rect x="2.0643939393938964" y="0.5198484848484741" width="0.25242424242423706" height="0.25242424242423706" fill="#FFDC00" />
<rect x="2.3218181818181334" y="0.5198484848484741" width="0.25242424242423706" height="0.25242424242423706" fill="#252525" />
<rect x="2.5792424242423704" y="0.5198484848484741" width="0.25242424242423706" height="0.25242424242423706" fill="#FFDC00" />
<rect x="-0.02666666666666667" y="-0.02666666666666667" width="2.8849999999999407" height="0.8256060606060446" fill="none" stroke="#111111ff" stroke-width="0.08" />
<text x="2.8316666666666075" y="1.2410227272727112" font-size="0.375" fill="black" text-anchor="end" font-family="Anuphan">11x3</text>
<text x="-0.037500000000000006" y="1.2410227272727112" font-size="0.375" fill="black" text-anchor="start" font-family="Anuphan" font-weight="600">Input 2</text>
</g>
<g id="d2">
<rect x="0.005" y="0.005" width="0.25242424242423706" height="0.25242424242423706" fill="#FFDC00" />
<rect x="0.26242424242423706" y="0.005" width="0.25242424242423706" height="0.25242424242423706" fill="#252525" />
<rect x="0.5198484848484741" y="0.005" width="0.25242424242423706" height="0.25242424242423706" fill="#FFDC00" />
<rect x="0.7772727272727112" y="0.005" width="0.25242424242423706" height="0.25242424242423706" fill="#252525" />
<rect x="1.0346969696969481" y="0.005" width="0.25242424242423706" height="0.25242424242423706" fill="#FFDC00" />
<rect x="1.2921212121211851" y="0.005" width="0.25242424242423706" height="0.25242424242423706" fill="#252525" />
<rect x="1.5495454545454224" y="0.005" width="0.25242424242423706" height="0.25242424242423706" fill="#FFDC00" />
<rect x="1.8069696969696594" y="0.005" width="0.25242424242423706" height="0.25242424242423706" fill="#252525" />
<rect x="2.0643939393938964" y="0.005" width="0.25242424242423706" height="0.25242424242423706" fill="#FFDC00" />
<rect x="2.3218181818181334" y="0.005" width="0.25242424242423706" height="0.25242424242423706" fill="#252525" />
<rect x="2.5792424242423704" y="0.005" width="0.25242424242423706" height="0.25242424242423706" fill="#FFDC00" />
<rect x="0.005" y="0.26242424242423706" width="0.25242424242423706" height="0.25242424242423706" fill="#FFDC00" />
<rect x="0.26242424242423706" y="0.26242424242423706" width="0.25242424242423706" height="0.25242424242423706" fill="#FFDC00" />
<rect x="0.5198484848484741" y="0.26242424242423706" width="0.25242424242423706" height="0.25242424242423706" fill="#FFDC00" />
<rect x="0.7772727272727112" y="0.26242424242423706" width="0.25242424242423706" height="0.25242424242423706" fill="#FFDC00" />
<rect x="1.0346969696969481" y="0.26242424242423706" width="0.25242424242423706" height="0.25242424242423706" fill="#FFDC00" />
<rect x="1.2921212121211851" y="0.26242424242423706" width="0.25242424242423706" height="0.25242424242423706" fill="#FFDC00" />
<rect x="1.5495454545454224" y="0.26242424242423706" width="0.25242424242423706" height="0.25242424242423706" fill="#FFDC00" />
<rect x="1.8069696969696594" y="0.26242424242423706" width="0.25242424242423706" height="0.25242424242423706" fill="#FFDC00" />
<rect x="2.0643939393938964" y="0.26242424242423706" width="0.25242424242423706" height="0.25242424242423706" fill="#FFDC00" />
<rect x="2.3218181818181334" y="0.26242424242423706" width="0.25242424242423706" height="0.25242424242423706" fill="#FFDC00" />
<rect x="2.5792424242423704" y="0.26242424242423706" width="0.25242424242423706" height="0.25242424242423706" fill="#FFDC00" />
<rect x="0.005" y="0.5198484848484741" width="0.25242424242423706" height="0.25242424242423706" fill="#252525" />
<rect x="0.26242424242423706" y="0.5198484848484741" width="0.25242424242423706" height="0.25242424242423706" fill="#FFDC00" />
<rect x="0.5198484848484741" y="0.5198484848484741" width="0.25242424242423706" height="0.25242424242423706" fill="#252525" />
<rect x="0.7772727272727112" y="0.5198484848484741" width="0.25242424242423706" height="0.25242424242423706" fill="#FFDC00" />
<rect x="1.0346969696969481" y="0.5198484848484741" width="0.25242424242423706" height="0.25242424242423706" fill="#252525" />
<rect x="1.2921212121211851" y="0.5198484848484741" width="0.25242424242423706" height="0.25242424242423706" fill="#FFDC00" />
<rect x="1.5495454545454224" y="0.5198484848484741" width="0.25242424242423706" height="0.25242424242423706" fill="#252525" />
<rect x="1.8069696969696594" y="0.5198484848484741" width="0.25242424242423706" height="0.25242424242423706" fill="#FFDC00" />
<rect x="2.0643939393938964" y="0.5198484848484741" width="0.25242424242423706" height="0.25242424242423706" fill="#252525" />
<rect x="2.3218181818181334" y="0.5198484848484741" width="0.25242424242423706" height="0.25242424242423706" fill="#FFDC00" />
<rect x="2.5792424242423704" y="0.5198484848484741" width="0.25242424242423706" height="0.25242424242423706" fill="#252525" />
<rect x="-0.02666666666666667" y="-0.02666666666666667" width="2.8849999999999407" height="0.8256060606060446" fill="none" stroke="#111111ff" stroke-width="0.08" />
<text x="2.8316666666666075" y="1.2410227272727112" font-size="0.375" fill="black" text-anchor="end" font-family="Anuphan">11x3</text>
<text x="-0.037500000000000006" y="1.2410227272727112" font-size="0.375" fill="black" text-anchor="start" font-family="Anuphan" font-weight="600">Input 3</text>
</g>
<g id="d3">
<rect x="0.005" y="0.005" width="0.21282051282050826" height="0.21282051282050826" fill="#FFDC00" />
<rect x="0.22282051282050827" y="0.005" width="0.21282051282050826" height="0.21282051282050826" fill="#252525" />
<rect x="0.44064102564101654" y="0.005" width="0.21282051282050826" height="0.21282051282050826" fill="#FFDC00" />
<rect x="0.6584615384615248" y="0.005" width="0.21282051282050826" height="0.21282051282050826" fill="#252525" />
<rect x="0.8762820512820331" y="0.005" width="0.21282051282050826" height="0.21282051282050826" fill="#FFDC00" />
<rect x="1.0941025641025413" y="0.005" width="0.21282051282050826" height="0.21282051282050826" fill="#252525" />
<rect x="1.3119230769230494" y="0.005" width="0.21282051282050826" height="0.21282051282050826" fill="#FFDC00" />
<rect x="1.5297435897435578" y="0.005" width="0.21282051282050826" height="0.21282051282050826" fill="#252525" />
<rect x="1.747564102564066" y="0.005" width="0.21282051282050826" height="0.21282051282050826" fill="#FFDC00" />
<rect x="1.9653846153845742" y="0.005" width="0.21282051282050826" height="0.21282051282050826" fill="#252525" />
<rect x="2.1832051282050826" y="0.005" width="0.21282051282050826" height="0.21282051282050826" fill="#FFDC00" />
<rect x="2.401025641025591" y="0.005" width="0.21282051282050826" height="0.21282051282050826" fill="#252525" />
<rect x="2.618846153846099" y="0.005" width="0.21282051282050826" height="0.21282051282050826" fill="#FFDC00" />
<rect x="0.005" y="0.22282051282050827" width="0.21282051282050826" height="0.21282051282050826" fill="#FFDC00" />
<rect x="0.22282051282050827" y="0.22282051282050827" width="0.21282051282050826" height="0.21282051282050826" fill="#FFDC00" />
<rect x="0.44064102564101654" y="0.22282051282050827" width="0.21282051282050826" height="0.21282051282050826" fill="#FFDC00" />
<rect x="0.6584615384615248" y="0.22282051282050827" width="0.21282051282050826" height="0.21282051282050826" fill="#FFDC00" />
<rect x="0.8762820512820331" y="0.22282051282050827" width="0.21282051282050826" height="0.21282051282050826" fill="#FFDC00" />
<rect x="1.0941025641025413" y="0.22282051282050827" width="0.21282051282050826" height="0.21282051282050826" fill="#FFDC00" />
<rect x="1.3119230769230494" y="0.22282051282050827" width="0.21282051282050826" height="0.21282051282050826" fill="#FFDC00" />
<rect x="1.5297435897435578" y="0.22282051282050827" width="0.21282051282050826" height="0.21282051282050826" fill="#FFDC00" />
<rect x="1.747564102564066" y="0.22282051282050827" width="0.21282051282050826" height="0.21282051282050826" fill="#FFDC00" />
<rect x="1.9653846153845742" y="0.22282051282050827" width="0.21282051282050826" height="0.21282051282050826" fill="#FFDC00" />
<rect x="2.1832051282050826" y="0.22282051282050827" width="0.21282051282050826" height="0.21282051282050826" fill="#FFDC00" />
<rect x="2.401025641025591" y="0.22282051282050827" width="0.21282051282050826" height="0.21282051282050826" fill="#FFDC00" />
<rect x="2.618846153846099" y="0.22282051282050827" width="0.21282051282050826" height="0.21282051282050826" fill="#FFDC00" />
<rect x="0.005" y="0.44064102564101654" width="0.21282051282050826" height="0.21282051282050826" fill="#252525" />
<rect x="0.22282051282050827" y="0.44064102564101654" width="0.21282051282050826" height="0.21282051282050826" fill="#FFDC00" />
<rect x="0.44064102564101654" y="0.44064102564101654" width="0.21282051282050826" height="0.21282051282050826" fill="#252525" />
<rect x="0.6584615384615248" y="0.44064102564101654" width="0.21282051282050826" height="0.21282051282050826" fill="#FFDC00" />
<rect x="0.8762820512820331" y="0.44064102564101654" width="0.21282051282050826" height="0.21282051282050826" fill="#252525" />
<rect x="1.0941025641025413" y="0.44064102564101654" width="0.21282051282050826" height="0.21282051282050826" fill="#FFDC00" />
<rect x="1.3119230769230494" y="0.44064102564101654" width="0.21282051282050826" height="0.21282051282050826" fill="#252525" />
<rect x="1.5297435897435578" y="0.44064102564101654" width="0.21282051282050826" height="0.21282051282050826" fill="#FFDC00" />
<rect x="1.747564102564066" y="0.44064102564101654" width="0.21282051282050826" height="0.21282051282050826" fill="#252525" />
<rect x="1.9653846153845742" y="0.44064102564101654" width="0.21282051282050826" height="0.21282051282050826" fill="#FFDC00" />
<rect x="2.1832051282050826" y="0.44064102564101654" width="0.21282051282050826" height="0.21282051282050826" fill="#252525" />
<rect x="2.401025641025591" y="0.44064102564101654" width="0.21282051282050826" height="0.21282051282050826" fill="#FFDC00" />
<rect x="2.618846153846099" y="0.44064102564101654" width="0.21282051282050826" height="0.21282051282050826" fill="#252525" />
<rect x="-0.02666666666666667" y="-0.02666666666666667" width="2.8849999999999407" height="0.7067948717948581" fill="none" stroke="#111111ff" stroke-width="0.08" />
<text x="2.8316666666666075" y="1.1222115384615248" font-size="0.375" fill="black" text-anchor="end" font-family="Anuphan">13x3</text>
<text x="-0.037500000000000006" y="1.1222115384615248" font-size="0.375" fill="black" text-anchor="start" font-family="Anuphan" font-weight="600">Input 4</text>
</g>
<g id="d4">
<rect x="0.005" y="0.005" width="0.19726190476190053" height="0.19726190476190053" fill="#252525" />
<rect x="0.20726190476190054" y="0.005" width="0.19726190476190053" height="0.19726190476190053" fill="#FFDC00" />
<rect x="0.4095238095238011" y="0.005" width="0.19726190476190053" height="0.19726190476190053" fill="#252525" />
<rect x="0.6117857142857016" y="0.005" width="0.19726190476190053" height="0.19726190476190053" fill="#FFDC00" />
<rect x="0.8140476190476021" y="0.005" width="0.19726190476190053" height="0.19726190476190053" fill="#252525" />
<rect x="1.0163095238095026" y="0.005" width="0.19726190476190053" height="0.19726190476190053" fill="#FFDC00" />
<rect x="1.218571428571403" y="0.005" width="0.19726190476190053" height="0.19726190476190053" fill="#252525" />
<rect x="1.4208333333333036" y="0.005" width="0.19726190476190053" height="0.19726190476190053" fill="#FFDC00" />
<rect x="1.6230952380952042" y="0.005" width="0.19726190476190053" height="0.19726190476190053" fill="#252525" />
<rect x="1.8253571428571047" y="0.005" width="0.19726190476190053" height="0.19726190476190053" fill="#FFDC00" />
<rect x="2.0276190476190052" y="0.005" width="0.19726190476190053" height="0.19726190476190053" fill="#252525" />
<rect x="2.229880952380906" y="0.005" width="0.19726190476190053" height="0.19726190476190053" fill="#FFDC00" />
<rect x="2.4321428571428063" y="0.005" width="0.19726190476190053" height="0.19726190476190053" fill="#252525" />
<rect x="2.634404761904707" y="0.005" width="0.19726190476190053" height="0.19726190476190053" fill="#FFDC00" />
<rect x="0.005" y="0.20726190476190054" width="0.19726190476190053" height="0.19726190476190053" fill="#FFDC00" />
<rect x="0.20726190476190054" y="0.20726190476190054" width="0.19726190476190053" height="0.19726190476190053" fill="#FFDC00" />
<rect x="0.4095238095238011" y="0.20726190476190054" width="0.19726190476190053" height="0.19726190476190053" fill="#FFDC00" />
<rect x="0.6117857142857016" y="0.20726190476190054" width="0.19726190476190053" height="0.19726190476190053" fill="#FFDC00" />
<rect x="0.8140476190476021" y="0.20726190476190054" width="0.19726190476190053" height="0.19726190476190053" fill="#FFDC00" />
<rect x="1.0163095238095026" y="0.20726190476190054" width="0.19726190476190053" height="0.19726190476190053" fill="#FFDC00" />
<rect x="1.218571428571403" y="0.20726190476190054" width="0.19726190476190053" height="0.19726190476190053" fill="#FFDC00" />
<rect x="1.4208333333333036" y="0.20726190476190054" width="0.19726190476190053" height="0.19726190476190053" fill="#FFDC00" />
<rect x="1.6230952380952042" y="0.20726190476190054" width="0.19726190476190053" height="0.19726190476190053" fill="#FFDC00" />
<rect x="1.8253571428571047" y="0.20726190476190054" width="0.19726190476190053" height="0.19726190476190053" fill="#FFDC00" />
<rect x="2.0276190476190052" y="0.20726190476190054" width="0.19726190476190053" height="0.19726190476190053" fill="#FFDC00" />
<rect x="2.229880952380906" y="0.20726190476190054" width="0.19726190476190053" height="0.19726190476190053" fill="#FFDC00" />
<rect x="2.4321428571428063" y="0.20726190476190054" width="0.19726190476190053" height="0.19726190476190053" fill="#FFDC00" />
<rect x="2.634404761904707" y="0.20726190476190054" width="0.19726190476190053" height="0.19726190476190053" fill="#FFDC00" />
<rect x="0.005" y="0.4095238095238011" width="0.19726190476190053" height="0.19726190476190053" fill="#FFDC00" />
<rect x="0.20726190476190054" y="0.4095238095238011" width="0.19726190476190053" height="0.19726190476190053" fill="#252525" />
<rect x="0.4095238095238011" y="0.4095238095238011" width="0.19726190476190053" height="0.19726190476190053" fill="#FFDC00" />
<rect x="0.6117857142857016" y="0.4095238095238011" width="0.19726190476190053" height="0.19726190476190053" fill="#252525" />
<rect x="0.8140476190476021" y="0.4095238095238011" width="0.19726190476190053" height="0.19726190476190053" fill="#FFDC00" />
<rect x="1.0163095238095026" y="0.4095238095238011" width="0.19726190476190053" height="0.19726190476190053" fill="#252525" />
<rect x="1.218571428571403" y="0.4095238095238011" width="0.19726190476190053" height="0.19726190476190053" fill="#FFDC00" />
<rect x="1.4208333333333036" y="0.4095238095238011" width="0.19726190476190053" height="0.19726190476190053" fill="#252525" />
<rect x="1.6230952380952042" y="0.4095238095238011" width="0.19726190476190053" height="0.19726190476190053" fill="#FFDC00" />
<rect x="1.8253571428571047" y="0.4095238095238011" width="0.19726190476190053" height="0.19726190476190053" fill="#252525" />
<rect x="2.0276190476190052" y="0.4095238095238011" width="0.19726190476190053" height="0.19726190476190053" fill="#FFDC00" />
<rect x="2.229880952380906" y="0.4095238095238011" width="0.19726190476190053" height="0.19726190476190053" fill="#252525" />
<rect x="2.4321428571428063" y="0.4095238095238011" width="0.19726190476190053" height="0.19726190476190053" fill="#FFDC00" />
<rect x="2.634404761904707" y="0.4095238095238011" width="0.19726190476190053" height="0.19726190476190053" fill="#252525" />
<rect x="-0.02666666666666667" y="-0.02666666666666667" width="2.8849999999999407" height="0.660119047619035" fill="none" stroke="#111111ff" stroke-width="0.08" />
<text x="2.8316666666666075" y="1.0755357142857016" font-size="0.375" fill="black" text-anchor="end" font-family="Anuphan">14x3</text>
<text x="-0.037500000000000006" y="1.0755357142857016" font-size="0.375" fill="black" text-anchor="start" font-family="Anuphan" font-weight="600">Input 5</text>
</g>
<g id="d5">
<rect x="0.005" y="0.005" width="0.16156862745097691" height="0.16156862745097691" fill="#252525" />
<rect x="0.17156862745097692" y="0.005" width="0.16156862745097691" height="0.16156862745097691" fill="#FFDC00" />
<rect x="0.33813725490195384" y="0.005" width="0.16156862745097691" height="0.16156862745097691" fill="#252525" />
<rect x="0.5047058823529308" y="0.005" width="0.16156862745097691" height="0.16156862745097691" fill="#FFDC00" />
<rect x="0.6712745098039077" y="0.005" width="0.16156862745097691" height="0.16156862745097691" fill="#252525" />
<rect x="0.8378431372548846" y="0.005" width="0.16156862745097691" height="0.16156862745097691" fill="#FFDC00" />
<rect x="1.0044117647058615" y="0.005" width="0.16156862745097691" height="0.16156862745097691" fill="#252525" />
<rect x="1.1709803921568382" y="0.005" width="0.16156862745097691" height="0.16156862745097691" fill="#FFDC00" />
<rect x="1.3375490196078152" y="0.005" width="0.16156862745097691" height="0.16156862745097691" fill="#252525" />
<rect x="1.5041176470587923" y="0.005" width="0.16156862745097691" height="0.16156862745097691" fill="#FFDC00" />
<rect x="1.670686274509769" y="0.005" width="0.16156862745097691" height="0.16156862745097691" fill="#252525" />
<rect x="1.837254901960746" y="0.005" width="0.16156862745097691" height="0.16156862745097691" fill="#FFDC00" />
<rect x="2.003823529411723" y="0.005" width="0.16156862745097691" height="0.16156862745097691" fill="#252525" />
<rect x="2.1703921568627" y="0.005" width="0.16156862745097691" height="0.16156862745097691" fill="#FFDC00" />
<rect x="2.3369607843136766" y="0.005" width="0.16156862745097691" height="0.16156862745097691" fill="#252525" />
<rect x="2.503529411764654" y="0.005" width="0.16156862745097691" height="0.16156862745097691" fill="#FFDC00" />
<rect x="2.6700980392156306" y="0.005" width="0.16156862745097691" height="0.16156862745097691" fill="#252525" />
<rect x="0.005" y="0.17156862745097692" width="0.16156862745097691" height="0.16156862745097691" fill="#FFDC00" />
<rect x="0.17156862745097692" y="0.17156862745097692" width="0.16156862745097691" height="0.16156862745097691" fill="#FFDC00" />
<rect x="0.33813725490195384" y="0.17156862745097692" width="0.16156862745097691" height="0.16156862745097691" fill="#FFDC00" />
<rect x="0.5047058823529308" y="0.17156862745097692" width="0.16156862745097691" height="0.16156862745097691" fill="#FFDC00" />
<rect x="0.6712745098039077" y="0.17156862745097692" width="0.16156862745097691" height="0.16156862745097691" fill="#FFDC00" />
<rect x="0.8378431372548846" y="0.17156862745097692" width="0.16156862745097691" height="0.16156862745097691" fill="#FFDC00" />
<rect x="1.0044117647058615" y="0.17156862745097692" width="0.16156862745097691" height="0.16156862745097691" fill="#FFDC00" />
<rect x="1.1709803921568382" y="0.17156862745097692" width="0.16156862745097691" height="0.16156862745097691" fill="#FFDC00" />
<rect x="1.3375490196078152" y="0.17156862745097692" width="0.16156862745097691" height="0.16156862745097691" fill="#FFDC00" />
<rect x="1.5041176470587923" y="0.17156862745097692" width="0.16156862745097691" height="0.16156862745097691" fill="#FFDC00" />
<rect x="1.670686274509769" y="0.17156862745097692" width="0.16156862745097691" height="0.16156862745097691" fill="#FFDC00" />
<rect x="1.837254901960746" y="0.17156862745097692" width="0.16156862745097691" height="0.16156862745097691" fill="#FFDC00" />
<rect x="2.003823529411723" y="0.17156862745097692" width="0.16156862745097691" height="0.16156862745097691" fill="#FFDC00" />
<rect x="2.1703921568627" y="0.17156862745097692" width="0.16156862745097691" height="0.16156862745097691" fill="#FFDC00" />
<rect x="2.3369607843136766" y="0.17156862745097692" width="0.16156862745097691" height="0.16156862745097691" fill="#FFDC00" />
<rect x="2.503529411764654" y="0.17156862745097692" width="0.16156862745097691" height="0.16156862745097691" fill="#FFDC00" />
<rect x="2.6700980392156306" y="0.17156862745097692" width="0.16156862745097691" height="0.16156862745097691" fill="#FFDC00" />
<rect x="0.005" y="0.33813725490195384" width="0.16156862745097691" height="0.16156862745097691" fill="#FFDC00" />
<rect x="0.17156862745097692" y="0.33813725490195384" width="0.16156862745097691" height="0.16156862745097691" fill="#252525" />
<rect x="0.33813725490195384" y="0.33813725490195384" width="0.16156862745097691" height="0.16156862745097691" fill="#FFDC00" />
<rect x="0.5047058823529308" y="0.33813725490195384" width="0.16156862745097691" height="0.16156862745097691" fill="#252525" />
<rect x="0.6712745098039077" y="0.33813725490195384" width="0.16156862745097691" height="0.16156862745097691" fill="#FFDC00" />
<rect x="0.8378431372548846" y="0.33813725490195384" width="0.16156862745097691" height="0.16156862745097691" fill="#252525" />
<rect x="1.0044117647058615" y="0.33813725490195384" width="0.16156862745097691" height="0.16156862745097691" fill="#FFDC00" />
<rect x="1.1709803921568382" y="0.33813725490195384" width="0.16156862745097691" height="0.16156862745097691" fill="#252525" />
<rect x="1.3375490196078152" y="0.33813725490195384" width="0.16156862745097691" height="0.16156862745097691" fill="#FFDC00" />
<rect x="1.5041176470587923" y="0.33813725490195384" width="0.16156862745097691" height="0.16156862745097691" fill="#252525" />
<rect x="1.670686274509769" y="0.33813725490195384" width="0.16156862745097691" height="0.16156862745097691" fill="#FFDC00" />
<rect x="1.837254901960746" y="0.33813725490195384" width="0.16156862745097691" height="0.16156862745097691" fill="#252525" />
<rect x="2.003823529411723" y="0.33813725490195384" width="0.16156862745097691" height="0.16156862745097691" fill="#FFDC00" />
<rect x="2.1703921568627" y="0.33813725490195384" width="0.16156862745097691" height="0.16156862745097691" fill="#252525" />
<rect x="2.3369607843136766" y="0.33813725490195384" width="0.16156862745097691" height="0.16156862745097691" fill="#FFDC00" />
<rect x="2.503529411764654" y="0.33813725490195384" width="0.16156862745097691" height="0.16156862745097691" fill="#252525" />
<rect x="2.6700980392156306" y="0.33813725490195384" width="0.16156862745097691" height="0.16156862745097691" fill="#FFDC00" />
<rect x="-0.02666666666666667" y="-0.02666666666666667" width="2.8849999999999407" height="0.5530392156862641" fill="none" stroke="#111111ff" stroke-width="0.08" />
<text x="2.8316666666666075" y="0.9684558823529308" font-size="0.375" fill="black" text-anchor="end" font-family="Anuphan">17x3</text>
<text x="-0.037500000000000006" y="0.9684558823529308" font-size="0.375" fill="black" text-anchor="start" font-family="Anuphan" font-weight="600">Test 1</text>
</g>
<g id="d6">
<rect x="0.005" y="0.005" width="0.27816666666666073" height="0.27816666666666073" fill="#F012BE" />
<rect x="0.28816666666666074" y="0.005" width="0.27816666666666073" height="0.27816666666666073" fill="#252525" />
<rect x="0.5713333333333215" y="0.005" width="0.27816666666666073" height="0.27816666666666073" fill="#FFDC00" />
<rect x="0.8544999999999822" y="0.005" width="0.27816666666666073" height="0.27816666666666073" fill="#252525" />
<rect x="1.1376666666666428" y="0.005" width="0.27816666666666073" height="0.27816666666666073" fill="#FFDC00" />
<rect x="1.4208333333333036" y="0.005" width="0.27816666666666073" height="0.27816666666666073" fill="#252525" />
<rect x="1.7039999999999642" y="0.005" width="0.27816666666666073" height="0.27816666666666073" fill="#F012BE" />
<rect x="1.987166666666625" y="0.005" width="0.27816666666666073" height="0.27816666666666073" fill="#252525" />
<rect x="2.270333333333286" y="0.005" width="0.27816666666666073" height="0.27816666666666073" fill="#FFDC00" />
<rect x="2.5534999999999464" y="0.005" width="0.27816666666666073" height="0.27816666666666073" fill="#252525" />
<rect x="0.005" y="0.28816666666666074" width="0.27816666666666073" height="0.27816666666666073" fill="#F012BE" />
<rect x="0.28816666666666074" y="0.28816666666666074" width="0.27816666666666073" height="0.27816666666666073" fill="#FFDC00" />
<rect x="0.5713333333333215" y="0.28816666666666074" width="0.27816666666666073" height="0.27816666666666073" fill="#FFDC00" />
<rect x="0.8544999999999822" y="0.28816666666666074" width="0.27816666666666073" height="0.27816666666666073" fill="#F012BE" />
<rect x="1.1376666666666428" y="0.28816666666666074" width="0.27816666666666073" height="0.27816666666666073" fill="#FFDC00" />
<rect x="1.4208333333333036" y="0.28816666666666074" width="0.27816666666666073" height="0.27816666666666073" fill="#FFDC00" />
<rect x="1.7039999999999642" y="0.28816666666666074" width="0.27816666666666073" height="0.27816666666666073" fill="#F012BE" />
<rect x="1.987166666666625" y="0.28816666666666074" width="0.27816666666666073" height="0.27816666666666073" fill="#FFDC00" />
<rect x="2.270333333333286" y="0.28816666666666074" width="0.27816666666666073" height="0.27816666666666073" fill="#FFDC00" />
<rect x="2.5534999999999464" y="0.28816666666666074" width="0.27816666666666073" height="0.27816666666666073" fill="#F012BE" />
<rect x="0.005" y="0.5713333333333215" width="0.27816666666666073" height="0.27816666666666073" fill="#252525" />
<rect x="0.28816666666666074" y="0.5713333333333215" width="0.27816666666666073" height="0.27816666666666073" fill="#FFDC00" />
<rect x="0.5713333333333215" y="0.5713333333333215" width="0.27816666666666073" height="0.27816666666666073" fill="#252525" />
<rect x="0.8544999999999822" y="0.5713333333333215" width="0.27816666666666073" height="0.27816666666666073" fill="#F012BE" />
<rect x="1.1376666666666428" y="0.5713333333333215" width="0.27816666666666073" height="0.27816666666666073" fill="#252525" />
<rect x="1.4208333333333036" y="0.5713333333333215" width="0.27816666666666073" height="0.27816666666666073" fill="#FFDC00" />
<rect x="1.7039999999999642" y="0.5713333333333215" width="0.27816666666666073" height="0.27816666666666073" fill="#252525" />
<rect x="1.987166666666625" y="0.5713333333333215" width="0.27816666666666073" height="0.27816666666666073" fill="#FFDC00" />
<rect x="2.270333333333286" y="0.5713333333333215" width="0.27816666666666073" height="0.27816666666666073" fill="#252525" />
<rect x="2.5534999999999464" y="0.5713333333333215" width="0.27816666666666073" height="0.27816666666666073" fill="#F012BE" />
<rect x="-0.02666666666666667" y="-0.02666666666666667" width="2.8849999999999407" height="0.9028333333333155" fill="none" stroke="#111111ff" stroke-width="0.08" />
<text x="2.8316666666666075" y="1.3182499999999822" font-size="0.375" fill="black" text-anchor="end" font-family="Anuphan">10x3</text>
<text x="-0.037500000000000006" y="1.3182499999999822" font-size="0.375" fill="black" text-anchor="start" font-family="Anuphan" font-weight="600">Output 1</text>
</g>
<g id="d7">
<rect x="0.005" y="0.005" width="0.25242424242423706" height="0.25242424242423706" fill="#252525" />
<rect x="0.26242424242423706" y="0.005" width="0.25242424242423706" height="0.25242424242423706" fill="#FFDC00" />
<rect x="0.5198484848484741" y="0.005" width="0.25242424242423706" height="0.25242424242423706" fill="#252525" />
<rect x="0.7772727272727112" y="0.005" width="0.25242424242423706" height="0.25242424242423706" fill="#F012BE" />
<rect x="1.0346969696969481" y="0.005" width="0.25242424242423706" height="0.25242424242423706" fill="#252525" />
<rect x="1.2921212121211851" y="0.005" width="0.25242424242423706" height="0.25242424242423706" fill="#FFDC00" />
<rect x="1.5495454545454224" y="0.005" width="0.25242424242423706" height="0.25242424242423706" fill="#252525" />
<rect x="1.8069696969696594" y="0.005" width="0.25242424242423706" height="0.25242424242423706" fill="#FFDC00" />
<rect x="2.0643939393938964" y="0.005" width="0.25242424242423706" height="0.25242424242423706" fill="#252525" />
<rect x="2.3218181818181334" y="0.005" width="0.25242424242423706" height="0.25242424242423706" fill="#F012BE" />
<rect x="2.5792424242423704" y="0.005" width="0.25242424242423706" height="0.25242424242423706" fill="#252525" />
<rect x="0.005" y="0.26242424242423706" width="0.25242424242423706" height="0.25242424242423706" fill="#F012BE" />
<rect x="0.26242424242423706" y="0.26242424242423706" width="0.25242424242423706" height="0.25242424242423706" fill="#FFDC00" />
<rect x="0.5198484848484741" y="0.26242424242423706" width="0.25242424242423706" height="0.25242424242423706" fill="#FFDC00" />
<rect x="0.7772727272727112" y="0.26242424242423706" width="0.25242424242423706" height="0.25242424242423706" fill="#F012BE" />
<rect x="1.0346969696969481" y="0.26242424242423706" width="0.25242424242423706" height="0.25242424242423706" fill="#FFDC00" />
<rect x="1.2921212121211851" y="0.26242424242423706" width="0.25242424242423706" height="0.25242424242423706" fill="#FFDC00" />
<rect x="1.5495454545454224" y="0.26242424242423706" width="0.25242424242423706" height="0.25242424242423706" fill="#F012BE" />
<rect x="1.8069696969696594" y="0.26242424242423706" width="0.25242424242423706" height="0.25242424242423706" fill="#FFDC00" />
<rect x="2.0643939393938964" y="0.26242424242423706" width="0.25242424242423706" height="0.25242424242423706" fill="#FFDC00" />
<rect x="2.3218181818181334" y="0.26242424242423706" width="0.25242424242423706" height="0.25242424242423706" fill="#F012BE" />
<rect x="2.5792424242423704" y="0.26242424242423706" width="0.25242424242423706" height="0.25242424242423706" fill="#FFDC00" />
<rect x="0.005" y="0.5198484848484741" width="0.25242424242423706" height="0.25242424242423706" fill="#F012BE" />
<rect x="0.26242424242423706" y="0.5198484848484741" width="0.25242424242423706" height="0.25242424242423706" fill="#252525" />
<rect x="0.5198484848484741" y="0.5198484848484741" width="0.25242424242423706" height="0.25242424242423706" fill="#FFDC00" />
<rect x="0.7772727272727112" y="0.5198484848484741" width="0.25242424242423706" height="0.25242424242423706" fill="#252525" />
<rect x="1.0346969696969481" y="0.5198484848484741" width="0.25242424242423706" height="0.25242424242423706" fill="#FFDC00" />
<rect x="1.2921212121211851" y="0.5198484848484741" width="0.25242424242423706" height="0.25242424242423706" fill="#252525" />
<rect x="1.5495454545454224" y="0.5198484848484741" width="0.25242424242423706" height="0.25242424242423706" fill="#F012BE" />
<rect x="1.8069696969696594" y="0.5198484848484741" width="0.25242424242423706" height="0.25242424242423706" fill="#252525" />
<rect x="2.0643939393938964" y="0.5198484848484741" width="0.25242424242423706" height="0.25242424242423706" fill="#FFDC00" />
<rect x="2.3218181818181334" y="0.5198484848484741" width="0.25242424242423706" height="0.25242424242423706" fill="#252525" />
<rect x="2.5792424242423704" y="0.5198484848484741" width="0.25242424242423706" height="0.25242424242423706" fill="#FFDC00" />
<rect x="-0.02666666666666667" y="-0.02666666666666667" width="2.8849999999999407" height="0.8256060606060446" fill="none" stroke="#111111ff" stroke-width="0.08" />
<text x="2.8316666666666075" y="1.2410227272727112" font-size="0.375" fill="black" text-anchor="end" font-family="Anuphan">11x3</text>
<text x="-0.037500000000000006" y="1.2410227272727112" font-size="0.375" fill="black" text-anchor="start" font-family="Anuphan" font-weight="600">Output 2</text>
</g>
<g id="d8">
<rect x="0.005" y="0.005" width="0.25242424242423706" height="0.25242424242423706" fill="#F012BE" />
<rect x="0.26242424242423706" y="0.005" width="0.25242424242423706" height="0.25242424242423706" fill="#252525" />
<rect x="0.5198484848484741" y="0.005" width="0.25242424242423706" height="0.25242424242423706" fill="#FFDC00" />
<rect x="0.7772727272727112" y="0.005" width="0.25242424242423706" height="0.25242424242423706" fill="#252525" />
<rect x="1.0346969696969481" y="0.005" width="0.25242424242423706" height="0.25242424242423706" fill="#FFDC00" />
<rect x="1.2921212121211851" y="0.005" width="0.25242424242423706" height="0.25242424242423706" fill="#252525" />
<rect x="1.5495454545454224" y="0.005" width="0.25242424242423706" height="0.25242424242423706" fill="#F012BE" />
<rect x="1.8069696969696594" y="0.005" width="0.25242424242423706" height="0.25242424242423706" fill="#252525" />
<rect x="2.0643939393938964" y="0.005" width="0.25242424242423706" height="0.25242424242423706" fill="#FFDC00" />
<rect x="2.3218181818181334" y="0.005" width="0.25242424242423706" height="0.25242424242423706" fill="#252525" />
<rect x="2.5792424242423704" y="0.005" width="0.25242424242423706" height="0.25242424242423706" fill="#FFDC00" />
<rect x="0.005" y="0.26242424242423706" width="0.25242424242423706" height="0.25242424242423706" fill="#F012BE" />
<rect x="0.26242424242423706" y="0.26242424242423706" width="0.25242424242423706" height="0.25242424242423706" fill="#FFDC00" />
<rect x="0.5198484848484741" y="0.26242424242423706" width="0.25242424242423706" height="0.25242424242423706" fill="#FFDC00" />
<rect x="0.7772727272727112" y="0.26242424242423706" width="0.25242424242423706" height="0.25242424242423706" fill="#F012BE" />
<rect x="1.0346969696969481" y="0.26242424242423706" width="0.25242424242423706" height="0.25242424242423706" fill="#FFDC00" />
<rect x="1.2921212121211851" y="0.26242424242423706" width="0.25242424242423706" height="0.25242424242423706" fill="#FFDC00" />
<rect x="1.5495454545454224" y="0.26242424242423706" width="0.25242424242423706" height="0.25242424242423706" fill="#F012BE" />
<rect x="1.8069696969696594" y="0.26242424242423706" width="0.25242424242423706" height="0.25242424242423706" fill="#FFDC00" />
<rect x="2.0643939393938964" y="0.26242424242423706" width="0.25242424242423706" height="0.25242424242423706" fill="#FFDC00" />
<rect x="2.3218181818181334" y="0.26242424242423706" width="0.25242424242423706" height="0.25242424242423706" fill="#F012BE" />
<rect x="2.5792424242423704" y="0.26242424242423706" width="0.25242424242423706" height="0.25242424242423706" fill="#FFDC00" />
<rect x="0.005" y="0.5198484848484741" width="0.25242424242423706" height="0.25242424242423706" fill="#252525" />
<rect x="0.26242424242423706" y="0.5198484848484741" width="0.25242424242423706" height="0.25242424242423706" fill="#FFDC00" />
<rect x="0.5198484848484741" y="0.5198484848484741" width="0.25242424242423706" height="0.25242424242423706" fill="#252525" />
<rect x="0.7772727272727112" y="0.5198484848484741" width="0.25242424242423706" height="0.25242424242423706" fill="#F012BE" />
<rect x="1.0346969696969481" y="0.5198484848484741" width="0.25242424242423706" height="0.25242424242423706" fill="#252525" />
<rect x="1.2921212121211851" y="0.5198484848484741" width="0.25242424242423706" height="0.25242424242423706" fill="#FFDC00" />
<rect x="1.5495454545454224" y="0.5198484848484741" width="0.25242424242423706" height="0.25242424242423706" fill="#252525" />
<rect x="1.8069696969696594" y="0.5198484848484741" width="0.25242424242423706" height="0.25242424242423706" fill="#FFDC00" />
<rect x="2.0643939393938964" y="0.5198484848484741" width="0.25242424242423706" height="0.25242424242423706" fill="#252525" />
<rect x="2.3218181818181334" y="0.5198484848484741" width="0.25242424242423706" height="0.25242424242423706" fill="#F012BE" />
<rect x="2.5792424242423704" y="0.5198484848484741" width="0.25242424242423706" height="0.25242424242423706" fill="#252525" />
<rect x="-0.02666666666666667" y="-0.02666666666666667" width="2.8849999999999407" height="0.8256060606060446" fill="none" stroke="#111111ff" stroke-width="0.08" />
<text x="2.8316666666666075" y="1.2410227272727112" font-size="0.375" fill="black" text-anchor="end" font-family="Anuphan">11x3</text>
<text x="-0.037500000000000006" y="1.2410227272727112" font-size="0.375" fill="black" text-anchor="start" font-family="Anuphan" font-weight="600">Output 3</text>
</g>
<g id="d9">
<rect x="0.005" y="0.005" width="0.21282051282050826" height="0.21282051282050826" fill="#F012BE" />
<rect x="0.22282051282050827" y="0.005" width="0.21282051282050826" height="0.21282051282050826" fill="#252525" />
<rect x="0.44064102564101654" y="0.005" width="0.21282051282050826" height="0.21282051282050826" fill="#FFDC00" />
<rect x="0.6584615384615248" y="0.005" width="0.21282051282050826" height="0.21282051282050826" fill="#252525" />
<rect x="0.8762820512820331" y="0.005" width="0.21282051282050826" height="0.21282051282050826" fill="#FFDC00" />
<rect x="1.0941025641025413" y="0.005" width="0.21282051282050826" height="0.21282051282050826" fill="#252525" />
<rect x="1.3119230769230494" y="0.005" width="0.21282051282050826" height="0.21282051282050826" fill="#F012BE" />
<rect x="1.5297435897435578" y="0.005" width="0.21282051282050826" height="0.21282051282050826" fill="#252525" />
<rect x="1.747564102564066" y="0.005" width="0.21282051282050826" height="0.21282051282050826" fill="#FFDC00" />
<rect x="1.9653846153845742" y="0.005" width="0.21282051282050826" height="0.21282051282050826" fill="#252525" />
<rect x="2.1832051282050826" y="0.005" width="0.21282051282050826" height="0.21282051282050826" fill="#FFDC00" />
<rect x="2.401025641025591" y="0.005" width="0.21282051282050826" height="0.21282051282050826" fill="#252525" />
<rect x="2.618846153846099" y="0.005" width="0.21282051282050826" height="0.21282051282050826" fill="#F012BE" />
<rect x="0.005" y="0.22282051282050827" width="0.21282051282050826" height="0.21282051282050826" fill="#F012BE" />
<rect x="0.22282051282050827" y="0.22282051282050827" width="0.21282051282050826" height="0.21282051282050826" fill="#FFDC00" />
<rect x="0.44064102564101654" y="0.22282051282050827" width="0.21282051282050826" height="0.21282051282050826" fill="#FFDC00" />
<rect x="0.6584615384615248" y="0.22282051282050827" width="0.21282051282050826" height="0.21282051282050826" fill="#F012BE" />
<rect x="0.8762820512820331" y="0.22282051282050827" width="0.21282051282050826" height="0.21282051282050826" fill="#FFDC00" />
<rect x="1.0941025641025413" y="0.22282051282050827" width="0.21282051282050826" height="0.21282051282050826" fill="#FFDC00" />
<rect x="1.3119230769230494" y="0.22282051282050827" width="0.21282051282050826" height="0.21282051282050826" fill="#F012BE" />
<rect x="1.5297435897435578" y="0.22282051282050827" width="0.21282051282050826" height="0.21282051282050826" fill="#FFDC00" />
<rect x="1.747564102564066" y="0.22282051282050827" width="0.21282051282050826" height="0.21282051282050826" fill="#FFDC00" />
<rect x="1.9653846153845742" y="0.22282051282050827" width="0.21282051282050826" height="0.21282051282050826" fill="#F012BE" />
<rect x="2.1832051282050826" y="0.22282051282050827" width="0.21282051282050826" height="0.21282051282050826" fill="#FFDC00" />
<rect x="2.401025641025591" y="0.22282051282050827" width="0.21282051282050826" height="0.21282051282050826" fill="#FFDC00" />
<rect x="2.618846153846099" y="0.22282051282050827" width="0.21282051282050826" height="0.21282051282050826" fill="#F012BE" />
<rect x="0.005" y="0.44064102564101654" width="0.21282051282050826" height="0.21282051282050826" fill="#252525" />
<rect x="0.22282051282050827" y="0.44064102564101654" width="0.21282051282050826" height="0.21282051282050826" fill="#FFDC00" />
<rect x="0.44064102564101654" y="0.44064102564101654" width="0.21282051282050826" height="0.21282051282050826" fill="#252525" />
<rect x="0.6584615384615248" y="0.44064102564101654" width="0.21282051282050826" height="0.21282051282050826" fill="#F012BE" />
<rect x="0.8762820512820331" y="0.44064102564101654" width="0.21282051282050826" height="0.21282051282050826" fill="#252525" />
<rect x="1.0941025641025413" y="0.44064102564101654" width="0.21282051282050826" height="0.21282051282050826" fill="#FFDC00" />
<rect x="1.3119230769230494" y="0.44064102564101654" width="0.21282051282050826" height="0.21282051282050826" fill="#252525" />
<rect x="1.5297435897435578" y="0.44064102564101654" width="0.21282051282050826" height="0.21282051282050826" fill="#FFDC00" />
<rect x="1.747564102564066" y="0.44064102564101654" width="0.21282051282050826" height="0.21282051282050826" fill="#252525" />
<rect x="1.9653846153845742" y="0.44064102564101654" width="0.21282051282050826" height="0.21282051282050826" fill="#F012BE" />
<rect x="2.1832051282050826" y="0.44064102564101654" width="0.21282051282050826" height="0.21282051282050826" fill="#252525" />
<rect x="2.401025641025591" y="0.44064102564101654" width="0.21282051282050826" height="0.21282051282050826" fill="#FFDC00" />
<rect x="2.618846153846099" y="0.44064102564101654" width="0.21282051282050826" height="0.21282051282050826" fill="#252525" />
<rect x="-0.02666666666666667" y="-0.02666666666666667" width="2.8849999999999407" height="0.7067948717948581" fill="none" stroke="#111111ff" stroke-width="0.08" />
<text x="2.8316666666666075" y="1.1222115384615248" font-size="0.375" fill="black" text-anchor="end" font-family="Anuphan">13x3</text>
<text x="-0.037500000000000006" y="1.1222115384615248" font-size="0.375" fill="black" text-anchor="start" font-family="Anuphan" font-weight="600">Output 4</text>
</g>
<g id="d10">
<rect x="0.005" y="0.005" width="0.19726190476190053" height="0.19726190476190053" fill="#252525" />
<rect x="0.20726190476190054" y="0.005" width="0.19726190476190053" height="0.19726190476190053" fill="#FFDC00" />
<rect x="0.4095238095238011" y="0.005" width="0.19726190476190053" height="0.19726190476190053" fill="#252525" />
<rect x="0.6117857142857016" y="0.005" width="0.19726190476190053" height="0.19726190476190053" fill="#F012BE" />
<rect x="0.8140476190476021" y="0.005" width="0.19726190476190053" height="0.19726190476190053" fill="#252525" />
<rect x="1.0163095238095026" y="0.005" width="0.19726190476190053" height="0.19726190476190053" fill="#FFDC00" />
<rect x="1.218571428571403" y="0.005" width="0.19726190476190053" height="0.19726190476190053" fill="#252525" />
<rect x="1.4208333333333036" y="0.005" width="0.19726190476190053" height="0.19726190476190053" fill="#FFDC00" />
<rect x="1.6230952380952042" y="0.005" width="0.19726190476190053" height="0.19726190476190053" fill="#252525" />
<rect x="1.8253571428571047" y="0.005" width="0.19726190476190053" height="0.19726190476190053" fill="#F012BE" />
<rect x="2.0276190476190052" y="0.005" width="0.19726190476190053" height="0.19726190476190053" fill="#252525" />
<rect x="2.229880952380906" y="0.005" width="0.19726190476190053" height="0.19726190476190053" fill="#FFDC00" />
<rect x="2.4321428571428063" y="0.005" width="0.19726190476190053" height="0.19726190476190053" fill="#252525" />
<rect x="2.634404761904707" y="0.005" width="0.19726190476190053" height="0.19726190476190053" fill="#FFDC00" />
<rect x="0.005" y="0.20726190476190054" width="0.19726190476190053" height="0.19726190476190053" fill="#F012BE" />
<rect x="0.20726190476190054" y="0.20726190476190054" width="0.19726190476190053" height="0.19726190476190053" fill="#FFDC00" />
<rect x="0.4095238095238011" y="0.20726190476190054" width="0.19726190476190053" height="0.19726190476190053" fill="#FFDC00" />
<rect x="0.6117857142857016" y="0.20726190476190054" width="0.19726190476190053" height="0.19726190476190053" fill="#F012BE" />
<rect x="0.8140476190476021" y="0.20726190476190054" width="0.19726190476190053" height="0.19726190476190053" fill="#FFDC00" />
<rect x="1.0163095238095026" y="0.20726190476190054" width="0.19726190476190053" height="0.19726190476190053" fill="#FFDC00" />
<rect x="1.218571428571403" y="0.20726190476190054" width="0.19726190476190053" height="0.19726190476190053" fill="#F012BE" />
<rect x="1.4208333333333036" y="0.20726190476190054" width="0.19726190476190053" height="0.19726190476190053" fill="#FFDC00" />
<rect x="1.6230952380952042" y="0.20726190476190054" width="0.19726190476190053" height="0.19726190476190053" fill="#FFDC00" />
<rect x="1.8253571428571047" y="0.20726190476190054" width="0.19726190476190053" height="0.19726190476190053" fill="#F012BE" />
<rect x="2.0276190476190052" y="0.20726190476190054" width="0.19726190476190053" height="0.19726190476190053" fill="#FFDC00" />
<rect x="2.229880952380906" y="0.20726190476190054" width="0.19726190476190053" height="0.19726190476190053" fill="#FFDC00" />
<rect x="2.4321428571428063" y="0.20726190476190054" width="0.19726190476190053" height="0.19726190476190053" fill="#F012BE" />
<rect x="2.634404761904707" y="0.20726190476190054" width="0.19726190476190053" height="0.19726190476190053" fill="#FFDC00" />
<rect x="0.005" y="0.4095238095238011" width="0.19726190476190053" height="0.19726190476190053" fill="#F012BE" />
<rect x="0.20726190476190054" y="0.4095238095238011" width="0.19726190476190053" height="0.19726190476190053" fill="#252525" />
<rect x="0.4095238095238011" y="0.4095238095238011" width="0.19726190476190053" height="0.19726190476190053" fill="#FFDC00" />
<rect x="0.6117857142857016" y="0.4095238095238011" width="0.19726190476190053" height="0.19726190476190053" fill="#252525" />
<rect x="0.8140476190476021" y="0.4095238095238011" width="0.19726190476190053" height="0.19726190476190053" fill="#FFDC00" />
<rect x="1.0163095238095026" y="0.4095238095238011" width="0.19726190476190053" height="0.19726190476190053" fill="#252525" />
<rect x="1.218571428571403" y="0.4095238095238011" width="0.19726190476190053" height="0.19726190476190053" fill="#F012BE" />
<rect x="1.4208333333333036" y="0.4095238095238011" width="0.19726190476190053" height="0.19726190476190053" fill="#252525" />
<rect x="1.6230952380952042" y="0.4095238095238011" width="0.19726190476190053" height="0.19726190476190053" fill="#FFDC00" />
<rect x="1.8253571428571047" y="0.4095238095238011" width="0.19726190476190053" height="0.19726190476190053" fill="#252525" />
<rect x="2.0276190476190052" y="0.4095238095238011" width="0.19726190476190053" height="0.19726190476190053" fill="#FFDC00" />
<rect x="2.229880952380906" y="0.4095238095238011" width="0.19726190476190053" height="0.19726190476190053" fill="#252525" />
<rect x="2.4321428571428063" y="0.4095238095238011" width="0.19726190476190053" height="0.19726190476190053" fill="#F012BE" />
<rect x="2.634404761904707" y="0.4095238095238011" width="0.19726190476190053" height="0.19726190476190053" fill="#252525" />
<rect x="-0.02666666666666667" y="-0.02666666666666667" width="2.8849999999999407" height="0.660119047619035" fill="none" stroke="#111111ff" stroke-width="0.08" />
<text x="2.8316666666666075" y="1.0755357142857016" font-size="0.375" fill="black" text-anchor="end" font-family="Anuphan">14x3</text>
<text x="-0.037500000000000006" y="1.0755357142857016" font-size="0.375" fill="black" text-anchor="start" font-family="Anuphan" font-weight="600">Output 5</text>
</g>
</defs>
<rect x="0" y="0" width="100%" height="100%" fill="#eeeff6" />
<use xlink:href="#d0" x="0.25" y="0.25" />
<use xlink:href="#d1" x="3.5816666666666075" y="0.25" />
<use xlink:href="#d2" x="6.913333333333215" y="0.25" />
<use xlink:href="#d3" x="10.244999999999823" y="0.25" />
<use xlink:href="#d4" x="13.57666666666643" y="0.25" />
<use xlink:href="#d5" x="16.908333333333037" y="0.25" />
<path d="M1.6658333333333037,1.749499999999982 L1.6658333333333037,2.149499999999982" stroke-width="0.05" stroke="#888888" />
<path d="M1.5158333333333038,1.949499999999982 L1.6658333333333037,2.149499999999982" stroke-width="0.05" stroke="#888888" />
<path d="M1.8158333333333037,1.949499999999982 L1.6658333333333037,2.149499999999982" stroke-width="0.05" stroke="#888888" />
<use xlink:href="#d6" x="0.25" y="2.499499999999982" />
<path d="M4.997499999999912,1.749499999999982 L4.997499999999912,2.149499999999982" stroke-width="0.05" stroke="#888888" />
<path d="M4.847499999999911,1.949499999999982 L4.997499999999912,2.149499999999982" stroke-width="0.05" stroke="#888888" />
<path d="M5.147499999999912,1.949499999999982 L4.997499999999912,2.149499999999982" stroke-width="0.05" stroke="#888888" />
<use xlink:href="#d7" x="3.5816666666666075" y="2.499499999999982" />
<path d="M8.329166666666518,1.749499999999982 L8.329166666666518,2.149499999999982" stroke-width="0.05" stroke="#888888" />
<path d="M8.179166666666518,1.949499999999982 L8.329166666666518,2.149499999999982" stroke-width="0.05" stroke="#888888" />
<path d="M8.479166666666519,1.949499999999982 L8.329166666666518,2.149499999999982" stroke-width="0.05" stroke="#888888" />
<use xlink:href="#d8" x="6.913333333333215" y="2.499499999999982" />
<path d="M11.660833333333127,1.749499999999982 L11.660833333333127,2.149499999999982" stroke-width="0.05" stroke="#888888" />
<path d="M11.510833333333126,1.949499999999982 L11.660833333333127,2.149499999999982" stroke-width="0.05" stroke="#888888" />
<path d="M11.810833333333127,1.949499999999982 L11.660833333333127,2.149499999999982" stroke-width="0.05" stroke="#888888" />
<use xlink:href="#d9" x="10.244999999999823" y="2.499499999999982" />
<path d="M14.992499999999733,1.749499999999982 L14.992499999999733,2.149499999999982" stroke-width="0.05" stroke="#888888" />
<path d="M14.842499999999733,1.949499999999982 L14.992499999999733,2.149499999999982" stroke-width="0.05" stroke="#888888" />
<path d="M15.142499999999734,1.949499999999982 L14.992499999999733,2.149499999999982" stroke-width="0.05" stroke="#888888" />
<use xlink:href="#d10" x="13.57666666666643" y="2.499499999999982" />
<path d="M18.32416666666634,1.749499999999982 L18.32416666666634,2.149499999999982" stroke-width="0.05" stroke="#888888" />
<path d="M18.17416666666634,1.949499999999982 L18.32416666666634,2.149499999999982" stroke-width="0.05" stroke="#888888" />
<path d="M18.47416666666634,1.949499999999982 L18.32416666666634,2.149499999999982" stroke-width="0.05" stroke="#888888" />
<text x="18.32416666666634" y="2.8493529411764476" font-size="1" font-family="Anuphan" font-weight="700" fill="#333333" text-anchor="middle" alignment-baseline="middle">?</text>
<text x="19.9" y="4.199999999999999" font-size="0.3" font-family="Anuphan" font-weight="600" fill="#666666" text-anchor="end" alignment-baseline="bottom">Task ba26e723</text>
</svg>