<?xml version="1.0" encoding="UTF-8"?>
<svg xmlns="http://www.w3.org/2000/svg" xmlns:xlink="http://www.w3.org/1999/xlink"
     width="800.0" height="320.0" viewBox="0 0 20.0 8.0">
<defs>
<g id="d0">
<rect x="0.005" y="0.005" width="0.39952380952380107" height="0.39952380952380107" fill="#FF871E" />
<rect x="0.4095238095238011" y="0.005" width="0.39952380952380107" height="0.39952380952380107" fill="#FF871E" />
<rect x="0.8140476190476021" y="0.005" width="0.39952380952380107" height="0.39952380952380107" fill="#252525" />
<rect x="1.218571428571403" y="0.005" width="0.39952380952380107" height="0.39952380952380107" fill="#0074D9" />
<rect x="1.6230952380952042" y="0.005" width="0.39952380952380107" height="0.39952380952380107" fill="#E6E6E6" />
<rect x="2.0276190476190052" y="0.005" width="0.39952380952380107" height="0.39952380952380107" fill="#252525" />
<rect x="2.4321428571428063" y="0.005" width="0.39952380952380107" height="0.39952380952380107" fill="#252525" />
<rect x="0.005" y="0.4095238095238011" width="0.39952380952380107" height="0.39952380952380107" fill="#FF871E" />
<rect x="0.4095238095238011" y="0.4095238095238011" width="0.39952380952380107" height="0.39952380952380107" fill="#252525" />
<rect x="0.8140476190476021" y="0.4095238095238011" width="0.39952380952380107" height="0.39952380952380107" fill="#252525" />
<rect x="1.218571428571403" y="0.4095238095238011" width="0.39952380952380107" height="0.39952380952380107" fill="#0074D9" />
<rect x="1.6230952380952042" y="0.4095238095238011" width="0.39952380952380107" height="0.39952380952380107" fill="#E6E6E6" />
<rect x="2.0276190476190052" y="0.4095238095238011" width="0.39952380952380107" height="0.39952380952380107" fill="#252525" />
<rect x="2.4321428571428063" y="0.4095238095238011" width="0.39952380952380107" height="0.39952380952380107" fill="#252525" />
<rect x="0.005" y="0.8140476190476021" width="0.39952380952380107" height="0.39952380952380107" fill="#252525" />
<rect x="0.4095238095238011" y="0.8140476190476021" width="0.39952380952380107" height="0.39952380952380107" fill="#252525" />
<rect x="0.8140476190476021" y="0.8140476190476021" width="0.39952380952380107" height="0.39952380952380107" fill="#252525" />
<rect x="1.218571428571403" y="0.8140476190476021" width="0.39952380952380107" height="0.39952380952380107" fill="#0074D9" />
<rect x="1.6230952380952042" y="0.8140476190476021" width="0.39952380952380107" height="0.39952380952380107" fill="#E6E6E6" />
<rect x="2.0276190476190052" y="0.8140476190476021" width="0.39952380952380107" height="0.39952380952380107" fill="#252525" />
<rect x="2.4321428571428063" y="0.8140476190476021" width="0.39952380952380107" height="0.39952380952380107" fill="#E6E6E6" />
<rect x="0.005" y="1.218571428571403" width="0.39952380952380107" height="0.39952380952380107" fill="#252525" />
<rect x="0.4095238095238011" y="1.218571428571403" width="0.39952380952380107" height="0.39952380952380107" fill="#252525" />
<rect x="0.8140476190476021" y="1.218571428571403" width="0.39952380952380107" height="0.39952380952380107" fill="#252525" />
<rect x="1.218571428571403" y="1.218571428571403" width="0.39952380952380107" height="0.39952380952380107" fill="#0074D9" />
<rect x="1.6230952380952042" y="1.218571428571403" width="0.39952380952380107" height="0.39952380952380107" fill="#E6E6E6" />
<rect x="2.0276190476190052" y="1.218571428571403" width="0.39952380952380107" height="0.39952380952380107" fill="#E6E6E6" />
<rect x="2.4321428571428063" y="1.218571428571403" width="0.39952380952380107" height="0.39952380952380107" fill="#252525" />
<rect x="-0.02666666666666667" y="-0.02666666666666667" width="2.8849999999999407" height="1.6714285714285375" fill="none" stroke="#111111ff" stroke-width="0.08" />
<text x="2.8316666666666075" y="2.0868452380952043" font-size="0.375" fill="black" text-anchor="end" font-family="Anuphan">7x4</text>
<text x="-0.037500000000000006" y="2.0868452380952043" font-size="0.375" fill="black" text-anchor="start" font-family="Anuphan" font-weight="600">Input 1</text>
</g>
<g id="d1">
<rect x="0.005" y="0.005" width="0.39952380952380107" height="0.39952380952380107" fill="#FF871E" />
<rect x="0.4095238095238011" y="0.005" width="0.39952380952380107" height="0.39952380952380107" fill="#FF871E" />
<rect x="0.8140476190476021" y="0.005" width="0.39952380952380107" height="0.39952380952380107" fill="#252525" />
<rect x="1.218571428571403" y="0.005" width="0.39952380952380107" height="0.39952380952380107" fill="#0074D9" />
<rect x="1.6230952380952042" y="0.005" width="0.39952380952380107" height="0.39952380952380107" fill="#E6E6E6" />
<rect x="2.0276190476190052" y="0.005" width="0.39952380952380107" height="0.39952380952380107" fill="#252525" />
<rect x="2.4321428571428063" y="0.005" width="0.39952380952380107" height="0.39952380952380107" fill="#252525" />
<rect x="0.005" y="0.4095238095238011" width="0.39952380952380107" height="0.39952380952380107" fill="#252525" />
<rect x="0.4095238095238011" y="0.4095238095238011" width="0.39952380952380107" height="0.39952380952380107" fill="#252525" />
<rect x="0.8140476190476021" y="0.4095238095238011" width="0.39952380952380107" height="0.39952380952380107" fill="#252525" />
<rect x="1.218571428571403" y="0.4095238095238011" width="0.39952380952380107" height="0.39952380952380107" fill="#0074D9" />
<rect x="1.6230952380952042" y="0.4095238095238011" width="0.39952380952380107" height="0.39952380952380107" fill="#252525" />
<rect x="2.0276190476190052" y="0.4095238095238011" width="0.39952380952380107" height="0.39952380952380107" fill="#252525" />
<rect x="2.4321428571428063" y="0.4095238095238011" width="0.39952380952380107" height="0.39952380952380107" fill="#252525" />
<rect x="0.005" y="0.8140476190476021" width="0.39952380952380107" height="0.39952380952380107" fill="#FF871E" />
<rect x="0.4095238095238011" y="0.8140476190476021" width="0.39952380952380107" height="0.39952380952380107" fill="#FF871E" />
<rect x="0.8140476190476021" y="0.8140476190476021" width="0.39952380952380107" height="0.39952380952380107" fill="#252525" />
<rect x="1.218571428571403" y="0.8140476190476021" width="0.39952380952380107" height="0.39952380952380107" fill="#0074D9" />
<rect x="1.6230952380952042" y="0.8140476190476021" width="0.39952380952380107" height="0.39952380952380107" fill="#E6E6E6" />
<rect x="2.0276190476190052" y="0.8140476190476021" width="0.39952380952380107" height="0.39952380952380107" fill="#252525" />
<rect x="2.4321428571428063" y="0.8140476190476021" width="0.39952380952380107" height="0.39952380952380107" fill="#252525" />
<rect x="0.005" y="1.218571428571403" width="0.39952380952380107" height="0.39952380952380107" fill="#252525" />
<rect x="0.4095238095238011" y="1.218571428571403" width="0.39952380952380107" height="0.39952380952380107" fill="#FF871E" />
<rect x="0.8140476190476021" y="1.218571428571403" width="0.39952380952380107" height="0.39952380952380107" fill="#FF871E" />
<rect x="1.218571428571403" y="1.218571428571403" width="0.39952380952380107" height="0.39952380952380107" fill="#0074D9" />
<rect x="1.6230952380952042" y="1.218571428571403" width="0.39952380952380107" height="0.39952380952380107" fill="#E6E6E6" />
<rect x="2.0276190476190052" y="1.218571428571403" width="0.39952380952380107" height="0.39952380952380107" fill="#E6E6E6" />
<rect x="2.4321428571428063" y="1.218571428571403" width="0.39952380952380107" height="0.39952380952380107" fill="#252525" />
<rect x="-0.02666666666666667" y="-0.02666666666666667" width="2.8849999999999407" height="1.6714285714285375" fill="none" stroke="#111111ff" stroke-width="0.08" />
<text x="2.8316666666666075" y="2.0868452380952043" font-size="0.375" fill="black" text-anchor="end" font-family="Anuphan">7x4</text>
<text x="-0.037500000000000006" y="2.0868452380952043" font-size="0.375" fill="black" text-anchor="start" font-family="Anuphan" font-weight="600">Input 2</text>
</g>
<g id="d2">
<rect x="0.005" y="0.005" width="0.39952380952380107" height="0.39952380952380107" fill="#252525" />
<rect x="0.4095238095238011" y="0.005" width="0.39952380952380107" height="0.39952380952380107" fill="#FF871E" />
<rect x="0.8140476190476021" y="0.005" width="0.39952380952380107" height="0.39952380952380107" fill="#FF871E" />
<rect x="1.218571428571403" y="0.005" width="0.39952380952380107" height="0.39952380952380107" fill="#0074D9" />
<rect x="1.6230952380952042" y="0.005" width="0.39952380952380107" height="0.39952380952380107" fill="#E6E6E6" />
<rect x="2.0276190476190052" y="0.005" width="0.39952380952380107" height="0.39952380952380107" fill="#252525" />
<rect x="2.4321428571428063" y="0.005" width="0.39952380952380107" height="0.39952380952380107" fill="#252525" />
<rect x="0.005" y="0.4095238095238011" width="0.39952380952380107" height="0.39952380952380107" fill="#252525" />
<rect x="0.4095238095238011" y="0.4095238095238011" width="0.39952380952380107" height="0.39952380952380107" fill="#252525" />
<rect x="0.8140476190476021" y="0.4095238095238011" width="0.39952380952380107" height="0.39952380952380107" fill="#FF871E" />
<rect x="1.218571428571403" y="0.4095238095238011" width="0.39952380952380107" height="0.39952380952380107" fill="#0074D9" />
<rect x="1.6230952380952042" y="0.4095238095238011" width="0.39952380952380107" height="0.39952380952380107" fill="#252525" />
<rect x="2.0276190476190052" y="0.4095238095238011" width="0.39952380952380107" height="0.39952380952380107" fill="#E6E6E6" />
<rect x="2.4321428571428063" y="0.4095238095238011" width="0.39952380952380107" height="0.39952380952380107" fill="#E6E6E6" />
<rect x="0.005" y="0.8140476190476021" width="0.39952380952380107" height="0.39952380952380107" fill="#252525" />
<rect x="0.4095238095238011" y="0.8140476190476021" width="0.39952380952380107" height="0.39952380952380107" fill="#FF871E" />
<rect x="0.8140476190476021" y="0.8140476190476021" width="0.39952380952380107" height="0.39952380952380107" fill="#252525" />
<rect x="1.218571428571403" y="0.8140476190476021" width="0.39952380952380107" height="0.39952380952380107" fill="#0074D9" />
<rect x="1.6230952380952042" y="0.8140476190476021" width="0.39952380952380107" height="0.39952380952380107" fill="#E6E6E6" />
<rect x="2.0276190476190052" y="0.8140476190476021" width="0.39952380952380107" height="0.39952380952380107" fill="#E6E6E6" />
<rect x="2.4321428571428063" y="0.8140476190476021" width="0.39952380952380107" height="0.39952380952380107" fill="#252525" />
<rect x="0.005" y="1.218571428571403" width="0.39952380952380107" height="0.39952380952380107" fill="#252525" />
<rect x="0.4095238095238011" y="1.218571428571403" width="0.39952380952380107" height="0.39952380952380107" fill="#252525" />
<rect x="0.8140476190476021" y="1.218571428571403" width="0.39952380952380107" height="0.39952380952380107" fill="#FF871E" />
<rect x="1.218571428571403" y="1.218571428571403" width="0.39952380952380107" height="0.39952380952380107" fill="#0074D9" />
<rect x="1.6230952380952042" y="1.218571428571403" width="0.39952380952380107" height="0.39952380952380107" fill="#252525" />
<rect x="2.0276190476190052" y="1.218571428571403" width="0.39952380952380107" height="0.39952380952380107" fill="#252525" />
<rect x="2.4321428571428063" y="1.218571428571403" width="0.39952380952380107" height="0.39952380952380107" fill="#252525" />
<rect x="-0.02666666666666667" y="-0.02666666666666667" width="2.8849999999999407" height="1.6714285714285375" fill="none" stroke="#111111ff" stroke-width="0.08" />
<text x="2.8316666666666075" y="2.0868452380952043" font-size="0.375" fill="black" text-anchor="end" font-family="Anuphan">7x4</text>
<text x="-0.037500000000000006" y="2.0868452380952043" font-size="0.375" fill="black" text-anchor="start" font-family="Anuphan" font-weight="600">Input 3</text>
</g>
<g id="d3">
<rect x="0.005" y="0.005" width="0.39952380952380107" height="0.39952380952380107" fill="#FF871E" />
<rect x="0.4095238095238011" y="0.005" width="0.39952380952380107" height="0.39952380952380107" fill="#252525" />
<rect x="0.8140476190476021" y="0.005" width="0.39952380952380107" height="0.39952380952380107" fill="#FF871E" />
<rect x="1.218571428571403" y="0.005" width="0.39952380952380107" height="0.39952380952380107" fill="#0074D9" />
<rect x="1.6230952380952042" y="0.005" width="0.39952380952380107" height="0.39952380952380107" fill="#E6E6E6" />
<rect x="2.0276190476190052" y="0.005" width="0.39952380952380107" height="0.39952380952380107" fill="#E6E6E6" />
<rect x="2.4321428571428063" y="0.005" width="0.39952380952380107" height="0.39952380952380107" fill="#252525" />
<rect x="0.005" y="0.4095238095238011" width="0.39952380952380107" height="0.39952380952380107" fill="#FF871E" />
<rect x="0.4095238095238011" y="0.4095238095238011" width="0.39952380952380107" height="0.39952380952380107" fill="#FF871E" />
<rect x="0.8140476190476021" y="0.4095238095238011" width="0.39952380952380107" height="0.39952380952380107" fill="#252525" />
<rect x="1.218571428571403" y="0.4095238095238011" width="0.39952380952380107" height="0.39952380952380107" fill="#0074D9" />
<rect x="1.6230952380952042" y="0.4095238095238011" width="0.39952380952380107" height="0.39952380952380107" fill="#E6E6E6" />
<rect x="2.0276190476190052" y="0.4095238095238011" width="0.39952380952380107" height="0.39952380952380107" fill="#E6E6E6" />
<rect x="2.4321428571428063" y="0.4095238095238011" width="0.39952380952380107" height="0.39952380952380107" fill="#E6E6E6" />
<rect x="0.005" y="0.8140476190476021" width="0.39952380952380107" height="0.39952380952380107" fill="#252525" />
<rect x="0.4095238095238011" y="0.8140476190476021" width="0.39952380952380107" height="0.39952380952380107" fill="#FF871E" />
<rect x="0.8140476190476021" y="0.8140476190476021" width="0.39952380952380107" height="0.39952380952380107" fill="#252525" />
<rect x="1.218571428571403" y="0.8140476190476021" width="0.39952380952380107" height="0.39952380952380107" fill="#0074D9" />
<rect x="1.6230952380952042" y="0.8140476190476021" width="0.39952380952380107" height="0.39952380952380107" fill="#252525" />
<rect x="2.0276190476190052" y="0.8140476190476021" width="0.39952380952380107" height="0.39952380952380107" fill="#252525" />
<rect x="2.4321428571428063" y="0.8140476190476021" width="0.39952380952380107" height="0.39952380952380107" fill="#252525" />
<rect x="0.005" y="1.218571428571403" width="0.39952380952380107" height="0.39952380952380107" fill="#252525" />
<rect x="0.4095238095238011" y="1.218571428571403" width="0.39952380952380107" height="0.39952380952380107" fill="#252525" />
<rect x="0.8140476190476021" y="1.218571428571403" width="0.39952380952380107" height="0.39952380952380107" fill="#252525" />
<rect x="1.218571428571403" y="1.218571428571403" width="0.39952380952380107" height="0.39952380952380107" fill="#0074D9" />
<rect x="1.6230952380952042" y="1.218571428571403" width="0.39952380952380107" height="0.39952380952380107" fill="#E6E6E6" />
<rect x="2.0276190476190052" y="1.218571428571403" width="0.39952380952380107" height="0.39952380952380107" fill="#252525" />
<rect x="2.4321428571428063" y="1.218571428571403" width="0.39952380952380107" height="0.39952380952380107" fill="#E6E6E6" />
<rect x="-0.02666666666666667" y="-0.02666666666666667" width="2.8849999999999407" height="1.6714285714285375" fill="none" stroke="#111111ff" stroke-width="0.08" />
<text x="2.8316666666666075" y="2.0868452380952043" font-size="0.375" fill="black" text-anchor="end" font-family="Anuphan">7x4</text>
<text x="-0.037500000000000006" y="2.0868452380952043" font-size="0.375" fill="black" text-anchor="start" font-family="Anuphan" font-weight="600">Input 4</text>
</g>
<g id="d4">
<rect x="0.005" y="0.005" width="0.39952380952380107" height="0.39952380952380107" fill="#FF871E" />
<rect x="0.4095238095238011" y="0.005" width="0.39952380952380107" height="0.39952380952380107" fill="#252525" />
<rect x="0.8140476190476021" y="0.005" width="0.39952380952380107" height="0.39952380952380107" fill="#252525" />
<rect x="1.218571428571403" y="0.005" width="0.39952380952380107" height="0.39952380952380107" fill="#0074D9" />
<rect x="1.6230952380952042" y="0.005" width="0.39952380952380107" height="0.39952380952380107" fill="#252525" />
<rect x="2.0276190476190052" y="0.005" width="0.39952380952380107" height="0.39952380952380107" fill="#E6E6E6" />
<rect x="2.4321428571428063" y="0.005" width="0.39952380952380107" height="0.39952380952380107" fill="#252525" />
<rect x="0.005" y="0.4095238095238011" width="0.39952380952380107" height="0.39952380952380107" fill="#252525" />
<rect x="0.4095238095238011" y="0.4095238095238011" width="0.39952380952380107" height="0.39952380952380107" fill="#252525" />
<rect x="0.8140476190476021" y="0.4095238095238011" width="0.39952380952380107" height="0.39952380952380107" fill="#FF871E" />
<rect x="1.218571428571403" y="0.4095238095238011" width="0.39952380952380107" height="0.39952380952380107" fill="#0074D9" />
<rect x="1.6230952380952042" y="0.4095238095238011" width="0.39952380952380107" height="0.39952380952380107" fill="#E6E6E6" />
<rect x="2.0276190476190052" y="0.4095238095238011" width="0.39952380952380107" height="0.39952380952380107" fill="#252525" />
<rect x="2.4321428571428063" y="0.4095238095238011" width="0.39952380952380107" height="0.39952380952380107" fill="#252525" />
<rect x="0.005" y="0.8140476190476021" width="0.39952380952380107" height="0.39952380952380107" fill="#252525" />
<rect x="0.4095238095238011" y="0.8140476190476021" width="0.39952380952380107" height="0.39952380952380107" fill="#252525" />
<rect x="0.8140476190476021" y="0.8140476190476021" width="0.39952380952380107" height="0.39952380952380107" fill="#252525" />
<rect x="1.218571428571403" y="0.8140476190476021" width="0.39952380952380107" height="0.39952380952380107" fill="#0074D9" />
<rect x="1.6230952380952042" y="0.8140476190476021" width="0.39952380952380107" height="0.39952380952380107" fill="#E6E6E6" />
<rect x="2.0276190476190052" y="0.8140476190476021" width="0.39952380952380107" height="0.39952380952380107" fill="#E6E6E6" />
<rect x="2.4321428571428063" y="0.8140476190476021" width="0.39952380952380107" height="0.39952380952380107" fill="#E6E6E6" />
<rect x="0.005" y="1.218571428571403" width="0.39952380952380107" height="0.39952380952380107" fill="#FF871E" />
<rect x="0.4095238095238011" y="1.218571428571403" width="0.39952380952380107" height="0.39952380952380107" fill="#FF871E" />
<rect x="0.8140476190476021" y="1.218571428571403" width="0.39952380952380107" height="0.39952380952380107" fill="#FF871E" />
<rect x="1.218571428571403" y="1.218571428571403" width="0.39952380952380107" height="0.39952380952380107" fill="#0074D9" />
<rect x="1.6230952380952042" y="1.218571428571403" width="0.39952380952380107" height="0.39952380952380107" fill="#E6E6E6" />
<rect x="2.0276190476190052" y="1.218571428571403" width="0.39952380952380107" height="0.39952380952380107" fill="#E6E6E6" />
<rect x="2.4321428571428063" y="1.218571428571403" width="0.39952380952380107" height="0.39952380952380107" fill="#E6E6E6" />
<rect x="-0.02666666666666667" y="-0.02666666666666667" width="2.8849999999999407" height="1.6714285714285375" fill="none" stroke="#111111ff" stroke-width="0.08" />
<text x="2.8316666666666075" y="2.0868452380952043" font-size="0.375" fill="black" text-anchor="end" font-family="Anuphan">7x4</text>
<text x="-0.037500000000000006" y="2.0868452380952043" font-size="0.375" fill="black" text-anchor="start" font-family="Anuphan" font-weight="600">Input 5</text>
</g>
<g id="d5">
<rect x="0.005" y="0.005" width="0.39952380952380107" height="0.39952380952380107" fill="#252525" />
<rect x="0.4095238095238011" y="0.005" width="0.39952380952380107" height="0.39952380952380107" fill="#252525" />
<rect x="0.8140476190476021" y="0.005" width="0.39952380952380107" height="0.39952380952380107" fill="#252525" />
<rect x="1.218571428571403" y="0.005" width="0.39952380952380107" height="0.39952380952380107" fill="#0074D9" />
<rect x="1.6230952380952042" y="0.005" width="0.39952380952380107" height="0.39952380952380107" fill="#252525" />
<rect x="2.0276190476190052" y="0.005" width="0.39952380952380107" height="0.39952380952380107" fill="#E6E6E6" />
<rect x="2.4321428571428063" y="0.005" width="0.39952380952380107" height="0.39952380952380107" fill="#252525" />
<rect x="0.005" y="0.4095238095238011" width="0.39952380952380107" height="0.39952380952380107" fill="#FF871E" />
<rect x="0.4095238095238011" y="0.4095238095238011" width="0.39952380952380107" height="0.39952380952380107" fill="#FF871E" />
<rect x="0.8140476190476021" y="0.4095238095238011" width="0.39952380952380107" height="0.39952380952380107" fill="#FF871E" />
<rect x="1.218571428571403" y="0.4095238095238011" width="0.39952380952380107" height="0.39952380952380107" fill="#0074D9" />
<rect x="1.6230952380952042" y="0.4095238095238011" width="0.39952380952380107" height="0.39952380952380107" fill="#E6E6E6" />
<rect x="2.0276190476190052" y="0.4095238095238011" width="0.39952380952380107" height="0.39952380952380107" fill="#E6E6E6" />
<rect x="2.4321428571428063" y="0.4095238095238011" width="0.39952380952380107" height="0.39952380952380107" fill="#252525" />
<rect x="0.005" y="0.8140476190476021" width="0.39952380952380107" height="0.39952380952380107" fill="#252525" />
<rect x="0.4095238095238011" y="0.8140476190476021" width="0.39952380952380107" height="0.39952380952380107" fill="#252525" />
<rect x="0.8140476190476021" y="0.8140476190476021" width="0.39952380952380107" height="0.39952380952380107" fill="#252525" />
<rect x="1.218571428571403" y="0.8140476190476021" width="0.39952380952380107" height="0.39952380952380107" fill="#0074D9" />
<rect x="1.6230952380952042" y="0.8140476190476021" width="0.39952380952380107" height="0.39952380952380107" fill="#E6E6E6" />
<rect x="2.0276190476190052" y="0.8140476190476021" width="0.39952380952380107" height="0.39952380952380107" fill="#252525" />
<rect x="2.4321428571428063" y="0.8140476190476021" width="0.39952380952380107" height="0.39952380952380107" fill="#252525" />
<rect x="0.005" y="1.218571428571403" width="0.39952380952380107" height="0.39952380952380107" fill="#FF871E" />
<rect x="0.4095238095238011" y="1.218571428571403" width="0.39952380952380107" height="0.39952380952380107" fill="#252525" />
<rect x="0.8140476190476021" y="1.218571428571403" width="0.39952380952380107" height="0.39952380952380107" fill="#252525" />
<rect x="1.218571428571403" y="1.218571428571403" width="0.39952380952380107" height="0.39952380952380107" fill="#0074D9" />
<rect x="1.6230952380952042" y="1.218571428571403" width="0.39952380952380107" height="0.39952380952380107" fill="#E6E6E6" />
<rect x="2.0276190476190052" y="1.218571428571403" width="0.39952380952380107" height="0.39952380952380107" fill="#E6E6E6" />
<rect x="2.4321428571428063" y="1.218571428571403" width="0.39952380952380107" height="0.39952380952380107" fill="#E6E6E6" />
<rect x="-0.02666666666666667" y="-0.02666666666666667" width="2.8849999999999407" height="1.6714285714285375" fill="none" stroke="#111111ff" stroke-width="0.08" />
<text x="2.8316666666666075" y="2.0868452380952043" font-size="0.375" fill="black" text-anchor="end" font-family="Anuphan">7x4</text>
<text x="-0.037500000000000006" y="2.0868452380952043" font-size="0.375" fill="black" text-anchor="start" font-family="Anuphan" font-weight="600">Test 1</text>
</g>
<g id="d6">
<rect x="0.005" y="0.005" width="0.9388888888888691" height="0.9388888888888691" fill="#252525" />
<rect x="0.9488888888888691" y="0.005" width="0.9388888888888691" height="0.9388888888888691" fill="#252525" />
<rect x="1.8927777777777381" y="0.005" width="0.9388888888888691" height="0.9388888888888691" fill="#37D449" />
<rect x="0.005" y="0.9488888888888691" width="0.9388888888888691" height="0.9388888888888691" fill="#252525" />
<rect x="0.9488888888888691" y="0.9488888888888691" width="0.9388888888888691" height="0.9388888888888691" fill="#37D449" />
<rect x="1.8927777777777381" y="0.9488888888888691" width="0.9388888888888691" height="0.9388888888888691" fill="#37D449" />
<rect x="0.005" y="1.8927777777777381" width="0.9388888888888691" height="0.9388888888888691" fill="#252525" />
<rect x="0.9488888888888691" y="1.8927777777777381" width="0.9388888888888691" height="0.9388888888888691" fill="#37D449" />
<rect x="1.8927777777777381" y="1.8927777777777381" width="0.9388888888888691" height="0.9388888888888691" fill="#252525" />
<rect x="0.005" y="2.8366666666666074" width="0.9388888888888691" height="0.9388888888888691" fill="#252525" />
<rect x="0.9488888888888691" y="2.8366666666666074" width="0.9388888888888691" height="0.9388888888888691" fill="#252525" />
<rect x="1.8927777777777381" y="2.8366666666666074" width="0.9388888888888691" height="0.9388888888888691" fill="#37D449" />
<rect x="-0.02666666666666667" y="-0.02666666666666667" width="2.8849999999999407" height="3.8288888888888097" fill="none" stroke="#111111ff" stroke-width="0.08" />
<text x="2.8316666666666075" y="4.244305555555476" font-size="0.375" fill="black" text-anchor="end" font-family="Anuphan">3x4</text>
<text x="-0.037500000000000006" y="4.244305555555476" font-size="0.375" fill="black" text-anchor="start" font-family="Anuphan" font-weight="600">Output 1</text>
</g>
<g id="d7">
<rect x="0.005" y="0.005" width="0.9388888888888691" height="0.9388888888888691" fill="#252525" />
<rect x="0.9488888888888691" y="0.005" width="0.9388888888888691" height="0.9388888888888691" fill="#252525" />
<rect x="1.8927777777777381" y="0.005" width="0.9388888888888691" height="0.9388888888888691" fill="#37D449" />
<rect x="0.005" y="0.9488888888888691" width="0.9388888888888691" height="0.9388888888888691" fill="#37D449" />
<rect x="0.9488888888888691" y="0.9488888888888691" width="0.9388888888888691" height="0.9388888888888691" fill="#37D449" />
<rect x="1.8927777777777381" y="0.9488888888888691" width="0.9388888888888691" height="0.9388888888888691" fill="#37D449" />
<rect x="0.005" y="1.8927777777777381" width="0.9388888888888691" height="0.9388888888888691" fill="#252525" />
<rect x="0.9488888888888691" y="1.8927777777777381" width="0.9388888888888691" height="0.9388888888888691" fill="#252525" />
<rect x="1.8927777777777381" y="1.8927777777777381" width="0.9388888888888691" height="0.9388888888888691" fill="#37D449" />
<rect x="0.005" y="2.8366666666666074" width="0.9388888888888691" height="0.9388888888888691" fill="#252525" />
<rect x="0.9488888888888691" y="2.8366666666666074" width="0.9388888888888691" height="0.9388888888888691" fill="#252525" />
<rect x="1.8927777777777381" y="2.8366666666666074" width="0.9388888888888691" height="0.9388888888888691" fill="#252525" />
<rect x="-0.02666666666666667" y="-0.02666666666666667" width="2.8849999999999407" height="3.8288888888888097" fill="none" stroke="#111111ff" stroke-width="0.08" />
<text x="2.8316666666666075" y="4.244305555555476" font-size="0.375" fill="black" text-anchor="end" font-family="Anuphan">3x4</text>
<text x="-0.037500000000000006" y="4.244305555555476" font-size="0.375" fill="black" text-anchor="start" font-family="Anuphan" font-weight="600">Output 2</text>
</g>
<g id="d8">
<rect x="0.005" y="0.005" width="0.9388888888888691" height="0.9388888888888691" fill="#252525" />
<rect x="0.9488888888888691" y="0.005" width="0.9388888888888691" height="0.9388888888888691" fill="#252525" />
<rect x="1.8927777777777381" y="0.005" width="0.9388888888888691" height="0.9388888888888691" fill="#252525" />
<rect x="0.005" y="0.9488888888888691" width="0.9388888888888691" height="0.9388888888888691" fill="#37D449" />
<rect x="0.9488888888888691" y="0.9488888888888691" width="0.9388888888888691" height="0.9388888888888691" fill="#252525" />
<rect x="1.8927777777777381" y="0.9488888888888691" width="0.9388888888888691" height="0.9388888888888691" fill="#252525" />
<rect x="0.005" y="1.8927777777777381" width="0.9388888888888691" height="0.9388888888888691" fill="#252525" />
<rect x="0.9488888888888691" y="1.8927777777777381" width="0.9388888888888691" height="0.9388888888888691" fill="#252525" />
<rect x="1.8927777777777381" y="1.8927777777777381" width="0.9388888888888691" height="0.9388888888888691" fill="#37D449" />
<rect x="0.005" y="2.8366666666666074" width="0.9388888888888691" height="0.9388888888888691" fill="#37D449" />
<rect x="0.9488888888888691" y="2.8366666666666074" width="0.9388888888888691" height="0.9388888888888691" fill="#37D449" />
<rect x="1.8927777777777381" y="2.8366666666666074" width="0.9388888888888691" height="0.9388888888888691" fill="#252525" />
<rect x="-0.02666666666666667" y="-0.02666666666666667" width="2.8849999999999407" height="3.8288888888888097" fill="none" stroke="#111111ff" stroke-width="0.08" />
<text x="2.8316666666666075" y="4.244305555555476" font-size="0.375" fill="black" text-anchor="end" font-family="Anuphan">3x4</text>
<text x="-0.037500000000000006" y="4.244305555555476" font-size="0.375" fill="black" text-anchor="start" font-family="Anuphan" font-weight="600">Output 3</text>
</g>
<g id="d9">
<rect x="0.005" y="0.005" width="0.9388888888888691" height="0.9388888888888691" fill="#252525" />
<rect x="0.9488888888888691" y="0.005" width="0.9388888888888691" height="0.9388888888888691" fill="#252525" />
<rect x="1.8927777777777381" y="0.005" width="0.9388888888888691" height="0.9388888888888691" fill="#252525" />
<rect x="0.005" y="0.9488888888888691" width="0.9388888888888691" height="0.9388888888888691" fill="#252525" />
<rect x="0.9488888888888691" y="0.9488888888888691" width="0.9388888888888691" height="0.9388888888888691" fill="#252525" />
<rect x="1.8927777777777381" y="0.9488888888888691" width="0.9388888888888691" height="0.9388888888888691" fill="#252525" />
<rect x="0.005" y="1.8927777777777381" width="0.9388888888888691" height="0.9388888888888691" fill="#37D449" />
<rect x="0.9488888888888691" y="1.8927777777777381" width="0.9388888888888691" height="0.9388888888888691" fill="#252525" />
<rect x="1.8927777777777381" y="1.8927777777777381" width="0.9388888888888691" height="0.9388888888888691" fill="#37D449" />
<rect x="0.005" y="2.8366666666666074" width="0.9388888888888691" height="0.9388888888888691" fill="#252525" />
<rect x="0.9488888888888691" y="2.8366666666666074" width="0.9388888888888691" height="0.9388888888888691" fill="#37D449" />
<rect x="1.8927777777777381" y="2.8366666666666074" width="0.9388888888888691" height="0.9388888888888691" fill="#252525" />
<rect x="-0.02666666666666667" y="-0.02666666666666667" width="2.8849999999999407" height="3.8288888888888097" fill="none" stroke="#111111ff" stroke-width="0.08" />
<text x="2.8316666666666075" y="4.244305555555476" font-size="0.375" fill="black" text-anchor="end" font-family="Anuphan">3x4</text>
<text x="-0.037500000000000006" y="4.244305555555476" font-size="0.375" fill="black" text-anchor="start" font-family="Anuphan" font-weight="600">Output 4</text>
</g>
<g id="d10">
<rect x="0.005" y="0.005" width="0.9388888888888691" height="0.9388888888888691" fill="#252525" />
<rect x="0.9488888888888691" y="0.005" width="0.9388888888888691" height="0.9388888888888691" fill="#252525" />
<rect x="1.8927777777777381" y="0.005" width="0.9388888888888691" height="0.9388888888888691" fill="#37D449" />
<rect x="0.005" y="0.9488888888888691" width="0.9388888888888691" height="0.9388888888888691" fill="#252525" />
<rect x="0.9488888888888691" y="0.9488888888888691" width="0.9388888888888691" height="0.9388888888888691" fill="#37D449" />
<rect x="1.8927777777777381" y="0.9488888888888691" width="0.9388888888888691" height="0.9388888888888691" fill="#252525" />
<rect x="0.005" y="1.8927777777777381" width="0.9388888888888691" height="0.9388888888888691" fill="#252525" />
<rect x="0.9488888888888691" y="1.8927777777777381" width="0.9388888888888691" height="0.9388888888888691" fill="#252525" />
<rect x="1.8927777777777381" y="1.8927777777777381" width="0.9388888888888691" height="0.9388888888888691" fill="#252525" />
<rect x="0.005" y="2.8366666666666074" width="0.9388888888888691" height="0.9388888888888691" fill="#252525" />
<rect x="0.9488888888888691" y="2.8366666666666074" width="0.9388888888888691" height="0.9388888888888691" fill="#252525" />
<rect x="1.8927777777777381" y="2.8366666666666074" width="0.9388888888888691" height="0.9388888888888691" fill="#252525" />
<rect x="-0.02666666666666667" y="-0.02666666666666667" width="2.8849999999999407" height="3.8288888888888097" fill="none" stroke="#111111ff" stroke-width="0.08" />
<text x="2.8316666666666075" y="4.244305555555476" font-size="0.375" fill="black" text-anchor="end" font-family="Anuphan">3x4</text>
<text x="-0.037500000000000006" y="4.244305555555476" font-size="0.375" fill="black" text-anchor="start" font-family="Anuphan" font-weight="600">Output 5</text>
</g>
</defs>
<rect x="0" y="0" width="100%" height="100%" fill="#eeeff6" />
<use xlink:href="#d0" x="0.25" y="0.25" />
<use xlink:href="#d1" x="3.5816666666666075" y="0.25" />
<use xlink:href="#d2" x="6.913333333333215" y="0.25" />
<use xlink:href="#d3" x="10.244999999999823" y="0.25" />
<use xlink:href="#d4" x="13.57666666666643" y="0.25" />
<use xlink:href="#d5" x="16.908333333333037" y="0.25" />
<path d="M1.6658333333333037,2.518095238095204 L1.6658333333333037,2.918095238095204" stroke-width="0.05" stroke="#888888" />
<path d="M1.5158333333333038,2.718095238095204 L1.6658333333333037,2.918095238095204" stroke-width="0.05" stroke="#888888" />
<path d="M1.8158333333333037,2.718095238095204 L1.6658333333333037,2.918095238095204" stroke-width="0.05" stroke="#888888" />
<use xlink:href="#d6" x="0.25" y="3.268095238095204" />
<path d="M4.997499999999912,2.518095238095204 L4.997499999999912,2.918095238095204" stroke-width="0.05" stroke="#888888" />
<path d="M4.847499999999911,2.718095238095204 L4.997499999999912,2.918095238095204" stroke-width="0.05" stroke="#888888" />
<path d="M5.147499999999912,2.718095238095204 L4.997499999999912,2.918095238095204" stroke-width="0.05" stroke="#888888" />
<use xlink:href="#d7" x="3.5816666666666075" y="3.268095238095204" />
<path d="M8.329166666666518,2.518095238095204 L8.329166666666518,2.918095238095204" stroke-width="0.05" stroke="#888888" />
<path d="M8.179166666666518,2.718095238095204 L8.329166666666518,2.918095238095204" stroke-width="0.05" stroke="#888888" />
<path d="M8.479166666666519,2.718095238095204 L8.329166666666518,2.918095238095204" stroke-width="0.05" stroke="#888888" />
<use xlink:href="#d8" x="6.913333333333215" y="3.268095238095204" />
<path d="M11.660833333333127,2.518095238095204 L11.660833333333127,2.918095238095204" stroke-width="0.05" stroke="#888888" />
<path d="M11.510833333333126,2.718095238095204 L11.660833333333127,2.918095238095204" stroke-width="0.05" stroke="#888888" />
<path d="M11.810833333333127,2.718095238095204 L11.660833333333127,2.918095238095204" stroke-width="0.05" stroke="#888888" />
<use xlink:href="#d9" x="10.244999999999823" y="3.268095238095204" />
<path d="M14.992499999999733,2.518095238095204 L14.992499999999733,2.918095238095204" stroke-width="0.05" stroke="#888888" />
<path d="M14.842499999999733,2.718095238095204 L14.992499999999733,2.918095238095204" stroke-width="0.05" stroke="#888888" />
<path d="M15.142499999999734,2.718095238095204 L14.992499999999733,2.918095238095204" stroke-width="0.05" stroke="#888888" />
<use xlink:href="#d10" x="13.57666666666643" y="3.268095238095204" />
<path d="M18.32416666666634,2.518095238095204 L18.32416666666634,2.918095238095204" stroke-width="0.05" stroke="#888888" />
<path d="M18.17416666666634,2.718095238095204 L18.32416666666634,2.918095238095204" stroke-width="0.05" stroke="#888888" />
<path d="M18.47416666666634,2.718095238095204 L18.32416666666634,2.918095238095204" stroke-width="0.05" stroke="#888888" />
<text x="18.32416666666634" y="5.255873015872942" font-size="1" font-family="Anuphan" font-weight="700" fill="#333333" text-anchor="middle" alignment-baseline="middle">?</text>
<text x="19.9" y="7.8999999999999995" font-size="0.3" font-family="Anuphan" font-weight="600" fill="#666666" text-anchor="end" alignment-baseline="bottom">Task f2829549</text>
</svg>