<?xml version="1.0" encoding="UTF-8"?>
<svg xmlns="http://www.w3.org/2000/svg" xmlns:xlink="http://www.w3.org/1999/xlink"
     width="800.0" height="536.0" viewBox="0 0 20.0 13.399999999999999">
<defs>
<g id="d0">
<rect x="0.005" y="0.005" width="0.9474444444444238" height="0.9474444444444238" fill="#0074D9" />
<rect x="0.9574444444444238" y="0.005" width="0.9474444444444238" height="0.9474444444444238" fill="#0074D9" />
<rect x="1.9098888888888474" y="0.005" width="0.9474444444444238" height="0.9474444444444238" fill="#0074D9" />
<rect x="0.005" y="0.9574444444444238" width="0.9474444444444238" height="0.9474444444444238" fill="#FF4136" />
<rect x="0.9574444444444238" y="0.9574444444444238" width="0.9474444444444238" height="0.9474444444444238" fill="#FF4136" />
<rect x="1.9098888888888474" y="0.9574444444444238" width="0.9474444444444238" height="0.9474444444444238" fill="#FF4136" />
<rect x="0.005" y="1.9098888888888474" width="0.9474444444444238" height="0.9474444444444238" fill="#0074D9" />
<rect x="0.9574444444444238" y="1.9098888888888474" width="0.9474444444444238" height="0.9474444444444238" fill="#0074D9" />
<rect x="1.9098888888888474" y="1.9098888888888474" width="0.9474444444444238" height="0.9474444444444238" fill="#0074D9" />
<rect x="-0.02666666666666667" y="-0.02666666666666667" width="2.9106666666666046" height="2.9106666666666046" fill="none" stroke="#111111ff" stroke-width="0.08" />
<text x="2.8573333333332713" y="3.3260833333332713" font-size="0.375" fill="black" text-anchor="end" font-family="Anuphan">3x3</text>
<text x="-0.037500000000000006" y="3.3260833333332713" font-size="0.375" fill="black" text-anchor="start" font-family="Anuphan" font-weight="600">Input 1</text>
</g>
<g id="d1">
<rect x="0.005" y="0.005" width="0.9474444444444238" height="0.9474444444444238" fill="#37D449" />
<rect x="0.9574444444444238" y="0.005" width="0.9474444444444238" height="0.9474444444444238" fill="#FFDC00" />
<rect x="1.9098888888888474" y="0.005" width="0.9474444444444238" height="0.9474444444444238" fill="#F012BE" />
<rect x="0.005" y="0.9574444444444238" width="0.9474444444444238" height="0.9474444444444238" fill="#37D449" />
<rect x="0.9574444444444238" y="0.9574444444444238" width="0.9474444444444238" height="0.9474444444444238" fill="#FFDC00" />
<rect x="1.9098888888888474" y="0.9574444444444238" width="0.9474444444444238" height="0.9474444444444238" fill="#F012BE" />
<rect x="0.005" y="1.9098888888888474" width="0.9474444444444238" height="0.9474444444444238" fill="#37D449" />
<rect x="0.9574444444444238" y="1.9098888888888474" width="0.9474444444444238" height="0.9474444444444238" fill="#FFDC00" />
<rect x="1.9098888888888474" y="1.9098888888888474" width="0.9474444444444238" height="0.9474444444444238" fill="#F012BE" />
<rect x="-0.02666666666666667" y="-0.02666666666666667" width="2.9106666666666046" height="2.9106666666666046" fill="none" stroke="#111111ff" stroke-width="0.08" />
<text x="2.8573333333332713" y="3.3260833333332713" font-size="0.375" fill="black" text-anchor="end" font-family="Anuphan">3x3</text>
<text x="-0.037500000000000006" y="3.3260833333332713" font-size="0.375" fill="black" text-anchor="start" font-family="Anuphan" font-weight="600">Input 2</text>
</g>
<g id="d2">
<rect x="0.005" y="0.005" width="0.5664666666666542" height="0.5664666666666542" fill="#FF4136" />
<rect x="0.5764666666666542" y="0.005" width="0.5664666666666542" height="0.5664666666666542" fill="#37D449" />
<rect x="1.1479333333333084" y="0.005" width="0.5664666666666542" height="0.5664666666666542" fill="#37D449" />
<rect x="1.7193999999999625" y="0.005" width="0.5664666666666542" height="0.5664666666666542" fill="#54D2EB" />
<rect x="2.290866666666617" y="0.005" width="0.5664666666666542" height="0.5664666666666542" fill="#0074D9" />
<rect x="0.005" y="0.5764666666666542" width="0.5664666666666542" height="0.5664666666666542" fill="#FF4136" />
<rect x="0.5764666666666542" y="0.5764666666666542" width="0.5664666666666542" height="0.5664666666666542" fill="#37D449" />
<rect x="1.1479333333333084" y="0.5764666666666542" width="0.5664666666666542" height="0.5664666666666542" fill="#37D449" />
<rect x="1.7193999999999625" y="0.5764666666666542" width="0.5664666666666542" height="0.5664666666666542" fill="#54D2EB" />
<rect x="2.290866666666617" y="0.5764666666666542" width="0.5664666666666542" height="0.5664666666666542" fill="#0074D9" />
<rect x="0.005" y="1.1479333333333084" width="0.5664666666666542" height="0.5664666666666542" fill="#FF4136" />
<rect x="0.5764666666666542" y="1.1479333333333084" width="0.5664666666666542" height="0.5664666666666542" fill="#37D449" />
<rect x="1.1479333333333084" y="1.1479333333333084" width="0.5664666666666542" height="0.5664666666666542" fill="#37D449" />
<rect x="1.7193999999999625" y="1.1479333333333084" width="0.5664666666666542" height="0.5664666666666542" fill="#54D2EB" />
<rect x="2.290866666666617" y="1.1479333333333084" width="0.5664666666666542" height="0.5664666666666542" fill="#0074D9" />
<rect x="-0.02666666666666667" y="-0.02666666666666667" width="2.9106666666666046" height="1.7677333333332959" fill="none" stroke="#111111ff" stroke-width="0.08" />
<text x="2.8573333333332713" y="2.1831499999999626" font-size="0.375" fill="black" text-anchor="end" font-family="Anuphan">5x3</text>
<text x="-0.037500000000000006" y="2.1831499999999626" font-size="0.375" fill="black" text-anchor="start" font-family="Anuphan" font-weight="600">Input 3</text>
</g>
<g id="d3">
<rect x="0.005" y="0.005" width="1.3466666666666443" height="1.3466666666666443" fill="#FF4136" />
<rect x="1.356666666666644" y="0.005" width="1.3466666666666443" height="1.3466666666666443" fill="#FF4136" />
<rect x="0.005" y="1.356666666666644" width="1.3466666666666443" height="1.3466666666666443" fill="#F012BE" />
<rect x="1.356666666666644" y="1.356666666666644" width="1.3466666666666443" height="1.3466666666666443" fill="#F012BE" />
<rect x="0.005" y="2.708333333333288" width="1.3466666666666443" height="1.3466666666666443" fill="#54D2EB" />
<rect x="1.356666666666644" y="2.708333333333288" width="1.3466666666666443" height="1.3466666666666443" fill="#54D2EB" />
<rect x="0.005" y="4.059999999999932" width="1.3466666666666443" height="1.3466666666666443" fill="#54D2EB" />
<rect x="1.356666666666644" y="4.059999999999932" width="1.3466666666666443" height="1.3466666666666443" fill="#54D2EB" />
<rect x="-0.02666666666666667" y="-0.02666666666666667" width="2.7566666666666215" height="5.45999999999991" fill="none" stroke="#111111ff" stroke-width="0.08" />
<text x="2.7033333333332883" y="5.875416666666577" font-size="0.375" fill="black" text-anchor="end" font-family="Anuphan">2x4</text>
<text x="-0.037500000000000006" y="5.875416666666577" font-size="0.375" fill="black" text-anchor="start" font-family="Anuphan" font-weight="600">Input 4</text>
</g>
<g id="d4">
<rect x="0.005" y="0.005" width="0.7093333333333178" height="0.7093333333333178" fill="#FFDC00" />
<rect x="0.7193333333333178" y="0.005" width="0.7093333333333178" height="0.7093333333333178" fill="#FFDC00" />
<rect x="1.4336666666666356" y="0.005" width="0.7093333333333178" height="0.7093333333333178" fill="#FFDC00" />
<rect x="2.1479999999999535" y="0.005" width="0.7093333333333178" height="0.7093333333333178" fill="#FFDC00" />
<rect x="0.005" y="0.7193333333333178" width="0.7093333333333178" height="0.7093333333333178" fill="#FFDC00" />
<rect x="0.7193333333333178" y="0.7193333333333178" width="0.7093333333333178" height="0.7093333333333178" fill="#FFDC00" />
<rect x="1.4336666666666356" y="0.7193333333333178" width="0.7093333333333178" height="0.7093333333333178" fill="#FFDC00" />
<rect x="2.1479999999999535" y="0.7193333333333178" width="0.7093333333333178" height="0.7093333333333178" fill="#FFDC00" />
<rect x="0.005" y="1.4336666666666356" width="0.7093333333333178" height="0.7093333333333178" fill="#FF4136" />
<rect x="0.7193333333333178" y="1.4336666666666356" width="0.7093333333333178" height="0.7093333333333178" fill="#FF4136" />
<rect x="1.4336666666666356" y="1.4336666666666356" width="0.7093333333333178" height="0.7093333333333178" fill="#FF4136" />
<rect x="2.1479999999999535" y="1.4336666666666356" width="0.7093333333333178" height="0.7093333333333178" fill="#FF4136" />
<rect x="0.005" y="2.1479999999999535" width="0.7093333333333178" height="0.7093333333333178" fill="#FF4136" />
<rect x="0.7193333333333178" y="2.1479999999999535" width="0.7093333333333178" height="0.7093333333333178" fill="#FF4136" />
<rect x="1.4336666666666356" y="2.1479999999999535" width="0.7093333333333178" height="0.7093333333333178" fill="#FF4136" />
<rect x="2.1479999999999535" y="2.1479999999999535" width="0.7093333333333178" height="0.7093333333333178" fill="#FF4136" />
<rect x="0.005" y="2.8623333333332712" width="0.7093333333333178" height="0.7093333333333178" fill="#54D2EB" />
<rect x="0.7193333333333178" y="2.8623333333332712" width="0.7093333333333178" height="0.7093333333333178" fill="#54D2EB" />
<rect x="1.4336666666666356" y="2.8623333333332712" width="0.7093333333333178" height="0.7093333333333178" fill="#54D2EB" />
<rect x="2.1479999999999535" y="2.8623333333332712" width="0.7093333333333178" height="0.7093333333333178" fill="#54D2EB" />
<rect x="0.005" y="3.576666666666589" width="0.7093333333333178" height="0.7093333333333178" fill="#37D449" />
<rect x="0.7193333333333178" y="3.576666666666589" width="0.7093333333333178" height="0.7093333333333178" fill="#37D449" />
<rect x="1.4336666666666356" y="3.576666666666589" width="0.7093333333333178" height="0.7093333333333178" fill="#37D449" />
<rect x="2.1479999999999535" y="3.576666666666589" width="0.7093333333333178" height="0.7093333333333178" fill="#37D449" />
<rect x="-0.02666666666666667" y="-0.02666666666666667" width="2.9106666666666046" height="4.339333333333241" fill="none" stroke="#111111ff" stroke-width="0.08" />
<text x="2.8573333333332713" y="4.754749999999907" font-size="0.375" fill="black" text-anchor="end" font-family="Anuphan">4x6</text>
<text x="-0.037500000000000006" y="4.754749999999907" font-size="0.375" fill="black" text-anchor="start" font-family="Anuphan" font-weight="600">Input 5</text>
</g>
<g id="d5">
<rect x="0.005" y="0.005" width="0.3124814814814746" height="0.3124814814814746" fill="#0074D9" />
<rect x="0.3224814814814746" y="0.005" width="0.3124814814814746" height="0.3124814814814746" fill="#0074D9" />
<rect x="0.6399629629629492" y="0.005" width="0.3124814814814746" height="0.3124814814814746" fill="#FF4136" />
<rect x="0.9574444444444238" y="0.005" width="0.3124814814814746" height="0.3124814814814746" fill="#37D449" />
<rect x="1.2749259259258983" y="0.005" width="0.3124814814814746" height="0.3124814814814746" fill="#37D449" />
<rect x="1.5924074074073729" y="0.005" width="0.3124814814814746" height="0.3124814814814746" fill="#37D449" />
<rect x="1.9098888888888474" y="0.005" width="0.3124814814814746" height="0.3124814814814746" fill="#54D2EB" />
<rect x="2.227370370370322" y="0.005" width="0.3124814814814746" height="0.3124814814814746" fill="#54D2EB" />
<rect x="2.5448518518517966" y="0.005" width="0.3124814814814746" height="0.3124814814814746" fill="#FFDC00" />
<rect x="0.005" y="0.3224814814814746" width="0.3124814814814746" height="0.3124814814814746" fill="#0074D9" />
<rect x="0.3224814814814746" y="0.3224814814814746" width="0.3124814814814746" height="0.3124814814814746" fill="#0074D9" />
<rect x="0.6399629629629492" y="0.3224814814814746" width="0.3124814814814746" height="0.3124814814814746" fill="#FF4136" />
<rect x="0.9574444444444238" y="0.3224814814814746" width="0.3124814814814746" height="0.3124814814814746" fill="#37D449" />
<rect x="1.2749259259258983" y="0.3224814814814746" width="0.3124814814814746" height="0.3124814814814746" fill="#37D449" />
<rect x="1.5924074074073729" y="0.3224814814814746" width="0.3124814814814746" height="0.3124814814814746" fill="#37D449" />
<rect x="1.9098888888888474" y="0.3224814814814746" width="0.3124814814814746" height="0.3124814814814746" fill="#54D2EB" />
<rect x="2.227370370370322" y="0.3224814814814746" width="0.3124814814814746" height="0.3124814814814746" fill="#54D2EB" />
<rect x="2.5448518518517966" y="0.3224814814814746" width="0.3124814814814746" height="0.3124814814814746" fill="#FFDC00" />
<rect x="0.005" y="0.6399629629629492" width="0.3124814814814746" height="0.3124814814814746" fill="#0074D9" />
<rect x="0.3224814814814746" y="0.6399629629629492" width="0.3124814814814746" height="0.3124814814814746" fill="#0074D9" />
<rect x="0.6399629629629492" y="0.6399629629629492" width="0.3124814814814746" height="0.3124814814814746" fill="#FF4136" />
<rect x="0.9574444444444238" y="0.6399629629629492" width="0.3124814814814746" height="0.3124814814814746" fill="#37D449" />
<rect x="1.2749259259258983" y="0.6399629629629492" width="0.3124814814814746" height="0.3124814814814746" fill="#37D449" />
<rect x="1.5924074074073729" y="0.6399629629629492" width="0.3124814814814746" height="0.3124814814814746" fill="#37D449" />
<rect x="1.9098888888888474" y="0.6399629629629492" width="0.3124814814814746" height="0.3124814814814746" fill="#54D2EB" />
<rect x="2.227370370370322" y="0.6399629629629492" width="0.3124814814814746" height="0.3124814814814746" fill="#54D2EB" />
<rect x="2.5448518518517966" y="0.6399629629629492" width="0.3124814814814746" height="0.3124814814814746" fill="#FFDC00" />
<rect x="0.005" y="0.9574444444444238" width="0.3124814814814746" height="0.3124814814814746" fill="#0074D9" />
<rect x="0.3224814814814746" y="0.9574444444444238" width="0.3124814814814746" height="0.3124814814814746" fill="#0074D9" />
<rect x="0.6399629629629492" y="0.9574444444444238" width="0.3124814814814746" height="0.3124814814814746" fill="#FF4136" />
<rect x="0.9574444444444238" y="0.9574444444444238" width="0.3124814814814746" height="0.3124814814814746" fill="#37D449" />
<rect x="1.2749259259258983" y="0.9574444444444238" width="0.3124814814814746" height="0.3124814814814746" fill="#37D449" />
<rect x="1.5924074074073729" y="0.9574444444444238" width="0.3124814814814746" height="0.3124814814814746" fill="#37D449" />
<rect x="1.9098888888888474" y="0.9574444444444238" width="0.3124814814814746" height="0.3124814814814746" fill="#54D2EB" />
<rect x="2.227370370370322" y="0.9574444444444238" width="0.3124814814814746" height="0.3124814814814746" fill="#54D2EB" />
<rect x="2.5448518518517966" y="0.9574444444444238" width="0.3124814814814746" height="0.3124814814814746" fill="#FFDC00" />
<rect x="-0.02666666666666667" y="-0.02666666666666667" width="2.9106666666666046" height="1.3232592592592316" fill="none" stroke="#111111ff" stroke-width="0.08" />
<text x="2.8573333333332713" y="1.7386759259258984" font-size="0.375" fill="black" text-anchor="end" font-family="Anuphan">9x4</text>
<text x="-0.037500000000000006" y="1.7386759259258984" font-size="0.375" fill="black" text-anchor="start" font-family="Anuphan" font-weight="600">Test 1</text>
</g>
<g id="d6">
<rect x="0.005" y="0.005" width="1.8033333333333335" height="1.8033333333333335" fill="#0074D9" />
<rect x="0.005" y="1.8133333333333332" width="1.8033333333333335" height="1.8033333333333335" fill="#FF4136" />
<rect x="0.005" y="3.6216666666666666" width="1.8033333333333335" height="1.8033333333333335" fill="#0074D9" />
<rect x="-0.02666666666666667" y="-0.02666666666666667" width="1.8616666666666666" height="5.4783333333333335" fill="none" stroke="#111111ff" stroke-width="0.08" />
<text x="1.8083333333333333" y="5.89375" font-size="0.375" fill="black" text-anchor="end" font-family="Anuphan">1x3</text>
<text x="-0.037500000000000006" y="5.89375" font-size="0.375" fill="black" text-anchor="start" font-family="Anuphan" font-weight="600">Output 1</text>
</g>
<g id="d7">
<rect x="0.005" y="0.005" width="0.9474444444444238" height="0.9474444444444238" fill="#37D449" />
<rect x="0.9574444444444238" y="0.005" width="0.9474444444444238" height="0.9474444444444238" fill="#FFDC00" />
<rect x="1.9098888888888474" y="0.005" width="0.9474444444444238" height="0.9474444444444238" fill="#F012BE" />
<rect x="-0.02666666666666667" y="-0.02666666666666667" width="2.9106666666666046" height="1.005777777777757" fill="none" stroke="#111111ff" stroke-width="0.08" />
<text x="2.8573333333332713" y="1.4211944444444238" font-size="0.375" fill="black" text-anchor="end" font-family="Anuphan">3x1</text>
<text x="-0.037500000000000006" y="1.4211944444444238" font-size="0.375" fill="black" text-anchor="start" font-family="Anuphan" font-weight="600">Output 2</text>
</g>
<g id="d8">
<rect x="0.005" y="0.005" width="0.7093333333333178" height="0.7093333333333178" fill="#FF4136" />
<rect x="0.7193333333333178" y="0.005" width="0.7093333333333178" height="0.7093333333333178" fill="#37D449" />
<rect x="1.4336666666666356" y="0.005" width="0.7093333333333178" height="0.7093333333333178" fill="#54D2EB" />
<rect x="2.1479999999999535" y="0.005" width="0.7093333333333178" height="0.7093333333333178" fill="#0074D9" />
<rect x="-0.02666666666666667" y="-0.02666666666666667" width="2.9106666666666046" height="0.7676666666666512" fill="none" stroke="#111111ff" stroke-width="0.08" />
<text x="2.8573333333332713" y="1.1830833333333177" font-size="0.375" fill="black" text-anchor="end" font-family="Anuphan">4x1</text>
<text x="-0.037500000000000006" y="1.1830833333333177" font-size="0.375" fill="black" text-anchor="start" font-family="Anuphan" font-weight="600">Output 3</text>
</g>
<g id="d9">
<rect x="0.005" y="0.005" width="1.8033333333333335" height="1.8033333333333335" fill="#FF4136" />
<rect x="0.005" y="1.8133333333333332" width="1.8033333333333335" height="1.8033333333333335" fill="#F012BE" />
<rect x="0.005" y="3.6216666666666666" width="1.8033333333333335" height="1.8033333333333335" fill="#54D2EB" />
<rect x="-0.02666666666666667" y="-0.02666666666666667" width="1.8616666666666666" height="5.4783333333333335" fill="none" stroke="#111111ff" stroke-width="0.08" />
<text x="1.8083333333333333" y="5.89375" font-size="0.375" fill="black" text-anchor="end" font-family="Anuphan">1x3</text>
<text x="-0.037500000000000006" y="5.89375" font-size="0.375" fill="black" text-anchor="start" font-family="Anuphan" font-weight="600">Output 4</text>
</g>
<g id="d10">
<rect x="0.005" y="0.005" width="1.35125" height="1.35125" fill="#FFDC00" />
<rect x="0.005" y="1.3612499999999998" width="1.35125" height="1.35125" fill="#FF4136" />
<rect x="0.005" y="2.7175" width="1.35125" height="1.35125" fill="#54D2EB" />
<rect x="0.005" y="4.0737499999999995" width="1.35125" height="1.35125" fill="#37D449" />
<rect x="-0.02666666666666667" y="-0.02666666666666667" width="1.4095833333333332" height="5.4783333333333335" fill="none" stroke="#111111ff" stroke-width="0.08" />
<text x="1.35625" y="5.89375" font-size="0.375" fill="black" text-anchor="end" font-family="Anuphan">1x4</text>
<text x="-0.037500000000000006" y="5.89375" font-size="0.375" fill="black" text-anchor="start" font-family="Anuphan" font-weight="600">Output 5</text>
</g>
</defs>
<rect x="0" y="0" width="100%" height="100%" fill="#eeeff6" />
<use xlink:href="#d0" x="0.25" y="0.25" />
<use xlink:href="#d1" x="3.6073333333332713" y="0.25" />
<use xlink:href="#d2" x="6.964666666666543" y="0.25" />
<use xlink:href="#d3" x="10.321999999999814" y="0.25" />
<use xlink:href="#d4" x="13.525333333333103" y="0.25" />
<use xlink:href="#d5" x="16.882666666666374" y="0.25" />
<path d="M1.6786666666666357,6.306666666666577 L1.6786666666666357,6.706666666666577" stroke-width="0.05" stroke="#888888" />
<path d="M1.5286666666666358,6.506666666666577 L1.6786666666666357,6.706666666666577" stroke-width="0.05" stroke="#888888" />
<path d="M1.8286666666666356,6.506666666666577 L1.6786666666666357,6.706666666666577" stroke-width="0.05" stroke="#888888" />
<use xlink:href="#d6" x="0.7744999999999689" y="7.056666666666577" />
<path d="M5.035999999999907,6.306666666666577 L5.035999999999907,6.706666666666577" stroke-width="0.05" stroke="#888888" />
<path d="M4.885999999999907,6.506666666666577 L5.035999999999907,6.706666666666577" stroke-width="0.05" stroke="#888888" />
<path d="M5.185999999999908,6.506666666666577 L5.035999999999907,6.706666666666577" stroke-width="0.05" stroke="#888888" />
<use xlink:href="#d7" x="3.6073333333332713" y="7.056666666666577" />
<path d="M8.393333333333178,6.306666666666577 L8.393333333333178,6.706666666666577" stroke-width="0.05" stroke="#888888" />
<path d="M8.243333333333178,6.506666666666577 L8.393333333333178,6.706666666666577" stroke-width="0.05" stroke="#888888" />
<path d="M8.543333333333178,6.506666666666577 L8.393333333333178,6.706666666666577" stroke-width="0.05" stroke="#888888" />
<use xlink:href="#d8" x="6.964666666666543" y="7.056666666666577" />
<path d="M11.673666666666458,6.306666666666577 L11.673666666666458,6.706666666666577" stroke-width="0.05" stroke="#888888" />
<path d="M11.523666666666458,6.506666666666577 L11.673666666666458,6.706666666666577" stroke-width="0.05" stroke="#888888" />
<path d="M11.823666666666458,6.506666666666577 L11.673666666666458,6.706666666666577" stroke-width="0.05" stroke="#888888" />
<use xlink:href="#d9" x="10.769499999999791" y="7.056666666666577" />
<path d="M14.95399999999974,6.306666666666577 L14.95399999999974,6.706666666666577" stroke-width="0.05" stroke="#888888" />
<path d="M14.80399999999974,6.506666666666577 L14.95399999999974,6.706666666666577" stroke-width="0.05" stroke="#888888" />
<path d="M15.10399999999974,6.506666666666577 L14.95399999999974,6.706666666666577" stroke-width="0.05" stroke="#888888" />
<use xlink:href="#d10" x="14.275874999999738" y="7.056666666666577" />
<path d="M18.31133333333301,6.306666666666577 L18.31133333333301,6.706666666666577" stroke-width="0.05" stroke="#888888" />
<path d="M18.161333333333012,6.506666666666577 L18.31133333333301,6.706666666666577" stroke-width="0.05" stroke="#888888" />
<path d="M18.46133333333301,6.506666666666577 L18.31133333333301,6.706666666666577" stroke-width="0.05" stroke="#888888" />
<text x="18.31133333333301" y="7.442399999999903" font-size="1" font-family="Anuphan" font-weight="700" fill="#333333" text-anchor="middle" alignment-baseline="middle">?</text>
<text x="19.9" y="13.299999999999999" font-size="0.3" font-family="Anuphan" font-weight="600" fill="#666666" text-anchor="end" alignment-baseline="bottom">Task 746b3537</text>
</svg>