<?xml version="1.0" encoding="UTF-8"?>
<svg xmlns="http://www.w3.org/2000/svg" xmlns:xlink="http://www.w3.org/1999/xlink"
     width="800.0" height="355.99999999999994" viewBox="0 0 20.0 8.899999999999999">
<defs>
<g id="d0">
<rect x="0.005" y="0.005" width="0.3447999999999836" height="0.3447999999999836" fill="#0074D9" />
<rect x="0.35479999999998363" y="0.005" width="0.3447999999999836" height="0.3447999999999836" fill="#0074D9" />
<rect x="0.7045999999999673" y="0.005" width="0.3447999999999836" height="0.3447999999999836" fill="#0074D9" />
<rect x="1.0543999999999507" y="0.005" width="0.3447999999999836" height="0.3447999999999836" fill="#252525" />
<rect x="1.4041999999999344" y="0.005" width="0.3447999999999836" height="0.3447999999999836" fill="#252525" />
<rect x="1.753999999999918" y="0.005" width="0.3447999999999836" height="0.3447999999999836" fill="#252525" />
<rect x="2.1037999999999015" y="0.005" width="0.3447999999999836" height="0.3447999999999836" fill="#252525" />
<rect x="2.453599999999885" y="0.005" width="0.3447999999999836" height="0.3447999999999836" fill="#252525" />
<rect x="2.803399999999869" y="0.005" width="0.3447999999999836" height="0.3447999999999836" fill="#252525" />
<rect x="3.1531999999998526" y="0.005" width="0.3447999999999836" height="0.3447999999999836" fill="#252525" />
<rect x="0.005" y="0.35479999999998363" width="0.3447999999999836" height="0.3447999999999836" fill="#252525" />
<rect x="0.35479999999998363" y="0.35479999999998363" width="0.3447999999999836" height="0.3447999999999836" fill="#252525" />
<rect x="0.7045999999999673" y="0.35479999999998363" width="0.3447999999999836" height="0.3447999999999836" fill="#0074D9" />
<rect x="1.0543999999999507" y="0.35479999999998363" width="0.3447999999999836" height="0.3447999999999836" fill="#252525" />
<rect x="1.4041999999999344" y="0.35479999999998363" width="0.3447999999999836" height="0.3447999999999836" fill="#252525" />
<rect x="1.753999999999918" y="0.35479999999998363" width="0.3447999999999836" height="0.3447999999999836" fill="#252525" />
<rect x="2.1037999999999015" y="0.35479999999998363" width="0.3447999999999836" height="0.3447999999999836" fill="#252525" />
<rect x="2.453599999999885" y="0.35479999999998363" width="0.3447999999999836" height="0.3447999999999836" fill="#252525" />
<rect x="2.803399999999869" y="0.35479999999998363" width="0.3447999999999836" height="0.3447999999999836" fill="#252525" />
<rect x="3.1531999999998526" y="0.35479999999998363" width="0.3447999999999836" height="0.3447999999999836" fill="#252525" />
<rect x="0.005" y="0.7045999999999673" width="0.3447999999999836" height="0.3447999999999836" fill="#252525" />
<rect x="0.35479999999998363" y="0.7045999999999673" width="0.3447999999999836" height="0.3447999999999836" fill="#252525" />
<rect x="0.7045999999999673" y="0.7045999999999673" width="0.3447999999999836" height="0.3447999999999836" fill="#0074D9" />
<rect x="1.0543999999999507" y="0.7045999999999673" width="0.3447999999999836" height="0.3447999999999836" fill="#0074D9" />
<rect x="1.4041999999999344" y="0.7045999999999673" width="0.3447999999999836" height="0.3447999999999836" fill="#0074D9" />
<rect x="1.753999999999918" y="0.7045999999999673" width="0.3447999999999836" height="0.3447999999999836" fill="#252525" />
<rect x="2.1037999999999015" y="0.7045999999999673" width="0.3447999999999836" height="0.3447999999999836" fill="#252525" />
<rect x="2.453599999999885" y="0.7045999999999673" width="0.3447999999999836" height="0.3447999999999836" fill="#252525" />
<rect x="2.803399999999869" y="0.7045999999999673" width="0.3447999999999836" height="0.3447999999999836" fill="#252525" />
<rect x="3.1531999999998526" y="0.7045999999999673" width="0.3447999999999836" height="0.3447999999999836" fill="#252525" />
<rect x="0.005" y="1.0543999999999507" width="0.3447999999999836" height="0.3447999999999836" fill="#252525" />
<rect x="0.35479999999998363" y="1.0543999999999507" width="0.3447999999999836" height="0.3447999999999836" fill="#252525" />
<rect x="0.7045999999999673" y="1.0543999999999507" width="0.3447999999999836" height="0.3447999999999836" fill="#252525" />
<rect x="1.0543999999999507" y="1.0543999999999507" width="0.3447999999999836" height="0.3447999999999836" fill="#252525" />
<rect x="1.4041999999999344" y="1.0543999999999507" width="0.3447999999999836" height="0.3447999999999836" fill="#0074D9" />
<rect x="1.753999999999918" y="1.0543999999999507" width="0.3447999999999836" height="0.3447999999999836" fill="#252525" />
<rect x="2.1037999999999015" y="1.0543999999999507" width="0.3447999999999836" height="0.3447999999999836" fill="#252525" />
<rect x="2.453599999999885" y="1.0543999999999507" width="0.3447999999999836" height="0.3447999999999836" fill="#252525" />
<rect x="2.803399999999869" y="1.0543999999999507" width="0.3447999999999836" height="0.3447999999999836" fill="#252525" />
<rect x="3.1531999999998526" y="1.0543999999999507" width="0.3447999999999836" height="0.3447999999999836" fill="#252525" />
<rect x="0.005" y="1.4041999999999344" width="0.3447999999999836" height="0.3447999999999836" fill="#252525" />
<rect x="0.35479999999998363" y="1.4041999999999344" width="0.3447999999999836" height="0.3447999999999836" fill="#252525" />
<rect x="0.7045999999999673" y="1.4041999999999344" width="0.3447999999999836" height="0.3447999999999836" fill="#252525" />
<rect x="1.0543999999999507" y="1.4041999999999344" width="0.3447999999999836" height="0.3447999999999836" fill="#252525" />
<rect x="1.4041999999999344" y="1.4041999999999344" width="0.3447999999999836" height="0.3447999999999836" fill="#0074D9" />
<rect x="1.753999999999918" y="1.4041999999999344" width="0.3447999999999836" height="0.3447999999999836" fill="#0074D9" />
<rect x="2.1037999999999015" y="1.4041999999999344" width="0.3447999999999836" height="0.3447999999999836" fill="#0074D9" />
<rect x="2.453599999999885" y="1.4041999999999344" width="0.3447999999999836" height="0.3447999999999836" fill="#252525" />
<rect x="2.803399999999869" y="1.4041999999999344" width="0.3447999999999836" height="0.3447999999999836" fill="#252525" />
<rect x="3.1531999999998526" y="1.4041999999999344" width="0.3447999999999836" height="0.3447999999999836" fill="#252525" />
<rect x="0.005" y="1.753999999999918" width="0.3447999999999836" height="0.3447999999999836" fill="#252525" />
<rect x="0.35479999999998363" y="1.753999999999918" width="0.3447999999999836" height="0.3447999999999836" fill="#252525" />
<rect x="0.7045999999999673" y="1.753999999999918" width="0.3447999999999836" height="0.3447999999999836" fill="#252525" />
<rect x="1.0543999999999507" y="1.753999999999918" width="0.3447999999999836" height="0.3447999999999836" fill="#252525" />
<rect x="1.4041999999999344" y="1.753999999999918" width="0.3447999999999836" height="0.3447999999999836" fill="#252525" />
<rect x="1.753999999999918" y="1.753999999999918" width="0.3447999999999836" height="0.3447999999999836" fill="#252525" />
<rect x="2.1037999999999015" y="1.753999999999918" width="0.3447999999999836" height="0.3447999999999836" fill="#0074D9" />
<rect x="2.453599999999885" y="1.753999999999918" width="0.3447999999999836" height="0.3447999999999836" fill="#252525" />
<rect x="2.803399999999869" y="1.753999999999918" width="0.3447999999999836" height="0.3447999999999836" fill="#252525" />
<rect x="3.1531999999998526" y="1.753999999999918" width="0.3447999999999836" height="0.3447999999999836" fill="#252525" />
<rect x="-0.02666666666666667" y="-0.02666666666666667" width="3.5513333333331696" height="2.152133333333235" fill="none" stroke="#111111ff" stroke-width="0.08" />
<text x="3.4979999999998364" y="2.5675499999999016" font-size="0.375" fill="black" text-anchor="end" font-family="Anuphan">10x6</text>
<text x="-0.037500000000000006" y="2.5675499999999016" font-size="0.375" fill="black" text-anchor="start" font-family="Anuphan" font-weight="600">Input 1</text>
</g>
<g id="d1">
<rect x="0.005" y="0.005" width="0.3447999999999836" height="0.3447999999999836" fill="#252525" />
<rect x="0.35479999999998363" y="0.005" width="0.3447999999999836" height="0.3447999999999836" fill="#252525" />
<rect x="0.7045999999999673" y="0.005" width="0.3447999999999836" height="0.3447999999999836" fill="#37D449" />
<rect x="1.0543999999999507" y="0.005" width="0.3447999999999836" height="0.3447999999999836" fill="#252525" />
<rect x="1.4041999999999344" y="0.005" width="0.3447999999999836" height="0.3447999999999836" fill="#252525" />
<rect x="1.753999999999918" y="0.005" width="0.3447999999999836" height="0.3447999999999836" fill="#252525" />
<rect x="2.1037999999999015" y="0.005" width="0.3447999999999836" height="0.3447999999999836" fill="#252525" />
<rect x="2.453599999999885" y="0.005" width="0.3447999999999836" height="0.3447999999999836" fill="#252525" />
<rect x="2.803399999999869" y="0.005" width="0.3447999999999836" height="0.3447999999999836" fill="#252525" />
<rect x="3.1531999999998526" y="0.005" width="0.3447999999999836" height="0.3447999999999836" fill="#252525" />
<rect x="0.005" y="0.35479999999998363" width="0.3447999999999836" height="0.3447999999999836" fill="#252525" />
<rect x="0.35479999999998363" y="0.35479999999998363" width="0.3447999999999836" height="0.3447999999999836" fill="#252525" />
<rect x="0.7045999999999673" y="0.35479999999998363" width="0.3447999999999836" height="0.3447999999999836" fill="#37D449" />
<rect x="1.0543999999999507" y="0.35479999999998363" width="0.3447999999999836" height="0.3447999999999836" fill="#252525" />
<rect x="1.4041999999999344" y="0.35479999999998363" width="0.3447999999999836" height="0.3447999999999836" fill="#252525" />
<rect x="1.753999999999918" y="0.35479999999998363" width="0.3447999999999836" height="0.3447999999999836" fill="#252525" />
<rect x="2.1037999999999015" y="0.35479999999998363" width="0.3447999999999836" height="0.3447999999999836" fill="#252525" />
<rect x="2.453599999999885" y="0.35479999999998363" width="0.3447999999999836" height="0.3447999999999836" fill="#252525" />
<rect x="2.803399999999869" y="0.35479999999998363" width="0.3447999999999836" height="0.3447999999999836" fill="#252525" />
<rect x="3.1531999999998526" y="0.35479999999998363" width="0.3447999999999836" height="0.3447999999999836" fill="#252525" />
<rect x="0.005" y="0.7045999999999673" width="0.3447999999999836" height="0.3447999999999836" fill="#252525" />
<rect x="0.35479999999998363" y="0.7045999999999673" width="0.3447999999999836" height="0.3447999999999836" fill="#252525" />
<rect x="0.7045999999999673" y="0.7045999999999673" width="0.3447999999999836" height="0.3447999999999836" fill="#37D449" />
<rect x="1.0543999999999507" y="0.7045999999999673" width="0.3447999999999836" height="0.3447999999999836" fill="#252525" />
<rect x="1.4041999999999344" y="0.7045999999999673" width="0.3447999999999836" height="0.3447999999999836" fill="#252525" />
<rect x="1.753999999999918" y="0.7045999999999673" width="0.3447999999999836" height="0.3447999999999836" fill="#252525" />
<rect x="2.1037999999999015" y="0.7045999999999673" width="0.3447999999999836" height="0.3447999999999836" fill="#252525" />
<rect x="2.453599999999885" y="0.7045999999999673" width="0.3447999999999836" height="0.3447999999999836" fill="#252525" />
<rect x="2.803399999999869" y="0.7045999999999673" width="0.3447999999999836" height="0.3447999999999836" fill="#252525" />
<rect x="3.1531999999998526" y="0.7045999999999673" width="0.3447999999999836" height="0.3447999999999836" fill="#252525" />
<rect x="0.005" y="1.0543999999999507" width="0.3447999999999836" height="0.3447999999999836" fill="#252525" />
<rect x="0.35479999999998363" y="1.0543999999999507" width="0.3447999999999836" height="0.3447999999999836" fill="#252525" />
<rect x="0.7045999999999673" y="1.0543999999999507" width="0.3447999999999836" height="0.3447999999999836" fill="#37D449" />
<rect x="1.0543999999999507" y="1.0543999999999507" width="0.3447999999999836" height="0.3447999999999836" fill="#252525" />
<rect x="1.4041999999999344" y="1.0543999999999507" width="0.3447999999999836" height="0.3447999999999836" fill="#252525" />
<rect x="1.753999999999918" y="1.0543999999999507" width="0.3447999999999836" height="0.3447999999999836" fill="#252525" />
<rect x="2.1037999999999015" y="1.0543999999999507" width="0.3447999999999836" height="0.3447999999999836" fill="#252525" />
<rect x="2.453599999999885" y="1.0543999999999507" width="0.3447999999999836" height="0.3447999999999836" fill="#252525" />
<rect x="2.803399999999869" y="1.0543999999999507" width="0.3447999999999836" height="0.3447999999999836" fill="#252525" />
<rect x="3.1531999999998526" y="1.0543999999999507" width="0.3447999999999836" height="0.3447999999999836" fill="#252525" />
<rect x="0.005" y="1.4041999999999344" width="0.3447999999999836" height="0.3447999999999836" fill="#252525" />
<rect x="0.35479999999998363" y="1.4041999999999344" width="0.3447999999999836" height="0.3447999999999836" fill="#252525" />
<rect x="0.7045999999999673" y="1.4041999999999344" width="0.3447999999999836" height="0.3447999999999836" fill="#37D449" />
<rect x="1.0543999999999507" y="1.4041999999999344" width="0.3447999999999836" height="0.3447999999999836" fill="#252525" />
<rect x="1.4041999999999344" y="1.4041999999999344" width="0.3447999999999836" height="0.3447999999999836" fill="#252525" />
<rect x="1.753999999999918" y="1.4041999999999344" width="0.3447999999999836" height="0.3447999999999836" fill="#252525" />
<rect x="2.1037999999999015" y="1.4041999999999344" width="0.3447999999999836" height="0.3447999999999836" fill="#252525" />
<rect x="2.453599999999885" y="1.4041999999999344" width="0.3447999999999836" height="0.3447999999999836" fill="#252525" />
<rect x="2.803399999999869" y="1.4041999999999344" width="0.3447999999999836" height="0.3447999999999836" fill="#252525" />
<rect x="3.1531999999998526" y="1.4041999999999344" width="0.3447999999999836" height="0.3447999999999836" fill="#252525" />
<rect x="-0.02666666666666667" y="-0.02666666666666667" width="3.5513333333331696" height="1.8023333333332514" fill="none" stroke="#111111ff" stroke-width="0.08" />
<text x="3.4979999999998364" y="2.217749999999918" font-size="0.375" fill="black" text-anchor="end" font-family="Anuphan">10x5</text>
<text x="-0.037500000000000006" y="2.217749999999918" font-size="0.375" fill="black" text-anchor="start" font-family="Anuphan" font-weight="600">Input 2</text>
</g>
<g id="d2">
<rect x="0.005" y="0.005" width="0.3447999999999836" height="0.3447999999999836" fill="#252525" />
<rect x="0.35479999999998363" y="0.005" width="0.3447999999999836" height="0.3447999999999836" fill="#FF4136" />
<rect x="0.7045999999999673" y="0.005" width="0.3447999999999836" height="0.3447999999999836" fill="#252525" />
<rect x="1.0543999999999507" y="0.005" width="0.3447999999999836" height="0.3447999999999836" fill="#252525" />
<rect x="1.4041999999999344" y="0.005" width="0.3447999999999836" height="0.3447999999999836" fill="#252525" />
<rect x="1.753999999999918" y="0.005" width="0.3447999999999836" height="0.3447999999999836" fill="#252525" />
<rect x="2.1037999999999015" y="0.005" width="0.3447999999999836" height="0.3447999999999836" fill="#252525" />
<rect x="2.453599999999885" y="0.005" width="0.3447999999999836" height="0.3447999999999836" fill="#252525" />
<rect x="2.803399999999869" y="0.005" width="0.3447999999999836" height="0.3447999999999836" fill="#252525" />
<rect x="3.1531999999998526" y="0.005" width="0.3447999999999836" height="0.3447999999999836" fill="#252525" />
<rect x="0.005" y="0.35479999999998363" width="0.3447999999999836" height="0.3447999999999836" fill="#252525" />
<rect x="0.35479999999998363" y="0.35479999999998363" width="0.3447999999999836" height="0.3447999999999836" fill="#FF4136" />
<rect x="0.7045999999999673" y="0.35479999999998363" width="0.3447999999999836" height="0.3447999999999836" fill="#252525" />
<rect x="1.0543999999999507" y="0.35479999999998363" width="0.3447999999999836" height="0.3447999999999836" fill="#252525" />
<rect x="1.4041999999999344" y="0.35479999999998363" width="0.3447999999999836" height="0.3447999999999836" fill="#252525" />
<rect x="1.753999999999918" y="0.35479999999998363" width="0.3447999999999836" height="0.3447999999999836" fill="#252525" />
<rect x="2.1037999999999015" y="0.35479999999998363" width="0.3447999999999836" height="0.3447999999999836" fill="#252525" />
<rect x="2.453599999999885" y="0.35479999999998363" width="0.3447999999999836" height="0.3447999999999836" fill="#252525" />
<rect x="2.803399999999869" y="0.35479999999998363" width="0.3447999999999836" height="0.3447999999999836" fill="#252525" />
<rect x="3.1531999999998526" y="0.35479999999998363" width="0.3447999999999836" height="0.3447999999999836" fill="#252525" />
<rect x="0.005" y="0.7045999999999673" width="0.3447999999999836" height="0.3447999999999836" fill="#FF4136" />
<rect x="0.35479999999998363" y="0.7045999999999673" width="0.3447999999999836" height="0.3447999999999836" fill="#252525" />
<rect x="0.7045999999999673" y="0.7045999999999673" width="0.3447999999999836" height="0.3447999999999836" fill="#FF4136" />
<rect x="1.0543999999999507" y="0.7045999999999673" width="0.3447999999999836" height="0.3447999999999836" fill="#252525" />
<rect x="1.4041999999999344" y="0.7045999999999673" width="0.3447999999999836" height="0.3447999999999836" fill="#252525" />
<rect x="1.753999999999918" y="0.7045999999999673" width="0.3447999999999836" height="0.3447999999999836" fill="#252525" />
<rect x="2.1037999999999015" y="0.7045999999999673" width="0.3447999999999836" height="0.3447999999999836" fill="#252525" />
<rect x="2.453599999999885" y="0.7045999999999673" width="0.3447999999999836" height="0.3447999999999836" fill="#252525" />
<rect x="2.803399999999869" y="0.7045999999999673" width="0.3447999999999836" height="0.3447999999999836" fill="#252525" />
<rect x="3.1531999999998526" y="0.7045999999999673" width="0.3447999999999836" height="0.3447999999999836" fill="#252525" />
<rect x="0.005" y="1.0543999999999507" width="0.3447999999999836" height="0.3447999999999836" fill="#252525" />
<rect x="0.35479999999998363" y="1.0543999999999507" width="0.3447999999999836" height="0.3447999999999836" fill="#FF4136" />
<rect x="0.7045999999999673" y="1.0543999999999507" width="0.3447999999999836" height="0.3447999999999836" fill="#252525" />
<rect x="1.0543999999999507" y="1.0543999999999507" width="0.3447999999999836" height="0.3447999999999836" fill="#252525" />
<rect x="1.4041999999999344" y="1.0543999999999507" width="0.3447999999999836" height="0.3447999999999836" fill="#252525" />
<rect x="1.753999999999918" y="1.0543999999999507" width="0.3447999999999836" height="0.3447999999999836" fill="#252525" />
<rect x="2.1037999999999015" y="1.0543999999999507" width="0.3447999999999836" height="0.3447999999999836" fill="#252525" />
<rect x="2.453599999999885" y="1.0543999999999507" width="0.3447999999999836" height="0.3447999999999836" fill="#252525" />
<rect x="2.803399999999869" y="1.0543999999999507" width="0.3447999999999836" height="0.3447999999999836" fill="#252525" />
<rect x="3.1531999999998526" y="1.0543999999999507" width="0.3447999999999836" height="0.3447999999999836" fill="#252525" />
<rect x="0.005" y="1.4041999999999344" width="0.3447999999999836" height="0.3447999999999836" fill="#252525" />
<rect x="0.35479999999998363" y="1.4041999999999344" width="0.3447999999999836" height="0.3447999999999836" fill="#FF4136" />
<rect x="0.7045999999999673" y="1.4041999999999344" width="0.3447999999999836" height="0.3447999999999836" fill="#252525" />
<rect x="1.0543999999999507" y="1.4041999999999344" width="0.3447999999999836" height="0.3447999999999836" fill="#252525" />
<rect x="1.4041999999999344" y="1.4041999999999344" width="0.3447999999999836" height="0.3447999999999836" fill="#252525" />
<rect x="1.753999999999918" y="1.4041999999999344" width="0.3447999999999836" height="0.3447999999999836" fill="#252525" />
<rect x="2.1037999999999015" y="1.4041999999999344" width="0.3447999999999836" height="0.3447999999999836" fill="#252525" />
<rect x="2.453599999999885" y="1.4041999999999344" width="0.3447999999999836" height="0.3447999999999836" fill="#252525" />
<rect x="2.803399999999869" y="1.4041999999999344" width="0.3447999999999836" height="0.3447999999999836" fill="#252525" />
<rect x="3.1531999999998526" y="1.4041999999999344" width="0.3447999999999836" height="0.3447999999999836" fill="#252525" />
<rect x="0.005" y="1.753999999999918" width="0.3447999999999836" height="0.3447999999999836" fill="#FF4136" />
<rect x="0.35479999999998363" y="1.753999999999918" width="0.3447999999999836" height="0.3447999999999836" fill="#252525" />
<rect x="0.7045999999999673" y="1.753999999999918" width="0.3447999999999836" height="0.3447999999999836" fill="#FF4136" />
<rect x="1.0543999999999507" y="1.753999999999918" width="0.3447999999999836" height="0.3447999999999836" fill="#252525" />
<rect x="1.4041999999999344" y="1.753999999999918" width="0.3447999999999836" height="0.3447999999999836" fill="#252525" />
<rect x="1.753999999999918" y="1.753999999999918" width="0.3447999999999836" height="0.3447999999999836" fill="#252525" />
<rect x="2.1037999999999015" y="1.753999999999918" width="0.3447999999999836" height="0.3447999999999836" fill="#252525" />
<rect x="2.453599999999885" y="1.753999999999918" width="0.3447999999999836" height="0.3447999999999836" fill="#252525" />
<rect x="2.803399999999869" y="1.753999999999918" width="0.3447999999999836" height="0.3447999999999836" fill="#252525" />
<rect x="3.1531999999998526" y="1.753999999999918" width="0.3447999999999836" height="0.3447999999999836" fill="#252525" />
<rect x="0.005" y="2.1037999999999015" width="0.3447999999999836" height="0.3447999999999836" fill="#252525" />
<rect x="0.35479999999998363" y="2.1037999999999015" width="0.3447999999999836" height="0.3447999999999836" fill="#FF4136" />
<rect x="0.7045999999999673" y="2.1037999999999015" width="0.3447999999999836" height="0.3447999999999836" fill="#252525" />
<rect x="1.0543999999999507" y="2.1037999999999015" width="0.3447999999999836" height="0.3447999999999836" fill="#252525" />
<rect x="1.4041999999999344" y="2.1037999999999015" width="0.3447999999999836" height="0.3447999999999836" fill="#252525" />
<rect x="1.753999999999918" y="2.1037999999999015" width="0.3447999999999836" height="0.3447999999999836" fill="#252525" />
<rect x="2.1037999999999015" y="2.1037999999999015" width="0.3447999999999836" height="0.3447999999999836" fill="#252525" />
<rect x="2.453599999999885" y="2.1037999999999015" width="0.3447999999999836" height="0.3447999999999836" fill="#252525" />
<rect x="2.803399999999869" y="2.1037999999999015" width="0.3447999999999836" height="0.3447999999999836" fill="#252525" />
<rect x="3.1531999999998526" y="2.1037999999999015" width="0.3447999999999836" height="0.3447999999999836" fill="#252525" />
<rect x="0.005" y="2.453599999999885" width="0.3447999999999836" height="0.3447999999999836" fill="#252525" />
<rect x="0.35479999999998363" y="2.453599999999885" width="0.3447999999999836" height="0.3447999999999836" fill="#FF4136" />
<rect x="0.7045999999999673" y="2.453599999999885" width="0.3447999999999836" height="0.3447999999999836" fill="#252525" />
<rect x="1.0543999999999507" y="2.453599999999885" width="0.3447999999999836" height="0.3447999999999836" fill="#252525" />
<rect x="1.4041999999999344" y="2.453599999999885" width="0.3447999999999836" height="0.3447999999999836" fill="#252525" />
<rect x="1.753999999999918" y="2.453599999999885" width="0.3447999999999836" height="0.3447999999999836" fill="#252525" />
<rect x="2.1037999999999015" y="2.453599999999885" width="0.3447999999999836" height="0.3447999999999836" fill="#252525" />
<rect x="2.453599999999885" y="2.453599999999885" width="0.3447999999999836" height="0.3447999999999836" fill="#252525" />
<rect x="2.803399999999869" y="2.453599999999885" width="0.3447999999999836" height="0.3447999999999836" fill="#252525" />
<rect x="3.1531999999998526" y="2.453599999999885" width="0.3447999999999836" height="0.3447999999999836" fill="#252525" />
<rect x="-0.02666666666666667" y="-0.02666666666666667" width="3.5513333333331696" height="2.8517333333332022" fill="none" stroke="#111111ff" stroke-width="0.08" />
<text x="3.4979999999998364" y="3.267149999999869" font-size="0.375" fill="black" text-anchor="end" font-family="Anuphan">10x8</text>
<text x="-0.037500000000000006" y="3.267149999999869" font-size="0.375" fill="black" text-anchor="start" font-family="Anuphan" font-weight="600">Input 3</text>
</g>
<g id="d3">
<rect x="0.005" y="0.005" width="0.3447999999999836" height="0.3447999999999836" fill="#252525" />
<rect x="0.35479999999998363" y="0.005" width="0.3447999999999836" height="0.3447999999999836" fill="#252525" />
<rect x="0.7045999999999673" y="0.005" width="0.3447999999999836" height="0.3447999999999836" fill="#252525" />
<rect x="1.0543999999999507" y="0.005" width="0.3447999999999836" height="0.3447999999999836" fill="#252525" />
<rect x="1.4041999999999344" y="0.005" width="0.3447999999999836" height="0.3447999999999836" fill="#F012BE" />
<rect x="1.753999999999918" y="0.005" width="0.3447999999999836" height="0.3447999999999836" fill="#252525" />
<rect x="2.1037999999999015" y="0.005" width="0.3447999999999836" height="0.3447999999999836" fill="#252525" />
<rect x="2.453599999999885" y="0.005" width="0.3447999999999836" height="0.3447999999999836" fill="#252525" />
<rect x="2.803399999999869" y="0.005" width="0.3447999999999836" height="0.3447999999999836" fill="#252525" />
<rect x="3.1531999999998526" y="0.005" width="0.3447999999999836" height="0.3447999999999836" fill="#252525" />
<rect x="0.005" y="0.35479999999998363" width="0.3447999999999836" height="0.3447999999999836" fill="#252525" />
<rect x="0.35479999999998363" y="0.35479999999998363" width="0.3447999999999836" height="0.3447999999999836" fill="#252525" />
<rect x="0.7045999999999673" y="0.35479999999998363" width="0.3447999999999836" height="0.3447999999999836" fill="#252525" />
<rect x="1.0543999999999507" y="0.35479999999998363" width="0.3447999999999836" height="0.3447999999999836" fill="#F012BE" />
<rect x="1.4041999999999344" y="0.35479999999998363" width="0.3447999999999836" height="0.3447999999999836" fill="#252525" />
<rect x="1.753999999999918" y="0.35479999999998363" width="0.3447999999999836" height="0.3447999999999836" fill="#252525" />
<rect x="2.1037999999999015" y="0.35479999999998363" width="0.3447999999999836" height="0.3447999999999836" fill="#252525" />
<rect x="2.453599999999885" y="0.35479999999998363" width="0.3447999999999836" height="0.3447999999999836" fill="#252525" />
<rect x="2.803399999999869" y="0.35479999999998363" width="0.3447999999999836" height="0.3447999999999836" fill="#252525" />
<rect x="3.1531999999998526" y="0.35479999999998363" width="0.3447999999999836" height="0.3447999999999836" fill="#252525" />
<rect x="0.005" y="0.7045999999999673" width="0.3447999999999836" height="0.3447999999999836" fill="#252525" />
<rect x="0.35479999999998363" y="0.7045999999999673" width="0.3447999999999836" height="0.3447999999999836" fill="#252525" />
<rect x="0.7045999999999673" y="0.7045999999999673" width="0.3447999999999836" height="0.3447999999999836" fill="#252525" />
<rect x="1.0543999999999507" y="0.7045999999999673" width="0.3447999999999836" height="0.3447999999999836" fill="#252525" />
<rect x="1.4041999999999344" y="0.7045999999999673" width="0.3447999999999836" height="0.3447999999999836" fill="#F012BE" />
<rect x="1.753999999999918" y="0.7045999999999673" width="0.3447999999999836" height="0.3447999999999836" fill="#252525" />
<rect x="2.1037999999999015" y="0.7045999999999673" width="0.3447999999999836" height="0.3447999999999836" fill="#252525" />
<rect x="2.453599999999885" y="0.7045999999999673" width="0.3447999999999836" height="0.3447999999999836" fill="#252525" />
<rect x="2.803399999999869" y="0.7045999999999673" width="0.3447999999999836" height="0.3447999999999836" fill="#252525" />
<rect x="3.1531999999998526" y="0.7045999999999673" width="0.3447999999999836" height="0.3447999999999836" fill="#252525" />
<rect x="0.005" y="1.0543999999999507" width="0.3447999999999836" height="0.3447999999999836" fill="#252525" />
<rect x="0.35479999999998363" y="1.0543999999999507" width="0.3447999999999836" height="0.3447999999999836" fill="#252525" />
<rect x="0.7045999999999673" y="1.0543999999999507" width="0.3447999999999836" height="0.3447999999999836" fill="#252525" />
<rect x="1.0543999999999507" y="1.0543999999999507" width="0.3447999999999836" height="0.3447999999999836" fill="#F012BE" />
<rect x="1.4041999999999344" y="1.0543999999999507" width="0.3447999999999836" height="0.3447999999999836" fill="#252525" />
<rect x="1.753999999999918" y="1.0543999999999507" width="0.3447999999999836" height="0.3447999999999836" fill="#252525" />
<rect x="2.1037999999999015" y="1.0543999999999507" width="0.3447999999999836" height="0.3447999999999836" fill="#252525" />
<rect x="2.453599999999885" y="1.0543999999999507" width="0.3447999999999836" height="0.3447999999999836" fill="#252525" />
<rect x="2.803399999999869" y="1.0543999999999507" width="0.3447999999999836" height="0.3447999999999836" fill="#252525" />
<rect x="3.1531999999998526" y="1.0543999999999507" width="0.3447999999999836" height="0.3447999999999836" fill="#252525" />
<rect x="0.005" y="1.4041999999999344" width="0.3447999999999836" height="0.3447999999999836" fill="#252525" />
<rect x="0.35479999999998363" y="1.4041999999999344" width="0.3447999999999836" height="0.3447999999999836" fill="#252525" />
<rect x="0.7045999999999673" y="1.4041999999999344" width="0.3447999999999836" height="0.3447999999999836" fill="#252525" />
<rect x="1.0543999999999507" y="1.4041999999999344" width="0.3447999999999836" height="0.3447999999999836" fill="#252525" />
<rect x="1.4041999999999344" y="1.4041999999999344" width="0.3447999999999836" height="0.3447999999999836" fill="#F012BE" />
<rect x="1.753999999999918" y="1.4041999999999344" width="0.3447999999999836" height="0.3447999999999836" fill="#252525" />
<rect x="2.1037999999999015" y="1.4041999999999344" width="0.3447999999999836" height="0.3447999999999836" fill="#252525" />
<rect x="2.453599999999885" y="1.4041999999999344" width="0.3447999999999836" height="0.3447999999999836" fill="#252525" />
<rect x="2.803399999999869" y="1.4041999999999344" width="0.3447999999999836" height="0.3447999999999836" fill="#252525" />
<rect x="3.1531999999998526" y="1.4041999999999344" width="0.3447999999999836" height="0.3447999999999836" fill="#252525" />
<rect x="0.005" y="1.753999999999918" width="0.3447999999999836" height="0.3447999999999836" fill="#252525" />
<rect x="0.35479999999998363" y="1.753999999999918" width="0.3447999999999836" height="0.3447999999999836" fill="#252525" />
<rect x="0.7045999999999673" y="1.753999999999918" width="0.3447999999999836" height="0.3447999999999836" fill="#252525" />
<rect x="1.0543999999999507" y="1.753999999999918" width="0.3447999999999836" height="0.3447999999999836" fill="#F012BE" />
<rect x="1.4041999999999344" y="1.753999999999918" width="0.3447999999999836" height="0.3447999999999836" fill="#252525" />
<rect x="1.753999999999918" y="1.753999999999918" width="0.3447999999999836" height="0.3447999999999836" fill="#252525" />
<rect x="2.1037999999999015" y="1.753999999999918" width="0.3447999999999836" height="0.3447999999999836" fill="#252525" />
<rect x="2.453599999999885" y="1.753999999999918" width="0.3447999999999836" height="0.3447999999999836" fill="#252525" />
<rect x="2.803399999999869" y="1.753999999999918" width="0.3447999999999836" height="0.3447999999999836" fill="#252525" />
<rect x="3.1531999999998526" y="1.753999999999918" width="0.3447999999999836" height="0.3447999999999836" fill="#252525" />
<rect x="0.005" y="2.1037999999999015" width="0.3447999999999836" height="0.3447999999999836" fill="#252525" />
<rect x="0.35479999999998363" y="2.1037999999999015" width="0.3447999999999836" height="0.3447999999999836" fill="#252525" />
<rect x="0.7045999999999673" y="2.1037999999999015" width="0.3447999999999836" height="0.3447999999999836" fill="#252525" />
<rect x="1.0543999999999507" y="2.1037999999999015" width="0.3447999999999836" height="0.3447999999999836" fill="#252525" />
<rect x="1.4041999999999344" y="2.1037999999999015" width="0.3447999999999836" height="0.3447999999999836" fill="#F012BE" />
<rect x="1.753999999999918" y="2.1037999999999015" width="0.3447999999999836" height="0.3447999999999836" fill="#252525" />
<rect x="2.1037999999999015" y="2.1037999999999015" width="0.3447999999999836" height="0.3447999999999836" fill="#252525" />
<rect x="2.453599999999885" y="2.1037999999999015" width="0.3447999999999836" height="0.3447999999999836" fill="#252525" />
<rect x="2.803399999999869" y="2.1037999999999015" width="0.3447999999999836" height="0.3447999999999836" fill="#252525" />
<rect x="3.1531999999998526" y="2.1037999999999015" width="0.3447999999999836" height="0.3447999999999836" fill="#252525" />
<rect x="0.005" y="2.453599999999885" width="0.3447999999999836" height="0.3447999999999836" fill="#252525" />
<rect x="0.35479999999998363" y="2.453599999999885" width="0.3447999999999836" height="0.3447999999999836" fill="#252525" />
<rect x="0.7045999999999673" y="2.453599999999885" width="0.3447999999999836" height="0.3447999999999836" fill="#252525" />
<rect x="1.0543999999999507" y="2.453599999999885" width="0.3447999999999836" height="0.3447999999999836" fill="#F012BE" />
<rect x="1.4041999999999344" y="2.453599999999885" width="0.3447999999999836" height="0.3447999999999836" fill="#252525" />
<rect x="1.753999999999918" y="2.453599999999885" width="0.3447999999999836" height="0.3447999999999836" fill="#252525" />
<rect x="2.1037999999999015" y="2.453599999999885" width="0.3447999999999836" height="0.3447999999999836" fill="#252525" />
<rect x="2.453599999999885" y="2.453599999999885" width="0.3447999999999836" height="0.3447999999999836" fill="#252525" />
<rect x="2.803399999999869" y="2.453599999999885" width="0.3447999999999836" height="0.3447999999999836" fill="#252525" />
<rect x="3.1531999999998526" y="2.453599999999885" width="0.3447999999999836" height="0.3447999999999836" fill="#252525" />
<rect x="-0.02666666666666667" y="-0.02666666666666667" width="3.5513333333331696" height="2.8517333333332022" fill="none" stroke="#111111ff" stroke-width="0.08" />
<text x="3.4979999999998364" y="3.267149999999869" font-size="0.375" fill="black" text-anchor="end" font-family="Anuphan">10x8</text>
<text x="-0.037500000000000006" y="3.267149999999869" font-size="0.375" fill="black" text-anchor="start" font-family="Anuphan" font-weight="600">Test 1</text>
</g>
<g id="d4">
<rect x="0.005" y="0.005" width="0.3447999999999836" height="0.3447999999999836" fill="#252525" />
<rect x="0.35479999999998363" y="0.005" width="0.3447999999999836" height="0.3447999999999836" fill="#54D2EB" />
<rect x="0.7045999999999673" y="0.005" width="0.3447999999999836" height="0.3447999999999836" fill="#54D2EB" />
<rect x="1.0543999999999507" y="0.005" width="0.3447999999999836" height="0.3447999999999836" fill="#54D2EB" />
<rect x="1.4041999999999344" y="0.005" width="0.3447999999999836" height="0.3447999999999836" fill="#252525" />
<rect x="1.753999999999918" y="0.005" width="0.3447999999999836" height="0.3447999999999836" fill="#252525" />
<rect x="2.1037999999999015" y="0.005" width="0.3447999999999836" height="0.3447999999999836" fill="#252525" />
<rect x="2.453599999999885" y="0.005" width="0.3447999999999836" height="0.3447999999999836" fill="#252525" />
<rect x="2.803399999999869" y="0.005" width="0.3447999999999836" height="0.3447999999999836" fill="#252525" />
<rect x="3.1531999999998526" y="0.005" width="0.3447999999999836" height="0.3447999999999836" fill="#252525" />
<rect x="0.005" y="0.35479999999998363" width="0.3447999999999836" height="0.3447999999999836" fill="#252525" />
<rect x="0.35479999999998363" y="0.35479999999998363" width="0.3447999999999836" height="0.3447999999999836" fill="#54D2EB" />
<rect x="0.7045999999999673" y="0.35479999999998363" width="0.3447999999999836" height="0.3447999999999836" fill="#252525" />
<rect x="1.0543999999999507" y="0.35479999999998363" width="0.3447999999999836" height="0.3447999999999836" fill="#54D2EB" />
<rect x="1.4041999999999344" y="0.35479999999998363" width="0.3447999999999836" height="0.3447999999999836" fill="#252525" />
<rect x="1.753999999999918" y="0.35479999999998363" width="0.3447999999999836" height="0.3447999999999836" fill="#252525" />
<rect x="2.1037999999999015" y="0.35479999999998363" width="0.3447999999999836" height="0.3447999999999836" fill="#252525" />
<rect x="2.453599999999885" y="0.35479999999998363" width="0.3447999999999836" height="0.3447999999999836" fill="#252525" />
<rect x="2.803399999999869" y="0.35479999999998363" width="0.3447999999999836" height="0.3447999999999836" fill="#252525" />
<rect x="3.1531999999998526" y="0.35479999999998363" width="0.3447999999999836" height="0.3447999999999836" fill="#252525" />
<rect x="0.005" y="0.7045999999999673" width="0.3447999999999836" height="0.3447999999999836" fill="#252525" />
<rect x="0.35479999999998363" y="0.7045999999999673" width="0.3447999999999836" height="0.3447999999999836" fill="#54D2EB" />
<rect x="0.7045999999999673" y="0.7045999999999673" width="0.3447999999999836" height="0.3447999999999836" fill="#54D2EB" />
<rect x="1.0543999999999507" y="0.7045999999999673" width="0.3447999999999836" height="0.3447999999999836" fill="#54D2EB" />
<rect x="1.4041999999999344" y="0.7045999999999673" width="0.3447999999999836" height="0.3447999999999836" fill="#252525" />
<rect x="1.753999999999918" y="0.7045999999999673" width="0.3447999999999836" height="0.3447999999999836" fill="#252525" />
<rect x="2.1037999999999015" y="0.7045999999999673" width="0.3447999999999836" height="0.3447999999999836" fill="#252525" />
<rect x="2.453599999999885" y="0.7045999999999673" width="0.3447999999999836" height="0.3447999999999836" fill="#252525" />
<rect x="2.803399999999869" y="0.7045999999999673" width="0.3447999999999836" height="0.3447999999999836" fill="#252525" />
<rect x="3.1531999999998526" y="0.7045999999999673" width="0.3447999999999836" height="0.3447999999999836" fill="#252525" />
<rect x="0.005" y="1.0543999999999507" width="0.3447999999999836" height="0.3447999999999836" fill="#252525" />
<rect x="0.35479999999998363" y="1.0543999999999507" width="0.3447999999999836" height="0.3447999999999836" fill="#54D2EB" />
<rect x="0.7045999999999673" y="1.0543999999999507" width="0.3447999999999836" height="0.3447999999999836" fill="#252525" />
<rect x="1.0543999999999507" y="1.0543999999999507" width="0.3447999999999836" height="0.3447999999999836" fill="#54D2EB" />
<rect x="1.4041999999999344" y="1.0543999999999507" width="0.3447999999999836" height="0.3447999999999836" fill="#252525" />
<rect x="1.753999999999918" y="1.0543999999999507" width="0.3447999999999836" height="0.3447999999999836" fill="#252525" />
<rect x="2.1037999999999015" y="1.0543999999999507" width="0.3447999999999836" height="0.3447999999999836" fill="#252525" />
<rect x="2.453599999999885" y="1.0543999999999507" width="0.3447999999999836" height="0.3447999999999836" fill="#252525" />
<rect x="2.803399999999869" y="1.0543999999999507" width="0.3447999999999836" height="0.3447999999999836" fill="#252525" />
<rect x="3.1531999999998526" y="1.0543999999999507" width="0.3447999999999836" height="0.3447999999999836" fill="#252525" />
<rect x="0.005" y="1.4041999999999344" width="0.3447999999999836" height="0.3447999999999836" fill="#252525" />
<rect x="0.35479999999998363" y="1.4041999999999344" width="0.3447999999999836" height="0.3447999999999836" fill="#54D2EB" />
<rect x="0.7045999999999673" y="1.4041999999999344" width="0.3447999999999836" height="0.3447999999999836" fill="#54D2EB" />
<rect x="1.0543999999999507" y="1.4041999999999344" width="0.3447999999999836" height="0.3447999999999836" fill="#54D2EB" />
<rect x="1.4041999999999344" y="1.4041999999999344" width="0.3447999999999836" height="0.3447999999999836" fill="#252525" />
<rect x="1.753999999999918" y="1.4041999999999344" width="0.3447999999999836" height="0.3447999999999836" fill="#252525" />
<rect x="2.1037999999999015" y="1.4041999999999344" width="0.3447999999999836" height="0.3447999999999836" fill="#252525" />
<rect x="2.453599999999885" y="1.4041999999999344" width="0.3447999999999836" height="0.3447999999999836" fill="#252525" />
<rect x="2.803399999999869" y="1.4041999999999344" width="0.3447999999999836" height="0.3447999999999836" fill="#252525" />
<rect x="3.1531999999998526" y="1.4041999999999344" width="0.3447999999999836" height="0.3447999999999836" fill="#252525" />
<rect x="-0.02666666666666667" y="-0.02666666666666667" width="3.5513333333331696" height="1.8023333333332514" fill="none" stroke="#111111ff" stroke-width="0.08" />
<text x="3.4979999999998364" y="2.217749999999918" font-size="0.375" fill="black" text-anchor="end" font-family="Anuphan">10x5</text>
<text x="-0.037500000000000006" y="2.217749999999918" font-size="0.375" fill="black" text-anchor="start" font-family="Anuphan" font-weight="600">Test 2</text>
</g>
<g id="d5">
<rect x="0.005" y="0.005" width="0.3447999999999836" height="0.3447999999999836" fill="#0074D9" />
<rect x="0.35479999999998363" y="0.005" width="0.3447999999999836" height="0.3447999999999836" fill="#0074D9" />
<rect x="0.7045999999999673" y="0.005" width="0.3447999999999836" height="0.3447999999999836" fill="#0074D9" />
<rect x="1.0543999999999507" y="0.005" width="0.3447999999999836" height="0.3447999999999836" fill="#252525" />
<rect x="1.4041999999999344" y="0.005" width="0.3447999999999836" height="0.3447999999999836" fill="#252525" />
<rect x="1.753999999999918" y="0.005" width="0.3447999999999836" height="0.3447999999999836" fill="#252525" />
<rect x="2.1037999999999015" y="0.005" width="0.3447999999999836" height="0.3447999999999836" fill="#252525" />
<rect x="2.453599999999885" y="0.005" width="0.3447999999999836" height="0.3447999999999836" fill="#252525" />
<rect x="2.803399999999869" y="0.005" width="0.3447999999999836" height="0.3447999999999836" fill="#252525" />
<rect x="3.1531999999998526" y="0.005" width="0.3447999999999836" height="0.3447999999999836" fill="#252525" />
<rect x="0.005" y="0.35479999999998363" width="0.3447999999999836" height="0.3447999999999836" fill="#252525" />
<rect x="0.35479999999998363" y="0.35479999999998363" width="0.3447999999999836" height="0.3447999999999836" fill="#252525" />
<rect x="0.7045999999999673" y="0.35479999999998363" width="0.3447999999999836" height="0.3447999999999836" fill="#0074D9" />
<rect x="1.0543999999999507" y="0.35479999999998363" width="0.3447999999999836" height="0.3447999999999836" fill="#252525" />
<rect x="1.4041999999999344" y="0.35479999999998363" width="0.3447999999999836" height="0.3447999999999836" fill="#252525" />
<rect x="1.753999999999918" y="0.35479999999998363" width="0.3447999999999836" height="0.3447999999999836" fill="#252525" />
<rect x="2.1037999999999015" y="0.35479999999998363" width="0.3447999999999836" height="0.3447999999999836" fill="#252525" />
<rect x="2.453599999999885" y="0.35479999999998363" width="0.3447999999999836" height="0.3447999999999836" fill="#252525" />
<rect x="2.803399999999869" y="0.35479999999998363" width="0.3447999999999836" height="0.3447999999999836" fill="#252525" />
<rect x="3.1531999999998526" y="0.35479999999998363" width="0.3447999999999836" height="0.3447999999999836" fill="#252525" />
<rect x="0.005" y="0.7045999999999673" width="0.3447999999999836" height="0.3447999999999836" fill="#252525" />
<rect x="0.35479999999998363" y="0.7045999999999673" width="0.3447999999999836" height="0.3447999999999836" fill="#252525" />
<rect x="0.7045999999999673" y="0.7045999999999673" width="0.3447999999999836" height="0.3447999999999836" fill="#0074D9" />
<rect x="1.0543999999999507" y="0.7045999999999673" width="0.3447999999999836" height="0.3447999999999836" fill="#0074D9" />
<rect x="1.4041999999999344" y="0.7045999999999673" width="0.3447999999999836" height="0.3447999999999836" fill="#0074D9" />
<rect x="1.753999999999918" y="0.7045999999999673" width="0.3447999999999836" height="0.3447999999999836" fill="#252525" />
<rect x="2.1037999999999015" y="0.7045999999999673" width="0.3447999999999836" height="0.3447999999999836" fill="#252525" />
<rect x="2.453599999999885" y="0.7045999999999673" width="0.3447999999999836" height="0.3447999999999836" fill="#252525" />
<rect x="2.803399999999869" y="0.7045999999999673" width="0.3447999999999836" height="0.3447999999999836" fill="#252525" />
<rect x="3.1531999999998526" y="0.7045999999999673" width="0.3447999999999836" height="0.3447999999999836" fill="#252525" />
<rect x="0.005" y="1.0543999999999507" width="0.3447999999999836" height="0.3447999999999836" fill="#252525" />
<rect x="0.35479999999998363" y="1.0543999999999507" width="0.3447999999999836" height="0.3447999999999836" fill="#252525" />
<rect x="0.7045999999999673" y="1.0543999999999507" width="0.3447999999999836" height="0.3447999999999836" fill="#252525" />
<rect x="1.0543999999999507" y="1.0543999999999507" width="0.3447999999999836" height="0.3447999999999836" fill="#252525" />
<rect x="1.4041999999999344" y="1.0543999999999507" width="0.3447999999999836" height="0.3447999999999836" fill="#0074D9" />
<rect x="1.753999999999918" y="1.0543999999999507" width="0.3447999999999836" height="0.3447999999999836" fill="#252525" />
<rect x="2.1037999999999015" y="1.0543999999999507" width="0.3447999999999836" height="0.3447999999999836" fill="#252525" />
<rect x="2.453599999999885" y="1.0543999999999507" width="0.3447999999999836" height="0.3447999999999836" fill="#252525" />
<rect x="2.803399999999869" y="1.0543999999999507" width="0.3447999999999836" height="0.3447999999999836" fill="#252525" />
<rect x="3.1531999999998526" y="1.0543999999999507" width="0.3447999999999836" height="0.3447999999999836" fill="#252525" />
<rect x="0.005" y="1.4041999999999344" width="0.3447999999999836" height="0.3447999999999836" fill="#252525" />
<rect x="0.35479999999998363" y="1.4041999999999344" width="0.3447999999999836" height="0.3447999999999836" fill="#252525" />
<rect x="0.7045999999999673" y="1.4041999999999344" width="0.3447999999999836" height="0.3447999999999836" fill="#252525" />
<rect x="1.0543999999999507" y="1.4041999999999344" width="0.3447999999999836" height="0.3447999999999836" fill="#252525" />
<rect x="1.4041999999999344" y="1.4041999999999344" width="0.3447999999999836" height="0.3447999999999836" fill="#0074D9" />
<rect x="1.753999999999918" y="1.4041999999999344" width="0.3447999999999836" height="0.3447999999999836" fill="#0074D9" />
<rect x="2.1037999999999015" y="1.4041999999999344" width="0.3447999999999836" height="0.3447999999999836" fill="#0074D9" />
<rect x="2.453599999999885" y="1.4041999999999344" width="0.3447999999999836" height="0.3447999999999836" fill="#252525" />
<rect x="2.803399999999869" y="1.4041999999999344" width="0.3447999999999836" height="0.3447999999999836" fill="#252525" />
<rect x="3.1531999999998526" y="1.4041999999999344" width="0.3447999999999836" height="0.3447999999999836" fill="#252525" />
<rect x="0.005" y="1.753999999999918" width="0.3447999999999836" height="0.3447999999999836" fill="#252525" />
<rect x="0.35479999999998363" y="1.753999999999918" width="0.3447999999999836" height="0.3447999999999836" fill="#252525" />
<rect x="0.7045999999999673" y="1.753999999999918" width="0.3447999999999836" height="0.3447999999999836" fill="#252525" />
<rect x="1.0543999999999507" y="1.753999999999918" width="0.3447999999999836" height="0.3447999999999836" fill="#252525" />
<rect x="1.4041999999999344" y="1.753999999999918" width="0.3447999999999836" height="0.3447999999999836" fill="#252525" />
<rect x="1.753999999999918" y="1.753999999999918" width="0.3447999999999836" height="0.3447999999999836" fill="#252525" />
<rect x="2.1037999999999015" y="1.753999999999918" width="0.3447999999999836" height="0.3447999999999836" fill="#0074D9" />
<rect x="2.453599999999885" y="1.753999999999918" width="0.3447999999999836" height="0.3447999999999836" fill="#252525" />
<rect x="2.803399999999869" y="1.753999999999918" width="0.3447999999999836" height="0.3447999999999836" fill="#252525" />
<rect x="3.1531999999998526" y="1.753999999999918" width="0.3447999999999836" height="0.3447999999999836" fill="#252525" />
<rect x="0.005" y="2.1037999999999015" width="0.3447999999999836" height="0.3447999999999836" fill="#252525" />
<rect x="0.35479999999998363" y="2.1037999999999015" width="0.3447999999999836" height="0.3447999999999836" fill="#252525" />
<rect x="0.7045999999999673" y="2.1037999999999015" width="0.3447999999999836" height="0.3447999999999836" fill="#252525" />
<rect x="1.0543999999999507" y="2.1037999999999015" width="0.3447999999999836" height="0.3447999999999836" fill="#252525" />
<rect x="1.4041999999999344" y="2.1037999999999015" width="0.3447999999999836" height="0.3447999999999836" fill="#252525" />
<rect x="1.753999999999918" y="2.1037999999999015" width="0.3447999999999836" height="0.3447999999999836" fill="#252525" />
<rect x="2.1037999999999015" y="2.1037999999999015" width="0.3447999999999836" height="0.3447999999999836" fill="#0074D9" />
<rect x="2.453599999999885" y="2.1037999999999015" width="0.3447999999999836" height="0.3447999999999836" fill="#0074D9" />
<rect x="2.803399999999869" y="2.1037999999999015" width="0.3447999999999836" height="0.3447999999999836" fill="#0074D9" />
<rect x="3.1531999999998526" y="2.1037999999999015" width="0.3447999999999836" height="0.3447999999999836" fill="#252525" />
<rect x="0.005" y="2.453599999999885" width="0.3447999999999836" height="0.3447999999999836" fill="#252525" />
<rect x="0.35479999999998363" y="2.453599999999885" width="0.3447999999999836" height="0.3447999999999836" fill="#252525" />
<rect x="0.7045999999999673" y="2.453599999999885" width="0.3447999999999836" height="0.3447999999999836" fill="#252525" />
<rect x="1.0543999999999507" y="2.453599999999885" width="0.3447999999999836" height="0.3447999999999836" fill="#252525" />
<rect x="1.4041999999999344" y="2.453599999999885" width="0.3447999999999836" height="0.3447999999999836" fill="#252525" />
<rect x="1.753999999999918" y="2.453599999999885" width="0.3447999999999836" height="0.3447999999999836" fill="#252525" />
<rect x="2.1037999999999015" y="2.453599999999885" width="0.3447999999999836" height="0.3447999999999836" fill="#252525" />
<rect x="2.453599999999885" y="2.453599999999885" width="0.3447999999999836" height="0.3447999999999836" fill="#252525" />
<rect x="2.803399999999869" y="2.453599999999885" width="0.3447999999999836" height="0.3447999999999836" fill="#0074D9" />
<rect x="3.1531999999998526" y="2.453599999999885" width="0.3447999999999836" height="0.3447999999999836" fill="#252525" />
<rect x="0.005" y="2.803399999999869" width="0.3447999999999836" height="0.3447999999999836" fill="#252525" />
<rect x="0.35479999999998363" y="2.803399999999869" width="0.3447999999999836" height="0.3447999999999836" fill="#252525" />
<rect x="0.7045999999999673" y="2.803399999999869" width="0.3447999999999836" height="0.3447999999999836" fill="#252525" />
<rect x="1.0543999999999507" y="2.803399999999869" width="0.3447999999999836" height="0.3447999999999836" fill="#252525" />
<rect x="1.4041999999999344" y="2.803399999999869" width="0.3447999999999836" height="0.3447999999999836" fill="#252525" />
<rect x="1.753999999999918" y="2.803399999999869" width="0.3447999999999836" height="0.3447999999999836" fill="#252525" />
<rect x="2.1037999999999015" y="2.803399999999869" width="0.3447999999999836" height="0.3447999999999836" fill="#252525" />
<rect x="2.453599999999885" y="2.803399999999869" width="0.3447999999999836" height="0.3447999999999836" fill="#252525" />
<rect x="2.803399999999869" y="2.803399999999869" width="0.3447999999999836" height="0.3447999999999836" fill="#0074D9" />
<rect x="3.1531999999998526" y="2.803399999999869" width="0.3447999999999836" height="0.3447999999999836" fill="#0074D9" />
<rect x="0.005" y="3.1531999999998526" width="0.3447999999999836" height="0.3447999999999836" fill="#252525" />
<rect x="0.35479999999998363" y="3.1531999999998526" width="0.3447999999999836" height="0.3447999999999836" fill="#252525" />
<rect x="0.7045999999999673" y="3.1531999999998526" width="0.3447999999999836" height="0.3447999999999836" fill="#252525" />
<rect x="1.0543999999999507" y="3.1531999999998526" width="0.3447999999999836" height="0.3447999999999836" fill="#252525" />
<rect x="1.4041999999999344" y="3.1531999999998526" width="0.3447999999999836" height="0.3447999999999836" fill="#252525" />
<rect x="1.753999999999918" y="3.1531999999998526" width="0.3447999999999836" height="0.3447999999999836" fill="#252525" />
<rect x="2.1037999999999015" y="3.1531999999998526" width="0.3447999999999836" height="0.3447999999999836" fill="#252525" />
<rect x="2.453599999999885" y="3.1531999999998526" width="0.3447999999999836" height="0.3447999999999836" fill="#252525" />
<rect x="2.803399999999869" y="3.1531999999998526" width="0.3447999999999836" height="0.3447999999999836" fill="#252525" />
<rect x="3.1531999999998526" y="3.1531999999998526" width="0.3447999999999836" height="0.3447999999999836" fill="#252525" />
<rect x="-0.02666666666666667" y="-0.02666666666666667" width="3.5513333333331696" height="3.5513333333331696" fill="none" stroke="#111111ff" stroke-width="0.08" />
<text x="3.4979999999998364" y="3.9667499999998364" font-size="0.375" fill="black" text-anchor="end" font-family="Anuphan">10x10</text>
<text x="-0.037500000000000006" y="3.9667499999998364" font-size="0.375" fill="black" text-anchor="start" font-family="Anuphan" font-weight="600">Output 1</text>
</g>
<g id="d6">
<rect x="0.005" y="0.005" width="0.3447999999999836" height="0.3447999999999836" fill="#252525" />
<rect x="0.35479999999998363" y="0.005" width="0.3447999999999836" height="0.3447999999999836" fill="#252525" />
<rect x="0.7045999999999673" y="0.005" width="0.3447999999999836" height="0.3447999999999836" fill="#37D449" />
<rect x="1.0543999999999507" y="0.005" width="0.3447999999999836" height="0.3447999999999836" fill="#252525" />
<rect x="1.4041999999999344" y="0.005" width="0.3447999999999836" height="0.3447999999999836" fill="#252525" />
<rect x="1.753999999999918" y="0.005" width="0.3447999999999836" height="0.3447999999999836" fill="#252525" />
<rect x="2.1037999999999015" y="0.005" width="0.3447999999999836" height="0.3447999999999836" fill="#252525" />
<rect x="2.453599999999885" y="0.005" width="0.3447999999999836" height="0.3447999999999836" fill="#252525" />
<rect x="2.803399999999869" y="0.005" width="0.3447999999999836" height="0.3447999999999836" fill="#252525" />
<rect x="3.1531999999998526" y="0.005" width="0.3447999999999836" height="0.3447999999999836" fill="#252525" />
<rect x="0.005" y="0.35479999999998363" width="0.3447999999999836" height="0.3447999999999836" fill="#252525" />
<rect x="0.35479999999998363" y="0.35479999999998363" width="0.3447999999999836" height="0.3447999999999836" fill="#252525" />
<rect x="0.7045999999999673" y="0.35479999999998363" width="0.3447999999999836" height="0.3447999999999836" fill="#37D449" />
<rect x="1.0543999999999507" y="0.35479999999998363" width="0.3447999999999836" height="0.3447999999999836" fill="#252525" />
<rect x="1.4041999999999344" y="0.35479999999998363" width="0.3447999999999836" height="0.3447999999999836" fill="#252525" />
<rect x="1.753999999999918" y="0.35479999999998363" width="0.3447999999999836" height="0.3447999999999836" fill="#252525" />
<rect x="2.1037999999999015" y="0.35479999999998363" width="0.3447999999999836" height="0.3447999999999836" fill="#252525" />
<rect x="2.453599999999885" y="0.35479999999998363" width="0.3447999999999836" height="0.3447999999999836" fill="#252525" />
<rect x="2.803399999999869" y="0.35479999999998363" width="0.3447999999999836" height="0.3447999999999836" fill="#252525" />
<rect x="3.1531999999998526" y="0.35479999999998363" width="0.3447999999999836" height="0.3447999999999836" fill="#252525" />
<rect x="0.005" y="0.7045999999999673" width="0.3447999999999836" height="0.3447999999999836" fill="#252525" />
<rect x="0.35479999999998363" y="0.7045999999999673" width="0.3447999999999836" height="0.3447999999999836" fill="#252525" />
<rect x="0.7045999999999673" y="0.7045999999999673" width="0.3447999999999836" height="0.3447999999999836" fill="#37D449" />
<rect x="1.0543999999999507" y="0.7045999999999673" width="0.3447999999999836" height="0.3447999999999836" fill="#252525" />
<rect x="1.4041999999999344" y="0.7045999999999673" width="0.3447999999999836" height="0.3447999999999836" fill="#252525" />
<rect x="1.753999999999918" y="0.7045999999999673" width="0.3447999999999836" height="0.3447999999999836" fill="#252525" />
<rect x="2.1037999999999015" y="0.7045999999999673" width="0.3447999999999836" height="0.3447999999999836" fill="#252525" />
<rect x="2.453599999999885" y="0.7045999999999673" width="0.3447999999999836" height="0.3447999999999836" fill="#252525" />
<rect x="2.803399999999869" y="0.7045999999999673" width="0.3447999999999836" height="0.3447999999999836" fill="#252525" />
<rect x="3.1531999999998526" y="0.7045999999999673" width="0.3447999999999836" height="0.3447999999999836" fill="#252525" />
<rect x="0.005" y="1.0543999999999507" width="0.3447999999999836" height="0.3447999999999836" fill="#252525" />
<rect x="0.35479999999998363" y="1.0543999999999507" width="0.3447999999999836" height="0.3447999999999836" fill="#252525" />
<rect x="0.7045999999999673" y="1.0543999999999507" width="0.3447999999999836" height="0.3447999999999836" fill="#37D449" />
<rect x="1.0543999999999507" y="1.0543999999999507" width="0.3447999999999836" height="0.3447999999999836" fill="#252525" />
<rect x="1.4041999999999344" y="1.0543999999999507" width="0.3447999999999836" height="0.3447999999999836" fill="#252525" />
<rect x="1.753999999999918" y="1.0543999999999507" width="0.3447999999999836" height="0.3447999999999836" fill="#252525" />
<rect x="2.1037999999999015" y="1.0543999999999507" width="0.3447999999999836" height="0.3447999999999836" fill="#252525" />
<rect x="2.453599999999885" y="1.0543999999999507" width="0.3447999999999836" height="0.3447999999999836" fill="#252525" />
<rect x="2.803399999999869" y="1.0543999999999507" width="0.3447999999999836" height="0.3447999999999836" fill="#252525" />
<rect x="3.1531999999998526" y="1.0543999999999507" width="0.3447999999999836" height="0.3447999999999836" fill="#252525" />
<rect x="0.005" y="1.4041999999999344" width="0.3447999999999836" height="0.3447999999999836" fill="#252525" />
<rect x="0.35479999999998363" y="1.4041999999999344" width="0.3447999999999836" height="0.3447999999999836" fill="#252525" />
<rect x="0.7045999999999673" y="1.4041999999999344" width="0.3447999999999836" height="0.3447999999999836" fill="#37D449" />
<rect x="1.0543999999999507" y="1.4041999999999344" width="0.3447999999999836" height="0.3447999999999836" fill="#252525" />
<rect x="1.4041999999999344" y="1.4041999999999344" width="0.3447999999999836" height="0.3447999999999836" fill="#252525" />
<rect x="1.753999999999918" y="1.4041999999999344" width="0.3447999999999836" height="0.3447999999999836" fill="#252525" />
<rect x="2.1037999999999015" y="1.4041999999999344" width="0.3447999999999836" height="0.3447999999999836" fill="#252525" />
<rect x="2.453599999999885" y="1.4041999999999344" width="0.3447999999999836" height="0.3447999999999836" fill="#252525" />
<rect x="2.803399999999869" y="1.4041999999999344" width="0.3447999999999836" height="0.3447999999999836" fill="#252525" />
<rect x="3.1531999999998526" y="1.4041999999999344" width="0.3447999999999836" height="0.3447999999999836" fill="#252525" />
<rect x="0.005" y="1.753999999999918" width="0.3447999999999836" height="0.3447999999999836" fill="#252525" />
<rect x="0.35479999999998363" y="1.753999999999918" width="0.3447999999999836" height="0.3447999999999836" fill="#252525" />
<rect x="0.7045999999999673" y="1.753999999999918" width="0.3447999999999836" height="0.3447999999999836" fill="#37D449" />
<rect x="1.0543999999999507" y="1.753999999999918" width="0.3447999999999836" height="0.3447999999999836" fill="#252525" />
<rect x="1.4041999999999344" y="1.753999999999918" width="0.3447999999999836" height="0.3447999999999836" fill="#252525" />
<rect x="1.753999999999918" y="1.753999999999918" width="0.3447999999999836" height="0.3447999999999836" fill="#252525" />
<rect x="2.1037999999999015" y="1.753999999999918" width="0.3447999999999836" height="0.3447999999999836" fill="#252525" />
<rect x="2.453599999999885" y="1.753999999999918" width="0.3447999999999836" height="0.3447999999999836" fill="#252525" />
<rect x="2.803399999999869" y="1.753999999999918" width="0.3447999999999836" height="0.3447999999999836" fill="#252525" />
<rect x="3.1531999999998526" y="1.753999999999918" width="0.3447999999999836" height="0.3447999999999836" fill="#252525" />
<rect x="0.005" y="2.1037999999999015" width="0.3447999999999836" height="0.3447999999999836" fill="#252525" />
<rect x="0.35479999999998363" y="2.1037999999999015" width="0.3447999999999836" height="0.3447999999999836" fill="#252525" />
<rect x="0.7045999999999673" y="2.1037999999999015" width="0.3447999999999836" height="0.3447999999999836" fill="#37D449" />
<rect x="1.0543999999999507" y="2.1037999999999015" width="0.3447999999999836" height="0.3447999999999836" fill="#252525" />
<rect x="1.4041999999999344" y="2.1037999999999015" width="0.3447999999999836" height="0.3447999999999836" fill="#252525" />
<rect x="1.753999999999918" y="2.1037999999999015" width="0.3447999999999836" height="0.3447999999999836" fill="#252525" />
<rect x="2.1037999999999015" y="2.1037999999999015" width="0.3447999999999836" height="0.3447999999999836" fill="#252525" />
<rect x="2.453599999999885" y="2.1037999999999015" width="0.3447999999999836" height="0.3447999999999836" fill="#252525" />
<rect x="2.803399999999869" y="2.1037999999999015" width="0.3447999999999836" height="0.3447999999999836" fill="#252525" />
<rect x="3.1531999999998526" y="2.1037999999999015" width="0.3447999999999836" height="0.3447999999999836" fill="#252525" />
<rect x="0.005" y="2.453599999999885" width="0.3447999999999836" height="0.3447999999999836" fill="#252525" />
<rect x="0.35479999999998363" y="2.453599999999885" width="0.3447999999999836" height="0.3447999999999836" fill="#252525" />
<rect x="0.7045999999999673" y="2.453599999999885" width="0.3447999999999836" height="0.3447999999999836" fill="#37D449" />
<rect x="1.0543999999999507" y="2.453599999999885" width="0.3447999999999836" height="0.3447999999999836" fill="#252525" />
<rect x="1.4041999999999344" y="2.453599999999885" width="0.3447999999999836" height="0.3447999999999836" fill="#252525" />
<rect x="1.753999999999918" y="2.453599999999885" width="0.3447999999999836" height="0.3447999999999836" fill="#252525" />
<rect x="2.1037999999999015" y="2.453599999999885" width="0.3447999999999836" height="0.3447999999999836" fill="#252525" />
<rect x="2.453599999999885" y="2.453599999999885" width="0.3447999999999836" height="0.3447999999999836" fill="#252525" />
<rect x="2.803399999999869" y="2.453599999999885" width="0.3447999999999836" height="0.3447999999999836" fill="#252525" />
<rect x="3.1531999999998526" y="2.453599999999885" width="0.3447999999999836" height="0.3447999999999836" fill="#252525" />
<rect x="0.005" y="2.803399999999869" width="0.3447999999999836" height="0.3447999999999836" fill="#252525" />
<rect x="0.35479999999998363" y="2.803399999999869" width="0.3447999999999836" height="0.3447999999999836" fill="#252525" />
<rect x="0.7045999999999673" y="2.803399999999869" width="0.3447999999999836" height="0.3447999999999836" fill="#37D449" />
<rect x="1.0543999999999507" y="2.803399999999869" width="0.3447999999999836" height="0.3447999999999836" fill="#252525" />
<rect x="1.4041999999999344" y="2.803399999999869" width="0.3447999999999836" height="0.3447999999999836" fill="#252525" />
<rect x="1.753999999999918" y="2.803399999999869" width="0.3447999999999836" height="0.3447999999999836" fill="#252525" />
<rect x="2.1037999999999015" y="2.803399999999869" width="0.3447999999999836" height="0.3447999999999836" fill="#252525" />
<rect x="2.453599999999885" y="2.803399999999869" width="0.3447999999999836" height="0.3447999999999836" fill="#252525" />
<rect x="2.803399999999869" y="2.803399999999869" width="0.3447999999999836" height="0.3447999999999836" fill="#252525" />
<rect x="3.1531999999998526" y="2.803399999999869" width="0.3447999999999836" height="0.3447999999999836" fill="#252525" />
<rect x="0.005" y="3.1531999999998526" width="0.3447999999999836" height="0.3447999999999836" fill="#252525" />
<rect x="0.35479999999998363" y="3.1531999999998526" width="0.3447999999999836" height="0.3447999999999836" fill="#252525" />
<rect x="0.7045999999999673" y="3.1531999999998526" width="0.3447999999999836" height="0.3447999999999836" fill="#37D449" />
<rect x="1.0543999999999507" y="3.1531999999998526" width="0.3447999999999836" height="0.3447999999999836" fill="#252525" />
<rect x="1.4041999999999344" y="3.1531999999998526" width="0.3447999999999836" height="0.3447999999999836" fill="#252525" />
<rect x="1.753999999999918" y="3.1531999999998526" width="0.3447999999999836" height="0.3447999999999836" fill="#252525" />
<rect x="2.1037999999999015" y="3.1531999999998526" width="0.3447999999999836" height="0.3447999999999836" fill="#252525" />
<rect x="2.453599999999885" y="3.1531999999998526" width="0.3447999999999836" height="0.3447999999999836" fill="#252525" />
<rect x="2.803399999999869" y="3.1531999999998526" width="0.3447999999999836" height="0.3447999999999836" fill="#252525" />
<rect x="3.1531999999998526" y="3.1531999999998526" width="0.3447999999999836" height="0.3447999999999836" fill="#252525" />
<rect x="-0.02666666666666667" y="-0.02666666666666667" width="3.5513333333331696" height="3.5513333333331696" fill="none" stroke="#111111ff" stroke-width="0.08" />
<text x="3.4979999999998364" y="3.9667499999998364" font-size="0.375" fill="black" text-anchor="end" font-family="Anuphan">10x10</text>
<text x="-0.037500000000000006" y="3.9667499999998364" font-size="0.375" fill="black" text-anchor="start" font-family="Anuphan" font-weight="600">Output 2</text>
</g>
<g id="d7">
<rect x="0.005" y="0.005" width="0.3447999999999836" height="0.3447999999999836" fill="#252525" />
<rect x="0.35479999999998363" y="0.005" width="0.3447999999999836" height="0.3447999999999836" fill="#FF4136" />
<rect x="0.7045999999999673" y="0.005" width="0.3447999999999836" height="0.3447999999999836" fill="#252525" />
<rect x="1.0543999999999507" y="0.005" width="0.3447999999999836" height="0.3447999999999836" fill="#252525" />
<rect x="1.4041999999999344" y="0.005" width="0.3447999999999836" height="0.3447999999999836" fill="#252525" />
<rect x="1.753999999999918" y="0.005" width="0.3447999999999836" height="0.3447999999999836" fill="#252525" />
<rect x="2.1037999999999015" y="0.005" width="0.3447999999999836" height="0.3447999999999836" fill="#252525" />
<rect x="2.453599999999885" y="0.005" width="0.3447999999999836" height="0.3447999999999836" fill="#252525" />
<rect x="2.803399999999869" y="0.005" width="0.3447999999999836" height="0.3447999999999836" fill="#252525" />
<rect x="3.1531999999998526" y="0.005" width="0.3447999999999836" height="0.3447999999999836" fill="#252525" />
<rect x="0.005" y="0.35479999999998363" width="0.3447999999999836" height="0.3447999999999836" fill="#252525" />
<rect x="0.35479999999998363" y="0.35479999999998363" width="0.3447999999999836" height="0.3447999999999836" fill="#FF4136" />
<rect x="0.7045999999999673" y="0.35479999999998363" width="0.3447999999999836" height="0.3447999999999836" fill="#252525" />
<rect x="1.0543999999999507" y="0.35479999999998363" width="0.3447999999999836" height="0.3447999999999836" fill="#252525" />
<rect x="1.4041999999999344" y="0.35479999999998363" width="0.3447999999999836" height="0.3447999999999836" fill="#252525" />
<rect x="1.753999999999918" y="0.35479999999998363" width="0.3447999999999836" height="0.3447999999999836" fill="#252525" />
<rect x="2.1037999999999015" y="0.35479999999998363" width="0.3447999999999836" height="0.3447999999999836" fill="#252525" />
<rect x="2.453599999999885" y="0.35479999999998363" width="0.3447999999999836" height="0.3447999999999836" fill="#252525" />
<rect x="2.803399999999869" y="0.35479999999998363" width="0.3447999999999836" height="0.3447999999999836" fill="#252525" />
<rect x="3.1531999999998526" y="0.35479999999998363" width="0.3447999999999836" height="0.3447999999999836" fill="#252525" />
<rect x="0.005" y="0.7045999999999673" width="0.3447999999999836" height="0.3447999999999836" fill="#FF4136" />
<rect x="0.35479999999998363" y="0.7045999999999673" width="0.3447999999999836" height="0.3447999999999836" fill="#252525" />
<rect x="0.7045999999999673" y="0.7045999999999673" width="0.3447999999999836" height="0.3447999999999836" fill="#FF4136" />
<rect x="1.0543999999999507" y="0.7045999999999673" width="0.3447999999999836" height="0.3447999999999836" fill="#252525" />
<rect x="1.4041999999999344" y="0.7045999999999673" width="0.3447999999999836" height="0.3447999999999836" fill="#252525" />
<rect x="1.753999999999918" y="0.7045999999999673" width="0.3447999999999836" height="0.3447999999999836" fill="#252525" />
<rect x="2.1037999999999015" y="0.7045999999999673" width="0.3447999999999836" height="0.3447999999999836" fill="#252525" />
<rect x="2.453599999999885" y="0.7045999999999673" width="0.3447999999999836" height="0.3447999999999836" fill="#252525" />
<rect x="2.803399999999869" y="0.7045999999999673" width="0.3447999999999836" height="0.3447999999999836" fill="#252525" />
<rect x="3.1531999999998526" y="0.7045999999999673" width="0.3447999999999836" height="0.3447999999999836" fill="#252525" />
<rect x="0.005" y="1.0543999999999507" width="0.3447999999999836" height="0.3447999999999836" fill="#252525" />
<rect x="0.35479999999998363" y="1.0543999999999507" width="0.3447999999999836" height="0.3447999999999836" fill="#FF4136" />
<rect x="0.7045999999999673" y="1.0543999999999507" width="0.3447999999999836" height="0.3447999999999836" fill="#252525" />
<rect x="1.0543999999999507" y="1.0543999999999507" width="0.3447999999999836" height="0.3447999999999836" fill="#252525" />
<rect x="1.4041999999999344" y="1.0543999999999507" width="0.3447999999999836" height="0.3447999999999836" fill="#252525" />
<rect x="1.753999999999918" y="1.0543999999999507" width="0.3447999999999836" height="0.3447999999999836" fill="#252525" />
<rect x="2.1037999999999015" y="1.0543999999999507" width="0.3447999999999836" height="0.3447999999999836" fill="#252525" />
<rect x="2.453599999999885" y="1.0543999999999507" width="0.3447999999999836" height="0.3447999999999836" fill="#252525" />
<rect x="2.803399999999869" y="1.0543999999999507" width="0.3447999999999836" height="0.3447999999999836" fill="#252525" />
<rect x="3.1531999999998526" y="1.0543999999999507" width="0.3447999999999836" height="0.3447999999999836" fill="#252525" />
<rect x="0.005" y="1.4041999999999344" width="0.3447999999999836" height="0.3447999999999836" fill="#252525" />
<rect x="0.35479999999998363" y="1.4041999999999344" width="0.3447999999999836" height="0.3447999999999836" fill="#FF4136" />
<rect x="0.7045999999999673" y="1.4041999999999344" width="0.3447999999999836" height="0.3447999999999836" fill="#252525" />
<rect x="1.0543999999999507" y="1.4041999999999344" width="0.3447999999999836" height="0.3447999999999836" fill="#252525" />
<rect x="1.4041999999999344" y="1.4041999999999344" width="0.3447999999999836" height="0.3447999999999836" fill="#252525" />
<rect x="1.753999999999918" y="1.4041999999999344" width="0.3447999999999836" height="0.3447999999999836" fill="#252525" />
<rect x="2.1037999999999015" y="1.4041999999999344" width="0.3447999999999836" height="0.3447999999999836" fill="#252525" />
<rect x="2.453599999999885" y="1.4041999999999344" width="0.3447999999999836" height="0.3447999999999836" fill="#252525" />
<rect x="2.803399999999869" y="1.4041999999999344" width="0.3447999999999836" height="0.3447999999999836" fill="#252525" />
<rect x="3.1531999999998526" y="1.4041999999999344" width="0.3447999999999836" height="0.3447999999999836" fill="#252525" />
<rect x="0.005" y="1.753999999999918" width="0.3447999999999836" height="0.3447999999999836" fill="#FF4136" />
<rect x="0.35479999999998363" y="1.753999999999918" width="0.3447999999999836" height="0.3447999999999836" fill="#252525" />
<rect x="0.7045999999999673" y="1.753999999999918" width="0.3447999999999836" height="0.3447999999999836" fill="#FF4136" />
<rect x="1.0543999999999507" y="1.753999999999918" width="0.3447999999999836" height="0.3447999999999836" fill="#252525" />
<rect x="1.4041999999999344" y="1.753999999999918" width="0.3447999999999836" height="0.3447999999999836" fill="#252525" />
<rect x="1.753999999999918" y="1.753999999999918" width="0.3447999999999836" height="0.3447999999999836" fill="#252525" />
<rect x="2.1037999999999015" y="1.753999999999918" width="0.3447999999999836" height="0.3447999999999836" fill="#252525" />
<rect x="2.453599999999885" y="1.753999999999918" width="0.3447999999999836" height="0.3447999999999836" fill="#252525" />
<rect x="2.803399999999869" y="1.753999999999918" width="0.3447999999999836" height="0.3447999999999836" fill="#252525" />
<rect x="3.1531999999998526" y="1.753999999999918" width="0.3447999999999836" height="0.3447999999999836" fill="#252525" />
<rect x="0.005" y="2.1037999999999015" width="0.3447999999999836" height="0.3447999999999836" fill="#252525" />
<rect x="0.35479999999998363" y="2.1037999999999015" width="0.3447999999999836" height="0.3447999999999836" fill="#FF4136" />
<rect x="0.7045999999999673" y="2.1037999999999015" width="0.3447999999999836" height="0.3447999999999836" fill="#252525" />
<rect x="1.0543999999999507" y="2.1037999999999015" width="0.3447999999999836" height="0.3447999999999836" fill="#252525" />
<rect x="1.4041999999999344" y="2.1037999999999015" width="0.3447999999999836" height="0.3447999999999836" fill="#252525" />
<rect x="1.753999999999918" y="2.1037999999999015" width="0.3447999999999836" height="0.3447999999999836" fill="#252525" />
<rect x="2.1037999999999015" y="2.1037999999999015" width="0.3447999999999836" height="0.3447999999999836" fill="#252525" />
<rect x="2.453599999999885" y="2.1037999999999015" width="0.3447999999999836" height="0.3447999999999836" fill="#252525" />
<rect x="2.803399999999869" y="2.1037999999999015" width="0.3447999999999836" height="0.3447999999999836" fill="#252525" />
<rect x="3.1531999999998526" y="2.1037999999999015" width="0.3447999999999836" height="0.3447999999999836" fill="#252525" />
<rect x="0.005" y="2.453599999999885" width="0.3447999999999836" height="0.3447999999999836" fill="#252525" />
<rect x="0.35479999999998363" y="2.453599999999885" width="0.3447999999999836" height="0.3447999999999836" fill="#FF4136" />
<rect x="0.7045999999999673" y="2.453599999999885" width="0.3447999999999836" height="0.3447999999999836" fill="#252525" />
<rect x="1.0543999999999507" y="2.453599999999885" width="0.3447999999999836" height="0.3447999999999836" fill="#252525" />
<rect x="1.4041999999999344" y="2.453599999999885" width="0.3447999999999836" height="0.3447999999999836" fill="#252525" />
<rect x="1.753999999999918" y="2.453599999999885" width="0.3447999999999836" height="0.3447999999999836" fill="#252525" />
<rect x="2.1037999999999015" y="2.453599999999885" width="0.3447999999999836" height="0.3447999999999836" fill="#252525" />
<rect x="2.453599999999885" y="2.453599999999885" width="0.3447999999999836" height="0.3447999999999836" fill="#252525" />
<rect x="2.803399999999869" y="2.453599999999885" width="0.3447999999999836" height="0.3447999999999836" fill="#252525" />
<rect x="3.1531999999998526" y="2.453599999999885" width="0.3447999999999836" height="0.3447999999999836" fill="#252525" />
<rect x="0.005" y="2.803399999999869" width="0.3447999999999836" height="0.3447999999999836" fill="#FF4136" />
<rect x="0.35479999999998363" y="2.803399999999869" width="0.3447999999999836" height="0.3447999999999836" fill="#252525" />
<rect x="0.7045999999999673" y="2.803399999999869" width="0.3447999999999836" height="0.3447999999999836" fill="#FF4136" />
<rect x="1.0543999999999507" y="2.803399999999869" width="0.3447999999999836" height="0.3447999999999836" fill="#252525" />
<rect x="1.4041999999999344" y="2.803399999999869" width="0.3447999999999836" height="0.3447999999999836" fill="#252525" />
<rect x="1.753999999999918" y="2.803399999999869" width="0.3447999999999836" height="0.3447999999999836" fill="#252525" />
<rect x="2.1037999999999015" y="2.803399999999869" width="0.3447999999999836" height="0.3447999999999836" fill="#252525" />
<rect x="2.453599999999885" y="2.803399999999869" width="0.3447999999999836" height="0.3447999999999836" fill="#252525" />
<rect x="2.803399999999869" y="2.803399999999869" width="0.3447999999999836" height="0.3447999999999836" fill="#252525" />
<rect x="3.1531999999998526" y="2.803399999999869" width="0.3447999999999836" height="0.3447999999999836" fill="#252525" />
<rect x="0.005" y="3.1531999999998526" width="0.3447999999999836" height="0.3447999999999836" fill="#252525" />
<rect x="0.35479999999998363" y="3.1531999999998526" width="0.3447999999999836" height="0.3447999999999836" fill="#FF4136" />
<rect x="0.7045999999999673" y="3.1531999999998526" width="0.3447999999999836" height="0.3447999999999836" fill="#252525" />
<rect x="1.0543999999999507" y="3.1531999999998526" width="0.3447999999999836" height="0.3447999999999836" fill="#252525" />
<rect x="1.4041999999999344" y="3.1531999999998526" width="0.3447999999999836" height="0.3447999999999836" fill="#252525" />
<rect x="1.753999999999918" y="3.1531999999998526" width="0.3447999999999836" height="0.3447999999999836" fill="#252525" />
<rect x="2.1037999999999015" y="3.1531999999998526" width="0.3447999999999836" height="0.3447999999999836" fill="#252525" />
<rect x="2.453599999999885" y="3.1531999999998526" width="0.3447999999999836" height="0.3447999999999836" fill="#252525" />
<rect x="2.803399999999869" y="3.1531999999998526" width="0.3447999999999836" height="0.3447999999999836" fill="#252525" />
<rect x="3.1531999999998526" y="3.1531999999998526" width="0.3447999999999836" height="0.3447999999999836" fill="#252525" />
<rect x="-0.02666666666666667" y="-0.02666666666666667" width="3.5513333333331696" height="3.5513333333331696" fill="none" stroke="#111111ff" stroke-width="0.08" />
<text x="3.4979999999998364" y="3.9667499999998364" font-size="0.375" fill="black" text-anchor="end" font-family="Anuphan">10x10</text>
<text x="-0.037500000000000006" y="3.9667499999998364" font-size="0.375" fill="black" text-anchor="start" font-family="Anuphan" font-weight="600">Output 3</text>
</g>
</defs>
<rect x="0" y="0" width="100%" height="100%" fill="#eeeff6" />
<use xlink:href="#d0" x="0.25" y="0.25" />
<use xlink:href="#d1" x="4.247999999999836" y="0.25" />
<use xlink:href="#d2" x="8.245999999999672" y="0.25" />
<use xlink:href="#d3" x="12.24399999999951" y="0.25" />
<use xlink:href="#d4" x="16.241999999999344" y="0.25" />
<path d="M1.9989999999999182,3.6983999999998693 L1.9989999999999182,4.09839999999987" stroke-width="0.05" stroke="#888888" />
<path d="M1.8489999999999183,3.89839999999987 L1.9989999999999182,4.09839999999987" stroke-width="0.05" stroke="#888888" />
<path d="M2.1489999999999183,3.89839999999987 L1.9989999999999182,4.09839999999987" stroke-width="0.05" stroke="#888888" />
<use xlink:href="#d5" x="0.25" y="4.44839999999987" />
<path d="M5.996999999999755,3.6983999999998693 L5.996999999999755,4.09839999999987" stroke-width="0.05" stroke="#888888" />
<path d="M5.846999999999754,3.89839999999987 L5.996999999999755,4.09839999999987" stroke-width="0.05" stroke="#888888" />
<path d="M6.146999999999755,3.89839999999987 L5.996999999999755,4.09839999999987" stroke-width="0.05" stroke="#888888" />
<use xlink:href="#d6" x="4.247999999999836" y="4.44839999999987" />
<path d="M9.99499999999959,3.6983999999998693 L9.99499999999959,4.09839999999987" stroke-width="0.05" stroke="#888888" />
<path d="M9.84499999999959,3.89839999999987 L9.99499999999959,4.09839999999987" stroke-width="0.05" stroke="#888888" />
<path d="M10.144999999999591,3.89839999999987 L9.99499999999959,4.09839999999987" stroke-width="0.05" stroke="#888888" />
<use xlink:href="#d7" x="8.245999999999672" y="4.44839999999987" />
<path d="M13.992999999999428,3.6983999999998693 L13.992999999999428,4.09839999999987" stroke-width="0.05" stroke="#888888" />
<path d="M13.842999999999428,3.89839999999987 L13.992999999999428,4.09839999999987" stroke-width="0.05" stroke="#888888" />
<path d="M14.142999999999429,3.89839999999987 L13.992999999999428,4.09839999999987" stroke-width="0.05" stroke="#888888" />
<text x="13.992999999999428" y="6.2973999999997865" font-size="1" font-family="Anuphan" font-weight="700" fill="#333333" text-anchor="middle" alignment-baseline="middle">?</text>
<path d="M17.990999999999264,3.6983999999998693 L17.990999999999264,4.09839999999987" stroke-width="0.05" stroke="#888888" />
<path d="M17.840999999999266,3.89839999999987 L17.990999999999264,4.09839999999987" stroke-width="0.05" stroke="#888888" />
<path d="M18.140999999999263,3.89839999999987 L17.990999999999264,4.09839999999987" stroke-width="0.05" stroke="#888888" />
<text x="17.990999999999264" y="6.2973999999997865" font-size="1" font-family="Anuphan" font-weight="700" fill="#333333" text-anchor="middle" alignment-baseline="middle">?</text>
<text x="19.9" y="8.799999999999999" font-size="0.3" font-family="Anuphan" font-weight="600" fill="#666666" text-anchor="end" alignment-baseline="bottom">Task 53b68214</text>
</svg>