<?xml version="1.0" encoding="UTF-8"?>
<svg xmlns="http://www.w3.org/2000/svg" xmlns:xlink="http://www.w3.org/1999/xlink"
     width="800.0" height="500.0" viewBox="0 0 20.0 12.5">
<defs>
<g id="d0">
<rect x="0.005" y="0.005" width="0.40386363636363665" height="0.40386363636363665" fill="#37D449" />
<rect x="0.41386363636363666" y="0.005" width="0.40386363636363665" height="0.40386363636363665" fill="#37D449" />
<rect x="0.8227272727272733" y="0.005" width="0.40386363636363665" height="0.40386363636363665" fill="#37D449" />
<rect x="1.2315909090909098" y="0.005" width="0.40386363636363665" height="0.40386363636363665" fill="#37D449" />
<rect x="1.6404545454545465" y="0.005" width="0.40386363636363665" height="0.40386363636363665" fill="#37D449" />
<rect x="2.049318181818183" y="0.005" width="0.40386363636363665" height="0.40386363636363665" fill="#37D449" />
<rect x="2.45818181818182" y="0.005" width="0.40386363636363665" height="0.40386363636363665" fill="#37D449" />
<rect x="2.8670454545454565" y="0.005" width="0.40386363636363665" height="0.40386363636363665" fill="#FFDC00" />
<rect x="3.275909090909093" y="0.005" width="0.40386363636363665" height="0.40386363636363665" fill="#37D449" />
<rect x="3.6847727272727298" y="0.005" width="0.40386363636363665" height="0.40386363636363665" fill="#FFDC00" />
<rect x="4.093636363636366" y="0.005" width="0.40386363636363665" height="0.40386363636363665" fill="#37D449" />
<rect x="0.005" y="0.41386363636363666" width="0.40386363636363665" height="0.40386363636363665" fill="#37D449" />
<rect x="0.41386363636363666" y="0.41386363636363666" width="0.40386363636363665" height="0.40386363636363665" fill="#37D449" />
<rect x="0.8227272727272733" y="0.41386363636363666" width="0.40386363636363665" height="0.40386363636363665" fill="#37D449" />
<rect x="1.2315909090909098" y="0.41386363636363666" width="0.40386363636363665" height="0.40386363636363665" fill="#37D449" />
<rect x="1.6404545454545465" y="0.41386363636363666" width="0.40386363636363665" height="0.40386363636363665" fill="#37D449" />
<rect x="2.049318181818183" y="0.41386363636363666" width="0.40386363636363665" height="0.40386363636363665" fill="#37D449" />
<rect x="2.45818181818182" y="0.41386363636363666" width="0.40386363636363665" height="0.40386363636363665" fill="#37D449" />
<rect x="2.8670454545454565" y="0.41386363636363666" width="0.40386363636363665" height="0.40386363636363665" fill="#37D449" />
<rect x="3.275909090909093" y="0.41386363636363666" width="0.40386363636363665" height="0.40386363636363665" fill="#37D449" />
<rect x="3.6847727272727298" y="0.41386363636363666" width="0.40386363636363665" height="0.40386363636363665" fill="#37D449" />
<rect x="4.093636363636366" y="0.41386363636363666" width="0.40386363636363665" height="0.40386363636363665" fill="#37D449" />
<rect x="0.005" y="0.8227272727272733" width="0.40386363636363665" height="0.40386363636363665" fill="#37D449" />
<rect x="0.41386363636363666" y="0.8227272727272733" width="0.40386363636363665" height="0.40386363636363665" fill="#37D449" />
<rect x="0.8227272727272733" y="0.8227272727272733" width="0.40386363636363665" height="0.40386363636363665" fill="#37D449" />
<rect x="1.2315909090909098" y="0.8227272727272733" width="0.40386363636363665" height="0.40386363636363665" fill="#37D449" />
<rect x="1.6404545454545465" y="0.8227272727272733" width="0.40386363636363665" height="0.40386363636363665" fill="#0074D9" />
<rect x="2.049318181818183" y="0.8227272727272733" width="0.40386363636363665" height="0.40386363636363665" fill="#37D449" />
<rect x="2.45818181818182" y="0.8227272727272733" width="0.40386363636363665" height="0.40386363636363665" fill="#37D449" />
<rect x="2.8670454545454565" y="0.8227272727272733" width="0.40386363636363665" height="0.40386363636363665" fill="#37D449" />
<rect x="3.275909090909093" y="0.8227272727272733" width="0.40386363636363665" height="0.40386363636363665" fill="#37D449" />
<rect x="3.6847727272727298" y="0.8227272727272733" width="0.40386363636363665" height="0.40386363636363665" fill="#37D449" />
<rect x="4.093636363636366" y="0.8227272727272733" width="0.40386363636363665" height="0.40386363636363665" fill="#37D449" />
<rect x="0.005" y="1.2315909090909098" width="0.40386363636363665" height="0.40386363636363665" fill="#37D449" />
<rect x="0.41386363636363666" y="1.2315909090909098" width="0.40386363636363665" height="0.40386363636363665" fill="#37D449" />
<rect x="0.8227272727272733" y="1.2315909090909098" width="0.40386363636363665" height="0.40386363636363665" fill="#37D449" />
<rect x="1.2315909090909098" y="1.2315909090909098" width="0.40386363636363665" height="0.40386363636363665" fill="#37D449" />
<rect x="1.6404545454545465" y="1.2315909090909098" width="0.40386363636363665" height="0.40386363636363665" fill="#37D449" />
<rect x="2.049318181818183" y="1.2315909090909098" width="0.40386363636363665" height="0.40386363636363665" fill="#37D449" />
<rect x="2.45818181818182" y="1.2315909090909098" width="0.40386363636363665" height="0.40386363636363665" fill="#37D449" />
<rect x="2.8670454545454565" y="1.2315909090909098" width="0.40386363636363665" height="0.40386363636363665" fill="#37D449" />
<rect x="3.275909090909093" y="1.2315909090909098" width="0.40386363636363665" height="0.40386363636363665" fill="#37D449" />
<rect x="3.6847727272727298" y="1.2315909090909098" width="0.40386363636363665" height="0.40386363636363665" fill="#37D449" />
<rect x="4.093636363636366" y="1.2315909090909098" width="0.40386363636363665" height="0.40386363636363665" fill="#37D449" />
<rect x="0.005" y="1.6404545454545465" width="0.40386363636363665" height="0.40386363636363665" fill="#37D449" />
<rect x="0.41386363636363666" y="1.6404545454545465" width="0.40386363636363665" height="0.40386363636363665" fill="#37D449" />
<rect x="0.8227272727272733" y="1.6404545454545465" width="0.40386363636363665" height="0.40386363636363665" fill="#0074D9" />
<rect x="1.2315909090909098" y="1.6404545454545465" width="0.40386363636363665" height="0.40386363636363665" fill="#37D449" />
<rect x="1.6404545454545465" y="1.6404545454545465" width="0.40386363636363665" height="0.40386363636363665" fill="#37D449" />
<rect x="2.049318181818183" y="1.6404545454545465" width="0.40386363636363665" height="0.40386363636363665" fill="#37D449" />
<rect x="2.45818181818182" y="1.6404545454545465" width="0.40386363636363665" height="0.40386363636363665" fill="#0074D9" />
<rect x="2.8670454545454565" y="1.6404545454545465" width="0.40386363636363665" height="0.40386363636363665" fill="#FFDC00" />
<rect x="3.275909090909093" y="1.6404545454545465" width="0.40386363636363665" height="0.40386363636363665" fill="#37D449" />
<rect x="3.6847727272727298" y="1.6404545454545465" width="0.40386363636363665" height="0.40386363636363665" fill="#FFDC00" />
<rect x="4.093636363636366" y="1.6404545454545465" width="0.40386363636363665" height="0.40386363636363665" fill="#37D449" />
<rect x="0.005" y="2.049318181818183" width="0.40386363636363665" height="0.40386363636363665" fill="#37D449" />
<rect x="0.41386363636363666" y="2.049318181818183" width="0.40386363636363665" height="0.40386363636363665" fill="#37D449" />
<rect x="0.8227272727272733" y="2.049318181818183" width="0.40386363636363665" height="0.40386363636363665" fill="#37D449" />
<rect x="1.2315909090909098" y="2.049318181818183" width="0.40386363636363665" height="0.40386363636363665" fill="#37D449" />
<rect x="1.6404545454545465" y="2.049318181818183" width="0.40386363636363665" height="0.40386363636363665" fill="#37D449" />
<rect x="2.049318181818183" y="2.049318181818183" width="0.40386363636363665" height="0.40386363636363665" fill="#37D449" />
<rect x="2.45818181818182" y="2.049318181818183" width="0.40386363636363665" height="0.40386363636363665" fill="#37D449" />
<rect x="2.8670454545454565" y="2.049318181818183" width="0.40386363636363665" height="0.40386363636363665" fill="#37D449" />
<rect x="3.275909090909093" y="2.049318181818183" width="0.40386363636363665" height="0.40386363636363665" fill="#37D449" />
<rect x="3.6847727272727298" y="2.049318181818183" width="0.40386363636363665" height="0.40386363636363665" fill="#37D449" />
<rect x="4.093636363636366" y="2.049318181818183" width="0.40386363636363665" height="0.40386363636363665" fill="#37D449" />
<rect x="0.005" y="2.45818181818182" width="0.40386363636363665" height="0.40386363636363665" fill="#37D449" />
<rect x="0.41386363636363666" y="2.45818181818182" width="0.40386363636363665" height="0.40386363636363665" fill="#37D449" />
<rect x="0.8227272727272733" y="2.45818181818182" width="0.40386363636363665" height="0.40386363636363665" fill="#37D449" />
<rect x="1.2315909090909098" y="2.45818181818182" width="0.40386363636363665" height="0.40386363636363665" fill="#37D449" />
<rect x="1.6404545454545465" y="2.45818181818182" width="0.40386363636363665" height="0.40386363636363665" fill="#0074D9" />
<rect x="2.049318181818183" y="2.45818181818182" width="0.40386363636363665" height="0.40386363636363665" fill="#37D449" />
<rect x="2.45818181818182" y="2.45818181818182" width="0.40386363636363665" height="0.40386363636363665" fill="#FF4136" />
<rect x="2.8670454545454565" y="2.45818181818182" width="0.40386363636363665" height="0.40386363636363665" fill="#37D449" />
<rect x="3.275909090909093" y="2.45818181818182" width="0.40386363636363665" height="0.40386363636363665" fill="#37D449" />
<rect x="3.6847727272727298" y="2.45818181818182" width="0.40386363636363665" height="0.40386363636363665" fill="#37D449" />
<rect x="4.093636363636366" y="2.45818181818182" width="0.40386363636363665" height="0.40386363636363665" fill="#FF4136" />
<rect x="0.005" y="2.8670454545454565" width="0.40386363636363665" height="0.40386363636363665" fill="#37D449" />
<rect x="0.41386363636363666" y="2.8670454545454565" width="0.40386363636363665" height="0.40386363636363665" fill="#37D449" />
<rect x="0.8227272727272733" y="2.8670454545454565" width="0.40386363636363665" height="0.40386363636363665" fill="#37D449" />
<rect x="1.2315909090909098" y="2.8670454545454565" width="0.40386363636363665" height="0.40386363636363665" fill="#37D449" />
<rect x="1.6404545454545465" y="2.8670454545454565" width="0.40386363636363665" height="0.40386363636363665" fill="#37D449" />
<rect x="2.049318181818183" y="2.8670454545454565" width="0.40386363636363665" height="0.40386363636363665" fill="#37D449" />
<rect x="2.45818181818182" y="2.8670454545454565" width="0.40386363636363665" height="0.40386363636363665" fill="#37D449" />
<rect x="2.8670454545454565" y="2.8670454545454565" width="0.40386363636363665" height="0.40386363636363665" fill="#37D449" />
<rect x="3.275909090909093" y="2.8670454545454565" width="0.40386363636363665" height="0.40386363636363665" fill="#37D449" />
<rect x="3.6847727272727298" y="2.8670454545454565" width="0.40386363636363665" height="0.40386363636363665" fill="#37D449" />
<rect x="4.093636363636366" y="2.8670454545454565" width="0.40386363636363665" height="0.40386363636363665" fill="#37D449" />
<rect x="0.005" y="3.275909090909093" width="0.40386363636363665" height="0.40386363636363665" fill="#54D2EB" />
<rect x="0.41386363636363666" y="3.275909090909093" width="0.40386363636363665" height="0.40386363636363665" fill="#37D449" />
<rect x="0.8227272727272733" y="3.275909090909093" width="0.40386363636363665" height="0.40386363636363665" fill="#37D449" />
<rect x="1.2315909090909098" y="3.275909090909093" width="0.40386363636363665" height="0.40386363636363665" fill="#37D449" />
<rect x="1.6404545454545465" y="3.275909090909093" width="0.40386363636363665" height="0.40386363636363665" fill="#54D2EB" />
<rect x="2.049318181818183" y="3.275909090909093" width="0.40386363636363665" height="0.40386363636363665" fill="#37D449" />
<rect x="2.45818181818182" y="3.275909090909093" width="0.40386363636363665" height="0.40386363636363665" fill="#37D449" />
<rect x="2.8670454545454565" y="3.275909090909093" width="0.40386363636363665" height="0.40386363636363665" fill="#37D449" />
<rect x="3.275909090909093" y="3.275909090909093" width="0.40386363636363665" height="0.40386363636363665" fill="#37D449" />
<rect x="3.6847727272727298" y="3.275909090909093" width="0.40386363636363665" height="0.40386363636363665" fill="#37D449" />
<rect x="4.093636363636366" y="3.275909090909093" width="0.40386363636363665" height="0.40386363636363665" fill="#37D449" />
<rect x="0.005" y="3.6847727272727298" width="0.40386363636363665" height="0.40386363636363665" fill="#37D449" />
<rect x="0.41386363636363666" y="3.6847727272727298" width="0.40386363636363665" height="0.40386363636363665" fill="#37D449" />
<rect x="0.8227272727272733" y="3.6847727272727298" width="0.40386363636363665" height="0.40386363636363665" fill="#37D449" />
<rect x="1.2315909090909098" y="3.6847727272727298" width="0.40386363636363665" height="0.40386363636363665" fill="#37D449" />
<rect x="1.6404545454545465" y="3.6847727272727298" width="0.40386363636363665" height="0.40386363636363665" fill="#37D449" />
<rect x="2.049318181818183" y="3.6847727272727298" width="0.40386363636363665" height="0.40386363636363665" fill="#37D449" />
<rect x="2.45818181818182" y="3.6847727272727298" width="0.40386363636363665" height="0.40386363636363665" fill="#37D449" />
<rect x="2.8670454545454565" y="3.6847727272727298" width="0.40386363636363665" height="0.40386363636363665" fill="#37D449" />
<rect x="3.275909090909093" y="3.6847727272727298" width="0.40386363636363665" height="0.40386363636363665" fill="#37D449" />
<rect x="3.6847727272727298" y="3.6847727272727298" width="0.40386363636363665" height="0.40386363636363665" fill="#37D449" />
<rect x="4.093636363636366" y="3.6847727272727298" width="0.40386363636363665" height="0.40386363636363665" fill="#37D449" />
<rect x="0.005" y="4.093636363636366" width="0.40386363636363665" height="0.40386363636363665" fill="#54D2EB" />
<rect x="0.41386363636363666" y="4.093636363636366" width="0.40386363636363665" height="0.40386363636363665" fill="#37D449" />
<rect x="0.8227272727272733" y="4.093636363636366" width="0.40386363636363665" height="0.40386363636363665" fill="#37D449" />
<rect x="1.2315909090909098" y="4.093636363636366" width="0.40386363636363665" height="0.40386363636363665" fill="#37D449" />
<rect x="1.6404545454545465" y="4.093636363636366" width="0.40386363636363665" height="0.40386363636363665" fill="#54D2EB" />
<rect x="2.049318181818183" y="4.093636363636366" width="0.40386363636363665" height="0.40386363636363665" fill="#37D449" />
<rect x="2.45818181818182" y="4.093636363636366" width="0.40386363636363665" height="0.40386363636363665" fill="#FF4136" />
<rect x="2.8670454545454565" y="4.093636363636366" width="0.40386363636363665" height="0.40386363636363665" fill="#37D449" />
<rect x="3.275909090909093" y="4.093636363636366" width="0.40386363636363665" height="0.40386363636363665" fill="#37D449" />
<rect x="3.6847727272727298" y="4.093636363636366" width="0.40386363636363665" height="0.40386363636363665" fill="#37D449" />
<rect x="4.093636363636366" y="4.093636363636366" width="0.40386363636363665" height="0.40386363636363665" fill="#FF4136" />
<rect x="0.005" y="4.502500000000003" width="0.40386363636363665" height="0.40386363636363665" fill="#37D449" />
<rect x="0.41386363636363666" y="4.502500000000003" width="0.40386363636363665" height="0.40386363636363665" fill="#37D449" />
<rect x="0.8227272727272733" y="4.502500000000003" width="0.40386363636363665" height="0.40386363636363665" fill="#37D449" />
<rect x="1.2315909090909098" y="4.502500000000003" width="0.40386363636363665" height="0.40386363636363665" fill="#37D449" />
<rect x="1.6404545454545465" y="4.502500000000003" width="0.40386363636363665" height="0.40386363636363665" fill="#37D449" />
<rect x="2.049318181818183" y="4.502500000000003" width="0.40386363636363665" height="0.40386363636363665" fill="#37D449" />
<rect x="2.45818181818182" y="4.502500000000003" width="0.40386363636363665" height="0.40386363636363665" fill="#37D449" />
<rect x="2.8670454545454565" y="4.502500000000003" width="0.40386363636363665" height="0.40386363636363665" fill="#37D449" />
<rect x="3.275909090909093" y="4.502500000000003" width="0.40386363636363665" height="0.40386363636363665" fill="#37D449" />
<rect x="3.6847727272727298" y="4.502500000000003" width="0.40386363636363665" height="0.40386363636363665" fill="#37D449" />
<rect x="4.093636363636366" y="4.502500000000003" width="0.40386363636363665" height="0.40386363636363665" fill="#37D449" />
<rect x="-0.02666666666666667" y="-0.02666666666666667" width="4.550833333333337" height="4.9596969696969735" fill="none" stroke="#111111ff" stroke-width="0.08" />
<text x="4.497500000000003" y="5.37511363636364" font-size="0.375" fill="black" text-anchor="end" font-family="Anuphan">11x12</text>
<text x="-0.037500000000000006" y="5.37511363636364" font-size="0.375" fill="black" text-anchor="start" font-family="Anuphan" font-weight="600">Input 1</text>
</g>
<g id="d1">
<rect x="0.005" y="0.005" width="0.5375" height="0.5375" fill="#0074D9" />
<rect x="0.5475" y="0.005" width="0.5375" height="0.5375" fill="#0074D9" />
<rect x="1.0899999999999999" y="0.005" width="0.5375" height="0.5375" fill="#0074D9" />
<rect x="1.6324999999999998" y="0.005" width="0.5375" height="0.5375" fill="#0074D9" />
<rect x="2.175" y="0.005" width="0.5375" height="0.5375" fill="#0074D9" />
<rect x="2.7175" y="0.005" width="0.5375" height="0.5375" fill="#0074D9" />
<rect x="3.26" y="0.005" width="0.5375" height="0.5375" fill="#0074D9" />
<rect x="3.8024999999999998" y="0.005" width="0.5375" height="0.5375" fill="#0074D9" />
<rect x="0.005" y="0.5475" width="0.5375" height="0.5375" fill="#0074D9" />
<rect x="0.5475" y="0.5475" width="0.5375" height="0.5375" fill="#54D2EB" />
<rect x="1.0899999999999999" y="0.5475" width="0.5375" height="0.5375" fill="#0074D9" />
<rect x="1.6324999999999998" y="0.5475" width="0.5375" height="0.5375" fill="#54D2EB" />
<rect x="2.175" y="0.5475" width="0.5375" height="0.5375" fill="#0074D9" />
<rect x="2.7175" y="0.5475" width="0.5375" height="0.5375" fill="#0074D9" />
<rect x="3.26" y="0.5475" width="0.5375" height="0.5375" fill="#0074D9" />
<rect x="3.8024999999999998" y="0.5475" width="0.5375" height="0.5375" fill="#0074D9" />
<rect x="0.005" y="1.0899999999999999" width="0.5375" height="0.5375" fill="#0074D9" />
<rect x="0.5475" y="1.0899999999999999" width="0.5375" height="0.5375" fill="#0074D9" />
<rect x="1.0899999999999999" y="1.0899999999999999" width="0.5375" height="0.5375" fill="#0074D9" />
<rect x="1.6324999999999998" y="1.0899999999999999" width="0.5375" height="0.5375" fill="#0074D9" />
<rect x="2.175" y="1.0899999999999999" width="0.5375" height="0.5375" fill="#0074D9" />
<rect x="2.7175" y="1.0899999999999999" width="0.5375" height="0.5375" fill="#0074D9" />
<rect x="3.26" y="1.0899999999999999" width="0.5375" height="0.5375" fill="#0074D9" />
<rect x="3.8024999999999998" y="1.0899999999999999" width="0.5375" height="0.5375" fill="#0074D9" />
<rect x="0.005" y="1.6324999999999998" width="0.5375" height="0.5375" fill="#0074D9" />
<rect x="0.5475" y="1.6324999999999998" width="0.5375" height="0.5375" fill="#54D2EB" />
<rect x="1.0899999999999999" y="1.6324999999999998" width="0.5375" height="0.5375" fill="#0074D9" />
<rect x="1.6324999999999998" y="1.6324999999999998" width="0.5375" height="0.5375" fill="#54D2EB" />
<rect x="2.175" y="1.6324999999999998" width="0.5375" height="0.5375" fill="#0074D9" />
<rect x="2.7175" y="1.6324999999999998" width="0.5375" height="0.5375" fill="#0074D9" />
<rect x="3.26" y="1.6324999999999998" width="0.5375" height="0.5375" fill="#0074D9" />
<rect x="3.8024999999999998" y="1.6324999999999998" width="0.5375" height="0.5375" fill="#0074D9" />
<rect x="0.005" y="2.175" width="0.5375" height="0.5375" fill="#0074D9" />
<rect x="0.5475" y="2.175" width="0.5375" height="0.5375" fill="#0074D9" />
<rect x="1.0899999999999999" y="2.175" width="0.5375" height="0.5375" fill="#0074D9" />
<rect x="1.6324999999999998" y="2.175" width="0.5375" height="0.5375" fill="#0074D9" />
<rect x="2.175" y="2.175" width="0.5375" height="0.5375" fill="#0074D9" />
<rect x="2.7175" y="2.175" width="0.5375" height="0.5375" fill="#0074D9" />
<rect x="3.26" y="2.175" width="0.5375" height="0.5375" fill="#0074D9" />
<rect x="3.8024999999999998" y="2.175" width="0.5375" height="0.5375" fill="#0074D9" />
<rect x="0.005" y="2.7175" width="0.5375" height="0.5375" fill="#0074D9" />
<rect x="0.5475" y="2.7175" width="0.5375" height="0.5375" fill="#0074D9" />
<rect x="1.0899999999999999" y="2.7175" width="0.5375" height="0.5375" fill="#0074D9" />
<rect x="1.6324999999999998" y="2.7175" width="0.5375" height="0.5375" fill="#0074D9" />
<rect x="2.175" y="2.7175" width="0.5375" height="0.5375" fill="#37D449" />
<rect x="2.7175" y="2.7175" width="0.5375" height="0.5375" fill="#0074D9" />
<rect x="3.26" y="2.7175" width="0.5375" height="0.5375" fill="#0074D9" />
<rect x="3.8024999999999998" y="2.7175" width="0.5375" height="0.5375" fill="#0074D9" />
<rect x="0.005" y="3.26" width="0.5375" height="0.5375" fill="#0074D9" />
<rect x="0.5475" y="3.26" width="0.5375" height="0.5375" fill="#0074D9" />
<rect x="1.0899999999999999" y="3.26" width="0.5375" height="0.5375" fill="#0074D9" />
<rect x="1.6324999999999998" y="3.26" width="0.5375" height="0.5375" fill="#37D449" />
<rect x="2.175" y="3.26" width="0.5375" height="0.5375" fill="#0074D9" />
<rect x="2.7175" y="3.26" width="0.5375" height="0.5375" fill="#37D449" />
<rect x="3.26" y="3.26" width="0.5375" height="0.5375" fill="#0074D9" />
<rect x="3.8024999999999998" y="3.26" width="0.5375" height="0.5375" fill="#0074D9" />
<rect x="0.005" y="3.8024999999999998" width="0.5375" height="0.5375" fill="#0074D9" />
<rect x="0.5475" y="3.8024999999999998" width="0.5375" height="0.5375" fill="#0074D9" />
<rect x="1.0899999999999999" y="3.8024999999999998" width="0.5375" height="0.5375" fill="#0074D9" />
<rect x="1.6324999999999998" y="3.8024999999999998" width="0.5375" height="0.5375" fill="#0074D9" />
<rect x="2.175" y="3.8024999999999998" width="0.5375" height="0.5375" fill="#37D449" />
<rect x="2.7175" y="3.8024999999999998" width="0.5375" height="0.5375" fill="#0074D9" />
<rect x="3.26" y="3.8024999999999998" width="0.5375" height="0.5375" fill="#0074D9" />
<rect x="3.8024999999999998" y="3.8024999999999998" width="0.5375" height="0.5375" fill="#0074D9" />
<rect x="0.005" y="4.345" width="0.5375" height="0.5375" fill="#0074D9" />
<rect x="0.5475" y="4.345" width="0.5375" height="0.5375" fill="#0074D9" />
<rect x="1.0899999999999999" y="4.345" width="0.5375" height="0.5375" fill="#0074D9" />
<rect x="1.6324999999999998" y="4.345" width="0.5375" height="0.5375" fill="#0074D9" />
<rect x="2.175" y="4.345" width="0.5375" height="0.5375" fill="#0074D9" />
<rect x="2.7175" y="4.345" width="0.5375" height="0.5375" fill="#0074D9" />
<rect x="3.26" y="4.345" width="0.5375" height="0.5375" fill="#0074D9" />
<rect x="3.8024999999999998" y="4.345" width="0.5375" height="0.5375" fill="#0074D9" />
<rect x="0.005" y="4.8875" width="0.5375" height="0.5375" fill="#0074D9" />
<rect x="0.5475" y="4.8875" width="0.5375" height="0.5375" fill="#0074D9" />
<rect x="1.0899999999999999" y="4.8875" width="0.5375" height="0.5375" fill="#0074D9" />
<rect x="1.6324999999999998" y="4.8875" width="0.5375" height="0.5375" fill="#0074D9" />
<rect x="2.175" y="4.8875" width="0.5375" height="0.5375" fill="#0074D9" />
<rect x="2.7175" y="4.8875" width="0.5375" height="0.5375" fill="#0074D9" />
<rect x="3.26" y="4.8875" width="0.5375" height="0.5375" fill="#0074D9" />
<rect x="3.8024999999999998" y="4.8875" width="0.5375" height="0.5375" fill="#0074D9" />
<rect x="-0.02666666666666667" y="-0.02666666666666667" width="4.3933333333333335" height="5.4783333333333335" fill="none" stroke="#111111ff" stroke-width="0.08" />
<text x="4.34" y="5.89375" font-size="0.375" fill="black" text-anchor="end" font-family="Anuphan">8x10</text>
<text x="-0.037500000000000006" y="5.89375" font-size="0.375" fill="black" text-anchor="start" font-family="Anuphan" font-weight="600">Input 2</text>
</g>
<g id="d2">
<rect x="0.005" y="0.005" width="0.3162500000000002" height="0.3162500000000002" fill="#FFDC00" />
<rect x="0.3262500000000002" y="0.005" width="0.3162500000000002" height="0.3162500000000002" fill="#FFDC00" />
<rect x="0.6475000000000004" y="0.005" width="0.3162500000000002" height="0.3162500000000002" fill="#FFDC00" />
<rect x="0.9687500000000006" y="0.005" width="0.3162500000000002" height="0.3162500000000002" fill="#FFDC00" />
<rect x="1.2900000000000007" y="0.005" width="0.3162500000000002" height="0.3162500000000002" fill="#FFDC00" />
<rect x="1.611250000000001" y="0.005" width="0.3162500000000002" height="0.3162500000000002" fill="#FFDC00" />
<rect x="1.932500000000001" y="0.005" width="0.3162500000000002" height="0.3162500000000002" fill="#FFDC00" />
<rect x="2.2537500000000015" y="0.005" width="0.3162500000000002" height="0.3162500000000002" fill="#FFDC00" />
<rect x="2.5750000000000015" y="0.005" width="0.3162500000000002" height="0.3162500000000002" fill="#FFDC00" />
<rect x="2.8962500000000015" y="0.005" width="0.3162500000000002" height="0.3162500000000002" fill="#FFDC00" />
<rect x="3.217500000000002" y="0.005" width="0.3162500000000002" height="0.3162500000000002" fill="#FFDC00" />
<rect x="3.538750000000002" y="0.005" width="0.3162500000000002" height="0.3162500000000002" fill="#FFDC00" />
<rect x="3.860000000000002" y="0.005" width="0.3162500000000002" height="0.3162500000000002" fill="#FFDC00" />
<rect x="4.181250000000002" y="0.005" width="0.3162500000000002" height="0.3162500000000002" fill="#FFDC00" />
<rect x="0.005" y="0.3262500000000002" width="0.3162500000000002" height="0.3162500000000002" fill="#FFDC00" />
<rect x="0.3262500000000002" y="0.3262500000000002" width="0.3162500000000002" height="0.3162500000000002" fill="#FFDC00" />
<rect x="0.6475000000000004" y="0.3262500000000002" width="0.3162500000000002" height="0.3162500000000002" fill="#0074D9" />
<rect x="0.9687500000000006" y="0.3262500000000002" width="0.3162500000000002" height="0.3162500000000002" fill="#FFDC00" />
<rect x="1.2900000000000007" y="0.3262500000000002" width="0.3162500000000002" height="0.3162500000000002" fill="#FFDC00" />
<rect x="1.611250000000001" y="0.3262500000000002" width="0.3162500000000002" height="0.3162500000000002" fill="#FFDC00" />
<rect x="1.932500000000001" y="0.3262500000000002" width="0.3162500000000002" height="0.3162500000000002" fill="#0074D9" />
<rect x="2.2537500000000015" y="0.3262500000000002" width="0.3162500000000002" height="0.3162500000000002" fill="#FFDC00" />
<rect x="2.5750000000000015" y="0.3262500000000002" width="0.3162500000000002" height="0.3162500000000002" fill="#FFDC00" />
<rect x="2.8962500000000015" y="0.3262500000000002" width="0.3162500000000002" height="0.3162500000000002" fill="#FFDC00" />
<rect x="3.217500000000002" y="0.3262500000000002" width="0.3162500000000002" height="0.3162500000000002" fill="#FFDC00" />
<rect x="3.538750000000002" y="0.3262500000000002" width="0.3162500000000002" height="0.3162500000000002" fill="#FFDC00" />
<rect x="3.860000000000002" y="0.3262500000000002" width="0.3162500000000002" height="0.3162500000000002" fill="#FFDC00" />
<rect x="4.181250000000002" y="0.3262500000000002" width="0.3162500000000002" height="0.3162500000000002" fill="#FFDC00" />
<rect x="0.005" y="0.6475000000000004" width="0.3162500000000002" height="0.3162500000000002" fill="#FFDC00" />
<rect x="0.3262500000000002" y="0.6475000000000004" width="0.3162500000000002" height="0.3162500000000002" fill="#FFDC00" />
<rect x="0.6475000000000004" y="0.6475000000000004" width="0.3162500000000002" height="0.3162500000000002" fill="#FFDC00" />
<rect x="0.9687500000000006" y="0.6475000000000004" width="0.3162500000000002" height="0.3162500000000002" fill="#FFDC00" />
<rect x="1.2900000000000007" y="0.6475000000000004" width="0.3162500000000002" height="0.3162500000000002" fill="#FFDC00" />
<rect x="1.611250000000001" y="0.6475000000000004" width="0.3162500000000002" height="0.3162500000000002" fill="#FFDC00" />
<rect x="1.932500000000001" y="0.6475000000000004" width="0.3162500000000002" height="0.3162500000000002" fill="#FFDC00" />
<rect x="2.2537500000000015" y="0.6475000000000004" width="0.3162500000000002" height="0.3162500000000002" fill="#FFDC00" />
<rect x="2.5750000000000015" y="0.6475000000000004" width="0.3162500000000002" height="0.3162500000000002" fill="#FFDC00" />
<rect x="2.8962500000000015" y="0.6475000000000004" width="0.3162500000000002" height="0.3162500000000002" fill="#FFDC00" />
<rect x="3.217500000000002" y="0.6475000000000004" width="0.3162500000000002" height="0.3162500000000002" fill="#FFDC00" />
<rect x="3.538750000000002" y="0.6475000000000004" width="0.3162500000000002" height="0.3162500000000002" fill="#FFDC00" />
<rect x="3.860000000000002" y="0.6475000000000004" width="0.3162500000000002" height="0.3162500000000002" fill="#FFDC00" />
<rect x="4.181250000000002" y="0.6475000000000004" width="0.3162500000000002" height="0.3162500000000002" fill="#FFDC00" />
<rect x="0.005" y="0.9687500000000006" width="0.3162500000000002" height="0.3162500000000002" fill="#FFDC00" />
<rect x="0.3262500000000002" y="0.9687500000000006" width="0.3162500000000002" height="0.3162500000000002" fill="#FFDC00" />
<rect x="0.6475000000000004" y="0.9687500000000006" width="0.3162500000000002" height="0.3162500000000002" fill="#FFDC00" />
<rect x="0.9687500000000006" y="0.9687500000000006" width="0.3162500000000002" height="0.3162500000000002" fill="#FFDC00" />
<rect x="1.2900000000000007" y="0.9687500000000006" width="0.3162500000000002" height="0.3162500000000002" fill="#FFDC00" />
<rect x="1.611250000000001" y="0.9687500000000006" width="0.3162500000000002" height="0.3162500000000002" fill="#FFDC00" />
<rect x="1.932500000000001" y="0.9687500000000006" width="0.3162500000000002" height="0.3162500000000002" fill="#FFDC00" />
<rect x="2.2537500000000015" y="0.9687500000000006" width="0.3162500000000002" height="0.3162500000000002" fill="#FFDC00" />
<rect x="2.5750000000000015" y="0.9687500000000006" width="0.3162500000000002" height="0.3162500000000002" fill="#FFDC00" />
<rect x="2.8962500000000015" y="0.9687500000000006" width="0.3162500000000002" height="0.3162500000000002" fill="#FFDC00" />
<rect x="3.217500000000002" y="0.9687500000000006" width="0.3162500000000002" height="0.3162500000000002" fill="#FFDC00" />
<rect x="3.538750000000002" y="0.9687500000000006" width="0.3162500000000002" height="0.3162500000000002" fill="#FFDC00" />
<rect x="3.860000000000002" y="0.9687500000000006" width="0.3162500000000002" height="0.3162500000000002" fill="#FFDC00" />
<rect x="4.181250000000002" y="0.9687500000000006" width="0.3162500000000002" height="0.3162500000000002" fill="#FFDC00" />
<rect x="0.005" y="1.2900000000000007" width="0.3162500000000002" height="0.3162500000000002" fill="#FFDC00" />
<rect x="0.3262500000000002" y="1.2900000000000007" width="0.3162500000000002" height="0.3162500000000002" fill="#FFDC00" />
<rect x="0.6475000000000004" y="1.2900000000000007" width="0.3162500000000002" height="0.3162500000000002" fill="#FFDC00" />
<rect x="0.9687500000000006" y="1.2900000000000007" width="0.3162500000000002" height="0.3162500000000002" fill="#FFDC00" />
<rect x="1.2900000000000007" y="1.2900000000000007" width="0.3162500000000002" height="0.3162500000000002" fill="#FFDC00" />
<rect x="1.611250000000001" y="1.2900000000000007" width="0.3162500000000002" height="0.3162500000000002" fill="#FFDC00" />
<rect x="1.932500000000001" y="1.2900000000000007" width="0.3162500000000002" height="0.3162500000000002" fill="#FFDC00" />
<rect x="2.2537500000000015" y="1.2900000000000007" width="0.3162500000000002" height="0.3162500000000002" fill="#FFDC00" />
<rect x="2.5750000000000015" y="1.2900000000000007" width="0.3162500000000002" height="0.3162500000000002" fill="#FFDC00" />
<rect x="2.8962500000000015" y="1.2900000000000007" width="0.3162500000000002" height="0.3162500000000002" fill="#FFDC00" />
<rect x="3.217500000000002" y="1.2900000000000007" width="0.3162500000000002" height="0.3162500000000002" fill="#FFDC00" />
<rect x="3.538750000000002" y="1.2900000000000007" width="0.3162500000000002" height="0.3162500000000002" fill="#FFDC00" />
<rect x="3.860000000000002" y="1.2900000000000007" width="0.3162500000000002" height="0.3162500000000002" fill="#FFDC00" />
<rect x="4.181250000000002" y="1.2900000000000007" width="0.3162500000000002" height="0.3162500000000002" fill="#FFDC00" />
<rect x="0.005" y="1.611250000000001" width="0.3162500000000002" height="0.3162500000000002" fill="#FFDC00" />
<rect x="0.3262500000000002" y="1.611250000000001" width="0.3162500000000002" height="0.3162500000000002" fill="#FFDC00" />
<rect x="0.6475000000000004" y="1.611250000000001" width="0.3162500000000002" height="0.3162500000000002" fill="#0074D9" />
<rect x="0.9687500000000006" y="1.611250000000001" width="0.3162500000000002" height="0.3162500000000002" fill="#FFDC00" />
<rect x="1.2900000000000007" y="1.611250000000001" width="0.3162500000000002" height="0.3162500000000002" fill="#FFDC00" />
<rect x="1.611250000000001" y="1.611250000000001" width="0.3162500000000002" height="0.3162500000000002" fill="#FFDC00" />
<rect x="1.932500000000001" y="1.611250000000001" width="0.3162500000000002" height="0.3162500000000002" fill="#0074D9" />
<rect x="2.2537500000000015" y="1.611250000000001" width="0.3162500000000002" height="0.3162500000000002" fill="#FFDC00" />
<rect x="2.5750000000000015" y="1.611250000000001" width="0.3162500000000002" height="0.3162500000000002" fill="#FFDC00" />
<rect x="2.8962500000000015" y="1.611250000000001" width="0.3162500000000002" height="0.3162500000000002" fill="#FF871E" />
<rect x="3.217500000000002" y="1.611250000000001" width="0.3162500000000002" height="0.3162500000000002" fill="#FFDC00" />
<rect x="3.538750000000002" y="1.611250000000001" width="0.3162500000000002" height="0.3162500000000002" fill="#FFDC00" />
<rect x="3.860000000000002" y="1.611250000000001" width="0.3162500000000002" height="0.3162500000000002" fill="#FFDC00" />
<rect x="4.181250000000002" y="1.611250000000001" width="0.3162500000000002" height="0.3162500000000002" fill="#FFDC00" />
<rect x="0.005" y="1.932500000000001" width="0.3162500000000002" height="0.3162500000000002" fill="#FFDC00" />
<rect x="0.3262500000000002" y="1.932500000000001" width="0.3162500000000002" height="0.3162500000000002" fill="#FFDC00" />
<rect x="0.6475000000000004" y="1.932500000000001" width="0.3162500000000002" height="0.3162500000000002" fill="#FFDC00" />
<rect x="0.9687500000000006" y="1.932500000000001" width="0.3162500000000002" height="0.3162500000000002" fill="#FFDC00" />
<rect x="1.2900000000000007" y="1.932500000000001" width="0.3162500000000002" height="0.3162500000000002" fill="#FFDC00" />
<rect x="1.611250000000001" y="1.932500000000001" width="0.3162500000000002" height="0.3162500000000002" fill="#FFDC00" />
<rect x="1.932500000000001" y="1.932500000000001" width="0.3162500000000002" height="0.3162500000000002" fill="#FFDC00" />
<rect x="2.2537500000000015" y="1.932500000000001" width="0.3162500000000002" height="0.3162500000000002" fill="#FFDC00" />
<rect x="2.5750000000000015" y="1.932500000000001" width="0.3162500000000002" height="0.3162500000000002" fill="#FFDC00" />
<rect x="2.8962500000000015" y="1.932500000000001" width="0.3162500000000002" height="0.3162500000000002" fill="#FFDC00" />
<rect x="3.217500000000002" y="1.932500000000001" width="0.3162500000000002" height="0.3162500000000002" fill="#FFDC00" />
<rect x="3.538750000000002" y="1.932500000000001" width="0.3162500000000002" height="0.3162500000000002" fill="#FFDC00" />
<rect x="3.860000000000002" y="1.932500000000001" width="0.3162500000000002" height="0.3162500000000002" fill="#FFDC00" />
<rect x="4.181250000000002" y="1.932500000000001" width="0.3162500000000002" height="0.3162500000000002" fill="#FFDC00" />
<rect x="0.005" y="2.2537500000000015" width="0.3162500000000002" height="0.3162500000000002" fill="#FFDC00" />
<rect x="0.3262500000000002" y="2.2537500000000015" width="0.3162500000000002" height="0.3162500000000002" fill="#FFDC00" />
<rect x="0.6475000000000004" y="2.2537500000000015" width="0.3162500000000002" height="0.3162500000000002" fill="#FFDC00" />
<rect x="0.9687500000000006" y="2.2537500000000015" width="0.3162500000000002" height="0.3162500000000002" fill="#FFDC00" />
<rect x="1.2900000000000007" y="2.2537500000000015" width="0.3162500000000002" height="0.3162500000000002" fill="#FFDC00" />
<rect x="1.611250000000001" y="2.2537500000000015" width="0.3162500000000002" height="0.3162500000000002" fill="#FFDC00" />
<rect x="1.932500000000001" y="2.2537500000000015" width="0.3162500000000002" height="0.3162500000000002" fill="#FFDC00" />
<rect x="2.2537500000000015" y="2.2537500000000015" width="0.3162500000000002" height="0.3162500000000002" fill="#FF871E" />
<rect x="2.5750000000000015" y="2.2537500000000015" width="0.3162500000000002" height="0.3162500000000002" fill="#FFDC00" />
<rect x="2.8962500000000015" y="2.2537500000000015" width="0.3162500000000002" height="0.3162500000000002" fill="#FFDC00" />
<rect x="3.217500000000002" y="2.2537500000000015" width="0.3162500000000002" height="0.3162500000000002" fill="#FFDC00" />
<rect x="3.538750000000002" y="2.2537500000000015" width="0.3162500000000002" height="0.3162500000000002" fill="#FF871E" />
<rect x="3.860000000000002" y="2.2537500000000015" width="0.3162500000000002" height="0.3162500000000002" fill="#FFDC00" />
<rect x="4.181250000000002" y="2.2537500000000015" width="0.3162500000000002" height="0.3162500000000002" fill="#FFDC00" />
<rect x="0.005" y="2.5750000000000015" width="0.3162500000000002" height="0.3162500000000002" fill="#FFDC00" />
<rect x="0.3262500000000002" y="2.5750000000000015" width="0.3162500000000002" height="0.3162500000000002" fill="#FFDC00" />
<rect x="0.6475000000000004" y="2.5750000000000015" width="0.3162500000000002" height="0.3162500000000002" fill="#FFDC00" />
<rect x="0.9687500000000006" y="2.5750000000000015" width="0.3162500000000002" height="0.3162500000000002" fill="#FFDC00" />
<rect x="1.2900000000000007" y="2.5750000000000015" width="0.3162500000000002" height="0.3162500000000002" fill="#FFDC00" />
<rect x="1.611250000000001" y="2.5750000000000015" width="0.3162500000000002" height="0.3162500000000002" fill="#FFDC00" />
<rect x="1.932500000000001" y="2.5750000000000015" width="0.3162500000000002" height="0.3162500000000002" fill="#FFDC00" />
<rect x="2.2537500000000015" y="2.5750000000000015" width="0.3162500000000002" height="0.3162500000000002" fill="#FFDC00" />
<rect x="2.5750000000000015" y="2.5750000000000015" width="0.3162500000000002" height="0.3162500000000002" fill="#FFDC00" />
<rect x="2.8962500000000015" y="2.5750000000000015" width="0.3162500000000002" height="0.3162500000000002" fill="#FFDC00" />
<rect x="3.217500000000002" y="2.5750000000000015" width="0.3162500000000002" height="0.3162500000000002" fill="#FFDC00" />
<rect x="3.538750000000002" y="2.5750000000000015" width="0.3162500000000002" height="0.3162500000000002" fill="#FFDC00" />
<rect x="3.860000000000002" y="2.5750000000000015" width="0.3162500000000002" height="0.3162500000000002" fill="#FFDC00" />
<rect x="4.181250000000002" y="2.5750000000000015" width="0.3162500000000002" height="0.3162500000000002" fill="#FFDC00" />
<rect x="0.005" y="2.8962500000000015" width="0.3162500000000002" height="0.3162500000000002" fill="#FFDC00" />
<rect x="0.3262500000000002" y="2.8962500000000015" width="0.3162500000000002" height="0.3162500000000002" fill="#FFDC00" />
<rect x="0.6475000000000004" y="2.8962500000000015" width="0.3162500000000002" height="0.3162500000000002" fill="#FFDC00" />
<rect x="0.9687500000000006" y="2.8962500000000015" width="0.3162500000000002" height="0.3162500000000002" fill="#FFDC00" />
<rect x="1.2900000000000007" y="2.8962500000000015" width="0.3162500000000002" height="0.3162500000000002" fill="#FFDC00" />
<rect x="1.611250000000001" y="2.8962500000000015" width="0.3162500000000002" height="0.3162500000000002" fill="#FFDC00" />
<rect x="1.932500000000001" y="2.8962500000000015" width="0.3162500000000002" height="0.3162500000000002" fill="#FFDC00" />
<rect x="2.2537500000000015" y="2.8962500000000015" width="0.3162500000000002" height="0.3162500000000002" fill="#FFDC00" />
<rect x="2.5750000000000015" y="2.8962500000000015" width="0.3162500000000002" height="0.3162500000000002" fill="#FFDC00" />
<rect x="2.8962500000000015" y="2.8962500000000015" width="0.3162500000000002" height="0.3162500000000002" fill="#FF871E" />
<rect x="3.217500000000002" y="2.8962500000000015" width="0.3162500000000002" height="0.3162500000000002" fill="#FFDC00" />
<rect x="3.538750000000002" y="2.8962500000000015" width="0.3162500000000002" height="0.3162500000000002" fill="#FFDC00" />
<rect x="3.860000000000002" y="2.8962500000000015" width="0.3162500000000002" height="0.3162500000000002" fill="#FFDC00" />
<rect x="4.181250000000002" y="2.8962500000000015" width="0.3162500000000002" height="0.3162500000000002" fill="#FFDC00" />
<rect x="0.005" y="3.217500000000002" width="0.3162500000000002" height="0.3162500000000002" fill="#FFDC00" />
<rect x="0.3262500000000002" y="3.217500000000002" width="0.3162500000000002" height="0.3162500000000002" fill="#FFDC00" />
<rect x="0.6475000000000004" y="3.217500000000002" width="0.3162500000000002" height="0.3162500000000002" fill="#FFDC00" />
<rect x="0.9687500000000006" y="3.217500000000002" width="0.3162500000000002" height="0.3162500000000002" fill="#FFDC00" />
<rect x="1.2900000000000007" y="3.217500000000002" width="0.3162500000000002" height="0.3162500000000002" fill="#FFDC00" />
<rect x="1.611250000000001" y="3.217500000000002" width="0.3162500000000002" height="0.3162500000000002" fill="#FFDC00" />
<rect x="1.932500000000001" y="3.217500000000002" width="0.3162500000000002" height="0.3162500000000002" fill="#FFDC00" />
<rect x="2.2537500000000015" y="3.217500000000002" width="0.3162500000000002" height="0.3162500000000002" fill="#FFDC00" />
<rect x="2.5750000000000015" y="3.217500000000002" width="0.3162500000000002" height="0.3162500000000002" fill="#FFDC00" />
<rect x="2.8962500000000015" y="3.217500000000002" width="0.3162500000000002" height="0.3162500000000002" fill="#FFDC00" />
<rect x="3.217500000000002" y="3.217500000000002" width="0.3162500000000002" height="0.3162500000000002" fill="#FFDC00" />
<rect x="3.538750000000002" y="3.217500000000002" width="0.3162500000000002" height="0.3162500000000002" fill="#FFDC00" />
<rect x="3.860000000000002" y="3.217500000000002" width="0.3162500000000002" height="0.3162500000000002" fill="#FFDC00" />
<rect x="4.181250000000002" y="3.217500000000002" width="0.3162500000000002" height="0.3162500000000002" fill="#FFDC00" />
<rect x="0.005" y="3.538750000000002" width="0.3162500000000002" height="0.3162500000000002" fill="#FFDC00" />
<rect x="0.3262500000000002" y="3.538750000000002" width="0.3162500000000002" height="0.3162500000000002" fill="#FFDC00" />
<rect x="0.6475000000000004" y="3.538750000000002" width="0.3162500000000002" height="0.3162500000000002" fill="#FFDC00" />
<rect x="0.9687500000000006" y="3.538750000000002" width="0.3162500000000002" height="0.3162500000000002" fill="#FFDC00" />
<rect x="1.2900000000000007" y="3.538750000000002" width="0.3162500000000002" height="0.3162500000000002" fill="#FFDC00" />
<rect x="1.611250000000001" y="3.538750000000002" width="0.3162500000000002" height="0.3162500000000002" fill="#FFDC00" />
<rect x="1.932500000000001" y="3.538750000000002" width="0.3162500000000002" height="0.3162500000000002" fill="#FFDC00" />
<rect x="2.2537500000000015" y="3.538750000000002" width="0.3162500000000002" height="0.3162500000000002" fill="#FFDC00" />
<rect x="2.5750000000000015" y="3.538750000000002" width="0.3162500000000002" height="0.3162500000000002" fill="#FFDC00" />
<rect x="2.8962500000000015" y="3.538750000000002" width="0.3162500000000002" height="0.3162500000000002" fill="#FFDC00" />
<rect x="3.217500000000002" y="3.538750000000002" width="0.3162500000000002" height="0.3162500000000002" fill="#FFDC00" />
<rect x="3.538750000000002" y="3.538750000000002" width="0.3162500000000002" height="0.3162500000000002" fill="#FFDC00" />
<rect x="3.860000000000002" y="3.538750000000002" width="0.3162500000000002" height="0.3162500000000002" fill="#FFDC00" />
<rect x="4.181250000000002" y="3.538750000000002" width="0.3162500000000002" height="0.3162500000000002" fill="#FFDC00" />
<rect x="-0.02666666666666667" y="-0.02666666666666667" width="4.550833333333337" height="3.9083333333333354" fill="none" stroke="#111111ff" stroke-width="0.08" />
<text x="4.497500000000003" y="4.323750000000002" font-size="0.375" fill="black" text-anchor="end" font-family="Anuphan">14x12</text>
<text x="-0.037500000000000006" y="4.323750000000002" font-size="0.375" fill="black" text-anchor="start" font-family="Anuphan" font-weight="600">Input 3</text>
</g>
<g id="d3">
<rect x="0.005" y="0.005" width="0.23171052631578964" height="0.23171052631578964" fill="#54D2EB" />
<rect x="0.24171052631578965" y="0.005" width="0.23171052631578964" height="0.23171052631578964" fill="#54D2EB" />
<rect x="0.4784210526315793" y="0.005" width="0.23171052631578964" height="0.23171052631578964" fill="#54D2EB" />
<rect x="0.715131578947369" y="0.005" width="0.23171052631578964" height="0.23171052631578964" fill="#54D2EB" />
<rect x="0.9518421052631586" y="0.005" width="0.23171052631578964" height="0.23171052631578964" fill="#54D2EB" />
<rect x="1.188552631578948" y="0.005" width="0.23171052631578964" height="0.23171052631578964" fill="#54D2EB" />
<rect x="1.425263157894738" y="0.005" width="0.23171052631578964" height="0.23171052631578964" fill="#54D2EB" />
<rect x="1.6619736842105275" y="0.005" width="0.23171052631578964" height="0.23171052631578964" fill="#54D2EB" />
<rect x="1.898684210526317" y="0.005" width="0.23171052631578964" height="0.23171052631578964" fill="#54D2EB" />
<rect x="2.1353947368421067" y="0.005" width="0.23171052631578964" height="0.23171052631578964" fill="#54D2EB" />
<rect x="2.3721052631578963" y="0.005" width="0.23171052631578964" height="0.23171052631578964" fill="#54D2EB" />
<rect x="2.608815789473686" y="0.005" width="0.23171052631578964" height="0.23171052631578964" fill="#54D2EB" />
<rect x="2.845526315789476" y="0.005" width="0.23171052631578964" height="0.23171052631578964" fill="#54D2EB" />
<rect x="3.0822368421052655" y="0.005" width="0.23171052631578964" height="0.23171052631578964" fill="#54D2EB" />
<rect x="3.318947368421055" y="0.005" width="0.23171052631578964" height="0.23171052631578964" fill="#54D2EB" />
<rect x="3.5556578947368447" y="0.005" width="0.23171052631578964" height="0.23171052631578964" fill="#54D2EB" />
<rect x="3.7923684210526343" y="0.005" width="0.23171052631578964" height="0.23171052631578964" fill="#54D2EB" />
<rect x="4.029078947368424" y="0.005" width="0.23171052631578964" height="0.23171052631578964" fill="#54D2EB" />
<rect x="4.2657894736842135" y="0.005" width="0.23171052631578964" height="0.23171052631578964" fill="#54D2EB" />
<rect x="0.005" y="0.24171052631578965" width="0.23171052631578964" height="0.23171052631578964" fill="#54D2EB" />
<rect x="0.24171052631578965" y="0.24171052631578965" width="0.23171052631578964" height="0.23171052631578964" fill="#54D2EB" />
<rect x="0.4784210526315793" y="0.24171052631578965" width="0.23171052631578964" height="0.23171052631578964" fill="#54D2EB" />
<rect x="0.715131578947369" y="0.24171052631578965" width="0.23171052631578964" height="0.23171052631578964" fill="#54D2EB" />
<rect x="0.9518421052631586" y="0.24171052631578965" width="0.23171052631578964" height="0.23171052631578964" fill="#54D2EB" />
<rect x="1.188552631578948" y="0.24171052631578965" width="0.23171052631578964" height="0.23171052631578964" fill="#54D2EB" />
<rect x="1.425263157894738" y="0.24171052631578965" width="0.23171052631578964" height="0.23171052631578964" fill="#54D2EB" />
<rect x="1.6619736842105275" y="0.24171052631578965" width="0.23171052631578964" height="0.23171052631578964" fill="#54D2EB" />
<rect x="1.898684210526317" y="0.24171052631578965" width="0.23171052631578964" height="0.23171052631578964" fill="#54D2EB" />
<rect x="2.1353947368421067" y="0.24171052631578965" width="0.23171052631578964" height="0.23171052631578964" fill="#54D2EB" />
<rect x="2.3721052631578963" y="0.24171052631578965" width="0.23171052631578964" height="0.23171052631578964" fill="#54D2EB" />
<rect x="2.608815789473686" y="0.24171052631578965" width="0.23171052631578964" height="0.23171052631578964" fill="#54D2EB" />
<rect x="2.845526315789476" y="0.24171052631578965" width="0.23171052631578964" height="0.23171052631578964" fill="#54D2EB" />
<rect x="3.0822368421052655" y="0.24171052631578965" width="0.23171052631578964" height="0.23171052631578964" fill="#54D2EB" />
<rect x="3.318947368421055" y="0.24171052631578965" width="0.23171052631578964" height="0.23171052631578964" fill="#54D2EB" />
<rect x="3.5556578947368447" y="0.24171052631578965" width="0.23171052631578964" height="0.23171052631578964" fill="#54D2EB" />
<rect x="3.7923684210526343" y="0.24171052631578965" width="0.23171052631578964" height="0.23171052631578964" fill="#54D2EB" />
<rect x="4.029078947368424" y="0.24171052631578965" width="0.23171052631578964" height="0.23171052631578964" fill="#54D2EB" />
<rect x="4.2657894736842135" y="0.24171052631578965" width="0.23171052631578964" height="0.23171052631578964" fill="#54D2EB" />
<rect x="0.005" y="0.4784210526315793" width="0.23171052631578964" height="0.23171052631578964" fill="#54D2EB" />
<rect x="0.24171052631578965" y="0.4784210526315793" width="0.23171052631578964" height="0.23171052631578964" fill="#54D2EB" />
<rect x="0.4784210526315793" y="0.4784210526315793" width="0.23171052631578964" height="0.23171052631578964" fill="#54D2EB" />
<rect x="0.715131578947369" y="0.4784210526315793" width="0.23171052631578964" height="0.23171052631578964" fill="#54D2EB" />
<rect x="0.9518421052631586" y="0.4784210526315793" width="0.23171052631578964" height="0.23171052631578964" fill="#54D2EB" />
<rect x="1.188552631578948" y="0.4784210526315793" width="0.23171052631578964" height="0.23171052631578964" fill="#54D2EB" />
<rect x="1.425263157894738" y="0.4784210526315793" width="0.23171052631578964" height="0.23171052631578964" fill="#0074D9" />
<rect x="1.6619736842105275" y="0.4784210526315793" width="0.23171052631578964" height="0.23171052631578964" fill="#54D2EB" />
<rect x="1.898684210526317" y="0.4784210526315793" width="0.23171052631578964" height="0.23171052631578964" fill="#54D2EB" />
<rect x="2.1353947368421067" y="0.4784210526315793" width="0.23171052631578964" height="0.23171052631578964" fill="#54D2EB" />
<rect x="2.3721052631578963" y="0.4784210526315793" width="0.23171052631578964" height="0.23171052631578964" fill="#54D2EB" />
<rect x="2.608815789473686" y="0.4784210526315793" width="0.23171052631578964" height="0.23171052631578964" fill="#54D2EB" />
<rect x="2.845526315789476" y="0.4784210526315793" width="0.23171052631578964" height="0.23171052631578964" fill="#54D2EB" />
<rect x="3.0822368421052655" y="0.4784210526315793" width="0.23171052631578964" height="0.23171052631578964" fill="#54D2EB" />
<rect x="3.318947368421055" y="0.4784210526315793" width="0.23171052631578964" height="0.23171052631578964" fill="#54D2EB" />
<rect x="3.5556578947368447" y="0.4784210526315793" width="0.23171052631578964" height="0.23171052631578964" fill="#54D2EB" />
<rect x="3.7923684210526343" y="0.4784210526315793" width="0.23171052631578964" height="0.23171052631578964" fill="#54D2EB" />
<rect x="4.029078947368424" y="0.4784210526315793" width="0.23171052631578964" height="0.23171052631578964" fill="#54D2EB" />
<rect x="4.2657894736842135" y="0.4784210526315793" width="0.23171052631578964" height="0.23171052631578964" fill="#54D2EB" />
<rect x="0.005" y="0.715131578947369" width="0.23171052631578964" height="0.23171052631578964" fill="#54D2EB" />
<rect x="0.24171052631578965" y="0.715131578947369" width="0.23171052631578964" height="0.23171052631578964" fill="#54D2EB" />
<rect x="0.4784210526315793" y="0.715131578947369" width="0.23171052631578964" height="0.23171052631578964" fill="#54D2EB" />
<rect x="0.715131578947369" y="0.715131578947369" width="0.23171052631578964" height="0.23171052631578964" fill="#54D2EB" />
<rect x="0.9518421052631586" y="0.715131578947369" width="0.23171052631578964" height="0.23171052631578964" fill="#54D2EB" />
<rect x="1.188552631578948" y="0.715131578947369" width="0.23171052631578964" height="0.23171052631578964" fill="#54D2EB" />
<rect x="1.425263157894738" y="0.715131578947369" width="0.23171052631578964" height="0.23171052631578964" fill="#54D2EB" />
<rect x="1.6619736842105275" y="0.715131578947369" width="0.23171052631578964" height="0.23171052631578964" fill="#54D2EB" />
<rect x="1.898684210526317" y="0.715131578947369" width="0.23171052631578964" height="0.23171052631578964" fill="#54D2EB" />
<rect x="2.1353947368421067" y="0.715131578947369" width="0.23171052631578964" height="0.23171052631578964" fill="#54D2EB" />
<rect x="2.3721052631578963" y="0.715131578947369" width="0.23171052631578964" height="0.23171052631578964" fill="#54D2EB" />
<rect x="2.608815789473686" y="0.715131578947369" width="0.23171052631578964" height="0.23171052631578964" fill="#54D2EB" />
<rect x="2.845526315789476" y="0.715131578947369" width="0.23171052631578964" height="0.23171052631578964" fill="#54D2EB" />
<rect x="3.0822368421052655" y="0.715131578947369" width="0.23171052631578964" height="0.23171052631578964" fill="#54D2EB" />
<rect x="3.318947368421055" y="0.715131578947369" width="0.23171052631578964" height="0.23171052631578964" fill="#54D2EB" />
<rect x="3.5556578947368447" y="0.715131578947369" width="0.23171052631578964" height="0.23171052631578964" fill="#54D2EB" />
<rect x="3.7923684210526343" y="0.715131578947369" width="0.23171052631578964" height="0.23171052631578964" fill="#54D2EB" />
<rect x="4.029078947368424" y="0.715131578947369" width="0.23171052631578964" height="0.23171052631578964" fill="#54D2EB" />
<rect x="4.2657894736842135" y="0.715131578947369" width="0.23171052631578964" height="0.23171052631578964" fill="#54D2EB" />
<rect x="0.005" y="0.9518421052631586" width="0.23171052631578964" height="0.23171052631578964" fill="#54D2EB" />
<rect x="0.24171052631578965" y="0.9518421052631586" width="0.23171052631578964" height="0.23171052631578964" fill="#54D2EB" />
<rect x="0.4784210526315793" y="0.9518421052631586" width="0.23171052631578964" height="0.23171052631578964" fill="#54D2EB" />
<rect x="0.715131578947369" y="0.9518421052631586" width="0.23171052631578964" height="0.23171052631578964" fill="#54D2EB" />
<rect x="0.9518421052631586" y="0.9518421052631586" width="0.23171052631578964" height="0.23171052631578964" fill="#54D2EB" />
<rect x="1.188552631578948" y="0.9518421052631586" width="0.23171052631578964" height="0.23171052631578964" fill="#54D2EB" />
<rect x="1.425263157894738" y="0.9518421052631586" width="0.23171052631578964" height="0.23171052631578964" fill="#54D2EB" />
<rect x="1.6619736842105275" y="0.9518421052631586" width="0.23171052631578964" height="0.23171052631578964" fill="#54D2EB" />
<rect x="1.898684210526317" y="0.9518421052631586" width="0.23171052631578964" height="0.23171052631578964" fill="#54D2EB" />
<rect x="2.1353947368421067" y="0.9518421052631586" width="0.23171052631578964" height="0.23171052631578964" fill="#54D2EB" />
<rect x="2.3721052631578963" y="0.9518421052631586" width="0.23171052631578964" height="0.23171052631578964" fill="#54D2EB" />
<rect x="2.608815789473686" y="0.9518421052631586" width="0.23171052631578964" height="0.23171052631578964" fill="#54D2EB" />
<rect x="2.845526315789476" y="0.9518421052631586" width="0.23171052631578964" height="0.23171052631578964" fill="#54D2EB" />
<rect x="3.0822368421052655" y="0.9518421052631586" width="0.23171052631578964" height="0.23171052631578964" fill="#54D2EB" />
<rect x="3.318947368421055" y="0.9518421052631586" width="0.23171052631578964" height="0.23171052631578964" fill="#54D2EB" />
<rect x="3.5556578947368447" y="0.9518421052631586" width="0.23171052631578964" height="0.23171052631578964" fill="#54D2EB" />
<rect x="3.7923684210526343" y="0.9518421052631586" width="0.23171052631578964" height="0.23171052631578964" fill="#54D2EB" />
<rect x="4.029078947368424" y="0.9518421052631586" width="0.23171052631578964" height="0.23171052631578964" fill="#54D2EB" />
<rect x="4.2657894736842135" y="0.9518421052631586" width="0.23171052631578964" height="0.23171052631578964" fill="#54D2EB" />
<rect x="0.005" y="1.188552631578948" width="0.23171052631578964" height="0.23171052631578964" fill="#54D2EB" />
<rect x="0.24171052631578965" y="1.188552631578948" width="0.23171052631578964" height="0.23171052631578964" fill="#54D2EB" />
<rect x="0.4784210526315793" y="1.188552631578948" width="0.23171052631578964" height="0.23171052631578964" fill="#54D2EB" />
<rect x="0.715131578947369" y="1.188552631578948" width="0.23171052631578964" height="0.23171052631578964" fill="#0074D9" />
<rect x="0.9518421052631586" y="1.188552631578948" width="0.23171052631578964" height="0.23171052631578964" fill="#54D2EB" />
<rect x="1.188552631578948" y="1.188552631578948" width="0.23171052631578964" height="0.23171052631578964" fill="#54D2EB" />
<rect x="1.425263157894738" y="1.188552631578948" width="0.23171052631578964" height="0.23171052631578964" fill="#54D2EB" />
<rect x="1.6619736842105275" y="1.188552631578948" width="0.23171052631578964" height="0.23171052631578964" fill="#54D2EB" />
<rect x="1.898684210526317" y="1.188552631578948" width="0.23171052631578964" height="0.23171052631578964" fill="#54D2EB" />
<rect x="2.1353947368421067" y="1.188552631578948" width="0.23171052631578964" height="0.23171052631578964" fill="#0074D9" />
<rect x="2.3721052631578963" y="1.188552631578948" width="0.23171052631578964" height="0.23171052631578964" fill="#54D2EB" />
<rect x="2.608815789473686" y="1.188552631578948" width="0.23171052631578964" height="0.23171052631578964" fill="#54D2EB" />
<rect x="2.845526315789476" y="1.188552631578948" width="0.23171052631578964" height="0.23171052631578964" fill="#54D2EB" />
<rect x="3.0822368421052655" y="1.188552631578948" width="0.23171052631578964" height="0.23171052631578964" fill="#54D2EB" />
<rect x="3.318947368421055" y="1.188552631578948" width="0.23171052631578964" height="0.23171052631578964" fill="#54D2EB" />
<rect x="3.5556578947368447" y="1.188552631578948" width="0.23171052631578964" height="0.23171052631578964" fill="#54D2EB" />
<rect x="3.7923684210526343" y="1.188552631578948" width="0.23171052631578964" height="0.23171052631578964" fill="#54D2EB" />
<rect x="4.029078947368424" y="1.188552631578948" width="0.23171052631578964" height="0.23171052631578964" fill="#54D2EB" />
<rect x="4.2657894736842135" y="1.188552631578948" width="0.23171052631578964" height="0.23171052631578964" fill="#54D2EB" />
<rect x="0.005" y="1.425263157894738" width="0.23171052631578964" height="0.23171052631578964" fill="#54D2EB" />
<rect x="0.24171052631578965" y="1.425263157894738" width="0.23171052631578964" height="0.23171052631578964" fill="#54D2EB" />
<rect x="0.4784210526315793" y="1.425263157894738" width="0.23171052631578964" height="0.23171052631578964" fill="#54D2EB" />
<rect x="0.715131578947369" y="1.425263157894738" width="0.23171052631578964" height="0.23171052631578964" fill="#54D2EB" />
<rect x="0.9518421052631586" y="1.425263157894738" width="0.23171052631578964" height="0.23171052631578964" fill="#54D2EB" />
<rect x="1.188552631578948" y="1.425263157894738" width="0.23171052631578964" height="0.23171052631578964" fill="#54D2EB" />
<rect x="1.425263157894738" y="1.425263157894738" width="0.23171052631578964" height="0.23171052631578964" fill="#54D2EB" />
<rect x="1.6619736842105275" y="1.425263157894738" width="0.23171052631578964" height="0.23171052631578964" fill="#54D2EB" />
<rect x="1.898684210526317" y="1.425263157894738" width="0.23171052631578964" height="0.23171052631578964" fill="#54D2EB" />
<rect x="2.1353947368421067" y="1.425263157894738" width="0.23171052631578964" height="0.23171052631578964" fill="#54D2EB" />
<rect x="2.3721052631578963" y="1.425263157894738" width="0.23171052631578964" height="0.23171052631578964" fill="#54D2EB" />
<rect x="2.608815789473686" y="1.425263157894738" width="0.23171052631578964" height="0.23171052631578964" fill="#FF4136" />
<rect x="2.845526315789476" y="1.425263157894738" width="0.23171052631578964" height="0.23171052631578964" fill="#54D2EB" />
<rect x="3.0822368421052655" y="1.425263157894738" width="0.23171052631578964" height="0.23171052631578964" fill="#54D2EB" />
<rect x="3.318947368421055" y="1.425263157894738" width="0.23171052631578964" height="0.23171052631578964" fill="#54D2EB" />
<rect x="3.5556578947368447" y="1.425263157894738" width="0.23171052631578964" height="0.23171052631578964" fill="#54D2EB" />
<rect x="3.7923684210526343" y="1.425263157894738" width="0.23171052631578964" height="0.23171052631578964" fill="#54D2EB" />
<rect x="4.029078947368424" y="1.425263157894738" width="0.23171052631578964" height="0.23171052631578964" fill="#FF4136" />
<rect x="4.2657894736842135" y="1.425263157894738" width="0.23171052631578964" height="0.23171052631578964" fill="#54D2EB" />
<rect x="0.005" y="1.6619736842105275" width="0.23171052631578964" height="0.23171052631578964" fill="#54D2EB" />
<rect x="0.24171052631578965" y="1.6619736842105275" width="0.23171052631578964" height="0.23171052631578964" fill="#54D2EB" />
<rect x="0.4784210526315793" y="1.6619736842105275" width="0.23171052631578964" height="0.23171052631578964" fill="#54D2EB" />
<rect x="0.715131578947369" y="1.6619736842105275" width="0.23171052631578964" height="0.23171052631578964" fill="#54D2EB" />
<rect x="0.9518421052631586" y="1.6619736842105275" width="0.23171052631578964" height="0.23171052631578964" fill="#54D2EB" />
<rect x="1.188552631578948" y="1.6619736842105275" width="0.23171052631578964" height="0.23171052631578964" fill="#54D2EB" />
<rect x="1.425263157894738" y="1.6619736842105275" width="0.23171052631578964" height="0.23171052631578964" fill="#54D2EB" />
<rect x="1.6619736842105275" y="1.6619736842105275" width="0.23171052631578964" height="0.23171052631578964" fill="#54D2EB" />
<rect x="1.898684210526317" y="1.6619736842105275" width="0.23171052631578964" height="0.23171052631578964" fill="#54D2EB" />
<rect x="2.1353947368421067" y="1.6619736842105275" width="0.23171052631578964" height="0.23171052631578964" fill="#54D2EB" />
<rect x="2.3721052631578963" y="1.6619736842105275" width="0.23171052631578964" height="0.23171052631578964" fill="#54D2EB" />
<rect x="2.608815789473686" y="1.6619736842105275" width="0.23171052631578964" height="0.23171052631578964" fill="#54D2EB" />
<rect x="2.845526315789476" y="1.6619736842105275" width="0.23171052631578964" height="0.23171052631578964" fill="#54D2EB" />
<rect x="3.0822368421052655" y="1.6619736842105275" width="0.23171052631578964" height="0.23171052631578964" fill="#54D2EB" />
<rect x="3.318947368421055" y="1.6619736842105275" width="0.23171052631578964" height="0.23171052631578964" fill="#54D2EB" />
<rect x="3.5556578947368447" y="1.6619736842105275" width="0.23171052631578964" height="0.23171052631578964" fill="#54D2EB" />
<rect x="3.7923684210526343" y="1.6619736842105275" width="0.23171052631578964" height="0.23171052631578964" fill="#54D2EB" />
<rect x="4.029078947368424" y="1.6619736842105275" width="0.23171052631578964" height="0.23171052631578964" fill="#54D2EB" />
<rect x="4.2657894736842135" y="1.6619736842105275" width="0.23171052631578964" height="0.23171052631578964" fill="#54D2EB" />
<rect x="0.005" y="1.898684210526317" width="0.23171052631578964" height="0.23171052631578964" fill="#54D2EB" />
<rect x="0.24171052631578965" y="1.898684210526317" width="0.23171052631578964" height="0.23171052631578964" fill="#54D2EB" />
<rect x="0.4784210526315793" y="1.898684210526317" width="0.23171052631578964" height="0.23171052631578964" fill="#54D2EB" />
<rect x="0.715131578947369" y="1.898684210526317" width="0.23171052631578964" height="0.23171052631578964" fill="#54D2EB" />
<rect x="0.9518421052631586" y="1.898684210526317" width="0.23171052631578964" height="0.23171052631578964" fill="#54D2EB" />
<rect x="1.188552631578948" y="1.898684210526317" width="0.23171052631578964" height="0.23171052631578964" fill="#54D2EB" />
<rect x="1.425263157894738" y="1.898684210526317" width="0.23171052631578964" height="0.23171052631578964" fill="#0074D9" />
<rect x="1.6619736842105275" y="1.898684210526317" width="0.23171052631578964" height="0.23171052631578964" fill="#54D2EB" />
<rect x="1.898684210526317" y="1.898684210526317" width="0.23171052631578964" height="0.23171052631578964" fill="#54D2EB" />
<rect x="2.1353947368421067" y="1.898684210526317" width="0.23171052631578964" height="0.23171052631578964" fill="#54D2EB" />
<rect x="2.3721052631578963" y="1.898684210526317" width="0.23171052631578964" height="0.23171052631578964" fill="#54D2EB" />
<rect x="2.608815789473686" y="1.898684210526317" width="0.23171052631578964" height="0.23171052631578964" fill="#FF4136" />
<rect x="2.845526315789476" y="1.898684210526317" width="0.23171052631578964" height="0.23171052631578964" fill="#54D2EB" />
<rect x="3.0822368421052655" y="1.898684210526317" width="0.23171052631578964" height="0.23171052631578964" fill="#54D2EB" />
<rect x="3.318947368421055" y="1.898684210526317" width="0.23171052631578964" height="0.23171052631578964" fill="#54D2EB" />
<rect x="3.5556578947368447" y="1.898684210526317" width="0.23171052631578964" height="0.23171052631578964" fill="#54D2EB" />
<rect x="3.7923684210526343" y="1.898684210526317" width="0.23171052631578964" height="0.23171052631578964" fill="#54D2EB" />
<rect x="4.029078947368424" y="1.898684210526317" width="0.23171052631578964" height="0.23171052631578964" fill="#FF4136" />
<rect x="4.2657894736842135" y="1.898684210526317" width="0.23171052631578964" height="0.23171052631578964" fill="#54D2EB" />
<rect x="0.005" y="2.1353947368421067" width="0.23171052631578964" height="0.23171052631578964" fill="#54D2EB" />
<rect x="0.24171052631578965" y="2.1353947368421067" width="0.23171052631578964" height="0.23171052631578964" fill="#54D2EB" />
<rect x="0.4784210526315793" y="2.1353947368421067" width="0.23171052631578964" height="0.23171052631578964" fill="#54D2EB" />
<rect x="0.715131578947369" y="2.1353947368421067" width="0.23171052631578964" height="0.23171052631578964" fill="#37D449" />
<rect x="0.9518421052631586" y="2.1353947368421067" width="0.23171052631578964" height="0.23171052631578964" fill="#54D2EB" />
<rect x="1.188552631578948" y="2.1353947368421067" width="0.23171052631578964" height="0.23171052631578964" fill="#54D2EB" />
<rect x="1.425263157894738" y="2.1353947368421067" width="0.23171052631578964" height="0.23171052631578964" fill="#54D2EB" />
<rect x="1.6619736842105275" y="2.1353947368421067" width="0.23171052631578964" height="0.23171052631578964" fill="#54D2EB" />
<rect x="1.898684210526317" y="2.1353947368421067" width="0.23171052631578964" height="0.23171052631578964" fill="#54D2EB" />
<rect x="2.1353947368421067" y="2.1353947368421067" width="0.23171052631578964" height="0.23171052631578964" fill="#37D449" />
<rect x="2.3721052631578963" y="2.1353947368421067" width="0.23171052631578964" height="0.23171052631578964" fill="#54D2EB" />
<rect x="2.608815789473686" y="2.1353947368421067" width="0.23171052631578964" height="0.23171052631578964" fill="#54D2EB" />
<rect x="2.845526315789476" y="2.1353947368421067" width="0.23171052631578964" height="0.23171052631578964" fill="#54D2EB" />
<rect x="3.0822368421052655" y="2.1353947368421067" width="0.23171052631578964" height="0.23171052631578964" fill="#54D2EB" />
<rect x="3.318947368421055" y="2.1353947368421067" width="0.23171052631578964" height="0.23171052631578964" fill="#54D2EB" />
<rect x="3.5556578947368447" y="2.1353947368421067" width="0.23171052631578964" height="0.23171052631578964" fill="#54D2EB" />
<rect x="3.7923684210526343" y="2.1353947368421067" width="0.23171052631578964" height="0.23171052631578964" fill="#54D2EB" />
<rect x="4.029078947368424" y="2.1353947368421067" width="0.23171052631578964" height="0.23171052631578964" fill="#54D2EB" />
<rect x="4.2657894736842135" y="2.1353947368421067" width="0.23171052631578964" height="0.23171052631578964" fill="#54D2EB" />
<rect x="0.005" y="2.3721052631578963" width="0.23171052631578964" height="0.23171052631578964" fill="#54D2EB" />
<rect x="0.24171052631578965" y="2.3721052631578963" width="0.23171052631578964" height="0.23171052631578964" fill="#54D2EB" />
<rect x="0.4784210526315793" y="2.3721052631578963" width="0.23171052631578964" height="0.23171052631578964" fill="#54D2EB" />
<rect x="0.715131578947369" y="2.3721052631578963" width="0.23171052631578964" height="0.23171052631578964" fill="#54D2EB" />
<rect x="0.9518421052631586" y="2.3721052631578963" width="0.23171052631578964" height="0.23171052631578964" fill="#54D2EB" />
<rect x="1.188552631578948" y="2.3721052631578963" width="0.23171052631578964" height="0.23171052631578964" fill="#54D2EB" />
<rect x="1.425263157894738" y="2.3721052631578963" width="0.23171052631578964" height="0.23171052631578964" fill="#54D2EB" />
<rect x="1.6619736842105275" y="2.3721052631578963" width="0.23171052631578964" height="0.23171052631578964" fill="#54D2EB" />
<rect x="1.898684210526317" y="2.3721052631578963" width="0.23171052631578964" height="0.23171052631578964" fill="#54D2EB" />
<rect x="2.1353947368421067" y="2.3721052631578963" width="0.23171052631578964" height="0.23171052631578964" fill="#54D2EB" />
<rect x="2.3721052631578963" y="2.3721052631578963" width="0.23171052631578964" height="0.23171052631578964" fill="#54D2EB" />
<rect x="2.608815789473686" y="2.3721052631578963" width="0.23171052631578964" height="0.23171052631578964" fill="#54D2EB" />
<rect x="2.845526315789476" y="2.3721052631578963" width="0.23171052631578964" height="0.23171052631578964" fill="#54D2EB" />
<rect x="3.0822368421052655" y="2.3721052631578963" width="0.23171052631578964" height="0.23171052631578964" fill="#54D2EB" />
<rect x="3.318947368421055" y="2.3721052631578963" width="0.23171052631578964" height="0.23171052631578964" fill="#F012BE" />
<rect x="3.5556578947368447" y="2.3721052631578963" width="0.23171052631578964" height="0.23171052631578964" fill="#54D2EB" />
<rect x="3.7923684210526343" y="2.3721052631578963" width="0.23171052631578964" height="0.23171052631578964" fill="#F012BE" />
<rect x="4.029078947368424" y="2.3721052631578963" width="0.23171052631578964" height="0.23171052631578964" fill="#54D2EB" />
<rect x="4.2657894736842135" y="2.3721052631578963" width="0.23171052631578964" height="0.23171052631578964" fill="#54D2EB" />
<rect x="0.005" y="2.608815789473686" width="0.23171052631578964" height="0.23171052631578964" fill="#54D2EB" />
<rect x="0.24171052631578965" y="2.608815789473686" width="0.23171052631578964" height="0.23171052631578964" fill="#54D2EB" />
<rect x="0.4784210526315793" y="2.608815789473686" width="0.23171052631578964" height="0.23171052631578964" fill="#54D2EB" />
<rect x="0.715131578947369" y="2.608815789473686" width="0.23171052631578964" height="0.23171052631578964" fill="#54D2EB" />
<rect x="0.9518421052631586" y="2.608815789473686" width="0.23171052631578964" height="0.23171052631578964" fill="#54D2EB" />
<rect x="1.188552631578948" y="2.608815789473686" width="0.23171052631578964" height="0.23171052631578964" fill="#54D2EB" />
<rect x="1.425263157894738" y="2.608815789473686" width="0.23171052631578964" height="0.23171052631578964" fill="#54D2EB" />
<rect x="1.6619736842105275" y="2.608815789473686" width="0.23171052631578964" height="0.23171052631578964" fill="#54D2EB" />
<rect x="1.898684210526317" y="2.608815789473686" width="0.23171052631578964" height="0.23171052631578964" fill="#54D2EB" />
<rect x="2.1353947368421067" y="2.608815789473686" width="0.23171052631578964" height="0.23171052631578964" fill="#54D2EB" />
<rect x="2.3721052631578963" y="2.608815789473686" width="0.23171052631578964" height="0.23171052631578964" fill="#54D2EB" />
<rect x="2.608815789473686" y="2.608815789473686" width="0.23171052631578964" height="0.23171052631578964" fill="#54D2EB" />
<rect x="2.845526315789476" y="2.608815789473686" width="0.23171052631578964" height="0.23171052631578964" fill="#54D2EB" />
<rect x="3.0822368421052655" y="2.608815789473686" width="0.23171052631578964" height="0.23171052631578964" fill="#54D2EB" />
<rect x="3.318947368421055" y="2.608815789473686" width="0.23171052631578964" height="0.23171052631578964" fill="#54D2EB" />
<rect x="3.5556578947368447" y="2.608815789473686" width="0.23171052631578964" height="0.23171052631578964" fill="#54D2EB" />
<rect x="3.7923684210526343" y="2.608815789473686" width="0.23171052631578964" height="0.23171052631578964" fill="#54D2EB" />
<rect x="4.029078947368424" y="2.608815789473686" width="0.23171052631578964" height="0.23171052631578964" fill="#54D2EB" />
<rect x="4.2657894736842135" y="2.608815789473686" width="0.23171052631578964" height="0.23171052631578964" fill="#54D2EB" />
<rect x="0.005" y="2.845526315789476" width="0.23171052631578964" height="0.23171052631578964" fill="#54D2EB" />
<rect x="0.24171052631578965" y="2.845526315789476" width="0.23171052631578964" height="0.23171052631578964" fill="#54D2EB" />
<rect x="0.4784210526315793" y="2.845526315789476" width="0.23171052631578964" height="0.23171052631578964" fill="#54D2EB" />
<rect x="0.715131578947369" y="2.845526315789476" width="0.23171052631578964" height="0.23171052631578964" fill="#54D2EB" />
<rect x="0.9518421052631586" y="2.845526315789476" width="0.23171052631578964" height="0.23171052631578964" fill="#54D2EB" />
<rect x="1.188552631578948" y="2.845526315789476" width="0.23171052631578964" height="0.23171052631578964" fill="#54D2EB" />
<rect x="1.425263157894738" y="2.845526315789476" width="0.23171052631578964" height="0.23171052631578964" fill="#54D2EB" />
<rect x="1.6619736842105275" y="2.845526315789476" width="0.23171052631578964" height="0.23171052631578964" fill="#54D2EB" />
<rect x="1.898684210526317" y="2.845526315789476" width="0.23171052631578964" height="0.23171052631578964" fill="#54D2EB" />
<rect x="2.1353947368421067" y="2.845526315789476" width="0.23171052631578964" height="0.23171052631578964" fill="#54D2EB" />
<rect x="2.3721052631578963" y="2.845526315789476" width="0.23171052631578964" height="0.23171052631578964" fill="#54D2EB" />
<rect x="2.608815789473686" y="2.845526315789476" width="0.23171052631578964" height="0.23171052631578964" fill="#54D2EB" />
<rect x="2.845526315789476" y="2.845526315789476" width="0.23171052631578964" height="0.23171052631578964" fill="#54D2EB" />
<rect x="3.0822368421052655" y="2.845526315789476" width="0.23171052631578964" height="0.23171052631578964" fill="#54D2EB" />
<rect x="3.318947368421055" y="2.845526315789476" width="0.23171052631578964" height="0.23171052631578964" fill="#54D2EB" />
<rect x="3.5556578947368447" y="2.845526315789476" width="0.23171052631578964" height="0.23171052631578964" fill="#54D2EB" />
<rect x="3.7923684210526343" y="2.845526315789476" width="0.23171052631578964" height="0.23171052631578964" fill="#54D2EB" />
<rect x="4.029078947368424" y="2.845526315789476" width="0.23171052631578964" height="0.23171052631578964" fill="#54D2EB" />
<rect x="4.2657894736842135" y="2.845526315789476" width="0.23171052631578964" height="0.23171052631578964" fill="#54D2EB" />
<rect x="0.005" y="3.0822368421052655" width="0.23171052631578964" height="0.23171052631578964" fill="#54D2EB" />
<rect x="0.24171052631578965" y="3.0822368421052655" width="0.23171052631578964" height="0.23171052631578964" fill="#54D2EB" />
<rect x="0.4784210526315793" y="3.0822368421052655" width="0.23171052631578964" height="0.23171052631578964" fill="#54D2EB" />
<rect x="0.715131578947369" y="3.0822368421052655" width="0.23171052631578964" height="0.23171052631578964" fill="#54D2EB" />
<rect x="0.9518421052631586" y="3.0822368421052655" width="0.23171052631578964" height="0.23171052631578964" fill="#54D2EB" />
<rect x="1.188552631578948" y="3.0822368421052655" width="0.23171052631578964" height="0.23171052631578964" fill="#54D2EB" />
<rect x="1.425263157894738" y="3.0822368421052655" width="0.23171052631578964" height="0.23171052631578964" fill="#54D2EB" />
<rect x="1.6619736842105275" y="3.0822368421052655" width="0.23171052631578964" height="0.23171052631578964" fill="#54D2EB" />
<rect x="1.898684210526317" y="3.0822368421052655" width="0.23171052631578964" height="0.23171052631578964" fill="#54D2EB" />
<rect x="2.1353947368421067" y="3.0822368421052655" width="0.23171052631578964" height="0.23171052631578964" fill="#54D2EB" />
<rect x="2.3721052631578963" y="3.0822368421052655" width="0.23171052631578964" height="0.23171052631578964" fill="#54D2EB" />
<rect x="2.608815789473686" y="3.0822368421052655" width="0.23171052631578964" height="0.23171052631578964" fill="#54D2EB" />
<rect x="2.845526315789476" y="3.0822368421052655" width="0.23171052631578964" height="0.23171052631578964" fill="#54D2EB" />
<rect x="3.0822368421052655" y="3.0822368421052655" width="0.23171052631578964" height="0.23171052631578964" fill="#54D2EB" />
<rect x="3.318947368421055" y="3.0822368421052655" width="0.23171052631578964" height="0.23171052631578964" fill="#54D2EB" />
<rect x="3.5556578947368447" y="3.0822368421052655" width="0.23171052631578964" height="0.23171052631578964" fill="#54D2EB" />
<rect x="3.7923684210526343" y="3.0822368421052655" width="0.23171052631578964" height="0.23171052631578964" fill="#54D2EB" />
<rect x="4.029078947368424" y="3.0822368421052655" width="0.23171052631578964" height="0.23171052631578964" fill="#54D2EB" />
<rect x="4.2657894736842135" y="3.0822368421052655" width="0.23171052631578964" height="0.23171052631578964" fill="#54D2EB" />
<rect x="0.005" y="3.318947368421055" width="0.23171052631578964" height="0.23171052631578964" fill="#54D2EB" />
<rect x="0.24171052631578965" y="3.318947368421055" width="0.23171052631578964" height="0.23171052631578964" fill="#54D2EB" />
<rect x="0.4784210526315793" y="3.318947368421055" width="0.23171052631578964" height="0.23171052631578964" fill="#54D2EB" />
<rect x="0.715131578947369" y="3.318947368421055" width="0.23171052631578964" height="0.23171052631578964" fill="#54D2EB" />
<rect x="0.9518421052631586" y="3.318947368421055" width="0.23171052631578964" height="0.23171052631578964" fill="#54D2EB" />
<rect x="1.188552631578948" y="3.318947368421055" width="0.23171052631578964" height="0.23171052631578964" fill="#54D2EB" />
<rect x="1.425263157894738" y="3.318947368421055" width="0.23171052631578964" height="0.23171052631578964" fill="#54D2EB" />
<rect x="1.6619736842105275" y="3.318947368421055" width="0.23171052631578964" height="0.23171052631578964" fill="#54D2EB" />
<rect x="1.898684210526317" y="3.318947368421055" width="0.23171052631578964" height="0.23171052631578964" fill="#54D2EB" />
<rect x="2.1353947368421067" y="3.318947368421055" width="0.23171052631578964" height="0.23171052631578964" fill="#54D2EB" />
<rect x="2.3721052631578963" y="3.318947368421055" width="0.23171052631578964" height="0.23171052631578964" fill="#54D2EB" />
<rect x="2.608815789473686" y="3.318947368421055" width="0.23171052631578964" height="0.23171052631578964" fill="#54D2EB" />
<rect x="2.845526315789476" y="3.318947368421055" width="0.23171052631578964" height="0.23171052631578964" fill="#54D2EB" />
<rect x="3.0822368421052655" y="3.318947368421055" width="0.23171052631578964" height="0.23171052631578964" fill="#54D2EB" />
<rect x="3.318947368421055" y="3.318947368421055" width="0.23171052631578964" height="0.23171052631578964" fill="#54D2EB" />
<rect x="3.5556578947368447" y="3.318947368421055" width="0.23171052631578964" height="0.23171052631578964" fill="#54D2EB" />
<rect x="3.7923684210526343" y="3.318947368421055" width="0.23171052631578964" height="0.23171052631578964" fill="#54D2EB" />
<rect x="4.029078947368424" y="3.318947368421055" width="0.23171052631578964" height="0.23171052631578964" fill="#54D2EB" />
<rect x="4.2657894736842135" y="3.318947368421055" width="0.23171052631578964" height="0.23171052631578964" fill="#54D2EB" />
<rect x="0.005" y="3.5556578947368447" width="0.23171052631578964" height="0.23171052631578964" fill="#54D2EB" />
<rect x="0.24171052631578965" y="3.5556578947368447" width="0.23171052631578964" height="0.23171052631578964" fill="#54D2EB" />
<rect x="0.4784210526315793" y="3.5556578947368447" width="0.23171052631578964" height="0.23171052631578964" fill="#54D2EB" />
<rect x="0.715131578947369" y="3.5556578947368447" width="0.23171052631578964" height="0.23171052631578964" fill="#37D449" />
<rect x="0.9518421052631586" y="3.5556578947368447" width="0.23171052631578964" height="0.23171052631578964" fill="#54D2EB" />
<rect x="1.188552631578948" y="3.5556578947368447" width="0.23171052631578964" height="0.23171052631578964" fill="#54D2EB" />
<rect x="1.425263157894738" y="3.5556578947368447" width="0.23171052631578964" height="0.23171052631578964" fill="#54D2EB" />
<rect x="1.6619736842105275" y="3.5556578947368447" width="0.23171052631578964" height="0.23171052631578964" fill="#54D2EB" />
<rect x="1.898684210526317" y="3.5556578947368447" width="0.23171052631578964" height="0.23171052631578964" fill="#54D2EB" />
<rect x="2.1353947368421067" y="3.5556578947368447" width="0.23171052631578964" height="0.23171052631578964" fill="#37D449" />
<rect x="2.3721052631578963" y="3.5556578947368447" width="0.23171052631578964" height="0.23171052631578964" fill="#54D2EB" />
<rect x="2.608815789473686" y="3.5556578947368447" width="0.23171052631578964" height="0.23171052631578964" fill="#54D2EB" />
<rect x="2.845526315789476" y="3.5556578947368447" width="0.23171052631578964" height="0.23171052631578964" fill="#54D2EB" />
<rect x="3.0822368421052655" y="3.5556578947368447" width="0.23171052631578964" height="0.23171052631578964" fill="#54D2EB" />
<rect x="3.318947368421055" y="3.5556578947368447" width="0.23171052631578964" height="0.23171052631578964" fill="#54D2EB" />
<rect x="3.5556578947368447" y="3.5556578947368447" width="0.23171052631578964" height="0.23171052631578964" fill="#54D2EB" />
<rect x="3.7923684210526343" y="3.5556578947368447" width="0.23171052631578964" height="0.23171052631578964" fill="#54D2EB" />
<rect x="4.029078947368424" y="3.5556578947368447" width="0.23171052631578964" height="0.23171052631578964" fill="#54D2EB" />
<rect x="4.2657894736842135" y="3.5556578947368447" width="0.23171052631578964" height="0.23171052631578964" fill="#54D2EB" />
<rect x="0.005" y="3.7923684210526343" width="0.23171052631578964" height="0.23171052631578964" fill="#54D2EB" />
<rect x="0.24171052631578965" y="3.7923684210526343" width="0.23171052631578964" height="0.23171052631578964" fill="#54D2EB" />
<rect x="0.4784210526315793" y="3.7923684210526343" width="0.23171052631578964" height="0.23171052631578964" fill="#54D2EB" />
<rect x="0.715131578947369" y="3.7923684210526343" width="0.23171052631578964" height="0.23171052631578964" fill="#54D2EB" />
<rect x="0.9518421052631586" y="3.7923684210526343" width="0.23171052631578964" height="0.23171052631578964" fill="#54D2EB" />
<rect x="1.188552631578948" y="3.7923684210526343" width="0.23171052631578964" height="0.23171052631578964" fill="#54D2EB" />
<rect x="1.425263157894738" y="3.7923684210526343" width="0.23171052631578964" height="0.23171052631578964" fill="#54D2EB" />
<rect x="1.6619736842105275" y="3.7923684210526343" width="0.23171052631578964" height="0.23171052631578964" fill="#54D2EB" />
<rect x="1.898684210526317" y="3.7923684210526343" width="0.23171052631578964" height="0.23171052631578964" fill="#54D2EB" />
<rect x="2.1353947368421067" y="3.7923684210526343" width="0.23171052631578964" height="0.23171052631578964" fill="#54D2EB" />
<rect x="2.3721052631578963" y="3.7923684210526343" width="0.23171052631578964" height="0.23171052631578964" fill="#54D2EB" />
<rect x="2.608815789473686" y="3.7923684210526343" width="0.23171052631578964" height="0.23171052631578964" fill="#54D2EB" />
<rect x="2.845526315789476" y="3.7923684210526343" width="0.23171052631578964" height="0.23171052631578964" fill="#54D2EB" />
<rect x="3.0822368421052655" y="3.7923684210526343" width="0.23171052631578964" height="0.23171052631578964" fill="#54D2EB" />
<rect x="3.318947368421055" y="3.7923684210526343" width="0.23171052631578964" height="0.23171052631578964" fill="#F012BE" />
<rect x="3.5556578947368447" y="3.7923684210526343" width="0.23171052631578964" height="0.23171052631578964" fill="#54D2EB" />
<rect x="3.7923684210526343" y="3.7923684210526343" width="0.23171052631578964" height="0.23171052631578964" fill="#F012BE" />
<rect x="4.029078947368424" y="3.7923684210526343" width="0.23171052631578964" height="0.23171052631578964" fill="#54D2EB" />
<rect x="4.2657894736842135" y="3.7923684210526343" width="0.23171052631578964" height="0.23171052631578964" fill="#54D2EB" />
<rect x="0.005" y="4.029078947368424" width="0.23171052631578964" height="0.23171052631578964" fill="#54D2EB" />
<rect x="0.24171052631578965" y="4.029078947368424" width="0.23171052631578964" height="0.23171052631578964" fill="#54D2EB" />
<rect x="0.4784210526315793" y="4.029078947368424" width="0.23171052631578964" height="0.23171052631578964" fill="#54D2EB" />
<rect x="0.715131578947369" y="4.029078947368424" width="0.23171052631578964" height="0.23171052631578964" fill="#54D2EB" />
<rect x="0.9518421052631586" y="4.029078947368424" width="0.23171052631578964" height="0.23171052631578964" fill="#54D2EB" />
<rect x="1.188552631578948" y="4.029078947368424" width="0.23171052631578964" height="0.23171052631578964" fill="#54D2EB" />
<rect x="1.425263157894738" y="4.029078947368424" width="0.23171052631578964" height="0.23171052631578964" fill="#54D2EB" />
<rect x="1.6619736842105275" y="4.029078947368424" width="0.23171052631578964" height="0.23171052631578964" fill="#54D2EB" />
<rect x="1.898684210526317" y="4.029078947368424" width="0.23171052631578964" height="0.23171052631578964" fill="#54D2EB" />
<rect x="2.1353947368421067" y="4.029078947368424" width="0.23171052631578964" height="0.23171052631578964" fill="#54D2EB" />
<rect x="2.3721052631578963" y="4.029078947368424" width="0.23171052631578964" height="0.23171052631578964" fill="#54D2EB" />
<rect x="2.608815789473686" y="4.029078947368424" width="0.23171052631578964" height="0.23171052631578964" fill="#54D2EB" />
<rect x="2.845526315789476" y="4.029078947368424" width="0.23171052631578964" height="0.23171052631578964" fill="#54D2EB" />
<rect x="3.0822368421052655" y="4.029078947368424" width="0.23171052631578964" height="0.23171052631578964" fill="#54D2EB" />
<rect x="3.318947368421055" y="4.029078947368424" width="0.23171052631578964" height="0.23171052631578964" fill="#54D2EB" />
<rect x="3.5556578947368447" y="4.029078947368424" width="0.23171052631578964" height="0.23171052631578964" fill="#54D2EB" />
<rect x="3.7923684210526343" y="4.029078947368424" width="0.23171052631578964" height="0.23171052631578964" fill="#54D2EB" />
<rect x="4.029078947368424" y="4.029078947368424" width="0.23171052631578964" height="0.23171052631578964" fill="#54D2EB" />
<rect x="4.2657894736842135" y="4.029078947368424" width="0.23171052631578964" height="0.23171052631578964" fill="#54D2EB" />
<rect x="-0.02666666666666667" y="-0.02666666666666667" width="4.550833333333337" height="4.314122807017547" fill="none" stroke="#111111ff" stroke-width="0.08" />
<text x="4.497500000000003" y="4.729539473684214" font-size="0.375" fill="black" text-anchor="end" font-family="Anuphan">19x18</text>
<text x="-0.037500000000000006" y="4.729539473684214" font-size="0.375" fill="black" text-anchor="start" font-family="Anuphan" font-weight="600">Test 1</text>
</g>
<g id="d4">
<rect x="0.005" y="0.005" width="0.8945000000000006" height="0.8945000000000006" fill="#FF4136" />
<rect x="0.9045000000000006" y="0.005" width="0.8945000000000006" height="0.8945000000000006" fill="#FFDC00" />
<rect x="1.8040000000000012" y="0.005" width="0.8945000000000006" height="0.8945000000000006" fill="#0074D9" />
<rect x="2.703500000000002" y="0.005" width="0.8945000000000006" height="0.8945000000000006" fill="#FFDC00" />
<rect x="3.6030000000000024" y="0.005" width="0.8945000000000006" height="0.8945000000000006" fill="#FF4136" />
<rect x="0.005" y="0.9045000000000006" width="0.8945000000000006" height="0.8945000000000006" fill="#54D2EB" />
<rect x="0.9045000000000006" y="0.9045000000000006" width="0.8945000000000006" height="0.8945000000000006" fill="#37D449" />
<rect x="1.8040000000000012" y="0.9045000000000006" width="0.8945000000000006" height="0.8945000000000006" fill="#37D449" />
<rect x="2.703500000000002" y="0.9045000000000006" width="0.8945000000000006" height="0.8945000000000006" fill="#37D449" />
<rect x="3.6030000000000024" y="0.9045000000000006" width="0.8945000000000006" height="0.8945000000000006" fill="#54D2EB" />
<rect x="0.005" y="1.8040000000000012" width="0.8945000000000006" height="0.8945000000000006" fill="#0074D9" />
<rect x="0.9045000000000006" y="1.8040000000000012" width="0.8945000000000006" height="0.8945000000000006" fill="#37D449" />
<rect x="1.8040000000000012" y="1.8040000000000012" width="0.8945000000000006" height="0.8945000000000006" fill="#37D449" />
<rect x="2.703500000000002" y="1.8040000000000012" width="0.8945000000000006" height="0.8945000000000006" fill="#37D449" />
<rect x="3.6030000000000024" y="1.8040000000000012" width="0.8945000000000006" height="0.8945000000000006" fill="#0074D9" />
<rect x="0.005" y="2.703500000000002" width="0.8945000000000006" height="0.8945000000000006" fill="#54D2EB" />
<rect x="0.9045000000000006" y="2.703500000000002" width="0.8945000000000006" height="0.8945000000000006" fill="#37D449" />
<rect x="1.8040000000000012" y="2.703500000000002" width="0.8945000000000006" height="0.8945000000000006" fill="#37D449" />
<rect x="2.703500000000002" y="2.703500000000002" width="0.8945000000000006" height="0.8945000000000006" fill="#37D449" />
<rect x="3.6030000000000024" y="2.703500000000002" width="0.8945000000000006" height="0.8945000000000006" fill="#54D2EB" />
<rect x="0.005" y="3.6030000000000024" width="0.8945000000000006" height="0.8945000000000006" fill="#FF4136" />
<rect x="0.9045000000000006" y="3.6030000000000024" width="0.8945000000000006" height="0.8945000000000006" fill="#FFDC00" />
<rect x="1.8040000000000012" y="3.6030000000000024" width="0.8945000000000006" height="0.8945000000000006" fill="#0074D9" />
<rect x="2.703500000000002" y="3.6030000000000024" width="0.8945000000000006" height="0.8945000000000006" fill="#FFDC00" />
<rect x="3.6030000000000024" y="3.6030000000000024" width="0.8945000000000006" height="0.8945000000000006" fill="#FF4136" />
<rect x="-0.02666666666666667" y="-0.02666666666666667" width="4.550833333333337" height="4.550833333333337" fill="none" stroke="#111111ff" stroke-width="0.08" />
<text x="4.497500000000003" y="4.966250000000003" font-size="0.375" fill="black" text-anchor="end" font-family="Anuphan">5x5</text>
<text x="-0.037500000000000006" y="4.966250000000003" font-size="0.375" fill="black" text-anchor="start" font-family="Anuphan" font-weight="600">Output 1</text>
</g>
<g id="d5">
<rect x="0.005" y="0.005" width="1.4941666666666678" height="1.4941666666666678" fill="#54D2EB" />
<rect x="1.5041666666666675" y="0.005" width="1.4941666666666678" height="1.4941666666666678" fill="#37D449" />
<rect x="3.003333333333335" y="0.005" width="1.4941666666666678" height="1.4941666666666678" fill="#54D2EB" />
<rect x="0.005" y="1.5041666666666675" width="1.4941666666666678" height="1.4941666666666678" fill="#37D449" />
<rect x="1.5041666666666675" y="1.5041666666666675" width="1.4941666666666678" height="1.4941666666666678" fill="#0074D9" />
<rect x="3.003333333333335" y="1.5041666666666675" width="1.4941666666666678" height="1.4941666666666678" fill="#37D449" />
<rect x="0.005" y="3.003333333333335" width="1.4941666666666678" height="1.4941666666666678" fill="#54D2EB" />
<rect x="1.5041666666666675" y="3.003333333333335" width="1.4941666666666678" height="1.4941666666666678" fill="#37D449" />
<rect x="3.003333333333335" y="3.003333333333335" width="1.4941666666666678" height="1.4941666666666678" fill="#54D2EB" />
<rect x="-0.02666666666666667" y="-0.02666666666666667" width="4.550833333333337" height="4.550833333333337" fill="none" stroke="#111111ff" stroke-width="0.08" />
<text x="4.497500000000003" y="4.966250000000003" font-size="0.375" fill="black" text-anchor="end" font-family="Anuphan">3x3</text>
<text x="-0.037500000000000006" y="4.966250000000003" font-size="0.375" fill="black" text-anchor="start" font-family="Anuphan" font-weight="600">Output 2</text>
</g>
<g id="d6">
<rect x="0.005" y="0.005" width="0.8945000000000006" height="0.8945000000000006" fill="#0074D9" />
<rect x="0.9045000000000006" y="0.005" width="0.8945000000000006" height="0.8945000000000006" fill="#FFDC00" />
<rect x="1.8040000000000012" y="0.005" width="0.8945000000000006" height="0.8945000000000006" fill="#FF871E" />
<rect x="2.703500000000002" y="0.005" width="0.8945000000000006" height="0.8945000000000006" fill="#FFDC00" />
<rect x="3.6030000000000024" y="0.005" width="0.8945000000000006" height="0.8945000000000006" fill="#0074D9" />
<rect x="0.005" y="0.9045000000000006" width="0.8945000000000006" height="0.8945000000000006" fill="#FFDC00" />
<rect x="0.9045000000000006" y="0.9045000000000006" width="0.8945000000000006" height="0.8945000000000006" fill="#FFDC00" />
<rect x="1.8040000000000012" y="0.9045000000000006" width="0.8945000000000006" height="0.8945000000000006" fill="#FFDC00" />
<rect x="2.703500000000002" y="0.9045000000000006" width="0.8945000000000006" height="0.8945000000000006" fill="#FFDC00" />
<rect x="3.6030000000000024" y="0.9045000000000006" width="0.8945000000000006" height="0.8945000000000006" fill="#FFDC00" />
<rect x="0.005" y="1.8040000000000012" width="0.8945000000000006" height="0.8945000000000006" fill="#FF871E" />
<rect x="0.9045000000000006" y="1.8040000000000012" width="0.8945000000000006" height="0.8945000000000006" fill="#FFDC00" />
<rect x="1.8040000000000012" y="1.8040000000000012" width="0.8945000000000006" height="0.8945000000000006" fill="#FFDC00" />
<rect x="2.703500000000002" y="1.8040000000000012" width="0.8945000000000006" height="0.8945000000000006" fill="#FFDC00" />
<rect x="3.6030000000000024" y="1.8040000000000012" width="0.8945000000000006" height="0.8945000000000006" fill="#FF871E" />
<rect x="0.005" y="2.703500000000002" width="0.8945000000000006" height="0.8945000000000006" fill="#FFDC00" />
<rect x="0.9045000000000006" y="2.703500000000002" width="0.8945000000000006" height="0.8945000000000006" fill="#FFDC00" />
<rect x="1.8040000000000012" y="2.703500000000002" width="0.8945000000000006" height="0.8945000000000006" fill="#FFDC00" />
<rect x="2.703500000000002" y="2.703500000000002" width="0.8945000000000006" height="0.8945000000000006" fill="#FFDC00" />
<rect x="3.6030000000000024" y="2.703500000000002" width="0.8945000000000006" height="0.8945000000000006" fill="#FFDC00" />
<rect x="0.005" y="3.6030000000000024" width="0.8945000000000006" height="0.8945000000000006" fill="#0074D9" />
<rect x="0.9045000000000006" y="3.6030000000000024" width="0.8945000000000006" height="0.8945000000000006" fill="#FFDC00" />
<rect x="1.8040000000000012" y="3.6030000000000024" width="0.8945000000000006" height="0.8945000000000006" fill="#FF871E" />
<rect x="2.703500000000002" y="3.6030000000000024" width="0.8945000000000006" height="0.8945000000000006" fill="#FFDC00" />
<rect x="3.6030000000000024" y="3.6030000000000024" width="0.8945000000000006" height="0.8945000000000006" fill="#0074D9" />
<rect x="-0.02666666666666667" y="-0.02666666666666667" width="4.550833333333337" height="4.550833333333337" fill="none" stroke="#111111ff" stroke-width="0.08" />
<text x="4.497500000000003" y="4.966250000000003" font-size="0.375" fill="black" text-anchor="end" font-family="Anuphan">5x5</text>
<text x="-0.037500000000000006" y="4.966250000000003" font-size="0.375" fill="black" text-anchor="start" font-family="Anuphan" font-weight="600">Output 3</text>
</g>
</defs>
<rect x="0" y="0" width="100%" height="100%" fill="#eeeff6" />
<use xlink:href="#d0" x="0.25" y="0.25" />
<use xlink:href="#d1" x="5.326250000000005" y="0.25" />
<use xlink:href="#d2" x="10.245000000000006" y="0.25" />
<use xlink:href="#d3" x="15.24250000000001" y="0.25" />
<path d="M2.4987500000000016,6.325 L2.4987500000000016,6.7250000000000005" stroke-width="0.05" stroke="#888888" />
<path d="M2.3487500000000017,6.525 L2.4987500000000016,6.7250000000000005" stroke-width="0.05" stroke="#888888" />
<path d="M2.6487500000000015,6.525 L2.4987500000000016,6.7250000000000005" stroke-width="0.05" stroke="#888888" />
<use xlink:href="#d4" x="0.25" y="7.075" />
<path d="M7.417500000000003,6.325 L7.417500000000003,6.7250000000000005" stroke-width="0.05" stroke="#888888" />
<path d="M7.267500000000003,6.525 L7.417500000000003,6.7250000000000005" stroke-width="0.05" stroke="#888888" />
<path d="M7.5675000000000034,6.525 L7.417500000000003,6.7250000000000005" stroke-width="0.05" stroke="#888888" />
<use xlink:href="#d5" x="5.247500000000003" y="7.075" />
<path d="M12.493750000000007,6.325 L12.493750000000007,6.7250000000000005" stroke-width="0.05" stroke="#888888" />
<path d="M12.343750000000007,6.525 L12.493750000000007,6.7250000000000005" stroke-width="0.05" stroke="#888888" />
<path d="M12.643750000000008,6.525 L12.493750000000007,6.7250000000000005" stroke-width="0.05" stroke="#888888" />
<use xlink:href="#d6" x="10.245000000000006" y="7.075" />
<path d="M17.49125000000001,6.325 L17.49125000000001,6.7250000000000005" stroke-width="0.05" stroke="#888888" />
<path d="M17.341250000000013,6.525 L17.49125000000001,6.7250000000000005" stroke-width="0.05" stroke="#888888" />
<path d="M17.64125000000001,6.525 L17.49125000000001,6.7250000000000005" stroke-width="0.05" stroke="#888888" />
<text x="17.49125000000001" y="9.423750000000002" font-size="1" font-family="Anuphan" font-weight="700" fill="#333333" text-anchor="middle" alignment-baseline="middle">?</text>
<text x="19.9" y="12.4" font-size="0.3" font-family="Anuphan" font-weight="600" fill="#666666" text-anchor="end" alignment-baseline="bottom">Task c8cbb738</text>
</svg>