<?xml version="1.0" encoding="UTF-8"?>
<svg xmlns="http://www.w3.org/2000/svg" xmlns:xlink="http://www.w3.org/1999/xlink"
     width="800.0" height="160.0" viewBox="0 0 20.0 4.0">
<defs>
<g id="d0">
<rect x="0.005" y="0.005" width="0.11159999999999454" height="0.11159999999999454" fill="#E6E6E6" />
<rect x="0.12159999999999455" y="0.005" width="0.11159999999999454" height="0.11159999999999454" fill="#0074D9" />
<rect x="0.2381999999999891" y="0.005" width="0.11159999999999454" height="0.11159999999999454" fill="#0074D9" />
<rect x="0.35479999999998363" y="0.005" width="0.11159999999999454" height="0.11159999999999454" fill="#0074D9" />
<rect x="0.47139999999997817" y="0.005" width="0.11159999999999454" height="0.11159999999999454" fill="#0074D9" />
<rect x="0.5879999999999727" y="0.005" width="0.11159999999999454" height="0.11159999999999454" fill="#0074D9" />
<rect x="0.7045999999999673" y="0.005" width="0.11159999999999454" height="0.11159999999999454" fill="#E6E6E6" />
<rect x="0.8211999999999618" y="0.005" width="0.11159999999999454" height="0.11159999999999454" fill="#252525" />
<rect x="0.9377999999999563" y="0.005" width="0.11159999999999454" height="0.11159999999999454" fill="#252525" />
<rect x="1.0543999999999507" y="0.005" width="0.11159999999999454" height="0.11159999999999454" fill="#252525" />
<rect x="1.1709999999999452" y="0.005" width="0.11159999999999454" height="0.11159999999999454" fill="#252525" />
<rect x="1.28759999999994" y="0.005" width="0.11159999999999454" height="0.11159999999999454" fill="#252525" />
<rect x="1.4041999999999344" y="0.005" width="0.11159999999999454" height="0.11159999999999454" fill="#252525" />
<rect x="1.5207999999999289" y="0.005" width="0.11159999999999454" height="0.11159999999999454" fill="#252525" />
<rect x="1.6373999999999236" y="0.005" width="0.11159999999999454" height="0.11159999999999454" fill="#252525" />
<rect x="1.753999999999918" y="0.005" width="0.11159999999999454" height="0.11159999999999454" fill="#252525" />
<rect x="1.8705999999999126" y="0.005" width="0.11159999999999454" height="0.11159999999999454" fill="#252525" />
<rect x="1.987199999999907" y="0.005" width="0.11159999999999454" height="0.11159999999999454" fill="#0074D9" />
<rect x="2.1037999999999015" y="0.005" width="0.11159999999999454" height="0.11159999999999454" fill="#0074D9" />
<rect x="2.2203999999998962" y="0.005" width="0.11159999999999454" height="0.11159999999999454" fill="#252525" />
<rect x="2.3369999999998905" y="0.005" width="0.11159999999999454" height="0.11159999999999454" fill="#0074D9" />
<rect x="2.453599999999885" y="0.005" width="0.11159999999999454" height="0.11159999999999454" fill="#252525" />
<rect x="2.57019999999988" y="0.005" width="0.11159999999999454" height="0.11159999999999454" fill="#252525" />
<rect x="2.686799999999874" y="0.005" width="0.11159999999999454" height="0.11159999999999454" fill="#0074D9" />
<rect x="2.803399999999869" y="0.005" width="0.11159999999999454" height="0.11159999999999454" fill="#252525" />
<rect x="2.9199999999998636" y="0.005" width="0.11159999999999454" height="0.11159999999999454" fill="#252525" />
<rect x="3.036599999999858" y="0.005" width="0.11159999999999454" height="0.11159999999999454" fill="#252525" />
<rect x="3.1531999999998526" y="0.005" width="0.11159999999999454" height="0.11159999999999454" fill="#252525" />
<rect x="3.2697999999998473" y="0.005" width="0.11159999999999454" height="0.11159999999999454" fill="#0074D9" />
<rect x="3.3863999999998415" y="0.005" width="0.11159999999999454" height="0.11159999999999454" fill="#252525" />
<rect x="0.005" y="0.12159999999999455" width="0.11159999999999454" height="0.11159999999999454" fill="#252525" />
<rect x="0.12159999999999455" y="0.12159999999999455" width="0.11159999999999454" height="0.11159999999999454" fill="#0074D9" />
<rect x="0.2381999999999891" y="0.12159999999999455" width="0.11159999999999454" height="0.11159999999999454" fill="#252525" />
<rect x="0.35479999999998363" y="0.12159999999999455" width="0.11159999999999454" height="0.11159999999999454" fill="#0074D9" />
<rect x="0.47139999999997817" y="0.12159999999999455" width="0.11159999999999454" height="0.11159999999999454" fill="#252525" />
<rect x="0.5879999999999727" y="0.12159999999999455" width="0.11159999999999454" height="0.11159999999999454" fill="#252525" />
<rect x="0.7045999999999673" y="0.12159999999999455" width="0.11159999999999454" height="0.11159999999999454" fill="#252525" />
<rect x="0.8211999999999618" y="0.12159999999999455" width="0.11159999999999454" height="0.11159999999999454" fill="#0074D9" />
<rect x="0.9377999999999563" y="0.12159999999999455" width="0.11159999999999454" height="0.11159999999999454" fill="#0074D9" />
<rect x="1.0543999999999507" y="0.12159999999999455" width="0.11159999999999454" height="0.11159999999999454" fill="#0074D9" />
<rect x="1.1709999999999452" y="0.12159999999999455" width="0.11159999999999454" height="0.11159999999999454" fill="#0074D9" />
<rect x="1.28759999999994" y="0.12159999999999455" width="0.11159999999999454" height="0.11159999999999454" fill="#252525" />
<rect x="1.4041999999999344" y="0.12159999999999455" width="0.11159999999999454" height="0.11159999999999454" fill="#0074D9" />
<rect x="1.5207999999999289" y="0.12159999999999455" width="0.11159999999999454" height="0.11159999999999454" fill="#0074D9" />
<rect x="1.6373999999999236" y="0.12159999999999455" width="0.11159999999999454" height="0.11159999999999454" fill="#0074D9" />
<rect x="1.753999999999918" y="0.12159999999999455" width="0.11159999999999454" height="0.11159999999999454" fill="#252525" />
<rect x="1.8705999999999126" y="0.12159999999999455" width="0.11159999999999454" height="0.11159999999999454" fill="#252525" />
<rect x="1.987199999999907" y="0.12159999999999455" width="0.11159999999999454" height="0.11159999999999454" fill="#252525" />
<rect x="2.1037999999999015" y="0.12159999999999455" width="0.11159999999999454" height="0.11159999999999454" fill="#252525" />
<rect x="2.2203999999998962" y="0.12159999999999455" width="0.11159999999999454" height="0.11159999999999454" fill="#0074D9" />
<rect x="2.3369999999998905" y="0.12159999999999455" width="0.11159999999999454" height="0.11159999999999454" fill="#0074D9" />
<rect x="2.453599999999885" y="0.12159999999999455" width="0.11159999999999454" height="0.11159999999999454" fill="#0074D9" />
<rect x="2.57019999999988" y="0.12159999999999455" width="0.11159999999999454" height="0.11159999999999454" fill="#252525" />
<rect x="2.686799999999874" y="0.12159999999999455" width="0.11159999999999454" height="0.11159999999999454" fill="#0074D9" />
<rect x="2.803399999999869" y="0.12159999999999455" width="0.11159999999999454" height="0.11159999999999454" fill="#252525" />
<rect x="2.9199999999998636" y="0.12159999999999455" width="0.11159999999999454" height="0.11159999999999454" fill="#0074D9" />
<rect x="3.036599999999858" y="0.12159999999999455" width="0.11159999999999454" height="0.11159999999999454" fill="#0074D9" />
<rect x="3.1531999999998526" y="0.12159999999999455" width="0.11159999999999454" height="0.11159999999999454" fill="#0074D9" />
<rect x="3.2697999999998473" y="0.12159999999999455" width="0.11159999999999454" height="0.11159999999999454" fill="#0074D9" />
<rect x="3.3863999999998415" y="0.12159999999999455" width="0.11159999999999454" height="0.11159999999999454" fill="#0074D9" />
<rect x="0.005" y="0.2381999999999891" width="0.11159999999999454" height="0.11159999999999454" fill="#0074D9" />
<rect x="0.12159999999999455" y="0.2381999999999891" width="0.11159999999999454" height="0.11159999999999454" fill="#0074D9" />
<rect x="0.2381999999999891" y="0.2381999999999891" width="0.11159999999999454" height="0.11159999999999454" fill="#252525" />
<rect x="0.35479999999998363" y="0.2381999999999891" width="0.11159999999999454" height="0.11159999999999454" fill="#252525" />
<rect x="0.47139999999997817" y="0.2381999999999891" width="0.11159999999999454" height="0.11159999999999454" fill="#252525" />
<rect x="0.5879999999999727" y="0.2381999999999891" width="0.11159999999999454" height="0.11159999999999454" fill="#0074D9" />
<rect x="0.7045999999999673" y="0.2381999999999891" width="0.11159999999999454" height="0.11159999999999454" fill="#252525" />
<rect x="0.8211999999999618" y="0.2381999999999891" width="0.11159999999999454" height="0.11159999999999454" fill="#0074D9" />
<rect x="0.9377999999999563" y="0.2381999999999891" width="0.11159999999999454" height="0.11159999999999454" fill="#252525" />
<rect x="1.0543999999999507" y="0.2381999999999891" width="0.11159999999999454" height="0.11159999999999454" fill="#0074D9" />
<rect x="1.1709999999999452" y="0.2381999999999891" width="0.11159999999999454" height="0.11159999999999454" fill="#0074D9" />
<rect x="1.28759999999994" y="0.2381999999999891" width="0.11159999999999454" height="0.11159999999999454" fill="#0074D9" />
<rect x="1.4041999999999344" y="0.2381999999999891" width="0.11159999999999454" height="0.11159999999999454" fill="#252525" />
<rect x="1.5207999999999289" y="0.2381999999999891" width="0.11159999999999454" height="0.11159999999999454" fill="#0074D9" />
<rect x="1.6373999999999236" y="0.2381999999999891" width="0.11159999999999454" height="0.11159999999999454" fill="#0074D9" />
<rect x="1.753999999999918" y="0.2381999999999891" width="0.11159999999999454" height="0.11159999999999454" fill="#252525" />
<rect x="1.8705999999999126" y="0.2381999999999891" width="0.11159999999999454" height="0.11159999999999454" fill="#252525" />
<rect x="1.987199999999907" y="0.2381999999999891" width="0.11159999999999454" height="0.11159999999999454" fill="#252525" />
<rect x="2.1037999999999015" y="0.2381999999999891" width="0.11159999999999454" height="0.11159999999999454" fill="#252525" />
<rect x="2.2203999999998962" y="0.2381999999999891" width="0.11159999999999454" height="0.11159999999999454" fill="#0074D9" />
<rect x="2.3369999999998905" y="0.2381999999999891" width="0.11159999999999454" height="0.11159999999999454" fill="#252525" />
<rect x="2.453599999999885" y="0.2381999999999891" width="0.11159999999999454" height="0.11159999999999454" fill="#252525" />
<rect x="2.57019999999988" y="0.2381999999999891" width="0.11159999999999454" height="0.11159999999999454" fill="#0074D9" />
<rect x="2.686799999999874" y="0.2381999999999891" width="0.11159999999999454" height="0.11159999999999454" fill="#0074D9" />
<rect x="2.803399999999869" y="0.2381999999999891" width="0.11159999999999454" height="0.11159999999999454" fill="#252525" />
<rect x="2.9199999999998636" y="0.2381999999999891" width="0.11159999999999454" height="0.11159999999999454" fill="#252525" />
<rect x="3.036599999999858" y="0.2381999999999891" width="0.11159999999999454" height="0.11159999999999454" fill="#0074D9" />
<rect x="3.1531999999998526" y="0.2381999999999891" width="0.11159999999999454" height="0.11159999999999454" fill="#252525" />
<rect x="3.2697999999998473" y="0.2381999999999891" width="0.11159999999999454" height="0.11159999999999454" fill="#252525" />
<rect x="3.3863999999998415" y="0.2381999999999891" width="0.11159999999999454" height="0.11159999999999454" fill="#252525" />
<rect x="-0.02666666666666667" y="-0.02666666666666667" width="3.5513333333331696" height="0.40313333333331697" fill="none" stroke="#111111ff" stroke-width="0.08" />
<text x="3.4979999999998364" y="0.8185499999999837" font-size="0.375" fill="black" text-anchor="end" font-family="Anuphan">30x3</text>
<text x="-0.037500000000000006" y="0.8185499999999837" font-size="0.375" fill="black" text-anchor="start" font-family="Anuphan" font-weight="600">Input 1</text>
</g>
<g id="d1">
<rect x="0.005" y="0.005" width="0.1698999999999918" height="0.1698999999999918" fill="#0074D9" />
<rect x="0.17989999999999182" y="0.005" width="0.1698999999999918" height="0.1698999999999918" fill="#0074D9" />
<rect x="0.35479999999998363" y="0.005" width="0.1698999999999918" height="0.1698999999999918" fill="#0074D9" />
<rect x="0.5296999999999754" y="0.005" width="0.1698999999999918" height="0.1698999999999918" fill="#252525" />
<rect x="0.7045999999999673" y="0.005" width="0.1698999999999918" height="0.1698999999999918" fill="#252525" />
<rect x="0.8794999999999591" y="0.005" width="0.1698999999999918" height="0.1698999999999918" fill="#0074D9" />
<rect x="1.0543999999999507" y="0.005" width="0.1698999999999918" height="0.1698999999999918" fill="#0074D9" />
<rect x="1.2292999999999425" y="0.005" width="0.1698999999999918" height="0.1698999999999918" fill="#252525" />
<rect x="1.4041999999999344" y="0.005" width="0.1698999999999918" height="0.1698999999999918" fill="#0074D9" />
<rect x="1.5790999999999262" y="0.005" width="0.1698999999999918" height="0.1698999999999918" fill="#0074D9" />
<rect x="1.753999999999918" y="0.005" width="0.1698999999999918" height="0.1698999999999918" fill="#0074D9" />
<rect x="1.92889999999991" y="0.005" width="0.1698999999999918" height="0.1698999999999918" fill="#0074D9" />
<rect x="2.1037999999999015" y="0.005" width="0.1698999999999918" height="0.1698999999999918" fill="#252525" />
<rect x="2.2786999999998936" y="0.005" width="0.1698999999999918" height="0.1698999999999918" fill="#252525" />
<rect x="2.453599999999885" y="0.005" width="0.1698999999999918" height="0.1698999999999918" fill="#252525" />
<rect x="2.6284999999998773" y="0.005" width="0.1698999999999918" height="0.1698999999999918" fill="#252525" />
<rect x="2.803399999999869" y="0.005" width="0.1698999999999918" height="0.1698999999999918" fill="#252525" />
<rect x="2.9782999999998605" y="0.005" width="0.1698999999999918" height="0.1698999999999918" fill="#0074D9" />
<rect x="3.1531999999998526" y="0.005" width="0.1698999999999918" height="0.1698999999999918" fill="#252525" />
<rect x="3.328099999999844" y="0.005" width="0.1698999999999918" height="0.1698999999999918" fill="#0074D9" />
<rect x="0.005" y="0.17989999999999182" width="0.1698999999999918" height="0.1698999999999918" fill="#0074D9" />
<rect x="0.17989999999999182" y="0.17989999999999182" width="0.1698999999999918" height="0.1698999999999918" fill="#0074D9" />
<rect x="0.35479999999998363" y="0.17989999999999182" width="0.1698999999999918" height="0.1698999999999918" fill="#0074D9" />
<rect x="0.5296999999999754" y="0.17989999999999182" width="0.1698999999999918" height="0.1698999999999918" fill="#252525" />
<rect x="0.7045999999999673" y="0.17989999999999182" width="0.1698999999999918" height="0.1698999999999918" fill="#0074D9" />
<rect x="0.8794999999999591" y="0.17989999999999182" width="0.1698999999999918" height="0.1698999999999918" fill="#0074D9" />
<rect x="1.0543999999999507" y="0.17989999999999182" width="0.1698999999999918" height="0.1698999999999918" fill="#252525" />
<rect x="1.2292999999999425" y="0.17989999999999182" width="0.1698999999999918" height="0.1698999999999918" fill="#252525" />
<rect x="1.4041999999999344" y="0.17989999999999182" width="0.1698999999999918" height="0.1698999999999918" fill="#0074D9" />
<rect x="1.5790999999999262" y="0.17989999999999182" width="0.1698999999999918" height="0.1698999999999918" fill="#252525" />
<rect x="1.753999999999918" y="0.17989999999999182" width="0.1698999999999918" height="0.1698999999999918" fill="#0074D9" />
<rect x="1.92889999999991" y="0.17989999999999182" width="0.1698999999999918" height="0.1698999999999918" fill="#252525" />
<rect x="2.1037999999999015" y="0.17989999999999182" width="0.1698999999999918" height="0.1698999999999918" fill="#0074D9" />
<rect x="2.2786999999998936" y="0.17989999999999182" width="0.1698999999999918" height="0.1698999999999918" fill="#0074D9" />
<rect x="2.453599999999885" y="0.17989999999999182" width="0.1698999999999918" height="0.1698999999999918" fill="#252525" />
<rect x="2.6284999999998773" y="0.17989999999999182" width="0.1698999999999918" height="0.1698999999999918" fill="#252525" />
<rect x="2.803399999999869" y="0.17989999999999182" width="0.1698999999999918" height="0.1698999999999918" fill="#252525" />
<rect x="2.9782999999998605" y="0.17989999999999182" width="0.1698999999999918" height="0.1698999999999918" fill="#0074D9" />
<rect x="3.1531999999998526" y="0.17989999999999182" width="0.1698999999999918" height="0.1698999999999918" fill="#0074D9" />
<rect x="3.328099999999844" y="0.17989999999999182" width="0.1698999999999918" height="0.1698999999999918" fill="#0074D9" />
<rect x="0.005" y="0.35479999999998363" width="0.1698999999999918" height="0.1698999999999918" fill="#252525" />
<rect x="0.17989999999999182" y="0.35479999999998363" width="0.1698999999999918" height="0.1698999999999918" fill="#252525" />
<rect x="0.35479999999998363" y="0.35479999999998363" width="0.1698999999999918" height="0.1698999999999918" fill="#0074D9" />
<rect x="0.5296999999999754" y="0.35479999999998363" width="0.1698999999999918" height="0.1698999999999918" fill="#0074D9" />
<rect x="0.7045999999999673" y="0.35479999999998363" width="0.1698999999999918" height="0.1698999999999918" fill="#0074D9" />
<rect x="0.8794999999999591" y="0.35479999999998363" width="0.1698999999999918" height="0.1698999999999918" fill="#252525" />
<rect x="1.0543999999999507" y="0.35479999999998363" width="0.1698999999999918" height="0.1698999999999918" fill="#252525" />
<rect x="1.2292999999999425" y="0.35479999999998363" width="0.1698999999999918" height="0.1698999999999918" fill="#0074D9" />
<rect x="1.4041999999999344" y="0.35479999999998363" width="0.1698999999999918" height="0.1698999999999918" fill="#252525" />
<rect x="1.5790999999999262" y="0.35479999999998363" width="0.1698999999999918" height="0.1698999999999918" fill="#0074D9" />
<rect x="1.753999999999918" y="0.35479999999998363" width="0.1698999999999918" height="0.1698999999999918" fill="#252525" />
<rect x="1.92889999999991" y="0.35479999999998363" width="0.1698999999999918" height="0.1698999999999918" fill="#0074D9" />
<rect x="2.1037999999999015" y="0.35479999999998363" width="0.1698999999999918" height="0.1698999999999918" fill="#0074D9" />
<rect x="2.2786999999998936" y="0.35479999999998363" width="0.1698999999999918" height="0.1698999999999918" fill="#252525" />
<rect x="2.453599999999885" y="0.35479999999998363" width="0.1698999999999918" height="0.1698999999999918" fill="#0074D9" />
<rect x="2.6284999999998773" y="0.35479999999998363" width="0.1698999999999918" height="0.1698999999999918" fill="#252525" />
<rect x="2.803399999999869" y="0.35479999999998363" width="0.1698999999999918" height="0.1698999999999918" fill="#0074D9" />
<rect x="2.9782999999998605" y="0.35479999999998363" width="0.1698999999999918" height="0.1698999999999918" fill="#0074D9" />
<rect x="3.1531999999998526" y="0.35479999999998363" width="0.1698999999999918" height="0.1698999999999918" fill="#0074D9" />
<rect x="3.328099999999844" y="0.35479999999998363" width="0.1698999999999918" height="0.1698999999999918" fill="#252525" />
<rect x="0.005" y="0.5296999999999754" width="0.1698999999999918" height="0.1698999999999918" fill="#252525" />
<rect x="0.17989999999999182" y="0.5296999999999754" width="0.1698999999999918" height="0.1698999999999918" fill="#0074D9" />
<rect x="0.35479999999998363" y="0.5296999999999754" width="0.1698999999999918" height="0.1698999999999918" fill="#252525" />
<rect x="0.5296999999999754" y="0.5296999999999754" width="0.1698999999999918" height="0.1698999999999918" fill="#0074D9" />
<rect x="0.7045999999999673" y="0.5296999999999754" width="0.1698999999999918" height="0.1698999999999918" fill="#252525" />
<rect x="0.8794999999999591" y="0.5296999999999754" width="0.1698999999999918" height="0.1698999999999918" fill="#252525" />
<rect x="1.0543999999999507" y="0.5296999999999754" width="0.1698999999999918" height="0.1698999999999918" fill="#252525" />
<rect x="1.2292999999999425" y="0.5296999999999754" width="0.1698999999999918" height="0.1698999999999918" fill="#0074D9" />
<rect x="1.4041999999999344" y="0.5296999999999754" width="0.1698999999999918" height="0.1698999999999918" fill="#0074D9" />
<rect x="1.5790999999999262" y="0.5296999999999754" width="0.1698999999999918" height="0.1698999999999918" fill="#252525" />
<rect x="1.753999999999918" y="0.5296999999999754" width="0.1698999999999918" height="0.1698999999999918" fill="#0074D9" />
<rect x="1.92889999999991" y="0.5296999999999754" width="0.1698999999999918" height="0.1698999999999918" fill="#0074D9" />
<rect x="2.1037999999999015" y="0.5296999999999754" width="0.1698999999999918" height="0.1698999999999918" fill="#0074D9" />
<rect x="2.2786999999998936" y="0.5296999999999754" width="0.1698999999999918" height="0.1698999999999918" fill="#252525" />
<rect x="2.453599999999885" y="0.5296999999999754" width="0.1698999999999918" height="0.1698999999999918" fill="#252525" />
<rect x="2.6284999999998773" y="0.5296999999999754" width="0.1698999999999918" height="0.1698999999999918" fill="#252525" />
<rect x="2.803399999999869" y="0.5296999999999754" width="0.1698999999999918" height="0.1698999999999918" fill="#0074D9" />
<rect x="2.9782999999998605" y="0.5296999999999754" width="0.1698999999999918" height="0.1698999999999918" fill="#0074D9" />
<rect x="3.1531999999998526" y="0.5296999999999754" width="0.1698999999999918" height="0.1698999999999918" fill="#0074D9" />
<rect x="3.328099999999844" y="0.5296999999999754" width="0.1698999999999918" height="0.1698999999999918" fill="#0074D9" />
<rect x="-0.02666666666666667" y="-0.02666666666666667" width="3.5513333333331696" height="0.7529333333333006" fill="none" stroke="#111111ff" stroke-width="0.08" />
<text x="3.4979999999998364" y="1.1683499999999674" font-size="0.375" fill="black" text-anchor="end" font-family="Anuphan">20x4</text>
<text x="-0.037500000000000006" y="1.1683499999999674" font-size="0.375" fill="black" text-anchor="start" font-family="Anuphan" font-weight="600">Input 2</text>
</g>
<g id="d2">
<rect x="0.005" y="0.005" width="0.1698999999999918" height="0.1698999999999918" fill="#0074D9" />
<rect x="0.17989999999999182" y="0.005" width="0.1698999999999918" height="0.1698999999999918" fill="#0074D9" />
<rect x="0.35479999999998363" y="0.005" width="0.1698999999999918" height="0.1698999999999918" fill="#252525" />
<rect x="0.5296999999999754" y="0.005" width="0.1698999999999918" height="0.1698999999999918" fill="#252525" />
<rect x="0.7045999999999673" y="0.005" width="0.1698999999999918" height="0.1698999999999918" fill="#252525" />
<rect x="0.8794999999999591" y="0.005" width="0.1698999999999918" height="0.1698999999999918" fill="#252525" />
<rect x="1.0543999999999507" y="0.005" width="0.1698999999999918" height="0.1698999999999918" fill="#252525" />
<rect x="1.2292999999999425" y="0.005" width="0.1698999999999918" height="0.1698999999999918" fill="#252525" />
<rect x="1.4041999999999344" y="0.005" width="0.1698999999999918" height="0.1698999999999918" fill="#252525" />
<rect x="1.5790999999999262" y="0.005" width="0.1698999999999918" height="0.1698999999999918" fill="#0074D9" />
<rect x="1.753999999999918" y="0.005" width="0.1698999999999918" height="0.1698999999999918" fill="#252525" />
<rect x="1.92889999999991" y="0.005" width="0.1698999999999918" height="0.1698999999999918" fill="#252525" />
<rect x="2.1037999999999015" y="0.005" width="0.1698999999999918" height="0.1698999999999918" fill="#0074D9" />
<rect x="2.2786999999998936" y="0.005" width="0.1698999999999918" height="0.1698999999999918" fill="#252525" />
<rect x="2.453599999999885" y="0.005" width="0.1698999999999918" height="0.1698999999999918" fill="#252525" />
<rect x="2.6284999999998773" y="0.005" width="0.1698999999999918" height="0.1698999999999918" fill="#0074D9" />
<rect x="2.803399999999869" y="0.005" width="0.1698999999999918" height="0.1698999999999918" fill="#252525" />
<rect x="2.9782999999998605" y="0.005" width="0.1698999999999918" height="0.1698999999999918" fill="#0074D9" />
<rect x="3.1531999999998526" y="0.005" width="0.1698999999999918" height="0.1698999999999918" fill="#252525" />
<rect x="3.328099999999844" y="0.005" width="0.1698999999999918" height="0.1698999999999918" fill="#0074D9" />
<rect x="0.005" y="0.17989999999999182" width="0.1698999999999918" height="0.1698999999999918" fill="#252525" />
<rect x="0.17989999999999182" y="0.17989999999999182" width="0.1698999999999918" height="0.1698999999999918" fill="#0074D9" />
<rect x="0.35479999999998363" y="0.17989999999999182" width="0.1698999999999918" height="0.1698999999999918" fill="#252525" />
<rect x="0.5296999999999754" y="0.17989999999999182" width="0.1698999999999918" height="0.1698999999999918" fill="#252525" />
<rect x="0.7045999999999673" y="0.17989999999999182" width="0.1698999999999918" height="0.1698999999999918" fill="#252525" />
<rect x="0.8794999999999591" y="0.17989999999999182" width="0.1698999999999918" height="0.1698999999999918" fill="#252525" />
<rect x="1.0543999999999507" y="0.17989999999999182" width="0.1698999999999918" height="0.1698999999999918" fill="#252525" />
<rect x="1.2292999999999425" y="0.17989999999999182" width="0.1698999999999918" height="0.1698999999999918" fill="#0074D9" />
<rect x="1.4041999999999344" y="0.17989999999999182" width="0.1698999999999918" height="0.1698999999999918" fill="#0074D9" />
<rect x="1.5790999999999262" y="0.17989999999999182" width="0.1698999999999918" height="0.1698999999999918" fill="#0074D9" />
<rect x="1.753999999999918" y="0.17989999999999182" width="0.1698999999999918" height="0.1698999999999918" fill="#0074D9" />
<rect x="1.92889999999991" y="0.17989999999999182" width="0.1698999999999918" height="0.1698999999999918" fill="#252525" />
<rect x="2.1037999999999015" y="0.17989999999999182" width="0.1698999999999918" height="0.1698999999999918" fill="#252525" />
<rect x="2.2786999999998936" y="0.17989999999999182" width="0.1698999999999918" height="0.1698999999999918" fill="#0074D9" />
<rect x="2.453599999999885" y="0.17989999999999182" width="0.1698999999999918" height="0.1698999999999918" fill="#0074D9" />
<rect x="2.6284999999998773" y="0.17989999999999182" width="0.1698999999999918" height="0.1698999999999918" fill="#252525" />
<rect x="2.803399999999869" y="0.17989999999999182" width="0.1698999999999918" height="0.1698999999999918" fill="#252525" />
<rect x="2.9782999999998605" y="0.17989999999999182" width="0.1698999999999918" height="0.1698999999999918" fill="#252525" />
<rect x="3.1531999999998526" y="0.17989999999999182" width="0.1698999999999918" height="0.1698999999999918" fill="#252525" />
<rect x="3.328099999999844" y="0.17989999999999182" width="0.1698999999999918" height="0.1698999999999918" fill="#252525" />
<rect x="-0.02666666666666667" y="-0.02666666666666667" width="3.5513333333331696" height="0.40313333333331697" fill="none" stroke="#111111ff" stroke-width="0.08" />
<text x="3.4979999999998364" y="0.8185499999999837" font-size="0.375" fill="black" text-anchor="end" font-family="Anuphan">20x2</text>
<text x="-0.037500000000000006" y="0.8185499999999837" font-size="0.375" fill="black" text-anchor="start" font-family="Anuphan" font-weight="600">Input 3</text>
</g>
<g id="d3">
<rect x="0.005" y="0.005" width="0.1698999999999918" height="0.1698999999999918" fill="#252525" />
<rect x="0.17989999999999182" y="0.005" width="0.1698999999999918" height="0.1698999999999918" fill="#252525" />
<rect x="0.35479999999998363" y="0.005" width="0.1698999999999918" height="0.1698999999999918" fill="#0074D9" />
<rect x="0.5296999999999754" y="0.005" width="0.1698999999999918" height="0.1698999999999918" fill="#252525" />
<rect x="0.7045999999999673" y="0.005" width="0.1698999999999918" height="0.1698999999999918" fill="#252525" />
<rect x="0.8794999999999591" y="0.005" width="0.1698999999999918" height="0.1698999999999918" fill="#0074D9" />
<rect x="1.0543999999999507" y="0.005" width="0.1698999999999918" height="0.1698999999999918" fill="#252525" />
<rect x="1.2292999999999425" y="0.005" width="0.1698999999999918" height="0.1698999999999918" fill="#252525" />
<rect x="1.4041999999999344" y="0.005" width="0.1698999999999918" height="0.1698999999999918" fill="#252525" />
<rect x="1.5790999999999262" y="0.005" width="0.1698999999999918" height="0.1698999999999918" fill="#0074D9" />
<rect x="1.753999999999918" y="0.005" width="0.1698999999999918" height="0.1698999999999918" fill="#0074D9" />
<rect x="1.92889999999991" y="0.005" width="0.1698999999999918" height="0.1698999999999918" fill="#0074D9" />
<rect x="2.1037999999999015" y="0.005" width="0.1698999999999918" height="0.1698999999999918" fill="#0074D9" />
<rect x="2.2786999999998936" y="0.005" width="0.1698999999999918" height="0.1698999999999918" fill="#0074D9" />
<rect x="2.453599999999885" y="0.005" width="0.1698999999999918" height="0.1698999999999918" fill="#252525" />
<rect x="2.6284999999998773" y="0.005" width="0.1698999999999918" height="0.1698999999999918" fill="#252525" />
<rect x="2.803399999999869" y="0.005" width="0.1698999999999918" height="0.1698999999999918" fill="#252525" />
<rect x="2.9782999999998605" y="0.005" width="0.1698999999999918" height="0.1698999999999918" fill="#252525" />
<rect x="3.1531999999998526" y="0.005" width="0.1698999999999918" height="0.1698999999999918" fill="#252525" />
<rect x="3.328099999999844" y="0.005" width="0.1698999999999918" height="0.1698999999999918" fill="#252525" />
<rect x="0.005" y="0.17989999999999182" width="0.1698999999999918" height="0.1698999999999918" fill="#0074D9" />
<rect x="0.17989999999999182" y="0.17989999999999182" width="0.1698999999999918" height="0.1698999999999918" fill="#252525" />
<rect x="0.35479999999998363" y="0.17989999999999182" width="0.1698999999999918" height="0.1698999999999918" fill="#252525" />
<rect x="0.5296999999999754" y="0.17989999999999182" width="0.1698999999999918" height="0.1698999999999918" fill="#252525" />
<rect x="0.7045999999999673" y="0.17989999999999182" width="0.1698999999999918" height="0.1698999999999918" fill="#252525" />
<rect x="0.8794999999999591" y="0.17989999999999182" width="0.1698999999999918" height="0.1698999999999918" fill="#0074D9" />
<rect x="1.0543999999999507" y="0.17989999999999182" width="0.1698999999999918" height="0.1698999999999918" fill="#0074D9" />
<rect x="1.2292999999999425" y="0.17989999999999182" width="0.1698999999999918" height="0.1698999999999918" fill="#252525" />
<rect x="1.4041999999999344" y="0.17989999999999182" width="0.1698999999999918" height="0.1698999999999918" fill="#252525" />
<rect x="1.5790999999999262" y="0.17989999999999182" width="0.1698999999999918" height="0.1698999999999918" fill="#0074D9" />
<rect x="1.753999999999918" y="0.17989999999999182" width="0.1698999999999918" height="0.1698999999999918" fill="#252525" />
<rect x="1.92889999999991" y="0.17989999999999182" width="0.1698999999999918" height="0.1698999999999918" fill="#252525" />
<rect x="2.1037999999999015" y="0.17989999999999182" width="0.1698999999999918" height="0.1698999999999918" fill="#252525" />
<rect x="2.2786999999998936" y="0.17989999999999182" width="0.1698999999999918" height="0.1698999999999918" fill="#252525" />
<rect x="2.453599999999885" y="0.17989999999999182" width="0.1698999999999918" height="0.1698999999999918" fill="#252525" />
<rect x="2.6284999999998773" y="0.17989999999999182" width="0.1698999999999918" height="0.1698999999999918" fill="#0074D9" />
<rect x="2.803399999999869" y="0.17989999999999182" width="0.1698999999999918" height="0.1698999999999918" fill="#252525" />
<rect x="2.9782999999998605" y="0.17989999999999182" width="0.1698999999999918" height="0.1698999999999918" fill="#252525" />
<rect x="3.1531999999998526" y="0.17989999999999182" width="0.1698999999999918" height="0.1698999999999918" fill="#252525" />
<rect x="3.328099999999844" y="0.17989999999999182" width="0.1698999999999918" height="0.1698999999999918" fill="#252525" />
<rect x="0.005" y="0.35479999999998363" width="0.1698999999999918" height="0.1698999999999918" fill="#0074D9" />
<rect x="0.17989999999999182" y="0.35479999999998363" width="0.1698999999999918" height="0.1698999999999918" fill="#252525" />
<rect x="0.35479999999998363" y="0.35479999999998363" width="0.1698999999999918" height="0.1698999999999918" fill="#0074D9" />
<rect x="0.5296999999999754" y="0.35479999999998363" width="0.1698999999999918" height="0.1698999999999918" fill="#0074D9" />
<rect x="0.7045999999999673" y="0.35479999999998363" width="0.1698999999999918" height="0.1698999999999918" fill="#252525" />
<rect x="0.8794999999999591" y="0.35479999999998363" width="0.1698999999999918" height="0.1698999999999918" fill="#252525" />
<rect x="1.0543999999999507" y="0.35479999999998363" width="0.1698999999999918" height="0.1698999999999918" fill="#0074D9" />
<rect x="1.2292999999999425" y="0.35479999999998363" width="0.1698999999999918" height="0.1698999999999918" fill="#252525" />
<rect x="1.4041999999999344" y="0.35479999999998363" width="0.1698999999999918" height="0.1698999999999918" fill="#0074D9" />
<rect x="1.5790999999999262" y="0.35479999999998363" width="0.1698999999999918" height="0.1698999999999918" fill="#252525" />
<rect x="1.753999999999918" y="0.35479999999998363" width="0.1698999999999918" height="0.1698999999999918" fill="#0074D9" />
<rect x="1.92889999999991" y="0.35479999999998363" width="0.1698999999999918" height="0.1698999999999918" fill="#252525" />
<rect x="2.1037999999999015" y="0.35479999999998363" width="0.1698999999999918" height="0.1698999999999918" fill="#0074D9" />
<rect x="2.2786999999998936" y="0.35479999999998363" width="0.1698999999999918" height="0.1698999999999918" fill="#252525" />
<rect x="2.453599999999885" y="0.35479999999998363" width="0.1698999999999918" height="0.1698999999999918" fill="#252525" />
<rect x="2.6284999999998773" y="0.35479999999998363" width="0.1698999999999918" height="0.1698999999999918" fill="#252525" />
<rect x="2.803399999999869" y="0.35479999999998363" width="0.1698999999999918" height="0.1698999999999918" fill="#0074D9" />
<rect x="2.9782999999998605" y="0.35479999999998363" width="0.1698999999999918" height="0.1698999999999918" fill="#252525" />
<rect x="3.1531999999998526" y="0.35479999999998363" width="0.1698999999999918" height="0.1698999999999918" fill="#252525" />
<rect x="3.328099999999844" y="0.35479999999998363" width="0.1698999999999918" height="0.1698999999999918" fill="#252525" />
<rect x="0.005" y="0.5296999999999754" width="0.1698999999999918" height="0.1698999999999918" fill="#252525" />
<rect x="0.17989999999999182" y="0.5296999999999754" width="0.1698999999999918" height="0.1698999999999918" fill="#252525" />
<rect x="0.35479999999998363" y="0.5296999999999754" width="0.1698999999999918" height="0.1698999999999918" fill="#0074D9" />
<rect x="0.5296999999999754" y="0.5296999999999754" width="0.1698999999999918" height="0.1698999999999918" fill="#252525" />
<rect x="0.7045999999999673" y="0.5296999999999754" width="0.1698999999999918" height="0.1698999999999918" fill="#252525" />
<rect x="0.8794999999999591" y="0.5296999999999754" width="0.1698999999999918" height="0.1698999999999918" fill="#252525" />
<rect x="1.0543999999999507" y="0.5296999999999754" width="0.1698999999999918" height="0.1698999999999918" fill="#0074D9" />
<rect x="1.2292999999999425" y="0.5296999999999754" width="0.1698999999999918" height="0.1698999999999918" fill="#0074D9" />
<rect x="1.4041999999999344" y="0.5296999999999754" width="0.1698999999999918" height="0.1698999999999918" fill="#252525" />
<rect x="1.5790999999999262" y="0.5296999999999754" width="0.1698999999999918" height="0.1698999999999918" fill="#252525" />
<rect x="1.753999999999918" y="0.5296999999999754" width="0.1698999999999918" height="0.1698999999999918" fill="#0074D9" />
<rect x="1.92889999999991" y="0.5296999999999754" width="0.1698999999999918" height="0.1698999999999918" fill="#0074D9" />
<rect x="2.1037999999999015" y="0.5296999999999754" width="0.1698999999999918" height="0.1698999999999918" fill="#0074D9" />
<rect x="2.2786999999998936" y="0.5296999999999754" width="0.1698999999999918" height="0.1698999999999918" fill="#0074D9" />
<rect x="2.453599999999885" y="0.5296999999999754" width="0.1698999999999918" height="0.1698999999999918" fill="#0074D9" />
<rect x="2.6284999999998773" y="0.5296999999999754" width="0.1698999999999918" height="0.1698999999999918" fill="#0074D9" />
<rect x="2.803399999999869" y="0.5296999999999754" width="0.1698999999999918" height="0.1698999999999918" fill="#0074D9" />
<rect x="2.9782999999998605" y="0.5296999999999754" width="0.1698999999999918" height="0.1698999999999918" fill="#252525" />
<rect x="3.1531999999998526" y="0.5296999999999754" width="0.1698999999999918" height="0.1698999999999918" fill="#252525" />
<rect x="3.328099999999844" y="0.5296999999999754" width="0.1698999999999918" height="0.1698999999999918" fill="#0074D9" />
<rect x="-0.02666666666666667" y="-0.02666666666666667" width="3.5513333333331696" height="0.7529333333333006" fill="none" stroke="#111111ff" stroke-width="0.08" />
<text x="3.4979999999998364" y="1.1683499999999674" font-size="0.375" fill="black" text-anchor="end" font-family="Anuphan">20x4</text>
<text x="-0.037500000000000006" y="1.1683499999999674" font-size="0.375" fill="black" text-anchor="start" font-family="Anuphan" font-weight="600">Input 4</text>
</g>
<g id="d4">
<rect x="0.005" y="0.005" width="0.14074999999999319" height="0.14074999999999319" fill="#252525" />
<rect x="0.1507499999999932" y="0.005" width="0.14074999999999319" height="0.14074999999999319" fill="#252525" />
<rect x="0.2964999999999864" y="0.005" width="0.14074999999999319" height="0.14074999999999319" fill="#252525" />
<rect x="0.4422499999999796" y="0.005" width="0.14074999999999319" height="0.14074999999999319" fill="#252525" />
<rect x="0.5879999999999728" y="0.005" width="0.14074999999999319" height="0.14074999999999319" fill="#0074D9" />
<rect x="0.7337499999999659" y="0.005" width="0.14074999999999319" height="0.14074999999999319" fill="#252525" />
<rect x="0.8794999999999592" y="0.005" width="0.14074999999999319" height="0.14074999999999319" fill="#0074D9" />
<rect x="1.0252499999999523" y="0.005" width="0.14074999999999319" height="0.14074999999999319" fill="#252525" />
<rect x="1.1709999999999454" y="0.005" width="0.14074999999999319" height="0.14074999999999319" fill="#0074D9" />
<rect x="1.3167499999999386" y="0.005" width="0.14074999999999319" height="0.14074999999999319" fill="#252525" />
<rect x="1.4624999999999317" y="0.005" width="0.14074999999999319" height="0.14074999999999319" fill="#252525" />
<rect x="1.608249999999925" y="0.005" width="0.14074999999999319" height="0.14074999999999319" fill="#252525" />
<rect x="1.7539999999999183" y="0.005" width="0.14074999999999319" height="0.14074999999999319" fill="#252525" />
<rect x="1.8997499999999115" y="0.005" width="0.14074999999999319" height="0.14074999999999319" fill="#252525" />
<rect x="2.0454999999999046" y="0.005" width="0.14074999999999319" height="0.14074999999999319" fill="#0074D9" />
<rect x="2.1912499999998976" y="0.005" width="0.14074999999999319" height="0.14074999999999319" fill="#252525" />
<rect x="2.336999999999891" y="0.005" width="0.14074999999999319" height="0.14074999999999319" fill="#252525" />
<rect x="2.4827499999998843" y="0.005" width="0.14074999999999319" height="0.14074999999999319" fill="#252525" />
<rect x="2.6284999999998773" y="0.005" width="0.14074999999999319" height="0.14074999999999319" fill="#252525" />
<rect x="2.7742499999998707" y="0.005" width="0.14074999999999319" height="0.14074999999999319" fill="#0074D9" />
<rect x="2.9199999999998636" y="0.005" width="0.14074999999999319" height="0.14074999999999319" fill="#0074D9" />
<rect x="3.065749999999857" y="0.005" width="0.14074999999999319" height="0.14074999999999319" fill="#252525" />
<rect x="3.21149999999985" y="0.005" width="0.14074999999999319" height="0.14074999999999319" fill="#0074D9" />
<rect x="3.3572499999998433" y="0.005" width="0.14074999999999319" height="0.14074999999999319" fill="#252525" />
<rect x="0.005" y="0.1507499999999932" width="0.14074999999999319" height="0.14074999999999319" fill="#0074D9" />
<rect x="0.1507499999999932" y="0.1507499999999932" width="0.14074999999999319" height="0.14074999999999319" fill="#252525" />
<rect x="0.2964999999999864" y="0.1507499999999932" width="0.14074999999999319" height="0.14074999999999319" fill="#252525" />
<rect x="0.4422499999999796" y="0.1507499999999932" width="0.14074999999999319" height="0.14074999999999319" fill="#252525" />
<rect x="0.5879999999999728" y="0.1507499999999932" width="0.14074999999999319" height="0.14074999999999319" fill="#0074D9" />
<rect x="0.7337499999999659" y="0.1507499999999932" width="0.14074999999999319" height="0.14074999999999319" fill="#0074D9" />
<rect x="0.8794999999999592" y="0.1507499999999932" width="0.14074999999999319" height="0.14074999999999319" fill="#0074D9" />
<rect x="1.0252499999999523" y="0.1507499999999932" width="0.14074999999999319" height="0.14074999999999319" fill="#0074D9" />
<rect x="1.1709999999999454" y="0.1507499999999932" width="0.14074999999999319" height="0.14074999999999319" fill="#252525" />
<rect x="1.3167499999999386" y="0.1507499999999932" width="0.14074999999999319" height="0.14074999999999319" fill="#252525" />
<rect x="1.4624999999999317" y="0.1507499999999932" width="0.14074999999999319" height="0.14074999999999319" fill="#252525" />
<rect x="1.608249999999925" y="0.1507499999999932" width="0.14074999999999319" height="0.14074999999999319" fill="#252525" />
<rect x="1.7539999999999183" y="0.1507499999999932" width="0.14074999999999319" height="0.14074999999999319" fill="#0074D9" />
<rect x="1.8997499999999115" y="0.1507499999999932" width="0.14074999999999319" height="0.14074999999999319" fill="#0074D9" />
<rect x="2.0454999999999046" y="0.1507499999999932" width="0.14074999999999319" height="0.14074999999999319" fill="#252525" />
<rect x="2.1912499999998976" y="0.1507499999999932" width="0.14074999999999319" height="0.14074999999999319" fill="#0074D9" />
<rect x="2.336999999999891" y="0.1507499999999932" width="0.14074999999999319" height="0.14074999999999319" fill="#0074D9" />
<rect x="2.4827499999998843" y="0.1507499999999932" width="0.14074999999999319" height="0.14074999999999319" fill="#252525" />
<rect x="2.6284999999998773" y="0.1507499999999932" width="0.14074999999999319" height="0.14074999999999319" fill="#0074D9" />
<rect x="2.7742499999998707" y="0.1507499999999932" width="0.14074999999999319" height="0.14074999999999319" fill="#0074D9" />
<rect x="2.9199999999998636" y="0.1507499999999932" width="0.14074999999999319" height="0.14074999999999319" fill="#0074D9" />
<rect x="3.065749999999857" y="0.1507499999999932" width="0.14074999999999319" height="0.14074999999999319" fill="#0074D9" />
<rect x="3.21149999999985" y="0.1507499999999932" width="0.14074999999999319" height="0.14074999999999319" fill="#0074D9" />
<rect x="3.3572499999998433" y="0.1507499999999932" width="0.14074999999999319" height="0.14074999999999319" fill="#252525" />
<rect x="0.005" y="0.2964999999999864" width="0.14074999999999319" height="0.14074999999999319" fill="#252525" />
<rect x="0.1507499999999932" y="0.2964999999999864" width="0.14074999999999319" height="0.14074999999999319" fill="#252525" />
<rect x="0.2964999999999864" y="0.2964999999999864" width="0.14074999999999319" height="0.14074999999999319" fill="#252525" />
<rect x="0.4422499999999796" y="0.2964999999999864" width="0.14074999999999319" height="0.14074999999999319" fill="#252525" />
<rect x="0.5879999999999728" y="0.2964999999999864" width="0.14074999999999319" height="0.14074999999999319" fill="#252525" />
<rect x="0.7337499999999659" y="0.2964999999999864" width="0.14074999999999319" height="0.14074999999999319" fill="#0074D9" />
<rect x="0.8794999999999592" y="0.2964999999999864" width="0.14074999999999319" height="0.14074999999999319" fill="#0074D9" />
<rect x="1.0252499999999523" y="0.2964999999999864" width="0.14074999999999319" height="0.14074999999999319" fill="#0074D9" />
<rect x="1.1709999999999454" y="0.2964999999999864" width="0.14074999999999319" height="0.14074999999999319" fill="#252525" />
<rect x="1.3167499999999386" y="0.2964999999999864" width="0.14074999999999319" height="0.14074999999999319" fill="#0074D9" />
<rect x="1.4624999999999317" y="0.2964999999999864" width="0.14074999999999319" height="0.14074999999999319" fill="#0074D9" />
<rect x="1.608249999999925" y="0.2964999999999864" width="0.14074999999999319" height="0.14074999999999319" fill="#252525" />
<rect x="1.7539999999999183" y="0.2964999999999864" width="0.14074999999999319" height="0.14074999999999319" fill="#0074D9" />
<rect x="1.8997499999999115" y="0.2964999999999864" width="0.14074999999999319" height="0.14074999999999319" fill="#252525" />
<rect x="2.0454999999999046" y="0.2964999999999864" width="0.14074999999999319" height="0.14074999999999319" fill="#252525" />
<rect x="2.1912499999998976" y="0.2964999999999864" width="0.14074999999999319" height="0.14074999999999319" fill="#252525" />
<rect x="2.336999999999891" y="0.2964999999999864" width="0.14074999999999319" height="0.14074999999999319" fill="#0074D9" />
<rect x="2.4827499999998843" y="0.2964999999999864" width="0.14074999999999319" height="0.14074999999999319" fill="#0074D9" />
<rect x="2.6284999999998773" y="0.2964999999999864" width="0.14074999999999319" height="0.14074999999999319" fill="#252525" />
<rect x="2.7742499999998707" y="0.2964999999999864" width="0.14074999999999319" height="0.14074999999999319" fill="#252525" />
<rect x="2.9199999999998636" y="0.2964999999999864" width="0.14074999999999319" height="0.14074999999999319" fill="#0074D9" />
<rect x="3.065749999999857" y="0.2964999999999864" width="0.14074999999999319" height="0.14074999999999319" fill="#0074D9" />
<rect x="3.21149999999985" y="0.2964999999999864" width="0.14074999999999319" height="0.14074999999999319" fill="#0074D9" />
<rect x="3.3572499999998433" y="0.2964999999999864" width="0.14074999999999319" height="0.14074999999999319" fill="#0074D9" />
<rect x="0.005" y="0.4422499999999796" width="0.14074999999999319" height="0.14074999999999319" fill="#252525" />
<rect x="0.1507499999999932" y="0.4422499999999796" width="0.14074999999999319" height="0.14074999999999319" fill="#252525" />
<rect x="0.2964999999999864" y="0.4422499999999796" width="0.14074999999999319" height="0.14074999999999319" fill="#0074D9" />
<rect x="0.4422499999999796" y="0.4422499999999796" width="0.14074999999999319" height="0.14074999999999319" fill="#0074D9" />
<rect x="0.5879999999999728" y="0.4422499999999796" width="0.14074999999999319" height="0.14074999999999319" fill="#252525" />
<rect x="0.7337499999999659" y="0.4422499999999796" width="0.14074999999999319" height="0.14074999999999319" fill="#252525" />
<rect x="0.8794999999999592" y="0.4422499999999796" width="0.14074999999999319" height="0.14074999999999319" fill="#252525" />
<rect x="1.0252499999999523" y="0.4422499999999796" width="0.14074999999999319" height="0.14074999999999319" fill="#252525" />
<rect x="1.1709999999999454" y="0.4422499999999796" width="0.14074999999999319" height="0.14074999999999319" fill="#252525" />
<rect x="1.3167499999999386" y="0.4422499999999796" width="0.14074999999999319" height="0.14074999999999319" fill="#0074D9" />
<rect x="1.4624999999999317" y="0.4422499999999796" width="0.14074999999999319" height="0.14074999999999319" fill="#0074D9" />
<rect x="1.608249999999925" y="0.4422499999999796" width="0.14074999999999319" height="0.14074999999999319" fill="#0074D9" />
<rect x="1.7539999999999183" y="0.4422499999999796" width="0.14074999999999319" height="0.14074999999999319" fill="#0074D9" />
<rect x="1.8997499999999115" y="0.4422499999999796" width="0.14074999999999319" height="0.14074999999999319" fill="#0074D9" />
<rect x="2.0454999999999046" y="0.4422499999999796" width="0.14074999999999319" height="0.14074999999999319" fill="#252525" />
<rect x="2.1912499999998976" y="0.4422499999999796" width="0.14074999999999319" height="0.14074999999999319" fill="#0074D9" />
<rect x="2.336999999999891" y="0.4422499999999796" width="0.14074999999999319" height="0.14074999999999319" fill="#0074D9" />
<rect x="2.4827499999998843" y="0.4422499999999796" width="0.14074999999999319" height="0.14074999999999319" fill="#252525" />
<rect x="2.6284999999998773" y="0.4422499999999796" width="0.14074999999999319" height="0.14074999999999319" fill="#0074D9" />
<rect x="2.7742499999998707" y="0.4422499999999796" width="0.14074999999999319" height="0.14074999999999319" fill="#0074D9" />
<rect x="2.9199999999998636" y="0.4422499999999796" width="0.14074999999999319" height="0.14074999999999319" fill="#252525" />
<rect x="3.065749999999857" y="0.4422499999999796" width="0.14074999999999319" height="0.14074999999999319" fill="#252525" />
<rect x="3.21149999999985" y="0.4422499999999796" width="0.14074999999999319" height="0.14074999999999319" fill="#252525" />
<rect x="3.3572499999998433" y="0.4422499999999796" width="0.14074999999999319" height="0.14074999999999319" fill="#0074D9" />
<rect x="-0.02666666666666667" y="-0.02666666666666667" width="3.55133333333317" height="0.6363333333333061" fill="none" stroke="#111111ff" stroke-width="0.08" />
<text x="3.497999999999837" y="1.0517499999999727" font-size="0.375" fill="black" text-anchor="end" font-family="Anuphan">24x4</text>
<text x="-0.037500000000000006" y="1.0517499999999727" font-size="0.375" fill="black" text-anchor="start" font-family="Anuphan" font-weight="600">Test 1</text>
</g>
<g id="d5">
<rect x="0.005" y="0.005" width="0.11159999999999454" height="0.11159999999999454" fill="#E6E6E6" />
<rect x="0.12159999999999455" y="0.005" width="0.11159999999999454" height="0.11159999999999454" fill="#0074D9" />
<rect x="0.2381999999999891" y="0.005" width="0.11159999999999454" height="0.11159999999999454" fill="#0074D9" />
<rect x="0.35479999999998363" y="0.005" width="0.11159999999999454" height="0.11159999999999454" fill="#0074D9" />
<rect x="0.47139999999997817" y="0.005" width="0.11159999999999454" height="0.11159999999999454" fill="#0074D9" />
<rect x="0.5879999999999727" y="0.005" width="0.11159999999999454" height="0.11159999999999454" fill="#0074D9" />
<rect x="0.7045999999999673" y="0.005" width="0.11159999999999454" height="0.11159999999999454" fill="#E6E6E6" />
<rect x="0.8211999999999618" y="0.005" width="0.11159999999999454" height="0.11159999999999454" fill="#252525" />
<rect x="0.9377999999999563" y="0.005" width="0.11159999999999454" height="0.11159999999999454" fill="#252525" />
<rect x="1.0543999999999507" y="0.005" width="0.11159999999999454" height="0.11159999999999454" fill="#252525" />
<rect x="1.1709999999999452" y="0.005" width="0.11159999999999454" height="0.11159999999999454" fill="#252525" />
<rect x="1.28759999999994" y="0.005" width="0.11159999999999454" height="0.11159999999999454" fill="#252525" />
<rect x="1.4041999999999344" y="0.005" width="0.11159999999999454" height="0.11159999999999454" fill="#252525" />
<rect x="1.5207999999999289" y="0.005" width="0.11159999999999454" height="0.11159999999999454" fill="#252525" />
<rect x="1.6373999999999236" y="0.005" width="0.11159999999999454" height="0.11159999999999454" fill="#252525" />
<rect x="1.753999999999918" y="0.005" width="0.11159999999999454" height="0.11159999999999454" fill="#252525" />
<rect x="1.8705999999999126" y="0.005" width="0.11159999999999454" height="0.11159999999999454" fill="#252525" />
<rect x="1.987199999999907" y="0.005" width="0.11159999999999454" height="0.11159999999999454" fill="#0074D9" />
<rect x="2.1037999999999015" y="0.005" width="0.11159999999999454" height="0.11159999999999454" fill="#0074D9" />
<rect x="2.2203999999998962" y="0.005" width="0.11159999999999454" height="0.11159999999999454" fill="#252525" />
<rect x="2.3369999999998905" y="0.005" width="0.11159999999999454" height="0.11159999999999454" fill="#0074D9" />
<rect x="2.453599999999885" y="0.005" width="0.11159999999999454" height="0.11159999999999454" fill="#252525" />
<rect x="2.57019999999988" y="0.005" width="0.11159999999999454" height="0.11159999999999454" fill="#252525" />
<rect x="2.686799999999874" y="0.005" width="0.11159999999999454" height="0.11159999999999454" fill="#0074D9" />
<rect x="2.803399999999869" y="0.005" width="0.11159999999999454" height="0.11159999999999454" fill="#252525" />
<rect x="2.9199999999998636" y="0.005" width="0.11159999999999454" height="0.11159999999999454" fill="#252525" />
<rect x="3.036599999999858" y="0.005" width="0.11159999999999454" height="0.11159999999999454" fill="#252525" />
<rect x="3.1531999999998526" y="0.005" width="0.11159999999999454" height="0.11159999999999454" fill="#252525" />
<rect x="3.2697999999998473" y="0.005" width="0.11159999999999454" height="0.11159999999999454" fill="#0074D9" />
<rect x="3.3863999999998415" y="0.005" width="0.11159999999999454" height="0.11159999999999454" fill="#252525" />
<rect x="0.005" y="0.12159999999999455" width="0.11159999999999454" height="0.11159999999999454" fill="#252525" />
<rect x="0.12159999999999455" y="0.12159999999999455" width="0.11159999999999454" height="0.11159999999999454" fill="#0074D9" />
<rect x="0.2381999999999891" y="0.12159999999999455" width="0.11159999999999454" height="0.11159999999999454" fill="#252525" />
<rect x="0.35479999999998363" y="0.12159999999999455" width="0.11159999999999454" height="0.11159999999999454" fill="#0074D9" />
<rect x="0.47139999999997817" y="0.12159999999999455" width="0.11159999999999454" height="0.11159999999999454" fill="#252525" />
<rect x="0.5879999999999727" y="0.12159999999999455" width="0.11159999999999454" height="0.11159999999999454" fill="#252525" />
<rect x="0.7045999999999673" y="0.12159999999999455" width="0.11159999999999454" height="0.11159999999999454" fill="#252525" />
<rect x="0.8211999999999618" y="0.12159999999999455" width="0.11159999999999454" height="0.11159999999999454" fill="#0074D9" />
<rect x="0.9377999999999563" y="0.12159999999999455" width="0.11159999999999454" height="0.11159999999999454" fill="#0074D9" />
<rect x="1.0543999999999507" y="0.12159999999999455" width="0.11159999999999454" height="0.11159999999999454" fill="#0074D9" />
<rect x="1.1709999999999452" y="0.12159999999999455" width="0.11159999999999454" height="0.11159999999999454" fill="#0074D9" />
<rect x="1.28759999999994" y="0.12159999999999455" width="0.11159999999999454" height="0.11159999999999454" fill="#252525" />
<rect x="1.4041999999999344" y="0.12159999999999455" width="0.11159999999999454" height="0.11159999999999454" fill="#0074D9" />
<rect x="1.5207999999999289" y="0.12159999999999455" width="0.11159999999999454" height="0.11159999999999454" fill="#0074D9" />
<rect x="1.6373999999999236" y="0.12159999999999455" width="0.11159999999999454" height="0.11159999999999454" fill="#0074D9" />
<rect x="1.753999999999918" y="0.12159999999999455" width="0.11159999999999454" height="0.11159999999999454" fill="#F012BE" />
<rect x="1.8705999999999126" y="0.12159999999999455" width="0.11159999999999454" height="0.11159999999999454" fill="#F012BE" />
<rect x="1.987199999999907" y="0.12159999999999455" width="0.11159999999999454" height="0.11159999999999454" fill="#F012BE" />
<rect x="2.1037999999999015" y="0.12159999999999455" width="0.11159999999999454" height="0.11159999999999454" fill="#F012BE" />
<rect x="2.2203999999998962" y="0.12159999999999455" width="0.11159999999999454" height="0.11159999999999454" fill="#0074D9" />
<rect x="2.3369999999998905" y="0.12159999999999455" width="0.11159999999999454" height="0.11159999999999454" fill="#0074D9" />
<rect x="2.453599999999885" y="0.12159999999999455" width="0.11159999999999454" height="0.11159999999999454" fill="#0074D9" />
<rect x="2.57019999999988" y="0.12159999999999455" width="0.11159999999999454" height="0.11159999999999454" fill="#252525" />
<rect x="2.686799999999874" y="0.12159999999999455" width="0.11159999999999454" height="0.11159999999999454" fill="#0074D9" />
<rect x="2.803399999999869" y="0.12159999999999455" width="0.11159999999999454" height="0.11159999999999454" fill="#252525" />
<rect x="2.9199999999998636" y="0.12159999999999455" width="0.11159999999999454" height="0.11159999999999454" fill="#0074D9" />
<rect x="3.036599999999858" y="0.12159999999999455" width="0.11159999999999454" height="0.11159999999999454" fill="#0074D9" />
<rect x="3.1531999999998526" y="0.12159999999999455" width="0.11159999999999454" height="0.11159999999999454" fill="#0074D9" />
<rect x="3.2697999999998473" y="0.12159999999999455" width="0.11159999999999454" height="0.11159999999999454" fill="#0074D9" />
<rect x="3.3863999999998415" y="0.12159999999999455" width="0.11159999999999454" height="0.11159999999999454" fill="#0074D9" />
<rect x="0.005" y="0.2381999999999891" width="0.11159999999999454" height="0.11159999999999454" fill="#0074D9" />
<rect x="0.12159999999999455" y="0.2381999999999891" width="0.11159999999999454" height="0.11159999999999454" fill="#0074D9" />
<rect x="0.2381999999999891" y="0.2381999999999891" width="0.11159999999999454" height="0.11159999999999454" fill="#252525" />
<rect x="0.35479999999998363" y="0.2381999999999891" width="0.11159999999999454" height="0.11159999999999454" fill="#252525" />
<rect x="0.47139999999997817" y="0.2381999999999891" width="0.11159999999999454" height="0.11159999999999454" fill="#252525" />
<rect x="0.5879999999999727" y="0.2381999999999891" width="0.11159999999999454" height="0.11159999999999454" fill="#0074D9" />
<rect x="0.7045999999999673" y="0.2381999999999891" width="0.11159999999999454" height="0.11159999999999454" fill="#252525" />
<rect x="0.8211999999999618" y="0.2381999999999891" width="0.11159999999999454" height="0.11159999999999454" fill="#0074D9" />
<rect x="0.9377999999999563" y="0.2381999999999891" width="0.11159999999999454" height="0.11159999999999454" fill="#252525" />
<rect x="1.0543999999999507" y="0.2381999999999891" width="0.11159999999999454" height="0.11159999999999454" fill="#0074D9" />
<rect x="1.1709999999999452" y="0.2381999999999891" width="0.11159999999999454" height="0.11159999999999454" fill="#0074D9" />
<rect x="1.28759999999994" y="0.2381999999999891" width="0.11159999999999454" height="0.11159999999999454" fill="#0074D9" />
<rect x="1.4041999999999344" y="0.2381999999999891" width="0.11159999999999454" height="0.11159999999999454" fill="#252525" />
<rect x="1.5207999999999289" y="0.2381999999999891" width="0.11159999999999454" height="0.11159999999999454" fill="#0074D9" />
<rect x="1.6373999999999236" y="0.2381999999999891" width="0.11159999999999454" height="0.11159999999999454" fill="#0074D9" />
<rect x="1.753999999999918" y="0.2381999999999891" width="0.11159999999999454" height="0.11159999999999454" fill="#F012BE" />
<rect x="1.8705999999999126" y="0.2381999999999891" width="0.11159999999999454" height="0.11159999999999454" fill="#F012BE" />
<rect x="1.987199999999907" y="0.2381999999999891" width="0.11159999999999454" height="0.11159999999999454" fill="#F012BE" />
<rect x="2.1037999999999015" y="0.2381999999999891" width="0.11159999999999454" height="0.11159999999999454" fill="#F012BE" />
<rect x="2.2203999999998962" y="0.2381999999999891" width="0.11159999999999454" height="0.11159999999999454" fill="#0074D9" />
<rect x="2.3369999999998905" y="0.2381999999999891" width="0.11159999999999454" height="0.11159999999999454" fill="#252525" />
<rect x="2.453599999999885" y="0.2381999999999891" width="0.11159999999999454" height="0.11159999999999454" fill="#252525" />
<rect x="2.57019999999988" y="0.2381999999999891" width="0.11159999999999454" height="0.11159999999999454" fill="#0074D9" />
<rect x="2.686799999999874" y="0.2381999999999891" width="0.11159999999999454" height="0.11159999999999454" fill="#0074D9" />
<rect x="2.803399999999869" y="0.2381999999999891" width="0.11159999999999454" height="0.11159999999999454" fill="#252525" />
<rect x="2.9199999999998636" y="0.2381999999999891" width="0.11159999999999454" height="0.11159999999999454" fill="#252525" />
<rect x="3.036599999999858" y="0.2381999999999891" width="0.11159999999999454" height="0.11159999999999454" fill="#0074D9" />
<rect x="3.1531999999998526" y="0.2381999999999891" width="0.11159999999999454" height="0.11159999999999454" fill="#252525" />
<rect x="3.2697999999998473" y="0.2381999999999891" width="0.11159999999999454" height="0.11159999999999454" fill="#252525" />
<rect x="3.3863999999998415" y="0.2381999999999891" width="0.11159999999999454" height="0.11159999999999454" fill="#252525" />
<rect x="-0.02666666666666667" y="-0.02666666666666667" width="3.5513333333331696" height="0.40313333333331697" fill="none" stroke="#111111ff" stroke-width="0.08" />
<text x="3.4979999999998364" y="0.8185499999999837" font-size="0.375" fill="black" text-anchor="end" font-family="Anuphan">30x3</text>
<text x="-0.037500000000000006" y="0.8185499999999837" font-size="0.375" fill="black" text-anchor="start" font-family="Anuphan" font-weight="600">Output 1</text>
</g>
<g id="d6">
<rect x="0.005" y="0.005" width="0.1698999999999918" height="0.1698999999999918" fill="#0074D9" />
<rect x="0.17989999999999182" y="0.005" width="0.1698999999999918" height="0.1698999999999918" fill="#0074D9" />
<rect x="0.35479999999998363" y="0.005" width="0.1698999999999918" height="0.1698999999999918" fill="#0074D9" />
<rect x="0.5296999999999754" y="0.005" width="0.1698999999999918" height="0.1698999999999918" fill="#252525" />
<rect x="0.7045999999999673" y="0.005" width="0.1698999999999918" height="0.1698999999999918" fill="#252525" />
<rect x="0.8794999999999591" y="0.005" width="0.1698999999999918" height="0.1698999999999918" fill="#0074D9" />
<rect x="1.0543999999999507" y="0.005" width="0.1698999999999918" height="0.1698999999999918" fill="#0074D9" />
<rect x="1.2292999999999425" y="0.005" width="0.1698999999999918" height="0.1698999999999918" fill="#252525" />
<rect x="1.4041999999999344" y="0.005" width="0.1698999999999918" height="0.1698999999999918" fill="#0074D9" />
<rect x="1.5790999999999262" y="0.005" width="0.1698999999999918" height="0.1698999999999918" fill="#0074D9" />
<rect x="1.753999999999918" y="0.005" width="0.1698999999999918" height="0.1698999999999918" fill="#0074D9" />
<rect x="1.92889999999991" y="0.005" width="0.1698999999999918" height="0.1698999999999918" fill="#0074D9" />
<rect x="2.1037999999999015" y="0.005" width="0.1698999999999918" height="0.1698999999999918" fill="#252525" />
<rect x="2.2786999999998936" y="0.005" width="0.1698999999999918" height="0.1698999999999918" fill="#252525" />
<rect x="2.453599999999885" y="0.005" width="0.1698999999999918" height="0.1698999999999918" fill="#F012BE" />
<rect x="2.6284999999998773" y="0.005" width="0.1698999999999918" height="0.1698999999999918" fill="#F012BE" />
<rect x="2.803399999999869" y="0.005" width="0.1698999999999918" height="0.1698999999999918" fill="#F012BE" />
<rect x="2.9782999999998605" y="0.005" width="0.1698999999999918" height="0.1698999999999918" fill="#0074D9" />
<rect x="3.1531999999998526" y="0.005" width="0.1698999999999918" height="0.1698999999999918" fill="#252525" />
<rect x="3.328099999999844" y="0.005" width="0.1698999999999918" height="0.1698999999999918" fill="#0074D9" />
<rect x="0.005" y="0.17989999999999182" width="0.1698999999999918" height="0.1698999999999918" fill="#0074D9" />
<rect x="0.17989999999999182" y="0.17989999999999182" width="0.1698999999999918" height="0.1698999999999918" fill="#0074D9" />
<rect x="0.35479999999998363" y="0.17989999999999182" width="0.1698999999999918" height="0.1698999999999918" fill="#0074D9" />
<rect x="0.5296999999999754" y="0.17989999999999182" width="0.1698999999999918" height="0.1698999999999918" fill="#252525" />
<rect x="0.7045999999999673" y="0.17989999999999182" width="0.1698999999999918" height="0.1698999999999918" fill="#0074D9" />
<rect x="0.8794999999999591" y="0.17989999999999182" width="0.1698999999999918" height="0.1698999999999918" fill="#0074D9" />
<rect x="1.0543999999999507" y="0.17989999999999182" width="0.1698999999999918" height="0.1698999999999918" fill="#252525" />
<rect x="1.2292999999999425" y="0.17989999999999182" width="0.1698999999999918" height="0.1698999999999918" fill="#252525" />
<rect x="1.4041999999999344" y="0.17989999999999182" width="0.1698999999999918" height="0.1698999999999918" fill="#0074D9" />
<rect x="1.5790999999999262" y="0.17989999999999182" width="0.1698999999999918" height="0.1698999999999918" fill="#252525" />
<rect x="1.753999999999918" y="0.17989999999999182" width="0.1698999999999918" height="0.1698999999999918" fill="#0074D9" />
<rect x="1.92889999999991" y="0.17989999999999182" width="0.1698999999999918" height="0.1698999999999918" fill="#252525" />
<rect x="2.1037999999999015" y="0.17989999999999182" width="0.1698999999999918" height="0.1698999999999918" fill="#0074D9" />
<rect x="2.2786999999998936" y="0.17989999999999182" width="0.1698999999999918" height="0.1698999999999918" fill="#0074D9" />
<rect x="2.453599999999885" y="0.17989999999999182" width="0.1698999999999918" height="0.1698999999999918" fill="#F012BE" />
<rect x="2.6284999999998773" y="0.17989999999999182" width="0.1698999999999918" height="0.1698999999999918" fill="#F012BE" />
<rect x="2.803399999999869" y="0.17989999999999182" width="0.1698999999999918" height="0.1698999999999918" fill="#F012BE" />
<rect x="2.9782999999998605" y="0.17989999999999182" width="0.1698999999999918" height="0.1698999999999918" fill="#0074D9" />
<rect x="3.1531999999998526" y="0.17989999999999182" width="0.1698999999999918" height="0.1698999999999918" fill="#0074D9" />
<rect x="3.328099999999844" y="0.17989999999999182" width="0.1698999999999918" height="0.1698999999999918" fill="#0074D9" />
<rect x="0.005" y="0.35479999999998363" width="0.1698999999999918" height="0.1698999999999918" fill="#252525" />
<rect x="0.17989999999999182" y="0.35479999999998363" width="0.1698999999999918" height="0.1698999999999918" fill="#252525" />
<rect x="0.35479999999998363" y="0.35479999999998363" width="0.1698999999999918" height="0.1698999999999918" fill="#0074D9" />
<rect x="0.5296999999999754" y="0.35479999999998363" width="0.1698999999999918" height="0.1698999999999918" fill="#0074D9" />
<rect x="0.7045999999999673" y="0.35479999999998363" width="0.1698999999999918" height="0.1698999999999918" fill="#0074D9" />
<rect x="0.8794999999999591" y="0.35479999999998363" width="0.1698999999999918" height="0.1698999999999918" fill="#252525" />
<rect x="1.0543999999999507" y="0.35479999999998363" width="0.1698999999999918" height="0.1698999999999918" fill="#252525" />
<rect x="1.2292999999999425" y="0.35479999999998363" width="0.1698999999999918" height="0.1698999999999918" fill="#0074D9" />
<rect x="1.4041999999999344" y="0.35479999999998363" width="0.1698999999999918" height="0.1698999999999918" fill="#252525" />
<rect x="1.5790999999999262" y="0.35479999999998363" width="0.1698999999999918" height="0.1698999999999918" fill="#0074D9" />
<rect x="1.753999999999918" y="0.35479999999998363" width="0.1698999999999918" height="0.1698999999999918" fill="#252525" />
<rect x="1.92889999999991" y="0.35479999999998363" width="0.1698999999999918" height="0.1698999999999918" fill="#0074D9" />
<rect x="2.1037999999999015" y="0.35479999999998363" width="0.1698999999999918" height="0.1698999999999918" fill="#0074D9" />
<rect x="2.2786999999998936" y="0.35479999999998363" width="0.1698999999999918" height="0.1698999999999918" fill="#252525" />
<rect x="2.453599999999885" y="0.35479999999998363" width="0.1698999999999918" height="0.1698999999999918" fill="#0074D9" />
<rect x="2.6284999999998773" y="0.35479999999998363" width="0.1698999999999918" height="0.1698999999999918" fill="#252525" />
<rect x="2.803399999999869" y="0.35479999999998363" width="0.1698999999999918" height="0.1698999999999918" fill="#0074D9" />
<rect x="2.9782999999998605" y="0.35479999999998363" width="0.1698999999999918" height="0.1698999999999918" fill="#0074D9" />
<rect x="3.1531999999998526" y="0.35479999999998363" width="0.1698999999999918" height="0.1698999999999918" fill="#0074D9" />
<rect x="3.328099999999844" y="0.35479999999998363" width="0.1698999999999918" height="0.1698999999999918" fill="#252525" />
<rect x="0.005" y="0.5296999999999754" width="0.1698999999999918" height="0.1698999999999918" fill="#252525" />
<rect x="0.17989999999999182" y="0.5296999999999754" width="0.1698999999999918" height="0.1698999999999918" fill="#0074D9" />
<rect x="0.35479999999998363" y="0.5296999999999754" width="0.1698999999999918" height="0.1698999999999918" fill="#252525" />
<rect x="0.5296999999999754" y="0.5296999999999754" width="0.1698999999999918" height="0.1698999999999918" fill="#0074D9" />
<rect x="0.7045999999999673" y="0.5296999999999754" width="0.1698999999999918" height="0.1698999999999918" fill="#252525" />
<rect x="0.8794999999999591" y="0.5296999999999754" width="0.1698999999999918" height="0.1698999999999918" fill="#252525" />
<rect x="1.0543999999999507" y="0.5296999999999754" width="0.1698999999999918" height="0.1698999999999918" fill="#252525" />
<rect x="1.2292999999999425" y="0.5296999999999754" width="0.1698999999999918" height="0.1698999999999918" fill="#0074D9" />
<rect x="1.4041999999999344" y="0.5296999999999754" width="0.1698999999999918" height="0.1698999999999918" fill="#0074D9" />
<rect x="1.5790999999999262" y="0.5296999999999754" width="0.1698999999999918" height="0.1698999999999918" fill="#252525" />
<rect x="1.753999999999918" y="0.5296999999999754" width="0.1698999999999918" height="0.1698999999999918" fill="#0074D9" />
<rect x="1.92889999999991" y="0.5296999999999754" width="0.1698999999999918" height="0.1698999999999918" fill="#0074D9" />
<rect x="2.1037999999999015" y="0.5296999999999754" width="0.1698999999999918" height="0.1698999999999918" fill="#0074D9" />
<rect x="2.2786999999998936" y="0.5296999999999754" width="0.1698999999999918" height="0.1698999999999918" fill="#252525" />
<rect x="2.453599999999885" y="0.5296999999999754" width="0.1698999999999918" height="0.1698999999999918" fill="#252525" />
<rect x="2.6284999999998773" y="0.5296999999999754" width="0.1698999999999918" height="0.1698999999999918" fill="#252525" />
<rect x="2.803399999999869" y="0.5296999999999754" width="0.1698999999999918" height="0.1698999999999918" fill="#0074D9" />
<rect x="2.9782999999998605" y="0.5296999999999754" width="0.1698999999999918" height="0.1698999999999918" fill="#0074D9" />
<rect x="3.1531999999998526" y="0.5296999999999754" width="0.1698999999999918" height="0.1698999999999918" fill="#0074D9" />
<rect x="3.328099999999844" y="0.5296999999999754" width="0.1698999999999918" height="0.1698999999999918" fill="#0074D9" />
<rect x="-0.02666666666666667" y="-0.02666666666666667" width="3.5513333333331696" height="0.7529333333333006" fill="none" stroke="#111111ff" stroke-width="0.08" />
<text x="3.4979999999998364" y="1.1683499999999674" font-size="0.375" fill="black" text-anchor="end" font-family="Anuphan">20x4</text>
<text x="-0.037500000000000006" y="1.1683499999999674" font-size="0.375" fill="black" text-anchor="start" font-family="Anuphan" font-weight="600">Output 2</text>
</g>
<g id="d7">
<rect x="0.005" y="0.005" width="0.1698999999999918" height="0.1698999999999918" fill="#0074D9" />
<rect x="0.17989999999999182" y="0.005" width="0.1698999999999918" height="0.1698999999999918" fill="#0074D9" />
<rect x="0.35479999999998363" y="0.005" width="0.1698999999999918" height="0.1698999999999918" fill="#F012BE" />
<rect x="0.5296999999999754" y="0.005" width="0.1698999999999918" height="0.1698999999999918" fill="#F012BE" />
<rect x="0.7045999999999673" y="0.005" width="0.1698999999999918" height="0.1698999999999918" fill="#F012BE" />
<rect x="0.8794999999999591" y="0.005" width="0.1698999999999918" height="0.1698999999999918" fill="#F012BE" />
<rect x="1.0543999999999507" y="0.005" width="0.1698999999999918" height="0.1698999999999918" fill="#F012BE" />
<rect x="1.2292999999999425" y="0.005" width="0.1698999999999918" height="0.1698999999999918" fill="#252525" />
<rect x="1.4041999999999344" y="0.005" width="0.1698999999999918" height="0.1698999999999918" fill="#252525" />
<rect x="1.5790999999999262" y="0.005" width="0.1698999999999918" height="0.1698999999999918" fill="#0074D9" />
<rect x="1.753999999999918" y="0.005" width="0.1698999999999918" height="0.1698999999999918" fill="#252525" />
<rect x="1.92889999999991" y="0.005" width="0.1698999999999918" height="0.1698999999999918" fill="#252525" />
<rect x="2.1037999999999015" y="0.005" width="0.1698999999999918" height="0.1698999999999918" fill="#0074D9" />
<rect x="2.2786999999998936" y="0.005" width="0.1698999999999918" height="0.1698999999999918" fill="#252525" />
<rect x="2.453599999999885" y="0.005" width="0.1698999999999918" height="0.1698999999999918" fill="#252525" />
<rect x="2.6284999999998773" y="0.005" width="0.1698999999999918" height="0.1698999999999918" fill="#0074D9" />
<rect x="2.803399999999869" y="0.005" width="0.1698999999999918" height="0.1698999999999918" fill="#252525" />
<rect x="2.9782999999998605" y="0.005" width="0.1698999999999918" height="0.1698999999999918" fill="#0074D9" />
<rect x="3.1531999999998526" y="0.005" width="0.1698999999999918" height="0.1698999999999918" fill="#252525" />
<rect x="3.328099999999844" y="0.005" width="0.1698999999999918" height="0.1698999999999918" fill="#0074D9" />
<rect x="0.005" y="0.17989999999999182" width="0.1698999999999918" height="0.1698999999999918" fill="#252525" />
<rect x="0.17989999999999182" y="0.17989999999999182" width="0.1698999999999918" height="0.1698999999999918" fill="#0074D9" />
<rect x="0.35479999999998363" y="0.17989999999999182" width="0.1698999999999918" height="0.1698999999999918" fill="#F012BE" />
<rect x="0.5296999999999754" y="0.17989999999999182" width="0.1698999999999918" height="0.1698999999999918" fill="#F012BE" />
<rect x="0.7045999999999673" y="0.17989999999999182" width="0.1698999999999918" height="0.1698999999999918" fill="#F012BE" />
<rect x="0.8794999999999591" y="0.17989999999999182" width="0.1698999999999918" height="0.1698999999999918" fill="#F012BE" />
<rect x="1.0543999999999507" y="0.17989999999999182" width="0.1698999999999918" height="0.1698999999999918" fill="#F012BE" />
<rect x="1.2292999999999425" y="0.17989999999999182" width="0.1698999999999918" height="0.1698999999999918" fill="#0074D9" />
<rect x="1.4041999999999344" y="0.17989999999999182" width="0.1698999999999918" height="0.1698999999999918" fill="#0074D9" />
<rect x="1.5790999999999262" y="0.17989999999999182" width="0.1698999999999918" height="0.1698999999999918" fill="#0074D9" />
<rect x="1.753999999999918" y="0.17989999999999182" width="0.1698999999999918" height="0.1698999999999918" fill="#0074D9" />
<rect x="1.92889999999991" y="0.17989999999999182" width="0.1698999999999918" height="0.1698999999999918" fill="#252525" />
<rect x="2.1037999999999015" y="0.17989999999999182" width="0.1698999999999918" height="0.1698999999999918" fill="#252525" />
<rect x="2.2786999999998936" y="0.17989999999999182" width="0.1698999999999918" height="0.1698999999999918" fill="#0074D9" />
<rect x="2.453599999999885" y="0.17989999999999182" width="0.1698999999999918" height="0.1698999999999918" fill="#0074D9" />
<rect x="2.6284999999998773" y="0.17989999999999182" width="0.1698999999999918" height="0.1698999999999918" fill="#252525" />
<rect x="2.803399999999869" y="0.17989999999999182" width="0.1698999999999918" height="0.1698999999999918" fill="#252525" />
<rect x="2.9782999999998605" y="0.17989999999999182" width="0.1698999999999918" height="0.1698999999999918" fill="#252525" />
<rect x="3.1531999999998526" y="0.17989999999999182" width="0.1698999999999918" height="0.1698999999999918" fill="#252525" />
<rect x="3.328099999999844" y="0.17989999999999182" width="0.1698999999999918" height="0.1698999999999918" fill="#252525" />
<rect x="-0.02666666666666667" y="-0.02666666666666667" width="3.5513333333331696" height="0.40313333333331697" fill="none" stroke="#111111ff" stroke-width="0.08" />
<text x="3.4979999999998364" y="0.8185499999999837" font-size="0.375" fill="black" text-anchor="end" font-family="Anuphan">20x2</text>
<text x="-0.037500000000000006" y="0.8185499999999837" font-size="0.375" fill="black" text-anchor="start" font-family="Anuphan" font-weight="600">Output 3</text>
</g>
<g id="d8">
<rect x="0.005" y="0.005" width="0.1698999999999918" height="0.1698999999999918" fill="#252525" />
<rect x="0.17989999999999182" y="0.005" width="0.1698999999999918" height="0.1698999999999918" fill="#252525" />
<rect x="0.35479999999998363" y="0.005" width="0.1698999999999918" height="0.1698999999999918" fill="#0074D9" />
<rect x="0.5296999999999754" y="0.005" width="0.1698999999999918" height="0.1698999999999918" fill="#252525" />
<rect x="0.7045999999999673" y="0.005" width="0.1698999999999918" height="0.1698999999999918" fill="#252525" />
<rect x="0.8794999999999591" y="0.005" width="0.1698999999999918" height="0.1698999999999918" fill="#0074D9" />
<rect x="1.0543999999999507" y="0.005" width="0.1698999999999918" height="0.1698999999999918" fill="#252525" />
<rect x="1.2292999999999425" y="0.005" width="0.1698999999999918" height="0.1698999999999918" fill="#252525" />
<rect x="1.4041999999999344" y="0.005" width="0.1698999999999918" height="0.1698999999999918" fill="#252525" />
<rect x="1.5790999999999262" y="0.005" width="0.1698999999999918" height="0.1698999999999918" fill="#0074D9" />
<rect x="1.753999999999918" y="0.005" width="0.1698999999999918" height="0.1698999999999918" fill="#0074D9" />
<rect x="1.92889999999991" y="0.005" width="0.1698999999999918" height="0.1698999999999918" fill="#0074D9" />
<rect x="2.1037999999999015" y="0.005" width="0.1698999999999918" height="0.1698999999999918" fill="#0074D9" />
<rect x="2.2786999999998936" y="0.005" width="0.1698999999999918" height="0.1698999999999918" fill="#0074D9" />
<rect x="2.453599999999885" y="0.005" width="0.1698999999999918" height="0.1698999999999918" fill="#252525" />
<rect x="2.6284999999998773" y="0.005" width="0.1698999999999918" height="0.1698999999999918" fill="#252525" />
<rect x="2.803399999999869" y="0.005" width="0.1698999999999918" height="0.1698999999999918" fill="#252525" />
<rect x="2.9782999999998605" y="0.005" width="0.1698999999999918" height="0.1698999999999918" fill="#F012BE" />
<rect x="3.1531999999998526" y="0.005" width="0.1698999999999918" height="0.1698999999999918" fill="#F012BE" />
<rect x="3.328099999999844" y="0.005" width="0.1698999999999918" height="0.1698999999999918" fill="#F012BE" />
<rect x="0.005" y="0.17989999999999182" width="0.1698999999999918" height="0.1698999999999918" fill="#0074D9" />
<rect x="0.17989999999999182" y="0.17989999999999182" width="0.1698999999999918" height="0.1698999999999918" fill="#252525" />
<rect x="0.35479999999998363" y="0.17989999999999182" width="0.1698999999999918" height="0.1698999999999918" fill="#252525" />
<rect x="0.5296999999999754" y="0.17989999999999182" width="0.1698999999999918" height="0.1698999999999918" fill="#252525" />
<rect x="0.7045999999999673" y="0.17989999999999182" width="0.1698999999999918" height="0.1698999999999918" fill="#252525" />
<rect x="0.8794999999999591" y="0.17989999999999182" width="0.1698999999999918" height="0.1698999999999918" fill="#0074D9" />
<rect x="1.0543999999999507" y="0.17989999999999182" width="0.1698999999999918" height="0.1698999999999918" fill="#0074D9" />
<rect x="1.2292999999999425" y="0.17989999999999182" width="0.1698999999999918" height="0.1698999999999918" fill="#252525" />
<rect x="1.4041999999999344" y="0.17989999999999182" width="0.1698999999999918" height="0.1698999999999918" fill="#252525" />
<rect x="1.5790999999999262" y="0.17989999999999182" width="0.1698999999999918" height="0.1698999999999918" fill="#0074D9" />
<rect x="1.753999999999918" y="0.17989999999999182" width="0.1698999999999918" height="0.1698999999999918" fill="#252525" />
<rect x="1.92889999999991" y="0.17989999999999182" width="0.1698999999999918" height="0.1698999999999918" fill="#252525" />
<rect x="2.1037999999999015" y="0.17989999999999182" width="0.1698999999999918" height="0.1698999999999918" fill="#252525" />
<rect x="2.2786999999998936" y="0.17989999999999182" width="0.1698999999999918" height="0.1698999999999918" fill="#252525" />
<rect x="2.453599999999885" y="0.17989999999999182" width="0.1698999999999918" height="0.1698999999999918" fill="#252525" />
<rect x="2.6284999999998773" y="0.17989999999999182" width="0.1698999999999918" height="0.1698999999999918" fill="#0074D9" />
<rect x="2.803399999999869" y="0.17989999999999182" width="0.1698999999999918" height="0.1698999999999918" fill="#252525" />
<rect x="2.9782999999998605" y="0.17989999999999182" width="0.1698999999999918" height="0.1698999999999918" fill="#F012BE" />
<rect x="3.1531999999998526" y="0.17989999999999182" width="0.1698999999999918" height="0.1698999999999918" fill="#F012BE" />
<rect x="3.328099999999844" y="0.17989999999999182" width="0.1698999999999918" height="0.1698999999999918" fill="#F012BE" />
<rect x="0.005" y="0.35479999999998363" width="0.1698999999999918" height="0.1698999999999918" fill="#0074D9" />
<rect x="0.17989999999999182" y="0.35479999999998363" width="0.1698999999999918" height="0.1698999999999918" fill="#252525" />
<rect x="0.35479999999998363" y="0.35479999999998363" width="0.1698999999999918" height="0.1698999999999918" fill="#0074D9" />
<rect x="0.5296999999999754" y="0.35479999999998363" width="0.1698999999999918" height="0.1698999999999918" fill="#0074D9" />
<rect x="0.7045999999999673" y="0.35479999999998363" width="0.1698999999999918" height="0.1698999999999918" fill="#252525" />
<rect x="0.8794999999999591" y="0.35479999999998363" width="0.1698999999999918" height="0.1698999999999918" fill="#252525" />
<rect x="1.0543999999999507" y="0.35479999999998363" width="0.1698999999999918" height="0.1698999999999918" fill="#0074D9" />
<rect x="1.2292999999999425" y="0.35479999999998363" width="0.1698999999999918" height="0.1698999999999918" fill="#252525" />
<rect x="1.4041999999999344" y="0.35479999999998363" width="0.1698999999999918" height="0.1698999999999918" fill="#0074D9" />
<rect x="1.5790999999999262" y="0.35479999999998363" width="0.1698999999999918" height="0.1698999999999918" fill="#252525" />
<rect x="1.753999999999918" y="0.35479999999998363" width="0.1698999999999918" height="0.1698999999999918" fill="#0074D9" />
<rect x="1.92889999999991" y="0.35479999999998363" width="0.1698999999999918" height="0.1698999999999918" fill="#252525" />
<rect x="2.1037999999999015" y="0.35479999999998363" width="0.1698999999999918" height="0.1698999999999918" fill="#0074D9" />
<rect x="2.2786999999998936" y="0.35479999999998363" width="0.1698999999999918" height="0.1698999999999918" fill="#252525" />
<rect x="2.453599999999885" y="0.35479999999998363" width="0.1698999999999918" height="0.1698999999999918" fill="#252525" />
<rect x="2.6284999999998773" y="0.35479999999998363" width="0.1698999999999918" height="0.1698999999999918" fill="#252525" />
<rect x="2.803399999999869" y="0.35479999999998363" width="0.1698999999999918" height="0.1698999999999918" fill="#0074D9" />
<rect x="2.9782999999998605" y="0.35479999999998363" width="0.1698999999999918" height="0.1698999999999918" fill="#F012BE" />
<rect x="3.1531999999998526" y="0.35479999999998363" width="0.1698999999999918" height="0.1698999999999918" fill="#F012BE" />
<rect x="3.328099999999844" y="0.35479999999998363" width="0.1698999999999918" height="0.1698999999999918" fill="#F012BE" />
<rect x="0.005" y="0.5296999999999754" width="0.1698999999999918" height="0.1698999999999918" fill="#252525" />
<rect x="0.17989999999999182" y="0.5296999999999754" width="0.1698999999999918" height="0.1698999999999918" fill="#252525" />
<rect x="0.35479999999998363" y="0.5296999999999754" width="0.1698999999999918" height="0.1698999999999918" fill="#0074D9" />
<rect x="0.5296999999999754" y="0.5296999999999754" width="0.1698999999999918" height="0.1698999999999918" fill="#252525" />
<rect x="0.7045999999999673" y="0.5296999999999754" width="0.1698999999999918" height="0.1698999999999918" fill="#252525" />
<rect x="0.8794999999999591" y="0.5296999999999754" width="0.1698999999999918" height="0.1698999999999918" fill="#252525" />
<rect x="1.0543999999999507" y="0.5296999999999754" width="0.1698999999999918" height="0.1698999999999918" fill="#0074D9" />
<rect x="1.2292999999999425" y="0.5296999999999754" width="0.1698999999999918" height="0.1698999999999918" fill="#0074D9" />
<rect x="1.4041999999999344" y="0.5296999999999754" width="0.1698999999999918" height="0.1698999999999918" fill="#252525" />
<rect x="1.5790999999999262" y="0.5296999999999754" width="0.1698999999999918" height="0.1698999999999918" fill="#252525" />
<rect x="1.753999999999918" y="0.5296999999999754" width="0.1698999999999918" height="0.1698999999999918" fill="#0074D9" />
<rect x="1.92889999999991" y="0.5296999999999754" width="0.1698999999999918" height="0.1698999999999918" fill="#0074D9" />
<rect x="2.1037999999999015" y="0.5296999999999754" width="0.1698999999999918" height="0.1698999999999918" fill="#0074D9" />
<rect x="2.2786999999998936" y="0.5296999999999754" width="0.1698999999999918" height="0.1698999999999918" fill="#0074D9" />
<rect x="2.453599999999885" y="0.5296999999999754" width="0.1698999999999918" height="0.1698999999999918" fill="#0074D9" />
<rect x="2.6284999999998773" y="0.5296999999999754" width="0.1698999999999918" height="0.1698999999999918" fill="#0074D9" />
<rect x="2.803399999999869" y="0.5296999999999754" width="0.1698999999999918" height="0.1698999999999918" fill="#0074D9" />
<rect x="2.9782999999998605" y="0.5296999999999754" width="0.1698999999999918" height="0.1698999999999918" fill="#252525" />
<rect x="3.1531999999998526" y="0.5296999999999754" width="0.1698999999999918" height="0.1698999999999918" fill="#252525" />
<rect x="3.328099999999844" y="0.5296999999999754" width="0.1698999999999918" height="0.1698999999999918" fill="#0074D9" />
<rect x="-0.02666666666666667" y="-0.02666666666666667" width="3.5513333333331696" height="0.7529333333333006" fill="none" stroke="#111111ff" stroke-width="0.08" />
<text x="3.4979999999998364" y="1.1683499999999674" font-size="0.375" fill="black" text-anchor="end" font-family="Anuphan">20x4</text>
<text x="-0.037500000000000006" y="1.1683499999999674" font-size="0.375" fill="black" text-anchor="start" font-family="Anuphan" font-weight="600">Output 4</text>
</g>
</defs>
<rect x="0" y="0" width="100%" height="100%" fill="#eeeff6" />
<use xlink:href="#d0" x="0.25" y="0.25" />
<use xlink:href="#d1" x="4.247999999999836" y="0.25" />
<use xlink:href="#d2" x="8.245999999999672" y="0.25" />
<use xlink:href="#d3" x="12.24399999999951" y="0.25" />
<use xlink:href="#d4" x="16.241999999999344" y="0.25" />
<path d="M1.9989999999999182,1.5995999999999673 L1.9989999999999182,1.9995999999999672" stroke-width="0.05" stroke="#888888" />
<path d="M1.8489999999999183,1.7995999999999672 L1.9989999999999182,1.9995999999999672" stroke-width="0.05" stroke="#888888" />
<path d="M2.1489999999999183,1.7995999999999672 L1.9989999999999182,1.9995999999999672" stroke-width="0.05" stroke="#888888" />
<use xlink:href="#d5" x="0.25" y="2.3495999999999673" />
<path d="M5.996999999999755,1.5995999999999673 L5.996999999999755,1.9995999999999672" stroke-width="0.05" stroke="#888888" />
<path d="M5.846999999999754,1.7995999999999672 L5.996999999999755,1.9995999999999672" stroke-width="0.05" stroke="#888888" />
<path d="M6.146999999999755,1.7995999999999672 L5.996999999999755,1.9995999999999672" stroke-width="0.05" stroke="#888888" />
<use xlink:href="#d6" x="4.247999999999836" y="2.3495999999999673" />
<path d="M9.99499999999959,1.5995999999999673 L9.99499999999959,1.9995999999999672" stroke-width="0.05" stroke="#888888" />
<path d="M9.84499999999959,1.7995999999999672 L9.99499999999959,1.9995999999999672" stroke-width="0.05" stroke="#888888" />
<path d="M10.144999999999591,1.7995999999999672 L9.99499999999959,1.9995999999999672" stroke-width="0.05" stroke="#888888" />
<use xlink:href="#d7" x="8.245999999999672" y="2.3495999999999673" />
<path d="M13.992999999999428,1.5995999999999673 L13.992999999999428,1.9995999999999672" stroke-width="0.05" stroke="#888888" />
<path d="M13.842999999999428,1.7995999999999672 L13.992999999999428,1.9995999999999672" stroke-width="0.05" stroke="#888888" />
<path d="M14.142999999999429,1.7995999999999672 L13.992999999999428,1.9995999999999672" stroke-width="0.05" stroke="#888888" />
<use xlink:href="#d8" x="12.24399999999951" y="2.3495999999999673" />
<path d="M17.990999999999264,1.5995999999999673 L17.990999999999264,1.9995999999999672" stroke-width="0.05" stroke="#888888" />
<path d="M17.840999999999266,1.7995999999999672 L17.990999999999264,1.9995999999999672" stroke-width="0.05" stroke="#888888" />
<path d="M18.140999999999263,1.7995999999999672 L17.990999999999264,1.9995999999999672" stroke-width="0.05" stroke="#888888" />
<text x="17.990999999999264" y="2.7410999999999537" font-size="1" font-family="Anuphan" font-weight="700" fill="#333333" text-anchor="middle" alignment-baseline="middle">?</text>
<text x="19.9" y="3.9" font-size="0.3" font-family="Anuphan" font-weight="600" fill="#666666" text-anchor="end" alignment-baseline="bottom">Task 3eda0437</text>
</svg>