<?xml version="1.0" encoding="UTF-8"?>
<svg xmlns="http://www.w3.org/2000/svg" xmlns:xlink="http://www.w3.org/1999/xlink"
     width="800.0" height="536.0" viewBox="0 0 20.0 13.399999999999999">
<defs>
<g id="d0">
<rect x="0.005" y="0.005" width="0.9780952380952206" height="0.9780952380952206" fill="#252525" />
<rect x="0.9880952380952206" y="0.005" width="0.9780952380952206" height="0.9780952380952206" fill="#252525" />
<rect x="1.971190476190441" y="0.005" width="0.9780952380952206" height="0.9780952380952206" fill="#252525" />
<rect x="2.954285714285662" y="0.005" width="0.9780952380952206" height="0.9780952380952206" fill="#FF871E" />
<rect x="3.9373809523808823" y="0.005" width="0.9780952380952206" height="0.9780952380952206" fill="#252525" />
<rect x="4.920476190476103" y="0.005" width="0.9780952380952206" height="0.9780952380952206" fill="#252525" />
<rect x="5.903571428571324" y="0.005" width="0.9780952380952206" height="0.9780952380952206" fill="#252525" />
<rect x="0.005" y="0.9880952380952206" width="0.9780952380952206" height="0.9780952380952206" fill="#252525" />
<rect x="0.9880952380952206" y="0.9880952380952206" width="0.9780952380952206" height="0.9780952380952206" fill="#252525" />
<rect x="1.971190476190441" y="0.9880952380952206" width="0.9780952380952206" height="0.9780952380952206" fill="#252525" />
<rect x="2.954285714285662" y="0.9880952380952206" width="0.9780952380952206" height="0.9780952380952206" fill="#FF871E" />
<rect x="3.9373809523808823" y="0.9880952380952206" width="0.9780952380952206" height="0.9780952380952206" fill="#252525" />
<rect x="4.920476190476103" y="0.9880952380952206" width="0.9780952380952206" height="0.9780952380952206" fill="#252525" />
<rect x="5.903571428571324" y="0.9880952380952206" width="0.9780952380952206" height="0.9780952380952206" fill="#252525" />
<rect x="0.005" y="1.971190476190441" width="0.9780952380952206" height="0.9780952380952206" fill="#252525" />
<rect x="0.9880952380952206" y="1.971190476190441" width="0.9780952380952206" height="0.9780952380952206" fill="#252525" />
<rect x="1.971190476190441" y="1.971190476190441" width="0.9780952380952206" height="0.9780952380952206" fill="#252525" />
<rect x="2.954285714285662" y="1.971190476190441" width="0.9780952380952206" height="0.9780952380952206" fill="#FF871E" />
<rect x="3.9373809523808823" y="1.971190476190441" width="0.9780952380952206" height="0.9780952380952206" fill="#252525" />
<rect x="4.920476190476103" y="1.971190476190441" width="0.9780952380952206" height="0.9780952380952206" fill="#252525" />
<rect x="5.903571428571324" y="1.971190476190441" width="0.9780952380952206" height="0.9780952380952206" fill="#252525" />
<rect x="0.005" y="2.954285714285662" width="0.9780952380952206" height="0.9780952380952206" fill="#252525" />
<rect x="0.9880952380952206" y="2.954285714285662" width="0.9780952380952206" height="0.9780952380952206" fill="#252525" />
<rect x="1.971190476190441" y="2.954285714285662" width="0.9780952380952206" height="0.9780952380952206" fill="#252525" />
<rect x="2.954285714285662" y="2.954285714285662" width="0.9780952380952206" height="0.9780952380952206" fill="#FF871E" />
<rect x="3.9373809523808823" y="2.954285714285662" width="0.9780952380952206" height="0.9780952380952206" fill="#252525" />
<rect x="4.920476190476103" y="2.954285714285662" width="0.9780952380952206" height="0.9780952380952206" fill="#252525" />
<rect x="5.903571428571324" y="2.954285714285662" width="0.9780952380952206" height="0.9780952380952206" fill="#252525" />
<rect x="0.005" y="3.9373809523808823" width="0.9780952380952206" height="0.9780952380952206" fill="#252525" />
<rect x="0.9880952380952206" y="3.9373809523808823" width="0.9780952380952206" height="0.9780952380952206" fill="#252525" />
<rect x="1.971190476190441" y="3.9373809523808823" width="0.9780952380952206" height="0.9780952380952206" fill="#252525" />
<rect x="2.954285714285662" y="3.9373809523808823" width="0.9780952380952206" height="0.9780952380952206" fill="#252525" />
<rect x="3.9373809523808823" y="3.9373809523808823" width="0.9780952380952206" height="0.9780952380952206" fill="#252525" />
<rect x="4.920476190476103" y="3.9373809523808823" width="0.9780952380952206" height="0.9780952380952206" fill="#252525" />
<rect x="5.903571428571324" y="3.9373809523808823" width="0.9780952380952206" height="0.9780952380952206" fill="#252525" />
<rect x="-0.02666666666666667" y="-0.02666666666666667" width="6.934999999999878" height="4.968809523809437" fill="none" stroke="#111111ff" stroke-width="0.08" />
<text x="6.881666666666544" y="5.384226190476103" font-size="0.375" fill="black" text-anchor="end" font-family="Anuphan">7x5</text>
<text x="-0.037500000000000006" y="5.384226190476103" font-size="0.375" fill="black" text-anchor="start" font-family="Anuphan" font-weight="600">Input 1</text>
</g>
<g id="d1">
<rect x="0.005" y="0.005" width="0.7689583333333199" height="0.7689583333333199" fill="#252525" />
<rect x="0.7789583333333199" y="0.005" width="0.7689583333333199" height="0.7689583333333199" fill="#252525" />
<rect x="1.5529166666666396" y="0.005" width="0.7689583333333199" height="0.7689583333333199" fill="#FF871E" />
<rect x="2.3268749999999594" y="0.005" width="0.7689583333333199" height="0.7689583333333199" fill="#252525" />
<rect x="3.1008333333332794" y="0.005" width="0.7689583333333199" height="0.7689583333333199" fill="#252525" />
<rect x="3.8747916666665994" y="0.005" width="0.7689583333333199" height="0.7689583333333199" fill="#252525" />
<rect x="4.648749999999919" y="0.005" width="0.7689583333333199" height="0.7689583333333199" fill="#252525" />
<rect x="5.422708333333239" y="0.005" width="0.7689583333333199" height="0.7689583333333199" fill="#252525" />
<rect x="0.005" y="0.7789583333333199" width="0.7689583333333199" height="0.7689583333333199" fill="#252525" />
<rect x="0.7789583333333199" y="0.7789583333333199" width="0.7689583333333199" height="0.7689583333333199" fill="#252525" />
<rect x="1.5529166666666396" y="0.7789583333333199" width="0.7689583333333199" height="0.7689583333333199" fill="#FF871E" />
<rect x="2.3268749999999594" y="0.7789583333333199" width="0.7689583333333199" height="0.7689583333333199" fill="#252525" />
<rect x="3.1008333333332794" y="0.7789583333333199" width="0.7689583333333199" height="0.7689583333333199" fill="#252525" />
<rect x="3.8747916666665994" y="0.7789583333333199" width="0.7689583333333199" height="0.7689583333333199" fill="#252525" />
<rect x="4.648749999999919" y="0.7789583333333199" width="0.7689583333333199" height="0.7689583333333199" fill="#252525" />
<rect x="5.422708333333239" y="0.7789583333333199" width="0.7689583333333199" height="0.7689583333333199" fill="#252525" />
<rect x="0.005" y="1.5529166666666396" width="0.7689583333333199" height="0.7689583333333199" fill="#252525" />
<rect x="0.7789583333333199" y="1.5529166666666396" width="0.7689583333333199" height="0.7689583333333199" fill="#252525" />
<rect x="1.5529166666666396" y="1.5529166666666396" width="0.7689583333333199" height="0.7689583333333199" fill="#FF871E" />
<rect x="2.3268749999999594" y="1.5529166666666396" width="0.7689583333333199" height="0.7689583333333199" fill="#252525" />
<rect x="3.1008333333332794" y="1.5529166666666396" width="0.7689583333333199" height="0.7689583333333199" fill="#252525" />
<rect x="3.8747916666665994" y="1.5529166666666396" width="0.7689583333333199" height="0.7689583333333199" fill="#252525" />
<rect x="4.648749999999919" y="1.5529166666666396" width="0.7689583333333199" height="0.7689583333333199" fill="#252525" />
<rect x="5.422708333333239" y="1.5529166666666396" width="0.7689583333333199" height="0.7689583333333199" fill="#252525" />
<rect x="0.005" y="2.3268749999999594" width="0.7689583333333199" height="0.7689583333333199" fill="#252525" />
<rect x="0.7789583333333199" y="2.3268749999999594" width="0.7689583333333199" height="0.7689583333333199" fill="#252525" />
<rect x="1.5529166666666396" y="2.3268749999999594" width="0.7689583333333199" height="0.7689583333333199" fill="#FF871E" />
<rect x="2.3268749999999594" y="2.3268749999999594" width="0.7689583333333199" height="0.7689583333333199" fill="#252525" />
<rect x="3.1008333333332794" y="2.3268749999999594" width="0.7689583333333199" height="0.7689583333333199" fill="#252525" />
<rect x="3.8747916666665994" y="2.3268749999999594" width="0.7689583333333199" height="0.7689583333333199" fill="#252525" />
<rect x="4.648749999999919" y="2.3268749999999594" width="0.7689583333333199" height="0.7689583333333199" fill="#252525" />
<rect x="5.422708333333239" y="2.3268749999999594" width="0.7689583333333199" height="0.7689583333333199" fill="#252525" />
<rect x="0.005" y="3.1008333333332794" width="0.7689583333333199" height="0.7689583333333199" fill="#252525" />
<rect x="0.7789583333333199" y="3.1008333333332794" width="0.7689583333333199" height="0.7689583333333199" fill="#252525" />
<rect x="1.5529166666666396" y="3.1008333333332794" width="0.7689583333333199" height="0.7689583333333199" fill="#FF871E" />
<rect x="2.3268749999999594" y="3.1008333333332794" width="0.7689583333333199" height="0.7689583333333199" fill="#252525" />
<rect x="3.1008333333332794" y="3.1008333333332794" width="0.7689583333333199" height="0.7689583333333199" fill="#252525" />
<rect x="3.8747916666665994" y="3.1008333333332794" width="0.7689583333333199" height="0.7689583333333199" fill="#252525" />
<rect x="4.648749999999919" y="3.1008333333332794" width="0.7689583333333199" height="0.7689583333333199" fill="#252525" />
<rect x="5.422708333333239" y="3.1008333333332794" width="0.7689583333333199" height="0.7689583333333199" fill="#252525" />
<rect x="0.005" y="3.8747916666665994" width="0.7689583333333199" height="0.7689583333333199" fill="#252525" />
<rect x="0.7789583333333199" y="3.8747916666665994" width="0.7689583333333199" height="0.7689583333333199" fill="#252525" />
<rect x="1.5529166666666396" y="3.8747916666665994" width="0.7689583333333199" height="0.7689583333333199" fill="#252525" />
<rect x="2.3268749999999594" y="3.8747916666665994" width="0.7689583333333199" height="0.7689583333333199" fill="#252525" />
<rect x="3.1008333333332794" y="3.8747916666665994" width="0.7689583333333199" height="0.7689583333333199" fill="#252525" />
<rect x="3.8747916666665994" y="3.8747916666665994" width="0.7689583333333199" height="0.7689583333333199" fill="#252525" />
<rect x="4.648749999999919" y="3.8747916666665994" width="0.7689583333333199" height="0.7689583333333199" fill="#252525" />
<rect x="5.422708333333239" y="3.8747916666665994" width="0.7689583333333199" height="0.7689583333333199" fill="#252525" />
<rect x="0.005" y="4.648749999999919" width="0.7689583333333199" height="0.7689583333333199" fill="#252525" />
<rect x="0.7789583333333199" y="4.648749999999919" width="0.7689583333333199" height="0.7689583333333199" fill="#252525" />
<rect x="1.5529166666666396" y="4.648749999999919" width="0.7689583333333199" height="0.7689583333333199" fill="#252525" />
<rect x="2.3268749999999594" y="4.648749999999919" width="0.7689583333333199" height="0.7689583333333199" fill="#252525" />
<rect x="3.1008333333332794" y="4.648749999999919" width="0.7689583333333199" height="0.7689583333333199" fill="#252525" />
<rect x="3.8747916666665994" y="4.648749999999919" width="0.7689583333333199" height="0.7689583333333199" fill="#252525" />
<rect x="4.648749999999919" y="4.648749999999919" width="0.7689583333333199" height="0.7689583333333199" fill="#252525" />
<rect x="5.422708333333239" y="4.648749999999919" width="0.7689583333333199" height="0.7689583333333199" fill="#252525" />
<rect x="-0.02666666666666667" y="-0.02666666666666667" width="6.244999999999893" height="5.471041666666573" fill="none" stroke="#111111ff" stroke-width="0.08" />
<text x="6.191666666666559" y="5.886458333333239" font-size="0.375" fill="black" text-anchor="end" font-family="Anuphan">8x7</text>
<text x="-0.037500000000000006" y="5.886458333333239" font-size="0.375" fill="black" text-anchor="start" font-family="Anuphan" font-weight="600">Input 2</text>
</g>
<g id="d2">
<rect x="0.005" y="0.005" width="0.5968518518518418" height="0.5968518518518418" fill="#252525" />
<rect x="0.6068518518518418" y="0.005" width="0.5968518518518418" height="0.5968518518518418" fill="#252525" />
<rect x="1.2087037037036834" y="0.005" width="0.5968518518518418" height="0.5968518518518418" fill="#252525" />
<rect x="1.810555555555525" y="0.005" width="0.5968518518518418" height="0.5968518518518418" fill="#252525" />
<rect x="2.412407407407367" y="0.005" width="0.5968518518518418" height="0.5968518518518418" fill="#252525" />
<rect x="3.014259259259209" y="0.005" width="0.5968518518518418" height="0.5968518518518418" fill="#FF871E" />
<rect x="3.61611111111105" y="0.005" width="0.5968518518518418" height="0.5968518518518418" fill="#252525" />
<rect x="4.2179629629628925" y="0.005" width="0.5968518518518418" height="0.5968518518518418" fill="#252525" />
<rect x="4.819814814814734" y="0.005" width="0.5968518518518418" height="0.5968518518518418" fill="#252525" />
<rect x="0.005" y="0.6068518518518418" width="0.5968518518518418" height="0.5968518518518418" fill="#252525" />
<rect x="0.6068518518518418" y="0.6068518518518418" width="0.5968518518518418" height="0.5968518518518418" fill="#252525" />
<rect x="1.2087037037036834" y="0.6068518518518418" width="0.5968518518518418" height="0.5968518518518418" fill="#252525" />
<rect x="1.810555555555525" y="0.6068518518518418" width="0.5968518518518418" height="0.5968518518518418" fill="#252525" />
<rect x="2.412407407407367" y="0.6068518518518418" width="0.5968518518518418" height="0.5968518518518418" fill="#252525" />
<rect x="3.014259259259209" y="0.6068518518518418" width="0.5968518518518418" height="0.5968518518518418" fill="#FF871E" />
<rect x="3.61611111111105" y="0.6068518518518418" width="0.5968518518518418" height="0.5968518518518418" fill="#252525" />
<rect x="4.2179629629628925" y="0.6068518518518418" width="0.5968518518518418" height="0.5968518518518418" fill="#252525" />
<rect x="4.819814814814734" y="0.6068518518518418" width="0.5968518518518418" height="0.5968518518518418" fill="#252525" />
<rect x="0.005" y="1.2087037037036834" width="0.5968518518518418" height="0.5968518518518418" fill="#252525" />
<rect x="0.6068518518518418" y="1.2087037037036834" width="0.5968518518518418" height="0.5968518518518418" fill="#252525" />
<rect x="1.2087037037036834" y="1.2087037037036834" width="0.5968518518518418" height="0.5968518518518418" fill="#252525" />
<rect x="1.810555555555525" y="1.2087037037036834" width="0.5968518518518418" height="0.5968518518518418" fill="#252525" />
<rect x="2.412407407407367" y="1.2087037037036834" width="0.5968518518518418" height="0.5968518518518418" fill="#252525" />
<rect x="3.014259259259209" y="1.2087037037036834" width="0.5968518518518418" height="0.5968518518518418" fill="#FF871E" />
<rect x="3.61611111111105" y="1.2087037037036834" width="0.5968518518518418" height="0.5968518518518418" fill="#252525" />
<rect x="4.2179629629628925" y="1.2087037037036834" width="0.5968518518518418" height="0.5968518518518418" fill="#252525" />
<rect x="4.819814814814734" y="1.2087037037036834" width="0.5968518518518418" height="0.5968518518518418" fill="#252525" />
<rect x="0.005" y="1.810555555555525" width="0.5968518518518418" height="0.5968518518518418" fill="#252525" />
<rect x="0.6068518518518418" y="1.810555555555525" width="0.5968518518518418" height="0.5968518518518418" fill="#252525" />
<rect x="1.2087037037036834" y="1.810555555555525" width="0.5968518518518418" height="0.5968518518518418" fill="#252525" />
<rect x="1.810555555555525" y="1.810555555555525" width="0.5968518518518418" height="0.5968518518518418" fill="#252525" />
<rect x="2.412407407407367" y="1.810555555555525" width="0.5968518518518418" height="0.5968518518518418" fill="#252525" />
<rect x="3.014259259259209" y="1.810555555555525" width="0.5968518518518418" height="0.5968518518518418" fill="#FF871E" />
<rect x="3.61611111111105" y="1.810555555555525" width="0.5968518518518418" height="0.5968518518518418" fill="#252525" />
<rect x="4.2179629629628925" y="1.810555555555525" width="0.5968518518518418" height="0.5968518518518418" fill="#252525" />
<rect x="4.819814814814734" y="1.810555555555525" width="0.5968518518518418" height="0.5968518518518418" fill="#252525" />
<rect x="0.005" y="2.412407407407367" width="0.5968518518518418" height="0.5968518518518418" fill="#252525" />
<rect x="0.6068518518518418" y="2.412407407407367" width="0.5968518518518418" height="0.5968518518518418" fill="#252525" />
<rect x="1.2087037037036834" y="2.412407407407367" width="0.5968518518518418" height="0.5968518518518418" fill="#252525" />
<rect x="1.810555555555525" y="2.412407407407367" width="0.5968518518518418" height="0.5968518518518418" fill="#252525" />
<rect x="2.412407407407367" y="2.412407407407367" width="0.5968518518518418" height="0.5968518518518418" fill="#252525" />
<rect x="3.014259259259209" y="2.412407407407367" width="0.5968518518518418" height="0.5968518518518418" fill="#FF871E" />
<rect x="3.61611111111105" y="2.412407407407367" width="0.5968518518518418" height="0.5968518518518418" fill="#252525" />
<rect x="4.2179629629628925" y="2.412407407407367" width="0.5968518518518418" height="0.5968518518518418" fill="#252525" />
<rect x="4.819814814814734" y="2.412407407407367" width="0.5968518518518418" height="0.5968518518518418" fill="#252525" />
<rect x="0.005" y="3.014259259259209" width="0.5968518518518418" height="0.5968518518518418" fill="#252525" />
<rect x="0.6068518518518418" y="3.014259259259209" width="0.5968518518518418" height="0.5968518518518418" fill="#252525" />
<rect x="1.2087037037036834" y="3.014259259259209" width="0.5968518518518418" height="0.5968518518518418" fill="#252525" />
<rect x="1.810555555555525" y="3.014259259259209" width="0.5968518518518418" height="0.5968518518518418" fill="#252525" />
<rect x="2.412407407407367" y="3.014259259259209" width="0.5968518518518418" height="0.5968518518518418" fill="#252525" />
<rect x="3.014259259259209" y="3.014259259259209" width="0.5968518518518418" height="0.5968518518518418" fill="#FF871E" />
<rect x="3.61611111111105" y="3.014259259259209" width="0.5968518518518418" height="0.5968518518518418" fill="#252525" />
<rect x="4.2179629629628925" y="3.014259259259209" width="0.5968518518518418" height="0.5968518518518418" fill="#252525" />
<rect x="4.819814814814734" y="3.014259259259209" width="0.5968518518518418" height="0.5968518518518418" fill="#252525" />
<rect x="0.005" y="3.61611111111105" width="0.5968518518518418" height="0.5968518518518418" fill="#252525" />
<rect x="0.6068518518518418" y="3.61611111111105" width="0.5968518518518418" height="0.5968518518518418" fill="#252525" />
<rect x="1.2087037037036834" y="3.61611111111105" width="0.5968518518518418" height="0.5968518518518418" fill="#252525" />
<rect x="1.810555555555525" y="3.61611111111105" width="0.5968518518518418" height="0.5968518518518418" fill="#252525" />
<rect x="2.412407407407367" y="3.61611111111105" width="0.5968518518518418" height="0.5968518518518418" fill="#252525" />
<rect x="3.014259259259209" y="3.61611111111105" width="0.5968518518518418" height="0.5968518518518418" fill="#FF871E" />
<rect x="3.61611111111105" y="3.61611111111105" width="0.5968518518518418" height="0.5968518518518418" fill="#252525" />
<rect x="4.2179629629628925" y="3.61611111111105" width="0.5968518518518418" height="0.5968518518518418" fill="#252525" />
<rect x="4.819814814814734" y="3.61611111111105" width="0.5968518518518418" height="0.5968518518518418" fill="#252525" />
<rect x="0.005" y="4.2179629629628925" width="0.5968518518518418" height="0.5968518518518418" fill="#252525" />
<rect x="0.6068518518518418" y="4.2179629629628925" width="0.5968518518518418" height="0.5968518518518418" fill="#252525" />
<rect x="1.2087037037036834" y="4.2179629629628925" width="0.5968518518518418" height="0.5968518518518418" fill="#252525" />
<rect x="1.810555555555525" y="4.2179629629628925" width="0.5968518518518418" height="0.5968518518518418" fill="#252525" />
<rect x="2.412407407407367" y="4.2179629629628925" width="0.5968518518518418" height="0.5968518518518418" fill="#252525" />
<rect x="3.014259259259209" y="4.2179629629628925" width="0.5968518518518418" height="0.5968518518518418" fill="#252525" />
<rect x="3.61611111111105" y="4.2179629629628925" width="0.5968518518518418" height="0.5968518518518418" fill="#252525" />
<rect x="4.2179629629628925" y="4.2179629629628925" width="0.5968518518518418" height="0.5968518518518418" fill="#252525" />
<rect x="4.819814814814734" y="4.2179629629628925" width="0.5968518518518418" height="0.5968518518518418" fill="#252525" />
<rect x="0.005" y="4.819814814814734" width="0.5968518518518418" height="0.5968518518518418" fill="#252525" />
<rect x="0.6068518518518418" y="4.819814814814734" width="0.5968518518518418" height="0.5968518518518418" fill="#252525" />
<rect x="1.2087037037036834" y="4.819814814814734" width="0.5968518518518418" height="0.5968518518518418" fill="#252525" />
<rect x="1.810555555555525" y="4.819814814814734" width="0.5968518518518418" height="0.5968518518518418" fill="#252525" />
<rect x="2.412407407407367" y="4.819814814814734" width="0.5968518518518418" height="0.5968518518518418" fill="#252525" />
<rect x="3.014259259259209" y="4.819814814814734" width="0.5968518518518418" height="0.5968518518518418" fill="#252525" />
<rect x="3.61611111111105" y="4.819814814814734" width="0.5968518518518418" height="0.5968518518518418" fill="#252525" />
<rect x="4.2179629629628925" y="4.819814814814734" width="0.5968518518518418" height="0.5968518518518418" fill="#252525" />
<rect x="4.819814814814734" y="4.819814814814734" width="0.5968518518518418" height="0.5968518518518418" fill="#252525" />
<rect x="-0.02666666666666667" y="-0.02666666666666667" width="5.469999999999909" height="5.469999999999909" fill="none" stroke="#111111ff" stroke-width="0.08" />
<text x="5.4166666666665755" y="5.8854166666665755" font-size="0.375" fill="black" text-anchor="end" font-family="Anuphan">9x9</text>
<text x="-0.037500000000000006" y="5.8854166666665755" font-size="0.375" fill="black" text-anchor="start" font-family="Anuphan" font-weight="600">Test 1</text>
</g>
<g id="d3">
<rect x="0.005" y="0.005" width="0.9780952380952206" height="0.9780952380952206" fill="#54D2EB" />
<rect x="0.9880952380952206" y="0.005" width="0.9780952380952206" height="0.9780952380952206" fill="#FF871E" />
<rect x="1.971190476190441" y="0.005" width="0.9780952380952206" height="0.9780952380952206" fill="#54D2EB" />
<rect x="2.954285714285662" y="0.005" width="0.9780952380952206" height="0.9780952380952206" fill="#FF871E" />
<rect x="3.9373809523808823" y="0.005" width="0.9780952380952206" height="0.9780952380952206" fill="#54D2EB" />
<rect x="4.920476190476103" y="0.005" width="0.9780952380952206" height="0.9780952380952206" fill="#FF871E" />
<rect x="5.903571428571324" y="0.005" width="0.9780952380952206" height="0.9780952380952206" fill="#54D2EB" />
<rect x="0.005" y="0.9880952380952206" width="0.9780952380952206" height="0.9780952380952206" fill="#252525" />
<rect x="0.9880952380952206" y="0.9880952380952206" width="0.9780952380952206" height="0.9780952380952206" fill="#FF871E" />
<rect x="1.971190476190441" y="0.9880952380952206" width="0.9780952380952206" height="0.9780952380952206" fill="#54D2EB" />
<rect x="2.954285714285662" y="0.9880952380952206" width="0.9780952380952206" height="0.9780952380952206" fill="#FF871E" />
<rect x="3.9373809523808823" y="0.9880952380952206" width="0.9780952380952206" height="0.9780952380952206" fill="#54D2EB" />
<rect x="4.920476190476103" y="0.9880952380952206" width="0.9780952380952206" height="0.9780952380952206" fill="#FF871E" />
<rect x="5.903571428571324" y="0.9880952380952206" width="0.9780952380952206" height="0.9780952380952206" fill="#252525" />
<rect x="0.005" y="1.971190476190441" width="0.9780952380952206" height="0.9780952380952206" fill="#252525" />
<rect x="0.9880952380952206" y="1.971190476190441" width="0.9780952380952206" height="0.9780952380952206" fill="#252525" />
<rect x="1.971190476190441" y="1.971190476190441" width="0.9780952380952206" height="0.9780952380952206" fill="#54D2EB" />
<rect x="2.954285714285662" y="1.971190476190441" width="0.9780952380952206" height="0.9780952380952206" fill="#FF871E" />
<rect x="3.9373809523808823" y="1.971190476190441" width="0.9780952380952206" height="0.9780952380952206" fill="#54D2EB" />
<rect x="4.920476190476103" y="1.971190476190441" width="0.9780952380952206" height="0.9780952380952206" fill="#252525" />
<rect x="5.903571428571324" y="1.971190476190441" width="0.9780952380952206" height="0.9780952380952206" fill="#252525" />
<rect x="0.005" y="2.954285714285662" width="0.9780952380952206" height="0.9780952380952206" fill="#252525" />
<rect x="0.9880952380952206" y="2.954285714285662" width="0.9780952380952206" height="0.9780952380952206" fill="#252525" />
<rect x="1.971190476190441" y="2.954285714285662" width="0.9780952380952206" height="0.9780952380952206" fill="#252525" />
<rect x="2.954285714285662" y="2.954285714285662" width="0.9780952380952206" height="0.9780952380952206" fill="#FF871E" />
<rect x="3.9373809523808823" y="2.954285714285662" width="0.9780952380952206" height="0.9780952380952206" fill="#252525" />
<rect x="4.920476190476103" y="2.954285714285662" width="0.9780952380952206" height="0.9780952380952206" fill="#252525" />
<rect x="5.903571428571324" y="2.954285714285662" width="0.9780952380952206" height="0.9780952380952206" fill="#252525" />
<rect x="0.005" y="3.9373809523808823" width="0.9780952380952206" height="0.9780952380952206" fill="#252525" />
<rect x="0.9880952380952206" y="3.9373809523808823" width="0.9780952380952206" height="0.9780952380952206" fill="#252525" />
<rect x="1.971190476190441" y="3.9373809523808823" width="0.9780952380952206" height="0.9780952380952206" fill="#252525" />
<rect x="2.954285714285662" y="3.9373809523808823" width="0.9780952380952206" height="0.9780952380952206" fill="#252525" />
<rect x="3.9373809523808823" y="3.9373809523808823" width="0.9780952380952206" height="0.9780952380952206" fill="#252525" />
<rect x="4.920476190476103" y="3.9373809523808823" width="0.9780952380952206" height="0.9780952380952206" fill="#252525" />
<rect x="5.903571428571324" y="3.9373809523808823" width="0.9780952380952206" height="0.9780952380952206" fill="#252525" />
<rect x="-0.02666666666666667" y="-0.02666666666666667" width="6.934999999999878" height="4.968809523809437" fill="none" stroke="#111111ff" stroke-width="0.08" />
<text x="6.881666666666544" y="5.384226190476103" font-size="0.375" fill="black" text-anchor="end" font-family="Anuphan">7x5</text>
<text x="-0.037500000000000006" y="5.384226190476103" font-size="0.375" fill="black" text-anchor="start" font-family="Anuphan" font-weight="600">Output 1</text>
</g>
<g id="d4">
<rect x="0.005" y="0.005" width="0.7689583333333199" height="0.7689583333333199" fill="#FF871E" />
<rect x="0.7789583333333199" y="0.005" width="0.7689583333333199" height="0.7689583333333199" fill="#54D2EB" />
<rect x="1.5529166666666396" y="0.005" width="0.7689583333333199" height="0.7689583333333199" fill="#FF871E" />
<rect x="2.3268749999999594" y="0.005" width="0.7689583333333199" height="0.7689583333333199" fill="#54D2EB" />
<rect x="3.1008333333332794" y="0.005" width="0.7689583333333199" height="0.7689583333333199" fill="#FF871E" />
<rect x="3.8747916666665994" y="0.005" width="0.7689583333333199" height="0.7689583333333199" fill="#54D2EB" />
<rect x="4.648749999999919" y="0.005" width="0.7689583333333199" height="0.7689583333333199" fill="#FF871E" />
<rect x="5.422708333333239" y="0.005" width="0.7689583333333199" height="0.7689583333333199" fill="#252525" />
<rect x="0.005" y="0.7789583333333199" width="0.7689583333333199" height="0.7689583333333199" fill="#FF871E" />
<rect x="0.7789583333333199" y="0.7789583333333199" width="0.7689583333333199" height="0.7689583333333199" fill="#54D2EB" />
<rect x="1.5529166666666396" y="0.7789583333333199" width="0.7689583333333199" height="0.7689583333333199" fill="#FF871E" />
<rect x="2.3268749999999594" y="0.7789583333333199" width="0.7689583333333199" height="0.7689583333333199" fill="#54D2EB" />
<rect x="3.1008333333332794" y="0.7789583333333199" width="0.7689583333333199" height="0.7689583333333199" fill="#FF871E" />
<rect x="3.8747916666665994" y="0.7789583333333199" width="0.7689583333333199" height="0.7689583333333199" fill="#54D2EB" />
<rect x="4.648749999999919" y="0.7789583333333199" width="0.7689583333333199" height="0.7689583333333199" fill="#252525" />
<rect x="5.422708333333239" y="0.7789583333333199" width="0.7689583333333199" height="0.7689583333333199" fill="#252525" />
<rect x="0.005" y="1.5529166666666396" width="0.7689583333333199" height="0.7689583333333199" fill="#FF871E" />
<rect x="0.7789583333333199" y="1.5529166666666396" width="0.7689583333333199" height="0.7689583333333199" fill="#54D2EB" />
<rect x="1.5529166666666396" y="1.5529166666666396" width="0.7689583333333199" height="0.7689583333333199" fill="#FF871E" />
<rect x="2.3268749999999594" y="1.5529166666666396" width="0.7689583333333199" height="0.7689583333333199" fill="#54D2EB" />
<rect x="3.1008333333332794" y="1.5529166666666396" width="0.7689583333333199" height="0.7689583333333199" fill="#FF871E" />
<rect x="3.8747916666665994" y="1.5529166666666396" width="0.7689583333333199" height="0.7689583333333199" fill="#252525" />
<rect x="4.648749999999919" y="1.5529166666666396" width="0.7689583333333199" height="0.7689583333333199" fill="#252525" />
<rect x="5.422708333333239" y="1.5529166666666396" width="0.7689583333333199" height="0.7689583333333199" fill="#252525" />
<rect x="0.005" y="2.3268749999999594" width="0.7689583333333199" height="0.7689583333333199" fill="#252525" />
<rect x="0.7789583333333199" y="2.3268749999999594" width="0.7689583333333199" height="0.7689583333333199" fill="#54D2EB" />
<rect x="1.5529166666666396" y="2.3268749999999594" width="0.7689583333333199" height="0.7689583333333199" fill="#FF871E" />
<rect x="2.3268749999999594" y="2.3268749999999594" width="0.7689583333333199" height="0.7689583333333199" fill="#54D2EB" />
<rect x="3.1008333333332794" y="2.3268749999999594" width="0.7689583333333199" height="0.7689583333333199" fill="#252525" />
<rect x="3.8747916666665994" y="2.3268749999999594" width="0.7689583333333199" height="0.7689583333333199" fill="#252525" />
<rect x="4.648749999999919" y="2.3268749999999594" width="0.7689583333333199" height="0.7689583333333199" fill="#252525" />
<rect x="5.422708333333239" y="2.3268749999999594" width="0.7689583333333199" height="0.7689583333333199" fill="#252525" />
<rect x="0.005" y="3.1008333333332794" width="0.7689583333333199" height="0.7689583333333199" fill="#252525" />
<rect x="0.7789583333333199" y="3.1008333333332794" width="0.7689583333333199" height="0.7689583333333199" fill="#252525" />
<rect x="1.5529166666666396" y="3.1008333333332794" width="0.7689583333333199" height="0.7689583333333199" fill="#FF871E" />
<rect x="2.3268749999999594" y="3.1008333333332794" width="0.7689583333333199" height="0.7689583333333199" fill="#252525" />
<rect x="3.1008333333332794" y="3.1008333333332794" width="0.7689583333333199" height="0.7689583333333199" fill="#252525" />
<rect x="3.8747916666665994" y="3.1008333333332794" width="0.7689583333333199" height="0.7689583333333199" fill="#252525" />
<rect x="4.648749999999919" y="3.1008333333332794" width="0.7689583333333199" height="0.7689583333333199" fill="#252525" />
<rect x="5.422708333333239" y="3.1008333333332794" width="0.7689583333333199" height="0.7689583333333199" fill="#252525" />
<rect x="0.005" y="3.8747916666665994" width="0.7689583333333199" height="0.7689583333333199" fill="#252525" />
<rect x="0.7789583333333199" y="3.8747916666665994" width="0.7689583333333199" height="0.7689583333333199" fill="#252525" />
<rect x="1.5529166666666396" y="3.8747916666665994" width="0.7689583333333199" height="0.7689583333333199" fill="#252525" />
<rect x="2.3268749999999594" y="3.8747916666665994" width="0.7689583333333199" height="0.7689583333333199" fill="#252525" />
<rect x="3.1008333333332794" y="3.8747916666665994" width="0.7689583333333199" height="0.7689583333333199" fill="#252525" />
<rect x="3.8747916666665994" y="3.8747916666665994" width="0.7689583333333199" height="0.7689583333333199" fill="#252525" />
<rect x="4.648749999999919" y="3.8747916666665994" width="0.7689583333333199" height="0.7689583333333199" fill="#252525" />
<rect x="5.422708333333239" y="3.8747916666665994" width="0.7689583333333199" height="0.7689583333333199" fill="#252525" />
<rect x="0.005" y="4.648749999999919" width="0.7689583333333199" height="0.7689583333333199" fill="#252525" />
<rect x="0.7789583333333199" y="4.648749999999919" width="0.7689583333333199" height="0.7689583333333199" fill="#252525" />
<rect x="1.5529166666666396" y="4.648749999999919" width="0.7689583333333199" height="0.7689583333333199" fill="#252525" />
<rect x="2.3268749999999594" y="4.648749999999919" width="0.7689583333333199" height="0.7689583333333199" fill="#252525" />
<rect x="3.1008333333332794" y="4.648749999999919" width="0.7689583333333199" height="0.7689583333333199" fill="#252525" />
<rect x="3.8747916666665994" y="4.648749999999919" width="0.7689583333333199" height="0.7689583333333199" fill="#252525" />
<rect x="4.648749999999919" y="4.648749999999919" width="0.7689583333333199" height="0.7689583333333199" fill="#252525" />
<rect x="5.422708333333239" y="4.648749999999919" width="0.7689583333333199" height="0.7689583333333199" fill="#252525" />
<rect x="-0.02666666666666667" y="-0.02666666666666667" width="6.244999999999893" height="5.471041666666573" fill="none" stroke="#111111ff" stroke-width="0.08" />
<text x="6.191666666666559" y="5.886458333333239" font-size="0.375" fill="black" text-anchor="end" font-family="Anuphan">8x7</text>
<text x="-0.037500000000000006" y="5.886458333333239" font-size="0.375" fill="black" text-anchor="start" font-family="Anuphan" font-weight="600">Output 2</text>
</g>
</defs>
<rect x="0" y="0" width="100%" height="100%" fill="#eeeff6" />
<use xlink:href="#d0" x="0.25" y="0.25" />
<use xlink:href="#d1" x="7.631666666666544" y="0.25" />
<use xlink:href="#d2" x="14.323333333333103" y="0.25" />
<path d="M3.690833333333272,6.31770833333324 L3.690833333333272,6.71770833333324" stroke-width="0.05" stroke="#888888" />
<path d="M3.540833333333272,6.51770833333324 L3.690833333333272,6.71770833333324" stroke-width="0.05" stroke="#888888" />
<path d="M3.840833333333272,6.51770833333324 L3.690833333333272,6.71770833333324" stroke-width="0.05" stroke="#888888" />
<use xlink:href="#d3" x="0.25" y="7.06770833333324" />
<path d="M10.727499999999823,6.31770833333324 L10.727499999999823,6.71770833333324" stroke-width="0.05" stroke="#888888" />
<path d="M10.577499999999823,6.51770833333324 L10.727499999999823,6.71770833333324" stroke-width="0.05" stroke="#888888" />
<path d="M10.877499999999824,6.51770833333324 L10.727499999999823,6.71770833333324" stroke-width="0.05" stroke="#888888" />
<use xlink:href="#d4" x="7.631666666666544" y="7.06770833333324" />
<path d="M17.03166666666639,6.31770833333324 L17.03166666666639,6.71770833333324" stroke-width="0.05" stroke="#888888" />
<path d="M16.88166666666639,6.51770833333324 L17.03166666666639,6.71770833333324" stroke-width="0.05" stroke="#888888" />
<path d="M17.181666666666388,6.51770833333324 L17.03166666666639,6.71770833333324" stroke-width="0.05" stroke="#888888" />
<text x="17.03166666666639" y="9.876041666666527" font-size="1" font-family="Anuphan" font-weight="700" fill="#333333" text-anchor="middle" alignment-baseline="middle">?</text>
<text x="19.9" y="13.299999999999999" font-size="0.3" font-family="Anuphan" font-weight="600" fill="#666666" text-anchor="end" alignment-baseline="bottom">Task db3e9e38</text>
</svg>