<?xml version="1.0" encoding="UTF-8"?>
<svg xmlns="http://www.w3.org/2000/svg" xmlns:xlink="http://www.w3.org/1999/xlink"
     width="800.0" height="536.0" viewBox="0 0 20.0 13.399999999999999">
<defs>
<g id="d0">
<rect x="0.005" y="0.005" width="0.28718749999999554" height="0.28718749999999554" fill="#FFDC00" />
<rect x="0.29718749999999555" y="0.005" width="0.28718749999999554" height="0.28718749999999554" fill="#FFDC00" />
<rect x="0.5893749999999911" y="0.005" width="0.28718749999999554" height="0.28718749999999554" fill="#FFDC00" />
<rect x="0.8815624999999866" y="0.005" width="0.28718749999999554" height="0.28718749999999554" fill="#FFDC00" />
<rect x="1.173749999999982" y="0.005" width="0.28718749999999554" height="0.28718749999999554" fill="#FFDC00" />
<rect x="1.4659374999999777" y="0.005" width="0.28718749999999554" height="0.28718749999999554" fill="#FFDC00" />
<rect x="1.758124999999973" y="0.005" width="0.28718749999999554" height="0.28718749999999554" fill="#FFDC00" />
<rect x="2.050312499999969" y="0.005" width="0.28718749999999554" height="0.28718749999999554" fill="#FF4136" />
<rect x="2.3424999999999643" y="0.005" width="0.28718749999999554" height="0.28718749999999554" fill="#FF4136" />
<rect x="2.6346874999999597" y="0.005" width="0.28718749999999554" height="0.28718749999999554" fill="#FF4136" />
<rect x="2.9268749999999555" y="0.005" width="0.28718749999999554" height="0.28718749999999554" fill="#FF4136" />
<rect x="3.219062499999951" y="0.005" width="0.28718749999999554" height="0.28718749999999554" fill="#FF4136" />
<rect x="3.5112499999999462" y="0.005" width="0.28718749999999554" height="0.28718749999999554" fill="#FF4136" />
<rect x="3.803437499999942" y="0.005" width="0.28718749999999554" height="0.28718749999999554" fill="#FF4136" />
<rect x="4.095624999999938" y="0.005" width="0.28718749999999554" height="0.28718749999999554" fill="#54D2EB" />
<rect x="4.387812499999933" y="0.005" width="0.28718749999999554" height="0.28718749999999554" fill="#54D2EB" />
<rect x="0.005" y="0.29718749999999555" width="0.28718749999999554" height="0.28718749999999554" fill="#FFDC00" />
<rect x="0.29718749999999555" y="0.29718749999999555" width="0.28718749999999554" height="0.28718749999999554" fill="#FFDC00" />
<rect x="0.5893749999999911" y="0.29718749999999555" width="0.28718749999999554" height="0.28718749999999554" fill="#FFDC00" />
<rect x="0.8815624999999866" y="0.29718749999999555" width="0.28718749999999554" height="0.28718749999999554" fill="#FFDC00" />
<rect x="1.173749999999982" y="0.29718749999999555" width="0.28718749999999554" height="0.28718749999999554" fill="#FFDC00" />
<rect x="1.4659374999999777" y="0.29718749999999555" width="0.28718749999999554" height="0.28718749999999554" fill="#FFDC00" />
<rect x="1.758124999999973" y="0.29718749999999555" width="0.28718749999999554" height="0.28718749999999554" fill="#FFDC00" />
<rect x="2.050312499999969" y="0.29718749999999555" width="0.28718749999999554" height="0.28718749999999554" fill="#FFDC00" />
<rect x="2.3424999999999643" y="0.29718749999999555" width="0.28718749999999554" height="0.28718749999999554" fill="#FF4136" />
<rect x="2.6346874999999597" y="0.29718749999999555" width="0.28718749999999554" height="0.28718749999999554" fill="#FF4136" />
<rect x="2.9268749999999555" y="0.29718749999999555" width="0.28718749999999554" height="0.28718749999999554" fill="#FF4136" />
<rect x="3.219062499999951" y="0.29718749999999555" width="0.28718749999999554" height="0.28718749999999554" fill="#FF4136" />
<rect x="3.5112499999999462" y="0.29718749999999555" width="0.28718749999999554" height="0.28718749999999554" fill="#54D2EB" />
<rect x="3.803437499999942" y="0.29718749999999555" width="0.28718749999999554" height="0.28718749999999554" fill="#54D2EB" />
<rect x="4.095624999999938" y="0.29718749999999555" width="0.28718749999999554" height="0.28718749999999554" fill="#54D2EB" />
<rect x="4.387812499999933" y="0.29718749999999555" width="0.28718749999999554" height="0.28718749999999554" fill="#54D2EB" />
<rect x="0.005" y="0.5893749999999911" width="0.28718749999999554" height="0.28718749999999554" fill="#FFDC00" />
<rect x="0.29718749999999555" y="0.5893749999999911" width="0.28718749999999554" height="0.28718749999999554" fill="#FFDC00" />
<rect x="0.5893749999999911" y="0.5893749999999911" width="0.28718749999999554" height="0.28718749999999554" fill="#FFDC00" />
<rect x="0.8815624999999866" y="0.5893749999999911" width="0.28718749999999554" height="0.28718749999999554" fill="#FFDC00" />
<rect x="1.173749999999982" y="0.5893749999999911" width="0.28718749999999554" height="0.28718749999999554" fill="#FFDC00" />
<rect x="1.4659374999999777" y="0.5893749999999911" width="0.28718749999999554" height="0.28718749999999554" fill="#FFDC00" />
<rect x="1.758124999999973" y="0.5893749999999911" width="0.28718749999999554" height="0.28718749999999554" fill="#FFDC00" />
<rect x="2.050312499999969" y="0.5893749999999911" width="0.28718749999999554" height="0.28718749999999554" fill="#FFDC00" />
<rect x="2.3424999999999643" y="0.5893749999999911" width="0.28718749999999554" height="0.28718749999999554" fill="#FF4136" />
<rect x="2.6346874999999597" y="0.5893749999999911" width="0.28718749999999554" height="0.28718749999999554" fill="#FF4136" />
<rect x="2.9268749999999555" y="0.5893749999999911" width="0.28718749999999554" height="0.28718749999999554" fill="#FF4136" />
<rect x="3.219062499999951" y="0.5893749999999911" width="0.28718749999999554" height="0.28718749999999554" fill="#FF4136" />
<rect x="3.5112499999999462" y="0.5893749999999911" width="0.28718749999999554" height="0.28718749999999554" fill="#54D2EB" />
<rect x="3.803437499999942" y="0.5893749999999911" width="0.28718749999999554" height="0.28718749999999554" fill="#54D2EB" />
<rect x="4.095624999999938" y="0.5893749999999911" width="0.28718749999999554" height="0.28718749999999554" fill="#54D2EB" />
<rect x="4.387812499999933" y="0.5893749999999911" width="0.28718749999999554" height="0.28718749999999554" fill="#54D2EB" />
<rect x="0.005" y="0.8815624999999866" width="0.28718749999999554" height="0.28718749999999554" fill="#FFDC00" />
<rect x="0.29718749999999555" y="0.8815624999999866" width="0.28718749999999554" height="0.28718749999999554" fill="#FFDC00" />
<rect x="0.5893749999999911" y="0.8815624999999866" width="0.28718749999999554" height="0.28718749999999554" fill="#FFDC00" />
<rect x="0.8815624999999866" y="0.8815624999999866" width="0.28718749999999554" height="0.28718749999999554" fill="#FFDC00" />
<rect x="1.173749999999982" y="0.8815624999999866" width="0.28718749999999554" height="0.28718749999999554" fill="#FFDC00" />
<rect x="1.4659374999999777" y="0.8815624999999866" width="0.28718749999999554" height="0.28718749999999554" fill="#FFDC00" />
<rect x="1.758124999999973" y="0.8815624999999866" width="0.28718749999999554" height="0.28718749999999554" fill="#FFDC00" />
<rect x="2.050312499999969" y="0.8815624999999866" width="0.28718749999999554" height="0.28718749999999554" fill="#FF4136" />
<rect x="2.3424999999999643" y="0.8815624999999866" width="0.28718749999999554" height="0.28718749999999554" fill="#FF4136" />
<rect x="2.6346874999999597" y="0.8815624999999866" width="0.28718749999999554" height="0.28718749999999554" fill="#FF4136" />
<rect x="2.9268749999999555" y="0.8815624999999866" width="0.28718749999999554" height="0.28718749999999554" fill="#FF4136" />
<rect x="3.219062499999951" y="0.8815624999999866" width="0.28718749999999554" height="0.28718749999999554" fill="#FF4136" />
<rect x="3.5112499999999462" y="0.8815624999999866" width="0.28718749999999554" height="0.28718749999999554" fill="#54D2EB" />
<rect x="3.803437499999942" y="0.8815624999999866" width="0.28718749999999554" height="0.28718749999999554" fill="#54D2EB" />
<rect x="4.095624999999938" y="0.8815624999999866" width="0.28718749999999554" height="0.28718749999999554" fill="#54D2EB" />
<rect x="4.387812499999933" y="0.8815624999999866" width="0.28718749999999554" height="0.28718749999999554" fill="#54D2EB" />
<rect x="0.005" y="1.173749999999982" width="0.28718749999999554" height="0.28718749999999554" fill="#FFDC00" />
<rect x="0.29718749999999555" y="1.173749999999982" width="0.28718749999999554" height="0.28718749999999554" fill="#FFDC00" />
<rect x="0.5893749999999911" y="1.173749999999982" width="0.28718749999999554" height="0.28718749999999554" fill="#FFDC00" />
<rect x="0.8815624999999866" y="1.173749999999982" width="0.28718749999999554" height="0.28718749999999554" fill="#FFDC00" />
<rect x="1.173749999999982" y="1.173749999999982" width="0.28718749999999554" height="0.28718749999999554" fill="#FFDC00" />
<rect x="1.4659374999999777" y="1.173749999999982" width="0.28718749999999554" height="0.28718749999999554" fill="#FFDC00" />
<rect x="1.758124999999973" y="1.173749999999982" width="0.28718749999999554" height="0.28718749999999554" fill="#FF4136" />
<rect x="2.050312499999969" y="1.173749999999982" width="0.28718749999999554" height="0.28718749999999554" fill="#FF4136" />
<rect x="2.3424999999999643" y="1.173749999999982" width="0.28718749999999554" height="0.28718749999999554" fill="#FF4136" />
<rect x="2.6346874999999597" y="1.173749999999982" width="0.28718749999999554" height="0.28718749999999554" fill="#FF4136" />
<rect x="2.9268749999999555" y="1.173749999999982" width="0.28718749999999554" height="0.28718749999999554" fill="#FF4136" />
<rect x="3.219062499999951" y="1.173749999999982" width="0.28718749999999554" height="0.28718749999999554" fill="#FF4136" />
<rect x="3.5112499999999462" y="1.173749999999982" width="0.28718749999999554" height="0.28718749999999554" fill="#FF4136" />
<rect x="3.803437499999942" y="1.173749999999982" width="0.28718749999999554" height="0.28718749999999554" fill="#54D2EB" />
<rect x="4.095624999999938" y="1.173749999999982" width="0.28718749999999554" height="0.28718749999999554" fill="#54D2EB" />
<rect x="4.387812499999933" y="1.173749999999982" width="0.28718749999999554" height="0.28718749999999554" fill="#54D2EB" />
<rect x="0.005" y="1.4659374999999777" width="0.28718749999999554" height="0.28718749999999554" fill="#FFDC00" />
<rect x="0.29718749999999555" y="1.4659374999999777" width="0.28718749999999554" height="0.28718749999999554" fill="#FFDC00" />
<rect x="0.5893749999999911" y="1.4659374999999777" width="0.28718749999999554" height="0.28718749999999554" fill="#FFDC00" />
<rect x="0.8815624999999866" y="1.4659374999999777" width="0.28718749999999554" height="0.28718749999999554" fill="#FFDC00" />
<rect x="1.173749999999982" y="1.4659374999999777" width="0.28718749999999554" height="0.28718749999999554" fill="#FFDC00" />
<rect x="1.4659374999999777" y="1.4659374999999777" width="0.28718749999999554" height="0.28718749999999554" fill="#FFDC00" />
<rect x="1.758124999999973" y="1.4659374999999777" width="0.28718749999999554" height="0.28718749999999554" fill="#FF4136" />
<rect x="2.050312499999969" y="1.4659374999999777" width="0.28718749999999554" height="0.28718749999999554" fill="#FF4136" />
<rect x="2.3424999999999643" y="1.4659374999999777" width="0.28718749999999554" height="0.28718749999999554" fill="#FF4136" />
<rect x="2.6346874999999597" y="1.4659374999999777" width="0.28718749999999554" height="0.28718749999999554" fill="#FF4136" />
<rect x="2.9268749999999555" y="1.4659374999999777" width="0.28718749999999554" height="0.28718749999999554" fill="#FF4136" />
<rect x="3.219062499999951" y="1.4659374999999777" width="0.28718749999999554" height="0.28718749999999554" fill="#FF4136" />
<rect x="3.5112499999999462" y="1.4659374999999777" width="0.28718749999999554" height="0.28718749999999554" fill="#54D2EB" />
<rect x="3.803437499999942" y="1.4659374999999777" width="0.28718749999999554" height="0.28718749999999554" fill="#54D2EB" />
<rect x="4.095624999999938" y="1.4659374999999777" width="0.28718749999999554" height="0.28718749999999554" fill="#54D2EB" />
<rect x="4.387812499999933" y="1.4659374999999777" width="0.28718749999999554" height="0.28718749999999554" fill="#54D2EB" />
<rect x="0.005" y="1.758124999999973" width="0.28718749999999554" height="0.28718749999999554" fill="#FFDC00" />
<rect x="0.29718749999999555" y="1.758124999999973" width="0.28718749999999554" height="0.28718749999999554" fill="#FFDC00" />
<rect x="0.5893749999999911" y="1.758124999999973" width="0.28718749999999554" height="0.28718749999999554" fill="#FFDC00" />
<rect x="0.8815624999999866" y="1.758124999999973" width="0.28718749999999554" height="0.28718749999999554" fill="#FFDC00" />
<rect x="1.173749999999982" y="1.758124999999973" width="0.28718749999999554" height="0.28718749999999554" fill="#FFDC00" />
<rect x="1.4659374999999777" y="1.758124999999973" width="0.28718749999999554" height="0.28718749999999554" fill="#FFDC00" />
<rect x="1.758124999999973" y="1.758124999999973" width="0.28718749999999554" height="0.28718749999999554" fill="#FFDC00" />
<rect x="2.050312499999969" y="1.758124999999973" width="0.28718749999999554" height="0.28718749999999554" fill="#FF4136" />
<rect x="2.3424999999999643" y="1.758124999999973" width="0.28718749999999554" height="0.28718749999999554" fill="#FF4136" />
<rect x="2.6346874999999597" y="1.758124999999973" width="0.28718749999999554" height="0.28718749999999554" fill="#FF4136" />
<rect x="2.9268749999999555" y="1.758124999999973" width="0.28718749999999554" height="0.28718749999999554" fill="#FF4136" />
<rect x="3.219062499999951" y="1.758124999999973" width="0.28718749999999554" height="0.28718749999999554" fill="#FF4136" />
<rect x="3.5112499999999462" y="1.758124999999973" width="0.28718749999999554" height="0.28718749999999554" fill="#54D2EB" />
<rect x="3.803437499999942" y="1.758124999999973" width="0.28718749999999554" height="0.28718749999999554" fill="#54D2EB" />
<rect x="4.095624999999938" y="1.758124999999973" width="0.28718749999999554" height="0.28718749999999554" fill="#54D2EB" />
<rect x="4.387812499999933" y="1.758124999999973" width="0.28718749999999554" height="0.28718749999999554" fill="#54D2EB" />
<rect x="0.005" y="2.050312499999969" width="0.28718749999999554" height="0.28718749999999554" fill="#FFDC00" />
<rect x="0.29718749999999555" y="2.050312499999969" width="0.28718749999999554" height="0.28718749999999554" fill="#FFDC00" />
<rect x="0.5893749999999911" y="2.050312499999969" width="0.28718749999999554" height="0.28718749999999554" fill="#FFDC00" />
<rect x="0.8815624999999866" y="2.050312499999969" width="0.28718749999999554" height="0.28718749999999554" fill="#FFDC00" />
<rect x="1.173749999999982" y="2.050312499999969" width="0.28718749999999554" height="0.28718749999999554" fill="#FFDC00" />
<rect x="1.4659374999999777" y="2.050312499999969" width="0.28718749999999554" height="0.28718749999999554" fill="#FFDC00" />
<rect x="1.758124999999973" y="2.050312499999969" width="0.28718749999999554" height="0.28718749999999554" fill="#FFDC00" />
<rect x="2.050312499999969" y="2.050312499999969" width="0.28718749999999554" height="0.28718749999999554" fill="#FF4136" />
<rect x="2.3424999999999643" y="2.050312499999969" width="0.28718749999999554" height="0.28718749999999554" fill="#FF4136" />
<rect x="2.6346874999999597" y="2.050312499999969" width="0.28718749999999554" height="0.28718749999999554" fill="#FF4136" />
<rect x="2.9268749999999555" y="2.050312499999969" width="0.28718749999999554" height="0.28718749999999554" fill="#FF4136" />
<rect x="3.219062499999951" y="2.050312499999969" width="0.28718749999999554" height="0.28718749999999554" fill="#FF4136" />
<rect x="3.5112499999999462" y="2.050312499999969" width="0.28718749999999554" height="0.28718749999999554" fill="#FF4136" />
<rect x="3.803437499999942" y="2.050312499999969" width="0.28718749999999554" height="0.28718749999999554" fill="#54D2EB" />
<rect x="4.095624999999938" y="2.050312499999969" width="0.28718749999999554" height="0.28718749999999554" fill="#54D2EB" />
<rect x="4.387812499999933" y="2.050312499999969" width="0.28718749999999554" height="0.28718749999999554" fill="#54D2EB" />
<rect x="0.005" y="2.3424999999999643" width="0.28718749999999554" height="0.28718749999999554" fill="#FFDC00" />
<rect x="0.29718749999999555" y="2.3424999999999643" width="0.28718749999999554" height="0.28718749999999554" fill="#FFDC00" />
<rect x="0.5893749999999911" y="2.3424999999999643" width="0.28718749999999554" height="0.28718749999999554" fill="#FFDC00" />
<rect x="0.8815624999999866" y="2.3424999999999643" width="0.28718749999999554" height="0.28718749999999554" fill="#FFDC00" />
<rect x="1.173749999999982" y="2.3424999999999643" width="0.28718749999999554" height="0.28718749999999554" fill="#FFDC00" />
<rect x="1.4659374999999777" y="2.3424999999999643" width="0.28718749999999554" height="0.28718749999999554" fill="#FF4136" />
<rect x="1.758124999999973" y="2.3424999999999643" width="0.28718749999999554" height="0.28718749999999554" fill="#FF4136" />
<rect x="2.050312499999969" y="2.3424999999999643" width="0.28718749999999554" height="0.28718749999999554" fill="#FF4136" />
<rect x="2.3424999999999643" y="2.3424999999999643" width="0.28718749999999554" height="0.28718749999999554" fill="#FF4136" />
<rect x="2.6346874999999597" y="2.3424999999999643" width="0.28718749999999554" height="0.28718749999999554" fill="#FF4136" />
<rect x="2.9268749999999555" y="2.3424999999999643" width="0.28718749999999554" height="0.28718749999999554" fill="#FF4136" />
<rect x="3.219062499999951" y="2.3424999999999643" width="0.28718749999999554" height="0.28718749999999554" fill="#FF4136" />
<rect x="3.5112499999999462" y="2.3424999999999643" width="0.28718749999999554" height="0.28718749999999554" fill="#FF4136" />
<rect x="3.803437499999942" y="2.3424999999999643" width="0.28718749999999554" height="0.28718749999999554" fill="#FF4136" />
<rect x="4.095624999999938" y="2.3424999999999643" width="0.28718749999999554" height="0.28718749999999554" fill="#54D2EB" />
<rect x="4.387812499999933" y="2.3424999999999643" width="0.28718749999999554" height="0.28718749999999554" fill="#54D2EB" />
<rect x="0.005" y="2.6346874999999597" width="0.28718749999999554" height="0.28718749999999554" fill="#FFDC00" />
<rect x="0.29718749999999555" y="2.6346874999999597" width="0.28718749999999554" height="0.28718749999999554" fill="#FFDC00" />
<rect x="0.5893749999999911" y="2.6346874999999597" width="0.28718749999999554" height="0.28718749999999554" fill="#FFDC00" />
<rect x="0.8815624999999866" y="2.6346874999999597" width="0.28718749999999554" height="0.28718749999999554" fill="#FFDC00" />
<rect x="1.173749999999982" y="2.6346874999999597" width="0.28718749999999554" height="0.28718749999999554" fill="#FFDC00" />
<rect x="1.4659374999999777" y="2.6346874999999597" width="0.28718749999999554" height="0.28718749999999554" fill="#FF4136" />
<rect x="1.758124999999973" y="2.6346874999999597" width="0.28718749999999554" height="0.28718749999999554" fill="#FF4136" />
<rect x="2.050312499999969" y="2.6346874999999597" width="0.28718749999999554" height="0.28718749999999554" fill="#FF4136" />
<rect x="2.3424999999999643" y="2.6346874999999597" width="0.28718749999999554" height="0.28718749999999554" fill="#FF4136" />
<rect x="2.6346874999999597" y="2.6346874999999597" width="0.28718749999999554" height="0.28718749999999554" fill="#FF4136" />
<rect x="2.9268749999999555" y="2.6346874999999597" width="0.28718749999999554" height="0.28718749999999554" fill="#FF4136" />
<rect x="3.219062499999951" y="2.6346874999999597" width="0.28718749999999554" height="0.28718749999999554" fill="#FF4136" />
<rect x="3.5112499999999462" y="2.6346874999999597" width="0.28718749999999554" height="0.28718749999999554" fill="#FF4136" />
<rect x="3.803437499999942" y="2.6346874999999597" width="0.28718749999999554" height="0.28718749999999554" fill="#FF4136" />
<rect x="4.095624999999938" y="2.6346874999999597" width="0.28718749999999554" height="0.28718749999999554" fill="#54D2EB" />
<rect x="4.387812499999933" y="2.6346874999999597" width="0.28718749999999554" height="0.28718749999999554" fill="#54D2EB" />
<rect x="0.005" y="2.9268749999999555" width="0.28718749999999554" height="0.28718749999999554" fill="#FFDC00" />
<rect x="0.29718749999999555" y="2.9268749999999555" width="0.28718749999999554" height="0.28718749999999554" fill="#FFDC00" />
<rect x="0.5893749999999911" y="2.9268749999999555" width="0.28718749999999554" height="0.28718749999999554" fill="#FFDC00" />
<rect x="0.8815624999999866" y="2.9268749999999555" width="0.28718749999999554" height="0.28718749999999554" fill="#FFDC00" />
<rect x="1.173749999999982" y="2.9268749999999555" width="0.28718749999999554" height="0.28718749999999554" fill="#FF4136" />
<rect x="1.4659374999999777" y="2.9268749999999555" width="0.28718749999999554" height="0.28718749999999554" fill="#FF4136" />
<rect x="1.758124999999973" y="2.9268749999999555" width="0.28718749999999554" height="0.28718749999999554" fill="#FF4136" />
<rect x="2.050312499999969" y="2.9268749999999555" width="0.28718749999999554" height="0.28718749999999554" fill="#FF4136" />
<rect x="2.3424999999999643" y="2.9268749999999555" width="0.28718749999999554" height="0.28718749999999554" fill="#FF4136" />
<rect x="2.6346874999999597" y="2.9268749999999555" width="0.28718749999999554" height="0.28718749999999554" fill="#FF4136" />
<rect x="2.9268749999999555" y="2.9268749999999555" width="0.28718749999999554" height="0.28718749999999554" fill="#FF4136" />
<rect x="3.219062499999951" y="2.9268749999999555" width="0.28718749999999554" height="0.28718749999999554" fill="#FF4136" />
<rect x="3.5112499999999462" y="2.9268749999999555" width="0.28718749999999554" height="0.28718749999999554" fill="#FF4136" />
<rect x="3.803437499999942" y="2.9268749999999555" width="0.28718749999999554" height="0.28718749999999554" fill="#54D2EB" />
<rect x="4.095624999999938" y="2.9268749999999555" width="0.28718749999999554" height="0.28718749999999554" fill="#54D2EB" />
<rect x="4.387812499999933" y="2.9268749999999555" width="0.28718749999999554" height="0.28718749999999554" fill="#54D2EB" />
<rect x="0.005" y="3.219062499999951" width="0.28718749999999554" height="0.28718749999999554" fill="#FFDC00" />
<rect x="0.29718749999999555" y="3.219062499999951" width="0.28718749999999554" height="0.28718749999999554" fill="#FFDC00" />
<rect x="0.5893749999999911" y="3.219062499999951" width="0.28718749999999554" height="0.28718749999999554" fill="#FFDC00" />
<rect x="0.8815624999999866" y="3.219062499999951" width="0.28718749999999554" height="0.28718749999999554" fill="#FFDC00" />
<rect x="1.173749999999982" y="3.219062499999951" width="0.28718749999999554" height="0.28718749999999554" fill="#FF4136" />
<rect x="1.4659374999999777" y="3.219062499999951" width="0.28718749999999554" height="0.28718749999999554" fill="#FF4136" />
<rect x="1.758124999999973" y="3.219062499999951" width="0.28718749999999554" height="0.28718749999999554" fill="#FF4136" />
<rect x="2.050312499999969" y="3.219062499999951" width="0.28718749999999554" height="0.28718749999999554" fill="#FF4136" />
<rect x="2.3424999999999643" y="3.219062499999951" width="0.28718749999999554" height="0.28718749999999554" fill="#FF4136" />
<rect x="2.6346874999999597" y="3.219062499999951" width="0.28718749999999554" height="0.28718749999999554" fill="#FF4136" />
<rect x="2.9268749999999555" y="3.219062499999951" width="0.28718749999999554" height="0.28718749999999554" fill="#FF4136" />
<rect x="3.219062499999951" y="3.219062499999951" width="0.28718749999999554" height="0.28718749999999554" fill="#FF4136" />
<rect x="3.5112499999999462" y="3.219062499999951" width="0.28718749999999554" height="0.28718749999999554" fill="#54D2EB" />
<rect x="3.803437499999942" y="3.219062499999951" width="0.28718749999999554" height="0.28718749999999554" fill="#54D2EB" />
<rect x="4.095624999999938" y="3.219062499999951" width="0.28718749999999554" height="0.28718749999999554" fill="#54D2EB" />
<rect x="4.387812499999933" y="3.219062499999951" width="0.28718749999999554" height="0.28718749999999554" fill="#54D2EB" />
<rect x="0.005" y="3.5112499999999462" width="0.28718749999999554" height="0.28718749999999554" fill="#FFDC00" />
<rect x="0.29718749999999555" y="3.5112499999999462" width="0.28718749999999554" height="0.28718749999999554" fill="#FFDC00" />
<rect x="0.5893749999999911" y="3.5112499999999462" width="0.28718749999999554" height="0.28718749999999554" fill="#FFDC00" />
<rect x="0.8815624999999866" y="3.5112499999999462" width="0.28718749999999554" height="0.28718749999999554" fill="#FFDC00" />
<rect x="1.173749999999982" y="3.5112499999999462" width="0.28718749999999554" height="0.28718749999999554" fill="#FFDC00" />
<rect x="1.4659374999999777" y="3.5112499999999462" width="0.28718749999999554" height="0.28718749999999554" fill="#FF4136" />
<rect x="1.758124999999973" y="3.5112499999999462" width="0.28718749999999554" height="0.28718749999999554" fill="#FF4136" />
<rect x="2.050312499999969" y="3.5112499999999462" width="0.28718749999999554" height="0.28718749999999554" fill="#FF4136" />
<rect x="2.3424999999999643" y="3.5112499999999462" width="0.28718749999999554" height="0.28718749999999554" fill="#FF4136" />
<rect x="2.6346874999999597" y="3.5112499999999462" width="0.28718749999999554" height="0.28718749999999554" fill="#FF4136" />
<rect x="2.9268749999999555" y="3.5112499999999462" width="0.28718749999999554" height="0.28718749999999554" fill="#FF4136" />
<rect x="3.219062499999951" y="3.5112499999999462" width="0.28718749999999554" height="0.28718749999999554" fill="#FF4136" />
<rect x="3.5112499999999462" y="3.5112499999999462" width="0.28718749999999554" height="0.28718749999999554" fill="#54D2EB" />
<rect x="3.803437499999942" y="3.5112499999999462" width="0.28718749999999554" height="0.28718749999999554" fill="#54D2EB" />
<rect x="4.095624999999938" y="3.5112499999999462" width="0.28718749999999554" height="0.28718749999999554" fill="#54D2EB" />
<rect x="4.387812499999933" y="3.5112499999999462" width="0.28718749999999554" height="0.28718749999999554" fill="#54D2EB" />
<rect x="0.005" y="3.803437499999942" width="0.28718749999999554" height="0.28718749999999554" fill="#FFDC00" />
<rect x="0.29718749999999555" y="3.803437499999942" width="0.28718749999999554" height="0.28718749999999554" fill="#FFDC00" />
<rect x="0.5893749999999911" y="3.803437499999942" width="0.28718749999999554" height="0.28718749999999554" fill="#FFDC00" />
<rect x="0.8815624999999866" y="3.803437499999942" width="0.28718749999999554" height="0.28718749999999554" fill="#FFDC00" />
<rect x="1.173749999999982" y="3.803437499999942" width="0.28718749999999554" height="0.28718749999999554" fill="#FFDC00" />
<rect x="1.4659374999999777" y="3.803437499999942" width="0.28718749999999554" height="0.28718749999999554" fill="#FFDC00" />
<rect x="1.758124999999973" y="3.803437499999942" width="0.28718749999999554" height="0.28718749999999554" fill="#FF4136" />
<rect x="2.050312499999969" y="3.803437499999942" width="0.28718749999999554" height="0.28718749999999554" fill="#FF4136" />
<rect x="2.3424999999999643" y="3.803437499999942" width="0.28718749999999554" height="0.28718749999999554" fill="#FF4136" />
<rect x="2.6346874999999597" y="3.803437499999942" width="0.28718749999999554" height="0.28718749999999554" fill="#FF4136" />
<rect x="2.9268749999999555" y="3.803437499999942" width="0.28718749999999554" height="0.28718749999999554" fill="#FF4136" />
<rect x="3.219062499999951" y="3.803437499999942" width="0.28718749999999554" height="0.28718749999999554" fill="#FF4136" />
<rect x="3.5112499999999462" y="3.803437499999942" width="0.28718749999999554" height="0.28718749999999554" fill="#FF4136" />
<rect x="3.803437499999942" y="3.803437499999942" width="0.28718749999999554" height="0.28718749999999554" fill="#54D2EB" />
<rect x="4.095624999999938" y="3.803437499999942" width="0.28718749999999554" height="0.28718749999999554" fill="#54D2EB" />
<rect x="4.387812499999933" y="3.803437499999942" width="0.28718749999999554" height="0.28718749999999554" fill="#54D2EB" />
<rect x="-0.02666666666666667" y="-0.02666666666666667" width="4.7283333333332624" height="4.143958333333272" fill="none" stroke="#111111ff" stroke-width="0.08" />
<text x="4.674999999999929" y="4.559374999999938" font-size="0.375" fill="black" text-anchor="end" font-family="Anuphan">16x14</text>
<text x="-0.037500000000000006" y="4.559374999999938" font-size="0.375" fill="black" text-anchor="start" font-family="Anuphan" font-weight="600">Input 1</text>
</g>
<g id="d1">
<rect x="0.005" y="0.005" width="0.5964285714285654" height="0.5964285714285654" fill="#FF4136" />
<rect x="0.6064285714285654" y="0.005" width="0.5964285714285654" height="0.5964285714285654" fill="#FF4136" />
<rect x="1.2078571428571308" y="0.005" width="0.5964285714285654" height="0.5964285714285654" fill="#FF4136" />
<rect x="1.8092857142856962" y="0.005" width="0.5964285714285654" height="0.5964285714285654" fill="#FF4136" />
<rect x="2.4107142857142616" y="0.005" width="0.5964285714285654" height="0.5964285714285654" fill="#FF4136" />
<rect x="3.012142857142827" y="0.005" width="0.5964285714285654" height="0.5964285714285654" fill="#FF4136" />
<rect x="3.6135714285713925" y="0.005" width="0.5964285714285654" height="0.5964285714285654" fill="#FF4136" />
<rect x="0.005" y="0.6064285714285654" width="0.5964285714285654" height="0.5964285714285654" fill="#FF4136" />
<rect x="0.6064285714285654" y="0.6064285714285654" width="0.5964285714285654" height="0.5964285714285654" fill="#FF4136" />
<rect x="1.2078571428571308" y="0.6064285714285654" width="0.5964285714285654" height="0.5964285714285654" fill="#FF4136" />
<rect x="1.8092857142856962" y="0.6064285714285654" width="0.5964285714285654" height="0.5964285714285654" fill="#FF4136" />
<rect x="2.4107142857142616" y="0.6064285714285654" width="0.5964285714285654" height="0.5964285714285654" fill="#FF4136" />
<rect x="3.012142857142827" y="0.6064285714285654" width="0.5964285714285654" height="0.5964285714285654" fill="#FF4136" />
<rect x="3.6135714285713925" y="0.6064285714285654" width="0.5964285714285654" height="0.5964285714285654" fill="#FF4136" />
<rect x="0.005" y="1.2078571428571308" width="0.5964285714285654" height="0.5964285714285654" fill="#FF4136" />
<rect x="0.6064285714285654" y="1.2078571428571308" width="0.5964285714285654" height="0.5964285714285654" fill="#FF4136" />
<rect x="1.2078571428571308" y="1.2078571428571308" width="0.5964285714285654" height="0.5964285714285654" fill="#FF4136" />
<rect x="1.8092857142856962" y="1.2078571428571308" width="0.5964285714285654" height="0.5964285714285654" fill="#FF4136" />
<rect x="2.4107142857142616" y="1.2078571428571308" width="0.5964285714285654" height="0.5964285714285654" fill="#FF4136" />
<rect x="3.012142857142827" y="1.2078571428571308" width="0.5964285714285654" height="0.5964285714285654" fill="#FF4136" />
<rect x="3.6135714285713925" y="1.2078571428571308" width="0.5964285714285654" height="0.5964285714285654" fill="#FF4136" />
<rect x="0.005" y="1.8092857142856962" width="0.5964285714285654" height="0.5964285714285654" fill="#FF4136" />
<rect x="0.6064285714285654" y="1.8092857142856962" width="0.5964285714285654" height="0.5964285714285654" fill="#54D2EB" />
<rect x="1.2078571428571308" y="1.8092857142856962" width="0.5964285714285654" height="0.5964285714285654" fill="#54D2EB" />
<rect x="1.8092857142856962" y="1.8092857142856962" width="0.5964285714285654" height="0.5964285714285654" fill="#54D2EB" />
<rect x="2.4107142857142616" y="1.8092857142856962" width="0.5964285714285654" height="0.5964285714285654" fill="#FF4136" />
<rect x="3.012142857142827" y="1.8092857142856962" width="0.5964285714285654" height="0.5964285714285654" fill="#FF4136" />
<rect x="3.6135714285713925" y="1.8092857142856962" width="0.5964285714285654" height="0.5964285714285654" fill="#54D2EB" />
<rect x="0.005" y="2.4107142857142616" width="0.5964285714285654" height="0.5964285714285654" fill="#54D2EB" />
<rect x="0.6064285714285654" y="2.4107142857142616" width="0.5964285714285654" height="0.5964285714285654" fill="#54D2EB" />
<rect x="1.2078571428571308" y="2.4107142857142616" width="0.5964285714285654" height="0.5964285714285654" fill="#54D2EB" />
<rect x="1.8092857142856962" y="2.4107142857142616" width="0.5964285714285654" height="0.5964285714285654" fill="#54D2EB" />
<rect x="2.4107142857142616" y="2.4107142857142616" width="0.5964285714285654" height="0.5964285714285654" fill="#54D2EB" />
<rect x="3.012142857142827" y="2.4107142857142616" width="0.5964285714285654" height="0.5964285714285654" fill="#54D2EB" />
<rect x="3.6135714285713925" y="2.4107142857142616" width="0.5964285714285654" height="0.5964285714285654" fill="#54D2EB" />
<rect x="0.005" y="3.012142857142827" width="0.5964285714285654" height="0.5964285714285654" fill="#54D2EB" />
<rect x="0.6064285714285654" y="3.012142857142827" width="0.5964285714285654" height="0.5964285714285654" fill="#54D2EB" />
<rect x="1.2078571428571308" y="3.012142857142827" width="0.5964285714285654" height="0.5964285714285654" fill="#54D2EB" />
<rect x="1.8092857142856962" y="3.012142857142827" width="0.5964285714285654" height="0.5964285714285654" fill="#54D2EB" />
<rect x="2.4107142857142616" y="3.012142857142827" width="0.5964285714285654" height="0.5964285714285654" fill="#54D2EB" />
<rect x="3.012142857142827" y="3.012142857142827" width="0.5964285714285654" height="0.5964285714285654" fill="#54D2EB" />
<rect x="3.6135714285713925" y="3.012142857142827" width="0.5964285714285654" height="0.5964285714285654" fill="#54D2EB" />
<rect x="0.005" y="3.6135714285713925" width="0.5964285714285654" height="0.5964285714285654" fill="#54D2EB" />
<rect x="0.6064285714285654" y="3.6135714285713925" width="0.5964285714285654" height="0.5964285714285654" fill="#54D2EB" />
<rect x="1.2078571428571308" y="3.6135714285713925" width="0.5964285714285654" height="0.5964285714285654" fill="#54D2EB" />
<rect x="1.8092857142856962" y="3.6135714285713925" width="0.5964285714285654" height="0.5964285714285654" fill="#E6E6E6" />
<rect x="2.4107142857142616" y="3.6135714285713925" width="0.5964285714285654" height="0.5964285714285654" fill="#E6E6E6" />
<rect x="3.012142857142827" y="3.6135714285713925" width="0.5964285714285654" height="0.5964285714285654" fill="#54D2EB" />
<rect x="3.6135714285713925" y="3.6135714285713925" width="0.5964285714285654" height="0.5964285714285654" fill="#54D2EB" />
<rect x="0.005" y="4.214999999999958" width="0.5964285714285654" height="0.5964285714285654" fill="#E6E6E6" />
<rect x="0.6064285714285654" y="4.214999999999958" width="0.5964285714285654" height="0.5964285714285654" fill="#54D2EB" />
<rect x="1.2078571428571308" y="4.214999999999958" width="0.5964285714285654" height="0.5964285714285654" fill="#E6E6E6" />
<rect x="1.8092857142856962" y="4.214999999999958" width="0.5964285714285654" height="0.5964285714285654" fill="#E6E6E6" />
<rect x="2.4107142857142616" y="4.214999999999958" width="0.5964285714285654" height="0.5964285714285654" fill="#E6E6E6" />
<rect x="3.012142857142827" y="4.214999999999958" width="0.5964285714285654" height="0.5964285714285654" fill="#E6E6E6" />
<rect x="3.6135714285713925" y="4.214999999999958" width="0.5964285714285654" height="0.5964285714285654" fill="#E6E6E6" />
<rect x="0.005" y="4.816428571428523" width="0.5964285714285654" height="0.5964285714285654" fill="#E6E6E6" />
<rect x="0.6064285714285654" y="4.816428571428523" width="0.5964285714285654" height="0.5964285714285654" fill="#E6E6E6" />
<rect x="1.2078571428571308" y="4.816428571428523" width="0.5964285714285654" height="0.5964285714285654" fill="#E6E6E6" />
<rect x="1.8092857142856962" y="4.816428571428523" width="0.5964285714285654" height="0.5964285714285654" fill="#E6E6E6" />
<rect x="2.4107142857142616" y="4.816428571428523" width="0.5964285714285654" height="0.5964285714285654" fill="#E6E6E6" />
<rect x="3.012142857142827" y="4.816428571428523" width="0.5964285714285654" height="0.5964285714285654" fill="#E6E6E6" />
<rect x="3.6135714285713925" y="4.816428571428523" width="0.5964285714285654" height="0.5964285714285654" fill="#E6E6E6" />
<rect x="-0.02666666666666667" y="-0.02666666666666667" width="4.263333333333292" height="5.466190476190422" fill="none" stroke="#111111ff" stroke-width="0.08" />
<text x="4.209999999999958" y="5.881607142857089" font-size="0.375" fill="black" text-anchor="end" font-family="Anuphan">7x9</text>
<text x="-0.037500000000000006" y="5.881607142857089" font-size="0.375" fill="black" text-anchor="start" font-family="Anuphan" font-weight="600">Input 2</text>
</g>
<g id="d2">
<rect x="0.005" y="0.005" width="0.4872222222222149" height="0.4872222222222149" fill="#F012BE" />
<rect x="0.4972222222222149" y="0.005" width="0.4872222222222149" height="0.4872222222222149" fill="#F012BE" />
<rect x="0.9894444444444298" y="0.005" width="0.4872222222222149" height="0.4872222222222149" fill="#F012BE" />
<rect x="1.4816666666666447" y="0.005" width="0.4872222222222149" height="0.4872222222222149" fill="#F012BE" />
<rect x="1.9738888888888595" y="0.005" width="0.4872222222222149" height="0.4872222222222149" fill="#F012BE" />
<rect x="2.4661111111110743" y="0.005" width="0.4872222222222149" height="0.4872222222222149" fill="#F012BE" />
<rect x="2.9583333333332895" y="0.005" width="0.4872222222222149" height="0.4872222222222149" fill="#F012BE" />
<rect x="3.4505555555555043" y="0.005" width="0.4872222222222149" height="0.4872222222222149" fill="#F012BE" />
<rect x="3.942777777777719" y="0.005" width="0.4872222222222149" height="0.4872222222222149" fill="#F012BE" />
<rect x="0.005" y="0.4972222222222149" width="0.4872222222222149" height="0.4872222222222149" fill="#F012BE" />
<rect x="0.4972222222222149" y="0.4972222222222149" width="0.4872222222222149" height="0.4872222222222149" fill="#F012BE" />
<rect x="0.9894444444444298" y="0.4972222222222149" width="0.4872222222222149" height="0.4872222222222149" fill="#FFDC00" />
<rect x="1.4816666666666447" y="0.4972222222222149" width="0.4872222222222149" height="0.4872222222222149" fill="#FFDC00" />
<rect x="1.9738888888888595" y="0.4972222222222149" width="0.4872222222222149" height="0.4872222222222149" fill="#F012BE" />
<rect x="2.4661111111110743" y="0.4972222222222149" width="0.4872222222222149" height="0.4872222222222149" fill="#F012BE" />
<rect x="2.9583333333332895" y="0.4972222222222149" width="0.4872222222222149" height="0.4872222222222149" fill="#F012BE" />
<rect x="3.4505555555555043" y="0.4972222222222149" width="0.4872222222222149" height="0.4872222222222149" fill="#F012BE" />
<rect x="3.942777777777719" y="0.4972222222222149" width="0.4872222222222149" height="0.4872222222222149" fill="#F012BE" />
<rect x="0.005" y="0.9894444444444298" width="0.4872222222222149" height="0.4872222222222149" fill="#F012BE" />
<rect x="0.4972222222222149" y="0.9894444444444298" width="0.4872222222222149" height="0.4872222222222149" fill="#FFDC00" />
<rect x="0.9894444444444298" y="0.9894444444444298" width="0.4872222222222149" height="0.4872222222222149" fill="#FFDC00" />
<rect x="1.4816666666666447" y="0.9894444444444298" width="0.4872222222222149" height="0.4872222222222149" fill="#FFDC00" />
<rect x="1.9738888888888595" y="0.9894444444444298" width="0.4872222222222149" height="0.4872222222222149" fill="#F012BE" />
<rect x="2.4661111111110743" y="0.9894444444444298" width="0.4872222222222149" height="0.4872222222222149" fill="#FFDC00" />
<rect x="2.9583333333332895" y="0.9894444444444298" width="0.4872222222222149" height="0.4872222222222149" fill="#F012BE" />
<rect x="3.4505555555555043" y="0.9894444444444298" width="0.4872222222222149" height="0.4872222222222149" fill="#FFDC00" />
<rect x="3.942777777777719" y="0.9894444444444298" width="0.4872222222222149" height="0.4872222222222149" fill="#FFDC00" />
<rect x="0.005" y="1.4816666666666447" width="0.4872222222222149" height="0.4872222222222149" fill="#FFDC00" />
<rect x="0.4972222222222149" y="1.4816666666666447" width="0.4872222222222149" height="0.4872222222222149" fill="#FFDC00" />
<rect x="0.9894444444444298" y="1.4816666666666447" width="0.4872222222222149" height="0.4872222222222149" fill="#FFDC00" />
<rect x="1.4816666666666447" y="1.4816666666666447" width="0.4872222222222149" height="0.4872222222222149" fill="#FFDC00" />
<rect x="1.9738888888888595" y="1.4816666666666447" width="0.4872222222222149" height="0.4872222222222149" fill="#FFDC00" />
<rect x="2.4661111111110743" y="1.4816666666666447" width="0.4872222222222149" height="0.4872222222222149" fill="#FFDC00" />
<rect x="2.9583333333332895" y="1.4816666666666447" width="0.4872222222222149" height="0.4872222222222149" fill="#FFDC00" />
<rect x="3.4505555555555043" y="1.4816666666666447" width="0.4872222222222149" height="0.4872222222222149" fill="#FFDC00" />
<rect x="3.942777777777719" y="1.4816666666666447" width="0.4872222222222149" height="0.4872222222222149" fill="#FFDC00" />
<rect x="0.005" y="1.9738888888888595" width="0.4872222222222149" height="0.4872222222222149" fill="#FFDC00" />
<rect x="0.4972222222222149" y="1.9738888888888595" width="0.4872222222222149" height="0.4872222222222149" fill="#FFDC00" />
<rect x="0.9894444444444298" y="1.9738888888888595" width="0.4872222222222149" height="0.4872222222222149" fill="#FFDC00" />
<rect x="1.4816666666666447" y="1.9738888888888595" width="0.4872222222222149" height="0.4872222222222149" fill="#FFDC00" />
<rect x="1.9738888888888595" y="1.9738888888888595" width="0.4872222222222149" height="0.4872222222222149" fill="#FFDC00" />
<rect x="2.4661111111110743" y="1.9738888888888595" width="0.4872222222222149" height="0.4872222222222149" fill="#FFDC00" />
<rect x="2.9583333333332895" y="1.9738888888888595" width="0.4872222222222149" height="0.4872222222222149" fill="#FFDC00" />
<rect x="3.4505555555555043" y="1.9738888888888595" width="0.4872222222222149" height="0.4872222222222149" fill="#FFDC00" />
<rect x="3.942777777777719" y="1.9738888888888595" width="0.4872222222222149" height="0.4872222222222149" fill="#FFDC00" />
<rect x="0.005" y="2.4661111111110743" width="0.4872222222222149" height="0.4872222222222149" fill="#FFDC00" />
<rect x="0.4972222222222149" y="2.4661111111110743" width="0.4872222222222149" height="0.4872222222222149" fill="#FFDC00" />
<rect x="0.9894444444444298" y="2.4661111111110743" width="0.4872222222222149" height="0.4872222222222149" fill="#FFDC00" />
<rect x="1.4816666666666447" y="2.4661111111110743" width="0.4872222222222149" height="0.4872222222222149" fill="#FFDC00" />
<rect x="1.9738888888888595" y="2.4661111111110743" width="0.4872222222222149" height="0.4872222222222149" fill="#FFDC00" />
<rect x="2.4661111111110743" y="2.4661111111110743" width="0.4872222222222149" height="0.4872222222222149" fill="#FFDC00" />
<rect x="2.9583333333332895" y="2.4661111111110743" width="0.4872222222222149" height="0.4872222222222149" fill="#FFDC00" />
<rect x="3.4505555555555043" y="2.4661111111110743" width="0.4872222222222149" height="0.4872222222222149" fill="#FFDC00" />
<rect x="3.942777777777719" y="2.4661111111110743" width="0.4872222222222149" height="0.4872222222222149" fill="#FFDC00" />
<rect x="0.005" y="2.9583333333332895" width="0.4872222222222149" height="0.4872222222222149" fill="#FFDC00" />
<rect x="0.4972222222222149" y="2.9583333333332895" width="0.4872222222222149" height="0.4872222222222149" fill="#FF4136" />
<rect x="0.9894444444444298" y="2.9583333333332895" width="0.4872222222222149" height="0.4872222222222149" fill="#FF4136" />
<rect x="1.4816666666666447" y="2.9583333333332895" width="0.4872222222222149" height="0.4872222222222149" fill="#FFDC00" />
<rect x="1.9738888888888595" y="2.9583333333332895" width="0.4872222222222149" height="0.4872222222222149" fill="#FFDC00" />
<rect x="2.4661111111110743" y="2.9583333333332895" width="0.4872222222222149" height="0.4872222222222149" fill="#FFDC00" />
<rect x="2.9583333333332895" y="2.9583333333332895" width="0.4872222222222149" height="0.4872222222222149" fill="#FF4136" />
<rect x="3.4505555555555043" y="2.9583333333332895" width="0.4872222222222149" height="0.4872222222222149" fill="#FF4136" />
<rect x="3.942777777777719" y="2.9583333333332895" width="0.4872222222222149" height="0.4872222222222149" fill="#FFDC00" />
<rect x="0.005" y="3.4505555555555043" width="0.4872222222222149" height="0.4872222222222149" fill="#FF4136" />
<rect x="0.4972222222222149" y="3.4505555555555043" width="0.4872222222222149" height="0.4872222222222149" fill="#FF4136" />
<rect x="0.9894444444444298" y="3.4505555555555043" width="0.4872222222222149" height="0.4872222222222149" fill="#FF4136" />
<rect x="1.4816666666666447" y="3.4505555555555043" width="0.4872222222222149" height="0.4872222222222149" fill="#FF4136" />
<rect x="1.9738888888888595" y="3.4505555555555043" width="0.4872222222222149" height="0.4872222222222149" fill="#FF4136" />
<rect x="2.4661111111110743" y="3.4505555555555043" width="0.4872222222222149" height="0.4872222222222149" fill="#FF4136" />
<rect x="2.9583333333332895" y="3.4505555555555043" width="0.4872222222222149" height="0.4872222222222149" fill="#FF4136" />
<rect x="3.4505555555555043" y="3.4505555555555043" width="0.4872222222222149" height="0.4872222222222149" fill="#FF4136" />
<rect x="3.942777777777719" y="3.4505555555555043" width="0.4872222222222149" height="0.4872222222222149" fill="#FF4136" />
<rect x="0.005" y="3.942777777777719" width="0.4872222222222149" height="0.4872222222222149" fill="#FF4136" />
<rect x="0.4972222222222149" y="3.942777777777719" width="0.4872222222222149" height="0.4872222222222149" fill="#37D449" />
<rect x="0.9894444444444298" y="3.942777777777719" width="0.4872222222222149" height="0.4872222222222149" fill="#FF4136" />
<rect x="1.4816666666666447" y="3.942777777777719" width="0.4872222222222149" height="0.4872222222222149" fill="#FF4136" />
<rect x="1.9738888888888595" y="3.942777777777719" width="0.4872222222222149" height="0.4872222222222149" fill="#FF4136" />
<rect x="2.4661111111110743" y="3.942777777777719" width="0.4872222222222149" height="0.4872222222222149" fill="#FF4136" />
<rect x="2.9583333333332895" y="3.942777777777719" width="0.4872222222222149" height="0.4872222222222149" fill="#FF4136" />
<rect x="3.4505555555555043" y="3.942777777777719" width="0.4872222222222149" height="0.4872222222222149" fill="#37D449" />
<rect x="3.942777777777719" y="3.942777777777719" width="0.4872222222222149" height="0.4872222222222149" fill="#37D449" />
<rect x="0.005" y="4.434999999999934" width="0.4872222222222149" height="0.4872222222222149" fill="#37D449" />
<rect x="0.4972222222222149" y="4.434999999999934" width="0.4872222222222149" height="0.4872222222222149" fill="#37D449" />
<rect x="0.9894444444444298" y="4.434999999999934" width="0.4872222222222149" height="0.4872222222222149" fill="#37D449" />
<rect x="1.4816666666666447" y="4.434999999999934" width="0.4872222222222149" height="0.4872222222222149" fill="#37D449" />
<rect x="1.9738888888888595" y="4.434999999999934" width="0.4872222222222149" height="0.4872222222222149" fill="#37D449" />
<rect x="2.4661111111110743" y="4.434999999999934" width="0.4872222222222149" height="0.4872222222222149" fill="#37D449" />
<rect x="2.9583333333332895" y="4.434999999999934" width="0.4872222222222149" height="0.4872222222222149" fill="#37D449" />
<rect x="3.4505555555555043" y="4.434999999999934" width="0.4872222222222149" height="0.4872222222222149" fill="#37D449" />
<rect x="3.942777777777719" y="4.434999999999934" width="0.4872222222222149" height="0.4872222222222149" fill="#37D449" />
<rect x="0.005" y="4.927222222222149" width="0.4872222222222149" height="0.4872222222222149" fill="#37D449" />
<rect x="0.4972222222222149" y="4.927222222222149" width="0.4872222222222149" height="0.4872222222222149" fill="#37D449" />
<rect x="0.9894444444444298" y="4.927222222222149" width="0.4872222222222149" height="0.4872222222222149" fill="#37D449" />
<rect x="1.4816666666666447" y="4.927222222222149" width="0.4872222222222149" height="0.4872222222222149" fill="#37D449" />
<rect x="1.9738888888888595" y="4.927222222222149" width="0.4872222222222149" height="0.4872222222222149" fill="#37D449" />
<rect x="2.4661111111110743" y="4.927222222222149" width="0.4872222222222149" height="0.4872222222222149" fill="#37D449" />
<rect x="2.9583333333332895" y="4.927222222222149" width="0.4872222222222149" height="0.4872222222222149" fill="#37D449" />
<rect x="3.4505555555555043" y="4.927222222222149" width="0.4872222222222149" height="0.4872222222222149" fill="#37D449" />
<rect x="3.942777777777719" y="4.927222222222149" width="0.4872222222222149" height="0.4872222222222149" fill="#37D449" />
<rect x="-0.02666666666666667" y="-0.02666666666666667" width="4.483333333333268" height="5.467777777777697" fill="none" stroke="#111111ff" stroke-width="0.08" />
<text x="4.429999999999934" y="5.883194444444364" font-size="0.375" fill="black" text-anchor="end" font-family="Anuphan">9x11</text>
<text x="-0.037500000000000006" y="5.883194444444364" font-size="0.375" fill="black" text-anchor="start" font-family="Anuphan" font-weight="600">Input 3</text>
</g>
<g id="d3">
<rect x="0.005" y="0.005" width="0.32892857142856635" height="0.32892857142856635" fill="#37D449" />
<rect x="0.33892857142856636" y="0.005" width="0.32892857142856635" height="0.32892857142856635" fill="#37D449" />
<rect x="0.6728571428571327" y="0.005" width="0.32892857142856635" height="0.32892857142856635" fill="#37D449" />
<rect x="1.0067857142856989" y="0.005" width="0.32892857142856635" height="0.32892857142856635" fill="#37D449" />
<rect x="1.3407142857142653" y="0.005" width="0.32892857142856635" height="0.32892857142856635" fill="#FF4136" />
<rect x="1.6746428571428318" y="0.005" width="0.32892857142856635" height="0.32892857142856635" fill="#FF4136" />
<rect x="2.008571428571398" y="0.005" width="0.32892857142856635" height="0.32892857142856635" fill="#FF4136" />
<rect x="2.3424999999999643" y="0.005" width="0.32892857142856635" height="0.32892857142856635" fill="#FF4136" />
<rect x="2.6764285714285307" y="0.005" width="0.32892857142856635" height="0.32892857142856635" fill="#FF4136" />
<rect x="3.010357142857097" y="0.005" width="0.32892857142856635" height="0.32892857142856635" fill="#0074D9" />
<rect x="3.3442857142856637" y="0.005" width="0.32892857142856635" height="0.32892857142856635" fill="#0074D9" />
<rect x="3.6782142857142297" y="0.005" width="0.32892857142856635" height="0.32892857142856635" fill="#0074D9" />
<rect x="4.012142857142796" y="0.005" width="0.32892857142856635" height="0.32892857142856635" fill="#54D2EB" />
<rect x="4.346071428571363" y="0.005" width="0.32892857142856635" height="0.32892857142856635" fill="#54D2EB" />
<rect x="0.005" y="0.33892857142856636" width="0.32892857142856635" height="0.32892857142856635" fill="#37D449" />
<rect x="0.33892857142856636" y="0.33892857142856636" width="0.32892857142856635" height="0.32892857142856635" fill="#37D449" />
<rect x="0.6728571428571327" y="0.33892857142856636" width="0.32892857142856635" height="0.32892857142856635" fill="#37D449" />
<rect x="1.0067857142856989" y="0.33892857142856636" width="0.32892857142856635" height="0.32892857142856635" fill="#FF4136" />
<rect x="1.3407142857142653" y="0.33892857142856636" width="0.32892857142856635" height="0.32892857142856635" fill="#FF4136" />
<rect x="1.6746428571428318" y="0.33892857142856636" width="0.32892857142856635" height="0.32892857142856635" fill="#FF4136" />
<rect x="2.008571428571398" y="0.33892857142856636" width="0.32892857142856635" height="0.32892857142856635" fill="#FF4136" />
<rect x="2.3424999999999643" y="0.33892857142856636" width="0.32892857142856635" height="0.32892857142856635" fill="#FF4136" />
<rect x="2.6764285714285307" y="0.33892857142856636" width="0.32892857142856635" height="0.32892857142856635" fill="#0074D9" />
<rect x="3.010357142857097" y="0.33892857142856636" width="0.32892857142856635" height="0.32892857142856635" fill="#0074D9" />
<rect x="3.3442857142856637" y="0.33892857142856636" width="0.32892857142856635" height="0.32892857142856635" fill="#0074D9" />
<rect x="3.6782142857142297" y="0.33892857142856636" width="0.32892857142856635" height="0.32892857142856635" fill="#54D2EB" />
<rect x="4.012142857142796" y="0.33892857142856636" width="0.32892857142856635" height="0.32892857142856635" fill="#54D2EB" />
<rect x="4.346071428571363" y="0.33892857142856636" width="0.32892857142856635" height="0.32892857142856635" fill="#54D2EB" />
<rect x="0.005" y="0.6728571428571327" width="0.32892857142856635" height="0.32892857142856635" fill="#37D449" />
<rect x="0.33892857142856636" y="0.6728571428571327" width="0.32892857142856635" height="0.32892857142856635" fill="#37D449" />
<rect x="0.6728571428571327" y="0.6728571428571327" width="0.32892857142856635" height="0.32892857142856635" fill="#37D449" />
<rect x="1.0067857142856989" y="0.6728571428571327" width="0.32892857142856635" height="0.32892857142856635" fill="#37D449" />
<rect x="1.3407142857142653" y="0.6728571428571327" width="0.32892857142856635" height="0.32892857142856635" fill="#37D449" />
<rect x="1.6746428571428318" y="0.6728571428571327" width="0.32892857142856635" height="0.32892857142856635" fill="#FF4136" />
<rect x="2.008571428571398" y="0.6728571428571327" width="0.32892857142856635" height="0.32892857142856635" fill="#FF4136" />
<rect x="2.3424999999999643" y="0.6728571428571327" width="0.32892857142856635" height="0.32892857142856635" fill="#0074D9" />
<rect x="2.6764285714285307" y="0.6728571428571327" width="0.32892857142856635" height="0.32892857142856635" fill="#0074D9" />
<rect x="3.010357142857097" y="0.6728571428571327" width="0.32892857142856635" height="0.32892857142856635" fill="#0074D9" />
<rect x="3.3442857142856637" y="0.6728571428571327" width="0.32892857142856635" height="0.32892857142856635" fill="#54D2EB" />
<rect x="3.6782142857142297" y="0.6728571428571327" width="0.32892857142856635" height="0.32892857142856635" fill="#54D2EB" />
<rect x="4.012142857142796" y="0.6728571428571327" width="0.32892857142856635" height="0.32892857142856635" fill="#54D2EB" />
<rect x="4.346071428571363" y="0.6728571428571327" width="0.32892857142856635" height="0.32892857142856635" fill="#54D2EB" />
<rect x="0.005" y="1.0067857142856989" width="0.32892857142856635" height="0.32892857142856635" fill="#37D449" />
<rect x="0.33892857142856636" y="1.0067857142856989" width="0.32892857142856635" height="0.32892857142856635" fill="#37D449" />
<rect x="0.6728571428571327" y="1.0067857142856989" width="0.32892857142856635" height="0.32892857142856635" fill="#37D449" />
<rect x="1.0067857142856989" y="1.0067857142856989" width="0.32892857142856635" height="0.32892857142856635" fill="#37D449" />
<rect x="1.3407142857142653" y="1.0067857142856989" width="0.32892857142856635" height="0.32892857142856635" fill="#37D449" />
<rect x="1.6746428571428318" y="1.0067857142856989" width="0.32892857142856635" height="0.32892857142856635" fill="#FF4136" />
<rect x="2.008571428571398" y="1.0067857142856989" width="0.32892857142856635" height="0.32892857142856635" fill="#FF4136" />
<rect x="2.3424999999999643" y="1.0067857142856989" width="0.32892857142856635" height="0.32892857142856635" fill="#0074D9" />
<rect x="2.6764285714285307" y="1.0067857142856989" width="0.32892857142856635" height="0.32892857142856635" fill="#0074D9" />
<rect x="3.010357142857097" y="1.0067857142856989" width="0.32892857142856635" height="0.32892857142856635" fill="#0074D9" />
<rect x="3.3442857142856637" y="1.0067857142856989" width="0.32892857142856635" height="0.32892857142856635" fill="#0074D9" />
<rect x="3.6782142857142297" y="1.0067857142856989" width="0.32892857142856635" height="0.32892857142856635" fill="#54D2EB" />
<rect x="4.012142857142796" y="1.0067857142856989" width="0.32892857142856635" height="0.32892857142856635" fill="#54D2EB" />
<rect x="4.346071428571363" y="1.0067857142856989" width="0.32892857142856635" height="0.32892857142856635" fill="#54D2EB" />
<rect x="0.005" y="1.3407142857142653" width="0.32892857142856635" height="0.32892857142856635" fill="#37D449" />
<rect x="0.33892857142856636" y="1.3407142857142653" width="0.32892857142856635" height="0.32892857142856635" fill="#37D449" />
<rect x="0.6728571428571327" y="1.3407142857142653" width="0.32892857142856635" height="0.32892857142856635" fill="#37D449" />
<rect x="1.0067857142856989" y="1.3407142857142653" width="0.32892857142856635" height="0.32892857142856635" fill="#37D449" />
<rect x="1.3407142857142653" y="1.3407142857142653" width="0.32892857142856635" height="0.32892857142856635" fill="#FF4136" />
<rect x="1.6746428571428318" y="1.3407142857142653" width="0.32892857142856635" height="0.32892857142856635" fill="#FF4136" />
<rect x="2.008571428571398" y="1.3407142857142653" width="0.32892857142856635" height="0.32892857142856635" fill="#FF4136" />
<rect x="2.3424999999999643" y="1.3407142857142653" width="0.32892857142856635" height="0.32892857142856635" fill="#FF4136" />
<rect x="2.6764285714285307" y="1.3407142857142653" width="0.32892857142856635" height="0.32892857142856635" fill="#FF4136" />
<rect x="3.010357142857097" y="1.3407142857142653" width="0.32892857142856635" height="0.32892857142856635" fill="#0074D9" />
<rect x="3.3442857142856637" y="1.3407142857142653" width="0.32892857142856635" height="0.32892857142856635" fill="#0074D9" />
<rect x="3.6782142857142297" y="1.3407142857142653" width="0.32892857142856635" height="0.32892857142856635" fill="#0074D9" />
<rect x="4.012142857142796" y="1.3407142857142653" width="0.32892857142856635" height="0.32892857142856635" fill="#54D2EB" />
<rect x="4.346071428571363" y="1.3407142857142653" width="0.32892857142856635" height="0.32892857142856635" fill="#54D2EB" />
<rect x="0.005" y="1.6746428571428318" width="0.32892857142856635" height="0.32892857142856635" fill="#37D449" />
<rect x="0.33892857142856636" y="1.6746428571428318" width="0.32892857142856635" height="0.32892857142856635" fill="#37D449" />
<rect x="0.6728571428571327" y="1.6746428571428318" width="0.32892857142856635" height="0.32892857142856635" fill="#37D449" />
<rect x="1.0067857142856989" y="1.6746428571428318" width="0.32892857142856635" height="0.32892857142856635" fill="#37D449" />
<rect x="1.3407142857142653" y="1.6746428571428318" width="0.32892857142856635" height="0.32892857142856635" fill="#37D449" />
<rect x="1.6746428571428318" y="1.6746428571428318" width="0.32892857142856635" height="0.32892857142856635" fill="#FF4136" />
<rect x="2.008571428571398" y="1.6746428571428318" width="0.32892857142856635" height="0.32892857142856635" fill="#FF4136" />
<rect x="2.3424999999999643" y="1.6746428571428318" width="0.32892857142856635" height="0.32892857142856635" fill="#FF4136" />
<rect x="2.6764285714285307" y="1.6746428571428318" width="0.32892857142856635" height="0.32892857142856635" fill="#FF4136" />
<rect x="3.010357142857097" y="1.6746428571428318" width="0.32892857142856635" height="0.32892857142856635" fill="#0074D9" />
<rect x="3.3442857142856637" y="1.6746428571428318" width="0.32892857142856635" height="0.32892857142856635" fill="#0074D9" />
<rect x="3.6782142857142297" y="1.6746428571428318" width="0.32892857142856635" height="0.32892857142856635" fill="#0074D9" />
<rect x="4.012142857142796" y="1.6746428571428318" width="0.32892857142856635" height="0.32892857142856635" fill="#0074D9" />
<rect x="4.346071428571363" y="1.6746428571428318" width="0.32892857142856635" height="0.32892857142856635" fill="#54D2EB" />
<rect x="0.005" y="2.008571428571398" width="0.32892857142856635" height="0.32892857142856635" fill="#37D449" />
<rect x="0.33892857142856636" y="2.008571428571398" width="0.32892857142856635" height="0.32892857142856635" fill="#37D449" />
<rect x="0.6728571428571327" y="2.008571428571398" width="0.32892857142856635" height="0.32892857142856635" fill="#37D449" />
<rect x="1.0067857142856989" y="2.008571428571398" width="0.32892857142856635" height="0.32892857142856635" fill="#FF4136" />
<rect x="1.3407142857142653" y="2.008571428571398" width="0.32892857142856635" height="0.32892857142856635" fill="#FF4136" />
<rect x="1.6746428571428318" y="2.008571428571398" width="0.32892857142856635" height="0.32892857142856635" fill="#FF4136" />
<rect x="2.008571428571398" y="2.008571428571398" width="0.32892857142856635" height="0.32892857142856635" fill="#FF4136" />
<rect x="2.3424999999999643" y="2.008571428571398" width="0.32892857142856635" height="0.32892857142856635" fill="#FF4136" />
<rect x="2.6764285714285307" y="2.008571428571398" width="0.32892857142856635" height="0.32892857142856635" fill="#0074D9" />
<rect x="3.010357142857097" y="2.008571428571398" width="0.32892857142856635" height="0.32892857142856635" fill="#0074D9" />
<rect x="3.3442857142856637" y="2.008571428571398" width="0.32892857142856635" height="0.32892857142856635" fill="#0074D9" />
<rect x="3.6782142857142297" y="2.008571428571398" width="0.32892857142856635" height="0.32892857142856635" fill="#0074D9" />
<rect x="4.012142857142796" y="2.008571428571398" width="0.32892857142856635" height="0.32892857142856635" fill="#54D2EB" />
<rect x="4.346071428571363" y="2.008571428571398" width="0.32892857142856635" height="0.32892857142856635" fill="#54D2EB" />
<rect x="0.005" y="2.3424999999999643" width="0.32892857142856635" height="0.32892857142856635" fill="#37D449" />
<rect x="0.33892857142856636" y="2.3424999999999643" width="0.32892857142856635" height="0.32892857142856635" fill="#37D449" />
<rect x="0.6728571428571327" y="2.3424999999999643" width="0.32892857142856635" height="0.32892857142856635" fill="#37D449" />
<rect x="1.0067857142856989" y="2.3424999999999643" width="0.32892857142856635" height="0.32892857142856635" fill="#37D449" />
<rect x="1.3407142857142653" y="2.3424999999999643" width="0.32892857142856635" height="0.32892857142856635" fill="#FF4136" />
<rect x="1.6746428571428318" y="2.3424999999999643" width="0.32892857142856635" height="0.32892857142856635" fill="#FF4136" />
<rect x="2.008571428571398" y="2.3424999999999643" width="0.32892857142856635" height="0.32892857142856635" fill="#FF4136" />
<rect x="2.3424999999999643" y="2.3424999999999643" width="0.32892857142856635" height="0.32892857142856635" fill="#FF4136" />
<rect x="2.6764285714285307" y="2.3424999999999643" width="0.32892857142856635" height="0.32892857142856635" fill="#0074D9" />
<rect x="3.010357142857097" y="2.3424999999999643" width="0.32892857142856635" height="0.32892857142856635" fill="#0074D9" />
<rect x="3.3442857142856637" y="2.3424999999999643" width="0.32892857142856635" height="0.32892857142856635" fill="#0074D9" />
<rect x="3.6782142857142297" y="2.3424999999999643" width="0.32892857142856635" height="0.32892857142856635" fill="#54D2EB" />
<rect x="4.012142857142796" y="2.3424999999999643" width="0.32892857142856635" height="0.32892857142856635" fill="#54D2EB" />
<rect x="4.346071428571363" y="2.3424999999999643" width="0.32892857142856635" height="0.32892857142856635" fill="#54D2EB" />
<rect x="0.005" y="2.6764285714285307" width="0.32892857142856635" height="0.32892857142856635" fill="#37D449" />
<rect x="0.33892857142856636" y="2.6764285714285307" width="0.32892857142856635" height="0.32892857142856635" fill="#37D449" />
<rect x="0.6728571428571327" y="2.6764285714285307" width="0.32892857142856635" height="0.32892857142856635" fill="#37D449" />
<rect x="1.0067857142856989" y="2.6764285714285307" width="0.32892857142856635" height="0.32892857142856635" fill="#37D449" />
<rect x="1.3407142857142653" y="2.6764285714285307" width="0.32892857142856635" height="0.32892857142856635" fill="#FF4136" />
<rect x="1.6746428571428318" y="2.6764285714285307" width="0.32892857142856635" height="0.32892857142856635" fill="#FF4136" />
<rect x="2.008571428571398" y="2.6764285714285307" width="0.32892857142856635" height="0.32892857142856635" fill="#FF4136" />
<rect x="2.3424999999999643" y="2.6764285714285307" width="0.32892857142856635" height="0.32892857142856635" fill="#FF4136" />
<rect x="2.6764285714285307" y="2.6764285714285307" width="0.32892857142856635" height="0.32892857142856635" fill="#0074D9" />
<rect x="3.010357142857097" y="2.6764285714285307" width="0.32892857142856635" height="0.32892857142856635" fill="#0074D9" />
<rect x="3.3442857142856637" y="2.6764285714285307" width="0.32892857142856635" height="0.32892857142856635" fill="#0074D9" />
<rect x="3.6782142857142297" y="2.6764285714285307" width="0.32892857142856635" height="0.32892857142856635" fill="#0074D9" />
<rect x="4.012142857142796" y="2.6764285714285307" width="0.32892857142856635" height="0.32892857142856635" fill="#54D2EB" />
<rect x="4.346071428571363" y="2.6764285714285307" width="0.32892857142856635" height="0.32892857142856635" fill="#54D2EB" />
<rect x="0.005" y="3.010357142857097" width="0.32892857142856635" height="0.32892857142856635" fill="#37D449" />
<rect x="0.33892857142856636" y="3.010357142857097" width="0.32892857142856635" height="0.32892857142856635" fill="#37D449" />
<rect x="0.6728571428571327" y="3.010357142857097" width="0.32892857142856635" height="0.32892857142856635" fill="#37D449" />
<rect x="1.0067857142856989" y="3.010357142857097" width="0.32892857142856635" height="0.32892857142856635" fill="#FF4136" />
<rect x="1.3407142857142653" y="3.010357142857097" width="0.32892857142856635" height="0.32892857142856635" fill="#FF4136" />
<rect x="1.6746428571428318" y="3.010357142857097" width="0.32892857142856635" height="0.32892857142856635" fill="#FF4136" />
<rect x="2.008571428571398" y="3.010357142857097" width="0.32892857142856635" height="0.32892857142856635" fill="#FF4136" />
<rect x="2.3424999999999643" y="3.010357142857097" width="0.32892857142856635" height="0.32892857142856635" fill="#FF4136" />
<rect x="2.6764285714285307" y="3.010357142857097" width="0.32892857142856635" height="0.32892857142856635" fill="#FF4136" />
<rect x="3.010357142857097" y="3.010357142857097" width="0.32892857142856635" height="0.32892857142856635" fill="#0074D9" />
<rect x="3.3442857142856637" y="3.010357142857097" width="0.32892857142856635" height="0.32892857142856635" fill="#0074D9" />
<rect x="3.6782142857142297" y="3.010357142857097" width="0.32892857142856635" height="0.32892857142856635" fill="#0074D9" />
<rect x="4.012142857142796" y="3.010357142857097" width="0.32892857142856635" height="0.32892857142856635" fill="#54D2EB" />
<rect x="4.346071428571363" y="3.010357142857097" width="0.32892857142856635" height="0.32892857142856635" fill="#54D2EB" />
<rect x="0.005" y="3.3442857142856637" width="0.32892857142856635" height="0.32892857142856635" fill="#37D449" />
<rect x="0.33892857142856636" y="3.3442857142856637" width="0.32892857142856635" height="0.32892857142856635" fill="#37D449" />
<rect x="0.6728571428571327" y="3.3442857142856637" width="0.32892857142856635" height="0.32892857142856635" fill="#37D449" />
<rect x="1.0067857142856989" y="3.3442857142856637" width="0.32892857142856635" height="0.32892857142856635" fill="#FF4136" />
<rect x="1.3407142857142653" y="3.3442857142856637" width="0.32892857142856635" height="0.32892857142856635" fill="#FF4136" />
<rect x="1.6746428571428318" y="3.3442857142856637" width="0.32892857142856635" height="0.32892857142856635" fill="#FF4136" />
<rect x="2.008571428571398" y="3.3442857142856637" width="0.32892857142856635" height="0.32892857142856635" fill="#FF4136" />
<rect x="2.3424999999999643" y="3.3442857142856637" width="0.32892857142856635" height="0.32892857142856635" fill="#FF4136" />
<rect x="2.6764285714285307" y="3.3442857142856637" width="0.32892857142856635" height="0.32892857142856635" fill="#FF4136" />
<rect x="3.010357142857097" y="3.3442857142856637" width="0.32892857142856635" height="0.32892857142856635" fill="#0074D9" />
<rect x="3.3442857142856637" y="3.3442857142856637" width="0.32892857142856635" height="0.32892857142856635" fill="#0074D9" />
<rect x="3.6782142857142297" y="3.3442857142856637" width="0.32892857142856635" height="0.32892857142856635" fill="#54D2EB" />
<rect x="4.012142857142796" y="3.3442857142856637" width="0.32892857142856635" height="0.32892857142856635" fill="#54D2EB" />
<rect x="4.346071428571363" y="3.3442857142856637" width="0.32892857142856635" height="0.32892857142856635" fill="#54D2EB" />
<rect x="0.005" y="3.6782142857142297" width="0.32892857142856635" height="0.32892857142856635" fill="#37D449" />
<rect x="0.33892857142856636" y="3.6782142857142297" width="0.32892857142856635" height="0.32892857142856635" fill="#37D449" />
<rect x="0.6728571428571327" y="3.6782142857142297" width="0.32892857142856635" height="0.32892857142856635" fill="#37D449" />
<rect x="1.0067857142856989" y="3.6782142857142297" width="0.32892857142856635" height="0.32892857142856635" fill="#37D449" />
<rect x="1.3407142857142653" y="3.6782142857142297" width="0.32892857142856635" height="0.32892857142856635" fill="#FF4136" />
<rect x="1.6746428571428318" y="3.6782142857142297" width="0.32892857142856635" height="0.32892857142856635" fill="#FF4136" />
<rect x="2.008571428571398" y="3.6782142857142297" width="0.32892857142856635" height="0.32892857142856635" fill="#FF4136" />
<rect x="2.3424999999999643" y="3.6782142857142297" width="0.32892857142856635" height="0.32892857142856635" fill="#FF4136" />
<rect x="2.6764285714285307" y="3.6782142857142297" width="0.32892857142856635" height="0.32892857142856635" fill="#0074D9" />
<rect x="3.010357142857097" y="3.6782142857142297" width="0.32892857142856635" height="0.32892857142856635" fill="#0074D9" />
<rect x="3.3442857142856637" y="3.6782142857142297" width="0.32892857142856635" height="0.32892857142856635" fill="#0074D9" />
<rect x="3.6782142857142297" y="3.6782142857142297" width="0.32892857142856635" height="0.32892857142856635" fill="#0074D9" />
<rect x="4.012142857142796" y="3.6782142857142297" width="0.32892857142856635" height="0.32892857142856635" fill="#54D2EB" />
<rect x="4.346071428571363" y="3.6782142857142297" width="0.32892857142856635" height="0.32892857142856635" fill="#54D2EB" />
<rect x="0.005" y="4.012142857142796" width="0.32892857142856635" height="0.32892857142856635" fill="#37D449" />
<rect x="0.33892857142856636" y="4.012142857142796" width="0.32892857142856635" height="0.32892857142856635" fill="#37D449" />
<rect x="0.6728571428571327" y="4.012142857142796" width="0.32892857142856635" height="0.32892857142856635" fill="#37D449" />
<rect x="1.0067857142856989" y="4.012142857142796" width="0.32892857142856635" height="0.32892857142856635" fill="#37D449" />
<rect x="1.3407142857142653" y="4.012142857142796" width="0.32892857142856635" height="0.32892857142856635" fill="#37D449" />
<rect x="1.6746428571428318" y="4.012142857142796" width="0.32892857142856635" height="0.32892857142856635" fill="#FF4136" />
<rect x="2.008571428571398" y="4.012142857142796" width="0.32892857142856635" height="0.32892857142856635" fill="#FF4136" />
<rect x="2.3424999999999643" y="4.012142857142796" width="0.32892857142856635" height="0.32892857142856635" fill="#FF4136" />
<rect x="2.6764285714285307" y="4.012142857142796" width="0.32892857142856635" height="0.32892857142856635" fill="#0074D9" />
<rect x="3.010357142857097" y="4.012142857142796" width="0.32892857142856635" height="0.32892857142856635" fill="#0074D9" />
<rect x="3.3442857142856637" y="4.012142857142796" width="0.32892857142856635" height="0.32892857142856635" fill="#0074D9" />
<rect x="3.6782142857142297" y="4.012142857142796" width="0.32892857142856635" height="0.32892857142856635" fill="#0074D9" />
<rect x="4.012142857142796" y="4.012142857142796" width="0.32892857142856635" height="0.32892857142856635" fill="#54D2EB" />
<rect x="4.346071428571363" y="4.012142857142796" width="0.32892857142856635" height="0.32892857142856635" fill="#54D2EB" />
<rect x="0.005" y="4.346071428571363" width="0.32892857142856635" height="0.32892857142856635" fill="#37D449" />
<rect x="0.33892857142856636" y="4.346071428571363" width="0.32892857142856635" height="0.32892857142856635" fill="#37D449" />
<rect x="0.6728571428571327" y="4.346071428571363" width="0.32892857142856635" height="0.32892857142856635" fill="#37D449" />
<rect x="1.0067857142856989" y="4.346071428571363" width="0.32892857142856635" height="0.32892857142856635" fill="#37D449" />
<rect x="1.3407142857142653" y="4.346071428571363" width="0.32892857142856635" height="0.32892857142856635" fill="#37D449" />
<rect x="1.6746428571428318" y="4.346071428571363" width="0.32892857142856635" height="0.32892857142856635" fill="#37D449" />
<rect x="2.008571428571398" y="4.346071428571363" width="0.32892857142856635" height="0.32892857142856635" fill="#FF4136" />
<rect x="2.3424999999999643" y="4.346071428571363" width="0.32892857142856635" height="0.32892857142856635" fill="#FF4136" />
<rect x="2.6764285714285307" y="4.346071428571363" width="0.32892857142856635" height="0.32892857142856635" fill="#FF4136" />
<rect x="3.010357142857097" y="4.346071428571363" width="0.32892857142856635" height="0.32892857142856635" fill="#0074D9" />
<rect x="3.3442857142856637" y="4.346071428571363" width="0.32892857142856635" height="0.32892857142856635" fill="#0074D9" />
<rect x="3.6782142857142297" y="4.346071428571363" width="0.32892857142856635" height="0.32892857142856635" fill="#0074D9" />
<rect x="4.012142857142796" y="4.346071428571363" width="0.32892857142856635" height="0.32892857142856635" fill="#54D2EB" />
<rect x="4.346071428571363" y="4.346071428571363" width="0.32892857142856635" height="0.32892857142856635" fill="#54D2EB" />
<rect x="-0.02666666666666667" y="-0.02666666666666667" width="4.7283333333332624" height="4.7283333333332624" fill="none" stroke="#111111ff" stroke-width="0.08" />
<text x="4.674999999999929" y="5.143749999999929" font-size="0.375" fill="black" text-anchor="end" font-family="Anuphan">14x14</text>
<text x="-0.037500000000000006" y="5.143749999999929" font-size="0.375" fill="black" text-anchor="start" font-family="Anuphan" font-weight="600">Test 1</text>
</g>
<g id="d4">
<rect x="0.005" y="0.005" width="1.5533333333333097" height="1.5533333333333097" fill="#FFDC00" />
<rect x="1.5633333333333095" y="0.005" width="1.5533333333333097" height="1.5533333333333097" fill="#FF4136" />
<rect x="3.121666666666619" y="0.005" width="1.5533333333333097" height="1.5533333333333097" fill="#54D2EB" />
<rect x="-0.02666666666666667" y="-0.02666666666666667" width="4.7283333333332624" height="1.6116666666666428" fill="none" stroke="#111111ff" stroke-width="0.08" />
<text x="4.674999999999929" y="2.0270833333333096" font-size="0.375" fill="black" text-anchor="end" font-family="Anuphan">3x1</text>
<text x="-0.037500000000000006" y="2.0270833333333096" font-size="0.375" fill="black" text-anchor="start" font-family="Anuphan" font-weight="600">Output 1</text>
</g>
<g id="d5">
<rect x="0.005" y="0.005" width="1.8033333333333335" height="1.8033333333333335" fill="#FF4136" />
<rect x="0.005" y="1.8133333333333332" width="1.8033333333333335" height="1.8033333333333335" fill="#54D2EB" />
<rect x="0.005" y="3.6216666666666666" width="1.8033333333333335" height="1.8033333333333335" fill="#E6E6E6" />
<rect x="-0.02666666666666667" y="-0.02666666666666667" width="1.8616666666666666" height="5.4783333333333335" fill="none" stroke="#111111ff" stroke-width="0.08" />
<text x="1.8083333333333333" y="5.89375" font-size="0.375" fill="black" text-anchor="end" font-family="Anuphan">1x3</text>
<text x="-0.037500000000000006" y="5.89375" font-size="0.375" fill="black" text-anchor="start" font-family="Anuphan" font-weight="600">Output 2</text>
</g>
<g id="d6">
<rect x="0.005" y="0.005" width="1.35125" height="1.35125" fill="#F012BE" />
<rect x="0.005" y="1.3612499999999998" width="1.35125" height="1.35125" fill="#FFDC00" />
<rect x="0.005" y="2.7175" width="1.35125" height="1.35125" fill="#FF4136" />
<rect x="0.005" y="4.0737499999999995" width="1.35125" height="1.35125" fill="#37D449" />
<rect x="-0.02666666666666667" y="-0.02666666666666667" width="1.4095833333333332" height="5.4783333333333335" fill="none" stroke="#111111ff" stroke-width="0.08" />
<text x="1.35625" y="5.89375" font-size="0.375" fill="black" text-anchor="end" font-family="Anuphan">1x4</text>
<text x="-0.037500000000000006" y="5.89375" font-size="0.375" fill="black" text-anchor="start" font-family="Anuphan" font-weight="600">Output 3</text>
</g>
</defs>
<rect x="0" y="0" width="100%" height="100%" fill="#eeeff6" />
<use xlink:href="#d0" x="0.25" y="0.25" />
<use xlink:href="#d1" x="5.424999999999929" y="0.25" />
<use xlink:href="#d2" x="10.134999999999888" y="0.25" />
<use xlink:href="#d3" x="15.064999999999822" y="0.25" />
<path d="M2.5874999999999644,6.314444444444364 L2.5874999999999644,6.714444444444364" stroke-width="0.05" stroke="#888888" />
<path d="M2.4374999999999645,6.514444444444364 L2.5874999999999644,6.714444444444364" stroke-width="0.05" stroke="#888888" />
<path d="M2.7374999999999643,6.514444444444364 L2.5874999999999644,6.714444444444364" stroke-width="0.05" stroke="#888888" />
<use xlink:href="#d4" x="0.25" y="7.064444444444364" />
<path d="M7.529999999999908,6.314444444444364 L7.529999999999908,6.714444444444364" stroke-width="0.05" stroke="#888888" />
<path d="M7.3799999999999075,6.514444444444364 L7.529999999999908,6.714444444444364" stroke-width="0.05" stroke="#888888" />
<path d="M7.679999999999908,6.514444444444364 L7.529999999999908,6.714444444444364" stroke-width="0.05" stroke="#888888" />
<use xlink:href="#d5" x="6.625833333333241" y="7.064444444444364" />
<path d="M12.349999999999856,6.314444444444364 L12.349999999999856,6.714444444444364" stroke-width="0.05" stroke="#888888" />
<path d="M12.199999999999855,6.514444444444364 L12.349999999999856,6.714444444444364" stroke-width="0.05" stroke="#888888" />
<path d="M12.499999999999856,6.514444444444364 L12.349999999999856,6.714444444444364" stroke-width="0.05" stroke="#888888" />
<use xlink:href="#d6" x="11.671874999999854" y="7.064444444444364" />
<path d="M17.402499999999787,6.314444444444364 L17.402499999999787,6.714444444444364" stroke-width="0.05" stroke="#888888" />
<path d="M17.252499999999788,6.514444444444364 L17.402499999999787,6.714444444444364" stroke-width="0.05" stroke="#888888" />
<path d="M17.552499999999785,6.514444444444364 L17.402499999999787,6.714444444444364" stroke-width="0.05" stroke="#888888" />
<text x="17.402499999999787" y="7.748819444444354" font-size="1" font-family="Anuphan" font-weight="700" fill="#333333" text-anchor="middle" alignment-baseline="middle">?</text>
<text x="19.9" y="13.299999999999999" font-size="0.3" font-family="Anuphan" font-weight="600" fill="#666666" text-anchor="end" alignment-baseline="bottom">Task 4be741c5</text>
</svg>