<?xml version="1.0" encoding="UTF-8"?>
<svg xmlns="http://www.w3.org/2000/svg" xmlns:xlink="http://www.w3.org/1999/xlink"
     width="800.0" height="536.0" viewBox="0 0 20.0 13.399999999999999">
<defs>
<g id="d0">
<rect x="0.005" y="0.005" width="0.5008333333333281" height="0.5008333333333281" fill="#252525" />
<rect x="0.5108333333333281" y="0.005" width="0.5008333333333281" height="0.5008333333333281" fill="#FF4136" />
<rect x="1.0166666666666562" y="0.005" width="0.5008333333333281" height="0.5008333333333281" fill="#252525" />
<rect x="1.5224999999999844" y="0.005" width="0.5008333333333281" height="0.5008333333333281" fill="#252525" />
<rect x="2.0283333333333124" y="0.005" width="0.5008333333333281" height="0.5008333333333281" fill="#252525" />
<rect x="2.5341666666666405" y="0.005" width="0.5008333333333281" height="0.5008333333333281" fill="#252525" />
<rect x="3.039999999999969" y="0.005" width="0.5008333333333281" height="0.5008333333333281" fill="#252525" />
<rect x="3.545833333333297" y="0.005" width="0.5008333333333281" height="0.5008333333333281" fill="#252525" />
<rect x="4.051666666666625" y="0.005" width="0.5008333333333281" height="0.5008333333333281" fill="#252525" />
<rect x="0.005" y="0.5108333333333281" width="0.5008333333333281" height="0.5008333333333281" fill="#FF4136" />
<rect x="0.5108333333333281" y="0.5108333333333281" width="0.5008333333333281" height="0.5008333333333281" fill="#FF4136" />
<rect x="1.0166666666666562" y="0.5108333333333281" width="0.5008333333333281" height="0.5008333333333281" fill="#0074D9" />
<rect x="1.5224999999999844" y="0.5108333333333281" width="0.5008333333333281" height="0.5008333333333281" fill="#252525" />
<rect x="2.0283333333333124" y="0.5108333333333281" width="0.5008333333333281" height="0.5008333333333281" fill="#252525" />
<rect x="2.5341666666666405" y="0.5108333333333281" width="0.5008333333333281" height="0.5008333333333281" fill="#252525" />
<rect x="3.039999999999969" y="0.5108333333333281" width="0.5008333333333281" height="0.5008333333333281" fill="#252525" />
<rect x="3.545833333333297" y="0.5108333333333281" width="0.5008333333333281" height="0.5008333333333281" fill="#252525" />
<rect x="4.051666666666625" y="0.5108333333333281" width="0.5008333333333281" height="0.5008333333333281" fill="#252525" />
<rect x="0.005" y="1.0166666666666562" width="0.5008333333333281" height="0.5008333333333281" fill="#252525" />
<rect x="0.5108333333333281" y="1.0166666666666562" width="0.5008333333333281" height="0.5008333333333281" fill="#0074D9" />
<rect x="1.0166666666666562" y="1.0166666666666562" width="0.5008333333333281" height="0.5008333333333281" fill="#37D449" />
<rect x="1.5224999999999844" y="1.0166666666666562" width="0.5008333333333281" height="0.5008333333333281" fill="#252525" />
<rect x="2.0283333333333124" y="1.0166666666666562" width="0.5008333333333281" height="0.5008333333333281" fill="#252525" />
<rect x="2.5341666666666405" y="1.0166666666666562" width="0.5008333333333281" height="0.5008333333333281" fill="#252525" />
<rect x="3.039999999999969" y="1.0166666666666562" width="0.5008333333333281" height="0.5008333333333281" fill="#252525" />
<rect x="3.545833333333297" y="1.0166666666666562" width="0.5008333333333281" height="0.5008333333333281" fill="#252525" />
<rect x="4.051666666666625" y="1.0166666666666562" width="0.5008333333333281" height="0.5008333333333281" fill="#252525" />
<rect x="0.005" y="1.5224999999999844" width="0.5008333333333281" height="0.5008333333333281" fill="#252525" />
<rect x="0.5108333333333281" y="1.5224999999999844" width="0.5008333333333281" height="0.5008333333333281" fill="#252525" />
<rect x="1.0166666666666562" y="1.5224999999999844" width="0.5008333333333281" height="0.5008333333333281" fill="#252525" />
<rect x="1.5224999999999844" y="1.5224999999999844" width="0.5008333333333281" height="0.5008333333333281" fill="#252525" />
<rect x="2.0283333333333124" y="1.5224999999999844" width="0.5008333333333281" height="0.5008333333333281" fill="#252525" />
<rect x="2.5341666666666405" y="1.5224999999999844" width="0.5008333333333281" height="0.5008333333333281" fill="#252525" />
<rect x="3.039999999999969" y="1.5224999999999844" width="0.5008333333333281" height="0.5008333333333281" fill="#252525" />
<rect x="3.545833333333297" y="1.5224999999999844" width="0.5008333333333281" height="0.5008333333333281" fill="#252525" />
<rect x="4.051666666666625" y="1.5224999999999844" width="0.5008333333333281" height="0.5008333333333281" fill="#252525" />
<rect x="0.005" y="2.0283333333333124" width="0.5008333333333281" height="0.5008333333333281" fill="#252525" />
<rect x="0.5108333333333281" y="2.0283333333333124" width="0.5008333333333281" height="0.5008333333333281" fill="#252525" />
<rect x="1.0166666666666562" y="2.0283333333333124" width="0.5008333333333281" height="0.5008333333333281" fill="#252525" />
<rect x="1.5224999999999844" y="2.0283333333333124" width="0.5008333333333281" height="0.5008333333333281" fill="#252525" />
<rect x="2.0283333333333124" y="2.0283333333333124" width="0.5008333333333281" height="0.5008333333333281" fill="#252525" />
<rect x="2.5341666666666405" y="2.0283333333333124" width="0.5008333333333281" height="0.5008333333333281" fill="#252525" />
<rect x="3.039999999999969" y="2.0283333333333124" width="0.5008333333333281" height="0.5008333333333281" fill="#252525" />
<rect x="3.545833333333297" y="2.0283333333333124" width="0.5008333333333281" height="0.5008333333333281" fill="#252525" />
<rect x="4.051666666666625" y="2.0283333333333124" width="0.5008333333333281" height="0.5008333333333281" fill="#252525" />
<rect x="0.005" y="2.5341666666666405" width="0.5008333333333281" height="0.5008333333333281" fill="#252525" />
<rect x="0.5108333333333281" y="2.5341666666666405" width="0.5008333333333281" height="0.5008333333333281" fill="#252525" />
<rect x="1.0166666666666562" y="2.5341666666666405" width="0.5008333333333281" height="0.5008333333333281" fill="#252525" />
<rect x="1.5224999999999844" y="2.5341666666666405" width="0.5008333333333281" height="0.5008333333333281" fill="#252525" />
<rect x="2.0283333333333124" y="2.5341666666666405" width="0.5008333333333281" height="0.5008333333333281" fill="#252525" />
<rect x="2.5341666666666405" y="2.5341666666666405" width="0.5008333333333281" height="0.5008333333333281" fill="#E6E6E6" />
<rect x="3.039999999999969" y="2.5341666666666405" width="0.5008333333333281" height="0.5008333333333281" fill="#252525" />
<rect x="3.545833333333297" y="2.5341666666666405" width="0.5008333333333281" height="0.5008333333333281" fill="#252525" />
<rect x="4.051666666666625" y="2.5341666666666405" width="0.5008333333333281" height="0.5008333333333281" fill="#252525" />
<rect x="0.005" y="3.039999999999969" width="0.5008333333333281" height="0.5008333333333281" fill="#252525" />
<rect x="0.5108333333333281" y="3.039999999999969" width="0.5008333333333281" height="0.5008333333333281" fill="#252525" />
<rect x="1.0166666666666562" y="3.039999999999969" width="0.5008333333333281" height="0.5008333333333281" fill="#252525" />
<rect x="1.5224999999999844" y="3.039999999999969" width="0.5008333333333281" height="0.5008333333333281" fill="#252525" />
<rect x="2.0283333333333124" y="3.039999999999969" width="0.5008333333333281" height="0.5008333333333281" fill="#252525" />
<rect x="2.5341666666666405" y="3.039999999999969" width="0.5008333333333281" height="0.5008333333333281" fill="#252525" />
<rect x="3.039999999999969" y="3.039999999999969" width="0.5008333333333281" height="0.5008333333333281" fill="#252525" />
<rect x="3.545833333333297" y="3.039999999999969" width="0.5008333333333281" height="0.5008333333333281" fill="#252525" />
<rect x="4.051666666666625" y="3.039999999999969" width="0.5008333333333281" height="0.5008333333333281" fill="#252525" />
<rect x="0.005" y="3.545833333333297" width="0.5008333333333281" height="0.5008333333333281" fill="#252525" />
<rect x="0.5108333333333281" y="3.545833333333297" width="0.5008333333333281" height="0.5008333333333281" fill="#252525" />
<rect x="1.0166666666666562" y="3.545833333333297" width="0.5008333333333281" height="0.5008333333333281" fill="#252525" />
<rect x="1.5224999999999844" y="3.545833333333297" width="0.5008333333333281" height="0.5008333333333281" fill="#252525" />
<rect x="2.0283333333333124" y="3.545833333333297" width="0.5008333333333281" height="0.5008333333333281" fill="#252525" />
<rect x="2.5341666666666405" y="3.545833333333297" width="0.5008333333333281" height="0.5008333333333281" fill="#252525" />
<rect x="3.039999999999969" y="3.545833333333297" width="0.5008333333333281" height="0.5008333333333281" fill="#252525" />
<rect x="3.545833333333297" y="3.545833333333297" width="0.5008333333333281" height="0.5008333333333281" fill="#252525" />
<rect x="4.051666666666625" y="3.545833333333297" width="0.5008333333333281" height="0.5008333333333281" fill="#252525" />
<rect x="0.005" y="4.051666666666625" width="0.5008333333333281" height="0.5008333333333281" fill="#252525" />
<rect x="0.5108333333333281" y="4.051666666666625" width="0.5008333333333281" height="0.5008333333333281" fill="#252525" />
<rect x="1.0166666666666562" y="4.051666666666625" width="0.5008333333333281" height="0.5008333333333281" fill="#252525" />
<rect x="1.5224999999999844" y="4.051666666666625" width="0.5008333333333281" height="0.5008333333333281" fill="#252525" />
<rect x="2.0283333333333124" y="4.051666666666625" width="0.5008333333333281" height="0.5008333333333281" fill="#252525" />
<rect x="2.5341666666666405" y="4.051666666666625" width="0.5008333333333281" height="0.5008333333333281" fill="#252525" />
<rect x="3.039999999999969" y="4.051666666666625" width="0.5008333333333281" height="0.5008333333333281" fill="#252525" />
<rect x="3.545833333333297" y="4.051666666666625" width="0.5008333333333281" height="0.5008333333333281" fill="#252525" />
<rect x="4.051666666666625" y="4.051666666666625" width="0.5008333333333281" height="0.5008333333333281" fill="#252525" />
<rect x="-0.02666666666666667" y="-0.02666666666666667" width="4.605833333333287" height="4.605833333333287" fill="none" stroke="#111111ff" stroke-width="0.08" />
<text x="4.552499999999953" y="5.021249999999953" font-size="0.375" fill="black" text-anchor="end" font-family="Anuphan">9x9</text>
<text x="-0.037500000000000006" y="5.021249999999953" font-size="0.375" fill="black" text-anchor="start" font-family="Anuphan" font-weight="600">Input 1</text>
</g>
<g id="d1">
<rect x="0.005" y="0.005" width="0.6453571428571362" height="0.6453571428571362" fill="#252525" />
<rect x="0.6553571428571362" y="0.005" width="0.6453571428571362" height="0.6453571428571362" fill="#252525" />
<rect x="1.3057142857142723" y="0.005" width="0.6453571428571362" height="0.6453571428571362" fill="#252525" />
<rect x="1.9560714285714085" y="0.005" width="0.6453571428571362" height="0.6453571428571362" fill="#252525" />
<rect x="2.6064285714285447" y="0.005" width="0.6453571428571362" height="0.6453571428571362" fill="#F012BE" />
<rect x="3.256785714285681" y="0.005" width="0.6453571428571362" height="0.6453571428571362" fill="#252525" />
<rect x="3.907142857142817" y="0.005" width="0.6453571428571362" height="0.6453571428571362" fill="#252525" />
<rect x="0.005" y="0.6553571428571362" width="0.6453571428571362" height="0.6453571428571362" fill="#252525" />
<rect x="0.6553571428571362" y="0.6553571428571362" width="0.6453571428571362" height="0.6453571428571362" fill="#252525" />
<rect x="1.3057142857142723" y="0.6553571428571362" width="0.6453571428571362" height="0.6453571428571362" fill="#252525" />
<rect x="1.9560714285714085" y="0.6553571428571362" width="0.6453571428571362" height="0.6453571428571362" fill="#252525" />
<rect x="2.6064285714285447" y="0.6553571428571362" width="0.6453571428571362" height="0.6453571428571362" fill="#0074D9" />
<rect x="3.256785714285681" y="0.6553571428571362" width="0.6453571428571362" height="0.6453571428571362" fill="#0074D9" />
<rect x="3.907142857142817" y="0.6553571428571362" width="0.6453571428571362" height="0.6453571428571362" fill="#252525" />
<rect x="0.005" y="1.3057142857142723" width="0.6453571428571362" height="0.6453571428571362" fill="#252525" />
<rect x="0.6553571428571362" y="1.3057142857142723" width="0.6453571428571362" height="0.6453571428571362" fill="#252525" />
<rect x="1.3057142857142723" y="1.3057142857142723" width="0.6453571428571362" height="0.6453571428571362" fill="#252525" />
<rect x="1.9560714285714085" y="1.3057142857142723" width="0.6453571428571362" height="0.6453571428571362" fill="#252525" />
<rect x="2.6064285714285447" y="1.3057142857142723" width="0.6453571428571362" height="0.6453571428571362" fill="#FF4136" />
<rect x="3.256785714285681" y="1.3057142857142723" width="0.6453571428571362" height="0.6453571428571362" fill="#FF4136" />
<rect x="3.907142857142817" y="1.3057142857142723" width="0.6453571428571362" height="0.6453571428571362" fill="#FF4136" />
<rect x="0.005" y="1.9560714285714085" width="0.6453571428571362" height="0.6453571428571362" fill="#252525" />
<rect x="0.6553571428571362" y="1.9560714285714085" width="0.6453571428571362" height="0.6453571428571362" fill="#252525" />
<rect x="1.3057142857142723" y="1.9560714285714085" width="0.6453571428571362" height="0.6453571428571362" fill="#252525" />
<rect x="1.9560714285714085" y="1.9560714285714085" width="0.6453571428571362" height="0.6453571428571362" fill="#252525" />
<rect x="2.6064285714285447" y="1.9560714285714085" width="0.6453571428571362" height="0.6453571428571362" fill="#252525" />
<rect x="3.256785714285681" y="1.9560714285714085" width="0.6453571428571362" height="0.6453571428571362" fill="#252525" />
<rect x="3.907142857142817" y="1.9560714285714085" width="0.6453571428571362" height="0.6453571428571362" fill="#252525" />
<rect x="0.005" y="2.6064285714285447" width="0.6453571428571362" height="0.6453571428571362" fill="#252525" />
<rect x="0.6553571428571362" y="2.6064285714285447" width="0.6453571428571362" height="0.6453571428571362" fill="#252525" />
<rect x="1.3057142857142723" y="2.6064285714285447" width="0.6453571428571362" height="0.6453571428571362" fill="#252525" />
<rect x="1.9560714285714085" y="2.6064285714285447" width="0.6453571428571362" height="0.6453571428571362" fill="#252525" />
<rect x="2.6064285714285447" y="2.6064285714285447" width="0.6453571428571362" height="0.6453571428571362" fill="#252525" />
<rect x="3.256785714285681" y="2.6064285714285447" width="0.6453571428571362" height="0.6453571428571362" fill="#252525" />
<rect x="3.907142857142817" y="2.6064285714285447" width="0.6453571428571362" height="0.6453571428571362" fill="#252525" />
<rect x="0.005" y="3.256785714285681" width="0.6453571428571362" height="0.6453571428571362" fill="#252525" />
<rect x="0.6553571428571362" y="3.256785714285681" width="0.6453571428571362" height="0.6453571428571362" fill="#E6E6E6" />
<rect x="1.3057142857142723" y="3.256785714285681" width="0.6453571428571362" height="0.6453571428571362" fill="#252525" />
<rect x="1.9560714285714085" y="3.256785714285681" width="0.6453571428571362" height="0.6453571428571362" fill="#252525" />
<rect x="2.6064285714285447" y="3.256785714285681" width="0.6453571428571362" height="0.6453571428571362" fill="#252525" />
<rect x="3.256785714285681" y="3.256785714285681" width="0.6453571428571362" height="0.6453571428571362" fill="#252525" />
<rect x="3.907142857142817" y="3.256785714285681" width="0.6453571428571362" height="0.6453571428571362" fill="#252525" />
<rect x="0.005" y="3.907142857142817" width="0.6453571428571362" height="0.6453571428571362" fill="#252525" />
<rect x="0.6553571428571362" y="3.907142857142817" width="0.6453571428571362" height="0.6453571428571362" fill="#252525" />
<rect x="1.3057142857142723" y="3.907142857142817" width="0.6453571428571362" height="0.6453571428571362" fill="#252525" />
<rect x="1.9560714285714085" y="3.907142857142817" width="0.6453571428571362" height="0.6453571428571362" fill="#252525" />
<rect x="2.6064285714285447" y="3.907142857142817" width="0.6453571428571362" height="0.6453571428571362" fill="#252525" />
<rect x="3.256785714285681" y="3.907142857142817" width="0.6453571428571362" height="0.6453571428571362" fill="#252525" />
<rect x="3.907142857142817" y="3.907142857142817" width="0.6453571428571362" height="0.6453571428571362" fill="#252525" />
<rect x="0.005" y="4.557499999999953" width="0.6453571428571362" height="0.6453571428571362" fill="#252525" />
<rect x="0.6553571428571362" y="4.557499999999953" width="0.6453571428571362" height="0.6453571428571362" fill="#252525" />
<rect x="1.3057142857142723" y="4.557499999999953" width="0.6453571428571362" height="0.6453571428571362" fill="#252525" />
<rect x="1.9560714285714085" y="4.557499999999953" width="0.6453571428571362" height="0.6453571428571362" fill="#252525" />
<rect x="2.6064285714285447" y="4.557499999999953" width="0.6453571428571362" height="0.6453571428571362" fill="#252525" />
<rect x="3.256785714285681" y="4.557499999999953" width="0.6453571428571362" height="0.6453571428571362" fill="#252525" />
<rect x="3.907142857142817" y="4.557499999999953" width="0.6453571428571362" height="0.6453571428571362" fill="#252525" />
<rect x="-0.02666666666666667" y="-0.02666666666666667" width="4.605833333333287" height="5.256190476190423" fill="none" stroke="#111111ff" stroke-width="0.08" />
<text x="4.552499999999953" y="5.67160714285709" font-size="0.375" fill="black" text-anchor="end" font-family="Anuphan">7x8</text>
<text x="-0.037500000000000006" y="5.67160714285709" font-size="0.375" fill="black" text-anchor="start" font-family="Anuphan" font-weight="600">Input 2</text>
</g>
<g id="d2">
<rect x="0.005" y="0.005" width="0.5365624999999972" height="0.5365624999999972" fill="#252525" />
<rect x="0.5465624999999972" y="0.005" width="0.5365624999999972" height="0.5365624999999972" fill="#252525" />
<rect x="1.0881249999999942" y="0.005" width="0.5365624999999972" height="0.5365624999999972" fill="#252525" />
<rect x="1.6296874999999913" y="0.005" width="0.5365624999999972" height="0.5365624999999972" fill="#252525" />
<rect x="2.1712499999999886" y="0.005" width="0.5365624999999972" height="0.5365624999999972" fill="#252525" />
<rect x="2.712812499999986" y="0.005" width="0.5365624999999972" height="0.5365624999999972" fill="#252525" />
<rect x="3.2543749999999827" y="0.005" width="0.5365624999999972" height="0.5365624999999972" fill="#252525" />
<rect x="3.79593749999998" y="0.005" width="0.5365624999999972" height="0.5365624999999972" fill="#252525" />
<rect x="0.005" y="0.5465624999999972" width="0.5365624999999972" height="0.5365624999999972" fill="#252525" />
<rect x="0.5465624999999972" y="0.5465624999999972" width="0.5365624999999972" height="0.5365624999999972" fill="#252525" />
<rect x="1.0881249999999942" y="0.5465624999999972" width="0.5365624999999972" height="0.5365624999999972" fill="#252525" />
<rect x="1.6296874999999913" y="0.5465624999999972" width="0.5365624999999972" height="0.5365624999999972" fill="#252525" />
<rect x="2.1712499999999886" y="0.5465624999999972" width="0.5365624999999972" height="0.5365624999999972" fill="#252525" />
<rect x="2.712812499999986" y="0.5465624999999972" width="0.5365624999999972" height="0.5365624999999972" fill="#252525" />
<rect x="3.2543749999999827" y="0.5465624999999972" width="0.5365624999999972" height="0.5365624999999972" fill="#252525" />
<rect x="3.79593749999998" y="0.5465624999999972" width="0.5365624999999972" height="0.5365624999999972" fill="#252525" />
<rect x="0.005" y="1.0881249999999942" width="0.5365624999999972" height="0.5365624999999972" fill="#252525" />
<rect x="0.5465624999999972" y="1.0881249999999942" width="0.5365624999999972" height="0.5365624999999972" fill="#252525" />
<rect x="1.0881249999999942" y="1.0881249999999942" width="0.5365624999999972" height="0.5365624999999972" fill="#252525" />
<rect x="1.6296874999999913" y="1.0881249999999942" width="0.5365624999999972" height="0.5365624999999972" fill="#252525" />
<rect x="2.1712499999999886" y="1.0881249999999942" width="0.5365624999999972" height="0.5365624999999972" fill="#E6E6E6" />
<rect x="2.712812499999986" y="1.0881249999999942" width="0.5365624999999972" height="0.5365624999999972" fill="#252525" />
<rect x="3.2543749999999827" y="1.0881249999999942" width="0.5365624999999972" height="0.5365624999999972" fill="#252525" />
<rect x="3.79593749999998" y="1.0881249999999942" width="0.5365624999999972" height="0.5365624999999972" fill="#252525" />
<rect x="0.005" y="1.6296874999999913" width="0.5365624999999972" height="0.5365624999999972" fill="#252525" />
<rect x="0.5465624999999972" y="1.6296874999999913" width="0.5365624999999972" height="0.5365624999999972" fill="#252525" />
<rect x="1.0881249999999942" y="1.6296874999999913" width="0.5365624999999972" height="0.5365624999999972" fill="#252525" />
<rect x="1.6296874999999913" y="1.6296874999999913" width="0.5365624999999972" height="0.5365624999999972" fill="#252525" />
<rect x="2.1712499999999886" y="1.6296874999999913" width="0.5365624999999972" height="0.5365624999999972" fill="#252525" />
<rect x="2.712812499999986" y="1.6296874999999913" width="0.5365624999999972" height="0.5365624999999972" fill="#252525" />
<rect x="3.2543749999999827" y="1.6296874999999913" width="0.5365624999999972" height="0.5365624999999972" fill="#252525" />
<rect x="3.79593749999998" y="1.6296874999999913" width="0.5365624999999972" height="0.5365624999999972" fill="#252525" />
<rect x="0.005" y="2.1712499999999886" width="0.5365624999999972" height="0.5365624999999972" fill="#252525" />
<rect x="0.5465624999999972" y="2.1712499999999886" width="0.5365624999999972" height="0.5365624999999972" fill="#252525" />
<rect x="1.0881249999999942" y="2.1712499999999886" width="0.5365624999999972" height="0.5365624999999972" fill="#252525" />
<rect x="1.6296874999999913" y="2.1712499999999886" width="0.5365624999999972" height="0.5365624999999972" fill="#252525" />
<rect x="2.1712499999999886" y="2.1712499999999886" width="0.5365624999999972" height="0.5365624999999972" fill="#252525" />
<rect x="2.712812499999986" y="2.1712499999999886" width="0.5365624999999972" height="0.5365624999999972" fill="#252525" />
<rect x="3.2543749999999827" y="2.1712499999999886" width="0.5365624999999972" height="0.5365624999999972" fill="#252525" />
<rect x="3.79593749999998" y="2.1712499999999886" width="0.5365624999999972" height="0.5365624999999972" fill="#252525" />
<rect x="0.005" y="2.712812499999986" width="0.5365624999999972" height="0.5365624999999972" fill="#252525" />
<rect x="0.5465624999999972" y="2.712812499999986" width="0.5365624999999972" height="0.5365624999999972" fill="#252525" />
<rect x="1.0881249999999942" y="2.712812499999986" width="0.5365624999999972" height="0.5365624999999972" fill="#252525" />
<rect x="1.6296874999999913" y="2.712812499999986" width="0.5365624999999972" height="0.5365624999999972" fill="#252525" />
<rect x="2.1712499999999886" y="2.712812499999986" width="0.5365624999999972" height="0.5365624999999972" fill="#252525" />
<rect x="2.712812499999986" y="2.712812499999986" width="0.5365624999999972" height="0.5365624999999972" fill="#252525" />
<rect x="3.2543749999999827" y="2.712812499999986" width="0.5365624999999972" height="0.5365624999999972" fill="#252525" />
<rect x="3.79593749999998" y="2.712812499999986" width="0.5365624999999972" height="0.5365624999999972" fill="#252525" />
<rect x="0.005" y="3.2543749999999827" width="0.5365624999999972" height="0.5365624999999972" fill="#252525" />
<rect x="0.5465624999999972" y="3.2543749999999827" width="0.5365624999999972" height="0.5365624999999972" fill="#FF4136" />
<rect x="1.0881249999999942" y="3.2543749999999827" width="0.5365624999999972" height="0.5365624999999972" fill="#FF4136" />
<rect x="1.6296874999999913" y="3.2543749999999827" width="0.5365624999999972" height="0.5365624999999972" fill="#252525" />
<rect x="2.1712499999999886" y="3.2543749999999827" width="0.5365624999999972" height="0.5365624999999972" fill="#252525" />
<rect x="2.712812499999986" y="3.2543749999999827" width="0.5365624999999972" height="0.5365624999999972" fill="#252525" />
<rect x="3.2543749999999827" y="3.2543749999999827" width="0.5365624999999972" height="0.5365624999999972" fill="#252525" />
<rect x="3.79593749999998" y="3.2543749999999827" width="0.5365624999999972" height="0.5365624999999972" fill="#252525" />
<rect x="0.005" y="3.79593749999998" width="0.5365624999999972" height="0.5365624999999972" fill="#252525" />
<rect x="0.5465624999999972" y="3.79593749999998" width="0.5365624999999972" height="0.5365624999999972" fill="#252525" />
<rect x="1.0881249999999942" y="3.79593749999998" width="0.5365624999999972" height="0.5365624999999972" fill="#37D449" />
<rect x="1.6296874999999913" y="3.79593749999998" width="0.5365624999999972" height="0.5365624999999972" fill="#0074D9" />
<rect x="2.1712499999999886" y="3.79593749999998" width="0.5365624999999972" height="0.5365624999999972" fill="#252525" />
<rect x="2.712812499999986" y="3.79593749999998" width="0.5365624999999972" height="0.5365624999999972" fill="#252525" />
<rect x="3.2543749999999827" y="3.79593749999998" width="0.5365624999999972" height="0.5365624999999972" fill="#252525" />
<rect x="3.79593749999998" y="3.79593749999998" width="0.5365624999999972" height="0.5365624999999972" fill="#252525" />
<rect x="0.005" y="4.337499999999977" width="0.5365624999999972" height="0.5365624999999972" fill="#252525" />
<rect x="0.5465624999999972" y="4.337499999999977" width="0.5365624999999972" height="0.5365624999999972" fill="#37D449" />
<rect x="1.0881249999999942" y="4.337499999999977" width="0.5365624999999972" height="0.5365624999999972" fill="#37D449" />
<rect x="1.6296874999999913" y="4.337499999999977" width="0.5365624999999972" height="0.5365624999999972" fill="#0074D9" />
<rect x="2.1712499999999886" y="4.337499999999977" width="0.5365624999999972" height="0.5365624999999972" fill="#252525" />
<rect x="2.712812499999986" y="4.337499999999977" width="0.5365624999999972" height="0.5365624999999972" fill="#252525" />
<rect x="3.2543749999999827" y="4.337499999999977" width="0.5365624999999972" height="0.5365624999999972" fill="#252525" />
<rect x="3.79593749999998" y="4.337499999999977" width="0.5365624999999972" height="0.5365624999999972" fill="#252525" />
<rect x="0.005" y="4.879062499999974" width="0.5365624999999972" height="0.5365624999999972" fill="#252525" />
<rect x="0.5465624999999972" y="4.879062499999974" width="0.5365624999999972" height="0.5365624999999972" fill="#252525" />
<rect x="1.0881249999999942" y="4.879062499999974" width="0.5365624999999972" height="0.5365624999999972" fill="#252525" />
<rect x="1.6296874999999913" y="4.879062499999974" width="0.5365624999999972" height="0.5365624999999972" fill="#252525" />
<rect x="2.1712499999999886" y="4.879062499999974" width="0.5365624999999972" height="0.5365624999999972" fill="#252525" />
<rect x="2.712812499999986" y="4.879062499999974" width="0.5365624999999972" height="0.5365624999999972" fill="#252525" />
<rect x="3.2543749999999827" y="4.879062499999974" width="0.5365624999999972" height="0.5365624999999972" fill="#252525" />
<rect x="3.79593749999998" y="4.879062499999974" width="0.5365624999999972" height="0.5365624999999972" fill="#252525" />
<rect x="-0.02666666666666667" y="-0.02666666666666667" width="4.385833333333311" height="5.468958333333306" fill="none" stroke="#111111ff" stroke-width="0.08" />
<text x="4.332499999999977" y="5.884374999999972" font-size="0.375" fill="black" text-anchor="end" font-family="Anuphan">8x10</text>
<text x="-0.037500000000000006" y="5.884374999999972" font-size="0.375" fill="black" text-anchor="start" font-family="Anuphan" font-weight="600">Input 3</text>
</g>
<g id="d3">
<rect x="0.005" y="0.005" width="0.4088636363636321" height="0.4088636363636321" fill="#252525" />
<rect x="0.4188636363636321" y="0.005" width="0.4088636363636321" height="0.4088636363636321" fill="#252525" />
<rect x="0.8327272727272642" y="0.005" width="0.4088636363636321" height="0.4088636363636321" fill="#252525" />
<rect x="1.2465909090908962" y="0.005" width="0.4088636363636321" height="0.4088636363636321" fill="#252525" />
<rect x="1.6604545454545283" y="0.005" width="0.4088636363636321" height="0.4088636363636321" fill="#252525" />
<rect x="2.0743181818181604" y="0.005" width="0.4088636363636321" height="0.4088636363636321" fill="#252525" />
<rect x="2.4881818181817925" y="0.005" width="0.4088636363636321" height="0.4088636363636321" fill="#252525" />
<rect x="2.9020454545454246" y="0.005" width="0.4088636363636321" height="0.4088636363636321" fill="#252525" />
<rect x="3.3159090909090567" y="0.005" width="0.4088636363636321" height="0.4088636363636321" fill="#252525" />
<rect x="3.729772727272689" y="0.005" width="0.4088636363636321" height="0.4088636363636321" fill="#252525" />
<rect x="4.143636363636321" y="0.005" width="0.4088636363636321" height="0.4088636363636321" fill="#252525" />
<rect x="0.005" y="0.4188636363636321" width="0.4088636363636321" height="0.4088636363636321" fill="#252525" />
<rect x="0.4188636363636321" y="0.4188636363636321" width="0.4088636363636321" height="0.4088636363636321" fill="#252525" />
<rect x="0.8327272727272642" y="0.4188636363636321" width="0.4088636363636321" height="0.4088636363636321" fill="#252525" />
<rect x="1.2465909090908962" y="0.4188636363636321" width="0.4088636363636321" height="0.4088636363636321" fill="#252525" />
<rect x="1.6604545454545283" y="0.4188636363636321" width="0.4088636363636321" height="0.4088636363636321" fill="#252525" />
<rect x="2.0743181818181604" y="0.4188636363636321" width="0.4088636363636321" height="0.4088636363636321" fill="#252525" />
<rect x="2.4881818181817925" y="0.4188636363636321" width="0.4088636363636321" height="0.4088636363636321" fill="#252525" />
<rect x="2.9020454545454246" y="0.4188636363636321" width="0.4088636363636321" height="0.4088636363636321" fill="#252525" />
<rect x="3.3159090909090567" y="0.4188636363636321" width="0.4088636363636321" height="0.4088636363636321" fill="#252525" />
<rect x="3.729772727272689" y="0.4188636363636321" width="0.4088636363636321" height="0.4088636363636321" fill="#252525" />
<rect x="4.143636363636321" y="0.4188636363636321" width="0.4088636363636321" height="0.4088636363636321" fill="#252525" />
<rect x="0.005" y="0.8327272727272642" width="0.4088636363636321" height="0.4088636363636321" fill="#252525" />
<rect x="0.4188636363636321" y="0.8327272727272642" width="0.4088636363636321" height="0.4088636363636321" fill="#252525" />
<rect x="0.8327272727272642" y="0.8327272727272642" width="0.4088636363636321" height="0.4088636363636321" fill="#252525" />
<rect x="1.2465909090908962" y="0.8327272727272642" width="0.4088636363636321" height="0.4088636363636321" fill="#FF4136" />
<rect x="1.6604545454545283" y="0.8327272727272642" width="0.4088636363636321" height="0.4088636363636321" fill="#FF4136" />
<rect x="2.0743181818181604" y="0.8327272727272642" width="0.4088636363636321" height="0.4088636363636321" fill="#252525" />
<rect x="2.4881818181817925" y="0.8327272727272642" width="0.4088636363636321" height="0.4088636363636321" fill="#252525" />
<rect x="2.9020454545454246" y="0.8327272727272642" width="0.4088636363636321" height="0.4088636363636321" fill="#252525" />
<rect x="3.3159090909090567" y="0.8327272727272642" width="0.4088636363636321" height="0.4088636363636321" fill="#252525" />
<rect x="3.729772727272689" y="0.8327272727272642" width="0.4088636363636321" height="0.4088636363636321" fill="#252525" />
<rect x="4.143636363636321" y="0.8327272727272642" width="0.4088636363636321" height="0.4088636363636321" fill="#252525" />
<rect x="0.005" y="1.2465909090908962" width="0.4088636363636321" height="0.4088636363636321" fill="#252525" />
<rect x="0.4188636363636321" y="1.2465909090908962" width="0.4088636363636321" height="0.4088636363636321" fill="#252525" />
<rect x="0.8327272727272642" y="1.2465909090908962" width="0.4088636363636321" height="0.4088636363636321" fill="#0074D9" />
<rect x="1.2465909090908962" y="1.2465909090908962" width="0.4088636363636321" height="0.4088636363636321" fill="#0074D9" />
<rect x="1.6604545454545283" y="1.2465909090908962" width="0.4088636363636321" height="0.4088636363636321" fill="#252525" />
<rect x="2.0743181818181604" y="1.2465909090908962" width="0.4088636363636321" height="0.4088636363636321" fill="#252525" />
<rect x="2.4881818181817925" y="1.2465909090908962" width="0.4088636363636321" height="0.4088636363636321" fill="#252525" />
<rect x="2.9020454545454246" y="1.2465909090908962" width="0.4088636363636321" height="0.4088636363636321" fill="#252525" />
<rect x="3.3159090909090567" y="1.2465909090908962" width="0.4088636363636321" height="0.4088636363636321" fill="#252525" />
<rect x="3.729772727272689" y="1.2465909090908962" width="0.4088636363636321" height="0.4088636363636321" fill="#252525" />
<rect x="4.143636363636321" y="1.2465909090908962" width="0.4088636363636321" height="0.4088636363636321" fill="#252525" />
<rect x="0.005" y="1.6604545454545283" width="0.4088636363636321" height="0.4088636363636321" fill="#252525" />
<rect x="0.4188636363636321" y="1.6604545454545283" width="0.4088636363636321" height="0.4088636363636321" fill="#252525" />
<rect x="0.8327272727272642" y="1.6604545454545283" width="0.4088636363636321" height="0.4088636363636321" fill="#252525" />
<rect x="1.2465909090908962" y="1.6604545454545283" width="0.4088636363636321" height="0.4088636363636321" fill="#37D449" />
<rect x="1.6604545454545283" y="1.6604545454545283" width="0.4088636363636321" height="0.4088636363636321" fill="#37D449" />
<rect x="2.0743181818181604" y="1.6604545454545283" width="0.4088636363636321" height="0.4088636363636321" fill="#252525" />
<rect x="2.4881818181817925" y="1.6604545454545283" width="0.4088636363636321" height="0.4088636363636321" fill="#252525" />
<rect x="2.9020454545454246" y="1.6604545454545283" width="0.4088636363636321" height="0.4088636363636321" fill="#252525" />
<rect x="3.3159090909090567" y="1.6604545454545283" width="0.4088636363636321" height="0.4088636363636321" fill="#252525" />
<rect x="3.729772727272689" y="1.6604545454545283" width="0.4088636363636321" height="0.4088636363636321" fill="#252525" />
<rect x="4.143636363636321" y="1.6604545454545283" width="0.4088636363636321" height="0.4088636363636321" fill="#252525" />
<rect x="0.005" y="2.0743181818181604" width="0.4088636363636321" height="0.4088636363636321" fill="#252525" />
<rect x="0.4188636363636321" y="2.0743181818181604" width="0.4088636363636321" height="0.4088636363636321" fill="#252525" />
<rect x="0.8327272727272642" y="2.0743181818181604" width="0.4088636363636321" height="0.4088636363636321" fill="#252525" />
<rect x="1.2465909090908962" y="2.0743181818181604" width="0.4088636363636321" height="0.4088636363636321" fill="#252525" />
<rect x="1.6604545454545283" y="2.0743181818181604" width="0.4088636363636321" height="0.4088636363636321" fill="#252525" />
<rect x="2.0743181818181604" y="2.0743181818181604" width="0.4088636363636321" height="0.4088636363636321" fill="#252525" />
<rect x="2.4881818181817925" y="2.0743181818181604" width="0.4088636363636321" height="0.4088636363636321" fill="#252525" />
<rect x="2.9020454545454246" y="2.0743181818181604" width="0.4088636363636321" height="0.4088636363636321" fill="#252525" />
<rect x="3.3159090909090567" y="2.0743181818181604" width="0.4088636363636321" height="0.4088636363636321" fill="#252525" />
<rect x="3.729772727272689" y="2.0743181818181604" width="0.4088636363636321" height="0.4088636363636321" fill="#252525" />
<rect x="4.143636363636321" y="2.0743181818181604" width="0.4088636363636321" height="0.4088636363636321" fill="#252525" />
<rect x="0.005" y="2.4881818181817925" width="0.4088636363636321" height="0.4088636363636321" fill="#252525" />
<rect x="0.4188636363636321" y="2.4881818181817925" width="0.4088636363636321" height="0.4088636363636321" fill="#252525" />
<rect x="0.8327272727272642" y="2.4881818181817925" width="0.4088636363636321" height="0.4088636363636321" fill="#252525" />
<rect x="1.2465909090908962" y="2.4881818181817925" width="0.4088636363636321" height="0.4088636363636321" fill="#252525" />
<rect x="1.6604545454545283" y="2.4881818181817925" width="0.4088636363636321" height="0.4088636363636321" fill="#252525" />
<rect x="2.0743181818181604" y="2.4881818181817925" width="0.4088636363636321" height="0.4088636363636321" fill="#252525" />
<rect x="2.4881818181817925" y="2.4881818181817925" width="0.4088636363636321" height="0.4088636363636321" fill="#252525" />
<rect x="2.9020454545454246" y="2.4881818181817925" width="0.4088636363636321" height="0.4088636363636321" fill="#252525" />
<rect x="3.3159090909090567" y="2.4881818181817925" width="0.4088636363636321" height="0.4088636363636321" fill="#252525" />
<rect x="3.729772727272689" y="2.4881818181817925" width="0.4088636363636321" height="0.4088636363636321" fill="#252525" />
<rect x="4.143636363636321" y="2.4881818181817925" width="0.4088636363636321" height="0.4088636363636321" fill="#252525" />
<rect x="0.005" y="2.9020454545454246" width="0.4088636363636321" height="0.4088636363636321" fill="#252525" />
<rect x="0.4188636363636321" y="2.9020454545454246" width="0.4088636363636321" height="0.4088636363636321" fill="#252525" />
<rect x="0.8327272727272642" y="2.9020454545454246" width="0.4088636363636321" height="0.4088636363636321" fill="#252525" />
<rect x="1.2465909090908962" y="2.9020454545454246" width="0.4088636363636321" height="0.4088636363636321" fill="#252525" />
<rect x="1.6604545454545283" y="2.9020454545454246" width="0.4088636363636321" height="0.4088636363636321" fill="#252525" />
<rect x="2.0743181818181604" y="2.9020454545454246" width="0.4088636363636321" height="0.4088636363636321" fill="#252525" />
<rect x="2.4881818181817925" y="2.9020454545454246" width="0.4088636363636321" height="0.4088636363636321" fill="#252525" />
<rect x="2.9020454545454246" y="2.9020454545454246" width="0.4088636363636321" height="0.4088636363636321" fill="#252525" />
<rect x="3.3159090909090567" y="2.9020454545454246" width="0.4088636363636321" height="0.4088636363636321" fill="#252525" />
<rect x="3.729772727272689" y="2.9020454545454246" width="0.4088636363636321" height="0.4088636363636321" fill="#252525" />
<rect x="4.143636363636321" y="2.9020454545454246" width="0.4088636363636321" height="0.4088636363636321" fill="#252525" />
<rect x="0.005" y="3.3159090909090567" width="0.4088636363636321" height="0.4088636363636321" fill="#252525" />
<rect x="0.4188636363636321" y="3.3159090909090567" width="0.4088636363636321" height="0.4088636363636321" fill="#252525" />
<rect x="0.8327272727272642" y="3.3159090909090567" width="0.4088636363636321" height="0.4088636363636321" fill="#252525" />
<rect x="1.2465909090908962" y="3.3159090909090567" width="0.4088636363636321" height="0.4088636363636321" fill="#252525" />
<rect x="1.6604545454545283" y="3.3159090909090567" width="0.4088636363636321" height="0.4088636363636321" fill="#252525" />
<rect x="2.0743181818181604" y="3.3159090909090567" width="0.4088636363636321" height="0.4088636363636321" fill="#252525" />
<rect x="2.4881818181817925" y="3.3159090909090567" width="0.4088636363636321" height="0.4088636363636321" fill="#E6E6E6" />
<rect x="2.9020454545454246" y="3.3159090909090567" width="0.4088636363636321" height="0.4088636363636321" fill="#252525" />
<rect x="3.3159090909090567" y="3.3159090909090567" width="0.4088636363636321" height="0.4088636363636321" fill="#252525" />
<rect x="3.729772727272689" y="3.3159090909090567" width="0.4088636363636321" height="0.4088636363636321" fill="#252525" />
<rect x="4.143636363636321" y="3.3159090909090567" width="0.4088636363636321" height="0.4088636363636321" fill="#252525" />
<rect x="0.005" y="3.729772727272689" width="0.4088636363636321" height="0.4088636363636321" fill="#252525" />
<rect x="0.4188636363636321" y="3.729772727272689" width="0.4088636363636321" height="0.4088636363636321" fill="#252525" />
<rect x="0.8327272727272642" y="3.729772727272689" width="0.4088636363636321" height="0.4088636363636321" fill="#252525" />
<rect x="1.2465909090908962" y="3.729772727272689" width="0.4088636363636321" height="0.4088636363636321" fill="#252525" />
<rect x="1.6604545454545283" y="3.729772727272689" width="0.4088636363636321" height="0.4088636363636321" fill="#252525" />
<rect x="2.0743181818181604" y="3.729772727272689" width="0.4088636363636321" height="0.4088636363636321" fill="#252525" />
<rect x="2.4881818181817925" y="3.729772727272689" width="0.4088636363636321" height="0.4088636363636321" fill="#252525" />
<rect x="2.9020454545454246" y="3.729772727272689" width="0.4088636363636321" height="0.4088636363636321" fill="#252525" />
<rect x="3.3159090909090567" y="3.729772727272689" width="0.4088636363636321" height="0.4088636363636321" fill="#252525" />
<rect x="3.729772727272689" y="3.729772727272689" width="0.4088636363636321" height="0.4088636363636321" fill="#252525" />
<rect x="4.143636363636321" y="3.729772727272689" width="0.4088636363636321" height="0.4088636363636321" fill="#252525" />
<rect x="-0.02666666666666667" y="-0.02666666666666667" width="4.605833333333287" height="4.191969696969655" fill="none" stroke="#111111ff" stroke-width="0.08" />
<text x="4.552499999999953" y="4.607386363636321" font-size="0.375" fill="black" text-anchor="end" font-family="Anuphan">11x10</text>
<text x="-0.037500000000000006" y="4.607386363636321" font-size="0.375" fill="black" text-anchor="start" font-family="Anuphan" font-weight="600">Test 1</text>
</g>
<g id="d4">
<rect x="0.005" y="0.005" width="0.5008333333333281" height="0.5008333333333281" fill="#252525" />
<rect x="0.5108333333333281" y="0.005" width="0.5008333333333281" height="0.5008333333333281" fill="#FF4136" />
<rect x="1.0166666666666562" y="0.005" width="0.5008333333333281" height="0.5008333333333281" fill="#252525" />
<rect x="1.5224999999999844" y="0.005" width="0.5008333333333281" height="0.5008333333333281" fill="#252525" />
<rect x="2.0283333333333124" y="0.005" width="0.5008333333333281" height="0.5008333333333281" fill="#252525" />
<rect x="2.5341666666666405" y="0.005" width="0.5008333333333281" height="0.5008333333333281" fill="#252525" />
<rect x="3.039999999999969" y="0.005" width="0.5008333333333281" height="0.5008333333333281" fill="#252525" />
<rect x="3.545833333333297" y="0.005" width="0.5008333333333281" height="0.5008333333333281" fill="#252525" />
<rect x="4.051666666666625" y="0.005" width="0.5008333333333281" height="0.5008333333333281" fill="#252525" />
<rect x="0.005" y="0.5108333333333281" width="0.5008333333333281" height="0.5008333333333281" fill="#FF4136" />
<rect x="0.5108333333333281" y="0.5108333333333281" width="0.5008333333333281" height="0.5008333333333281" fill="#FF4136" />
<rect x="1.0166666666666562" y="0.5108333333333281" width="0.5008333333333281" height="0.5008333333333281" fill="#0074D9" />
<rect x="1.5224999999999844" y="0.5108333333333281" width="0.5008333333333281" height="0.5008333333333281" fill="#252525" />
<rect x="2.0283333333333124" y="0.5108333333333281" width="0.5008333333333281" height="0.5008333333333281" fill="#252525" />
<rect x="2.5341666666666405" y="0.5108333333333281" width="0.5008333333333281" height="0.5008333333333281" fill="#252525" />
<rect x="3.039999999999969" y="0.5108333333333281" width="0.5008333333333281" height="0.5008333333333281" fill="#252525" />
<rect x="3.545833333333297" y="0.5108333333333281" width="0.5008333333333281" height="0.5008333333333281" fill="#252525" />
<rect x="4.051666666666625" y="0.5108333333333281" width="0.5008333333333281" height="0.5008333333333281" fill="#252525" />
<rect x="0.005" y="1.0166666666666562" width="0.5008333333333281" height="0.5008333333333281" fill="#252525" />
<rect x="0.5108333333333281" y="1.0166666666666562" width="0.5008333333333281" height="0.5008333333333281" fill="#0074D9" />
<rect x="1.0166666666666562" y="1.0166666666666562" width="0.5008333333333281" height="0.5008333333333281" fill="#37D449" />
<rect x="1.5224999999999844" y="1.0166666666666562" width="0.5008333333333281" height="0.5008333333333281" fill="#252525" />
<rect x="2.0283333333333124" y="1.0166666666666562" width="0.5008333333333281" height="0.5008333333333281" fill="#252525" />
<rect x="2.5341666666666405" y="1.0166666666666562" width="0.5008333333333281" height="0.5008333333333281" fill="#252525" />
<rect x="3.039999999999969" y="1.0166666666666562" width="0.5008333333333281" height="0.5008333333333281" fill="#252525" />
<rect x="3.545833333333297" y="1.0166666666666562" width="0.5008333333333281" height="0.5008333333333281" fill="#252525" />
<rect x="4.051666666666625" y="1.0166666666666562" width="0.5008333333333281" height="0.5008333333333281" fill="#252525" />
<rect x="0.005" y="1.5224999999999844" width="0.5008333333333281" height="0.5008333333333281" fill="#252525" />
<rect x="0.5108333333333281" y="1.5224999999999844" width="0.5008333333333281" height="0.5008333333333281" fill="#252525" />
<rect x="1.0166666666666562" y="1.5224999999999844" width="0.5008333333333281" height="0.5008333333333281" fill="#252525" />
<rect x="1.5224999999999844" y="1.5224999999999844" width="0.5008333333333281" height="0.5008333333333281" fill="#252525" />
<rect x="2.0283333333333124" y="1.5224999999999844" width="0.5008333333333281" height="0.5008333333333281" fill="#252525" />
<rect x="2.5341666666666405" y="1.5224999999999844" width="0.5008333333333281" height="0.5008333333333281" fill="#252525" />
<rect x="3.039999999999969" y="1.5224999999999844" width="0.5008333333333281" height="0.5008333333333281" fill="#252525" />
<rect x="3.545833333333297" y="1.5224999999999844" width="0.5008333333333281" height="0.5008333333333281" fill="#252525" />
<rect x="4.051666666666625" y="1.5224999999999844" width="0.5008333333333281" height="0.5008333333333281" fill="#252525" />
<rect x="0.005" y="2.0283333333333124" width="0.5008333333333281" height="0.5008333333333281" fill="#252525" />
<rect x="0.5108333333333281" y="2.0283333333333124" width="0.5008333333333281" height="0.5008333333333281" fill="#252525" />
<rect x="1.0166666666666562" y="2.0283333333333124" width="0.5008333333333281" height="0.5008333333333281" fill="#252525" />
<rect x="1.5224999999999844" y="2.0283333333333124" width="0.5008333333333281" height="0.5008333333333281" fill="#252525" />
<rect x="2.0283333333333124" y="2.0283333333333124" width="0.5008333333333281" height="0.5008333333333281" fill="#252525" />
<rect x="2.5341666666666405" y="2.0283333333333124" width="0.5008333333333281" height="0.5008333333333281" fill="#FF4136" />
<rect x="3.039999999999969" y="2.0283333333333124" width="0.5008333333333281" height="0.5008333333333281" fill="#252525" />
<rect x="3.545833333333297" y="2.0283333333333124" width="0.5008333333333281" height="0.5008333333333281" fill="#252525" />
<rect x="4.051666666666625" y="2.0283333333333124" width="0.5008333333333281" height="0.5008333333333281" fill="#252525" />
<rect x="0.005" y="2.5341666666666405" width="0.5008333333333281" height="0.5008333333333281" fill="#252525" />
<rect x="0.5108333333333281" y="2.5341666666666405" width="0.5008333333333281" height="0.5008333333333281" fill="#252525" />
<rect x="1.0166666666666562" y="2.5341666666666405" width="0.5008333333333281" height="0.5008333333333281" fill="#252525" />
<rect x="1.5224999999999844" y="2.5341666666666405" width="0.5008333333333281" height="0.5008333333333281" fill="#252525" />
<rect x="2.0283333333333124" y="2.5341666666666405" width="0.5008333333333281" height="0.5008333333333281" fill="#FF4136" />
<rect x="2.5341666666666405" y="2.5341666666666405" width="0.5008333333333281" height="0.5008333333333281" fill="#FF4136" />
<rect x="3.039999999999969" y="2.5341666666666405" width="0.5008333333333281" height="0.5008333333333281" fill="#0074D9" />
<rect x="3.545833333333297" y="2.5341666666666405" width="0.5008333333333281" height="0.5008333333333281" fill="#252525" />
<rect x="4.051666666666625" y="2.5341666666666405" width="0.5008333333333281" height="0.5008333333333281" fill="#252525" />
<rect x="0.005" y="3.039999999999969" width="0.5008333333333281" height="0.5008333333333281" fill="#252525" />
<rect x="0.5108333333333281" y="3.039999999999969" width="0.5008333333333281" height="0.5008333333333281" fill="#252525" />
<rect x="1.0166666666666562" y="3.039999999999969" width="0.5008333333333281" height="0.5008333333333281" fill="#252525" />
<rect x="1.5224999999999844" y="3.039999999999969" width="0.5008333333333281" height="0.5008333333333281" fill="#252525" />
<rect x="2.0283333333333124" y="3.039999999999969" width="0.5008333333333281" height="0.5008333333333281" fill="#252525" />
<rect x="2.5341666666666405" y="3.039999999999969" width="0.5008333333333281" height="0.5008333333333281" fill="#0074D9" />
<rect x="3.039999999999969" y="3.039999999999969" width="0.5008333333333281" height="0.5008333333333281" fill="#37D449" />
<rect x="3.545833333333297" y="3.039999999999969" width="0.5008333333333281" height="0.5008333333333281" fill="#252525" />
<rect x="4.051666666666625" y="3.039999999999969" width="0.5008333333333281" height="0.5008333333333281" fill="#252525" />
<rect x="0.005" y="3.545833333333297" width="0.5008333333333281" height="0.5008333333333281" fill="#252525" />
<rect x="0.5108333333333281" y="3.545833333333297" width="0.5008333333333281" height="0.5008333333333281" fill="#252525" />
<rect x="1.0166666666666562" y="3.545833333333297" width="0.5008333333333281" height="0.5008333333333281" fill="#252525" />
<rect x="1.5224999999999844" y="3.545833333333297" width="0.5008333333333281" height="0.5008333333333281" fill="#252525" />
<rect x="2.0283333333333124" y="3.545833333333297" width="0.5008333333333281" height="0.5008333333333281" fill="#252525" />
<rect x="2.5341666666666405" y="3.545833333333297" width="0.5008333333333281" height="0.5008333333333281" fill="#252525" />
<rect x="3.039999999999969" y="3.545833333333297" width="0.5008333333333281" height="0.5008333333333281" fill="#252525" />
<rect x="3.545833333333297" y="3.545833333333297" width="0.5008333333333281" height="0.5008333333333281" fill="#252525" />
<rect x="4.051666666666625" y="3.545833333333297" width="0.5008333333333281" height="0.5008333333333281" fill="#252525" />
<rect x="0.005" y="4.051666666666625" width="0.5008333333333281" height="0.5008333333333281" fill="#252525" />
<rect x="0.5108333333333281" y="4.051666666666625" width="0.5008333333333281" height="0.5008333333333281" fill="#252525" />
<rect x="1.0166666666666562" y="4.051666666666625" width="0.5008333333333281" height="0.5008333333333281" fill="#252525" />
<rect x="1.5224999999999844" y="4.051666666666625" width="0.5008333333333281" height="0.5008333333333281" fill="#252525" />
<rect x="2.0283333333333124" y="4.051666666666625" width="0.5008333333333281" height="0.5008333333333281" fill="#252525" />
<rect x="2.5341666666666405" y="4.051666666666625" width="0.5008333333333281" height="0.5008333333333281" fill="#252525" />
<rect x="3.039999999999969" y="4.051666666666625" width="0.5008333333333281" height="0.5008333333333281" fill="#252525" />
<rect x="3.545833333333297" y="4.051666666666625" width="0.5008333333333281" height="0.5008333333333281" fill="#252525" />
<rect x="4.051666666666625" y="4.051666666666625" width="0.5008333333333281" height="0.5008333333333281" fill="#252525" />
<rect x="-0.02666666666666667" y="-0.02666666666666667" width="4.605833333333287" height="4.605833333333287" fill="none" stroke="#111111ff" stroke-width="0.08" />
<text x="4.552499999999953" y="5.021249999999953" font-size="0.375" fill="black" text-anchor="end" font-family="Anuphan">9x9</text>
<text x="-0.037500000000000006" y="5.021249999999953" font-size="0.375" fill="black" text-anchor="start" font-family="Anuphan" font-weight="600">Output 1</text>
</g>
<g id="d5">
<rect x="0.005" y="0.005" width="0.6453571428571362" height="0.6453571428571362" fill="#252525" />
<rect x="0.6553571428571362" y="0.005" width="0.6453571428571362" height="0.6453571428571362" fill="#252525" />
<rect x="1.3057142857142723" y="0.005" width="0.6453571428571362" height="0.6453571428571362" fill="#252525" />
<rect x="1.9560714285714085" y="0.005" width="0.6453571428571362" height="0.6453571428571362" fill="#252525" />
<rect x="2.6064285714285447" y="0.005" width="0.6453571428571362" height="0.6453571428571362" fill="#F012BE" />
<rect x="3.256785714285681" y="0.005" width="0.6453571428571362" height="0.6453571428571362" fill="#252525" />
<rect x="3.907142857142817" y="0.005" width="0.6453571428571362" height="0.6453571428571362" fill="#252525" />
<rect x="0.005" y="0.6553571428571362" width="0.6453571428571362" height="0.6453571428571362" fill="#252525" />
<rect x="0.6553571428571362" y="0.6553571428571362" width="0.6453571428571362" height="0.6453571428571362" fill="#252525" />
<rect x="1.3057142857142723" y="0.6553571428571362" width="0.6453571428571362" height="0.6453571428571362" fill="#252525" />
<rect x="1.9560714285714085" y="0.6553571428571362" width="0.6453571428571362" height="0.6453571428571362" fill="#252525" />
<rect x="2.6064285714285447" y="0.6553571428571362" width="0.6453571428571362" height="0.6453571428571362" fill="#0074D9" />
<rect x="3.256785714285681" y="0.6553571428571362" width="0.6453571428571362" height="0.6453571428571362" fill="#0074D9" />
<rect x="3.907142857142817" y="0.6553571428571362" width="0.6453571428571362" height="0.6453571428571362" fill="#252525" />
<rect x="0.005" y="1.3057142857142723" width="0.6453571428571362" height="0.6453571428571362" fill="#252525" />
<rect x="0.6553571428571362" y="1.3057142857142723" width="0.6453571428571362" height="0.6453571428571362" fill="#252525" />
<rect x="1.3057142857142723" y="1.3057142857142723" width="0.6453571428571362" height="0.6453571428571362" fill="#252525" />
<rect x="1.9560714285714085" y="1.3057142857142723" width="0.6453571428571362" height="0.6453571428571362" fill="#252525" />
<rect x="2.6064285714285447" y="1.3057142857142723" width="0.6453571428571362" height="0.6453571428571362" fill="#FF4136" />
<rect x="3.256785714285681" y="1.3057142857142723" width="0.6453571428571362" height="0.6453571428571362" fill="#FF4136" />
<rect x="3.907142857142817" y="1.3057142857142723" width="0.6453571428571362" height="0.6453571428571362" fill="#FF4136" />
<rect x="0.005" y="1.9560714285714085" width="0.6453571428571362" height="0.6453571428571362" fill="#252525" />
<rect x="0.6553571428571362" y="1.9560714285714085" width="0.6453571428571362" height="0.6453571428571362" fill="#252525" />
<rect x="1.3057142857142723" y="1.9560714285714085" width="0.6453571428571362" height="0.6453571428571362" fill="#252525" />
<rect x="1.9560714285714085" y="1.9560714285714085" width="0.6453571428571362" height="0.6453571428571362" fill="#252525" />
<rect x="2.6064285714285447" y="1.9560714285714085" width="0.6453571428571362" height="0.6453571428571362" fill="#252525" />
<rect x="3.256785714285681" y="1.9560714285714085" width="0.6453571428571362" height="0.6453571428571362" fill="#252525" />
<rect x="3.907142857142817" y="1.9560714285714085" width="0.6453571428571362" height="0.6453571428571362" fill="#252525" />
<rect x="0.005" y="2.6064285714285447" width="0.6453571428571362" height="0.6453571428571362" fill="#F012BE" />
<rect x="0.6553571428571362" y="2.6064285714285447" width="0.6453571428571362" height="0.6453571428571362" fill="#252525" />
<rect x="1.3057142857142723" y="2.6064285714285447" width="0.6453571428571362" height="0.6453571428571362" fill="#252525" />
<rect x="1.9560714285714085" y="2.6064285714285447" width="0.6453571428571362" height="0.6453571428571362" fill="#252525" />
<rect x="2.6064285714285447" y="2.6064285714285447" width="0.6453571428571362" height="0.6453571428571362" fill="#252525" />
<rect x="3.256785714285681" y="2.6064285714285447" width="0.6453571428571362" height="0.6453571428571362" fill="#252525" />
<rect x="3.907142857142817" y="2.6064285714285447" width="0.6453571428571362" height="0.6453571428571362" fill="#252525" />
<rect x="0.005" y="3.256785714285681" width="0.6453571428571362" height="0.6453571428571362" fill="#0074D9" />
<rect x="0.6553571428571362" y="3.256785714285681" width="0.6453571428571362" height="0.6453571428571362" fill="#0074D9" />
<rect x="1.3057142857142723" y="3.256785714285681" width="0.6453571428571362" height="0.6453571428571362" fill="#252525" />
<rect x="1.9560714285714085" y="3.256785714285681" width="0.6453571428571362" height="0.6453571428571362" fill="#252525" />
<rect x="2.6064285714285447" y="3.256785714285681" width="0.6453571428571362" height="0.6453571428571362" fill="#252525" />
<rect x="3.256785714285681" y="3.256785714285681" width="0.6453571428571362" height="0.6453571428571362" fill="#252525" />
<rect x="3.907142857142817" y="3.256785714285681" width="0.6453571428571362" height="0.6453571428571362" fill="#252525" />
<rect x="0.005" y="3.907142857142817" width="0.6453571428571362" height="0.6453571428571362" fill="#FF4136" />
<rect x="0.6553571428571362" y="3.907142857142817" width="0.6453571428571362" height="0.6453571428571362" fill="#FF4136" />
<rect x="1.3057142857142723" y="3.907142857142817" width="0.6453571428571362" height="0.6453571428571362" fill="#FF4136" />
<rect x="1.9560714285714085" y="3.907142857142817" width="0.6453571428571362" height="0.6453571428571362" fill="#252525" />
<rect x="2.6064285714285447" y="3.907142857142817" width="0.6453571428571362" height="0.6453571428571362" fill="#252525" />
<rect x="3.256785714285681" y="3.907142857142817" width="0.6453571428571362" height="0.6453571428571362" fill="#252525" />
<rect x="3.907142857142817" y="3.907142857142817" width="0.6453571428571362" height="0.6453571428571362" fill="#252525" />
<rect x="0.005" y="4.557499999999953" width="0.6453571428571362" height="0.6453571428571362" fill="#252525" />
<rect x="0.6553571428571362" y="4.557499999999953" width="0.6453571428571362" height="0.6453571428571362" fill="#252525" />
<rect x="1.3057142857142723" y="4.557499999999953" width="0.6453571428571362" height="0.6453571428571362" fill="#252525" />
<rect x="1.9560714285714085" y="4.557499999999953" width="0.6453571428571362" height="0.6453571428571362" fill="#252525" />
<rect x="2.6064285714285447" y="4.557499999999953" width="0.6453571428571362" height="0.6453571428571362" fill="#252525" />
<rect x="3.256785714285681" y="4.557499999999953" width="0.6453571428571362" height="0.6453571428571362" fill="#252525" />
<rect x="3.907142857142817" y="4.557499999999953" width="0.6453571428571362" height="0.6453571428571362" fill="#252525" />
<rect x="-0.02666666666666667" y="-0.02666666666666667" width="4.605833333333287" height="5.256190476190423" fill="none" stroke="#111111ff" stroke-width="0.08" />
<text x="4.552499999999953" y="5.67160714285709" font-size="0.375" fill="black" text-anchor="end" font-family="Anuphan">7x8</text>
<text x="-0.037500000000000006" y="5.67160714285709" font-size="0.375" fill="black" text-anchor="start" font-family="Anuphan" font-weight="600">Output 2</text>
</g>
<g id="d6">
<rect x="0.005" y="0.005" width="0.5365624999999972" height="0.5365624999999972" fill="#252525" />
<rect x="0.5465624999999972" y="0.005" width="0.5365624999999972" height="0.5365624999999972" fill="#252525" />
<rect x="1.0881249999999942" y="0.005" width="0.5365624999999972" height="0.5365624999999972" fill="#252525" />
<rect x="1.6296874999999913" y="0.005" width="0.5365624999999972" height="0.5365624999999972" fill="#252525" />
<rect x="2.1712499999999886" y="0.005" width="0.5365624999999972" height="0.5365624999999972" fill="#252525" />
<rect x="2.712812499999986" y="0.005" width="0.5365624999999972" height="0.5365624999999972" fill="#252525" />
<rect x="3.2543749999999827" y="0.005" width="0.5365624999999972" height="0.5365624999999972" fill="#252525" />
<rect x="3.79593749999998" y="0.005" width="0.5365624999999972" height="0.5365624999999972" fill="#252525" />
<rect x="0.005" y="0.5465624999999972" width="0.5365624999999972" height="0.5365624999999972" fill="#252525" />
<rect x="0.5465624999999972" y="0.5465624999999972" width="0.5365624999999972" height="0.5365624999999972" fill="#252525" />
<rect x="1.0881249999999942" y="0.5465624999999972" width="0.5365624999999972" height="0.5365624999999972" fill="#252525" />
<rect x="1.6296874999999913" y="0.5465624999999972" width="0.5365624999999972" height="0.5365624999999972" fill="#FF4136" />
<rect x="2.1712499999999886" y="0.5465624999999972" width="0.5365624999999972" height="0.5365624999999972" fill="#FF4136" />
<rect x="2.712812499999986" y="0.5465624999999972" width="0.5365624999999972" height="0.5365624999999972" fill="#252525" />
<rect x="3.2543749999999827" y="0.5465624999999972" width="0.5365624999999972" height="0.5365624999999972" fill="#252525" />
<rect x="3.79593749999998" y="0.5465624999999972" width="0.5365624999999972" height="0.5365624999999972" fill="#252525" />
<rect x="0.005" y="1.0881249999999942" width="0.5365624999999972" height="0.5365624999999972" fill="#252525" />
<rect x="0.5465624999999972" y="1.0881249999999942" width="0.5365624999999972" height="0.5365624999999972" fill="#252525" />
<rect x="1.0881249999999942" y="1.0881249999999942" width="0.5365624999999972" height="0.5365624999999972" fill="#252525" />
<rect x="1.6296874999999913" y="1.0881249999999942" width="0.5365624999999972" height="0.5365624999999972" fill="#252525" />
<rect x="2.1712499999999886" y="1.0881249999999942" width="0.5365624999999972" height="0.5365624999999972" fill="#37D449" />
<rect x="2.712812499999986" y="1.0881249999999942" width="0.5365624999999972" height="0.5365624999999972" fill="#0074D9" />
<rect x="3.2543749999999827" y="1.0881249999999942" width="0.5365624999999972" height="0.5365624999999972" fill="#252525" />
<rect x="3.79593749999998" y="1.0881249999999942" width="0.5365624999999972" height="0.5365624999999972" fill="#252525" />
<rect x="0.005" y="1.6296874999999913" width="0.5365624999999972" height="0.5365624999999972" fill="#252525" />
<rect x="0.5465624999999972" y="1.6296874999999913" width="0.5365624999999972" height="0.5365624999999972" fill="#252525" />
<rect x="1.0881249999999942" y="1.6296874999999913" width="0.5365624999999972" height="0.5365624999999972" fill="#252525" />
<rect x="1.6296874999999913" y="1.6296874999999913" width="0.5365624999999972" height="0.5365624999999972" fill="#37D449" />
<rect x="2.1712499999999886" y="1.6296874999999913" width="0.5365624999999972" height="0.5365624999999972" fill="#37D449" />
<rect x="2.712812499999986" y="1.6296874999999913" width="0.5365624999999972" height="0.5365624999999972" fill="#0074D9" />
<rect x="3.2543749999999827" y="1.6296874999999913" width="0.5365624999999972" height="0.5365624999999972" fill="#252525" />
<rect x="3.79593749999998" y="1.6296874999999913" width="0.5365624999999972" height="0.5365624999999972" fill="#252525" />
<rect x="0.005" y="2.1712499999999886" width="0.5365624999999972" height="0.5365624999999972" fill="#252525" />
<rect x="0.5465624999999972" y="2.1712499999999886" width="0.5365624999999972" height="0.5365624999999972" fill="#252525" />
<rect x="1.0881249999999942" y="2.1712499999999886" width="0.5365624999999972" height="0.5365624999999972" fill="#252525" />
<rect x="1.6296874999999913" y="2.1712499999999886" width="0.5365624999999972" height="0.5365624999999972" fill="#252525" />
<rect x="2.1712499999999886" y="2.1712499999999886" width="0.5365624999999972" height="0.5365624999999972" fill="#252525" />
<rect x="2.712812499999986" y="2.1712499999999886" width="0.5365624999999972" height="0.5365624999999972" fill="#252525" />
<rect x="3.2543749999999827" y="2.1712499999999886" width="0.5365624999999972" height="0.5365624999999972" fill="#252525" />
<rect x="3.79593749999998" y="2.1712499999999886" width="0.5365624999999972" height="0.5365624999999972" fill="#252525" />
<rect x="0.005" y="2.712812499999986" width="0.5365624999999972" height="0.5365624999999972" fill="#252525" />
<rect x="0.5465624999999972" y="2.712812499999986" width="0.5365624999999972" height="0.5365624999999972" fill="#252525" />
<rect x="1.0881249999999942" y="2.712812499999986" width="0.5365624999999972" height="0.5365624999999972" fill="#252525" />
<rect x="1.6296874999999913" y="2.712812499999986" width="0.5365624999999972" height="0.5365624999999972" fill="#252525" />
<rect x="2.1712499999999886" y="2.712812499999986" width="0.5365624999999972" height="0.5365624999999972" fill="#252525" />
<rect x="2.712812499999986" y="2.712812499999986" width="0.5365624999999972" height="0.5365624999999972" fill="#252525" />
<rect x="3.2543749999999827" y="2.712812499999986" width="0.5365624999999972" height="0.5365624999999972" fill="#252525" />
<rect x="3.79593749999998" y="2.712812499999986" width="0.5365624999999972" height="0.5365624999999972" fill="#252525" />
<rect x="0.005" y="3.2543749999999827" width="0.5365624999999972" height="0.5365624999999972" fill="#252525" />
<rect x="0.5465624999999972" y="3.2543749999999827" width="0.5365624999999972" height="0.5365624999999972" fill="#FF4136" />
<rect x="1.0881249999999942" y="3.2543749999999827" width="0.5365624999999972" height="0.5365624999999972" fill="#FF4136" />
<rect x="1.6296874999999913" y="3.2543749999999827" width="0.5365624999999972" height="0.5365624999999972" fill="#252525" />
<rect x="2.1712499999999886" y="3.2543749999999827" width="0.5365624999999972" height="0.5365624999999972" fill="#252525" />
<rect x="2.712812499999986" y="3.2543749999999827" width="0.5365624999999972" height="0.5365624999999972" fill="#252525" />
<rect x="3.2543749999999827" y="3.2543749999999827" width="0.5365624999999972" height="0.5365624999999972" fill="#252525" />
<rect x="3.79593749999998" y="3.2543749999999827" width="0.5365624999999972" height="0.5365624999999972" fill="#252525" />
<rect x="0.005" y="3.79593749999998" width="0.5365624999999972" height="0.5365624999999972" fill="#252525" />
<rect x="0.5465624999999972" y="3.79593749999998" width="0.5365624999999972" height="0.5365624999999972" fill="#252525" />
<rect x="1.0881249999999942" y="3.79593749999998" width="0.5365624999999972" height="0.5365624999999972" fill="#37D449" />
<rect x="1.6296874999999913" y="3.79593749999998" width="0.5365624999999972" height="0.5365624999999972" fill="#0074D9" />
<rect x="2.1712499999999886" y="3.79593749999998" width="0.5365624999999972" height="0.5365624999999972" fill="#252525" />
<rect x="2.712812499999986" y="3.79593749999998" width="0.5365624999999972" height="0.5365624999999972" fill="#252525" />
<rect x="3.2543749999999827" y="3.79593749999998" width="0.5365624999999972" height="0.5365624999999972" fill="#252525" />
<rect x="3.79593749999998" y="3.79593749999998" width="0.5365624999999972" height="0.5365624999999972" fill="#252525" />
<rect x="0.005" y="4.337499999999977" width="0.5365624999999972" height="0.5365624999999972" fill="#252525" />
<rect x="0.5465624999999972" y="4.337499999999977" width="0.5365624999999972" height="0.5365624999999972" fill="#37D449" />
<rect x="1.0881249999999942" y="4.337499999999977" width="0.5365624999999972" height="0.5365624999999972" fill="#37D449" />
<rect x="1.6296874999999913" y="4.337499999999977" width="0.5365624999999972" height="0.5365624999999972" fill="#0074D9" />
<rect x="2.1712499999999886" y="4.337499999999977" width="0.5365624999999972" height="0.5365624999999972" fill="#252525" />
<rect x="2.712812499999986" y="4.337499999999977" width="0.5365624999999972" height="0.5365624999999972" fill="#252525" />
<rect x="3.2543749999999827" y="4.337499999999977" width="0.5365624999999972" height="0.5365624999999972" fill="#252525" />
<rect x="3.79593749999998" y="4.337499999999977" width="0.5365624999999972" height="0.5365624999999972" fill="#252525" />
<rect x="0.005" y="4.879062499999974" width="0.5365624999999972" height="0.5365624999999972" fill="#252525" />
<rect x="0.5465624999999972" y="4.879062499999974" width="0.5365624999999972" height="0.5365624999999972" fill="#252525" />
<rect x="1.0881249999999942" y="4.879062499999974" width="0.5365624999999972" height="0.5365624999999972" fill="#252525" />
<rect x="1.6296874999999913" y="4.879062499999974" width="0.5365624999999972" height="0.5365624999999972" fill="#252525" />
<rect x="2.1712499999999886" y="4.879062499999974" width="0.5365624999999972" height="0.5365624999999972" fill="#252525" />
<rect x="2.712812499999986" y="4.879062499999974" width="0.5365624999999972" height="0.5365624999999972" fill="#252525" />
<rect x="3.2543749999999827" y="4.879062499999974" width="0.5365624999999972" height="0.5365624999999972" fill="#252525" />
<rect x="3.79593749999998" y="4.879062499999974" width="0.5365624999999972" height="0.5365624999999972" fill="#252525" />
<rect x="-0.02666666666666667" y="-0.02666666666666667" width="4.385833333333311" height="5.468958333333306" fill="none" stroke="#111111ff" stroke-width="0.08" />
<text x="4.332499999999977" y="5.884374999999972" font-size="0.375" fill="black" text-anchor="end" font-family="Anuphan">8x10</text>
<text x="-0.037500000000000006" y="5.884374999999972" font-size="0.375" fill="black" text-anchor="start" font-family="Anuphan" font-weight="600">Output 3</text>
</g>
</defs>
<rect x="0" y="0" width="100%" height="100%" fill="#eeeff6" />
<use xlink:href="#d0" x="0.25" y="0.25" />
<use xlink:href="#d1" x="5.302499999999953" y="0.25" />
<use xlink:href="#d2" x="10.354999999999906" y="0.25" />
<use xlink:href="#d3" x="15.187499999999883" y="0.25" />
<path d="M2.5262499999999766,6.315624999999972 L2.5262499999999766,6.715624999999973" stroke-width="0.05" stroke="#888888" />
<path d="M2.3762499999999767,6.5156249999999725 L2.5262499999999766,6.715624999999973" stroke-width="0.05" stroke="#888888" />
<path d="M2.6762499999999765,6.5156249999999725 L2.5262499999999766,6.715624999999973" stroke-width="0.05" stroke="#888888" />
<use xlink:href="#d4" x="0.25" y="7.065624999999972" />
<path d="M7.57874999999993,6.315624999999972 L7.57874999999993,6.715624999999973" stroke-width="0.05" stroke="#888888" />
<path d="M7.42874999999993,6.5156249999999725 L7.57874999999993,6.715624999999973" stroke-width="0.05" stroke="#888888" />
<path d="M7.7287499999999305,6.5156249999999725 L7.57874999999993,6.715624999999973" stroke-width="0.05" stroke="#888888" />
<use xlink:href="#d5" x="5.302499999999953" y="7.065624999999972" />
<path d="M12.521249999999895,6.315624999999972 L12.521249999999895,6.715624999999973" stroke-width="0.05" stroke="#888888" />
<path d="M12.371249999999895,6.5156249999999725 L12.521249999999895,6.715624999999973" stroke-width="0.05" stroke="#888888" />
<path d="M12.671249999999896,6.5156249999999725 L12.521249999999895,6.715624999999973" stroke-width="0.05" stroke="#888888" />
<use xlink:href="#d6" x="10.354999999999906" y="7.065624999999972" />
<path d="M17.46374999999986,6.315624999999972 L17.46374999999986,6.715624999999973" stroke-width="0.05" stroke="#888888" />
<path d="M17.31374999999986,6.5156249999999725 L17.46374999999986,6.715624999999973" stroke-width="0.05" stroke="#888888" />
<path d="M17.613749999999857,6.5156249999999725 L17.46374999999986,6.715624999999973" stroke-width="0.05" stroke="#888888" />
<text x="17.46374999999986" y="9.234943181818132" font-size="1" font-family="Anuphan" font-weight="700" fill="#333333" text-anchor="middle" alignment-baseline="middle">?</text>
<text x="19.9" y="13.299999999999999" font-size="0.3" font-family="Anuphan" font-weight="600" fill="#666666" text-anchor="end" alignment-baseline="bottom">Task 88a10436</text>
</svg>