<?xml version="1.0" encoding="UTF-8"?>
<svg xmlns="http://www.w3.org/2000/svg" xmlns:xlink="http://www.w3.org/1999/xlink"
     width="408.0" height="536.0" viewBox="0 0 10.2 13.399999999999999">
<defs>
<g id="d0">
<rect x="0.005" y="0.005" width="0.6705555555555482" height="0.6705555555555482" fill="#FF4136" />
<rect x="0.6805555555555483" y="0.005" width="0.6705555555555482" height="0.6705555555555482" fill="#0074D9" />
<rect x="1.3561111111110964" y="0.005" width="0.6705555555555482" height="0.6705555555555482" fill="#FFDC00" />
<rect x="0.005" y="0.6805555555555483" width="0.6705555555555482" height="0.6705555555555482" fill="#E6E6E6" />
<rect x="0.6805555555555483" y="0.6805555555555483" width="0.6705555555555482" height="0.6705555555555482" fill="#E6E6E6" />
<rect x="1.3561111111110964" y="0.6805555555555483" width="0.6705555555555482" height="0.6705555555555482" fill="#E6E6E6" />
<rect x="0.005" y="1.3561111111110964" width="0.6705555555555482" height="0.6705555555555482" fill="#252525" />
<rect x="0.6805555555555483" y="1.3561111111110964" width="0.6705555555555482" height="0.6705555555555482" fill="#252525" />
<rect x="1.3561111111110964" y="1.3561111111110964" width="0.6705555555555482" height="0.6705555555555482" fill="#252525" />
<rect x="0.005" y="2.0316666666666445" width="0.6705555555555482" height="0.6705555555555482" fill="#252525" />
<rect x="0.6805555555555483" y="2.0316666666666445" width="0.6705555555555482" height="0.6705555555555482" fill="#252525" />
<rect x="1.3561111111110964" y="2.0316666666666445" width="0.6705555555555482" height="0.6705555555555482" fill="#252525" />
<rect x="0.005" y="2.707222222222193" width="0.6705555555555482" height="0.6705555555555482" fill="#252525" />
<rect x="0.6805555555555483" y="2.707222222222193" width="0.6705555555555482" height="0.6705555555555482" fill="#252525" />
<rect x="1.3561111111110964" y="2.707222222222193" width="0.6705555555555482" height="0.6705555555555482" fill="#252525" />
<rect x="0.005" y="3.3827777777777412" width="0.6705555555555482" height="0.6705555555555482" fill="#252525" />
<rect x="0.6805555555555483" y="3.3827777777777412" width="0.6705555555555482" height="0.6705555555555482" fill="#252525" />
<rect x="1.3561111111110964" y="3.3827777777777412" width="0.6705555555555482" height="0.6705555555555482" fill="#252525" />
<rect x="0.005" y="4.058333333333289" width="0.6705555555555482" height="0.6705555555555482" fill="#252525" />
<rect x="0.6805555555555483" y="4.058333333333289" width="0.6705555555555482" height="0.6705555555555482" fill="#252525" />
<rect x="1.3561111111110964" y="4.058333333333289" width="0.6705555555555482" height="0.6705555555555482" fill="#252525" />
<rect x="0.005" y="4.7338888888888375" width="0.6705555555555482" height="0.6705555555555482" fill="#252525" />
<rect x="0.6805555555555483" y="4.7338888888888375" width="0.6705555555555482" height="0.6705555555555482" fill="#252525" />
<rect x="1.3561111111110964" y="4.7338888888888375" width="0.6705555555555482" height="0.6705555555555482" fill="#252525" />
<rect x="-0.02666666666666667" y="-0.02666666666666667" width="2.079999999999978" height="5.45777777777772" fill="none" stroke="#111111ff" stroke-width="0.08" />
<text x="2.0266666666666446" y="5.873194444444386" font-size="0.375" fill="black" text-anchor="end" font-family="Anuphan">3x8</text>
<text x="-0.037500000000000006" y="5.873194444444386" font-size="0.375" fill="black" text-anchor="start" font-family="Anuphan" font-weight="600">Input 1</text>
</g>
<g id="d1">
<rect x="0.005" y="0.005" width="0.5354166666666604" height="0.5354166666666604" fill="#37D449" />
<rect x="0.5454166666666604" y="0.005" width="0.5354166666666604" height="0.5354166666666604" fill="#FF4136" />
<rect x="1.0858333333333208" y="0.005" width="0.5354166666666604" height="0.5354166666666604" fill="#0074D9" />
<rect x="1.626249999999981" y="0.005" width="0.5354166666666604" height="0.5354166666666604" fill="#FFDC00" />
<rect x="0.005" y="0.5454166666666604" width="0.5354166666666604" height="0.5354166666666604" fill="#E6E6E6" />
<rect x="0.5454166666666604" y="0.5454166666666604" width="0.5354166666666604" height="0.5354166666666604" fill="#E6E6E6" />
<rect x="1.0858333333333208" y="0.5454166666666604" width="0.5354166666666604" height="0.5354166666666604" fill="#E6E6E6" />
<rect x="1.626249999999981" y="0.5454166666666604" width="0.5354166666666604" height="0.5354166666666604" fill="#E6E6E6" />
<rect x="0.005" y="1.0858333333333208" width="0.5354166666666604" height="0.5354166666666604" fill="#252525" />
<rect x="0.5454166666666604" y="1.0858333333333208" width="0.5354166666666604" height="0.5354166666666604" fill="#252525" />
<rect x="1.0858333333333208" y="1.0858333333333208" width="0.5354166666666604" height="0.5354166666666604" fill="#252525" />
<rect x="1.626249999999981" y="1.0858333333333208" width="0.5354166666666604" height="0.5354166666666604" fill="#252525" />
<rect x="0.005" y="1.626249999999981" width="0.5354166666666604" height="0.5354166666666604" fill="#252525" />
<rect x="0.5454166666666604" y="1.626249999999981" width="0.5354166666666604" height="0.5354166666666604" fill="#252525" />
<rect x="1.0858333333333208" y="1.626249999999981" width="0.5354166666666604" height="0.5354166666666604" fill="#252525" />
<rect x="1.626249999999981" y="1.626249999999981" width="0.5354166666666604" height="0.5354166666666604" fill="#252525" />
<rect x="0.005" y="2.1666666666666416" width="0.5354166666666604" height="0.5354166666666604" fill="#252525" />
<rect x="0.5454166666666604" y="2.1666666666666416" width="0.5354166666666604" height="0.5354166666666604" fill="#252525" />
<rect x="1.0858333333333208" y="2.1666666666666416" width="0.5354166666666604" height="0.5354166666666604" fill="#252525" />
<rect x="1.626249999999981" y="2.1666666666666416" width="0.5354166666666604" height="0.5354166666666604" fill="#252525" />
<rect x="0.005" y="2.707083333333302" width="0.5354166666666604" height="0.5354166666666604" fill="#252525" />
<rect x="0.5454166666666604" y="2.707083333333302" width="0.5354166666666604" height="0.5354166666666604" fill="#252525" />
<rect x="1.0858333333333208" y="2.707083333333302" width="0.5354166666666604" height="0.5354166666666604" fill="#252525" />
<rect x="1.626249999999981" y="2.707083333333302" width="0.5354166666666604" height="0.5354166666666604" fill="#252525" />
<rect x="0.005" y="3.2474999999999623" width="0.5354166666666604" height="0.5354166666666604" fill="#252525" />
<rect x="0.5454166666666604" y="3.2474999999999623" width="0.5354166666666604" height="0.5354166666666604" fill="#252525" />
<rect x="1.0858333333333208" y="3.2474999999999623" width="0.5354166666666604" height="0.5354166666666604" fill="#252525" />
<rect x="1.626249999999981" y="3.2474999999999623" width="0.5354166666666604" height="0.5354166666666604" fill="#252525" />
<rect x="0.005" y="3.787916666666623" width="0.5354166666666604" height="0.5354166666666604" fill="#252525" />
<rect x="0.5454166666666604" y="3.787916666666623" width="0.5354166666666604" height="0.5354166666666604" fill="#252525" />
<rect x="1.0858333333333208" y="3.787916666666623" width="0.5354166666666604" height="0.5354166666666604" fill="#252525" />
<rect x="1.626249999999981" y="3.787916666666623" width="0.5354166666666604" height="0.5354166666666604" fill="#252525" />
<rect x="0.005" y="4.328333333333283" width="0.5354166666666604" height="0.5354166666666604" fill="#252525" />
<rect x="0.5454166666666604" y="4.328333333333283" width="0.5354166666666604" height="0.5354166666666604" fill="#252525" />
<rect x="1.0858333333333208" y="4.328333333333283" width="0.5354166666666604" height="0.5354166666666604" fill="#252525" />
<rect x="1.626249999999981" y="4.328333333333283" width="0.5354166666666604" height="0.5354166666666604" fill="#252525" />
<rect x="0.005" y="4.8687499999999435" width="0.5354166666666604" height="0.5354166666666604" fill="#252525" />
<rect x="0.5454166666666604" y="4.8687499999999435" width="0.5354166666666604" height="0.5354166666666604" fill="#252525" />
<rect x="1.0858333333333208" y="4.8687499999999435" width="0.5354166666666604" height="0.5354166666666604" fill="#252525" />
<rect x="1.626249999999981" y="4.8687499999999435" width="0.5354166666666604" height="0.5354166666666604" fill="#252525" />
<rect x="-0.02666666666666667" y="-0.02666666666666667" width="2.214999999999975" height="5.457499999999938" fill="none" stroke="#111111ff" stroke-width="0.08" />
<text x="2.1616666666666418" y="5.872916666666605" font-size="0.375" fill="black" text-anchor="end" font-family="Anuphan">4x10</text>
<text x="-0.037500000000000006" y="5.872916666666605" font-size="0.375" fill="black" text-anchor="start" font-family="Anuphan" font-weight="600">Input 2</text>
</g>
<g id="d2">
<rect x="0.005" y="0.005" width="0.8949999999999864" height="0.8949999999999864" fill="#54D2EB" />
<rect x="0.9049999999999864" y="0.005" width="0.8949999999999864" height="0.8949999999999864" fill="#37D449" />
<rect x="0.005" y="0.9049999999999864" width="0.8949999999999864" height="0.8949999999999864" fill="#E6E6E6" />
<rect x="0.9049999999999864" y="0.9049999999999864" width="0.8949999999999864" height="0.8949999999999864" fill="#E6E6E6" />
<rect x="0.005" y="1.8049999999999726" width="0.8949999999999864" height="0.8949999999999864" fill="#252525" />
<rect x="0.9049999999999864" y="1.8049999999999726" width="0.8949999999999864" height="0.8949999999999864" fill="#252525" />
<rect x="0.005" y="2.704999999999959" width="0.8949999999999864" height="0.8949999999999864" fill="#252525" />
<rect x="0.9049999999999864" y="2.704999999999959" width="0.8949999999999864" height="0.8949999999999864" fill="#252525" />
<rect x="0.005" y="3.6049999999999454" width="0.8949999999999864" height="0.8949999999999864" fill="#252525" />
<rect x="0.9049999999999864" y="3.6049999999999454" width="0.8949999999999864" height="0.8949999999999864" fill="#252525" />
<rect x="0.005" y="4.5049999999999315" width="0.8949999999999864" height="0.8949999999999864" fill="#252525" />
<rect x="0.9049999999999864" y="4.5049999999999315" width="0.8949999999999864" height="0.8949999999999864" fill="#252525" />
<rect x="-0.02666666666666667" y="-0.02666666666666667" width="1.853333333333306" height="5.453333333333252" fill="none" stroke="#111111ff" stroke-width="0.08" />
<text x="1.7999999999999727" y="5.868749999999919" font-size="0.375" fill="black" text-anchor="end" font-family="Anuphan">2x6</text>
<text x="-0.037500000000000006" y="5.868749999999919" font-size="0.375" fill="black" text-anchor="start" font-family="Anuphan" font-weight="600">Input 3</text>
</g>
<g id="d3">
<rect x="0.005" y="0.005" width="0.445333333333328" height="0.445333333333328" fill="#0074D9" />
<rect x="0.455333333333328" y="0.005" width="0.445333333333328" height="0.445333333333328" fill="#FF4136" />
<rect x="0.905666666666656" y="0.005" width="0.445333333333328" height="0.445333333333328" fill="#37D449" />
<rect x="1.3559999999999839" y="0.005" width="0.445333333333328" height="0.445333333333328" fill="#FFDC00" />
<rect x="1.8063333333333118" y="0.005" width="0.445333333333328" height="0.445333333333328" fill="#54D2EB" />
<rect x="0.005" y="0.455333333333328" width="0.445333333333328" height="0.445333333333328" fill="#E6E6E6" />
<rect x="0.455333333333328" y="0.455333333333328" width="0.445333333333328" height="0.445333333333328" fill="#E6E6E6" />
<rect x="0.905666666666656" y="0.455333333333328" width="0.445333333333328" height="0.445333333333328" fill="#E6E6E6" />
<rect x="1.3559999999999839" y="0.455333333333328" width="0.445333333333328" height="0.445333333333328" fill="#E6E6E6" />
<rect x="1.8063333333333118" y="0.455333333333328" width="0.445333333333328" height="0.445333333333328" fill="#E6E6E6" />
<rect x="0.005" y="0.905666666666656" width="0.445333333333328" height="0.445333333333328" fill="#252525" />
<rect x="0.455333333333328" y="0.905666666666656" width="0.445333333333328" height="0.445333333333328" fill="#252525" />
<rect x="0.905666666666656" y="0.905666666666656" width="0.445333333333328" height="0.445333333333328" fill="#252525" />
<rect x="1.3559999999999839" y="0.905666666666656" width="0.445333333333328" height="0.445333333333328" fill="#252525" />
<rect x="1.8063333333333118" y="0.905666666666656" width="0.445333333333328" height="0.445333333333328" fill="#252525" />
<rect x="0.005" y="1.3559999999999839" width="0.445333333333328" height="0.445333333333328" fill="#252525" />
<rect x="0.455333333333328" y="1.3559999999999839" width="0.445333333333328" height="0.445333333333328" fill="#252525" />
<rect x="0.905666666666656" y="1.3559999999999839" width="0.445333333333328" height="0.445333333333328" fill="#252525" />
<rect x="1.3559999999999839" y="1.3559999999999839" width="0.445333333333328" height="0.445333333333328" fill="#252525" />
<rect x="1.8063333333333118" y="1.3559999999999839" width="0.445333333333328" height="0.445333333333328" fill="#252525" />
<rect x="0.005" y="1.8063333333333118" width="0.445333333333328" height="0.445333333333328" fill="#252525" />
<rect x="0.455333333333328" y="1.8063333333333118" width="0.445333333333328" height="0.445333333333328" fill="#252525" />
<rect x="0.905666666666656" y="1.8063333333333118" width="0.445333333333328" height="0.445333333333328" fill="#252525" />
<rect x="1.3559999999999839" y="1.8063333333333118" width="0.445333333333328" height="0.445333333333328" fill="#252525" />
<rect x="1.8063333333333118" y="1.8063333333333118" width="0.445333333333328" height="0.445333333333328" fill="#252525" />
<rect x="0.005" y="2.2566666666666397" width="0.445333333333328" height="0.445333333333328" fill="#252525" />
<rect x="0.455333333333328" y="2.2566666666666397" width="0.445333333333328" height="0.445333333333328" fill="#252525" />
<rect x="0.905666666666656" y="2.2566666666666397" width="0.445333333333328" height="0.445333333333328" fill="#252525" />
<rect x="1.3559999999999839" y="2.2566666666666397" width="0.445333333333328" height="0.445333333333328" fill="#252525" />
<rect x="1.8063333333333118" y="2.2566666666666397" width="0.445333333333328" height="0.445333333333328" fill="#252525" />
<rect x="0.005" y="2.706999999999968" width="0.445333333333328" height="0.445333333333328" fill="#252525" />
<rect x="0.455333333333328" y="2.706999999999968" width="0.445333333333328" height="0.445333333333328" fill="#252525" />
<rect x="0.905666666666656" y="2.706999999999968" width="0.445333333333328" height="0.445333333333328" fill="#252525" />
<rect x="1.3559999999999839" y="2.706999999999968" width="0.445333333333328" height="0.445333333333328" fill="#252525" />
<rect x="1.8063333333333118" y="2.706999999999968" width="0.445333333333328" height="0.445333333333328" fill="#252525" />
<rect x="0.005" y="3.1573333333332956" width="0.445333333333328" height="0.445333333333328" fill="#252525" />
<rect x="0.455333333333328" y="3.1573333333332956" width="0.445333333333328" height="0.445333333333328" fill="#252525" />
<rect x="0.905666666666656" y="3.1573333333332956" width="0.445333333333328" height="0.445333333333328" fill="#252525" />
<rect x="1.3559999999999839" y="3.1573333333332956" width="0.445333333333328" height="0.445333333333328" fill="#252525" />
<rect x="1.8063333333333118" y="3.1573333333332956" width="0.445333333333328" height="0.445333333333328" fill="#252525" />
<rect x="0.005" y="3.6076666666666237" width="0.445333333333328" height="0.445333333333328" fill="#252525" />
<rect x="0.455333333333328" y="3.6076666666666237" width="0.445333333333328" height="0.445333333333328" fill="#252525" />
<rect x="0.905666666666656" y="3.6076666666666237" width="0.445333333333328" height="0.445333333333328" fill="#252525" />
<rect x="1.3559999999999839" y="3.6076666666666237" width="0.445333333333328" height="0.445333333333328" fill="#252525" />
<rect x="1.8063333333333118" y="3.6076666666666237" width="0.445333333333328" height="0.445333333333328" fill="#252525" />
<rect x="0.005" y="4.057999999999952" width="0.445333333333328" height="0.445333333333328" fill="#252525" />
<rect x="0.455333333333328" y="4.057999999999952" width="0.445333333333328" height="0.445333333333328" fill="#252525" />
<rect x="0.905666666666656" y="4.057999999999952" width="0.445333333333328" height="0.445333333333328" fill="#252525" />
<rect x="1.3559999999999839" y="4.057999999999952" width="0.445333333333328" height="0.445333333333328" fill="#252525" />
<rect x="1.8063333333333118" y="4.057999999999952" width="0.445333333333328" height="0.445333333333328" fill="#252525" />
<rect x="0.005" y="4.50833333333328" width="0.445333333333328" height="0.445333333333328" fill="#252525" />
<rect x="0.455333333333328" y="4.50833333333328" width="0.445333333333328" height="0.445333333333328" fill="#252525" />
<rect x="0.905666666666656" y="4.50833333333328" width="0.445333333333328" height="0.445333333333328" fill="#252525" />
<rect x="1.3559999999999839" y="4.50833333333328" width="0.445333333333328" height="0.445333333333328" fill="#252525" />
<rect x="1.8063333333333118" y="4.50833333333328" width="0.445333333333328" height="0.445333333333328" fill="#252525" />
<rect x="0.005" y="4.958666666666607" width="0.445333333333328" height="0.445333333333328" fill="#252525" />
<rect x="0.455333333333328" y="4.958666666666607" width="0.445333333333328" height="0.445333333333328" fill="#252525" />
<rect x="0.905666666666656" y="4.958666666666607" width="0.445333333333328" height="0.445333333333328" fill="#252525" />
<rect x="1.3559999999999839" y="4.958666666666607" width="0.445333333333328" height="0.445333333333328" fill="#252525" />
<rect x="1.8063333333333118" y="4.958666666666607" width="0.445333333333328" height="0.445333333333328" fill="#252525" />
<rect x="-0.02666666666666667" y="-0.02666666666666667" width="2.304999999999973" height="5.45733333333327" fill="none" stroke="#111111ff" stroke-width="0.08" />
<text x="2.25166666666664" y="5.872749999999936" font-size="0.375" fill="black" text-anchor="end" font-family="Anuphan">5x12</text>
<text x="-0.037500000000000006" y="5.872749999999936" font-size="0.375" fill="black" text-anchor="start" font-family="Anuphan" font-weight="600">Test 1</text>
</g>
<g id="d4">
<rect x="0.005" y="0.005" width="0.6705555555555482" height="0.6705555555555482" fill="#FF4136" />
<rect x="0.6805555555555483" y="0.005" width="0.6705555555555482" height="0.6705555555555482" fill="#0074D9" />
<rect x="1.3561111111110964" y="0.005" width="0.6705555555555482" height="0.6705555555555482" fill="#FFDC00" />
<rect x="0.005" y="0.6805555555555483" width="0.6705555555555482" height="0.6705555555555482" fill="#E6E6E6" />
<rect x="0.6805555555555483" y="0.6805555555555483" width="0.6705555555555482" height="0.6705555555555482" fill="#E6E6E6" />
<rect x="1.3561111111110964" y="0.6805555555555483" width="0.6705555555555482" height="0.6705555555555482" fill="#E6E6E6" />
<rect x="0.005" y="1.3561111111110964" width="0.6705555555555482" height="0.6705555555555482" fill="#FF4136" />
<rect x="0.6805555555555483" y="1.3561111111110964" width="0.6705555555555482" height="0.6705555555555482" fill="#FF4136" />
<rect x="1.3561111111110964" y="1.3561111111110964" width="0.6705555555555482" height="0.6705555555555482" fill="#FF4136" />
<rect x="0.005" y="2.0316666666666445" width="0.6705555555555482" height="0.6705555555555482" fill="#0074D9" />
<rect x="0.6805555555555483" y="2.0316666666666445" width="0.6705555555555482" height="0.6705555555555482" fill="#0074D9" />
<rect x="1.3561111111110964" y="2.0316666666666445" width="0.6705555555555482" height="0.6705555555555482" fill="#0074D9" />
<rect x="0.005" y="2.707222222222193" width="0.6705555555555482" height="0.6705555555555482" fill="#FFDC00" />
<rect x="0.6805555555555483" y="2.707222222222193" width="0.6705555555555482" height="0.6705555555555482" fill="#FFDC00" />
<rect x="1.3561111111110964" y="2.707222222222193" width="0.6705555555555482" height="0.6705555555555482" fill="#FFDC00" />
<rect x="0.005" y="3.3827777777777412" width="0.6705555555555482" height="0.6705555555555482" fill="#FF4136" />
<rect x="0.6805555555555483" y="3.3827777777777412" width="0.6705555555555482" height="0.6705555555555482" fill="#FF4136" />
<rect x="1.3561111111110964" y="3.3827777777777412" width="0.6705555555555482" height="0.6705555555555482" fill="#FF4136" />
<rect x="0.005" y="4.058333333333289" width="0.6705555555555482" height="0.6705555555555482" fill="#0074D9" />
<rect x="0.6805555555555483" y="4.058333333333289" width="0.6705555555555482" height="0.6705555555555482" fill="#0074D9" />
<rect x="1.3561111111110964" y="4.058333333333289" width="0.6705555555555482" height="0.6705555555555482" fill="#0074D9" />
<rect x="0.005" y="4.7338888888888375" width="0.6705555555555482" height="0.6705555555555482" fill="#FFDC00" />
<rect x="0.6805555555555483" y="4.7338888888888375" width="0.6705555555555482" height="0.6705555555555482" fill="#FFDC00" />
<rect x="1.3561111111110964" y="4.7338888888888375" width="0.6705555555555482" height="0.6705555555555482" fill="#FFDC00" />
<rect x="-0.02666666666666667" y="-0.02666666666666667" width="2.079999999999978" height="5.45777777777772" fill="none" stroke="#111111ff" stroke-width="0.08" />
<text x="2.0266666666666446" y="5.873194444444386" font-size="0.375" fill="black" text-anchor="end" font-family="Anuphan">3x8</text>
<text x="-0.037500000000000006" y="5.873194444444386" font-size="0.375" fill="black" text-anchor="start" font-family="Anuphan" font-weight="600">Output 1</text>
</g>
<g id="d5">
<rect x="0.005" y="0.005" width="0.5354166666666604" height="0.5354166666666604" fill="#37D449" />
<rect x="0.5454166666666604" y="0.005" width="0.5354166666666604" height="0.5354166666666604" fill="#FF4136" />
<rect x="1.0858333333333208" y="0.005" width="0.5354166666666604" height="0.5354166666666604" fill="#0074D9" />
<rect x="1.626249999999981" y="0.005" width="0.5354166666666604" height="0.5354166666666604" fill="#FFDC00" />
<rect x="0.005" y="0.5454166666666604" width="0.5354166666666604" height="0.5354166666666604" fill="#E6E6E6" />
<rect x="0.5454166666666604" y="0.5454166666666604" width="0.5354166666666604" height="0.5354166666666604" fill="#E6E6E6" />
<rect x="1.0858333333333208" y="0.5454166666666604" width="0.5354166666666604" height="0.5354166666666604" fill="#E6E6E6" />
<rect x="1.626249999999981" y="0.5454166666666604" width="0.5354166666666604" height="0.5354166666666604" fill="#E6E6E6" />
<rect x="0.005" y="1.0858333333333208" width="0.5354166666666604" height="0.5354166666666604" fill="#37D449" />
<rect x="0.5454166666666604" y="1.0858333333333208" width="0.5354166666666604" height="0.5354166666666604" fill="#37D449" />
<rect x="1.0858333333333208" y="1.0858333333333208" width="0.5354166666666604" height="0.5354166666666604" fill="#37D449" />
<rect x="1.626249999999981" y="1.0858333333333208" width="0.5354166666666604" height="0.5354166666666604" fill="#37D449" />
<rect x="0.005" y="1.626249999999981" width="0.5354166666666604" height="0.5354166666666604" fill="#FF4136" />
<rect x="0.5454166666666604" y="1.626249999999981" width="0.5354166666666604" height="0.5354166666666604" fill="#FF4136" />
<rect x="1.0858333333333208" y="1.626249999999981" width="0.5354166666666604" height="0.5354166666666604" fill="#FF4136" />
<rect x="1.626249999999981" y="1.626249999999981" width="0.5354166666666604" height="0.5354166666666604" fill="#FF4136" />
<rect x="0.005" y="2.1666666666666416" width="0.5354166666666604" height="0.5354166666666604" fill="#0074D9" />
<rect x="0.5454166666666604" y="2.1666666666666416" width="0.5354166666666604" height="0.5354166666666604" fill="#0074D9" />
<rect x="1.0858333333333208" y="2.1666666666666416" width="0.5354166666666604" height="0.5354166666666604" fill="#0074D9" />
<rect x="1.626249999999981" y="2.1666666666666416" width="0.5354166666666604" height="0.5354166666666604" fill="#0074D9" />
<rect x="0.005" y="2.707083333333302" width="0.5354166666666604" height="0.5354166666666604" fill="#FFDC00" />
<rect x="0.5454166666666604" y="2.707083333333302" width="0.5354166666666604" height="0.5354166666666604" fill="#FFDC00" />
<rect x="1.0858333333333208" y="2.707083333333302" width="0.5354166666666604" height="0.5354166666666604" fill="#FFDC00" />
<rect x="1.626249999999981" y="2.707083333333302" width="0.5354166666666604" height="0.5354166666666604" fill="#FFDC00" />
<rect x="0.005" y="3.2474999999999623" width="0.5354166666666604" height="0.5354166666666604" fill="#37D449" />
<rect x="0.5454166666666604" y="3.2474999999999623" width="0.5354166666666604" height="0.5354166666666604" fill="#37D449" />
<rect x="1.0858333333333208" y="3.2474999999999623" width="0.5354166666666604" height="0.5354166666666604" fill="#37D449" />
<rect x="1.626249999999981" y="3.2474999999999623" width="0.5354166666666604" height="0.5354166666666604" fill="#37D449" />
<rect x="0.005" y="3.787916666666623" width="0.5354166666666604" height="0.5354166666666604" fill="#FF4136" />
<rect x="0.5454166666666604" y="3.787916666666623" width="0.5354166666666604" height="0.5354166666666604" fill="#FF4136" />
<rect x="1.0858333333333208" y="3.787916666666623" width="0.5354166666666604" height="0.5354166666666604" fill="#FF4136" />
<rect x="1.626249999999981" y="3.787916666666623" width="0.5354166666666604" height="0.5354166666666604" fill="#FF4136" />
<rect x="0.005" y="4.328333333333283" width="0.5354166666666604" height="0.5354166666666604" fill="#0074D9" />
<rect x="0.5454166666666604" y="4.328333333333283" width="0.5354166666666604" height="0.5354166666666604" fill="#0074D9" />
<rect x="1.0858333333333208" y="4.328333333333283" width="0.5354166666666604" height="0.5354166666666604" fill="#0074D9" />
<rect x="1.626249999999981" y="4.328333333333283" width="0.5354166666666604" height="0.5354166666666604" fill="#0074D9" />
<rect x="0.005" y="4.8687499999999435" width="0.5354166666666604" height="0.5354166666666604" fill="#FFDC00" />
<rect x="0.5454166666666604" y="4.8687499999999435" width="0.5354166666666604" height="0.5354166666666604" fill="#FFDC00" />
<rect x="1.0858333333333208" y="4.8687499999999435" width="0.5354166666666604" height="0.5354166666666604" fill="#FFDC00" />
<rect x="1.626249999999981" y="4.8687499999999435" width="0.5354166666666604" height="0.5354166666666604" fill="#FFDC00" />
<rect x="-0.02666666666666667" y="-0.02666666666666667" width="2.214999999999975" height="5.457499999999938" fill="none" stroke="#111111ff" stroke-width="0.08" />
<text x="2.1616666666666418" y="5.872916666666605" font-size="0.375" fill="black" text-anchor="end" font-family="Anuphan">4x10</text>
<text x="-0.037500000000000006" y="5.872916666666605" font-size="0.375" fill="black" text-anchor="start" font-family="Anuphan" font-weight="600">Output 2</text>
</g>
<g id="d6">
<rect x="0.005" y="0.005" width="0.8949999999999864" height="0.8949999999999864" fill="#54D2EB" />
<rect x="0.9049999999999864" y="0.005" width="0.8949999999999864" height="0.8949999999999864" fill="#37D449" />
<rect x="0.005" y="0.9049999999999864" width="0.8949999999999864" height="0.8949999999999864" fill="#E6E6E6" />
<rect x="0.9049999999999864" y="0.9049999999999864" width="0.8949999999999864" height="0.8949999999999864" fill="#E6E6E6" />
<rect x="0.005" y="1.8049999999999726" width="0.8949999999999864" height="0.8949999999999864" fill="#54D2EB" />
<rect x="0.9049999999999864" y="1.8049999999999726" width="0.8949999999999864" height="0.8949999999999864" fill="#54D2EB" />
<rect x="0.005" y="2.704999999999959" width="0.8949999999999864" height="0.8949999999999864" fill="#37D449" />
<rect x="0.9049999999999864" y="2.704999999999959" width="0.8949999999999864" height="0.8949999999999864" fill="#37D449" />
<rect x="0.005" y="3.6049999999999454" width="0.8949999999999864" height="0.8949999999999864" fill="#54D2EB" />
<rect x="0.9049999999999864" y="3.6049999999999454" width="0.8949999999999864" height="0.8949999999999864" fill="#54D2EB" />
<rect x="0.005" y="4.5049999999999315" width="0.8949999999999864" height="0.8949999999999864" fill="#37D449" />
<rect x="0.9049999999999864" y="4.5049999999999315" width="0.8949999999999864" height="0.8949999999999864" fill="#37D449" />
<rect x="-0.02666666666666667" y="-0.02666666666666667" width="1.853333333333306" height="5.453333333333252" fill="none" stroke="#111111ff" stroke-width="0.08" />
<text x="1.7999999999999727" y="5.868749999999919" font-size="0.375" fill="black" text-anchor="end" font-family="Anuphan">2x6</text>
<text x="-0.037500000000000006" y="5.868749999999919" font-size="0.375" fill="black" text-anchor="start" font-family="Anuphan" font-weight="600">Output 3</text>
</g>
</defs>
<rect x="0" y="0" width="100%" height="100%" fill="#eeeff6" />
<use xlink:href="#d0" x="0.25" y="0.25" />
<use xlink:href="#d1" x="2.7766666666666446" y="0.25" />
<use xlink:href="#d2" x="5.438333333333286" y="0.25" />
<use xlink:href="#d3" x="7.738333333333259" y="0.25" />
<path d="M1.2633333333333223,6.304444444444386 L1.2633333333333223,6.704444444444387" stroke-width="0.05" stroke="#888888" />
<path d="M1.1133333333333224,6.5044444444443865 L1.2633333333333223,6.704444444444387" stroke-width="0.05" stroke="#888888" />
<path d="M1.4133333333333222,6.5044444444443865 L1.2633333333333223,6.704444444444387" stroke-width="0.05" stroke="#888888" />
<use xlink:href="#d4" x="0.25" y="7.054444444444386" />
<path d="M3.8574999999999653,6.304444444444386 L3.8574999999999653,6.704444444444387" stroke-width="0.05" stroke="#888888" />
<path d="M3.7074999999999654,6.5044444444443865 L3.8574999999999653,6.704444444444387" stroke-width="0.05" stroke="#888888" />
<path d="M4.007499999999966,6.5044444444443865 L3.8574999999999653,6.704444444444387" stroke-width="0.05" stroke="#888888" />
<use xlink:href="#d5" x="2.7766666666666446" y="7.054444444444386" />
<path d="M6.3383333333332725,6.304444444444386 L6.3383333333332725,6.704444444444387" stroke-width="0.05" stroke="#888888" />
<path d="M6.188333333333272,6.5044444444443865 L6.3383333333332725,6.704444444444387" stroke-width="0.05" stroke="#888888" />
<path d="M6.488333333333273,6.5044444444443865 L6.3383333333332725,6.704444444444387" stroke-width="0.05" stroke="#888888" />
<use xlink:href="#d6" x="5.438333333333286" y="7.054444444444386" />
<path d="M8.864166666666579,6.304444444444386 L8.864166666666579,6.704444444444387" stroke-width="0.05" stroke="#888888" />
<path d="M8.714166666666578,6.5044444444443865 L8.864166666666579,6.704444444444387" stroke-width="0.05" stroke="#888888" />
<path d="M9.01416666666658,6.5044444444443865 L8.864166666666579,6.704444444444387" stroke-width="0.05" stroke="#888888" />
<text x="8.864166666666579" y="9.856444444444353" font-size="1" font-family="Anuphan" font-weight="700" fill="#333333" text-anchor="middle" alignment-baseline="middle">?</text>
<text x="10.1" y="13.299999999999999" font-size="0.3" font-family="Anuphan" font-weight="600" fill="#666666" text-anchor="end" alignment-baseline="bottom">Task bd4472b8</text>
</svg>