<?xml version="1.0" encoding="UTF-8"?>
<svg xmlns="http://www.w3.org/2000/svg" xmlns:xlink="http://www.w3.org/1999/xlink"
     width="800.0" height="460.0" viewBox="0 0 20.0 11.5">
<defs>
<g id="d0">
<rect x="0.005" y="0.005" width="0.5977777777777777" height="0.5977777777777777" fill="#F012BE" />
<rect x="0.6077777777777778" y="0.005" width="0.5977777777777777" height="0.5977777777777777" fill="#252525" />
<rect x="1.2105555555555554" y="0.005" width="0.5977777777777777" height="0.5977777777777777" fill="#F012BE" />
<rect x="0.005" y="0.6077777777777778" width="0.5977777777777777" height="0.5977777777777777" fill="#252525" />
<rect x="0.6077777777777778" y="0.6077777777777778" width="0.5977777777777777" height="0.5977777777777777" fill="#F012BE" />
<rect x="1.2105555555555554" y="0.6077777777777778" width="0.5977777777777777" height="0.5977777777777777" fill="#F012BE" />
<rect x="0.005" y="1.2105555555555554" width="0.5977777777777777" height="0.5977777777777777" fill="#F012BE" />
<rect x="0.6077777777777778" y="1.2105555555555554" width="0.5977777777777777" height="0.5977777777777777" fill="#252525" />
<rect x="1.2105555555555554" y="1.2105555555555554" width="0.5977777777777777" height="0.5977777777777777" fill="#F012BE" />
<rect x="0.005" y="1.813333333333333" width="0.5977777777777777" height="0.5977777777777777" fill="#FFDC00" />
<rect x="0.6077777777777778" y="1.813333333333333" width="0.5977777777777777" height="0.5977777777777777" fill="#252525" />
<rect x="1.2105555555555554" y="1.813333333333333" width="0.5977777777777777" height="0.5977777777777777" fill="#FFDC00" />
<rect x="0.005" y="2.416111111111111" width="0.5977777777777777" height="0.5977777777777777" fill="#252525" />
<rect x="0.6077777777777778" y="2.416111111111111" width="0.5977777777777777" height="0.5977777777777777" fill="#FFDC00" />
<rect x="1.2105555555555554" y="2.416111111111111" width="0.5977777777777777" height="0.5977777777777777" fill="#FFDC00" />
<rect x="0.005" y="3.0188888888888887" width="0.5977777777777777" height="0.5977777777777777" fill="#FFDC00" />
<rect x="0.6077777777777778" y="3.0188888888888887" width="0.5977777777777777" height="0.5977777777777777" fill="#252525" />
<rect x="1.2105555555555554" y="3.0188888888888887" width="0.5977777777777777" height="0.5977777777777777" fill="#FFDC00" />
<rect x="0.005" y="3.621666666666666" width="0.5977777777777777" height="0.5977777777777777" fill="#54D2EB" />
<rect x="0.6077777777777778" y="3.621666666666666" width="0.5977777777777777" height="0.5977777777777777" fill="#54D2EB" />
<rect x="1.2105555555555554" y="3.621666666666666" width="0.5977777777777777" height="0.5977777777777777" fill="#54D2EB" />
<rect x="0.005" y="4.224444444444444" width="0.5977777777777777" height="0.5977777777777777" fill="#54D2EB" />
<rect x="0.6077777777777778" y="4.224444444444444" width="0.5977777777777777" height="0.5977777777777777" fill="#252525" />
<rect x="1.2105555555555554" y="4.224444444444444" width="0.5977777777777777" height="0.5977777777777777" fill="#54D2EB" />
<rect x="0.005" y="4.827222222222222" width="0.5977777777777777" height="0.5977777777777777" fill="#54D2EB" />
<rect x="0.6077777777777778" y="4.827222222222222" width="0.5977777777777777" height="0.5977777777777777" fill="#54D2EB" />
<rect x="1.2105555555555554" y="4.827222222222222" width="0.5977777777777777" height="0.5977777777777777" fill="#54D2EB" />
<rect x="-0.02666666666666667" y="-0.02666666666666667" width="1.8616666666666664" height="5.4783333333333335" fill="none" stroke="#111111ff" stroke-width="0.08" />
<text x="1.8083333333333331" y="5.89375" font-size="0.375" fill="black" text-anchor="end" font-family="Anuphan">3x9</text>
<text x="-0.037500000000000006" y="5.89375" font-size="0.375" fill="black" text-anchor="start" font-family="Anuphan" font-weight="600">Input 1</text>
</g>
<g id="d1">
<rect x="0.005" y="0.005" width="0.2864999999999864" height="0.2864999999999864" fill="#FF4136" />
<rect x="0.2964999999999864" y="0.005" width="0.2864999999999864" height="0.2864999999999864" fill="#252525" />
<rect x="0.5879999999999728" y="0.005" width="0.2864999999999864" height="0.2864999999999864" fill="#252525" />
<rect x="0.8794999999999592" y="0.005" width="0.2864999999999864" height="0.2864999999999864" fill="#37D449" />
<rect x="1.1709999999999454" y="0.005" width="0.2864999999999864" height="0.2864999999999864" fill="#252525" />
<rect x="1.4624999999999317" y="0.005" width="0.2864999999999864" height="0.2864999999999864" fill="#252525" />
<rect x="1.7539999999999183" y="0.005" width="0.2864999999999864" height="0.2864999999999864" fill="#FF871E" />
<rect x="2.0454999999999046" y="0.005" width="0.2864999999999864" height="0.2864999999999864" fill="#252525" />
<rect x="2.336999999999891" y="0.005" width="0.2864999999999864" height="0.2864999999999864" fill="#FF871E" />
<rect x="2.6284999999998773" y="0.005" width="0.2864999999999864" height="0.2864999999999864" fill="#0074D9" />
<rect x="2.9199999999998636" y="0.005" width="0.2864999999999864" height="0.2864999999999864" fill="#252525" />
<rect x="3.21149999999985" y="0.005" width="0.2864999999999864" height="0.2864999999999864" fill="#252525" />
<rect x="0.005" y="0.2964999999999864" width="0.2864999999999864" height="0.2864999999999864" fill="#FF4136" />
<rect x="0.2964999999999864" y="0.2964999999999864" width="0.2864999999999864" height="0.2864999999999864" fill="#252525" />
<rect x="0.5879999999999728" y="0.2964999999999864" width="0.2864999999999864" height="0.2864999999999864" fill="#252525" />
<rect x="0.8794999999999592" y="0.2964999999999864" width="0.2864999999999864" height="0.2864999999999864" fill="#37D449" />
<rect x="1.1709999999999454" y="0.2964999999999864" width="0.2864999999999864" height="0.2864999999999864" fill="#252525" />
<rect x="1.4624999999999317" y="0.2964999999999864" width="0.2864999999999864" height="0.2864999999999864" fill="#252525" />
<rect x="1.7539999999999183" y="0.2964999999999864" width="0.2864999999999864" height="0.2864999999999864" fill="#252525" />
<rect x="2.0454999999999046" y="0.2964999999999864" width="0.2864999999999864" height="0.2864999999999864" fill="#FF871E" />
<rect x="2.336999999999891" y="0.2964999999999864" width="0.2864999999999864" height="0.2864999999999864" fill="#252525" />
<rect x="2.6284999999998773" y="0.2964999999999864" width="0.2864999999999864" height="0.2864999999999864" fill="#0074D9" />
<rect x="2.9199999999998636" y="0.2964999999999864" width="0.2864999999999864" height="0.2864999999999864" fill="#252525" />
<rect x="3.21149999999985" y="0.2964999999999864" width="0.2864999999999864" height="0.2864999999999864" fill="#252525" />
<rect x="0.005" y="0.5879999999999728" width="0.2864999999999864" height="0.2864999999999864" fill="#252525" />
<rect x="0.2964999999999864" y="0.5879999999999728" width="0.2864999999999864" height="0.2864999999999864" fill="#FF4136" />
<rect x="0.5879999999999728" y="0.5879999999999728" width="0.2864999999999864" height="0.2864999999999864" fill="#FF4136" />
<rect x="0.8794999999999592" y="0.5879999999999728" width="0.2864999999999864" height="0.2864999999999864" fill="#252525" />
<rect x="1.1709999999999454" y="0.5879999999999728" width="0.2864999999999864" height="0.2864999999999864" fill="#37D449" />
<rect x="1.4624999999999317" y="0.5879999999999728" width="0.2864999999999864" height="0.2864999999999864" fill="#37D449" />
<rect x="1.7539999999999183" y="0.5879999999999728" width="0.2864999999999864" height="0.2864999999999864" fill="#FF871E" />
<rect x="2.0454999999999046" y="0.5879999999999728" width="0.2864999999999864" height="0.2864999999999864" fill="#252525" />
<rect x="2.336999999999891" y="0.5879999999999728" width="0.2864999999999864" height="0.2864999999999864" fill="#FF871E" />
<rect x="2.6284999999998773" y="0.5879999999999728" width="0.2864999999999864" height="0.2864999999999864" fill="#252525" />
<rect x="2.9199999999998636" y="0.5879999999999728" width="0.2864999999999864" height="0.2864999999999864" fill="#0074D9" />
<rect x="3.21149999999985" y="0.5879999999999728" width="0.2864999999999864" height="0.2864999999999864" fill="#0074D9" />
<rect x="-0.02666666666666667" y="-0.02666666666666667" width="3.55133333333317" height="0.9278333333332925" fill="none" stroke="#111111ff" stroke-width="0.08" />
<text x="3.497999999999837" y="1.3432499999999592" font-size="0.375" fill="black" text-anchor="end" font-family="Anuphan">12x3</text>
<text x="-0.037500000000000006" y="1.3432499999999592" font-size="0.375" fill="black" text-anchor="start" font-family="Anuphan" font-weight="600">Input 2</text>
</g>
<g id="d2">
<rect x="0.005" y="0.005" width="0.22819999999998908" height="0.22819999999998908" fill="#37D449" />
<rect x="0.2381999999999891" y="0.005" width="0.22819999999998908" height="0.22819999999998908" fill="#252525" />
<rect x="0.47139999999997817" y="0.005" width="0.22819999999998908" height="0.22819999999998908" fill="#252525" />
<rect x="0.7045999999999673" y="0.005" width="0.22819999999998908" height="0.22819999999998908" fill="#FFDC00" />
<rect x="0.9377999999999563" y="0.005" width="0.22819999999998908" height="0.22819999999998908" fill="#252525" />
<rect x="1.1709999999999452" y="0.005" width="0.22819999999998908" height="0.22819999999998908" fill="#FFDC00" />
<rect x="1.4041999999999344" y="0.005" width="0.22819999999998908" height="0.22819999999998908" fill="#FF4136" />
<rect x="1.6373999999999236" y="0.005" width="0.22819999999998908" height="0.22819999999998908" fill="#252525" />
<rect x="1.8705999999999126" y="0.005" width="0.22819999999998908" height="0.22819999999998908" fill="#252525" />
<rect x="2.1037999999999015" y="0.005" width="0.22819999999998908" height="0.22819999999998908" fill="#54D2EB" />
<rect x="2.3369999999998905" y="0.005" width="0.22819999999998908" height="0.22819999999998908" fill="#252525" />
<rect x="2.57019999999988" y="0.005" width="0.22819999999998908" height="0.22819999999998908" fill="#252525" />
<rect x="2.803399999999869" y="0.005" width="0.22819999999998908" height="0.22819999999998908" fill="#0074D9" />
<rect x="3.036599999999858" y="0.005" width="0.22819999999998908" height="0.22819999999998908" fill="#252525" />
<rect x="3.2697999999998473" y="0.005" width="0.22819999999998908" height="0.22819999999998908" fill="#252525" />
<rect x="0.005" y="0.2381999999999891" width="0.22819999999998908" height="0.22819999999998908" fill="#252525" />
<rect x="0.2381999999999891" y="0.2381999999999891" width="0.22819999999998908" height="0.22819999999998908" fill="#37D449" />
<rect x="0.47139999999997817" y="0.2381999999999891" width="0.22819999999998908" height="0.22819999999998908" fill="#37D449" />
<rect x="0.7045999999999673" y="0.2381999999999891" width="0.22819999999998908" height="0.22819999999998908" fill="#FFDC00" />
<rect x="0.9377999999999563" y="0.2381999999999891" width="0.22819999999998908" height="0.22819999999998908" fill="#FFDC00" />
<rect x="1.1709999999999452" y="0.2381999999999891" width="0.22819999999998908" height="0.22819999999998908" fill="#FFDC00" />
<rect x="1.4041999999999344" y="0.2381999999999891" width="0.22819999999998908" height="0.22819999999998908" fill="#252525" />
<rect x="1.6373999999999236" y="0.2381999999999891" width="0.22819999999998908" height="0.22819999999998908" fill="#FF4136" />
<rect x="1.8705999999999126" y="0.2381999999999891" width="0.22819999999998908" height="0.22819999999998908" fill="#FF4136" />
<rect x="2.1037999999999015" y="0.2381999999999891" width="0.22819999999998908" height="0.22819999999998908" fill="#252525" />
<rect x="2.3369999999998905" y="0.2381999999999891" width="0.22819999999998908" height="0.22819999999998908" fill="#54D2EB" />
<rect x="2.57019999999988" y="0.2381999999999891" width="0.22819999999998908" height="0.22819999999998908" fill="#54D2EB" />
<rect x="2.803399999999869" y="0.2381999999999891" width="0.22819999999998908" height="0.22819999999998908" fill="#252525" />
<rect x="3.036599999999858" y="0.2381999999999891" width="0.22819999999998908" height="0.22819999999998908" fill="#0074D9" />
<rect x="3.2697999999998473" y="0.2381999999999891" width="0.22819999999998908" height="0.22819999999998908" fill="#0074D9" />
<rect x="0.005" y="0.47139999999997817" width="0.22819999999998908" height="0.22819999999998908" fill="#252525" />
<rect x="0.2381999999999891" y="0.47139999999997817" width="0.22819999999998908" height="0.22819999999998908" fill="#37D449" />
<rect x="0.47139999999997817" y="0.47139999999997817" width="0.22819999999998908" height="0.22819999999998908" fill="#252525" />
<rect x="0.7045999999999673" y="0.47139999999997817" width="0.22819999999998908" height="0.22819999999998908" fill="#FFDC00" />
<rect x="0.9377999999999563" y="0.47139999999997817" width="0.22819999999998908" height="0.22819999999998908" fill="#252525" />
<rect x="1.1709999999999452" y="0.47139999999997817" width="0.22819999999998908" height="0.22819999999998908" fill="#FFDC00" />
<rect x="1.4041999999999344" y="0.47139999999997817" width="0.22819999999998908" height="0.22819999999998908" fill="#252525" />
<rect x="1.6373999999999236" y="0.47139999999997817" width="0.22819999999998908" height="0.22819999999998908" fill="#FF4136" />
<rect x="1.8705999999999126" y="0.47139999999997817" width="0.22819999999998908" height="0.22819999999998908" fill="#252525" />
<rect x="2.1037999999999015" y="0.47139999999997817" width="0.22819999999998908" height="0.22819999999998908" fill="#252525" />
<rect x="2.3369999999998905" y="0.47139999999997817" width="0.22819999999998908" height="0.22819999999998908" fill="#54D2EB" />
<rect x="2.57019999999988" y="0.47139999999997817" width="0.22819999999998908" height="0.22819999999998908" fill="#252525" />
<rect x="2.803399999999869" y="0.47139999999997817" width="0.22819999999998908" height="0.22819999999998908" fill="#252525" />
<rect x="3.036599999999858" y="0.47139999999997817" width="0.22819999999998908" height="0.22819999999998908" fill="#0074D9" />
<rect x="3.2697999999998473" y="0.47139999999997817" width="0.22819999999998908" height="0.22819999999998908" fill="#252525" />
<rect x="-0.02666666666666667" y="-0.02666666666666667" width="3.5513333333331696" height="0.7529333333333006" fill="none" stroke="#111111ff" stroke-width="0.08" />
<text x="3.4979999999998364" y="1.1683499999999674" font-size="0.375" fill="black" text-anchor="end" font-family="Anuphan">15x3</text>
<text x="-0.037500000000000006" y="1.1683499999999674" font-size="0.375" fill="black" text-anchor="start" font-family="Anuphan" font-weight="600">Input 3</text>
</g>
<g id="d3">
<rect x="0.005" y="0.005" width="0.44708333333333333" height="0.44708333333333333" fill="#252525" />
<rect x="0.45708333333333334" y="0.005" width="0.44708333333333333" height="0.44708333333333333" fill="#FF871E" />
<rect x="0.9091666666666667" y="0.005" width="0.44708333333333333" height="0.44708333333333333" fill="#FF871E" />
<rect x="0.005" y="0.45708333333333334" width="0.44708333333333333" height="0.44708333333333333" fill="#FF871E" />
<rect x="0.45708333333333334" y="0.45708333333333334" width="0.44708333333333333" height="0.44708333333333333" fill="#FF871E" />
<rect x="0.9091666666666667" y="0.45708333333333334" width="0.44708333333333333" height="0.44708333333333333" fill="#252525" />
<rect x="0.005" y="0.9091666666666667" width="0.44708333333333333" height="0.44708333333333333" fill="#FF871E" />
<rect x="0.45708333333333334" y="0.9091666666666667" width="0.44708333333333333" height="0.44708333333333333" fill="#252525" />
<rect x="0.9091666666666667" y="0.9091666666666667" width="0.44708333333333333" height="0.44708333333333333" fill="#FF871E" />
<rect x="0.005" y="1.3612499999999998" width="0.44708333333333333" height="0.44708333333333333" fill="#37D449" />
<rect x="0.45708333333333334" y="1.3612499999999998" width="0.44708333333333333" height="0.44708333333333333" fill="#252525" />
<rect x="0.9091666666666667" y="1.3612499999999998" width="0.44708333333333333" height="0.44708333333333333" fill="#252525" />
<rect x="0.005" y="1.8133333333333332" width="0.44708333333333333" height="0.44708333333333333" fill="#252525" />
<rect x="0.45708333333333334" y="1.8133333333333332" width="0.44708333333333333" height="0.44708333333333333" fill="#37D449" />
<rect x="0.9091666666666667" y="1.8133333333333332" width="0.44708333333333333" height="0.44708333333333333" fill="#37D449" />
<rect x="0.005" y="2.2654166666666664" width="0.44708333333333333" height="0.44708333333333333" fill="#37D449" />
<rect x="0.45708333333333334" y="2.2654166666666664" width="0.44708333333333333" height="0.44708333333333333" fill="#252525" />
<rect x="0.9091666666666667" y="2.2654166666666664" width="0.44708333333333333" height="0.44708333333333333" fill="#252525" />
<rect x="0.005" y="2.7175" width="0.44708333333333333" height="0.44708333333333333" fill="#FF4136" />
<rect x="0.45708333333333334" y="2.7175" width="0.44708333333333333" height="0.44708333333333333" fill="#252525" />
<rect x="0.9091666666666667" y="2.7175" width="0.44708333333333333" height="0.44708333333333333" fill="#252525" />
<rect x="0.005" y="3.169583333333333" width="0.44708333333333333" height="0.44708333333333333" fill="#252525" />
<rect x="0.45708333333333334" y="3.169583333333333" width="0.44708333333333333" height="0.44708333333333333" fill="#FF4136" />
<rect x="0.9091666666666667" y="3.169583333333333" width="0.44708333333333333" height="0.44708333333333333" fill="#FF4136" />
<rect x="0.005" y="3.6216666666666666" width="0.44708333333333333" height="0.44708333333333333" fill="#FF4136" />
<rect x="0.45708333333333334" y="3.6216666666666666" width="0.44708333333333333" height="0.44708333333333333" fill="#252525" />
<rect x="0.9091666666666667" y="3.6216666666666666" width="0.44708333333333333" height="0.44708333333333333" fill="#252525" />
<rect x="0.005" y="4.0737499999999995" width="0.44708333333333333" height="0.44708333333333333" fill="#54D2EB" />
<rect x="0.45708333333333334" y="4.0737499999999995" width="0.44708333333333333" height="0.44708333333333333" fill="#252525" />
<rect x="0.9091666666666667" y="4.0737499999999995" width="0.44708333333333333" height="0.44708333333333333" fill="#252525" />
<rect x="0.005" y="4.525833333333333" width="0.44708333333333333" height="0.44708333333333333" fill="#252525" />
<rect x="0.45708333333333334" y="4.525833333333333" width="0.44708333333333333" height="0.44708333333333333" fill="#54D2EB" />
<rect x="0.9091666666666667" y="4.525833333333333" width="0.44708333333333333" height="0.44708333333333333" fill="#54D2EB" />
<rect x="0.005" y="4.977916666666666" width="0.44708333333333333" height="0.44708333333333333" fill="#54D2EB" />
<rect x="0.45708333333333334" y="4.977916666666666" width="0.44708333333333333" height="0.44708333333333333" fill="#252525" />
<rect x="0.9091666666666667" y="4.977916666666666" width="0.44708333333333333" height="0.44708333333333333" fill="#252525" />
<rect x="-0.02666666666666667" y="-0.02666666666666667" width="1.4095833333333332" height="5.4783333333333335" fill="none" stroke="#111111ff" stroke-width="0.08" />
<text x="1.35625" y="5.89375" font-size="0.375" fill="black" text-anchor="end" font-family="Anuphan">3x12</text>
<text x="-0.037500000000000006" y="5.89375" font-size="0.375" fill="black" text-anchor="start" font-family="Anuphan" font-weight="600">Input 4</text>
</g>
<g id="d4">
<rect x="0.005" y="0.005" width="0.35666666666666663" height="0.35666666666666663" fill="#252525" />
<rect x="0.36666666666666664" y="0.005" width="0.35666666666666663" height="0.35666666666666663" fill="#E6E6E6" />
<rect x="0.7283333333333333" y="0.005" width="0.35666666666666663" height="0.35666666666666663" fill="#252525" />
<rect x="0.005" y="0.36666666666666664" width="0.35666666666666663" height="0.35666666666666663" fill="#E6E6E6" />
<rect x="0.36666666666666664" y="0.36666666666666664" width="0.35666666666666663" height="0.35666666666666663" fill="#252525" />
<rect x="0.7283333333333333" y="0.36666666666666664" width="0.35666666666666663" height="0.35666666666666663" fill="#E6E6E6" />
<rect x="0.005" y="0.7283333333333333" width="0.35666666666666663" height="0.35666666666666663" fill="#252525" />
<rect x="0.36666666666666664" y="0.7283333333333333" width="0.35666666666666663" height="0.35666666666666663" fill="#E6E6E6" />
<rect x="0.7283333333333333" y="0.7283333333333333" width="0.35666666666666663" height="0.35666666666666663" fill="#252525" />
<rect x="0.005" y="1.0899999999999999" width="0.35666666666666663" height="0.35666666666666663" fill="#252525" />
<rect x="0.36666666666666664" y="1.0899999999999999" width="0.35666666666666663" height="0.35666666666666663" fill="#37D449" />
<rect x="0.7283333333333333" y="1.0899999999999999" width="0.35666666666666663" height="0.35666666666666663" fill="#252525" />
<rect x="0.005" y="1.4516666666666664" width="0.35666666666666663" height="0.35666666666666663" fill="#37D449" />
<rect x="0.36666666666666664" y="1.4516666666666664" width="0.35666666666666663" height="0.35666666666666663" fill="#252525" />
<rect x="0.7283333333333333" y="1.4516666666666664" width="0.35666666666666663" height="0.35666666666666663" fill="#37D449" />
<rect x="0.005" y="1.813333333333333" width="0.35666666666666663" height="0.35666666666666663" fill="#252525" />
<rect x="0.36666666666666664" y="1.813333333333333" width="0.35666666666666663" height="0.35666666666666663" fill="#37D449" />
<rect x="0.7283333333333333" y="1.813333333333333" width="0.35666666666666663" height="0.35666666666666663" fill="#252525" />
<rect x="0.005" y="2.175" width="0.35666666666666663" height="0.35666666666666663" fill="#F012BE" />
<rect x="0.36666666666666664" y="2.175" width="0.35666666666666663" height="0.35666666666666663" fill="#252525" />
<rect x="0.7283333333333333" y="2.175" width="0.35666666666666663" height="0.35666666666666663" fill="#F012BE" />
<rect x="0.005" y="2.536666666666666" width="0.35666666666666663" height="0.35666666666666663" fill="#F012BE" />
<rect x="0.36666666666666664" y="2.536666666666666" width="0.35666666666666663" height="0.35666666666666663" fill="#F012BE" />
<rect x="0.7283333333333333" y="2.536666666666666" width="0.35666666666666663" height="0.35666666666666663" fill="#252525" />
<rect x="0.005" y="2.898333333333333" width="0.35666666666666663" height="0.35666666666666663" fill="#F012BE" />
<rect x="0.36666666666666664" y="2.898333333333333" width="0.35666666666666663" height="0.35666666666666663" fill="#252525" />
<rect x="0.7283333333333333" y="2.898333333333333" width="0.35666666666666663" height="0.35666666666666663" fill="#F012BE" />
<rect x="0.005" y="3.26" width="0.35666666666666663" height="0.35666666666666663" fill="#252525" />
<rect x="0.36666666666666664" y="3.26" width="0.35666666666666663" height="0.35666666666666663" fill="#FFDC00" />
<rect x="0.7283333333333333" y="3.26" width="0.35666666666666663" height="0.35666666666666663" fill="#252525" />
<rect x="0.005" y="3.621666666666666" width="0.35666666666666663" height="0.35666666666666663" fill="#FFDC00" />
<rect x="0.36666666666666664" y="3.621666666666666" width="0.35666666666666663" height="0.35666666666666663" fill="#252525" />
<rect x="0.7283333333333333" y="3.621666666666666" width="0.35666666666666663" height="0.35666666666666663" fill="#FFDC00" />
<rect x="0.005" y="3.983333333333333" width="0.35666666666666663" height="0.35666666666666663" fill="#252525" />
<rect x="0.36666666666666664" y="3.983333333333333" width="0.35666666666666663" height="0.35666666666666663" fill="#FFDC00" />
<rect x="0.7283333333333333" y="3.983333333333333" width="0.35666666666666663" height="0.35666666666666663" fill="#252525" />
<rect x="0.005" y="4.345" width="0.35666666666666663" height="0.35666666666666663" fill="#252525" />
<rect x="0.36666666666666664" y="4.345" width="0.35666666666666663" height="0.35666666666666663" fill="#54D2EB" />
<rect x="0.7283333333333333" y="4.345" width="0.35666666666666663" height="0.35666666666666663" fill="#252525" />
<rect x="0.005" y="4.706666666666666" width="0.35666666666666663" height="0.35666666666666663" fill="#54D2EB" />
<rect x="0.36666666666666664" y="4.706666666666666" width="0.35666666666666663" height="0.35666666666666663" fill="#252525" />
<rect x="0.7283333333333333" y="4.706666666666666" width="0.35666666666666663" height="0.35666666666666663" fill="#54D2EB" />
<rect x="0.005" y="5.0683333333333325" width="0.35666666666666663" height="0.35666666666666663" fill="#252525" />
<rect x="0.36666666666666664" y="5.0683333333333325" width="0.35666666666666663" height="0.35666666666666663" fill="#54D2EB" />
<rect x="0.7283333333333333" y="5.0683333333333325" width="0.35666666666666663" height="0.35666666666666663" fill="#252525" />
<rect x="-0.02666666666666667" y="-0.02666666666666667" width="1.1383333333333332" height="5.4783333333333335" fill="none" stroke="#111111ff" stroke-width="0.08" />
<text x="1.085" y="5.89375" font-size="0.375" fill="black" text-anchor="end" font-family="Anuphan">3x15</text>
<text x="-0.037500000000000006" y="5.89375" font-size="0.375" fill="black" text-anchor="start" font-family="Anuphan" font-weight="600">Test 1</text>
</g>
<g id="d5">
<rect x="0.005" y="0.005" width="1.1609999999999456" height="1.1609999999999456" fill="#54D2EB" />
<rect x="1.1709999999999454" y="0.005" width="1.1609999999999456" height="1.1609999999999456" fill="#54D2EB" />
<rect x="2.336999999999891" y="0.005" width="1.1609999999999456" height="1.1609999999999456" fill="#54D2EB" />
<rect x="0.005" y="1.1709999999999454" width="1.1609999999999456" height="1.1609999999999456" fill="#54D2EB" />
<rect x="1.1709999999999454" y="1.1709999999999454" width="1.1609999999999456" height="1.1609999999999456" fill="#252525" />
<rect x="2.336999999999891" y="1.1709999999999454" width="1.1609999999999456" height="1.1609999999999456" fill="#54D2EB" />
<rect x="0.005" y="2.336999999999891" width="1.1609999999999456" height="1.1609999999999456" fill="#54D2EB" />
<rect x="1.1709999999999454" y="2.336999999999891" width="1.1609999999999456" height="1.1609999999999456" fill="#54D2EB" />
<rect x="2.336999999999891" y="2.336999999999891" width="1.1609999999999456" height="1.1609999999999456" fill="#54D2EB" />
<rect x="-0.02666666666666667" y="-0.02666666666666667" width="3.55133333333317" height="3.55133333333317" fill="none" stroke="#111111ff" stroke-width="0.08" />
<text x="3.497999999999837" y="3.966749999999837" font-size="0.375" fill="black" text-anchor="end" font-family="Anuphan">3x3</text>
<text x="-0.037500000000000006" y="3.966749999999837" font-size="0.375" fill="black" text-anchor="start" font-family="Anuphan" font-weight="600">Output 1</text>
</g>
<g id="d6">
<rect x="0.005" y="0.005" width="1.1609999999999456" height="1.1609999999999456" fill="#FF871E" />
<rect x="1.1709999999999454" y="0.005" width="1.1609999999999456" height="1.1609999999999456" fill="#252525" />
<rect x="2.336999999999891" y="0.005" width="1.1609999999999456" height="1.1609999999999456" fill="#FF871E" />
<rect x="0.005" y="1.1709999999999454" width="1.1609999999999456" height="1.1609999999999456" fill="#252525" />
<rect x="1.1709999999999454" y="1.1709999999999454" width="1.1609999999999456" height="1.1609999999999456" fill="#FF871E" />
<rect x="2.336999999999891" y="1.1709999999999454" width="1.1609999999999456" height="1.1609999999999456" fill="#252525" />
<rect x="0.005" y="2.336999999999891" width="1.1609999999999456" height="1.1609999999999456" fill="#FF871E" />
<rect x="1.1709999999999454" y="2.336999999999891" width="1.1609999999999456" height="1.1609999999999456" fill="#252525" />
<rect x="2.336999999999891" y="2.336999999999891" width="1.1609999999999456" height="1.1609999999999456" fill="#FF871E" />
<rect x="-0.02666666666666667" y="-0.02666666666666667" width="3.55133333333317" height="3.55133333333317" fill="none" stroke="#111111ff" stroke-width="0.08" />
<text x="3.497999999999837" y="3.966749999999837" font-size="0.375" fill="black" text-anchor="end" font-family="Anuphan">3x3</text>
<text x="-0.037500000000000006" y="3.966749999999837" font-size="0.375" fill="black" text-anchor="start" font-family="Anuphan" font-weight="600">Output 2</text>
</g>
<g id="d7">
<rect x="0.005" y="0.005" width="1.1609999999999456" height="1.1609999999999456" fill="#FFDC00" />
<rect x="1.1709999999999454" y="0.005" width="1.1609999999999456" height="1.1609999999999456" fill="#252525" />
<rect x="2.336999999999891" y="0.005" width="1.1609999999999456" height="1.1609999999999456" fill="#FFDC00" />
<rect x="0.005" y="1.1709999999999454" width="1.1609999999999456" height="1.1609999999999456" fill="#FFDC00" />
<rect x="1.1709999999999454" y="1.1709999999999454" width="1.1609999999999456" height="1.1609999999999456" fill="#FFDC00" />
<rect x="2.336999999999891" y="1.1709999999999454" width="1.1609999999999456" height="1.1609999999999456" fill="#FFDC00" />
<rect x="0.005" y="2.336999999999891" width="1.1609999999999456" height="1.1609999999999456" fill="#FFDC00" />
<rect x="1.1709999999999454" y="2.336999999999891" width="1.1609999999999456" height="1.1609999999999456" fill="#252525" />
<rect x="2.336999999999891" y="2.336999999999891" width="1.1609999999999456" height="1.1609999999999456" fill="#FFDC00" />
<rect x="-0.02666666666666667" y="-0.02666666666666667" width="3.55133333333317" height="3.55133333333317" fill="none" stroke="#111111ff" stroke-width="0.08" />
<text x="3.497999999999837" y="3.966749999999837" font-size="0.375" fill="black" text-anchor="end" font-family="Anuphan">3x3</text>
<text x="-0.037500000000000006" y="3.966749999999837" font-size="0.375" fill="black" text-anchor="start" font-family="Anuphan" font-weight="600">Output 3</text>
</g>
<g id="d8">
<rect x="0.005" y="0.005" width="1.1609999999999456" height="1.1609999999999456" fill="#252525" />
<rect x="1.1709999999999454" y="0.005" width="1.1609999999999456" height="1.1609999999999456" fill="#FF871E" />
<rect x="2.336999999999891" y="0.005" width="1.1609999999999456" height="1.1609999999999456" fill="#FF871E" />
<rect x="0.005" y="1.1709999999999454" width="1.1609999999999456" height="1.1609999999999456" fill="#FF871E" />
<rect x="1.1709999999999454" y="1.1709999999999454" width="1.1609999999999456" height="1.1609999999999456" fill="#FF871E" />
<rect x="2.336999999999891" y="1.1709999999999454" width="1.1609999999999456" height="1.1609999999999456" fill="#252525" />
<rect x="0.005" y="2.336999999999891" width="1.1609999999999456" height="1.1609999999999456" fill="#FF871E" />
<rect x="1.1709999999999454" y="2.336999999999891" width="1.1609999999999456" height="1.1609999999999456" fill="#252525" />
<rect x="2.336999999999891" y="2.336999999999891" width="1.1609999999999456" height="1.1609999999999456" fill="#FF871E" />
<rect x="-0.02666666666666667" y="-0.02666666666666667" width="3.55133333333317" height="3.55133333333317" fill="none" stroke="#111111ff" stroke-width="0.08" />
<text x="3.497999999999837" y="3.966749999999837" font-size="0.375" fill="black" text-anchor="end" font-family="Anuphan">3x3</text>
<text x="-0.037500000000000006" y="3.966749999999837" font-size="0.375" fill="black" text-anchor="start" font-family="Anuphan" font-weight="600">Output 4</text>
</g>
</defs>
<rect x="0" y="0" width="100%" height="100%" fill="#eeeff6" />
<use xlink:href="#d0" x="1.0948333333332516" y="0.25" />
<use xlink:href="#d1" x="4.247999999999837" y="0.25" />
<use xlink:href="#d2" x="8.245999999999674" y="0.25" />
<use xlink:href="#d3" x="13.314874999999429" y="0.25" />
<use xlink:href="#d4" x="17.448499999999264" y="0.25" />
<path d="M1.1541666666666666,6.325 L1.1541666666666666,6.7250000000000005" stroke-width="0.05" stroke="#888888" />
<path d="M1.0041666666666667,6.525 L1.1541666666666666,6.7250000000000005" stroke-width="0.05" stroke="#888888" />
<path d="M1.3041666666666665,6.525 L1.1541666666666666,6.7250000000000005" stroke-width="0.05" stroke="#888888" />
<use xlink:href="#d5" x="0.24999999999999978" y="7.075" />
<path d="M5.996999999999755,6.325 L5.996999999999755,6.7250000000000005" stroke-width="0.05" stroke="#888888" />
<path d="M5.846999999999754,6.525 L5.996999999999755,6.7250000000000005" stroke-width="0.05" stroke="#888888" />
<path d="M6.146999999999755,6.525 L5.996999999999755,6.7250000000000005" stroke-width="0.05" stroke="#888888" />
<use xlink:href="#d6" x="4.247999999999837" y="7.075" />
<path d="M9.994999999999592,6.325 L9.994999999999592,6.7250000000000005" stroke-width="0.05" stroke="#888888" />
<path d="M9.844999999999592,6.525 L9.994999999999592,6.7250000000000005" stroke-width="0.05" stroke="#888888" />
<path d="M10.144999999999593,6.525 L9.994999999999592,6.7250000000000005" stroke-width="0.05" stroke="#888888" />
<use xlink:href="#d7" x="8.245999999999674" y="7.075" />
<path d="M12.92212499999951,6.325 L12.92212499999951,6.7250000000000005" stroke-width="0.05" stroke="#888888" />
<path d="M12.772124999999509,6.525 L12.92212499999951,6.7250000000000005" stroke-width="0.05" stroke="#888888" />
<path d="M13.07212499999951,6.525 L12.92212499999951,6.7250000000000005" stroke-width="0.05" stroke="#888888" />
<use xlink:href="#d8" x="12.24399999999951" y="7.075" />
<path d="M16.784499999999348,6.325 L16.784499999999348,6.7250000000000005" stroke-width="0.05" stroke="#888888" />
<path d="M16.63449999999935,6.525 L16.784499999999348,6.7250000000000005" stroke-width="0.05" stroke="#888888" />
<path d="M16.934499999999346,6.525 L16.784499999999348,6.7250000000000005" stroke-width="0.05" stroke="#888888" />
<text x="17.990999999999264" y="8.923999999999918" font-size="1" font-family="Anuphan" font-weight="700" fill="#333333" text-anchor="middle" alignment-baseline="middle">?</text>
<text x="19.9" y="11.4" font-size="0.3" font-family="Anuphan" font-weight="600" fill="#666666" text-anchor="end" alignment-baseline="bottom">Task a87f7484</text>
</svg>