<?xml version="1.0" encoding="UTF-8"?>
<svg xmlns="http://www.w3.org/2000/svg" xmlns:xlink="http://www.w3.org/1999/xlink"
     width="800.0" height="415.99999999999994" viewBox="0 0 20.0 10.399999999999999">
<defs>
<g id="d0">
<rect x="0.005" y="0.005" width="0.3836666666666485" height="0.3836666666666485" fill="#FF4136" />
<rect x="0.3936666666666485" y="0.005" width="0.3836666666666485" height="0.3836666666666485" fill="#252525" />
<rect x="0.782333333333297" y="0.005" width="0.3836666666666485" height="0.3836666666666485" fill="#252525" />
<rect x="1.1709999999999454" y="0.005" width="0.3836666666666485" height="0.3836666666666485" fill="#252525" />
<rect x="1.559666666666594" y="0.005" width="0.3836666666666485" height="0.3836666666666485" fill="#252525" />
<rect x="1.9483333333332424" y="0.005" width="0.3836666666666485" height="0.3836666666666485" fill="#FF4136" />
<rect x="2.336999999999891" y="0.005" width="0.3836666666666485" height="0.3836666666666485" fill="#252525" />
<rect x="2.7256666666665392" y="0.005" width="0.3836666666666485" height="0.3836666666666485" fill="#252525" />
<rect x="3.114333333333188" y="0.005" width="0.3836666666666485" height="0.3836666666666485" fill="#FF4136" />
<rect x="0.005" y="0.3936666666666485" width="0.3836666666666485" height="0.3836666666666485" fill="#252525" />
<rect x="0.3936666666666485" y="0.3936666666666485" width="0.3836666666666485" height="0.3836666666666485" fill="#FFDC00" />
<rect x="0.782333333333297" y="0.3936666666666485" width="0.3836666666666485" height="0.3836666666666485" fill="#FFDC00" />
<rect x="1.1709999999999454" y="0.3936666666666485" width="0.3836666666666485" height="0.3836666666666485" fill="#FFDC00" />
<rect x="1.559666666666594" y="0.3936666666666485" width="0.3836666666666485" height="0.3836666666666485" fill="#252525" />
<rect x="1.9483333333332424" y="0.3936666666666485" width="0.3836666666666485" height="0.3836666666666485" fill="#252525" />
<rect x="2.336999999999891" y="0.3936666666666485" width="0.3836666666666485" height="0.3836666666666485" fill="#252525" />
<rect x="2.7256666666665392" y="0.3936666666666485" width="0.3836666666666485" height="0.3836666666666485" fill="#252525" />
<rect x="3.114333333333188" y="0.3936666666666485" width="0.3836666666666485" height="0.3836666666666485" fill="#252525" />
<rect x="0.005" y="0.782333333333297" width="0.3836666666666485" height="0.3836666666666485" fill="#252525" />
<rect x="0.3936666666666485" y="0.782333333333297" width="0.3836666666666485" height="0.3836666666666485" fill="#FFDC00" />
<rect x="0.782333333333297" y="0.782333333333297" width="0.3836666666666485" height="0.3836666666666485" fill="#FF4136" />
<rect x="1.1709999999999454" y="0.782333333333297" width="0.3836666666666485" height="0.3836666666666485" fill="#FFDC00" />
<rect x="1.559666666666594" y="0.782333333333297" width="0.3836666666666485" height="0.3836666666666485" fill="#252525" />
<rect x="1.9483333333332424" y="0.782333333333297" width="0.3836666666666485" height="0.3836666666666485" fill="#252525" />
<rect x="2.336999999999891" y="0.782333333333297" width="0.3836666666666485" height="0.3836666666666485" fill="#FF4136" />
<rect x="2.7256666666665392" y="0.782333333333297" width="0.3836666666666485" height="0.3836666666666485" fill="#252525" />
<rect x="3.114333333333188" y="0.782333333333297" width="0.3836666666666485" height="0.3836666666666485" fill="#252525" />
<rect x="0.005" y="1.1709999999999454" width="0.3836666666666485" height="0.3836666666666485" fill="#252525" />
<rect x="0.3936666666666485" y="1.1709999999999454" width="0.3836666666666485" height="0.3836666666666485" fill="#FFDC00" />
<rect x="0.782333333333297" y="1.1709999999999454" width="0.3836666666666485" height="0.3836666666666485" fill="#FFDC00" />
<rect x="1.1709999999999454" y="1.1709999999999454" width="0.3836666666666485" height="0.3836666666666485" fill="#FFDC00" />
<rect x="1.559666666666594" y="1.1709999999999454" width="0.3836666666666485" height="0.3836666666666485" fill="#252525" />
<rect x="1.9483333333332424" y="1.1709999999999454" width="0.3836666666666485" height="0.3836666666666485" fill="#252525" />
<rect x="2.336999999999891" y="1.1709999999999454" width="0.3836666666666485" height="0.3836666666666485" fill="#252525" />
<rect x="2.7256666666665392" y="1.1709999999999454" width="0.3836666666666485" height="0.3836666666666485" fill="#FF4136" />
<rect x="3.114333333333188" y="1.1709999999999454" width="0.3836666666666485" height="0.3836666666666485" fill="#252525" />
<rect x="0.005" y="1.559666666666594" width="0.3836666666666485" height="0.3836666666666485" fill="#FF4136" />
<rect x="0.3936666666666485" y="1.559666666666594" width="0.3836666666666485" height="0.3836666666666485" fill="#252525" />
<rect x="0.782333333333297" y="1.559666666666594" width="0.3836666666666485" height="0.3836666666666485" fill="#252525" />
<rect x="1.1709999999999454" y="1.559666666666594" width="0.3836666666666485" height="0.3836666666666485" fill="#252525" />
<rect x="1.559666666666594" y="1.559666666666594" width="0.3836666666666485" height="0.3836666666666485" fill="#252525" />
<rect x="1.9483333333332424" y="1.559666666666594" width="0.3836666666666485" height="0.3836666666666485" fill="#FF4136" />
<rect x="2.336999999999891" y="1.559666666666594" width="0.3836666666666485" height="0.3836666666666485" fill="#252525" />
<rect x="2.7256666666665392" y="1.559666666666594" width="0.3836666666666485" height="0.3836666666666485" fill="#252525" />
<rect x="3.114333333333188" y="1.559666666666594" width="0.3836666666666485" height="0.3836666666666485" fill="#252525" />
<rect x="-0.02666666666666667" y="-0.02666666666666667" width="3.55133333333317" height="1.9966666666665758" fill="none" stroke="#111111ff" stroke-width="0.08" />
<text x="3.497999999999837" y="2.4120833333332428" font-size="0.375" fill="black" text-anchor="end" font-family="Anuphan">9x5</text>
<text x="-0.037500000000000006" y="2.4120833333332428" font-size="0.375" fill="black" text-anchor="start" font-family="Anuphan" font-weight="600">Input 1</text>
</g>
<g id="d1">
<rect x="0.005" y="0.005" width="0.3836666666666485" height="0.3836666666666485" fill="#54D2EB" />
<rect x="0.3936666666666485" y="0.005" width="0.3836666666666485" height="0.3836666666666485" fill="#252525" />
<rect x="0.782333333333297" y="0.005" width="0.3836666666666485" height="0.3836666666666485" fill="#54D2EB" />
<rect x="1.1709999999999454" y="0.005" width="0.3836666666666485" height="0.3836666666666485" fill="#252525" />
<rect x="1.559666666666594" y="0.005" width="0.3836666666666485" height="0.3836666666666485" fill="#252525" />
<rect x="1.9483333333332424" y="0.005" width="0.3836666666666485" height="0.3836666666666485" fill="#252525" />
<rect x="2.336999999999891" y="0.005" width="0.3836666666666485" height="0.3836666666666485" fill="#252525" />
<rect x="2.7256666666665392" y="0.005" width="0.3836666666666485" height="0.3836666666666485" fill="#252525" />
<rect x="3.114333333333188" y="0.005" width="0.3836666666666485" height="0.3836666666666485" fill="#54D2EB" />
<rect x="0.005" y="0.3936666666666485" width="0.3836666666666485" height="0.3836666666666485" fill="#252525" />
<rect x="0.3936666666666485" y="0.3936666666666485" width="0.3836666666666485" height="0.3836666666666485" fill="#252525" />
<rect x="0.782333333333297" y="0.3936666666666485" width="0.3836666666666485" height="0.3836666666666485" fill="#252525" />
<rect x="1.1709999999999454" y="0.3936666666666485" width="0.3836666666666485" height="0.3836666666666485" fill="#252525" />
<rect x="1.559666666666594" y="0.3936666666666485" width="0.3836666666666485" height="0.3836666666666485" fill="#54D2EB" />
<rect x="1.9483333333332424" y="0.3936666666666485" width="0.3836666666666485" height="0.3836666666666485" fill="#252525" />
<rect x="2.336999999999891" y="0.3936666666666485" width="0.3836666666666485" height="0.3836666666666485" fill="#252525" />
<rect x="2.7256666666665392" y="0.3936666666666485" width="0.3836666666666485" height="0.3836666666666485" fill="#252525" />
<rect x="3.114333333333188" y="0.3936666666666485" width="0.3836666666666485" height="0.3836666666666485" fill="#252525" />
<rect x="0.005" y="0.782333333333297" width="0.3836666666666485" height="0.3836666666666485" fill="#252525" />
<rect x="0.3936666666666485" y="0.782333333333297" width="0.3836666666666485" height="0.3836666666666485" fill="#252525" />
<rect x="0.782333333333297" y="0.782333333333297" width="0.3836666666666485" height="0.3836666666666485" fill="#54D2EB" />
<rect x="1.1709999999999454" y="0.782333333333297" width="0.3836666666666485" height="0.3836666666666485" fill="#252525" />
<rect x="1.559666666666594" y="0.782333333333297" width="0.3836666666666485" height="0.3836666666666485" fill="#252525" />
<rect x="1.9483333333332424" y="0.782333333333297" width="0.3836666666666485" height="0.3836666666666485" fill="#37D449" />
<rect x="2.336999999999891" y="0.782333333333297" width="0.3836666666666485" height="0.3836666666666485" fill="#37D449" />
<rect x="2.7256666666665392" y="0.782333333333297" width="0.3836666666666485" height="0.3836666666666485" fill="#37D449" />
<rect x="3.114333333333188" y="0.782333333333297" width="0.3836666666666485" height="0.3836666666666485" fill="#252525" />
<rect x="0.005" y="1.1709999999999454" width="0.3836666666666485" height="0.3836666666666485" fill="#54D2EB" />
<rect x="0.3936666666666485" y="1.1709999999999454" width="0.3836666666666485" height="0.3836666666666485" fill="#252525" />
<rect x="0.782333333333297" y="1.1709999999999454" width="0.3836666666666485" height="0.3836666666666485" fill="#252525" />
<rect x="1.1709999999999454" y="1.1709999999999454" width="0.3836666666666485" height="0.3836666666666485" fill="#37D449" />
<rect x="1.559666666666594" y="1.1709999999999454" width="0.3836666666666485" height="0.3836666666666485" fill="#252525" />
<rect x="1.9483333333332424" y="1.1709999999999454" width="0.3836666666666485" height="0.3836666666666485" fill="#37D449" />
<rect x="2.336999999999891" y="1.1709999999999454" width="0.3836666666666485" height="0.3836666666666485" fill="#54D2EB" />
<rect x="2.7256666666665392" y="1.1709999999999454" width="0.3836666666666485" height="0.3836666666666485" fill="#37D449" />
<rect x="3.114333333333188" y="1.1709999999999454" width="0.3836666666666485" height="0.3836666666666485" fill="#252525" />
<rect x="0.005" y="1.559666666666594" width="0.3836666666666485" height="0.3836666666666485" fill="#252525" />
<rect x="0.3936666666666485" y="1.559666666666594" width="0.3836666666666485" height="0.3836666666666485" fill="#252525" />
<rect x="0.782333333333297" y="1.559666666666594" width="0.3836666666666485" height="0.3836666666666485" fill="#252525" />
<rect x="1.1709999999999454" y="1.559666666666594" width="0.3836666666666485" height="0.3836666666666485" fill="#252525" />
<rect x="1.559666666666594" y="1.559666666666594" width="0.3836666666666485" height="0.3836666666666485" fill="#252525" />
<rect x="1.9483333333332424" y="1.559666666666594" width="0.3836666666666485" height="0.3836666666666485" fill="#37D449" />
<rect x="2.336999999999891" y="1.559666666666594" width="0.3836666666666485" height="0.3836666666666485" fill="#37D449" />
<rect x="2.7256666666665392" y="1.559666666666594" width="0.3836666666666485" height="0.3836666666666485" fill="#37D449" />
<rect x="3.114333333333188" y="1.559666666666594" width="0.3836666666666485" height="0.3836666666666485" fill="#252525" />
<rect x="0.005" y="1.9483333333332424" width="0.3836666666666485" height="0.3836666666666485" fill="#252525" />
<rect x="0.3936666666666485" y="1.9483333333332424" width="0.3836666666666485" height="0.3836666666666485" fill="#252525" />
<rect x="0.782333333333297" y="1.9483333333332424" width="0.3836666666666485" height="0.3836666666666485" fill="#54D2EB" />
<rect x="1.1709999999999454" y="1.9483333333332424" width="0.3836666666666485" height="0.3836666666666485" fill="#252525" />
<rect x="1.559666666666594" y="1.9483333333332424" width="0.3836666666666485" height="0.3836666666666485" fill="#252525" />
<rect x="1.9483333333332424" y="1.9483333333332424" width="0.3836666666666485" height="0.3836666666666485" fill="#252525" />
<rect x="2.336999999999891" y="1.9483333333332424" width="0.3836666666666485" height="0.3836666666666485" fill="#252525" />
<rect x="2.7256666666665392" y="1.9483333333332424" width="0.3836666666666485" height="0.3836666666666485" fill="#252525" />
<rect x="3.114333333333188" y="1.9483333333332424" width="0.3836666666666485" height="0.3836666666666485" fill="#252525" />
<rect x="0.005" y="2.336999999999891" width="0.3836666666666485" height="0.3836666666666485" fill="#37D449" />
<rect x="0.3936666666666485" y="2.336999999999891" width="0.3836666666666485" height="0.3836666666666485" fill="#252525" />
<rect x="0.782333333333297" y="2.336999999999891" width="0.3836666666666485" height="0.3836666666666485" fill="#252525" />
<rect x="1.1709999999999454" y="2.336999999999891" width="0.3836666666666485" height="0.3836666666666485" fill="#54D2EB" />
<rect x="1.559666666666594" y="2.336999999999891" width="0.3836666666666485" height="0.3836666666666485" fill="#252525" />
<rect x="1.9483333333332424" y="2.336999999999891" width="0.3836666666666485" height="0.3836666666666485" fill="#252525" />
<rect x="2.336999999999891" y="2.336999999999891" width="0.3836666666666485" height="0.3836666666666485" fill="#252525" />
<rect x="2.7256666666665392" y="2.336999999999891" width="0.3836666666666485" height="0.3836666666666485" fill="#54D2EB" />
<rect x="3.114333333333188" y="2.336999999999891" width="0.3836666666666485" height="0.3836666666666485" fill="#252525" />
<rect x="-0.02666666666666667" y="-0.02666666666666667" width="3.55133333333317" height="2.7739999999998726" fill="none" stroke="#111111ff" stroke-width="0.08" />
<text x="3.497999999999837" y="3.1894166666665393" font-size="0.375" fill="black" text-anchor="end" font-family="Anuphan">9x7</text>
<text x="-0.037500000000000006" y="3.1894166666665393" font-size="0.375" fill="black" text-anchor="start" font-family="Anuphan" font-weight="600">Input 2</text>
</g>
<g id="d2">
<rect x="0.005" y="0.005" width="0.3836666666666485" height="0.3836666666666485" fill="#0074D9" />
<rect x="0.3936666666666485" y="0.005" width="0.3836666666666485" height="0.3836666666666485" fill="#FF4136" />
<rect x="0.782333333333297" y="0.005" width="0.3836666666666485" height="0.3836666666666485" fill="#252525" />
<rect x="1.1709999999999454" y="0.005" width="0.3836666666666485" height="0.3836666666666485" fill="#252525" />
<rect x="1.559666666666594" y="0.005" width="0.3836666666666485" height="0.3836666666666485" fill="#252525" />
<rect x="1.9483333333332424" y="0.005" width="0.3836666666666485" height="0.3836666666666485" fill="#FF4136" />
<rect x="2.336999999999891" y="0.005" width="0.3836666666666485" height="0.3836666666666485" fill="#252525" />
<rect x="2.7256666666665392" y="0.005" width="0.3836666666666485" height="0.3836666666666485" fill="#252525" />
<rect x="3.114333333333188" y="0.005" width="0.3836666666666485" height="0.3836666666666485" fill="#252525" />
<rect x="0.005" y="0.3936666666666485" width="0.3836666666666485" height="0.3836666666666485" fill="#252525" />
<rect x="0.3936666666666485" y="0.3936666666666485" width="0.3836666666666485" height="0.3836666666666485" fill="#252525" />
<rect x="0.782333333333297" y="0.3936666666666485" width="0.3836666666666485" height="0.3836666666666485" fill="#FF4136" />
<rect x="1.1709999999999454" y="0.3936666666666485" width="0.3836666666666485" height="0.3836666666666485" fill="#252525" />
<rect x="1.559666666666594" y="0.3936666666666485" width="0.3836666666666485" height="0.3836666666666485" fill="#252525" />
<rect x="1.9483333333332424" y="0.3936666666666485" width="0.3836666666666485" height="0.3836666666666485" fill="#252525" />
<rect x="2.336999999999891" y="0.3936666666666485" width="0.3836666666666485" height="0.3836666666666485" fill="#252525" />
<rect x="2.7256666666665392" y="0.3936666666666485" width="0.3836666666666485" height="0.3836666666666485" fill="#252525" />
<rect x="3.114333333333188" y="0.3936666666666485" width="0.3836666666666485" height="0.3836666666666485" fill="#252525" />
<rect x="0.005" y="0.782333333333297" width="0.3836666666666485" height="0.3836666666666485" fill="#FF4136" />
<rect x="0.3936666666666485" y="0.782333333333297" width="0.3836666666666485" height="0.3836666666666485" fill="#252525" />
<rect x="0.782333333333297" y="0.782333333333297" width="0.3836666666666485" height="0.3836666666666485" fill="#0074D9" />
<rect x="1.1709999999999454" y="0.782333333333297" width="0.3836666666666485" height="0.3836666666666485" fill="#FF4136" />
<rect x="1.559666666666594" y="0.782333333333297" width="0.3836666666666485" height="0.3836666666666485" fill="#252525" />
<rect x="1.9483333333332424" y="0.782333333333297" width="0.3836666666666485" height="0.3836666666666485" fill="#FF4136" />
<rect x="2.336999999999891" y="0.782333333333297" width="0.3836666666666485" height="0.3836666666666485" fill="#252525" />
<rect x="2.7256666666665392" y="0.782333333333297" width="0.3836666666666485" height="0.3836666666666485" fill="#0074D9" />
<rect x="3.114333333333188" y="0.782333333333297" width="0.3836666666666485" height="0.3836666666666485" fill="#0074D9" />
<rect x="0.005" y="1.1709999999999454" width="0.3836666666666485" height="0.3836666666666485" fill="#252525" />
<rect x="0.3936666666666485" y="1.1709999999999454" width="0.3836666666666485" height="0.3836666666666485" fill="#0074D9" />
<rect x="0.782333333333297" y="1.1709999999999454" width="0.3836666666666485" height="0.3836666666666485" fill="#252525" />
<rect x="1.1709999999999454" y="1.1709999999999454" width="0.3836666666666485" height="0.3836666666666485" fill="#252525" />
<rect x="1.559666666666594" y="1.1709999999999454" width="0.3836666666666485" height="0.3836666666666485" fill="#FF4136" />
<rect x="1.9483333333332424" y="1.1709999999999454" width="0.3836666666666485" height="0.3836666666666485" fill="#252525" />
<rect x="2.336999999999891" y="1.1709999999999454" width="0.3836666666666485" height="0.3836666666666485" fill="#252525" />
<rect x="2.7256666666665392" y="1.1709999999999454" width="0.3836666666666485" height="0.3836666666666485" fill="#252525" />
<rect x="3.114333333333188" y="1.1709999999999454" width="0.3836666666666485" height="0.3836666666666485" fill="#FF4136" />
<rect x="0.005" y="1.559666666666594" width="0.3836666666666485" height="0.3836666666666485" fill="#252525" />
<rect x="0.3936666666666485" y="1.559666666666594" width="0.3836666666666485" height="0.3836666666666485" fill="#252525" />
<rect x="0.782333333333297" y="1.559666666666594" width="0.3836666666666485" height="0.3836666666666485" fill="#252525" />
<rect x="1.1709999999999454" y="1.559666666666594" width="0.3836666666666485" height="0.3836666666666485" fill="#252525" />
<rect x="1.559666666666594" y="1.559666666666594" width="0.3836666666666485" height="0.3836666666666485" fill="#252525" />
<rect x="1.9483333333332424" y="1.559666666666594" width="0.3836666666666485" height="0.3836666666666485" fill="#252525" />
<rect x="2.336999999999891" y="1.559666666666594" width="0.3836666666666485" height="0.3836666666666485" fill="#0074D9" />
<rect x="2.7256666666665392" y="1.559666666666594" width="0.3836666666666485" height="0.3836666666666485" fill="#252525" />
<rect x="3.114333333333188" y="1.559666666666594" width="0.3836666666666485" height="0.3836666666666485" fill="#252525" />
<rect x="0.005" y="1.9483333333332424" width="0.3836666666666485" height="0.3836666666666485" fill="#252525" />
<rect x="0.3936666666666485" y="1.9483333333332424" width="0.3836666666666485" height="0.3836666666666485" fill="#252525" />
<rect x="0.782333333333297" y="1.9483333333332424" width="0.3836666666666485" height="0.3836666666666485" fill="#252525" />
<rect x="1.1709999999999454" y="1.9483333333332424" width="0.3836666666666485" height="0.3836666666666485" fill="#252525" />
<rect x="1.559666666666594" y="1.9483333333332424" width="0.3836666666666485" height="0.3836666666666485" fill="#252525" />
<rect x="1.9483333333332424" y="1.9483333333332424" width="0.3836666666666485" height="0.3836666666666485" fill="#252525" />
<rect x="2.336999999999891" y="1.9483333333332424" width="0.3836666666666485" height="0.3836666666666485" fill="#252525" />
<rect x="2.7256666666665392" y="1.9483333333332424" width="0.3836666666666485" height="0.3836666666666485" fill="#252525" />
<rect x="3.114333333333188" y="1.9483333333332424" width="0.3836666666666485" height="0.3836666666666485" fill="#252525" />
<rect x="0.005" y="2.336999999999891" width="0.3836666666666485" height="0.3836666666666485" fill="#252525" />
<rect x="0.3936666666666485" y="2.336999999999891" width="0.3836666666666485" height="0.3836666666666485" fill="#FF4136" />
<rect x="0.782333333333297" y="2.336999999999891" width="0.3836666666666485" height="0.3836666666666485" fill="#FF4136" />
<rect x="1.1709999999999454" y="2.336999999999891" width="0.3836666666666485" height="0.3836666666666485" fill="#FF4136" />
<rect x="1.559666666666594" y="2.336999999999891" width="0.3836666666666485" height="0.3836666666666485" fill="#252525" />
<rect x="1.9483333333332424" y="2.336999999999891" width="0.3836666666666485" height="0.3836666666666485" fill="#252525" />
<rect x="2.336999999999891" y="2.336999999999891" width="0.3836666666666485" height="0.3836666666666485" fill="#252525" />
<rect x="2.7256666666665392" y="2.336999999999891" width="0.3836666666666485" height="0.3836666666666485" fill="#252525" />
<rect x="3.114333333333188" y="2.336999999999891" width="0.3836666666666485" height="0.3836666666666485" fill="#252525" />
<rect x="0.005" y="2.7256666666665392" width="0.3836666666666485" height="0.3836666666666485" fill="#0074D9" />
<rect x="0.3936666666666485" y="2.7256666666665392" width="0.3836666666666485" height="0.3836666666666485" fill="#FF4136" />
<rect x="0.782333333333297" y="2.7256666666665392" width="0.3836666666666485" height="0.3836666666666485" fill="#0074D9" />
<rect x="1.1709999999999454" y="2.7256666666665392" width="0.3836666666666485" height="0.3836666666666485" fill="#FF4136" />
<rect x="1.559666666666594" y="2.7256666666665392" width="0.3836666666666485" height="0.3836666666666485" fill="#252525" />
<rect x="1.9483333333332424" y="2.7256666666665392" width="0.3836666666666485" height="0.3836666666666485" fill="#252525" />
<rect x="2.336999999999891" y="2.7256666666665392" width="0.3836666666666485" height="0.3836666666666485" fill="#252525" />
<rect x="2.7256666666665392" y="2.7256666666665392" width="0.3836666666666485" height="0.3836666666666485" fill="#FF4136" />
<rect x="3.114333333333188" y="2.7256666666665392" width="0.3836666666666485" height="0.3836666666666485" fill="#252525" />
<rect x="0.005" y="3.114333333333188" width="0.3836666666666485" height="0.3836666666666485" fill="#252525" />
<rect x="0.3936666666666485" y="3.114333333333188" width="0.3836666666666485" height="0.3836666666666485" fill="#FF4136" />
<rect x="0.782333333333297" y="3.114333333333188" width="0.3836666666666485" height="0.3836666666666485" fill="#FF4136" />
<rect x="1.1709999999999454" y="3.114333333333188" width="0.3836666666666485" height="0.3836666666666485" fill="#FF4136" />
<rect x="1.559666666666594" y="3.114333333333188" width="0.3836666666666485" height="0.3836666666666485" fill="#252525" />
<rect x="1.9483333333332424" y="3.114333333333188" width="0.3836666666666485" height="0.3836666666666485" fill="#252525" />
<rect x="2.336999999999891" y="3.114333333333188" width="0.3836666666666485" height="0.3836666666666485" fill="#252525" />
<rect x="2.7256666666665392" y="3.114333333333188" width="0.3836666666666485" height="0.3836666666666485" fill="#252525" />
<rect x="3.114333333333188" y="3.114333333333188" width="0.3836666666666485" height="0.3836666666666485" fill="#FF4136" />
<rect x="0.005" y="3.5029999999998367" width="0.3836666666666485" height="0.3836666666666485" fill="#252525" />
<rect x="0.3936666666666485" y="3.5029999999998367" width="0.3836666666666485" height="0.3836666666666485" fill="#252525" />
<rect x="0.782333333333297" y="3.5029999999998367" width="0.3836666666666485" height="0.3836666666666485" fill="#0074D9" />
<rect x="1.1709999999999454" y="3.5029999999998367" width="0.3836666666666485" height="0.3836666666666485" fill="#252525" />
<rect x="1.559666666666594" y="3.5029999999998367" width="0.3836666666666485" height="0.3836666666666485" fill="#252525" />
<rect x="1.9483333333332424" y="3.5029999999998367" width="0.3836666666666485" height="0.3836666666666485" fill="#252525" />
<rect x="2.336999999999891" y="3.5029999999998367" width="0.3836666666666485" height="0.3836666666666485" fill="#252525" />
<rect x="2.7256666666665392" y="3.5029999999998367" width="0.3836666666666485" height="0.3836666666666485" fill="#252525" />
<rect x="3.114333333333188" y="3.5029999999998367" width="0.3836666666666485" height="0.3836666666666485" fill="#252525" />
<rect x="0.005" y="3.891666666666485" width="0.3836666666666485" height="0.3836666666666485" fill="#252525" />
<rect x="0.3936666666666485" y="3.891666666666485" width="0.3836666666666485" height="0.3836666666666485" fill="#252525" />
<rect x="0.782333333333297" y="3.891666666666485" width="0.3836666666666485" height="0.3836666666666485" fill="#252525" />
<rect x="1.1709999999999454" y="3.891666666666485" width="0.3836666666666485" height="0.3836666666666485" fill="#FF4136" />
<rect x="1.559666666666594" y="3.891666666666485" width="0.3836666666666485" height="0.3836666666666485" fill="#252525" />
<rect x="1.9483333333332424" y="3.891666666666485" width="0.3836666666666485" height="0.3836666666666485" fill="#252525" />
<rect x="2.336999999999891" y="3.891666666666485" width="0.3836666666666485" height="0.3836666666666485" fill="#252525" />
<rect x="2.7256666666665392" y="3.891666666666485" width="0.3836666666666485" height="0.3836666666666485" fill="#252525" />
<rect x="3.114333333333188" y="3.891666666666485" width="0.3836666666666485" height="0.3836666666666485" fill="#252525" />
<rect x="-0.02666666666666667" y="-0.02666666666666667" width="3.55133333333317" height="4.328666666666467" fill="none" stroke="#111111ff" stroke-width="0.08" />
<text x="3.497999999999837" y="4.744083333333133" font-size="0.375" fill="black" text-anchor="end" font-family="Anuphan">9x11</text>
<text x="-0.037500000000000006" y="4.744083333333133" font-size="0.375" fill="black" text-anchor="start" font-family="Anuphan" font-weight="600">Input 3</text>
</g>
<g id="d3">
<rect x="0.005" y="0.005" width="0.2864999999999864" height="0.2864999999999864" fill="#252525" />
<rect x="0.2964999999999864" y="0.005" width="0.2864999999999864" height="0.2864999999999864" fill="#54D2EB" />
<rect x="0.5879999999999728" y="0.005" width="0.2864999999999864" height="0.2864999999999864" fill="#252525" />
<rect x="0.8794999999999592" y="0.005" width="0.2864999999999864" height="0.2864999999999864" fill="#252525" />
<rect x="1.1709999999999454" y="0.005" width="0.2864999999999864" height="0.2864999999999864" fill="#252525" />
<rect x="1.4624999999999317" y="0.005" width="0.2864999999999864" height="0.2864999999999864" fill="#252525" />
<rect x="1.7539999999999183" y="0.005" width="0.2864999999999864" height="0.2864999999999864" fill="#252525" />
<rect x="2.0454999999999046" y="0.005" width="0.2864999999999864" height="0.2864999999999864" fill="#252525" />
<rect x="2.336999999999891" y="0.005" width="0.2864999999999864" height="0.2864999999999864" fill="#252525" />
<rect x="2.6284999999998773" y="0.005" width="0.2864999999999864" height="0.2864999999999864" fill="#252525" />
<rect x="2.9199999999998636" y="0.005" width="0.2864999999999864" height="0.2864999999999864" fill="#37D449" />
<rect x="3.21149999999985" y="0.005" width="0.2864999999999864" height="0.2864999999999864" fill="#54D2EB" />
<rect x="0.005" y="0.2964999999999864" width="0.2864999999999864" height="0.2864999999999864" fill="#37D449" />
<rect x="0.2964999999999864" y="0.2964999999999864" width="0.2864999999999864" height="0.2864999999999864" fill="#252525" />
<rect x="0.5879999999999728" y="0.2964999999999864" width="0.2864999999999864" height="0.2864999999999864" fill="#252525" />
<rect x="0.8794999999999592" y="0.2964999999999864" width="0.2864999999999864" height="0.2864999999999864" fill="#252525" />
<rect x="1.1709999999999454" y="0.2964999999999864" width="0.2864999999999864" height="0.2864999999999864" fill="#252525" />
<rect x="1.4624999999999317" y="0.2964999999999864" width="0.2864999999999864" height="0.2864999999999864" fill="#252525" />
<rect x="1.7539999999999183" y="0.2964999999999864" width="0.2864999999999864" height="0.2864999999999864" fill="#252525" />
<rect x="2.0454999999999046" y="0.2964999999999864" width="0.2864999999999864" height="0.2864999999999864" fill="#54D2EB" />
<rect x="2.336999999999891" y="0.2964999999999864" width="0.2864999999999864" height="0.2864999999999864" fill="#252525" />
<rect x="2.6284999999998773" y="0.2964999999999864" width="0.2864999999999864" height="0.2864999999999864" fill="#37D449" />
<rect x="2.9199999999998636" y="0.2964999999999864" width="0.2864999999999864" height="0.2864999999999864" fill="#252525" />
<rect x="3.21149999999985" y="0.2964999999999864" width="0.2864999999999864" height="0.2864999999999864" fill="#252525" />
<rect x="0.005" y="0.5879999999999728" width="0.2864999999999864" height="0.2864999999999864" fill="#252525" />
<rect x="0.2964999999999864" y="0.5879999999999728" width="0.2864999999999864" height="0.2864999999999864" fill="#37D449" />
<rect x="0.5879999999999728" y="0.5879999999999728" width="0.2864999999999864" height="0.2864999999999864" fill="#37D449" />
<rect x="0.8794999999999592" y="0.5879999999999728" width="0.2864999999999864" height="0.2864999999999864" fill="#54D2EB" />
<rect x="1.1709999999999454" y="0.5879999999999728" width="0.2864999999999864" height="0.2864999999999864" fill="#252525" />
<rect x="1.4624999999999317" y="0.5879999999999728" width="0.2864999999999864" height="0.2864999999999864" fill="#252525" />
<rect x="1.7539999999999183" y="0.5879999999999728" width="0.2864999999999864" height="0.2864999999999864" fill="#252525" />
<rect x="2.0454999999999046" y="0.5879999999999728" width="0.2864999999999864" height="0.2864999999999864" fill="#252525" />
<rect x="2.336999999999891" y="0.5879999999999728" width="0.2864999999999864" height="0.2864999999999864" fill="#252525" />
<rect x="2.6284999999998773" y="0.5879999999999728" width="0.2864999999999864" height="0.2864999999999864" fill="#252525" />
<rect x="2.9199999999998636" y="0.5879999999999728" width="0.2864999999999864" height="0.2864999999999864" fill="#252525" />
<rect x="3.21149999999985" y="0.5879999999999728" width="0.2864999999999864" height="0.2864999999999864" fill="#54D2EB" />
<rect x="0.005" y="0.8794999999999592" width="0.2864999999999864" height="0.2864999999999864" fill="#252525" />
<rect x="0.2964999999999864" y="0.8794999999999592" width="0.2864999999999864" height="0.2864999999999864" fill="#252525" />
<rect x="0.5879999999999728" y="0.8794999999999592" width="0.2864999999999864" height="0.2864999999999864" fill="#252525" />
<rect x="0.8794999999999592" y="0.8794999999999592" width="0.2864999999999864" height="0.2864999999999864" fill="#37D449" />
<rect x="1.1709999999999454" y="0.8794999999999592" width="0.2864999999999864" height="0.2864999999999864" fill="#54D2EB" />
<rect x="1.4624999999999317" y="0.8794999999999592" width="0.2864999999999864" height="0.2864999999999864" fill="#252525" />
<rect x="1.7539999999999183" y="0.8794999999999592" width="0.2864999999999864" height="0.2864999999999864" fill="#252525" />
<rect x="2.0454999999999046" y="0.8794999999999592" width="0.2864999999999864" height="0.2864999999999864" fill="#252525" />
<rect x="2.336999999999891" y="0.8794999999999592" width="0.2864999999999864" height="0.2864999999999864" fill="#252525" />
<rect x="2.6284999999998773" y="0.8794999999999592" width="0.2864999999999864" height="0.2864999999999864" fill="#252525" />
<rect x="2.9199999999998636" y="0.8794999999999592" width="0.2864999999999864" height="0.2864999999999864" fill="#252525" />
<rect x="3.21149999999985" y="0.8794999999999592" width="0.2864999999999864" height="0.2864999999999864" fill="#252525" />
<rect x="0.005" y="1.1709999999999454" width="0.2864999999999864" height="0.2864999999999864" fill="#37D449" />
<rect x="0.2964999999999864" y="1.1709999999999454" width="0.2864999999999864" height="0.2864999999999864" fill="#252525" />
<rect x="0.5879999999999728" y="1.1709999999999454" width="0.2864999999999864" height="0.2864999999999864" fill="#252525" />
<rect x="0.8794999999999592" y="1.1709999999999454" width="0.2864999999999864" height="0.2864999999999864" fill="#252525" />
<rect x="1.1709999999999454" y="1.1709999999999454" width="0.2864999999999864" height="0.2864999999999864" fill="#252525" />
<rect x="1.4624999999999317" y="1.1709999999999454" width="0.2864999999999864" height="0.2864999999999864" fill="#252525" />
<rect x="1.7539999999999183" y="1.1709999999999454" width="0.2864999999999864" height="0.2864999999999864" fill="#252525" />
<rect x="2.0454999999999046" y="1.1709999999999454" width="0.2864999999999864" height="0.2864999999999864" fill="#252525" />
<rect x="2.336999999999891" y="1.1709999999999454" width="0.2864999999999864" height="0.2864999999999864" fill="#252525" />
<rect x="2.6284999999998773" y="1.1709999999999454" width="0.2864999999999864" height="0.2864999999999864" fill="#252525" />
<rect x="2.9199999999998636" y="1.1709999999999454" width="0.2864999999999864" height="0.2864999999999864" fill="#54D2EB" />
<rect x="3.21149999999985" y="1.1709999999999454" width="0.2864999999999864" height="0.2864999999999864" fill="#252525" />
<rect x="0.005" y="1.4624999999999317" width="0.2864999999999864" height="0.2864999999999864" fill="#252525" />
<rect x="0.2964999999999864" y="1.4624999999999317" width="0.2864999999999864" height="0.2864999999999864" fill="#252525" />
<rect x="0.5879999999999728" y="1.4624999999999317" width="0.2864999999999864" height="0.2864999999999864" fill="#252525" />
<rect x="0.8794999999999592" y="1.4624999999999317" width="0.2864999999999864" height="0.2864999999999864" fill="#37D449" />
<rect x="1.1709999999999454" y="1.4624999999999317" width="0.2864999999999864" height="0.2864999999999864" fill="#54D2EB" />
<rect x="1.4624999999999317" y="1.4624999999999317" width="0.2864999999999864" height="0.2864999999999864" fill="#252525" />
<rect x="1.7539999999999183" y="1.4624999999999317" width="0.2864999999999864" height="0.2864999999999864" fill="#252525" />
<rect x="2.0454999999999046" y="1.4624999999999317" width="0.2864999999999864" height="0.2864999999999864" fill="#252525" />
<rect x="2.336999999999891" y="1.4624999999999317" width="0.2864999999999864" height="0.2864999999999864" fill="#252525" />
<rect x="2.6284999999998773" y="1.4624999999999317" width="0.2864999999999864" height="0.2864999999999864" fill="#252525" />
<rect x="2.9199999999998636" y="1.4624999999999317" width="0.2864999999999864" height="0.2864999999999864" fill="#252525" />
<rect x="3.21149999999985" y="1.4624999999999317" width="0.2864999999999864" height="0.2864999999999864" fill="#252525" />
<rect x="0.005" y="1.7539999999999183" width="0.2864999999999864" height="0.2864999999999864" fill="#252525" />
<rect x="0.2964999999999864" y="1.7539999999999183" width="0.2864999999999864" height="0.2864999999999864" fill="#37D449" />
<rect x="0.5879999999999728" y="1.7539999999999183" width="0.2864999999999864" height="0.2864999999999864" fill="#252525" />
<rect x="0.8794999999999592" y="1.7539999999999183" width="0.2864999999999864" height="0.2864999999999864" fill="#252525" />
<rect x="1.1709999999999454" y="1.7539999999999183" width="0.2864999999999864" height="0.2864999999999864" fill="#252525" />
<rect x="1.4624999999999317" y="1.7539999999999183" width="0.2864999999999864" height="0.2864999999999864" fill="#252525" />
<rect x="1.7539999999999183" y="1.7539999999999183" width="0.2864999999999864" height="0.2864999999999864" fill="#252525" />
<rect x="2.0454999999999046" y="1.7539999999999183" width="0.2864999999999864" height="0.2864999999999864" fill="#252525" />
<rect x="2.336999999999891" y="1.7539999999999183" width="0.2864999999999864" height="0.2864999999999864" fill="#252525" />
<rect x="2.6284999999998773" y="1.7539999999999183" width="0.2864999999999864" height="0.2864999999999864" fill="#252525" />
<rect x="2.9199999999998636" y="1.7539999999999183" width="0.2864999999999864" height="0.2864999999999864" fill="#252525" />
<rect x="3.21149999999985" y="1.7539999999999183" width="0.2864999999999864" height="0.2864999999999864" fill="#252525" />
<rect x="0.005" y="2.0454999999999046" width="0.2864999999999864" height="0.2864999999999864" fill="#252525" />
<rect x="0.2964999999999864" y="2.0454999999999046" width="0.2864999999999864" height="0.2864999999999864" fill="#252525" />
<rect x="0.5879999999999728" y="2.0454999999999046" width="0.2864999999999864" height="0.2864999999999864" fill="#252525" />
<rect x="0.8794999999999592" y="2.0454999999999046" width="0.2864999999999864" height="0.2864999999999864" fill="#37D449" />
<rect x="1.1709999999999454" y="2.0454999999999046" width="0.2864999999999864" height="0.2864999999999864" fill="#37D449" />
<rect x="1.4624999999999317" y="2.0454999999999046" width="0.2864999999999864" height="0.2864999999999864" fill="#37D449" />
<rect x="1.7539999999999183" y="2.0454999999999046" width="0.2864999999999864" height="0.2864999999999864" fill="#252525" />
<rect x="2.0454999999999046" y="2.0454999999999046" width="0.2864999999999864" height="0.2864999999999864" fill="#252525" />
<rect x="2.336999999999891" y="2.0454999999999046" width="0.2864999999999864" height="0.2864999999999864" fill="#54D2EB" />
<rect x="2.6284999999998773" y="2.0454999999999046" width="0.2864999999999864" height="0.2864999999999864" fill="#252525" />
<rect x="2.9199999999998636" y="2.0454999999999046" width="0.2864999999999864" height="0.2864999999999864" fill="#37D449" />
<rect x="3.21149999999985" y="2.0454999999999046" width="0.2864999999999864" height="0.2864999999999864" fill="#252525" />
<rect x="0.005" y="2.336999999999891" width="0.2864999999999864" height="0.2864999999999864" fill="#252525" />
<rect x="0.2964999999999864" y="2.336999999999891" width="0.2864999999999864" height="0.2864999999999864" fill="#252525" />
<rect x="0.5879999999999728" y="2.336999999999891" width="0.2864999999999864" height="0.2864999999999864" fill="#37D449" />
<rect x="0.8794999999999592" y="2.336999999999891" width="0.2864999999999864" height="0.2864999999999864" fill="#37D449" />
<rect x="1.1709999999999454" y="2.336999999999891" width="0.2864999999999864" height="0.2864999999999864" fill="#54D2EB" />
<rect x="1.4624999999999317" y="2.336999999999891" width="0.2864999999999864" height="0.2864999999999864" fill="#37D449" />
<rect x="1.7539999999999183" y="2.336999999999891" width="0.2864999999999864" height="0.2864999999999864" fill="#252525" />
<rect x="2.0454999999999046" y="2.336999999999891" width="0.2864999999999864" height="0.2864999999999864" fill="#252525" />
<rect x="2.336999999999891" y="2.336999999999891" width="0.2864999999999864" height="0.2864999999999864" fill="#252525" />
<rect x="2.6284999999998773" y="2.336999999999891" width="0.2864999999999864" height="0.2864999999999864" fill="#252525" />
<rect x="2.9199999999998636" y="2.336999999999891" width="0.2864999999999864" height="0.2864999999999864" fill="#252525" />
<rect x="3.21149999999985" y="2.336999999999891" width="0.2864999999999864" height="0.2864999999999864" fill="#252525" />
<rect x="0.005" y="2.6284999999998773" width="0.2864999999999864" height="0.2864999999999864" fill="#252525" />
<rect x="0.2964999999999864" y="2.6284999999998773" width="0.2864999999999864" height="0.2864999999999864" fill="#252525" />
<rect x="0.5879999999999728" y="2.6284999999998773" width="0.2864999999999864" height="0.2864999999999864" fill="#252525" />
<rect x="0.8794999999999592" y="2.6284999999998773" width="0.2864999999999864" height="0.2864999999999864" fill="#37D449" />
<rect x="1.1709999999999454" y="2.6284999999998773" width="0.2864999999999864" height="0.2864999999999864" fill="#37D449" />
<rect x="1.4624999999999317" y="2.6284999999998773" width="0.2864999999999864" height="0.2864999999999864" fill="#37D449" />
<rect x="1.7539999999999183" y="2.6284999999998773" width="0.2864999999999864" height="0.2864999999999864" fill="#252525" />
<rect x="2.0454999999999046" y="2.6284999999998773" width="0.2864999999999864" height="0.2864999999999864" fill="#252525" />
<rect x="2.336999999999891" y="2.6284999999998773" width="0.2864999999999864" height="0.2864999999999864" fill="#252525" />
<rect x="2.6284999999998773" y="2.6284999999998773" width="0.2864999999999864" height="0.2864999999999864" fill="#252525" />
<rect x="2.9199999999998636" y="2.6284999999998773" width="0.2864999999999864" height="0.2864999999999864" fill="#252525" />
<rect x="3.21149999999985" y="2.6284999999998773" width="0.2864999999999864" height="0.2864999999999864" fill="#252525" />
<rect x="0.005" y="2.9199999999998636" width="0.2864999999999864" height="0.2864999999999864" fill="#252525" />
<rect x="0.2964999999999864" y="2.9199999999998636" width="0.2864999999999864" height="0.2864999999999864" fill="#252525" />
<rect x="0.5879999999999728" y="2.9199999999998636" width="0.2864999999999864" height="0.2864999999999864" fill="#37D449" />
<rect x="0.8794999999999592" y="2.9199999999998636" width="0.2864999999999864" height="0.2864999999999864" fill="#252525" />
<rect x="1.1709999999999454" y="2.9199999999998636" width="0.2864999999999864" height="0.2864999999999864" fill="#252525" />
<rect x="1.4624999999999317" y="2.9199999999998636" width="0.2864999999999864" height="0.2864999999999864" fill="#252525" />
<rect x="1.7539999999999183" y="2.9199999999998636" width="0.2864999999999864" height="0.2864999999999864" fill="#252525" />
<rect x="2.0454999999999046" y="2.9199999999998636" width="0.2864999999999864" height="0.2864999999999864" fill="#252525" />
<rect x="2.336999999999891" y="2.9199999999998636" width="0.2864999999999864" height="0.2864999999999864" fill="#252525" />
<rect x="2.6284999999998773" y="2.9199999999998636" width="0.2864999999999864" height="0.2864999999999864" fill="#252525" />
<rect x="2.9199999999998636" y="2.9199999999998636" width="0.2864999999999864" height="0.2864999999999864" fill="#252525" />
<rect x="3.21149999999985" y="2.9199999999998636" width="0.2864999999999864" height="0.2864999999999864" fill="#252525" />
<rect x="-0.02666666666666667" y="-0.02666666666666667" width="3.55133333333317" height="3.2598333333331833" fill="none" stroke="#111111ff" stroke-width="0.08" />
<text x="3.497999999999837" y="3.67524999999985" font-size="0.375" fill="black" text-anchor="end" font-family="Anuphan">12x11</text>
<text x="-0.037500000000000006" y="3.67524999999985" font-size="0.375" fill="black" text-anchor="start" font-family="Anuphan" font-weight="600">Input 4</text>
</g>
<g id="d4">
<rect x="0.005" y="0.005" width="0.2864999999999864" height="0.2864999999999864" fill="#252525" />
<rect x="0.2964999999999864" y="0.005" width="0.2864999999999864" height="0.2864999999999864" fill="#252525" />
<rect x="0.5879999999999728" y="0.005" width="0.2864999999999864" height="0.2864999999999864" fill="#252525" />
<rect x="0.8794999999999592" y="0.005" width="0.2864999999999864" height="0.2864999999999864" fill="#252525" />
<rect x="1.1709999999999454" y="0.005" width="0.2864999999999864" height="0.2864999999999864" fill="#252525" />
<rect x="1.4624999999999317" y="0.005" width="0.2864999999999864" height="0.2864999999999864" fill="#252525" />
<rect x="1.7539999999999183" y="0.005" width="0.2864999999999864" height="0.2864999999999864" fill="#252525" />
<rect x="2.0454999999999046" y="0.005" width="0.2864999999999864" height="0.2864999999999864" fill="#252525" />
<rect x="2.336999999999891" y="0.005" width="0.2864999999999864" height="0.2864999999999864" fill="#252525" />
<rect x="2.6284999999998773" y="0.005" width="0.2864999999999864" height="0.2864999999999864" fill="#0074D9" />
<rect x="2.9199999999998636" y="0.005" width="0.2864999999999864" height="0.2864999999999864" fill="#252525" />
<rect x="3.21149999999985" y="0.005" width="0.2864999999999864" height="0.2864999999999864" fill="#252525" />
<rect x="0.005" y="0.2964999999999864" width="0.2864999999999864" height="0.2864999999999864" fill="#0074D9" />
<rect x="0.2964999999999864" y="0.2964999999999864" width="0.2864999999999864" height="0.2864999999999864" fill="#252525" />
<rect x="0.5879999999999728" y="0.2964999999999864" width="0.2864999999999864" height="0.2864999999999864" fill="#252525" />
<rect x="0.8794999999999592" y="0.2964999999999864" width="0.2864999999999864" height="0.2864999999999864" fill="#252525" />
<rect x="1.1709999999999454" y="0.2964999999999864" width="0.2864999999999864" height="0.2864999999999864" fill="#252525" />
<rect x="1.4624999999999317" y="0.2964999999999864" width="0.2864999999999864" height="0.2864999999999864" fill="#252525" />
<rect x="1.7539999999999183" y="0.2964999999999864" width="0.2864999999999864" height="0.2864999999999864" fill="#FFDC00" />
<rect x="2.0454999999999046" y="0.2964999999999864" width="0.2864999999999864" height="0.2864999999999864" fill="#252525" />
<rect x="2.336999999999891" y="0.2964999999999864" width="0.2864999999999864" height="0.2864999999999864" fill="#252525" />
<rect x="2.6284999999998773" y="0.2964999999999864" width="0.2864999999999864" height="0.2864999999999864" fill="#0074D9" />
<rect x="2.9199999999998636" y="0.2964999999999864" width="0.2864999999999864" height="0.2864999999999864" fill="#252525" />
<rect x="3.21149999999985" y="0.2964999999999864" width="0.2864999999999864" height="0.2864999999999864" fill="#252525" />
<rect x="0.005" y="0.5879999999999728" width="0.2864999999999864" height="0.2864999999999864" fill="#252525" />
<rect x="0.2964999999999864" y="0.5879999999999728" width="0.2864999999999864" height="0.2864999999999864" fill="#252525" />
<rect x="0.5879999999999728" y="0.5879999999999728" width="0.2864999999999864" height="0.2864999999999864" fill="#252525" />
<rect x="0.8794999999999592" y="0.5879999999999728" width="0.2864999999999864" height="0.2864999999999864" fill="#252525" />
<rect x="1.1709999999999454" y="0.5879999999999728" width="0.2864999999999864" height="0.2864999999999864" fill="#252525" />
<rect x="1.4624999999999317" y="0.5879999999999728" width="0.2864999999999864" height="0.2864999999999864" fill="#252525" />
<rect x="1.7539999999999183" y="0.5879999999999728" width="0.2864999999999864" height="0.2864999999999864" fill="#252525" />
<rect x="2.0454999999999046" y="0.5879999999999728" width="0.2864999999999864" height="0.2864999999999864" fill="#252525" />
<rect x="2.336999999999891" y="0.5879999999999728" width="0.2864999999999864" height="0.2864999999999864" fill="#252525" />
<rect x="2.6284999999998773" y="0.5879999999999728" width="0.2864999999999864" height="0.2864999999999864" fill="#252525" />
<rect x="2.9199999999998636" y="0.5879999999999728" width="0.2864999999999864" height="0.2864999999999864" fill="#252525" />
<rect x="3.21149999999985" y="0.5879999999999728" width="0.2864999999999864" height="0.2864999999999864" fill="#252525" />
<rect x="0.005" y="0.8794999999999592" width="0.2864999999999864" height="0.2864999999999864" fill="#252525" />
<rect x="0.2964999999999864" y="0.8794999999999592" width="0.2864999999999864" height="0.2864999999999864" fill="#252525" />
<rect x="0.5879999999999728" y="0.8794999999999592" width="0.2864999999999864" height="0.2864999999999864" fill="#252525" />
<rect x="0.8794999999999592" y="0.8794999999999592" width="0.2864999999999864" height="0.2864999999999864" fill="#252525" />
<rect x="1.1709999999999454" y="0.8794999999999592" width="0.2864999999999864" height="0.2864999999999864" fill="#0074D9" />
<rect x="1.4624999999999317" y="0.8794999999999592" width="0.2864999999999864" height="0.2864999999999864" fill="#FFDC00" />
<rect x="1.7539999999999183" y="0.8794999999999592" width="0.2864999999999864" height="0.2864999999999864" fill="#252525" />
<rect x="2.0454999999999046" y="0.8794999999999592" width="0.2864999999999864" height="0.2864999999999864" fill="#252525" />
<rect x="2.336999999999891" y="0.8794999999999592" width="0.2864999999999864" height="0.2864999999999864" fill="#FFDC00" />
<rect x="2.6284999999998773" y="0.8794999999999592" width="0.2864999999999864" height="0.2864999999999864" fill="#252525" />
<rect x="2.9199999999998636" y="0.8794999999999592" width="0.2864999999999864" height="0.2864999999999864" fill="#252525" />
<rect x="3.21149999999985" y="0.8794999999999592" width="0.2864999999999864" height="0.2864999999999864" fill="#252525" />
<rect x="0.005" y="1.1709999999999454" width="0.2864999999999864" height="0.2864999999999864" fill="#252525" />
<rect x="0.2964999999999864" y="1.1709999999999454" width="0.2864999999999864" height="0.2864999999999864" fill="#FFDC00" />
<rect x="0.5879999999999728" y="1.1709999999999454" width="0.2864999999999864" height="0.2864999999999864" fill="#252525" />
<rect x="0.8794999999999592" y="1.1709999999999454" width="0.2864999999999864" height="0.2864999999999864" fill="#0074D9" />
<rect x="1.1709999999999454" y="1.1709999999999454" width="0.2864999999999864" height="0.2864999999999864" fill="#252525" />
<rect x="1.4624999999999317" y="1.1709999999999454" width="0.2864999999999864" height="0.2864999999999864" fill="#252525" />
<rect x="1.7539999999999183" y="1.1709999999999454" width="0.2864999999999864" height="0.2864999999999864" fill="#252525" />
<rect x="2.0454999999999046" y="1.1709999999999454" width="0.2864999999999864" height="0.2864999999999864" fill="#252525" />
<rect x="2.336999999999891" y="1.1709999999999454" width="0.2864999999999864" height="0.2864999999999864" fill="#252525" />
<rect x="2.6284999999998773" y="1.1709999999999454" width="0.2864999999999864" height="0.2864999999999864" fill="#252525" />
<rect x="2.9199999999998636" y="1.1709999999999454" width="0.2864999999999864" height="0.2864999999999864" fill="#252525" />
<rect x="3.21149999999985" y="1.1709999999999454" width="0.2864999999999864" height="0.2864999999999864" fill="#252525" />
<rect x="0.005" y="1.4624999999999317" width="0.2864999999999864" height="0.2864999999999864" fill="#252525" />
<rect x="0.2964999999999864" y="1.4624999999999317" width="0.2864999999999864" height="0.2864999999999864" fill="#252525" />
<rect x="0.5879999999999728" y="1.4624999999999317" width="0.2864999999999864" height="0.2864999999999864" fill="#252525" />
<rect x="0.8794999999999592" y="1.4624999999999317" width="0.2864999999999864" height="0.2864999999999864" fill="#252525" />
<rect x="1.1709999999999454" y="1.4624999999999317" width="0.2864999999999864" height="0.2864999999999864" fill="#252525" />
<rect x="1.4624999999999317" y="1.4624999999999317" width="0.2864999999999864" height="0.2864999999999864" fill="#0074D9" />
<rect x="1.7539999999999183" y="1.4624999999999317" width="0.2864999999999864" height="0.2864999999999864" fill="#252525" />
<rect x="2.0454999999999046" y="1.4624999999999317" width="0.2864999999999864" height="0.2864999999999864" fill="#FFDC00" />
<rect x="2.336999999999891" y="1.4624999999999317" width="0.2864999999999864" height="0.2864999999999864" fill="#FFDC00" />
<rect x="2.6284999999998773" y="1.4624999999999317" width="0.2864999999999864" height="0.2864999999999864" fill="#252525" />
<rect x="2.9199999999998636" y="1.4624999999999317" width="0.2864999999999864" height="0.2864999999999864" fill="#252525" />
<rect x="3.21149999999985" y="1.4624999999999317" width="0.2864999999999864" height="0.2864999999999864" fill="#0074D9" />
<rect x="0.005" y="1.7539999999999183" width="0.2864999999999864" height="0.2864999999999864" fill="#0074D9" />
<rect x="0.2964999999999864" y="1.7539999999999183" width="0.2864999999999864" height="0.2864999999999864" fill="#252525" />
<rect x="0.5879999999999728" y="1.7539999999999183" width="0.2864999999999864" height="0.2864999999999864" fill="#252525" />
<rect x="0.8794999999999592" y="1.7539999999999183" width="0.2864999999999864" height="0.2864999999999864" fill="#252525" />
<rect x="1.1709999999999454" y="1.7539999999999183" width="0.2864999999999864" height="0.2864999999999864" fill="#252525" />
<rect x="1.4624999999999317" y="1.7539999999999183" width="0.2864999999999864" height="0.2864999999999864" fill="#252525" />
<rect x="1.7539999999999183" y="1.7539999999999183" width="0.2864999999999864" height="0.2864999999999864" fill="#252525" />
<rect x="2.0454999999999046" y="1.7539999999999183" width="0.2864999999999864" height="0.2864999999999864" fill="#252525" />
<rect x="2.336999999999891" y="1.7539999999999183" width="0.2864999999999864" height="0.2864999999999864" fill="#252525" />
<rect x="2.6284999999998773" y="1.7539999999999183" width="0.2864999999999864" height="0.2864999999999864" fill="#252525" />
<rect x="2.9199999999998636" y="1.7539999999999183" width="0.2864999999999864" height="0.2864999999999864" fill="#252525" />
<rect x="3.21149999999985" y="1.7539999999999183" width="0.2864999999999864" height="0.2864999999999864" fill="#252525" />
<rect x="0.005" y="2.0454999999999046" width="0.2864999999999864" height="0.2864999999999864" fill="#252525" />
<rect x="0.2964999999999864" y="2.0454999999999046" width="0.2864999999999864" height="0.2864999999999864" fill="#252525" />
<rect x="0.5879999999999728" y="2.0454999999999046" width="0.2864999999999864" height="0.2864999999999864" fill="#252525" />
<rect x="0.8794999999999592" y="2.0454999999999046" width="0.2864999999999864" height="0.2864999999999864" fill="#0074D9" />
<rect x="1.1709999999999454" y="2.0454999999999046" width="0.2864999999999864" height="0.2864999999999864" fill="#252525" />
<rect x="1.4624999999999317" y="2.0454999999999046" width="0.2864999999999864" height="0.2864999999999864" fill="#252525" />
<rect x="1.7539999999999183" y="2.0454999999999046" width="0.2864999999999864" height="0.2864999999999864" fill="#252525" />
<rect x="2.0454999999999046" y="2.0454999999999046" width="0.2864999999999864" height="0.2864999999999864" fill="#252525" />
<rect x="2.336999999999891" y="2.0454999999999046" width="0.2864999999999864" height="0.2864999999999864" fill="#FFDC00" />
<rect x="2.6284999999998773" y="2.0454999999999046" width="0.2864999999999864" height="0.2864999999999864" fill="#252525" />
<rect x="2.9199999999998636" y="2.0454999999999046" width="0.2864999999999864" height="0.2864999999999864" fill="#252525" />
<rect x="3.21149999999985" y="2.0454999999999046" width="0.2864999999999864" height="0.2864999999999864" fill="#252525" />
<rect x="0.005" y="2.336999999999891" width="0.2864999999999864" height="0.2864999999999864" fill="#252525" />
<rect x="0.2964999999999864" y="2.336999999999891" width="0.2864999999999864" height="0.2864999999999864" fill="#252525" />
<rect x="0.5879999999999728" y="2.336999999999891" width="0.2864999999999864" height="0.2864999999999864" fill="#252525" />
<rect x="0.8794999999999592" y="2.336999999999891" width="0.2864999999999864" height="0.2864999999999864" fill="#252525" />
<rect x="1.1709999999999454" y="2.336999999999891" width="0.2864999999999864" height="0.2864999999999864" fill="#0074D9" />
<rect x="1.4624999999999317" y="2.336999999999891" width="0.2864999999999864" height="0.2864999999999864" fill="#0074D9" />
<rect x="1.7539999999999183" y="2.336999999999891" width="0.2864999999999864" height="0.2864999999999864" fill="#0074D9" />
<rect x="2.0454999999999046" y="2.336999999999891" width="0.2864999999999864" height="0.2864999999999864" fill="#252525" />
<rect x="2.336999999999891" y="2.336999999999891" width="0.2864999999999864" height="0.2864999999999864" fill="#252525" />
<rect x="2.6284999999998773" y="2.336999999999891" width="0.2864999999999864" height="0.2864999999999864" fill="#252525" />
<rect x="2.9199999999998636" y="2.336999999999891" width="0.2864999999999864" height="0.2864999999999864" fill="#252525" />
<rect x="3.21149999999985" y="2.336999999999891" width="0.2864999999999864" height="0.2864999999999864" fill="#FFDC00" />
<rect x="0.005" y="2.6284999999998773" width="0.2864999999999864" height="0.2864999999999864" fill="#FFDC00" />
<rect x="0.2964999999999864" y="2.6284999999998773" width="0.2864999999999864" height="0.2864999999999864" fill="#252525" />
<rect x="0.5879999999999728" y="2.6284999999998773" width="0.2864999999999864" height="0.2864999999999864" fill="#252525" />
<rect x="0.8794999999999592" y="2.6284999999998773" width="0.2864999999999864" height="0.2864999999999864" fill="#252525" />
<rect x="1.1709999999999454" y="2.6284999999998773" width="0.2864999999999864" height="0.2864999999999864" fill="#0074D9" />
<rect x="1.4624999999999317" y="2.6284999999998773" width="0.2864999999999864" height="0.2864999999999864" fill="#FFDC00" />
<rect x="1.7539999999999183" y="2.6284999999998773" width="0.2864999999999864" height="0.2864999999999864" fill="#0074D9" />
<rect x="2.0454999999999046" y="2.6284999999998773" width="0.2864999999999864" height="0.2864999999999864" fill="#0074D9" />
<rect x="2.336999999999891" y="2.6284999999998773" width="0.2864999999999864" height="0.2864999999999864" fill="#252525" />
<rect x="2.6284999999998773" y="2.6284999999998773" width="0.2864999999999864" height="0.2864999999999864" fill="#252525" />
<rect x="2.9199999999998636" y="2.6284999999998773" width="0.2864999999999864" height="0.2864999999999864" fill="#252525" />
<rect x="3.21149999999985" y="2.6284999999998773" width="0.2864999999999864" height="0.2864999999999864" fill="#252525" />
<rect x="0.005" y="2.9199999999998636" width="0.2864999999999864" height="0.2864999999999864" fill="#252525" />
<rect x="0.2964999999999864" y="2.9199999999998636" width="0.2864999999999864" height="0.2864999999999864" fill="#252525" />
<rect x="0.5879999999999728" y="2.9199999999998636" width="0.2864999999999864" height="0.2864999999999864" fill="#252525" />
<rect x="0.8794999999999592" y="2.9199999999998636" width="0.2864999999999864" height="0.2864999999999864" fill="#252525" />
<rect x="1.1709999999999454" y="2.9199999999998636" width="0.2864999999999864" height="0.2864999999999864" fill="#0074D9" />
<rect x="1.4624999999999317" y="2.9199999999998636" width="0.2864999999999864" height="0.2864999999999864" fill="#0074D9" />
<rect x="1.7539999999999183" y="2.9199999999998636" width="0.2864999999999864" height="0.2864999999999864" fill="#0074D9" />
<rect x="2.0454999999999046" y="2.9199999999998636" width="0.2864999999999864" height="0.2864999999999864" fill="#252525" />
<rect x="2.336999999999891" y="2.9199999999998636" width="0.2864999999999864" height="0.2864999999999864" fill="#252525" />
<rect x="2.6284999999998773" y="2.9199999999998636" width="0.2864999999999864" height="0.2864999999999864" fill="#252525" />
<rect x="2.9199999999998636" y="2.9199999999998636" width="0.2864999999999864" height="0.2864999999999864" fill="#252525" />
<rect x="3.21149999999985" y="2.9199999999998636" width="0.2864999999999864" height="0.2864999999999864" fill="#FFDC00" />
<rect x="0.005" y="3.21149999999985" width="0.2864999999999864" height="0.2864999999999864" fill="#252525" />
<rect x="0.2964999999999864" y="3.21149999999985" width="0.2864999999999864" height="0.2864999999999864" fill="#252525" />
<rect x="0.5879999999999728" y="3.21149999999985" width="0.2864999999999864" height="0.2864999999999864" fill="#FFDC00" />
<rect x="0.8794999999999592" y="3.21149999999985" width="0.2864999999999864" height="0.2864999999999864" fill="#FFDC00" />
<rect x="1.1709999999999454" y="3.21149999999985" width="0.2864999999999864" height="0.2864999999999864" fill="#252525" />
<rect x="1.4624999999999317" y="3.21149999999985" width="0.2864999999999864" height="0.2864999999999864" fill="#252525" />
<rect x="1.7539999999999183" y="3.21149999999985" width="0.2864999999999864" height="0.2864999999999864" fill="#252525" />
<rect x="2.0454999999999046" y="3.21149999999985" width="0.2864999999999864" height="0.2864999999999864" fill="#0074D9" />
<rect x="2.336999999999891" y="3.21149999999985" width="0.2864999999999864" height="0.2864999999999864" fill="#252525" />
<rect x="2.6284999999998773" y="3.21149999999985" width="0.2864999999999864" height="0.2864999999999864" fill="#252525" />
<rect x="2.9199999999998636" y="3.21149999999985" width="0.2864999999999864" height="0.2864999999999864" fill="#252525" />
<rect x="3.21149999999985" y="3.21149999999985" width="0.2864999999999864" height="0.2864999999999864" fill="#252525" />
<rect x="-0.02666666666666667" y="-0.02666666666666667" width="3.55133333333317" height="3.55133333333317" fill="none" stroke="#111111ff" stroke-width="0.08" />
<text x="3.497999999999837" y="3.966749999999837" font-size="0.375" fill="black" text-anchor="end" font-family="Anuphan">12x12</text>
<text x="-0.037500000000000006" y="3.966749999999837" font-size="0.375" fill="black" text-anchor="start" font-family="Anuphan" font-weight="600">Test 1</text>
</g>
<g id="d5">
<rect x="0.005" y="0.005" width="3.4929999999998365" height="3.4929999999998365" fill="#FF4136" />
<rect x="-0.02666666666666667" y="-0.02666666666666667" width="3.5513333333331696" height="3.5513333333331696" fill="none" stroke="#111111ff" stroke-width="0.08" />
<text x="3.4979999999998364" y="3.9667499999998364" font-size="0.375" fill="black" text-anchor="end" font-family="Anuphan">1x1</text>
<text x="-0.037500000000000006" y="3.9667499999998364" font-size="0.375" fill="black" text-anchor="start" font-family="Anuphan" font-weight="600">Output 1</text>
</g>
<g id="d6">
<rect x="0.005" y="0.005" width="3.4929999999998365" height="3.4929999999998365" fill="#54D2EB" />
<rect x="-0.02666666666666667" y="-0.02666666666666667" width="3.5513333333331696" height="3.5513333333331696" fill="none" stroke="#111111ff" stroke-width="0.08" />
<text x="3.4979999999998364" y="3.9667499999998364" font-size="0.375" fill="black" text-anchor="end" font-family="Anuphan">1x1</text>
<text x="-0.037500000000000006" y="3.9667499999998364" font-size="0.375" fill="black" text-anchor="start" font-family="Anuphan" font-weight="600">Output 2</text>
</g>
<g id="d7">
<rect x="0.005" y="0.005" width="3.4929999999998365" height="3.4929999999998365" fill="#0074D9" />
<rect x="-0.02666666666666667" y="-0.02666666666666667" width="3.5513333333331696" height="3.5513333333331696" fill="none" stroke="#111111ff" stroke-width="0.08" />
<text x="3.4979999999998364" y="3.9667499999998364" font-size="0.375" fill="black" text-anchor="end" font-family="Anuphan">1x1</text>
<text x="-0.037500000000000006" y="3.9667499999998364" font-size="0.375" fill="black" text-anchor="start" font-family="Anuphan" font-weight="600">Output 3</text>
</g>
<g id="d8">
<rect x="0.005" y="0.005" width="3.4929999999998365" height="3.4929999999998365" fill="#54D2EB" />
<rect x="-0.02666666666666667" y="-0.02666666666666667" width="3.5513333333331696" height="3.5513333333331696" fill="none" stroke="#111111ff" stroke-width="0.08" />
<text x="3.4979999999998364" y="3.9667499999998364" font-size="0.375" fill="black" text-anchor="end" font-family="Anuphan">1x1</text>
<text x="-0.037500000000000006" y="3.9667499999998364" font-size="0.375" fill="black" text-anchor="start" font-family="Anuphan" font-weight="600">Output 4</text>
</g>
</defs>
<rect x="0" y="0" width="100%" height="100%" fill="#eeeff6" />
<use xlink:href="#d0" x="0.24999999999999978" y="0.25" />
<use xlink:href="#d1" x="4.247999999999837" y="0.25" />
<use xlink:href="#d2" x="8.245999999999674" y="0.25" />
<use xlink:href="#d3" x="12.24399999999951" y="0.25" />
<use xlink:href="#d4" x="16.241999999999347" y="0.25" />
<path d="M1.9989999999999184,5.175333333333134 L1.9989999999999184,5.575333333333134" stroke-width="0.05" stroke="#888888" />
<path d="M1.8489999999999185,5.375333333333134 L1.9989999999999184,5.575333333333134" stroke-width="0.05" stroke="#888888" />
<path d="M2.1489999999999183,5.375333333333134 L1.9989999999999184,5.575333333333134" stroke-width="0.05" stroke="#888888" />
<use xlink:href="#d5" x="0.25" y="5.925333333333134" />
<path d="M5.996999999999755,5.175333333333134 L5.996999999999755,5.575333333333134" stroke-width="0.05" stroke="#888888" />
<path d="M5.846999999999754,5.375333333333134 L5.996999999999755,5.575333333333134" stroke-width="0.05" stroke="#888888" />
<path d="M6.146999999999755,5.375333333333134 L5.996999999999755,5.575333333333134" stroke-width="0.05" stroke="#888888" />
<use xlink:href="#d6" x="4.247999999999837" y="5.925333333333134" />
<path d="M9.994999999999592,5.175333333333134 L9.994999999999592,5.575333333333134" stroke-width="0.05" stroke="#888888" />
<path d="M9.844999999999592,5.375333333333134 L9.994999999999592,5.575333333333134" stroke-width="0.05" stroke="#888888" />
<path d="M10.144999999999593,5.375333333333134 L9.994999999999592,5.575333333333134" stroke-width="0.05" stroke="#888888" />
<use xlink:href="#d7" x="8.245999999999674" y="5.925333333333134" />
<path d="M13.992999999999428,5.175333333333134 L13.992999999999428,5.575333333333134" stroke-width="0.05" stroke="#888888" />
<path d="M13.842999999999428,5.375333333333134 L13.992999999999428,5.575333333333134" stroke-width="0.05" stroke="#888888" />
<path d="M14.142999999999429,5.375333333333134 L13.992999999999428,5.575333333333134" stroke-width="0.05" stroke="#888888" />
<use xlink:href="#d8" x="12.24399999999951" y="5.925333333333134" />
<path d="M17.990999999999264,5.175333333333134 L17.990999999999264,5.575333333333134" stroke-width="0.05" stroke="#888888" />
<path d="M17.840999999999266,5.375333333333134 L17.990999999999264,5.575333333333134" stroke-width="0.05" stroke="#888888" />
<path d="M18.140999999999263,5.375333333333134 L17.990999999999264,5.575333333333134" stroke-width="0.05" stroke="#888888" />
<text x="17.990999999999264" y="7.774333333333051" font-size="1" font-family="Anuphan" font-weight="700" fill="#333333" text-anchor="middle" alignment-baseline="middle">?</text>
<text x="19.9" y="10.299999999999999" font-size="0.3" font-family="Anuphan" font-weight="600" fill="#666666" text-anchor="end" alignment-baseline="bottom">Task d9fac9be</text>
</svg>