<?xml version="1.0" encoding="UTF-8"?>
<svg xmlns="http://www.w3.org/2000/svg" xmlns:xlink="http://www.w3.org/1999/xlink"
     width="800.0" height="240.0" viewBox="0 0 20.0 6.0">
<defs>
<g id="d0">
<rect x="0.005" y="0.005" width="0.5613333333333215" height="0.5613333333333215" fill="#0074D9" />
<rect x="0.5713333333333215" y="0.005" width="0.5613333333333215" height="0.5613333333333215" fill="#252525" />
<rect x="1.1376666666666428" y="0.005" width="0.5613333333333215" height="0.5613333333333215" fill="#FF871E" />
<rect x="1.7039999999999642" y="0.005" width="0.5613333333333215" height="0.5613333333333215" fill="#252525" />
<rect x="2.270333333333286" y="0.005" width="0.5613333333333215" height="0.5613333333333215" fill="#252525" />
<rect x="-0.02666666666666667" y="-0.02666666666666667" width="2.8849999999999407" height="0.6196666666666548" fill="none" stroke="#111111ff" stroke-width="0.08" />
<text x="2.8316666666666075" y="1.0350833333333216" font-size="0.375" fill="black" text-anchor="end" font-family="Anuphan">5x1</text>
<text x="-0.037500000000000006" y="1.0350833333333216" font-size="0.375" fill="black" text-anchor="start" font-family="Anuphan" font-weight="600">Input 1</text>
</g>
<g id="d1">
<rect x="0.005" y="0.005" width="0.5613333333333215" height="0.5613333333333215" fill="#252525" />
<rect x="0.5713333333333215" y="0.005" width="0.5613333333333215" height="0.5613333333333215" fill="#252525" />
<rect x="1.1376666666666428" y="0.005" width="0.5613333333333215" height="0.5613333333333215" fill="#FF4136" />
<rect x="1.7039999999999642" y="0.005" width="0.5613333333333215" height="0.5613333333333215" fill="#252525" />
<rect x="2.270333333333286" y="0.005" width="0.5613333333333215" height="0.5613333333333215" fill="#252525" />
<rect x="-0.02666666666666667" y="-0.02666666666666667" width="2.8849999999999407" height="0.6196666666666548" fill="none" stroke="#111111ff" stroke-width="0.08" />
<text x="2.8316666666666075" y="1.0350833333333216" font-size="0.375" fill="black" text-anchor="end" font-family="Anuphan">5x1</text>
<text x="-0.037500000000000006" y="1.0350833333333216" font-size="0.375" fill="black" text-anchor="start" font-family="Anuphan" font-weight="600">Input 2</text>
</g>
<g id="d2">
<rect x="0.005" y="0.005" width="0.5613333333333215" height="0.5613333333333215" fill="#FFDC00" />
<rect x="0.5713333333333215" y="0.005" width="0.5613333333333215" height="0.5613333333333215" fill="#252525" />
<rect x="1.1376666666666428" y="0.005" width="0.5613333333333215" height="0.5613333333333215" fill="#F012BE" />
<rect x="1.7039999999999642" y="0.005" width="0.5613333333333215" height="0.5613333333333215" fill="#252525" />
<rect x="2.270333333333286" y="0.005" width="0.5613333333333215" height="0.5613333333333215" fill="#54D2EB" />
<rect x="-0.02666666666666667" y="-0.02666666666666667" width="2.8849999999999407" height="0.6196666666666548" fill="none" stroke="#111111ff" stroke-width="0.08" />
<text x="2.8316666666666075" y="1.0350833333333216" font-size="0.375" fill="black" text-anchor="end" font-family="Anuphan">5x1</text>
<text x="-0.037500000000000006" y="1.0350833333333216" font-size="0.375" fill="black" text-anchor="start" font-family="Anuphan" font-weight="600">Input 3</text>
</g>
<g id="d3">
<rect x="0.005" y="0.005" width="0.5613333333333215" height="0.5613333333333215" fill="#252525" />
<rect x="0.5713333333333215" y="0.005" width="0.5613333333333215" height="0.5613333333333215" fill="#8D1D2C" />
<rect x="1.1376666666666428" y="0.005" width="0.5613333333333215" height="0.5613333333333215" fill="#252525" />
<rect x="1.7039999999999642" y="0.005" width="0.5613333333333215" height="0.5613333333333215" fill="#54D2EB" />
<rect x="2.270333333333286" y="0.005" width="0.5613333333333215" height="0.5613333333333215" fill="#FFDC00" />
<rect x="-0.02666666666666667" y="-0.02666666666666667" width="2.8849999999999407" height="0.6196666666666548" fill="none" stroke="#111111ff" stroke-width="0.08" />
<text x="2.8316666666666075" y="1.0350833333333216" font-size="0.375" fill="black" text-anchor="end" font-family="Anuphan">5x1</text>
<text x="-0.037500000000000006" y="1.0350833333333216" font-size="0.375" fill="black" text-anchor="start" font-family="Anuphan" font-weight="600">Input 4</text>
</g>
<g id="d4">
<rect x="0.005" y="0.005" width="0.5613333333333215" height="0.5613333333333215" fill="#252525" />
<rect x="0.5713333333333215" y="0.005" width="0.5613333333333215" height="0.5613333333333215" fill="#FFDC00" />
<rect x="1.1376666666666428" y="0.005" width="0.5613333333333215" height="0.5613333333333215" fill="#252525" />
<rect x="1.7039999999999642" y="0.005" width="0.5613333333333215" height="0.5613333333333215" fill="#252525" />
<rect x="2.270333333333286" y="0.005" width="0.5613333333333215" height="0.5613333333333215" fill="#252525" />
<rect x="-0.02666666666666667" y="-0.02666666666666667" width="2.8849999999999407" height="0.6196666666666548" fill="none" stroke="#111111ff" stroke-width="0.08" />
<text x="2.8316666666666075" y="1.0350833333333216" font-size="0.375" fill="black" text-anchor="end" font-family="Anuphan">5x1</text>
<text x="-0.037500000000000006" y="1.0350833333333216" font-size="0.375" fill="black" text-anchor="start" font-family="Anuphan" font-weight="600">Input 5</text>
</g>
<g id="d5">
<rect x="0.005" y="0.005" width="0.5613333333333215" height="0.5613333333333215" fill="#252525" />
<rect x="0.5713333333333215" y="0.005" width="0.5613333333333215" height="0.5613333333333215" fill="#F012BE" />
<rect x="1.1376666666666428" y="0.005" width="0.5613333333333215" height="0.5613333333333215" fill="#FF871E" />
<rect x="1.7039999999999642" y="0.005" width="0.5613333333333215" height="0.5613333333333215" fill="#54D2EB" />
<rect x="2.270333333333286" y="0.005" width="0.5613333333333215" height="0.5613333333333215" fill="#8D1D2C" />
<rect x="-0.02666666666666667" y="-0.02666666666666667" width="2.8849999999999407" height="0.6196666666666548" fill="none" stroke="#111111ff" stroke-width="0.08" />
<text x="2.8316666666666075" y="1.0350833333333216" font-size="0.375" fill="black" text-anchor="end" font-family="Anuphan">5x1</text>
<text x="-0.037500000000000006" y="1.0350833333333216" font-size="0.375" fill="black" text-anchor="start" font-family="Anuphan" font-weight="600">Test 1</text>
</g>
<g id="d6">
<rect x="0.005" y="0.005" width="0.27816666666666073" height="0.27816666666666073" fill="#252525" />
<rect x="0.28816666666666074" y="0.005" width="0.27816666666666073" height="0.27816666666666073" fill="#252525" />
<rect x="0.5713333333333215" y="0.005" width="0.27816666666666073" height="0.27816666666666073" fill="#252525" />
<rect x="0.8544999999999822" y="0.005" width="0.27816666666666073" height="0.27816666666666073" fill="#252525" />
<rect x="1.1376666666666428" y="0.005" width="0.27816666666666073" height="0.27816666666666073" fill="#252525" />
<rect x="1.4208333333333036" y="0.005" width="0.27816666666666073" height="0.27816666666666073" fill="#252525" />
<rect x="1.7039999999999642" y="0.005" width="0.27816666666666073" height="0.27816666666666073" fill="#252525" />
<rect x="1.987166666666625" y="0.005" width="0.27816666666666073" height="0.27816666666666073" fill="#252525" />
<rect x="2.270333333333286" y="0.005" width="0.27816666666666073" height="0.27816666666666073" fill="#252525" />
<rect x="2.5534999999999464" y="0.005" width="0.27816666666666073" height="0.27816666666666073" fill="#0074D9" />
<rect x="0.005" y="0.28816666666666074" width="0.27816666666666073" height="0.27816666666666073" fill="#252525" />
<rect x="0.28816666666666074" y="0.28816666666666074" width="0.27816666666666073" height="0.27816666666666073" fill="#252525" />
<rect x="0.5713333333333215" y="0.28816666666666074" width="0.27816666666666073" height="0.27816666666666073" fill="#252525" />
<rect x="0.8544999999999822" y="0.28816666666666074" width="0.27816666666666073" height="0.27816666666666073" fill="#252525" />
<rect x="1.1376666666666428" y="0.28816666666666074" width="0.27816666666666073" height="0.27816666666666073" fill="#252525" />
<rect x="1.4208333333333036" y="0.28816666666666074" width="0.27816666666666073" height="0.27816666666666073" fill="#252525" />
<rect x="1.7039999999999642" y="0.28816666666666074" width="0.27816666666666073" height="0.27816666666666073" fill="#252525" />
<rect x="1.987166666666625" y="0.28816666666666074" width="0.27816666666666073" height="0.27816666666666073" fill="#252525" />
<rect x="2.270333333333286" y="0.28816666666666074" width="0.27816666666666073" height="0.27816666666666073" fill="#0074D9" />
<rect x="2.5534999999999464" y="0.28816666666666074" width="0.27816666666666073" height="0.27816666666666073" fill="#252525" />
<rect x="0.005" y="0.5713333333333215" width="0.27816666666666073" height="0.27816666666666073" fill="#252525" />
<rect x="0.28816666666666074" y="0.5713333333333215" width="0.27816666666666073" height="0.27816666666666073" fill="#252525" />
<rect x="0.5713333333333215" y="0.5713333333333215" width="0.27816666666666073" height="0.27816666666666073" fill="#252525" />
<rect x="0.8544999999999822" y="0.5713333333333215" width="0.27816666666666073" height="0.27816666666666073" fill="#252525" />
<rect x="1.1376666666666428" y="0.5713333333333215" width="0.27816666666666073" height="0.27816666666666073" fill="#252525" />
<rect x="1.4208333333333036" y="0.5713333333333215" width="0.27816666666666073" height="0.27816666666666073" fill="#252525" />
<rect x="1.7039999999999642" y="0.5713333333333215" width="0.27816666666666073" height="0.27816666666666073" fill="#252525" />
<rect x="1.987166666666625" y="0.5713333333333215" width="0.27816666666666073" height="0.27816666666666073" fill="#0074D9" />
<rect x="2.270333333333286" y="0.5713333333333215" width="0.27816666666666073" height="0.27816666666666073" fill="#252525" />
<rect x="2.5534999999999464" y="0.5713333333333215" width="0.27816666666666073" height="0.27816666666666073" fill="#FF871E" />
<rect x="0.005" y="0.8544999999999822" width="0.27816666666666073" height="0.27816666666666073" fill="#252525" />
<rect x="0.28816666666666074" y="0.8544999999999822" width="0.27816666666666073" height="0.27816666666666073" fill="#252525" />
<rect x="0.5713333333333215" y="0.8544999999999822" width="0.27816666666666073" height="0.27816666666666073" fill="#252525" />
<rect x="0.8544999999999822" y="0.8544999999999822" width="0.27816666666666073" height="0.27816666666666073" fill="#252525" />
<rect x="1.1376666666666428" y="0.8544999999999822" width="0.27816666666666073" height="0.27816666666666073" fill="#252525" />
<rect x="1.4208333333333036" y="0.8544999999999822" width="0.27816666666666073" height="0.27816666666666073" fill="#252525" />
<rect x="1.7039999999999642" y="0.8544999999999822" width="0.27816666666666073" height="0.27816666666666073" fill="#0074D9" />
<rect x="1.987166666666625" y="0.8544999999999822" width="0.27816666666666073" height="0.27816666666666073" fill="#252525" />
<rect x="2.270333333333286" y="0.8544999999999822" width="0.27816666666666073" height="0.27816666666666073" fill="#FF871E" />
<rect x="2.5534999999999464" y="0.8544999999999822" width="0.27816666666666073" height="0.27816666666666073" fill="#252525" />
<rect x="0.005" y="1.1376666666666428" width="0.27816666666666073" height="0.27816666666666073" fill="#252525" />
<rect x="0.28816666666666074" y="1.1376666666666428" width="0.27816666666666073" height="0.27816666666666073" fill="#252525" />
<rect x="0.5713333333333215" y="1.1376666666666428" width="0.27816666666666073" height="0.27816666666666073" fill="#252525" />
<rect x="0.8544999999999822" y="1.1376666666666428" width="0.27816666666666073" height="0.27816666666666073" fill="#252525" />
<rect x="1.1376666666666428" y="1.1376666666666428" width="0.27816666666666073" height="0.27816666666666073" fill="#252525" />
<rect x="1.4208333333333036" y="1.1376666666666428" width="0.27816666666666073" height="0.27816666666666073" fill="#0074D9" />
<rect x="1.7039999999999642" y="1.1376666666666428" width="0.27816666666666073" height="0.27816666666666073" fill="#252525" />
<rect x="1.987166666666625" y="1.1376666666666428" width="0.27816666666666073" height="0.27816666666666073" fill="#FF871E" />
<rect x="2.270333333333286" y="1.1376666666666428" width="0.27816666666666073" height="0.27816666666666073" fill="#252525" />
<rect x="2.5534999999999464" y="1.1376666666666428" width="0.27816666666666073" height="0.27816666666666073" fill="#252525" />
<rect x="0.005" y="1.4208333333333036" width="0.27816666666666073" height="0.27816666666666073" fill="#252525" />
<rect x="0.28816666666666074" y="1.4208333333333036" width="0.27816666666666073" height="0.27816666666666073" fill="#252525" />
<rect x="0.5713333333333215" y="1.4208333333333036" width="0.27816666666666073" height="0.27816666666666073" fill="#252525" />
<rect x="0.8544999999999822" y="1.4208333333333036" width="0.27816666666666073" height="0.27816666666666073" fill="#252525" />
<rect x="1.1376666666666428" y="1.4208333333333036" width="0.27816666666666073" height="0.27816666666666073" fill="#0074D9" />
<rect x="1.4208333333333036" y="1.4208333333333036" width="0.27816666666666073" height="0.27816666666666073" fill="#252525" />
<rect x="1.7039999999999642" y="1.4208333333333036" width="0.27816666666666073" height="0.27816666666666073" fill="#FF871E" />
<rect x="1.987166666666625" y="1.4208333333333036" width="0.27816666666666073" height="0.27816666666666073" fill="#252525" />
<rect x="2.270333333333286" y="1.4208333333333036" width="0.27816666666666073" height="0.27816666666666073" fill="#252525" />
<rect x="2.5534999999999464" y="1.4208333333333036" width="0.27816666666666073" height="0.27816666666666073" fill="#252525" />
<rect x="0.005" y="1.7039999999999642" width="0.27816666666666073" height="0.27816666666666073" fill="#252525" />
<rect x="0.28816666666666074" y="1.7039999999999642" width="0.27816666666666073" height="0.27816666666666073" fill="#252525" />
<rect x="0.5713333333333215" y="1.7039999999999642" width="0.27816666666666073" height="0.27816666666666073" fill="#252525" />
<rect x="0.8544999999999822" y="1.7039999999999642" width="0.27816666666666073" height="0.27816666666666073" fill="#0074D9" />
<rect x="1.1376666666666428" y="1.7039999999999642" width="0.27816666666666073" height="0.27816666666666073" fill="#252525" />
<rect x="1.4208333333333036" y="1.7039999999999642" width="0.27816666666666073" height="0.27816666666666073" fill="#FF871E" />
<rect x="1.7039999999999642" y="1.7039999999999642" width="0.27816666666666073" height="0.27816666666666073" fill="#252525" />
<rect x="1.987166666666625" y="1.7039999999999642" width="0.27816666666666073" height="0.27816666666666073" fill="#252525" />
<rect x="2.270333333333286" y="1.7039999999999642" width="0.27816666666666073" height="0.27816666666666073" fill="#252525" />
<rect x="2.5534999999999464" y="1.7039999999999642" width="0.27816666666666073" height="0.27816666666666073" fill="#252525" />
<rect x="0.005" y="1.987166666666625" width="0.27816666666666073" height="0.27816666666666073" fill="#252525" />
<rect x="0.28816666666666074" y="1.987166666666625" width="0.27816666666666073" height="0.27816666666666073" fill="#252525" />
<rect x="0.5713333333333215" y="1.987166666666625" width="0.27816666666666073" height="0.27816666666666073" fill="#0074D9" />
<rect x="0.8544999999999822" y="1.987166666666625" width="0.27816666666666073" height="0.27816666666666073" fill="#252525" />
<rect x="1.1376666666666428" y="1.987166666666625" width="0.27816666666666073" height="0.27816666666666073" fill="#FF871E" />
<rect x="1.4208333333333036" y="1.987166666666625" width="0.27816666666666073" height="0.27816666666666073" fill="#252525" />
<rect x="1.7039999999999642" y="1.987166666666625" width="0.27816666666666073" height="0.27816666666666073" fill="#252525" />
<rect x="1.987166666666625" y="1.987166666666625" width="0.27816666666666073" height="0.27816666666666073" fill="#252525" />
<rect x="2.270333333333286" y="1.987166666666625" width="0.27816666666666073" height="0.27816666666666073" fill="#252525" />
<rect x="2.5534999999999464" y="1.987166666666625" width="0.27816666666666073" height="0.27816666666666073" fill="#252525" />
<rect x="0.005" y="2.270333333333286" width="0.27816666666666073" height="0.27816666666666073" fill="#252525" />
<rect x="0.28816666666666074" y="2.270333333333286" width="0.27816666666666073" height="0.27816666666666073" fill="#0074D9" />
<rect x="0.5713333333333215" y="2.270333333333286" width="0.27816666666666073" height="0.27816666666666073" fill="#252525" />
<rect x="0.8544999999999822" y="2.270333333333286" width="0.27816666666666073" height="0.27816666666666073" fill="#FF871E" />
<rect x="1.1376666666666428" y="2.270333333333286" width="0.27816666666666073" height="0.27816666666666073" fill="#252525" />
<rect x="1.4208333333333036" y="2.270333333333286" width="0.27816666666666073" height="0.27816666666666073" fill="#252525" />
<rect x="1.7039999999999642" y="2.270333333333286" width="0.27816666666666073" height="0.27816666666666073" fill="#252525" />
<rect x="1.987166666666625" y="2.270333333333286" width="0.27816666666666073" height="0.27816666666666073" fill="#252525" />
<rect x="2.270333333333286" y="2.270333333333286" width="0.27816666666666073" height="0.27816666666666073" fill="#252525" />
<rect x="2.5534999999999464" y="2.270333333333286" width="0.27816666666666073" height="0.27816666666666073" fill="#252525" />
<rect x="0.005" y="2.5534999999999464" width="0.27816666666666073" height="0.27816666666666073" fill="#0074D9" />
<rect x="0.28816666666666074" y="2.5534999999999464" width="0.27816666666666073" height="0.27816666666666073" fill="#252525" />
<rect x="0.5713333333333215" y="2.5534999999999464" width="0.27816666666666073" height="0.27816666666666073" fill="#FF871E" />
<rect x="0.8544999999999822" y="2.5534999999999464" width="0.27816666666666073" height="0.27816666666666073" fill="#252525" />
<rect x="1.1376666666666428" y="2.5534999999999464" width="0.27816666666666073" height="0.27816666666666073" fill="#252525" />
<rect x="1.4208333333333036" y="2.5534999999999464" width="0.27816666666666073" height="0.27816666666666073" fill="#252525" />
<rect x="1.7039999999999642" y="2.5534999999999464" width="0.27816666666666073" height="0.27816666666666073" fill="#252525" />
<rect x="1.987166666666625" y="2.5534999999999464" width="0.27816666666666073" height="0.27816666666666073" fill="#252525" />
<rect x="2.270333333333286" y="2.5534999999999464" width="0.27816666666666073" height="0.27816666666666073" fill="#252525" />
<rect x="2.5534999999999464" y="2.5534999999999464" width="0.27816666666666073" height="0.27816666666666073" fill="#252525" />
<rect x="-0.02666666666666667" y="-0.02666666666666667" width="2.8849999999999407" height="2.8849999999999407" fill="none" stroke="#111111ff" stroke-width="0.08" />
<text x="2.8316666666666075" y="3.3004166666666075" font-size="0.375" fill="black" text-anchor="end" font-family="Anuphan">10x10</text>
<text x="-0.037500000000000006" y="3.3004166666666075" font-size="0.375" fill="black" text-anchor="start" font-family="Anuphan" font-weight="600">Output 1</text>
</g>
<g id="d7">
<rect x="0.005" y="0.005" width="0.5613333333333215" height="0.5613333333333215" fill="#252525" />
<rect x="0.5713333333333215" y="0.005" width="0.5613333333333215" height="0.5613333333333215" fill="#252525" />
<rect x="1.1376666666666428" y="0.005" width="0.5613333333333215" height="0.5613333333333215" fill="#252525" />
<rect x="1.7039999999999642" y="0.005" width="0.5613333333333215" height="0.5613333333333215" fill="#252525" />
<rect x="2.270333333333286" y="0.005" width="0.5613333333333215" height="0.5613333333333215" fill="#252525" />
<rect x="0.005" y="0.5713333333333215" width="0.5613333333333215" height="0.5613333333333215" fill="#252525" />
<rect x="0.5713333333333215" y="0.5713333333333215" width="0.5613333333333215" height="0.5613333333333215" fill="#252525" />
<rect x="1.1376666666666428" y="0.5713333333333215" width="0.5613333333333215" height="0.5613333333333215" fill="#252525" />
<rect x="1.7039999999999642" y="0.5713333333333215" width="0.5613333333333215" height="0.5613333333333215" fill="#252525" />
<rect x="2.270333333333286" y="0.5713333333333215" width="0.5613333333333215" height="0.5613333333333215" fill="#252525" />
<rect x="0.005" y="1.1376666666666428" width="0.5613333333333215" height="0.5613333333333215" fill="#252525" />
<rect x="0.5713333333333215" y="1.1376666666666428" width="0.5613333333333215" height="0.5613333333333215" fill="#252525" />
<rect x="1.1376666666666428" y="1.1376666666666428" width="0.5613333333333215" height="0.5613333333333215" fill="#252525" />
<rect x="1.7039999999999642" y="1.1376666666666428" width="0.5613333333333215" height="0.5613333333333215" fill="#252525" />
<rect x="2.270333333333286" y="1.1376666666666428" width="0.5613333333333215" height="0.5613333333333215" fill="#FF4136" />
<rect x="0.005" y="1.7039999999999642" width="0.5613333333333215" height="0.5613333333333215" fill="#252525" />
<rect x="0.5713333333333215" y="1.7039999999999642" width="0.5613333333333215" height="0.5613333333333215" fill="#252525" />
<rect x="1.1376666666666428" y="1.7039999999999642" width="0.5613333333333215" height="0.5613333333333215" fill="#252525" />
<rect x="1.7039999999999642" y="1.7039999999999642" width="0.5613333333333215" height="0.5613333333333215" fill="#FF4136" />
<rect x="2.270333333333286" y="1.7039999999999642" width="0.5613333333333215" height="0.5613333333333215" fill="#252525" />
<rect x="0.005" y="2.270333333333286" width="0.5613333333333215" height="0.5613333333333215" fill="#252525" />
<rect x="0.5713333333333215" y="2.270333333333286" width="0.5613333333333215" height="0.5613333333333215" fill="#252525" />
<rect x="1.1376666666666428" y="2.270333333333286" width="0.5613333333333215" height="0.5613333333333215" fill="#FF4136" />
<rect x="1.7039999999999642" y="2.270333333333286" width="0.5613333333333215" height="0.5613333333333215" fill="#252525" />
<rect x="2.270333333333286" y="2.270333333333286" width="0.5613333333333215" height="0.5613333333333215" fill="#252525" />
<rect x="-0.02666666666666667" y="-0.02666666666666667" width="2.8849999999999407" height="2.8849999999999407" fill="none" stroke="#111111ff" stroke-width="0.08" />
<text x="2.8316666666666075" y="3.3004166666666075" font-size="0.375" fill="black" text-anchor="end" font-family="Anuphan">5x5</text>
<text x="-0.037500000000000006" y="3.3004166666666075" font-size="0.375" fill="black" text-anchor="start" font-family="Anuphan" font-weight="600">Output 2</text>
</g>
<g id="d8">
<rect x="0.005" y="0.005" width="0.18377777777777382" height="0.18377777777777382" fill="#252525" />
<rect x="0.19377777777777383" y="0.005" width="0.18377777777777382" height="0.18377777777777382" fill="#252525" />
<rect x="0.38255555555554766" y="0.005" width="0.18377777777777382" height="0.18377777777777382" fill="#252525" />
<rect x="0.5713333333333215" y="0.005" width="0.18377777777777382" height="0.18377777777777382" fill="#252525" />
<rect x="0.7601111111110953" y="0.005" width="0.18377777777777382" height="0.18377777777777382" fill="#252525" />
<rect x="0.9488888888888691" y="0.005" width="0.18377777777777382" height="0.18377777777777382" fill="#252525" />
<rect x="1.1376666666666428" y="0.005" width="0.18377777777777382" height="0.18377777777777382" fill="#252525" />
<rect x="1.3264444444444168" y="0.005" width="0.18377777777777382" height="0.18377777777777382" fill="#252525" />
<rect x="1.5152222222221905" y="0.005" width="0.18377777777777382" height="0.18377777777777382" fill="#252525" />
<rect x="1.7039999999999642" y="0.005" width="0.18377777777777382" height="0.18377777777777382" fill="#252525" />
<rect x="1.8927777777777381" y="0.005" width="0.18377777777777382" height="0.18377777777777382" fill="#252525" />
<rect x="2.081555555555512" y="0.005" width="0.18377777777777382" height="0.18377777777777382" fill="#252525" />
<rect x="2.270333333333286" y="0.005" width="0.18377777777777382" height="0.18377777777777382" fill="#252525" />
<rect x="2.4591111111110595" y="0.005" width="0.18377777777777382" height="0.18377777777777382" fill="#252525" />
<rect x="2.6478888888888337" y="0.005" width="0.18377777777777382" height="0.18377777777777382" fill="#FFDC00" />
<rect x="0.005" y="0.19377777777777383" width="0.18377777777777382" height="0.18377777777777382" fill="#252525" />
<rect x="0.19377777777777383" y="0.19377777777777383" width="0.18377777777777382" height="0.18377777777777382" fill="#252525" />
<rect x="0.38255555555554766" y="0.19377777777777383" width="0.18377777777777382" height="0.18377777777777382" fill="#252525" />
<rect x="0.5713333333333215" y="0.19377777777777383" width="0.18377777777777382" height="0.18377777777777382" fill="#252525" />
<rect x="0.7601111111110953" y="0.19377777777777383" width="0.18377777777777382" height="0.18377777777777382" fill="#252525" />
<rect x="0.9488888888888691" y="0.19377777777777383" width="0.18377777777777382" height="0.18377777777777382" fill="#252525" />
<rect x="1.1376666666666428" y="0.19377777777777383" width="0.18377777777777382" height="0.18377777777777382" fill="#252525" />
<rect x="1.3264444444444168" y="0.19377777777777383" width="0.18377777777777382" height="0.18377777777777382" fill="#252525" />
<rect x="1.5152222222221905" y="0.19377777777777383" width="0.18377777777777382" height="0.18377777777777382" fill="#252525" />
<rect x="1.7039999999999642" y="0.19377777777777383" width="0.18377777777777382" height="0.18377777777777382" fill="#252525" />
<rect x="1.8927777777777381" y="0.19377777777777383" width="0.18377777777777382" height="0.18377777777777382" fill="#252525" />
<rect x="2.081555555555512" y="0.19377777777777383" width="0.18377777777777382" height="0.18377777777777382" fill="#252525" />
<rect x="2.270333333333286" y="0.19377777777777383" width="0.18377777777777382" height="0.18377777777777382" fill="#252525" />
<rect x="2.4591111111110595" y="0.19377777777777383" width="0.18377777777777382" height="0.18377777777777382" fill="#FFDC00" />
<rect x="2.6478888888888337" y="0.19377777777777383" width="0.18377777777777382" height="0.18377777777777382" fill="#252525" />
<rect x="0.005" y="0.38255555555554766" width="0.18377777777777382" height="0.18377777777777382" fill="#252525" />
<rect x="0.19377777777777383" y="0.38255555555554766" width="0.18377777777777382" height="0.18377777777777382" fill="#252525" />
<rect x="0.38255555555554766" y="0.38255555555554766" width="0.18377777777777382" height="0.18377777777777382" fill="#252525" />
<rect x="0.5713333333333215" y="0.38255555555554766" width="0.18377777777777382" height="0.18377777777777382" fill="#252525" />
<rect x="0.7601111111110953" y="0.38255555555554766" width="0.18377777777777382" height="0.18377777777777382" fill="#252525" />
<rect x="0.9488888888888691" y="0.38255555555554766" width="0.18377777777777382" height="0.18377777777777382" fill="#252525" />
<rect x="1.1376666666666428" y="0.38255555555554766" width="0.18377777777777382" height="0.18377777777777382" fill="#252525" />
<rect x="1.3264444444444168" y="0.38255555555554766" width="0.18377777777777382" height="0.18377777777777382" fill="#252525" />
<rect x="1.5152222222221905" y="0.38255555555554766" width="0.18377777777777382" height="0.18377777777777382" fill="#252525" />
<rect x="1.7039999999999642" y="0.38255555555554766" width="0.18377777777777382" height="0.18377777777777382" fill="#252525" />
<rect x="1.8927777777777381" y="0.38255555555554766" width="0.18377777777777382" height="0.18377777777777382" fill="#252525" />
<rect x="2.081555555555512" y="0.38255555555554766" width="0.18377777777777382" height="0.18377777777777382" fill="#252525" />
<rect x="2.270333333333286" y="0.38255555555554766" width="0.18377777777777382" height="0.18377777777777382" fill="#FFDC00" />
<rect x="2.4591111111110595" y="0.38255555555554766" width="0.18377777777777382" height="0.18377777777777382" fill="#252525" />
<rect x="2.6478888888888337" y="0.38255555555554766" width="0.18377777777777382" height="0.18377777777777382" fill="#F012BE" />
<rect x="0.005" y="0.5713333333333215" width="0.18377777777777382" height="0.18377777777777382" fill="#252525" />
<rect x="0.19377777777777383" y="0.5713333333333215" width="0.18377777777777382" height="0.18377777777777382" fill="#252525" />
<rect x="0.38255555555554766" y="0.5713333333333215" width="0.18377777777777382" height="0.18377777777777382" fill="#252525" />
<rect x="0.5713333333333215" y="0.5713333333333215" width="0.18377777777777382" height="0.18377777777777382" fill="#252525" />
<rect x="0.7601111111110953" y="0.5713333333333215" width="0.18377777777777382" height="0.18377777777777382" fill="#252525" />
<rect x="0.9488888888888691" y="0.5713333333333215" width="0.18377777777777382" height="0.18377777777777382" fill="#252525" />
<rect x="1.1376666666666428" y="0.5713333333333215" width="0.18377777777777382" height="0.18377777777777382" fill="#252525" />
<rect x="1.3264444444444168" y="0.5713333333333215" width="0.18377777777777382" height="0.18377777777777382" fill="#252525" />
<rect x="1.5152222222221905" y="0.5713333333333215" width="0.18377777777777382" height="0.18377777777777382" fill="#252525" />
<rect x="1.7039999999999642" y="0.5713333333333215" width="0.18377777777777382" height="0.18377777777777382" fill="#252525" />
<rect x="1.8927777777777381" y="0.5713333333333215" width="0.18377777777777382" height="0.18377777777777382" fill="#252525" />
<rect x="2.081555555555512" y="0.5713333333333215" width="0.18377777777777382" height="0.18377777777777382" fill="#FFDC00" />
<rect x="2.270333333333286" y="0.5713333333333215" width="0.18377777777777382" height="0.18377777777777382" fill="#252525" />
<rect x="2.4591111111110595" y="0.5713333333333215" width="0.18377777777777382" height="0.18377777777777382" fill="#F012BE" />
<rect x="2.6478888888888337" y="0.5713333333333215" width="0.18377777777777382" height="0.18377777777777382" fill="#252525" />
<rect x="0.005" y="0.7601111111110953" width="0.18377777777777382" height="0.18377777777777382" fill="#252525" />
<rect x="0.19377777777777383" y="0.7601111111110953" width="0.18377777777777382" height="0.18377777777777382" fill="#252525" />
<rect x="0.38255555555554766" y="0.7601111111110953" width="0.18377777777777382" height="0.18377777777777382" fill="#252525" />
<rect x="0.5713333333333215" y="0.7601111111110953" width="0.18377777777777382" height="0.18377777777777382" fill="#252525" />
<rect x="0.7601111111110953" y="0.7601111111110953" width="0.18377777777777382" height="0.18377777777777382" fill="#252525" />
<rect x="0.9488888888888691" y="0.7601111111110953" width="0.18377777777777382" height="0.18377777777777382" fill="#252525" />
<rect x="1.1376666666666428" y="0.7601111111110953" width="0.18377777777777382" height="0.18377777777777382" fill="#252525" />
<rect x="1.3264444444444168" y="0.7601111111110953" width="0.18377777777777382" height="0.18377777777777382" fill="#252525" />
<rect x="1.5152222222221905" y="0.7601111111110953" width="0.18377777777777382" height="0.18377777777777382" fill="#252525" />
<rect x="1.7039999999999642" y="0.7601111111110953" width="0.18377777777777382" height="0.18377777777777382" fill="#252525" />
<rect x="1.8927777777777381" y="0.7601111111110953" width="0.18377777777777382" height="0.18377777777777382" fill="#FFDC00" />
<rect x="2.081555555555512" y="0.7601111111110953" width="0.18377777777777382" height="0.18377777777777382" fill="#252525" />
<rect x="2.270333333333286" y="0.7601111111110953" width="0.18377777777777382" height="0.18377777777777382" fill="#F012BE" />
<rect x="2.4591111111110595" y="0.7601111111110953" width="0.18377777777777382" height="0.18377777777777382" fill="#252525" />
<rect x="2.6478888888888337" y="0.7601111111110953" width="0.18377777777777382" height="0.18377777777777382" fill="#54D2EB" />
<rect x="0.005" y="0.9488888888888691" width="0.18377777777777382" height="0.18377777777777382" fill="#252525" />
<rect x="0.19377777777777383" y="0.9488888888888691" width="0.18377777777777382" height="0.18377777777777382" fill="#252525" />
<rect x="0.38255555555554766" y="0.9488888888888691" width="0.18377777777777382" height="0.18377777777777382" fill="#252525" />
<rect x="0.5713333333333215" y="0.9488888888888691" width="0.18377777777777382" height="0.18377777777777382" fill="#252525" />
<rect x="0.7601111111110953" y="0.9488888888888691" width="0.18377777777777382" height="0.18377777777777382" fill="#252525" />
<rect x="0.9488888888888691" y="0.9488888888888691" width="0.18377777777777382" height="0.18377777777777382" fill="#252525" />
<rect x="1.1376666666666428" y="0.9488888888888691" width="0.18377777777777382" height="0.18377777777777382" fill="#252525" />
<rect x="1.3264444444444168" y="0.9488888888888691" width="0.18377777777777382" height="0.18377777777777382" fill="#252525" />
<rect x="1.5152222222221905" y="0.9488888888888691" width="0.18377777777777382" height="0.18377777777777382" fill="#252525" />
<rect x="1.7039999999999642" y="0.9488888888888691" width="0.18377777777777382" height="0.18377777777777382" fill="#FFDC00" />
<rect x="1.8927777777777381" y="0.9488888888888691" width="0.18377777777777382" height="0.18377777777777382" fill="#252525" />
<rect x="2.081555555555512" y="0.9488888888888691" width="0.18377777777777382" height="0.18377777777777382" fill="#F012BE" />
<rect x="2.270333333333286" y="0.9488888888888691" width="0.18377777777777382" height="0.18377777777777382" fill="#252525" />
<rect x="2.4591111111110595" y="0.9488888888888691" width="0.18377777777777382" height="0.18377777777777382" fill="#54D2EB" />
<rect x="2.6478888888888337" y="0.9488888888888691" width="0.18377777777777382" height="0.18377777777777382" fill="#252525" />
<rect x="0.005" y="1.1376666666666428" width="0.18377777777777382" height="0.18377777777777382" fill="#252525" />
<rect x="0.19377777777777383" y="1.1376666666666428" width="0.18377777777777382" height="0.18377777777777382" fill="#252525" />
<rect x="0.38255555555554766" y="1.1376666666666428" width="0.18377777777777382" height="0.18377777777777382" fill="#252525" />
<rect x="0.5713333333333215" y="1.1376666666666428" width="0.18377777777777382" height="0.18377777777777382" fill="#252525" />
<rect x="0.7601111111110953" y="1.1376666666666428" width="0.18377777777777382" height="0.18377777777777382" fill="#252525" />
<rect x="0.9488888888888691" y="1.1376666666666428" width="0.18377777777777382" height="0.18377777777777382" fill="#252525" />
<rect x="1.1376666666666428" y="1.1376666666666428" width="0.18377777777777382" height="0.18377777777777382" fill="#252525" />
<rect x="1.3264444444444168" y="1.1376666666666428" width="0.18377777777777382" height="0.18377777777777382" fill="#252525" />
<rect x="1.5152222222221905" y="1.1376666666666428" width="0.18377777777777382" height="0.18377777777777382" fill="#FFDC00" />
<rect x="1.7039999999999642" y="1.1376666666666428" width="0.18377777777777382" height="0.18377777777777382" fill="#252525" />
<rect x="1.8927777777777381" y="1.1376666666666428" width="0.18377777777777382" height="0.18377777777777382" fill="#F012BE" />
<rect x="2.081555555555512" y="1.1376666666666428" width="0.18377777777777382" height="0.18377777777777382" fill="#252525" />
<rect x="2.270333333333286" y="1.1376666666666428" width="0.18377777777777382" height="0.18377777777777382" fill="#54D2EB" />
<rect x="2.4591111111110595" y="1.1376666666666428" width="0.18377777777777382" height="0.18377777777777382" fill="#252525" />
<rect x="2.6478888888888337" y="1.1376666666666428" width="0.18377777777777382" height="0.18377777777777382" fill="#252525" />
<rect x="0.005" y="1.3264444444444168" width="0.18377777777777382" height="0.18377777777777382" fill="#252525" />
<rect x="0.19377777777777383" y="1.3264444444444168" width="0.18377777777777382" height="0.18377777777777382" fill="#252525" />
<rect x="0.38255555555554766" y="1.3264444444444168" width="0.18377777777777382" height="0.18377777777777382" fill="#252525" />
<rect x="0.5713333333333215" y="1.3264444444444168" width="0.18377777777777382" height="0.18377777777777382" fill="#252525" />
<rect x="0.7601111111110953" y="1.3264444444444168" width="0.18377777777777382" height="0.18377777777777382" fill="#252525" />
<rect x="0.9488888888888691" y="1.3264444444444168" width="0.18377777777777382" height="0.18377777777777382" fill="#252525" />
<rect x="1.1376666666666428" y="1.3264444444444168" width="0.18377777777777382" height="0.18377777777777382" fill="#252525" />
<rect x="1.3264444444444168" y="1.3264444444444168" width="0.18377777777777382" height="0.18377777777777382" fill="#FFDC00" />
<rect x="1.5152222222221905" y="1.3264444444444168" width="0.18377777777777382" height="0.18377777777777382" fill="#252525" />
<rect x="1.7039999999999642" y="1.3264444444444168" width="0.18377777777777382" height="0.18377777777777382" fill="#F012BE" />
<rect x="1.8927777777777381" y="1.3264444444444168" width="0.18377777777777382" height="0.18377777777777382" fill="#252525" />
<rect x="2.081555555555512" y="1.3264444444444168" width="0.18377777777777382" height="0.18377777777777382" fill="#54D2EB" />
<rect x="2.270333333333286" y="1.3264444444444168" width="0.18377777777777382" height="0.18377777777777382" fill="#252525" />
<rect x="2.4591111111110595" y="1.3264444444444168" width="0.18377777777777382" height="0.18377777777777382" fill="#252525" />
<rect x="2.6478888888888337" y="1.3264444444444168" width="0.18377777777777382" height="0.18377777777777382" fill="#252525" />
<rect x="0.005" y="1.5152222222221905" width="0.18377777777777382" height="0.18377777777777382" fill="#252525" />
<rect x="0.19377777777777383" y="1.5152222222221905" width="0.18377777777777382" height="0.18377777777777382" fill="#252525" />
<rect x="0.38255555555554766" y="1.5152222222221905" width="0.18377777777777382" height="0.18377777777777382" fill="#252525" />
<rect x="0.5713333333333215" y="1.5152222222221905" width="0.18377777777777382" height="0.18377777777777382" fill="#252525" />
<rect x="0.7601111111110953" y="1.5152222222221905" width="0.18377777777777382" height="0.18377777777777382" fill="#252525" />
<rect x="0.9488888888888691" y="1.5152222222221905" width="0.18377777777777382" height="0.18377777777777382" fill="#252525" />
<rect x="1.1376666666666428" y="1.5152222222221905" width="0.18377777777777382" height="0.18377777777777382" fill="#FFDC00" />
<rect x="1.3264444444444168" y="1.5152222222221905" width="0.18377777777777382" height="0.18377777777777382" fill="#252525" />
<rect x="1.5152222222221905" y="1.5152222222221905" width="0.18377777777777382" height="0.18377777777777382" fill="#F012BE" />
<rect x="1.7039999999999642" y="1.5152222222221905" width="0.18377777777777382" height="0.18377777777777382" fill="#252525" />
<rect x="1.8927777777777381" y="1.5152222222221905" width="0.18377777777777382" height="0.18377777777777382" fill="#54D2EB" />
<rect x="2.081555555555512" y="1.5152222222221905" width="0.18377777777777382" height="0.18377777777777382" fill="#252525" />
<rect x="2.270333333333286" y="1.5152222222221905" width="0.18377777777777382" height="0.18377777777777382" fill="#252525" />
<rect x="2.4591111111110595" y="1.5152222222221905" width="0.18377777777777382" height="0.18377777777777382" fill="#252525" />
<rect x="2.6478888888888337" y="1.5152222222221905" width="0.18377777777777382" height="0.18377777777777382" fill="#252525" />
<rect x="0.005" y="1.7039999999999642" width="0.18377777777777382" height="0.18377777777777382" fill="#252525" />
<rect x="0.19377777777777383" y="1.7039999999999642" width="0.18377777777777382" height="0.18377777777777382" fill="#252525" />
<rect x="0.38255555555554766" y="1.7039999999999642" width="0.18377777777777382" height="0.18377777777777382" fill="#252525" />
<rect x="0.5713333333333215" y="1.7039999999999642" width="0.18377777777777382" height="0.18377777777777382" fill="#252525" />
<rect x="0.7601111111110953" y="1.7039999999999642" width="0.18377777777777382" height="0.18377777777777382" fill="#252525" />
<rect x="0.9488888888888691" y="1.7039999999999642" width="0.18377777777777382" height="0.18377777777777382" fill="#FFDC00" />
<rect x="1.1376666666666428" y="1.7039999999999642" width="0.18377777777777382" height="0.18377777777777382" fill="#252525" />
<rect x="1.3264444444444168" y="1.7039999999999642" width="0.18377777777777382" height="0.18377777777777382" fill="#F012BE" />
<rect x="1.5152222222221905" y="1.7039999999999642" width="0.18377777777777382" height="0.18377777777777382" fill="#252525" />
<rect x="1.7039999999999642" y="1.7039999999999642" width="0.18377777777777382" height="0.18377777777777382" fill="#54D2EB" />
<rect x="1.8927777777777381" y="1.7039999999999642" width="0.18377777777777382" height="0.18377777777777382" fill="#252525" />
<rect x="2.081555555555512" y="1.7039999999999642" width="0.18377777777777382" height="0.18377777777777382" fill="#252525" />
<rect x="2.270333333333286" y="1.7039999999999642" width="0.18377777777777382" height="0.18377777777777382" fill="#252525" />
<rect x="2.4591111111110595" y="1.7039999999999642" width="0.18377777777777382" height="0.18377777777777382" fill="#252525" />
<rect x="2.6478888888888337" y="1.7039999999999642" width="0.18377777777777382" height="0.18377777777777382" fill="#252525" />
<rect x="0.005" y="1.8927777777777381" width="0.18377777777777382" height="0.18377777777777382" fill="#252525" />
<rect x="0.19377777777777383" y="1.8927777777777381" width="0.18377777777777382" height="0.18377777777777382" fill="#252525" />
<rect x="0.38255555555554766" y="1.8927777777777381" width="0.18377777777777382" height="0.18377777777777382" fill="#252525" />
<rect x="0.5713333333333215" y="1.8927777777777381" width="0.18377777777777382" height="0.18377777777777382" fill="#252525" />
<rect x="0.7601111111110953" y="1.8927777777777381" width="0.18377777777777382" height="0.18377777777777382" fill="#FFDC00" />
<rect x="0.9488888888888691" y="1.8927777777777381" width="0.18377777777777382" height="0.18377777777777382" fill="#252525" />
<rect x="1.1376666666666428" y="1.8927777777777381" width="0.18377777777777382" height="0.18377777777777382" fill="#F012BE" />
<rect x="1.3264444444444168" y="1.8927777777777381" width="0.18377777777777382" height="0.18377777777777382" fill="#252525" />
<rect x="1.5152222222221905" y="1.8927777777777381" width="0.18377777777777382" height="0.18377777777777382" fill="#54D2EB" />
<rect x="1.7039999999999642" y="1.8927777777777381" width="0.18377777777777382" height="0.18377777777777382" fill="#252525" />
<rect x="1.8927777777777381" y="1.8927777777777381" width="0.18377777777777382" height="0.18377777777777382" fill="#252525" />
<rect x="2.081555555555512" y="1.8927777777777381" width="0.18377777777777382" height="0.18377777777777382" fill="#252525" />
<rect x="2.270333333333286" y="1.8927777777777381" width="0.18377777777777382" height="0.18377777777777382" fill="#252525" />
<rect x="2.4591111111110595" y="1.8927777777777381" width="0.18377777777777382" height="0.18377777777777382" fill="#252525" />
<rect x="2.6478888888888337" y="1.8927777777777381" width="0.18377777777777382" height="0.18377777777777382" fill="#252525" />
<rect x="0.005" y="2.081555555555512" width="0.18377777777777382" height="0.18377777777777382" fill="#252525" />
<rect x="0.19377777777777383" y="2.081555555555512" width="0.18377777777777382" height="0.18377777777777382" fill="#252525" />
<rect x="0.38255555555554766" y="2.081555555555512" width="0.18377777777777382" height="0.18377777777777382" fill="#252525" />
<rect x="0.5713333333333215" y="2.081555555555512" width="0.18377777777777382" height="0.18377777777777382" fill="#FFDC00" />
<rect x="0.7601111111110953" y="2.081555555555512" width="0.18377777777777382" height="0.18377777777777382" fill="#252525" />
<rect x="0.9488888888888691" y="2.081555555555512" width="0.18377777777777382" height="0.18377777777777382" fill="#F012BE" />
<rect x="1.1376666666666428" y="2.081555555555512" width="0.18377777777777382" height="0.18377777777777382" fill="#252525" />
<rect x="1.3264444444444168" y="2.081555555555512" width="0.18377777777777382" height="0.18377777777777382" fill="#54D2EB" />
<rect x="1.5152222222221905" y="2.081555555555512" width="0.18377777777777382" height="0.18377777777777382" fill="#252525" />
<rect x="1.7039999999999642" y="2.081555555555512" width="0.18377777777777382" height="0.18377777777777382" fill="#252525" />
<rect x="1.8927777777777381" y="2.081555555555512" width="0.18377777777777382" height="0.18377777777777382" fill="#252525" />
<rect x="2.081555555555512" y="2.081555555555512" width="0.18377777777777382" height="0.18377777777777382" fill="#252525" />
<rect x="2.270333333333286" y="2.081555555555512" width="0.18377777777777382" height="0.18377777777777382" fill="#252525" />
<rect x="2.4591111111110595" y="2.081555555555512" width="0.18377777777777382" height="0.18377777777777382" fill="#252525" />
<rect x="2.6478888888888337" y="2.081555555555512" width="0.18377777777777382" height="0.18377777777777382" fill="#252525" />
<rect x="0.005" y="2.270333333333286" width="0.18377777777777382" height="0.18377777777777382" fill="#252525" />
<rect x="0.19377777777777383" y="2.270333333333286" width="0.18377777777777382" height="0.18377777777777382" fill="#252525" />
<rect x="0.38255555555554766" y="2.270333333333286" width="0.18377777777777382" height="0.18377777777777382" fill="#FFDC00" />
<rect x="0.5713333333333215" y="2.270333333333286" width="0.18377777777777382" height="0.18377777777777382" fill="#252525" />
<rect x="0.7601111111110953" y="2.270333333333286" width="0.18377777777777382" height="0.18377777777777382" fill="#F012BE" />
<rect x="0.9488888888888691" y="2.270333333333286" width="0.18377777777777382" height="0.18377777777777382" fill="#252525" />
<rect x="1.1376666666666428" y="2.270333333333286" width="0.18377777777777382" height="0.18377777777777382" fill="#54D2EB" />
<rect x="1.3264444444444168" y="2.270333333333286" width="0.18377777777777382" height="0.18377777777777382" fill="#252525" />
<rect x="1.5152222222221905" y="2.270333333333286" width="0.18377777777777382" height="0.18377777777777382" fill="#252525" />
<rect x="1.7039999999999642" y="2.270333333333286" width="0.18377777777777382" height="0.18377777777777382" fill="#252525" />
<rect x="1.8927777777777381" y="2.270333333333286" width="0.18377777777777382" height="0.18377777777777382" fill="#252525" />
<rect x="2.081555555555512" y="2.270333333333286" width="0.18377777777777382" height="0.18377777777777382" fill="#252525" />
<rect x="2.270333333333286" y="2.270333333333286" width="0.18377777777777382" height="0.18377777777777382" fill="#252525" />
<rect x="2.4591111111110595" y="2.270333333333286" width="0.18377777777777382" height="0.18377777777777382" fill="#252525" />
<rect x="2.6478888888888337" y="2.270333333333286" width="0.18377777777777382" height="0.18377777777777382" fill="#252525" />
<rect x="0.005" y="2.4591111111110595" width="0.18377777777777382" height="0.18377777777777382" fill="#252525" />
<rect x="0.19377777777777383" y="2.4591111111110595" width="0.18377777777777382" height="0.18377777777777382" fill="#FFDC00" />
<rect x="0.38255555555554766" y="2.4591111111110595" width="0.18377777777777382" height="0.18377777777777382" fill="#252525" />
<rect x="0.5713333333333215" y="2.4591111111110595" width="0.18377777777777382" height="0.18377777777777382" fill="#F012BE" />
<rect x="0.7601111111110953" y="2.4591111111110595" width="0.18377777777777382" height="0.18377777777777382" fill="#252525" />
<rect x="0.9488888888888691" y="2.4591111111110595" width="0.18377777777777382" height="0.18377777777777382" fill="#54D2EB" />
<rect x="1.1376666666666428" y="2.4591111111110595" width="0.18377777777777382" height="0.18377777777777382" fill="#252525" />
<rect x="1.3264444444444168" y="2.4591111111110595" width="0.18377777777777382" height="0.18377777777777382" fill="#252525" />
<rect x="1.5152222222221905" y="2.4591111111110595" width="0.18377777777777382" height="0.18377777777777382" fill="#252525" />
<rect x="1.7039999999999642" y="2.4591111111110595" width="0.18377777777777382" height="0.18377777777777382" fill="#252525" />
<rect x="1.8927777777777381" y="2.4591111111110595" width="0.18377777777777382" height="0.18377777777777382" fill="#252525" />
<rect x="2.081555555555512" y="2.4591111111110595" width="0.18377777777777382" height="0.18377777777777382" fill="#252525" />
<rect x="2.270333333333286" y="2.4591111111110595" width="0.18377777777777382" height="0.18377777777777382" fill="#252525" />
<rect x="2.4591111111110595" y="2.4591111111110595" width="0.18377777777777382" height="0.18377777777777382" fill="#252525" />
<rect x="2.6478888888888337" y="2.4591111111110595" width="0.18377777777777382" height="0.18377777777777382" fill="#252525" />
<rect x="0.005" y="2.6478888888888337" width="0.18377777777777382" height="0.18377777777777382" fill="#FFDC00" />
<rect x="0.19377777777777383" y="2.6478888888888337" width="0.18377777777777382" height="0.18377777777777382" fill="#252525" />
<rect x="0.38255555555554766" y="2.6478888888888337" width="0.18377777777777382" height="0.18377777777777382" fill="#F012BE" />
<rect x="0.5713333333333215" y="2.6478888888888337" width="0.18377777777777382" height="0.18377777777777382" fill="#252525" />
<rect x="0.7601111111110953" y="2.6478888888888337" width="0.18377777777777382" height="0.18377777777777382" fill="#54D2EB" />
<rect x="0.9488888888888691" y="2.6478888888888337" width="0.18377777777777382" height="0.18377777777777382" fill="#252525" />
<rect x="1.1376666666666428" y="2.6478888888888337" width="0.18377777777777382" height="0.18377777777777382" fill="#252525" />
<rect x="1.3264444444444168" y="2.6478888888888337" width="0.18377777777777382" height="0.18377777777777382" fill="#252525" />
<rect x="1.5152222222221905" y="2.6478888888888337" width="0.18377777777777382" height="0.18377777777777382" fill="#252525" />
<rect x="1.7039999999999642" y="2.6478888888888337" width="0.18377777777777382" height="0.18377777777777382" fill="#252525" />
<rect x="1.8927777777777381" y="2.6478888888888337" width="0.18377777777777382" height="0.18377777777777382" fill="#252525" />
<rect x="2.081555555555512" y="2.6478888888888337" width="0.18377777777777382" height="0.18377777777777382" fill="#252525" />
<rect x="2.270333333333286" y="2.6478888888888337" width="0.18377777777777382" height="0.18377777777777382" fill="#252525" />
<rect x="2.4591111111110595" y="2.6478888888888337" width="0.18377777777777382" height="0.18377777777777382" fill="#252525" />
<rect x="2.6478888888888337" y="2.6478888888888337" width="0.18377777777777382" height="0.18377777777777382" fill="#252525" />
<rect x="-0.02666666666666667" y="-0.02666666666666667" width="2.8849999999999407" height="2.8849999999999407" fill="none" stroke="#111111ff" stroke-width="0.08" />
<text x="2.8316666666666075" y="3.3004166666666075" font-size="0.375" fill="black" text-anchor="end" font-family="Anuphan">15x15</text>
<text x="-0.037500000000000006" y="3.3004166666666075" font-size="0.375" fill="black" text-anchor="start" font-family="Anuphan" font-weight="600">Output 3</text>
</g>
<g id="d9">
<rect x="0.005" y="0.005" width="0.18377777777777382" height="0.18377777777777382" fill="#252525" />
<rect x="0.19377777777777383" y="0.005" width="0.18377777777777382" height="0.18377777777777382" fill="#252525" />
<rect x="0.38255555555554766" y="0.005" width="0.18377777777777382" height="0.18377777777777382" fill="#252525" />
<rect x="0.5713333333333215" y="0.005" width="0.18377777777777382" height="0.18377777777777382" fill="#252525" />
<rect x="0.7601111111110953" y="0.005" width="0.18377777777777382" height="0.18377777777777382" fill="#252525" />
<rect x="0.9488888888888691" y="0.005" width="0.18377777777777382" height="0.18377777777777382" fill="#252525" />
<rect x="1.1376666666666428" y="0.005" width="0.18377777777777382" height="0.18377777777777382" fill="#252525" />
<rect x="1.3264444444444168" y="0.005" width="0.18377777777777382" height="0.18377777777777382" fill="#252525" />
<rect x="1.5152222222221905" y="0.005" width="0.18377777777777382" height="0.18377777777777382" fill="#252525" />
<rect x="1.7039999999999642" y="0.005" width="0.18377777777777382" height="0.18377777777777382" fill="#252525" />
<rect x="1.8927777777777381" y="0.005" width="0.18377777777777382" height="0.18377777777777382" fill="#252525" />
<rect x="2.081555555555512" y="0.005" width="0.18377777777777382" height="0.18377777777777382" fill="#252525" />
<rect x="2.270333333333286" y="0.005" width="0.18377777777777382" height="0.18377777777777382" fill="#252525" />
<rect x="2.4591111111110595" y="0.005" width="0.18377777777777382" height="0.18377777777777382" fill="#252525" />
<rect x="2.6478888888888337" y="0.005" width="0.18377777777777382" height="0.18377777777777382" fill="#252525" />
<rect x="0.005" y="0.19377777777777383" width="0.18377777777777382" height="0.18377777777777382" fill="#252525" />
<rect x="0.19377777777777383" y="0.19377777777777383" width="0.18377777777777382" height="0.18377777777777382" fill="#252525" />
<rect x="0.38255555555554766" y="0.19377777777777383" width="0.18377777777777382" height="0.18377777777777382" fill="#252525" />
<rect x="0.5713333333333215" y="0.19377777777777383" width="0.18377777777777382" height="0.18377777777777382" fill="#252525" />
<rect x="0.7601111111110953" y="0.19377777777777383" width="0.18377777777777382" height="0.18377777777777382" fill="#252525" />
<rect x="0.9488888888888691" y="0.19377777777777383" width="0.18377777777777382" height="0.18377777777777382" fill="#252525" />
<rect x="1.1376666666666428" y="0.19377777777777383" width="0.18377777777777382" height="0.18377777777777382" fill="#252525" />
<rect x="1.3264444444444168" y="0.19377777777777383" width="0.18377777777777382" height="0.18377777777777382" fill="#252525" />
<rect x="1.5152222222221905" y="0.19377777777777383" width="0.18377777777777382" height="0.18377777777777382" fill="#252525" />
<rect x="1.7039999999999642" y="0.19377777777777383" width="0.18377777777777382" height="0.18377777777777382" fill="#252525" />
<rect x="1.8927777777777381" y="0.19377777777777383" width="0.18377777777777382" height="0.18377777777777382" fill="#252525" />
<rect x="2.081555555555512" y="0.19377777777777383" width="0.18377777777777382" height="0.18377777777777382" fill="#252525" />
<rect x="2.270333333333286" y="0.19377777777777383" width="0.18377777777777382" height="0.18377777777777382" fill="#252525" />
<rect x="2.4591111111110595" y="0.19377777777777383" width="0.18377777777777382" height="0.18377777777777382" fill="#252525" />
<rect x="2.6478888888888337" y="0.19377777777777383" width="0.18377777777777382" height="0.18377777777777382" fill="#8D1D2C" />
<rect x="0.005" y="0.38255555555554766" width="0.18377777777777382" height="0.18377777777777382" fill="#252525" />
<rect x="0.19377777777777383" y="0.38255555555554766" width="0.18377777777777382" height="0.18377777777777382" fill="#252525" />
<rect x="0.38255555555554766" y="0.38255555555554766" width="0.18377777777777382" height="0.18377777777777382" fill="#252525" />
<rect x="0.5713333333333215" y="0.38255555555554766" width="0.18377777777777382" height="0.18377777777777382" fill="#252525" />
<rect x="0.7601111111110953" y="0.38255555555554766" width="0.18377777777777382" height="0.18377777777777382" fill="#252525" />
<rect x="0.9488888888888691" y="0.38255555555554766" width="0.18377777777777382" height="0.18377777777777382" fill="#252525" />
<rect x="1.1376666666666428" y="0.38255555555554766" width="0.18377777777777382" height="0.18377777777777382" fill="#252525" />
<rect x="1.3264444444444168" y="0.38255555555554766" width="0.18377777777777382" height="0.18377777777777382" fill="#252525" />
<rect x="1.5152222222221905" y="0.38255555555554766" width="0.18377777777777382" height="0.18377777777777382" fill="#252525" />
<rect x="1.7039999999999642" y="0.38255555555554766" width="0.18377777777777382" height="0.18377777777777382" fill="#252525" />
<rect x="1.8927777777777381" y="0.38255555555554766" width="0.18377777777777382" height="0.18377777777777382" fill="#252525" />
<rect x="2.081555555555512" y="0.38255555555554766" width="0.18377777777777382" height="0.18377777777777382" fill="#252525" />
<rect x="2.270333333333286" y="0.38255555555554766" width="0.18377777777777382" height="0.18377777777777382" fill="#252525" />
<rect x="2.4591111111110595" y="0.38255555555554766" width="0.18377777777777382" height="0.18377777777777382" fill="#8D1D2C" />
<rect x="2.6478888888888337" y="0.38255555555554766" width="0.18377777777777382" height="0.18377777777777382" fill="#252525" />
<rect x="0.005" y="0.5713333333333215" width="0.18377777777777382" height="0.18377777777777382" fill="#252525" />
<rect x="0.19377777777777383" y="0.5713333333333215" width="0.18377777777777382" height="0.18377777777777382" fill="#252525" />
<rect x="0.38255555555554766" y="0.5713333333333215" width="0.18377777777777382" height="0.18377777777777382" fill="#252525" />
<rect x="0.5713333333333215" y="0.5713333333333215" width="0.18377777777777382" height="0.18377777777777382" fill="#252525" />
<rect x="0.7601111111110953" y="0.5713333333333215" width="0.18377777777777382" height="0.18377777777777382" fill="#252525" />
<rect x="0.9488888888888691" y="0.5713333333333215" width="0.18377777777777382" height="0.18377777777777382" fill="#252525" />
<rect x="1.1376666666666428" y="0.5713333333333215" width="0.18377777777777382" height="0.18377777777777382" fill="#252525" />
<rect x="1.3264444444444168" y="0.5713333333333215" width="0.18377777777777382" height="0.18377777777777382" fill="#252525" />
<rect x="1.5152222222221905" y="0.5713333333333215" width="0.18377777777777382" height="0.18377777777777382" fill="#252525" />
<rect x="1.7039999999999642" y="0.5713333333333215" width="0.18377777777777382" height="0.18377777777777382" fill="#252525" />
<rect x="1.8927777777777381" y="0.5713333333333215" width="0.18377777777777382" height="0.18377777777777382" fill="#252525" />
<rect x="2.081555555555512" y="0.5713333333333215" width="0.18377777777777382" height="0.18377777777777382" fill="#252525" />
<rect x="2.270333333333286" y="0.5713333333333215" width="0.18377777777777382" height="0.18377777777777382" fill="#8D1D2C" />
<rect x="2.4591111111110595" y="0.5713333333333215" width="0.18377777777777382" height="0.18377777777777382" fill="#252525" />
<rect x="2.6478888888888337" y="0.5713333333333215" width="0.18377777777777382" height="0.18377777777777382" fill="#54D2EB" />
<rect x="0.005" y="0.7601111111110953" width="0.18377777777777382" height="0.18377777777777382" fill="#252525" />
<rect x="0.19377777777777383" y="0.7601111111110953" width="0.18377777777777382" height="0.18377777777777382" fill="#252525" />
<rect x="0.38255555555554766" y="0.7601111111110953" width="0.18377777777777382" height="0.18377777777777382" fill="#252525" />
<rect x="0.5713333333333215" y="0.7601111111110953" width="0.18377777777777382" height="0.18377777777777382" fill="#252525" />
<rect x="0.7601111111110953" y="0.7601111111110953" width="0.18377777777777382" height="0.18377777777777382" fill="#252525" />
<rect x="0.9488888888888691" y="0.7601111111110953" width="0.18377777777777382" height="0.18377777777777382" fill="#252525" />
<rect x="1.1376666666666428" y="0.7601111111110953" width="0.18377777777777382" height="0.18377777777777382" fill="#252525" />
<rect x="1.3264444444444168" y="0.7601111111110953" width="0.18377777777777382" height="0.18377777777777382" fill="#252525" />
<rect x="1.5152222222221905" y="0.7601111111110953" width="0.18377777777777382" height="0.18377777777777382" fill="#252525" />
<rect x="1.7039999999999642" y="0.7601111111110953" width="0.18377777777777382" height="0.18377777777777382" fill="#252525" />
<rect x="1.8927777777777381" y="0.7601111111110953" width="0.18377777777777382" height="0.18377777777777382" fill="#252525" />
<rect x="2.081555555555512" y="0.7601111111110953" width="0.18377777777777382" height="0.18377777777777382" fill="#8D1D2C" />
<rect x="2.270333333333286" y="0.7601111111110953" width="0.18377777777777382" height="0.18377777777777382" fill="#252525" />
<rect x="2.4591111111110595" y="0.7601111111110953" width="0.18377777777777382" height="0.18377777777777382" fill="#54D2EB" />
<rect x="2.6478888888888337" y="0.7601111111110953" width="0.18377777777777382" height="0.18377777777777382" fill="#FFDC00" />
<rect x="0.005" y="0.9488888888888691" width="0.18377777777777382" height="0.18377777777777382" fill="#252525" />
<rect x="0.19377777777777383" y="0.9488888888888691" width="0.18377777777777382" height="0.18377777777777382" fill="#252525" />
<rect x="0.38255555555554766" y="0.9488888888888691" width="0.18377777777777382" height="0.18377777777777382" fill="#252525" />
<rect x="0.5713333333333215" y="0.9488888888888691" width="0.18377777777777382" height="0.18377777777777382" fill="#252525" />
<rect x="0.7601111111110953" y="0.9488888888888691" width="0.18377777777777382" height="0.18377777777777382" fill="#252525" />
<rect x="0.9488888888888691" y="0.9488888888888691" width="0.18377777777777382" height="0.18377777777777382" fill="#252525" />
<rect x="1.1376666666666428" y="0.9488888888888691" width="0.18377777777777382" height="0.18377777777777382" fill="#252525" />
<rect x="1.3264444444444168" y="0.9488888888888691" width="0.18377777777777382" height="0.18377777777777382" fill="#252525" />
<rect x="1.5152222222221905" y="0.9488888888888691" width="0.18377777777777382" height="0.18377777777777382" fill="#252525" />
<rect x="1.7039999999999642" y="0.9488888888888691" width="0.18377777777777382" height="0.18377777777777382" fill="#252525" />
<rect x="1.8927777777777381" y="0.9488888888888691" width="0.18377777777777382" height="0.18377777777777382" fill="#8D1D2C" />
<rect x="2.081555555555512" y="0.9488888888888691" width="0.18377777777777382" height="0.18377777777777382" fill="#252525" />
<rect x="2.270333333333286" y="0.9488888888888691" width="0.18377777777777382" height="0.18377777777777382" fill="#54D2EB" />
<rect x="2.4591111111110595" y="0.9488888888888691" width="0.18377777777777382" height="0.18377777777777382" fill="#FFDC00" />
<rect x="2.6478888888888337" y="0.9488888888888691" width="0.18377777777777382" height="0.18377777777777382" fill="#252525" />
<rect x="0.005" y="1.1376666666666428" width="0.18377777777777382" height="0.18377777777777382" fill="#252525" />
<rect x="0.19377777777777383" y="1.1376666666666428" width="0.18377777777777382" height="0.18377777777777382" fill="#252525" />
<rect x="0.38255555555554766" y="1.1376666666666428" width="0.18377777777777382" height="0.18377777777777382" fill="#252525" />
<rect x="0.5713333333333215" y="1.1376666666666428" width="0.18377777777777382" height="0.18377777777777382" fill="#252525" />
<rect x="0.7601111111110953" y="1.1376666666666428" width="0.18377777777777382" height="0.18377777777777382" fill="#252525" />
<rect x="0.9488888888888691" y="1.1376666666666428" width="0.18377777777777382" height="0.18377777777777382" fill="#252525" />
<rect x="1.1376666666666428" y="1.1376666666666428" width="0.18377777777777382" height="0.18377777777777382" fill="#252525" />
<rect x="1.3264444444444168" y="1.1376666666666428" width="0.18377777777777382" height="0.18377777777777382" fill="#252525" />
<rect x="1.5152222222221905" y="1.1376666666666428" width="0.18377777777777382" height="0.18377777777777382" fill="#252525" />
<rect x="1.7039999999999642" y="1.1376666666666428" width="0.18377777777777382" height="0.18377777777777382" fill="#8D1D2C" />
<rect x="1.8927777777777381" y="1.1376666666666428" width="0.18377777777777382" height="0.18377777777777382" fill="#252525" />
<rect x="2.081555555555512" y="1.1376666666666428" width="0.18377777777777382" height="0.18377777777777382" fill="#54D2EB" />
<rect x="2.270333333333286" y="1.1376666666666428" width="0.18377777777777382" height="0.18377777777777382" fill="#FFDC00" />
<rect x="2.4591111111110595" y="1.1376666666666428" width="0.18377777777777382" height="0.18377777777777382" fill="#252525" />
<rect x="2.6478888888888337" y="1.1376666666666428" width="0.18377777777777382" height="0.18377777777777382" fill="#252525" />
<rect x="0.005" y="1.3264444444444168" width="0.18377777777777382" height="0.18377777777777382" fill="#252525" />
<rect x="0.19377777777777383" y="1.3264444444444168" width="0.18377777777777382" height="0.18377777777777382" fill="#252525" />
<rect x="0.38255555555554766" y="1.3264444444444168" width="0.18377777777777382" height="0.18377777777777382" fill="#252525" />
<rect x="0.5713333333333215" y="1.3264444444444168" width="0.18377777777777382" height="0.18377777777777382" fill="#252525" />
<rect x="0.7601111111110953" y="1.3264444444444168" width="0.18377777777777382" height="0.18377777777777382" fill="#252525" />
<rect x="0.9488888888888691" y="1.3264444444444168" width="0.18377777777777382" height="0.18377777777777382" fill="#252525" />
<rect x="1.1376666666666428" y="1.3264444444444168" width="0.18377777777777382" height="0.18377777777777382" fill="#252525" />
<rect x="1.3264444444444168" y="1.3264444444444168" width="0.18377777777777382" height="0.18377777777777382" fill="#252525" />
<rect x="1.5152222222221905" y="1.3264444444444168" width="0.18377777777777382" height="0.18377777777777382" fill="#8D1D2C" />
<rect x="1.7039999999999642" y="1.3264444444444168" width="0.18377777777777382" height="0.18377777777777382" fill="#252525" />
<rect x="1.8927777777777381" y="1.3264444444444168" width="0.18377777777777382" height="0.18377777777777382" fill="#54D2EB" />
<rect x="2.081555555555512" y="1.3264444444444168" width="0.18377777777777382" height="0.18377777777777382" fill="#FFDC00" />
<rect x="2.270333333333286" y="1.3264444444444168" width="0.18377777777777382" height="0.18377777777777382" fill="#252525" />
<rect x="2.4591111111110595" y="1.3264444444444168" width="0.18377777777777382" height="0.18377777777777382" fill="#252525" />
<rect x="2.6478888888888337" y="1.3264444444444168" width="0.18377777777777382" height="0.18377777777777382" fill="#252525" />
<rect x="0.005" y="1.5152222222221905" width="0.18377777777777382" height="0.18377777777777382" fill="#252525" />
<rect x="0.19377777777777383" y="1.5152222222221905" width="0.18377777777777382" height="0.18377777777777382" fill="#252525" />
<rect x="0.38255555555554766" y="1.5152222222221905" width="0.18377777777777382" height="0.18377777777777382" fill="#252525" />
<rect x="0.5713333333333215" y="1.5152222222221905" width="0.18377777777777382" height="0.18377777777777382" fill="#252525" />
<rect x="0.7601111111110953" y="1.5152222222221905" width="0.18377777777777382" height="0.18377777777777382" fill="#252525" />
<rect x="0.9488888888888691" y="1.5152222222221905" width="0.18377777777777382" height="0.18377777777777382" fill="#252525" />
<rect x="1.1376666666666428" y="1.5152222222221905" width="0.18377777777777382" height="0.18377777777777382" fill="#252525" />
<rect x="1.3264444444444168" y="1.5152222222221905" width="0.18377777777777382" height="0.18377777777777382" fill="#8D1D2C" />
<rect x="1.5152222222221905" y="1.5152222222221905" width="0.18377777777777382" height="0.18377777777777382" fill="#252525" />
<rect x="1.7039999999999642" y="1.5152222222221905" width="0.18377777777777382" height="0.18377777777777382" fill="#54D2EB" />
<rect x="1.8927777777777381" y="1.5152222222221905" width="0.18377777777777382" height="0.18377777777777382" fill="#FFDC00" />
<rect x="2.081555555555512" y="1.5152222222221905" width="0.18377777777777382" height="0.18377777777777382" fill="#252525" />
<rect x="2.270333333333286" y="1.5152222222221905" width="0.18377777777777382" height="0.18377777777777382" fill="#252525" />
<rect x="2.4591111111110595" y="1.5152222222221905" width="0.18377777777777382" height="0.18377777777777382" fill="#252525" />
<rect x="2.6478888888888337" y="1.5152222222221905" width="0.18377777777777382" height="0.18377777777777382" fill="#252525" />
<rect x="0.005" y="1.7039999999999642" width="0.18377777777777382" height="0.18377777777777382" fill="#252525" />
<rect x="0.19377777777777383" y="1.7039999999999642" width="0.18377777777777382" height="0.18377777777777382" fill="#252525" />
<rect x="0.38255555555554766" y="1.7039999999999642" width="0.18377777777777382" height="0.18377777777777382" fill="#252525" />
<rect x="0.5713333333333215" y="1.7039999999999642" width="0.18377777777777382" height="0.18377777777777382" fill="#252525" />
<rect x="0.7601111111110953" y="1.7039999999999642" width="0.18377777777777382" height="0.18377777777777382" fill="#252525" />
<rect x="0.9488888888888691" y="1.7039999999999642" width="0.18377777777777382" height="0.18377777777777382" fill="#252525" />
<rect x="1.1376666666666428" y="1.7039999999999642" width="0.18377777777777382" height="0.18377777777777382" fill="#8D1D2C" />
<rect x="1.3264444444444168" y="1.7039999999999642" width="0.18377777777777382" height="0.18377777777777382" fill="#252525" />
<rect x="1.5152222222221905" y="1.7039999999999642" width="0.18377777777777382" height="0.18377777777777382" fill="#54D2EB" />
<rect x="1.7039999999999642" y="1.7039999999999642" width="0.18377777777777382" height="0.18377777777777382" fill="#FFDC00" />
<rect x="1.8927777777777381" y="1.7039999999999642" width="0.18377777777777382" height="0.18377777777777382" fill="#252525" />
<rect x="2.081555555555512" y="1.7039999999999642" width="0.18377777777777382" height="0.18377777777777382" fill="#252525" />
<rect x="2.270333333333286" y="1.7039999999999642" width="0.18377777777777382" height="0.18377777777777382" fill="#252525" />
<rect x="2.4591111111110595" y="1.7039999999999642" width="0.18377777777777382" height="0.18377777777777382" fill="#252525" />
<rect x="2.6478888888888337" y="1.7039999999999642" width="0.18377777777777382" height="0.18377777777777382" fill="#252525" />
<rect x="0.005" y="1.8927777777777381" width="0.18377777777777382" height="0.18377777777777382" fill="#252525" />
<rect x="0.19377777777777383" y="1.8927777777777381" width="0.18377777777777382" height="0.18377777777777382" fill="#252525" />
<rect x="0.38255555555554766" y="1.8927777777777381" width="0.18377777777777382" height="0.18377777777777382" fill="#252525" />
<rect x="0.5713333333333215" y="1.8927777777777381" width="0.18377777777777382" height="0.18377777777777382" fill="#252525" />
<rect x="0.7601111111110953" y="1.8927777777777381" width="0.18377777777777382" height="0.18377777777777382" fill="#252525" />
<rect x="0.9488888888888691" y="1.8927777777777381" width="0.18377777777777382" height="0.18377777777777382" fill="#8D1D2C" />
<rect x="1.1376666666666428" y="1.8927777777777381" width="0.18377777777777382" height="0.18377777777777382" fill="#252525" />
<rect x="1.3264444444444168" y="1.8927777777777381" width="0.18377777777777382" height="0.18377777777777382" fill="#54D2EB" />
<rect x="1.5152222222221905" y="1.8927777777777381" width="0.18377777777777382" height="0.18377777777777382" fill="#FFDC00" />
<rect x="1.7039999999999642" y="1.8927777777777381" width="0.18377777777777382" height="0.18377777777777382" fill="#252525" />
<rect x="1.8927777777777381" y="1.8927777777777381" width="0.18377777777777382" height="0.18377777777777382" fill="#252525" />
<rect x="2.081555555555512" y="1.8927777777777381" width="0.18377777777777382" height="0.18377777777777382" fill="#252525" />
<rect x="2.270333333333286" y="1.8927777777777381" width="0.18377777777777382" height="0.18377777777777382" fill="#252525" />
<rect x="2.4591111111110595" y="1.8927777777777381" width="0.18377777777777382" height="0.18377777777777382" fill="#252525" />
<rect x="2.6478888888888337" y="1.8927777777777381" width="0.18377777777777382" height="0.18377777777777382" fill="#252525" />
<rect x="0.005" y="2.081555555555512" width="0.18377777777777382" height="0.18377777777777382" fill="#252525" />
<rect x="0.19377777777777383" y="2.081555555555512" width="0.18377777777777382" height="0.18377777777777382" fill="#252525" />
<rect x="0.38255555555554766" y="2.081555555555512" width="0.18377777777777382" height="0.18377777777777382" fill="#252525" />
<rect x="0.5713333333333215" y="2.081555555555512" width="0.18377777777777382" height="0.18377777777777382" fill="#252525" />
<rect x="0.7601111111110953" y="2.081555555555512" width="0.18377777777777382" height="0.18377777777777382" fill="#8D1D2C" />
<rect x="0.9488888888888691" y="2.081555555555512" width="0.18377777777777382" height="0.18377777777777382" fill="#252525" />
<rect x="1.1376666666666428" y="2.081555555555512" width="0.18377777777777382" height="0.18377777777777382" fill="#54D2EB" />
<rect x="1.3264444444444168" y="2.081555555555512" width="0.18377777777777382" height="0.18377777777777382" fill="#FFDC00" />
<rect x="1.5152222222221905" y="2.081555555555512" width="0.18377777777777382" height="0.18377777777777382" fill="#252525" />
<rect x="1.7039999999999642" y="2.081555555555512" width="0.18377777777777382" height="0.18377777777777382" fill="#252525" />
<rect x="1.8927777777777381" y="2.081555555555512" width="0.18377777777777382" height="0.18377777777777382" fill="#252525" />
<rect x="2.081555555555512" y="2.081555555555512" width="0.18377777777777382" height="0.18377777777777382" fill="#252525" />
<rect x="2.270333333333286" y="2.081555555555512" width="0.18377777777777382" height="0.18377777777777382" fill="#252525" />
<rect x="2.4591111111110595" y="2.081555555555512" width="0.18377777777777382" height="0.18377777777777382" fill="#252525" />
<rect x="2.6478888888888337" y="2.081555555555512" width="0.18377777777777382" height="0.18377777777777382" fill="#252525" />
<rect x="0.005" y="2.270333333333286" width="0.18377777777777382" height="0.18377777777777382" fill="#252525" />
<rect x="0.19377777777777383" y="2.270333333333286" width="0.18377777777777382" height="0.18377777777777382" fill="#252525" />
<rect x="0.38255555555554766" y="2.270333333333286" width="0.18377777777777382" height="0.18377777777777382" fill="#252525" />
<rect x="0.5713333333333215" y="2.270333333333286" width="0.18377777777777382" height="0.18377777777777382" fill="#8D1D2C" />
<rect x="0.7601111111110953" y="2.270333333333286" width="0.18377777777777382" height="0.18377777777777382" fill="#252525" />
<rect x="0.9488888888888691" y="2.270333333333286" width="0.18377777777777382" height="0.18377777777777382" fill="#54D2EB" />
<rect x="1.1376666666666428" y="2.270333333333286" width="0.18377777777777382" height="0.18377777777777382" fill="#FFDC00" />
<rect x="1.3264444444444168" y="2.270333333333286" width="0.18377777777777382" height="0.18377777777777382" fill="#252525" />
<rect x="1.5152222222221905" y="2.270333333333286" width="0.18377777777777382" height="0.18377777777777382" fill="#252525" />
<rect x="1.7039999999999642" y="2.270333333333286" width="0.18377777777777382" height="0.18377777777777382" fill="#252525" />
<rect x="1.8927777777777381" y="2.270333333333286" width="0.18377777777777382" height="0.18377777777777382" fill="#252525" />
<rect x="2.081555555555512" y="2.270333333333286" width="0.18377777777777382" height="0.18377777777777382" fill="#252525" />
<rect x="2.270333333333286" y="2.270333333333286" width="0.18377777777777382" height="0.18377777777777382" fill="#252525" />
<rect x="2.4591111111110595" y="2.270333333333286" width="0.18377777777777382" height="0.18377777777777382" fill="#252525" />
<rect x="2.6478888888888337" y="2.270333333333286" width="0.18377777777777382" height="0.18377777777777382" fill="#252525" />
<rect x="0.005" y="2.4591111111110595" width="0.18377777777777382" height="0.18377777777777382" fill="#252525" />
<rect x="0.19377777777777383" y="2.4591111111110595" width="0.18377777777777382" height="0.18377777777777382" fill="#252525" />
<rect x="0.38255555555554766" y="2.4591111111110595" width="0.18377777777777382" height="0.18377777777777382" fill="#8D1D2C" />
<rect x="0.5713333333333215" y="2.4591111111110595" width="0.18377777777777382" height="0.18377777777777382" fill="#252525" />
<rect x="0.7601111111110953" y="2.4591111111110595" width="0.18377777777777382" height="0.18377777777777382" fill="#54D2EB" />
<rect x="0.9488888888888691" y="2.4591111111110595" width="0.18377777777777382" height="0.18377777777777382" fill="#FFDC00" />
<rect x="1.1376666666666428" y="2.4591111111110595" width="0.18377777777777382" height="0.18377777777777382" fill="#252525" />
<rect x="1.3264444444444168" y="2.4591111111110595" width="0.18377777777777382" height="0.18377777777777382" fill="#252525" />
<rect x="1.5152222222221905" y="2.4591111111110595" width="0.18377777777777382" height="0.18377777777777382" fill="#252525" />
<rect x="1.7039999999999642" y="2.4591111111110595" width="0.18377777777777382" height="0.18377777777777382" fill="#252525" />
<rect x="1.8927777777777381" y="2.4591111111110595" width="0.18377777777777382" height="0.18377777777777382" fill="#252525" />
<rect x="2.081555555555512" y="2.4591111111110595" width="0.18377777777777382" height="0.18377777777777382" fill="#252525" />
<rect x="2.270333333333286" y="2.4591111111110595" width="0.18377777777777382" height="0.18377777777777382" fill="#252525" />
<rect x="2.4591111111110595" y="2.4591111111110595" width="0.18377777777777382" height="0.18377777777777382" fill="#252525" />
<rect x="2.6478888888888337" y="2.4591111111110595" width="0.18377777777777382" height="0.18377777777777382" fill="#252525" />
<rect x="0.005" y="2.6478888888888337" width="0.18377777777777382" height="0.18377777777777382" fill="#252525" />
<rect x="0.19377777777777383" y="2.6478888888888337" width="0.18377777777777382" height="0.18377777777777382" fill="#8D1D2C" />
<rect x="0.38255555555554766" y="2.6478888888888337" width="0.18377777777777382" height="0.18377777777777382" fill="#252525" />
<rect x="0.5713333333333215" y="2.6478888888888337" width="0.18377777777777382" height="0.18377777777777382" fill="#54D2EB" />
<rect x="0.7601111111110953" y="2.6478888888888337" width="0.18377777777777382" height="0.18377777777777382" fill="#FFDC00" />
<rect x="0.9488888888888691" y="2.6478888888888337" width="0.18377777777777382" height="0.18377777777777382" fill="#252525" />
<rect x="1.1376666666666428" y="2.6478888888888337" width="0.18377777777777382" height="0.18377777777777382" fill="#252525" />
<rect x="1.3264444444444168" y="2.6478888888888337" width="0.18377777777777382" height="0.18377777777777382" fill="#252525" />
<rect x="1.5152222222221905" y="2.6478888888888337" width="0.18377777777777382" height="0.18377777777777382" fill="#252525" />
<rect x="1.7039999999999642" y="2.6478888888888337" width="0.18377777777777382" height="0.18377777777777382" fill="#252525" />
<rect x="1.8927777777777381" y="2.6478888888888337" width="0.18377777777777382" height="0.18377777777777382" fill="#252525" />
<rect x="2.081555555555512" y="2.6478888888888337" width="0.18377777777777382" height="0.18377777777777382" fill="#252525" />
<rect x="2.270333333333286" y="2.6478888888888337" width="0.18377777777777382" height="0.18377777777777382" fill="#252525" />
<rect x="2.4591111111110595" y="2.6478888888888337" width="0.18377777777777382" height="0.18377777777777382" fill="#252525" />
<rect x="2.6478888888888337" y="2.6478888888888337" width="0.18377777777777382" height="0.18377777777777382" fill="#252525" />
<rect x="-0.02666666666666667" y="-0.02666666666666667" width="2.8849999999999407" height="2.8849999999999407" fill="none" stroke="#111111ff" stroke-width="0.08" />
<text x="2.8316666666666075" y="3.3004166666666075" font-size="0.375" fill="black" text-anchor="end" font-family="Anuphan">15x15</text>
<text x="-0.037500000000000006" y="3.3004166666666075" font-size="0.375" fill="black" text-anchor="start" font-family="Anuphan" font-weight="600">Output 4</text>
</g>
<g id="d10">
<rect x="0.005" y="0.005" width="0.5613333333333215" height="0.5613333333333215" fill="#252525" />
<rect x="0.5713333333333215" y="0.005" width="0.5613333333333215" height="0.5613333333333215" fill="#252525" />
<rect x="1.1376666666666428" y="0.005" width="0.5613333333333215" height="0.5613333333333215" fill="#252525" />
<rect x="1.7039999999999642" y="0.005" width="0.5613333333333215" height="0.5613333333333215" fill="#252525" />
<rect x="2.270333333333286" y="0.005" width="0.5613333333333215" height="0.5613333333333215" fill="#252525" />
<rect x="0.005" y="0.5713333333333215" width="0.5613333333333215" height="0.5613333333333215" fill="#252525" />
<rect x="0.5713333333333215" y="0.5713333333333215" width="0.5613333333333215" height="0.5613333333333215" fill="#252525" />
<rect x="1.1376666666666428" y="0.5713333333333215" width="0.5613333333333215" height="0.5613333333333215" fill="#252525" />
<rect x="1.7039999999999642" y="0.5713333333333215" width="0.5613333333333215" height="0.5613333333333215" fill="#252525" />
<rect x="2.270333333333286" y="0.5713333333333215" width="0.5613333333333215" height="0.5613333333333215" fill="#FFDC00" />
<rect x="0.005" y="1.1376666666666428" width="0.5613333333333215" height="0.5613333333333215" fill="#252525" />
<rect x="0.5713333333333215" y="1.1376666666666428" width="0.5613333333333215" height="0.5613333333333215" fill="#252525" />
<rect x="1.1376666666666428" y="1.1376666666666428" width="0.5613333333333215" height="0.5613333333333215" fill="#252525" />
<rect x="1.7039999999999642" y="1.1376666666666428" width="0.5613333333333215" height="0.5613333333333215" fill="#FFDC00" />
<rect x="2.270333333333286" y="1.1376666666666428" width="0.5613333333333215" height="0.5613333333333215" fill="#252525" />
<rect x="0.005" y="1.7039999999999642" width="0.5613333333333215" height="0.5613333333333215" fill="#252525" />
<rect x="0.5713333333333215" y="1.7039999999999642" width="0.5613333333333215" height="0.5613333333333215" fill="#252525" />
<rect x="1.1376666666666428" y="1.7039999999999642" width="0.5613333333333215" height="0.5613333333333215" fill="#FFDC00" />
<rect x="1.7039999999999642" y="1.7039999999999642" width="0.5613333333333215" height="0.5613333333333215" fill="#252525" />
<rect x="2.270333333333286" y="1.7039999999999642" width="0.5613333333333215" height="0.5613333333333215" fill="#252525" />
<rect x="0.005" y="2.270333333333286" width="0.5613333333333215" height="0.5613333333333215" fill="#252525" />
<rect x="0.5713333333333215" y="2.270333333333286" width="0.5613333333333215" height="0.5613333333333215" fill="#FFDC00" />
<rect x="1.1376666666666428" y="2.270333333333286" width="0.5613333333333215" height="0.5613333333333215" fill="#252525" />
<rect x="1.7039999999999642" y="2.270333333333286" width="0.5613333333333215" height="0.5613333333333215" fill="#252525" />
<rect x="2.270333333333286" y="2.270333333333286" width="0.5613333333333215" height="0.5613333333333215" fill="#252525" />
<rect x="-0.02666666666666667" y="-0.02666666666666667" width="2.8849999999999407" height="2.8849999999999407" fill="none" stroke="#111111ff" stroke-width="0.08" />
<text x="2.8316666666666075" y="3.3004166666666075" font-size="0.375" fill="black" text-anchor="end" font-family="Anuphan">5x5</text>
<text x="-0.037500000000000006" y="3.3004166666666075" font-size="0.375" fill="black" text-anchor="start" font-family="Anuphan" font-weight="600">Output 5</text>
</g>
</defs>
<rect x="0" y="0" width="100%" height="100%" fill="#eeeff6" />
<use xlink:href="#d0" x="0.25" y="0.25" />
<use xlink:href="#d1" x="3.5816666666666075" y="0.25" />
<use xlink:href="#d2" x="6.913333333333215" y="0.25" />
<use xlink:href="#d3" x="10.244999999999823" y="0.25" />
<use xlink:href="#d4" x="13.57666666666643" y="0.25" />
<use xlink:href="#d5" x="16.908333333333037" y="0.25" />
<path d="M1.6658333333333037,1.4663333333333215 L1.6658333333333037,1.8663333333333214" stroke-width="0.05" stroke="#888888" />
<path d="M1.5158333333333038,1.6663333333333215 L1.6658333333333037,1.8663333333333214" stroke-width="0.05" stroke="#888888" />
<path d="M1.8158333333333037,1.6663333333333215 L1.6658333333333037,1.8663333333333214" stroke-width="0.05" stroke="#888888" />
<use xlink:href="#d6" x="0.25" y="2.2163333333333215" />
<path d="M4.997499999999912,1.4663333333333215 L4.997499999999912,1.8663333333333214" stroke-width="0.05" stroke="#888888" />
<path d="M4.847499999999911,1.6663333333333215 L4.997499999999912,1.8663333333333214" stroke-width="0.05" stroke="#888888" />
<path d="M5.147499999999912,1.6663333333333215 L4.997499999999912,1.8663333333333214" stroke-width="0.05" stroke="#888888" />
<use xlink:href="#d7" x="3.5816666666666075" y="2.2163333333333215" />
<path d="M8.329166666666518,1.4663333333333215 L8.329166666666518,1.8663333333333214" stroke-width="0.05" stroke="#888888" />
<path d="M8.179166666666518,1.6663333333333215 L8.329166666666518,1.8663333333333214" stroke-width="0.05" stroke="#888888" />
<path d="M8.479166666666519,1.6663333333333215 L8.329166666666518,1.8663333333333214" stroke-width="0.05" stroke="#888888" />
<use xlink:href="#d8" x="6.913333333333215" y="2.2163333333333215" />
<path d="M11.660833333333127,1.4663333333333215 L11.660833333333127,1.8663333333333214" stroke-width="0.05" stroke="#888888" />
<path d="M11.510833333333126,1.6663333333333215 L11.660833333333127,1.8663333333333214" stroke-width="0.05" stroke="#888888" />
<path d="M11.810833333333127,1.6663333333333215 L11.660833333333127,1.8663333333333214" stroke-width="0.05" stroke="#888888" />
<use xlink:href="#d9" x="10.244999999999823" y="2.2163333333333215" />
<path d="M14.992499999999733,1.4663333333333215 L14.992499999999733,1.8663333333333214" stroke-width="0.05" stroke="#888888" />
<path d="M14.842499999999733,1.6663333333333215 L14.992499999999733,1.8663333333333214" stroke-width="0.05" stroke="#888888" />
<path d="M15.142499999999734,1.6663333333333215 L14.992499999999733,1.8663333333333214" stroke-width="0.05" stroke="#888888" />
<use xlink:href="#d10" x="13.57666666666643" y="2.2163333333333215" />
<path d="M18.32416666666634,1.4663333333333215 L18.32416666666634,1.8663333333333214" stroke-width="0.05" stroke="#888888" />
<path d="M18.17416666666634,1.6663333333333215 L18.32416666666634,1.8663333333333214" stroke-width="0.05" stroke="#888888" />
<path d="M18.47416666666634,1.6663333333333215 L18.32416666666634,1.8663333333333214" stroke-width="0.05" stroke="#888888" />
<text x="18.32416666666634" y="3.7321666666666253" font-size="1" font-family="Anuphan" font-weight="700" fill="#333333" text-anchor="middle" alignment-baseline="middle">?</text>
<text x="19.9" y="5.8999999999999995" font-size="0.3" font-family="Anuphan" font-weight="600" fill="#666666" text-anchor="end" alignment-baseline="bottom">Task feca6190</text>
</svg>