<?xml version="1.0" encoding="UTF-8"?>
<svg xmlns="http://www.w3.org/2000/svg" xmlns:xlink="http://www.w3.org/1999/xlink"
     width="320.0" height="536.0" viewBox="0 0 8.0 13.399999999999999">
<defs>
<g id="d0">
<rect x="0.005" y="0.005" width="0.5350000000000057" height="0.5350000000000057" fill="#252525" />
<rect x="0.5450000000000057" y="0.005" width="0.5350000000000057" height="0.5350000000000057" fill="#252525" />
<rect x="1.0850000000000113" y="0.005" width="0.5350000000000057" height="0.5350000000000057" fill="#252525" />
<rect x="1.6250000000000169" y="0.005" width="0.5350000000000057" height="0.5350000000000057" fill="#252525" />
<rect x="0.005" y="0.5450000000000057" width="0.5350000000000057" height="0.5350000000000057" fill="#252525" />
<rect x="0.5450000000000057" y="0.5450000000000057" width="0.5350000000000057" height="0.5350000000000057" fill="#252525" />
<rect x="1.0850000000000113" y="0.5450000000000057" width="0.5350000000000057" height="0.5350000000000057" fill="#252525" />
<rect x="1.6250000000000169" y="0.5450000000000057" width="0.5350000000000057" height="0.5350000000000057" fill="#252525" />
<rect x="0.005" y="1.0850000000000113" width="0.5350000000000057" height="0.5350000000000057" fill="#252525" />
<rect x="0.5450000000000057" y="1.0850000000000113" width="0.5350000000000057" height="0.5350000000000057" fill="#252525" />
<rect x="1.0850000000000113" y="1.0850000000000113" width="0.5350000000000057" height="0.5350000000000057" fill="#252525" />
<rect x="1.6250000000000169" y="1.0850000000000113" width="0.5350000000000057" height="0.5350000000000057" fill="#252525" />
<rect x="0.005" y="1.6250000000000169" width="0.5350000000000057" height="0.5350000000000057" fill="#252525" />
<rect x="0.5450000000000057" y="1.6250000000000169" width="0.5350000000000057" height="0.5350000000000057" fill="#252525" />
<rect x="1.0850000000000113" y="1.6250000000000169" width="0.5350000000000057" height="0.5350000000000057" fill="#252525" />
<rect x="1.6250000000000169" y="1.6250000000000169" width="0.5350000000000057" height="0.5350000000000057" fill="#252525" />
<rect x="0.005" y="2.1650000000000227" width="0.5350000000000057" height="0.5350000000000057" fill="#252525" />
<rect x="0.5450000000000057" y="2.1650000000000227" width="0.5350000000000057" height="0.5350000000000057" fill="#252525" />
<rect x="1.0850000000000113" y="2.1650000000000227" width="0.5350000000000057" height="0.5350000000000057" fill="#252525" />
<rect x="1.6250000000000169" y="2.1650000000000227" width="0.5350000000000057" height="0.5350000000000057" fill="#252525" />
<rect x="0.005" y="2.7050000000000285" width="0.5350000000000057" height="0.5350000000000057" fill="#252525" />
<rect x="0.5450000000000057" y="2.7050000000000285" width="0.5350000000000057" height="0.5350000000000057" fill="#252525" />
<rect x="1.0850000000000113" y="2.7050000000000285" width="0.5350000000000057" height="0.5350000000000057" fill="#252525" />
<rect x="1.6250000000000169" y="2.7050000000000285" width="0.5350000000000057" height="0.5350000000000057" fill="#8D1D2C" />
<rect x="0.005" y="3.245000000000034" width="0.5350000000000057" height="0.5350000000000057" fill="#252525" />
<rect x="0.5450000000000057" y="3.245000000000034" width="0.5350000000000057" height="0.5350000000000057" fill="#252525" />
<rect x="1.0850000000000113" y="3.245000000000034" width="0.5350000000000057" height="0.5350000000000057" fill="#37D449" />
<rect x="1.6250000000000169" y="3.245000000000034" width="0.5350000000000057" height="0.5350000000000057" fill="#8D1D2C" />
<rect x="0.005" y="3.7850000000000397" width="0.5350000000000057" height="0.5350000000000057" fill="#252525" />
<rect x="0.5450000000000057" y="3.7850000000000397" width="0.5350000000000057" height="0.5350000000000057" fill="#252525" />
<rect x="1.0850000000000113" y="3.7850000000000397" width="0.5350000000000057" height="0.5350000000000057" fill="#37D449" />
<rect x="1.6250000000000169" y="3.7850000000000397" width="0.5350000000000057" height="0.5350000000000057" fill="#8D1D2C" />
<rect x="0.005" y="4.3250000000000455" width="0.5350000000000057" height="0.5350000000000057" fill="#FF4136" />
<rect x="0.5450000000000057" y="4.3250000000000455" width="0.5350000000000057" height="0.5350000000000057" fill="#252525" />
<rect x="1.0850000000000113" y="4.3250000000000455" width="0.5350000000000057" height="0.5350000000000057" fill="#37D449" />
<rect x="1.6250000000000169" y="4.3250000000000455" width="0.5350000000000057" height="0.5350000000000057" fill="#8D1D2C" />
<rect x="0.005" y="4.865000000000051" width="0.5350000000000057" height="0.5350000000000057" fill="#FF4136" />
<rect x="0.5450000000000057" y="4.865000000000051" width="0.5350000000000057" height="0.5350000000000057" fill="#FFDC00" />
<rect x="1.0850000000000113" y="4.865000000000051" width="0.5350000000000057" height="0.5350000000000057" fill="#37D449" />
<rect x="1.6250000000000169" y="4.865000000000051" width="0.5350000000000057" height="0.5350000000000057" fill="#8D1D2C" />
<rect x="-0.02666666666666667" y="-0.02666666666666667" width="2.213333333333356" height="5.453333333333391" fill="none" stroke="#111111ff" stroke-width="0.08" />
<text x="2.160000000000023" y="5.868750000000057" font-size="0.375" fill="black" text-anchor="end" font-family="Anuphan">4x10</text>
<text x="-0.037500000000000006" y="5.868750000000057" font-size="0.375" fill="black" text-anchor="start" font-family="Anuphan" font-weight="600">Input 1</text>
</g>
<g id="d1">
<rect x="0.005" y="0.005" width="0.5350000000000057" height="0.5350000000000057" fill="#252525" />
<rect x="0.5450000000000057" y="0.005" width="0.5350000000000057" height="0.5350000000000057" fill="#252525" />
<rect x="1.0850000000000113" y="0.005" width="0.5350000000000057" height="0.5350000000000057" fill="#252525" />
<rect x="1.6250000000000169" y="0.005" width="0.5350000000000057" height="0.5350000000000057" fill="#252525" />
<rect x="0.005" y="0.5450000000000057" width="0.5350000000000057" height="0.5350000000000057" fill="#252525" />
<rect x="0.5450000000000057" y="0.5450000000000057" width="0.5350000000000057" height="0.5350000000000057" fill="#252525" />
<rect x="1.0850000000000113" y="0.5450000000000057" width="0.5350000000000057" height="0.5350000000000057" fill="#252525" />
<rect x="1.6250000000000169" y="0.5450000000000057" width="0.5350000000000057" height="0.5350000000000057" fill="#252525" />
<rect x="0.005" y="1.0850000000000113" width="0.5350000000000057" height="0.5350000000000057" fill="#252525" />
<rect x="0.5450000000000057" y="1.0850000000000113" width="0.5350000000000057" height="0.5350000000000057" fill="#252525" />
<rect x="1.0850000000000113" y="1.0850000000000113" width="0.5350000000000057" height="0.5350000000000057" fill="#252525" />
<rect x="1.6250000000000169" y="1.0850000000000113" width="0.5350000000000057" height="0.5350000000000057" fill="#252525" />
<rect x="0.005" y="1.6250000000000169" width="0.5350000000000057" height="0.5350000000000057" fill="#252525" />
<rect x="0.5450000000000057" y="1.6250000000000169" width="0.5350000000000057" height="0.5350000000000057" fill="#252525" />
<rect x="1.0850000000000113" y="1.6250000000000169" width="0.5350000000000057" height="0.5350000000000057" fill="#252525" />
<rect x="1.6250000000000169" y="1.6250000000000169" width="0.5350000000000057" height="0.5350000000000057" fill="#252525" />
<rect x="0.005" y="2.1650000000000227" width="0.5350000000000057" height="0.5350000000000057" fill="#252525" />
<rect x="0.5450000000000057" y="2.1650000000000227" width="0.5350000000000057" height="0.5350000000000057" fill="#252525" />
<rect x="1.0850000000000113" y="2.1650000000000227" width="0.5350000000000057" height="0.5350000000000057" fill="#252525" />
<rect x="1.6250000000000169" y="2.1650000000000227" width="0.5350000000000057" height="0.5350000000000057" fill="#252525" />
<rect x="0.005" y="2.7050000000000285" width="0.5350000000000057" height="0.5350000000000057" fill="#252525" />
<rect x="0.5450000000000057" y="2.7050000000000285" width="0.5350000000000057" height="0.5350000000000057" fill="#252525" />
<rect x="1.0850000000000113" y="2.7050000000000285" width="0.5350000000000057" height="0.5350000000000057" fill="#252525" />
<rect x="1.6250000000000169" y="2.7050000000000285" width="0.5350000000000057" height="0.5350000000000057" fill="#FF4136" />
<rect x="0.005" y="3.245000000000034" width="0.5350000000000057" height="0.5350000000000057" fill="#252525" />
<rect x="0.5450000000000057" y="3.245000000000034" width="0.5350000000000057" height="0.5350000000000057" fill="#252525" />
<rect x="1.0850000000000113" y="3.245000000000034" width="0.5350000000000057" height="0.5350000000000057" fill="#252525" />
<rect x="1.6250000000000169" y="3.245000000000034" width="0.5350000000000057" height="0.5350000000000057" fill="#FF4136" />
<rect x="0.005" y="3.7850000000000397" width="0.5350000000000057" height="0.5350000000000057" fill="#252525" />
<rect x="0.5450000000000057" y="3.7850000000000397" width="0.5350000000000057" height="0.5350000000000057" fill="#54D2EB" />
<rect x="1.0850000000000113" y="3.7850000000000397" width="0.5350000000000057" height="0.5350000000000057" fill="#252525" />
<rect x="1.6250000000000169" y="3.7850000000000397" width="0.5350000000000057" height="0.5350000000000057" fill="#FF4136" />
<rect x="0.005" y="4.3250000000000455" width="0.5350000000000057" height="0.5350000000000057" fill="#252525" />
<rect x="0.5450000000000057" y="4.3250000000000455" width="0.5350000000000057" height="0.5350000000000057" fill="#37D449" />
<rect x="1.0850000000000113" y="4.3250000000000455" width="0.5350000000000057" height="0.5350000000000057" fill="#54D2EB" />
<rect x="1.6250000000000169" y="4.3250000000000455" width="0.5350000000000057" height="0.5350000000000057" fill="#FF4136" />
<rect x="0.005" y="4.865000000000051" width="0.5350000000000057" height="0.5350000000000057" fill="#37D449" />
<rect x="0.5450000000000057" y="4.865000000000051" width="0.5350000000000057" height="0.5350000000000057" fill="#37D449" />
<rect x="1.0850000000000113" y="4.865000000000051" width="0.5350000000000057" height="0.5350000000000057" fill="#54D2EB" />
<rect x="1.6250000000000169" y="4.865000000000051" width="0.5350000000000057" height="0.5350000000000057" fill="#FF4136" />
<rect x="-0.02666666666666667" y="-0.02666666666666667" width="2.213333333333356" height="5.453333333333391" fill="none" stroke="#111111ff" stroke-width="0.08" />
<text x="2.160000000000023" y="5.868750000000057" font-size="0.375" fill="black" text-anchor="end" font-family="Anuphan">4x10</text>
<text x="-0.037500000000000006" y="5.868750000000057" font-size="0.375" fill="black" text-anchor="start" font-family="Anuphan" font-weight="600">Input 2</text>
</g>
<g id="d2">
<rect x="0.005" y="0.005" width="0.5350000000000057" height="0.5350000000000057" fill="#252525" />
<rect x="0.5450000000000057" y="0.005" width="0.5350000000000057" height="0.5350000000000057" fill="#252525" />
<rect x="1.0850000000000113" y="0.005" width="0.5350000000000057" height="0.5350000000000057" fill="#252525" />
<rect x="1.6250000000000169" y="0.005" width="0.5350000000000057" height="0.5350000000000057" fill="#252525" />
<rect x="0.005" y="0.5450000000000057" width="0.5350000000000057" height="0.5350000000000057" fill="#252525" />
<rect x="0.5450000000000057" y="0.5450000000000057" width="0.5350000000000057" height="0.5350000000000057" fill="#252525" />
<rect x="1.0850000000000113" y="0.5450000000000057" width="0.5350000000000057" height="0.5350000000000057" fill="#252525" />
<rect x="1.6250000000000169" y="0.5450000000000057" width="0.5350000000000057" height="0.5350000000000057" fill="#252525" />
<rect x="0.005" y="1.0850000000000113" width="0.5350000000000057" height="0.5350000000000057" fill="#252525" />
<rect x="0.5450000000000057" y="1.0850000000000113" width="0.5350000000000057" height="0.5350000000000057" fill="#252525" />
<rect x="1.0850000000000113" y="1.0850000000000113" width="0.5350000000000057" height="0.5350000000000057" fill="#252525" />
<rect x="1.6250000000000169" y="1.0850000000000113" width="0.5350000000000057" height="0.5350000000000057" fill="#252525" />
<rect x="0.005" y="1.6250000000000169" width="0.5350000000000057" height="0.5350000000000057" fill="#252525" />
<rect x="0.5450000000000057" y="1.6250000000000169" width="0.5350000000000057" height="0.5350000000000057" fill="#252525" />
<rect x="1.0850000000000113" y="1.6250000000000169" width="0.5350000000000057" height="0.5350000000000057" fill="#252525" />
<rect x="1.6250000000000169" y="1.6250000000000169" width="0.5350000000000057" height="0.5350000000000057" fill="#252525" />
<rect x="0.005" y="2.1650000000000227" width="0.5350000000000057" height="0.5350000000000057" fill="#252525" />
<rect x="0.5450000000000057" y="2.1650000000000227" width="0.5350000000000057" height="0.5350000000000057" fill="#252525" />
<rect x="1.0850000000000113" y="2.1650000000000227" width="0.5350000000000057" height="0.5350000000000057" fill="#252525" />
<rect x="1.6250000000000169" y="2.1650000000000227" width="0.5350000000000057" height="0.5350000000000057" fill="#252525" />
<rect x="0.005" y="2.7050000000000285" width="0.5350000000000057" height="0.5350000000000057" fill="#252525" />
<rect x="0.5450000000000057" y="2.7050000000000285" width="0.5350000000000057" height="0.5350000000000057" fill="#0074D9" />
<rect x="1.0850000000000113" y="2.7050000000000285" width="0.5350000000000057" height="0.5350000000000057" fill="#252525" />
<rect x="1.6250000000000169" y="2.7050000000000285" width="0.5350000000000057" height="0.5350000000000057" fill="#252525" />
<rect x="0.005" y="3.245000000000034" width="0.5350000000000057" height="0.5350000000000057" fill="#FF871E" />
<rect x="0.5450000000000057" y="3.245000000000034" width="0.5350000000000057" height="0.5350000000000057" fill="#0074D9" />
<rect x="1.0850000000000113" y="3.245000000000034" width="0.5350000000000057" height="0.5350000000000057" fill="#252525" />
<rect x="1.6250000000000169" y="3.245000000000034" width="0.5350000000000057" height="0.5350000000000057" fill="#252525" />
<rect x="0.005" y="3.7850000000000397" width="0.5350000000000057" height="0.5350000000000057" fill="#FF871E" />
<rect x="0.5450000000000057" y="3.7850000000000397" width="0.5350000000000057" height="0.5350000000000057" fill="#0074D9" />
<rect x="1.0850000000000113" y="3.7850000000000397" width="0.5350000000000057" height="0.5350000000000057" fill="#37D449" />
<rect x="1.6250000000000169" y="3.7850000000000397" width="0.5350000000000057" height="0.5350000000000057" fill="#252525" />
<rect x="0.005" y="4.3250000000000455" width="0.5350000000000057" height="0.5350000000000057" fill="#FF871E" />
<rect x="0.5450000000000057" y="4.3250000000000455" width="0.5350000000000057" height="0.5350000000000057" fill="#0074D9" />
<rect x="1.0850000000000113" y="4.3250000000000455" width="0.5350000000000057" height="0.5350000000000057" fill="#37D449" />
<rect x="1.6250000000000169" y="4.3250000000000455" width="0.5350000000000057" height="0.5350000000000057" fill="#37D449" />
<rect x="0.005" y="4.865000000000051" width="0.5350000000000057" height="0.5350000000000057" fill="#FF871E" />
<rect x="0.5450000000000057" y="4.865000000000051" width="0.5350000000000057" height="0.5350000000000057" fill="#0074D9" />
<rect x="1.0850000000000113" y="4.865000000000051" width="0.5350000000000057" height="0.5350000000000057" fill="#FFDC00" />
<rect x="1.6250000000000169" y="4.865000000000051" width="0.5350000000000057" height="0.5350000000000057" fill="#FFDC00" />
<rect x="-0.02666666666666667" y="-0.02666666666666667" width="2.213333333333356" height="5.453333333333391" fill="none" stroke="#111111ff" stroke-width="0.08" />
<text x="2.160000000000023" y="5.868750000000057" font-size="0.375" fill="black" text-anchor="end" font-family="Anuphan">4x10</text>
<text x="-0.037500000000000006" y="5.868750000000057" font-size="0.375" fill="black" text-anchor="start" font-family="Anuphan" font-weight="600">Test 1</text>
</g>
<g id="d3">
<rect x="0.005" y="0.005" width="0.5350000000000057" height="0.5350000000000057" fill="#FF4136" />
<rect x="0.5450000000000057" y="0.005" width="0.5350000000000057" height="0.5350000000000057" fill="#FFDC00" />
<rect x="1.0850000000000113" y="0.005" width="0.5350000000000057" height="0.5350000000000057" fill="#37D449" />
<rect x="1.6250000000000169" y="0.005" width="0.5350000000000057" height="0.5350000000000057" fill="#8D1D2C" />
<rect x="0.005" y="0.5450000000000057" width="0.5350000000000057" height="0.5350000000000057" fill="#FF4136" />
<rect x="0.5450000000000057" y="0.5450000000000057" width="0.5350000000000057" height="0.5350000000000057" fill="#252525" />
<rect x="1.0850000000000113" y="0.5450000000000057" width="0.5350000000000057" height="0.5350000000000057" fill="#37D449" />
<rect x="1.6250000000000169" y="0.5450000000000057" width="0.5350000000000057" height="0.5350000000000057" fill="#8D1D2C" />
<rect x="0.005" y="1.0850000000000113" width="0.5350000000000057" height="0.5350000000000057" fill="#252525" />
<rect x="0.5450000000000057" y="1.0850000000000113" width="0.5350000000000057" height="0.5350000000000057" fill="#252525" />
<rect x="1.0850000000000113" y="1.0850000000000113" width="0.5350000000000057" height="0.5350000000000057" fill="#37D449" />
<rect x="1.6250000000000169" y="1.0850000000000113" width="0.5350000000000057" height="0.5350000000000057" fill="#8D1D2C" />
<rect x="0.005" y="1.6250000000000169" width="0.5350000000000057" height="0.5350000000000057" fill="#252525" />
<rect x="0.5450000000000057" y="1.6250000000000169" width="0.5350000000000057" height="0.5350000000000057" fill="#252525" />
<rect x="1.0850000000000113" y="1.6250000000000169" width="0.5350000000000057" height="0.5350000000000057" fill="#37D449" />
<rect x="1.6250000000000169" y="1.6250000000000169" width="0.5350000000000057" height="0.5350000000000057" fill="#8D1D2C" />
<rect x="0.005" y="2.1650000000000227" width="0.5350000000000057" height="0.5350000000000057" fill="#252525" />
<rect x="0.5450000000000057" y="2.1650000000000227" width="0.5350000000000057" height="0.5350000000000057" fill="#252525" />
<rect x="1.0850000000000113" y="2.1650000000000227" width="0.5350000000000057" height="0.5350000000000057" fill="#252525" />
<rect x="1.6250000000000169" y="2.1650000000000227" width="0.5350000000000057" height="0.5350000000000057" fill="#8D1D2C" />
<rect x="0.005" y="2.7050000000000285" width="0.5350000000000057" height="0.5350000000000057" fill="#252525" />
<rect x="0.5450000000000057" y="2.7050000000000285" width="0.5350000000000057" height="0.5350000000000057" fill="#252525" />
<rect x="1.0850000000000113" y="2.7050000000000285" width="0.5350000000000057" height="0.5350000000000057" fill="#252525" />
<rect x="1.6250000000000169" y="2.7050000000000285" width="0.5350000000000057" height="0.5350000000000057" fill="#8D1D2C" />
<rect x="0.005" y="3.245000000000034" width="0.5350000000000057" height="0.5350000000000057" fill="#252525" />
<rect x="0.5450000000000057" y="3.245000000000034" width="0.5350000000000057" height="0.5350000000000057" fill="#252525" />
<rect x="1.0850000000000113" y="3.245000000000034" width="0.5350000000000057" height="0.5350000000000057" fill="#37D449" />
<rect x="1.6250000000000169" y="3.245000000000034" width="0.5350000000000057" height="0.5350000000000057" fill="#8D1D2C" />
<rect x="0.005" y="3.7850000000000397" width="0.5350000000000057" height="0.5350000000000057" fill="#252525" />
<rect x="0.5450000000000057" y="3.7850000000000397" width="0.5350000000000057" height="0.5350000000000057" fill="#252525" />
<rect x="1.0850000000000113" y="3.7850000000000397" width="0.5350000000000057" height="0.5350000000000057" fill="#37D449" />
<rect x="1.6250000000000169" y="3.7850000000000397" width="0.5350000000000057" height="0.5350000000000057" fill="#8D1D2C" />
<rect x="0.005" y="4.3250000000000455" width="0.5350000000000057" height="0.5350000000000057" fill="#FF4136" />
<rect x="0.5450000000000057" y="4.3250000000000455" width="0.5350000000000057" height="0.5350000000000057" fill="#252525" />
<rect x="1.0850000000000113" y="4.3250000000000455" width="0.5350000000000057" height="0.5350000000000057" fill="#37D449" />
<rect x="1.6250000000000169" y="4.3250000000000455" width="0.5350000000000057" height="0.5350000000000057" fill="#8D1D2C" />
<rect x="0.005" y="4.865000000000051" width="0.5350000000000057" height="0.5350000000000057" fill="#FF4136" />
<rect x="0.5450000000000057" y="4.865000000000051" width="0.5350000000000057" height="0.5350000000000057" fill="#FFDC00" />
<rect x="1.0850000000000113" y="4.865000000000051" width="0.5350000000000057" height="0.5350000000000057" fill="#37D449" />
<rect x="1.6250000000000169" y="4.865000000000051" width="0.5350000000000057" height="0.5350000000000057" fill="#8D1D2C" />
<rect x="-0.02666666666666667" y="-0.02666666666666667" width="2.213333333333356" height="5.453333333333391" fill="none" stroke="#111111ff" stroke-width="0.08" />
<text x="2.160000000000023" y="5.868750000000057" font-size="0.375" fill="black" text-anchor="end" font-family="Anuphan">4x10</text>
<text x="-0.037500000000000006" y="5.868750000000057" font-size="0.375" fill="black" text-anchor="start" font-family="Anuphan" font-weight="600">Output 1</text>
</g>
<g id="d4">
<rect x="0.005" y="0.005" width="0.5350000000000057" height="0.5350000000000057" fill="#37D449" />
<rect x="0.5450000000000057" y="0.005" width="0.5350000000000057" height="0.5350000000000057" fill="#37D449" />
<rect x="1.0850000000000113" y="0.005" width="0.5350000000000057" height="0.5350000000000057" fill="#54D2EB" />
<rect x="1.6250000000000169" y="0.005" width="0.5350000000000057" height="0.5350000000000057" fill="#FF4136" />
<rect x="0.005" y="0.5450000000000057" width="0.5350000000000057" height="0.5350000000000057" fill="#252525" />
<rect x="0.5450000000000057" y="0.5450000000000057" width="0.5350000000000057" height="0.5350000000000057" fill="#37D449" />
<rect x="1.0850000000000113" y="0.5450000000000057" width="0.5350000000000057" height="0.5350000000000057" fill="#54D2EB" />
<rect x="1.6250000000000169" y="0.5450000000000057" width="0.5350000000000057" height="0.5350000000000057" fill="#FF4136" />
<rect x="0.005" y="1.0850000000000113" width="0.5350000000000057" height="0.5350000000000057" fill="#252525" />
<rect x="0.5450000000000057" y="1.0850000000000113" width="0.5350000000000057" height="0.5350000000000057" fill="#54D2EB" />
<rect x="1.0850000000000113" y="1.0850000000000113" width="0.5350000000000057" height="0.5350000000000057" fill="#252525" />
<rect x="1.6250000000000169" y="1.0850000000000113" width="0.5350000000000057" height="0.5350000000000057" fill="#FF4136" />
<rect x="0.005" y="1.6250000000000169" width="0.5350000000000057" height="0.5350000000000057" fill="#252525" />
<rect x="0.5450000000000057" y="1.6250000000000169" width="0.5350000000000057" height="0.5350000000000057" fill="#252525" />
<rect x="1.0850000000000113" y="1.6250000000000169" width="0.5350000000000057" height="0.5350000000000057" fill="#252525" />
<rect x="1.6250000000000169" y="1.6250000000000169" width="0.5350000000000057" height="0.5350000000000057" fill="#FF4136" />
<rect x="0.005" y="2.1650000000000227" width="0.5350000000000057" height="0.5350000000000057" fill="#252525" />
<rect x="0.5450000000000057" y="2.1650000000000227" width="0.5350000000000057" height="0.5350000000000057" fill="#252525" />
<rect x="1.0850000000000113" y="2.1650000000000227" width="0.5350000000000057" height="0.5350000000000057" fill="#252525" />
<rect x="1.6250000000000169" y="2.1650000000000227" width="0.5350000000000057" height="0.5350000000000057" fill="#FF4136" />
<rect x="0.005" y="2.7050000000000285" width="0.5350000000000057" height="0.5350000000000057" fill="#252525" />
<rect x="0.5450000000000057" y="2.7050000000000285" width="0.5350000000000057" height="0.5350000000000057" fill="#252525" />
<rect x="1.0850000000000113" y="2.7050000000000285" width="0.5350000000000057" height="0.5350000000000057" fill="#252525" />
<rect x="1.6250000000000169" y="2.7050000000000285" width="0.5350000000000057" height="0.5350000000000057" fill="#FF4136" />
<rect x="0.005" y="3.245000000000034" width="0.5350000000000057" height="0.5350000000000057" fill="#252525" />
<rect x="0.5450000000000057" y="3.245000000000034" width="0.5350000000000057" height="0.5350000000000057" fill="#252525" />
<rect x="1.0850000000000113" y="3.245000000000034" width="0.5350000000000057" height="0.5350000000000057" fill="#252525" />
<rect x="1.6250000000000169" y="3.245000000000034" width="0.5350000000000057" height="0.5350000000000057" fill="#FF4136" />
<rect x="0.005" y="3.7850000000000397" width="0.5350000000000057" height="0.5350000000000057" fill="#252525" />
<rect x="0.5450000000000057" y="3.7850000000000397" width="0.5350000000000057" height="0.5350000000000057" fill="#54D2EB" />
<rect x="1.0850000000000113" y="3.7850000000000397" width="0.5350000000000057" height="0.5350000000000057" fill="#252525" />
<rect x="1.6250000000000169" y="3.7850000000000397" width="0.5350000000000057" height="0.5350000000000057" fill="#FF4136" />
<rect x="0.005" y="4.3250000000000455" width="0.5350000000000057" height="0.5350000000000057" fill="#252525" />
<rect x="0.5450000000000057" y="4.3250000000000455" width="0.5350000000000057" height="0.5350000000000057" fill="#37D449" />
<rect x="1.0850000000000113" y="4.3250000000000455" width="0.5350000000000057" height="0.5350000000000057" fill="#54D2EB" />
<rect x="1.6250000000000169" y="4.3250000000000455" width="0.5350000000000057" height="0.5350000000000057" fill="#FF4136" />
<rect x="0.005" y="4.865000000000051" width="0.5350000000000057" height="0.5350000000000057" fill="#37D449" />
<rect x="0.5450000000000057" y="4.865000000000051" width="0.5350000000000057" height="0.5350000000000057" fill="#37D449" />
<rect x="1.0850000000000113" y="4.865000000000051" width="0.5350000000000057" height="0.5350000000000057" fill="#54D2EB" />
<rect x="1.6250000000000169" y="4.865000000000051" width="0.5350000000000057" height="0.5350000000000057" fill="#FF4136" />
<rect x="-0.02666666666666667" y="-0.02666666666666667" width="2.213333333333356" height="5.453333333333391" fill="none" stroke="#111111ff" stroke-width="0.08" />
<text x="2.160000000000023" y="5.868750000000057" font-size="0.375" fill="black" text-anchor="end" font-family="Anuphan">4x10</text>
<text x="-0.037500000000000006" y="5.868750000000057" font-size="0.375" fill="black" text-anchor="start" font-family="Anuphan" font-weight="600">Output 2</text>
</g>
</defs>
<rect x="0" y="0" width="100%" height="100%" fill="#eeeff6" />
<use xlink:href="#d0" x="0.25" y="0.25" />
<use xlink:href="#d1" x="2.910000000000023" y="0.25" />
<use xlink:href="#d2" x="5.570000000000046" y="0.25" />
<path d="M1.3300000000000114,6.3000000000000576 L1.3300000000000114,6.700000000000058" stroke-width="0.05" stroke="#888888" />
<path d="M1.1800000000000115,6.500000000000058 L1.3300000000000114,6.700000000000058" stroke-width="0.05" stroke="#888888" />
<path d="M1.4800000000000113,6.500000000000058 L1.3300000000000114,6.700000000000058" stroke-width="0.05" stroke="#888888" />
<use xlink:href="#d3" x="0.25" y="7.0500000000000576" />
<path d="M3.990000000000034,6.3000000000000576 L3.990000000000034,6.700000000000058" stroke-width="0.05" stroke="#888888" />
<path d="M3.840000000000034,6.500000000000058 L3.990000000000034,6.700000000000058" stroke-width="0.05" stroke="#888888" />
<path d="M4.140000000000034,6.500000000000058 L3.990000000000034,6.700000000000058" stroke-width="0.05" stroke="#888888" />
<use xlink:href="#d4" x="2.910000000000023" y="7.0500000000000576" />
<path d="M6.650000000000057,6.3000000000000576 L6.650000000000057,6.700000000000058" stroke-width="0.05" stroke="#888888" />
<path d="M6.500000000000057,6.500000000000058 L6.650000000000057,6.700000000000058" stroke-width="0.05" stroke="#888888" />
<path d="M6.8000000000000576,6.500000000000058 L6.650000000000057,6.700000000000058" stroke-width="0.05" stroke="#888888" />
<text x="6.650000000000057" y="9.850000000000087" font-size="1" font-family="Anuphan" font-weight="700" fill="#333333" text-anchor="middle" alignment-baseline="middle">?</text>
<text x="7.9" y="13.299999999999999" font-size="0.3" font-family="Anuphan" font-weight="600" fill="#666666" text-anchor="end" alignment-baseline="bottom">Task f25ffba3</text>
</svg>